<?xml version="1.0" encoding="UTF-8"?>
<svg width="125px" height="125px" viewBox="0 0 125 125" version="1.1" xmlns="http://www.w3.org/2000/svg" xmlns:xlink="http://www.w3.org/1999/xlink">
    <title>Amount 金额</title>
    <defs>
        <linearGradient x1="50%" y1="45.9685271%" x2="50%" y2="100%" id="linearGradient-1">
            <stop stop-color="#ECF3FB" offset="0%"></stop>
            <stop stop-color="#FFFFFF" offset="100%"></stop>
        </linearGradient>
        <linearGradient x1="50.3956523%" y1="35.9331967%" x2="50%" y2="64.0668033%" id="linearGradient-2">
            <stop stop-color="#E3EFFD" stop-opacity="0.00575352382" offset="0%"></stop>
            <stop stop-color="#E5F0FD" offset="34.0601199%"></stop>
            <stop stop-color="#F0F6FE" offset="100%"></stop>
        </linearGradient>
        <linearGradient x1="33.3333333%" y1="34.495573%" x2="96.9740837%" y2="65.4421891%" id="linearGradient-3">
            <stop stop-color="#D5E6F9" offset="0%"></stop>
            <stop stop-color="#F7FBFF" stop-opacity="0" offset="100%"></stop>
        </linearGradient>
        <linearGradient x1="90.9912104%" y1="29.4309598%" x2="33.3333333%" y2="67.7472684%" id="linearGradient-4">
            <stop stop-color="#D5E6F9" offset="0%"></stop>
            <stop stop-color="#E7F0F9" stop-opacity="0" offset="100%"></stop>
        </linearGradient>
        <linearGradient x1="-5.8027489%" y1="27.0499439%" x2="103.630422%" y2="71.1332543%" id="linearGradient-5">
            <stop stop-color="#CEE6FE" offset="0%"></stop>
            <stop stop-color="#8AB5F2" offset="100%"></stop>
        </linearGradient>
        <linearGradient x1="-5.8027489%" y1="27.0499439%" x2="103.630422%" y2="71.1332543%" id="linearGradient-6">
            <stop stop-color="#BFD6F9" offset="0%"></stop>
            <stop stop-color="#F3F6FE" offset="100%"></stop>
        </linearGradient>
        <linearGradient x1="89.8473889%" y1="61.7348066%" x2="0%" y2="61.7348066%" id="linearGradient-7">
            <stop stop-color="#CAD9F3" offset="0%"></stop>
            <stop stop-color="#D5E3F7" offset="100%"></stop>
        </linearGradient>
        <filter x="-18.5%" y="-60.0%" width="136.9%" height="220.0%" filterUnits="objectBoundingBox" id="filter-8">
            <feGaussianBlur stdDeviation="4" in="SourceGraphic"></feGaussianBlur>
        </filter>
        <linearGradient x1="44.0988019%" y1="54.2092971%" x2="128.792906%" y2="39.279303%" id="linearGradient-9">
            <stop stop-color="#5073E5" offset="0%"></stop>
            <stop stop-color="#5E7CE0" offset="100%"></stop>
        </linearGradient>
        <linearGradient x1="62.7226918%" y1="1.13686838e-11%" x2="38.9532509%" y2="100%" id="linearGradient-10">
            <stop stop-color="#FFCC00" offset="0%"></stop>
            <stop stop-color="#FF9D00" offset="100%"></stop>
        </linearGradient>
    </defs>
    <g id="页面一" stroke="none" stroke-width="1" fill="none" fill-rule="evenodd">
        <g id="-TinyUI-Vue-组件总览2" transform="translate(-1092.000000, -334.000000)">
            <g id="编组-17备份" transform="translate(994.000000, 301.000000)">
                <g id="Amount-金额" transform="translate(98.000000, 33.000000)">
                    <g id="编组">
                        <g transform="translate(9.000000, 1.000000)" id="多边形">
                            <polygon fill="url(#linearGradient-1)" opacity="0.54620216" points="53.2605623 0 106.521125 30.75 53.2605623 62 0 30.75"></polygon>
                            <polygon fill="url(#linearGradient-2)" points="53.2605623 61.5 106.521125 86.75 53.2605623 118 0 86.75"></polygon>
                            <polygon fill="url(#linearGradient-3)" opacity="0.600606283" points="53.2605623 62 53.2605623 123 7.39138783e-15 92.25 0 30.75"></polygon>
                            <polygon fill="url(#linearGradient-4)" opacity="0.791265578" points="53.2605623 62 106.521125 30.75 106.521125 92.25 53.2605623 123"></polygon>
                            <polygon fill="url(#linearGradient-5)" points="53.2605623 118.007802 53.2605623 123 7.39138783e-15 92.25 0 86.9161706"></polygon>
                            <polygon fill="url(#linearGradient-6)" transform="translate(79.630281, 104.958085) scale(-1, 1) translate(-79.630281, -104.958085) " points="106.260562 118.007802 106.260562 123 53 92.25 53 86.9161706"></polygon>
                        </g>
                        <ellipse id="椭圆形" fill="url(#linearGradient-7)" filter="url(#filter-8)" cx="62.5" cy="90" rx="32.5" ry="10"></ellipse>
                    </g>
                    <path d="M30,49.22 L97,49.22 L97,49.22 L97,73.22 L30,73.22 C27.790861,73.22 26,71.429139 26,69.22 L26,53.22 C26,51.010861 27.790861,49.22 30,49.22 Z" id="矩形" fill="url(#linearGradient-9)" opacity="0.204287574"></path>
                    <path d="M91,73.22 L30.6428571,73.22 C28.0786779,73.22 26,71.429139 26,69.22 L26,53.22 C26,51.010861 28.0786779,49.22 30.6428571,49.22 L91,49.22 L91,49.22" id="路径" stroke="#5073E5" stroke-width="4"></path>
                    <path d="M91,49.22 L94.8051747,49.22 C97.0143137,49.22 98.8051747,51.010861 98.8051747,53.22 L98.8051747,69.22 C98.8051747,71.429139 97.0143137,73.22 94.8051747,73.22 L91,73.22 L91,73.22" id="路径" stroke="#5073E5" stroke-width="4"></path>
                    <path d="M81.6408207,43.0135369 L81.6408207,46.4308307 C84.0761107,46.8193269 85.6320867,47.7261089 86.9062583,48.4325936 L86.9062583,48.4325936 L84.8328162,56.8939215 C83.9933778,56.0786623 83.1724754,55.6614567 82.6531468,55.3911172 C81.9337627,55.0166377 80.6516155,54.3297905 78.6913205,54.3297905 C78.3405066,54.3297905 78.0519329,54.3426735 77.8444865,54.4300356 C78.4892812,54.8172658 79.3718574,55.2058036 80.6066331,55.6882807 C83.0192885,56.6125627 84.6646427,57.7245706 85.7460212,59.0515197 C86.9366733,60.5125575 87.5108815,62.2567609 87.5108815,64.462397 C87.5108815,66.6551291 86.7685359,68.6740476 85.3734055,70.2455102 C84.406162,71.3350048 83.1161862,72.219785 81.5059605,72.7713911 L81.5059605,72.7713911 L81.5059605,77.0135369 L74.1461905,77.0135369 L74.1461905,73.3081192 C71.2557334,72.8138454 68.7857094,71.6081781 68.155762,70.6459133 L68.155762,70.6459133 L70.1752476,62.1089037 C70.8853943,62.8853349 71.6862959,63.4862805 72.415135,63.9182409 C73.5827348,64.6102412 75.2195584,65.256261 77.0276662,65.256261 C77.5373857,65.256261 77.9910642,65.2059437 78.2956127,64.9951109 C77.7101239,64.3236831 76.9887431,64.0132161 76.0040186,63.6574208 C73.7101267,62.8212237 71.8426097,61.7678415 70.5738014,60.3699314 C69.3193977,58.9878915 68.5821884,57.2751075 68.5821884,55.0502026 C68.5821884,52.8805002 69.3051152,50.9670035 70.613168,49.4739967 C71.5449171,48.4105015 72.7856057,47.5515342 74.3150629,46.994659 L74.3150629,46.994659 L74.3150628,43.0135369 L81.6408207,43.0135369 Z" id="路径" stroke="#FAFCFE" stroke-width="4" fill="url(#linearGradient-10)"></path>
                </g>
            </g>
        </g>
    </g>
</svg>