<?xml version="1.0" encoding="UTF-8"?>
<svg width="125px" height="125px" viewBox="0 0 125 125" version="1.1" xmlns="http://www.w3.org/2000/svg" xmlns:xlink="http://www.w3.org/1999/xlink">
    <title>Anchor 锚点</title>
    <defs>
        <linearGradient x1="50%" y1="45.9685271%" x2="50%" y2="100%" id="linearGradient-1">
            <stop stop-color="#ECF3FB" offset="0%"></stop>
            <stop stop-color="#FFFFFF" offset="100%"></stop>
        </linearGradient>
        <linearGradient x1="50.3956523%" y1="35.9331967%" x2="50%" y2="64.0668033%" id="linearGradient-2">
            <stop stop-color="#E3EFFD" stop-opacity="0.00575352382" offset="0%"></stop>
            <stop stop-color="#E5F0FD" offset="34.0601199%"></stop>
            <stop stop-color="#F0F6FE" offset="100%"></stop>
        </linearGradient>
        <linearGradient x1="33.3333333%" y1="34.495573%" x2="96.9740837%" y2="65.4421891%" id="linearGradient-3">
            <stop stop-color="#D5E6F9" offset="0%"></stop>
            <stop stop-color="#F7FBFF" stop-opacity="0" offset="100%"></stop>
        </linearGradient>
        <linearGradient x1="90.9912104%" y1="29.4309598%" x2="33.3333333%" y2="67.7472684%" id="linearGradient-4">
            <stop stop-color="#D5E6F9" offset="0%"></stop>
            <stop stop-color="#E7F0F9" stop-opacity="0" offset="100%"></stop>
        </linearGradient>
        <linearGradient x1="-5.8027489%" y1="27.0499439%" x2="103.630422%" y2="71.1332543%" id="linearGradient-5">
            <stop stop-color="#CEE6FE" offset="0%"></stop>
            <stop stop-color="#8AB5F2" offset="100%"></stop>
        </linearGradient>
        <linearGradient x1="-5.8027489%" y1="27.0499439%" x2="103.630422%" y2="71.1332543%" id="linearGradient-6">
            <stop stop-color="#BFD6F9" offset="0%"></stop>
            <stop stop-color="#F3F6FE" offset="100%"></stop>
        </linearGradient>
        <linearGradient x1="89.8473889%" y1="61.7348066%" x2="0%" y2="61.7348066%" id="linearGradient-7">
            <stop stop-color="#CAD9F3" offset="0%"></stop>
            <stop stop-color="#D5E3F7" offset="100%"></stop>
        </linearGradient>
        <filter x="-18.5%" y="-60.0%" width="136.9%" height="220.0%" filterUnits="objectBoundingBox" id="filter-8">
            <feGaussianBlur stdDeviation="4" in="SourceGraphic"></feGaussianBlur>
        </filter>
        <linearGradient x1="45.4160185%" y1="86.8386573%" x2="111.205406%" y2="-43.8247114%" id="linearGradient-9">
            <stop stop-color="#5073E5" offset="0%"></stop>
            <stop stop-color="#5E7CE0" offset="100%"></stop>
        </linearGradient>
        <linearGradient x1="45.4160185%" y1="86.8386573%" x2="111.205406%" y2="-43.8247114%" id="linearGradient-10">
            <stop stop-color="#5073E5" offset="0%"></stop>
            <stop stop-color="#5E7CE0" offset="100%"></stop>
        </linearGradient>
        <linearGradient x1="50%" y1="0%" x2="50%" y2="100%" id="linearGradient-11">
            <stop stop-color="#FFCC00" offset="0%"></stop>
            <stop stop-color="#FF9D00" offset="100%"></stop>
        </linearGradient>
        <rect id="path-12" x="20" y="30" width="22" height="7" rx="3.5"></rect>
        <filter x="-15.9%" y="-35.7%" width="131.8%" height="200.0%" filterUnits="objectBoundingBox" id="filter-13">
            <feOffset dx="0" dy="1" in="SourceAlpha" result="shadowOffsetOuter1"></feOffset>
            <feGaussianBlur stdDeviation="1" in="shadowOffsetOuter1" result="shadowBlurOuter1"></feGaussianBlur>
            <feColorMatrix values="0 0 0 0 0.661752894   0 0 0 0 0.324547702   0 0 0 0 0.00489962574  0 0 0 0.5 0" type="matrix" in="shadowBlurOuter1"></feColorMatrix>
        </filter>
    </defs>
    <g id="页面一" stroke="none" stroke-width="1" fill="none" fill-rule="evenodd">
        <g id="-TinyUI-ICON-1-【9-2】" transform="translate(-1089.000000, -3451.000000)">
            <g id="Anchor-锚点" transform="translate(1089.000000, 3451.000000)">
                <g id="编组">
                    <g transform="translate(9.000000, 1.000000)" id="多边形">
                        <polygon fill="url(#linearGradient-1)" opacity="0.54620216" points="53.2605623 0 106.521125 30.75 53.2605623 62 0 30.75"></polygon>
                        <polygon fill="url(#linearGradient-2)" points="53.2605623 61.5 106.521125 86.75 53.2605623 118 0 86.75"></polygon>
                        <polygon fill="url(#linearGradient-3)" opacity="0.600606283" points="53.2605623 62 53.2605623 123 7.39138783e-15 92.25 0 30.75"></polygon>
                        <polygon fill="url(#linearGradient-4)" opacity="0.791265578" points="53.2605623 62 106.521125 30.75 106.521125 92.25 53.2605623 123"></polygon>
                        <polygon fill="url(#linearGradient-5)" points="53.2605623 118.007802 53.2605623 123 7.39138783e-15 92.25 0 86.9161706"></polygon>
                        <polygon fill="url(#linearGradient-6)" transform="translate(79.630281, 104.958085) scale(-1, 1) translate(-79.630281, -104.958085) " points="106.260562 118.007802 106.260562 123 53 92.25 53 86.9161706"></polygon>
                    </g>
                    <ellipse id="椭圆形" fill="url(#linearGradient-7)" filter="url(#filter-8)" cx="62.5" cy="90" rx="32.5" ry="10"></ellipse>
                </g>
                <g id="编组-19" transform="translate(32.000000, 28.000000)">
                    <g id="anchor" transform="translate(5.000000, 5.000000)" fill="url(#linearGradient-9)" stroke="url(#linearGradient-10)">
                        <path d="M11.7,28.2173913 C11.7,29.6282609 10.53,30.7826087 9.10000003,30.7826087 L5.33000002,30.7826087 C6.11000002,41.6847826 11.57,43.8652174 17.42,46.3021739 C19.37,47.0717391 21.58,47.9695652 23.4,49.2521739 L23.4,30.7826087 L18.2,30.7826087 C16.77,30.7826087 15.6,29.6282608 15.6,28.2173913 C15.6,26.8065218 16.77,25.6521739 18.2,25.6521739 L23.4,25.6521739 L23.4,20.1369565 C18.98,18.9826087 15.6,15.0065218 15.6,10.2608696 C15.6,4.6173913 20.28,0 26,0 C31.72,0 36.4,4.6173913 36.4,10.2608696 C36.4,15.0065217 33.02,18.9826087 28.6,20.1369565 L28.6,25.6521739 L33.8,25.6521739 C35.23,25.6521739 36.4,26.8065217 36.4,28.2173913 C36.4,29.6282609 35.23,30.7826087 33.8,30.7826087 L28.6,30.7826087 L28.6,49.2521739 C30.55,47.9695652 32.63,47.2 34.58,46.3021739 C40.43,43.9934783 45.89,41.6847826 46.67,30.7826087 L42.9,30.7826087 C41.4699999,30.7826087 40.2999999,29.6282608 40.3,28.2173913 C40.3000001,26.8065218 41.47,25.6521739 42.9,25.6521739 L49.4,25.6521739 C50.83,25.6521739 52,26.8065217 52,28.2173913 C52,44.7630435 43.42,48.226087 36.53,51.0478261 C32.24,52.8434783 29.51,53.9978261 28.47,57.2043478 L28.47,57.3326087 C28.34,57.5891304 28.34,57.7173913 28.21,57.973913 C28.08,58.1021739 27.95,58.3586956 27.69,58.4869565 C27.69,58.4869565 27.56,58.4869565 27.56,58.6152174 C27.43,58.7434782 27.17,58.8717392 26.91,58.8717391 C26.52,59 26.39,59 26.13,59 L25.74,59 C25.61,59 25.48,59 25.48,58.8717391 L25.35,58.8717391 C25.09,58.7434782 24.96,58.7434782 24.7,58.6152174 C24.7,58.6152174 24.57,58.6152174 24.57,58.4869565 C24.44,58.3586956 24.18,58.2304347 24.05,57.973913 C24.05,57.973913 24.05,57.8456522 23.92,57.8456522 C23.79,57.5891304 23.66,57.4608696 23.53,57.2043478 C22.49,53.9978261 19.76,52.7152174 15.47,51.0478261 C8.57999999,48.226087 0,44.7630435 0,28.2173913 C0,26.8065217 1.17,25.6521739 2.60000002,25.6521739 L9.10000003,25.6521739 C10.5300001,25.6521739 11.7000001,26.8065217 11.7,28.2173913 Z M20.8,10.2608696 C20.8,13.0826087 23.14,15.3913043 26,15.3913043 C28.86,15.3913043 31.2,13.0826087 31.2,10.2608696 C31.2,7.43913047 28.86,5.13043482 26,5.13043482 C23.14,5.13043482 20.8,7.43913047 20.8,10.2608696 Z" id="形状"></path>
                    </g>
                    <g id="矩形">
                        <use fill="black" fill-opacity="1" filter="url(#filter-13)" xlink:href="#path-12"></use>
                        <use fill="url(#linearGradient-11)" fill-rule="evenodd" xlink:href="#path-12"></use>
                    </g>
                </g>
            </g>
        </g>
    </g>
</svg>