<?xml version="1.0" encoding="UTF-8"?>
<svg width="125px" height="125px" viewBox="0 0 125 125" version="1.1" xmlns="http://www.w3.org/2000/svg" xmlns:xlink="http://www.w3.org/1999/xlink">
    <title>Area 片区</title>
    <defs>
        <linearGradient x1="50%" y1="45.9685271%" x2="50%" y2="100%" id="linearGradient-1">
            <stop stop-color="#ECF3FB" offset="0%"></stop>
            <stop stop-color="#FFFFFF" offset="100%"></stop>
        </linearGradient>
        <linearGradient x1="50.3956523%" y1="35.9331967%" x2="50%" y2="64.0668033%" id="linearGradient-2">
            <stop stop-color="#E3EFFD" stop-opacity="0.00575352382" offset="0%"></stop>
            <stop stop-color="#E5F0FD" offset="34.0601199%"></stop>
            <stop stop-color="#F0F6FE" offset="100%"></stop>
        </linearGradient>
        <linearGradient x1="33.3333333%" y1="34.495573%" x2="96.9740837%" y2="65.4421891%" id="linearGradient-3">
            <stop stop-color="#D5E6F9" offset="0%"></stop>
            <stop stop-color="#F7FBFF" stop-opacity="0" offset="100%"></stop>
        </linearGradient>
        <linearGradient x1="90.9912104%" y1="29.4309598%" x2="33.3333333%" y2="67.7472684%" id="linearGradient-4">
            <stop stop-color="#D5E6F9" offset="0%"></stop>
            <stop stop-color="#E7F0F9" stop-opacity="0" offset="100%"></stop>
        </linearGradient>
        <linearGradient x1="-5.8027489%" y1="27.0499439%" x2="103.630422%" y2="71.1332543%" id="linearGradient-5">
            <stop stop-color="#CEE6FE" offset="0%"></stop>
            <stop stop-color="#8AB5F2" offset="100%"></stop>
        </linearGradient>
        <linearGradient x1="-5.8027489%" y1="27.0499439%" x2="103.630422%" y2="71.1332543%" id="linearGradient-6">
            <stop stop-color="#BFD6F9" offset="0%"></stop>
            <stop stop-color="#F3F6FE" offset="100%"></stop>
        </linearGradient>
        <linearGradient x1="89.8473889%" y1="61.7348066%" x2="0%" y2="61.7348066%" id="linearGradient-7">
            <stop stop-color="#CAD9F3" offset="0%"></stop>
            <stop stop-color="#D5E3F7" offset="100%"></stop>
        </linearGradient>
        <filter x="-18.5%" y="-60.0%" width="136.9%" height="220.0%" filterUnits="objectBoundingBox" id="filter-8">
            <feGaussianBlur stdDeviation="4" in="SourceGraphic"></feGaussianBlur>
        </filter>
        <linearGradient x1="44.0988019%" y1="60.7384399%" x2="128.792906%" y2="22.6501696%" id="linearGradient-9">
            <stop stop-color="#5073E5" offset="0%"></stop>
            <stop stop-color="#5E7CE0" offset="100%"></stop>
        </linearGradient>
        <linearGradient x1="47.1730292%" y1="86.8386573%" x2="87.7457667%" y2="-43.8247114%" id="linearGradient-10">
            <stop stop-color="#5073E5" offset="0%"></stop>
            <stop stop-color="#5E7CE0" offset="100%"></stop>
        </linearGradient>
        <linearGradient x1="47.1730292%" y1="86.8386573%" x2="87.7457667%" y2="-43.8247114%" id="linearGradient-11">
            <stop stop-color="#5073E5" offset="0%"></stop>
            <stop stop-color="#5E7CE0" offset="100%"></stop>
        </linearGradient>
    </defs>
    <g id="页面一" stroke="none" stroke-width="1" fill="none" fill-rule="evenodd">
        <g id="-TinyUI-Vue-组件总览2" transform="translate(-1479.000000, -334.000000)">
            <g id="编组-25备份-2" transform="translate(1380.000000, 301.000000)">
                <g id="Area-片区" transform="translate(99.000000, 33.000000)">
                    <g id="编组">
                        <g transform="translate(9.000000, 1.000000)" id="多边形">
                            <polygon fill="url(#linearGradient-1)" opacity="0.54620216" points="53.2605623 0 106.521125 30.75 53.2605623 62 0 30.75"></polygon>
                            <polygon fill="url(#linearGradient-2)" points="53.2605623 61.5 106.521125 86.75 53.2605623 118 0 86.75"></polygon>
                            <polygon fill="url(#linearGradient-3)" opacity="0.600606283" points="53.2605623 62 53.2605623 123 7.39138783e-15 92.25 0 30.75"></polygon>
                            <polygon fill="url(#linearGradient-4)" opacity="0.791265578" points="53.2605623 62 106.521125 30.75 106.521125 92.25 53.2605623 123"></polygon>
                            <polygon fill="url(#linearGradient-5)" points="53.2605623 118.007802 53.2605623 123 7.39138783e-15 92.25 0 86.9161706"></polygon>
                            <polygon fill="url(#linearGradient-6)" transform="translate(79.630281, 104.958085) scale(-1, 1) translate(-79.630281, -104.958085) " points="106.260562 118.007802 106.260562 123 53 92.25 53 86.9161706"></polygon>
                        </g>
                        <ellipse id="椭圆形" fill="url(#linearGradient-7)" filter="url(#filter-8)" cx="62.5" cy="90" rx="32.5" ry="10"></ellipse>
                    </g>
                    <g id="区域icon" transform="translate(33.000000, 33.000000)">
                        <path d="M37.6485008,40.8770818 L4.35036772,39.0746909 L8.23401848,25.3507714 C8.39605208,24.6746289 8.98349864,24.1904077 9.67094098,24.1663431 L26.8319819,23.6055993 C27.6126721,25.971595 29.6124835,30.028405 30.9504054,32.2399101 C31.8102961,33.6703791 34.0505374,36.5542046 37.6485008,40.8742209 L37.6485008,40.8770818 Z M26.8319819,56 L1.69715256,55.8512312 C1.17669244,55.8512312 0.647746559,55.722489 0.3875165,55.1960764 C0,54.938592 0,54.4064575 0,53.880045 L3.39430511,41.9098805 L35.7533472,44.0870543 L26.8319819,56 Z M57.8955308,46.0067436 L47.8823308,45.068356 C50.0066,42.4305712 52.0856119,39.761316 54.1193664,37.0491468 C54.2466528,36.5284561 54.6398265,36.2652498 54.9000566,35.7388372 L57.8955308,46.0096046 L57.8955308,46.0067436 Z M59.8670564,53.6168387 C59.8670564,53.7427199 60,54.0059262 60,54.1403903 C59.9847807,55.0810335 59.2328998,55.8389786 58.3028474,55.8512312 L29.4059966,55.8512312 L38.5225344,44.6477981 L58.4357911,48.3612956 L59.8670564,53.6139777 L59.8670564,53.6168387 Z" id="形状" fill="url(#linearGradient-9)" opacity="0.303770519"></path>
                        <path d="M44.0863662,0 C52.3967566,0 59.2221384,7.00643711 59.1005091,15.5062838 C59.1005091,22.003474 55.0047143,29.384694 51.5283802,34.3827526 C49.4193938,37.3894588 47.1404717,40.2704525 44.7029983,43.0113416 C44.581369,43.2545213 44.2136526,43.3832635 44.0891948,43.3832635 C43.8402791,43.3832635 43.594192,43.1372228 43.4669055,43.0113416 C42.222327,41.5064882 39.3739393,38.2621845 36.6415237,34.3827526 C33.1651895,29.384694 29.0750519,22.0006131 29.0750519,15.5062838 C29.0750519,7.00643711 35.651518,0 44.0863662,0 Z M44.5588235,10.6666667 C41.8786181,10.6666667 39.7058824,12.8554968 39.7058824,15.5555556 C39.7058824,18.2556143 41.8786181,20.4444444 44.5588235,20.4444444 C47.2390289,20.4444444 49.4117647,18.2556143 49.4117647,15.5555556 C49.4117647,12.8554968 47.2390289,10.6666667 44.5588235,10.6666667 Z" id="形状结合" stroke="url(#linearGradient-11)" stroke-width="0.882352941" fill="url(#linearGradient-10)"></path>
                    </g>
                </g>
            </g>
        </g>
    </g>
</svg>