<?xml version="1.0" encoding="UTF-8"?>
<svg width="125px" height="125px" viewBox="0 0 125 125" version="1.1" xmlns="http://www.w3.org/2000/svg" xmlns:xlink="http://www.w3.org/1999/xlink">
    <title>Calendar 日历</title>
    <defs>
        <linearGradient x1="44.0988019%" y1="53.3546948%" x2="128.792906%" y2="41.4558973%" id="linearGradient-1">
            <stop stop-color="#5073E5" offset="0%"></stop>
            <stop stop-color="#5E7CE0" offset="100%"></stop>
        </linearGradient>
        <linearGradient x1="44.0988019%" y1="53.3546948%" x2="128.792906%" y2="41.4558973%" id="linearGradient-2">
            <stop stop-color="#5073E5" offset="0%"></stop>
            <stop stop-color="#5E7CE0" offset="100%"></stop>
        </linearGradient>
        <linearGradient x1="44.0988019%" y1="60.8692111%" x2="128.792906%" y2="22.3171074%" id="linearGradient-3">
            <stop stop-color="#5073E5" offset="0%"></stop>
            <stop stop-color="#5E7CE0" offset="100%"></stop>
        </linearGradient>
        <linearGradient x1="44.0988019%" y1="86.8386573%" x2="128.792906%" y2="-43.8247114%" id="linearGradient-4">
            <stop stop-color="#5073E5" offset="0%"></stop>
            <stop stop-color="#5E7CE0" offset="100%"></stop>
        </linearGradient>
        <linearGradient x1="44.0988019%" y1="66.3727366%" x2="128.792906%" y2="8.30012825%" id="linearGradient-5">
            <stop stop-color="#5073E5" offset="0%"></stop>
            <stop stop-color="#5E7CE0" offset="100%"></stop>
        </linearGradient>
        <linearGradient x1="44.0988019%" y1="66.3727366%" x2="128.792906%" y2="8.30012825%" id="linearGradient-6">
            <stop stop-color="#5073E5" offset="0%"></stop>
            <stop stop-color="#5E7CE0" offset="100%"></stop>
        </linearGradient>
    </defs>
    <g id="Tiny-Vue" stroke="none" stroke-width="1" fill="none" fill-rule="evenodd">
        <g id="-TinyUI-Vue-组件总览1" transform="translate(-1084.000000, -2306.000000)">
            <g id="组件" transform="translate(596.000000, 311.000000)">
                <g id="编组-14备份-12" transform="translate(390.000000, 1965.000000)">
                    <g id="Calendar-日历" transform="translate(98.000000, 30.000000)">
                        <g id="编组"></g>
                        <g id="日期" transform="translate(31.000000, 35.000000)">
                            <path d="M42.009879,5.61290323 L42.009879,9.76480833 C42.0263977,11.7577176 43.6573488,13.3608375 45.6548184,13.3475489 C47.6724455,13.3475489 49.2997579,11.7299235 49.2997579,9.75282588 L49.2997579,9.75282588 L49.2997579,5.61290323 L54.0435835,5.61290323 C58.4331235,5.61290323 62,9.12374936 62,13.437417 L62,13.437417 L62,18.7096774 L0.228184037,18.7096774 C0.152140216,18.7073736 0.0760438204,18.7073736 0,18.7096774 L0,18.7096774 L0,13.437417 C0,9.12374936 3.56687658,5.61889441 7.9624213,5.6248856 L7.9624213,5.6248856 L11.8895884,5.6248856 L11.8895884,9.76480833 C11.9061071,11.7577176 13.5370582,13.3608375 15.5345278,13.3475489 C17.5461502,13.3475489 19.1794674,11.7299235 19.1794674,9.75282588 L19.1794674,9.75282588 L19.1794674,5.61290323 L42.009879,5.61290323 Z M15.5,0 C16.2782194,-1.42956588e-16 16.9090909,0.630871489 16.9090909,1.40909091 L16.9090909,8.88123167 C16.9090909,9.65945109 16.2782194,10.2903226 15.5,10.2903226 C14.7217806,10.2903226 14.0909091,9.65945109 14.0909091,8.88123167 L14.0909091,1.40909091 C14.0909091,0.630871489 14.7217806,1.42956588e-16 15.5,0 Z M45.5606061,0 C46.3388255,-1.42956588e-16 46.969697,0.630871489 46.969697,1.40909091 L46.969697,8.88123167 C46.969697,9.65945109 46.3388255,10.2903226 45.5606061,10.2903226 C44.7823866,10.2903226 44.1515152,9.65945109 44.1515152,8.88123167 L44.1515152,1.40909091 C44.1515152,0.630871489 44.7823866,1.42956588e-16 45.5606061,0 Z" id="形状" stroke="url(#linearGradient-2)" stroke-width="0.939393939" fill="url(#linearGradient-1)"></path>
                            <path d="M62,24.3282618 L0.228206139,24.3282618 L0,24.3225806 L0,50.5861956 C0,54.6765705 3.57322741,58 7.95718716,58 L54.0368074,58 C58.4267726,58 61.9939946,54.6708894 61.9939946,50.5861956 L61.9939946,24.3282618 L62,24.3282618 Z" id="形状备份" fill="url(#linearGradient-3)" opacity="0.303770519"></path>
                            <rect id="矩形" fill="url(#linearGradient-4)" opacity="0.303770519" x="6" y="32" width="8" height="8" rx="4"></rect>
                            <rect id="矩形备份-18" fill="url(#linearGradient-4)" opacity="0.303770519" x="18" y="32" width="8" height="8" rx="4"></rect>
                            <rect id="矩形备份-14" fill="url(#linearGradient-4)" opacity="0.303770519" x="6" y="44" width="8" height="8" rx="4"></rect>
                            <rect id="矩形备份-19" fill="url(#linearGradient-4)" opacity="0.303770519" x="18" y="44" width="8" height="8" rx="4"></rect>
                        </g>
                        <rect id="矩形备份-10" fill="#5073E5" transform="translate(74.415445, 86.054252) rotate(-270.000000) translate(-74.415445, -86.054252) " x="73.4154448" y="73.5542522" width="2" height="25" rx="1"></rect>
                        <path d="M63,75.6373169 C63.0150239,76.443315 63.1453104,77.1758242 63.3904291,77.835119 C63.6351171,78.4944597 63.9911444,79.0586996 64.4583196,79.5274267 C64.9252077,79.9965201 65.50688,80.3591575 66.2037671,80.6153846 C66.9003194,80.8715659 67.7156271,80.9999542 68.6496904,80.9999542 C69.415094,80.9999542 70.1425074,80.8901098 70.8314999,80.6702839 C71.5204923,80.4505036 72.1251789,80.1393773 72.6458946,79.7362637 C73.1662274,79.3334249 73.5796229,78.8427198 73.886081,78.2637362 C74.1921563,77.6850732 74.3454093,77.0295329 74.3454093,76.2967033 C74.3454093,75.3004579 74.0888553,74.4543498 73.5760344,73.7582417 C73.0628785,73.0625458 72.3473311,72.6263736 71.4286745,72.4505494 L71.4286745,72.4065934 C72.2095326,72.1428113 72.7836931,71.7218406 73.1511557,71.1428113 C73.5186184,70.5641941 73.7023496,69.88663 73.7023497,69.1098901 C73.7023497,68.4361263 73.5566565,67.8389652 73.2660356,67.3186813 C72.9749841,66.7987637 72.5885263,66.3701923 72.1062316,66.032967 C71.6239369,65.6961081 71.0803027,65.4395605 70.4756161,65.2637363 C69.8705468,65.0879121 69.2544727,65 68.6268197,65 C67.8150526,65 67.0880219,65.1318681 66.4449623,65.3956044 C65.8019027,65.6593406 65.2542972,66.0257784 64.8028636,66.4945055 C64.3510951,66.9635989 63.9951157,67.5164835 63.7349732,68.1538462 C63.4744479,68.7912088 63.3290896,69.4835165 63.2986113,70.2307235 L65.9167826,70.2307235 C65.901376,69.835119 65.9473088,69.4505037 66.0545811,69.0768773 C66.1615185,68.7032967 66.3262547,68.3663919 66.5483591,68.0659341 C66.7701285,67.7657967 67.0496968,67.5274725 67.3866332,67.3516483 C67.7232348,67.1758242 68.1215585,67.0879121 68.5808868,67.0879121 C69.3158121,67.0879121 69.9165275,67.2857143 70.3837983,67.6813187 C70.8506386,68.0769231 71.084274,68.6043956 71.084274,69.2637363 C71.084274,69.7328297 70.9809251,70.1284799 70.7742752,70.4505495 C70.5675775,70.7730312 70.295569,71.0257326 69.9589674,71.208837 C69.6219831,71.3922161 69.2391138,71.5203297 68.8106467,71.5934066 C68.3864274,71.6665236 67.9552528,71.6960106 67.5244796,71.6813645 L67.5244796,73.5494964 C68.0448603,73.5350733 68.5540449,73.5494964 69.0517941,73.5934524 C69.5491605,73.6374084 69.9970056,73.7510531 70.3953294,73.9340659 C70.7932704,74.117445 71.1148002,74.3846611 71.359871,74.7363095 C71.6046068,75.0879579 71.7273815,75.5642399 71.7273815,76.164881 C71.7273815,77.0440018 71.4324066,77.7218864 70.8431745,78.1978022 C70.2536074,78.67413 69.5226056,78.9121337 68.6498818,78.9121337 C67.6239528,78.9121337 66.8545779,78.6010073 66.341757,77.9780678 C65.8286012,77.3554487 65.5874538,76.5752289 65.6183149,75.6374084 L63,75.6374084 L63,75.6373169 Z M76.9291789,78.3076923 C77.3346797,79.0917124 77.9012803,79.7362637 78.6286937,80.2417582 C79.3557243,80.7472527 80.2938066,81 81.4421274,81 C82.5904482,81 83.5281,80.7472528 84.2555133,80.2417582 C84.982496,79.7362637 85.5491445,79.0917124 85.9550281,78.3076923 C86.3605767,77.5240384 86.6361258,76.663141 86.7818191,75.7252747 C86.9271295,74.7877747 87,73.8791667 87,73 C87,72.1208333 86.9271773,71.2125458 86.7818191,70.2746795 C86.6361259,69.3371795 86.3605289,68.476282 85.9550281,67.6923077 C85.5491924,66.9086538 84.9825439,66.2637363 84.2555133,65.7582417 C83.5281,65.2527472 82.5904482,65 81.4421274,65 C80.2938067,65 79.3557721,65.2527472 78.6286937,65.7582417 C77.9013281,66.2637362 77.3346797,66.9086538 76.9291789,67.6923077 C76.5233432,68.476282 76.2477462,69.3372252 76.102388,70.2746795 C75.9566948,71.2125 75.884207,72.1208333 75.884207,73 C75.884207,73.8791667 75.9566947,74.7877747 76.102388,75.7252747 C76.2476984,76.663141 76.5232954,77.5240385 76.9291789,78.3076923 Z M78.640129,70.7252289 C78.7319947,70.0147436 78.8887883,69.38837 79.1109405,68.846108 C79.3327579,68.3042582 79.6312734,67.8756868 80.0066786,67.5604395 C80.3816532,67.2455128 80.8600245,67.0879121 81.4420795,67.0879121 C82.0083452,67.0879121 82.4830802,67.2455128 82.8659973,67.5604395 C83.2485317,67.8756868 83.5510185,68.3042582 83.7731707,68.846108 C83.9949402,69.3883699 84.1521166,70.0147436 84.2439823,70.7252289 C84.3358479,71.4360806 84.3817808,72.1943223 84.3817808,73 C84.3817808,73.8059982 84.3358479,74.5679945 84.2439823,75.2857143 C84.1521166,76.0038003 83.9949402,76.6301282 83.7731707,77.1648352 C83.5510185,77.6998626 83.2485317,78.1246795 82.8659973,78.4395604 C82.4830802,78.7548077 82.0083452,78.9120879 81.4420795,78.9120879 C80.8600244,78.9120879 80.3816532,78.7547619 80.0066786,78.4395604 C79.6312734,78.1246795 79.3327579,77.6998626 79.1109405,77.1648352 C78.8887883,76.6301282 78.7319947,76.0038004 78.640129,75.2857143 C78.5482633,74.5679945 78.5023305,73.8059982 78.5023305,73 C78.5023305,72.1943223 78.5482633,71.4361264 78.640129,70.7252289 Z" id="形状备份-2" stroke="url(#linearGradient-6)" stroke-width="0.857142857" fill="url(#linearGradient-5)"></path>
                    </g>
                </g>
            </g>
        </g>
    </g>
</svg>