<?xml version="1.0" encoding="UTF-8"?>
<svg width="125px" height="125px" viewBox="0 0 125 125" version="1.1" xmlns="http://www.w3.org/2000/svg" xmlns:xlink="http://www.w3.org/1999/xlink">
    <title>CalendarView 日历视图</title>
    <defs>
        <linearGradient x1="44.0988019%" y1="51.023296%" x2="128.792906%" y2="47.393758%" id="linearGradient-1">
            <stop stop-color="#5073E5" offset="0%"></stop>
            <stop stop-color="#5E7CE0" offset="100%"></stop>
        </linearGradient>
        <linearGradient x1="44.0988019%" y1="64.6040768%" x2="128.792906%" y2="12.804744%" id="linearGradient-2">
            <stop stop-color="#5073E5" offset="0%"></stop>
            <stop stop-color="#5E7CE0" offset="100%"></stop>
        </linearGradient>
    </defs>
    <g id="组件总览" stroke="none" stroke-width="1" fill="none" fill-rule="evenodd">
        <g id="-TinyUI-Vue-组件总览3" transform="translate(-696.000000, -2534.000000)">
            <g id="编组-17备份-16" transform="translate(598.000000, 2501.000000)">
                <g id="CalendarView-日历视图" transform="translate(98.000000, 33.000000)">
                    <g id="编组"></g>
                    <g id="我的任务" transform="translate(35.500000, 36.000000)">
                        <path d="M1.92857143,6 L52.0714286,6 C53.1365492,6 54,6.67157288 54,7.5 L54,15 L0,15 L0,7.5 C0,6.67157288 0.86345084,6 1.92857143,6 Z" id="路径" fill="url(#linearGradient-1)"></path>
                        <path d="M13.326,-1 C14.4124041,-1 15.138795,-0.733212494 15.622888,-0.326610015 C16.1850677,0.145579546 16.5,0.837499354 16.5,1.826 L16.5,1.826 L16.5,8.174 C16.5,9.116 16.212075,9.78913861 15.7506068,10.2506068 C15.2891386,10.712075 14.616,11 13.674,11 C12.2772843,11 11.6790227,10.6802363 11.2493932,10.2506068 C10.787925,9.78913861 10.5,9.116 10.5,8.174 L10.5,8.174 L10.5,1.826 C10.5,0.884 10.787925,0.210861392 11.2493932,-0.250606781 C11.7108614,-0.712074955 12.384,-1 13.326,-1 L13.326,-1 Z" id="路径" stroke="#F8FBFE" stroke-width="2" fill="#96ACEE"></path>
                        <path d="M41.326,-1 C42.4124041,-1 43.138795,-0.733212494 43.622888,-0.326610015 C44.1850677,0.145579546 44.5,0.837499354 44.5,1.826 L44.5,1.826 L44.5,8.174 C44.5,9.116 44.212075,9.78913861 43.7506068,10.2506068 C43.2891386,10.712075 42.616,11 41.674,11 C40.2772843,11 39.6790227,10.6802363 39.2493932,10.2506068 C38.787925,9.78913861 38.5,9.116 38.5,8.174 L38.5,8.174 L38.5,1.826 C38.5,0.884 38.787925,0.210861392 39.2493932,-0.250606781 C39.7108614,-0.712074955 40.384,-1 41.326,-1 L41.326,-1 Z" id="路径" stroke="#F8FBFE" stroke-width="2" fill="#96ACEE"></path>
                        <path d="M0,15 L0,46.6818182 C0,47.9621146 1.29517626,49 2.89285714,49 L51.1071429,49 C52.7048237,49 54,47.9621146 54,46.6818182 L54,15 L0,15 Z M16.3214288,20.899 C16.3214288,20.7510333 16.387988,20.6091269 16.5064641,20.5044987 C16.6249402,20.3998704 16.7856283,20.3410909 16.9531788,20.3410909 L31.4396777,20.3410909 C31.6072282,20.3410909 31.7679163,20.3998704 31.8863924,20.5044987 C32.0048685,20.6091269 32.0714277,20.7510333 32.0714277,20.899 L32.0714277,23.4938182 C32.0714277,23.6416432 32.0048134,23.7833911 31.8862867,23.8877741 C31.76776,23.9921571 31.6070671,24.0505924 31.4396777,24.050184 L16.9531788,24.050184 C16.7857894,24.0505924 16.6250965,23.9921571 16.5065698,23.8877741 C16.3880431,23.7833911 16.3214288,23.6416432 16.3214288,23.4938182 L16.3214288,20.899 Z M10.9464286,42.6729091 C9.8862391,42.6729091 9.02678571,41.8080046 9.02678571,40.7410909 C9.02678571,39.6741772 9.8862391,38.8092727 10.9464286,38.8092727 C12.006618,38.8092727 12.8660714,39.6741772 12.8660714,40.7410909 C12.8660714,41.8080046 12.006618,42.6729091 10.9464286,42.6729091 Z M10.9464286,33.4001818 C9.8862391,33.4001818 9.02678571,32.5352774 9.02678571,31.4683636 C9.02678571,30.4014499 9.8862391,29.5365455 10.9464286,29.5365455 C12.006618,29.5365455 12.8660714,30.4014499 12.8660714,31.4683636 C12.8660714,32.5352774 12.006618,33.4001818 10.9464286,33.4001818 Z M10.9464286,24.1274545 C9.8862391,24.1274545 9.02678571,23.2625501 9.02678571,22.1956364 C9.02678571,21.1287226 9.8862391,20.2638182 10.9464286,20.2638182 C12.006618,20.2638182 12.8660714,21.1287226 12.8660714,22.1956364 C12.8660714,23.2625501 12.006618,24.1274545 10.9464286,24.1274545 Z M39.0714292,41.9264545 C39.0714292,42.2960335 38.732171,42.5956364 38.3136772,42.5956364 L17.0791788,42.5956364 C16.660685,42.5956364 16.3214268,42.2960335 16.3214268,41.9264545 L16.3214268,39.5572727 C16.320964,39.3795271 16.4005929,39.2089207 16.542749,39.0830904 C16.6849051,38.95726 16.8779074,38.8865455 17.0791788,38.8865455 L38.3136772,38.8865455 C38.5149486,38.8865455 38.7079509,38.95726 38.850107,39.0830904 C38.9922631,39.2089207 39.071892,39.3795271 39.0714292,39.5572727 L39.0714292,41.9264545 Z M44.3214288,32.5795455 C44.3214288,32.9900939 43.9445625,33.3229091 43.4796769,33.3229091 L17.1631788,33.3229091 C16.6982931,33.3229091 16.3214288,32.9900939 16.3214288,32.5795455 L16.3214288,30.3571818 C16.3214288,29.9466334 16.6982931,29.6138182 17.1631788,29.6138182 L43.4796769,29.6138182 C43.7029228,29.6138182 43.9170252,29.6921366 44.0748839,29.8315444 C44.2327427,29.9709521 44.3214288,30.1600295 44.3214288,30.3571818 L44.3214288,32.5795455 Z" id="形状" fill="url(#linearGradient-2)" opacity="0.604724702"></path>
                    </g>
                </g>
            </g>
        </g>
    </g>
</svg>