<?xml version="1.0" encoding="UTF-8"?>
<svg width="125px" height="125px" viewBox="0 0 125 125" version="1.1" xmlns="http://www.w3.org/2000/svg" xmlns:xlink="http://www.w3.org/1999/xlink">
    <title>CascaderPanel 级联面板</title>
    <defs>
        <linearGradient x1="50%" y1="45.9685271%" x2="50%" y2="100%" id="linearGradient-1">
            <stop stop-color="#ECF3FB" offset="0%"></stop>
            <stop stop-color="#FFFFFF" offset="100%"></stop>
        </linearGradient>
        <linearGradient x1="50.3956523%" y1="35.9331967%" x2="50%" y2="64.0668033%" id="linearGradient-2">
            <stop stop-color="#E3EFFD" stop-opacity="0.00575352382" offset="0%"></stop>
            <stop stop-color="#E5F0FD" offset="34.0601199%"></stop>
            <stop stop-color="#F0F6FE" offset="100%"></stop>
        </linearGradient>
        <linearGradient x1="33.3333333%" y1="34.495573%" x2="96.9740837%" y2="65.4421891%" id="linearGradient-3">
            <stop stop-color="#D5E6F9" offset="0%"></stop>
            <stop stop-color="#F7FBFF" stop-opacity="0" offset="100%"></stop>
        </linearGradient>
        <linearGradient x1="90.9912104%" y1="29.4309598%" x2="33.3333333%" y2="67.7472684%" id="linearGradient-4">
            <stop stop-color="#D5E6F9" offset="0%"></stop>
            <stop stop-color="#E7F0F9" stop-opacity="0" offset="100%"></stop>
        </linearGradient>
        <linearGradient x1="-5.8027489%" y1="27.0499439%" x2="103.630422%" y2="71.1332543%" id="linearGradient-5">
            <stop stop-color="#CEE6FE" offset="0%"></stop>
            <stop stop-color="#8AB5F2" offset="100%"></stop>
        </linearGradient>
        <linearGradient x1="-5.8027489%" y1="27.0499439%" x2="103.630422%" y2="71.1332543%" id="linearGradient-6">
            <stop stop-color="#BFD6F9" offset="0%"></stop>
            <stop stop-color="#F3F6FE" offset="100%"></stop>
        </linearGradient>
        <linearGradient x1="89.8473889%" y1="61.7348066%" x2="0%" y2="61.7348066%" id="linearGradient-7">
            <stop stop-color="#CAD9F3" offset="0%"></stop>
            <stop stop-color="#D5E3F7" offset="100%"></stop>
        </linearGradient>
        <filter x="-18.5%" y="-60.0%" width="136.9%" height="220.0%" filterUnits="objectBoundingBox" id="filter-8">
            <feGaussianBlur stdDeviation="4" in="SourceGraphic"></feGaussianBlur>
        </filter>
        <linearGradient x1="46.4301394%" y1="86.8386573%" x2="97.6648446%" y2="-43.8247114%" id="linearGradient-9">
            <stop stop-color="#5073E5" offset="0%"></stop>
            <stop stop-color="#5E7CE0" offset="100%"></stop>
        </linearGradient>
        <linearGradient x1="50%" y1="0%" x2="50%" y2="100%" id="linearGradient-10">
            <stop stop-color="#FFCC00" offset="0%"></stop>
            <stop stop-color="#FF9D00" offset="100%"></stop>
        </linearGradient>
        <polygon id="path-11" points="22.9981685 5 32.9981685 5 27.9981685 11"></polygon>
        <filter x="-35.0%" y="-41.7%" width="170.0%" height="216.7%" filterUnits="objectBoundingBox" id="filter-12">
            <feOffset dx="0" dy="1" in="SourceAlpha" result="shadowOffsetOuter1"></feOffset>
            <feMorphology radius="3.23076923" operator="erode" in="SourceAlpha" result="shadowInner"></feMorphology>
            <feOffset dx="0" dy="1" in="shadowInner" result="shadowInner"></feOffset>
            <feComposite in="shadowOffsetOuter1" in2="shadowInner" operator="out" result="shadowOffsetOuter1"></feComposite>
            <feGaussianBlur stdDeviation="1" in="shadowOffsetOuter1" result="shadowBlurOuter1"></feGaussianBlur>
            <feColorMatrix values="0 0 0 0 0.661752894   0 0 0 0 0.324547702   0 0 0 0 0.00489962574  0 0 0 0.5 0" type="matrix" in="shadowBlurOuter1"></feColorMatrix>
        </filter>
        <filter x="-45.0%" y="-58.3%" width="190.0%" height="250.0%" filterUnits="objectBoundingBox" id="filter-13">
            <feGaussianBlur stdDeviation="1" in="SourceAlpha" result="shadowBlurInner1"></feGaussianBlur>
            <feOffset dx="0" dy="-3" in="shadowBlurInner1" result="shadowOffsetInner1"></feOffset>
            <feComposite in="shadowOffsetInner1" in2="SourceAlpha" operator="arithmetic" k2="-1" k3="1" result="shadowInnerInner1"></feComposite>
            <feColorMatrix values="0 0 0 0 0.841553619   0 0 0 0 0.341832308   0 0 0 0 0  0 0 0 0.5 0" type="matrix" in="shadowInnerInner1"></feColorMatrix>
        </filter>
        <linearGradient x1="44.0988019%" y1="52.3024161%" x2="128.792906%" y2="44.1359555%" id="linearGradient-14">
            <stop stop-color="#5073E5" offset="0%"></stop>
            <stop stop-color="#5E7CE0" offset="100%"></stop>
        </linearGradient>
        <linearGradient x1="44.0988019%" y1="54.8966314%" x2="128.792906%" y2="37.5287249%" id="linearGradient-15">
            <stop stop-color="#5073E5" offset="0%"></stop>
            <stop stop-color="#5E7CE0" offset="100%"></stop>
        </linearGradient>
        <polygon id="path-16" points="76.9981685 49.5 86.9981685 49.5 81.9981685 55.5"></polygon>
        <filter x="-35.0%" y="-41.7%" width="170.0%" height="216.7%" filterUnits="objectBoundingBox" id="filter-17">
            <feOffset dx="0" dy="1" in="SourceAlpha" result="shadowOffsetOuter1"></feOffset>
            <feMorphology radius="3.23076923" operator="erode" in="SourceAlpha" result="shadowInner"></feMorphology>
            <feOffset dx="0" dy="1" in="shadowInner" result="shadowInner"></feOffset>
            <feComposite in="shadowOffsetOuter1" in2="shadowInner" operator="out" result="shadowOffsetOuter1"></feComposite>
            <feGaussianBlur stdDeviation="1" in="shadowOffsetOuter1" result="shadowBlurOuter1"></feGaussianBlur>
            <feColorMatrix values="0 0 0 0 0.661752894   0 0 0 0 0.324547702   0 0 0 0 0.00489962574  0 0 0 0.5 0" type="matrix" in="shadowBlurOuter1"></feColorMatrix>
        </filter>
        <filter x="-45.0%" y="-58.3%" width="190.0%" height="250.0%" filterUnits="objectBoundingBox" id="filter-18">
            <feGaussianBlur stdDeviation="1" in="SourceAlpha" result="shadowBlurInner1"></feGaussianBlur>
            <feOffset dx="0" dy="-3" in="shadowBlurInner1" result="shadowOffsetInner1"></feOffset>
            <feComposite in="shadowOffsetInner1" in2="SourceAlpha" operator="arithmetic" k2="-1" k3="1" result="shadowInnerInner1"></feComposite>
            <feColorMatrix values="0 0 0 0 0.841553619   0 0 0 0 0.341832308   0 0 0 0 0  0 0 0 0.5 0" type="matrix" in="shadowInnerInner1"></feColorMatrix>
        </filter>
    </defs>
    <g id="页面一" stroke="none" stroke-width="1" fill="none" fill-rule="evenodd">
        <g id="-TinyUI-Vue-组件总览" transform="translate(-1087.000000, -1434.000000)">
            <g id="编组-23备份" transform="translate(989.000000, 1401.000000)">
                <g id="CascaderPanel-级联面板" transform="translate(98.000000, 33.000000)">
                    <g id="编组">
                        <g transform="translate(9.000000, 1.000000)" id="多边形">
                            <polygon fill="url(#linearGradient-1)" opacity="0.54620216" points="53.2605623 0 106.521125 30.75 53.2605623 62 0 30.75"></polygon>
                            <polygon fill="url(#linearGradient-2)" points="53.2605623 61.5 106.521125 86.75 53.2605623 118 0 86.75"></polygon>
                            <polygon fill="url(#linearGradient-3)" opacity="0.600606283" points="53.2605623 62 53.2605623 123 7.39138783e-15 92.25 0 30.75"></polygon>
                            <polygon fill="url(#linearGradient-4)" opacity="0.791265578" points="53.2605623 62 106.521125 30.75 106.521125 92.25 53.2605623 123"></polygon>
                            <polygon fill="url(#linearGradient-5)" points="53.2605623 118.007802 53.2605623 123 7.39138783e-15 92.25 0 86.9161706"></polygon>
                            <polygon fill="url(#linearGradient-6)" transform="translate(79.630281, 104.958085) scale(-1, 1) translate(-79.630281, -104.958085) " points="106.260562 118.007802 106.260562 123 53 92.25 53 86.9161706"></polygon>
                        </g>
                        <ellipse id="椭圆形" fill="url(#linearGradient-7)" filter="url(#filter-8)" cx="62.5" cy="90" rx="32.5" ry="10"></ellipse>
                    </g>
                    <g id="编组-12" transform="translate(23.000000, 36.000000)">
                        <path d="M2,0 L26,0 C27.1045695,0 28,1.0745166 28,2.4 L28,33.6 C28,34.9254834 27.1045695,36 26,36 L2,36 C0.8954305,36 0,34.9254834 0,33.6 L0,2.4 C0,1.0745166 0.8954305,0 2,0 Z" id="路径" fill="url(#linearGradient-9)" opacity="0.204287574"></path>
                        <g id="形状结合备份-8" transform="translate(27.998168, 8.000000) rotate(-90.000000) translate(-27.998168, -8.000000) ">
                            <use fill="black" fill-opacity="1" filter="url(#filter-12)" xlink:href="#path-11"></use>
                            <use fill="black" fill-opacity="1" filter="url(#filter-13)" xlink:href="#path-11"></use>
                            <path stroke="url(#linearGradient-10)" stroke-width="3.23076923" d="M29.5492551,6.61538462 L27.9981685,8.47668857 L26.4470819,6.61538462 L29.5492551,6.61538462 Z" stroke-linejoin="square"></path>
                        </g>
                        <path d="M24.5714286,9 L55.4285714,9 C56.8487322,9 58,9.91489638 58,11.0434783 L58,53.9565217 C58,55.0851036 56.8487322,56 55.4285714,56 L24.5714286,56 C23.1512678,56 22,55.0851036 22,53.9565217 L22,11.0434783 C22,9.91489638 23.1512678,9 24.5714286,9 Z" id="路径" fill="#5073E5"></path>
                        <path d="M30,15 L50,15 C51.1045695,15 52,15.8954305 52,17 C52,18.1045695 51.1045695,19 50,19 L30,19 C28.8954305,19 28,18.1045695 28,17 C28,15.8954305 28.8954305,15 30,15 Z" id="形状结合备份" fill="#FFFFFF" fill-rule="nonzero"></path>
                        <path d="M8,6 L20,6 C21.1045695,6 22,6.8954305 22,8 C22,9.1045695 21.1045695,10 20,10 L8,10 C6.8954305,10 6,9.1045695 6,8 C6,6.8954305 6.8954305,6 8,6 Z" id="形状结合备份-12" fill="url(#linearGradient-14)" opacity="0.604724702"></path>
                        <path d="M30,25 L42,25 C43.1045695,25 44,25.8954305 44,27 C44,28.1045695 43.1045695,29 42,29 L30,29 C28.8954305,29 28,28.1045695 28,27 C28,25.8954305 28.8954305,25 30,25 Z" id="形状结合备份-10" fill="#FFFFFF" fill-rule="nonzero" opacity="0.398656936"></path>
                        <path d="M30,35 L42,35 C43.1045695,35 44,35.8954305 44,37 C44,38.1045695 43.1045695,39 42,39 L30,39 C28.8954305,39 28,38.1045695 28,37 C28,35.8954305 28.8954305,35 30,35 Z" id="形状结合备份-20" fill="#FFFFFF" fill-rule="nonzero" opacity="0.398656936"></path>
                        <path d="M8,15 L15,15 C16.1045695,15 17,15.8954305 17,17 C17,18.1045695 16.1045695,19 15,19 L8,19 C6.8954305,19 6,18.1045695 6,17 C6,15.8954305 6.8954305,15 8,15 Z" id="形状结合备份-13" fill="url(#linearGradient-15)" opacity="0.204287574"></path>
                        <path d="M54,24 L78,24 C79.1045695,24 80,24.7163444 80,25.6 L80,46.4 C80,47.2836556 79.1045695,48 78,48 L54,48 C52.8954305,48 52,47.2836556 52,46.4 L52,25.6 C52,24.7163444 52.8954305,24 54,24 Z" id="路径备份" fill="#AABDF0"></path>
                        <path d="M60,29 L73,29 C74.1045695,29 75,29.8954305 75,31 C75,32.1045695 74.1045695,33 73,33 L60,33 C58.8954305,33 58,32.1045695 58,31 C58,29.8954305 58.8954305,29 60,29 Z" id="形状结合备份-16" fill="#FFFFFF" fill-rule="nonzero"></path>
                        <path d="M60,38 L68,38 C69.1045695,38 70,38.8954305 70,40 C70,41.1045695 69.1045695,42 68,42 L60,42 C58.8954305,42 58,41.1045695 58,40 C58,38.8954305 58.8954305,38 60,38 Z" id="形状结合备份-19" fill="#FFFFFF" fill-rule="nonzero" opacity="0.398656936"></path>
                    </g>
                    <g id="形状结合备份-14" transform="translate(81.998168, 52.500000) rotate(-90.000000) translate(-81.998168, -52.500000) ">
                        <use fill="black" fill-opacity="1" filter="url(#filter-17)" xlink:href="#path-16"></use>
                        <use fill="black" fill-opacity="1" filter="url(#filter-18)" xlink:href="#path-16"></use>
                        <path stroke="url(#linearGradient-10)" stroke-width="3.23076923" d="M83.5492551,51.1153846 L81.9981685,52.9766886 L80.4470819,51.1153846 L83.5492551,51.1153846 Z" stroke-linejoin="square"></path>
                    </g>
                </g>
            </g>
        </g>
    </g>
</svg>