<?xml version="1.0" encoding="UTF-8"?>
<svg width="125px" height="125px" viewBox="0 0 125 125" version="1.1" xmlns="http://www.w3.org/2000/svg" xmlns:xlink="http://www.w3.org/1999/xlink">
    <title>Pie Chart 饼图</title>
    <defs>
        <linearGradient x1="44.0988019%" y1="62.5593211%" x2="128.792906%" y2="18.0125507%" id="linearGradient-1">
            <stop stop-color="#5073E5" offset="0%"></stop>
            <stop stop-color="#5E7CE0" offset="100%"></stop>
        </linearGradient>
        <linearGradient x1="46.4177118%" y1="86.8386573%" x2="97.8307794%" y2="-43.8247114%" id="linearGradient-2">
            <stop stop-color="#5073E5" offset="0%"></stop>
            <stop stop-color="#5E7CE0" offset="100%"></stop>
        </linearGradient>
        <linearGradient x1="47.9574541%" y1="86.8386573%" x2="77.2721105%" y2="-43.8247114%" id="linearGradient-3">
            <stop stop-color="#5073E5" offset="0%"></stop>
            <stop stop-color="#5E7CE0" offset="100%"></stop>
        </linearGradient>
        <linearGradient x1="47.9574541%" y1="86.8386573%" x2="77.2721105%" y2="-43.8247114%" id="linearGradient-4">
            <stop stop-color="#5073E5" offset="0%"></stop>
            <stop stop-color="#5E7CE0" offset="100%"></stop>
        </linearGradient>
    </defs>
    <g id="组件总览" stroke="none" stroke-width="1" fill="none" fill-rule="evenodd">
        <g id="-TinyUI-Vue-组件总览3" transform="translate(-1869.000000, -609.000000)">
            <g id="编组-25备份-5" transform="translate(1770.000000, 576.000000)">
                <g id="Pie-Chart-饼图" transform="translate(99.000000, 33.000000)">
                    <g id="编组"></g>
                    <g id="chart-(1)" transform="translate(38.000000, 37.000000)">
                        <path d="M48,34.1666667 C45.0782609,43.3333334 36.5217392,50 26.3652174,50 C20.4521739,50 15.0956522,47.7777778 11.1304348,44.0972223 L26.7130435,28.4722222 L48,34.1666667 Z" id="路径" fill="url(#linearGradient-1)" opacity="0.604724702"></path>
                        <path d="M47.5826088,30.5555556 L28.5217392,25.4166667 L28.5217392,5.55555557 C39.3739131,6.31944449 48,15.3472223 48,26.4583333 C48,27.8472222 47.8608696,29.2361111 47.5826088,30.5555556 L47.5826088,30.5555556 Z" id="路径" fill="url(#linearGradient-2)" opacity="0.204287574"></path>
                        <path d="M6.67826086,43.75 C2.5043478,39.0972222 0,33.0555555 0,26.3888889 C0,12.2222222 11.4086956,0.624999976 25.7391305,0 L25.7391305,25 L6.67826086,43.75 Z" id="路径" stroke="url(#linearGradient-4)" stroke-width="1.04347826" fill="url(#linearGradient-3)"></path>
                    </g>
                </g>
            </g>
        </g>
    </g>
</svg>