<?xml version="1.0" encoding="UTF-8"?>
<svg width="125px" height="125px" viewBox="0 0 125 125" version="1.1" xmlns="http://www.w3.org/2000/svg" xmlns:xlink="http://www.w3.org/1999/xlink">
    <title>Box diagram 箱形图</title>
    <defs>
        <linearGradient x1="46.418594%" y1="86.8386573%" x2="97.8189992%" y2="-43.8247114%" id="linearGradient-1">
            <stop stop-color="#5073E5" offset="0%"></stop>
            <stop stop-color="#5E7CE0" offset="100%"></stop>
        </linearGradient>
        <linearGradient x1="49.3168542%" y1="86.8386573%" x2="59.1213752%" y2="-43.8247114%" id="linearGradient-2">
            <stop stop-color="#5073E5" offset="0%"></stop>
            <stop stop-color="#5E7CE0" offset="100%"></stop>
        </linearGradient>
        <linearGradient x1="49.3168542%" y1="86.8386573%" x2="59.1213752%" y2="-43.8247114%" id="linearGradient-3">
            <stop stop-color="#5073E5" offset="0%"></stop>
            <stop stop-color="#5E7CE0" offset="100%"></stop>
        </linearGradient>
        <linearGradient x1="49.4189887%" y1="86.8386573%" x2="57.7576734%" y2="-43.8247114%" id="linearGradient-4">
            <stop stop-color="#5073E5" offset="0%"></stop>
            <stop stop-color="#5E7CE0" offset="100%"></stop>
        </linearGradient>
        <linearGradient x1="49.4189887%" y1="86.8386573%" x2="57.7576734%" y2="-43.8247114%" id="linearGradient-5">
            <stop stop-color="#5073E5" offset="0%"></stop>
            <stop stop-color="#5E7CE0" offset="100%"></stop>
        </linearGradient>
        <linearGradient x1="47.9784944%" y1="86.8386573%" x2="76.9911798%" y2="-43.8247114%" id="linearGradient-6">
            <stop stop-color="#5073E5" offset="0%"></stop>
            <stop stop-color="#5E7CE0" offset="100%"></stop>
        </linearGradient>
        <linearGradient x1="44.0988019%" y1="82.9973815%" x2="128.792906%" y2="-34.0413311%" id="linearGradient-7">
            <stop stop-color="#5073E5" offset="0%"></stop>
            <stop stop-color="#5E7CE0" offset="100%"></stop>
        </linearGradient>
        <linearGradient x1="44.0988019%" y1="82.9973815%" x2="128.792906%" y2="-34.0413311%" id="linearGradient-8">
            <stop stop-color="#5073E5" offset="0%"></stop>
            <stop stop-color="#5E7CE0" offset="100%"></stop>
        </linearGradient>
        <linearGradient x1="44.0988019%" y1="82.9973815%" x2="128.792906%" y2="-34.0413311%" id="linearGradient-9">
            <stop stop-color="#5073E5" offset="0%"></stop>
            <stop stop-color="#5E7CE0" offset="100%"></stop>
        </linearGradient>
        <linearGradient x1="44.0988019%" y1="82.9973815%" x2="128.792906%" y2="-34.0413311%" id="linearGradient-10">
            <stop stop-color="#5073E5" offset="0%"></stop>
            <stop stop-color="#5E7CE0" offset="100%"></stop>
        </linearGradient>
    </defs>
    <g id="组件总览" stroke="none" stroke-width="1" fill="none" fill-rule="evenodd">
        <g id="-TinyUI-Vue-组件总览3" transform="translate(-1087.000000, -1984.000000)">
            <g id="编组-17备份-11" transform="translate(988.000000, 1951.000000)">
                <g id="Box-diagram-箱形图" transform="translate(99.000000, 33.000000)">
                    <g id="编组"></g>
                    <g id="箱形图" transform="translate(44.514868, 44.159211)">
                        <polygon id="路径" fill="url(#linearGradient-1)" opacity="0.204287574" points="0 6.48901314 9.84684209 6.48901314 9.84684209 19.1288158 0 19.1288158"></polygon>
                        <path d="M9.84684209,19.1288158 L9.84684209,6.48552632 L5.27210527,6.48552632 L5.27210527,0.697368378 L6.3181579,0.697368378 L6.3181579,0 L3.52868419,0 L3.52868419,0.697368378 L4.57473682,0.697368378 L4.57473682,6.48552632 L0,6.48552632 L0,19.1288158 L4.57473682,19.1288158 L4.57473682,28.2434211 L3.52868419,28.2434211 L3.52868419,28.9407895 L6.3181579,28.9407895 L6.3181579,28.2434211 L5.27210527,28.2434211 L5.27210527,19.1288158 L9.84684209,19.1288158 Z M9.14947365,7.1828947 L9.14947365,14.1217105 L0.697368378,14.1217105 L0.697368378,7.1828947 L9.14947365,7.1828947 Z M0.697368378,14.8190789 L9.14947365,14.8190789 L9.14947365,18.4314474 L0.697368378,18.4314474 L0.697368378,14.8190789 Z" id="形状" stroke="url(#linearGradient-3)" stroke-width="1.5" fill="url(#linearGradient-2)"></path>
                        <polygon id="路径" fill="url(#linearGradient-1)" opacity="0.204287574" points="29.0767763 9.72131578 38.9236185 9.72131578 38.9236185 22.3611184 29.0767763 22.3611184"></polygon>
                        <path d="M38.9236185,22.3611184 L38.9236185,9.72131578 L34.3488816,9.72131578 L34.3488816,1.48888156 L35.3949342,1.48888156 L35.3949342,0.791513115 L32.6054606,0.791513115 L32.6054606,1.48888156 L33.6515132,1.48888156 L33.6515132,9.72131578 L29.0767763,9.72131578 L29.0767763,22.3611184 L33.6515132,22.3611184 L33.6515132,31.4757237 L32.6054606,31.4757237 L32.6054606,32.1730921 L35.3949342,32.1730921 L35.3949342,31.4757237 L34.3488816,31.4757237 L34.3488816,22.3611184 L38.9236185,22.3611184 Z M38.22625,10.4186842 L38.22625,17.3540132 L29.7741447,17.3540132 L29.7741447,10.4186842 L38.22625,10.4186842 Z M29.7741447,18.0513816 L38.22625,18.0513816 L38.22625,21.66375 L29.7741447,21.66375 L29.7741447,18.0513816 Z" id="形状" stroke="url(#linearGradient-5)" stroke-width="1.5" fill="url(#linearGradient-4)"></path>
                        <polygon id="路径" fill="url(#linearGradient-6)" opacity="0.204287574" points="14.5401316 12.0400658 24.3869737 12.0400658 24.3869737 28.8640789 14.5401316 28.8640789"></polygon>
                        <path d="M24.3869737,28.8640789 L24.3869737,12.0400658 L19.8122369,12.0400658 L19.8122369,7.64315786 L20.8582895,7.64315786 L20.8582895,6.94578948 L18.0688158,6.94578948 L18.0688158,7.64315786 L19.1148684,7.64315786 L19.1148684,12.0400658 L14.5401316,12.0400658 L14.5401316,28.8640789 L19.1148684,28.8640789 L19.1148684,37.63 L18.0688158,37.63 L18.0688158,38.3273685 L20.8582895,38.3273685 L20.8582895,37.63 L19.8122369,37.63 L19.8122369,28.8640789 L24.3869737,28.8640789 Z M23.6896052,12.7374342 L23.6896052,23.8569737 L15.2375,23.8569737 L15.2375,12.7374342 L23.6896052,12.7374342 Z M15.2375,24.5543421 L23.6896052,24.5543421 L23.6896052,28.1667105 L15.2375,28.1667105 L15.2375,24.5543421 Z" id="形状" stroke="url(#linearGradient-5)" stroke-width="1.5" fill="url(#linearGradient-4)"></path>
                    </g>
                    <polyline id="路径" stroke="url(#linearGradient-8)" fill="url(#linearGradient-7)" points="36.0263158 36.5230263 36.0263158 87.0822369 89.4473684 87.0822369 89.4473684 88.4769737 34.5526316 88.4769737 34.5526316 36.5230263 36.0263158 36.5230263"></polyline>
                    <polygon id="路径" stroke="url(#linearGradient-10)" fill="url(#linearGradient-9)" points="36.5789473 36 34 36 34 89 90 89 90 86.5592105 36.5789473 86.5592105"></polygon>
                </g>
            </g>
        </g>
    </g>
</svg>