<?xml version="1.0" encoding="UTF-8"?>
<svg width="125px" height="125px" viewBox="0 0 125 125" version="1.1" xmlns="http://www.w3.org/2000/svg" xmlns:xlink="http://www.w3.org/1999/xlink">
    <title>chart-attributes-demo 属性配置示例</title>
    <defs>
        <linearGradient x1="44.0988019%" y1="63.8452469%" x2="128.792906%" y2="14.7374146%" id="linearGradient-1">
            <stop stop-color="#5073E5" offset="0%"></stop>
            <stop stop-color="#5E7CE0" offset="100%"></stop>
        </linearGradient>
        <linearGradient x1="44.0988019%" y1="86.8386573%" x2="128.792906%" y2="-43.8247114%" id="linearGradient-2">
            <stop stop-color="#5073E5" offset="0%"></stop>
            <stop stop-color="#5E7CE0" offset="100%"></stop>
        </linearGradient>
        <linearGradient x1="44.0988019%" y1="86.8386573%" x2="128.792906%" y2="-43.8247114%" id="linearGradient-3">
            <stop stop-color="#5073E5" offset="0%"></stop>
            <stop stop-color="#5E7CE0" offset="100%"></stop>
        </linearGradient>
        <linearGradient x1="44.0988019%" y1="77.6602946%" x2="128.792906%" y2="-20.4482559%" id="linearGradient-4">
            <stop stop-color="#5073E5" offset="0%"></stop>
            <stop stop-color="#5E7CE0" offset="100%"></stop>
        </linearGradient>
        <linearGradient x1="44.0988019%" y1="77.6602946%" x2="128.792906%" y2="-20.4482559%" id="linearGradient-5">
            <stop stop-color="#5073E5" offset="0%"></stop>
            <stop stop-color="#5E7CE0" offset="100%"></stop>
        </linearGradient>
    </defs>
    <g id="组件总览" stroke="none" stroke-width="1" fill="none" fill-rule="evenodd">
        <g id="-TinyUI-Vue-组件总览3" transform="translate(-1478.000000, -334.000000)">
            <g id="编组-25备份-2" transform="translate(1379.000000, 301.000000)">
                <g id="chart-attributes-demo-属性配置示例" transform="translate(99.000000, 33.000000)">
                    <g id="编组"></g>
                    <g id="图表-(3)" transform="translate(36.000000, 41.000000)">
                        <path d="M41.1357143,46.4285714 L8.72857144,46.4285714 C6.68571428,46.4285714 5.01428571,44.7571429 5.01428571,42.7142857 L5.01428571,25.7214286 C5.01428571,23.6785714 6.68571428,22.0071428 8.72857144,22.0071428 L41.1357143,22.0071428 C43.1785715,22.0071428 44.85,23.6785714 44.85,25.7214286 L44.85,42.7142857 C44.85,44.7571429 43.2714286,46.4285714 41.1357143,46.4285714 Z" id="路径" fill="url(#linearGradient-1)" opacity="0.204287574"></path>
                        <path d="M50.6071429,52 L1.39285714,52 C0.650000018,52 0,51.35 0,50.6071429 L0,1.39285714 C0,0.650000018 0.650000018,0 1.39285714,0 C2.13571427,0 2.78571428,0.650000018 2.78571428,1.39285714 L2.78571428,49.2142857 L50.6071429,49.2142857 C51.35,49.2142857 52,49.8642857 52,50.6071429 C52,51.35 51.35,52 50.6071429,52 Z" id="路径" stroke="url(#linearGradient-3)" fill="url(#linearGradient-2)"></path>
                        <path d="M17.8285714,41.0428571 L12.35,41.0428571 C11.6071429,41.0428571 10.9571429,40.3928571 10.9571429,39.65 C10.9571429,38.9071429 11.6071429,38.2571428 12.35,38.2571428 L17.8285714,38.2571428 C18.5714285,38.2571428 19.2214286,38.9071429 19.2214286,39.65 C19.2214286,40.3928571 18.5714285,41.0428571 17.8285714,41.0428571 Z M28.6928571,30.0857143 L12.35,30.0857143 C11.6071429,30.0857143 10.9571429,29.4357142 10.9571429,28.6928571 C10.9571429,27.95 11.6071429,27.3 12.35,27.3 L28.7857143,27.3 C29.5285714,27.3 30.1785714,27.95 30.1785714,28.6928571 C30.1785714,29.4357142 29.5285714,30.0857143 28.6928571,30.0857143 L28.6928571,30.0857143 Z M50.6071429,19.2214286 L12.35,19.2214286 C11.6071429,19.2214286 10.9571429,18.5714285 10.9571429,17.8285714 C10.9571429,17.0857143 11.6071429,16.4357143 12.35,16.4357143 L50.6071429,16.4357143 C51.35,16.4357143 52,17.0857143 52,17.8285714 C52,18.5714285 51.35,19.2214286 50.6071429,19.2214286 Z M39.65,8.26428574 L12.35,8.26428574 C11.6071429,8.26428574 10.9571429,7.61428573 10.9571429,6.8714286 C10.9571429,6.12857148 11.6071429,5.47857146 12.35,5.47857146 L39.65,5.47857146 C40.3928571,5.47857146 41.0428571,6.12857148 41.0428571,6.8714286 C41.0428571,7.61428573 40.4857143,8.26428574 39.65,8.26428574 Z" id="形状" stroke="url(#linearGradient-5)" fill="url(#linearGradient-4)"></path>
                        <path d="M44.0379842,45.0015043 C44.0379842,46.6365497 45.3634503,47.9620158 46.9984957,47.9620158 C48.633541,47.9620158 49.9590071,46.6365497 49.9590071,45.0015043 C49.9590071,43.366459 48.633541,42.0409929 46.9984957,42.0409929 C45.3634503,42.0409929 44.0379842,43.366459 44.0379842,45.0015043 L44.0379842,45.0015043 Z" id="路径" fill="#5073E5"></path>
                        <path d="M41,58 C49.836556,58 57,50.836556 57,42 C57,41.0703154 56.9207084,40.1591503 56.768519,39.2728985 C49.8227886,34.9496263 45.835918,32.1177148 44.8079072,30.777164 L44.8079072,26.4559035 C43.5874837,26.1579604 42.3121887,26 41,26 C32.163444,26 25,33.163444 25,42 C25,50.836556 32.163444,58 41,58 Z" id="椭圆形" fill="#EAF3FC" fill-rule="nonzero"></path>
                        <path d="M40.9984957,30 C34.3824746,30 29,35.3824746 29,42.0015043 C29,48.6175254 34.3824746,54 40.9984957,54 C47.6145167,54 53,48.6175254 53,42.0015043 C52.9969914,35.3854833 47.6145167,30 40.9984957,30 Z M48.4449041,43.5990974 C47.5272659,43.6321926 46.6487401,44.1226025 46.1553215,44.977059 C45.661903,45.828507 45.6769462,46.8364047 46.1071832,47.6457315 C45.3159082,48.3617901 44.3742008,48.9123731 43.3362166,49.2463332 C42.8488153,48.4701015 41.9853328,47.9526138 40.9984957,47.9526138 C40.0146672,47.9526138 39.148176,48.4701015 38.6607747,49.2463332 C37.6227905,48.9123731 36.6810831,48.3587815 35.8898082,47.6457315 C36.3170365,46.833396 36.3320797,45.828507 35.8416698,44.977059 C35.3482512,44.1226025 34.4697255,43.6352012 33.5520873,43.5990974 C33.4407672,43.0846183 33.3836029,42.5490786 33.3836029,41.9984957 C33.3836029,41.4509214 33.4407672,40.9153817 33.5520873,40.3978939 C34.4697255,40.3647988 35.3482512,39.8743889 35.8416698,39.0199323 C36.3350884,38.1684844 36.3200451,37.1605867 35.8898082,36.3512599 C36.6810831,35.6352012 37.6227905,35.0846183 38.6607747,34.7506581 C39.148176,35.5268898 40.0116585,36.0443776 40.9984957,36.0443776 C41.9823242,36.0443776 42.8458067,35.5268898 43.3362166,34.7506581 C44.3742008,35.0846183 45.3159082,35.6352012 46.1071832,36.3512599 C45.6799549,37.1635953 45.6649116,38.1684844 46.1553215,39.0199323 C46.6487401,39.8743889 47.5272659,40.3617901 48.4449041,40.3978939 C48.5562241,40.9123731 48.6133885,41.4479127 48.6133885,41.9984957 C48.6133885,42.5490786 48.5532155,43.0846183 48.4449041,43.5990974 L48.4449041,43.5990974 Z" id="形状" fill="#5073E5"></path>
                    </g>
                </g>
            </g>
        </g>
    </g>
</svg>