<?xml version="1.0" encoding="UTF-8"?>
<svg width="125px" height="125px" viewBox="0 0 125 125" version="1.1" xmlns="http://www.w3.org/2000/svg" xmlns:xlink="http://www.w3.org/1999/xlink">
    <title>Radar chart 雷达图</title>
    <defs>
        <linearGradient x1="44.0988019%" y1="82.8591727%" x2="128.792906%" y2="-33.6893259%" id="linearGradient-1">
            <stop stop-color="#5073E5" offset="0%"></stop>
            <stop stop-color="#5E7CE0" offset="100%"></stop>
        </linearGradient>
        <linearGradient x1="45.6450228%" y1="86.8386573%" x2="108.147737%" y2="-43.8247114%" id="linearGradient-2">
            <stop stop-color="#5073E5" offset="0%"></stop>
            <stop stop-color="#5E7CE0" offset="100%"></stop>
        </linearGradient>
        <linearGradient x1="44.0988019%" y1="77.8895516%" x2="128.792906%" y2="-21.0321527%" id="linearGradient-3">
            <stop stop-color="#5073E5" offset="0%"></stop>
            <stop stop-color="#5E7CE0" offset="100%"></stop>
        </linearGradient>
        <linearGradient x1="44.0988019%" y1="76.7845619%" x2="128.792906%" y2="-18.2178445%" id="linearGradient-4">
            <stop stop-color="#5073E5" offset="0%"></stop>
            <stop stop-color="#5E7CE0" offset="100%"></stop>
        </linearGradient>
        <linearGradient x1="45.9101501%" y1="86.8386573%" x2="104.607753%" y2="-43.8247114%" id="linearGradient-5">
            <stop stop-color="#5073E5" offset="0%"></stop>
            <stop stop-color="#5E7CE0" offset="100%"></stop>
        </linearGradient>
        <linearGradient x1="45.2918946%" y1="86.8386573%" x2="112.862711%" y2="-43.8247114%" id="linearGradient-6">
            <stop stop-color="#5073E5" offset="0%"></stop>
            <stop stop-color="#5E7CE0" offset="100%"></stop>
        </linearGradient>
    </defs>
    <g id="组件总览" stroke="none" stroke-width="1" fill="none" fill-rule="evenodd">
        <g id="-TinyUI-Vue-组件总览3" transform="translate(-1869.000000, -884.000000)">
            <g id="编组-25备份-12" transform="translate(1771.000000, 851.000000)">
                <g id="Radar-chart-雷达图" transform="translate(98.000000, 33.000000)">
                    <g id="编组"></g>
                    <g id="编组-4" transform="translate(36.000000, 37.000000)">
                        <path d="M27,0 L0,19.4780515 L10.3505294,51 L43.6494706,51 L54,19.4780515 L27,0 Z M28.4992941,11.1512317 L41.4005294,22.0064827 L28.4992941,26.1691054 L28.4992941,11.1512317 Z M42.7505294,24.3853491 L34.6505294,36.1316911 L29.2505294,28.6975366 L42.7505294,24.3837748 L42.7505294,24.3853491 Z M32.2507059,37.4699018 L18.2996471,42.3771995 L27.1492941,30.4812928 L32.2507059,37.4699018 L32.2507059,37.4699018 Z M24.7494706,28.9950917 L16.0507059,40.7398592 L12.0007059,25.4260048 L24.7494706,28.9950917 Z M12.9012353,22.7495833 L25.65,12.043897 L25.65,26.3186701 L12.8996471,22.7495833 L12.9012353,22.7495833 Z M28.4992941,4.46017781 L49.2003529,19.3300611 L44.4007059,20.965827 L28.4992941,7.43415447 L28.4992941,4.46017781 Z M25.65,4.46017781 L25.65,8.47481015 L9.59929412,21.8569179 L3.60052941,20.2211521 L25.65,4.46175218 L25.65,4.46017781 Z M11.8498235,46.3918318 L4.19929412,23.3431191 L8.84964706,24.6813299 L13.8001765,43.7154103 L11.8498235,46.3918318 Z M13.9494706,48.1755881 L15.2994706,46.3918318 L33.8992941,39.8487683 L40.0505294,48.1755881 L13.9494706,48.1755881 L13.9494706,48.1755881 Z M42.2994706,46.3918318 L36.45,38.5089831 L46.9498235,23.045564 L46.8005294,22.8959993 L50.2501765,21.7073532 L42.2994706,46.3902575 L42.2994706,46.3918318 Z" id="形状" fill="url(#linearGradient-1)"></path>
                        <polygon id="路径" fill="url(#linearGradient-2)" opacity="0.204287574" points="28.4992941 11.1512317 41.4005294 22.0064827 28.4992941 26.1691054"></polygon>
                        <polygon id="路径" fill="url(#linearGradient-3)" opacity="0.604724702" points="42.7505294 24.3853491 34.6505294 36.1316911 29.2505294 28.6975366"></polygon>
                        <polygon id="路径" fill="url(#linearGradient-4)" opacity="0.204287574" points="32.2507059 37.4699018 18.2996471 42.3771995 27.1492941 30.4812928"></polygon>
                        <polygon id="路径" fill="url(#linearGradient-5)" opacity="0.204287574" points="24.7494706 28.9950917 16.0507059 40.7398592 12.0007059 25.4260048"></polygon>
                        <polygon id="路径" fill="url(#linearGradient-6)" opacity="0.604724702" points="12.8996471 22.7495833 25.65 12.043897 25.65 26.3186701"></polygon>
                    </g>
                </g>
            </g>
        </g>
    </g>
</svg>