<?xml version="1.0" encoding="UTF-8"?>
<svg width="125px" height="125px" viewBox="0 0 125 125" version="1.1" xmlns="http://www.w3.org/2000/svg" xmlns:xlink="http://www.w3.org/1999/xlink">
    <title>K-line chart K线图</title>
    <defs>
        <linearGradient x1="50%" y1="45.9685271%" x2="50%" y2="100%" id="linearGradient-1">
            <stop stop-color="#ECF3FB" offset="0%"></stop>
            <stop stop-color="#FFFFFF" offset="100%"></stop>
        </linearGradient>
        <linearGradient x1="50.3956523%" y1="35.9331967%" x2="50%" y2="64.0668033%" id="linearGradient-2">
            <stop stop-color="#E3EFFD" stop-opacity="0.00575352382" offset="0%"></stop>
            <stop stop-color="#E5F0FD" offset="34.0601199%"></stop>
            <stop stop-color="#F0F6FE" offset="100%"></stop>
        </linearGradient>
        <linearGradient x1="33.3333333%" y1="34.495573%" x2="96.9740837%" y2="65.4421891%" id="linearGradient-3">
            <stop stop-color="#D5E6F9" offset="0%"></stop>
            <stop stop-color="#F7FBFF" stop-opacity="0" offset="100%"></stop>
        </linearGradient>
        <linearGradient x1="90.9912104%" y1="29.4309598%" x2="33.3333333%" y2="67.7472684%" id="linearGradient-4">
            <stop stop-color="#D5E6F9" offset="0%"></stop>
            <stop stop-color="#E7F0F9" stop-opacity="0" offset="100%"></stop>
        </linearGradient>
        <linearGradient x1="-5.8027489%" y1="27.0499439%" x2="103.630422%" y2="71.1332543%" id="linearGradient-5">
            <stop stop-color="#CEE6FE" offset="0%"></stop>
            <stop stop-color="#8AB5F2" offset="100%"></stop>
        </linearGradient>
        <linearGradient x1="-5.8027489%" y1="27.0499439%" x2="103.630422%" y2="71.1332543%" id="linearGradient-6">
            <stop stop-color="#BFD6F9" offset="0%"></stop>
            <stop stop-color="#F3F6FE" offset="100%"></stop>
        </linearGradient>
        <linearGradient x1="89.8473889%" y1="61.7348066%" x2="0%" y2="61.7348066%" id="linearGradient-7">
            <stop stop-color="#CAD9F3" offset="0%"></stop>
            <stop stop-color="#D5E3F7" offset="100%"></stop>
        </linearGradient>
        <filter x="-18.5%" y="-60.0%" width="136.9%" height="220.0%" filterUnits="objectBoundingBox" id="filter-8">
            <feGaussianBlur stdDeviation="4" in="SourceGraphic"></feGaussianBlur>
        </filter>
        <linearGradient x1="44.0988019%" y1="50.0940302%" x2="128.792906%" y2="49.7605136%" id="linearGradient-9">
            <stop stop-color="#5073E5" offset="0%"></stop>
            <stop stop-color="#5E7CE0" offset="100%"></stop>
        </linearGradient>
        <linearGradient x1="48.7687894%" y1="86.8386573%" x2="66.4391471%" y2="-43.8247114%" id="linearGradient-10">
            <stop stop-color="#5073E5" offset="0%"></stop>
            <stop stop-color="#5E7CE0" offset="100%"></stop>
        </linearGradient>
        <linearGradient x1="49.6670806%" y1="86.8386573%" x2="54.4451454%" y2="-43.8247114%" id="linearGradient-11">
            <stop stop-color="#5073E5" offset="0%"></stop>
            <stop stop-color="#5E7CE0" offset="100%"></stop>
        </linearGradient>
        <linearGradient x1="49.2800187%" y1="86.8386573%" x2="59.6132037%" y2="-43.8247114%" id="linearGradient-12">
            <stop stop-color="#5073E5" offset="0%"></stop>
            <stop stop-color="#5E7CE0" offset="100%"></stop>
        </linearGradient>
        <linearGradient x1="50%" y1="0%" x2="50%" y2="100%" id="linearGradient-13">
            <stop stop-color="#FFCC00" offset="0%"></stop>
            <stop stop-color="#FF9D00" offset="100%"></stop>
        </linearGradient>
    </defs>
    <g id="页面一" stroke="none" stroke-width="1" fill="none" fill-rule="evenodd">
        <g id="-TinyUI-Vue-组件总览3" transform="translate(-696.000000, -1434.000000)">
            <g id="编组-17备份-2" transform="translate(598.000000, 1401.000000)">
                <g id="K-line-chart-K线图" transform="translate(98.000000, 33.000000)">
                    <g id="编组">
                        <g transform="translate(9.000000, 1.000000)" id="多边形">
                            <polygon fill="url(#linearGradient-1)" opacity="0.54620216" points="53.2605623 0 106.521125 30.75 53.2605623 62 0 30.75"></polygon>
                            <polygon fill="url(#linearGradient-2)" points="53.2605623 61.5 106.521125 86.75 53.2605623 118 0 86.75"></polygon>
                            <polygon fill="url(#linearGradient-3)" opacity="0.600606283" points="53.2605623 62 53.2605623 123 7.39138783e-15 92.25 0 30.75"></polygon>
                            <polygon fill="url(#linearGradient-4)" opacity="0.791265578" points="53.2605623 62 106.521125 30.75 106.521125 92.25 53.2605623 123"></polygon>
                            <polygon fill="url(#linearGradient-5)" points="53.2605623 118.007802 53.2605623 123 7.39138783e-15 92.25 0 86.9161706"></polygon>
                            <polygon fill="url(#linearGradient-6)" transform="translate(79.630281, 104.958085) scale(-1, 1) translate(-79.630281, -104.958085) " points="106.260562 118.007802 106.260562 123 53 92.25 53 86.9161706"></polygon>
                        </g>
                        <ellipse id="椭圆形" fill="url(#linearGradient-7)" filter="url(#filter-8)" cx="62.5" cy="90" rx="32.5" ry="10"></ellipse>
                    </g>
                    <g id="K线图" transform="translate(32.000000, 37.000000)">
                        <polygon id="路径" fill="url(#linearGradient-9)" points="3.44444445 49.8676267 0 49.8676267 0 53 62 53 62 49.8676267"></polygon>
                        <polygon id="路径" fill="url(#linearGradient-10)" opacity="0.303770519" points="21.4615385 33.0639401 24.9059829 33.0639401 24.9059829 27.843318 28.3504274 27.843318 28.3504274 13.921659 24.9059829 13.921659 24.9059829 10.4412443 21.4615385 10.4412443 21.4615385 13.921659 18.0170941 13.921659 18.0170941 27.843318 21.4615385 27.843318"></polygon>
                        <polygon id="路径" fill="url(#linearGradient-11)" points="36.9615385 43.5051844 40.4059829 43.5051844 40.4059829 27.843318 43.8504274 27.843318 43.8504274 6.9608295 40.4059829 6.9608295 40.4059829 0 36.9615385 0 36.9615385 6.9608295 33.5170941 6.9608295 33.5170941 27.843318 36.9615385 27.843318"></polygon>
                        <polygon id="路径" fill="url(#linearGradient-12)" opacity="0.604724702" points="52.4615385 38.2845622 55.9059829 38.2845622 55.9059829 29.5835254 59.3504274 29.5835254 59.3504274 17.4020738 55.9059829 17.4020738 55.9059829 8.70103691 52.4615385 8.70103691 52.4615385 17.4020738 49.0170941 17.4020738 49.0170941 29.5835254 52.4615385 29.5835254"></polygon>
                        <polygon id="路径备份" fill="url(#linearGradient-13)" points="5.96153846 43.1268784 9.40598291 43.1268784 9.40598291 34.4258415 12.8504274 34.4258415 12.8504274 22.2443899 9.40598291 22.2443899 9.40598291 13.5433531 5.96153846 13.5433531 5.96153846 22.2443899 2.51709407 22.2443899 2.51709407 34.4258415 5.96153846 34.4258415"></polygon>
                    </g>
                </g>
            </g>
        </g>
    </g>
</svg>