<?xml version="1.0" encoding="UTF-8"?>
<svg width="125px" height="125px" viewBox="0 0 125 125" version="1.1" xmlns="http://www.w3.org/2000/svg" xmlns:xlink="http://www.w3.org/1999/xlink">
    <title>Chart 基本用法</title>
    <defs>
        <linearGradient x1="50%" y1="45.9685271%" x2="50%" y2="100%" id="linearGradient-1">
            <stop stop-color="#ECF3FB" offset="0%"></stop>
            <stop stop-color="#FFFFFF" offset="100%"></stop>
        </linearGradient>
        <linearGradient x1="50.3956523%" y1="35.9331967%" x2="50%" y2="64.0668033%" id="linearGradient-2">
            <stop stop-color="#E3EFFD" stop-opacity="0.00575352382" offset="0%"></stop>
            <stop stop-color="#E5F0FD" offset="34.0601199%"></stop>
            <stop stop-color="#F0F6FE" offset="100%"></stop>
        </linearGradient>
        <linearGradient x1="33.3333333%" y1="34.495573%" x2="96.9740837%" y2="65.4421891%" id="linearGradient-3">
            <stop stop-color="#D5E6F9" offset="0%"></stop>
            <stop stop-color="#F7FBFF" stop-opacity="0" offset="100%"></stop>
        </linearGradient>
        <linearGradient x1="90.9912104%" y1="29.4309598%" x2="33.3333333%" y2="67.7472684%" id="linearGradient-4">
            <stop stop-color="#D5E6F9" offset="0%"></stop>
            <stop stop-color="#E7F0F9" stop-opacity="0" offset="100%"></stop>
        </linearGradient>
        <linearGradient x1="-5.8027489%" y1="27.0499439%" x2="103.630422%" y2="71.1332543%" id="linearGradient-5">
            <stop stop-color="#CEE6FE" offset="0%"></stop>
            <stop stop-color="#8AB5F2" offset="100%"></stop>
        </linearGradient>
        <linearGradient x1="-5.8027489%" y1="27.0499439%" x2="103.630422%" y2="71.1332543%" id="linearGradient-6">
            <stop stop-color="#BFD6F9" offset="0%"></stop>
            <stop stop-color="#F3F6FE" offset="100%"></stop>
        </linearGradient>
        <linearGradient x1="89.8473889%" y1="61.7348066%" x2="0%" y2="61.7348066%" id="linearGradient-7">
            <stop stop-color="#CAD9F3" offset="0%"></stop>
            <stop stop-color="#D5E3F7" offset="100%"></stop>
        </linearGradient>
        <filter x="-18.5%" y="-60.0%" width="136.9%" height="220.0%" filterUnits="objectBoundingBox" id="filter-8">
            <feGaussianBlur stdDeviation="4" in="SourceGraphic"></feGaussianBlur>
        </filter>
        <linearGradient x1="46.6204972%" y1="86.8386573%" x2="95.1231838%" y2="-43.8247114%" id="linearGradient-9">
            <stop stop-color="#5073E5" offset="0%"></stop>
            <stop stop-color="#5E7CE0" offset="100%"></stop>
        </linearGradient>
        <linearGradient x1="44.0988019%" y1="86.8386573%" x2="128.792906%" y2="-43.8247114%" id="linearGradient-10">
            <stop stop-color="#5073E5" offset="0%"></stop>
            <stop stop-color="#5E7CE0" offset="100%"></stop>
        </linearGradient>
        <linearGradient x1="49.0892284%" y1="86.8386573%" x2="62.1606399%" y2="-43.8247114%" id="linearGradient-11">
            <stop stop-color="#5073E5" offset="0%"></stop>
            <stop stop-color="#5E7CE0" offset="100%"></stop>
        </linearGradient>
        <linearGradient x1="46.2232332%" y1="86.8386573%" x2="100.42746%" y2="-43.8247114%" id="linearGradient-12">
            <stop stop-color="#5073E5" offset="0%"></stop>
            <stop stop-color="#5E7CE0" offset="100%"></stop>
        </linearGradient>
        <linearGradient x1="49.4821325%" y1="86.8386573%" x2="56.9145764%" y2="-43.8247114%" id="linearGradient-13">
            <stop stop-color="#5073E5" offset="0%"></stop>
            <stop stop-color="#5E7CE0" offset="100%"></stop>
        </linearGradient>
    </defs>
    <g id="页面一" stroke="none" stroke-width="1" fill="none" fill-rule="evenodd">
        <g id="-TinyUI-Vue-组件总览3" transform="translate(-696.000000, -334.000000)">
            <g id="编组-17" transform="translate(598.000000, 301.000000)">
                <g id="Chart-基本用法" transform="translate(98.000000, 33.000000)">
                    <g id="编组">
                        <g transform="translate(9.000000, 1.000000)" id="多边形">
                            <polygon fill="url(#linearGradient-1)" opacity="0.54620216" points="53.2605623 0 106.521125 30.75 53.2605623 62 0 30.75"></polygon>
                            <polygon fill="url(#linearGradient-2)" points="53.2605623 61.5 106.521125 86.75 53.2605623 118 0 86.75"></polygon>
                            <polygon fill="url(#linearGradient-3)" opacity="0.600606283" points="53.2605623 62 53.2605623 123 7.39138783e-15 92.25 0 30.75"></polygon>
                            <polygon fill="url(#linearGradient-4)" opacity="0.791265578" points="53.2605623 62 106.521125 30.75 106.521125 92.25 53.2605623 123"></polygon>
                            <polygon fill="url(#linearGradient-5)" points="53.2605623 118.007802 53.2605623 123 7.39138783e-15 92.25 0 86.9161706"></polygon>
                            <polygon fill="url(#linearGradient-6)" transform="translate(79.630281, 104.958085) scale(-1, 1) translate(-79.630281, -104.958085) " points="106.260562 118.007802 106.260562 123 53 92.25 53 86.9161706"></polygon>
                        </g>
                        <ellipse id="椭圆形" fill="url(#linearGradient-7)" filter="url(#filter-8)" cx="62.5" cy="90" rx="32.5" ry="10"></ellipse>
                    </g>
                    <g id="说明" transform="translate(40.000000, 45.000000)">
                        <rect id="矩形备份-6" fill="url(#linearGradient-9)" opacity="0.204287574" x="0" y="0" width="28" height="37" rx="4"></rect>
                        <path d="M11.7752734,20 C8.82473155,20.4956338 6.49506187,22.8260384 6,25.7772097 L11.7752734,25.7772097 L11.7752734,20 Z M14.1268173,20.0002691 L14.1268173,28.1257787 L11.7752734,28.1257787 L6.0000269,28.1257787 C6.55933919,31.460933 9.45886815,34 12.9499153,34 C16.8431734,34 20,30.8460328 20,26.9509022 C20,23.4601526 17.4599021,20.5607029 14.1268173,20.0002691 Z" id="形状" fill="url(#linearGradient-10)"></path>
                        <rect id="矩形" fill="#5073E5" x="6" y="12" width="22" height="4" rx="2"></rect>
                        <rect id="矩形备份-4" fill="#5073E5" x="6" y="3" width="15" height="4" rx="2"></rect>
                    </g>
                    <rect id="矩形" fill="url(#linearGradient-11)" opacity="0.204287574" x="75" y="53" width="11" height="28" rx="2"></rect>
                    <rect id="矩形" stroke="url(#linearGradient-12)" stroke-width="4" x="39" y="40" width="36" height="45" rx="3"></rect>
                    <path d="M77.894627,53 L79.894627,53 L83,53 C84.6568542,53 86,54.1456243 86,55.5588235 L86,79.4411765 C86,80.8543757 84.6568542,82 83,82 L77.4091284,82 L79.4091284,82" id="路径" stroke="url(#linearGradient-13)" stroke-width="4" stroke-linecap="round" stroke-linejoin="round"></path>
                </g>
            </g>
        </g>
    </g>
</svg>