<?xml version="1.0" encoding="UTF-8"?>
<svg width="125px" height="125px" viewBox="0 0 125 125" version="1.1" xmlns="http://www.w3.org/2000/svg" xmlns:xlink="http://www.w3.org/1999/xlink">
    <title>Gaud Map 高德地图</title>
    <defs>
        <linearGradient x1="50%" y1="45.9685271%" x2="50%" y2="100%" id="linearGradient-1">
            <stop stop-color="#ECF3FB" offset="0%"></stop>
            <stop stop-color="#FFFFFF" offset="100%"></stop>
        </linearGradient>
        <linearGradient x1="50.3956523%" y1="35.9331967%" x2="50%" y2="64.0668033%" id="linearGradient-2">
            <stop stop-color="#E3EFFD" stop-opacity="0.00575352382" offset="0%"></stop>
            <stop stop-color="#E5F0FD" offset="34.0601199%"></stop>
            <stop stop-color="#F0F6FE" offset="100%"></stop>
        </linearGradient>
        <linearGradient x1="33.3333333%" y1="34.495573%" x2="96.9740837%" y2="65.4421891%" id="linearGradient-3">
            <stop stop-color="#D5E6F9" offset="0%"></stop>
            <stop stop-color="#F7FBFF" stop-opacity="0" offset="100%"></stop>
        </linearGradient>
        <linearGradient x1="90.9912104%" y1="29.4309598%" x2="33.3333333%" y2="67.7472684%" id="linearGradient-4">
            <stop stop-color="#D5E6F9" offset="0%"></stop>
            <stop stop-color="#E7F0F9" stop-opacity="0" offset="100%"></stop>
        </linearGradient>
        <linearGradient x1="-5.8027489%" y1="27.0499439%" x2="103.630422%" y2="71.1332543%" id="linearGradient-5">
            <stop stop-color="#CEE6FE" offset="0%"></stop>
            <stop stop-color="#8AB5F2" offset="100%"></stop>
        </linearGradient>
        <linearGradient x1="-5.8027489%" y1="27.0499439%" x2="103.630422%" y2="71.1332543%" id="linearGradient-6">
            <stop stop-color="#BFD6F9" offset="0%"></stop>
            <stop stop-color="#F3F6FE" offset="100%"></stop>
        </linearGradient>
        <linearGradient x1="89.8473889%" y1="61.7348066%" x2="0%" y2="61.7348066%" id="linearGradient-7">
            <stop stop-color="#CAD9F3" offset="0%"></stop>
            <stop stop-color="#D5E3F7" offset="100%"></stop>
        </linearGradient>
        <filter x="-18.5%" y="-60.0%" width="136.9%" height="220.0%" filterUnits="objectBoundingBox" id="filter-8">
            <feGaussianBlur stdDeviation="4" in="SourceGraphic"></feGaussianBlur>
        </filter>
        <linearGradient x1="44.0988019%" y1="58.1378867%" x2="128.792906%" y2="29.2735423%" id="linearGradient-9">
            <stop stop-color="#5073E5" offset="0%"></stop>
            <stop stop-color="#5E7CE0" offset="100%"></stop>
        </linearGradient>
        <linearGradient x1="44.0988019%" y1="53.2883803%" x2="128.792906%" y2="41.6247942%" id="linearGradient-10">
            <stop stop-color="#5073E5" offset="0%"></stop>
            <stop stop-color="#5E7CE0" offset="100%"></stop>
        </linearGradient>
        <linearGradient x1="46.0270698%" y1="86.8386573%" x2="103.046638%" y2="-43.8247114%" id="linearGradient-11">
            <stop stop-color="#5073E5" offset="0%"></stop>
            <stop stop-color="#5E7CE0" offset="100%"></stop>
        </linearGradient>
        <linearGradient x1="44.0988019%" y1="70.4792283%" x2="128.792906%" y2="-2.15873289%" id="linearGradient-12">
            <stop stop-color="#5073E5" offset="0%"></stop>
            <stop stop-color="#5E7CE0" offset="100%"></stop>
        </linearGradient>
    </defs>
    <g id="页面一" stroke="none" stroke-width="1" fill="none" fill-rule="evenodd">
        <g id="-TinyUI-Vue-组件总览3" transform="translate(-697.000000, -1984.000000)">
            <g id="编组-17备份-10" transform="translate(598.000000, 1951.000000)">
                <g id="Gaud-Map-高德地图" transform="translate(99.000000, 33.000000)">
                    <g id="编组">
                        <g transform="translate(9.000000, 1.000000)" id="多边形">
                            <polygon fill="url(#linearGradient-1)" opacity="0.54620216" points="53.2605623 0 106.521125 30.75 53.2605623 62 0 30.75"></polygon>
                            <polygon fill="url(#linearGradient-2)" points="53.2605623 61.5 106.521125 86.75 53.2605623 118 0 86.75"></polygon>
                            <polygon fill="url(#linearGradient-3)" opacity="0.600606283" points="53.2605623 62 53.2605623 123 7.39138783e-15 92.25 0 30.75"></polygon>
                            <polygon fill="url(#linearGradient-4)" opacity="0.791265578" points="53.2605623 62 106.521125 30.75 106.521125 92.25 53.2605623 123"></polygon>
                            <polygon fill="url(#linearGradient-5)" points="53.2605623 118.007802 53.2605623 123 7.39138783e-15 92.25 0 86.9161706"></polygon>
                            <polygon fill="url(#linearGradient-6)" transform="translate(79.630281, 104.958085) scale(-1, 1) translate(-79.630281, -104.958085) " points="106.260562 118.007802 106.260562 123 53 92.25 53 86.9161706"></polygon>
                        </g>
                        <ellipse id="椭圆形" fill="url(#linearGradient-7)" filter="url(#filter-8)" cx="62.5" cy="90" rx="32.5" ry="10"></ellipse>
                    </g>
                    <path d="M39.0900313,67.1295986 C39.7697189,65.1057303 41.6785082,63.7396193 43.8251882,63.7396193 L45.7736259,63.7396193 C47.1499933,63.7396193 48.2714778,64.847125 48.2714778,66.2188579 C48.2714778,67.5905908 47.1556574,68.6980965 45.7736259,68.6980965 L43.8251882,68.6980965 L37.9968671,86.0471447 L85.999803,86.0471447 L80.177146,68.6980965 L78.2287082,68.6980965 C76.8523409,68.6980965 75.7308563,67.5905908 75.7308563,66.2188579 C75.7308563,64.847125 76.8466768,63.7396193 78.2287082,63.7396193 L80.177146,63.7396193 C82.3238259,63.7396193 84.2326152,65.1057303 84.9123028,67.1295986 L90.7406239,84.4786468 C91.8167959,87.6887267 89.409569,91 86.005467,91 L37.9968671,91 C34.5871011,91 32.1798742,87.6831048 33.2617103,84.4786468 L39.0900313,67.1295986 Z" id="路径" fill="url(#linearGradient-9)" opacity="0.604724702"></path>
                    <polygon id="矩形" fill="url(#linearGradient-10)" opacity="0.204287574" points="47.9616278 72 76.4892244 72 80.5893915 83 43.7719539 83"></polygon>
                    <path d="M75.3740169,41.9564275 C72.5251472,38.6072421 68.9977897,36.7413738 64.6042687,36.1541818 C64.3826467,36.1248222 64.183295,36.0959007 63.9463216,36.0713614 C63.2717259,35.9979624 62.6697789,35.9749567 61.9592912,36.0319231 C60.4898832,36.1909908 59.1411242,36.5211767 57.6410135,37.0156888 C51.4624083,39.0520181 47.0931035,45.2427308 47.0018601,51.844697 C46.9380762,56.4576598 48.51516,60.4067451 51.6606789,63.6678517 C55.254631,67.3936726 58.9497725,71.019145 62.602968,74.6862467 C62.7121574,74.7960165 62.8418873,74.8849717 62.9826443,75 C63.1151851,74.9029381 63.2276177,74.8418087 63.3134557,74.7548254 C67.2209218,70.7941278 71.2135773,66.9151549 75.0105569,62.8477548 C80.2202955,57.2661443 80.3130525,47.7643699 75.3740169,41.9564275 L75.3740169,41.9564275 Z M62.9104279,64.0431726 C56.383714,64.0431726 51.0926779,58.6690511 51.0926779,52.0396973 C51.0926779,45.4101243 56.383714,40.036222 62.9104279,40.036222 C69.4371419,40.036222 74.7279618,45.4103434 74.7279618,52.0396973 C74.7279618,58.6690512 69.4369256,64.0431726 62.9104279,64.0431726 Z" id="形状" fill="url(#linearGradient-11)"></path>
                    <path d="M72.9999588,50.7467794 L72.9999588,51.1915554 C71.7474161,52.1453042 70.4702247,53.0692552 69.258547,54.0738355 C68.9415734,54.3365382 68.7106541,54.8310503 68.6408162,55.253478 C68.4384375,56.4780362 68.3381129,57.7201226 68.1688154,59.2093554 C67.1655704,58.6804444 66.3930285,58.206747 65.5668649,57.867797 C65.19454,57.7153024 64.5995119,57.6548304 64.3052412,57.8550891 C62.8619954,58.8388548 61.4864255,59.9240645 60.0864231,60.9733415 L59.8676119,60.9733415 C59.587179,60.555515 59.242746,60.1679244 59.0373402,59.7152608 C57.1117153,55.4723604 55.2098742,51.2182858 53.3011141,46.9677168 C53.1374382,45.8502992 53.9876018,46.4495418 54.3956025,46.3005528 C55.1512795,46.5203116 55.8991727,46.7746884 56.6637145,46.9534752 C62.1071833,48.2264549 67.5541116,49.4845357 72.9999588,50.7467794 L72.9999588,50.7467794 Z M66.8165968,56.6800478 C66.8488131,56.1044682 66.823732,55.7394451 66.896597,55.3954557 C67.1430839,54.2329032 66.6626506,53.6224865 65.6235137,53.1080361 C62.5523733,51.5874718 59.5396114,49.9457443 56.5017683,48.3552866 C56.2926869,48.2457359 56.0676054,48.1675166 55.8498753,48.0746176 C55.8217672,48.1258873 55.7943076,48.1771571 55.7666319,48.2284268 L66.8165968,56.6798287 L66.8165968,56.6800478 Z" id="形状" fill="url(#linearGradient-12)"></path>
                </g>
            </g>
        </g>
    </g>
</svg>