<?xml version="1.0" encoding="UTF-8"?>
<svg width="125px" height="125px" viewBox="0 0 125 125" version="1.1" xmlns="http://www.w3.org/2000/svg" xmlns:xlink="http://www.w3.org/1999/xlink">
    <title>Dashboard 仪表盘</title>
    <defs>
        <linearGradient x1="44.0988019%" y1="50.1879523%" x2="128.792906%" y2="49.5213025%" id="linearGradient-1">
            <stop stop-color="#5073E5" offset="0%"></stop>
            <stop stop-color="#5E7CE0" offset="100%"></stop>
        </linearGradient>
        <linearGradient x1="44.0988019%" y1="61.7031239%" x2="128.792906%" y2="20.1932074%" id="linearGradient-2">
            <stop stop-color="#5073E5" offset="0%"></stop>
            <stop stop-color="#5E7CE0" offset="100%"></stop>
        </linearGradient>
        <linearGradient x1="44.0988019%" y1="60.3891536%" x2="128.792906%" y2="23.5397701%" id="linearGradient-3">
            <stop stop-color="#5073E5" offset="0%"></stop>
            <stop stop-color="#5E7CE0" offset="100%"></stop>
        </linearGradient>
        <linearGradient x1="47.4255734%" y1="86.8386573%" x2="84.3737922%" y2="-43.8247114%" id="linearGradient-4">
            <stop stop-color="#5073E5" offset="0%"></stop>
            <stop stop-color="#5E7CE0" offset="100%"></stop>
        </linearGradient>
        <linearGradient x1="44.0988019%" y1="86.8386573%" x2="128.792906%" y2="-43.8247114%" id="linearGradient-5">
            <stop stop-color="#5073E5" offset="0%"></stop>
            <stop stop-color="#5E7CE0" offset="100%"></stop>
        </linearGradient>
    </defs>
    <g id="组件总览" stroke="none" stroke-width="1" fill="none" fill-rule="evenodd">
        <g id="-TinyUI-Vue-组件总览3" transform="translate(-1086.000000, -1434.000000)">
            <g id="编组-17备份-3" transform="translate(988.000000, 1401.000000)">
                <g id="Dashboard-仪表盘" transform="translate(98.000000, 33.000000)">
                    <g id="编组"></g>
                    <g id="仪表盘" transform="translate(34.000000, 38.000000)">
                        <path d="M4.2,44 L51.8,44 C54.6,44 56,44.1 56,44.3 L56,47.7 C56,47.9 54.6,48 51.8,48 L4.2,48 C1.4,48 0,47.9 0,47.7 L0,44.3 C0,44.1 1.4,44 4.2,44 Z" id="路径" fill="url(#linearGradient-1)" opacity="0.604724702"></path>
                        <path d="M29.4989573,4 C44.6874076,4 57,17.2998611 57,33.7083333 C57,34.1410417 56.9916581,34.57375 56.9749744,35 L2.02294013,35 C2.00834186,34.57375 2,34.1410417 2,33.7083333 C2,17.2998611 14.3125924,4 29.4989573,4 Z" id="路径" fill="url(#linearGradient-2)" opacity="0.204287574"></path>
                        <path d="M48.339375,7.54626871 C54.2682639,12.9700259 58,20.8479988 58,29.6164392 C58,30.0132995 57.9919444,30.4081854 57.9778472,30.8010968 L53.1404861,30.8010968 C53.1586111,30.4101598 53.1666667,30.0132995 53.1666667,29.6164392 C53.1666667,28.2143961 53.0540333,26.8394591 52.8375613,25.5006963 L50,25.5 C49.1715729,25.5 48.5,24.8284271 48.5,24 C48.5,23.1715729 49.1715729,22.5 50,22.5 L52.1636532,22.5001743 C51.0161145,18.5356242 48.9342523,14.9857144 46.1804861,12.1210214 L48.339375,7.54626871 Z M29,0 C32.4880556,0 35.8311111,0.627868511 38.9284722,1.78093521 L36.0365278,5.80877094 C34.3986876,5.29685086 32.7096984,4.96637126 31.0011125,4.82213073 L31,7.5 C31,8.32842712 30.3284271,9 29.5,9 C28.6715729,9 28,8.32842712 28,7.5 L28.0004167,4.75952633 C17.4960181,5.19950823 8.71900986,12.5424184 5.83643185,22.5005294 L8,22.5 C8.82842712,22.5 9.5,23.1715729 9.5,24 C9.5,24.8284271 8.82842712,25.5 8,25.5 L5.16265245,25.49986 C4.94604596,26.8388969 4.83333333,28.2141147 4.83333333,29.6164392 C4.83333333,30.0132995 4.84138889,30.4101598 4.85951389,30.8010968 L0.0221527778,30.8010968 C0.00805555556,30.4081854 0,30.0132995 0,29.6164392 C0,13.2602671 12.9835417,0 29,0 Z" id="形状结合" fill="url(#linearGradient-3)"></path>
                        <path d="M46.5208333,0.32972969 L34.945,31.1466219 C34.4644137,33.7116989 32.3291367,35.6667987 29.6860933,35.9617761 C27.0430499,36.2567534 24.5141973,34.8221946 23.4578615,32.4286461 C22.4015258,30.0350976 23.0662823,27.2458059 25.0950694,25.558987 L46.5208333,0.32972969 Z" id="路径" fill="url(#linearGradient-4)"></path>
                        <path d="M15,28 C15,29.1045695 15.8954305,30 17,30 C18.1045695,30 19,29.1045695 19,28 C19,26.8954305 18.1045695,26 17,26 C15.8954305,26 15,26.8954305 15,28 L15,28 Z" id="路径" fill="url(#linearGradient-5)" opacity="0.604724702"></path>
                        <path d="M41,28 C41,28.7145311 41.3811978,29.3747852 42,29.7320508 C42.6188021,30.0893164 43.3811979,30.0893164 44,29.7320508 C44.6188022,29.3747852 45,28.7145311 45,28 C45,26.8954305 44.1045695,26 43,26 C41.8954305,26 41,26.8954305 41,28 L41,28 Z" id="路径" fill="url(#linearGradient-5)" opacity="0.604724702"></path>
                    </g>
                </g>
            </g>
        </g>
    </g>
</svg>