<?xml version="1.0" encoding="UTF-8"?>
<svg width="125px" height="125px" viewBox="0 0 125 125" version="1.1" xmlns="http://www.w3.org/2000/svg" xmlns:xlink="http://www.w3.org/1999/xlink">
    <title>Rising Sun Map 旭日图</title>
    <defs>
        <linearGradient x1="44.0988019%" y1="55.6744324%" x2="128.792906%" y2="35.5477365%" id="linearGradient-1">
            <stop stop-color="#5073E5" offset="0%"></stop>
            <stop stop-color="#5E7CE0" offset="100%"></stop>
        </linearGradient>
        <linearGradient x1="50%" y1="0%" x2="50%" y2="100%" id="linearGradient-2">
            <stop stop-color="#FFCC00" offset="0%"></stop>
            <stop stop-color="#FF9D00" offset="100%"></stop>
        </linearGradient>
        <linearGradient x1="50%" y1="0%" x2="50%" y2="100%" id="linearGradient-3">
            <stop stop-color="#FFCC00" offset="0%"></stop>
            <stop stop-color="#FF9D00" offset="100%"></stop>
        </linearGradient>
        <linearGradient x1="46.1471269%" y1="86.8386573%" x2="101.443634%" y2="-43.8247114%" id="linearGradient-4">
            <stop stop-color="#5073E5" offset="0%"></stop>
            <stop stop-color="#5E7CE0" offset="100%"></stop>
        </linearGradient>
        <linearGradient x1="46.1471269%" y1="86.8386573%" x2="101.443634%" y2="-43.8247114%" id="linearGradient-5">
            <stop stop-color="#5073E5" offset="0%"></stop>
            <stop stop-color="#5E7CE0" offset="100%"></stop>
        </linearGradient>
        <linearGradient x1="48.0922098%" y1="86.8386573%" x2="75.4728499%" y2="-43.8247114%" id="linearGradient-6">
            <stop stop-color="#5073E5" offset="0%"></stop>
            <stop stop-color="#5E7CE0" offset="100%"></stop>
        </linearGradient>
    </defs>
    <g id="组件总览" stroke="none" stroke-width="1" fill="none" fill-rule="evenodd">
        <g id="-TinyUI-Vue-组件总览3" transform="translate(-1087.000000, -1709.000000)">
            <g id="编组-17备份-7" transform="translate(988.000000, 1676.000000)">
                <g id="Rising-Sun-Map-旭日图" transform="translate(99.000000, 33.000000)">
                    <g id="编组"></g>
                    <g id="旭日图" transform="translate(34.000000, 34.000000)">
                        <path d="M41.5666667,42.7368421 C38.6666667,45.3799743 34.9487179,47.1296534 30.8217949,47.5391528 L30.8217949,58 C37.8115385,57.5532734 44.1320513,54.6495507 48.9282051,50.1078306 L41.5666667,42.7368421 Z M17.325641,43.4441592 L10.0384615,50.8896021 C14.8717949,55.0962773 21.0807692,57.7021823 27.8846154,57.9627728 L27.8846154,47.5391528 C23.8692308,47.3157895 20.225641,45.8267009 17.325641,43.4441592 L17.325641,43.4441592 Z" id="形状" fill="url(#linearGradient-1)" opacity="0.604724702"></path>
                        <path d="M13.7564103,29 C13.7564103,32.648267 15.0205128,35.9614891 17.1397436,38.6046213 L23.6089744,32.127086 C23.125641,31.2708601 22.8653846,30.2657253 22.8653846,29.1861361 C22.8653846,26.3196406 24.8358974,23.9370988 27.475641,23.2297818 L27.475641,13.8112965 C19.7794872,14.593068 13.7564103,21.0706033 13.7564103,29 L13.7564103,29 Z" id="路径" fill="url(#linearGradient-2)"></path>
                        <path d="M0,29 C0,36.4454429 2.78846154,43.2207959 7.39871795,48.3581515 L14.7602564,40.987163 C12.0461538,37.7483954 10.4102564,33.5789474 10.4102564,29 C10.4102564,19.2464698 17.9205128,11.2426187 27.475641,10.4608472 L27.475641,0 C12.1576923,0.818998716 0,13.4762516 0,29 L0,29 Z" id="路径" fill="url(#linearGradient-3)" opacity="0.400798979"></path>
                        <path d="M30.8217949,13.8485237 L30.8217949,23.3042362 C33.3128205,24.0860077 35.1346154,26.4313222 35.1346154,29.1861361 C35.1346154,32.5738126 32.3833333,35.3286264 29,35.3286264 C27.9217949,35.3286264 26.9179487,35.0308087 26.025641,34.5468549 L19.6679487,41.0616175 C22.2333333,43.071887 25.5051282,44.2631579 29,44.2631579 C37.4025641,44.2631579 44.2435897,37.4133504 44.2435897,29 C44.2435897,21.182285 38.3692308,14.7419769 30.8217949,13.8485237 L30.8217949,13.8485237 Z" id="路径" stroke="url(#linearGradient-5)" fill="url(#linearGradient-4)"></path>
                        <path d="M30.8217949,0.0372272144 L30.8217949,10.4980745 C40.2282051,11.4287548 47.5897436,19.3581515 47.5897436,29.0372272 C47.5897436,33.3183569 46.1397436,37.3016688 43.6858974,40.4287548 L51.0846154,47.8369705 C55.3974359,42.7740693 58,36.2220796 58,29.0372272 C58,13.5879332 45.9910256,0.967907574 30.8217949,0.0372272144 L30.8217949,0.0372272144 Z" id="路径" fill="url(#linearGradient-6)" opacity="0.303770519"></path>
                    </g>
                </g>
            </g>
        </g>
    </g>
</svg>