<?xml version="1.0" encoding="UTF-8"?>
<svg width="125px" height="125px" viewBox="0 0 125 125" version="1.1" xmlns="http://www.w3.org/2000/svg" xmlns:xlink="http://www.w3.org/1999/xlink">
    <title>Rank chart 条形图</title>
    <defs>
        <linearGradient x1="49.1491494%" y1="86.8386573%" x2="61.3605726%" y2="-43.8247114%" id="linearGradient-1">
            <stop stop-color="#5073E5" offset="0%"></stop>
            <stop stop-color="#5E7CE0" offset="100%"></stop>
        </linearGradient>
        <linearGradient x1="49.6153135%" y1="86.8386573%" x2="55.1363416%" y2="-43.8247114%" id="linearGradient-2">
            <stop stop-color="#5073E5" offset="0%"></stop>
            <stop stop-color="#5E7CE0" offset="100%"></stop>
        </linearGradient>
        <linearGradient x1="49.8106989%" y1="86.8386573%" x2="52.5275515%" y2="-43.8247114%" id="linearGradient-3">
            <stop stop-color="#5073E5" offset="0%"></stop>
            <stop stop-color="#5E7CE0" offset="100%"></stop>
        </linearGradient>
        <linearGradient x1="44.0988019%" y1="50.1637274%" x2="128.792906%" y2="49.5830013%" id="linearGradient-4">
            <stop stop-color="#5073E5" offset="0%"></stop>
            <stop stop-color="#5E7CE0" offset="100%"></stop>
        </linearGradient>
    </defs>
    <g id="组件总览" stroke="none" stroke-width="1" fill="none" fill-rule="evenodd">
        <g id="-TinyUI-Vue-组件总览3" transform="translate(-1478.000000, -609.000000)">
            <g id="编组-25备份-7" transform="translate(1380.000000, 576.000000)">
                <g id="Rank-chart-条形图" transform="translate(98.000000, 33.000000)">
                    <g id="编组"></g>
                    <g id="图表-(3)" transform="translate(62.510629, 63.088828) rotate(-270.000000) translate(-62.510629, -63.088828) translate(32.510629, 28.643217)">
                        <path d="M11.423077,35.4185208 L16.2692307,35.4185208 C18.2447108,35.4185208 19.8461538,37.0199639 19.8461538,38.995444 L19.8461538,67.0212578 L19.8461538,67.0212578 L7.84615385,67.0212578 L7.84615385,38.995444 C7.84615385,37.0199639 9.44759688,35.4185208 11.423077,35.4185208 Z" id="矩形" fill="url(#linearGradient-1)" opacity="0.604724702"></path>
                        <path d="M43.423077,20.0212578 L48.2692307,20.0212578 C50.2447108,20.0212578 51.8461538,21.6227008 51.8461538,23.5981809 L51.8461538,67.0212578 L51.8461538,67.0212578 L39.8461538,67.0212578 L39.8461538,23.5981809 C39.8461538,21.6227008 41.4475969,20.0212578 43.423077,20.0212578 Z" id="矩形备份-12" fill="url(#linearGradient-2)" opacity="0.604724702"></path>
                        <path d="M27.423077,0 L32.2692307,0 C34.2447108,-3.62889807e-16 35.8461538,1.60144303 35.8461538,3.57692313 L35.8461538,67 L35.8461538,67 L23.8461538,67 L23.8461538,3.57692313 C23.8461538,1.60144303 25.4475969,3.62889807e-16 27.423077,0 Z" id="矩形备份-11" fill="url(#linearGradient-3)" opacity="0.204287574"></path>
                        <rect id="矩形" fill="url(#linearGradient-4)" x="0" y="64.8912223" width="60" height="4" rx="2"></rect>
                    </g>
                </g>
            </g>
        </g>
    </g>
</svg>