<?xml version="1.0" encoding="UTF-8"?>
<svg width="125px" height="125px" viewBox="0 0 125 125" version="1.1" xmlns="http://www.w3.org/2000/svg" xmlns:xlink="http://www.w3.org/1999/xlink">
    <title>Word cloud map 词云图</title>
    <defs>
        <linearGradient x1="44.0988019%" y1="68.597902%" x2="128.792906%" y2="2.63283405%" id="linearGradient-1">
            <stop stop-color="#5073E5" offset="0%"></stop>
            <stop stop-color="#5E7CE0" offset="100%"></stop>
        </linearGradient>
        <path d="M76,34.3651977 C76,45.2089436 67.2212394,53.9999893 56.3920393,53.9999893 L17.1767127,53.9999893 C8.57640646,54.0095095 1.29844634,47.6416979 0.153959605,39.1062093 C-0.990527135,30.5707206 4.35179896,22.505223 12.6499227,20.2422373 C14.5540298,9.54741129 23.2507014,1.37766976 34.0299343,0.15652721 C44.8091673,-1.06461534 55.1089531,4.95234121 59.3508111,14.9508182 C68.9266675,16.4161892 76,24.6639648 76,34.3651977 Z" id="path-2"></path>
        <linearGradient x1="44.0988019%" y1="62.3925243%" x2="128.792906%" y2="18.4373671%" id="linearGradient-4">
            <stop stop-color="#5073E5" offset="0%"></stop>
            <stop stop-color="#5E7CE0" offset="100%"></stop>
        </linearGradient>
        <linearGradient x1="44.0988019%" y1="53.2450582%" x2="128.792906%" y2="41.7351316%" id="linearGradient-5">
            <stop stop-color="#5073E5" offset="0%"></stop>
            <stop stop-color="#5E7CE0" offset="100%"></stop>
        </linearGradient>
        <linearGradient x1="44.0988019%" y1="53.8834723%" x2="128.792906%" y2="40.1091491%" id="linearGradient-6">
            <stop stop-color="#5073E5" offset="0%"></stop>
            <stop stop-color="#5E7CE0" offset="100%"></stop>
        </linearGradient>
    </defs>
    <g id="组件总览" stroke="none" stroke-width="1" fill="none" fill-rule="evenodd">
        <g id="-TinyUI-Vue-组件总览3" transform="translate(-697.000000, -1709.000000)">
            <g id="编组-17备份-6" transform="translate(598.000000, 1676.000000)">
                <g id="Word-cloud-map-词云图" transform="translate(99.000000, 33.000000)">
                    <g id="编组"></g>
                    <g id="形状" transform="translate(25.000000, 36.000000)">
                        <mask id="mask-3" fill="white">
                            <use xlink:href="#path-2"></use>
                        </mask>
                        <use id="蒙版" fill="url(#linearGradient-1)" opacity="0.303770519" xlink:href="#path-2"></use>
                    </g>
                    <path d="M43.8921283,57.3939394 L44.6209913,61.6414141 C44.7667638,62.6666666 45.058309,63.8383838 45.2040816,64.8636364 C45.3498542,63.8383839 45.6413994,62.6666667 45.9329446,61.6414141 L46.9533528,57.3939394 L49.4314869,57.3939394 L50.451895,61.4949495 C50.7434402,62.6666667 51.0349854,63.6919192 51.180758,64.8636364 C51.3265306,63.8383839 51.4723032,62.6666667 51.7638484,61.4949495 L52.638484,57.3939394 L55.5539359,57.3939394 L52.4927114,67.5 L49.5772595,67.5 L48.7026239,63.9848485 C48.4110787,62.959596 48.2653061,62.0808081 48.1195335,60.9090909 C47.973761,62.0808081 47.6822157,63.1060606 47.5364431,63.9848485 L46.516035,67.5 L43.600583,67.5 L40.6851312,57.3939394 L43.8921283,57.3939394 Z M66.1953353,62.3737374 C66.1953353,66.1818182 63.5714286,67.6464646 61.0932944,67.6464646 C58.1778425,67.6464646 56.1370262,65.7424242 56.1370262,62.520202 C56.1370262,59.1515151 58.3236151,57.2474747 61.2390671,57.2474747 C64.3002916,57.2474747 66.1953353,59.2979798 66.1953353,62.3737374 Z M59.3440233,62.520202 C59.3440233,64.2777777 59.9271136,65.5959596 61.2390671,65.5959596 C62.4052478,65.5959596 62.9883382,64.2777777 62.9883382,62.520202 C62.9883382,61.0555555 62.5510204,59.4444444 61.2390671,59.4444444 C59.7813411,59.4444444 59.3440233,61.0555555 59.3440233,62.520202 Z M68.090379,60.6161616 C68.090379,59.2979798 68.090379,58.2727273 67.9446064,57.3939394 L70.5685131,57.3939394 L70.7142857,59.1515152 L70.8600583,59.1515152 C71.4431487,57.8333333 72.4635569,57.2474747 73.483965,57.2474747 L74.212828,57.2474747 L74.212828,60.030303 L73.483965,60.030303 C72.4635569,60.030303 71.5889213,60.6161616 71.4431487,61.4949495 C71.4431487,61.6414141 71.2973761,61.9343434 71.2973761,62.2272727 L71.2973761,67.3535353 L68.2361516,67.3535353 L68.2361516,60.6161616 L68.090379,60.6161616 Z M84.8542274,53 L84.8542274,64.4242424 C84.8542274,65.4494949 84.8542274,66.6212121 85,67.3535353 L82.2303207,67.3535353 L82.0845481,66.0353535 C81.5014577,67.060606 80.3352769,67.6464646 79.1690962,67.6464646 C76.8367347,67.6464646 75.0874635,65.4494949 75.0874635,62.520202 C75.0874635,59.1515151 77.1282799,57.2474747 79.3148688,57.2474747 C80.4810496,57.2474747 81.3556852,57.6868686 81.7930029,58.4191919 L81.7930029,53 L84.8542274,53 Z M81.7930029,61.6414141 L81.7930029,61.0555555 C81.6472304,60.3232323 81.0641399,59.5909091 80.1895044,59.5909091 C78.877551,59.5909091 78.148688,60.9090909 78.148688,62.520202 C78.148688,64.2777777 78.877551,65.3030303 80.0437318,65.3030303 C80.7725948,65.3030303 81.5014577,64.8636364 81.6472303,63.9848485 C81.6472303,63.8383839 81.7930029,63.5454545 81.7930029,63.2525252 L81.7930029,61.6414141 Z M41.2682216,81.5606061 C40.8309038,81.7070707 40.1020408,81.8535353 39.2274052,81.8535353 C36.6034985,81.8535353 35,80.2424242 35,77.4595959 C35,74.9696969 36.6034986,72.9191919 39.664723,72.9191919 C40.2478133,72.9191919 40.9766763,73.0656565 41.4139941,73.2121212 L40.9766763,75.2626262 C40.6851311,75.1161616 40.2478133,74.9696969 39.664723,74.969697 C38.3527696,74.969697 37.4781341,75.9949495 37.4781341,77.4595959 C37.4781341,79.070707 38.3527696,79.9494949 39.664723,79.9494949 C40.2478133,79.9494949 40.6851311,79.8030303 40.9766763,79.6565656 L41.2682216,81.5606061 Z M42.4344023,69.4040404 L45.058309,69.4040404 L45.058309,81.8535353 L42.4344023,81.8535353 L42.4344023,69.4040404 L42.4344023,69.4040404 Z M54.5335277,77.3131313 C54.5335277,80.5353535 52.3469387,81.8535353 50.451895,81.8535353 C48.1195335,81.8535353 46.3702624,80.2424242 46.3702624,77.4595959 C46.3702624,74.530303 48.1195335,72.9191919 50.5976676,72.9191919 C52.9300291,72.9191919 54.5335277,74.6767677 54.5335277,77.3131313 Z M48.9941691,77.4595959 C48.9941691,78.9242424 49.4314869,80.0959596 50.5976676,80.0959596 C51.6180757,80.0959596 52.0553936,78.9242424 52.0553936,77.4595959 C52.0553936,76.2878787 51.6180758,74.8232323 50.5976676,74.8232323 C49.4314868,74.8232323 48.9941691,76.1414141 48.9941691,77.4595959 Z M63.425656,79.070707 L63.425656,81.8535353 L61.3848396,81.8535353 L61.2390671,80.6818182 C60.9475219,81.2676767 60.0728863,82 58.7609329,82 C57.0116618,82 55.9912537,80.8282828 55.9912537,78.3383838 L55.9912537,73.2121212 L58.4693877,73.2121212 L58.4693877,77.8989899 C58.4693877,79.070707 58.7609329,79.8030302 59.6355685,79.8030303 C60.2186589,79.8030303 60.6559766,79.3636364 60.8017493,78.9242424 C60.8017493,78.7777778 60.9475219,78.4848485 60.9475219,78.3383838 L60.9475219,73.0656565 L63.5714286,73.0656565 L63.5714286,79.070707 L63.425656,79.070707 Z M72.9008746,69.4040404 L72.9008746,81.7070707 L70.7142857,81.7070707 L70.5685131,80.5353535 C70.1311953,81.4141414 69.1107872,81.8535353 68.090379,81.8535353 C66.1953353,81.8535353 64.7376093,80.0959596 64.7376093,77.4595959 C64.7376093,74.530303 66.3411079,72.9191919 68.2361516,72.9191919 C69.2565598,72.9191919 69.8396502,73.3585858 70.2769679,73.7979798 L70.2769679,69.2575758 L72.9008746,69.2575758 L72.9008746,69.4040404 Z M70.4227405,76.7272727 L70.4227405,76.2878788 C70.276968,75.5555555 69.8396502,75.1161616 69.1107872,75.1161616 C67.9446064,75.1161616 67.5072886,76.2878788 67.5072886,77.6060606 C67.5072886,79.070707 68.090379,79.9494949 69.1107872,79.9494949 C69.6938775,79.9494949 70.276968,79.510101 70.4227405,78.7777777 L70.4227405,76.7272727 L70.4227405,76.7272727 Z" id="形状" fill="url(#linearGradient-4)"></path>
                    <path d="M78.5927978,76.0331492 C78.432133,76.0331492 78.1108033,76.1933702 77.7894737,76.1933702 C76.8254848,76.1933702 76.3434903,75.7127072 76.3434903,74.7513812 C76.3434903,73.9502762 76.9861496,73.3093923 77.9501385,73.3093923 C78.1108033,73.3093923 78.432133,73.3093923 78.5927978,73.4696132 L78.432133,74.1104973 L77.9501385,74.1104973 C77.468144,74.1104973 77.1468144,74.4309393 77.1468144,74.9116022 C77.1468144,75.3922651 77.468144,75.7127072 77.9501385,75.7127072 L78.432133,75.7127072 L78.5927978,76.0331492 L78.5927978,76.0331492 Z M79.0747922,72.1878453 L80.0387811,72.1878453 L80.0387811,76.0331492 L79.0747922,76.0331492 L79.0747922,72.1878453 Z M83.4127424,74.5911602 C83.4127424,75.5524862 82.6094182,76.0331492 81.966759,76.0331492 C81.1634348,76.0331492 80.5207756,75.5524862 80.5207756,74.5911602 C80.5207756,73.6298343 81.1634348,73.1491713 81.966759,73.1491713 C82.7700831,73.3093923 83.4127424,73.7900552 83.4127424,74.5911602 Z M81.4847645,74.7513812 C81.4847645,75.2320442 81.6454293,75.5524862 81.966759,75.5524862 C82.2880886,75.5524862 82.4487534,75.2320442 82.4487534,74.7513812 C82.4487534,74.4309392 82.2880886,73.9502762 81.966759,73.9502762 C81.4847645,73.9502762 81.4847645,74.2707182 81.4847645,74.7513812 Z M86.465374,75.2320442 L86.465374,76.0331492 L85.6620499,76.0331492 L85.6620499,75.7127072 C85.5013851,75.8729281 85.3407202,76.1933702 84.8587257,76.1933702 C84.2160665,76.1933702 83.8947368,75.8729281 83.8947368,75.0718232 L83.8947368,73.4696132 L84.8587257,73.4696132 L84.8587257,74.9116022 C84.8587257,75.2320442 85.0193905,75.5524861 85.3407202,75.5524862 C85.501385,75.5524862 85.6620499,75.3922652 85.6620499,75.2320442 L85.6620499,73.4696132 L86.6260388,73.4696132 L86.6260388,75.2320442 L86.465374,75.2320442 Z M89.8393352,72.1878453 L89.8393352,76.0331492 L89.0360111,76.0331492 L89.0360111,75.7127072 C88.8753463,76.0331492 88.5540166,76.1933702 88.232687,76.1933702 C87.5900277,76.1933702 87.1080332,75.5524862 87.1080332,74.7513812 C87.1080332,73.7900552 87.7506925,73.3093923 88.3933518,73.3093923 C88.7146815,73.3093923 89.0360111,73.4696132 89.0360111,73.6298343 L89.0360111,72.1878453 L89.8393352,72.1878453 L89.8393352,72.1878453 Z M89.0360111,74.4309392 C89.0360111,74.1104972 88.8753463,73.9502762 88.5540166,73.9502762 C88.232687,73.9502762 87.9113574,74.2707182 87.9113574,74.7513812 C87.9113574,75.2320442 88.0720222,75.5524862 88.3933518,75.5524862 C88.5540166,75.5524862 88.8753463,75.3922652 88.8753463,75.2320442 L88.8753463,74.4309392 L89.0360111,74.4309392 Z" id="形状" fill="url(#linearGradient-5)" opacity="0.604724702"></path>
                    <path d="M77.3074792,78.7569061 L77.468144,80.038674 C77.468144,80.359116 77.6288088,80.679558 77.6288088,81 C77.6288088,80.679558 77.7894736,80.359116 77.7894737,80.038674 L78.1108033,78.7569061 L78.9141274,78.7569061 L79.2354571,80.038674 C79.3961219,80.359116 79.3961219,80.679558 79.3961219,81 C79.3961219,80.679558 79.5567867,80.359116 79.5567867,80.038674 L79.8781163,78.7569061 L80.8421053,78.7569061 L79.8781163,81.801105 L79.0747922,81.801105 L78.7534626,80.839779 C78.7534626,80.519337 78.5927978,80.1988951 78.5927978,79.8784531 C78.5927978,80.1988951 78.432133,80.519337 78.432133,80.839779 L78.1108033,81.961326 L77.1468144,81.961326 L76.1828255,78.9171271 L77.3074792,78.9171271 L77.3074792,78.7569061 Z M84.2160665,80.359116 C84.2160665,81.480663 83.4127424,81.961326 82.6094183,81.961326 C81.6454294,81.961326 81.0027701,81.320442 81.0027701,80.359116 C81.0027701,79.3977901 81.6454293,78.7569061 82.6094183,78.7569061 C83.5734073,78.7569061 84.2160665,79.39779 84.2160665,80.359116 Z M81.966759,80.359116 C81.966759,80.839779 82.1274238,81.320442 82.6094183,81.320442 C82.930748,81.320442 83.0914128,80.839779 83.0914128,80.359116 C83.0914128,79.8784531 82.930748,79.3977901 82.6094183,79.3977901 C82.1274238,79.3977901 81.966759,79.8784531 81.966759,80.359116 Z M84.6980609,79.718232 L84.6980609,78.7569061 L85.5013851,78.7569061 L85.5013851,79.237569 C85.6620499,78.7569061 85.9833795,78.5966851 86.3047091,78.5966851 L86.465374,78.5966851 L86.465374,79.3977901 L86.1440443,79.3977901 C85.8227147,79.3977901 85.5013851,79.558011 85.5013851,79.8784531 L85.5013851,81.480663 L84.5373961,81.480663 L84.5373961,79.718232 L84.6980609,79.718232 Z M90,77.4751381 L90,81.961326 L89.1966759,81.961326 L89.1966759,81.480663 C89.0360111,81.801105 88.7146814,81.961326 88.232687,81.961326 C87.4293628,81.961326 86.9473684,81.320442 86.9473684,80.359116 C86.9473684,79.3977901 87.5900277,78.7569061 88.232687,78.7569061 C88.5540166,78.7569061 88.8753462,78.917127 89.0360111,79.0773481 L89.0360111,77.4751381 L90,77.4751381 Z M89.0360111,80.038674 L89.0360111,79.8784531 C89.0360111,79.7182321 88.8753463,79.3977901 88.5540166,79.3977901 C88.0720222,79.3977901 87.9113574,79.7182321 87.9113574,80.198895 C87.9113574,80.6795579 88.0720222,81 88.5540166,81 C88.7146814,81 89.0360111,80.839779 89.0360111,80.679558 L89.0360111,80.038674 Z" id="形状" fill="url(#linearGradient-6)" opacity="0.604724702"></path>
                </g>
            </g>
        </g>
    </g>
</svg>