<?xml version="1.0" encoding="UTF-8"?>
<svg width="125px" height="125px" viewBox="0 0 125 125" version="1.1" xmlns="http://www.w3.org/2000/svg" xmlns:xlink="http://www.w3.org/1999/xlink">
    <title>Waterfall Map 瀑布图</title>
    <defs>
        <linearGradient x1="48.5247005%" y1="86.8386573%" x2="69.6982266%" y2="-43.8247114%" id="linearGradient-1">
            <stop stop-color="#5073E5" offset="0%"></stop>
            <stop stop-color="#5E7CE0" offset="100%"></stop>
        </linearGradient>
        <linearGradient x1="48.0358438%" y1="86.8386573%" x2="76.2254496%" y2="-43.8247114%" id="linearGradient-2">
            <stop stop-color="#5073E5" offset="0%"></stop>
            <stop stop-color="#5E7CE0" offset="100%"></stop>
        </linearGradient>
        <linearGradient x1="49.3443113%" y1="86.8386573%" x2="58.7547674%" y2="-43.8247114%" id="linearGradient-3">
            <stop stop-color="#5073E5" offset="0%"></stop>
            <stop stop-color="#5E7CE0" offset="100%"></stop>
        </linearGradient>
        <linearGradient x1="44.0988019%" y1="50.0920966%" x2="128.792906%" y2="49.7654382%" id="linearGradient-4">
            <stop stop-color="#5073E5" offset="0%"></stop>
            <stop stop-color="#5E7CE0" offset="100%"></stop>
        </linearGradient>
    </defs>
    <g id="组件总览" stroke="none" stroke-width="1" fill="none" fill-rule="evenodd">
        <g id="-TinyUI-Vue-组件总览3" transform="translate(-1087.000000, -884.000000)">
            <g id="编组-25备份-10" transform="translate(988.000000, 851.000000)">
                <g id="Waterfall-Map-瀑布图" transform="translate(99.000000, 33.000000)">
                    <g id="编组"></g>
                    <g id="图表-(3)" transform="translate(62.445611, 61.054389) rotate(-360.000000) translate(-62.445611, -61.054389) translate(22.445611, 31.554389)">
                        <path d="M14.3461539,15 L22.6538461,15 C24.5018759,15 26,16.4981241 26,18.3461539 L26,45 L26,45 L11,45 L11,18.3461539 C11,16.4981241 12.4981241,15 14.3461539,15 Z" id="矩形" fill="url(#linearGradient-1)" opacity="0.604724702"></path>
                        <path d="M57.3461539,24 L65.6538461,24 C67.5018759,24 69,25.4981241 69,27.3461539 L69,50 L69,50 L54,50 L54,27.3461539 C54,25.4981241 55.4981241,24 57.3461539,24 Z" id="矩形备份-12" fill="url(#linearGradient-2)"></path>
                        <path d="M36.3461539,0 L44.6538461,0 C46.5018759,1.04611649e-16 48,1.49812413 48,3.3461539 L48,45 L48,45 L33,45 L33,3.3461539 C33,1.49812413 34.4981241,-3.21323612e-15 36.3461539,0 Z" id="矩形备份-11" fill="url(#linearGradient-3)" opacity="0.204287574"></path>
                        <rect id="矩形" fill="url(#linearGradient-4)" x="2.84217094e-14" y="55" width="80" height="4" rx="2"></rect>
                    </g>
                </g>
            </g>
        </g>
    </g>
</svg>