<?xml version="1.0" encoding="UTF-8"?>
<svg width="125px" height="125px" viewBox="0 0 125 125" version="1.1" xmlns="http://www.w3.org/2000/svg" xmlns:xlink="http://www.w3.org/1999/xlink">
    <title>Baidu Map 百度地图</title>
    <defs>
        <linearGradient x1="45.3865015%" y1="86.8386573%" x2="111.599517%" y2="-43.8247114%" id="linearGradient-1">
            <stop stop-color="#5073E5" offset="0%"></stop>
            <stop stop-color="#5E7CE0" offset="100%"></stop>
        </linearGradient>
    </defs>
    <g id="组件总览" stroke="none" stroke-width="1" fill="none" fill-rule="evenodd">
        <g id="-TinyUI-Vue-组件总览3" transform="translate(-1870.000000, -1709.000000)">
            <g id="编组-17备份-9" transform="translate(1771.000000, 1676.000000)">
                <g id="Baidu-Map-百度地图" transform="translate(99.000000, 33.000000)">
                    <g id="编组"></g>
                    <g id="百度地图-(1)" transform="translate(33.000000, 34.000000)">
                        <path d="M38.3391692,27.3581038 C37.5282992,26.0283985 37.0284701,24.3136372 36.0764145,23.6385808 C32.2898301,20.9533924 31.3604941,17.2387028 31.3604941,14.6856257 C31.3604941,9.35015632 36.364195,5.01894744 42.5265907,5.01894744 C48.6889864,5.01894744 53.6921463,9.35015632 53.6921463,14.6856257 C53.6921463,16.8332393 52.9483529,19.5152055 51.6582095,21.9517455 C52.8455742,21.3529484 53.6921463,20.7165588 53.6921463,22.1123197 L53.6921463,51.6875217 C53.6909526,53.8100771 51.9580744,55.5304523 49.8200932,55.5316374 L12.9008949,55.5316374 C10.763125,55.5301561 9.03057622,53.8098676 9.02938279,51.6875217 L9.02938279,22.1123197 C9.02997981,19.9897285 10.7628777,18.2690933 12.9008949,18.268204 L29.9280833,18.268204 L34.9945333,24.1756185 L38.3397102,27.3581038 L38.3391692,27.3581038 Z M43.2682203,28.6405497 L41.4858209,30.3515518 L39.9701052,28.9096056 C40.9221607,29.2377356 41.7995665,28.6486053 42.9420331,28.6486053 C43.051844,28.6486053 43.1605731,28.6459201 43.2687612,28.6405497 L43.2682203,28.6405497 Z" id="形状" fill="url(#linearGradient-1)" opacity="0.204287574"></path>
                        <path d="M56.0836449,13.792532 C56.3162493,14.1743658 56.4720402,14.5846626 56.6256674,14.9815334 C56.8442074,15.7140528 57.0000009,16.4777204 57.0000009,17.2252768 L57.0000009,50.28102 C57.0000009,52.3937263 56.0517294,54.3447842 54.5592741,55.7550451 C53.0987344,57.1346949 51.0604701,57.9999318 48.7917651,57.9999318 L8.18010599,57.9999318 C6.02990286,58.0085148 3.95662988,57.2061505 2.37959956,55.7550451 C0.862257406,54.3326407 0.00162574678,52.3528443 8.52907291e-07,50.28102 L8.52907291e-07,17.2252768 C-0.000989787857,15.1620073 0.861021233,13.1909639 2.3801405,11.782937 C3.94645125,10.3117476 6.0239112,9.49691585 8.18010599,9.5080454 L27.9568956,9.5080454 C28.6395627,7.39533917 29.885349,5.53181843 31.4854514,4.0205944 L31.5628059,3.96259433 C37.2859578,-1.34333793 46.177399,-1.31756013 51.8697173,4.0205944 C54.4824606,6.48667142 56.0841858,9.86141619 56.0841858,13.6314207 L56.0841858,13.792532 L56.0836449,13.792532 Z M27.2715238,13.6448461 L8.18010599,13.6448461 C7.18518279,13.6443374 6.22789219,14.0223768 5.50515455,14.7011998 C4.79239974,15.349802 4.38622461,16.2653814 4.385269,17.2252768 L4.385269,50.28102 C4.3766385,51.2387199 4.7848207,52.1535378 5.50515455,52.7905971 C6.17375717,53.4511535 7.15285972,53.846956 8.18010599,53.846956 L48.792306,53.846956 C49.7964544,53.848662 50.7636389,53.4709924 51.4975502,52.7905971 C52.2064108,52.1452948 52.6122077,51.2358227 52.6172973,50.28102 L52.6172973,22.5081165 C51.0974201,24.1742812 49.1994901,25.4568873 47.0807699,26.249658 L42.696987,31.310164 C42.2315101,31.8573985 41.4137223,31.9418121 40.8448062,31.5013495 C40.7773169,31.448386 40.7199668,31.3838097 40.6754918,31.3107011 L40.6441173,31.295664 L36.2597934,26.249658 C33.6859806,25.2765162 31.4507398,23.5848573 29.8236817,21.3787262 C28.1658116,19.1360326 27.2719281,16.4266965 27.2720648,13.6448461 L27.2715238,13.6448461 Z M32.7766767,29.3156061 C33.2970466,28.8171838 34.1214701,28.8171838 34.64184,29.3156061 C35.1384235,29.770477 35.1384235,30.5626076 34.64184,31.0464785 L31.0343069,34.4657974 L38.5436448,41.5520096 L46.9260608,33.6435928 C47.4636352,33.1883362 48.2547317,33.1883362 48.792306,33.6435928 C49.0443287,33.8680018 49.1883172,34.188237 49.1883172,34.5243345 C49.1883172,34.8604321 49.0443287,35.1806673 48.792306,35.4050763 L40.3947436,43.3124191 L43.2244041,45.9680704 C43.7209876,46.4514043 43.7209876,47.273072 43.2244041,47.7284799 C42.6986193,48.2134047 41.8850256,48.2134047 41.3592408,47.7284799 L37.6894995,44.266198 L37.6570431,44.251161 L37.6570431,44.222698 L37.6262095,44.2076609 L37.5948349,44.1791979 L37.5488549,44.1646979 L37.5488549,44.1330127 L29.1686026,36.2256699 L14.0563441,50.4716684 C13.5425272,50.9562659 12.7363723,50.9562659 12.2225554,50.4716684 C11.6767463,49.9732974 11.6767463,49.1951299 12.2225554,48.7117959 L27.3045212,34.4657974 L21.0680166,28.6110127 L10.977851,38.1471907 C10.4801856,38.6036728 9.64010476,38.6036728 9.1121467,38.1471907 C8.61448132,37.6343197 8.61448132,36.8566892 9.1121467,36.3867812 L19.2033942,26.8495291 L12.8121806,20.805707 C12.3145153,20.3223731 12.3145153,19.5291685 12.8121806,19.0753716 C13.3423025,18.5603525 14.1791376,18.5603525 14.6621976,19.0753716 L21.9546183,25.9258243 L22.0162856,25.9558984 L22.0476601,25.9843614 L22.0476601,26.0144355 L29.1686026,32.7053879 L32.7766767,29.3156061 Z M50.0348467,5.78100391 C47.783243,3.66556101 44.799504,2.48905824 41.6994924,2.49431565 C38.4662903,2.49431565 35.5289826,3.7284459 33.4139047,5.72300384 L33.3360093,5.78100391 C31.206326,7.80671003 29.9149208,10.5654726 29.9149208,13.6314207 C29.9017424,15.911964 30.6327933,18.1354544 31.998804,19.9690023 C33.320322,21.8040601 35.2650036,23.2406359 37.5196441,24.0628406 C37.7452164,24.1288962 37.9453644,24.2620815 38.0935822,24.4446744 L41.6994924,28.5814756 L45.2615865,24.4446744 C45.4114645,24.2639971 45.6116595,24.1311853 45.8371474,24.0628406 C48.0561139,23.2689385 49.9912901,21.8453954 51.4023446,19.9690023 C52.7436013,18.1238497 53.4668337,15.906873 53.4698197,13.6314207 C53.4698197,10.5654726 52.1499246,7.80671003 50.0348467,5.78100391 Z M46.5495662,15.9643124 C46.5495662,15.9643124 44.7347103,14.5706996 43.6771714,13.0680682 C42.2420559,10.8490285 40.2032506,11.7523259 39.5227473,12.8774198 C38.842244,14.0137915 37.7847051,14.7248294 37.6354054,14.9149407 C37.4839421,15.1023669 35.4473006,16.1941645 35.9011498,18.1855002 C36.3566218,20.177373 37.9432007,20.1408544 37.9432007,20.1408544 C37.9432007,20.1408544 39.1100096,20.2552434 40.4715572,19.9539653 C41.8331048,19.6521501 43.0004547,20.0264654 43.0004547,20.0264654 C43.0004547,20.0264654 46.1649574,21.0822814 47.0412812,19.0549642 C47.9067862,17.0212025 46.5490252,15.9712939 46.5490252,15.9712939 L46.5495662,15.9643124 L46.5495662,15.9643124 Z M48.3119508,12.0203077 C48.3119508,11.5702701 47.9392427,10.2142499 46.5430749,10.2142499 C45.1485299,10.2142499 44.9570369,11.4934737 44.9570369,12.3989192 C44.9570369,13.2619388 45.0284411,14.462755 46.7713518,14.4262365 C48.5066894,14.3843475 48.3168192,12.4714193 48.3168192,12.0186965 L48.3119508,12.0203077 Z M36.9532793,13.4482908 C38.5393172,13.108883 38.3207772,11.2249549 38.2758792,10.813584 C38.1979837,10.1798795 37.4455353,9.07089673 36.4258622,9.16004498 C35.142751,9.27228586 34.9555855,11.1153992 34.9555855,11.1153992 C34.7814027,11.9660669 35.370487,13.7860875 36.9532793,13.4477538 L36.9532793,13.4482908 L36.9532793,13.4482908 Z M43.6723029,10.4338984 C44.8461441,10.5907134 45.594265,9.34800817 45.7462693,8.40658112 C45.8982736,7.47106148 45.138793,6.37926388 44.3116948,6.19183773 C43.4791871,6.00118936 42.4519409,7.32283909 42.3486212,8.18317345 C42.2393512,9.23952656 42.5006255,10.2894352 43.6674345,10.4381947 L43.6728439,10.4338984 L43.6723029,10.4338984 Z M39.8981601,10.285676 C40.7734021,10.285676 41.4804115,9.28410069 41.4804115,8.04676588 C41.4804115,6.81587552 40.7755658,5.81430025 39.9008648,5.81430025 C39.0250819,5.81430025 38.3132041,6.81050514 38.3132041,8.04730291 C38.3132041,9.28463773 39.024541,10.286213 39.8997829,10.286213 L39.8981601,10.285676 L39.8981601,10.285676 Z" id="形状" fill="#5073E5"></path>
                    </g>
                </g>
            </g>
        </g>
    </g>
</svg>