<?xml version="1.0" encoding="UTF-8"?>
<svg width="125px" height="125px" viewBox="0 0 125 125" version="1.1" xmlns="http://www.w3.org/2000/svg" xmlns:xlink="http://www.w3.org/1999/xlink">
    <title>Chart-Docs 图表文档</title>
    <defs>
        <linearGradient x1="46.6204972%" y1="86.8386573%" x2="95.1231838%" y2="-43.8247114%" id="linearGradient-1">
            <stop stop-color="#5073E5" offset="0%"></stop>
            <stop stop-color="#5E7CE0" offset="100%"></stop>
        </linearGradient>
        <linearGradient x1="44.0988019%" y1="86.8386573%" x2="128.792906%" y2="-43.8247114%" id="linearGradient-2">
            <stop stop-color="#5073E5" offset="0%"></stop>
            <stop stop-color="#5E7CE0" offset="100%"></stop>
        </linearGradient>
        <linearGradient x1="49.0892284%" y1="86.8386573%" x2="62.1606399%" y2="-43.8247114%" id="linearGradient-3">
            <stop stop-color="#5073E5" offset="0%"></stop>
            <stop stop-color="#5E7CE0" offset="100%"></stop>
        </linearGradient>
        <linearGradient x1="46.2232332%" y1="86.8386573%" x2="100.42746%" y2="-43.8247114%" id="linearGradient-4">
            <stop stop-color="#5073E5" offset="0%"></stop>
            <stop stop-color="#5E7CE0" offset="100%"></stop>
        </linearGradient>
        <linearGradient x1="49.4821325%" y1="86.8386573%" x2="56.9145764%" y2="-43.8247114%" id="linearGradient-5">
            <stop stop-color="#5073E5" offset="0%"></stop>
            <stop stop-color="#5E7CE0" offset="100%"></stop>
        </linearGradient>
    </defs>
    <g id="组件总览" stroke="none" stroke-width="1" fill="none" fill-rule="evenodd">
        <g id="-TinyUI-Vue-组件总览3" transform="translate(-696.000000, -334.000000)">
            <g id="编组-17" transform="translate(598.000000, 301.000000)">
                <g id="Chart-基本用法" transform="translate(98.000000, 33.000000)">
                    <g id="编组"></g>
                    <g id="说明" transform="translate(40.000000, 45.000000)">
                        <rect id="矩形备份-6" fill="url(#linearGradient-1)" opacity="0.204287574" x="0" y="0" width="28" height="37" rx="4"></rect>
                        <path d="M11.7752734,20 C8.82473155,20.4956338 6.49506187,22.8260384 6,25.7772097 L11.7752734,25.7772097 L11.7752734,20 Z M14.1268173,20.0002691 L14.1268173,28.1257787 L11.7752734,28.1257787 L6.0000269,28.1257787 C6.55933919,31.460933 9.45886815,34 12.9499153,34 C16.8431734,34 20,30.8460328 20,26.9509022 C20,23.4601526 17.4599021,20.5607029 14.1268173,20.0002691 Z" id="形状" fill="url(#linearGradient-2)"></path>
                        <rect id="矩形" fill="#5073E5" x="6" y="12" width="22" height="4" rx="2"></rect>
                        <rect id="矩形备份-4" fill="#5073E5" x="6" y="3" width="15" height="4" rx="2"></rect>
                    </g>
                    <rect id="矩形" fill="url(#linearGradient-3)" opacity="0.204287574" x="75" y="53" width="11" height="28" rx="2"></rect>
                    <rect id="矩形" stroke="url(#linearGradient-4)" stroke-width="4" x="39" y="40" width="36" height="45" rx="3"></rect>
                    <path d="M77.894627,53 L79.894627,53 L83,53 C84.6568542,53 86,54.1456243 86,55.5588235 L86,79.4411765 C86,80.8543757 84.6568542,82 83,82 L77.4091284,82 L79.4091284,82" id="路径" stroke="url(#linearGradient-5)" stroke-width="4" stroke-linecap="round" stroke-linejoin="round"></path>
                </g>
            </g>
        </g>
    </g>
</svg>