<?xml version="1.0" encoding="UTF-8"?>
<svg width="125px" height="125px" viewBox="0 0 125 125" version="1.1" xmlns="http://www.w3.org/2000/svg" xmlns:xlink="http://www.w3.org/1999/xlink">
    <title>Collapse 折叠面板</title>
    <defs>
        <linearGradient x1="44.0988019%" y1="60.1784653%" x2="128.792906%" y2="24.0763741%" id="linearGradient-1">
            <stop stop-color="#5073E5" offset="0%"></stop>
            <stop stop-color="#5E7CE0" offset="100%"></stop>
        </linearGradient>
        <linearGradient x1="44.0988019%" y1="52.9139954%" x2="128.792906%" y2="42.5783187%" id="linearGradient-2">
            <stop stop-color="#5073E5" offset="0%"></stop>
            <stop stop-color="#5E7CE0" offset="100%"></stop>
        </linearGradient>
        <linearGradient x1="44.0988019%" y1="52.9139954%" x2="128.792906%" y2="42.5783187%" id="linearGradient-3">
            <stop stop-color="#5073E5" offset="0%"></stop>
            <stop stop-color="#5E7CE0" offset="100%"></stop>
        </linearGradient>
        <linearGradient x1="50%" y1="0%" x2="50%" y2="100%" id="linearGradient-4">
            <stop stop-color="#FFCC00" offset="0%"></stop>
            <stop stop-color="#FF9D00" offset="100%"></stop>
        </linearGradient>
        <polygon id="path-5" points="68 81 80 81 74 88"></polygon>
        <filter x="-29.2%" y="-35.7%" width="158.3%" height="200.0%" filterUnits="objectBoundingBox" id="filter-6">
            <feOffset dx="0" dy="1" in="SourceAlpha" result="shadowOffsetOuter1"></feOffset>
            <feMorphology radius="4.0839988" operator="erode" in="SourceAlpha" result="shadowInner"></feMorphology>
            <feOffset dx="0" dy="1" in="shadowInner" result="shadowInner"></feOffset>
            <feComposite in="shadowOffsetOuter1" in2="shadowInner" operator="out" result="shadowOffsetOuter1"></feComposite>
            <feGaussianBlur stdDeviation="1" in="shadowOffsetOuter1" result="shadowBlurOuter1"></feGaussianBlur>
            <feColorMatrix values="0 0 0 0 0.661752894   0 0 0 0 0.324547702   0 0 0 0 0.00489962574  0 0 0 0.5 0" type="matrix" in="shadowBlurOuter1"></feColorMatrix>
        </filter>
        <filter x="-45.8%" y="-64.3%" width="191.7%" height="257.1%" filterUnits="objectBoundingBox" id="filter-7">
            <feGaussianBlur stdDeviation="1.5" in="SourceAlpha" result="shadowBlurInner1"></feGaussianBlur>
            <feOffset dx="0" dy="-4" in="shadowBlurInner1" result="shadowOffsetInner1"></feOffset>
            <feComposite in="shadowOffsetInner1" in2="SourceAlpha" operator="arithmetic" k2="-1" k3="1" result="shadowInnerInner1"></feComposite>
            <feColorMatrix values="0 0 0 0 0.841553619   0 0 0 0 0.341832308   0 0 0 0 0  0 0 0 0.5 0" type="matrix" in="shadowInnerInner1"></feColorMatrix>
        </filter>
        <linearGradient x1="44.0988019%" y1="50.2668259%" x2="128.792906%" y2="49.3204186%" id="linearGradient-8">
            <stop stop-color="#5073E5" offset="0%"></stop>
            <stop stop-color="#5E7CE0" offset="100%"></stop>
        </linearGradient>
        <path d="M119.095831,64.1170423 C119.648116,64.1170423 120.095831,64.5647576 120.095831,65.1170423 C120.095831,65.3999726 119.97598,65.6696616 119.765982,65.8592675 L113.144185,71.8380483 C112.734265,72.2081623 112.101923,72.1758934 111.731809,71.7659738 C111.565885,71.5822046 111.474034,71.3434154 111.474034,71.0958232 L111.473958,68.1400423 L75.8829577,68.1403713 C74.7783882,68.1403713 73.8829577,67.2449408 73.8829577,66.1403713 C73.8829577,65.0358018 74.7783882,64.1403713 75.8829577,64.1403713 L111.473958,64.1400423 L111.474034,64.1170423 L119.095831,64.1170423 Z" id="path-9"></path>
        <filter x="-8.7%" y="-25.1%" width="117.3%" height="200.3%" filterUnits="objectBoundingBox" id="filter-10">
            <feOffset dx="0" dy="2" in="SourceAlpha" result="shadowOffsetOuter1"></feOffset>
            <feGaussianBlur stdDeviation="1" in="shadowOffsetOuter1" result="shadowBlurOuter1"></feGaussianBlur>
            <feColorMatrix values="0 0 0 0 0.368627451   0 0 0 0 0.48627451   0 0 0 0 0.878431373  0 0 0 0.349865467 0" type="matrix" in="shadowBlurOuter1"></feColorMatrix>
        </filter>
    </defs>
    <g id="组件总览" stroke="none" stroke-width="1" fill="none" fill-rule="evenodd">
        <g id="-TinyUI-Ng-组件总览-2" transform="translate(-1481.000000, -332.000000)">
            <g id="Collapse-折叠面板" transform="translate(1481.000000, 332.000000)">
                <g id="编组"></g>
                <path d="M26,30 L100,30 C101.104569,30 102,30.8954305 102,32 L102,69 C102,70.1045695 101.104569,71 100,71 L26,71 C24.8954305,71 24,70.1045695 24,69 L24,32 C24,30.8954305 24.8954305,30 26,30 Z" id="矩形" fill="url(#linearGradient-1)" opacity="0.303770519"></path>
                <rect id="矩形-2" stroke="url(#linearGradient-3)" fill="url(#linearGradient-2)" x="24" y="75" width="64" height="18" rx="4"></rect>
                <g id="形状结合">
                    <use fill="black" fill-opacity="1" filter="url(#filter-6)" xlink:href="#path-5"></use>
                    <use fill="black" fill-opacity="1" filter="url(#filter-7)" xlink:href="#path-5"></use>
                    <path stroke="url(#linearGradient-4)" stroke-width="4.0839988" d="M75.5602428,83.0419994 L74,84.8622826 L72.4397572,83.0419994 L75.5602428,83.0419994 Z" stroke-linejoin="square"></path>
                </g>
                <path d="M34,38 L86,38 C87.1045695,38 88,38.8954305 88,40 C88,41.1045695 87.1045695,42 86,42 L34,42 C32.8954305,42 32,41.1045695 32,40 C32,38.8954305 32.8954305,38 34,38 Z" id="形状结合备份" fill="#5073E5"></path>
                <path d="M34,49 L67,49 C68.1045695,49 69,49.8954305 69,51 C69,52.1045695 68.1045695,53 67,53 L34,53 C32.8954305,53 32,52.1045695 32,51 C32,49.8954305 32.8954305,49 34,49 Z" id="形状结合备份-35" fill="#5073E5"></path>
                <path d="M34,60 L77,60 C78.1045695,60 79,60.8954305 79,62 C79,63.1045695 78.1045695,64 77,64 L34,64 C32.8954305,64 32,63.1045695 32,62 C32,60.8954305 32.8954305,60 34,60 Z" id="形状结合备份-36" fill="url(#linearGradient-8)" opacity="0.303770519"></path>
                <g id="形状结合备份-11" transform="translate(96.989394, 68.106437) scale(1, -1) rotate(-90.000000) translate(-96.989394, -68.106437) ">
                    <use fill="black" fill-opacity="1" filter="url(#filter-10)" xlink:href="#path-9"></use>
                    <use fill="#5073E5" fill-rule="evenodd" xlink:href="#path-9"></use>
                </g>
            </g>
        </g>
    </g>
</svg>