<?xml version="1.0" encoding="UTF-8"?>
<svg width="125px" height="125px" viewBox="0 0 125 125" version="1.1" xmlns="http://www.w3.org/2000/svg" xmlns:xlink="http://www.w3.org/1999/xlink">
    <title>色彩 color</title>
    <defs>
        <linearGradient x1="50%" y1="45.9685271%" x2="50%" y2="100%" id="linearGradient-1">
            <stop stop-color="#ECF3FB" offset="0%"></stop>
            <stop stop-color="#FFFFFF" offset="100%"></stop>
        </linearGradient>
        <linearGradient x1="50.3956523%" y1="35.9331967%" x2="50%" y2="64.0668033%" id="linearGradient-2">
            <stop stop-color="#E3EFFD" stop-opacity="0.00575352382" offset="0%"></stop>
            <stop stop-color="#E5F0FD" offset="34.0601199%"></stop>
            <stop stop-color="#F0F6FE" offset="100%"></stop>
        </linearGradient>
        <linearGradient x1="33.3333333%" y1="34.495573%" x2="96.9740837%" y2="65.4421891%" id="linearGradient-3">
            <stop stop-color="#D5E6F9" offset="0%"></stop>
            <stop stop-color="#F7FBFF" stop-opacity="0" offset="100%"></stop>
        </linearGradient>
        <linearGradient x1="90.9912104%" y1="29.4309598%" x2="33.3333333%" y2="67.7472684%" id="linearGradient-4">
            <stop stop-color="#D5E6F9" offset="0%"></stop>
            <stop stop-color="#E7F0F9" stop-opacity="0" offset="100%"></stop>
        </linearGradient>
        <linearGradient x1="-5.8027489%" y1="27.0499439%" x2="103.630422%" y2="71.1332543%" id="linearGradient-5">
            <stop stop-color="#CEE6FE" offset="0%"></stop>
            <stop stop-color="#8AB5F2" offset="100%"></stop>
        </linearGradient>
        <linearGradient x1="-5.8027489%" y1="27.0499439%" x2="103.630422%" y2="71.1332543%" id="linearGradient-6">
            <stop stop-color="#BFD6F9" offset="0%"></stop>
            <stop stop-color="#F3F6FE" offset="100%"></stop>
        </linearGradient>
        <linearGradient x1="89.8473889%" y1="61.7348066%" x2="0%" y2="61.7348066%" id="linearGradient-7">
            <stop stop-color="#CAD9F3" offset="0%"></stop>
            <stop stop-color="#D5E3F7" offset="100%"></stop>
        </linearGradient>
        <filter x="-18.5%" y="-60.0%" width="136.9%" height="220.0%" filterUnits="objectBoundingBox" id="filter-8">
            <feGaussianBlur stdDeviation="4" in="SourceGraphic"></feGaussianBlur>
        </filter>
        <linearGradient x1="44.0988019%" y1="86.8386573%" x2="128.792906%" y2="-43.8247114%" id="linearGradient-9">
            <stop stop-color="#5073E5" offset="0%"></stop>
            <stop stop-color="#5E7CE0" offset="100%"></stop>
        </linearGradient>
        <linearGradient x1="44.0988019%" y1="83.8327252%" x2="128.792906%" y2="-36.1688756%" id="linearGradient-10">
            <stop stop-color="#5073E5" offset="0%"></stop>
            <stop stop-color="#5E7CE0" offset="100%"></stop>
        </linearGradient>
    </defs>
    <g id="页面一" stroke="none" stroke-width="1" fill="none" fill-rule="evenodd">
        <g id="-TinyUI-Vue-组件总览" transform="translate(-696.000000, -334.000000)">
            <g id="编组-17" transform="translate(598.000000, 301.000000)">
                <g id="色彩-color" transform="translate(98.000000, 33.000000)">
                    <g id="编组">
                        <g transform="translate(9.000000, 1.000000)" id="多边形">
                            <polygon fill="url(#linearGradient-1)" opacity="0.54620216" points="53.2605623 0 106.521125 30.75 53.2605623 62 0 30.75"></polygon>
                            <polygon fill="url(#linearGradient-2)" points="53.2605623 61.5 106.521125 86.75 53.2605623 118 0 86.75"></polygon>
                            <polygon fill="url(#linearGradient-3)" opacity="0.600606283" points="53.2605623 62 53.2605623 123 7.39138783e-15 92.25 0 30.75"></polygon>
                            <polygon fill="url(#linearGradient-4)" opacity="0.791265578" points="53.2605623 62 106.521125 30.75 106.521125 92.25 53.2605623 123"></polygon>
                            <polygon fill="url(#linearGradient-5)" points="53.2605623 118.007802 53.2605623 123 7.39138783e-15 92.25 0 86.9161706"></polygon>
                            <polygon fill="url(#linearGradient-6)" transform="translate(79.630281, 104.958085) scale(-1, 1) translate(-79.630281, -104.958085) " points="106.260562 118.007802 106.260562 123 53 92.25 53 86.9161706"></polygon>
                        </g>
                        <ellipse id="椭圆形" fill="url(#linearGradient-7)" filter="url(#filter-8)" cx="62.5" cy="90" rx="32.5" ry="10"></ellipse>
                    </g>
                    <g id="编组" transform="translate(29.000000, 35.000000)">
                        <path d="M51.9693055,23.5601786 C50.7389468,10.3454464 39.5310758,0 25.9965501,0 C11.6390769,0 0,11.6408036 0,26 C0,40.3591964 11.6390769,52 25.9965501,52 C28.3504816,52 30.2581179,50.0917857 30.2581179,47.7378571 C30.2581179,45.9921429 29.204188,44.4878571 27.7010611,43.8314732 C26.680792,43.1785714 25.9965501,42.0422321 25.9965501,40.7474554 C25.9965501,38.7312946 27.6459271,37.0819196 29.66151,37.0819196 L40.2524606,37.0819196 L40.2524606,37.0720536 C46.4663523,36.9728125 51.5351978,32.1279911 51.9693055,26 C51.9693055,25.8096429 51.973368,25.6216071 51.9693055,25.4318304 C51.9716269,25.3366518 51.9693055,25.2432143 51.9693055,25.1474554 C51.9693055,24.6083036 52.0383681,24.0807589 51.9693055,23.5601786 Z M10.4002926,26.4727273 C7.78953884,26.4727273 5.67272727,24.3563087 5.67272727,21.7454545 C5.67272727,19.1346004 7.78953884,17.0181818 10.4002926,17.0181818 C13.0110464,17.0181818 15.1272727,19.1346004 15.1272727,21.7454545 C15.1272727,24.3563087 13.0110464,26.4727273 10.4002926,26.4727273 Z M18.9090909,15.1272727 C16.2984987,15.1272727 14.1818182,13.0108542 14.1818182,10.4 C14.1818182,7.78914582 16.2979135,5.67272727 18.9090909,5.67272727 C21.5202683,5.67272727 23.6363636,7.78914582 23.6363636,10.4 C23.6363636,13.0108542 21.5196831,15.1272727 18.9090909,15.1272727 L18.9090909,15.1272727 Z M33.0909091,15.1272727 C30.4803169,15.1272727 28.3636364,13.0108542 28.3636364,10.4 C28.3636364,7.78914582 30.4797317,5.67272727 33.0909091,5.67272727 C35.7020865,5.67272727 37.8181818,7.78914582 37.8181818,10.4 C37.8181818,13.0108542 35.7015013,15.1272727 33.0909091,15.1272727 Z M41.6,26.4727273 C38.9894078,26.4727273 36.8727273,24.3563087 36.8727273,21.7454545 C36.8727273,19.1346004 38.9888226,17.0181818 41.6,17.0181818 C44.2111774,17.0181818 46.3272727,19.1346004 46.3272727,21.7454545 C46.3272727,24.3563087 44.2105922,26.4727273 41.6,26.4727273 Z" id="形状" fill="url(#linearGradient-9)" opacity="0.303770519"></path>
                        <path d="M30.4006976,36.5068327 C27.7153553,39.2104035 26.6312268,43.1377581 27.5444604,46.853813 C27.5310483,46.9658349 27.5611589,47.0787452 27.6284674,47.1688265 C28.0620457,49.5575544 27.3036011,52.0087213 25.600299,53.7235295 C24.6164733,54.724357 23.3655794,55.4147263 22,55.7105375 C29.8717904,59.8154159 39.4702927,58.3008307 45.7259704,51.9667237 C49.9546136,47.694247 49.9519271,40.7699058 45.7199699,36.5007747 C41.4880127,32.2316437 34.6293409,32.234356 30.4006976,36.5068327 L30.4006976,36.5068327 Z M69.5599497,12.4325353 C68.9951004,11.9103494 68.1465764,11.8549192 67.5197803,12.2992604 L45.7019684,29.043437 C45.4372917,29.2572997 45.2745561,29.5742014 45.2539787,29.9158258 C45.2334013,30.2574503 45.3569018,30.5919249 45.5939594,30.8365905 L51.3424368,36.6401076 C51.5835228,36.9180075 51.9370198,37.0696822 52.3025165,37.0520483 C52.6630345,37.0186783 52.9893655,36.8227858 53.1905903,36.5189486 L69.7039616,14.5043546 C70.1473683,13.8662831 70.0872805,13.0018326 69.5599497,12.4325353 Z" id="形状" fill="url(#linearGradient-10)"></path>
                    </g>
                </g>
            </g>
        </g>
    </g>
</svg>