<?xml version="1.0" encoding="UTF-8"?>
<svg width="125px" height="125px" viewBox="0 0 125 125" version="1.1" xmlns="http://www.w3.org/2000/svg" xmlns:xlink="http://www.w3.org/1999/xlink">
    <title>Company 公司</title>
    <defs>
        <linearGradient x1="48.8951548%" y1="86.8386573%" x2="64.7519132%" y2="-43.8247114%" id="linearGradient-1">
            <stop stop-color="#5073E5" offset="0%"></stop>
            <stop stop-color="#5E7CE0" offset="100%"></stop>
        </linearGradient>
        <linearGradient x1="48.8951548%" y1="86.8386573%" x2="64.7519132%" y2="-43.8247114%" id="linearGradient-2">
            <stop stop-color="#5073E5" offset="0%"></stop>
            <stop stop-color="#5E7CE0" offset="100%"></stop>
        </linearGradient>
        <linearGradient x1="48.0407382%" y1="86.8386573%" x2="76.1601004%" y2="-43.8247114%" id="linearGradient-3">
            <stop stop-color="#5073E5" offset="0%"></stop>
            <stop stop-color="#5E7CE0" offset="100%"></stop>
        </linearGradient>
        <linearGradient x1="48.4516567%" y1="86.8386573%" x2="70.673509%" y2="-43.8247114%" id="linearGradient-4">
            <stop stop-color="#5073E5" offset="0%"></stop>
            <stop stop-color="#5E7CE0" offset="100%"></stop>
        </linearGradient>
        <linearGradient x1="44.0988019%" y1="73.1719973%" x2="128.792906%" y2="-9.01697069%" id="linearGradient-5">
            <stop stop-color="#5073E5" offset="0%"></stop>
            <stop stop-color="#5E7CE0" offset="100%"></stop>
        </linearGradient>
        <linearGradient x1="44.0988019%" y1="73.1719973%" x2="128.792906%" y2="-9.01697069%" id="linearGradient-6">
            <stop stop-color="#5073E5" offset="0%"></stop>
            <stop stop-color="#5E7CE0" offset="100%"></stop>
        </linearGradient>
    </defs>
    <g id="组件总览" stroke="none" stroke-width="1" fill="none" fill-rule="evenodd">
        <g id="-TinyUI-Vue-组件总览2" transform="translate(-1869.000000, -334.000000)">
            <g id="编组-25备份-3" transform="translate(1771.000000, 301.000000)">
                <g id="Company-公司" transform="translate(98.000000, 33.000000)">
                    <g id="编组"></g>
                    <g id="编组-25" transform="translate(34.000000, 44.000000)">
                        <rect id="矩形-2" stroke="url(#linearGradient-2)" stroke-width="0.935483871" fill="url(#linearGradient-1)" x="11.2258065" y="1.84" width="18.7096774" height="43.24" rx="3.74193548"></rect>
                        <rect id="矩形-2备份-2" fill="url(#linearGradient-3)" opacity="0.303770519" x="31.8064516" y="14.72" width="15.9032258" height="27.6"></rect>
                        <path d="M41.6874999,35.3846154 L38.0625,35.3846154 C36.975,35.3846154 36.2499999,34.6769231 36.2499999,33.6153846 C36.2499999,32.553846 36.9749999,31.8461538 38.0625,31.8461538 L41.6874999,31.8461538 C42.7749999,31.8461538 43.5,32.5538461 43.5,33.6153846 C43.5,34.676923 42.775,35.3846154 41.6874999,35.3846154 Z M41.6874999,24.7692308 L38.0625,24.7692308 C36.975,24.7692308 36.2499999,24.0615385 36.2499999,23 C36.2499999,21.9384614 36.9749999,21.2307692 38.0625,21.2307692 L41.6874999,21.2307692 C42.7749999,21.2307692 43.5,21.9384615 43.5,23 C43.5,24.0615384 42.775,24.7692308 41.6874999,24.7692308 Z" id="形状" fill="url(#linearGradient-4)" opacity="0.604724702"></path>
                        <path d="M32.625,42.4615384 L56.1875,42.4615384 C57.275,42.4615384 58,43.1692307 58,44.2307692 C58,45.2923076 57.275,46 56.1875,46 L1.81249997,46 C0.724999972,46 0,45.2923077 0,44.2307692 C0,43.1692306 0.724999972,42.4615384 1.81249997,42.4615384 L7.24999997,42.4615384 L7.24999997,9.19999997 C7.24999997,6.01538458 7.6125,4.59999994 8.33749997,3.53846156 C8.7,2.4769231 9.7875,1.41538464 10.875,1.06153846 C11.9625,0.353846181 13.4125,0 16.6749999,0 L23.5625,0 C26.825,0 27.9125,0.353846181 29,1.06153846 C30.0875,1.76923074 31.175,2.4769231 31.8999999,3.89230766 C32.6249999,5.30769222 32.6249999,6.01538458 32.625,9.19999997 L32.625,11.6769231 C33.7125,10.9692308 35.1625,10.6153846 38.0625,10.6153846 L41.6874999,10.6153846 C44.5874999,10.6153846 46.0374999,10.9692308 47.1249999,11.6769231 C48.2124999,12.3846153 49.2999999,13.0923077 50.025,14.5076923 C50.75,15.5692307 51.1125,16.9846154 51.1125,19.8153846 L51.1125,37.5076923 C51.1125,38.5692308 50.3875,39.2769231 49.2999999,39.2769231 C48.2124999,39.2769231 47.4875,38.5692308 47.4875,37.5076923 L47.4875,19.8153846 C47.4875,17.6923077 47.4875,16.9846154 47.1249999,16.2769231 C46.7624999,15.5692308 46.4,15.2153846 46.0374999,15.2153846 C45.3125,14.8615385 44.5874999,14.8615385 42.4125,14.8615385 L38.7875,14.8615385 C36.6125,14.8615385 35.8875,14.8615385 35.1624999,15.2153846 C34.4375,15.5692308 34.0749999,15.9230769 34.0749999,16.2769231 C33.7124999,16.9846154 33.7124999,17.6923077 33.7125,19.8153846 L33.7125,42.4615384 L32.625,42.4615384 Z M29,42.4615384 L29,9.19999997 C29,6.72307686 29,6.01538458 28.6374999,5.3076923 C28.2749999,4.60000002 27.9125,4.24615384 27.5499999,4.24615384 C26.4624999,3.53846156 25.7375,3.53846156 23.1999999,3.53846156 L16.6749999,3.53846156 C14.1374999,3.53846156 13.4124999,3.53846156 12.6875,3.89230766 C11.9625,4.24615384 11.6,4.59999994 11.2374999,5.3076923 C10.875,6.01538458 10.875,6.72307695 10.875,9.19999997 L10.875,42.4615384 L29,42.4615384 L29,42.4615384 Z" id="形状" stroke="url(#linearGradient-6)" stroke-width="0.935483871" fill="url(#linearGradient-5)"></path>
                        <path d="M23.5625,14.1538462 L16.3125,14.1538462 C15.225,14.1538462 14.4999999,13.4461539 14.4999999,12.3846153 C14.4999999,11.3230768 15.2249999,10.6153846 16.3125,10.6153846 L23.5625,10.6153846 C24.65,10.6153846 25.3749999,11.3230769 25.3749999,12.3846153 C25.3749999,13.4461538 24.65,14.1538462 23.5625,14.1538462 Z M23.5625,24.7692308 L16.3125,24.7692308 C15.225,24.7692308 14.4999999,24.0615385 14.4999999,23 C14.4999999,21.9384614 15.2249999,21.2307692 16.3125,21.2307692 L23.5625,21.2307692 C24.65,21.2307692 25.3749999,21.9384615 25.3749999,23 C25.3749999,24.0615384 24.65,24.7692308 23.5625,24.7692308 Z M23.5625,35.3846154 L16.3125,35.3846154 C15.225,35.3846154 14.4999999,34.6769231 14.4999999,33.6153846 C14.4999999,32.553846 15.2249999,31.8461538 16.3125,31.8461538 L23.5625,31.8461538 C24.65,31.8461538 25.3749999,32.5538461 25.3749999,33.6153846 C25.3749999,34.676923 24.65,35.3846154 23.5625,35.3846154 Z" id="形状结合" stroke="#FFFFFF" stroke-width="0.935483871" fill="#FFFFFF" fill-rule="nonzero"></path>
                    </g>
                </g>
            </g>
        </g>
    </g>
</svg>