<?xml version="1.0" encoding="UTF-8"?>
<svg width="125px" height="125px" viewBox="0 0 125 125" version="1.1" xmlns="http://www.w3.org/2000/svg" xmlns:xlink="http://www.w3.org/1999/xlink">
    <title>全局设置 config-provider</title>
    <defs>
        <linearGradient x1="45.9466109%" y1="86.8386573%" x2="104.120927%" y2="-43.8247114%" id="linearGradient-1">
            <stop stop-color="#5073E5" offset="0%"></stop>
            <stop stop-color="#5E7CE0" offset="100%"></stop>
        </linearGradient>
    </defs>
    <g id="组件总览" stroke="none" stroke-width="1" fill="none" fill-rule="evenodd">
        <g id="-TinyUI-Vue-组件总览1" transform="translate(-694.000000, -2859.000000)">
            <g id="编组-25备份-22" transform="translate(596.000000, 2826.000000)">
                <g id="全局设置-config-provider" transform="translate(98.000000, 33.000000)">
                    <g id="编组"></g>
                    <path d="M68.6404267,36 C68.94688,36 69.2408533,36.1226971 69.4571733,36.3402057 L83.9942933,50.9572 C84.2113067,51.1754057 84.3333333,51.4709943 84.3333333,51.7791314 L84.3333333,84.8 C84.3333333,86.7255086 82.7816533,88.2857143 80.8666667,88.2857143 L44.4666667,88.2857143 C42.55168,88.2857143 41,86.7255086 41,84.8 L41,39.4857143 C41,37.5602057 42.55168,36 44.4666667,36 L68.6404267,36 Z M67.96304,37.1621371 L67.96304,50.1359657 C67.96304,51.4194057 68.9981867,52.46024 70.27392,52.46024 L70.27392,52.46024 L83.1775467,52.46024 L67.96304,37.1621371 Z" id="形状结合" fill="url(#linearGradient-1)" opacity="0.303770519"></path>
                    <g id="编组-35" transform="translate(47.000000, 55.000000)" fill="#5073E5">
                        <path d="M30.1082987,18.9399939 C30.1413503,18.676825 30.1659927,18.4133202 30.1659927,18.1335867 C30.1659927,17.8535173 30.1413869,17.5903483 30.1082987,17.326881 L31.8476011,15.9689157 C32.0041938,15.8456136 32.0453986,15.623222 31.9464998,15.4422421 L30.2976872,12.5944287 C30.2239061,12.4591881 30.0813164,12.388266 29.9382513,12.388266 C29.8895514,12.388266 29.8408515,12.3964737 29.7947476,12.4131503 L27.7422231,13.2364207 C27.3135764,12.9072916 26.8518416,12.6355419 26.349231,12.4297149 L26.0360089,10.2484794 C26.0113665,10.0509348 25.8382113,9.90278563 25.6319681,9.90278563 L22.3346352,9.90278563 C22.128721,9.90278563 21.9555659,10.0509348 21.9306309,10.2484794 L21.6174088,12.4297149 C21.1145058,12.6355419 20.6530634,12.9152755 20.2243802,13.2364207 L18.1718557,12.4131503 C18.1239664,12.3944331 18.073126,12.3848111 18.021844,12.3847591 C17.8788155,12.3847591 17.7422219,12.4601208 17.6689527,12.5944287 L16.02014,15.4422421 C15.9131246,15.623222 15.9624095,15.8456136 16.1190388,15.9689157 L17.8583411,17.326881 C17.8252895,17.5903483 17.8006105,17.861837 17.8006105,18.1335867 C17.8006105,18.405038 17.825582,18.676825 17.8583411,18.9399939 L16.1190388,20.2979591 C15.9624094,20.4215971 15.9212412,20.6436528 16.02014,20.8249313 L17.6689527,23.6727073 C17.7426972,23.8076868 17.8852138,23.8786835 18.0282057,23.8786835 C18.0771353,23.878767 18.1257186,23.8703131 18.1718557,23.8536872 L20.2243802,23.0304169 C20.6530269,23.3598444 21.1147617,23.631333 21.6174088,23.8371226 L21.9306309,26.0183582 C21.9555659,26.2159028 22.128721,26.3640519 22.3346352,26.3640519 L25.6319681,26.3640519 C25.8382113,26.3640519 26.0110374,26.2159028 26.0360089,26.0183582 L26.349231,23.8371226 C26.8521341,23.6312957 27.3135764,23.3515621 27.7422231,23.0304169 L29.7947476,23.8536872 C29.8439593,23.872938 29.8948163,23.8822277 29.9449055,23.8822277 C30.0877878,23.8822277 30.2242351,23.8067541 30.2976872,23.6727446 L31.9464998,20.8249686 C32.0453986,20.6439886 32.0041938,20.4215971 31.8476011,20.2979965 L30.1082987,18.9399939 L30.1082987,18.9399939 Z M23.9834479,21.0138578 C22.3926583,21.0138578 21.0982359,19.7215542 21.0982359,18.1332509 C21.0982359,16.5449476 22.3926583,15.2523455 23.9834479,15.2523455 C25.57453,15.2523455 26.8686599,16.5446491 26.8686599,18.1332509 C26.8686599,19.72189 25.5745666,21.0138578 23.9834479,21.0138578 Z" id="形状"></path>
                        <path d="M20.0527972,24.6476337 L18.6885059,25.194864 L18.6671174,25.2034821 L18.6454365,25.211354 C18.4472992,25.2833089 18.2385168,25.3199814 18.0282057,25.3197704 C17.3726951,25.3197704 16.7693577,24.9665778 16.4475801,24.3962914 L16.0608695,23.7283705 C15.4934355,24.3317116 14.8598617,24.7460889 14.1749191,24.9382985 L14.1749191,20.0069586 C14.3358261,20.0125548 14.4925286,20.0240455 14.6514248,20.0324771 C14.7622426,19.6958864 14.964391,19.3874259 15.2608679,19.1533943 L16.3899227,18.2718865 C16.3896668,18.26006 16.3897034,18.2485692 16.3895205,18.2367799 C15.6753288,18.1557848 14.9360558,18.1025466 14.1749191,18.0784085 L14.1749191,14.4969753 L14.9271348,14.4969753 L16.0436856,12.5684625 L14.1749191,12.5684625 L14.1749191,8.98904395 C15.6982894,8.94084231 17.1384092,8.77691202 18.4594848,8.50307303 C18.6381973,9.32365725 18.7678077,10.2080751 18.8521185,11.1375606 L20.0555027,11.6202857 C20.1456835,11.564923 20.2369725,11.5114621 20.3293116,11.459937 L20.5321181,10.0475771 C20.5456093,9.94811459 20.5699592,9.85264402 20.5984406,9.75918808 C20.5173472,9.16509928 20.4217755,8.58593361 20.3003184,8.03631566 C21.1602442,7.76628209 21.9426962,7.44233879 22.6514038,7.06821654 C22.9429815,7.51124621 23.2011786,7.97804091 23.4304191,8.46169875 L25.5004565,8.46169875 C23.5619672,3.56710697 18.8896305,0.0900982268 13.4226668,0.00962540248 C13.3792684,0.00772269265 13.3395626,0 13.296091,0 C13.2866581,0 13.2790533,0.00194000643 13.2695839,0.00194000643 C13.2564218,0.00194000643 13.2431134,0 13.2299147,0 C5.93458493,0 0,6.05568391 0,13.5 C0,20.9442042 5.93454838,27 13.2299147,27 C13.2430769,27 13.2564218,26.9980227 13.2695839,26.9980227 C13.2790168,26.9980227 13.2866216,27 13.296091,27 C13.3395626,27 13.3793049,26.9902627 13.4226668,26.9902627 C15.9650419,26.9528803 18.3343349,26.1786697 20.3385982,24.8715176 L20.3295675,24.8087287 C20.2362054,24.7570323 20.1439279,24.7033219 20.0527972,24.6476337 L20.0527972,24.6476337 Z M21.434309,5.53501676 C20.9296875,5.7760622 20.3759275,5.98819413 19.780597,6.17529256 C19.4063904,5.05288856 18.9433393,4.05964403 18.3990122,3.21301902 C19.5310737,3.80810397 20.5571184,4.5930267 21.434309,5.53501676 L21.434309,5.53501676 Z M14.1749191,2.06360418 C15.77569,2.51096156 17.0986668,4.16955269 17.9454671,6.63809537 C16.7794121,6.86955273 15.5111312,7.01419492 14.1749191,7.06045652 L14.1749191,2.06360418 Z M12.2849104,2.10020312 L12.2849104,7.06045652 C10.9959357,7.01609759 9.77119954,6.8791781 8.6372089,6.66126348 C9.46130448,4.24666787 10.7389086,2.60165672 12.2849104,2.10020312 Z M12.2849104,8.98904395 L12.2849104,12.5704025 L7.64686832,12.5704025 C7.69600696,11.1123779 7.86046045,9.75665114 8.12505582,8.53004657 C9.4140305,8.78653742 10.8088506,8.94274502 12.2849104,8.98904395 L12.2849104,8.98904395 Z M8.25170477,3.12038385 C7.67524004,3.99405703 7.18765627,5.03546587 6.7982766,6.21577151 C6.15567216,6.01904767 5.56414411,5.79147036 5.02548396,5.53501676 C5.94778364,4.54565224 7.0383392,3.7279034 8.25170477,3.12038385 L8.25170477,3.12038385 Z M3.808316,7.06821654 C4.55109886,7.45968689 5.37512131,7.80105291 6.28232111,8.07683187 C5.98555166,9.44419862 5.80983721,10.9562076 5.75876083,12.5684625 L1.93724613,12.5684625 C2.09599605,10.5454118 2.75940392,8.66700336 3.808316,7.06821654 Z M3.84041697,19.9799478 C2.78397324,18.3888837 2.11109592,16.5162579 1.94101197,14.4969753 L5.76069858,14.4969753 C5.81546768,16.1112076 5.99502104,17.6194111 6.29742098,18.9848379 C5.39778942,19.2586768 4.57753279,19.5942228 3.84041697,19.9799478 L3.84041697,19.9799478 Z M5.06891896,21.5131848 C5.60194865,21.2624767 6.18594504,21.0367647 6.81911662,20.8439209 C7.20655854,21.9991184 7.6865741,23.0193365 8.25170477,23.8795042 C7.05720492,23.2816473 5.98178581,22.4812839 5.06891896,21.5131848 Z M12.2849104,24.8997596 C10.7521438,24.4022233 9.4839726,22.780231 8.65801241,20.4023835 C9.786336,20.1863343 11.0054051,20.0513175 12.2849104,20.0069959 L12.2849104,24.8997596 L12.2849104,24.8997596 Z M12.2868116,18.0784085 C10.8164189,18.1247074 9.42536456,18.2789377 8.14209347,18.5355032 C7.8717945,17.310764 7.70171055,15.9569772 7.64876952,14.4969753 L12.2868116,14.4969753 L12.2868116,18.0784085 L12.2868116,18.0784085 Z" id="形状"></path>
                    </g>
                </g>
            </g>
        </g>
    </g>
</svg>