<?xml version="1.0" encoding="UTF-8"?>
<svg width="125px" height="125px" viewBox="0 0 125 125" version="1.1" xmlns="http://www.w3.org/2000/svg" xmlns:xlink="http://www.w3.org/1999/xlink">
    <title>Country 国家/地区</title>
    <defs>
        <linearGradient x1="50%" y1="45.9685271%" x2="50%" y2="100%" id="linearGradient-1">
            <stop stop-color="#ECF3FB" offset="0%"></stop>
            <stop stop-color="#FFFFFF" offset="100%"></stop>
        </linearGradient>
        <linearGradient x1="50.3956523%" y1="35.9331967%" x2="50%" y2="64.0668033%" id="linearGradient-2">
            <stop stop-color="#E3EFFD" stop-opacity="0.00575352382" offset="0%"></stop>
            <stop stop-color="#E5F0FD" offset="34.0601199%"></stop>
            <stop stop-color="#F0F6FE" offset="100%"></stop>
        </linearGradient>
        <linearGradient x1="33.3333333%" y1="34.495573%" x2="96.9740837%" y2="65.4421891%" id="linearGradient-3">
            <stop stop-color="#D5E6F9" offset="0%"></stop>
            <stop stop-color="#F7FBFF" stop-opacity="0" offset="100%"></stop>
        </linearGradient>
        <linearGradient x1="90.9912104%" y1="29.4309598%" x2="33.3333333%" y2="67.7472684%" id="linearGradient-4">
            <stop stop-color="#D5E6F9" offset="0%"></stop>
            <stop stop-color="#E7F0F9" stop-opacity="0" offset="100%"></stop>
        </linearGradient>
        <linearGradient x1="-5.8027489%" y1="27.0499439%" x2="103.630422%" y2="71.1332543%" id="linearGradient-5">
            <stop stop-color="#CEE6FE" offset="0%"></stop>
            <stop stop-color="#8AB5F2" offset="100%"></stop>
        </linearGradient>
        <linearGradient x1="-5.8027489%" y1="27.0499439%" x2="103.630422%" y2="71.1332543%" id="linearGradient-6">
            <stop stop-color="#BFD6F9" offset="0%"></stop>
            <stop stop-color="#F3F6FE" offset="100%"></stop>
        </linearGradient>
        <linearGradient x1="89.8473889%" y1="61.7348066%" x2="0%" y2="61.7348066%" id="linearGradient-7">
            <stop stop-color="#CAD9F3" offset="0%"></stop>
            <stop stop-color="#D5E3F7" offset="100%"></stop>
        </linearGradient>
        <filter x="-18.5%" y="-60.0%" width="136.9%" height="220.0%" filterUnits="objectBoundingBox" id="filter-8">
            <feGaussianBlur stdDeviation="4" in="SourceGraphic"></feGaussianBlur>
        </filter>
        <linearGradient x1="44.0988019%" y1="86.8386573%" x2="128.792906%" y2="-43.8247114%" id="linearGradient-9">
            <stop stop-color="#5073E5" offset="0%"></stop>
            <stop stop-color="#5E7CE0" offset="100%"></stop>
        </linearGradient>
        <linearGradient x1="44.0988019%" y1="86.8386573%" x2="128.792906%" y2="-43.8247114%" id="linearGradient-10">
            <stop stop-color="#5073E5" offset="0%"></stop>
            <stop stop-color="#5E7CE0" offset="100%"></stop>
        </linearGradient>
    </defs>
    <g id="页面一" stroke="none" stroke-width="1" fill="none" fill-rule="evenodd">
        <g id="-TinyUI-Vue-组件总览2" transform="translate(-696.000000, -610.000000)">
            <g id="编组-25备份" transform="translate(598.000000, 576.000000)">
                <g id="Country-国家/地区" transform="translate(98.000000, 34.000000)">
                    <g id="编组">
                        <g transform="translate(9.000000, 1.000000)" id="多边形">
                            <polygon fill="url(#linearGradient-1)" opacity="0.54620216" points="53.2605623 0 106.521125 30.75 53.2605623 62 0 30.75"></polygon>
                            <polygon fill="url(#linearGradient-2)" points="53.2605623 61.5 106.521125 86.75 53.2605623 118 0 86.75"></polygon>
                            <polygon fill="url(#linearGradient-3)" opacity="0.600606283" points="53.2605623 62 53.2605623 123 7.39138783e-15 92.25 0 30.75"></polygon>
                            <polygon fill="url(#linearGradient-4)" opacity="0.791265578" points="53.2605623 62 106.521125 30.75 106.521125 92.25 53.2605623 123"></polygon>
                            <polygon fill="url(#linearGradient-5)" points="53.2605623 118.007802 53.2605623 123 7.39138783e-15 92.25 0 86.9161706"></polygon>
                            <polygon fill="url(#linearGradient-6)" transform="translate(79.630281, 104.958085) scale(-1, 1) translate(-79.630281, -104.958085) " points="106.260562 118.007802 106.260562 123 53 92.25 53 86.9161706"></polygon>
                        </g>
                        <ellipse id="椭圆形" fill="url(#linearGradient-7)" filter="url(#filter-8)" cx="62.5" cy="90" rx="32.5" ry="10"></ellipse>
                    </g>
                    <g id="地球-3" transform="translate(37.000000, 37.000000)">
                        <path d="M29,8 C17.4020203,8 8,17.4020203 8,29 C8,40.5979797 17.4020203,50 29,50 C40.5979797,50 50,40.5979797 50,29 C50,17.4020203 40.5979797,8 29,8 Z" id="路径" fill="url(#linearGradient-9)" opacity="0.204287574"></path>
                        <path d="M26,0 C11.6405965,0 0,11.6405965 0,26 C0,40.3594035 11.6405965,52 26,52 C40.3594035,52 52,40.3594035 52,26 C52,11.6405965 40.3594035,0 26,0 Z M45.8620459,17.3347808 C47.0214614,19.987975 47.668476,22.9190814 47.668476,26.0021712 C47.668476,29.0852609 47.0214613,32.0163674 45.8620459,34.6695616 L36.091691,34.6695616 C36.5693528,31.9816284 36.8298956,29.0592066 36.8298956,26.0021712 C36.8298955,22.9451357 36.5693528,20.022714 36.091691,17.3347808 L45.8620459,17.3347808 Z M19.5037996,26.0021712 C19.5037996,22.8886848 19.7426304,19.9445511 20.1768685,17.3347808 L31.8187892,17.3347808 C32.2530271,19.9445511 32.4962004,22.8886848 32.4962004,26.0021712 C32.4962004,29.1156576 32.2530271,32.0597912 31.8187892,34.6695616 L20.1812108,34.6695616 C19.7469729,32.0597912 19.5037996,29.1156576 19.5037996,26.0021712 L19.5037996,26.0021712 Z M43.3347808,13.0010856 L35.0842589,13.0010856 C34.0768267,9.61837159 32.6959499,6.83490607 31.0675574,4.93294365 C35.9705203,6.11378822 40.3084827,8.96686224 43.3347808,13.0010856 L43.3347808,13.0010856 Z M26,6.50488516 C27.9236743,6.50488516 29.6562839,9.01912315 30.846096,13.005428 L21.153904,13.005428 C22.3437161,9.01478079 24.0763257,6.50488516 26,6.50488516 Z M20.9324426,4.93728601 C19.3040501,6.83490607 17.9231733,9.62705636 16.9200835,13.005428 L8.66956161,13.005428 C11.6947681,8.97204115 16.0310642,6.11905309 20.9324426,4.93728601 L20.9324426,4.93728601 Z M6.13795406,17.3347808 L15.908309,17.3347808 C15.4306472,20.022714 15.1701044,22.9451357 15.1701044,26.0021712 C15.1701045,29.0592066 15.4306472,31.9816284 15.908309,34.6695616 L6.13795406,34.6695616 C4.94353641,31.9362393 4.32846268,28.9850682 4.33151266,26.0021712 C4.33151266,22.9190814 4.97853866,19.9879749 6.13795406,17.3347808 L6.13795406,17.3347808 Z M8.6652192,39.0032568 L16.9157411,39.0032568 C17.9231733,42.3859708 19.3040501,45.1694363 20.9324426,47.0713987 C16.0294797,45.8905541 11.6915173,43.0374801 8.6652192,39.0032568 Z M26,45.4994572 C24.0763257,45.4994572 22.3437161,42.9852192 21.153904,38.9989144 L30.846096,38.9989144 C29.6475992,42.9895616 27.9236743,45.4994572 26,45.4994572 Z M31.0675574,47.0670564 C32.6959499,45.1694363 34.0768267,42.377286 35.0799165,38.9989144 L43.3304384,38.9989144 C40.3052319,43.0323012 35.9689358,45.8852893 31.0675574,47.0670564 L31.0675574,47.0670564 Z" id="形状" fill="url(#linearGradient-10)"></path>
                    </g>
                </g>
            </g>
        </g>
    </g>
</svg>