<?xml version="1.0" encoding="UTF-8"?>
<svg width="125px" height="125px" viewBox="0 0 125 125" version="1.1" xmlns="http://www.w3.org/2000/svg" xmlns:xlink="http://www.w3.org/1999/xlink">
    <title>Date 日期</title>
    <defs>
        <linearGradient x1="44.0988019%" y1="51.6575704%" x2="128.792906%" y2="45.7783188%" id="linearGradient-1">
            <stop stop-color="#5073E5" offset="0%"></stop>
            <stop stop-color="#5E7CE0" offset="100%"></stop>
        </linearGradient>
        <linearGradient x1="44.0988019%" y1="51.6575704%" x2="128.792906%" y2="45.7783188%" id="linearGradient-2">
            <stop stop-color="#5073E5" offset="0%"></stop>
            <stop stop-color="#5E7CE0" offset="100%"></stop>
        </linearGradient>
        <linearGradient x1="44.0988019%" y1="60.9602617%" x2="128.792906%" y2="22.0852098%" id="linearGradient-3">
            <stop stop-color="#5073E5" offset="0%"></stop>
            <stop stop-color="#5E7CE0" offset="100%"></stop>
        </linearGradient>
        <linearGradient x1="44.0988019%" y1="60.9602617%" x2="128.792906%" y2="22.0852098%" id="linearGradient-4">
            <stop stop-color="#5073E5" offset="0%"></stop>
            <stop stop-color="#5E7CE0" offset="100%"></stop>
        </linearGradient>
        <linearGradient x1="50%" y1="0%" x2="50%" y2="100%" id="linearGradient-5">
            <stop stop-color="#FFCC00" offset="0%"></stop>
            <stop stop-color="#FF9D00" offset="100%"></stop>
        </linearGradient>
    </defs>
    <g id="组件总览" stroke="none" stroke-width="1" fill="none" fill-rule="evenodd">
        <g id="-TinyUI-Ng-组件总览-1" transform="translate(-697.000000, -2137.000000)">
            <g id="Date-日期" transform="translate(697.000000, 2137.000000)">
                <g id="编组"></g>
                <g id="日期" transform="translate(29.000000, 29.000000)">
                    <g id="编组-2">
                        <path d="M12.6566586,6.01280875 L8.4761259,6.01280875 C3.79699765,6.00640437 0,9.75297346 0,14.3641354 L0,20 C0.0809498734,19.9975373 0.161955714,19.9975373 0.242905588,20 L66,20 L66,14.3641354 C66,9.75297346 62.2030024,6 57.5302663,6 L52.4803874,6 L52.4803874,10.4254346 C52.4803874,12.5388838 50.7480871,14.2680695 48.6002906,14.2680696 C46.473952,14.2822746 44.7377782,12.5685947 44.7201937,10.4382434 L44.7201937,6 L20.4168524,6 L20.4168524,10.4254346 C20.4168524,12.5388838 18.6781599,14.2680695 16.5367554,14.2680696 C14.4104168,14.2822746 12.674243,12.5685947 12.6566586,10.4382434 L12.6566586,6 L12.6566586,6.01280875 Z" id="形状" stroke="url(#linearGradient-2)" fill="url(#linearGradient-1)"></path>
                        <path d="M66,26.0060729 L0.242929116,26.0060729 L0,26 L0,54.0748988 C0,58.4473684 3.80375821,62 8.47055407,62 L57.5230531,62 C62.1962418,62 65.9936071,58.4412956 65.9936071,54.0748988 L65.9936071,26.0060729 L66,26.0060729 Z" id="形状备份" stroke="url(#linearGradient-4)" fill="url(#linearGradient-3)"></path>
                        <rect id="矩形" fill="url(#linearGradient-5)" x="15" y="0" width="3" height="11" rx="1.5"></rect>
                        <rect id="矩形备份-10" fill="url(#linearGradient-5)" x="47" y="0" width="3" height="11" rx="1.5"></rect>
                    </g>
                    <rect id="矩形" fill="#FFFFFF" fill-rule="nonzero" x="10" y="33" width="8" height="8" rx="4"></rect>
                    <rect id="矩形备份-12" fill="#FFFFFF" fill-rule="nonzero" x="29" y="33" width="8" height="8" rx="4"></rect>
                    <rect id="矩形备份-14" fill="#FFFFFF" fill-rule="nonzero" x="48" y="33" width="8" height="8" rx="4"></rect>
                    <rect id="矩形备份-11" fill="#FFFFFF" fill-rule="nonzero" x="10" y="47" width="8" height="8" rx="4"></rect>
                    <rect id="矩形备份-13" fill="#FFFFFF" fill-rule="nonzero" x="29" y="47" width="8" height="8" rx="4"></rect>
                    <rect id="矩形备份-15" fill="#FFFFFF" fill-rule="nonzero" x="48" y="46" width="8" height="8" rx="4"></rect>
                </g>
            </g>
        </g>
    </g>
</svg>