<?xml version="1.0" encoding="UTF-8"?>
<svg width="125px" height="125px" viewBox="0 0 125 125" version="1.1" xmlns="http://www.w3.org/2000/svg" xmlns:xlink="http://www.w3.org/1999/xlink">
    <title>DateRange 日期范围</title>
    <defs>
        <linearGradient x1="50%" y1="45.9685271%" x2="50%" y2="100%" id="linearGradient-1">
            <stop stop-color="#ECF3FB" offset="0%"></stop>
            <stop stop-color="#FFFFFF" offset="100%"></stop>
        </linearGradient>
        <linearGradient x1="50.3956523%" y1="35.9331967%" x2="50%" y2="64.0668033%" id="linearGradient-2">
            <stop stop-color="#E3EFFD" stop-opacity="0.00575352382" offset="0%"></stop>
            <stop stop-color="#E5F0FD" offset="34.0601199%"></stop>
            <stop stop-color="#F0F6FE" offset="100%"></stop>
        </linearGradient>
        <linearGradient x1="33.3333333%" y1="34.495573%" x2="96.9740837%" y2="65.4421891%" id="linearGradient-3">
            <stop stop-color="#D5E6F9" offset="0%"></stop>
            <stop stop-color="#F7FBFF" stop-opacity="0" offset="100%"></stop>
        </linearGradient>
        <linearGradient x1="90.9912104%" y1="29.4309598%" x2="33.3333333%" y2="67.7472684%" id="linearGradient-4">
            <stop stop-color="#D5E6F9" offset="0%"></stop>
            <stop stop-color="#E7F0F9" stop-opacity="0" offset="100%"></stop>
        </linearGradient>
        <linearGradient x1="-5.8027489%" y1="27.0499439%" x2="103.630422%" y2="71.1332543%" id="linearGradient-5">
            <stop stop-color="#CEE6FE" offset="0%"></stop>
            <stop stop-color="#8AB5F2" offset="100%"></stop>
        </linearGradient>
        <linearGradient x1="-5.8027489%" y1="27.0499439%" x2="103.630422%" y2="71.1332543%" id="linearGradient-6">
            <stop stop-color="#BFD6F9" offset="0%"></stop>
            <stop stop-color="#F3F6FE" offset="100%"></stop>
        </linearGradient>
        <linearGradient x1="89.8473889%" y1="61.7348066%" x2="0%" y2="61.7348066%" id="linearGradient-7">
            <stop stop-color="#CAD9F3" offset="0%"></stop>
            <stop stop-color="#D5E3F7" offset="100%"></stop>
        </linearGradient>
        <filter x="-18.5%" y="-60.0%" width="136.9%" height="220.0%" filterUnits="objectBoundingBox" id="filter-8">
            <feGaussianBlur stdDeviation="4" in="SourceGraphic"></feGaussianBlur>
        </filter>
        <linearGradient x1="44.0988019%" y1="53.3827968%" x2="128.792906%" y2="41.384324%" id="linearGradient-9">
            <stop stop-color="#5073E5" offset="0%"></stop>
            <stop stop-color="#5E7CE0" offset="100%"></stop>
        </linearGradient>
        <linearGradient x1="44.0988019%" y1="53.3827968%" x2="128.792906%" y2="41.384324%" id="linearGradient-10">
            <stop stop-color="#5073E5" offset="0%"></stop>
            <stop stop-color="#5E7CE0" offset="100%"></stop>
        </linearGradient>
        <linearGradient x1="44.0988019%" y1="60.9602617%" x2="128.792906%" y2="22.0852098%" id="linearGradient-11">
            <stop stop-color="#5073E5" offset="0%"></stop>
            <stop stop-color="#5E7CE0" offset="100%"></stop>
        </linearGradient>
        <rect id="path-12" x="4" y="30" width="41" height="16" rx="8"></rect>
        <filter x="-9.8%" y="-12.5%" width="119.5%" height="150.0%" filterUnits="objectBoundingBox" id="filter-13">
            <feOffset dx="0" dy="2" in="SourceAlpha" result="shadowOffsetOuter1"></feOffset>
            <feGaussianBlur stdDeviation="1" in="shadowOffsetOuter1" result="shadowBlurOuter1"></feGaussianBlur>
            <feColorMatrix values="0 0 0 0 0.368627451   0 0 0 0 0.48627451   0 0 0 0 0.878431373  0 0 0 0.349865467 0" type="matrix" in="shadowBlurOuter1"></feColorMatrix>
        </filter>
        <linearGradient x1="50%" y1="0%" x2="50%" y2="100%" id="linearGradient-14">
            <stop stop-color="#FFCC00" offset="0%"></stop>
            <stop stop-color="#FF9D00" offset="100%"></stop>
        </linearGradient>
        <rect id="path-15" x="11" y="34" width="8" height="8" rx="4"></rect>
        <filter x="-43.8%" y="-31.2%" width="187.5%" height="187.5%" filterUnits="objectBoundingBox" id="filter-16">
            <feOffset dx="0" dy="1" in="SourceAlpha" result="shadowOffsetOuter1"></feOffset>
            <feGaussianBlur stdDeviation="1" in="shadowOffsetOuter1" result="shadowBlurOuter1"></feGaussianBlur>
            <feColorMatrix values="0 0 0 0 0.661752894   0 0 0 0 0.324547702   0 0 0 0 0.00489962574  0 0 0 0.5 0" type="matrix" in="shadowBlurOuter1"></feColorMatrix>
        </filter>
        <rect id="path-17" x="30" y="34" width="8" height="8" rx="4"></rect>
        <filter x="-43.8%" y="-31.2%" width="187.5%" height="187.5%" filterUnits="objectBoundingBox" id="filter-18">
            <feOffset dx="0" dy="1" in="SourceAlpha" result="shadowOffsetOuter1"></feOffset>
            <feGaussianBlur stdDeviation="1" in="shadowOffsetOuter1" result="shadowBlurOuter1"></feGaussianBlur>
            <feColorMatrix values="0 0 0 0 0.661752894   0 0 0 0 0.324547702   0 0 0 0 0.00489962574  0 0 0 0.5 0" type="matrix" in="shadowBlurOuter1"></feColorMatrix>
        </filter>
    </defs>
    <g id="页面一" stroke="none" stroke-width="1" fill="none" fill-rule="evenodd">
        <g id="-TinyUI-ICON-1-【9-2】" transform="translate(-1089.000000, -2137.000000)">
            <g id="DateRange-日期范围" transform="translate(1089.000000, 2137.000000)">
                <g id="编组">
                    <g transform="translate(9.000000, 1.000000)" id="多边形">
                        <polygon fill="url(#linearGradient-1)" opacity="0.54620216" points="53.2605623 0 106.521125 30.75 53.2605623 62 0 30.75"></polygon>
                        <polygon fill="url(#linearGradient-2)" points="53.2605623 61.5 106.521125 86.75 53.2605623 118 0 86.75"></polygon>
                        <polygon fill="url(#linearGradient-3)" opacity="0.600606283" points="53.2605623 62 53.2605623 123 7.39138783e-15 92.25 0 30.75"></polygon>
                        <polygon fill="url(#linearGradient-4)" opacity="0.791265578" points="53.2605623 62 106.521125 30.75 106.521125 92.25 53.2605623 123"></polygon>
                        <polygon fill="url(#linearGradient-5)" points="53.2605623 118.007802 53.2605623 123 7.39138783e-15 92.25 0 86.9161706"></polygon>
                        <polygon fill="url(#linearGradient-6)" transform="translate(79.630281, 104.958085) scale(-1, 1) translate(-79.630281, -104.958085) " points="106.260562 118.007802 106.260562 123 53 92.25 53 86.9161706"></polygon>
                    </g>
                    <ellipse id="椭圆形" fill="url(#linearGradient-7)" filter="url(#filter-8)" cx="62.5" cy="90" rx="32.5" ry="10"></ellipse>
                </g>
                <g id="日期" transform="translate(29.000000, 29.000000)">
                    <path d="M44.7201937,6 L44.7201937,10.4382434 C44.7377782,12.5685947 46.473952,14.2822746 48.6002906,14.2680696 C50.7480871,14.2680695 52.4803874,12.5388838 52.4803874,10.4254346 L52.4803874,10.4254346 L52.4803874,6 L57.5302663,6 C62.2030024,6 66,9.75297346 66,14.3641354 L66,14.3641354 L66,20 L0.242905588,20 C0.161955714,19.9975373 0.0809498734,19.9975373 0,20 L0,20 L0,14.3641354 C0,9.75297346 3.79699765,6.00640437 8.4761259,6.01280875 L8.4761259,6.01280875 L12.6566586,6.01280875 L12.6566586,10.4382434 C12.674243,12.5685947 14.4104168,14.2822746 16.5367554,14.2680696 C18.6781599,14.2680695 20.4168524,12.5388838 20.4168524,10.4254346 L20.4168524,10.4254346 L20.4168524,6 L44.7201937,6 Z M16.5,0 C17.3284271,-1.52179594e-16 18,0.671572875 18,1.5 L18,9.5 C18,10.3284271 17.3284271,11 16.5,11 C15.6715729,11 15,10.3284271 15,9.5 L15,1.5 C15,0.671572875 15.6715729,1.52179594e-16 16.5,0 Z M48.5,0 C49.3284271,-1.52179594e-16 50,0.671572875 50,1.5 L50,9.5 C50,10.3284271 49.3284271,11 48.5,11 C47.6715729,11 47,10.3284271 47,9.5 L47,1.5 C47,0.671572875 47.6715729,1.52179594e-16 48.5,0 Z" id="形状" stroke="url(#linearGradient-10)" fill="url(#linearGradient-9)"></path>
                    <path d="M66,26.0060729 L0.242929116,26.0060729 L0,26 L0,54.0748988 C0,58.4473684 3.80375821,62 8.47055407,62 L57.5230531,62 C62.1962418,62 65.9936071,58.4412956 65.9936071,54.0748988 L65.9936071,26.0060729 L66,26.0060729 Z" id="形状备份" fill="url(#linearGradient-11)" opacity="0.604724702"></path>
                    <g id="矩形">
                        <use fill="black" fill-opacity="1" filter="url(#filter-13)" xlink:href="#path-12"></use>
                        <use fill="#5073E5" fill-rule="evenodd" xlink:href="#path-12"></use>
                    </g>
                    <rect id="矩形备份-14" stroke="#FFFFFF" fill="#FFFFFF" fill-rule="nonzero" x="49" y="33" width="8" height="8" rx="4"></rect>
                    <rect id="矩形备份-11" stroke="#FFFFFF" fill="#FFFFFF" fill-rule="nonzero" x="11" y="49" width="8" height="8" rx="4"></rect>
                    <rect id="矩形备份-13" stroke="#FFFFFF" fill="#FFFFFF" fill-rule="nonzero" x="30" y="49" width="8" height="8" rx="4"></rect>
                    <rect id="矩形备份-15" stroke="#FFFFFF" fill="#FFFFFF" fill-rule="nonzero" x="49" y="49" width="8" height="8" rx="4"></rect>
                    <g id="矩形">
                        <use fill="black" fill-opacity="1" filter="url(#filter-16)" xlink:href="#path-15"></use>
                        <use fill="url(#linearGradient-14)" fill-rule="evenodd" xlink:href="#path-15"></use>
                    </g>
                    <g id="矩形备份-12">
                        <use fill="black" fill-opacity="1" filter="url(#filter-18)" xlink:href="#path-17"></use>
                        <use fill="url(#linearGradient-14)" fill-rule="evenodd" xlink:href="#path-17"></use>
                    </g>
                </g>
            </g>
        </g>
    </g>
</svg>