<?xml version="1.0" encoding="UTF-8"?>
<svg width="125px" height="125px" viewBox="0 0 125 125" version="1.1" xmlns="http://www.w3.org/2000/svg" xmlns:xlink="http://www.w3.org/1999/xlink">
    <title>Dept 部门</title>
    <defs>
        <linearGradient x1="50%" y1="45.9685271%" x2="50%" y2="100%" id="linearGradient-1">
            <stop stop-color="#ECF3FB" offset="0%"></stop>
            <stop stop-color="#FFFFFF" offset="100%"></stop>
        </linearGradient>
        <linearGradient x1="50.3956523%" y1="35.9331967%" x2="50%" y2="64.0668033%" id="linearGradient-2">
            <stop stop-color="#E3EFFD" stop-opacity="0.00575352382" offset="0%"></stop>
            <stop stop-color="#E5F0FD" offset="34.0601199%"></stop>
            <stop stop-color="#F0F6FE" offset="100%"></stop>
        </linearGradient>
        <linearGradient x1="33.3333333%" y1="34.495573%" x2="96.9740837%" y2="65.4421891%" id="linearGradient-3">
            <stop stop-color="#D5E6F9" offset="0%"></stop>
            <stop stop-color="#F7FBFF" stop-opacity="0" offset="100%"></stop>
        </linearGradient>
        <linearGradient x1="90.9912104%" y1="29.4309598%" x2="33.3333333%" y2="67.7472684%" id="linearGradient-4">
            <stop stop-color="#D5E6F9" offset="0%"></stop>
            <stop stop-color="#E7F0F9" stop-opacity="0" offset="100%"></stop>
        </linearGradient>
        <linearGradient x1="-5.8027489%" y1="27.0499439%" x2="103.630422%" y2="71.1332543%" id="linearGradient-5">
            <stop stop-color="#CEE6FE" offset="0%"></stop>
            <stop stop-color="#8AB5F2" offset="100%"></stop>
        </linearGradient>
        <linearGradient x1="-5.8027489%" y1="27.0499439%" x2="103.630422%" y2="71.1332543%" id="linearGradient-6">
            <stop stop-color="#BFD6F9" offset="0%"></stop>
            <stop stop-color="#F3F6FE" offset="100%"></stop>
        </linearGradient>
        <linearGradient x1="89.8473889%" y1="61.7348066%" x2="0%" y2="61.7348066%" id="linearGradient-7">
            <stop stop-color="#CAD9F3" offset="0%"></stop>
            <stop stop-color="#D5E3F7" offset="100%"></stop>
        </linearGradient>
        <filter x="-18.5%" y="-60.0%" width="136.9%" height="220.0%" filterUnits="objectBoundingBox" id="filter-8">
            <feGaussianBlur stdDeviation="4" in="SourceGraphic"></feGaussianBlur>
        </filter>
        <linearGradient x1="44.0988019%" y1="83.4137481%" x2="128.792906%" y2="-35.1017791%" id="linearGradient-9">
            <stop stop-color="#5073E5" offset="0%"></stop>
            <stop stop-color="#5E7CE0" offset="100%"></stop>
        </linearGradient>
        <linearGradient x1="44.6230819%" y1="86.8386573%" x2="121.79271%" y2="-43.8247114%" id="linearGradient-10">
            <stop stop-color="#5073E5" offset="0%"></stop>
            <stop stop-color="#5E7CE0" offset="100%"></stop>
        </linearGradient>
    </defs>
    <g id="页面一" stroke="none" stroke-width="1" fill="none" fill-rule="evenodd">
        <g id="-TinyUI-Vue-组件总览2" transform="translate(-1478.000000, -609.000000)">
            <g id="编组-25备份-7" transform="translate(1380.000000, 576.000000)">
                <g id="Dept-部门" transform="translate(98.000000, 33.000000)">
                    <g id="编组">
                        <g transform="translate(9.000000, 1.000000)" id="多边形">
                            <polygon fill="url(#linearGradient-1)" opacity="0.54620216" points="53.2605623 0 106.521125 30.75 53.2605623 62 0 30.75"></polygon>
                            <polygon fill="url(#linearGradient-2)" points="53.2605623 61.5 106.521125 86.75 53.2605623 118 0 86.75"></polygon>
                            <polygon fill="url(#linearGradient-3)" opacity="0.600606283" points="53.2605623 62 53.2605623 123 7.39138783e-15 92.25 0 30.75"></polygon>
                            <polygon fill="url(#linearGradient-4)" opacity="0.791265578" points="53.2605623 62 106.521125 30.75 106.521125 92.25 53.2605623 123"></polygon>
                            <polygon fill="url(#linearGradient-5)" points="53.2605623 118.007802 53.2605623 123 7.39138783e-15 92.25 0 86.9161706"></polygon>
                            <polygon fill="url(#linearGradient-6)" transform="translate(79.630281, 104.958085) scale(-1, 1) translate(-79.630281, -104.958085) " points="106.260562 118.007802 106.260562 123 53 92.25 53 86.9161706"></polygon>
                        </g>
                        <ellipse id="椭圆形" fill="url(#linearGradient-7)" filter="url(#filter-8)" cx="62.5" cy="90" rx="32.5" ry="10"></ellipse>
                    </g>
                    <path d="M34,31 L89,31 C91.209139,31 93,32.790861 93,35 L93,87 C93,89.209139 91.209139,91 89,91 L34,91 C31.790861,91 30,89.209139 30,87 L30,35 C30,32.790861 31.790861,31 34,31 Z" id="矩形" fill="url(#linearGradient-9)" opacity="0.204287574"></path>
                    <path d="M46.1230667,70.8297872 C47.5347333,70.8297872 48.6897333,72.0618207 48.6897333,73.5682145 L48.6897333,73.5682145 L48.6897333,74.7847181 C48.6897333,75.8407468 48.1199333,76.7673602 47.2883333,77.2177254 L47.2883333,77.2177254 L49.9012,77.8285655 C50.6917333,77.9993936 51.2564,78.7500023 51.2666667,79.6093197 L51.2666667,79.6093197 L51.2666667,81.7783198 C51.2666667,82.4512792 50.7533333,82.9948234 50.1270667,83 L50.1270667,83 L42.1396,83 C41.5133333,83 41,82.4564558 41,81.7834964 L41,81.7834964 L41,79.6144963 C41,78.7500023 41.5646667,78.0045703 42.3449333,77.8285655 L42.3449333,77.8285655 L44.7165333,77.2746681 L44.9526667,77.2177254 C44.4188,76.9278351 43.9978667,76.4412337 43.7617333,75.8562766 C43.7258,75.7682742 43.695,75.6802719 43.6693333,75.5922695 C43.6539333,75.5405034 43.6436667,75.4939139 43.6334,75.4473244 C43.618,75.3748518 43.6077333,75.3075559 43.5923333,75.2402599 C43.5872,75.198847 43.5769333,75.1626107 43.5718,75.1211978 C43.5615333,75.0073124 43.5512667,74.893427 43.5512667,74.7795415 L43.5512667,74.7795415 L43.5512667,73.5630379 C43.5512667,73.4802121 43.5615333,73.3973863 43.5666667,73.3145606 C43.5666667,73.2679711 43.5769333,73.2265582 43.5820667,73.1799687 C43.5872,73.148909 43.5923333,73.1178493 43.5974667,73.0816131 C43.6077333,73.0194937 43.618,72.962551 43.6334,72.9056083 C43.6385333,72.8900785 43.6385333,72.8797252 43.6436667,72.8641954 C43.9414,71.6994579 44.9424,70.8297872 46.1230667,70.8297872 Z M61.9897333,70.8297872 C63.4014,70.8297872 64.5564,72.0618207 64.5564,73.5682145 L64.5564,73.5682145 L64.5564,74.7847181 C64.5564,75.8407468 63.9866,76.7673602 63.155,77.2177254 L63.155,77.2177254 L65.7678667,77.8285655 C66.5584,77.9993936 67.1230667,78.7500023 67.1333333,79.6093197 L67.1333333,79.6093197 L67.1333333,81.7783198 C67.1333333,82.4512792 66.62,82.9948234 65.9937333,83 L65.9937333,83 L58.0062667,83 C57.38,83 56.8666667,82.4564558 56.8666667,81.7834964 L56.8666667,81.7834964 L56.8666667,79.6144963 C56.8666667,78.7500023 57.4313333,78.0045703 58.2116,77.8285655 L58.2116,77.8285655 L60.5832,77.2746681 L60.8193333,77.2177254 C60.2854667,76.9278351 59.8645333,76.4412337 59.6284,75.8562766 C59.5924667,75.7682742 59.5616667,75.6802719 59.536,75.5922695 C59.5206,75.5405034 59.5103333,75.4939139 59.5000667,75.4473244 C59.4846667,75.3748518 59.4744,75.3075559 59.459,75.2402599 C59.4538667,75.198847 59.4436,75.1626107 59.4384667,75.1211978 C59.4282,75.0073124 59.4179333,74.893427 59.4179333,74.7795415 L59.4179333,74.7795415 L59.4179333,73.5630379 C59.4179333,73.4802121 59.4282,73.3973863 59.4333333,73.3145606 C59.4333333,73.2679711 59.4436,73.2265582 59.4487333,73.1799687 C59.4538666,73.148909 59.459,73.1178493 59.4641333,73.0816131 C59.4744,73.0194937 59.4846667,72.962551 59.5000667,72.9056083 C59.5052,72.8900785 59.5052,72.8797252 59.5103333,72.8641954 C59.8080666,71.6994579 60.8090666,70.8297872 61.9897333,70.8297872 Z M77.8564,70.8297872 C79.2680667,70.8297872 80.4230667,72.0618207 80.4230667,73.5682145 L80.4230667,73.5682145 L80.4230667,74.7847181 C80.4230667,75.8407468 79.8532667,76.7673602 79.0216667,77.2177254 L79.0216667,77.2177254 L81.6345333,77.8285655 C82.4250667,77.9993936 82.9897333,78.7500023 83,79.6093197 L83,79.6093197 L83,81.7783198 C83,82.4512792 82.4866667,82.9948234 81.8604,83 L81.8604,83 L73.8729333,83 C73.2466667,83 72.7333333,82.4564558 72.7333333,81.7834964 L72.7333333,81.7834964 L72.7333333,79.6144963 C72.7333333,78.7500023 73.298,78.0045703 74.0782667,77.8285655 L74.0782667,77.8285655 L76.4498667,77.2746681 L76.686,77.2177254 C76.1521333,76.9278351 75.7312,76.4412337 75.4950667,75.8562766 C75.4591333,75.7682742 75.4283333,75.6802719 75.4026667,75.5922695 C75.3872667,75.5405034 75.377,75.4939139 75.3667333,75.4473244 C75.3513333,75.3748518 75.3410667,75.3075559 75.3256667,75.2402599 C75.3205333,75.198847 75.3102667,75.1626107 75.3051333,75.1211978 C75.2948667,75.0073124 75.2846,74.893427 75.2846,74.7795415 L75.2846,74.7795415 L75.2846,73.5630379 C75.2846,73.4802121 75.2948667,73.3973863 75.3,73.3145606 C75.3,73.2679711 75.3102667,73.2265582 75.3154,73.1799687 C75.3205333,73.148909 75.3256667,73.1178493 75.3308,73.0816131 C75.3410667,73.0194937 75.3513333,72.962551 75.3667333,72.9056083 C75.3718667,72.8900785 75.3718667,72.8797252 75.377,72.8641954 C75.6747333,71.6994579 76.6757333,70.8297872 77.8564,70.8297872 Z M61.7126316,39 C64.0766667,39 66.0108772,41.0516437 66.0108772,43.5601661 L66.0108772,43.5601661 L66.0108772,45.5859488 C66.0108772,47.3445006 65.0566667,48.8875436 63.6640351,49.6375142 L63.6640351,49.6375142 L68.0396491,50.6547157 C69.3635088,50.9391873 70.3091228,52.1891384 70.3263158,53.6201168 L70.3263158,53.6201168 L70.3263158,57.2320442 C70.3263158,58.3526899 69.4666667,59.2578269 68.4178947,59.2664473 L68.4178947,59.2664473 L63.148,59.266 L63.1482114,62.1682719 L76.3991038,62.1682719 C77.8425961,62.1682719 79.0211186,63.2959813 79.0211186,64.6817933 L79.0211186,64.6817933 L79.0211186,69.6969237 L76.5572947,69.6969237 L76.5572947,64.6976765 C76.5414756,64.6738517 76.482154,64.6301728 76.3872395,64.6301728 L76.3872395,64.6301728 L63.1403019,64.6301728 L63.1403019,69.6969237 L60.6922971,69.6969237 L60.6922971,64.6301728 L47.4866836,64.6301728 C47.3917691,64.6301728 47.3324475,64.6738517 47.3166284,64.6976765 L47.3166284,64.6976765 L47.3166284,69.6969237 L44.8686236,69.6969237 L44.8686236,64.6817933 C44.8686236,63.2959813 46.0431913,62.1682719 47.4906384,62.1682719 L47.4906384,62.1682719 L60.6962519,62.1682719 L60.696,59.266 L55.0417544,59.2664473 C54.0406539,59.2664473 53.211874,58.4417253 53.1385988,57.3920793 L53.1333333,57.2406645 L53.1333333,53.6287371 C53.1333333,52.1891384 54.0789473,50.9478077 55.385614,50.6547157 L55.385614,50.6547157 L59.357193,49.7323381 L59.7526316,49.6375142 C58.8585965,49.1547745 58.1536842,48.3444615 57.7582456,47.3703617 C57.6980702,47.2238157 57.6464912,47.0772697 57.6035088,46.9307237 C57.5777193,46.8445202 57.5605263,46.766937 57.5433333,46.6893539 C57.5175439,46.568669 57.5003509,46.4566044 57.4745614,46.3445398 L57.4745614,46.3445398 L57.4401754,46.1462717 C57.4229824,45.956624 57.4057895,45.7669762 57.4057895,45.5773285 L57.4057895,45.5773285 L57.4057895,43.5515458 C57.4057895,43.4136202 57.4229824,43.2756945 57.4315789,43.1377689 C57.4315789,43.0601857 57.4487719,42.9912229 57.4573684,42.9136397 C57.4659649,42.8619176 57.4745614,42.8101955 57.4831579,42.7498531 C57.5003509,42.6464088 57.5175439,42.551585 57.5433333,42.4567611 C57.5519298,42.4309001 57.5519298,42.4136593 57.5605263,42.3877983 C58.0591228,40.4482191 59.7354386,39 61.7126316,39 Z" id="形状结合" fill="url(#linearGradient-10)"></path>
                </g>
            </g>
        </g>
    </g>
</svg>