<?xml version="1.0" encoding="UTF-8"?>
<svg width="125px" height="125px" viewBox="0 0 125 125" version="1.1" xmlns="http://www.w3.org/2000/svg" xmlns:xlink="http://www.w3.org/1999/xlink">
    <title>DetailPage 表头详情栏</title>
    <defs>
        <linearGradient x1="50%" y1="45.9685271%" x2="50%" y2="100%" id="linearGradient-1">
            <stop stop-color="#ECF3FB" offset="0%"></stop>
            <stop stop-color="#FFFFFF" offset="100%"></stop>
        </linearGradient>
        <linearGradient x1="50.3956523%" y1="35.9331967%" x2="50%" y2="64.0668033%" id="linearGradient-2">
            <stop stop-color="#E3EFFD" stop-opacity="0.00575352382" offset="0%"></stop>
            <stop stop-color="#E5F0FD" offset="34.0601199%"></stop>
            <stop stop-color="#F0F6FE" offset="100%"></stop>
        </linearGradient>
        <linearGradient x1="33.3333333%" y1="34.495573%" x2="96.9740837%" y2="65.4421891%" id="linearGradient-3">
            <stop stop-color="#D5E6F9" offset="0%"></stop>
            <stop stop-color="#F7FBFF" stop-opacity="0" offset="100%"></stop>
        </linearGradient>
        <linearGradient x1="90.9912104%" y1="29.4309598%" x2="33.3333333%" y2="67.7472684%" id="linearGradient-4">
            <stop stop-color="#D5E6F9" offset="0%"></stop>
            <stop stop-color="#E7F0F9" stop-opacity="0" offset="100%"></stop>
        </linearGradient>
        <linearGradient x1="-5.8027489%" y1="27.0499439%" x2="103.630422%" y2="71.1332543%" id="linearGradient-5">
            <stop stop-color="#CEE6FE" offset="0%"></stop>
            <stop stop-color="#8AB5F2" offset="100%"></stop>
        </linearGradient>
        <linearGradient x1="-5.8027489%" y1="27.0499439%" x2="103.630422%" y2="71.1332543%" id="linearGradient-6">
            <stop stop-color="#BFD6F9" offset="0%"></stop>
            <stop stop-color="#F3F6FE" offset="100%"></stop>
        </linearGradient>
        <linearGradient x1="89.8473889%" y1="61.7348066%" x2="0%" y2="61.7348066%" id="linearGradient-7">
            <stop stop-color="#CAD9F3" offset="0%"></stop>
            <stop stop-color="#D5E3F7" offset="100%"></stop>
        </linearGradient>
        <filter x="-18.5%" y="-60.0%" width="136.9%" height="220.0%" filterUnits="objectBoundingBox" id="filter-8">
            <feGaussianBlur stdDeviation="4" in="SourceGraphic"></feGaussianBlur>
        </filter>
        <linearGradient x1="44.0988019%" y1="69.9170941%" x2="128.792906%" y2="-0.727028245%" id="linearGradient-9">
            <stop stop-color="#5073E5" offset="0%"></stop>
            <stop stop-color="#5E7CE0" offset="100%"></stop>
        </linearGradient>
        <linearGradient x1="44.4618639%" y1="86.8386573%" x2="123.945296%" y2="-43.8247114%" id="linearGradient-10">
            <stop stop-color="#5073E5" offset="0%"></stop>
            <stop stop-color="#5E7CE0" offset="100%"></stop>
        </linearGradient>
        <linearGradient x1="44.0988019%" y1="53.4876835%" x2="128.792906%" y2="41.1171871%" id="linearGradient-11">
            <stop stop-color="#5073E5" offset="0%"></stop>
            <stop stop-color="#5E7CE0" offset="100%"></stop>
        </linearGradient>
        <linearGradient x1="44.0988019%" y1="51.4735463%" x2="128.792906%" y2="46.2470115%" id="linearGradient-12">
            <stop stop-color="#5073E5" offset="0%"></stop>
            <stop stop-color="#5E7CE0" offset="100%"></stop>
        </linearGradient>
        <path d="M2,0 L66,0 C67.1045695,-2.02906125e-16 68,0.8954305 68,2 L68,16 C68,17.1045695 67.1045695,18 66,18 L2,18 C0.8954305,18 9.09629973e-13,17.1045695 9.09494702e-13,16 L9.09494702e-13,2 C9.09359431e-13,0.8954305 0.8954305,2.02906125e-16 2,0 Z" id="path-13"></path>
        <filter x="-5.9%" y="-11.1%" width="111.8%" height="144.4%" filterUnits="objectBoundingBox" id="filter-14">
            <feOffset dx="0" dy="2" in="SourceAlpha" result="shadowOffsetOuter1"></feOffset>
            <feGaussianBlur stdDeviation="1" in="shadowOffsetOuter1" result="shadowBlurOuter1"></feGaussianBlur>
            <feColorMatrix values="0 0 0 0 0.368627451   0 0 0 0 0.48627451   0 0 0 0 0.878431373  0 0 0 0.349865467 0" type="matrix" in="shadowBlurOuter1"></feColorMatrix>
        </filter>
    </defs>
    <g id="页面一" stroke="none" stroke-width="1" fill="none" fill-rule="evenodd">
        <g id="-TinyUI-Vue-组件总览" transform="translate(-694.000000, -2530.000000)">
            <g id="编组-14备份-15" transform="translate(596.000000, 2500.000000)">
                <g id="DetailPage-表头详情栏" transform="translate(98.000000, 30.000000)">
                    <g id="编组">
                        <g transform="translate(9.000000, 1.000000)" id="多边形">
                            <polygon fill="url(#linearGradient-1)" opacity="0.54620216" points="53.2605623 0 106.521125 30.75 53.2605623 62 0 30.75"></polygon>
                            <polygon fill="url(#linearGradient-2)" points="53.2605623 61.5 106.521125 86.75 53.2605623 118 0 86.75"></polygon>
                            <polygon fill="url(#linearGradient-3)" opacity="0.600606283" points="53.2605623 62 53.2605623 123 7.39138783e-15 92.25 0 30.75"></polygon>
                            <polygon fill="url(#linearGradient-4)" opacity="0.791265578" points="53.2605623 62 106.521125 30.75 106.521125 92.25 53.2605623 123"></polygon>
                            <polygon fill="url(#linearGradient-5)" points="53.2605623 118.007802 53.2605623 123 7.39138783e-15 92.25 0 86.9161706"></polygon>
                            <polygon fill="url(#linearGradient-6)" transform="translate(79.630281, 104.958085) scale(-1, 1) translate(-79.630281, -104.958085) " points="106.260562 118.007802 106.260562 123 53 92.25 53 86.9161706"></polygon>
                        </g>
                        <ellipse id="椭圆形" fill="url(#linearGradient-7)" filter="url(#filter-8)" cx="62.5" cy="90" rx="32.5" ry="10"></ellipse>
                    </g>
                    <g id="编组-3" transform="translate(33.000000, 38.000000)">
                        <rect id="矩形备份-23" fill="url(#linearGradient-9)" opacity="0.204287574" x="0" y="2" width="68" height="50" rx="4"></rect>
                        <rect id="矩形备份-6" fill="url(#linearGradient-10)" opacity="0.303770519" x="31.09375" y="9" width="33.90625" height="35" rx="4"></rect>
                        <path d="M40,25 L49,25 C50.1045695,25 51,25.8954305 51,27 C51,28.1045695 50.1045695,29 49,29 L40,29 C38.8954305,29 38,28.1045695 38,27 C38,25.8954305 38.8954305,25 40,25 Z" id="形状结合备份" fill="url(#linearGradient-11)" opacity="0.604724702"></path>
                        <path d="M40,33 L56,33 C57.1045695,33 58,33.8954305 58,35 C58,36.1045695 57.1045695,37 56,37 L40,37 C38.8954305,37 38,36.1045695 38,35 C38,33.8954305 38.8954305,33 40,33 Z" id="形状结合备份-24" fill="url(#linearGradient-12)" opacity="0.604724702"></path>
                        <g id="形状结合备份">
                            <use fill="black" fill-opacity="1" filter="url(#filter-14)" xlink:href="#path-13"></use>
                            <use fill="#5073E5" fill-rule="evenodd" xlink:href="#path-13"></use>
                        </g>
                        <path d="M61.9514373,8.10859412 C61.9004816,7.82946044 61.627756,7.54532672 61.344878,7.48244438 L61.1333662,7.43468367 C60.6364074,7.28629733 60.195507,6.96190294 59.9151803,6.48413954 C59.6348361,6.00384141 59.5685374,5.45814356 59.6908768,4.95779321 L59.7571579,4.76162879 C59.8412453,4.49004724 59.7316448,4.11539212 59.5099629,3.92927985 C59.5099629,3.92927985 59.3111548,3.76332395 58.7504839,3.44396432 C58.1897953,3.12712207 57.9476854,3.03911805 57.9476854,3.03911805 C57.6749775,2.94106188 57.2927218,3.03410065 57.0939313,3.24281723 L56.9460788,3.39872098 C56.5689082,3.75077179 56.0617443,3.96450576 55.5011085,3.96450576 C54.9404727,3.96450576 54.4282238,3.74828914 54.0510004,3.39370359 L53.9082329,3.24279987 C53.7119937,3.03410065 53.3272043,2.9410966 53.0544788,3.03911805 C53.0544788,3.03911805 52.8098352,3.12712207 52.2491466,3.44394696 C51.6884581,3.76582397 51.4922365,3.93177987 51.4922365,3.93177987 C51.270537,4.1153574 51.1609365,4.4875125 51.2450415,4.76161143 L51.3062552,4.96025851 C51.4260257,5.46064357 51.3622959,6.00384141 51.0819517,6.48408746 C50.8016074,6.96433351 50.3557451,7.29133208 49.8562878,7.43720105 L49.6524123,7.48244438 C49.372068,7.54532672 49.0968088,7.82696042 49.0458531,8.10859412 C49.0458531,8.10859412 49,8.36003666 49,8.99875593 C49,9.63747519 49.0458531,9.88891773 49.0458531,9.88891773 C49.0968088,10.1705514 49.3695167,10.4521851 49.6524123,10.5150675 L49.8512204,10.5603108 C50.3507129,10.7061971 50.7992496,11.0330915 51.0795939,11.5158723 C51.3599382,11.9961878 51.4262369,12.5418683 51.3038975,13.042236 L51.2453055,13.2358657 C51.161218,13.5074473 51.2708185,13.8821024 51.4924828,14.0682146 C51.4924828,14.0682146 51.6912909,14.2341705 52.2519619,14.5535302 C52.8126328,14.8728898 53.0547427,14.9583764 53.0547427,14.9583764 C53.3274507,15.0564153 53.7097063,14.9633938 53.9084969,14.7546773 L54.0486602,14.6062909 C54.4283469,14.2517227 54.9380798,14.0354887 55.5013196,14.0354887 C56.0645595,14.0354887 56.5767557,14.2542401 56.9539791,14.6087909 L57.0941424,14.7571773 C57.2903817,14.9658765 57.675171,15.0589674 57.9478966,14.9608591 C57.9478966,14.9608591 58.1925402,14.8728551 58.7532287,14.5560302 C59.3139173,14.2366532 59.5101389,14.0707147 59.5101389,14.0707147 C59.7318384,13.8871371 59.8414389,13.512482 59.7573162,13.2383657 L59.6961025,13.0371839 C59.576332,12.5393162 59.6400618,11.9961357 59.9204061,11.518355 C60.2007504,11.0380395 60.6492695,10.7086624 61.1487796,10.5627935 L61.3475877,10.5175501 C61.627932,10.4546678 61.9031912,10.1730341 61.9541469,9.89140039 C61.9541469,9.89140039 62,9.63995785 62,9.00123858 C61.9973255,8.35996722 61.9514549,8.10850732 61.9514549,8.10850732 L61.9514373,8.10859412 Z M55.5012669,11.5561156 C54.0715515,11.5561156 52.9094416,10.4119939 52.9094416,8.99875593 C52.9094416,7.58805268 54.0689826,6.44389624 55.5012669,6.44389624 C56.9309822,6.44389624 58.0930921,7.58801796 58.0930921,9.00125594 C58.090488,10.4119592 56.930947,11.5561156 55.5012669,11.5561156 Z" id="形状" fill="#FFFFFF" fill-rule="nonzero"></path>
                    </g>
                </g>
            </g>
        </g>
    </g>
</svg>