<?xml version="1.0" encoding="UTF-8"?>
<svg width="125px" height="125px" viewBox="0 0 125 125" version="1.1" xmlns="http://www.w3.org/2000/svg" xmlns:xlink="http://www.w3.org/1999/xlink">
    <title>DialogBox 对话框 </title>
    <defs>
        <linearGradient x1="44.0988019%" y1="65.224139%" x2="128.792906%" y2="11.2255019%" id="linearGradient-1">
            <stop stop-color="#5073E5" offset="0%"></stop>
            <stop stop-color="#5E7CE0" offset="100%"></stop>
        </linearGradient>
        <linearGradient x1="44.0988019%" y1="59.2096643%" x2="128.792906%" y2="26.5438221%" id="linearGradient-2">
            <stop stop-color="#5073E5" offset="0%"></stop>
            <stop stop-color="#5E7CE0" offset="100%"></stop>
        </linearGradient>
        <linearGradient x1="44.0988019%" y1="63.6227686%" x2="128.792906%" y2="15.3040466%" id="linearGradient-3">
            <stop stop-color="#5073E5" offset="0%"></stop>
            <stop stop-color="#5E7CE0" offset="100%"></stop>
        </linearGradient>
        <rect id="path-4" x="0" y="0" width="74" height="45" rx="4"></rect>
        <filter x="-5.4%" y="-4.4%" width="110.8%" height="117.8%" filterUnits="objectBoundingBox" id="filter-5">
            <feOffset dx="0" dy="2" in="SourceAlpha" result="shadowOffsetOuter1"></feOffset>
            <feGaussianBlur stdDeviation="1" in="shadowOffsetOuter1" result="shadowBlurOuter1"></feGaussianBlur>
            <feColorMatrix values="0 0 0 0 0.368627451   0 0 0 0 0.48627451   0 0 0 0 0.878431373  0 0 0 0.65213034 0" type="matrix" in="shadowBlurOuter1"></feColorMatrix>
        </filter>
        <path d="M63.5330808,5.44974747 L63.5327475,8.36574747 L66.4497475,8.36641413 L66.4497475,9.5330808 L63.5327475,9.53274747 L63.5330808,12.4497475 L62.3664141,12.4497475 L62.3657475,9.53274747 L59.4497475,9.5330808 L59.4497475,8.36641413 L62.3657475,8.36574747 L62.3664141,5.44974747 L63.5330808,5.44974747 Z" id="path-6"></path>
        <filter x="-28.6%" y="-28.6%" width="157.1%" height="157.1%" filterUnits="objectBoundingBox" id="filter-7">
            <feMorphology radius="0.5" operator="dilate" in="SourceAlpha" result="shadowSpreadOuter1"></feMorphology>
            <feOffset dx="0" dy="0" in="shadowSpreadOuter1" result="shadowOffsetOuter1"></feOffset>
            <feGaussianBlur stdDeviation="0.5" in="shadowOffsetOuter1" result="shadowBlurOuter1"></feGaussianBlur>
            <feComposite in="shadowBlurOuter1" in2="SourceAlpha" operator="out" result="shadowBlurOuter1"></feComposite>
            <feColorMatrix values="0 0 0 0 0.232993057   0 0 0 0 0.361563365   0 0 0 0 0.790131058  0 0 0 1 0" type="matrix" in="shadowBlurOuter1"></feColorMatrix>
        </filter>
    </defs>
    <g id="Tiny-Vue" stroke="none" stroke-width="1" fill="none" fill-rule="evenodd">
        <g id="-TinyUI-Vue-组件总览1" transform="translate(-1869.000000, -1210.000000)">
            <g id="组件" transform="translate(596.000000, 311.000000)">
                <g id="编组-25备份-20" transform="translate(1175.000000, 866.000000)">
                    <g id="DialogBox-对话框-" transform="translate(98.000000, 33.000000)">
                        <g id="编组"></g>
                        <path d="M24,36 L35.0714925,36 L35.0714925,36 L86,36 C88.209139,36 90,37.790861 90,40 L90,77 C90,79.209139 88.209139,81 86,81 L24,81 C21.790861,81 20,79.209139 20,77 L20,40 C20,37.790861 21.790861,36 24,36 Z" id="矩形" fill="url(#linearGradient-1)" opacity="0.204287574"></path>
                        <path d="M31,58 L57,58 C58.6568542,58 60,59.3431458 60,61 C60,62.6568542 58.6568542,64 57,64 L31,64 C29.3431458,64 28,62.6568542 28,61 C28,59.3431458 29.3431458,58 31,58 Z M31,44 L65,44 C66.6568542,44 68,45.3431458 68,47 C68,48.6568542 66.6568542,50 65,50 L31,50 C29.3431458,50 28,48.6568542 28,47 C28,45.3431458 29.3431458,44 31,44 Z" id="形状结合备份-41" fill="url(#linearGradient-2)" opacity="0.303770519"></path>
                        <g id="编组-10" transform="translate(31.000000, 44.000000)">
                            <g id="形状结合">
                                <use fill="black" fill-opacity="1" filter="url(#filter-5)" xlink:href="#path-4"></use>
                                <use fill="url(#linearGradient-3)" fill-rule="evenodd" xlink:href="#path-4"></use>
                            </g>
                            <g id="形状结合" fill-rule="nonzero" transform="translate(62.949747, 8.949747) rotate(-315.000000) translate(-62.949747, -8.949747) ">
                                <use fill="black" fill-opacity="1" filter="url(#filter-7)" xlink:href="#path-6"></use>
                                <use stroke="#FFFFFF" stroke-width="1" fill="#FFFFFF" xlink:href="#path-6"></use>
                            </g>
                            <path d="M12,7 L44,7 C45.1045695,7 46,7.8954305 46,9 C46,10.1045695 45.1045695,11 44,11 L12,11 C10.8954305,11 10,10.1045695 10,9 C10,7.8954305 10.8954305,7 12,7 Z" id="形状结合备份" fill="#FFFFFF" fill-rule="nonzero"></path>
                            <path d="M12,20 L61,20 C62.1045695,20 63,20.8954305 63,22 L63,34 C63,35.1045695 62.1045695,36 61,36 L12,36 C10.8954305,36 10,35.1045695 10,34 L10,22 C10,20.8954305 10.8954305,20 12,20 Z" id="形状结合备份-17" fill="#FFFFFF" fill-rule="nonzero" opacity="0.699016753"></path>
                        </g>
                    </g>
                </g>
            </g>
        </g>
    </g>
</svg>