<?xml version="1.0" encoding="UTF-8"?>
<svg width="125px" height="125px" viewBox="0 0 125 125" version="1.1" xmlns="http://www.w3.org/2000/svg" xmlns:xlink="http://www.w3.org/1999/xlink">
    <title>Halfmodal 半屏弹窗</title>
    <defs>
        <linearGradient x1="50%" y1="45.9685271%" x2="50%" y2="100%" id="linearGradient-1">
            <stop stop-color="#ECF3FB" offset="0%"></stop>
            <stop stop-color="#FFFFFF" offset="100%"></stop>
        </linearGradient>
        <linearGradient x1="50.3956523%" y1="35.9331967%" x2="50%" y2="64.0668033%" id="linearGradient-2">
            <stop stop-color="#E3EFFD" stop-opacity="0.00575352382" offset="0%"></stop>
            <stop stop-color="#E5F0FD" offset="34.0601199%"></stop>
            <stop stop-color="#F0F6FE" offset="100%"></stop>
        </linearGradient>
        <linearGradient x1="33.3333333%" y1="34.495573%" x2="96.9740837%" y2="65.4421891%" id="linearGradient-3">
            <stop stop-color="#D5E6F9" offset="0%"></stop>
            <stop stop-color="#F7FBFF" stop-opacity="0" offset="100%"></stop>
        </linearGradient>
        <linearGradient x1="90.9912104%" y1="29.4309598%" x2="33.3333333%" y2="67.7472684%" id="linearGradient-4">
            <stop stop-color="#D5E6F9" offset="0%"></stop>
            <stop stop-color="#E7F0F9" stop-opacity="0" offset="100%"></stop>
        </linearGradient>
        <linearGradient x1="-5.8027489%" y1="27.0499439%" x2="103.630422%" y2="71.1332543%" id="linearGradient-5">
            <stop stop-color="#CEE6FE" offset="0%"></stop>
            <stop stop-color="#8AB5F2" offset="100%"></stop>
        </linearGradient>
        <linearGradient x1="-5.8027489%" y1="27.0499439%" x2="103.630422%" y2="71.1332543%" id="linearGradient-6">
            <stop stop-color="#BFD6F9" offset="0%"></stop>
            <stop stop-color="#F3F6FE" offset="100%"></stop>
        </linearGradient>
        <linearGradient x1="89.8473889%" y1="61.7348066%" x2="0%" y2="61.7348066%" id="linearGradient-7">
            <stop stop-color="#CAD9F3" offset="0%"></stop>
            <stop stop-color="#D5E3F7" offset="100%"></stop>
        </linearGradient>
        <filter x="-18.5%" y="-60.0%" width="136.9%" height="220.0%" filterUnits="objectBoundingBox" id="filter-8">
            <feGaussianBlur stdDeviation="4" in="SourceGraphic"></feGaussianBlur>
        </filter>
        <linearGradient x1="44.0988019%" y1="67.0085122%" x2="128.792906%" y2="6.68086548%" id="linearGradient-9">
            <stop stop-color="#5073E5" offset="0%"></stop>
            <stop stop-color="#5E7CE0" offset="100%"></stop>
        </linearGradient>
        <linearGradient x1="44.0988019%" y1="74.3192698%" x2="128.792906%" y2="-11.9389697%" id="linearGradient-10">
            <stop stop-color="#5073E5" offset="0%"></stop>
            <stop stop-color="#5E7CE0" offset="100%"></stop>
        </linearGradient>
        <path d="M63.5,76 C64.0522847,76 64.5,76.4477153 64.5,77 C64.5,77.2829303 64.3801486,77.5526192 64.1701506,77.7422251 L57.5483533,83.721006 C57.1384336,84.09112 56.5060915,84.0588511 56.1359775,83.6489314 C55.9700534,83.4651622 55.8782027,83.2263731 55.8782027,82.9787808 L55.878,80.023 L37,80.023329 C35.8954305,80.023329 35,79.1278985 35,78.023329 C35,76.9187595 35.8954305,76.023329 37,76.023329 L55.878,76.023 L55.8782027,76 L63.5,76 Z" id="path-11"></path>
        <filter x="-13.6%" y="-25.1%" width="127.1%" height="200.3%" filterUnits="objectBoundingBox" id="filter-12">
            <feOffset dx="0" dy="2" in="SourceAlpha" result="shadowOffsetOuter1"></feOffset>
            <feGaussianBlur stdDeviation="1" in="shadowOffsetOuter1" result="shadowBlurOuter1"></feGaussianBlur>
            <feColorMatrix values="0 0 0 0 0.368627451   0 0 0 0 0.48627451   0 0 0 0 0.878431373  0 0 0 0.349865467 0" type="matrix" in="shadowBlurOuter1"></feColorMatrix>
        </filter>
        <linearGradient x1="47.7122091%" y1="86.8386573%" x2="80.5466269%" y2="-43.8247114%" id="linearGradient-13">
            <stop stop-color="#5073E5" offset="0%"></stop>
            <stop stop-color="#5E7CE0" offset="100%"></stop>
        </linearGradient>
        <linearGradient x1="47.7122091%" y1="86.8386573%" x2="80.5466269%" y2="-43.8247114%" id="linearGradient-14">
            <stop stop-color="#5073E5" offset="0%"></stop>
            <stop stop-color="#5E7CE0" offset="100%"></stop>
        </linearGradient>
        <path d="M0,0 L29,0 C31.209139,-4.05812251e-16 33,1.790861 33,4 L33,49 C33,51.209139 31.209139,53 29,53 L0,53 L0,53 L0,0 Z" id="path-15"></path>
        <filter x="-13.6%" y="-4.7%" width="127.3%" height="117.0%" filterUnits="objectBoundingBox" id="filter-16">
            <feMorphology radius="0.5" operator="dilate" in="SourceAlpha" result="shadowSpreadOuter1"></feMorphology>
            <feOffset dx="0" dy="2" in="shadowSpreadOuter1" result="shadowOffsetOuter1"></feOffset>
            <feGaussianBlur stdDeviation="1" in="shadowOffsetOuter1" result="shadowBlurOuter1"></feGaussianBlur>
            <feComposite in="shadowBlurOuter1" in2="SourceAlpha" operator="out" result="shadowBlurOuter1"></feComposite>
            <feColorMatrix values="0 0 0 0 0.368627451   0 0 0 0 0.48627451   0 0 0 0 0.878431373  0 0 0 0.65213034 0" type="matrix" in="shadowBlurOuter1"></feColorMatrix>
        </filter>
        <path d="M28.1240991,3.26493957 L28.1232072,6.02493957 L30.7254504,6.02535623 L30.7254504,7.1295229 L28.1232072,7.12893957 L28.1240991,9.88993957 L27.0835586,9.88993957 L27.0832072,7.12893957 L24.4822072,7.1295229 L24.4822072,6.02535623 L27.0832072,6.02493957 L27.0835586,3.26493957 L28.1240991,3.26493957 Z" id="path-17"></path>
        <filter x="-32.0%" y="-30.2%" width="164.1%" height="160.4%" filterUnits="objectBoundingBox" id="filter-18">
            <feMorphology radius="0.5" operator="dilate" in="SourceAlpha" result="shadowSpreadOuter1"></feMorphology>
            <feOffset dx="0" dy="0" in="shadowSpreadOuter1" result="shadowOffsetOuter1"></feOffset>
            <feGaussianBlur stdDeviation="0.5" in="shadowOffsetOuter1" result="shadowBlurOuter1"></feGaussianBlur>
            <feComposite in="shadowBlurOuter1" in2="SourceAlpha" operator="out" result="shadowBlurOuter1"></feComposite>
            <feColorMatrix values="0 0 0 0 0.232993057   0 0 0 0 0.361563365   0 0 0 0 0.790131058  0 0 0 1 0" type="matrix" in="shadowBlurOuter1"></feColorMatrix>
        </filter>
    </defs>
    <g id="页面一" stroke="none" stroke-width="1" fill="none" fill-rule="evenodd">
        <g id="-TinyUI-ICON-2-【9-2】-无阴影" transform="translate(-1873.000000, -574.000000)">
            <g id="Halfmodal-半屏弹窗" transform="translate(1873.000000, 574.000000)">
                <g id="编组">
                    <g transform="translate(9.000000, 1.000000)" id="多边形">
                        <polygon fill="url(#linearGradient-1)" opacity="0.54620216" points="53.2605623 0 106.521125 30.75 53.2605623 62 0 30.75"></polygon>
                        <polygon fill="url(#linearGradient-2)" points="53.2605623 61.5 106.521125 86.75 53.2605623 118 0 86.75"></polygon>
                        <polygon fill="url(#linearGradient-3)" opacity="0.600606283" points="53.2605623 62 53.2605623 123 7.39138783e-15 92.25 0 30.75"></polygon>
                        <polygon fill="url(#linearGradient-4)" opacity="0.791265578" points="53.2605623 62 106.521125 30.75 106.521125 92.25 53.2605623 123"></polygon>
                        <polygon fill="url(#linearGradient-5)" points="53.2605623 118.007802 53.2605623 123 7.39138783e-15 92.25 0 86.9161706"></polygon>
                        <polygon fill="url(#linearGradient-6)" transform="translate(79.630281, 104.958085) scale(-1, 1) translate(-79.630281, -104.958085) " points="106.260562 118.007802 106.260562 123 53 92.25 53 86.9161706"></polygon>
                    </g>
                    <ellipse id="椭圆形" fill="url(#linearGradient-7)" filter="url(#filter-8)" cx="62.5" cy="90" rx="32.5" ry="10"></ellipse>
                </g>
                <path d="M27.804878,36 L40.7939488,36 L40.7939488,36 L98.195122,36 C100.296498,36 102,37.7035019 102,39.804878 L102,85.195122 C102,87.2964981 100.296498,89 98.195122,89 L27.804878,89 C25.7035019,89 24,87.2964981 24,85.195122 L24,39.804878 C24,37.7035019 25.7035019,36 27.804878,36 Z" id="矩形" fill="url(#linearGradient-9)" opacity="0.303770519"></path>
                <path d="M32,56 L44,56 C45.1045695,56 46,56.8954305 46,58 C46,59.1045695 45.1045695,60 44,60 L32,60 C30.8954305,60 30,59.1045695 30,58 C30,56.8954305 30.8954305,56 32,56 Z M32,67 L38.24,67 C39.3445695,67 40.24,67.8954305 40.24,69 C40.24,70.1045695 39.3445695,71 38.24,71 L32,71 C30.8954305,71 30,70.1045695 30,69 C30,67.8954305 30.8954305,67 32,67 Z M51,56 L53,56 C54.1045695,56 55,56.8954305 55,58 C55,59.1045695 54.1045695,60 53,60 L51,60 C49.8954305,60 49,59.1045695 49,58 C49,56.8954305 49.8954305,56 51,56 Z M44.16,67 L48.16,67 C49.2645695,67 50.16,67.8954305 50.16,69 C50.16,70.1045695 49.2645695,71 48.16,71 L44.16,71 C43.0554305,71 42.16,70.1045695 42.16,69 C42.16,67.8954305 43.0554305,67 44.16,67 Z M32,45 L60,45 C61.1045695,45 62,45.8954305 62,47 C62,48.1045695 61.1045695,49 60,49 L32,49 C30.8954305,49 30,48.1045695 30,47 C30,45.8954305 30.8954305,45 32,45 Z" id="形状结合备份-41" fill="url(#linearGradient-10)" opacity="0.604724702"></path>
                <g id="形状结合" transform="translate(49.750000, 79.989394) scale(-1, -1) translate(-49.750000, -79.989394) ">
                    <use fill="black" fill-opacity="1" filter="url(#filter-12)" xlink:href="#path-11"></use>
                    <use fill="#5073E5" fill-rule="evenodd" xlink:href="#path-11"></use>
                </g>
                <g id="编组-24" transform="translate(69.000000, 36.000000)">
                    <g id="矩形备份-6">
                        <use fill="black" fill-opacity="1" filter="url(#filter-16)" xlink:href="#path-15"></use>
                        <use stroke="url(#linearGradient-14)" stroke-width="1" fill="url(#linearGradient-13)" fill-rule="evenodd" xlink:href="#path-15"></use>
                    </g>
                    <g id="形状结合" fill-rule="nonzero" transform="translate(27.603829, 6.577440) rotate(-315.000000) translate(-27.603829, -6.577440) ">
                        <use fill="black" fill-opacity="1" filter="url(#filter-18)" xlink:href="#path-17"></use>
                        <use stroke="#FFFFFF" stroke-width="1" fill="#FFFFFF" xlink:href="#path-17"></use>
                    </g>
                    <path d="M5.72115385,14 L25.7211538,14 C26.549581,14 27.2211538,14.6715729 27.2211538,15.5 C27.2211538,16.3284271 26.549581,17 25.7211538,17 L5.72115385,17 C4.89272672,17 4.22115385,16.3284271 4.22115385,15.5 C4.22115385,14.6715729 4.89272672,14 5.72115385,14 Z" id="形状结合备份-44" stroke="#FFFFFF" fill="#FFFFFF" fill-rule="nonzero"></path>
                    <path d="M6.91789216,23 L16.8345588,23 C17.6629859,23 18.3345588,23.6715729 18.3345588,24.5 C18.3345588,25.3284271 17.6629859,26 16.8345588,26 L6.91789216,26 C6.08946503,26 5.41789216,25.3284271 5.41789216,24.5 C5.41789216,23.6715729 6.08946503,23 6.91789216,23 Z" id="形状结合备份-17" stroke="#FFFFFF" fill="#FFFFFF" fill-rule="nonzero" opacity="0.699016753"></path>
                    <path d="M6.91789216,32 L16.8345588,32 C17.6629859,32 18.3345588,32.6715729 18.3345588,33.5 C18.3345588,34.3284271 17.6629859,35 16.8345588,35 L6.91789216,35 C6.08946503,35 5.41789216,34.3284271 5.41789216,33.5 C5.41789216,32.6715729 6.08946503,32 6.91789216,32 Z" id="形状结合备份-45" stroke="#FFFFFF" fill="#FFFFFF" fill-rule="nonzero" opacity="0.699016753"></path>
                </g>
            </g>
        </g>
    </g>
</svg>