<?xml version="1.0" encoding="UTF-8"?>
<svg width="125px" height="125px" viewBox="0 0 125 125" version="1.1" xmlns="http://www.w3.org/2000/svg" xmlns:xlink="http://www.w3.org/1999/xlink">
    <title>dropTimes 下拉时间</title>
    <defs>
        <linearGradient x1="44.0988019%" y1="60.2922698%" x2="128.792906%" y2="23.7865245%" id="linearGradient-1">
            <stop stop-color="#5073E5" offset="0%"></stop>
            <stop stop-color="#5E7CE0" offset="100%"></stop>
        </linearGradient>
        <linearGradient x1="44.0988019%" y1="86.8386573%" x2="128.792906%" y2="-43.8247114%" id="linearGradient-2">
            <stop stop-color="#5073E5" offset="0%"></stop>
            <stop stop-color="#5E7CE0" offset="100%"></stop>
        </linearGradient>
        <linearGradient x1="44.0988019%" y1="54.77429%" x2="128.792906%" y2="37.8403174%" id="linearGradient-3">
            <stop stop-color="#5073E5" offset="0%"></stop>
            <stop stop-color="#5E7CE0" offset="100%"></stop>
        </linearGradient>
        <linearGradient x1="50%" y1="0%" x2="50%" y2="100%" id="linearGradient-4">
            <stop stop-color="#FFCC00" offset="0%"></stop>
            <stop stop-color="#FF9D00" offset="100%"></stop>
        </linearGradient>
        <polygon id="path-5" points="86 37 98 37 92 44"></polygon>
        <filter x="-29.2%" y="-35.7%" width="158.3%" height="200.0%" filterUnits="objectBoundingBox" id="filter-6">
            <feOffset dx="0" dy="1" in="SourceAlpha" result="shadowOffsetOuter1"></feOffset>
            <feMorphology radius="4.0839988" operator="erode" in="SourceAlpha" result="shadowInner"></feMorphology>
            <feOffset dx="0" dy="1" in="shadowInner" result="shadowInner"></feOffset>
            <feComposite in="shadowOffsetOuter1" in2="shadowInner" operator="out" result="shadowOffsetOuter1"></feComposite>
            <feGaussianBlur stdDeviation="1" in="shadowOffsetOuter1" result="shadowBlurOuter1"></feGaussianBlur>
            <feColorMatrix values="0 0 0 0 0.661752894   0 0 0 0 0.324547702   0 0 0 0 0.00489962574  0 0 0 0.5 0" type="matrix" in="shadowBlurOuter1"></feColorMatrix>
        </filter>
        <filter x="-45.8%" y="-64.3%" width="191.7%" height="257.1%" filterUnits="objectBoundingBox" id="filter-7">
            <feGaussianBlur stdDeviation="1.5" in="SourceAlpha" result="shadowBlurInner1"></feGaussianBlur>
            <feOffset dx="0" dy="-4" in="shadowBlurInner1" result="shadowOffsetInner1"></feOffset>
            <feComposite in="shadowOffsetInner1" in2="SourceAlpha" operator="arithmetic" k2="-1" k3="1" result="shadowInnerInner1"></feComposite>
            <feColorMatrix values="0 0 0 0 0.841553619   0 0 0 0 0.341832308   0 0 0 0 0  0 0 0 0.5 0" type="matrix" in="shadowInnerInner1"></feColorMatrix>
        </filter>
        <linearGradient x1="44.0988019%" y1="51.2178069%" x2="128.792906%" y2="46.8983566%" id="linearGradient-8">
            <stop stop-color="#5073E5" offset="0%"></stop>
            <stop stop-color="#5E7CE0" offset="100%"></stop>
        </linearGradient>
    </defs>
    <g id="Tiny-Vue" stroke="none" stroke-width="1" fill="none" fill-rule="evenodd">
        <g id="-TinyUI-Vue-组件总览1" transform="translate(-1478.000000, -1485.000000)">
            <g id="组件" transform="translate(596.000000, 311.000000)">
                <g id="编组-14备份-3" transform="translate(784.000000, 1141.000000)">
                    <g id="dropTimes-下拉时间" transform="translate(98.000000, 33.000000)">
                        <g id="编组"></g>
                        <path d="M30,55 L96,55 C97.1045695,55 98,55.8954305 98,57 L98,90 C98,91.1045695 97.1045695,92 96,92 L30,92 C28.8954305,92 28,91.1045695 28,90 L28,57 C28,55.8954305 28.8954305,55 30,55 Z" id="矩形" fill="url(#linearGradient-1)" opacity="0.303770519"></path>
                        <path d="M43.5,80 C48.1943375,80 52,76.1943375 52,71.5 C52,66.8056625 48.1943375,63 43.5,63 C38.8056625,63 35,66.8056625 35,71.5 C35,76.1943375 38.8056625,80 43.5,80 Z" id="形状" fill="url(#linearGradient-2)"></path>
                        <rect id="矩形-2" fill="url(#linearGradient-3)" x="28" y="31" width="50" height="18" rx="2"></rect>
                        <g id="形状结合" transform="translate(92.000000, 40.500000) rotate(-180.000000) translate(-92.000000, -40.500000) ">
                            <use fill="black" fill-opacity="1" filter="url(#filter-6)" xlink:href="#path-5"></use>
                            <use fill="black" fill-opacity="1" filter="url(#filter-7)" xlink:href="#path-5"></use>
                            <path stroke="url(#linearGradient-4)" stroke-width="4.0839988" d="M93.5602428,39.0419994 L92,40.8622826 L90.4397572,39.0419994 L93.5602428,39.0419994 Z" stroke-linejoin="square"></path>
                        </g>
                        <path d="M61,63 L88,63 C89.6568542,63 91,64.3431458 91,66 C91,67.6568542 89.6568542,69 88,69 L61,69 C59.3431458,69 58,67.6568542 58,66 C58,64.3431458 59.3431458,63 61,63 Z" id="形状结合备份" fill="#5073E5"></path>
                        <path d="M61,77 L88,77 C89.6568542,77 91,78.3431458 91,80 C91,81.6568542 89.6568542,83 88,83 L61,83 C59.3431458,83 58,81.6568542 58,80 C58,78.3431458 59.3431458,77 61,77 Z" id="形状结合备份-35" fill="url(#linearGradient-8)" opacity="0.604724702"></path>
                        <path d="M39.8617875,72.2367875 L42.8625,69.2358625 L42.8625,65.675 C42.8625,65.3229185 43.1479185,65.0375 43.5,65.0375 C43.8520815,65.0375 44.1375,65.3229185 44.1375,65.675 L44.1375,69.5 C44.1375,69.6690617 44.0702752,69.8311859 43.9507125,69.9507125 L40.7632125,73.1382125 C40.6031525,73.3039348 40.3661279,73.370398 40.1432391,73.3120569 C39.9203503,73.2537159 39.7462842,73.0796497 39.6879431,72.8567609 C39.629602,72.6338722 39.6960652,72.3968475 39.8617875,72.2367875 L39.8617875,72.2367875 Z" id="路径" stroke="#FFFFFF" fill="#FFFFFF"></path>
                    </g>
                </g>
            </g>
        </g>
    </g>
</svg>