<?xml version="1.0" encoding="UTF-8"?>
<svg width="125px" height="125px" viewBox="0 0 125 125" version="1.1" xmlns="http://www.w3.org/2000/svg" xmlns:xlink="http://www.w3.org/1999/xlink">
    <title>DropRoles 下拉角色</title>
    <defs>
        <linearGradient x1="50%" y1="45.9685271%" x2="50%" y2="100%" id="linearGradient-1">
            <stop stop-color="#ECF3FB" offset="0%"></stop>
            <stop stop-color="#FFFFFF" offset="100%"></stop>
        </linearGradient>
        <linearGradient x1="50.3956523%" y1="35.9331967%" x2="50%" y2="64.0668033%" id="linearGradient-2">
            <stop stop-color="#E3EFFD" stop-opacity="0.00575352382" offset="0%"></stop>
            <stop stop-color="#E5F0FD" offset="34.0601199%"></stop>
            <stop stop-color="#F0F6FE" offset="100%"></stop>
        </linearGradient>
        <linearGradient x1="33.3333333%" y1="34.495573%" x2="96.9740837%" y2="65.4421891%" id="linearGradient-3">
            <stop stop-color="#D5E6F9" offset="0%"></stop>
            <stop stop-color="#F7FBFF" stop-opacity="0" offset="100%"></stop>
        </linearGradient>
        <linearGradient x1="90.9912104%" y1="29.4309598%" x2="33.3333333%" y2="67.7472684%" id="linearGradient-4">
            <stop stop-color="#D5E6F9" offset="0%"></stop>
            <stop stop-color="#E7F0F9" stop-opacity="0" offset="100%"></stop>
        </linearGradient>
        <linearGradient x1="-5.8027489%" y1="27.0499439%" x2="103.630422%" y2="71.1332543%" id="linearGradient-5">
            <stop stop-color="#CEE6FE" offset="0%"></stop>
            <stop stop-color="#8AB5F2" offset="100%"></stop>
        </linearGradient>
        <linearGradient x1="-5.8027489%" y1="27.0499439%" x2="103.630422%" y2="71.1332543%" id="linearGradient-6">
            <stop stop-color="#BFD6F9" offset="0%"></stop>
            <stop stop-color="#F3F6FE" offset="100%"></stop>
        </linearGradient>
        <linearGradient x1="89.8473889%" y1="61.7348066%" x2="0%" y2="61.7348066%" id="linearGradient-7">
            <stop stop-color="#CAD9F3" offset="0%"></stop>
            <stop stop-color="#D5E3F7" offset="100%"></stop>
        </linearGradient>
        <filter x="-18.5%" y="-60.0%" width="136.9%" height="220.0%" filterUnits="objectBoundingBox" id="filter-8">
            <feGaussianBlur stdDeviation="4" in="SourceGraphic"></feGaussianBlur>
        </filter>
        <linearGradient x1="44.0988019%" y1="55.9709816%" x2="128.792906%" y2="34.7924527%" id="linearGradient-9">
            <stop stop-color="#5073E5" offset="0%"></stop>
            <stop stop-color="#5E7CE0" offset="100%"></stop>
        </linearGradient>
        <linearGradient x1="44.0988019%" y1="83.5658014%" x2="128.792906%" y2="-35.4890449%" id="linearGradient-10">
            <stop stop-color="#5073E5" offset="0%"></stop>
            <stop stop-color="#5E7CE0" offset="100%"></stop>
        </linearGradient>
        <linearGradient x1="44.0988019%" y1="52.6381185%" x2="128.792906%" y2="43.280952%" id="linearGradient-11">
            <stop stop-color="#5073E5" offset="0%"></stop>
            <stop stop-color="#5E7CE0" offset="100%"></stop>
        </linearGradient>
        <linearGradient x1="50%" y1="0%" x2="50%" y2="100%" id="linearGradient-12">
            <stop stop-color="#FFCC00" offset="0%"></stop>
            <stop stop-color="#FF9D00" offset="100%"></stop>
        </linearGradient>
        <linearGradient x1="44.0988019%" y1="78.2496105%" x2="128.792906%" y2="-21.9491901%" id="linearGradient-13">
            <stop stop-color="#5073E5" offset="0%"></stop>
            <stop stop-color="#5E7CE0" offset="100%"></stop>
        </linearGradient>
    </defs>
    <g id="页面一" stroke="none" stroke-width="1" fill="none" fill-rule="evenodd">
        <g id="-TinyUI-Vue-组件总览2" transform="translate(-1869.000000, -609.000000)">
            <g id="编组-25备份-5" transform="translate(1770.000000, 576.000000)">
                <g id="DropRoles-下拉角色" transform="translate(99.000000, 33.000000)">
                    <g id="编组">
                        <g transform="translate(9.000000, 1.000000)" id="多边形">
                            <polygon fill="url(#linearGradient-1)" opacity="0.54620216" points="53.2605623 0 106.521125 30.75 53.2605623 62 0 30.75"></polygon>
                            <polygon fill="url(#linearGradient-2)" points="53.2605623 61.5 106.521125 86.75 53.2605623 118 0 86.75"></polygon>
                            <polygon fill="url(#linearGradient-3)" opacity="0.600606283" points="53.2605623 62 53.2605623 123 7.39138783e-15 92.25 0 30.75"></polygon>
                            <polygon fill="url(#linearGradient-4)" opacity="0.791265578" points="53.2605623 62 106.521125 30.75 106.521125 92.25 53.2605623 123"></polygon>
                            <polygon fill="url(#linearGradient-5)" points="53.2605623 118.007802 53.2605623 123 7.39138783e-15 92.25 0 86.9161706"></polygon>
                            <polygon fill="url(#linearGradient-6)" transform="translate(79.630281, 104.958085) scale(-1, 1) translate(-79.630281, -104.958085) " points="106.260562 118.007802 106.260562 123 53 92.25 53 86.9161706"></polygon>
                        </g>
                        <ellipse id="椭圆形" fill="url(#linearGradient-7)" filter="url(#filter-8)" cx="62.5" cy="90" rx="32.5" ry="10"></ellipse>
                    </g>
                    <g id="编组-5" transform="translate(26.000000, 64.000000)">
                        <path d="M4,0 L73,0 C75.209139,-4.05812251e-16 77,1.790861 77,4 L77,27 C77,29.209139 75.209139,31 73,31 L4,31 C1.790861,31 2.705415e-16,29.209139 0,27 L0,4 C-2.705415e-16,1.790861 1.790861,4.05812251e-16 4,0 Z" id="矩形" fill="url(#linearGradient-9)" opacity="0.204287574"></path>
                        <path d="M27.4800679,14.5801549 C28.6996346,13.5517006 29.4034751,12.0324165 29.4020356,10.431466 C29.4020356,7.43414782 26.9762511,5 23.99689,5 C21.017529,5 18.5979644,7.44040524 18.5979644,10.431466 C18.5979644,12.0959475 19.3443596,13.5852205 20.5199321,14.5801549 C16.1535199,16.0506556 13,20.1868295 13,25.06764 C13,25.5807509 13.4167374,26 13.9267741,26 L34.0732259,26 C34.5832627,26 35,25.5807509 35,25.06764 C34.99378,20.1868295 31.8402601,16.0506555 27.4800679,14.5801549 L27.4800679,14.5801549 Z" id="形状" fill="url(#linearGradient-10)" opacity="0.604724702"></path>
                    </g>
                    <path d="M32,43 L99,43 L99,43 L99,62 L32,62 C29.790861,62 28,60.209139 28,58 L28,47 C28,44.790861 29.790861,43 32,43 Z" id="矩形" fill="url(#linearGradient-11)" opacity="0.204287574"></path>
                    <polygon id="形状结合" fill="url(#linearGradient-12)" transform="translate(82.000000, 51.500000) rotate(-180.000000) translate(-82.000000, -51.500000) " points="76 48 88 48 82 55"></polygon>
                    <path d="M93,62 L32.6428571,62 C30.0786779,62 28,60.6568542 28,59 L28,47 C28,45.3431458 30.0786779,44 32.6428571,44 L93,44 L93,44" id="路径" stroke="#5073E5" stroke-width="4"></path>
                    <path d="M93,44 L96.8051747,44 C99.0143137,44 100.805175,45.3431458 100.805175,47 L100.805175,59 C100.805175,60.6568542 99.0143137,62 96.8051747,62 L93,62 L93,62" id="路径" stroke="#5073E5" stroke-width="4"></path>
                    <path d="M73.6723349,78.6630035 L90.152926,78.6630035 C90.2122669,78.6630035 90.2716078,78.6572868 90.3309488,78.6515701 L90.3363434,78.6515701 C90.3956843,78.6458535 90.4496306,78.6344201 90.5089715,78.6229868 L90.5197608,78.6229868 C90.573707,78.6115534 90.6276533,78.5944034 90.6815996,78.5772534 C90.6869943,78.5772534 90.6923889,78.5715367 90.6977835,78.5715367 C90.7463352,78.5543867 90.7948868,78.53152 90.8434385,78.51437 C90.8488331,78.5086534 90.8596224,78.5086534 90.865017,78.5029367 L90.9944881,78.4343366 L91.0268559,78.4171866 C91.0646183,78.3943199 91.1023807,78.3657366 91.1401431,78.3371532 C91.1509323,78.3257199 91.1617216,78.3200032 91.1725108,78.3085699 C91.2048786,78.2799865 91.242641,78.2514032 91.2750088,78.2228198 C91.2857981,78.2113865 91.2965873,78.2056698 91.3073766,78.1942364 L91.4044799,78.0913364 L91.4206638,78.0741864 L91.431453,78.062753 C91.4638208,78.028453 91.4907939,77.9884363 91.5177671,77.9484196 C91.5231617,77.9369863 91.5285564,77.9312696 91.533951,77.9198362 C91.5609241,77.8798195 91.5878973,77.8398029 91.6094758,77.7940695 C91.6148704,77.7883528 91.620265,77.7769195 91.6256597,77.7712028 C91.6472382,77.7254694 91.6688167,77.6854527 91.6903952,77.6397194 C91.6957898,77.6340027 91.6957898,77.628286 91.7011845,77.6168527 C91.722763,77.5711193 91.7389469,77.525386 91.7551308,77.4739359 C91.7551308,77.4682192 91.7605254,77.4625026 91.7605254,77.4567859 C91.7767093,77.4110525 91.7874985,77.3596025 91.7982878,77.3138691 C91.7982878,77.3081525 91.8036824,77.3024358 91.8036824,77.2910024 C91.8144717,77.2452691 91.8198663,77.1995357 91.8252609,77.1480857 C91.8252609,77.1366523 91.8306556,77.1309357 91.8306556,77.1195023 C91.8360502,77.0737689 91.8414448,77.0280356 91.8414448,76.9880189 L91.8414448,76.9480022 L91.8414448,76.9022688 C91.8414448,76.8736855 91.8360502,76.8451021 91.8360502,76.8165188 L91.8360502,76.7765021 C91.8306556,76.7307687 91.8306556,76.6850353 91.8198663,76.639302 C91.8198663,76.6278686 91.8144717,76.6164353 91.8144717,76.6050019 C91.809077,76.5592686 91.7982878,76.5135352 91.7874985,76.4678018 C91.7874985,76.4563685 91.7821039,76.4449351 91.7821039,76.4392185 C91.7713146,76.3934851 91.7605254,76.3477517 91.7443415,76.307735 C91.7389469,76.2963017 91.7389469,76.2848684 91.7335522,76.273435 C91.7173684,76.2334183 91.7011845,76.187685 91.6850006,76.1476683 C91.679606,76.1362349 91.6742113,76.1248016 91.6688167,76.1076516 C91.6526328,76.0676349 91.6310543,76.0333348 91.6094758,75.9990348 C91.6040812,75.9876015 91.5932919,75.9704515 91.5878973,75.9590181 L91.5231617,75.856118 C91.5123725,75.8446847 91.5015832,75.8275347 91.4961886,75.8161013 C91.4746101,75.7818013 91.4476369,75.753218 91.4206638,75.7189179 L91.388296,75.6846179 C91.3613229,75.6503179 91.3289551,75.6217345 91.2965873,75.5931512 L91.2804034,75.5760012 L86.867597,71.4428481 C86.1770846,70.7968643 85.1197373,70.8654643 84.5101442,71.5971982 C83.9005512,72.3289321 83.9652867,73.4493996 84.6557992,74.0953834 L85.7616981,75.1301008 L73.6723349,75.1301008 C72.7498534,75.1301008 72,75.9247181 72,76.9022688 C72.0053946,77.8741029 72.7498534,78.6630035 73.6723349,78.6630035 L73.6723349,78.6630035 Z M90.2284508,80.721005 L73.7424651,80.721005 C73.7208866,80.721005 73.7047027,80.721005 73.6831242,80.7267217 C73.6615457,80.7267217 73.6345725,80.7267217 73.612994,80.7324383 C73.5806262,80.7324383 73.5482585,80.738155 73.5104961,80.7438717 C73.4889176,80.7495884 73.4727337,80.7495884 73.4511552,80.755305 C73.4187874,80.7610217 73.381025,80.7667384 73.3486572,80.7781717 C73.3324733,80.7838884 73.3108948,80.789605 73.2947109,80.7953217 C73.2623431,80.8067551 73.2245807,80.8181884 73.192213,80.8296217 C73.1760291,80.8353384 73.1544506,80.8410551 73.1382667,80.8524884 C73.1058989,80.8639218 73.0735311,80.8810718 73.0411634,80.8925051 C73.0249795,80.9039385 73.003401,80.9096551 72.9872171,80.9210885 C72.9602439,80.9382385 72.9278762,80.9553885 72.900903,80.9725385 C72.8793245,80.9839719 72.8631406,80.9954052 72.8469567,81.0068385 C72.8199836,81.0239886 72.7930104,81.0468552 72.7660373,81.0640053 C72.7498534,81.0754386 72.7282749,81.0925886 72.712091,81.1040219 C72.6851179,81.1268886 72.6581447,81.1497553 72.6365662,81.172622 C72.6203823,81.1840553 72.6041984,81.2012054 72.5934092,81.2183554 C72.566436,81.2469387 72.5394629,81.2755221 72.5178844,81.3041054 C72.5124897,81.3155388 72.5017005,81.3212554 72.4963059,81.3326888 C72.4909112,81.3384055 72.4909112,81.3441221 72.4855166,81.3498388 C72.4585435,81.3784222 72.4369649,81.4127222 72.4153864,81.4470222 C72.4045972,81.4641722 72.3938079,81.4756056 72.3830186,81.4927556 C72.3614401,81.5270556 72.3398616,81.555639 72.3236777,81.589939 C72.3128885,81.607089 72.3020992,81.624239 72.2967046,81.641389 L72.2481529,81.7442891 C72.2373637,81.7614391 72.231969,81.7785891 72.2211798,81.8014558 C72.2049959,81.8357558 72.1942066,81.8700559 72.1834174,81.9043559 C72.1780228,81.9215059 72.1672335,81.9443726 72.1618389,81.9615226 C72.1510496,81.9958226 72.145655,82.0301226 72.1348657,82.0644227 L72.1186818,82.1330227 C72.1132872,82.1673227 72.1078926,82.1959061 72.1024979,82.2302061 C72.0971033,82.2530728 72.0917087,82.2816562 72.0917087,82.3045228 C72.0863141,82.3331062 72.0863141,82.3674062 72.0863141,82.3959896 C72.0863141,82.4245729 72.0809194,82.4531563 72.0809194,82.4817396 L72.0809194,82.5732064 C72.0809194,82.6017897 72.0809194,82.6303731 72.0863141,82.6589564 C72.0863141,82.6875398 72.0917087,82.7218398 72.0971033,82.7504232 C72.1024979,82.7790065 72.1024979,82.8018732 72.1078926,82.8304566 C72.1132872,82.8647566 72.1186818,82.8933399 72.1240765,82.9219233 C72.1294711,82.94479 72.1348657,82.9733733 72.1402603,82.99624 C72.1510496,83.0248234 72.1564442,83.0591234 72.1672335,83.0877068 C72.1780228,83.1105734 72.1834174,83.1391568 72.1942066,83.1620235 C72.2049959,83.1906068 72.2157852,83.2191902 72.2265744,83.2420569 C72.2373637,83.2706402 72.2481529,83.2935069 72.2643368,83.3220903 C72.2751261,83.3449569 72.2859153,83.3678236 72.3020992,83.3906903 C72.3182831,83.4192737 72.334467,83.4421404 72.3506509,83.4707237 C72.3614401,83.4935904 72.377624,83.5107404 72.3884133,83.5336071 C72.4045972,83.5621904 72.4261757,83.5850571 72.4423596,83.6136405 C72.4585435,83.6365072 72.4747273,83.6536572 72.4909112,83.6765239 C72.5124897,83.6993905 72.5286736,83.7222572 72.5502521,83.7451239 C72.566436,83.7679906 72.5880145,83.7851406 72.6095931,83.8080073 L72.6473555,83.848024 L77.0601618,87.9811771 C77.3676557,88.2670106 77.7614636,88.4270774 78.1660607,88.4270774 C78.6461827,88.4270774 79.0993315,88.2098439 79.4176146,87.826827 C80.0272077,87.0950931 79.9624721,85.9746256 79.2719597,85.3286418 L78.1606661,84.265341 L90.2284508,84.265341 C91.1509323,84.265341 91.9007857,83.4707237 91.9007857,82.493173 C91.9007857,81.5156223 91.1509323,80.721005 90.2284508,80.721005 L90.2284508,80.721005 Z" id="形状" fill="url(#linearGradient-13)" opacity="0.303770519"></path>
                </g>
            </g>
        </g>
    </g>
</svg>