<?xml version="1.0" encoding="UTF-8"?>
<svg width="125px" height="125px" viewBox="0 0 125 125" version="1.1" xmlns="http://www.w3.org/2000/svg" xmlns:xlink="http://www.w3.org/1999/xlink">
    <title>Dropdown 下拉菜单</title>
    <defs>
        <linearGradient x1="44.0988019%" y1="60.2922698%" x2="128.792906%" y2="23.7865245%" id="linearGradient-1">
            <stop stop-color="#5073E5" offset="0%"></stop>
            <stop stop-color="#5E7CE0" offset="100%"></stop>
        </linearGradient>
        <linearGradient x1="44.0988019%" y1="54.77429%" x2="128.792906%" y2="37.8403174%" id="linearGradient-2">
            <stop stop-color="#5073E5" offset="0%"></stop>
            <stop stop-color="#5E7CE0" offset="100%"></stop>
        </linearGradient>
        <linearGradient x1="50%" y1="0%" x2="50%" y2="100%" id="linearGradient-3">
            <stop stop-color="#FFCC00" offset="0%"></stop>
            <stop stop-color="#FF9D00" offset="100%"></stop>
        </linearGradient>
        <polygon id="path-4" points="86 37 98 37 92 44"></polygon>
        <filter x="-29.2%" y="-35.7%" width="158.3%" height="200.0%" filterUnits="objectBoundingBox" id="filter-5">
            <feOffset dx="0" dy="1" in="SourceAlpha" result="shadowOffsetOuter1"></feOffset>
            <feMorphology radius="4.0839988" operator="erode" in="SourceAlpha" result="shadowInner"></feMorphology>
            <feOffset dx="0" dy="1" in="shadowInner" result="shadowInner"></feOffset>
            <feComposite in="shadowOffsetOuter1" in2="shadowInner" operator="out" result="shadowOffsetOuter1"></feComposite>
            <feGaussianBlur stdDeviation="1" in="shadowOffsetOuter1" result="shadowBlurOuter1"></feGaussianBlur>
            <feColorMatrix values="0 0 0 0 0.661752894   0 0 0 0 0.324547702   0 0 0 0 0.00489962574  0 0 0 0.5 0" type="matrix" in="shadowBlurOuter1"></feColorMatrix>
        </filter>
        <filter x="-45.8%" y="-64.3%" width="191.7%" height="257.1%" filterUnits="objectBoundingBox" id="filter-6">
            <feGaussianBlur stdDeviation="1.5" in="SourceAlpha" result="shadowBlurInner1"></feGaussianBlur>
            <feOffset dx="0" dy="-4" in="shadowBlurInner1" result="shadowOffsetInner1"></feOffset>
            <feComposite in="shadowOffsetInner1" in2="SourceAlpha" operator="arithmetic" k2="-1" k3="1" result="shadowInnerInner1"></feComposite>
            <feColorMatrix values="0 0 0 0 0.841553619   0 0 0 0 0.341832308   0 0 0 0 0  0 0 0 0.5 0" type="matrix" in="shadowInnerInner1"></feColorMatrix>
        </filter>
        <linearGradient x1="44.0988019%" y1="50.4228927%" x2="128.792906%" y2="48.9229306%" id="linearGradient-7">
            <stop stop-color="#5073E5" offset="0%"></stop>
            <stop stop-color="#5E7CE0" offset="100%"></stop>
        </linearGradient>
    </defs>
    <g id="Tiny-Vue" stroke="none" stroke-width="1" fill="none" fill-rule="evenodd">
        <g id="-TinyUI-Vue-组件总览1" transform="translate(-1087.000000, -1210.000000)">
            <g id="组件" transform="translate(596.000000, 311.000000)">
                <g id="编组-37" transform="translate(393.000000, 866.000000)">
                    <g id="Dropdown-下拉菜单" transform="translate(98.000000, 33.000000)">
                        <g id="编组"></g>
                        <path d="M30,55 L96,55 C97.1045695,55 98,55.8954305 98,57 L98,90 C98,91.1045695 97.1045695,92 96,92 L30,92 C28.8954305,92 28,91.1045695 28,90 L28,57 C28,55.8954305 28.8954305,55 30,55 Z" id="矩形" fill="url(#linearGradient-1)" opacity="0.303770519"></path>
                        <rect id="矩形-2" fill="url(#linearGradient-2)" x="28" y="31" width="50" height="18" rx="2"></rect>
                        <g id="形状结合" transform="translate(92.000000, 40.500000) rotate(-180.000000) translate(-92.000000, -40.500000) ">
                            <use fill="black" fill-opacity="1" filter="url(#filter-5)" xlink:href="#path-4"></use>
                            <use fill="black" fill-opacity="1" filter="url(#filter-6)" xlink:href="#path-4"></use>
                            <path stroke="url(#linearGradient-3)" stroke-width="4.0839988" d="M93.5602428,39.0419994 L92,40.8622826 L90.4397572,39.0419994 L93.5602428,39.0419994 Z" stroke-linejoin="square"></path>
                        </g>
                        <path d="M38,63 L87.8417185,63 C89.4985727,63 90.8417185,64.3431458 90.8417185,66 C90.8417185,67.6568542 89.4985727,69 87.8417185,69 L38,69 C36.3431458,69 35,67.6568542 35,66 C35,64.3431458 36.3431458,63 38,63 Z" id="形状结合备份" fill="#5073E5"></path>
                        <path d="M38,77 L88,77 C89.6568542,77 91,78.3431458 91,80 C91,81.6568542 89.6568542,83 88,83 L38,83 C36.3431458,83 35,81.6568542 35,80 C35,78.3431458 36.3431458,77 38,77 Z" id="形状结合备份-35" fill="url(#linearGradient-7)" opacity="0.604724702"></path>
                    </g>
                </g>
            </g>
        </g>
    </g>
</svg>