<?xml version="1.0" encoding="UTF-8"?>
<svg width="125px" height="125px" viewBox="0 0 125 125" version="1.1" xmlns="http://www.w3.org/2000/svg" xmlns:xlink="http://www.w3.org/1999/xlink">
    <title>瀑布菜单 fall-menu</title>
    <defs>
        <linearGradient x1="44.0988019%" y1="67.6563979%" x2="128.792906%" y2="5.0307596%" id="linearGradient-1">
            <stop stop-color="#5073E5" offset="0%"></stop>
            <stop stop-color="#5E7CE0" offset="100%"></stop>
        </linearGradient>
        <linearGradient x1="44.0988019%" y1="50.255824%" x2="128.792906%" y2="49.3484395%" id="linearGradient-2">
            <stop stop-color="#5073E5" offset="0%"></stop>
            <stop stop-color="#5E7CE0" offset="100%"></stop>
        </linearGradient>
        <linearGradient x1="44.0988019%" y1="51.1867812%" x2="128.792906%" y2="46.9773762%" id="linearGradient-3">
            <stop stop-color="#5073E5" offset="0%"></stop>
            <stop stop-color="#5E7CE0" offset="100%"></stop>
        </linearGradient>
        <path d="M2,0 L74,0 C75.1045695,-2.02906125e-16 76,0.8954305 76,2 L76,18 C76,19.1045695 75.1045695,20 74,20 L2,20 C0.8954305,20 1.3527075e-16,19.1045695 0,18 L0,2 C-1.3527075e-16,0.8954305 0.8954305,2.02906125e-16 2,0 Z" id="path-4"></path>
        <filter x="-5.3%" y="-10.0%" width="110.5%" height="140.0%" filterUnits="objectBoundingBox" id="filter-5">
            <feOffset dx="0" dy="2" in="SourceAlpha" result="shadowOffsetOuter1"></feOffset>
            <feGaussianBlur stdDeviation="1" in="shadowOffsetOuter1" result="shadowBlurOuter1"></feGaussianBlur>
            <feColorMatrix values="0 0 0 0 0.368627451   0 0 0 0 0.48627451   0 0 0 0 0.878431373  0 0 0 0.349865467 0" type="matrix" in="shadowBlurOuter1"></feColorMatrix>
        </filter>
    </defs>
    <g id="组件总览" stroke="none" stroke-width="1" fill="none" fill-rule="evenodd">
        <g id="-TinyUI-Vue-组件总览1" transform="translate(-696.000000, -661.000000)">
            <g id="编组-25备份" transform="translate(598.000000, 627.000000)">
                <g id="Nav顶部导航" transform="translate(98.000000, 34.000000)">
                    <g id="编组"></g>
                    <g id="编组-3" transform="translate(25.000000, 36.000000)">
                        <rect id="矩形备份-6" fill="url(#linearGradient-1)" opacity="0.204287574" x="8" y="10" width="65" height="45" rx="4"></rect>
                        <path d="M18,28 L62,28 C63.1045695,28 64,28.8954305 64,30 C64,31.1045695 63.1045695,32 62,32 L18,32 C16.8954305,32 16,31.1045695 16,30 C16,28.8954305 16.8954305,28 18,28 Z" id="形状结合备份" fill="url(#linearGradient-2)" opacity="0.604724702"></path>
                        <path d="M18,41 L36,41 C37.1045695,41 38,41.8954305 38,43 C38,44.1045695 37.1045695,45 36,45 L18,45 C16.8954305,45 16,44.1045695 16,43 C16,41.8954305 16.8954305,41 18,41 Z" id="形状结合备份-17" fill="url(#linearGradient-3)" opacity="0.604724702"></path>
                        <g id="形状结合备份">
                            <use fill="black" fill-opacity="1" filter="url(#filter-5)" xlink:href="#path-4"></use>
                            <use fill="#5073E5" fill-rule="evenodd" xlink:href="#path-4"></use>
                        </g>
                        <path d="M10,6 L22,6 C23.1045695,6 24,6.8954305 24,8 L24,12 C24,13.1045695 23.1045695,14 22,14 L10,14 C8.8954305,14 8,13.1045695 8,12 L8,8 C8,6.8954305 8.8954305,6 10,6 Z" id="矩形备份-27" fill="#FFFFFF"></path>
                        <path d="M32,6 L44,6 C45.1045695,6 46,6.8954305 46,8 L46,12 C46,13.1045695 45.1045695,14 44,14 L32,14 C30.8954305,14 30,13.1045695 30,12 L30,8 C30,6.8954305 30.8954305,6 32,6 Z" id="矩形备份-28" fill="#FFFFFF" opacity="0.801619757"></path>
                    </g>
                </g>
            </g>
        </g>
    </g>
</svg>