<?xml version="1.0" encoding="UTF-8"?>
<svg width="125px" height="125px" viewBox="0 0 125 125" version="1.1" xmlns="http://www.w3.org/2000/svg" xmlns:xlink="http://www.w3.org/1999/xlink">
    <title>浮动块 floatbar</title>
    <defs>
        <linearGradient x1="44.0988019%" y1="86.8386573%" x2="128.792906%" y2="-43.8247114%" id="linearGradient-1">
            <stop stop-color="#5073E5" offset="0%"></stop>
            <stop stop-color="#5E7CE0" offset="100%"></stop>
        </linearGradient>
        <linearGradient x1="44.0988019%" y1="86.8386573%" x2="128.792906%" y2="-43.8247114%" id="linearGradient-2">
            <stop stop-color="#5073E5" offset="0%"></stop>
            <stop stop-color="#5E7CE0" offset="100%"></stop>
        </linearGradient>
    </defs>
    <g id="组件总览" stroke="none" stroke-width="1" fill="none" fill-rule="evenodd">
        <g id="-TinyUI-Vue-组件总览1" transform="translate(-1088.000000, -660.000000)">
            <g id="编组-25备份-4" transform="translate(989.000000, 627.000000)">
                <g id="浮动块-floatbar" transform="translate(99.000000, 33.000000)">
                    <g id="编组"></g>
                    <g id="三固定" transform="translate(31.000000, 32.000000)">
                        <rect id="矩形" fill="url(#linearGradient-1)" opacity="0.204287574" x="0" y="0" width="46" height="46" rx="4"></rect>
                        <rect id="矩形" fill="url(#linearGradient-2)" x="11" y="12" width="46" height="46" rx="4"></rect>
                        <g id="编组-4" transform="translate(21.000000, 22.000000)">
                            <path d="M25.9680818,24.1344744 L19.3842376,17.5514611 L17.556198,19.37927 L24.1429439,25.9622833 L26,26 L25.9680818,24.1344744 Z M21.1339326,9.14063895 L18.1597412,8.77217589 L9.13560911,0.51222047 C8.40439326,-0.184087679 7.22922493,-0.166679975 6.52122229,0.54123331 L0.543822902,6.51497697 C-0.169983044,7.22869282 -0.181589645,8.40371282 0.51190475,9.1319351 L8.77580448,18.1578295 L9.14431406,21.1316455 C9.14431406,23.2989046 10.7431233,24.1692898 12.2780963,22.6316093 L22.6340858,12.2769269 C24.1719604,10.7392464 23.304367,9.14063895 21.1339326,9.14063895 Z" id="形状" fill="#FFFFFF" transform="translate(13.000000, 13.000000) scale(-1, 1) translate(-13.000000, -13.000000) "></path>
                            <path d="M22.1840186,16.0311883 C22.0128213,16.0311883 21.8532305,15.9644588 21.7284595,15.8426049 L14.3582681,8.46463979 C14.1145294,8.22093193 14.1087261,7.8118509 14.3524648,7.56524176 L15.6204859,6.25966398 C15.7423552,6.13200749 15.901946,6.06527796 16.0818483,6.06527796 C16.2472423,6.06527796 16.4068331,6.13200749 16.5258007,6.24805885 C16.6505717,6.3641102 16.714408,6.52658211 16.723113,6.69485657 C16.7260146,6.86603233 16.6621783,7.02850423 16.540309,7.15325944 L15.7133387,8.00333564 L22.636676,14.9374043 C22.886218,15.1869147 22.8833163,15.5930945 22.636676,15.8455062 C22.5148067,15.9673601 22.355216,16.0311883 22.1840186,16.0311883 Z" id="路径" fill="#5274E5" transform="translate(18.497641, 11.048233) scale(-1, 1) translate(-18.497641, -11.048233) "></path>
                        </g>
                    </g>
                </g>
            </g>
        </g>
    </g>
</svg>