<?xml version="1.0" encoding="UTF-8"?>
<svg width="125px" height="125px" viewBox="0 0 125 125" version="1.1" xmlns="http://www.w3.org/2000/svg" xmlns:xlink="http://www.w3.org/1999/xlink">
    <title>字体 font</title>
    <defs>
        <linearGradient x1="44.0988019%" y1="86.8386573%" x2="128.792906%" y2="-43.8247114%" id="linearGradient-1">
            <stop stop-color="#5073E5" offset="0%"></stop>
            <stop stop-color="#5E7CE0" offset="100%"></stop>
        </linearGradient>
        <linearGradient x1="44.0988019%" y1="75.0733111%" x2="128.792906%" y2="-13.8594442%" id="linearGradient-2">
            <stop stop-color="#5073E5" offset="0%"></stop>
            <stop stop-color="#5E7CE0" offset="100%"></stop>
        </linearGradient>
        <linearGradient x1="44.0988019%" y1="75.0733111%" x2="128.792906%" y2="-13.8594442%" id="linearGradient-3">
            <stop stop-color="#5073E5" offset="0%"></stop>
            <stop stop-color="#5E7CE0" offset="100%"></stop>
        </linearGradient>
    </defs>
    <g id="组件总览" stroke="none" stroke-width="1" fill="none" fill-rule="evenodd">
        <g id="-TinyUI-Vue-组件总览1" transform="translate(-1479.000000, -385.000000)">
            <g id="编组-25备份-2" transform="translate(1380.000000, 352.000000)">
                <g id="字体-font" transform="translate(99.000000, 33.000000)">
                    <g id="编组"></g>
                    <rect id="矩形" fill="url(#linearGradient-1)" opacity="0.204287574" x="31" y="31" width="62" height="62" rx="4"></rect>
                    <path d="M46.8119658,64.2010309 L56.3846154,64.2010309 L58.9487179,72.1958763 L62.5384615,72.1958763 L53.4786325,46 L49.8888889,46 L41,72.1958763 L44.4188034,72.1958763 L46.8119658,64.2010309 Z M48.8632479,57.5670103 C49.7179487,54.6752577 50.5726496,51.7835052 51.4273504,48.7216495 L51.5982906,48.7216495 C52.4529915,51.7835052 53.3076923,54.6752577 54.1623932,57.5670103 L55.3589744,61.4793814 L47.6666667,61.4793814 L48.8632479,57.5670103 L48.8632479,57.5670103 Z M65.6153846,67.0927835 C65.6153846,70.6649485 68.008547,72.5360825 71.2564103,72.5360825 C73.6495726,72.5360825 75.8717949,71.3453608 77.7521368,69.814433 L77.9230769,69.814433 L78.2649573,72.1958763 L81,72.1958763 L81,60.2886598 C81,55.5257732 78.9487179,52.2938144 74.3333333,52.2938144 C71.2564103,52.2938144 68.5213675,53.6546392 66.6410256,54.8453608 L68.008547,57.056701 C69.5470085,56.0360825 71.5982906,55.0154639 73.8205128,55.0154639 C77.0683761,55.0154639 77.7521368,57.3969072 77.7521368,59.9484536 C69.2051282,60.7989691 65.6153846,63.0103093 65.6153846,67.0927835 L65.6153846,67.0927835 Z M77.4102564,61.9896907 L77.4102564,67.4329897 C75.5299145,69.1340206 73.991453,69.9845361 72.1111111,69.9845361 C70.2307692,69.9845361 68.6923077,69.1340206 68.6923077,66.9226804 C68.6923077,64.371134 70.9145299,62.8402062 77.4102564,61.9896907 Z M41,75.5979381 L80.6581197,75.5979381 L80.6581197,79 L41,79 L41,75.5979381 Z" id="形状" stroke="url(#linearGradient-3)" stroke-width="1.5" fill="url(#linearGradient-2)"></path>
                </g>
            </g>
        </g>
    </g>
</svg>