<?xml version="1.0" encoding="UTF-8"?>
<svg width="125px" height="125px" viewBox="0 0 125 125" version="1.1" xmlns="http://www.w3.org/2000/svg" xmlns:xlink="http://www.w3.org/1999/xlink">
    <title>Formfield 表单布局</title>
    <defs>
        <linearGradient x1="44.0988019%" y1="72.2851137%" x2="128.792906%" y2="-6.75815877%" id="linearGradient-1">
            <stop stop-color="#5073E5" offset="0%"></stop>
            <stop stop-color="#5E7CE0" offset="100%"></stop>
        </linearGradient>
        <linearGradient x1="44.0988019%" y1="53.8559494%" x2="128.792906%" y2="40.1792473%" id="linearGradient-2">
            <stop stop-color="#5073E5" offset="0%"></stop>
            <stop stop-color="#5E7CE0" offset="100%"></stop>
        </linearGradient>
        <path d="M11,23 L18,23 C19.1045695,23 20,23.8954305 20,25 L20,32 C20,33.1045695 19.1045695,34 18,34 L11,34 C9.8954305,34 9,33.1045695 9,32 L9,25 C9,23.8954305 9.8954305,23 11,23 Z" id="path-3"></path>
        <filter x="-36.4%" y="-18.2%" width="172.7%" height="172.7%" filterUnits="objectBoundingBox" id="filter-4">
            <feOffset dx="0" dy="2" in="SourceAlpha" result="shadowOffsetOuter1"></feOffset>
            <feGaussianBlur stdDeviation="1" in="shadowOffsetOuter1" result="shadowBlurOuter1"></feGaussianBlur>
            <feColorMatrix values="0 0 0 0 0.368627451   0 0 0 0 0.48627451   0 0 0 0 0.878431373  0 0 0 0.349865467 0" type="matrix" in="shadowBlurOuter1"></feColorMatrix>
        </filter>
        <linearGradient x1="44.0988019%" y1="58.4262335%" x2="128.792906%" y2="28.5391492%" id="linearGradient-5">
            <stop stop-color="#5073E5" offset="0%"></stop>
            <stop stop-color="#5E7CE0" offset="100%"></stop>
        </linearGradient>
        <path d="M11,39 L18,39 C19.1045695,39 20,39.8954305 20,41 L20,48 C20,49.1045695 19.1045695,50 18,50 L11,50 C9.8954305,50 9,49.1045695 9,48 L9,41 C9,39.8954305 9.8954305,39 11,39 Z" id="path-6"></path>
        <filter x="-36.4%" y="-18.2%" width="172.7%" height="172.7%" filterUnits="objectBoundingBox" id="filter-7">
            <feOffset dx="0" dy="2" in="SourceAlpha" result="shadowOffsetOuter1"></feOffset>
            <feGaussianBlur stdDeviation="1" in="shadowOffsetOuter1" result="shadowBlurOuter1"></feGaussianBlur>
            <feColorMatrix values="0 0 0 0 0.368627451   0 0 0 0 0.48627451   0 0 0 0 0.878431373  0 0 0 0.349865467 0" type="matrix" in="shadowBlurOuter1"></feColorMatrix>
        </filter>
        <linearGradient x1="44.0988019%" y1="53.0072373%" x2="128.792906%" y2="42.3408399%" id="linearGradient-8">
            <stop stop-color="#5073E5" offset="0%"></stop>
            <stop stop-color="#5E7CE0" offset="100%"></stop>
        </linearGradient>
        <linearGradient x1="44.0988019%" y1="53.0072373%" x2="128.792906%" y2="42.3408399%" id="linearGradient-9">
            <stop stop-color="#5073E5" offset="0%"></stop>
            <stop stop-color="#5E7CE0" offset="100%"></stop>
        </linearGradient>
        <linearGradient x1="50%" y1="0%" x2="50%" y2="100%" id="linearGradient-10">
            <stop stop-color="#FFCC00" offset="0%"></stop>
            <stop stop-color="#FF9D00" offset="100%"></stop>
        </linearGradient>
        <polygon id="path-11" points="53 6 65 6 59 13"></polygon>
        <filter x="-29.2%" y="-35.7%" width="158.3%" height="200.0%" filterUnits="objectBoundingBox" id="filter-12">
            <feOffset dx="0" dy="1" in="SourceAlpha" result="shadowOffsetOuter1"></feOffset>
            <feMorphology radius="4" operator="erode" in="SourceAlpha" result="shadowInner"></feMorphology>
            <feOffset dx="0" dy="1" in="shadowInner" result="shadowInner"></feOffset>
            <feComposite in="shadowOffsetOuter1" in2="shadowInner" operator="out" result="shadowOffsetOuter1"></feComposite>
            <feGaussianBlur stdDeviation="1" in="shadowOffsetOuter1" result="shadowBlurOuter1"></feGaussianBlur>
            <feColorMatrix values="0 0 0 0 0.661752894   0 0 0 0 0.324547702   0 0 0 0 0.00489962574  0 0 0 0.5 0" type="matrix" in="shadowBlurOuter1"></feColorMatrix>
        </filter>
        <filter x="-45.8%" y="-64.3%" width="191.7%" height="257.1%" filterUnits="objectBoundingBox" id="filter-13">
            <feGaussianBlur stdDeviation="1.5" in="SourceAlpha" result="shadowBlurInner1"></feGaussianBlur>
            <feOffset dx="0" dy="-4" in="shadowBlurInner1" result="shadowOffsetInner1"></feOffset>
            <feComposite in="shadowOffsetInner1" in2="SourceAlpha" operator="arithmetic" k2="-1" k3="1" result="shadowInnerInner1"></feComposite>
            <feColorMatrix values="0 0 0 0 0.841553619   0 0 0 0 0.341832308   0 0 0 0 0  0 0 0 0.5 0" type="matrix" in="shadowInnerInner1"></feColorMatrix>
        </filter>
        <path d="M101.212874,87 C101.765158,87 102.212874,87.4477153 102.212874,88 C102.212874,88.2829303 102.093022,88.5526192 101.883024,88.7422251 L95.2612268,94.721006 C94.8513072,95.09112 94.2189651,95.0588511 93.8488511,94.6489314 C93.682927,94.4651622 93.5910762,94.2263731 93.5910762,93.9787808 L93.591,91.023 L58,91.023329 C56.8954305,91.023329 56,90.1278985 56,89.023329 C56,87.9187595 56.8954305,87.023329 58,87.023329 L93.591,87.023 L93.5910762,87 L101.212874,87 Z" id="path-14"></path>
        <filter x="-8.7%" y="-25.1%" width="117.3%" height="200.3%" filterUnits="objectBoundingBox" id="filter-15">
            <feOffset dx="0" dy="2" in="SourceAlpha" result="shadowOffsetOuter1"></feOffset>
            <feGaussianBlur stdDeviation="1" in="shadowOffsetOuter1" result="shadowBlurOuter1"></feGaussianBlur>
            <feColorMatrix values="0 0 0 0 0.368627451   0 0 0 0 0.48627451   0 0 0 0 0.878431373  0 0 0 0.349865467 0" type="matrix" in="shadowBlurOuter1"></feColorMatrix>
        </filter>
        <path d="M47.2128736,50 C47.7651583,50 48.2128736,50.4477153 48.2128736,51 C48.2128736,51.2829303 48.0930222,51.5526192 47.8830242,51.7422251 L41.2612268,57.721006 C40.8513072,58.09112 40.2189651,58.0588511 39.8488511,57.6489314 C39.682927,57.4651622 39.5910762,57.2263731 39.5910762,56.9787808 L39.591,54.023 L4,54.023329 C2.8954305,54.023329 2,53.1278985 2,52.023329 C2,50.9187595 2.8954305,50.023329 4,50.023329 L39.591,50.023 L39.5910762,50 L47.2128736,50 Z" id="path-16"></path>
        <filter x="-8.7%" y="-25.1%" width="117.3%" height="200.3%" filterUnits="objectBoundingBox" id="filter-17">
            <feOffset dx="0" dy="2" in="SourceAlpha" result="shadowOffsetOuter1"></feOffset>
            <feGaussianBlur stdDeviation="1" in="shadowOffsetOuter1" result="shadowBlurOuter1"></feGaussianBlur>
            <feColorMatrix values="0 0 0 0 0.368627451   0 0 0 0 0.48627451   0 0 0 0 0.878431373  0 0 0 0.349865467 0" type="matrix" in="shadowBlurOuter1"></feColorMatrix>
        </filter>
    </defs>
    <g id="组件总览" stroke="none" stroke-width="1" fill="none" fill-rule="evenodd">
        <g id="-TinyUI-Ng-组件总览-1" transform="translate(-1089.000000, -2670.000000)">
            <g id="Formfield-表单布局" transform="translate(1089.000000, 2670.000000)">
                <g id="编组"></g>
                <g id="编组-3" transform="translate(27.000000, 34.000000)">
                    <rect id="矩形备份-6" fill="url(#linearGradient-1)" opacity="0.204287574" x="0" y="0" width="72" height="56" rx="4"></rect>
                    <path d="M28,23 L58,23 C59.1045695,23 60,23.8954305 60,25 L60,32 C60,33.1045695 59.1045695,34 58,34 L28,34 C26.8954305,34 26,33.1045695 26,32 L26,25 C26,23.8954305 26.8954305,23 28,23 Z" id="形状结合备份-6" fill="url(#linearGradient-2)" opacity="0.303770519"></path>
                    <g id="形状结合备份-28">
                        <use fill="black" fill-opacity="1" filter="url(#filter-4)" xlink:href="#path-3"></use>
                        <use fill="#5073E5" fill-rule="evenodd" xlink:href="#path-3"></use>
                    </g>
                    <path d="M28,39 L47,39 C48.1045695,39 49,39.8954305 49,41 L49,48 C49,49.1045695 48.1045695,50 47,50 L28,50 C26.8954305,50 26,49.1045695 26,48 L26,41 C26,39.8954305 26.8954305,39 28,39 Z" id="形状结合备份-7" fill="url(#linearGradient-5)" opacity="0.303770519"></path>
                    <g id="形状结合备份-29">
                        <use fill="black" fill-opacity="1" filter="url(#filter-7)" xlink:href="#path-6"></use>
                        <use fill="#5073E5" fill-rule="evenodd" xlink:href="#path-6"></use>
                    </g>
                    <rect id="矩形" stroke="url(#linearGradient-9)" fill="url(#linearGradient-8)" x="9" y="0" width="63" height="18" rx="4"></rect>
                    <g id="形状结合">
                        <use fill="black" fill-opacity="1" filter="url(#filter-12)" xlink:href="#path-11"></use>
                        <use fill="black" fill-opacity="1" filter="url(#filter-13)" xlink:href="#path-11"></use>
                        <path stroke="url(#linearGradient-10)" stroke-width="4" d="M60.6515587,8 L59,9.92681851 L57.3484413,8 L60.6515587,8 Z" stroke-linejoin="square"></path>
                    </g>
                </g>
                <g id="形状结合">
                    <use fill="black" fill-opacity="1" filter="url(#filter-15)" xlink:href="#path-14"></use>
                    <use fill="#5073E5" fill-rule="evenodd" xlink:href="#path-14"></use>
                </g>
                <g id="形状结合备份-11" transform="translate(25.106437, 53.989394) scale(-1, 1) rotate(-90.000000) translate(-25.106437, -53.989394) ">
                    <use fill="black" fill-opacity="1" filter="url(#filter-17)" xlink:href="#path-16"></use>
                    <use fill="#5073E5" fill-rule="evenodd" xlink:href="#path-16"></use>
                </g>
            </g>
        </g>
    </g>
</svg>