<?xml version="1.0" encoding="UTF-8"?>
<svg width="125px" height="125px" viewBox="0 0 125 125" version="1.1" xmlns="http://www.w3.org/2000/svg" xmlns:xlink="http://www.w3.org/1999/xlink">
    <title>Fullscreen 全屏显示</title>
    <defs>
        <linearGradient x1="50%" y1="45.9685271%" x2="50%" y2="100%" id="linearGradient-1">
            <stop stop-color="#ECF3FB" offset="0%"></stop>
            <stop stop-color="#FFFFFF" offset="100%"></stop>
        </linearGradient>
        <linearGradient x1="50.3956523%" y1="35.9331967%" x2="50%" y2="64.0668033%" id="linearGradient-2">
            <stop stop-color="#E3EFFD" stop-opacity="0.00575352382" offset="0%"></stop>
            <stop stop-color="#E5F0FD" offset="34.0601199%"></stop>
            <stop stop-color="#F0F6FE" offset="100%"></stop>
        </linearGradient>
        <linearGradient x1="33.3333333%" y1="34.495573%" x2="96.9740837%" y2="65.4421891%" id="linearGradient-3">
            <stop stop-color="#D5E6F9" offset="0%"></stop>
            <stop stop-color="#F7FBFF" stop-opacity="0" offset="100%"></stop>
        </linearGradient>
        <linearGradient x1="90.9912104%" y1="29.4309598%" x2="33.3333333%" y2="67.7472684%" id="linearGradient-4">
            <stop stop-color="#D5E6F9" offset="0%"></stop>
            <stop stop-color="#E7F0F9" stop-opacity="0" offset="100%"></stop>
        </linearGradient>
        <linearGradient x1="-5.8027489%" y1="27.0499439%" x2="103.630422%" y2="71.1332543%" id="linearGradient-5">
            <stop stop-color="#CEE6FE" offset="0%"></stop>
            <stop stop-color="#8AB5F2" offset="100%"></stop>
        </linearGradient>
        <linearGradient x1="-5.8027489%" y1="27.0499439%" x2="103.630422%" y2="71.1332543%" id="linearGradient-6">
            <stop stop-color="#BFD6F9" offset="0%"></stop>
            <stop stop-color="#F3F6FE" offset="100%"></stop>
        </linearGradient>
        <linearGradient x1="89.8473889%" y1="61.7348066%" x2="0%" y2="61.7348066%" id="linearGradient-7">
            <stop stop-color="#CAD9F3" offset="0%"></stop>
            <stop stop-color="#D5E3F7" offset="100%"></stop>
        </linearGradient>
        <filter x="-18.5%" y="-60.0%" width="136.9%" height="220.0%" filterUnits="objectBoundingBox" id="filter-8">
            <feGaussianBlur stdDeviation="4" in="SourceGraphic"></feGaussianBlur>
        </filter>
        <path d="M0,4 L0,44.3057894 L0,44.3057894 C0,46.3507988 1.53949258,48 3.43130685,48 L44.5686932,48 C46.4605074,48 48,46.3507988 48,44.3057894 L48,4 C48,1.790861 46.209139,-4.05812251e-16 44,0 L4,0 C1.790861,4.05812251e-16 -2.705415e-16,1.790861 0,4 Z" id="path-9"></path>
        <filter x="-4.2%" y="-2.1%" width="108.3%" height="108.3%" filterUnits="objectBoundingBox" id="filter-10">
            <feOffset dx="0" dy="1" in="SourceAlpha" result="shadowOffsetOuter1"></feOffset>
            <feGaussianBlur stdDeviation="0.5" in="shadowOffsetOuter1" result="shadowBlurOuter1"></feGaussianBlur>
            <feColorMatrix values="0 0 0 0 0.368627451   0 0 0 0 0.48627451   0 0 0 0 0.878431373  0 0 0 0.349865467 0" type="matrix" in="shadowBlurOuter1"></feColorMatrix>
        </filter>
        <path d="M14.7696,12 L33.2304,12 C34.7600078,12 36,13.2399922 36,14.7696 L36,33.2304 C36,34.7600078 34.7600078,36 33.2304,36 L14.7696,36 C13.2399922,36 12,34.7600078 12,33.2304 L12,14.7696 C12,13.2399922 13.2399922,12 14.7696,12 Z M15.9672,14.1816 C14.9808,14.1816 14.1816,14.9808 14.1816,15.9672 L14.1816,32.0328 C14.1816,33.0192 14.9808,33.8184 15.9672,33.8184 L32.0328,33.8184 C33.0192,33.8184 33.8184,33.0192 33.8184,32.0328 L33.8184,15.9672 C33.8184,14.9808 33.0192,14.1816 32.0328,14.1816 L15.9672,14.1816 Z M18.21,29.3892 L21.5856,26.0136 C21.950143,25.6782265 22.5142987,25.6899771 22.8645608,26.0402392 C23.2148229,26.3905013 23.2265735,26.954657 22.8912,27.3192 L19.5804,30.6288 L22.8252,30.6288 C23.3222315,30.6467205 23.7159068,31.0548455 23.7159068,31.5522 C23.7159068,32.0495545 23.3222315,32.4576795 22.8252,32.4756 L17.2872,32.4756 C16.7768889,32.4756 16.3632,32.0619111 16.3632,31.5516 L16.3632,26.0136 C16.3811205,25.5165685 16.7892455,25.1228932 17.2866,25.1228932 C17.7839545,25.1228932 18.1920795,25.5165685 18.21,26.0136 L18.21,29.3892 L18.21,29.3892 Z M30.462,18.4848 L27.0864,21.8604 C26.721857,22.1957735 26.1577013,22.1840229 25.8074392,21.8337608 C25.4571771,21.4834987 25.4454265,20.919343 25.7808,20.5548 L29.0904,17.2452 L25.8456,17.2452 C25.5077618,17.2573808 25.1902406,17.0840943 25.017707,16.7933794 C24.8451734,16.5026645 24.8451734,16.1409355 25.017707,15.8502206 C25.1902406,15.5595057 25.5077618,15.3862192 25.8456,15.3984 L31.3848,15.3984 C31.8951111,15.3984 32.3088,15.8120889 32.3088,16.3224 L32.3088,21.8604 C32.3088,22.3707111 31.8951111,22.7844 31.3848,22.7844 C30.8744889,22.7844 30.4608,22.3707111 30.4608,21.8604 L30.4608,18.4848 L30.462,18.4848 Z" id="path-11"></path>
    </defs>
    <g id="页面一" stroke="none" stroke-width="1" fill="none" fill-rule="evenodd">
        <g id="-TinyUI-Vue-组件总览" transform="translate(-1087.000000, -2808.000000)">
            <g id="编组-25备份-21" transform="translate(989.000000, 2775.000000)">
                <g id="Fullscreen-全屏显示" transform="translate(98.000000, 33.000000)">
                    <g id="编组">
                        <g transform="translate(9.000000, 1.000000)" id="多边形">
                            <polygon fill="url(#linearGradient-1)" opacity="0.54620216" points="53.2605623 0 106.521125 30.75 53.2605623 62 0 30.75"></polygon>
                            <polygon fill="url(#linearGradient-2)" points="53.2605623 61.5 106.521125 86.75 53.2605623 118 0 86.75"></polygon>
                            <polygon fill="url(#linearGradient-3)" opacity="0.600606283" points="53.2605623 62 53.2605623 123 7.39138783e-15 92.25 0 30.75"></polygon>
                            <polygon fill="url(#linearGradient-4)" opacity="0.791265578" points="53.2605623 62 106.521125 30.75 106.521125 92.25 53.2605623 123"></polygon>
                            <polygon fill="url(#linearGradient-5)" points="53.2605623 118.007802 53.2605623 123 7.39138783e-15 92.25 0 86.9161706"></polygon>
                            <polygon fill="url(#linearGradient-6)" transform="translate(79.630281, 104.958085) scale(-1, 1) translate(-79.630281, -104.958085) " points="106.260562 118.007802 106.260562 123 53 92.25 53 86.9161706"></polygon>
                        </g>
                        <ellipse id="椭圆形" fill="url(#linearGradient-7)" filter="url(#filter-8)" cx="62.5" cy="90" rx="32.5" ry="10"></ellipse>
                    </g>
                    <g id="编组-34" transform="translate(38.925926, 39.000000)">
                        <g id="路径备份-2">
                            <use fill="black" fill-opacity="1" filter="url(#filter-10)" xlink:href="#path-9"></use>
                            <use fill="#5073E5" fill-rule="evenodd" xlink:href="#path-9"></use>
                        </g>
                        <mask id="mask-12" fill="white">
                            <use xlink:href="#path-11"></use>
                        </mask>
                        <use id="形状" fill="#FFFFFF" fill-rule="nonzero" xlink:href="#path-11"></use>
                    </g>
                </g>
            </g>
        </g>
    </g>
</svg>