<?xml version="1.0" encoding="UTF-8"?>
<svg width="125px" height="125px" viewBox="0 0 125 125" version="1.1" xmlns="http://www.w3.org/2000/svg" xmlns:xlink="http://www.w3.org/1999/xlink">
    <title>Table 表格</title>
    <defs>
        <linearGradient x1="50%" y1="45.9685271%" x2="50%" y2="100%" id="linearGradient-1">
            <stop stop-color="#ECF3FB" offset="0%"></stop>
            <stop stop-color="#FFFFFF" offset="100%"></stop>
        </linearGradient>
        <linearGradient x1="50.3956523%" y1="35.9331967%" x2="50%" y2="64.0668033%" id="linearGradient-2">
            <stop stop-color="#E3EFFD" stop-opacity="0.00575352382" offset="0%"></stop>
            <stop stop-color="#E5F0FD" offset="34.0601199%"></stop>
            <stop stop-color="#F0F6FE" offset="100%"></stop>
        </linearGradient>
        <linearGradient x1="33.3333333%" y1="34.495573%" x2="96.9740837%" y2="65.4421891%" id="linearGradient-3">
            <stop stop-color="#D5E6F9" offset="0%"></stop>
            <stop stop-color="#F7FBFF" stop-opacity="0" offset="100%"></stop>
        </linearGradient>
        <linearGradient x1="90.9912104%" y1="29.4309598%" x2="33.3333333%" y2="67.7472684%" id="linearGradient-4">
            <stop stop-color="#D5E6F9" offset="0%"></stop>
            <stop stop-color="#E7F0F9" stop-opacity="0" offset="100%"></stop>
        </linearGradient>
        <linearGradient x1="-5.8027489%" y1="27.0499439%" x2="103.630422%" y2="71.1332543%" id="linearGradient-5">
            <stop stop-color="#CEE6FE" offset="0%"></stop>
            <stop stop-color="#8AB5F2" offset="100%"></stop>
        </linearGradient>
        <linearGradient x1="-5.8027489%" y1="27.0499439%" x2="103.630422%" y2="71.1332543%" id="linearGradient-6">
            <stop stop-color="#BFD6F9" offset="0%"></stop>
            <stop stop-color="#F3F6FE" offset="100%"></stop>
        </linearGradient>
        <linearGradient x1="89.8473889%" y1="61.7348066%" x2="0%" y2="61.7348066%" id="linearGradient-7">
            <stop stop-color="#CAD9F3" offset="0%"></stop>
            <stop stop-color="#D5E3F7" offset="100%"></stop>
        </linearGradient>
        <filter x="-18.5%" y="-60.0%" width="136.9%" height="220.0%" filterUnits="objectBoundingBox" id="filter-8">
            <feGaussianBlur stdDeviation="4" in="SourceGraphic"></feGaussianBlur>
        </filter>
        <linearGradient x1="44.0988019%" y1="50.3482049%" x2="128.792906%" y2="49.1131538%" id="linearGradient-9">
            <stop stop-color="#5073E5" offset="0%"></stop>
            <stop stop-color="#5E7CE0" offset="100%"></stop>
        </linearGradient>
        <linearGradient x1="44.0988019%" y1="50.3482049%" x2="128.792906%" y2="49.1131538%" id="linearGradient-10">
            <stop stop-color="#5073E5" offset="0%"></stop>
            <stop stop-color="#5E7CE0" offset="100%"></stop>
        </linearGradient>
        <rect id="path-11" x="0" y="0" width="72" height="7" rx="2"></rect>
        <filter x="-6.2%" y="-35.7%" width="112.5%" height="228.6%" filterUnits="objectBoundingBox" id="filter-12">
            <feMorphology radius="0.5" operator="dilate" in="SourceAlpha" result="shadowSpreadOuter1"></feMorphology>
            <feOffset dx="0" dy="2" in="shadowSpreadOuter1" result="shadowOffsetOuter1"></feOffset>
            <feGaussianBlur stdDeviation="1" in="shadowOffsetOuter1" result="shadowBlurOuter1"></feGaussianBlur>
            <feComposite in="shadowBlurOuter1" in2="SourceAlpha" operator="out" result="shadowBlurOuter1"></feComposite>
            <feColorMatrix values="0 0 0 0 0.368627451   0 0 0 0 0.48627451   0 0 0 0 0.878431373  0 0 0 0.65213034 0" type="matrix" in="shadowBlurOuter1"></feColorMatrix>
        </filter>
        <linearGradient x1="44.0988019%" y1="83.1581946%" x2="128.792906%" y2="-34.4509074%" id="linearGradient-13">
            <stop stop-color="#5073E5" offset="0%"></stop>
            <stop stop-color="#5E7CE0" offset="100%"></stop>
        </linearGradient>
        <linearGradient x1="46.654993%" y1="86.8386573%" x2="94.6625963%" y2="-43.8247114%" id="linearGradient-14">
            <stop stop-color="#5073E5" offset="0%"></stop>
            <stop stop-color="#5E7CE0" offset="100%"></stop>
        </linearGradient>
        <linearGradient x1="44.0988019%" y1="61.93695%" x2="128.792906%" y2="19.5976733%" id="linearGradient-15">
            <stop stop-color="#5073E5" offset="0%"></stop>
            <stop stop-color="#5E7CE0" offset="100%"></stop>
        </linearGradient>
    </defs>
    <g id="页面一" stroke="none" stroke-width="1" fill="none" fill-rule="evenodd">
        <g id="-TinyUI-ICON-2-【9-2】-无阴影" transform="translate(-697.000000, -869.000000)">
            <g id="Table-表格" transform="translate(697.000000, 869.000000)">
                <g id="编组">
                    <g transform="translate(9.000000, 1.000000)" id="多边形">
                        <polygon fill="url(#linearGradient-1)" opacity="0.54620216" points="53.2605623 0 106.521125 30.75 53.2605623 62 0 30.75"></polygon>
                        <polygon fill="url(#linearGradient-2)" points="53.2605623 61.5 106.521125 86.75 53.2605623 118 0 86.75"></polygon>
                        <polygon fill="url(#linearGradient-3)" opacity="0.600606283" points="53.2605623 62 53.2605623 123 7.39138783e-15 92.25 0 30.75"></polygon>
                        <polygon fill="url(#linearGradient-4)" opacity="0.791265578" points="53.2605623 62 106.521125 30.75 106.521125 92.25 53.2605623 123"></polygon>
                        <polygon fill="url(#linearGradient-5)" points="53.2605623 118.007802 53.2605623 123 7.39138783e-15 92.25 0 86.9161706"></polygon>
                        <polygon fill="url(#linearGradient-6)" transform="translate(79.630281, 104.958085) scale(-1, 1) translate(-79.630281, -104.958085) " points="106.260562 118.007802 106.260562 123 53 92.25 53 86.9161706"></polygon>
                    </g>
                    <ellipse id="椭圆形" fill="url(#linearGradient-7)" filter="url(#filter-8)" cx="62.5" cy="90" rx="32.5" ry="10"></ellipse>
                </g>
                <g id="表格" transform="translate(26.000000, 36.000000)">
                    <g id="矩形">
                        <use fill="black" fill-opacity="1" filter="url(#filter-12)" xlink:href="#path-11"></use>
                        <use stroke="url(#linearGradient-10)" stroke-width="1" fill="url(#linearGradient-9)" fill-rule="evenodd" xlink:href="#path-11"></use>
                    </g>
                    <path d="M3.37499999,13.5517241 L19.125,13.5517241 C20.175,13.5517241 20.7,13.9786535 20.7,14.8325124 L20.7,30.2019704 C20.7,31.0558292 20.175,31.4827586 19.125,31.4827586 L3.37499999,31.4827586 C2.325,31.4827586 1.8,31.0558292 1.8,30.2019704 L1.8,14.8325124 C1.8,13.9786536 2.325,13.5517241 3.37499999,13.5517241 Z" id="路径" fill="url(#linearGradient-13)" opacity="0.604724702"></path>
                    <path d="M27.675,13.5517241 L43.425,13.5517241 C44.475,13.5517241 45,13.9786535 45,14.8325124 L45,30.2019704 C45,31.0558292 44.475,31.4827586 43.425,31.4827586 L27.675,31.4827586 C26.625,31.4827586 26.1,31.0558292 26.1,30.2019704 L26.1,14.8325124 C26.1,13.9786536 26.625,13.5517241 27.675,13.5517241 Z" id="路径" fill="url(#linearGradient-13)" opacity="0.303770519"></path>
                    <path d="M52.875,13.5517241 L68.625,13.5517241 C69.675,13.5517241 70.2,13.970115 70.2,14.8068966 L70.2,37.4 C70.2,38.2367816 69.675,38.6551724 68.625,38.6551724 L52.875,38.6551724 C51.825,38.6551724 51.3,38.2367816 51.3,37.4 L51.3,14.8068966 C51.3,13.970115 51.825,13.5517241 52.875,13.5517241 Z" id="路径" fill="url(#linearGradient-14)" opacity="0.604724702"></path>
                    <path d="M3.37499999,35.0689655 L19.125,35.0689655 C20.175,35.0689655 20.7,35.4958949 20.7,36.3497537 L20.7,51.7192118 C20.7,52.5730706 20.175,53 19.125,53 L3.37499999,53 C2.325,53 1.8,52.5730706 1.8,51.7192118 L1.8,36.3497537 C1.8,35.4958949 2.325,35.0689655 3.37499999,35.0689655 Z" id="路径" fill="url(#linearGradient-13)" opacity="0.303770519"></path>
                    <path d="M27.675,35.0689655 L43.425,35.0689655 C44.475,35.0689655 45,35.4958949 45,36.3497537 L45,51.7192118 C45,52.5730706 44.475,53 43.425,53 L27.675,53 C26.625,53 26.1,52.5730706 26.1,51.7192118 L26.1,36.3497537 C26.1,35.4958949 26.625,35.0689655 27.675,35.0689655 Z" id="路径" fill="url(#linearGradient-13)" opacity="0.604724702"></path>
                    <path d="M52.875,42.2413793 L68.625,42.2413793 C69.675,42.2413793 70.2,42.6896552 70.2,43.5862069 L70.2,51.6551724 C70.2,52.5517241 69.675,53 68.625,53 L52.875,53 C51.825,53 51.3,52.5517241 51.3,51.6551724 L51.3,43.5862069 C51.3,42.6896552 51.825,42.2413793 52.875,42.2413793 Z" id="路径" fill="url(#linearGradient-15)" opacity="0.303770519"></path>
                </g>
            </g>
        </g>
    </g>
</svg>