<?xml version="1.0" encoding="UTF-8"?>
<svg width="125px" height="125px" viewBox="0 0 125 125" version="1.1" xmlns="http://www.w3.org/2000/svg" xmlns:xlink="http://www.w3.org/1999/xlink">
    <title>情景引导 Guides</title>
    <defs>
        <linearGradient x1="44.0988019%" y1="70.2785117%" x2="128.792906%" y2="-1.64752586%" id="linearGradient-1">
            <stop stop-color="#5073E5" offset="0%"></stop>
            <stop stop-color="#5E7CE0" offset="100%"></stop>
        </linearGradient>
        <linearGradient x1="44.0988019%" y1="50.940346%" x2="128.792906%" y2="47.6050242%" id="linearGradient-2">
            <stop stop-color="#5073E5" offset="0%"></stop>
            <stop stop-color="#5E7CE0" offset="100%"></stop>
        </linearGradient>
    </defs>
    <g id="组件总览" stroke="none" stroke-width="1" fill="none" fill-rule="evenodd">
        <g id="-TinyUI-Ng-组件总览-3" transform="translate(-697.000000, -609.000000)">
            <g id="编组-25备份" transform="translate(598.000000, 576.000000)">
                <g id="情景引导-Guides" transform="translate(99.000000, 33.000000)">
                    <g id="编组"></g>
                    <g id="编组-6" transform="translate(19.000000, 34.000000)">
                        <path d="M24,12 L78,12 C80.209139,12 82,13.790861 82,16 L82,54 C82,56.209139 80.209139,58 78,58 L24,58 C21.790861,58 20,56.209139 20,54 L20,16 C20,13.790861 21.790861,12 24,12 Z" id="矩形备份-8" fill="url(#linearGradient-1)" opacity="0.204287574"></path>
                        <path d="M8,8 L62,8 C64.209139,8 66,9.790861 66,12 L66,46 C66,48.209139 64.209139,50 62,50 L8,50 C5.790861,50 4,48.209139 4,46 L4,12 C4,9.790861 5.790861,8 8,8 Z" id="矩形备份-7" fill="#AABDF0"></path>
                        <path d="M18,27 L52,27 C53.1045695,27 54,27.8954305 54,29 C54,30.1045695 53.1045695,31 52,31 L18,31 C16.8954305,31 16,30.1045695 16,29 C16,27.8954305 16.8954305,27 18,27 Z" id="形状结合备份" fill="#5073E5"></path>
                        <path d="M12,8 L39,8 C40.1045695,8 41,8.8954305 41,10 C41,11.1045695 40.1045695,12 39,12 L12,12 C10.8954305,12 10,11.1045695 10,10 C10,8.8954305 10.8954305,8 12,8 Z" id="形状结合备份-4" fill="#5073E5"></path>
                        <path d="M53,8 L74,8 C75.1045695,8 76,8.8954305 76,10 C76,11.1045695 75.1045695,12 74,12 L53,12 C51.8954305,12 51,11.1045695 51,10 C51,8.8954305 51.8954305,8 53,8 Z" id="形状结合备份-5" fill="#5073E5"></path>
                        <path d="M18,36 L39,36 C40.1045695,36 41,36.8954305 41,38 C41,39.1045695 40.1045695,40 39,40 L18,40 C16.8954305,40 16,39.1045695 16,38 C16,36.8954305 16.8954305,36 18,36 Z" id="形状结合备份-35" fill="url(#linearGradient-2)" opacity="0.604724702"></path>
                        <circle id="椭圆形" stroke="#5073E5" stroke-width="5" fill="#5073E5" cx="9.5" cy="9.5" r="9.5"></circle>
                        <text id="1" font-family="ShanghaiFace-RockGB-Flash-Heavy, ShanghaiFace-RockGB-Flash" font-size="16" font-weight="800" letter-spacing="0.761904762" fill="#FFFFFF">
                            <tspan x="5.88304762" y="16">1</tspan>
                        </text>
                        <circle id="椭圆形备份" stroke="#5073E5" stroke-width="5" fill="#FFFFFF" cx="47" cy="9.5" r="5.5"></circle>
                        <circle id="椭圆形备份-2" stroke="#5073E5" stroke-width="5" cx="80.5" cy="9.5" r="5.5"></circle>
                    </g>
                </g>
            </g>
        </g>
    </g>
</svg>