<?xml version="1.0" encoding="UTF-8"?>
<svg width="125px" height="125px" viewBox="0 0 125 125" version="1.1" xmlns="http://www.w3.org/2000/svg" xmlns:xlink="http://www.w3.org/1999/xlink">
    <title>Infinite Scroll 无限滚动</title>
    <defs>
        <linearGradient x1="44.0988019%" y1="68.4083778%" x2="128.792906%" y2="3.1155351%" id="linearGradient-1">
            <stop stop-color="#5073E5" offset="0%"></stop>
            <stop stop-color="#5E7CE0" offset="100%"></stop>
        </linearGradient>
        <linearGradient x1="44.0988019%" y1="83.2468882%" x2="128.792906%" y2="-34.6768021%" id="linearGradient-2">
            <stop stop-color="#5073E5" offset="0%"></stop>
            <stop stop-color="#5E7CE0" offset="100%"></stop>
        </linearGradient>
        <linearGradient x1="44.0988019%" y1="83.2468882%" x2="128.792906%" y2="-34.6768021%" id="linearGradient-3">
            <stop stop-color="#5073E5" offset="0%"></stop>
            <stop stop-color="#5E7CE0" offset="100%"></stop>
        </linearGradient>
    </defs>
    <g id="组件总览" stroke="none" stroke-width="1" fill="none" fill-rule="evenodd">
        <g id="-TinyUI-Vue-组件总览2" transform="translate(-1092.000000, -1434.000000)">
            <g id="编组-17备份-3" transform="translate(994.000000, 1401.000000)">
                <g id="Infinite-Scroll-无限滚动" transform="translate(98.000000, 33.000000)">
                    <g id="编组"></g>
                    <path d="M43.8275862,47 L69.8275862,47 C72.0367252,47 73.8275862,48.790861 73.8275862,51 L73.8275862,74 C73.8275862,76.209139 72.0367252,78 69.8275862,78 L43.8275862,78 C41.6184472,78 39.8275862,76.209139 39.8275862,74 L39.8275862,51 C39.8275862,48.790861 41.6184472,47 43.8275862,47 Z M39,42 L89,42 C91.209139,42 93,43.790861 93,46 L93,79 C93,81.209139 91.209139,83 89,83 L39,83 C36.790861,83 35,81.209139 35,79 L35,46 C35,43.790861 36.790861,42 39,42 Z" id="形状" fill="url(#linearGradient-1)"></path>
                    <path d="M79.9619047,66.5857143 L79.9619047,50.6714286 C79.9619047,48.7147626 81.5480959,47.1285714 83.5047619,47.1285714 C85.4614279,47.1285714 87.047619,48.7147626 87.047619,50.6714286 L87.047619,66.5857143 C87.047619,68.5423802 85.4614279,70.1285714 83.5047619,70.1285714 C81.5480959,70.1285714 79.9619047,68.5423802 79.9619047,66.5857143 Z" id="路径" fill="#FFFFFF" fill-rule="nonzero"></path>
                    <path d="M54.5897316,67.2174298 C54.174538,66.7954352 53.5014054,66.7954352 53.0862118,67.2174298 L52.0085564,68.3128101 L52.0132816,54.0806712 C52.0132816,53.483833 51.5372778,53 50.9500973,53 C50.3629169,53 49.886913,53.483833 49.886913,54.0806712 L49.8821878,68.3155117 L48.8027604,67.2174298 C48.3857528,66.8070058 47.7219623,66.8124078 47.3114735,67.2295661 C46.9009848,67.6467245 46.8955398,68.3214318 47.2992406,68.7453787 L50.1934645,71.6872057 C50.2052777,71.6992132 50.2176815,71.7112207 50.2300853,71.7226277 L50.2392405,71.7307328 C50.2492817,71.7397384 50.2593229,71.748744 50.2687734,71.7574494 L50.2773379,71.7643537 L50.3101195,71.7901697 L50.3157307,71.7943723 C50.3281345,71.8033779 50.3405383,71.8123835 50.3532375,71.8210889 L50.3550095,71.8210889 C50.4993624,71.9189843 50.6651865,71.9792917 50.8378723,71.9966979 L50.8479135,71.9966979 L50.8898502,72 L50.996464,72 C51.0138884,72 51.0259969,71.9978987 51.041354,71.9963978 L51.0487372,71.9963978 C51.2215262,71.9798818 51.3876611,71.9203967 51.5324861,71.8231902 L51.5345534,71.8231902 C51.5469572,71.814785 51.5590657,71.8060796 51.5711742,71.797074 L51.5776714,71.792271 L51.6089763,71.7676557 L51.6190175,71.7595507 C51.6287633,71.7514456 51.6379185,71.7430404 51.6485504,71.7346352 C51.6523896,71.7313331 51.6562289,71.7283313 51.6597729,71.724729 C51.6721767,71.7136221 51.6839898,71.7019149 51.695803,71.6899074 L51.697575,71.6899074 L54.5917989,68.7480804 C54.7916194,68.5450414 54.9037112,68.2695073 54.9033243,67.9823189 C54.9029354,67.6951305 54.7900998,67.4199104 54.5897316,67.2174298 L54.5897316,67.2174298 Z M66.6864063,57.7825702 C66.2712127,58.2045648 65.5980801,58.2045648 65.1828865,57.7825702 L64.1052311,56.6871899 L64.1099563,70.9193288 C64.1099563,71.516167 63.6339525,72 63.046772,72 C62.4595916,72 61.9835877,71.516167 61.9835877,70.9193288 L61.9788625,56.6844883 L60.8994351,57.7825702 C60.4824275,58.1929942 59.818637,58.1875922 59.4081482,57.7704339 C58.9976595,57.3532755 58.9922145,56.6785682 59.3959153,56.2546213 L62.2901392,53.3127943 C62.3019524,53.3007868 62.3143562,53.2887793 62.32676,53.2773723 L62.3359152,53.2692672 C62.3459564,53.2602616 62.3559976,53.251256 62.3654481,53.2425506 L62.3740126,53.2356463 L62.4067942,53.2098303 L62.4124054,53.2056277 C62.4248092,53.1966221 62.437213,53.1876165 62.4499122,53.1789111 L62.4516842,53.1789111 C62.5960371,53.0810157 62.7618612,53.0207083 62.934547,53.0033021 L62.9445882,53.0033021 L62.9865249,53 L63.0931387,53 C63.1105631,53 63.1226716,53.0021013 63.1380287,53.0036022 L63.1454119,53.0036022 C63.3182009,53.0201182 63.4843358,53.0796033 63.6291608,53.1768098 L63.6312281,53.1768098 C63.6436319,53.185215 63.6557404,53.1939204 63.6678489,53.202926 L63.6743461,53.207729 L63.705651,53.2323443 L63.7156922,53.2404493 C63.725438,53.2485544 63.7345932,53.2569596 63.7452251,53.2653648 C63.7490643,53.2686669 63.7529036,53.2716687 63.7564476,53.275271 C63.7688514,53.2863779 63.7806645,53.2980851 63.7924777,53.3100926 L63.7942497,53.3100926 L66.6884736,56.2519196 C66.8882941,56.4549586 67.0003859,56.7304927 66.999999,57.0176811 C66.9996101,57.3048695 66.8867745,57.5800896 66.6864063,57.7825702 L66.6864063,57.7825702 Z" id="形状" stroke="url(#linearGradient-3)" stroke-width="0.5" fill="url(#linearGradient-2)"></path>
                </g>
            </g>
        </g>
    </g>
</svg>