<?xml version="1.0" encoding="UTF-8"?>
<svg width="125px" height="125px" viewBox="0 0 125 125" version="1.1" xmlns="http://www.w3.org/2000/svg" xmlns:xlink="http://www.w3.org/1999/xlink">
    <title>Input 输入框</title>
    <defs>
        <linearGradient x1="44.0988019%" y1="58.1580418%" x2="128.792906%" y2="29.2222092%" id="linearGradient-1">
            <stop stop-color="#5073E5" offset="0%"></stop>
            <stop stop-color="#5E7CE0" offset="100%"></stop>
        </linearGradient>
        <linearGradient x1="48.7603386%" y1="86.8386573%" x2="66.5519821%" y2="-43.8247114%" id="linearGradient-2">
            <stop stop-color="#5073E5" offset="0%"></stop>
            <stop stop-color="#5E7CE0" offset="100%"></stop>
        </linearGradient>
        <linearGradient x1="58%" y1="1.13686838e-11%" x2="43.053829%" y2="100%" id="linearGradient-3">
            <stop stop-color="#FFCC00" offset="0%"></stop>
            <stop stop-color="#FF9D00" offset="100%"></stop>
        </linearGradient>
    </defs>
    <g id="Tiny-Vue" stroke="none" stroke-width="1" fill="none" fill-rule="evenodd">
        <g id="-TinyUI-Vue-组件总览1" transform="translate(-1869.000000, -1485.000000)">
            <g id="组件" transform="translate(596.000000, 311.000000)">
                <g id="编组-14备份-4" transform="translate(1175.000000, 1141.000000)">
                    <g id="Input-输入框" transform="translate(98.000000, 33.000000)">
                        <g id="编组"></g>
                        <g id="编组-8" transform="translate(27.500000, 43.000000)">
                            <path d="M4,7.22 L51,7.22 L51,7.22 L51,31.22 L4,31.22 C1.790861,31.22 2.705415e-16,29.429139 0,27.22 L0,11.22 C-2.705415e-16,9.010861 1.790861,7.22 4,7.22 Z" id="矩形" fill="url(#linearGradient-1)" opacity="0.204287574"></path>
                            <path d="M47,31.22 L3.35714286,31.22 C1.50304405,31.22 0,29.429139 0,27.22 L0,11.22 C0,9.010861 1.50304405,7.22 3.35714286,7.22 L47,7.22 L47,7.22" id="路径" stroke="#5073E5" stroke-width="4"></path>
                            <path d="M61.8051747,7.22 L68.8051747,7.22 C71.0143137,7.22 72.8051747,9.010861 72.8051747,11.22 L72.8051747,27.22 C72.8051747,29.429139 71.0143137,31.22 68.8051747,31.22 L61.8051747,31.22 L61.8051747,31.22 L61.8051747,7.22 Z" id="矩形备份-4" fill="url(#linearGradient-2)" opacity="0.204287574"></path>
                            <path d="M65,7.22 L68.8051747,7.22 C71.0143137,7.22 72.8051747,9.010861 72.8051747,11.22 L72.8051747,27.22 C72.8051747,29.429139 71.0143137,31.22 68.8051747,31.22 L65,31.22 L65,31.22" id="路径" stroke="#5073E5" stroke-width="4"></path>
                            <path d="M62.5,8.8817842e-16 C63.6045695,8.8817842e-16 64.5,0.8954305 64.5,2 C64.5,3.1045695 63.6045695,4 62.5,4 L58.5,4 L58.5,36 L62.5,36 C63.6045695,36 64.5,36.8954305 64.5,38 C64.5,39.1045695 63.6045695,40 62.5,40 L50.5,40 C49.3954305,40 48.5,39.1045695 48.5,38 C48.5,36.8954305 49.3954305,36 50.5,36 L54.499,36 L54.5,3.999 L50.5,4 C49.3954305,4 48.5,3.1045695 48.5,2 C48.5,0.8954305 49.3954305,-8.8817842e-16 50.5,-8.8817842e-16 L62.5,8.8817842e-16 Z" id="形状结合" fill="url(#linearGradient-3)"></path>
                        </g>
                    </g>
                </g>
            </g>
        </g>
    </g>
</svg>