<?xml version="1.0" encoding="UTF-8"?>
<svg width="125px" height="125px" viewBox="0 0 125 125" version="1.1" xmlns="http://www.w3.org/2000/svg" xmlns:xlink="http://www.w3.org/1999/xlink">
    <title>IP 输入IP</title>
    <defs>
        <linearGradient x1="44.0988019%" y1="52.5069786%" x2="128.792906%" y2="43.6149535%" id="linearGradient-1">
            <stop stop-color="#5073E5" offset="0%"></stop>
            <stop stop-color="#5E7CE0" offset="100%"></stop>
        </linearGradient>
        <linearGradient x1="100%" y1="1.13686838e-11%" x2="6.58643108%" y2="100%" id="linearGradient-2">
            <stop stop-color="#FFCC00" offset="0%"></stop>
            <stop stop-color="#FF9D00" offset="100%"></stop>
        </linearGradient>
        <rect id="path-3" x="0" y="0" width="90" height="3" rx="1.5"></rect>
        <filter x="-4.4%" y="-66.7%" width="108.9%" height="366.7%" filterUnits="objectBoundingBox" id="filter-4">
            <feOffset dx="0" dy="2" in="SourceAlpha" result="shadowOffsetOuter1"></feOffset>
            <feGaussianBlur stdDeviation="1" in="shadowOffsetOuter1" result="shadowBlurOuter1"></feGaussianBlur>
            <feColorMatrix values="0 0 0 0 0.368627451   0 0 0 0 0.48627451   0 0 0 0 0.878431373  0 0 0 0.349865467 0" type="matrix" in="shadowBlurOuter1"></feColorMatrix>
        </filter>
        <linearGradient x1="49.8415415%" y1="86.8386573%" x2="52.1157406%" y2="-43.8247114%" id="linearGradient-5">
            <stop stop-color="#5073E5" offset="0%"></stop>
            <stop stop-color="#5E7CE0" offset="100%"></stop>
        </linearGradient>
        <linearGradient x1="49.8415415%" y1="86.8386573%" x2="52.1157406%" y2="-43.8247114%" id="linearGradient-6">
            <stop stop-color="#5073E5" offset="0%"></stop>
            <stop stop-color="#5E7CE0" offset="100%"></stop>
        </linearGradient>
        <polygon id="path-7" points="5.104 0 5.104 25.704 9.316 25.704 9.316 0"></polygon>
        <filter x="-106.8%" y="-9.7%" width="313.7%" height="135.0%" filterUnits="objectBoundingBox" id="filter-8">
            <feMorphology radius="0.5" operator="dilate" in="SourceAlpha" result="shadowSpreadOuter1"></feMorphology>
            <feOffset dx="0" dy="2" in="shadowSpreadOuter1" result="shadowOffsetOuter1"></feOffset>
            <feGaussianBlur stdDeviation="1" in="shadowOffsetOuter1" result="shadowBlurOuter1"></feGaussianBlur>
            <feComposite in="shadowBlurOuter1" in2="SourceAlpha" operator="out" result="shadowBlurOuter1"></feComposite>
            <feColorMatrix values="0 0 0 0 0.368627451   0 0 0 0 0.48627451   0 0 0 0 0.878431373  0 0 0 0.65213034 0" type="matrix" in="shadowBlurOuter1"></feColorMatrix>
        </filter>
        <linearGradient x1="46.4344237%" y1="86.8386573%" x2="97.6076411%" y2="-43.8247114%" id="linearGradient-9">
            <stop stop-color="#5073E5" offset="0%"></stop>
            <stop stop-color="#5E7CE0" offset="100%"></stop>
        </linearGradient>
        <linearGradient x1="46.4344237%" y1="86.8386573%" x2="97.6076411%" y2="-43.8247114%" id="linearGradient-10">
            <stop stop-color="#5073E5" offset="0%"></stop>
            <stop stop-color="#5E7CE0" offset="100%"></stop>
        </linearGradient>
        <path d="M14.356,0 L14.356,25.704 L18.568,25.704 L18.568,15.84 L24.94,15.84 C31.204,15.84 34.336,13.176 34.336,7.884 C34.336,2.628 31.204,0 25.012,0 L14.356,0 Z M18.568,3.6 L24.688,3.6 C26.524,3.6 27.892,3.924 28.756,4.608 C29.62,5.256 30.088,6.336 30.088,7.884 C30.088,9.432 29.656,10.548 28.792,11.232 C27.928,11.88 26.56,12.24 24.688,12.24 L18.568,12.24 L18.568,3.6 Z" id="path-11"></path>
        <filter x="-22.5%" y="-9.7%" width="145.0%" height="135.0%" filterUnits="objectBoundingBox" id="filter-12">
            <feMorphology radius="0.5" operator="dilate" in="SourceAlpha" result="shadowSpreadOuter1"></feMorphology>
            <feOffset dx="0" dy="2" in="shadowSpreadOuter1" result="shadowOffsetOuter1"></feOffset>
            <feGaussianBlur stdDeviation="1" in="shadowOffsetOuter1" result="shadowBlurOuter1"></feGaussianBlur>
            <feComposite in="shadowBlurOuter1" in2="SourceAlpha" operator="out" result="shadowBlurOuter1"></feComposite>
            <feColorMatrix values="0 0 0 0 0.368627451   0 0 0 0 0.48627451   0 0 0 0 0.878431373  0 0 0 0.65213034 0" type="matrix" in="shadowBlurOuter1"></feColorMatrix>
        </filter>
    </defs>
    <g id="组件总览" stroke="none" stroke-width="1" fill="none" fill-rule="evenodd">
        <g id="-TinyUI-Ng-组件总览-1" transform="translate(-1089.000000, -1596.000000)">
            <g id="IP-输入IP" transform="translate(1089.000000, 1596.000000)">
                <g id="编组"></g>
                <g id="编组-16" transform="translate(17.000000, 39.296000)">
                    <g id="编组-15" transform="translate(0.000000, 17.704000)">
                        <rect id="矩形" fill="url(#linearGradient-1)" opacity="0.303770519" x="0" y="0" width="92" height="24" rx="4"></rect>
                        <path d="M18,15 C19.6568542,15 21,16.3431458 21,18 C21,19.6568542 19.6568542,21 18,21 C16.3431458,21 15,19.6568542 15,18 C15,16.3431458 16.3431458,15 18,15 Z" id="形状结合备份-19" fill="url(#linearGradient-2)" transform="translate(18.000000, 18.000000) rotate(-90.000000) translate(-18.000000, -18.000000) "></path>
                        <path d="M45,15 C46.6568542,15 48,16.3431458 48,18 C48,19.6568542 46.6568542,21 45,21 C43.3431458,21 42,19.6568542 42,18 C42,16.3431458 43.3431458,15 45,15 Z" id="形状结合备份-21" fill="url(#linearGradient-2)" transform="translate(45.000000, 18.000000) rotate(-90.000000) translate(-45.000000, -18.000000) "></path>
                        <path d="M72,15 C73.6568542,15 75,16.3431458 75,18 C75,19.6568542 73.6568542,21 72,21 C70.3431458,21 69,19.6568542 69,18 C69,16.3431458 70.3431458,15 72,15 Z" id="形状结合备份-23" fill="url(#linearGradient-2)" transform="translate(72.000000, 18.000000) rotate(-90.000000) translate(-72.000000, -18.000000) "></path>
                    </g>
                    <g id="矩形" transform="translate(1.000000, 45.704000)">
                        <use fill="black" fill-opacity="1" filter="url(#filter-4)" xlink:href="#path-3"></use>
                        <use fill="#5073E5" fill-rule="evenodd" xlink:href="#path-3"></use>
                    </g>
                    <g id="路径">
                        <use fill="black" fill-opacity="1" filter="url(#filter-8)" xlink:href="#path-7"></use>
                        <use stroke="url(#linearGradient-6)" stroke-width="1" fill="url(#linearGradient-5)" fill-rule="evenodd" xlink:href="#path-7"></use>
                    </g>
                    <g id="形状">
                        <use fill="black" fill-opacity="1" filter="url(#filter-12)" xlink:href="#path-11"></use>
                        <use stroke="url(#linearGradient-10)" stroke-width="1" fill="url(#linearGradient-9)" fill-rule="evenodd" xlink:href="#path-11"></use>
                    </g>
                </g>
            </g>
        </g>
    </g>
</svg>