<?xml version="1.0" encoding="UTF-8"?>
<svg width="125px" height="125px" viewBox="0 0 125 125" version="1.1" xmlns="http://www.w3.org/2000/svg" xmlns:xlink="http://www.w3.org/1999/xlink">
    <title>Link 链接</title>
    <defs>
        <linearGradient x1="44.0988019%" y1="84.3834523%" x2="128.792906%" y2="-37.5715276%" id="linearGradient-1">
            <stop stop-color="#5073E5" offset="0%"></stop>
            <stop stop-color="#5E7CE0" offset="100%"></stop>
        </linearGradient>
        <linearGradient x1="44.0988019%" y1="61.5750883%" x2="128.792906%" y2="20.5193023%" id="linearGradient-2">
            <stop stop-color="#5073E5" offset="0%"></stop>
            <stop stop-color="#5E7CE0" offset="100%"></stop>
        </linearGradient>
        <linearGradient x1="44.0988019%" y1="50.7055554%" x2="128.792906%" y2="48.2030144%" id="linearGradient-3">
            <stop stop-color="#5073E5" offset="0%"></stop>
            <stop stop-color="#5E7CE0" offset="100%"></stop>
        </linearGradient>
        <path d="M73.1054224,78.8358687 C74.118265,79.8485299 74.118265,81.3657326 73.1054224,82.3783938 C72.0925797,83.391055 70.3343705,83.6415366 69.3250943,82.6288754 C67.5100208,80.8222248 66.4890987,78.3631555 66.4890987,75.7978849 C66.4890987,73.2326143 67.5100208,70.7735451 69.3250943,68.9668945 L79.4178571,58.8474388 C83.1981852,55.0508537 89.2502765,55.0508537 93.034171,58.8474388 C96.8180655,62.6440239 97.0677098,68.4623531 93.2838153,72.2553598 L90.2595528,75.2933435 C89.2502765,76.3060047 87.7381453,76.3060047 86.4792247,75.0392836 C85.2203041,73.7725625 85.4699484,72.5094196 86.4792247,71.4967584 L89.5034872,68.462353 C91.2688291,66.6910904 91.0156184,63.9071666 89.5034872,62.3863856 C87.991356,60.8656046 84.9599607,60.3646415 83.1981852,62.1394824 L73.1089887,72.2553598 C71.3430558,74.0910478 71.3430558,77.0001806 73.1089887,78.8358687 L73.1054224,78.8358687 Z M76.8928832,75.0392836 C75.8836069,74.0266224 75.8836069,72.5094196 77.1425275,71.2462769 C78.401448,69.9831341 79.663935,70.2336156 80.6732113,71.2462769 C82.4882847,73.0529275 83.5092068,75.5119967 83.5092068,78.0772673 C83.5092068,80.6425379 82.4882847,83.1016071 80.6732113,84.9082577 L70.5875812,95.0241352 C66.8072531,98.8171419 60.4983847,99.0747801 56.7144902,95.2746167 C52.9305957,91.4744534 53.1838064,85.155161 56.9677009,81.3621543 L59.9955297,78.3241706 C61.004806,77.3115093 62.7701479,77.0610277 63.7758579,78.073689 C64.7815678,79.0863503 64.5354898,80.8540345 63.5262136,81.8666957 L60.4983847,84.9046794 C58.7330428,86.675942 58.7330428,89.7103474 60.4983847,91.48161 C62.2637266,93.2528726 65.0383448,92.9988127 66.8036867,91.2311284 L76.8928832,81.1080944 C78.6546588,79.3368318 78.6546588,76.8069678 76.8928832,75.0357053 L76.8928832,75.0392836 Z" id="path-4"></path>
        <filter x="-9.5%" y="-4.8%" width="119.0%" height="119.0%" filterUnits="objectBoundingBox" id="filter-5">
            <feOffset dx="0" dy="2" in="SourceAlpha" result="shadowOffsetOuter1"></feOffset>
            <feGaussianBlur stdDeviation="1" in="shadowOffsetOuter1" result="shadowBlurOuter1"></feGaussianBlur>
            <feColorMatrix values="0 0 0 0 0.368627451   0 0 0 0 0.48627451   0 0 0 0 0.878431373  0 0 0 0.349865467 0" type="matrix" in="shadowBlurOuter1"></feColorMatrix>
        </filter>
    </defs>
    <g id="组件总览" stroke="none" stroke-width="1" fill="none" fill-rule="evenodd">
        <g id="-TinyUI-Ng-组件总览-2" transform="translate(-1873.000000, -1111.000000)">
            <g id="Link-链接" transform="translate(1873.000000, 1111.000000)">
                <g id="编组"></g>
                <g id="编组-22" transform="translate(31.000000, 33.000000)">
                    <path d="M4,0 L12.7031151,0 L12.7031151,0 L55,0 C57.209139,-4.33003142e-15 59,1.790861 59,4 L59,53 C59,55.209139 57.209139,57 55,57 L4,57 C1.790861,57 3.75067146e-15,55.209139 0,53 L0,4 C-7.1463071e-16,1.790861 1.790861,-3.82769592e-17 4,0 Z" id="矩形" fill="url(#linearGradient-1)" opacity="0.204287574"></path>
                    <path d="M10.90625,26.59375 L37.9301136,26.59375 C39.5351912,26.59375 40.8363636,27.8949224 40.8363636,29.5 C40.8363636,31.1050776 39.5351912,32.40625 37.9301136,32.40625 L10.90625,32.40625 C9.30117245,32.40625 8,31.1050776 8,29.5 C8,27.8949224 9.30117245,26.59375 10.90625,26.59375 Z M10.90625,39.1875 L17.3119318,39.1875 C18.9170094,39.1875 20.2181818,40.4886724 20.2181818,42.09375 C20.2181818,43.6988276 18.9170094,45 17.3119318,45 L10.90625,45 C9.30117245,45 8,43.6988276 8,42.09375 C8,40.4886724 9.30117245,39.1875 10.90625,39.1875 Z M27.70625,39.1875 L34.1119318,39.1875 C35.7170094,39.1875 37.0181818,40.4886724 37.0181818,42.09375 C37.0181818,43.6988276 35.7170094,45 34.1119318,45 L27.70625,45 C26.1011724,45 24.8,43.6988276 24.8,42.09375 C24.8,40.4886724 26.1011724,39.1875 27.70625,39.1875 Z" id="形状结合备份-41" fill="url(#linearGradient-2)" opacity="0.303770519"></path>
                    <rect id="矩形备份-21" fill="url(#linearGradient-3)" opacity="0.604724702" x="8" y="13" width="42" height="5.8125" rx="2.90625"></rect>
                </g>
                <g id="形状">
                    <use fill="black" fill-opacity="1" filter="url(#filter-5)" xlink:href="#path-4"></use>
                    <use fill="#5073E5" fill-rule="evenodd" xlink:href="#path-4"></use>
                </g>
            </g>
        </g>
    </g>
</svg>