<?xml version="1.0" encoding="UTF-8"?>
<svg width="125px" height="125px" viewBox="0 0 125 125" version="1.1" xmlns="http://www.w3.org/2000/svg" xmlns:xlink="http://www.w3.org/1999/xlink">
    <title>LinkMenu 收藏夹菜单</title>
    <defs>
        <linearGradient x1="44.0988019%" y1="74.4580386%" x2="128.792906%" y2="-12.292401%" id="linearGradient-1">
            <stop stop-color="#5073E5" offset="0%"></stop>
            <stop stop-color="#5E7CE0" offset="100%"></stop>
        </linearGradient>
        <linearGradient x1="44.0988019%" y1="74.4580386%" x2="128.792906%" y2="-12.292401%" id="linearGradient-2">
            <stop stop-color="#5073E5" offset="0%"></stop>
            <stop stop-color="#5E7CE0" offset="100%"></stop>
        </linearGradient>
        <linearGradient x1="44.0988019%" y1="56.766284%" x2="128.792906%" y2="32.7668897%" id="linearGradient-3">
            <stop stop-color="#5073E5" offset="0%"></stop>
            <stop stop-color="#5E7CE0" offset="100%"></stop>
        </linearGradient>
        <linearGradient x1="44.0988019%" y1="50.7106222%" x2="128.792906%" y2="48.1901097%" id="linearGradient-4">
            <stop stop-color="#5073E5" offset="0%"></stop>
            <stop stop-color="#5E7CE0" offset="100%"></stop>
        </linearGradient>
        <linearGradient x1="44.0988019%" y1="86.8386573%" x2="128.792906%" y2="-43.8247114%" id="linearGradient-5">
            <stop stop-color="#5073E5" offset="0%"></stop>
            <stop stop-color="#5E7CE0" offset="100%"></stop>
        </linearGradient>
    </defs>
    <g id="Tiny-Vue" stroke="none" stroke-width="1" fill="none" fill-rule="evenodd">
        <g id="-TinyUI-Vue-组件总览1" transform="translate(-1869.000000, -660.000000)">
            <g id="组件" transform="translate(596.000000, 311.000000)">
                <g id="编组-25备份-5" transform="translate(1175.000000, 316.000000)">
                    <g id="LinkMenu-收藏夹菜单" transform="translate(98.000000, 33.000000)">
                        <g id="编组"></g>
                        <g id="typescript" transform="translate(18.000000, 34.000000)">
                            <rect id="矩形" fill="url(#linearGradient-1)" opacity="0.604724702" x="0" y="0" width="27" height="22" rx="4"></rect>
                            <rect id="矩形" fill="url(#linearGradient-2)" x="31" y="0" width="27" height="22" rx="4"></rect>
                            <g id="编组-6" transform="translate(62.000000, 0.000000)">
                                <rect id="矩形" fill="url(#linearGradient-2)" x="0" y="0" width="27" height="22" rx="4"></rect>
                                <path d="M21.5802305,10.3857427 C21.5175158,10.0368255 21.1818536,9.6816584 20.833696,9.60305548 L20.5733738,9.54335459 C19.9617322,9.35787166 19.4190855,8.95237868 19.0740681,8.35517443 C18.729029,7.75480176 18.6474306,7.07267945 18.7980022,6.44724152 L18.8795789,6.20203599 C18.9830711,5.86255905 18.8481782,5.39424015 18.575339,5.16159981 C18.575339,5.16159981 18.3306521,4.95415494 17.6405955,4.5549554 C16.9505173,4.15890258 16.6525359,4.04889756 16.6525359,4.04889756 C16.3168953,3.92632735 15.8464268,4.04262582 15.6017616,4.30352154 L15.4197893,4.49840123 C14.9555793,4.93846474 14.3313775,5.20563221 13.6413643,5.20563221 C12.9513511,5.20563221 12.3208908,4.93536142 11.8566158,4.49212949 L11.6809021,4.30349984 C11.4393769,4.04262582 10.96579,3.92637075 10.6301277,4.04889756 C10.6301277,4.04889756 10.3290279,4.15890258 9.6389497,4.5549337 C8.9488715,4.95727996 8.70736795,5.16472483 8.70736795,5.16472483 C8.43450705,5.39419675 8.29961415,5.85939063 8.40312805,6.20201429 L8.47846797,6.45032313 C8.62587782,7.07580447 8.54744114,7.75480176 8.20240204,8.35510932 C7.85736294,8.95541689 7.30860936,9.3641651 6.69389273,9.54650131 L6.44296899,9.60305548 C6.09792988,9.6816584 5.75914926,10.0337005 5.69643456,10.3857427 C5.69643456,10.3857427 5.64,10.7000458 5.64,11.4984449 C5.64,12.296844 5.69643456,12.6111472 5.69643456,12.6111472 C5.75914926,12.9631893 6.09478982,13.3152314 6.44296899,13.3938343 L6.68765591,13.4503885 C7.30241585,13.6327464 7.85446109,14.0413644 8.19950019,14.6448404 C8.54453929,15.2452348 8.62613769,15.9273354 8.47556612,16.552795 L8.40345288,16.7948321 C8.29996064,17.1343091 8.43485354,17.602628 8.70767113,17.8352683 C8.70767113,17.8352683 8.95235805,18.0427132 9.6424146,18.4419127 C10.3324712,18.8411123 10.6304526,18.9479706 10.6304526,18.9479706 C10.9660931,19.0705191 11.4365616,18.9542423 11.6812269,18.6933466 L11.8537356,18.5078636 C12.3210424,18.0646534 12.9484059,17.7943609 13.6416242,17.7943609 C14.3348424,17.7943609 14.9652377,18.0678001 15.4295127,18.5109887 L15.6020214,18.6964716 C15.8435467,18.9573456 16.3171336,19.0737092 16.6527958,18.9510739 C16.6527958,18.9510739 16.9538956,18.8410689 17.6439738,18.4450377 C18.334052,18.0458165 18.5755556,17.8383933 18.5755556,17.8383933 C18.8484165,17.6089214 18.9833094,17.1406025 18.8797738,16.7979571 L18.8044339,16.5464799 C18.657024,15.9241453 18.7354607,15.2451697 19.0804998,14.6479437 C19.4255389,14.0475494 19.9775625,13.635828 20.5923441,13.4534918 L20.837031,13.3969377 C21.1820701,13.3183347 21.5208507,12.9662926 21.5835654,12.6142505 C21.5835654,12.6142505 21.64,12.2999473 21.64,11.5015482 C21.6367083,10.699959 21.5802521,10.3856341 21.5802521,10.3856341 L21.5802305,10.3857427 Z M13.6415592,14.6951445 C11.8819096,14.6951445 10.4516204,13.2649924 10.4516204,11.4984449 C10.4516204,9.73506585 11.8787479,8.30487029 13.6415592,8.30487029 C15.4012088,8.30487029 16.831498,9.73502245 16.831498,11.5015699 C16.828293,13.264949 15.4011655,14.6951445 13.6415592,14.6951445 Z" id="形状" fill="#FFFFFF" fill-rule="nonzero"></path>
                            </g>
                        </g>
                        <path d="M46,61 L105,61 C106.104569,61 107,61.8954305 107,63 L107,86 C107,87.1045695 106.104569,88 105,88 L46,88 C44.8954305,88 44,87.1045695 44,86 L44,63 C44,61.8954305 44.8954305,61 46,61 Z" id="矩形" fill="url(#linearGradient-3)" opacity="0.303770519"></path>
                        <path d="M62.5,67 L93.5,67 C94.8807119,67 96,68.1192881 96,69.5 C96,70.8807119 94.8807119,72 93.5,72 L62.5,72 C61.1192881,72 60,70.8807119 60,69.5 C60,68.1192881 61.1192881,67 62.5,67 Z" id="形状结合备份" fill="#5073E5"></path>
                        <path d="M62.5,77 L93.2446809,77 C94.6253927,77 95.7446809,78.1192881 95.7446809,79.5 C95.7446809,80.8807119 94.6253927,82 93.2446809,82 L62.5,82 C61.1192881,82 60,80.8807119 60,79.5 C60,78.1192881 61.1192881,77 62.5,77 Z" id="形状结合备份-35" fill="url(#linearGradient-4)" opacity="0.303770519"></path>
                        <polygon id="形状结合备份-38" fill="url(#linearGradient-5)" opacity="0.303770519" points="50 77 55 77 55 82 50 82"></polygon>
                        <polygon id="形状结合备份-39" fill="#5073E5" points="50 67 55 67 55 72 50 72"></polygon>
                    </g>
                </g>
            </g>
        </g>
    </g>
</svg>