<?xml version="1.0" encoding="UTF-8"?>
<svg width="125px" height="125px" viewBox="0 0 125 125" version="1.1" xmlns="http://www.w3.org/2000/svg" xmlns:xlink="http://www.w3.org/1999/xlink">
    <title>TiLocale 国际化语言</title>
    <defs>
        <linearGradient x1="50%" y1="45.9685271%" x2="50%" y2="100%" id="linearGradient-1">
            <stop stop-color="#ECF3FB" offset="0%"></stop>
            <stop stop-color="#FFFFFF" offset="100%"></stop>
        </linearGradient>
        <linearGradient x1="50.3956523%" y1="35.9331967%" x2="50%" y2="64.0668033%" id="linearGradient-2">
            <stop stop-color="#E3EFFD" stop-opacity="0.00575352382" offset="0%"></stop>
            <stop stop-color="#E5F0FD" offset="34.0601199%"></stop>
            <stop stop-color="#F0F6FE" offset="100%"></stop>
        </linearGradient>
        <linearGradient x1="33.3333333%" y1="34.495573%" x2="96.9740837%" y2="65.4421891%" id="linearGradient-3">
            <stop stop-color="#D5E6F9" offset="0%"></stop>
            <stop stop-color="#F7FBFF" stop-opacity="0" offset="100%"></stop>
        </linearGradient>
        <linearGradient x1="90.9912104%" y1="29.4309598%" x2="33.3333333%" y2="67.7472684%" id="linearGradient-4">
            <stop stop-color="#D5E6F9" offset="0%"></stop>
            <stop stop-color="#E7F0F9" stop-opacity="0" offset="100%"></stop>
        </linearGradient>
        <linearGradient x1="-5.8027489%" y1="27.0499439%" x2="103.630422%" y2="71.1332543%" id="linearGradient-5">
            <stop stop-color="#CEE6FE" offset="0%"></stop>
            <stop stop-color="#8AB5F2" offset="100%"></stop>
        </linearGradient>
        <linearGradient x1="-5.8027489%" y1="27.0499439%" x2="103.630422%" y2="71.1332543%" id="linearGradient-6">
            <stop stop-color="#BFD6F9" offset="0%"></stop>
            <stop stop-color="#F3F6FE" offset="100%"></stop>
        </linearGradient>
        <linearGradient x1="89.8473889%" y1="61.7348066%" x2="0%" y2="61.7348066%" id="linearGradient-7">
            <stop stop-color="#CAD9F3" offset="0%"></stop>
            <stop stop-color="#D5E3F7" offset="100%"></stop>
        </linearGradient>
        <filter x="-18.5%" y="-60.0%" width="136.9%" height="220.0%" filterUnits="objectBoundingBox" id="filter-8">
            <feGaussianBlur stdDeviation="4" in="SourceGraphic"></feGaussianBlur>
        </filter>
        <linearGradient x1="44.1170576%" y1="86.8386573%" x2="128.549157%" y2="-43.8247114%" id="linearGradient-9">
            <stop stop-color="#5073E5" offset="0%"></stop>
            <stop stop-color="#5E7CE0" offset="100%"></stop>
        </linearGradient>
        <linearGradient x1="45.337325%" y1="86.8386573%" x2="112.256124%" y2="-43.8247114%" id="linearGradient-10">
            <stop stop-color="#5073E5" offset="0%"></stop>
            <stop stop-color="#5E7CE0" offset="100%"></stop>
        </linearGradient>
        <linearGradient x1="45.337325%" y1="86.8386573%" x2="112.256124%" y2="-43.8247114%" id="linearGradient-11">
            <stop stop-color="#5073E5" offset="0%"></stop>
            <stop stop-color="#5E7CE0" offset="100%"></stop>
        </linearGradient>
        <path d="M98,67.7377623 C98,67.722028 98,67.7062937 98,67.6905595 L98,65.9755245 C98,65.4353147 97.5728987,65 97.0428816,65 C96.5128644,65 96.0857632,65.4353147 96.0857632,65.9755245 C96.0857632,65.9755245 96.0857632,66.7622378 95.3138936,66.7622378 L76.6861063,66.7622378 C75.9142367,66.7622378 75.9142367,65.9755245 75.9142367,65.9755245 C75.9142367,65.4353147 75.4871355,65 74.9571183,65 C74.4271011,65 74,65.4353147 74,65.9755245 L74,70.6695804 C74,71.2097902 74.4271012,71.6451049 74.9571184,71.6451049 C75.4871355,71.6451049 75.9142367,71.2097902 75.9142367,70.6695804 L75.9142367,70.6643357 C75.9142367,68.7132867 77.8284734,68.7132867 77.8284734,68.7132867 L82.3773585,68.7132867 C82.7838765,68.75 84.0600343,68.986014 84.1629502,70.465035 L84.1629502,88.2972028 C84.0600343,89.7762237 82.7838765,90.0122377 82.3773585,90.048951 L81.245283,90.048951 C80.7152659,90.048951 80.2881647,90.4842657 80.2881647,91.0244755 C80.2881647,91.5646853 80.7152659,92 81.245283,92 L85.1200686,92 L86.890223,92 L90.7650086,92 C91.2950257,92 91.7221269,91.5646853 91.7221269,91.0244755 C91.7221269,90.4842657 91.2950257,90.048951 90.7650086,90.048951 L89.6277873,90.048951 C89.2212693,90.0122377 87.9451115,89.7762237 87.8421955,88.2972028 L87.8421955,70.465035 C87.9451115,68.986014 89.2212693,68.75 89.6277873,68.7132867 L94.1715266,68.7132867 C94.1715266,68.7132867 96.0857633,68.708042 96.0857633,70.6643357 L96.0857633,70.6695804 C96.0857633,71.2097902 96.5128645,71.6451049 97.0428816,71.6451049 C97.5728988,71.6451049 98,71.2097902 98,70.6695804 L98,67.784965 C98,67.7692308 98,67.7534965 98,67.7377623 Z" id="path-12"></path>
        <filter x="-18.8%" y="-9.3%" width="137.5%" height="133.3%" filterUnits="objectBoundingBox" id="filter-13">
            <feMorphology radius="0.5" operator="dilate" in="SourceAlpha" result="shadowSpreadOuter1"></feMorphology>
            <feOffset dx="0" dy="2" in="shadowSpreadOuter1" result="shadowOffsetOuter1"></feOffset>
            <feGaussianBlur stdDeviation="1" in="shadowOffsetOuter1" result="shadowBlurOuter1"></feGaussianBlur>
            <feComposite in="shadowBlurOuter1" in2="SourceAlpha" operator="out" result="shadowBlurOuter1"></feComposite>
            <feColorMatrix values="0 0 0 0 0.368627451   0 0 0 0 0.48627451   0 0 0 0 0.878431373  0 0 0 0.65213034 0" type="matrix" in="shadowBlurOuter1"></feColorMatrix>
        </filter>
    </defs>
    <g id="页面一" stroke="none" stroke-width="1" fill="none" fill-rule="evenodd">
        <g id="-TinyUI-ICON-2-【9-2】-无阴影" transform="translate(-697.000000, -2185.000000)">
            <g id="TiLocale-国际化语言" transform="translate(697.000000, 2185.000000)">
                <g id="编组">
                    <g transform="translate(9.000000, 1.000000)" id="多边形">
                        <polygon fill="url(#linearGradient-1)" opacity="0.54620216" points="53.2605623 0 106.521125 30.75 53.2605623 62 0 30.75"></polygon>
                        <polygon fill="url(#linearGradient-2)" points="53.2605623 61.5 106.521125 86.75 53.2605623 118 0 86.75"></polygon>
                        <polygon fill="url(#linearGradient-3)" opacity="0.600606283" points="53.2605623 62 53.2605623 123 7.39138783e-15 92.25 0 30.75"></polygon>
                        <polygon fill="url(#linearGradient-4)" opacity="0.791265578" points="53.2605623 62 106.521125 30.75 106.521125 92.25 53.2605623 123"></polygon>
                        <polygon fill="url(#linearGradient-5)" points="53.2605623 118.007802 53.2605623 123 7.39138783e-15 92.25 0 86.9161706"></polygon>
                        <polygon fill="url(#linearGradient-6)" transform="translate(79.630281, 104.958085) scale(-1, 1) translate(-79.630281, -104.958085) " points="106.260562 118.007802 106.260562 123 53 92.25 53 86.9161706"></polygon>
                    </g>
                    <ellipse id="椭圆形" fill="url(#linearGradient-7)" filter="url(#filter-8)" cx="62.5" cy="90" rx="32.5" ry="10"></ellipse>
                </g>
                <path d="M62,78.9166667 C64.2337169,78.9166667 66.4144303,79.1205729 68.5269964,79.4830729 C66.989398,85.6407658 64.8513853,89.5346572 63.2410972,90.9748724 C62.8301638,90.9912823 62.4161026,91 62,91 C61.5838974,91 61.1698362,90.9912823 60.7579901,90.9740201 C59.1486147,89.5346572 57.010602,85.6407658 55.4730036,79.4830729 C57.5855697,79.1205729 59.7662831,78.9166667 62,78.9166667 Z M51.3463064,80.4648438 C52.2956463,84.3075453 53.5240151,87.5999764 54.9617703,90.1453343 C50.6958674,89.0868479 46.8024479,87.0896564 43.514833,84.386023 L43.0899597,84.029 L43.1534238,83.9914905 C45.6652018,82.5080291 48.4143502,81.3203869 51.3463064,80.4648438 Z M77.2563892,86.6911299 L76.8530585,86.9359489 C74.4502478,88.3627594 71.8237263,89.4539073 69.0385134,90.1445436 C70.1640667,88.1537102 71.16443,85.7047825 71.9978503,82.8896119 C73.4533485,84.5004461 75.2425668,85.8038323 77.2563892,86.6911299 Z M49.3246033,64.1145833 C49.4230383,68.4570313 49.8319221,72.5653646 50.4906793,76.3111979 C46.7016836,77.3888791 43.1662431,78.9518371 39.9951862,80.9545564 C36.0213772,76.3718121 33.4637183,70.5326187 32.9999597,64.1148799 L49.3246033,64.1145833 Z M70.4351206,64.1145833 L70.4341455,64.1577479 C68.8932572,66.5661164 68,69.4287425 68,72.5 C68,73.4037213 68.0773416,74.2893785 68.2257669,75.1507137 C66.2031104,74.8471395 64.1228964,74.6875 62,74.6875 C59.4709782,74.6875 57.0025318,74.9216146 54.6098046,75.3445313 C54.0419105,72.0744792 53.6633144,68.3210938 53.5573075,64.1145833 L70.4351206,64.1145833 Z M54.6098046,48.6554688 C57.0025318,49.0783854 59.4634063,49.3125 62,49.3125 C64.5290218,49.3125 66.9974682,49.0859375 69.3901954,48.6630208 C69.9580895,51.9330729 70.3366856,55.6864583 70.4426925,59.8854167 L53.5573075,59.8854167 C53.6557425,55.6789063 54.0419105,51.9255208 54.6098046,48.6554688 Z M39.9909597,43.047 L39.5038211,42.7346354 C42.797607,44.8869792 46.5002766,46.5559896 50.4831073,47.6888021 C49.8243502,51.4346354 49.4154664,55.5429688 49.3170314,59.8854167 L32.9999597,59.8851201 C33.4503695,53.6521094 35.8758729,47.9648177 39.6553913,43.4426964 L39.9909597,43.047 Z M83.9980587,43.0356923 C87.7677043,47.3816516 90.2644445,52.856247 90.9101774,58.8828915 C88.7086084,57.6821807 86.1839701,57 83.5,57 C80.2229116,57 77.183356,58.0169987 74.6797275,59.7526018 L74.6829686,59.8854167 C74.5845336,55.5429688 74.1756498,51.4346354 73.5168927,47.6963542 C77.2583127,46.6301777 80.7515624,45.0756506 83.8956375,43.1020313 L83.9980587,43.0356923 Z M62,33 C62.4161026,33 62.8301638,33.0087177 63.2420099,33.0259799 C64.8513853,34.4653428 66.989398,38.3592342 68.5269964,44.5169271 C66.4144303,44.8794271 64.2337169,45.0833333 62,45.0833333 C59.7662831,45.0833333 57.5855697,44.8869792 55.4730036,44.5169271 C57.010602,38.3592342 59.1486147,34.4653428 60.7589028,33.0251276 C61.1698362,33.0087177 61.5838974,33 62,33 Z M69.0385134,33.8554564 C73.3074969,34.9140163 77.2036723,36.9134848 80.4929174,39.6203529 L80.9169597,39.977 L80.8525311,40.0160616 C78.3337937,41.499523 75.5786187,42.6871652 72.6536936,43.5427083 C71.7219867,39.736818 70.5051566,36.4749516 69.0873235,33.9416888 L69.0385134,33.8554564 Z M54.9665018,33.8542133 C53.5263632,36.3937842 52.2965536,39.6894163 51.3463064,43.5427083 C48.3944288,42.6792816 45.6220939,41.4709749 43.0853865,39.9737261 C46.4626815,37.0863747 50.5116831,34.9580094 54.9665018,33.8542133 Z" id="形状结合" fill="url(#linearGradient-9)" opacity="0.604724702"></path>
                <g id="路径">
                    <use fill="black" fill-opacity="1" filter="url(#filter-13)" xlink:href="#path-12"></use>
                    <use stroke="url(#linearGradient-11)" stroke-width="1" fill="url(#linearGradient-10)" fill-rule="evenodd" xlink:href="#path-12"></use>
                </g>
            </g>
        </g>
    </g>
</svg>