<?xml version="1.0" encoding="UTF-8"?>
<svg width="125px" height="125px" viewBox="0 0 125 125" version="1.1" xmlns="http://www.w3.org/2000/svg" xmlns:xlink="http://www.w3.org/1999/xlink">
    <title>Logout 注销</title>
    <defs>
        <linearGradient x1="50%" y1="45.9685271%" x2="50%" y2="100%" id="linearGradient-1">
            <stop stop-color="#ECF3FB" offset="0%"></stop>
            <stop stop-color="#FFFFFF" offset="100%"></stop>
        </linearGradient>
        <linearGradient x1="50.3956523%" y1="35.9331967%" x2="50%" y2="64.0668033%" id="linearGradient-2">
            <stop stop-color="#E3EFFD" stop-opacity="0.00575352382" offset="0%"></stop>
            <stop stop-color="#E5F0FD" offset="34.0601199%"></stop>
            <stop stop-color="#F0F6FE" offset="100%"></stop>
        </linearGradient>
        <linearGradient x1="33.3333333%" y1="34.495573%" x2="96.9740837%" y2="65.4421891%" id="linearGradient-3">
            <stop stop-color="#D5E6F9" offset="0%"></stop>
            <stop stop-color="#F7FBFF" stop-opacity="0" offset="100%"></stop>
        </linearGradient>
        <linearGradient x1="90.9912104%" y1="29.4309598%" x2="33.3333333%" y2="67.7472684%" id="linearGradient-4">
            <stop stop-color="#D5E6F9" offset="0%"></stop>
            <stop stop-color="#E7F0F9" stop-opacity="0" offset="100%"></stop>
        </linearGradient>
        <linearGradient x1="-5.8027489%" y1="27.0499439%" x2="103.630422%" y2="71.1332543%" id="linearGradient-5">
            <stop stop-color="#CEE6FE" offset="0%"></stop>
            <stop stop-color="#8AB5F2" offset="100%"></stop>
        </linearGradient>
        <linearGradient x1="-5.8027489%" y1="27.0499439%" x2="103.630422%" y2="71.1332543%" id="linearGradient-6">
            <stop stop-color="#BFD6F9" offset="0%"></stop>
            <stop stop-color="#F3F6FE" offset="100%"></stop>
        </linearGradient>
        <linearGradient x1="89.8473889%" y1="61.7348066%" x2="0%" y2="61.7348066%" id="linearGradient-7">
            <stop stop-color="#CAD9F3" offset="0%"></stop>
            <stop stop-color="#D5E3F7" offset="100%"></stop>
        </linearGradient>
        <filter x="-18.5%" y="-60.0%" width="136.9%" height="220.0%" filterUnits="objectBoundingBox" id="filter-8">
            <feGaussianBlur stdDeviation="4" in="SourceGraphic"></feGaussianBlur>
        </filter>
        <linearGradient x1="46.3968592%" y1="86.8386573%" x2="98.1092035%" y2="-43.8247114%" id="linearGradient-9">
            <stop stop-color="#5073E5" offset="0%"></stop>
            <stop stop-color="#5E7CE0" offset="100%"></stop>
        </linearGradient>
        <linearGradient x1="44.0988019%" y1="86.8386573%" x2="128.792906%" y2="-43.8247114%" id="linearGradient-10">
            <stop stop-color="#5073E5" offset="0%"></stop>
            <stop stop-color="#5E7CE0" offset="100%"></stop>
        </linearGradient>
    </defs>
    <g id="页面一" stroke="none" stroke-width="1" fill="none" fill-rule="evenodd">
        <g id="-TinyUI-Vue-组件总览2" transform="translate(-1869.000000, -884.000000)">
            <g id="编组-25备份-12" transform="translate(1771.000000, 851.000000)">
                <g id="Logout-注销" transform="translate(98.000000, 33.000000)">
                    <g id="编组">
                        <g transform="translate(9.000000, 1.000000)" id="多边形">
                            <polygon fill="url(#linearGradient-1)" opacity="0.54620216" points="53.2605623 0 106.521125 30.75 53.2605623 62 0 30.75"></polygon>
                            <polygon fill="url(#linearGradient-2)" points="53.2605623 61.5 106.521125 86.75 53.2605623 118 0 86.75"></polygon>
                            <polygon fill="url(#linearGradient-3)" opacity="0.600606283" points="53.2605623 62 53.2605623 123 7.39138783e-15 92.25 0 30.75"></polygon>
                            <polygon fill="url(#linearGradient-4)" opacity="0.791265578" points="53.2605623 62 106.521125 30.75 106.521125 92.25 53.2605623 123"></polygon>
                            <polygon fill="url(#linearGradient-5)" points="53.2605623 118.007802 53.2605623 123 7.39138783e-15 92.25 0 86.9161706"></polygon>
                            <polygon fill="url(#linearGradient-6)" transform="translate(79.630281, 104.958085) scale(-1, 1) translate(-79.630281, -104.958085) " points="106.260562 118.007802 106.260562 123 53 92.25 53 86.9161706"></polygon>
                        </g>
                        <ellipse id="椭圆形" fill="url(#linearGradient-7)" filter="url(#filter-8)" cx="62.5" cy="90" rx="32.5" ry="10"></ellipse>
                    </g>
                    <g id="编组-4" transform="translate(39.000000, 35.000000)">
                        <path d="M36.4029553,29.9116184 C35.448106,28.8140176 34.3853641,27.8136002 33.2470975,26.9103661 L33.2794652,26.8531994 C31.6610766,25.5669485 29.8053243,24.5722477 27.9010203,23.8748139 C29.9941363,22.274146 31.6448927,20.1475444 32.6590829,17.6379259 C32.5457957,18.5354432 33.311833,15.8085912 33.311833,13.0760225 C33.311833,9.43450314 31.8498886,5.8844505 29.3198077,3.44343201 C26.7897268,1.00241353 23.283218,-0.300987439 19.8468395,0.0591628289 C17.672804,0.304979679 15.6929753,1.08244692 13.9882725,2.27151448 C13.2923654,2.66596477 12.0462062,3.92363237 10.9942535,5.39853347 C8.90653219,8.37691902 8.24299285,12.2585386 8.92271608,15.8314579 C9.53770376,19.0899603 11.4905594,21.9997458 14.0422188,23.8919639 C7.98405066,26.1557656 3.19901489,31.3465028 1.09510965,37.7777576 C0.399202533,39.8814925 0,42.3167943 0,44.8549962 C0,45.7296468 0.652750088,46.4956807 1.46194441,46.5871475 L20.0356515,46.5871475 C20.2082796,37.3432906 27.3291896,29.900185 36.0954615,29.900185 C36.1979594,29.900185 36.2950627,29.9059017 36.4029553,29.9116184 Z" id="路径" fill="url(#linearGradient-9)" opacity="0.604724702"></path>
                        <path d="M23.94875,44.08325 C23.94875,48.1918042 26.1406375,51.9882649 29.6987499,54.0425421 C33.2568623,56.0968193 37.6406375,56.0968193 41.1987499,54.0425421 C44.7568623,51.9882649 46.94875,48.1918042 46.94875,44.08325 C46.94875,37.7319753 41.8000244,32.58325 35.44875,32.58325 C29.0974753,32.58325 23.94875,37.7319753 23.94875,44.08325 L23.94875,44.08325 Z" id="路径" fill="url(#linearGradient-10)"></path>
                        <path d="M39.0165808,41.58325 L32.1760342,41.58325 C30.9454597,41.58325 29.94875,42.5799597 29.94875,43.8105342 C29.94875,45.0411087 30.9454597,46.0378184 32.1760342,46.0378184 L39.0165808,46.0378184 C40.2471554,46.0378184 41.243865,45.0411087 41.243865,43.8105342 C41.243865,42.5799597 40.2471554,41.58325 39.0165808,41.58325 Z" id="路径" fill="#FFFFFF" fill-rule="nonzero"></path>
                    </g>
                </g>
            </g>
        </g>
    </g>
</svg>