<?xml version="1.0" encoding="UTF-8"?>
<svg width="125px" height="125px" viewBox="0 0 125 125" version="1.1" xmlns="http://www.w3.org/2000/svg" xmlns:xlink="http://www.w3.org/1999/xlink">
    <title>Milestone 里程碑</title>
    <defs>
        <linearGradient x1="50%" y1="45.9685271%" x2="50%" y2="100%" id="linearGradient-1">
            <stop stop-color="#ECF3FB" offset="0%"></stop>
            <stop stop-color="#FFFFFF" offset="100%"></stop>
        </linearGradient>
        <linearGradient x1="50.3956523%" y1="35.9331967%" x2="50%" y2="64.0668033%" id="linearGradient-2">
            <stop stop-color="#E3EFFD" stop-opacity="0.00575352382" offset="0%"></stop>
            <stop stop-color="#E5F0FD" offset="34.0601199%"></stop>
            <stop stop-color="#F0F6FE" offset="100%"></stop>
        </linearGradient>
        <linearGradient x1="33.3333333%" y1="34.495573%" x2="96.9740837%" y2="65.4421891%" id="linearGradient-3">
            <stop stop-color="#D5E6F9" offset="0%"></stop>
            <stop stop-color="#F7FBFF" stop-opacity="0" offset="100%"></stop>
        </linearGradient>
        <linearGradient x1="90.9912104%" y1="29.4309598%" x2="33.3333333%" y2="67.7472684%" id="linearGradient-4">
            <stop stop-color="#D5E6F9" offset="0%"></stop>
            <stop stop-color="#E7F0F9" stop-opacity="0" offset="100%"></stop>
        </linearGradient>
        <linearGradient x1="-5.8027489%" y1="27.0499439%" x2="103.630422%" y2="71.1332543%" id="linearGradient-5">
            <stop stop-color="#CEE6FE" offset="0%"></stop>
            <stop stop-color="#8AB5F2" offset="100%"></stop>
        </linearGradient>
        <linearGradient x1="-5.8027489%" y1="27.0499439%" x2="103.630422%" y2="71.1332543%" id="linearGradient-6">
            <stop stop-color="#BFD6F9" offset="0%"></stop>
            <stop stop-color="#F3F6FE" offset="100%"></stop>
        </linearGradient>
        <linearGradient x1="89.8473889%" y1="61.7348066%" x2="0%" y2="61.7348066%" id="linearGradient-7">
            <stop stop-color="#CAD9F3" offset="0%"></stop>
            <stop stop-color="#D5E3F7" offset="100%"></stop>
        </linearGradient>
        <filter x="-18.5%" y="-60.0%" width="136.9%" height="220.0%" filterUnits="objectBoundingBox" id="filter-8">
            <feGaussianBlur stdDeviation="4" in="SourceGraphic"></feGaussianBlur>
        </filter>
        <linearGradient x1="50%" y1="0%" x2="50%" y2="100%" id="linearGradient-9">
            <stop stop-color="#FFCC00" offset="0%"></stop>
            <stop stop-color="#FF9D00" offset="100%"></stop>
        </linearGradient>
        <path d="M14.3333333,1.33318717 C14.7307708,1.2562733 15.1260208,1.14571625 15.5186667,0.994970154 C15.7466042,0.907472388 16,1.07311669 16,1.32158314 L16,11.2454706 C16,11.5176552 15.8407708,11.7658453 15.5914792,11.8628856 C12.56525,13.0411832 10.1340833,12.393823 7.72883333,11.7533487 C5.839625,11.250295 3.966375,10.7515131 1.83333333,11.1449661 L1.83333333,18.8299776 C1.83333333,18.9238784 1.75871412,19 1.66666667,19 L0.166666667,19 C0.0746192084,19 0,18.9238784 0,18.8299776 L0,1.20637173 C0,0.950296774 0.140354167,0.713115556 0.370458333,0.610783337 C2.85647917,-0.494893444 5.46520833,0.120481303 8.07927083,0.73715247 C10.1808542,1.23289522 12.285875,1.72946683 14.3333333,1.33318717 Z" id="path-10"></path>
        <filter x="-21.9%" y="-13.2%" width="143.8%" height="136.8%" filterUnits="objectBoundingBox" id="filter-11">
            <feOffset dx="0" dy="1" in="SourceAlpha" result="shadowOffsetOuter1"></feOffset>
            <feGaussianBlur stdDeviation="1" in="shadowOffsetOuter1" result="shadowBlurOuter1"></feGaussianBlur>
            <feColorMatrix values="0 0 0 0 0.661752894   0 0 0 0 0.324547702   0 0 0 0 0.00489962574  0 0 0 0.5 0" type="matrix" in="shadowBlurOuter1"></feColorMatrix>
        </filter>
        <linearGradient x1="44.0988019%" y1="50.4268018%" x2="128.792906%" y2="48.9129747%" id="linearGradient-12">
            <stop stop-color="#5073E5" offset="0%"></stop>
            <stop stop-color="#5E7CE0" offset="100%"></stop>
        </linearGradient>
        <path d="M76.2128736,39 C76.7651583,39 77.2128736,39.4477153 77.2128736,40 C77.2128736,40.2829303 77.0930222,40.5526192 76.8830242,40.7422251 L70.2612268,46.721006 C69.8513072,47.09112 69.2189651,47.0588511 68.8488511,46.6489314 C68.682927,46.4651622 68.5910762,46.2263731 68.5910762,45.9787808 L68.5909868,43.023 L5.08598679,43.023329 C3.98141729,43.023329 3.08598679,42.1278985 3.08598679,41.023329 C3.08598679,39.9187595 3.98141729,39.023329 5.08598679,39.023329 L68.5909868,39.023 L68.5910762,39 L76.2128736,39 Z" id="path-13"></path>
        <filter x="-5.4%" y="-25.1%" width="110.8%" height="200.3%" filterUnits="objectBoundingBox" id="filter-14">
            <feOffset dx="0" dy="2" in="SourceAlpha" result="shadowOffsetOuter1"></feOffset>
            <feGaussianBlur stdDeviation="1" in="shadowOffsetOuter1" result="shadowBlurOuter1"></feGaussianBlur>
            <feColorMatrix values="0 0 0 0 0.368627451   0 0 0 0 0.48627451   0 0 0 0 0.878431373  0 0 0 0.65213034 0" type="matrix" in="shadowBlurOuter1"></feColorMatrix>
        </filter>
    </defs>
    <g id="页面一" stroke="none" stroke-width="1" fill="none" fill-rule="evenodd">
        <g id="-TinyUI-Vue-组件总览" transform="translate(-696.000000, -884.000000)">
            <g id="编组-25备份-9" transform="translate(598.000000, 851.000000)">
                <g id="Milestone-里程碑" transform="translate(98.000000, 33.000000)">
                    <g id="编组">
                        <g transform="translate(9.000000, 1.000000)" id="多边形">
                            <polygon fill="url(#linearGradient-1)" opacity="0.54620216" points="53.2605623 0 106.521125 30.75 53.2605623 62 0 30.75"></polygon>
                            <polygon fill="url(#linearGradient-2)" points="53.2605623 61.5 106.521125 86.75 53.2605623 118 0 86.75"></polygon>
                            <polygon fill="url(#linearGradient-3)" opacity="0.600606283" points="53.2605623 62 53.2605623 123 7.39138783e-15 92.25 0 30.75"></polygon>
                            <polygon fill="url(#linearGradient-4)" opacity="0.791265578" points="53.2605623 62 106.521125 30.75 106.521125 92.25 53.2605623 123"></polygon>
                            <polygon fill="url(#linearGradient-5)" points="53.2605623 118.007802 53.2605623 123 7.39138783e-15 92.25 0 86.9161706"></polygon>
                            <polygon fill="url(#linearGradient-6)" transform="translate(79.630281, 104.958085) scale(-1, 1) translate(-79.630281, -104.958085) " points="106.260562 118.007802 106.260562 123 53 92.25 53 86.9161706"></polygon>
                        </g>
                        <ellipse id="椭圆形" fill="url(#linearGradient-7)" filter="url(#filter-8)" cx="62.5" cy="90" rx="32.5" ry="10"></ellipse>
                    </g>
                    <g id="编组-6" transform="translate(23.000000, 40.000000)">
                        <g id="编组-9">
                            <path d="M12,16 L39,16 C40.1045695,16 41,16.8954305 41,18 C41,19.1045695 40.1045695,20 39,20 L12,20 C10.8954305,20 10,19.1045695 10,18 C10,16.8954305 10.8954305,16 12,16 Z" id="形状结合备份-4" fill="#5073E5"></path>
                            <path d="M53,16 L74,16 C75.1045695,16 76,16.8954305 76,18 C76,19.1045695 75.1045695,20 74,20 L53,20 C51.8954305,20 51,19.1045695 51,18 C51,16.8954305 51.8954305,16 53,16 Z" id="形状结合备份-5" fill="#5073E5"></path>
                            <circle id="椭圆形" stroke="#5073E5" stroke-width="5" fill="#5073E5" cx="13.5" cy="13.5" r="13.5"></circle>
                            <g id="形状" transform="translate(6.000000, 4.000000)">
                                <use fill="black" fill-opacity="1" filter="url(#filter-11)" xlink:href="#path-10"></use>
                                <use fill="url(#linearGradient-9)" fill-rule="evenodd" xlink:href="#path-10"></use>
                            </g>
                            <circle id="椭圆形备份" stroke="#5073E5" stroke-width="5" fill="#FFFFFF" cx="47" cy="17.5" r="5.5"></circle>
                            <circle id="椭圆形备份-2" stroke="#5073E5" stroke-width="5" fill="#FFFFFF" cx="73.5" cy="17.5" r="5.5"></circle>
                        </g>
                        <g id="形状结合备份-3" opacity="0.604724702">
                            <use fill="black" fill-opacity="1" filter="url(#filter-14)" xlink:href="#path-13"></use>
                            <use fill="url(#linearGradient-12)" fill-rule="evenodd" xlink:href="#path-13"></use>
                        </g>
                    </g>
                </g>
            </g>
        </g>
    </g>
</svg>