<?xml version="1.0" encoding="UTF-8"?>
<svg width="125px" height="125px" viewBox="0 0 125 125" version="1.1" xmlns="http://www.w3.org/2000/svg" xmlns:xlink="http://www.w3.org/1999/xlink">
    <title>Modal 弹出框</title>
    <defs>
        <linearGradient x1="44.0988019%" y1="67.8556222%" x2="128.792906%" y2="4.52335329%" id="linearGradient-1">
            <stop stop-color="#5073E5" offset="0%"></stop>
            <stop stop-color="#5E7CE0" offset="100%"></stop>
        </linearGradient>
        <linearGradient x1="44.0988019%" y1="63.6227686%" x2="128.792906%" y2="15.3040466%" id="linearGradient-2">
            <stop stop-color="#5073E5" offset="0%"></stop>
            <stop stop-color="#5E7CE0" offset="100%"></stop>
        </linearGradient>
        <linearGradient x1="44.0988019%" y1="63.6227686%" x2="128.792906%" y2="15.3040466%" id="linearGradient-3">
            <stop stop-color="#5073E5" offset="0%"></stop>
            <stop stop-color="#5E7CE0" offset="100%"></stop>
        </linearGradient>
        <rect id="path-4" x="31" y="34" width="74" height="45" rx="4"></rect>
        <filter x="-6.1%" y="-5.6%" width="112.2%" height="120.0%" filterUnits="objectBoundingBox" id="filter-5">
            <feMorphology radius="0.5" operator="dilate" in="SourceAlpha" result="shadowSpreadOuter1"></feMorphology>
            <feOffset dx="0" dy="2" in="shadowSpreadOuter1" result="shadowOffsetOuter1"></feOffset>
            <feGaussianBlur stdDeviation="1" in="shadowOffsetOuter1" result="shadowBlurOuter1"></feGaussianBlur>
            <feComposite in="shadowBlurOuter1" in2="SourceAlpha" operator="out" result="shadowBlurOuter1"></feComposite>
            <feColorMatrix values="0 0 0 0 0.368627451   0 0 0 0 0.48627451   0 0 0 0 0.878431373  0 0 0 0.65213034 0" type="matrix" in="shadowBlurOuter1"></feColorMatrix>
        </filter>
        <path d="M94.5330808,37.4497475 L94.5327475,40.3657475 L97.4497475,40.3664141 L97.4497475,41.5330808 L94.5327475,41.5327475 L94.5330808,44.4497475 L93.3664141,44.4497475 L93.3657475,41.5327475 L90.4497475,41.5330808 L90.4497475,40.3664141 L93.3657475,40.3657475 L93.3664141,37.4497475 L94.5330808,37.4497475 Z" id="path-6"></path>
        <filter x="-28.6%" y="-28.6%" width="157.1%" height="157.1%" filterUnits="objectBoundingBox" id="filter-7">
            <feMorphology radius="0.5" operator="dilate" in="SourceAlpha" result="shadowSpreadOuter1"></feMorphology>
            <feOffset dx="0" dy="0" in="shadowSpreadOuter1" result="shadowOffsetOuter1"></feOffset>
            <feGaussianBlur stdDeviation="0.5" in="shadowOffsetOuter1" result="shadowBlurOuter1"></feGaussianBlur>
            <feComposite in="shadowBlurOuter1" in2="SourceAlpha" operator="out" result="shadowBlurOuter1"></feComposite>
            <feColorMatrix values="0 0 0 0 0.232993057   0 0 0 0 0.361563365   0 0 0 0 0.790131058  0 0 0 1 0" type="matrix" in="shadowBlurOuter1"></feColorMatrix>
        </filter>
        <linearGradient x1="44.0988019%" y1="59.6880098%" x2="128.792906%" y2="25.3255197%" id="linearGradient-8">
            <stop stop-color="#5073E5" offset="0%"></stop>
            <stop stop-color="#5E7CE0" offset="100%"></stop>
        </linearGradient>
        <linearGradient x1="44.0988019%" y1="66.3727366%" x2="128.792906%" y2="8.30012825%" id="linearGradient-9">
            <stop stop-color="#5073E5" offset="0%"></stop>
            <stop stop-color="#5E7CE0" offset="100%"></stop>
        </linearGradient>
    </defs>
    <g id="组件总览" stroke="none" stroke-width="1" fill="none" fill-rule="evenodd">
        <g id="-TinyUI-Ng-组件总览-2" transform="translate(-697.000000, -574.000000)">
            <g id="Modal-弹出框" transform="translate(697.000000, 574.000000)">
                <g id="编组"></g>
                <path d="M24,36 L37.0092559,36 L37.0092559,36 L95,36 C97.209139,36 99,37.790861 99,40 L99,87 C99,89.209139 97.209139,91 95,91 L24,91 C21.790861,91 20,89.209139 20,87 L20,40 C20,37.790861 21.790861,36 24,36 Z" id="矩形" fill="url(#linearGradient-1)" opacity="0.204287574"></path>
                <g id="形状结合">
                    <use fill="black" fill-opacity="1" filter="url(#filter-5)" xlink:href="#path-4"></use>
                    <use stroke="url(#linearGradient-3)" stroke-width="1" fill="url(#linearGradient-2)" fill-rule="evenodd" xlink:href="#path-4"></use>
                </g>
                <g id="形状结合" fill-rule="nonzero" transform="translate(93.949747, 40.949747) rotate(-315.000000) translate(-93.949747, -40.949747) ">
                    <use fill="black" fill-opacity="1" filter="url(#filter-7)" xlink:href="#path-6"></use>
                    <use stroke="#FFFFFF" stroke-width="1" fill="#FFFFFF" xlink:href="#path-6"></use>
                </g>
                <rect id="形状结合备份-34" fill="url(#linearGradient-8)" opacity="0.204287574" x="81" y="79" width="14" height="7" rx="2"></rect>
                <rect id="形状结合备份-40" fill="url(#linearGradient-8)" opacity="0.204287574" x="63" y="79" width="14" height="7" rx="2"></rect>
                <path d="M31,70 L73,70 C74.6568542,70 76,71.3431458 76,73 C76,74.6568542 74.6568542,76 73,76 L31,76 C29.3431458,76 28,74.6568542 28,73 C28,71.3431458 29.3431458,70 31,70 Z M31,58 L57,58 C58.6568542,58 60,59.3431458 60,61 C60,62.6568542 58.6568542,64 57,64 L31,64 C29.3431458,64 28,62.6568542 28,61 C28,59.3431458 29.3431458,58 31,58 Z M31,44 L65,44 C66.6568542,44 68,45.3431458 68,47 C68,48.6568542 66.6568542,50 65,50 L31,50 C29.3431458,50 28,48.6568542 28,47 C28,45.3431458 29.3431458,44 31,44 Z" id="形状结合备份-41" fill="url(#linearGradient-9)" opacity="0.303770519"></path>
                <path d="M42.5,45 L78.5,45 C79.3284271,45 80,45.6715729 80,46.5 C80,47.3284271 79.3284271,48 78.5,48 L42.5,48 C41.6715729,48 41,47.3284271 41,46.5 C41,45.6715729 41.6715729,45 42.5,45 Z" id="形状结合备份" stroke="#FFFFFF" fill="#FFFFFF" fill-rule="nonzero"></path>
                <path d="M42.5,54 L62.5,54 C63.3284271,54 64,54.6715729 64,55.5 C64,56.3284271 63.3284271,57 62.5,57 L42.5,57 C41.6715729,57 41,56.3284271 41,55.5 C41,54.6715729 41.6715729,54 42.5,54 Z" id="形状结合备份-17" stroke="#FFFFFF" fill="#FFFFFF" fill-rule="nonzero" opacity="0.699016753"></path>
                <path d="M73,66 L81,66 C81.5522847,66 82,66.4477153 82,67 L82,70 C82,70.5522847 81.5522847,71 81,71 L73,71 C72.4477153,71 72,70.5522847 72,70 L72,67 C72,66.4477153 72.4477153,66 73,66 Z" id="形状结合备份-42" stroke="#FFFFFF" fill="#FFFFFF" fill-rule="nonzero" opacity="0.699016753"></path>
                <path d="M89,66 L97,66 C97.5522847,66 98,66.4477153 98,67 L98,70 C98,70.5522847 97.5522847,71 97,71 L89,71 C88.4477153,71 88,70.5522847 88,70 L88,67 C88,66.4477153 88.4477153,66 89,66 Z" id="形状结合备份-43" stroke="#FFFFFF" fill="#FFFFFF" fill-rule="nonzero" opacity="0.699016753"></path>
                <path d="M70.75,54 L74.75,54 C75.5784271,54 76.25,54.6715729 76.25,55.5 C76.25,56.3284271 75.5784271,57 74.75,57 L70.75,57 C69.9215729,57 69.25,56.3284271 69.25,55.5 C69.25,54.6715729 69.9215729,54 70.75,54 Z M82.75,54 L86.75,54 C87.5784271,54 88.25,54.6715729 88.25,55.5 C88.25,56.3284271 87.5784271,57 86.75,57 L82.75,57 C81.9215729,57 81.25,56.3284271 81.25,55.5 C81.25,54.6715729 81.9215729,54 82.75,54 Z" id="形状结合备份-39" stroke="#FFFFFF" fill="#FFFFFF" fill-rule="nonzero" opacity="0.699016753"></path>
            </g>
        </g>
    </g>
</svg>