<?xml version="1.0" encoding="UTF-8"?>
<svg width="125px" height="125px" viewBox="0 0 125 125" version="1.1" xmlns="http://www.w3.org/2000/svg" xmlns:xlink="http://www.w3.org/1999/xlink">
    <title>Popconfirm 气泡确认框</title>
    <defs>
        <linearGradient x1="44.0988019%" y1="61.2505872%" x2="128.792906%" y2="21.3457772%" id="linearGradient-1">
            <stop stop-color="#5073E5" offset="0%"></stop>
            <stop stop-color="#5E7CE0" offset="100%"></stop>
        </linearGradient>
        <linearGradient x1="44.0988019%" y1="54.9099647%" x2="128.792906%" y2="37.4947664%" id="linearGradient-2">
            <stop stop-color="#5073E5" offset="0%"></stop>
            <stop stop-color="#5E7CE0" offset="100%"></stop>
        </linearGradient>
        <linearGradient x1="44.0988019%" y1="80.0263334%" x2="128.792906%" y2="-26.4743417%" id="linearGradient-3">
            <stop stop-color="#5073E5" offset="0%"></stop>
            <stop stop-color="#5E7CE0" offset="100%"></stop>
        </linearGradient>
    </defs>
    <g id="Tiny-Vue" stroke="none" stroke-width="1" fill="none" fill-rule="evenodd">
        <g id="-TinyUI-Vue-组件总览1" transform="translate(-1087.000000, -1760.000000)">
            <g id="组件" transform="translate(596.000000, 311.000000)">
                <g id="编组-14备份-5" transform="translate(393.000000, 1416.000000)">
                    <g id="Popconfirm-气泡确认框" transform="translate(98.000000, 33.000000)">
                        <g id="编组"></g>
                        <g id="编组-13" transform="translate(25.000000, 30.296208)">
                            <g id="编组-22" transform="translate(0.000000, 18.703792)" opacity="0.204287574">
                                <path d="M4,0 L16.3633348,0 L16.3633348,0 L72,0 C74.209139,-4.05812251e-16 76,1.790861 76,4 L76,38 C76,40.209139 74.209139,42 72,42 L4,42 C1.790861,42 2.705415e-16,40.209139 0,38 L0,4 C-2.705415e-16,1.790861 1.790861,4.05812251e-16 4,0 Z" id="矩形" fill="url(#linearGradient-1)"></path>
                                <path d="M23.625,30 L66,30 C67.6568542,30 69,31.3431458 69,33 C69,34.6568542 67.6568542,36 66,36 L23.625,36 C21.9681458,36 20.625,34.6568542 20.625,33 C20.625,31.3431458 21.9681458,30 23.625,30 Z M9,13 L48,13 C49.6568542,13 51,14.3431458 51,16 C51,17.6568542 49.6568542,19 48,19 L9,19 C7.34314575,19 6,17.6568542 6,16 C6,14.3431458 7.34314575,13 9,13 Z" id="形状结合备份-41" fill="url(#linearGradient-2)"></path>
                            </g>
                            <g id="编组-21" transform="translate(19.000000, 0.000000)">
                                <path d="M48,0 C50.209139,-4.05812251e-16 52,1.790861 52,4 L52,39.7037922 C52,41.9129312 50.209139,43.7037922 48,43.7037922 L29.2,43.703 L25.6875,46.9464328 L22.174,43.703 L4,43.7037922 C1.790861,43.7037922 2.705415e-16,41.9129312 0,39.7037922 L0,4 C-2.705415e-16,1.790861 1.790861,4.05812251e-16 4,0 L48,0 Z" id="形状结合" fill="url(#linearGradient-3)"></path>
                                <g id="上传" transform="translate(12.000000, 7.703792)" fill="#FFFFFF" fill-rule="nonzero">
                                    <path d="M26.8333333,25.6668958 L1.16666667,25.6668958 C0.522334459,25.6668958 0,26.189179 0,26.8334479 C0,27.4777168 0.522334459,28 1.16666667,28 L26.8333333,28 C27.4776655,28 28,27.4777168 28,26.8334479 C28,26.189179 27.4776655,25.6668958 26.8333333,25.6668958 Z M3.45333333,12.7648296 L9.33333333,12.7648296 L9.33333333,21.4673082 C9.33321555,22.1541083 9.88325031,22.714466 10.57,22.7271845 L17.57,22.7271845 C18.2014355,22.6446664 18.6720368,22.1040286 18.6666667,21.4673082 L18.6666667,12.7648296 L24.5233333,12.7648296 C24.9781824,12.7801062 25.3952017,12.5128947 25.5713453,12.0932997 C25.7474889,11.6737047 25.6461485,11.1889315 25.3166667,10.8750152 L14.7933333,0.329384182 C14.5831819,0.118522496 14.2977163,5.5259008e-16 14,5.5259008e-16 C13.7022837,5.5259008e-16 13.4168181,0.118522496 13.2066667,0.329384182 L2.66,10.8750152 C2.33051813,11.1889315 2.22917781,11.6737047 2.40532141,12.0932997 C2.58146501,12.5128947 2.99848423,12.7801062 3.45333333,12.7648296 Z" id="形状"></path>
                                </g>
                            </g>
                        </g>
                    </g>
                </g>
            </g>
        </g>
    </g>
</svg>