<?xml version="1.0" encoding="UTF-8"?>
<svg width="125px" height="125px" viewBox="0 0 125 125" version="1.1" xmlns="http://www.w3.org/2000/svg" xmlns:xlink="http://www.w3.org/1999/xlink">
    <title>Popconfirm 气泡确认框</title>
    <defs>
        <linearGradient x1="50%" y1="45.9685271%" x2="50%" y2="100%" id="linearGradient-1">
            <stop stop-color="#ECF3FB" offset="0%"></stop>
            <stop stop-color="#FFFFFF" offset="100%"></stop>
        </linearGradient>
        <linearGradient x1="50.3956523%" y1="35.9331967%" x2="50%" y2="64.0668033%" id="linearGradient-2">
            <stop stop-color="#E3EFFD" stop-opacity="0.00575352382" offset="0%"></stop>
            <stop stop-color="#E5F0FD" offset="34.0601199%"></stop>
            <stop stop-color="#F0F6FE" offset="100%"></stop>
        </linearGradient>
        <linearGradient x1="33.3333333%" y1="34.495573%" x2="96.9740837%" y2="65.4421891%" id="linearGradient-3">
            <stop stop-color="#D5E6F9" offset="0%"></stop>
            <stop stop-color="#F7FBFF" stop-opacity="0" offset="100%"></stop>
        </linearGradient>
        <linearGradient x1="90.9912104%" y1="29.4309598%" x2="33.3333333%" y2="67.7472684%" id="linearGradient-4">
            <stop stop-color="#D5E6F9" offset="0%"></stop>
            <stop stop-color="#E7F0F9" stop-opacity="0" offset="100%"></stop>
        </linearGradient>
        <linearGradient x1="-5.8027489%" y1="27.0499439%" x2="103.630422%" y2="71.1332543%" id="linearGradient-5">
            <stop stop-color="#CEE6FE" offset="0%"></stop>
            <stop stop-color="#8AB5F2" offset="100%"></stop>
        </linearGradient>
        <linearGradient x1="-5.8027489%" y1="27.0499439%" x2="103.630422%" y2="71.1332543%" id="linearGradient-6">
            <stop stop-color="#BFD6F9" offset="0%"></stop>
            <stop stop-color="#F3F6FE" offset="100%"></stop>
        </linearGradient>
        <linearGradient x1="89.8473889%" y1="61.7348066%" x2="0%" y2="61.7348066%" id="linearGradient-7">
            <stop stop-color="#CAD9F3" offset="0%"></stop>
            <stop stop-color="#D5E3F7" offset="100%"></stop>
        </linearGradient>
        <filter x="-18.5%" y="-60.0%" width="136.9%" height="220.0%" filterUnits="objectBoundingBox" id="filter-8">
            <feGaussianBlur stdDeviation="4" in="SourceGraphic"></feGaussianBlur>
        </filter>
        <linearGradient x1="44.0988019%" y1="64.0535016%" x2="128.792906%" y2="14.2070089%" id="linearGradient-9">
            <stop stop-color="#5073E5" offset="0%"></stop>
            <stop stop-color="#5E7CE0" offset="100%"></stop>
        </linearGradient>
        <linearGradient x1="44.0988019%" y1="55.413236%" x2="128.792906%" y2="36.2129799%" id="linearGradient-10">
            <stop stop-color="#5073E5" offset="0%"></stop>
            <stop stop-color="#5E7CE0" offset="100%"></stop>
        </linearGradient>
        <linearGradient x1="50%" y1="0%" x2="50%" y2="100%" id="linearGradient-11">
            <stop stop-color="#FFCC00" offset="0%"></stop>
            <stop stop-color="#FF9D00" offset="100%"></stop>
        </linearGradient>
        <circle id="path-12" cx="8" cy="8" r="8"></circle>
        <filter x="-43.8%" y="-31.2%" width="187.5%" height="187.5%" filterUnits="objectBoundingBox" id="filter-13">
            <feOffset dx="0" dy="2" in="SourceAlpha" result="shadowOffsetOuter1"></feOffset>
            <feMorphology radius="4" operator="erode" in="SourceAlpha" result="shadowInner"></feMorphology>
            <feOffset dx="0" dy="2" in="shadowInner" result="shadowInner"></feOffset>
            <feComposite in="shadowOffsetOuter1" in2="shadowInner" operator="out" result="shadowOffsetOuter1"></feComposite>
            <feGaussianBlur stdDeviation="2" in="shadowOffsetOuter1" result="shadowBlurOuter1"></feGaussianBlur>
            <feColorMatrix values="0 0 0 0 0.661752894   0 0 0 0 0.324547702   0 0 0 0 0.00489962574  0 0 0 0.5 0" type="matrix" in="shadowBlurOuter1"></feColorMatrix>
        </filter>
        <filter x="-46.9%" y="-34.4%" width="193.8%" height="193.8%" filterUnits="objectBoundingBox" id="filter-14">
            <feGaussianBlur stdDeviation="1.5" in="SourceAlpha" result="shadowBlurInner1"></feGaussianBlur>
            <feOffset dx="0" dy="-4" in="shadowBlurInner1" result="shadowOffsetInner1"></feOffset>
            <feComposite in="shadowOffsetInner1" in2="SourceAlpha" operator="arithmetic" k2="-1" k3="1" result="shadowInnerInner1"></feComposite>
            <feColorMatrix values="0 0 0 0 0.841553619   0 0 0 0 0.341832308   0 0 0 0 0  0 0 0 0.5 0" type="matrix" in="shadowInnerInner1"></feColorMatrix>
        </filter>
        <polygon id="path-15" points="7.71298757 6.80228137 6.27540338 20.814413 10.9449685 18.9202277 13.4194729 25.8022814 15.8096817 24.7804537 13.2116343 17.9762941 17.8108161 16.4874666"></polygon>
        <filter x="-47.7%" y="-18.4%" width="195.4%" height="157.9%" filterUnits="objectBoundingBox" id="filter-16">
            <feOffset dx="0" dy="2" in="SourceAlpha" result="shadowOffsetOuter1"></feOffset>
            <feGaussianBlur stdDeviation="1.5" in="shadowOffsetOuter1" result="shadowBlurOuter1"></feGaussianBlur>
            <feColorMatrix values="0 0 0 0 0   0 0 0 0 0   0 0 0 0 0  0 0 0 0.5 0" type="matrix" in="shadowBlurOuter1"></feColorMatrix>
        </filter>
        <linearGradient x1="44.0988019%" y1="62.9020556%" x2="128.792906%" y2="17.1396372%" id="linearGradient-17">
            <stop stop-color="#5073E5" offset="0%"></stop>
            <stop stop-color="#5E7CE0" offset="100%"></stop>
        </linearGradient>
    </defs>
    <g id="页面一" stroke="none" stroke-width="1" fill="none" fill-rule="evenodd">
        <g id="-TinyUI-Vue-组件总览" transform="translate(-696.000000, -1709.000000)">
            <g id="编组-14备份-2" transform="translate(598.000000, 1676.000000)">
                <g id="Popconfirm-气泡确认框" transform="translate(98.000000, 33.000000)">
                    <g id="编组">
                        <g transform="translate(9.000000, 1.000000)" id="多边形">
                            <polygon fill="url(#linearGradient-1)" opacity="0.54620216" points="53.2605623 0 106.521125 30.75 53.2605623 62 0 30.75"></polygon>
                            <polygon fill="url(#linearGradient-2)" points="53.2605623 61.5 106.521125 86.75 53.2605623 118 0 86.75"></polygon>
                            <polygon fill="url(#linearGradient-3)" opacity="0.600606283" points="53.2605623 62 53.2605623 123 7.39138783e-15 92.25 0 30.75"></polygon>
                            <polygon fill="url(#linearGradient-4)" opacity="0.791265578" points="53.2605623 62 106.521125 30.75 106.521125 92.25 53.2605623 123"></polygon>
                            <polygon fill="url(#linearGradient-5)" points="53.2605623 118.007802 53.2605623 123 7.39138783e-15 92.25 0 86.9161706"></polygon>
                            <polygon fill="url(#linearGradient-6)" transform="translate(79.630281, 104.958085) scale(-1, 1) translate(-79.630281, -104.958085) " points="106.260562 118.007802 106.260562 123 53 92.25 53 86.9161706"></polygon>
                        </g>
                        <ellipse id="椭圆形" fill="url(#linearGradient-7)" filter="url(#filter-8)" cx="62.5" cy="90" rx="32.5" ry="10"></ellipse>
                    </g>
                    <g id="编组-13" transform="translate(25.000000, 34.000000)">
                        <g id="编组-22" transform="translate(0.000000, 14.000000)" opacity="0.204287574">
                            <path d="M4,0 L14.6408785,0 L14.6408785,0 L64,0 C66.209139,-4.05812251e-16 68,1.790861 68,4 L68,38 C68,40.209139 66.209139,42 64,42 L4,42 C1.790861,42 2.705415e-16,40.209139 0,38 L0,4 C-7.1463071e-16,1.790861 1.790861,-3.82769592e-17 4,0 Z" id="矩形" fill="url(#linearGradient-9)"></path>
                            <path d="M25.6875,30 L62.6875,30 C64.3443542,30 65.6875,31.3431458 65.6875,33 C65.6875,34.6568542 64.3443542,36 62.6875,36 L25.6875,36 C24.0306458,36 22.6875,34.6568542 22.6875,33 C22.6875,31.3431458 24.0306458,30 25.6875,30 Z M8.6875,13 L42.6875,13 C44.3443542,13 45.6875,14.3431458 45.6875,16 C45.6875,17.6568542 44.3443542,19 42.6875,19 L8.6875,19 C7.03064575,19 5.6875,17.6568542 5.6875,16 C5.6875,14.3431458 7.03064575,13 8.6875,13 Z" id="形状结合备份-41" fill="url(#linearGradient-10)"></path>
                        </g>
                        <g id="编组-23" transform="translate(45.687500, 40.000000)">
                            <g id="椭圆形">
                                <use fill="black" fill-opacity="1" filter="url(#filter-13)" xlink:href="#path-12"></use>
                                <use fill="black" fill-opacity="1" filter="url(#filter-14)" xlink:href="#path-12"></use>
                                <circle stroke="url(#linearGradient-11)" stroke-width="4" stroke-linejoin="square" cx="8" cy="8" r="6"></circle>
                            </g>
                            <g id="路径-2">
                                <use fill="black" fill-opacity="1" filter="url(#filter-16)" xlink:href="#path-15"></use>
                                <use fill="#000000" fill-rule="evenodd" xlink:href="#path-15"></use>
                            </g>
                        </g>
                        <g id="编组-21" transform="translate(7.687500, 0.000000)">
                            <path d="M64,0 C66.209139,-4.05812251e-16 68,1.790861 68,4 L68,33 C68,35.209139 66.209139,37 64,37 L37.242,37 L34,40.2426407 L30.757,37 L4,37 C1.790861,37 2.705415e-16,35.209139 0,33 L0,4 C-2.705415e-16,1.790861 1.790861,4.05812251e-16 4,0 L64,0 Z" id="形状结合" fill="url(#linearGradient-17)"></path>
                            <path d="M12,6 L42,6 C43.1045695,6 44,6.8954305 44,8 C44,9.1045695 43.1045695,10 42,10 L12,10 C10.8954305,10 10,9.1045695 10,8 C10,6.8954305 10.8954305,6 12,6 Z" id="形状结合备份-44" fill="#FFFFFF" fill-rule="nonzero"></path>
                            <path d="M26,19 L56,19 C57.1045695,19 58,19.8954305 58,21 L58,25 C58,26.1045695 57.1045695,27 56,27 L26,27 C24.8954305,27 24,26.1045695 24,25 L24,21 C24,19.8954305 24.8954305,19 26,19 Z" id="形状结合备份-6" fill="#FFFFFF" fill-rule="nonzero" opacity="0.699016753"></path>
                            <path d="M11.4545455,19 L16.5454545,19 C17.3487778,19 18,19.6512222 18,20.4545455 L18,25.5454545 C18,26.3487778 17.3487778,27 16.5454545,27 L11.4545455,27 C10.6512222,27 10,26.3487778 10,25.5454545 L10,20.4545455 C10,19.6512222 10.6512222,19 11.4545455,19 Z" id="形状结合备份-28" fill="#FFFFFF" fill-rule="nonzero" opacity="0.699016753"></path>
                        </g>
                    </g>
                </g>
            </g>
        </g>
    </g>
</svg>