<?xml version="1.0" encoding="UTF-8"?>
<svg width="125px" height="125px" viewBox="0 0 125 125" version="1.1" xmlns="http://www.w3.org/2000/svg" xmlns:xlink="http://www.w3.org/1999/xlink">
    <title>Popover 弹出框</title>
    <defs>
        <linearGradient x1="44.0988019%" y1="52.8250237%" x2="128.792906%" y2="42.8049215%" id="linearGradient-1">
            <stop stop-color="#5073E5" offset="0%"></stop>
            <stop stop-color="#5E7CE0" offset="100%"></stop>
        </linearGradient>
        <linearGradient x1="50%" y1="0%" x2="50%" y2="100%" id="linearGradient-2">
            <stop stop-color="#FFCC00" offset="0%"></stop>
            <stop stop-color="#FF9D00" offset="100%"></stop>
        </linearGradient>
        <circle id="path-3" cx="8" cy="8" r="8"></circle>
        <filter x="-43.8%" y="-31.2%" width="187.5%" height="187.5%" filterUnits="objectBoundingBox" id="filter-4">
            <feOffset dx="0" dy="2" in="SourceAlpha" result="shadowOffsetOuter1"></feOffset>
            <feMorphology radius="4" operator="erode" in="SourceAlpha" result="shadowInner"></feMorphology>
            <feOffset dx="0" dy="2" in="shadowInner" result="shadowInner"></feOffset>
            <feComposite in="shadowOffsetOuter1" in2="shadowInner" operator="out" result="shadowOffsetOuter1"></feComposite>
            <feGaussianBlur stdDeviation="2" in="shadowOffsetOuter1" result="shadowBlurOuter1"></feGaussianBlur>
            <feColorMatrix values="0 0 0 0 0.661752894   0 0 0 0 0.324547702   0 0 0 0 0.00489962574  0 0 0 0.5 0" type="matrix" in="shadowBlurOuter1"></feColorMatrix>
        </filter>
        <filter x="-46.9%" y="-34.4%" width="193.8%" height="193.8%" filterUnits="objectBoundingBox" id="filter-5">
            <feGaussianBlur stdDeviation="1.5" in="SourceAlpha" result="shadowBlurInner1"></feGaussianBlur>
            <feOffset dx="0" dy="-4" in="shadowBlurInner1" result="shadowOffsetInner1"></feOffset>
            <feComposite in="shadowOffsetInner1" in2="SourceAlpha" operator="arithmetic" k2="-1" k3="1" result="shadowInnerInner1"></feComposite>
            <feColorMatrix values="0 0 0 0 0.841553619   0 0 0 0 0.341832308   0 0 0 0 0  0 0 0 0.5 0" type="matrix" in="shadowInnerInner1"></feColorMatrix>
        </filter>
        <polygon id="path-6" points="7.71298757 6.80228137 6.27540338 20.814413 10.9449685 18.9202277 13.4194729 25.8022814 15.8096817 24.7804537 13.2116343 17.9762941 17.8108161 16.4874666"></polygon>
        <filter x="-47.7%" y="-18.4%" width="195.4%" height="157.9%" filterUnits="objectBoundingBox" id="filter-7">
            <feOffset dx="0" dy="2" in="SourceAlpha" result="shadowOffsetOuter1"></feOffset>
            <feGaussianBlur stdDeviation="1.5" in="shadowOffsetOuter1" result="shadowBlurOuter1"></feGaussianBlur>
            <feColorMatrix values="0 0 0 0 0   0 0 0 0 0   0 0 0 0 0  0 0 0 0.5 0" type="matrix" in="shadowBlurOuter1"></feColorMatrix>
        </filter>
        <linearGradient x1="44.0988019%" y1="56.5328973%" x2="128.792906%" y2="33.3613045%" id="linearGradient-8">
            <stop stop-color="#5073E5" offset="0%"></stop>
            <stop stop-color="#5E7CE0" offset="100%"></stop>
        </linearGradient>
    </defs>
    <g id="Tiny-Vue" stroke="none" stroke-width="1" fill="none" fill-rule="evenodd">
        <g id="-TinyUI-Vue-组件总览1" transform="translate(-696.000000, -2031.000000)">
            <g id="组件" transform="translate(596.000000, 311.000000)">
                <g id="编组-14备份-10" transform="translate(0.000000, 1690.000000)">
                    <g id="Tip-气泡提示" transform="translate(100.000000, 30.000000)">
                        <g id="编组"></g>
                        <rect id="矩形" fill="url(#linearGradient-1)" opacity="0.204287574" x="27" y="72" width="65" height="18" rx="4"></rect>
                        <g id="编组-23" transform="translate(77.000000, 75.000000)">
                            <g id="椭圆形">
                                <use fill="black" fill-opacity="1" filter="url(#filter-4)" xlink:href="#path-3"></use>
                                <use fill="black" fill-opacity="1" filter="url(#filter-5)" xlink:href="#path-3"></use>
                                <circle stroke="url(#linearGradient-2)" stroke-width="4" stroke-linejoin="square" cx="8" cy="8" r="6"></circle>
                            </g>
                            <g id="路径-2">
                                <use fill="black" fill-opacity="1" filter="url(#filter-7)" xlink:href="#path-6"></use>
                                <use fill="#000000" fill-rule="evenodd" xlink:href="#path-6"></use>
                            </g>
                        </g>
                        <path d="M96,37.2378781 C98.209139,37.2378781 100,39.0287391 100,41.2378781 L100,62 C100,64.209139 98.209139,66 96,66 L65.242,65.9998781 L62,69.2426407 L58.757,65.9998781 L28,66 C25.790861,66 24,64.209139 24,62 L24,41.2378781 C24,39.0287391 25.790861,37.2378781 28,37.2378781 L96,37.2378781 Z" id="形状结合" fill="url(#linearGradient-8)"></path>
                        <path d="M36,44 L88,44 C89.1045695,44 90,44.8954305 90,46 C90,47.1045695 89.1045695,48 88,48 L36,48 C34.8954305,48 34,47.1045695 34,46 C34,44.8954305 34.8954305,44 36,44 Z" id="形状结合备份" fill="#FFFFFF" fill-rule="nonzero"></path>
                        <path d="M36,54 L65,54 C66.1045695,54 67,54.8954305 67,56 C67,57.1045695 66.1045695,58 65,58 L36,58 C34.8954305,58 34,57.1045695 34,56 C34,54.8954305 34.8954305,54 36,54 Z" id="形状结合备份-17" fill="#FFFFFF" fill-rule="nonzero" opacity="0.699016753"></path>
                    </g>
                </g>
            </g>
        </g>
    </g>
</svg>