<?xml version="1.0" encoding="UTF-8"?>
<svg width="125px" height="125px" viewBox="0 0 125 125" version="1.1" xmlns="http://www.w3.org/2000/svg" xmlns:xlink="http://www.w3.org/1999/xlink">
    <title>Rate 评分</title>
    <defs>
        <linearGradient x1="50%" y1="45.9685271%" x2="50%" y2="100%" id="linearGradient-1">
            <stop stop-color="#ECF3FB" offset="0%"></stop>
            <stop stop-color="#FFFFFF" offset="100%"></stop>
        </linearGradient>
        <linearGradient x1="50.3956523%" y1="35.9331967%" x2="50%" y2="64.0668033%" id="linearGradient-2">
            <stop stop-color="#E3EFFD" stop-opacity="0.00575352382" offset="0%"></stop>
            <stop stop-color="#E5F0FD" offset="34.0601199%"></stop>
            <stop stop-color="#F0F6FE" offset="100%"></stop>
        </linearGradient>
        <linearGradient x1="33.3333333%" y1="34.495573%" x2="96.9740837%" y2="65.4421891%" id="linearGradient-3">
            <stop stop-color="#D5E6F9" offset="0%"></stop>
            <stop stop-color="#F7FBFF" stop-opacity="0" offset="100%"></stop>
        </linearGradient>
        <linearGradient x1="90.9912104%" y1="29.4309598%" x2="33.3333333%" y2="67.7472684%" id="linearGradient-4">
            <stop stop-color="#D5E6F9" offset="0%"></stop>
            <stop stop-color="#E7F0F9" stop-opacity="0" offset="100%"></stop>
        </linearGradient>
        <linearGradient x1="-5.8027489%" y1="27.0499439%" x2="103.630422%" y2="71.1332543%" id="linearGradient-5">
            <stop stop-color="#CEE6FE" offset="0%"></stop>
            <stop stop-color="#8AB5F2" offset="100%"></stop>
        </linearGradient>
        <linearGradient x1="-5.8027489%" y1="27.0499439%" x2="103.630422%" y2="71.1332543%" id="linearGradient-6">
            <stop stop-color="#BFD6F9" offset="0%"></stop>
            <stop stop-color="#F3F6FE" offset="100%"></stop>
        </linearGradient>
        <linearGradient x1="89.8473889%" y1="61.7348066%" x2="0%" y2="61.7348066%" id="linearGradient-7">
            <stop stop-color="#CAD9F3" offset="0%"></stop>
            <stop stop-color="#D5E3F7" offset="100%"></stop>
        </linearGradient>
        <filter x="-18.5%" y="-60.0%" width="136.9%" height="220.0%" filterUnits="objectBoundingBox" id="filter-8">
            <feGaussianBlur stdDeviation="4" in="SourceGraphic"></feGaussianBlur>
        </filter>
        <linearGradient x1="46.4301394%" y1="86.8386573%" x2="97.6648446%" y2="-43.8247114%" id="linearGradient-9">
            <stop stop-color="#5073E5" offset="0%"></stop>
            <stop stop-color="#5E7CE0" offset="100%"></stop>
        </linearGradient>
        <linearGradient x1="44.0988019%" y1="84.7035448%" x2="128.792906%" y2="-38.386774%" id="linearGradient-10">
            <stop stop-color="#5073E5" offset="0%"></stop>
            <stop stop-color="#5E7CE0" offset="100%"></stop>
        </linearGradient>
        <linearGradient x1="44.0988019%" y1="84.7035448%" x2="128.792906%" y2="-38.386774%" id="linearGradient-11">
            <stop stop-color="#5073E5" offset="0%"></stop>
            <stop stop-color="#5E7CE0" offset="100%"></stop>
        </linearGradient>
        <path d="M73.0275,72.8181959 C72.6040912,72.9325121 72.14364,72.8856482 71.7388567,72.6761813 L63.1410486,68.1737975 L54.628157,72.7862023 C54.0217307,73.1093148 53.2885746,73.0652457 52.7329288,72.6603946 C52.1718546,72.2570091 51.8891841,71.5659502 51.9980364,70.8813366 L53.5409278,61.2148882 L46.5568703,54.4232794 C46.0625754,53.9428345 45.87615,53.2198868 46.0835714,52.555883 C46.2855646,51.8933449 46.8426267,51.4064731 47.5253838,51.3047711 L57.0776951,49.8354173 L61.2683284,41.0242606 C61.5678561,40.4003204 62.1823851,39.9982823 62.8752188,40.0001122 C63.5596952,39.9923926 64.1873736,40.383698 64.4988252,41.0079569 L68.8635416,49.764103 L78.4442538,51.1145784 C79.122522,51.2147876 79.6903139,51.6871943 79.906985,52.3488495 C80.1236562,53.0105047 79.9555223,53.7347359 79.4679936,54.2205426 L72.6113109,61.1011167 L74.3300215,70.7369601 C74.4544114,71.423531 74.1847793,72.1161374 73.6303916,72.5255491 C73.4515122,72.6623899 73.2446316,72.7595676 73.0275,72.8181959 L73.0275,72.8181959 Z" id="path-12"></path>
        <filter x="-13.2%" y="-7.6%" width="126.5%" height="127.3%" filterUnits="objectBoundingBox" id="filter-13">
            <feMorphology radius="0.5" operator="dilate" in="SourceAlpha" result="shadowSpreadOuter1"></feMorphology>
            <feOffset dx="0" dy="2" in="shadowSpreadOuter1" result="shadowOffsetOuter1"></feOffset>
            <feGaussianBlur stdDeviation="1" in="shadowOffsetOuter1" result="shadowBlurOuter1"></feGaussianBlur>
            <feComposite in="shadowBlurOuter1" in2="SourceAlpha" operator="out" result="shadowBlurOuter1"></feComposite>
            <feColorMatrix values="0 0 0 0 0.368627451   0 0 0 0 0.48627451   0 0 0 0 0.878431373  0 0 0 0.65213034 0" type="matrix" in="shadowBlurOuter1"></feColorMatrix>
        </filter>
        <linearGradient x1="44.1662417%" y1="86.8386573%" x2="127.892449%" y2="-43.8247114%" id="linearGradient-14">
            <stop stop-color="#5073E5" offset="0%"></stop>
            <stop stop-color="#5E7CE0" offset="100%"></stop>
        </linearGradient>
        <linearGradient x1="50%" y1="0%" x2="50%" y2="100%" id="linearGradient-15">
            <stop stop-color="#FFCC00" offset="0%"></stop>
            <stop stop-color="#FF9D00" offset="100%"></stop>
        </linearGradient>
        <path d="M73.8450704,81.9865285 L52.1549296,81.9865285 C50.7746479,81.9865285 49.7887324,82.6115285 49.7887324,83.4865285 C49.7887324,84.3615284 50.7746479,84.9865285 52.1549296,84.9865285 L73.8450704,84.9865285 C75.2253521,84.9865285 76.2112676,84.3615284 76.2112676,83.4865285 C76.2112676,82.6115284 75.2253521,81.9865285 73.8450704,81.9865285 Z" id="path-16"></path>
        <filter x="-13.2%" y="-83.3%" width="126.5%" height="333.3%" filterUnits="objectBoundingBox" id="filter-17">
            <feOffset dx="0" dy="1" in="SourceAlpha" result="shadowOffsetOuter1"></feOffset>
            <feGaussianBlur stdDeviation="1" in="shadowOffsetOuter1" result="shadowBlurOuter1"></feGaussianBlur>
            <feColorMatrix values="0 0 0 0 0.661752894   0 0 0 0 0.324547702   0 0 0 0 0.00489962574  0 0 0 0.5 0" type="matrix" in="shadowBlurOuter1"></feColorMatrix>
        </filter>
        <linearGradient x1="44.0988019%" y1="86.4614266%" x2="128.792906%" y2="-42.8639392%" id="linearGradient-18">
            <stop stop-color="#5073E5" offset="0%"></stop>
            <stop stop-color="#5E7CE0" offset="100%"></stop>
        </linearGradient>
        <linearGradient x1="44.0988019%" y1="86.4614266%" x2="128.792906%" y2="-42.8639392%" id="linearGradient-19">
            <stop stop-color="#5073E5" offset="0%"></stop>
            <stop stop-color="#5E7CE0" offset="100%"></stop>
        </linearGradient>
    </defs>
    <g id="页面一" stroke="none" stroke-width="1" fill="none" fill-rule="evenodd">
        <g id="-TinyUI-ICON-2-【9-2】-无阴影" transform="translate(-1873.000000, -1350.000000)">
            <g id="Rate-评分" transform="translate(1873.000000, 1350.000000)">
                <g id="编组">
                    <g transform="translate(9.000000, 1.000000)" id="多边形">
                        <polygon fill="url(#linearGradient-1)" opacity="0.54620216" points="53.2605623 0 106.521125 30.75 53.2605623 62 0 30.75"></polygon>
                        <polygon fill="url(#linearGradient-2)" points="53.2605623 61.5 106.521125 86.75 53.2605623 118 0 86.75"></polygon>
                        <polygon fill="url(#linearGradient-3)" opacity="0.600606283" points="53.2605623 62 53.2605623 123 7.39138783e-15 92.25 0 30.75"></polygon>
                        <polygon fill="url(#linearGradient-4)" opacity="0.791265578" points="53.2605623 62 106.521125 30.75 106.521125 92.25 53.2605623 123"></polygon>
                        <polygon fill="url(#linearGradient-5)" points="53.2605623 118.007802 53.2605623 123 7.39138783e-15 92.25 0 86.9161706"></polygon>
                        <polygon fill="url(#linearGradient-6)" transform="translate(79.630281, 104.958085) scale(-1, 1) translate(-79.630281, -104.958085) " points="106.260562 118.007802 106.260562 123 53 92.25 53 86.9161706"></polygon>
                    </g>
                    <ellipse id="椭圆形" fill="url(#linearGradient-7)" filter="url(#filter-8)" cx="62.5" cy="90" rx="32.5" ry="10"></ellipse>
                </g>
                <path d="M90,40.0906874 C90,39.4957287 89.8028169,38.90077 89.4084507,38.5041308 L77.5774648,26.604957 C77.1830986,26.208318 76.5915492,26.0099984 76,26.0099983 L40.3098591,26.0099983 C36.7605634,25.8116788 34,28.5881527 34,32.1579048 L34,91.653774 C34,95.2235261 36.7605634,98 40.3098591,98 L83.6901409,98 C87.2394366,98 90,95.2235261 90,91.653774 L90,40.0906874 Z" id="路径" fill="url(#linearGradient-9)" opacity="0.204287574"></path>
                <g id="形状">
                    <use fill="black" fill-opacity="1" filter="url(#filter-13)" xlink:href="#path-12"></use>
                    <use stroke="url(#linearGradient-11)" stroke-width="1" fill="url(#linearGradient-10)" fill-rule="evenodd" xlink:href="#path-12"></use>
                </g>
                <path d="M59,61 C59.6649739,62.1759794 61.2085559,63 63.0066022,63 C64.7928494,63 66.3279609,62.1867587 67,61.0231054" id="路径" stroke="#FFFFFF" stroke-width="2" stroke-linecap="round" stroke-linejoin="round" fill-rule="nonzero"></path>
                <path d="M74.9785284,30.9427808 L85.9154929,41.9427808 L79.583566,41.9427808 C77.2810471,41.9427808 74.9785284,39.6269914 74.9785284,37.3112019 L74.9785284,30.9427808 Z" id="路径" fill="url(#linearGradient-14)" opacity="0.303770519"></path>
                <g id="形状">
                    <use fill="black" fill-opacity="1" filter="url(#filter-17)" xlink:href="#path-16"></use>
                    <use fill="url(#linearGradient-15)" fill-rule="evenodd" xlink:href="#path-16"></use>
                </g>
                <path d="M88.4398055,54.0035214 L88.4166436,54.0150429 L88.4398055,54.0035214 Z" id="路径" stroke="url(#linearGradient-19)" fill="url(#linearGradient-18)"></path>
                <polygon id="路径" stroke="url(#linearGradient-19)" fill="url(#linearGradient-18)" points="87.030826 36.7569815 87.0366165 36.7742638 87.0366165 36.7685031"></polygon>
            </g>
        </g>
    </g>
</svg>