<?xml version="1.0" encoding="UTF-8"?>
<svg width="125px" height="125px" viewBox="0 0 125 125" version="1.1" xmlns="http://www.w3.org/2000/svg" xmlns:xlink="http://www.w3.org/1999/xlink">
    <title>Rich Text Editor 富文本编辑器</title>
    <defs>
        <linearGradient x1="50%" y1="45.9685271%" x2="50%" y2="100%" id="linearGradient-1">
            <stop stop-color="#ECF3FB" offset="0%"></stop>
            <stop stop-color="#FFFFFF" offset="100%"></stop>
        </linearGradient>
        <linearGradient x1="50.3956523%" y1="35.9331967%" x2="50%" y2="64.0668033%" id="linearGradient-2">
            <stop stop-color="#E3EFFD" stop-opacity="0.00575352382" offset="0%"></stop>
            <stop stop-color="#E5F0FD" offset="34.0601199%"></stop>
            <stop stop-color="#F0F6FE" offset="100%"></stop>
        </linearGradient>
        <linearGradient x1="33.3333333%" y1="34.495573%" x2="96.9740837%" y2="65.4421891%" id="linearGradient-3">
            <stop stop-color="#D5E6F9" offset="0%"></stop>
            <stop stop-color="#F7FBFF" stop-opacity="0" offset="100%"></stop>
        </linearGradient>
        <linearGradient x1="90.9912104%" y1="29.4309598%" x2="33.3333333%" y2="67.7472684%" id="linearGradient-4">
            <stop stop-color="#D5E6F9" offset="0%"></stop>
            <stop stop-color="#E7F0F9" stop-opacity="0" offset="100%"></stop>
        </linearGradient>
        <linearGradient x1="-5.8027489%" y1="27.0499439%" x2="103.630422%" y2="71.1332543%" id="linearGradient-5">
            <stop stop-color="#CEE6FE" offset="0%"></stop>
            <stop stop-color="#8AB5F2" offset="100%"></stop>
        </linearGradient>
        <linearGradient x1="-5.8027489%" y1="27.0499439%" x2="103.630422%" y2="71.1332543%" id="linearGradient-6">
            <stop stop-color="#BFD6F9" offset="0%"></stop>
            <stop stop-color="#F3F6FE" offset="100%"></stop>
        </linearGradient>
        <linearGradient x1="89.8473889%" y1="61.7348066%" x2="0%" y2="61.7348066%" id="linearGradient-7">
            <stop stop-color="#CAD9F3" offset="0%"></stop>
            <stop stop-color="#D5E3F7" offset="100%"></stop>
        </linearGradient>
        <filter x="-18.5%" y="-60.0%" width="136.9%" height="220.0%" filterUnits="objectBoundingBox" id="filter-8">
            <feGaussianBlur stdDeviation="4" in="SourceGraphic"></feGaussianBlur>
        </filter>
        <linearGradient x1="44.0988019%" y1="80.6245239%" x2="128.792906%" y2="-27.9978786%" id="linearGradient-9">
            <stop stop-color="#5073E5" offset="0%"></stop>
            <stop stop-color="#5E7CE0" offset="100%"></stop>
        </linearGradient>
        <path d="M8.82244479,0 C11.1298004,0 12.9991377,1.82991749 12.9991378,4.08445671 L12.9991378,4.25295737 L38.9974133,4.25295737 L38.9974133,8.33741408 L12.9991378,8.33741408 L12.9991378,8.62386521 C12.9991378,10.8784044 11.1298004,12.7049518 8.82244479,12.7049519 L7.89122506,12.7049519 L7.89122506,36.2950482 L8.82244479,36.2950482 C11.1298004,36.2950482 12.9991377,38.1249656 12.9991378,40.3795048 L12.9991378,40.659216 L38.9974133,40.659216 L38.9974133,44.7436726 L12.9991378,44.7436726 L12.9991378,44.9155434 C12.9991378,47.1734526 11.1298004,49 8.82244479,49 L4.17669301,49 C1.86933741,49 0,47.1700825 0,44.9155434 L0,40.3795048 C0,38.1215956 1.86933741,36.2950482 4.17669301,36.2950482 L3.71453211,36.2950482 L3.71453211,12.7049519 L4.17669301,12.7049519 C1.86933741,12.7049519 0,10.8784044 0,8.62386521 L0,4.08445671 C0,1.82654747 1.86933741,0 4.17669301,0 L8.82244479,0 Z M43.1775552,12.7049519 C40.8701996,12.7049519 39.0008623,10.8750344 39.0008623,8.62049519 L39.0008623,4.08445671 C39.0008623,1.82654747 40.8701997,0 43.1775552,0 L47.8198581,0 C50.1306626,0 52,1.82991749 52,4.08445671 L52,8.62049519 C52,10.8750344 50.1272136,12.7015818 47.8198581,12.7015819 L48.285468,12.7015819 L48.285468,36.2916781 L47.8198581,36.2916781 C50.1306626,36.2916781 52,38.1215956 52,40.3761348 L52,44.9121733 C52,47.1700826 50.1272136,48.99663 47.8198581,48.99663 L43.1775552,48.99663 C40.8701996,48.99663 39.0008623,47.1667125 39.0008623,44.9121733 L39.0008623,40.3761348 C39.0008623,38.1182255 40.8701997,36.2916781 43.1775552,36.2916781 L44.105326,36.2916781 L44.105326,12.7015819 L43.1775552,12.7015819 L43.1775552,12.7049519 Z M8.82244479,40.3727648 L4.17669301,40.3727648 L4.17669301,44.9121733 L8.82244479,44.9121733 L8.82244479,40.3761348 L8.82244479,40.3727648 Z M47.8198581,40.3727648 L43.1775552,40.3727648 L43.1775552,44.9121733 L47.8198581,44.9121733 L47.8198581,40.3761348 L47.8198581,40.3727648 Z M33.1962592,15.198762 C34.316627,15.2432597 35.2014443,16.1436793 35.2014443,17.2393054 C35.2014443,18.3349315 34.316627,19.2353511 33.1962592,19.2798487 L28.0573058,19.2798487 L28.0573058,33.3429161 C27.9936965,34.4234655 27.0783748,35.2678693 25.9706838,35.2678693 C24.8629928,35.2678693 23.9476711,34.4234655 23.8840618,33.3429161 L23.8771639,19.2798487 L18.8037408,19.2798487 C17.683373,19.2353511 16.7985557,18.3349315 16.7985557,17.2393054 C16.7985557,16.1436793 17.683373,15.2432597 18.8037408,15.198762 L33.1962592,15.198762 L33.1962592,15.198762 Z M8.82244479,4.08445671 L4.17669301,4.08445671 L4.17669301,8.62049519 L8.82244479,8.62049519 L8.82244479,4.08445671 Z M47.8198581,4.08445671 L43.1775552,4.08445671 L43.1775552,8.62049519 L47.8198581,8.62049519 L47.8198581,4.08445671 Z" id="path-10"></path>
        <filter x="-7.7%" y="-4.1%" width="115.4%" height="116.3%" filterUnits="objectBoundingBox" id="filter-11">
            <feOffset dx="0" dy="2" in="SourceAlpha" result="shadowOffsetOuter1"></feOffset>
            <feGaussianBlur stdDeviation="1" in="shadowOffsetOuter1" result="shadowBlurOuter1"></feGaussianBlur>
            <feColorMatrix values="0 0 0 0 0.368627451   0 0 0 0 0.48627451   0 0 0 0 0.878431373  0 0 0 0.349865467 0" type="matrix" in="shadowBlurOuter1"></feColorMatrix>
        </filter>
    </defs>
    <g id="页面一" stroke="none" stroke-width="1" fill="none" fill-rule="evenodd">
        <g id="-TinyUI-Vue-组件总览3" transform="translate(-1087.000000, -2534.000000)">
            <g id="编组-17备份-19" transform="translate(988.000000, 2501.000000)">
                <g id="Rich-Text-Editor-富文本编辑器" transform="translate(99.000000, 33.000000)">
                    <g id="编组">
                        <g transform="translate(9.000000, 1.000000)" id="多边形">
                            <polygon fill="url(#linearGradient-1)" opacity="0.54620216" points="53.2605623 0 106.521125 30.75 53.2605623 62 0 30.75"></polygon>
                            <polygon fill="url(#linearGradient-2)" points="53.2605623 61.5 106.521125 86.75 53.2605623 118 0 86.75"></polygon>
                            <polygon fill="url(#linearGradient-3)" opacity="0.600606283" points="53.2605623 62 53.2605623 123 7.39138783e-15 92.25 0 30.75"></polygon>
                            <polygon fill="url(#linearGradient-4)" opacity="0.791265578" points="53.2605623 62 106.521125 30.75 106.521125 92.25 53.2605623 123"></polygon>
                            <polygon fill="url(#linearGradient-5)" points="53.2605623 118.007802 53.2605623 123 7.39138783e-15 92.25 0 86.9161706"></polygon>
                            <polygon fill="url(#linearGradient-6)" transform="translate(79.630281, 104.958085) scale(-1, 1) translate(-79.630281, -104.958085) " points="106.260562 118.007802 106.260562 123 53 92.25 53 86.9161706"></polygon>
                        </g>
                        <ellipse id="椭圆形" fill="url(#linearGradient-7)" filter="url(#filter-8)" cx="62.5" cy="90" rx="32.5" ry="10"></ellipse>
                    </g>
                    <rect id="矩形" fill="url(#linearGradient-9)" opacity="0.204287574" x="48.1935484" y="49" width="29.6129032" height="27" rx="4"></rect>
                    <g id="形状" transform="translate(37.000000, 38.000000)">
                        <use fill="black" fill-opacity="1" filter="url(#filter-11)" xlink:href="#path-10"></use>
                        <use fill="#5073E5" fill-rule="evenodd" xlink:href="#path-10"></use>
                    </g>
                </g>
            </g>
        </g>
    </g>
</svg>