<?xml version="1.0" encoding="UTF-8"?>
<svg width="125px" height="125px" viewBox="0 0 125 125" version="1.1" xmlns="http://www.w3.org/2000/svg" xmlns:xlink="http://www.w3.org/1999/xlink">
    <title>Roles 角色切换</title>
    <defs>
        <linearGradient x1="46.3968592%" y1="86.8386573%" x2="98.1092035%" y2="-43.8247114%" id="linearGradient-1">
            <stop stop-color="#5073E5" offset="0%"></stop>
            <stop stop-color="#5E7CE0" offset="100%"></stop>
        </linearGradient>
        <linearGradient x1="50%" y1="0%" x2="50%" y2="100%" id="linearGradient-2">
            <stop stop-color="#FFCC00" offset="0%"></stop>
            <stop stop-color="#FF9D00" offset="100%"></stop>
        </linearGradient>
    </defs>
    <g id="组件总览" stroke="none" stroke-width="1" fill="none" fill-rule="evenodd">
        <g id="-TinyUI-Vue-组件总览2" transform="translate(-1869.000000, -1159.000000)">
            <g id="编组-25备份-6" transform="translate(1771.000000, 1126.000000)">
                <g id="Roles-角色切换" transform="translate(98.000000, 33.000000)">
                    <g id="编组"></g>
                    <g id="角色切换" transform="translate(38.000000, 37.000000)">
                        <path d="M36.4029553,29.9116184 C35.448106,28.8140176 34.3853641,27.8136002 33.2470975,26.9103661 L33.2794652,26.8531994 C31.6610766,25.5669485 29.8053243,24.5722477 27.9010203,23.8748139 C29.9941363,22.274146 31.6448927,20.1475444 32.6590829,17.6379259 C32.5457957,18.5354432 33.311833,15.8085912 33.311833,13.0760225 C33.311833,9.43450314 31.8498886,5.8844505 29.3198077,3.44343201 C26.7897268,1.00241353 23.283218,-0.300987439 19.8468395,0.0591628289 C17.672804,0.304979679 15.6929753,1.08244692 13.9882725,2.27151448 C13.2923654,2.66596477 12.0462062,3.92363237 10.9942535,5.39853347 C8.90653219,8.37691902 8.24299285,12.2585386 8.92271608,15.8314579 C9.53770376,19.0899603 11.4905594,21.9997458 14.0422188,23.8919639 C7.98405066,26.1557656 3.19901489,31.3465028 1.09510965,37.7777576 C0.399202533,39.8814925 0,42.3167943 0,44.8549962 C0,45.7296468 0.652750088,46.4956807 1.46194441,46.5871475 L20.0356515,46.5871475 C20.2082796,37.3432906 27.3291896,29.900185 36.0954615,29.900185 C36.1979594,29.900185 36.2950627,29.9059017 36.4029553,29.9116184 Z" id="路径" fill="url(#linearGradient-1)" opacity="0.604724702"></path>
                        <path d="M27.7715492,40.2359261 L44.2521403,40.2359261 C44.3114812,40.2359261 44.3708221,40.2302094 44.430163,40.2244927 L44.4355576,40.2244927 C44.4948986,40.2187761 44.5488448,40.2073427 44.6081858,40.1959094 L44.618975,40.1959094 C44.6729213,40.184476 44.7268676,40.167326 44.7808139,40.150176 C44.7862085,40.150176 44.7916031,40.1444593 44.7969978,40.1444593 C44.8455494,40.1273093 44.8941011,40.1044426 44.9426528,40.0872926 C44.9480474,40.081576 44.9588366,40.081576 44.9642313,40.0758593 L45.0937024,40.0072592 L45.1260701,39.9901092 C45.1638325,39.9672425 45.2015949,39.9386592 45.2393573,39.9100758 C45.2501466,39.8986425 45.2609359,39.8929258 45.2717251,39.8814925 C45.3040929,39.8529091 45.3418553,39.8243258 45.3742231,39.7957424 C45.3850123,39.7843091 45.3958016,39.7785924 45.4065908,39.7671591 L45.5036941,39.664259 L45.519878,39.647109 L45.5306673,39.6356756 C45.5630351,39.6013756 45.5900082,39.5613589 45.6169814,39.5213422 C45.622376,39.5099089 45.6277706,39.5041922 45.6331652,39.4927588 C45.6601384,39.4527421 45.6871115,39.4127255 45.70869,39.3669921 C45.7140847,39.3612754 45.7194793,39.3498421 45.7248739,39.3441254 C45.7464524,39.298392 45.768031,39.2583753 45.7896095,39.212642 C45.7950041,39.2069253 45.7950041,39.2012086 45.8003987,39.1897753 C45.8219772,39.1440419 45.8381611,39.0983086 45.854345,39.0468585 C45.854345,39.0411418 45.8597397,39.0354252 45.8597397,39.0297085 C45.8759235,38.9839751 45.8867128,38.9325251 45.8975021,38.8867917 C45.8975021,38.8810751 45.9028967,38.8753584 45.9028967,38.863925 C45.9136859,38.8181917 45.9190806,38.7724583 45.9244752,38.7210083 C45.9244752,38.7095749 45.9298698,38.7038583 45.9298698,38.6924249 C45.9352645,38.6466915 45.9406591,38.6009582 45.9406591,38.5609415 L45.9406591,38.5209248 L45.9406591,38.4751914 C45.9406591,38.4466081 45.9352645,38.4180247 45.9352645,38.3894414 L45.9352645,38.3494247 C45.9298698,38.3036913 45.9298698,38.2579579 45.9190806,38.2122246 C45.9190806,38.2007912 45.9136859,38.1893579 45.9136859,38.1779245 C45.9082913,38.1321912 45.8975021,38.0864578 45.8867128,38.0407244 C45.8867128,38.0292911 45.8813182,38.0178577 45.8813182,38.0121411 C45.8705289,37.9664077 45.8597397,37.9206743 45.8435558,37.8806576 C45.8381611,37.8692243 45.8381611,37.857791 45.8327665,37.8463576 C45.8165826,37.8063409 45.8003987,37.7606076 45.7842148,37.7205909 C45.7788202,37.7091575 45.7734256,37.6977242 45.768031,37.6805742 C45.7518471,37.6405575 45.7302686,37.6062574 45.70869,37.5719574 C45.7032954,37.5605241 45.6925062,37.5433741 45.6871115,37.5319407 L45.622376,37.4290406 C45.6115867,37.4176073 45.6007975,37.4004573 45.5954028,37.3890239 C45.5738243,37.3547239 45.5468512,37.3261406 45.519878,37.2918405 L45.4875103,37.2575405 C45.4605371,37.2232405 45.4281693,37.1946571 45.3958016,37.1660738 L45.3796177,37.1489238 L40.9668113,33.0157707 C40.2762988,32.3697869 39.2189516,32.4383869 38.6093585,33.1701208 C37.9997655,33.9018547 38.064501,35.0223222 38.7550135,35.668306 L39.8609124,36.7030234 L27.7715492,36.7030234 C26.8490677,36.7030234 26.0992143,37.4976407 26.0992143,38.4751914 C26.1046089,39.4470255 26.8490677,40.2359261 27.7715492,40.2359261 L27.7715492,40.2359261 Z M44.3276651,42.2939276 L27.8416794,42.2939276 C27.8201009,42.2939276 27.803917,42.2939276 27.7823385,42.2996443 C27.7607599,42.2996443 27.7337868,42.2996443 27.7122083,42.3053609 C27.6798405,42.3053609 27.6474727,42.3110776 27.6097103,42.3167943 C27.5881318,42.322511 27.5719479,42.322511 27.5503694,42.3282276 C27.5180016,42.3339443 27.4802392,42.339661 27.4478715,42.3510943 C27.4316876,42.356811 27.4101091,42.3625276 27.3939252,42.3682443 C27.3615574,42.3796777 27.323795,42.391111 27.2914272,42.4025443 C27.2752433,42.408261 27.2536648,42.4139777 27.2374809,42.425411 C27.2051132,42.4368444 27.1727454,42.4539944 27.1403776,42.4654277 C27.1241937,42.4768611 27.1026152,42.4825777 27.0864313,42.4940111 C27.0594582,42.5111611 27.0270904,42.5283111 27.0001173,42.5454611 C26.9785388,42.5568945 26.9623549,42.5683278 26.946171,42.5797611 C26.9191978,42.5969112 26.8922247,42.6197778 26.8652516,42.6369279 C26.8490677,42.6483612 26.8274892,42.6655112 26.8113053,42.6769445 C26.7843321,42.6998112 26.757359,42.7226779 26.7357805,42.7455446 C26.7195966,42.7569779 26.7034127,42.774128 26.6926234,42.791278 C26.6656503,42.8198613 26.6386771,42.8484447 26.6170986,42.877028 C26.611704,42.8884614 26.6009147,42.894178 26.5955201,42.9056114 C26.5901255,42.9113281 26.5901255,42.9170447 26.5847309,42.9227614 C26.5577577,42.9513448 26.5361792,42.9856448 26.5146007,43.0199448 C26.5038114,43.0370948 26.4930222,43.0485282 26.4822329,43.0656782 C26.4606544,43.0999782 26.4390759,43.1285616 26.422892,43.1628616 C26.4121027,43.1800116 26.4013135,43.1971616 26.3959188,43.2143116 L26.3473672,43.3172117 C26.3365779,43.3343617 26.3311833,43.3515117 26.320394,43.3743784 C26.3042102,43.4086784 26.2934209,43.4429785 26.2826316,43.4772785 C26.277237,43.4944285 26.2664478,43.5172952 26.2610531,43.5344452 C26.2502639,43.5687452 26.2448692,43.6030452 26.23408,43.6373453 L26.2178961,43.7059453 C26.2125015,43.7402453 26.2071068,43.7688287 26.2017122,43.8031287 C26.1963176,43.8259954 26.190923,43.8545788 26.190923,43.8774454 C26.1855283,43.9060288 26.1855283,43.9403288 26.1855283,43.9689122 C26.1855283,43.9974955 26.1801337,44.0260789 26.1801337,44.0546622 L26.1801337,44.146129 C26.1801337,44.1747123 26.1801337,44.2032957 26.1855283,44.231879 C26.1855283,44.2604624 26.190923,44.2947624 26.1963176,44.3233458 C26.2017122,44.3519291 26.2017122,44.3747958 26.2071068,44.4033792 C26.2125015,44.4376792 26.2178961,44.4662625 26.2232907,44.4948459 C26.2286854,44.5177126 26.23408,44.5462959 26.2394746,44.5691626 C26.2502639,44.597746 26.2556585,44.632046 26.2664478,44.6606294 C26.277237,44.683496 26.2826316,44.7120794 26.2934209,44.7349461 C26.3042102,44.7635294 26.3149994,44.7921128 26.3257887,44.8149795 C26.3365779,44.8435628 26.3473672,44.8664295 26.3635511,44.8950129 C26.3743403,44.9178796 26.3851296,44.9407462 26.4013135,44.9636129 C26.4174974,44.9921963 26.4336812,45.015063 26.4498651,45.0436463 C26.4606544,45.066513 26.4768383,45.083663 26.4876275,45.1065297 C26.5038114,45.135113 26.5253899,45.1579797 26.5415738,45.1865631 C26.5577577,45.2094298 26.5739416,45.2265798 26.5901255,45.2494465 C26.611704,45.2723131 26.6278879,45.2951798 26.6494664,45.3180465 C26.6656503,45.3409132 26.6872288,45.3580632 26.7088073,45.3809299 L26.7465697,45.4209466 L31.1593761,49.5540997 C31.4668699,49.8399332 31.8606778,50 32.265275,50 C32.745397,50 33.1985458,49.7827665 33.5168289,49.3997496 C34.126422,48.6680157 34.0616864,47.5475482 33.3711739,46.9015644 L32.2598804,45.8382636 L44.3276651,45.8382636 C45.2501466,45.8382636 46,45.0436463 46,44.0660956 C46,43.0885449 45.2501466,42.2939276 44.3276651,42.2939276 L44.3276651,42.2939276 Z" id="形状" fill="url(#linearGradient-2)"></path>
                    </g>
                </g>
            </g>
        </g>
    </g>
</svg>