<?xml version="1.0" encoding="UTF-8"?>
<svg width="125px" height="125px" viewBox="0 0 125 125" version="1.1" xmlns="http://www.w3.org/2000/svg" xmlns:xlink="http://www.w3.org/1999/xlink">
    <title>Searchbox 搜索框</title>
    <defs>
        <linearGradient x1="44.0988019%" y1="52.3024161%" x2="128.792906%" y2="44.1359555%" id="linearGradient-1">
            <stop stop-color="#5073E5" offset="0%"></stop>
            <stop stop-color="#5E7CE0" offset="100%"></stop>
        </linearGradient>
        <linearGradient x1="100%" y1="47.3372781%" x2="6.58643108%" y2="52.6627219%" id="linearGradient-2">
            <stop stop-color="#FFCC00" offset="0%"></stop>
            <stop stop-color="#FF9D00" offset="100%"></stop>
        </linearGradient>
        <path d="M48.5,50 L58.5,50 C59.3284271,50 60,50.6715729 60,51.5 C60,52.3284271 59.3284271,53 58.5,53 L48.5,53 C47.6715729,53 47,52.3284271 47,51.5 C47,50.6715729 47.6715729,50 48.5,50 Z" id="path-3"></path>
        <filter x="-26.9%" y="-83.3%" width="153.8%" height="333.3%" filterUnits="objectBoundingBox" id="filter-4">
            <feOffset dx="0" dy="1" in="SourceAlpha" result="shadowOffsetOuter1"></feOffset>
            <feGaussianBlur stdDeviation="1" in="shadowOffsetOuter1" result="shadowBlurOuter1"></feGaussianBlur>
            <feColorMatrix values="0 0 0 0 0.661752894   0 0 0 0 0.324547702   0 0 0 0 0.00489962574  0 0 0 0.5 0" type="matrix" in="shadowBlurOuter1"></feColorMatrix>
        </filter>
        <linearGradient x1="44.0988019%" y1="60.6810308%" x2="128.792906%" y2="22.7963854%" id="linearGradient-5">
            <stop stop-color="#5073E5" offset="0%"></stop>
            <stop stop-color="#5E7CE0" offset="100%"></stop>
        </linearGradient>
        <linearGradient x1="44.0988019%" y1="60.6810308%" x2="128.792906%" y2="22.7963854%" id="linearGradient-6">
            <stop stop-color="#5073E5" offset="0%"></stop>
            <stop stop-color="#5E7CE0" offset="100%"></stop>
        </linearGradient>
        <linearGradient x1="44.0988019%" y1="86.8386573%" x2="128.792906%" y2="-43.8247114%" id="linearGradient-7">
            <stop stop-color="#5073E5" offset="0%"></stop>
            <stop stop-color="#5E7CE0" offset="100%"></stop>
        </linearGradient>
        <path d="M1,10 L24,10 C24.5522847,10 25,10.4477153 25,11 L25,14 C25,14.5522847 24.5522847,15 24,15 L1,15 C0.44771525,15 6.76353751e-17,14.5522847 0,14 L0,11 C-6.76353751e-17,10.4477153 0.44771525,10 1,10 Z" id="path-8"></path>
        <filter x="-16.0%" y="-40.0%" width="132.0%" height="260.0%" filterUnits="objectBoundingBox" id="filter-9">
            <feOffset dx="0" dy="2" in="SourceAlpha" result="shadowOffsetOuter1"></feOffset>
            <feGaussianBlur stdDeviation="1" in="shadowOffsetOuter1" result="shadowBlurOuter1"></feGaussianBlur>
            <feColorMatrix values="0 0 0 0 0.368627451   0 0 0 0 0.48627451   0 0 0 0 0.878431373  0 0 0 0.349865467 0" type="matrix" in="shadowBlurOuter1"></feColorMatrix>
        </filter>
        <path d="M1,0 L24,0 C24.5522847,-1.01453063e-16 25,0.44771525 25,1 L25,4 C25,4.55228475 24.5522847,5 24,5 L1,5 C0.44771525,5 6.76353751e-17,4.55228475 0,4 L0,1 C-6.76353751e-17,0.44771525 0.44771525,1.01453063e-16 1,0 Z" id="path-10"></path>
        <filter x="-16.0%" y="-40.0%" width="132.0%" height="260.0%" filterUnits="objectBoundingBox" id="filter-11">
            <feOffset dx="0" dy="2" in="SourceAlpha" result="shadowOffsetOuter1"></feOffset>
            <feGaussianBlur stdDeviation="1" in="shadowOffsetOuter1" result="shadowBlurOuter1"></feGaussianBlur>
            <feColorMatrix values="0 0 0 0 0.368627451   0 0 0 0 0.48627451   0 0 0 0 0.878431373  0 0 0 0.349865467 0" type="matrix" in="shadowBlurOuter1"></feColorMatrix>
        </filter>
    </defs>
    <g id="Tiny-Vue" stroke="none" stroke-width="1" fill="none" fill-rule="evenodd">
        <g id="-TinyUI-Vue-组件总览1" transform="translate(-1478.000000, -1760.000000)">
            <g id="组件" transform="translate(596.000000, 311.000000)">
                <g id="编组-14备份-6" transform="translate(784.000000, 1416.000000)">
                    <g id="Searchbox-搜索框" transform="translate(98.000000, 33.000000)">
                        <g id="编组"></g>
                        <rect id="矩形" fill="url(#linearGradient-1)" opacity="0.303770519" x="25" y="43" width="72" height="18" rx="4"></rect>
                        <g id="形状结合备份-19" transform="translate(53.500000, 51.500000) rotate(-90.000000) translate(-53.500000, -51.500000) ">
                            <use fill="black" fill-opacity="1" filter="url(#filter-4)" xlink:href="#path-3"></use>
                            <use fill="url(#linearGradient-2)" fill-rule="evenodd" xlink:href="#path-3"></use>
                        </g>
                        <g id="编组-13" transform="translate(59.000000, 49.000000)">
                            <path d="M31.5,32 L37.5,32 C39.4329966,32 41,33.5670034 41,35.5 C41,37.4329966 39.4329966,39 37.5,39 L31.5,39 C29.5670034,39 28,37.4329966 28,35.5 C28,33.5670034 29.5670034,32 31.5,32 Z" id="形状结合备份-20" stroke="url(#linearGradient-6)" fill="url(#linearGradient-5)" transform="translate(34.500000, 35.500000) rotate(-135.000000) translate(-34.500000, -35.500000) "></path>
                            <circle id="椭圆形" stroke="url(#linearGradient-7)" stroke-width="8" cx="17.5" cy="17.5" r="17.5"></circle>
                        </g>
                        <g id="编组-12" transform="translate(25.000000, 33.000000)">
                            <g id="形状结合备份-16" transform="translate(12.500000, 12.500000) rotate(-90.000000) translate(-12.500000, -12.500000) ">
                                <use fill="black" fill-opacity="1" filter="url(#filter-9)" xlink:href="#path-8"></use>
                                <use fill="#5073E5" fill-rule="evenodd" xlink:href="#path-8"></use>
                            </g>
                            <g id="形状结合备份-2">
                                <use fill="black" fill-opacity="1" filter="url(#filter-11)" xlink:href="#path-10"></use>
                                <use fill="#5073E5" fill-rule="evenodd" xlink:href="#path-10"></use>
                            </g>
                        </g>
                    </g>
                </g>
            </g>
        </g>
    </g>
</svg>