<?xml version="1.0" encoding="UTF-8"?>
<svg width="125px" height="125px" viewBox="0 0 125 125" version="1.1" xmlns="http://www.w3.org/2000/svg" xmlns:xlink="http://www.w3.org/1999/xlink">
    <title>select选择器</title>
    <defs>
        <linearGradient x1="44.0988019%" y1="60.1784653%" x2="128.792906%" y2="24.0763741%" id="linearGradient-1">
            <stop stop-color="#5073E5" offset="0%"></stop>
            <stop stop-color="#5E7CE0" offset="100%"></stop>
        </linearGradient>
        <linearGradient x1="44.0988019%" y1="53.5975251%" x2="128.792906%" y2="40.8374305%" id="linearGradient-2">
            <stop stop-color="#5073E5" offset="0%"></stop>
            <stop stop-color="#5E7CE0" offset="100%"></stop>
        </linearGradient>
        <linearGradient x1="44.0988019%" y1="53.5975251%" x2="128.792906%" y2="40.8374305%" id="linearGradient-3">
            <stop stop-color="#5073E5" offset="0%"></stop>
            <stop stop-color="#5E7CE0" offset="100%"></stop>
        </linearGradient>
        <linearGradient x1="50%" y1="0%" x2="50%" y2="100%" id="linearGradient-4">
            <stop stop-color="#FFCC00" offset="0%"></stop>
            <stop stop-color="#FF9D00" offset="100%"></stop>
        </linearGradient>
        <polygon id="path-5" points="68 35 80 35 74 42"></polygon>
        <filter x="-29.2%" y="-35.7%" width="158.3%" height="200.0%" filterUnits="objectBoundingBox" id="filter-6">
            <feOffset dx="0" dy="1" in="SourceAlpha" result="shadowOffsetOuter1"></feOffset>
            <feMorphology radius="4.0839988" operator="erode" in="SourceAlpha" result="shadowInner"></feMorphology>
            <feOffset dx="0" dy="1" in="shadowInner" result="shadowInner"></feOffset>
            <feComposite in="shadowOffsetOuter1" in2="shadowInner" operator="out" result="shadowOffsetOuter1"></feComposite>
            <feGaussianBlur stdDeviation="1" in="shadowOffsetOuter1" result="shadowBlurOuter1"></feGaussianBlur>
            <feColorMatrix values="0 0 0 0 0.661752894   0 0 0 0 0.324547702   0 0 0 0 0.00489962574  0 0 0 0.5 0" type="matrix" in="shadowBlurOuter1"></feColorMatrix>
        </filter>
        <filter x="-45.8%" y="-64.3%" width="191.7%" height="257.1%" filterUnits="objectBoundingBox" id="filter-7">
            <feGaussianBlur stdDeviation="1.5" in="SourceAlpha" result="shadowBlurInner1"></feGaussianBlur>
            <feOffset dx="0" dy="-4" in="shadowBlurInner1" result="shadowOffsetInner1"></feOffset>
            <feComposite in="shadowOffsetInner1" in2="SourceAlpha" operator="arithmetic" k2="-1" k3="1" result="shadowInnerInner1"></feComposite>
            <feColorMatrix values="0 0 0 0 0.841553619   0 0 0 0 0.341832308   0 0 0 0 0  0 0 0 0.5 0" type="matrix" in="shadowInnerInner1"></feColorMatrix>
        </filter>
        <linearGradient x1="44.0988019%" y1="50.1584033%" x2="128.792906%" y2="49.5965613%" id="linearGradient-8">
            <stop stop-color="#5073E5" offset="0%"></stop>
            <stop stop-color="#5E7CE0" offset="100%"></stop>
        </linearGradient>
    </defs>
    <g id="组件总览" stroke="none" stroke-width="1" fill="none" fill-rule="evenodd">
        <g id="-TinyUI-Ng-组件总览-1" transform="translate(-1089.000000, -327.000000)">
            <g id="select选择器" transform="translate(1089.000000, 327.000000)">
                <g id="编组"></g>
                <path d="M26,53 L100,53 C101.104569,53 102,53.8954305 102,55 L102,92 C102,93.1045695 101.104569,94 100,94 L26,94 C24.8954305,94 24,93.1045695 24,92 L24,55 C24,53.8954305 24.8954305,53 26,53 Z" id="矩形" fill="url(#linearGradient-1)" opacity="0.303770519"></path>
                <rect id="矩形-2" stroke="url(#linearGradient-3)" fill="url(#linearGradient-2)" x="24" y="28" width="64" height="20" rx="4"></rect>
                <g id="形状结合" transform="translate(74.000000, 38.500000) rotate(-180.000000) translate(-74.000000, -38.500000) ">
                    <use fill="black" fill-opacity="1" filter="url(#filter-6)" xlink:href="#path-5"></use>
                    <use fill="black" fill-opacity="1" filter="url(#filter-7)" xlink:href="#path-5"></use>
                    <path stroke="url(#linearGradient-4)" stroke-width="4.0839988" d="M75.5602428,37.0419994 L74,38.8622826 L72.4397572,37.0419994 L75.5602428,37.0419994 Z" stroke-linejoin="square"></path>
                </g>
                <path d="M34,61 L86,61 C87.1045695,61 88,61.8954305 88,63 C88,64.1045695 87.1045695,65 86,65 L34,65 C32.8954305,65 32,64.1045695 32,63 C32,61.8954305 32.8954305,61 34,61 Z" id="形状结合备份" fill="#5073E5"></path>
                <path d="M34,72 L67,72 C68.1045695,72 69,72.8954305 69,74 C69,75.1045695 68.1045695,76 67,76 L34,76 C32.8954305,76 32,75.1045695 32,74 C32,72.8954305 32.8954305,72 34,72 Z" id="形状结合备份-35" fill="#5073E5"></path>
                <path d="M34,83 L91,83 C92.1045695,83 93,83.8954305 93,85 C93,86.1045695 92.1045695,87 91,87 L34,87 C32.8954305,87 32,86.1045695 32,85 C32,83.8954305 32.8954305,83 34,83 Z" id="形状结合备份-36" fill="url(#linearGradient-8)" opacity="0.303770519"></path>
            </g>
        </g>
    </g>
</svg>