<?xml version="1.0" encoding="UTF-8"?>
<svg width="125px" height="125px" viewBox="0 0 125 125" version="1.1" xmlns="http://www.w3.org/2000/svg" xmlns:xlink="http://www.w3.org/1999/xlink">
    <title>Skeleton 骨架屏</title>
    <defs>
        <linearGradient x1="44.0988019%" y1="77.3163192%" x2="128.792906%" y2="-19.5721819%" id="linearGradient-1">
            <stop stop-color="#5073E5" offset="0%"></stop>
            <stop stop-color="#5E7CE0" offset="100%"></stop>
        </linearGradient>
        <linearGradient x1="44.0988019%" y1="50.4547982%" x2="128.792906%" y2="48.8416702%" id="linearGradient-2">
            <stop stop-color="#5073E5" offset="0%"></stop>
            <stop stop-color="#5E7CE0" offset="100%"></stop>
        </linearGradient>
        <linearGradient x1="44.0988019%" y1="50.4547982%" x2="128.792906%" y2="48.8416702%" id="linearGradient-3">
            <stop stop-color="#5073E5" offset="0%"></stop>
            <stop stop-color="#5E7CE0" offset="100%"></stop>
        </linearGradient>
        <linearGradient x1="44.0988019%" y1="51.0826054%" x2="128.792906%" y2="47.2427024%" id="linearGradient-4">
            <stop stop-color="#5073E5" offset="0%"></stop>
            <stop stop-color="#5E7CE0" offset="100%"></stop>
        </linearGradient>
        <linearGradient x1="44.0988019%" y1="52.6196379%" x2="128.792906%" y2="43.3280205%" id="linearGradient-5">
            <stop stop-color="#5073E5" offset="0%"></stop>
            <stop stop-color="#5E7CE0" offset="100%"></stop>
        </linearGradient>
        <filter x="-33.3%" y="-32.0%" width="166.7%" height="164.0%" filterUnits="objectBoundingBox" id="filter-6">
            <feOffset dx="0" dy="2" in="SourceAlpha" result="shadowOffsetOuter1"></feOffset>
            <feGaussianBlur stdDeviation="1" in="shadowOffsetOuter1" result="shadowBlurOuter1"></feGaussianBlur>
            <feColorMatrix values="0 0 0 0 0.368627451   0 0 0 0 0.48627451   0 0 0 0 0.878431373  0 0 0 0.349865467 0" type="matrix" in="shadowBlurOuter1" result="shadowMatrixOuter1"></feColorMatrix>
            <feMerge>
                <feMergeNode in="shadowMatrixOuter1"></feMergeNode>
                <feMergeNode in="SourceGraphic"></feMergeNode>
            </feMerge>
        </filter>
    </defs>
    <g id="组件总览" stroke="none" stroke-width="1" fill="none" fill-rule="evenodd">
        <g id="-TinyUI-Ng-组件总览-2" transform="translate(-697.000000, -1597.000000)">
            <g id="Skeleton-骨架屏" transform="translate(697.000000, 1597.000000)">
                <g id="编组"></g>
                <path d="M31,31 L42.5021066,31 L95,31 C97.209139,31 99,32.790861 99,35 L99,89 C99,91.209139 97.209139,93 95,93 L31,93 C28.790861,93 27,91.209139 27,89 L27,35 C27,32.790861 28.790861,31 31,31 Z" id="矩形备份-26" fill="url(#linearGradient-1)" opacity="0.204287574"></path>
                <path d="M39,41 L87,41 C88.6568542,41 90,42.3431458 90,44 C90,45.6568542 88.6568542,47 87,47 L39,47 C37.3431458,47 36,45.6568542 36,44 C36,42.3431458 37.3431458,41 39,41 Z" id="形状结合备份-6" stroke="url(#linearGradient-3)" fill="url(#linearGradient-2)"></path>
                <path d="M39,56 L68,56 C69.6568542,56 71,57.3431458 71,59 C71,60.6568542 69.6568542,62 68,62 L39,62 C37.3431458,62 36,60.6568542 36,59 C36,57.3431458 37.3431458,56 39,56 Z" id="形状结合备份-49" fill="url(#linearGradient-4)" opacity="0.604724702"></path>
                <path d="M39,69 L55,69 C56.6568542,69 58,70.3431458 58,72 C58,73.6568542 56.6568542,75 55,75 L39,75 C37.3431458,75 36,73.6568542 36,72 C36,70.3431458 37.3431458,69 39,69 Z" id="形状结合备份-50" fill="url(#linearGradient-5)" opacity="0.303770519"></path>
                <g id="loading0" filter="url(#filter-6)" transform="translate(66.000000, 64.000000)" fill="#5073E5" fill-rule="nonzero">
                    <path d="M9.31578947,3.28125 C9.31578947,5.09343434 10.800319,6.5625 12.6315789,6.5625 C14.4628389,6.5625 15.9473684,5.09343434 15.9473684,3.28125 C15.9473684,1.46906566 14.4628389,0 12.6315789,0 C10.800319,0 9.31578947,1.46906566 9.31578947,3.28125 L9.31578947,3.28125 Z M2.68421053,6.09375 C2.68421053,7.73334535 4.02735628,9.0625 5.68421053,9.0625 C7.34106478,9.0625 8.68421053,7.73334535 8.68421053,6.09375 C8.68421053,5.03311777 8.11241378,4.05305317 7.18421053,3.52273705 C6.2560073,2.99242093 5.11241375,2.99242093 4.18421053,3.52273705 C3.25600728,4.05305317 2.68421053,5.03311777 2.68421053,6.09375 L2.68421053,6.09375 Z M5.36842105,13.125 C5.36842105,11.71875 4.10526316,10.46875 2.68421053,10.46875 C1.26315789,10.46875 0,11.71875 0,13.125 C0,14.53125 1.26315789,15.78125 2.68421053,15.78125 C4.10526316,15.78125 5.36842105,14.6875 5.36842105,13.125 Z M3.47368421,20.3125 C3.47368421,21.0940185 3.89500813,21.8161714 4.57894736,22.2069306 C5.26288659,22.5976898 6.10553447,22.5976898 6.78947369,22.2069306 C7.47341292,21.8161714 7.89473684,21.0940185 7.89473684,20.3125 C7.89473684,19.1043771 6.9050505,18.125 5.68421053,18.125 C4.46337055,18.125 3.47368421,19.1043771 3.47368421,20.3125 L3.47368421,20.3125 Z M10.7368421,23.125 C10.7368421,24.1605339 11.5851447,25 12.6315789,25 C13.6780132,25 14.5263158,24.1605339 14.5263158,23.125 C14.5263158,22.0894661 13.6780132,21.25 12.6315789,21.25 C11.5851447,21.25 10.7368421,22.0894661 10.7368421,23.125 L10.7368421,23.125 Z M18.1578947,20.15625 C18.1578947,21.0191949 18.8648136,21.71875 19.7368421,21.71875 C20.6088707,21.71875 21.3157895,21.0191949 21.3157895,20.15625 C21.3157895,19.2933051 20.6088707,18.59375 19.7368421,18.59375 C18.8648136,18.59375 18.1578947,19.2933051 18.1578947,20.15625 Z M21.4736842,13.125 C21.4736842,13.8153559 22.0392193,14.3749999 22.7368421,14.3749999 C23.4344649,14.3749999 24,13.8153559 24,13.125 C24,12.678418 23.7592435,12.2657592 23.3684211,12.0424682 C22.9775987,11.8191772 22.4960856,11.8191772 22.1052631,12.0424682 C21.7144407,12.2657592 21.4736842,12.678418 21.4736842,13.125 Z M18.7894737,6.25 C18.7894737,6.5849365 18.9700411,6.8944306 19.2631579,7.06189886 C19.5562747,7.22936712 19.9174095,7.22936712 20.2105263,7.06189886 C20.5036431,6.8944306 20.6842105,6.5849365 20.6842105,6.25 C20.6842105,5.9150635 20.5036431,5.6055694 20.2105263,5.43810114 C19.9174095,5.27063288 19.5562747,5.27063288 19.2631579,5.43810114 C18.9700411,5.6055694 18.7894737,5.9150635 18.7894737,6.25 L18.7894737,6.25 Z" id="形状"></path>
                </g>
            </g>
        </g>
    </g>
</svg>