<?xml version="1.0" encoding="UTF-8"?>
<svg width="125px" height="125px" viewBox="0 0 125 125" version="1.1" xmlns="http://www.w3.org/2000/svg" xmlns:xlink="http://www.w3.org/1999/xlink">
    <title>Split 面板分割</title>
    <defs>
        <linearGradient x1="45.7177863%" y1="86.8386573%" x2="107.176197%" y2="-43.8247114%" id="linearGradient-1">
            <stop stop-color="#5073E5" offset="0%"></stop>
            <stop stop-color="#5E7CE0" offset="100%"></stop>
        </linearGradient>
        <linearGradient x1="48.7351685%" y1="86.8386573%" x2="66.8880544%" y2="-43.8247114%" id="linearGradient-2">
            <stop stop-color="#5073E5" offset="0%"></stop>
            <stop stop-color="#5E7CE0" offset="100%"></stop>
        </linearGradient>
        <linearGradient x1="48.7351685%" y1="86.8386573%" x2="66.8880544%" y2="-43.8247114%" id="linearGradient-3">
            <stop stop-color="#5073E5" offset="0%"></stop>
            <stop stop-color="#5E7CE0" offset="100%"></stop>
        </linearGradient>
        <linearGradient x1="50%" y1="0%" x2="50%" y2="100%" id="linearGradient-4">
            <stop stop-color="#FFCC00" offset="0%"></stop>
            <stop stop-color="#FF9D00" offset="100%"></stop>
        </linearGradient>
    </defs>
    <g id="Tiny-Vue" stroke="none" stroke-width="1" fill="none" fill-rule="evenodd">
        <g id="-TinyUI-Vue-组件总览1" transform="translate(-696.000000, -1485.000000)">
            <g id="组件" transform="translate(596.000000, 311.000000)">
                <g id="编组-14备份" transform="translate(2.000000, 1141.000000)">
                    <g id="Split-面板分割" transform="translate(98.000000, 33.000000)">
                        <g id="编组"></g>
                        <g id="编组-2" transform="translate(29.000000, 38.000000)">
                            <path d="M22,0 L66,0 C67.1045695,-2.02906125e-16 68,0.8954305 68,2 L68,52 C68,53.1045695 67.1045695,54 66,54 L22,54 L22,54 L22,0 Z" id="形状结合备份-6" fill="url(#linearGradient-1)" opacity="0.204287574"></path>
                            <path d="M2,0 L25,0 L25,0 L25,54 L2,54 C0.8954305,54 1.3527075e-16,53.1045695 0,52 L0,2 C-1.3527075e-16,0.8954305 0.8954305,2.02906125e-16 2,0 Z" id="形状结合备份-31" stroke="url(#linearGradient-3)" stroke-width="0.5" fill="url(#linearGradient-2)"></path>
                            <path d="M25.5,6 C27.9852814,6 30,8.01471863 30,10.5 L30,26.5 C30,28.9852814 27.9852814,31 25.5,31 C23.0147186,31 21,28.9852814 21,26.5 L21,10.5 C21,8.01471863 23.0147186,6 25.5,6 Z" id="形状结合备份-32" fill="#FFFFFF" fill-rule="nonzero"></path>
                            <g id="编组-11" transform="translate(23.500000, 10.000000)" fill="url(#linearGradient-4)">
                                <path d="M2,0 C3.1045695,-2.02906125e-16 4,0.8954305 4,2 C4,3.1045695 3.1045695,4 2,4 C0.8954305,4 1.3527075e-16,3.1045695 0,2 C-1.3527075e-16,0.8954305 0.8954305,2.02906125e-16 2,0 Z" id="形状结合备份-33"></path>
                                <path d="M2,7 C3.1045695,7 4,7.8954305 4,9 C4,10.1045695 3.1045695,11 2,11 C0.8954305,11 1.3527075e-16,10.1045695 0,9 C-1.3527075e-16,7.8954305 0.8954305,7 2,7 Z" id="形状结合备份-45"></path>
                                <path d="M2,13 C3.1045695,13 4,13.8954305 4,15 C4,16.1045695 3.1045695,17 2,17 C0.8954305,17 1.3527075e-16,16.1045695 0,15 C-1.3527075e-16,13.8954305 0.8954305,13 2,13 Z" id="形状结合备份-46"></path>
                            </g>
                            <path d="M53,41 C53.236906,41 53.4641914,41.0411906 53.6750852,41.1168006 L60.0958313,41.1170423 C60.648116,41.1170423 61.0958313,41.5647576 61.0958313,42.1170423 C61.0958313,42.3999726 60.9759798,42.6696616 60.7659819,42.8592675 L54.1441845,48.8380483 C53.7342649,49.2081623 53.1019227,49.1758934 52.7318088,48.7659738 C52.5658847,48.5822046 52.4740339,48.3434154 52.4740339,48.0958232 L52.474,45 L35,45 C33.8954305,45 33,44.1045695 33,43 C33,41.8954305 33.8954305,41 35,41 L53,41 Z" id="形状结合" fill="#5073E5"></path>
                            <path d="M56,30.1170423 C56.5522847,30.1170423 57,30.5647576 57,31.1170423 C57,31.3999726 56.8801486,31.6696616 56.6701506,31.8592675 L50.0483533,37.8380483 C49.6384336,38.2081623 49.0060915,38.1758934 48.6359775,37.7659738 C48.4700534,37.5822046 48.3782027,37.3434154 48.3782027,37.0958232 L48.3779156,34.2120423 L31.0479156,34.2128736 C29.9433461,34.2128736 29.0479156,33.3174431 29.0479156,32.2128736 C29.0479156,31.1083041 29.9433461,30.2128736 31.0479156,30.2128736 L48.3779156,30.2120423 L48.3782027,30.1170423 L56,30.1170423 Z" id="形状结合备份-11" fill="#5073E5" transform="translate(43.023958, 34.106437) scale(-1, -1) translate(-43.023958, -34.106437) "></path>
                        </g>
                    </g>
                </g>
            </g>
        </g>
    </g>
</svg>