<?xml version="1.0" encoding="UTF-8"?>
<svg width="125px" height="125px" viewBox="0 0 125 125" version="1.1" xmlns="http://www.w3.org/2000/svg" xmlns:xlink="http://www.w3.org/1999/xlink">
    <title>Tabs 页签</title>
    <defs>
        <linearGradient x1="50%" y1="45.9685271%" x2="50%" y2="100%" id="linearGradient-1">
            <stop stop-color="#ECF3FB" offset="0%"></stop>
            <stop stop-color="#FFFFFF" offset="100%"></stop>
        </linearGradient>
        <linearGradient x1="50.3956523%" y1="35.9331967%" x2="50%" y2="64.0668033%" id="linearGradient-2">
            <stop stop-color="#E3EFFD" stop-opacity="0.00575352382" offset="0%"></stop>
            <stop stop-color="#E5F0FD" offset="34.0601199%"></stop>
            <stop stop-color="#F0F6FE" offset="100%"></stop>
        </linearGradient>
        <linearGradient x1="33.3333333%" y1="34.495573%" x2="96.9740837%" y2="65.4421891%" id="linearGradient-3">
            <stop stop-color="#D5E6F9" offset="0%"></stop>
            <stop stop-color="#F7FBFF" stop-opacity="0" offset="100%"></stop>
        </linearGradient>
        <linearGradient x1="90.9912104%" y1="29.4309598%" x2="33.3333333%" y2="67.7472684%" id="linearGradient-4">
            <stop stop-color="#D5E6F9" offset="0%"></stop>
            <stop stop-color="#E7F0F9" stop-opacity="0" offset="100%"></stop>
        </linearGradient>
        <linearGradient x1="-5.8027489%" y1="27.0499439%" x2="103.630422%" y2="71.1332543%" id="linearGradient-5">
            <stop stop-color="#CEE6FE" offset="0%"></stop>
            <stop stop-color="#8AB5F2" offset="100%"></stop>
        </linearGradient>
        <linearGradient x1="-5.8027489%" y1="27.0499439%" x2="103.630422%" y2="71.1332543%" id="linearGradient-6">
            <stop stop-color="#BFD6F9" offset="0%"></stop>
            <stop stop-color="#F3F6FE" offset="100%"></stop>
        </linearGradient>
        <linearGradient x1="89.8473889%" y1="61.7348066%" x2="0%" y2="61.7348066%" id="linearGradient-7">
            <stop stop-color="#CAD9F3" offset="0%"></stop>
            <stop stop-color="#D5E3F7" offset="100%"></stop>
        </linearGradient>
        <filter x="-18.5%" y="-60.0%" width="136.9%" height="220.0%" filterUnits="objectBoundingBox" id="filter-8">
            <feGaussianBlur stdDeviation="4" in="SourceGraphic"></feGaussianBlur>
        </filter>
        <linearGradient x1="44.0988019%" y1="62.8630849%" x2="128.792906%" y2="17.2388921%" id="linearGradient-9">
            <stop stop-color="#5073E5" offset="0%"></stop>
            <stop stop-color="#5E7CE0" offset="100%"></stop>
        </linearGradient>
        <linearGradient x1="44.0988019%" y1="60.9602617%" x2="128.792906%" y2="22.0852098%" id="linearGradient-10">
            <stop stop-color="#5073E5" offset="0%"></stop>
            <stop stop-color="#5E7CE0" offset="100%"></stop>
        </linearGradient>
        <linearGradient x1="44.0988019%" y1="59.6880098%" x2="128.792906%" y2="25.3255197%" id="linearGradient-11">
            <stop stop-color="#5073E5" offset="0%"></stop>
            <stop stop-color="#5E7CE0" offset="100%"></stop>
        </linearGradient>
        <linearGradient x1="44.0988019%" y1="63.6491055%" x2="128.792906%" y2="15.2369689%" id="linearGradient-12">
            <stop stop-color="#5073E5" offset="0%"></stop>
            <stop stop-color="#5E7CE0" offset="100%"></stop>
        </linearGradient>
    </defs>
    <g id="页面一" stroke="none" stroke-width="1" fill="none" fill-rule="evenodd">
        <g id="-TinyUI-Vue-组件总览" transform="translate(-1478.000000, -884.000000)">
            <g id="编组-25备份-11" transform="translate(1380.000000, 851.000000)">
                <g id="Tabs-页签" transform="translate(98.000000, 33.000000)">
                    <g id="编组">
                        <g transform="translate(9.000000, 1.000000)" id="多边形">
                            <polygon fill="url(#linearGradient-1)" opacity="0.54620216" points="53.2605623 0 106.521125 30.75 53.2605623 62 0 30.75"></polygon>
                            <polygon fill="url(#linearGradient-2)" points="53.2605623 61.5 106.521125 86.75 53.2605623 118 0 86.75"></polygon>
                            <polygon fill="url(#linearGradient-3)" opacity="0.600606283" points="53.2605623 62 53.2605623 123 7.39138783e-15 92.25 0 30.75"></polygon>
                            <polygon fill="url(#linearGradient-4)" opacity="0.791265578" points="53.2605623 62 106.521125 30.75 106.521125 92.25 53.2605623 123"></polygon>
                            <polygon fill="url(#linearGradient-5)" points="53.2605623 118.007802 53.2605623 123 7.39138783e-15 92.25 0 86.9161706"></polygon>
                            <polygon fill="url(#linearGradient-6)" transform="translate(79.630281, 104.958085) scale(-1, 1) translate(-79.630281, -104.958085) " points="106.260562 118.007802 106.260562 123 53 92.25 53 86.9161706"></polygon>
                        </g>
                        <ellipse id="椭圆形" fill="url(#linearGradient-7)" filter="url(#filter-8)" cx="62.5" cy="90" rx="32.5" ry="10"></ellipse>
                    </g>
                    <g id="编组-19" transform="translate(24.000000, 33.000000)">
                        <path d="M8,18 L72,18 C73.1045695,18 74,18.8954305 74,20 L74,55 C74,56.1045695 73.1045695,57 72,57 L10,57 C8.8954305,57 8,56.1045695 8,55 L8,18 L8,18 Z" id="矩形备份" fill="url(#linearGradient-9)" opacity="0.303770519"></path>
                        <path d="M0,14 L64,14 C65.1045695,14 66,14.8954305 66,16 L66,48 C66,49.1045695 65.1045695,50 64,50 L2,50 C0.8954305,50 1.3527075e-16,49.1045695 0,48 L0,14 L0,14 Z" id="矩形" fill="url(#linearGradient-10)"></path>
                        <path d="M9,24 L55,24 C56.1045695,24 57,24.8954305 57,26 C57,27.1045695 56.1045695,28 55,28 L9,28 C7.8954305,28 7,27.1045695 7,26 C7,24.8954305 7.8954305,24 9,24 Z" id="形状结合备份" fill="#FFFFFF"></path>
                        <path d="M9,34.6 L41,34.6 C42.1045695,34.6 43,35.4954305 43,36.6 C43,37.7045695 42.1045695,38.6 41,38.6 L9,38.6 C7.8954305,38.6 7,37.7045695 7,36.6 C7,35.4954305 7.8954305,34.6 9,34.6 Z" id="形状结合备份-35" fill="#FFFFFF" opacity="0.6"></path>
                        <rect id="矩形-2" fill="url(#linearGradient-11)" opacity="0.303770519" x="26" y="0" width="23" height="12" rx="2"></rect>
                        <rect id="矩形-2备份-3" fill="url(#linearGradient-11)" opacity="0.303770519" x="51" y="0" width="23" height="12" rx="2"></rect>
                        <path d="M2,1 L21,1 C22.1045695,1 23,1.8954305 23,3 L23,15 L23,15 L0,15 L0,3 C-3.57315355e-16,1.8954305 0.8954305,1 2,1 Z" id="矩形-2备份" fill="url(#linearGradient-12)"></path>
                        <path d="M6,6 L17,6 C18.1045695,6 19,6.8954305 19,8 C19,9.1045695 18.1045695,10 17,10 L6,10 C4.8954305,10 4,9.1045695 4,8 C4,6.8954305 4.8954305,6 6,6 Z" id="形状结合备份-41" fill="#FFFFFF" opacity="0.6"></path>
                    </g>
                </g>
            </g>
        </g>
    </g>
</svg>