<?xml version="1.0" encoding="UTF-8"?>
<svg width="125px" height="125px" viewBox="0 0 125 125" version="1.1" xmlns="http://www.w3.org/2000/svg" xmlns:xlink="http://www.w3.org/1999/xlink">
    <title>Tabs 页签</title>
    <defs>
        <linearGradient x1="44.0988019%" y1="62.8630849%" x2="128.792906%" y2="17.2388921%" id="linearGradient-1">
            <stop stop-color="#5073E5" offset="0%"></stop>
            <stop stop-color="#5E7CE0" offset="100%"></stop>
        </linearGradient>
        <linearGradient x1="44.0988019%" y1="60.9602617%" x2="128.792906%" y2="22.0852098%" id="linearGradient-2">
            <stop stop-color="#5073E5" offset="0%"></stop>
            <stop stop-color="#5E7CE0" offset="100%"></stop>
        </linearGradient>
        <linearGradient x1="44.0988019%" y1="59.6880098%" x2="128.792906%" y2="25.3255197%" id="linearGradient-3">
            <stop stop-color="#5073E5" offset="0%"></stop>
            <stop stop-color="#5E7CE0" offset="100%"></stop>
        </linearGradient>
        <linearGradient x1="44.0988019%" y1="63.6491055%" x2="128.792906%" y2="15.2369689%" id="linearGradient-4">
            <stop stop-color="#5073E5" offset="0%"></stop>
            <stop stop-color="#5E7CE0" offset="100%"></stop>
        </linearGradient>
    </defs>
    <g id="Tiny-Vue" stroke="none" stroke-width="1" fill="none" fill-rule="evenodd">
        <g id="-TinyUI-Vue-组件总览1" transform="translate(-1478.000000, -935.000000)">
            <g id="组件" transform="translate(596.000000, 311.000000)">
                <g id="编组-25备份-11" transform="translate(784.000000, 591.000000)">
                    <g id="Tabs-页签" transform="translate(98.000000, 33.000000)">
                        <g id="编组"></g>
                        <g id="编组-19" transform="translate(24.000000, 33.000000)">
                            <path d="M8,18 L72,18 C73.1045695,18 74,18.8954305 74,20 L74,55 C74,56.1045695 73.1045695,57 72,57 L10,57 C8.8954305,57 8,56.1045695 8,55 L8,18 L8,18 Z" id="矩形备份" fill="url(#linearGradient-1)" opacity="0.303770519"></path>
                            <path d="M0,14 L64,14 C65.1045695,14 66,14.8954305 66,16 L66,48 C66,49.1045695 65.1045695,50 64,50 L2,50 C0.8954305,50 1.3527075e-16,49.1045695 0,48 L0,14 L0,14 Z" id="矩形" fill="url(#linearGradient-2)"></path>
                            <path d="M9,24 L55,24 C56.1045695,24 57,24.8954305 57,26 C57,27.1045695 56.1045695,28 55,28 L9,28 C7.8954305,28 7,27.1045695 7,26 C7,24.8954305 7.8954305,24 9,24 Z" id="形状结合备份" fill="#FFFFFF"></path>
                            <path d="M9,34.6 L41,34.6 C42.1045695,34.6 43,35.4954305 43,36.6 C43,37.7045695 42.1045695,38.6 41,38.6 L9,38.6 C7.8954305,38.6 7,37.7045695 7,36.6 C7,35.4954305 7.8954305,34.6 9,34.6 Z" id="形状结合备份-35" fill="#FFFFFF" opacity="0.6"></path>
                            <rect id="矩形-2" fill="url(#linearGradient-3)" opacity="0.303770519" x="26" y="0" width="23" height="12" rx="2"></rect>
                            <rect id="矩形-2备份-3" fill="url(#linearGradient-3)" opacity="0.303770519" x="51" y="0" width="23" height="12" rx="2"></rect>
                            <path d="M2,1 L21,1 C22.1045695,1 23,1.8954305 23,3 L23,15 L23,15 L0,15 L0,3 C-3.57315355e-16,1.8954305 0.8954305,1 2,1 Z" id="矩形-2备份" fill="url(#linearGradient-4)"></path>
                            <path d="M6,6 L17,6 C18.1045695,6 19,6.8954305 19,8 C19,9.1045695 18.1045695,10 17,10 L6,10 C4.8954305,10 4,9.1045695 4,8 C4,6.8954305 4.8954305,6 6,6 Z" id="形状结合备份-41" fill="#FFFFFF" opacity="0.6"></path>
                        </g>
                    </g>
                </g>
            </g>
        </g>
    </g>
</svg>