<?xml version="1.0" encoding="UTF-8"?>
<svg width="125px" height="125px" viewBox="0 0 125 125" version="1.1" xmlns="http://www.w3.org/2000/svg" xmlns:xlink="http://www.w3.org/1999/xlink">
    <title>标签管理 Tag</title>
    <defs>
        <linearGradient x1="44.0988019%" y1="64.1062317%" x2="128.792906%" y2="14.07271%" id="linearGradient-1">
            <stop stop-color="#5073E5" offset="0%"></stop>
            <stop stop-color="#5E7CE0" offset="100%"></stop>
        </linearGradient>
        <linearGradient x1="44.0988019%" y1="74.6269726%" x2="128.792906%" y2="-12.7226607%" id="linearGradient-2">
            <stop stop-color="#5073E5" offset="0%"></stop>
            <stop stop-color="#5E7CE0" offset="100%"></stop>
        </linearGradient>
        <linearGradient x1="44.0988019%" y1="86.2961127%" x2="128.792906%" y2="-42.4428997%" id="linearGradient-3">
            <stop stop-color="#5073E5" offset="0%"></stop>
            <stop stop-color="#5E7CE0" offset="100%"></stop>
        </linearGradient>
        <linearGradient x1="44.0988019%" y1="86.2961127%" x2="128.792906%" y2="-42.4428997%" id="linearGradient-4">
            <stop stop-color="#5073E5" offset="0%"></stop>
            <stop stop-color="#5E7CE0" offset="100%"></stop>
        </linearGradient>
        <linearGradient x1="50%" y1="0%" x2="50%" y2="100%" id="linearGradient-5">
            <stop stop-color="#FFCC00" offset="0%"></stop>
            <stop stop-color="#FF9D00" offset="100%"></stop>
        </linearGradient>
        <path d="M12.8131868,0.561797753 L20.1868132,4.93133583 C21.2747253,5.55555556 22,6.80399501 22,8.1772784 L22,16.9163546 C22,18.289638 21.2747253,19.5380774 20.1868132,20.1622971 L12.8131868,24.5318352 C11.7252747,25.1560549 10.2747253,25.1560549 9.18681319,24.5318352 L1.81318681,20.1622971 C0.725274725,19.5380774 0,18.289638 0,16.9163546 L0,8.1772784 C0,6.80399501 0.725274725,5.55555556 1.81318681,4.93133583 L9.18681319,0.561797753 C10.2747253,-0.187265918 11.7252747,-0.187265918 12.8131868,0.561797753 L12.8131868,0.561797753 Z" id="path-6"></path>
        <filter x="-15.9%" y="-10.0%" width="131.8%" height="128.0%" filterUnits="objectBoundingBox" id="filter-7">
            <feOffset dx="0" dy="1" in="SourceAlpha" result="shadowOffsetOuter1"></feOffset>
            <feGaussianBlur stdDeviation="1" in="shadowOffsetOuter1" result="shadowBlurOuter1"></feGaussianBlur>
            <feColorMatrix values="0 0 0 0 0.661752894   0 0 0 0 0.324547702   0 0 0 0 0.00489962574  0 0 0 0.5 0" type="matrix" in="shadowBlurOuter1"></feColorMatrix>
        </filter>
    </defs>
    <g id="组件总览" stroke="none" stroke-width="1" fill="none" fill-rule="evenodd">
        <g id="-TinyUI-Ng-组件总览-3" transform="translate(-698.000000, -1434.000000)">
            <g id="编组-14备份" transform="translate(598.000000, 1401.000000)">
                <g id="标签管理-Tag" transform="translate(100.000000, 33.000000)">
                    <g id="编组"></g>
                    <g id="标签管理-(1)" transform="translate(30.903138, 31.000000)">
                        <path d="M11.9387753,30.3468787 L5.31628502,17.7973879 C4.5637293,16.3034009 4.71424044,14.3612178 5.76781845,13.0166296 L14.4974648,1.81172707 C15.4005317,0.61653747 16.9056431,-0.130456029 18.4107545,0.0189426707 L59.5002968,3.60451147 C62.0589862,3.75391016 63.86512,5.99489066 63.5640977,8.53466856 L61.4569417,32.2890618 C61.3064305,34.8288397 59.0487634,36.6216241 56.4900739,36.3228267 L15.5510428,32.7372579 C14.0459314,32.5878592 12.6913311,31.691467 11.9387753,30.3468787 L11.9387753,30.3468787 Z" id="路径" fill="url(#linearGradient-1)" opacity="0.204287574"></path>
                        <path d="M5.91832959,30.6456761 L4.11219587,16.6021983 C3.81117358,14.8094139 4.71424044,13.1660283 6.21935188,12.2696361 L18.2602434,4.65030236 C19.6148437,3.75391016 21.2704663,3.75391016 22.6250666,4.35150496 L59.9518302,21.6817541 C62.2094974,22.727545 63.2630754,25.4167216 62.2094974,27.6577021 L51.6737173,49.1711149 C50.6201393,51.4120954 47.9109387,52.4578863 45.6532716,51.4120954 L8.47701904,34.0818462 C6.9719076,33.4842514 6.06884074,32.1396631 5.91832959,30.6456761 Z" id="路径" fill="url(#linearGradient-2)" opacity="0.303770519"></path>
                        <path d="M0.10369854,28.5874984 L3.19009464,14.7485492 C3.61580447,13.0582958 4.89293386,11.7906058 6.59577296,11.3680424 L20.537769,8.30445835 C22.1341807,7.98753585 23.6241651,8.41009922 24.6884396,9.46650747 L53.849561,38.412096 C55.6588277,40.2079902 55.6588277,42.9546518 53.849561,44.7505459 C49.7013305,48.8681164 46.5901576,51.9562942 44.5160424,54.0150795 C42.8060705,55.7124128 40.2411126,58.2584127 36.8211689,61.6530793 C35.0119022,63.4489736 32.2447885,63.4489736 30.4355219,61.6530793 L1.27440044,32.7074909 C0.21012591,31.6510826 -0.215583924,30.172111 0.10369854,28.5874984 Z" id="路径" stroke="url(#linearGradient-4)" stroke-width="0.5" fill="url(#linearGradient-3)"></path>
                        <path d="M13.4071298,25.7351959 C14.1675607,26.4901637 15.2760168,26.7850604 16.3149027,26.5087876 C17.3537886,26.2325148 18.1652499,25.4270511 18.4435798,24.3958438 C18.7219098,23.3646364 18.4248173,22.264373 17.6642278,21.5095626 C16.903797,20.7545947 15.7953409,20.4596981 14.756455,20.7359708 C13.7175691,21.0122436 12.9061078,21.8177073 12.6277778,22.8489147 C12.3494479,23.880122 12.6465404,24.9803854 13.4071298,25.7351959 L13.4071298,25.7351959 Z" id="路径" fill="#FFFFFF" fill-rule="nonzero"></path>
                        <g id="编组-18" transform="translate(4.000000, 35.000000)">
                            <g id="路径">
                                <use fill="black" fill-opacity="1" filter="url(#filter-7)" xlink:href="#path-6"></use>
                                <use fill="url(#linearGradient-5)" fill-rule="evenodd" xlink:href="#path-6"></use>
                            </g>
                            <path d="M6.76923077,12.5468165 C6.76923077,14.9600457 8.66341067,16.9163546 11,16.9163546 C13.3365893,16.9163546 15.2307692,14.9600457 15.2307692,12.5468165 C15.2307692,10.1335872 13.3365893,8.1772784 11,8.1772784 C8.66341067,8.1772784 6.76923077,10.1335872 6.76923077,12.5468165 L6.76923077,12.5468165 Z" id="路径" fill="#FFFFFF" fill-rule="nonzero"></path>
                        </g>
                    </g>
                </g>
            </g>
        </g>
    </g>
</svg>