<?xml version="1.0" encoding="UTF-8"?>
<svg width="125px" height="125px" viewBox="0 0 125 125" version="1.1" xmlns="http://www.w3.org/2000/svg" xmlns:xlink="http://www.w3.org/1999/xlink">
    <title>Tag标签</title>
    <defs>
        <linearGradient x1="45.4426928%" y1="86.8386573%" x2="110.849251%" y2="-43.8247114%" id="linearGradient-1">
            <stop stop-color="#5073E5" offset="0%"></stop>
            <stop stop-color="#5E7CE0" offset="100%"></stop>
        </linearGradient>
        <linearGradient x1="50%" y1="0%" x2="50%" y2="100%" id="linearGradient-2">
            <stop stop-color="#FFCC00" offset="0%"></stop>
            <stop stop-color="#FF9D00" offset="100%"></stop>
        </linearGradient>
        <polygon id="path-3" points="0 0 0 17.9999556 5.25008869 11.7906114 10.5 18 10.5 0"></polygon>
        <filter x="-33.3%" y="-13.9%" width="166.7%" height="138.9%" filterUnits="objectBoundingBox" id="filter-4">
            <feOffset dx="0" dy="1" in="SourceAlpha" result="shadowOffsetOuter1"></feOffset>
            <feGaussianBlur stdDeviation="1" in="shadowOffsetOuter1" result="shadowBlurOuter1"></feGaussianBlur>
            <feColorMatrix values="0 0 0 0 0.661752894   0 0 0 0 0.324547702   0 0 0 0 0.00489962574  0 0 0 0.5 0" type="matrix" in="shadowBlurOuter1"></feColorMatrix>
        </filter>
        <linearGradient x1="44.0988019%" y1="53.7884106%" x2="128.792906%" y2="40.3512625%" id="linearGradient-5">
            <stop stop-color="#5073E5" offset="0%"></stop>
            <stop stop-color="#5E7CE0" offset="100%"></stop>
        </linearGradient>
        <linearGradient x1="44.0988019%" y1="53.7884106%" x2="128.792906%" y2="40.3512625%" id="linearGradient-6">
            <stop stop-color="#5073E5" offset="0%"></stop>
            <stop stop-color="#5E7CE0" offset="100%"></stop>
        </linearGradient>
        <path d="M62.0833333,9 L62.083,11.916 L65,11.9166667 L65,13.0833333 L62.083,13.083 L62.0833333,16 L60.9166667,16 L60.916,13.083 L58,13.0833333 L58,11.9166667 L60.916,11.916 L60.9166667,9 L62.0833333,9 Z" id="path-7"></path>
        <filter x="-28.6%" y="-28.6%" width="157.1%" height="157.1%" filterUnits="objectBoundingBox" id="filter-8">
            <feMorphology radius="0.5" operator="dilate" in="SourceAlpha" result="shadowSpreadOuter1"></feMorphology>
            <feOffset dx="0" dy="0" in="shadowSpreadOuter1" result="shadowOffsetOuter1"></feOffset>
            <feGaussianBlur stdDeviation="0.5" in="shadowOffsetOuter1" result="shadowBlurOuter1"></feGaussianBlur>
            <feComposite in="shadowBlurOuter1" in2="SourceAlpha" operator="out" result="shadowBlurOuter1"></feComposite>
            <feColorMatrix values="0 0 0 0 0.232993057   0 0 0 0 0.361563365   0 0 0 0 0.790131058  0 0 0 1 0" type="matrix" in="shadowBlurOuter1"></feColorMatrix>
        </filter>
    </defs>
    <g id="组件总览" stroke="none" stroke-width="1" fill="none" fill-rule="evenodd">
        <g id="-TinyUI-Ng-组件总览-1" transform="translate(-1089.000000, -1841.000000)">
            <g id="Tag标签" transform="translate(1089.000000, 1841.000000)">
                <g id="编组"></g>
                <path d="M38,29 L88,29 C90.209139,29 92,30.790861 92,33 L92,91 C92,93.209139 90.209139,95 88,95 L38,95 C35.790861,95 34,93.209139 34,91 L34,33 C34,30.790861 35.790861,29 38,29 Z" id="形状结合备份-6" fill="url(#linearGradient-1)" opacity="0.303770519"></path>
                <g id="路径" transform="translate(44.000000, 29.000000)">
                    <use fill="black" fill-opacity="1" filter="url(#filter-4)" xlink:href="#path-3"></use>
                    <use fill="url(#linearGradient-2)" fill-rule="evenodd" xlink:href="#path-3"></use>
                </g>
                <g id="编组-23备份" transform="translate(24.000000, 54.000000)">
                    <rect id="矩形" stroke="url(#linearGradient-6)" fill="url(#linearGradient-5)" x="0" y="0" width="77.9584836" height="25" rx="12"></rect>
                    <path d="M61.5,5 C65.6421356,5 69,8.35786438 69,12.5 C69,16.6421356 65.6421356,20 61.5,20 C57.3578644,20 54,16.6421356 54,12.5 C54,8.35786438 57.3578644,5 61.5,5 Z" id="形状结合备份-24" stroke="#FFFFFF" fill="#FFFFFF" fill-rule="nonzero" opacity="0.17413766"></path>
                    <g id="形状结合" fill-rule="nonzero" transform="translate(61.500000, 12.500000) rotate(-315.000000) translate(-61.500000, -12.500000) ">
                        <use fill="black" fill-opacity="1" filter="url(#filter-8)" xlink:href="#path-7"></use>
                        <use stroke="#FFFFFF" stroke-width="1" fill="#FFFFFF" xlink:href="#path-7"></use>
                    </g>
                    <text id="Tag备份-2" font-family="PingFangSC-Semibold, PingFang SC" font-size="14" font-weight="500" letter-spacing="0.448717949" fill="#FFFFFF">
                        <tspan x="13" y="18">Tag</tspan>
                    </text>
                </g>
            </g>
        </g>
    </g>
</svg>