<?xml version="1.0" encoding="UTF-8"?>
<svg width="125px" height="125px" viewBox="0 0 125 125" version="1.1" xmlns="http://www.w3.org/2000/svg" xmlns:xlink="http://www.w3.org/1999/xlink">
    <title>TextPopup 输入框</title>
    <defs>
        <linearGradient x1="44.0988019%" y1="62.7915639%" x2="128.792906%" y2="17.4210496%" id="linearGradient-1">
            <stop stop-color="#5073E5" offset="0%"></stop>
            <stop stop-color="#5E7CE0" offset="100%"></stop>
        </linearGradient>
        <linearGradient x1="44.0988019%" y1="50.8719209%" x2="128.792906%" y2="47.7792968%" id="linearGradient-2">
            <stop stop-color="#5073E5" offset="0%"></stop>
            <stop stop-color="#5E7CE0" offset="100%"></stop>
        </linearGradient>
        <linearGradient x1="44.0988019%" y1="50.4305468%" x2="128.792906%" y2="48.9034365%" id="linearGradient-3">
            <stop stop-color="#5073E5" offset="0%"></stop>
            <stop stop-color="#5E7CE0" offset="100%"></stop>
        </linearGradient>
        <linearGradient x1="44.0988019%" y1="52.3024161%" x2="128.792906%" y2="44.1359555%" id="linearGradient-4">
            <stop stop-color="#5073E5" offset="0%"></stop>
            <stop stop-color="#5E7CE0" offset="100%"></stop>
        </linearGradient>
        <linearGradient x1="100%" y1="45.5%" x2="6.58643108%" y2="54.5%" id="linearGradient-5">
            <stop stop-color="#FFCC00" offset="0%"></stop>
            <stop stop-color="#FF9D00" offset="100%"></stop>
        </linearGradient>
        <path d="M23.5,17 L30.5,17 C31.3284271,17 32,17.6715729 32,18.5 C32,19.3284271 31.3284271,20 30.5,20 L23.5,20 C22.6715729,20 22,19.3284271 22,18.5 C22,17.6715729 22.6715729,17 23.5,17 Z" id="path-6"></path>
        <filter x="-35.0%" y="-83.3%" width="170.0%" height="333.3%" filterUnits="objectBoundingBox" id="filter-7">
            <feOffset dx="0" dy="1" in="SourceAlpha" result="shadowOffsetOuter1"></feOffset>
            <feGaussianBlur stdDeviation="1" in="shadowOffsetOuter1" result="shadowBlurOuter1"></feGaussianBlur>
            <feColorMatrix values="0 0 0 0 0.661752894   0 0 0 0 0.324547702   0 0 0 0 0.00489962574  0 0 0 0.5 0" type="matrix" in="shadowBlurOuter1"></feColorMatrix>
        </filter>
        <path d="M24,0 C24.5522847,-1.01453063e-16 25,0.44771525 25,1 L25,4 C25,4.55228475 24.5522847,5 24,5 L15,5 L15,24 C15,24.5522847 14.5522847,25 14,25 L11,25 C10.4477153,25 10,24.5522847 10,24 L10,5 L1,5 C0.44771525,5 6.76353751e-17,4.55228475 0,4 L0,1 C-6.76353751e-17,0.44771525 0.44771525,1.01453063e-16 1,0 L24,0 Z" id="path-8"></path>
        <filter x="-16.0%" y="-8.0%" width="132.0%" height="132.0%" filterUnits="objectBoundingBox" id="filter-9">
            <feOffset dx="0" dy="2" in="SourceAlpha" result="shadowOffsetOuter1"></feOffset>
            <feGaussianBlur stdDeviation="1" in="shadowOffsetOuter1" result="shadowBlurOuter1"></feGaussianBlur>
            <feColorMatrix values="0 0 0 0 0.368627451   0 0 0 0 0.48627451   0 0 0 0 0.878431373  0 0 0 0.349865467 0" type="matrix" in="shadowBlurOuter1"></feColorMatrix>
        </filter>
    </defs>
    <g id="Tiny-Vue" stroke="none" stroke-width="1" fill="none" fill-rule="evenodd">
        <g id="-TinyUI-Vue-组件总览1" transform="translate(-1870.000000, -2859.000000)">
            <g id="组件" transform="translate(596.000000, 311.000000)">
                <g id="编组-25备份-18" transform="translate(1173.000000, 2515.000000)">
                    <g id="TextPopup-输入框" transform="translate(101.000000, 33.000000)">
                        <g id="编组"></g>
                        <g id="编组-33" transform="translate(40.000000, 63.000000)" opacity="0.204287574">
                            <path d="M0,0 L0,28.2834583 C0,29.5889297 1.66778363,30.6417291 3.71724908,30.6417291 L48.2827509,30.6417291 C50.3322164,30.6417291 52,29.5889297 52,28.2834583 L52,0 L0,0 Z" id="路径备份-2" fill="url(#linearGradient-1)"></path>
                            <rect id="矩形备份-6" fill="url(#linearGradient-2)" x="8" y="18" width="26" height="4" rx="2"></rect>
                            <rect id="矩形备份-21" fill="url(#linearGradient-3)" x="8" y="8" width="37" height="4" rx="2"></rect>
                        </g>
                        <g id="编组-30" transform="translate(27.000000, 35.000000)">
                            <rect id="矩形" fill="url(#linearGradient-4)" opacity="0.604724702" x="7.10542736e-15" y="10" width="72" height="18" rx="4"></rect>
                            <g id="形状结合备份-19" transform="translate(27.000000, 18.500000) rotate(-90.000000) translate(-27.000000, -18.500000) ">
                                <use fill="black" fill-opacity="1" filter="url(#filter-7)" xlink:href="#path-6"></use>
                                <use fill="url(#linearGradient-5)" fill-rule="evenodd" xlink:href="#path-6"></use>
                            </g>
                            <g id="形状结合">
                                <use fill="black" fill-opacity="1" filter="url(#filter-9)" xlink:href="#path-8"></use>
                                <use fill="#5073E5" fill-rule="evenodd" xlink:href="#path-8"></use>
                            </g>
                        </g>
                    </g>
                </g>
            </g>
        </g>
    </g>
</svg>