<?xml version="1.0" encoding="UTF-8"?>
<svg width="125px" height="125px" viewBox="0 0 125 125" version="1.1" xmlns="http://www.w3.org/2000/svg" xmlns:xlink="http://www.w3.org/1999/xlink">
    <title>ToolTip 文字提示</title>
    <defs>
        <linearGradient x1="44.0988019%" y1="52.8250237%" x2="128.792906%" y2="42.8049215%" id="linearGradient-1">
            <stop stop-color="#5073E5" offset="0%"></stop>
            <stop stop-color="#5E7CE0" offset="100%"></stop>
        </linearGradient>
        <linearGradient x1="44.0988019%" y1="54.061427%" x2="128.792906%" y2="39.6559147%" id="linearGradient-2">
            <stop stop-color="#5073E5" offset="0%"></stop>
            <stop stop-color="#5E7CE0" offset="100%"></stop>
        </linearGradient>
        <linearGradient x1="44.0988019%" y1="54.061427%" x2="128.792906%" y2="39.6559147%" id="linearGradient-3">
            <stop stop-color="#5073E5" offset="0%"></stop>
            <stop stop-color="#5E7CE0" offset="100%"></stop>
        </linearGradient>
    </defs>
    <g id="Tiny-Vue" stroke="none" stroke-width="1" fill="none" fill-rule="evenodd">
        <g id="-TinyUI-Vue-组件总览1" transform="translate(-1087.000000, -2038.000000)">
            <g id="组件" transform="translate(596.000000, 311.000000)">
                <g id="编组-14备份-9" transform="translate(390.000000, 1690.000000)">
                    <g id="Tip-气泡提示" transform="translate(101.000000, 37.000000)">
                        <g id="编组"></g>
                        <rect id="矩形" fill="url(#linearGradient-1)" opacity="0.204287574" x="30" y="74" width="65" height="18" rx="4"></rect>
                        <path d="M100,40 C102.209139,40 104,41.790861 104,44 L104,56 C104,58.209139 102.209139,60 100,60 L72.242,60 L69,63.2426407 L65.757,60 L38,60 C35.790861,60 34,58.209139 34,56 L34,44 C34,41.790861 35.790861,40 38,40 L100,40 Z" id="形状结合" fill="url(#linearGradient-2)" opacity="0.204287574"></path>
                        <path d="M91,47 C93.209139,47 95,48.790861 95,51 L95,63 C95,65.209139 93.209139,67 91,67 L63.242,67 L60,70.2426407 L56.757,67 L29,67 C26.790861,67 25,65.209139 25,63 L25,51 C25,48.790861 26.790861,47 29,47 L91,47 Z" id="形状结合备份-22" fill="url(#linearGradient-3)"></path>
                        <path d="M37,55 L83,55 C84.1045695,55 85,55.8954305 85,57 C85,58.1045695 84.1045695,59 83,59 L37,59 C35.8954305,59 35,58.1045695 35,57 C35,55.8954305 35.8954305,55 37,55 Z" id="形状结合备份" fill="#FFFFFF" fill-rule="nonzero"></path>
                    </g>
                </g>
            </g>
        </g>
    </g>
</svg>