<?xml version="1.0" encoding="UTF-8"?>
<svg width="125px" height="125px" viewBox="0 0 125 125" version="1.1" xmlns="http://www.w3.org/2000/svg" xmlns:xlink="http://www.w3.org/1999/xlink">
    <title>Tree 树      </title>
    <defs>
        <linearGradient x1="44.0988019%" y1="53.2341208%" x2="128.792906%" y2="41.7629883%" id="linearGradient-1">
            <stop stop-color="#5073E5" offset="0%"></stop>
            <stop stop-color="#5E7CE0" offset="100%"></stop>
        </linearGradient>
        <linearGradient x1="44.0988019%" y1="53.2341208%" x2="128.792906%" y2="41.7629883%" id="linearGradient-2">
            <stop stop-color="#5073E5" offset="0%"></stop>
            <stop stop-color="#5E7CE0" offset="100%"></stop>
        </linearGradient>
        <path d="M7.5,27 L17.5,27 C18.3284271,27 19,27.6715729 19,28.5 C19,29.3284271 18.3284271,30 17.5,30 L7.5,30 C6.67157288,30 6,29.3284271 6,28.5 C6,27.6715729 6.67157288,27 7.5,27 Z" id="path-3"></path>
        <filter x="-30.8%" y="-66.7%" width="161.5%" height="366.7%" filterUnits="objectBoundingBox" id="filter-4">
            <feOffset dx="0" dy="2" in="SourceAlpha" result="shadowOffsetOuter1"></feOffset>
            <feGaussianBlur stdDeviation="1" in="shadowOffsetOuter1" result="shadowBlurOuter1"></feGaussianBlur>
            <feColorMatrix values="0 0 0 0 0.368627451   0 0 0 0 0.48627451   0 0 0 0 0.878431373  0 0 0 0.349865467 0" type="matrix" in="shadowBlurOuter1"></feColorMatrix>
        </filter>
        <path d="M7.5,46 L17.5,46 C18.3284271,46 19,46.6715729 19,47.5 C19,48.3284271 18.3284271,49 17.5,49 L7.5,49 C6.67157288,49 6,48.3284271 6,47.5 C6,46.6715729 6.67157288,46 7.5,46 Z" id="path-5"></path>
        <filter x="-30.8%" y="-66.7%" width="161.5%" height="366.7%" filterUnits="objectBoundingBox" id="filter-6">
            <feOffset dx="0" dy="2" in="SourceAlpha" result="shadowOffsetOuter1"></feOffset>
            <feGaussianBlur stdDeviation="1" in="shadowOffsetOuter1" result="shadowBlurOuter1"></feGaussianBlur>
            <feColorMatrix values="0 0 0 0 0.368627451   0 0 0 0 0.48627451   0 0 0 0 0.878431373  0 0 0 0.349865467 0" type="matrix" in="shadowBlurOuter1"></feColorMatrix>
        </filter>
        <path d="M25,41 L33,41 C34.1045695,41 35,41.8954305 35,43 L35,51 C35,52.1045695 34.1045695,53 33,53 L25,53 C23.8954305,53 23,52.1045695 23,51 L23,43 C23,41.8954305 23.8954305,41 25,41 Z" id="path-7"></path>
        <filter x="-33.3%" y="-16.7%" width="166.7%" height="166.7%" filterUnits="objectBoundingBox" id="filter-8">
            <feOffset dx="0" dy="2" in="SourceAlpha" result="shadowOffsetOuter1"></feOffset>
            <feGaussianBlur stdDeviation="1" in="shadowOffsetOuter1" result="shadowBlurOuter1"></feGaussianBlur>
            <feColorMatrix values="0 0 0 0 0.368627451   0 0 0 0 0.48627451   0 0 0 0 0.878431373  0 0 0 0.349865467 0" type="matrix" in="shadowBlurOuter1"></feColorMatrix>
        </filter>
        <path d="M25,22 L33,22 C34.1045695,22 35,22.8954305 35,24 L35,32 C35,33.1045695 34.1045695,34 33,34 L25,34 C23.8954305,34 23,33.1045695 23,32 L23,24 C23,22.8954305 23.8954305,22 25,22 Z" id="path-9"></path>
        <filter x="-33.3%" y="-16.7%" width="166.7%" height="166.7%" filterUnits="objectBoundingBox" id="filter-10">
            <feOffset dx="0" dy="2" in="SourceAlpha" result="shadowOffsetOuter1"></feOffset>
            <feGaussianBlur stdDeviation="1" in="shadowOffsetOuter1" result="shadowBlurOuter1"></feGaussianBlur>
            <feColorMatrix values="0 0 0 0 0.368627451   0 0 0 0 0.48627451   0 0 0 0 0.878431373  0 0 0 0.349865467 0" type="matrix" in="shadowBlurOuter1"></feColorMatrix>
        </filter>
        <path d="M6.5330808,2.44974747 L6.53274747,5.36574747 L9.44974747,5.36641413 L9.44974747,6.5330808 L6.53274747,6.53274747 L6.5330808,9.44974747 L5.36641413,9.44974747 L5.36574747,6.53274747 L2.44974747,6.5330808 L2.44974747,5.36641413 L5.36574747,5.36574747 L5.36641413,2.44974747 L6.5330808,2.44974747 Z" id="path-11"></path>
        <filter x="-21.4%" y="-21.4%" width="171.4%" height="171.4%" filterUnits="objectBoundingBox" id="filter-12">
            <feMorphology radius="0.5" operator="dilate" in="SourceAlpha" result="shadowSpreadOuter1"></feMorphology>
            <feOffset dx="1" dy="1" in="shadowSpreadOuter1" result="shadowOffsetOuter1"></feOffset>
            <feGaussianBlur stdDeviation="0.5" in="shadowOffsetOuter1" result="shadowBlurOuter1"></feGaussianBlur>
            <feComposite in="shadowBlurOuter1" in2="SourceAlpha" operator="out" result="shadowBlurOuter1"></feComposite>
            <feColorMatrix values="0 0 0 0 0.864817744   0 0 0 0 0.482995   0 0 0 0 0.0248266384  0 0 0 1 0" type="matrix" in="shadowBlurOuter1"></feColorMatrix>
        </filter>
        <linearGradient x1="44.0988019%" y1="54.0006858%" x2="128.792906%" y2="39.810617%" id="linearGradient-13">
            <stop stop-color="#5073E5" offset="0%"></stop>
            <stop stop-color="#5E7CE0" offset="100%"></stop>
        </linearGradient>
        <path d="M-18.5,28 L29.5,28 C30.3284271,28 31,28.6715729 31,29.5 C31,30.3284271 30.3284271,31 29.5,31 L-18.5,31 C-19.3284271,31 -20,30.3284271 -20,29.5 C-20,28.6715729 -19.3284271,28 -18.5,28 Z" id="path-14"></path>
        <filter x="-7.8%" y="-66.7%" width="115.7%" height="366.7%" filterUnits="objectBoundingBox" id="filter-15">
            <feOffset dx="0" dy="2" in="SourceAlpha" result="shadowOffsetOuter1"></feOffset>
            <feGaussianBlur stdDeviation="1" in="shadowOffsetOuter1" result="shadowBlurOuter1"></feGaussianBlur>
            <feColorMatrix values="0 0 0 0 0.368627451   0 0 0 0 0.48627451   0 0 0 0 0.878431373  0 0 0 0.349865467 0" type="matrix" in="shadowBlurOuter1"></feColorMatrix>
        </filter>
        <linearGradient x1="50%" y1="0%" x2="50%" y2="100%" id="linearGradient-16">
            <stop stop-color="#FFCC00" offset="0%"></stop>
            <stop stop-color="#FF9D00" offset="100%"></stop>
        </linearGradient>
        <path d="M2,0 L10,0 C11.1045695,-2.02906125e-16 12,0.8954305 12,2 L12,10 C12,11.1045695 11.1045695,12 10,12 L2,12 C0.8954305,12 1.3527075e-16,11.1045695 0,10 L0,2 C-1.3527075e-16,0.8954305 0.8954305,2.02906125e-16 2,0 Z" id="path-17"></path>
        <filter x="-29.2%" y="-20.8%" width="158.3%" height="158.3%" filterUnits="objectBoundingBox" id="filter-18">
            <feOffset dx="0" dy="1" in="SourceAlpha" result="shadowOffsetOuter1"></feOffset>
            <feGaussianBlur stdDeviation="1" in="shadowOffsetOuter1" result="shadowBlurOuter1"></feGaussianBlur>
            <feColorMatrix values="0 0 0 0 0.661752894   0 0 0 0 0.324547702   0 0 0 0 0.00489962574  0 0 0 0.5 0" type="matrix" in="shadowBlurOuter1"></feColorMatrix>
        </filter>
        <path d="M6.5330808,2.44974747 L6.53274747,5.36574747 L9.44974747,5.36641413 L9.44974747,6.5330808 L6.53274747,6.53274747 L6.5330808,9.44974747 L5.36641413,9.44974747 L5.36574747,6.53274747 L2.44974747,6.5330808 L2.44974747,5.36641413 L5.36574747,5.36574747 L5.36641413,2.44974747 L6.5330808,2.44974747 Z" id="path-19"></path>
        <filter x="-21.4%" y="-21.4%" width="171.4%" height="171.4%" filterUnits="objectBoundingBox" id="filter-20">
            <feMorphology radius="0.5" operator="dilate" in="SourceAlpha" result="shadowSpreadOuter1"></feMorphology>
            <feOffset dx="1" dy="1" in="shadowSpreadOuter1" result="shadowOffsetOuter1"></feOffset>
            <feGaussianBlur stdDeviation="0.5" in="shadowOffsetOuter1" result="shadowBlurOuter1"></feGaussianBlur>
            <feComposite in="shadowBlurOuter1" in2="SourceAlpha" operator="out" result="shadowBlurOuter1"></feComposite>
            <feColorMatrix values="0 0 0 0 0.864817744   0 0 0 0 0.482995   0 0 0 0 0.0248266384  0 0 0 1 0" type="matrix" in="shadowBlurOuter1"></feColorMatrix>
        </filter>
        <polygon id="path-21" points="25.4497475 27.3664141 32.4497475 27.3664141 32.4497475 28.5330808 25.4497475 28.5330808"></polygon>
        <filter x="-21.4%" y="-128.6%" width="171.4%" height="528.6%" filterUnits="objectBoundingBox" id="filter-22">
            <feMorphology radius="0.5" operator="dilate" in="SourceAlpha" result="shadowSpreadOuter1"></feMorphology>
            <feOffset dx="1" dy="1" in="shadowSpreadOuter1" result="shadowOffsetOuter1"></feOffset>
            <feGaussianBlur stdDeviation="0.5" in="shadowOffsetOuter1" result="shadowBlurOuter1"></feGaussianBlur>
            <feComposite in="shadowBlurOuter1" in2="SourceAlpha" operator="out" result="shadowBlurOuter1"></feComposite>
            <feColorMatrix values="0 0 0 0 0.176403911   0 0 0 0 0.290889653   0 0 0 0 0.672508793  0 0 0 1 0" type="matrix" in="shadowBlurOuter1"></feColorMatrix>
        </filter>
        <polygon id="path-23" points="25.4497475 46.3664141 32.4497475 46.3664141 32.4497475 47.5330808 25.4497475 47.5330808"></polygon>
        <filter x="-21.4%" y="-128.6%" width="171.4%" height="528.6%" filterUnits="objectBoundingBox" id="filter-24">
            <feMorphology radius="0.5" operator="dilate" in="SourceAlpha" result="shadowSpreadOuter1"></feMorphology>
            <feOffset dx="1" dy="1" in="shadowSpreadOuter1" result="shadowOffsetOuter1"></feOffset>
            <feGaussianBlur stdDeviation="0.5" in="shadowOffsetOuter1" result="shadowBlurOuter1"></feGaussianBlur>
            <feComposite in="shadowBlurOuter1" in2="SourceAlpha" operator="out" result="shadowBlurOuter1"></feComposite>
            <feColorMatrix values="0 0 0 0 0.176403911   0 0 0 0 0.290889653   0 0 0 0 0.672508793  0 0 0 1 0" type="matrix" in="shadowBlurOuter1"></feColorMatrix>
        </filter>
    </defs>
    <g id="组件总览" stroke="none" stroke-width="1" fill="none" fill-rule="evenodd">
        <g id="-TinyUI-Ng-组件总览-2" transform="translate(-697.000000, -1111.000000)">
            <g id="Tree-树------" transform="translate(697.000000, 1111.000000)">
                <g id="编组"></g>
                <g id="编组-3" transform="translate(25.000000, 38.000000)">
                    <rect id="矩形" stroke="url(#linearGradient-2)" fill="url(#linearGradient-1)" x="20" y="0" width="54" height="16" rx="2"></rect>
                    <g id="形状结合备份-2">
                        <use fill="black" fill-opacity="1" filter="url(#filter-4)" xlink:href="#path-3"></use>
                        <use fill="#5073E5" fill-rule="evenodd" xlink:href="#path-3"></use>
                    </g>
                    <g id="形状结合备份-3">
                        <use fill="black" fill-opacity="1" filter="url(#filter-6)" xlink:href="#path-5"></use>
                        <use fill="#5073E5" fill-rule="evenodd" xlink:href="#path-5"></use>
                    </g>
                    <g id="形状结合备份-4">
                        <use fill="black" fill-opacity="1" filter="url(#filter-8)" xlink:href="#path-7"></use>
                        <use fill="#5073E5" fill-rule="evenodd" xlink:href="#path-7"></use>
                    </g>
                    <g id="形状结合备份-5">
                        <use fill="black" fill-opacity="1" filter="url(#filter-10)" xlink:href="#path-9"></use>
                        <use fill="#5073E5" fill-rule="evenodd" xlink:href="#path-9"></use>
                    </g>
                    <g id="形状结合" fill-rule="nonzero" transform="translate(5.949747, 5.949747) rotate(-360.000000) translate(-5.949747, -5.949747) ">
                        <use fill="black" fill-opacity="1" filter="url(#filter-12)" xlink:href="#path-11"></use>
                        <use stroke="#FFFFFF" stroke-width="1" fill="#FFFFFF" xlink:href="#path-11"></use>
                    </g>
                    <path d="M43,23 L72,23 C73.1045695,23 74,23.8954305 74,25 L74,32 C74,33.1045695 73.1045695,34 72,34 L43,34 C41.8954305,34 41,33.1045695 41,32 L41,25 C41,23.8954305 41.8954305,23 43,23 Z" id="形状结合备份-6" fill="url(#linearGradient-13)" opacity="0.303770519"></path>
                    <path d="M43,42 L72,42 C73.1045695,42 74,42.8954305 74,44 L74,51 C74,52.1045695 73.1045695,53 72,53 L43,53 C41.8954305,53 41,52.1045695 41,51 L41,44 C41,42.8954305 41.8954305,42 43,42 Z" id="形状结合备份-7" fill="url(#linearGradient-13)" opacity="0.303770519"></path>
                    <g id="形状结合备份" transform="translate(5.500000, 29.500000) rotate(-270.000000) translate(-5.500000, -29.500000) ">
                        <use fill="black" fill-opacity="1" filter="url(#filter-15)" xlink:href="#path-14"></use>
                        <use fill="#5073E5" fill-rule="evenodd" xlink:href="#path-14"></use>
                    </g>
                    <g id="形状结合备份-46">
                        <use fill="black" fill-opacity="1" filter="url(#filter-18)" xlink:href="#path-17"></use>
                        <use fill="url(#linearGradient-16)" fill-rule="evenodd" xlink:href="#path-17"></use>
                    </g>
                    <g id="形状结合" fill-rule="nonzero" transform="translate(5.949747, 5.949747) rotate(-360.000000) translate(-5.949747, -5.949747) ">
                        <use fill="black" fill-opacity="1" filter="url(#filter-20)" xlink:href="#path-19"></use>
                        <use stroke="#FFFFFF" stroke-width="1" fill="#FFFFFF" xlink:href="#path-19"></use>
                    </g>
                    <g id="形状结合" fill-rule="nonzero" transform="translate(28.949747, 27.949747) rotate(-360.000000) translate(-28.949747, -27.949747) ">
                        <use fill="black" fill-opacity="1" filter="url(#filter-22)" xlink:href="#path-21"></use>
                        <use stroke="#FFFFFF" stroke-width="1" fill="#FFFFFF" xlink:href="#path-21"></use>
                    </g>
                    <g id="形状结合" fill-rule="nonzero" transform="translate(28.949747, 46.949747) rotate(-360.000000) translate(-28.949747, -46.949747) ">
                        <use fill="black" fill-opacity="1" filter="url(#filter-24)" xlink:href="#path-23"></use>
                        <use stroke="#FFFFFF" stroke-width="1" fill="#FFFFFF" xlink:href="#path-23"></use>
                    </g>
                </g>
            </g>
        </g>
    </g>
</svg>