<?xml version="1.0" encoding="UTF-8"?>
<svg width="125px" height="125px" viewBox="0 0 125 125" version="1.1" xmlns="http://www.w3.org/2000/svg" xmlns:xlink="http://www.w3.org/1999/xlink">
    <title>TreeMenu 树型菜单</title>
    <defs>
        <linearGradient x1="44.0988019%" y1="53.2341208%" x2="128.792906%" y2="41.7629883%" id="linearGradient-1">
            <stop stop-color="#5073E5" offset="0%"></stop>
            <stop stop-color="#5E7CE0" offset="100%"></stop>
        </linearGradient>
        <path d="M2.5,27 L12.5,27 C13.3284271,27 14,27.6715729 14,28.5 C14,29.3284271 13.3284271,30 12.5,30 L2.5,30 C1.67157288,30 1,29.3284271 1,28.5 C1,27.6715729 1.67157288,27 2.5,27 Z" id="path-2"></path>
        <filter x="-30.8%" y="-66.7%" width="161.5%" height="366.7%" filterUnits="objectBoundingBox" id="filter-3">
            <feOffset dx="0" dy="2" in="SourceAlpha" result="shadowOffsetOuter1"></feOffset>
            <feGaussianBlur stdDeviation="1" in="shadowOffsetOuter1" result="shadowBlurOuter1"></feGaussianBlur>
            <feColorMatrix values="0 0 0 0 0.368627451   0 0 0 0 0.48627451   0 0 0 0 0.878431373  0 0 0 0.349865467 0" type="matrix" in="shadowBlurOuter1"></feColorMatrix>
        </filter>
        <path d="M2.5,46 L12.5,46 C13.3284271,46 14,46.6715729 14,47.5 C14,48.3284271 13.3284271,49 12.5,49 L2.5,49 C1.67157288,49 1,48.3284271 1,47.5 C1,46.6715729 1.67157288,46 2.5,46 Z" id="path-4"></path>
        <filter x="-30.8%" y="-66.7%" width="161.5%" height="366.7%" filterUnits="objectBoundingBox" id="filter-5">
            <feOffset dx="0" dy="2" in="SourceAlpha" result="shadowOffsetOuter1"></feOffset>
            <feGaussianBlur stdDeviation="1" in="shadowOffsetOuter1" result="shadowBlurOuter1"></feGaussianBlur>
            <feColorMatrix values="0 0 0 0 0.368627451   0 0 0 0 0.48627451   0 0 0 0 0.878431373  0 0 0 0.349865467 0" type="matrix" in="shadowBlurOuter1"></feColorMatrix>
        </filter>
        <linearGradient x1="44.0988019%" y1="53.7688121%" x2="128.792906%" y2="40.4011781%" id="linearGradient-6">
            <stop stop-color="#5073E5" offset="0%"></stop>
            <stop stop-color="#5E7CE0" offset="100%"></stop>
        </linearGradient>
        <linearGradient x1="50%" y1="0%" x2="50%" y2="100%" id="linearGradient-7">
            <stop stop-color="#FFCC00" offset="0%"></stop>
            <stop stop-color="#FF9D00" offset="100%"></stop>
        </linearGradient>
        <polyline id="path-8" points="67 6 64 10 61 6"></polyline>
        <filter x="-40.0%" y="-60.0%" width="213.3%" height="260.0%" filterUnits="objectBoundingBox" id="filter-9">
            <feMorphology radius="1" operator="dilate" in="SourceAlpha" result="shadowSpreadOuter1"></feMorphology>
            <feOffset dx="1" dy="1" in="shadowSpreadOuter1" result="shadowOffsetOuter1"></feOffset>
            <feMorphology radius="1" operator="erode" in="SourceAlpha" result="shadowInner"></feMorphology>
            <feOffset dx="1" dy="1" in="shadowInner" result="shadowInner"></feOffset>
            <feComposite in="shadowOffsetOuter1" in2="shadowInner" operator="out" result="shadowOffsetOuter1"></feComposite>
            <feGaussianBlur stdDeviation="0.5" in="shadowOffsetOuter1" result="shadowBlurOuter1"></feGaussianBlur>
            <feColorMatrix values="0 0 0 0 0.864817744   0 0 0 0 0.482995   0 0 0 0 0.0248266384  0 0 0 1 0" type="matrix" in="shadowBlurOuter1"></feColorMatrix>
        </filter>
    </defs>
    <g id="Tiny-Vue" stroke="none" stroke-width="1" fill="none" fill-rule="evenodd">
        <g id="-TinyUI-Vue-组件总览1" transform="translate(-1869.000000, -935.000000)">
            <g id="组件" transform="translate(596.000000, 311.000000)">
                <g id="编组-25备份-12" transform="translate(1175.000000, 591.000000)">
                    <g id="TreeMenu-树型菜单" transform="translate(98.000000, 33.000000)">
                        <g id="编组"></g>
                        <g id="编组-3" transform="translate(28.000000, 38.000000)">
                            <rect id="矩形" fill="url(#linearGradient-1)" x="0" y="0" width="54" height="16" rx="2"></rect>
                            <g id="形状结合备份-2">
                                <use fill="black" fill-opacity="1" filter="url(#filter-3)" xlink:href="#path-2"></use>
                                <use fill="#5073E5" fill-rule="evenodd" xlink:href="#path-2"></use>
                            </g>
                            <g id="形状结合备份-3">
                                <use fill="black" fill-opacity="1" filter="url(#filter-5)" xlink:href="#path-4"></use>
                                <use fill="#5073E5" fill-rule="evenodd" xlink:href="#path-4"></use>
                            </g>
                            <path d="M22,23 L52,23 C53.1045695,23 54,23.8954305 54,25 L54,32 C54,33.1045695 53.1045695,34 52,34 L22,34 C20.8954305,34 20,33.1045695 20,32 L20,25 C20,23.8954305 20.8954305,23 22,23 Z" id="形状结合备份-6" fill="url(#linearGradient-6)" opacity="0.303770519"></path>
                            <path d="M22,42 L52,42 C53.1045695,42 54,42.8954305 54,44 L54,51 C54,52.1045695 53.1045695,53 52,53 L22,53 C20.8954305,53 20,52.1045695 20,51 L20,44 C20,42.8954305 20.8954305,42 22,42 Z" id="形状结合备份-7" fill="url(#linearGradient-6)" opacity="0.303770519"></path>
                            <path d="M-12.5,36 L15.5,36 C16.3284271,36 17,36.6715729 17,37.5 C17,38.3284271 16.3284271,39 15.5,39 L-12.5,39 C-13.3284271,39 -14,38.3284271 -14,37.5 C-14,36.6715729 -13.3284271,36 -12.5,36 Z" id="形状结合备份" fill="#5073E5" transform="translate(1.500000, 37.500000) rotate(-270.000000) translate(-1.500000, -37.500000) "></path>
                            <path d="M59.7142857,2 L68.2857143,2 C69.2324881,2 70,2.76751186 70,3.71428571 L70,12.2857143 C70,13.2324881 69.2324881,14 68.2857143,14 L59.7142857,14 C58.7675119,14 58,13.2324881 58,12.2857143 L58,3.71428571 C58,2.76751186 58.7675119,2 59.7142857,2 Z" id="形状结合备份-47" fill="url(#linearGradient-7)"></path>
                            <g id="路径" stroke-linecap="round" stroke-linejoin="round" fill-rule="nonzero">
                                <use fill="black" fill-opacity="1" filter="url(#filter-9)" xlink:href="#path-8"></use>
                                <use stroke="#FFFFFF" stroke-width="2" xlink:href="#path-8"></use>
                            </g>
                        </g>
                    </g>
                </g>
            </g>
        </g>
    </g>
</svg>