<?xml version="1.0" encoding="UTF-8"?>
<svg width="125px" height="125px" viewBox="0 0 125 125" version="1.1" xmlns="http://www.w3.org/2000/svg" xmlns:xlink="http://www.w3.org/1999/xlink">
    <title>Avatar 头像</title>
    <defs>
        <linearGradient x1="44.0988019%" y1="86.8386573%" x2="128.792906%" y2="-43.8247114%" id="linearGradient-1">
            <stop stop-color="#5073E5" offset="0%"></stop>
            <stop stop-color="#5E7CE0" offset="100%"></stop>
        </linearGradient>
        <linearGradient x1="45.9796323%" y1="86.8386573%" x2="103.680025%" y2="-43.8247114%" id="linearGradient-2">
            <stop stop-color="#5073E5" offset="0%"></stop>
            <stop stop-color="#5E7CE0" offset="100%"></stop>
        </linearGradient>
        <linearGradient x1="44.0988019%" y1="59.258895%" x2="128.792906%" y2="26.418436%" id="linearGradient-3">
            <stop stop-color="#5073E5" offset="0%"></stop>
            <stop stop-color="#5E7CE0" offset="100%"></stop>
        </linearGradient>
        <polygon id="path-4" points="22.7407655 41.2755004 29.2592345 41.2755004 29.2592345 47.7928503 22.7407655 47.7928503"></polygon>
        <filter x="-61.4%" y="-30.7%" width="222.7%" height="222.7%" filterUnits="objectBoundingBox" id="filter-5">
            <feOffset dx="0" dy="2" in="SourceAlpha" result="shadowOffsetOuter1"></feOffset>
            <feGaussianBlur stdDeviation="1" in="shadowOffsetOuter1" result="shadowBlurOuter1"></feGaussianBlur>
            <feColorMatrix values="0 0 0 0 0.368627451   0 0 0 0 0.48627451   0 0 0 0 0.878431373  0 0 0 0.349865467 0" type="matrix" in="shadowBlurOuter1"></feColorMatrix>
        </filter>
        <path d="M22.7407655,42.1444804 L18.3951195,36.9306005 L13.1195053,36.9306005 C13.084287,36.9306005 13.0513739,36.9481164 13.0315881,36.9772464 C13.0118024,37.0063765 13.0077044,37.0434043 13.0206418,37.0761546 L17.308708,47.7928503 L22.7407655,44.1724625 L22.7407655,42.1444804 Z M38.8804947,36.9305999 L33.6048805,36.9305999 L29.2592345,42.1444804 L29.2592345,44.1724625 L34.691292,47.7928503 L38.9782718,37.0761546 C38.9917122,37.0435893 38.987985,37.0064625 38.9683395,36.9772174 C38.9486939,36.9479724 38.9157296,36.9304791 38.8804947,36.9305999 L38.8804947,36.9305999 Z" id="path-6"></path>
        <filter x="-15.4%" y="-18.4%" width="130.8%" height="173.6%" filterUnits="objectBoundingBox" id="filter-7">
            <feOffset dx="0" dy="2" in="SourceAlpha" result="shadowOffsetOuter1"></feOffset>
            <feGaussianBlur stdDeviation="1" in="shadowOffsetOuter1" result="shadowBlurOuter1"></feGaussianBlur>
            <feColorMatrix values="0 0 0 0 0.368627451   0 0 0 0 0.48627451   0 0 0 0 0.878431373  0 0 0 0.349865467 0" type="matrix" in="shadowBlurOuter1"></feColorMatrix>
        </filter>
        <linearGradient x1="44.0988019%" y1="57.9337126%" x2="128.792906%" y2="29.7935553%" id="linearGradient-8">
            <stop stop-color="#5073E5" offset="0%"></stop>
            <stop stop-color="#5E7CE0" offset="100%"></stop>
        </linearGradient>
    </defs>
    <g id="组件总览" stroke="none" stroke-width="1" fill="none" fill-rule="evenodd">
        <g id="-TinyUI-Ng-组件总览-2" transform="translate(-1481.000000, -1597.000000)">
            <g id="Avatar-头像" transform="translate(1481.000000, 1597.000000)">
                <g id="编组"></g>
                <g id="男头像" transform="translate(28.000000, 28.000000)">
                    <path d="M0,34 C0,52.7776815 15.2223185,68 34,68 C52.7776815,68 68,52.7776815 68,34 C68,15.2223185 52.7776815,0 34,0 C15.2223185,0 0,15.2223185 0,34 Z" id="路径" fill="url(#linearGradient-1)" opacity="0.204287574"></path>
                    <g id="编组" transform="translate(8.000000, 5.000000)">
                        <path d="M52,49.2874958 C51.2862277,42.3454321 45.420692,36.9306005 38.2884005,36.9306005 L31.8285977,36.9306005 C31.4352945,36.9306005 31.0580999,36.7743882 30.7799925,36.4963286 C30.5018851,36.2182689 30.345646,35.8411391 30.345646,35.4479034 L30.345646,34.7472883 C30.345646,34.1140191 30.757396,33.5719929 31.3505766,33.3493168 C37.656109,30.9791739 41.9735083,20.6361396 41.0967742,13.3269317 C40.2689286,6.4283169 34.6586996,0.869017425 27.7534681,0.0967115012 C27.1997105,0.0348982616 26.6430215,0.00298930894 26.0858265,0.0011236521 L26.0336787,0 C17.6183353,-0.0184283912 10.790239,6.79654714 10.790239,15.2061009 C10.790239,21.7495202 14.9262075,31.2333505 20.7254722,33.3775586 C21.2936654,33.5872 21.654354,34.152037 21.654354,34.7581505 L21.654354,35.4479034 C21.654354,36.2669171 20.9905566,36.9306005 20.1714023,36.9306005 L13.7115995,36.9306005 C6.57930803,36.9306005 0.713772338,42.345432 0,49.2874958 C5.67650009,57.5667027 15.2021561,63 26,63 C36.7978439,63 46.3234999,57.5667027 52,49.2874958 Z" id="路径" fill="url(#linearGradient-2)" opacity="0.303770519"></path>
                        <path d="M52,49.2874958 C51.2862277,42.3454321 45.4196056,36.9306005 38.2884005,36.9306005 L36.864115,36.9306005 L30.345646,43.4479504 L21.654354,43.4479504 L18.3951195,41.2755004 L14.6698145,36.9306005 L13.7115995,36.9306005 C6.58039444,36.9306005 0.713772338,42.345432 0,49.2874958 C5.67650009,57.5667027 15.2021561,63 26,63 C36.7978439,63 46.3234999,57.5667027 52,49.2874958 Z" id="路径" fill="url(#linearGradient-3)" opacity="0.303770519"></path>
                        <g id="路径">
                            <use fill="black" fill-opacity="1" filter="url(#filter-5)" xlink:href="#path-4"></use>
                            <use fill="#5073E5" fill-rule="evenodd" xlink:href="#path-4"></use>
                        </g>
                        <path d="M21.611984,62.6893397 C23.0460472,62.8892051 24.5105299,63 26,63 C27.5014207,63 28.9756811,62.8881188 30.4206084,62.6849948 L28.172823,47.7928503 L23.827177,47.7928503 L21.611984,62.6893397 Z" id="路径" fill="#5073E5"></path>
                        <g id="形状">
                            <use fill="black" fill-opacity="1" filter="url(#filter-7)" xlink:href="#path-6"></use>
                            <use fill="#5073E5" fill-rule="evenodd" xlink:href="#path-6"></use>
                        </g>
                        <path d="M41.1500083,14.0460127 C41.1326257,13.805957 41.1250209,13.5604701 41.0967742,13.3258455 C40.2689286,6.4283169 34.6586996,0.869017425 27.7534681,0.0967115012 C27.1997105,0.0348982616 26.6430215,0.00298930894 26.0858265,0.0011236521 L26.0336787,9.47448143e-07 C18.5157112,-0.0162559624 12.2797091,5.42573119 11.0325088,12.5817814 L10.8831955,13.7122682 C11.0907,13.9762209 11.7832191,13.2085332 11.8614407,13.1162041 C14.0342637,10.5309886 17.6639646,9.93247867 20.751546,11.3011221 C22.637539,12.1336524 24.7807819,12.1649302 26.6902739,11.38779 C28.5997659,10.6106498 30.1118649,9.09169197 30.8801604,7.17889836 C34.9161792,8.28793406 38.7164466,10.7699581 41.1500083,14.0460127 Z" id="路径" fill="url(#linearGradient-8)"></path>
                    </g>
                </g>
            </g>
        </g>
    </g>
</svg>