<?xml version="1.0" encoding="UTF-8"?>
<svg width="125px" height="125px" viewBox="0 0 125 125" version="1.1" xmlns="http://www.w3.org/2000/svg" xmlns:xlink="http://www.w3.org/1999/xlink">
    <title>Watermark 水印</title>
    <defs>
        <linearGradient x1="44.0988019%" y1="82.0905637%" x2="128.792906%" y2="-31.7317486%" id="linearGradient-1">
            <stop stop-color="#5073E5" offset="0%"></stop>
            <stop stop-color="#5E7CE0" offset="100%"></stop>
        </linearGradient>
        <linearGradient x1="44.0988019%" y1="50.6549095%" x2="128.792906%" y2="48.3320051%" id="linearGradient-2">
            <stop stop-color="#5073E5" offset="0%"></stop>
            <stop stop-color="#5E7CE0" offset="100%"></stop>
        </linearGradient>
    </defs>
    <g id="组件总览" stroke="none" stroke-width="1" fill="none" fill-rule="evenodd">
        <g id="-TinyUI-Vue-组件总览3" transform="translate(-1479.000000, -2534.000000)">
            <g id="编组-17备份-17" transform="translate(1380.000000, 2501.000000)">
                <g id="Watermark-水印" transform="translate(99.000000, 33.000000)">
                    <g id="编组"></g>
                    <g id="印章" transform="translate(38.363636, 33.000000)">
                        <path d="M24.6363636,0 C32.859696,0 37.9728315,5.47683275 37.9728315,12.2746747 C37.9728315,20.2792764 31.0260198,23.3997144 31.5267545,29.9262139 C31.7171747,32.3397334 33.7130607,34.1962869 36.1038923,34.1962869 L36.1038923,34.1962869 L45.0889055,34.1962869 C47.0495285,34.1962869 48.6363636,35.8100603 48.6363636,37.7880038 L48.6363636,37.7880038 L48.6363636,43.850365 C48.6363636,44.2842245 48.3996999,44.6615079 48.0497927,44.857255 C47.2273896,43.6671908 45.7030313,43.1996693 44.3719766,43.8109949 L44.3719766,43.8109949 L44.0777178,43.9530861 C42.1209133,44.8942097 39.8345978,44.6666823 38.0809243,43.3563029 C34.4767734,40.6622135 29.760588,40.2468346 25.7795494,42.2728571 L25.7795494,42.2728571 L23.87194,43.2461822 C22.1435917,44.127148 20.1074555,44.0454455 18.4467529,43.0223885 C14.5347102,40.6212693 9.66150592,40.7729381 5.89170655,43.4131394 L5.89170655,43.4131394 L3.622,45 L1.77183234,45 C1.18599631,45 0.704601466,44.5521422 0.643019202,43.9757326 L0.636363636,43.850365 L0.636363636,37.7880038 C0.636363636,35.8029197 2.22319878,34.1962869 4.18382176,34.1962869 L4.18382176,34.1962869 L13.1758876,34.1962869 C15.5667192,34.1962869 17.5555526,32.3397334 17.7530254,29.9262139 C18.2537601,23.3997144 11.3069484,20.2792764 11.3069484,12.2746747 C11.3069484,5.48397334 16.4130313,0 24.6363636,0 Z" id="形状结合" fill="url(#linearGradient-1)" opacity="0.604724702"></path>
                        <path d="M34.5531998,50.0712439 C32.7604072,49.341893 30.416117,49.2304739 28.4380264,49.7806028 L26.5270347,50.3095697 C22.9697248,51.2967816 18.7874267,51.2030381 15.3756371,50.0596183 C13.4728092,49.4217342 11.1014833,49.4616004 9.26722822,50.1623115 L5.37083456,51.652332 C4.46576207,51.9981062 3.30743287,52.0410046 2.33217837,51.7648677 C1.35692387,51.4887308 0.712908422,50.9355104 0.642726409,50.3135993 C0.572544396,49.6916882 1.08685814,49.0955695 1.99193063,48.7497953 L5.89170655,47.2617124 C9.66150592,45.8216026 14.5347102,45.7388741 18.4467529,47.0485756 C20.1074555,47.6066066 22.1435917,47.6511716 23.87194,47.1706448 L25.7795494,46.6397403 C29.760588,45.534637 34.4767734,45.7612073 38.0809243,47.2307107 C39.8345978,47.9454545 42.1209133,48.0695689 44.0777178,47.5562288 L44.3719766,47.4787245 C45.893182,47.0976384 47.6668655,47.4851558 48.3587634,48.3497644 C49.0506613,49.2143731 48.405538,50.2371259 46.9086913,50.6486511 L46.6144323,50.7261554 C42.6786974,51.7585997 38.0802429,51.5089087 34.5531998,50.0712439 L34.5531998,50.0712439 Z" id="形状备份-2" fill="url(#linearGradient-2)"></path>
                        <path d="M34.5531998,57.562153 C32.7604072,56.8328021 30.416117,56.721383 28.4380264,57.2715119 L26.5270347,57.8004788 C22.9697248,58.7876907 18.7874267,58.6939472 15.3756371,57.5505274 C13.4728092,56.9126433 11.1014833,56.9525095 9.26722822,57.6532206 L5.37083456,59.1432411 C4.46576207,59.4890153 3.30743287,59.5319137 2.33217837,59.2557768 C1.35692387,58.9796399 0.712908422,58.4264195 0.642726409,57.8045084 C0.572544396,57.1825973 1.08685814,56.5864786 1.99193063,56.2407044 L5.89170655,54.7526215 C9.66150592,53.3125117 14.5347102,53.2297832 18.4467529,54.5394847 C20.1074555,55.0975157 22.1435917,55.1420807 23.87194,54.6615539 L25.7795494,54.1306493 C29.760588,53.0255461 34.4767734,53.2521164 38.0809243,54.7216198 C39.8345978,55.4363636 42.1209133,55.560478 44.0777178,55.0471379 L44.3719766,54.9696336 C45.893182,54.5885475 47.6668655,54.9760649 48.3587634,55.8406735 C49.0506613,56.7052822 48.405538,57.728035 46.9086913,58.1395602 L46.6144323,58.2170645 C42.6786974,59.2495087 38.0802429,58.9998178 34.5531998,57.562153 L34.5531998,57.562153 Z" id="形状备份-3" fill="url(#linearGradient-2)"></path>
                    </g>
                </g>
            </g>
        </g>
    </g>
</svg>