<?xml version="1.0" standalone="no"?>
<!DOCTYPE svg PUBLIC "-//W3C//DTD SVG 1.1//EN" "http://www.w3.org/Graphics/SVG/1.1/DTD/svg11.dtd" >
<svg xmlns="http://www.w3.org/2000/svg">
<metadata>
<json>
<![CDATA[
{
	"fontFamily": "ti3Font",
	"description": "Font generated by IcoMoon.",
	"majorVersion": 0,
	"version": "Version 1.0",
	"fontId": "ti3Font",
	"psName": "ti3Font",
	"subFamily": "Regular",
	"fullName": "ti3Font"
}
]]>
</json>
</metadata>
<defs>
<font id="ti3Font" horiz-adv-x="1024">
<font-face units-per-em="1024" ascent="960" descent="-64" />
<missing-glyph horiz-adv-x="1024" />
<glyph unicode="&#x20;" horiz-adv-x="512" d="" />
<glyph unicode="&#xe900;" glyph-name="refresh" data-tags="refresh" d="M773.91 710.18l-41.647-0.809c-28.272-0.549-50.745-23.913-50.196-52.184s23.913-50.745 52.184-50.196l148.933 2.892c26.089 0.507 47.624 20.553 49.994 46.539l14.572 159.735c2.569 28.16-18.177 53.071-46.337 55.64s-53.071-18.177-55.64-46.337l-3.553-38.95c-64.486 60.354-145.783 101.79-235.872 117.675-251.953 44.426-492.215-123.807-536.641-375.76s123.807-492.215 375.76-536.641c219.002-38.616 433.318 83.859 512.49 288.883 10.186 26.379-2.94 56.020-29.319 66.206s-56.020-2.94-66.206-29.319c-61.622-159.577-228.607-255.003-399.183-224.926-196.258 34.606-327.303 221.757-292.697 418.015s221.757 327.303 418.015 292.697c70.981-12.516 134.869-45.317 185.343-93.159z" />
<glyph unicode="&#xe901;" glyph-name="checkmark" data-tags="checkmark" d="M1025.917 670.246l-123.534 121.555-452.261-444.824-328.738 323.163-123.308-121.101 452.277-444.839 123.188 121.101z" />
<glyph unicode="&#xe902;" glyph-name="alert-warn-bg" data-tags="alert-warn-bg" d="M573.596 920.914l442.176-876.384c18.145-35.964 5.274-80.667-28.748-99.848-10.112-5.701-21.395-8.682-32.855-8.682h-884.352c-38.559 0-69.817 33.042-69.817 73.801 0 12.114 2.821 24.041 8.214 34.73l442.176 876.384c18.145 35.964 60.436 49.569 94.459 30.389 12.222-6.891 22.23-17.469 28.748-30.389z" />
<glyph unicode="&#xe903;" glyph-name="add1" data-tags="add1" d="M89.6 448c0-232.924 189.329-422.4 422.4-422.4 232.924 0 422.4 189.329 422.4 422.4 0 232.924-189.329 422.4-422.4 422.4-232.924 0-422.4-189.329-422.4-422.4zM0 448c0 282.77 229.806 512 512 512 282.77 0 512-229.806 512-512 0-282.77-229.806-512-512-512-282.77 0-512 229.806-512 512zM556.8 492.8h147.2c59.733 0 59.733-89.6 0-89.6h-147.2v-147.2c0-59.733-89.6-59.733-89.6 0v147.2h-147.2c-59.733 0-59.733 89.6 0 89.6h147.2v147.2c0 59.733 89.6 59.733 89.6 0v-147.2z" />
<glyph unicode="&#xe904;" glyph-name="alert-prompt" data-tags="alert-prompt" d="M600.675 704h-170.667v170.667h170.667v-170.667zM583.099 21.333h-139.759l-36.236 512h209.792l-33.797-512z" />
<glyph unicode="&#xe905;" glyph-name="close" data-tags="close" d="M599.543 448l320.992-320.992c24.174-24.174 24.174-63.369 0-87.543s-63.369-24.174-87.543 0l-320.992 320.992-320.992-320.992c-24.174-24.174-63.369-24.174-87.543 0s-24.174 63.369 0 87.543l320.992 320.992-320.992 320.992c-24.174 24.174-24.174 63.369 0 87.543s63.369 24.174 87.543 0l320.992-320.992 320.992 320.992c24.174 24.174 63.369 24.174 87.543 0s24.174-63.369 0-87.543l-320.992-320.992z" />
<glyph unicode="&#xe906;" glyph-name="info-circle" data-tags="info-circle" d="M512 960c-282.752 0-512-229.197-512-512 0-282.752 229.248-512 512-512 282.829 0 512 229.248 512 512 0 282.778-229.222 512-512 512zM465.485 703.258h92.16v-92.16h-92.16zM550.861 170.24h-76.8l-7.706 380.006h92.16z" />
<glyph unicode="&#xe907;" glyph-name="warn" data-tags="warn" d="M1016.32 115.2c-20.48 33.28-419.84 716.8-455.68 773.12-23.040 38.4-76.8 38.4-99.84 0-25.6-40.96-427.52-727.040-455.68-775.68-20.48-35.84 2.56-84.48 48.64-84.48h908.8c46.080 2.56 76.8 43.52 53.76 87.040zM550.4 148.48h-76.8v76.8h76.8v-76.8zM550.4 286.72h-76.8l-10.24 358.4h97.28z" />
<glyph unicode="&#xe908;" glyph-name="exclamation-circle" data-tags="exclamation-circle" d="M512 960c-281.6 0-512-230.4-512-512s230.4-512 512-512c281.6 0 512 230.4 512 512s-230.4 512-512 512zM545.28 199.68h-76.8v76.8h76.8v-76.8zM545.28 335.36h-76.8l-10.24 358.4h97.28z" />
<glyph unicode="&#xe909;" glyph-name="check-circle" data-tags="check-circle" d="M512 960c-281.6 0-512-230.4-512-512s230.4-512 512-512c281.6 0 512 230.4 512 512s-230.4 512-512 512zM454.4 204.8l-249.6 249.6 70.4 70.4 179.2-179.2 294.4 294.4 70.4-70.4z" />
<glyph unicode="&#xe90a;" glyph-name="calendar" data-tags="calendar" horiz-adv-x="1027" d="M769.5 828.8h160c38.4 0 64-25.6 64-64v-736c0-38.4-25.6-64-64-64h-832c-38.4 0-64 25.6-64 64v736c0 38.4 25.6 64 64 64h160v51.2c0 25.6 19.2 51.2 51.2 51.2s51.2-19.2 51.2-51.2v-51.2h320v51.2c0 25.6 19.2 51.2 51.2 51.2s38.4-25.6 38.4-51.2v-51.2zM769.5 732.8v-12.8c0-25.6-19.2-51.2-51.2-51.2s-51.2 19.2-51.2 51.2v12.8h-320v-12.8c0-25.6-19.2-51.2-51.2-51.2s-38.4 19.2-38.4 44.8v19.2h-128v-672h768v672h-128zM257.5 572.8h128v-128h-128v128zM449.5 572.8h128v-128h-128v128zM641.5 572.8h128v-128h-128v128zM257.5 316.8h128v-128h-128v128zM449.5 316.8h128v-128h-128v128zM641.5 316.8h128v-128h-128v128z" />
<glyph unicode="&#xe90b;" glyph-name="angle-left" data-tags="angle-left" d="M308.36 486.914l329.783 329.783c21.326 21.436 56.394 21.436 77.719 0s21.326-56.282 0-77.719l-290.868-290.98 290.868-290.868c21.326-21.106 21.326-56.503 0-77.719-10.773-10.773-24.733-16.16-38.914-16.16-13.961 0-27.92 5.387-38.805 16.050l-329.783 329.783c-21.217 21.326-21.217 56.613 0 77.83z" />
<glyph unicode="&#xe90c;" glyph-name="angle-right" data-tags="angle-right" d="M715.64 486.914l-329.783 329.783c-21.326 21.436-56.394 21.436-77.719 0s-21.326-56.282 0-77.719l290.868-290.98-290.868-290.868c-21.326-21.106-21.326-56.503 0-77.719 10.773-10.773 24.733-16.16 38.914-16.16 13.961 0 27.92 5.387 38.805 16.050l329.783 329.783c21.217 21.326 21.217 56.613 0 77.83z" />
<glyph unicode="&#xe90d;" glyph-name="config" data-tags="config" d="M927.041 388.442v119.117c-56.99 12.394-107.404 48.094-137.698 100.566s-36.004 113.981-18.243 169.533l-103.158 59.558c-39.229-43.158-95.352-68.967-155.942-68.967s-116.713 25.81-155.942 68.967l-103.158-59.558c17.761-55.552 12.051-117.061-18.243-169.533s-80.708-88.171-137.698-100.566v-119.117c56.99-12.394 107.404-48.094 137.698-100.566s36.004-113.981 18.243-169.533l103.158-59.558c39.229 43.158 95.352 68.967 155.942 68.967s116.713-25.81 155.942-68.967l103.158 59.558c-17.761 55.552-12.051 117.061 18.243 169.533s80.708 88.171 137.698 100.566zM927.041 388.442c14.565 3.168 29.56 4.813 44.758 4.827 24.742 0.023 44.819-20.016 44.842-44.758 0-0.012 0-0.024 0-0.037 0-12.37-5.009-23.564-13.108-31.67-8.096-8.105-19.286-13.124-31.65-13.135-43.002-0.040-83.062-22.691-104.944-60.593s-21.469-83.92-0.003-121.181c12.343-21.425 4.994-48.799-16.419-61.162l-172.393-99.531c-21.413-12.363-48.794-5.040-61.177 16.362-21.536 37.221-61.182 60.588-104.947 60.588s-83.412-23.367-104.947-60.588c-12.383-21.402-39.764-28.725-61.177-16.362l-172.393 99.531c-21.413 12.363-28.762 39.737-16.419 61.162 21.466 37.261 21.88 83.279-0.003 121.181s-61.943 60.553-104.944 60.593c-24.726 0.023-44.758 20.074-44.758 44.8v199.062c0 24.726 20.032 44.777 44.758 44.8 43.002 0.040 83.062 22.691 104.944 60.593s21.469 83.92 0.003 121.181c-12.343 21.425-4.994 48.799 16.419 61.162l172.393 99.531c21.413 12.363 48.794 5.040 61.177-16.362 21.536-37.221 61.182-60.588 104.947-60.588s83.412 23.367 104.947 60.588c12.383 21.402 39.764 28.725 61.177 16.362l172.393-99.531c21.413-12.363 28.762-39.737 16.419-61.162-21.466-37.261-21.88-83.279 0.003-121.181s61.943-60.553 104.944-60.593c24.726-0.023 44.758-20.074 44.758-44.8v-199.057c0.002-12.364-5.006-23.56-13.106-31.668-8.11-8.117-19.316-13.138-31.694-13.138-24.742 0-44.8 20.058-44.8 44.8v39.973zM512.958 243.2c-113.108 0-204.8 91.692-204.8 204.8s91.692 204.8 204.8 204.8c113.108 0 204.8-91.692 204.8-204.8s-91.692-204.8-204.8-204.8zM512.958 332.8c63.623 0 115.2 51.577 115.2 115.2s-51.577 115.2-115.2 115.2c-63.623 0-115.2-51.577-115.2-115.2s51.577-115.2 115.2-115.2z" />
<glyph unicode="&#xe90e;" glyph-name="minus-square" data-tags="minus-square" d="M1024 96v704c0 89.6-70.4 160-160 160h-704c-89.6 0-160-70.4-160-160v-704c0-89.6 70.4-160 160-160h704c89.6 0 160 70.4 160 160zM864 870.4c38.4 0 70.4-32 70.4-70.4v-704c0-38.4-32-70.4-70.4-70.4h-704c-38.4 0-70.4 32-70.4 70.4v704c0 38.4 32 70.4 70.4 70.4h704zM256 396.8v102.4h512v-96h-512z" />
<glyph unicode="&#xe90f;" glyph-name="arrow-down" data-tags="arrow-down" horiz-adv-x="1025" d="M1024.71 448.433l-8.028 89.878-504.327-491.026-510.701 491.026-1.653-89.878 512.354-512.433zM473.16 960h78.703v-641.112h-78.703z" />
<glyph unicode="&#xe910;" glyph-name="arrow-right" data-tags="arrow-right" horiz-adv-x="1023" d="M511.135 960l-89.96-8.178 490.69-503.822-490.69-510.113 89.96-1.887 511.921 512zM0 487.475h640.649v-78.636h-640.649v78.636z" />
<glyph unicode="&#xe911;" glyph-name="accordion-fold" data-tags="accordion-fold" d="M920.296 207.906c23.727-21.199 62.19-21.199 85.902 0s23.727 55.595 0 76.792l-451.244 403.396c-23.727 21.199-62.19 21.199-85.902 0l-451.244-403.396c-23.727-21.199-23.727-55.595 0-76.792s62.19-21.199 85.902 0l408.292 364.999 408.292-364.999z" />
<glyph unicode="&#xe912;" glyph-name="accordion-unfold" data-tags="accordion-unfold" d="M920.292 688.094c23.728 21.2 62.191 21.2 85.901 0s23.728-55.595 0-76.792l-451.244-403.396c-23.728-21.2-62.191-21.2-85.901 0l-451.244 403.396c-23.728 21.2-23.728 55.595 0 76.792s62.191 21.2 85.901 0l408.292-364.998 408.292 364.998z" />
<glyph unicode="&#xe913;" glyph-name="search" data-tags="search" d="M830.93 222.286l173.765-173.765c25.741-25.741 25.741-67.475 0-93.216s-67.475-25.741-93.216 0l-173.765 173.765c-77.025-57.688-172.682-91.858-276.32-91.858-254.821 0-461.394 206.573-461.394 461.394s206.573 461.394 461.394 461.394c254.821 0 461.394-206.573 461.394-461.394 0-103.638-34.17-199.295-91.858-276.32zM461.394 142.674c196.576 0 355.932 159.356 355.932 355.932s-159.356 355.932-355.932 355.932c-196.576 0-355.932-159.356-355.932-355.932s159.356-355.932 355.932-355.932z" />
<glyph unicode="&#xe914;" glyph-name="alert-success" data-tags="alert-success" d="M411.4 102.581l-349.843 391.859 99.042 96.295 250.801-228.354 467.238 431.039 83.805-76.339z" />
<glyph unicode="&#xe915;" glyph-name="alert-warn" data-tags="alert-warn" d="M601.825 21.333h-179.649v179.649h179.649v-179.649zM571.216 335.719h-123.51l-34.513 538.947h197.614l-39.591-538.947z" />
<glyph unicode="&#xe916;" glyph-name="location" data-tags="location" d="M512 874.667c-187.733 0-341.333-153.6-341.333-341.333s341.333-512 341.333-512c0 0 341.333 324.267 341.333 512s-153.6 341.333-341.333 341.333zM512 388.267c-76.8 0-145.067 68.267-145.067 145.067s68.267 145.067 145.067 145.067c76.8 0 145.067-68.267 145.067-145.067s-68.267-145.067-145.067-145.067z" />
<glyph unicode="&#xe917;" glyph-name="sort" data-tags="sort" d="M478.060 652.133c-25.6 0-44.8 25.6-44.8 51.2s19.2 51.2 51.2 51.2h448c25.6 0 51.2-19.2 51.2-51.2s-19.2-51.2-51.2-51.2h-454.4zM478.060 396.133c-25.6 0-44.8 25.6-44.8 51.2s19.2 51.2 51.2 51.2h448c25.6 0 51.2-19.2 51.2-51.2 0-25.6-19.2-51.2-51.2-51.2h-454.4zM478.060 140.133c-25.6 0-51.2 19.2-51.2 51.2s19.2 51.2 51.2 51.2h448c25.6 0 51.2-19.2 51.2-51.2s-19.2-51.2-51.2-51.2h-448zM241.26 236.133v531.2c0 25.6 19.2 51.2 51.2 51.2s38.4-25.6 38.4-51.2v-640c0-44.8-51.2-64-83.2-38.4l-192 172.8c-19.2 19.2-19.2 51.2-6.4 70.4 25.6 19.2 57.6 25.6 76.8 6.4l115.2-102.4z" />
<glyph unicode="&#xe918;" glyph-name="go-to-old-edition" data-tags="go-to-old-edition" d="M794.4 864h-192c-70.4 0-128-51.2-128-121.6v-121.6h96v121.6c0 12.8 12.8 25.6 32 25.6h192c19.2 0 32-12.8 32-25.6v-595.2c0-12.8-12.8-25.6-32-25.6h-192c-19.2 0-32 12.8-32 25.6v121.6h-96v-115.2c0-64 57.6-121.6 128-121.6h192c70.4 0 128 51.2 128 121.6v588.8c0 70.4-57.6 121.6-128 121.6zM263.2 396.8h467.2v102.4h-454.4l44.8 44.8c19.2 19.2 19.2 51.2 0 70.4s-51.2 19.2-70.4 0l-134.4-140.8c-19.2-19.2-19.2-51.2 0-70.4l134.4-134.4c12.8-6.4 25.6-12.8 38.4-12.8s25.6 6.4 32 12.8c19.2 19.2 19.2 51.2 0 70.4l-57.6 57.6z" />
<glyph unicode="&#xe919;" glyph-name="left-1" data-tags="left-1" d="M256 448l512 358.4v-716.8z" />
<glyph unicode="&#xe91a;" glyph-name="clear" data-tags="clear" d="M511.959 960c-282.72 0-511.959-229.239-511.959-511.959s229.239-511.959 511.959-511.959c282.802 0 511.959 229.321 511.959 511.959 0.082 282.72-229.157 511.959-511.959 511.959zM749.224 253.364c11.957-11.712 11.957-30.876 0-42.588-11.794-11.876-30.876-11.876-42.67 0l-194.595 194.595-194.595-194.677c-11.876-11.876-30.958-11.876-42.67 0-11.876 11.876-11.876 30.876 0 42.67l194.595 194.595-194.513 194.677c-11.876 11.794-11.876 30.795 0 42.67 11.712 11.794 30.795 11.794 42.67 0l194.595-194.595 194.513 194.677c11.876 11.794 31.040 11.794 42.67 0 11.957-11.876 11.957-30.876 0-42.67l-194.595-194.595z" />
<glyph unicode="&#xe91b;" glyph-name="x-thin" data-tags="x-thin" horiz-adv-x="736" d="M82.573 99.945l285.427 285.539 285.427-285.539c17.285-17.284 45.343-17.284 62.63 0s17.285 45.343 0 62.631l-285.427 285.427 285.427 285.65c17.285 17.174 17.285 45.12 0 62.516-17.174 17.285-45.233 17.285-62.63 0l-285.427-285.427-285.427 285.314c-17.285 17.285-45.343 17.285-62.742 0s-17.285-45.233 0-62.742l285.763-285.314-285.427-285.427c-17.51-17.398-17.51-45.233 0-62.63 17.062-17.398 45.121-17.398 62.406 0z" />
<glyph unicode="&#xe91c;" glyph-name="document" data-tags="document" d="M685.184 960h-525.248c-52.928 0-96-43.072-96-96v-832c0-52.928 43.072-96 96-96h704c52.928 0 96 43.072 96 96v653.312zM703.936 850.816l146.752-146.816h-146.752v146.816zM863.936 0h-704c-17.6 0-32 14.336-32 32v832c0 17.664 14.4 32 32 32h480v-256h256v-608c0-17.6-14.4-32-32-32zM255.936 320h512v-64h-512zM255.936 512h512v-64h-512zM256 704h256v-64h-256v64z" />
<glyph unicode="&#xe91d;" glyph-name="file" data-tags="file" d="M899.2 758.4h-419.2l-86.4 121.6h-268.8c-51.2 0-92.8-41.6-92.8-92.8v-678.4c0-51.2 41.6-92.8 92.8-92.8h777.6c51.2 0 92.8 41.6 92.8 92.8v556.8c-3.2 51.2-44.8 92.8-96 92.8zM928 108.8c0-16-12.8-28.8-28.8-28.8h-774.4c-16 0-28.8 12.8-28.8 28.8v403.2h832v-403.2zM928 576h-832v211.2c0 16 12.8 28.8 28.8 28.8h240l83.2-121.6h451.2c16 0 28.8-12.8 28.8-28.8v-89.6z" />
<glyph unicode="&#xe91e;" glyph-name="plus-square" data-tags="plus-square" d="M1024 96v704c0 89.6-70.4 160-160 160h-704c-89.6 0-160-70.4-160-160v-704c0-89.6 70.4-160 160-160h704c89.6 0 160 70.4 160 160zM864 870.4c38.4 0 70.4-32 70.4-70.4v-704c0-38.4-32-70.4-70.4-70.4h-704c-38.4 0-70.4 32-70.4 70.4v704c0 38.4 32 70.4 70.4 70.4h704zM563.2 192h-102.4v512h96v-512zM256 396.8v102.4h512v-96h-512z" />
<glyph unicode="&#xe91f;" glyph-name="add" data-tags="add" d="M452.267 507.733v366.933c0 32.99 26.744 59.733 59.733 59.733s59.733-26.744 59.733-59.733v-366.933h366.933c32.99 0 59.733-26.744 59.733-59.733s-26.744-59.733-59.733-59.733h-366.933v-366.933c0-32.99-26.744-59.733-59.733-59.733s-59.733 26.744-59.733 59.733v366.933h-366.933c-32.99 0-59.733 26.744-59.733 59.733s26.744 59.733 59.733 59.733h366.933z" />
<glyph unicode="&#xe920;" glyph-name="reduce" data-tags="reduce" d="M62.877 385.123c-34.726 0-62.877 28.151-62.877 62.877s28.151 62.877 62.877 62.877h898.246c34.726 0 62.877-28.151 62.877-62.877s-28.151-62.877-62.877-62.877h-898.246z" />
<glyph unicode="&#xe921;" glyph-name="discount" data-tags="discount" d="M394.24 601.6v0h51.2l10.24 15.36-35.84 46.080c-10.24 10.24-20.48 15.36-35.84 15.36-25.6 0-40.96-15.36-40.96-35.84 5.12-25.6 15.36-40.96 51.2-40.96zM358.4 488.96l30.72 35.84h-71.68v-307.2h153.6v302.080l-92.16-107.52zM629.76 601.6v0c40.96 0 46.080 20.48 46.080 40.96s-20.48 40.96-40.96 40.96v0c-10.24 0-25.6-5.12-30.72-15.36v0l-40.96-46.080 10.24-20.48zM0 960v-1024h1024v1024h-1024zM819.2 524.8h-40.96v-384h-532.48v384h-40.96v76.8h66.56c-10.24 10.24-10.24 25.6-10.24 40.96 0 61.44 51.2 112.64 122.88 112.64 40.96 0 81.92-20.48 102.4-46.080v0 0 0l20.48-25.6 20.48 25.6c25.6 30.72 61.44 46.080 102.4 46.080 71.68 0 128-51.2 128-112.64 0-15.36-5.12-25.6-10.24-40.96h71.68v-76.8zM665.6 488.96l-30.72-76.8-81.92 97.28v-291.84h153.6v307.2h-71.68z" />
<glyph unicode="&#xe922;" glyph-name="staricon" data-tags="staricon" d="M471.68 700.288l9.216-224.64-206.208 78.336-25.344-76.032 211.968-63.36-142.848-169.344 62.208-49.536 131.328 182.016 131.328-182.016 62.208 49.536-142.848 169.344 211.968 63.36-25.344 76.032-205.056-78.336 8.064 224.64h-80.64z" />
<glyph unicode="&#xe923;" glyph-name="cancel" data-tags="cancel" d="M577.826 448l235.787-240.933c17.847-18.236 17.267-47.758-1.296-65.938s-48.079-18.135-65.925 0.102l-234.392 239.507-234.392-239.507c-17.847-18.236-47.363-18.282-65.925-0.102s-19.143 47.702-1.296 65.938l235.787 240.933-235.787 240.933c-17.847 18.236-17.267 47.758 1.296 65.938s48.079 18.135 65.925-0.102l234.392-239.507 234.392 239.507c17.847 18.236 47.363 18.282 65.925 0.102s19.143-47.702 1.296-65.938l-235.787-240.933z" />
<glyph unicode="&#xe924;" glyph-name="left-2" data-tags="left-2" d="M597.333 567.467l341.333 238.933v-708.267l-341.333 230.4v-238.933l-512 358.4 512 358.4v-238.933z" />
<glyph unicode="&#xe925;" glyph-name="alarm" data-tags="alarm" d="M512 960c-281.6 0-512-230.4-512-512s230.4-512 512-512c281.6 0 512 230.4 512 512s-230.4 512-512 512zM403.2 128l57.6 268.8h-160l320 371.2-57.6-268.8h160z" />
<glyph unicode="&#xe926;" glyph-name="discount-sup" data-tags="discount-sup" d="M469.333 883.2v0 0 0zM913.067 704c8.533 17.067 17.067 42.667 17.067 68.267-8.533 102.4-102.4 187.733-221.867 187.733-68.267 0-136.533-34.133-170.667-76.8l-34.133-42.667-34.133 42.667c-34.133 42.667-102.4 76.8-170.667 76.8-119.467 0-204.8-85.333-204.8-187.733 0-25.6 8.533-42.667 17.067-68.267h-110.933v-128h68.267v-640h896v640h59.733v128h-110.934zM298.667 832c17.067 0 42.667-8.533 51.2-25.6v0l68.267-76.8-17.067-25.6h-85.333c-68.267 0-85.333 25.6-85.333 68.267 8.533 34.133 34.133 59.733 68.266 59.733zM443.733 64h-256v512h110.933l-42.667-59.733 34.133-128 153.6 179.2zM657.067 806.4v0c17.067 17.067 34.133 25.6 51.2 25.6v0c42.667 0 68.267-25.6 68.267-68.267s-8.533-59.733-68.267-59.733v0h-85.333l-34.133 25.6zM836.267 64h-256v486.4l145.067-162.133 42.667 128-51.2 59.733h110.933v-512h8.533zM537.6 883.2v0 0 0z" />
<glyph unicode="&#xe927;" glyph-name="slider-point" data-tags="slider-point" horiz-adv-x="668" d="M278.863 867.255c0 29.47 24.686 53.36 55.138 53.36s55.138-23.89 55.138-53.36v-838.511c0-29.47-24.686-53.36-55.138-53.36s-55.138 23.89-55.138 53.36v838.511zM3.17 791.027c0 29.47 24.686 53.36 55.138 53.36s55.138-23.89 55.138-53.36v-686.055c0-29.47-24.686-53.36-55.138-53.36s-55.138 23.89-55.138 53.36v686.055zM554.555 791.027c0 29.47 24.686 53.36 55.138 53.36s55.138-23.89 55.138-53.36v-686.055c0-29.47-24.686-53.36-55.138-53.36s-55.138 23.89-55.138 53.36v686.055z" />
<glyph unicode="&#xe928;" glyph-name="filter" data-tags="filter" d="M327.2 62.775c0-38.4 38.4-57.6 70.4-44.8l256 128c19.2 6.4 25.6 25.6 25.6 44.8v300.8l249.6 249.6c32 32 32 83.2 0 115.2-12.8 12.8-32 25.6-57.6 25.6h-723.2c-44.8 0-76.8-38.4-76.8-76.8 0-19.2 6.4-38.4 19.2-57.6l243.2-249.6-6.4-435.2zM423.2 139.575v371.2c0 12.8-6.4 25.6-12.8 32l-230.4 236.8h652.8l-230.4-236.8c-12.8-6.4-19.2-19.2-19.2-32v-288l-160-83.2z" />
<glyph unicode="&#xe929;" glyph-name="right-1" data-tags="right-1" d="M256 89.6v716.8l512-358.4z" />
<glyph unicode="&#xe92a;" glyph-name="right-2" data-tags="right-2" d="M426.667 806.4l512-358.4-512-358.4v238.933l-341.333-238.933v716.8l341.333-238.933v238.933z" />
<glyph unicode="&#xe92b;" glyph-name="edit" data-tags="edit" d="M752.378 849.193l-479.013-479.013-44.554-163.199 162.103 45.423 479.126 479.126-117.663 117.663zM806.684 921.601l135.765-135.765c29.992-29.992 29.992-78.619 0-108.612l-490.547-490.547c-9.323-9.323-20.889-16.088-33.584-19.646l-187.081-52.422c-40.842-11.444-83.229 12.387-94.674 53.23-3.751 13.385-3.798 27.538-0.137 40.948l51.398 188.267c3.518 12.887 10.337 24.633 19.783 34.079l490.466 490.466c29.992 29.992 78.619 29.992 108.612 0zM103.858 41.507h806.4c24.742 0 44.8-20.058 44.8-44.8s-20.058-44.8-44.8-44.8h-806.4c-24.742 0-44.8 20.058-44.8 44.8s20.058 44.8 44.8 44.8z" />
<glyph unicode="&#xe92c;" glyph-name="sold-out" data-tags="sold-out" d="M345.856 207.68c-39.616 0-71.808-32.256-71.808-71.936 0-39.744 32.192-71.936 71.808-71.936 39.68 0 71.808 32.192 71.808 71.936 0 39.68-32.128 71.936-71.808 71.936zM678.336 687.936l36.864 114.56-91.392 29.376-46.336-143.936h-209.728v-95.936h178.88l-77.184-239.744h-108.16l-89.28 468.544v11.008h-143.744v-95.936h58.304l90.368-479.104-4.992 0.64v-1.024h166.656l-24.64-76.48 91.392-29.376 34.112 105.856h258.944v0.896l-2.752-0.64 79.936 335.744 20.672 95.552zM715.584 352.256h-145.28l77.12 239.744h126.976zM728.832 207.68c-39.616 0-71.808-32.256-71.808-71.936 0-39.744 32.192-71.936 71.808-71.936s71.808 32.192 71.808 71.936c0 39.68-32.192 71.936-71.808 71.936z" />
<glyph unicode="&#xe92d;" glyph-name="delete" data-tags="delete" d="M512 960c282.77 0 512-229.23 512-512s-229.23-512-512-512c-282.77 0-512 229.23-512 512s229.23 512 512 512zM560.945 448l195.779 195.779c13.516 13.516 13.516 35.429 0 48.945s-35.429 13.516-48.945 0l-195.779-195.779-195.779 195.779c-13.516 13.516-35.429 13.516-48.945 0s-13.516-35.429 0-48.945l195.779-195.779-195.779-195.779c-13.516-13.516-13.516-35.429 0-48.945s35.429-13.516 48.945 0l195.779 195.779 195.779-195.779c13.516-13.516 35.429-13.516 48.945 0s13.516 35.429 0 48.945l-195.779 195.779z" />
<glyph unicode="&#xe92e;" glyph-name="sort-ascent" data-tags="sort-ascent" d="M481.26 652.133c-25.6 0-44.8 25.6-44.8 51.2s19.2 51.2 51.2 51.2h140.8c25.6 0 51.2-19.2 51.2-51.2s-19.2-51.2-51.2-51.2h-147.2zM481.26 396.133c-25.6 0-44.8 25.6-44.8 51.2s19.2 51.2 51.2 51.2h281.6c25.6 0 51.2-19.2 51.2-51.2 0-25.6-19.2-51.2-51.2-51.2h-288zM481.26 140.133c-25.6 0-51.2 19.2-51.2 51.2s19.2 51.2 51.2 51.2h448c25.6 0 51.2-19.2 51.2-51.2s-19.2-51.2-51.2-51.2h-448zM244.46 236.133v531.2c0 25.6 19.2 51.2 51.2 51.2s38.4-25.6 38.4-51.2v-640c0-44.8-51.2-64-83.2-38.4l-192 172.8c-19.2 19.2-19.2 51.2-6.4 70.4 25.6 19.2 57.6 25.6 76.8 6.4l115.2-102.4z" />
<glyph unicode="&#xe92f;" glyph-name="sort-descent" data-tags="sort-descent" d="M478.060 652.133c-25.6 0-51.2 25.6-51.2 51.2s25.6 51.2 51.2 51.2h448c25.6 0 51.2-19.2 51.2-51.2s-25.6-51.2-51.2-51.2h-448zM478.060 396.133c-25.6 0-51.2 25.6-51.2 51.2s25.6 51.2 51.2 51.2h288c25.6 0 51.2-19.2 51.2-51.2s-19.2-51.2-51.2-51.2h-288zM478.060 140.133c-25.6 0-51.2 19.2-51.2 51.2s19.2 51.2 51.2 51.2h140.8c25.6 0 51.2-19.2 51.2-51.2s-19.2-51.2-51.2-51.2h-140.8zM234.86 236.133v531.2c0 25.6 19.2 51.2 51.2 51.2s51.2-25.6 51.2-51.2v-640c0-44.8-51.2-64-83.2-38.4l-192 172.8c-19.2 25.6-19.2 51.2-6.4 70.4 19.2 19.2 51.2 19.2 70.4 6.4l108.8-102.4z" />
<glyph unicode="&#xe930;" glyph-name="action-binding" data-tags="action-binding" d="M544 385.536l-64-64v-6.4c6.4-38.4-6.4-76.8-32-102.4l-38.4-38.4c-44.8-44.8-121.6-44.8-166.4 6.4-25.6 25.6-38.4 57.6-38.4 89.6s12.8 64 32 83.2l38.4 32c25.6 25.6 64 38.4 102.4 32h6.4l64 64-19.2 6.4c-76.8 25.6-160 12.8-211.2-44.8l-38.4-32c-38.4-38.4-57.6-89.6-57.6-147.2 0-51.2 25.6-102.4 64-140.8s96-64 147.2-64c51.2 0 102.4 19.2 134.4 57.6l38.4 38.4c51.2 51.2 70.4 134.4 44.8 211.2l-6.4 19.2zM838.4 775.936c-76.8 76.8-204.8 83.2-281.6 6.4l-38.4-38.4c-57.6-51.2-70.4-134.4-44.8-211.2l6.4-19.2 64 64v6.4c-6.4 38.4 0 76.8 32 102.4l38.4 38.4c44.8 44.8 121.6 44.8 166.4-6.4 25.6-25.6 38.4-57.6 38.4-89.6s-12.8-64-32-83.2l-38.4-32c-25.6-25.6-64-38.4-102.4-32h-6.4l-64-64 19.2-6.4c25.6-6.4 44.8-12.8 70.4-12.8 51.2 0 102.4 19.2 140.8 57.6l38.4 38.4c38.4 38.4 57.6 89.6 57.6 140.8-6.4 51.2-25.6 102.4-64 140.8zM358.4 340.736c0-12.8 6.4-19.2 12.8-25.6s19.2-12.8 25.6-12.8 19.2 6.4 25.6 12.8l224 224c6.4 6.4 12.8 19.2 12.8 25.6 0 12.8-6.4 19.2-12.8 25.6-12.8 12.8-44.8 12.8-57.6 0l-217.6-224c-6.4-6.4-12.8-19.2-12.8-25.6z" />
<glyph unicode="&#xe931;" glyph-name="refresh-1" data-tags="refresh-1" d="M741.17 677.408c-44.165 41.862-100.067 70.563-162.175 81.515-171.726 30.28-335.483-84.385-365.763-256.11s84.385-335.483 256.11-365.763c149.254-26.318 295.366 57.181 349.285 196.81 8.913 23.081 34.849 34.567 57.931 25.654s34.567-34.849 25.654-57.931c-69.275-179.395-256.802-286.561-448.429-252.772-220.458 38.873-367.663 249.102-328.79 469.561s249.102 367.663 469.561 328.79c78.829-13.9 149.963-50.156 206.388-102.966l3.109 34.082c2.248 24.64 24.045 42.792 48.685 40.545s42.792-24.045 40.545-48.685l-12.751-139.768c-2.074-22.738-20.917-40.278-43.745-40.721l-130.316-2.53c-24.738-0.48-45.181 19.184-45.661 43.922s19.184 45.181 43.922 45.661l36.441 0.708z" />
<glyph unicode="&#xe932;" glyph-name="star" data-tags="star" d="M243.2-34.73c-32-19.2-70.4 12.8-64 51.2l51.2 294.4-217.6 211.2c-25.6 25.6-12.8 70.4 25.6 76.8l300.8 44.8 134.4 268.8c19.2 32 64 32 83.2 0l128-268.8 300.8-44.8c38.4-6.4 51.2-51.2 25.6-76.8l-217.6-211.2 51.2-294.4c6.4-38.4-32-64-64-51.2l-268.8 140.8-268.8-140.8z" />
<glyph unicode="&#xe933;" glyph-name="action-time" data-tags="action-time" d="M512 960c-282.752 0-512-229.248-512-512s229.248-512 512-512 512 229.248 512 512-229.248 512-512 512zM512 64c-211.712 0-384 172.288-384 384s172.288 384 384 384 384-172.288 384-384-172.288-384-384-384zM576 704h-128v-320h256v128h-128z" />
<glyph unicode="&#xe934;" glyph-name="delete-1" data-tags="delete-1" d="M873.6 665.6l-51.2-620.8c-6.4-57.6-51.2-102.4-108.8-102.4h-403.2c-57.6 0-108.8 44.8-108.8 102.4l-57.6 620.8h-96c-32 0-51.2 19.2-51.2 44.8s19.2 51.2 51.2 51.2h928c25.6 0 51.2-19.2 51.2-51.2s-19.2-51.2-51.2-51.2h-102.4zM777.6 665.6h-537.6l51.2-608c0-6.4 6.4-12.8 12.8-12.8h396.8c6.4 0 12.8 6.4 12.8 12.8l64 608zM560 172.8c0-25.6-19.2-51.2-51.2-51.2-25.6 0-51.2 19.2-51.2 51.2v153.6c0 25.6 19.2 51.2 51.2 51.2 25.6 0 51.2-19.2 51.2-51.2v-153.6zM368 953.6h288c25.6 0 51.2-19.2 51.2-51.2s-19.2-51.2-51.2-51.2h-288c-32 6.4-51.2 25.6-51.2 51.2s19.2 51.2 51.2 51.2z" />
<glyph unicode="&#xe935;" glyph-name="checkmark-small" data-tags="checkmark-small" d="M298.667 554.667l162.987-162.987 262.827 262.827 75.947-75.093-338.773-337.92-237.227 238.080 74.24 75.093z" />
<glyph unicode="&#xe936;" glyph-name="cloud-action-tip" data-tags="cloud-action-tip" d="M512-64c-282.784 0-512 229.216-512 512s229.216 512 512 512c282.784 0 512-229.216 512-512s-229.216-512-512-512zM512 25.632c233.248 0 422.368 189.088 422.368 422.368s-189.088 422.368-422.368 422.368c-233.248 0-422.368-189.088-422.368-422.368s189.088-422.368 422.368-422.368zM387.456 554.912c0 0-30.368 3.84-93.6 12.832 26.56 119.296 107.52 157.76 184.672 160.352s136.608-7.712 197.344-106.464c37.952-85.952-48.064-175.744-98.656-206.528s-45.536-103.904-45.536-103.904h-91.072c0 0-1.28 69.28 13.92 106.464s108.8 98.752 118.912 124.416c10.112 15.392 32.896 92.352-68.32 103.904s-117.632-91.072-117.632-91.072zM443.872 137.376v104.288h97.856v-104.288h-97.856z" />
<glyph unicode="&#xe937;" glyph-name="cloud-action-user" data-tags="cloud-action-user" d="M723.776 401.792c65.92 58.624 108.224 143.104 108.224 238.208 0 176.704-143.296 320-320 320s-320-143.296-320-320c0-95.104 42.304-179.648 108.224-238.272-176.96-80.512-300.224-258.496-300.224-465.728h128c0 211.776 172.224 384 384 384s384-172.224 384-384h128c0 207.232-123.264 385.216-300.224 465.792zM512 448c-105.856 0-192 86.144-192 192s86.144 192 192 192 192-86.144 192-192-86.144-192-192-192z" />
</font>
</defs>
</svg>
