<?xml version="1.0" encoding="UTF-8"?>
<svg width="125px" height="125px" viewBox="0 0 125 125" version="1.1" xmlns="http://www.w3.org/2000/svg" xmlns:xlink="http://www.w3.org/1999/xlink">
    <title>Time 时间</title>
    <defs>
        <linearGradient x1="50%" y1="45.9685271%" x2="50%" y2="100%" id="linearGradient-1">
            <stop stop-color="#ECF3FB" offset="0%"></stop>
            <stop stop-color="#FFFFFF" offset="100%"></stop>
        </linearGradient>
        <linearGradient x1="50.3956523%" y1="35.9331967%" x2="50%" y2="64.0668033%" id="linearGradient-2">
            <stop stop-color="#E3EFFD" stop-opacity="0.00575352382" offset="0%"></stop>
            <stop stop-color="#E5F0FD" offset="34.0601199%"></stop>
            <stop stop-color="#F0F6FE" offset="100%"></stop>
        </linearGradient>
        <linearGradient x1="33.3333333%" y1="34.495573%" x2="96.9740837%" y2="65.4421891%" id="linearGradient-3">
            <stop stop-color="#D5E6F9" offset="0%"></stop>
            <stop stop-color="#F7FBFF" stop-opacity="0" offset="100%"></stop>
        </linearGradient>
        <linearGradient x1="90.9912104%" y1="29.4309598%" x2="33.3333333%" y2="67.7472684%" id="linearGradient-4">
            <stop stop-color="#D5E6F9" offset="0%"></stop>
            <stop stop-color="#E7F0F9" stop-opacity="0" offset="100%"></stop>
        </linearGradient>
        <linearGradient x1="-5.8027489%" y1="27.0499439%" x2="103.630422%" y2="71.1332543%" id="linearGradient-5">
            <stop stop-color="#CEE6FE" offset="0%"></stop>
            <stop stop-color="#8AB5F2" offset="100%"></stop>
        </linearGradient>
        <linearGradient x1="-5.8027489%" y1="27.0499439%" x2="103.630422%" y2="71.1332543%" id="linearGradient-6">
            <stop stop-color="#BFD6F9" offset="0%"></stop>
            <stop stop-color="#F3F6FE" offset="100%"></stop>
        </linearGradient>
        <linearGradient x1="89.8473889%" y1="61.7348066%" x2="0%" y2="61.7348066%" id="linearGradient-7">
            <stop stop-color="#CAD9F3" offset="0%"></stop>
            <stop stop-color="#D5E3F7" offset="100%"></stop>
        </linearGradient>
        <filter x="-18.5%" y="-60.0%" width="136.9%" height="220.0%" filterUnits="objectBoundingBox" id="filter-8">
            <feGaussianBlur stdDeviation="4" in="SourceGraphic"></feGaussianBlur>
        </filter>
        <linearGradient x1="44.1013011%" y1="86.8386573%" x2="128.759538%" y2="-43.8247114%" id="linearGradient-9">
            <stop stop-color="#5073E5" offset="0%"></stop>
            <stop stop-color="#5E7CE0" offset="100%"></stop>
        </linearGradient>
        <rect id="path-10" x="22.5" y="0" width="3" height="8" rx="1.5"></rect>
        <filter x="-133.3%" y="-25.0%" width="366.7%" height="200.0%" filterUnits="objectBoundingBox" id="filter-11">
            <feOffset dx="0" dy="2" in="SourceAlpha" result="shadowOffsetOuter1"></feOffset>
            <feGaussianBlur stdDeviation="1" in="shadowOffsetOuter1" result="shadowBlurOuter1"></feGaussianBlur>
            <feColorMatrix values="0 0 0 0 0.368627451   0 0 0 0 0.48627451   0 0 0 0 0.878431373  0 0 0 0.349865467 0" type="matrix" in="shadowBlurOuter1"></feColorMatrix>
        </filter>
        <rect id="path-12" x="22.5" y="39" width="3" height="8" rx="1.5"></rect>
        <filter x="-133.3%" y="-25.0%" width="366.7%" height="200.0%" filterUnits="objectBoundingBox" id="filter-13">
            <feOffset dx="0" dy="2" in="SourceAlpha" result="shadowOffsetOuter1"></feOffset>
            <feGaussianBlur stdDeviation="1" in="shadowOffsetOuter1" result="shadowBlurOuter1"></feGaussianBlur>
            <feColorMatrix values="0 0 0 0 0.368627451   0 0 0 0 0.48627451   0 0 0 0 0.878431373  0 0 0 0.349865467 0" type="matrix" in="shadowBlurOuter1"></feColorMatrix>
        </filter>
        <rect id="path-14" x="42.5" y="20" width="3" height="8" rx="1.5"></rect>
        <filter x="-133.3%" y="-25.0%" width="366.7%" height="200.0%" filterUnits="objectBoundingBox" id="filter-15">
            <feOffset dx="0" dy="2" in="SourceAlpha" result="shadowOffsetOuter1"></feOffset>
            <feGaussianBlur stdDeviation="1" in="shadowOffsetOuter1" result="shadowBlurOuter1"></feGaussianBlur>
            <feColorMatrix values="0 0 0 0 0.368627451   0 0 0 0 0.48627451   0 0 0 0 0.878431373  0 0 0 0.349865467 0" type="matrix" in="shadowBlurOuter1"></feColorMatrix>
        </filter>
        <rect id="path-16" x="2.5" y="20" width="3" height="8" rx="1.5"></rect>
        <filter x="-133.3%" y="-25.0%" width="366.7%" height="200.0%" filterUnits="objectBoundingBox" id="filter-17">
            <feOffset dx="0" dy="2" in="SourceAlpha" result="shadowOffsetOuter1"></feOffset>
            <feGaussianBlur stdDeviation="1" in="shadowOffsetOuter1" result="shadowBlurOuter1"></feGaussianBlur>
            <feColorMatrix values="0 0 0 0 0.368627451   0 0 0 0 0.48627451   0 0 0 0 0.878431373  0 0 0 0.349865467 0" type="matrix" in="shadowBlurOuter1"></feColorMatrix>
        </filter>
        <rect id="path-18" x="22" y="2.27373675e-13" width="2" height="6" rx="1"></rect>
        <filter x="-200.0%" y="-33.3%" width="500.0%" height="233.3%" filterUnits="objectBoundingBox" id="filter-19">
            <feOffset dx="0" dy="2" in="SourceAlpha" result="shadowOffsetOuter1"></feOffset>
            <feGaussianBlur stdDeviation="1" in="shadowOffsetOuter1" result="shadowBlurOuter1"></feGaussianBlur>
            <feColorMatrix values="0 0 0 0 0.368627451   0 0 0 0 0.48627451   0 0 0 0 0.878431373  0 0 0 0.349865467 0" type="matrix" in="shadowBlurOuter1"></feColorMatrix>
        </filter>
        <rect id="path-20" x="22" y="41.8284271" width="2" height="6" rx="1"></rect>
        <filter x="-200.0%" y="-33.3%" width="500.0%" height="233.3%" filterUnits="objectBoundingBox" id="filter-21">
            <feOffset dx="0" dy="2" in="SourceAlpha" result="shadowOffsetOuter1"></feOffset>
            <feGaussianBlur stdDeviation="1" in="shadowOffsetOuter1" result="shadowBlurOuter1"></feGaussianBlur>
            <feColorMatrix values="0 0 0 0 0.368627451   0 0 0 0 0.48627451   0 0 0 0 0.878431373  0 0 0 0.349865467 0" type="matrix" in="shadowBlurOuter1"></feColorMatrix>
        </filter>
        <rect id="path-22" x="43.4142136" y="20" width="2" height="6" rx="1"></rect>
        <filter x="-200.0%" y="-33.3%" width="500.0%" height="233.3%" filterUnits="objectBoundingBox" id="filter-23">
            <feOffset dx="0" dy="2" in="SourceAlpha" result="shadowOffsetOuter1"></feOffset>
            <feGaussianBlur stdDeviation="1" in="shadowOffsetOuter1" result="shadowBlurOuter1"></feGaussianBlur>
            <feColorMatrix values="0 0 0 0 0.368627451   0 0 0 0 0.48627451   0 0 0 0 0.878431373  0 0 0 0.349865467 0" type="matrix" in="shadowBlurOuter1"></feColorMatrix>
        </filter>
        <rect id="path-24" x="2" y="20" width="2" height="6" rx="1"></rect>
        <filter x="-200.0%" y="-33.3%" width="500.0%" height="233.3%" filterUnits="objectBoundingBox" id="filter-25">
            <feOffset dx="0" dy="2" in="SourceAlpha" result="shadowOffsetOuter1"></feOffset>
            <feGaussianBlur stdDeviation="1" in="shadowOffsetOuter1" result="shadowBlurOuter1"></feGaussianBlur>
            <feColorMatrix values="0 0 0 0 0.368627451   0 0 0 0 0.48627451   0 0 0 0 0.878431373  0 0 0 0.349865467 0" type="matrix" in="shadowBlurOuter1"></feColorMatrix>
        </filter>
        <linearGradient x1="50%" y1="0%" x2="50%" y2="100%" id="linearGradient-26">
            <stop stop-color="#FFCC00" offset="0%"></stop>
            <stop stop-color="#FF9D00" offset="100%"></stop>
        </linearGradient>
        <path d="M46.5796821,25.8129194 C47.5332134,26.7666527 47.5332134,28.3219716 46.5796821,29.2757049 L36.2017348,39.654996 L36.1080812,39.5616194 L36.1076394,39.5626788 L25.9072297,29.3603147 C24.9536984,28.4065814 24.9536984,26.8512625 25.9072297,25.8975292 C26.860761,24.9437959 28.4157506,24.9437959 29.3692819,25.8975292 L36.2000812,32.7296194 L43.1176299,25.8129194 C44.0711612,24.8591861 45.6261507,24.8591861 46.5796821,25.8129194 Z" id="path-27"></path>
        <filter x="-15.8%" y="-17.2%" width="131.7%" height="148.1%" filterUnits="objectBoundingBox" id="filter-28">
            <feOffset dx="0" dy="1" in="SourceAlpha" result="shadowOffsetOuter1"></feOffset>
            <feGaussianBlur stdDeviation="1" in="shadowOffsetOuter1" result="shadowBlurOuter1"></feGaussianBlur>
            <feColorMatrix values="0 0 0 0 0.661752894   0 0 0 0 0.324547702   0 0 0 0 0.00489962574  0 0 0 0.5 0" type="matrix" in="shadowBlurOuter1"></feColorMatrix>
        </filter>
        <linearGradient x1="44.0988019%" y1="86.8375855%" x2="128.792906%" y2="-43.8219818%" id="linearGradient-29">
            <stop stop-color="#5073E5" offset="0%"></stop>
            <stop stop-color="#5E7CE0" offset="100%"></stop>
        </linearGradient>
        <linearGradient x1="44.0988019%" y1="86.8375855%" x2="128.792906%" y2="-43.8219818%" id="linearGradient-30">
            <stop stop-color="#5073E5" offset="0%"></stop>
            <stop stop-color="#5E7CE0" offset="100%"></stop>
        </linearGradient>
        <path d="M13.246661,12.3832264 C13.7308428,12.8528154 13.7381789,13.6305721 13.2686693,14.1148358 C8.05271107,19.4710852 5.17696476,26.5442694 5.17696476,34.0283439 C5.17696476,49.6167907 17.7308783,62.3287114 33.2576103,62.581391 L33.7290174,62.5852244 C37.6049081,62.5924411 41.4608163,61.8042882 45.0165247,60.2691294 C45.6500642,59.9963492 46.364711,60.2854256 46.6316774,60.9037079 C46.9051728,61.5300543 46.6153716,62.252121 45.9971908,62.519138 C42.3214042,64.0973055 38.358962,64.9487074 34.3603682,65.0294106 L33.5434604,65.0353267 L32.9000464,65.0249636 L32.7228119,65.0193081 C16.0931506,64.4863757 2.72685558,50.7874268 2.73401872,34.0283439 C2.73401872,25.9059218 5.85188481,18.2237394 11.5153444,12.4052384 C11.984854,11.9209747 12.7624793,11.9136374 13.246661,12.3832264 Z M33.9254732,3.03532669 L34.5688871,3.04569003 L34.7461216,3.05134561 C51.375783,3.58428938 64.742078,17.2835293 64.7349149,34.0429684 C64.7349149,42.1655631 61.6170488,49.8479087 55.9535892,55.6665335 C55.4840796,56.1508074 54.7064543,56.1581449 54.2222726,55.6885459 C53.7380908,55.2189469 53.7307547,54.4411737 54.2002643,53.9568997 C59.4162225,48.6005365 62.2919688,41.527202 62.2919688,34.0429684 C62.2919688,18.4541904 49.7380553,5.74199951 34.2113233,5.48931457 L33.7399162,5.48548108 C29.8640254,5.47826418 26.0081173,6.2664338 22.4524089,7.80162528 C21.8188694,8.07441128 21.1042226,7.78532876 20.8372562,7.16703328 C20.5637608,6.54067358 20.8535619,5.81859149 21.4717428,5.55156889 C25.1475293,3.97336782 29.1099715,3.12194784 33.1085653,3.04124286 L33.9254732,3.03532669 Z" id="path-31"></path>
        <filter x="-7.3%" y="-4.0%" width="114.5%" height="114.5%" filterUnits="objectBoundingBox" id="filter-32">
            <feMorphology radius="0.5" operator="dilate" in="SourceAlpha" result="shadowSpreadOuter1"></feMorphology>
            <feOffset dx="0" dy="2" in="shadowSpreadOuter1" result="shadowOffsetOuter1"></feOffset>
            <feGaussianBlur stdDeviation="1" in="shadowOffsetOuter1" result="shadowBlurOuter1"></feGaussianBlur>
            <feComposite in="shadowBlurOuter1" in2="SourceAlpha" operator="out" result="shadowBlurOuter1"></feComposite>
            <feColorMatrix values="0 0 0 0 0.368627451   0 0 0 0 0.48627451   0 0 0 0 0.878431373  0 0 0 0.65213034 0" type="matrix" in="shadowBlurOuter1"></feColorMatrix>
        </filter>
    </defs>
    <g id="页面一" stroke="none" stroke-width="1" fill="none" fill-rule="evenodd">
        <g id="-TinyUI-ICON-1-【9-2】-无阴影" transform="translate(-697.000000, -2381.000000)">
            <g id="Time-时间" transform="translate(697.000000, 2381.000000)">
                <g id="编组">
                    <g transform="translate(9.000000, 1.000000)" id="多边形">
                        <polygon fill="url(#linearGradient-1)" opacity="0.54620216" points="53.2605623 0 106.521125 30.75 53.2605623 62 0 30.75"></polygon>
                        <polygon fill="url(#linearGradient-2)" points="53.2605623 61.5 106.521125 86.75 53.2605623 118 0 86.75"></polygon>
                        <polygon fill="url(#linearGradient-3)" opacity="0.600606283" points="53.2605623 62 53.2605623 123 7.39138783e-15 92.25 0 30.75"></polygon>
                        <polygon fill="url(#linearGradient-4)" opacity="0.791265578" points="53.2605623 62 106.521125 30.75 106.521125 92.25 53.2605623 123"></polygon>
                        <polygon fill="url(#linearGradient-5)" points="53.2605623 118.007802 53.2605623 123 7.39138783e-15 92.25 0 86.9161706"></polygon>
                        <polygon fill="url(#linearGradient-6)" transform="translate(79.630281, 104.958085) scale(-1, 1) translate(-79.630281, -104.958085) " points="106.260562 118.007802 106.260562 123 53 92.25 53 86.9161706"></polygon>
                    </g>
                    <ellipse id="椭圆形" fill="url(#linearGradient-7)" filter="url(#filter-8)" cx="62.5" cy="90" rx="32.5" ry="10"></ellipse>
                </g>
                <g id="出行时间" transform="translate(29.000000, 29.000000)">
                    <path d="M11,33.5 C11,45.9264069 21.0714598,56 33.4952352,56 C45.9190105,56 55.9904703,45.9264069 55.9904703,33.5 C55.9904703,21.0735931 45.9190105,11 33.4952352,11 C21.0714598,11 11,21.0735931 11,33.5 L11,33.5 Z" id="路径" fill="url(#linearGradient-9)" opacity="0.303770519"></path>
                    <g id="编组-18" transform="translate(9.234019, 10.026912)">
                        <g id="矩形">
                            <use fill="black" fill-opacity="1" filter="url(#filter-11)" xlink:href="#path-10"></use>
                            <use fill="#5073E5" fill-rule="evenodd" xlink:href="#path-10"></use>
                        </g>
                        <g id="矩形备份-16">
                            <use fill="black" fill-opacity="1" filter="url(#filter-13)" xlink:href="#path-12"></use>
                            <use fill="#5073E5" fill-rule="evenodd" xlink:href="#path-12"></use>
                        </g>
                        <g id="矩形备份-16" transform="translate(44.000000, 24.000000) rotate(-90.000000) translate(-44.000000, -24.000000) ">
                            <use fill="black" fill-opacity="1" filter="url(#filter-15)" xlink:href="#path-14"></use>
                            <use fill="#5073E5" fill-rule="evenodd" xlink:href="#path-14"></use>
                        </g>
                        <g id="矩形备份-17" transform="translate(4.000000, 24.000000) rotate(-90.000000) translate(-4.000000, -24.000000) ">
                            <use fill="black" fill-opacity="1" filter="url(#filter-17)" xlink:href="#path-16"></use>
                            <use fill="#5073E5" fill-rule="evenodd" xlink:href="#path-16"></use>
                        </g>
                    </g>
                    <g id="编组-18" opacity="0.301161993" transform="translate(33.673359, 33.673359) rotate(-45.000000) translate(-33.673359, -33.673359) translate(9.966252, 9.759145)">
                        <g id="矩形">
                            <use fill="black" fill-opacity="1" filter="url(#filter-19)" xlink:href="#path-18"></use>
                            <use fill="#5073E5" fill-rule="evenodd" xlink:href="#path-18"></use>
                        </g>
                        <g id="矩形备份-16">
                            <use fill="black" fill-opacity="1" filter="url(#filter-21)" xlink:href="#path-20"></use>
                            <use fill="#5073E5" fill-rule="evenodd" xlink:href="#path-20"></use>
                        </g>
                        <g id="矩形备份-16" transform="translate(44.414214, 23.000000) rotate(-90.000000) translate(-44.414214, -23.000000) ">
                            <use fill="black" fill-opacity="1" filter="url(#filter-23)" xlink:href="#path-22"></use>
                            <use fill="#5073E5" fill-rule="evenodd" xlink:href="#path-22"></use>
                        </g>
                        <g id="矩形备份-17" transform="translate(3.000000, 23.000000) rotate(-90.000000) translate(-3.000000, -23.000000) ">
                            <use fill="black" fill-opacity="1" filter="url(#filter-25)" xlink:href="#path-24"></use>
                            <use fill="#5073E5" fill-rule="evenodd" xlink:href="#path-24"></use>
                        </g>
                    </g>
                    <g id="形状" transform="translate(36.243456, 32.376308) rotate(-315.000000) translate(-36.243456, -32.376308) ">
                        <use fill="black" fill-opacity="1" filter="url(#filter-28)" xlink:href="#path-27"></use>
                        <use fill="url(#linearGradient-26)" fill-rule="evenodd" xlink:href="#path-27"></use>
                    </g>
                    <g id="形状结合">
                        <use fill="black" fill-opacity="1" filter="url(#filter-32)" xlink:href="#path-31"></use>
                        <use stroke="url(#linearGradient-30)" stroke-width="1" fill="url(#linearGradient-29)" fill-rule="evenodd" xlink:href="#path-31"></use>
                    </g>
                </g>
            </g>
        </g>
    </g>
</svg>