<?xml version="1.0" encoding="utf-8"?>
<!-- Generator: Adobe Illustrator 26.0.2, SVG Export Plug-In . SVG Version: 6.00 Build 0)  -->
<svg version="1.1" id="图层_1" xmlns="http://www.w3.org/2000/svg" xmlns:xlink="http://www.w3.org/1999/xlink" x="0px" y="0px"
	 viewBox="0 0 16 16" style="enable-background:new 0 0 16 16;" xml:space="preserve">
<style type="text/css">
	.st0{fill:none;}
</style>
<rect id="矩形" class="st0"/>
<path id="形状" class="st1" d="M8.4,4.6c0,0.87,0.73,1.6,1.6,1.6s1.6-0.73,1.6-1.6S10.87,3,10,3C9.13,2.93,8.4,3.67,8.4,4.6z
	 M10.6,4.6c0,0.33-0.27,0.6-0.6,0.6S9.4,4.93,9.4,4.6C9.4,4.27,9.67,4,10,4C10.33,3.93,10.6,4.2,10.6,4.6z M9.8,9L9,9.8
	c-0.47,0.47-1.13,0.47-1.6,0L4.47,6.93c-0.07-0.07-0.13-0.07-0.2,0L1.8,9.4V11c0,0.93,0.8,1.67,1.87,1.67H7.8
	c0.27,0,0.53,0.2,0.53,0.53c0,0.27-0.2,0.53-0.53,0.53H3.67c-1.6,0-2.87-1.2-2.87-2.67v-7.6C0.8,2,2.07,0.8,3.67,0.8h8.27
	c1.6,0,2.87,1.2,2.87,2.67v3.87c0,0.27-0.2,0.53-0.53,0.53c-0.27,0-0.53-0.2-0.53-0.53V3.47c0-0.93-0.8-1.67-1.87-1.67h-8.2
	c-1,0.07-1.8,0.8-1.8,1.67V8l1.8-1.73c0.47-0.47,1.13-0.47,1.6,0L8.2,9.13c0.07,0.07,0.13,0.07,0.2,0l0.8-0.8
	c0.2-0.2,0.53-0.2,0.73,0C10.13,8.53,10,8.8,9.8,9z M15.2,12c0,0.27-0.2,0.53-0.53,0.53H13v1.67c0,0.27-0.2,0.53-0.53,0.53
	c-0.27,0-0.53-0.2-0.53-0.53v-1.67h-1.67c-0.27,0-0.53-0.2-0.53-0.53s0.2-0.53,0.53-0.53H12V9.8c0-0.27,0.2-0.53,0.53-0.53
	c0.27,0,0.53,0.2,0.53,0.53v1.67h1.6C14.93,11.47,15.2,11.67,15.2,12z"/>
</svg>
