<?xml version="1.0" encoding="UTF-8"?>
<svg viewBox="0 0 16 16" version="1.1" xmlns="http://www.w3.org/2000/svg" xmlns:xlink="http://www.w3.org/1999/xlink">
    <g>
        <path d="M13.5,12.5 C13.7761424,12.5 14,12.7238576 14,13 C14,13.2761424 13.7761424,13.5 13.5,13.5 L2.5,13.5 C2.22385763,13.5 2,13.2761424 2,13 C2,12.7238576 2.22385763,12.5 2.5,12.5 L13.5,12.5 Z M12.5,5 C13.2796961,5 13.9204487,5.59488808 13.9931334,6.35553999 L14,6.5 L14,9.5 C14,10.2796961 13.4051119,10.9204487 12.64446,10.9931334 L12.5,11 L3.5,11 C2.72030388,11 2.07955132,10.4051119 2.00686658,9.64446001 L2,9.5 L2,6.5 C2,5.72030388 2.59488808,5.07955132 3.35553999,5.00686658 L3.5,5 L12.5,5 Z M12.5,6 L3.5,6 C3.25454011,6 3.05039163,6.17687516 3.00805567,6.41012437 L3,6.5 L3,9.5 C3,9.74545989 3.17687516,9.94960837 3.41012437,9.99194433 L3.5,10 L12.5,10 C12.7454599,10 12.9496084,9.82312484 12.9919443,9.58987563 L13,9.5 L13,6.5 C13,6.25454011 12.8231248,6.05039163 12.5898756,6.00805567 L12.5,6 Z M13.5,2.5 C13.7761424,2.5 14,2.72385763 14,3 C14,3.27614237 13.7761424,3.5 13.5,3.5 L2.5,3.5 C2.22385763,3.5 2,3.27614237 2,3 C2,2.72385763 2.22385763,2.5 2.5,2.5 L13.5,2.5 Z"></path>
    </g>
</svg>