<?xml version="1.0" encoding="utf-8"?>
<svg viewBox="0 0 1026 1024" version="1.1" xmlns="http://www.w3.org/2000/svg">
  <path d="M512.2592 569.6c-6.4 0-12.8 0-12.8-6.4L19.4592 326.4C6.6592 320 0.2592 313.6 0.2592 300.8s6.4-25.6 19.2-25.6L499.4592 38.4c6.4-6.4 19.2-6.4 25.6 0l480 236.8c12.8 0 19.2 12.8 19.2 25.6s-6.4 19.2-19.2 25.6L525.0592 569.6H512.2592zM102.6592 300.8L512.2592 505.6l409.6-204.8L512.2592 96 102.6592 300.8z"></path>
  <path d="M512.2592 806.4c-6.4 0-12.8 0-12.8-6.4L19.4592 563.2c-19.2-12.8-25.6-32-12.8-44.8 6.4-12.8 25.6-19.2 44.8-12.8L512.2592 736l467.2-230.4c12.8-6.4 32 0 44.8 12.8 6.4 12.8 0 32-12.8 44.8l-480 236.8c-6.4 0-12.8 6.4-19.2 6.4z"></path>
  <path d="M512.2592 992c-6.4 0-12.8 0-12.8-6.4L19.4592 748.8c-12.8-6.4-19.2-25.6-12.8-44.8 6.4-12.8 25.6-19.2 44.8-12.8L512.2592 928l467.2-230.4c12.8-6.4 32 0 44.8 12.8 6.4 12.8 0 32-12.8 44.8l-480 236.8H512.2592z"></path>
</svg>