<?xml version="1.0" encoding="utf-8"?>
<!-- Generator: Adobe Illustrator 21.0.0, SVG Export Plug-In . SVG Version: 6.00 Build 0)  -->
<svg version="1.1" id="Layer_1" xmlns="http://www.w3.org/2000/svg" xmlns:xlink="http://www.w3.org/1999/xlink" x="0px" y="0px"
	 viewBox="0 0 24 24" xml:space="preserve">
<g id="Icon">
	<g id="UI-icons-英文名" transform="translate(-1142.000000, -306.000000)">
		<g id="方向性图标" transform="translate(101.000000, 303.000000)">
			<g id="arrow-left" transform="translate(1039.000000, 0.000000)">
				<path id="Combined-Shape" class="st0" d="M8.3,14H22c0.6,0,1,0.4,1,1s-0.4,1-1,1H8.3l5.4,5.4c0.4,0.4,0.4,1,0,1.4
					c-0.4,0.4-1,0.4-1.4,0l-7.1-7.1c-0.4-0.4-0.4-1,0-1.4l7.1-7.1c0.4-0.4,1-0.4,1.4,0c0.4,0.4,0.4,1,0,1.4L8.3,14z"/>
			</g>
		</g>
	</g>
</g>
</svg>
