<?xml version="1.0" encoding="utf-8"?>
<!-- Generator: Adobe Illustrator 21.0.0, SVG Export Plug-In . SVG Version: 6.00 Build 0)  -->
<svg version="1.1" id="Layer_1" xmlns="http://www.w3.org/2000/svg" xmlns:xlink="http://www.w3.org/1999/xlink" x="0px" y="0px"
	 viewBox="0 0 24 24" xml:space="preserve">
<g id="Icon">
	<g id="UI-icons-英文名" transform="translate(-1247.000000, -306.000000)">
		<g id="方向性图标" transform="translate(101.000000, 303.000000)">
			<g id="arrow-right" transform="translate(1143.000000, 0.000000)">
				<path id="Combined-Shape" class="st0" d="M20.7,14l-5.4-5.4c-0.4-0.4-0.4-1,0-1.4c0.4-0.4,1-0.4,1.4,0l7.1,7.1
					c0.4,0.4,0.4,1,0,1.4l-7.1,7.1c-0.4,0.4-1,0.4-1.4,0c-0.4-0.4-0.4-1,0-1.4l5.4-5.4H7c-0.6,0-1-0.4-1-1s0.4-1,1-1H20.7z"/>
			</g>
		</g>
	</g>
</g>
</svg>
