<?xml version="1.0" encoding="UTF-8"?>
<svg viewBox="0 0 24 24" version="1.1" xmlns="http://www.w3.org/2000/svg" xmlns:xlink="http://www.w3.org/1999/xlink">
    <g id="audio_line" stroke="none" stroke-width="1">
        <g id="编组" transform="translate(2.107500, 3.750000)">
            <path d="M0.75,6.5 C1.12969577,6.5 1.44349096,6.78215388 1.49315338,7.14822944 L1.5,7.25 L1.5,9.25 C1.5,9.66421356 1.16421356,10 0.75,10 C0.370304234,10 0.0565090391,9.71784612 0.006846616,9.35177056 L0,9.25 L0,7.25 C0,6.83578644 0.335786438,6.5 0.75,6.5 Z M4.6064,4 C4.98609577,4 5.29989096,4.28215388 5.34955338,4.64822944 L5.3564,4.75 L5.3564,11.75 C5.3564,12.1642136 5.02061356,12.5 4.6064,12.5 C4.22670423,12.5 3.91290904,12.2178461 3.86324662,11.8517706 L3.8564,11.75 L3.8564,4.75 C3.8564,4.33578644 4.19218644,4 4.6064,4 Z M16.1777,5 C16.5573958,5 16.871191,5.28215388 16.9208534,5.64822944 L16.9277,5.75 L16.9277,10.75 C16.9277,11.1642136 16.5919136,11.5 16.1777,11.5 C15.7980042,11.5 15.484209,11.2178461 15.4345466,10.8517706 L15.4277,10.75 L15.4277,5.75 C15.4277,5.33578644 15.7634864,5 16.1777,5 Z M19.0351,7 C19.4147958,7 19.728591,7.28215388 19.7782534,7.64822944 L19.7851,7.75 L19.7851,8.75 C19.7851,9.16421356 19.4493136,9.5 19.0351,9.5 C18.6554042,9.5 18.341609,9.21784612 18.2919466,8.85177056 L18.2851,8.75 L18.2851,7.75 C18.2851,7.33578644 18.6208864,7 19.0351,7 Z M12.3213,3 C12.7009958,3 13.014791,3.28215388 13.0644534,3.64822944 L13.0713,3.75 L13.0713,12.75 C13.0713,13.1642136 12.7355136,13.5 12.3213,13.5 C11.9416042,13.5 11.627809,13.2178461 11.5781466,12.8517706 L11.5713,12.75 L11.5713,3.75 C11.5713,3.33578644 11.9070864,3 12.3213,3 Z M8.4639,0 C8.84359577,0 9.15739096,0.282153882 9.20705338,0.648229443 L9.2139,0.75 L9.2139,15.75 C9.2139,16.1642136 8.87811356,16.5 8.4639,16.5 C8.08420423,16.5 7.77040904,16.2178461 7.72074662,15.8517706 L7.7139,15.75 L7.7139,0.75 C7.7139,0.335786438 8.04968644,0 8.4639,0 Z" id="形状结合"></path>
        </g>
    </g>
</svg>