<svg viewBox="0 0 24 24" xmlns="http://www.w3.org/2000/svg"
	xmlns:xlink="http://www.w3.org/1999/xlink">
	<g clip-path="url(#clip131_1904)">
		<g opacity="0.000000" />
		<path id="矢量 180"
			d="M16.5487 2.89819C16.499 2.53223 16.1853 2.25 15.8055 2.25C15.3914 2.25 15.0555 2.58569 15.0555 3L15.0549 4.25L8.94397 4.25L8.94446 3L8.93762 2.89819C8.88794 2.53223 8.57422 2.25 8.19446 2.25C7.78027 2.25 7.44446 2.58569 7.44446 3L7.44397 4.25L5.5 4.25C3.81787 4.34253 2.25 5.71655 2.25 7.3999L2.25 18.6001L2.25513 18.7791C2.34961 20.439 3.74939 21.75 5.45459 21.75L18.5454 21.75L18.7269 21.7451C20.4091 21.6526 21.75 20.2834 21.75 18.6001L21.7449 7.22095C21.6504 5.56104 20.2052 4.25 18.5 4.25L16.5551 4.25L16.5555 3L16.5487 2.89819ZM18.5454 5.75L18.6931 5.7561C19.5684 5.82861 20.25 6.54053 20.25 7.40015L20.25 8.4502L3.75 8.4502L3.75 7.40015L3.75623 7.2583C3.83044 6.4165 4.5592 5.75 5.45459 5.75L18.5454 5.75ZM8.5 12.5833C8.5 12.3992 8.35071 12.25 8.16663 12.25L6.83337 12.25C6.64929 12.25 6.5 12.3992 6.5 12.5833L6.5 13.9167C6.5 14.1008 6.64929 14.25 6.83337 14.25L8.16663 14.25C8.35071 14.25 8.5 14.1008 8.5 13.9167L8.5 12.5833ZM13 12.5833C13 12.3992 12.8507 12.25 12.6666 12.25L11.3334 12.25C11.1493 12.25 11 12.3992 11 12.5833L11 13.9167C11 14.1008 11.1493 14.25 11.3334 14.25L12.6666 14.25C12.8507 14.25 13 14.1008 13 13.9167L13 12.5833ZM17.5 12.5833C17.5 12.3992 17.3507 12.25 17.1666 12.25L15.8334 12.25C15.6493 12.25 15.5 12.3992 15.5 12.5833L15.5 13.9167C15.5 14.1008 15.6493 14.25 15.8334 14.25L17.1666 14.25C17.3507 14.25 17.5 14.1008 17.5 13.9167L17.5 12.5833ZM8.5 16.5833C8.5 16.3992 8.35071 16.25 8.16663 16.25L6.83337 16.25C6.64929 16.25 6.5 16.3992 6.5 16.5833L6.5 17.9167C6.5 18.1008 6.64929 18.25 6.83337 18.25L8.16663 18.25C8.35071 18.25 8.5 18.1008 8.5 17.9167L8.5 16.5833ZM13 16.5833C13 16.3992 12.8507 16.25 12.6666 16.25L11.3334 16.25C11.1493 16.25 11 16.3992 11 16.5833L11 17.9167C11 18.1008 11.1493 18.25 11.3334 18.25L12.6666 18.25C12.8507 18.25 13 18.1008 13 17.9167L13 16.5833ZM17.5 16.5833C17.5 16.3992 17.3507 16.25 17.1666 16.25L15.8334 16.25C15.6493 16.25 15.5 16.3992 15.5 16.5833L15.5 17.9167C15.5 18.1008 15.6493 18.25 15.8334 18.25L17.1666 18.25C17.3507 18.25 17.5 18.1008 17.5 17.9167L17.5 16.5833Z"
			fill-opacity="1.000000" fill-rule="evenodd" />
	</g>
</svg>