<?xml version="1.0" encoding="UTF-8"?>
<svg viewBox="0 0 24 24" version="1.1" xmlns="http://www.w3.org/2000/svg" xmlns:xlink="http://www.w3.org/1999/xlink">
    <g id="批量填充" stroke="none" stroke-width="1">
        <path d="M20.25,13.5 C21.1681734,13.5 21.9211923,14.2071103 21.9941988,15.1064728 L22,15.25 L22,20.25 C22,21.1681734 21.2928897,21.9211923 20.3935272,21.9941988 L20.25,22 L3.75,22 C2.8318266,22 2.07880766,21.2928897 2.0058012,20.3935272 L2,20.25 L2,15.25 C2,14.3318266 2.70711027,13.5788077 3.60647279,13.5058012 L3.75,13.5 L20.25,13.5 Z M20.25,15 L3.75,15 C3.63165327,15 3.53251318,15.0822334 3.50660268,15.1926773 L3.5,15.25 L3.5,20.25 C3.5,20.3683467 3.58223341,20.4674868 3.69267729,20.4933973 L3.75,20.5 L20.25,20.5 C20.3683467,20.5 20.4674868,20.4177666 20.4933973,20.3073227 L20.5,20.25 L20.5,15.25 C20.5,15.1316533 20.4177666,15.0325132 20.3073227,15.0066027 L20.25,15 Z M10.75,2 C11.1642136,2 11.5,2.33578644 11.5,2.75 C11.5,3.12969577 11.2178461,3.44349096 10.8517706,3.49315338 L10.75,3.5 L5.75,3.5 C5.10279131,3.5 4.5704661,3.99187466 4.50645361,4.62219476 L4.5,4.75 L4.5,9.188 L4.96966991,8.71966991 C5.23593648,8.45340335 5.65260016,8.4291973 5.94621165,8.64705176 L6.03033009,8.71966991 C6.29659665,8.98593648 6.3208027,9.40260016 6.10294824,9.69621165 L6.03033009,9.78033009 L4.28033009,11.5303301 C4.01406352,11.7965966 3.59739984,11.8208027 3.30378835,11.6029482 L3.21966991,11.5303301 L1.46966991,9.78033009 C1.1767767,9.48743687 1.1767767,9.01256313 1.46966991,8.71966991 C1.73593648,8.45340335 2.15260016,8.4291973 2.44621165,8.64705176 L2.53033009,8.71966991 L3,9.189 L3,4.75 C3,3.28746816 4.1417046,2.09159572 5.58247767,2.00501879 L5.75,2 L10.75,2 Z M21.25,10 C21.6642136,10 22,10.3357864 22,10.75 C22,11.1296958 21.7178461,11.443491 21.3517706,11.4931534 L21.25,11.5 L18.25,11.5 C17.8357864,11.5 17.5,11.1642136 17.5,10.75 C17.5,10.3703042 17.7821539,10.056509 18.1482294,10.0068466 L18.25,10 L21.25,10 Z M16.25,10 C16.6642136,10 17,10.3357864 17,10.75 C17,11.1296958 16.7178461,11.443491 16.3517706,11.4931534 L16.25,11.5 L13.25,11.5 C12.8357864,11.5 12.5,11.1642136 12.5,10.75 C12.5,10.3703042 12.7821539,10.056509 13.1482294,10.0068466 L13.25,10 L16.25,10 Z M13.25,4 C13.6296958,4 13.943491,4.28215388 13.9931534,4.64822944 L14,4.75 L14,8.75 C14,9.16421356 13.6642136,9.5 13.25,9.5 C12.8703042,9.5 12.556509,9.21784612 12.5068466,8.85177056 L12.5,8.75 L12.5,4.75 C12.5,4.33578644 12.8357864,4 13.25,4 Z M21.25,4 C21.6296958,4 21.943491,4.28215388 21.9931534,4.64822944 L22,4.75 L22,8.75 C22,9.16421356 21.6642136,9.5 21.25,9.5 C20.8703042,9.5 20.556509,9.21784612 20.5068466,8.85177056 L20.5,8.75 L20.5,4.75 C20.5,4.33578644 20.8357864,4 21.25,4 Z M16.25,2 C16.6642136,2 17,2.33578644 17,2.75 C17,3.12969577 16.7178461,3.44349096 16.3517706,3.49315338 L16.25,3.5 L13.25,3.5 C12.8357864,3.5 12.5,3.16421356 12.5,2.75 C12.5,2.37030423 12.7821539,2.05650904 13.1482294,2.00684662 L13.25,2 L16.25,2 Z M21.25,2 C21.6642136,2 22,2.33578644 22,2.75 C22,3.12969577 21.7178461,3.44349096 21.3517706,3.49315338 L21.25,3.5 L18.25,3.5 C17.8357864,3.5 17.5,3.16421356 17.5,2.75 C17.5,2.37030423 17.7821539,2.05650904 18.1482294,2.00684662 L18.25,2 L21.25,2 Z"></path>
    </g>
</svg>