<?xml version="1.0" encoding="utf-8"?>
<!-- Generator: Adobe Illustrator 21.0.0, SVG Export Plug-In . SVG Version: 6.00 Build 0)  -->
<svg version="1.1" id="Layer_1" xmlns="http://www.w3.org/2000/svg" xmlns:xlink="http://www.w3.org/1999/xlink" x="0px" y="0px"
	 viewBox="0 0 24 24" xml:space="preserve">
<g id="Icon">
	<g id="_x36_.21版本" transform="translate(-414.000000, -2237.000000)">
		<g id="网站通用图标" transform="translate(100.000000, 1221.000000)">
			<g id="boat" transform="translate(312.000000, 1015.000000)">
				<path id="Shape" class="st0" d="M15,4v1h-2V4H15z M14,11.1l5.4,1.8l2.4,0.8l-1.1,4c-0.5-0.3-0.9-0.7-1.1-0.9L18,15l-1.5,1.7
					C16.2,17.1,15.2,18,14,18s-2.1-0.9-2.5-1.3L10,15l-1.5,1.7c-0.2,0.2-0.6,0.6-1.1,0.9l-1.1-4l2.4-0.8L14,11.1z M17,2h-6v3H8
					C6.9,5,6,5.9,6,7v4.6L4.7,12c-0.3,0.1-0.5,0.3-0.6,0.5C4,12.8,4,13.1,4.1,13.3L6,20h0c1.6,0,3-0.9,4-2c1,1.1,2.4,2,4,2
					s3-0.9,4-2c1,1.1,2.4,2,4,2h0l1.9-6.7c0.1-0.3,0.1-0.5-0.1-0.8c-0.1-0.2-0.3-0.4-0.6-0.5L22,11.6V7c0-1.1-0.9-2-2-2h-3V2z M8,11
					V7h12v4l-6-2L8,11z M18,20.7c-1.2,0.9-2.6,1.3-4,1.3s-2.8-0.4-4-1.3C8.8,21.5,7.4,22,6,22H4v2h2c1.4,0,2.7-0.4,4-1
					c1.3,0.6,2.6,1,4,1s2.7-0.3,4-1c1.3,0.6,2.6,1,4,1h2v-2h-2C20.6,22,19.2,21.5,18,20.7z"/>
			</g>
		</g>
	</g>
</g>
</svg>
