<?xml version="1.0" encoding="utf-8"?>
<!-- Generator: Adobe Illustrator 21.0.0, SVG Export Plug-In . SVG Version: 6.00 Build 0)  -->
<svg version="1.1" id="Layer_1" xmlns="http://www.w3.org/2000/svg" xmlns:xlink="http://www.w3.org/1999/xlink" x="0px" y="0px"
	 viewBox="0 0 24 24" xml:space="preserve">
<g id="Icon">
	<g id="UI-icons-英文名" transform="translate(-208.000000, -1558.000000)">
		<g id="网站通用图标" transform="translate(101.000000, 1053.000000)">
			<g id="calculator" transform="translate(104.000000, 504.000000)">
				<path class="calculator" d="M23.1,2H6.9C6.4,2,6,2.4,6,3V23c0,0.5,0.4,1,0.9,1h16.2c0.5,0,0.9-0.4,0.9-1V3C24,2.4,23.6,2,23.1,2z
					 M22,22H8V4h14L22,22z M10.9,13h8.3c0.5,0,0.9-0.5,0.9-1V7c0-0.6-0.4-1-0.9-1h-8.3C10.4,6,10,6.5,10,7V12
					C10,12.5,10.4,13,10.9,13z M12,8h6v3h-6V8z M9.9,17.8h0.6v0.6c0,0.5,0.4,1,0.9,1s0.9-0.4,0.9-1v-0.6h0.5c0.5,0,0.9-0.4,0.9-1
					s-0.4-1-0.9-1h-0.5v-0.6c0-0.5-0.4-1-0.9-1s-0.9,0.4-0.9,1v0.6H9.9c-0.5,0-0.9,0.4-0.9,1C9,17.4,9.4,17.8,9.9,17.8z M17.2,14.4
					c-0.5,0-0.9,0.4-0.9,1s0.4,1,0.9,1h2.9c0.5,0,0.9-0.4,0.9-1s-0.4-1-0.9-1H17.2z M20.1,18.5h-2.9c-0.5,0-0.9,0.4-0.9,1
					s0.4,1,0.9,1h2.9c0.5,0,0.9-0.4,0.9-1S20.6,18.5,20.1,18.5z"/>
			</g>
		</g>
	</g>
</g>
</svg>
