<?xml version="1.0" encoding="utf-8"?>
<!-- Generator: Adobe Illustrator 21.0.0, SVG Export Plug-In . SVG Version: 6.00 Build 0)  -->
<svg version="1.1" id="Layer_1" xmlns="http://www.w3.org/2000/svg" xmlns:xlink="http://www.w3.org/1999/xlink" x="0px" y="0px"
	 viewBox="0 0 24 24" xml:space="preserve">
<g id="Icon">
	<g id="UI-icons-英文名" transform="translate(-102.000000, -1728.000000)">
		<g id="网站通用图标" transform="translate(101.000000, 1053.000000)">
			<g id="calendar" transform="translate(0.000000, 674.000000)">
				<path class="svg-calendar-w" d="M22.2,4H20V3c0-0.5-0.5-1-1-1s-1,0.5-1,1v1H8V3c0-0.5-0.5-1-1-1S6,2.6,6,3v1H3.8C2.8,4,2,5,2,6
					v16c0,1,0.8,2,1.8,2h18.5c1,0,1.8-1,1.8-2V6C24,5,23.2,4,22.2,4z M4,6h2v0.4C6,6.7,6.5,7,7,7s1-0.3,1-0.6V6h10v0.4
					C18,6.7,18.5,7,19,7s1-0.3,1-0.6V6h2v2H4V6z M22,22H4V10h18V22z"/>
				<path class="svg-calendar-r rec01" d="M7,13h2c0.6,0,1,0.4,1,1l0,0c0,0.6-0.4,1-1,1H7c-0.6,0-1-0.4-1-1l0,0C6,13.4,6.4,13,7,13z
					"/>
				<path class="svg-calendar-r rec02" d="M7,17h2c0.6,0,1,0.4,1,1l0,0c0,0.6-0.4,1-1,1H7c-0.6,0-1-0.4-1-1l0,0
					C6,17.4,6.4,17,7,17z"/>
				<path class="svg-calendar-r rec03" d="M12,13h2c0.6,0,1,0.4,1,1l0,0c0,0.6-0.4,1-1,1h-2c-0.6,0-1-0.4-1-1l0,0
					C11,13.4,11.4,13,12,13z"/>
				<path class="svg-calendar-r rec04" d="M12,17h2c0.6,0,1,0.4,1,1l0,0c0,0.6-0.4,1-1,1h-2c-0.6,0-1-0.4-1-1l0,0
					C11,17.4,11.4,17,12,17z"/>
				<path class="svg-calendar-r rec05" d="M17,13h2c0.6,0,1,0.4,1,1l0,0c0,0.6-0.4,1-1,1h-2c-0.6,0-1-0.4-1-1l0,0
					C16,13.4,16.4,13,17,13z"/>
			</g>
		</g>
	</g>
</g>
</svg>
