<?xml version="1.0" encoding="utf-8"?>
<!-- Generator: Adobe Illustrator 26.0.2, SVG Export Plug-In . SVG Version: 6.00 Build 0)  -->
<svg version="1.1" id="图层_1" xmlns="http://www.w3.org/2000/svg" xmlns:xlink="http://www.w3.org/1999/xlink" x="0px" y="0px"
	 viewBox="0 0 16 16" style="enable-background:new 0 0 16 16;" xml:space="preserve">
<style type="text/css">
	.st0{fill:none;}
</style>
<rect id="矩形" class="st0" />
<path id="形状" class="st1" d="M4,6h2v2H4V6z M7,8h2V6H7V8z M10,8h2V6h-2V8z M4,12h2v-2H4V12z M7,12h2v-2H7V12z M10,12h2v-2h-2V12
	z M15.5,4v9c0,1.4-1.1,2.5-2.5,2.5H3c-1.4,0-2.5-1.1-2.5-2.5V4c0-1.4,1.1-2.5,2.5-2.5h1.2c0-0.4,0.3-0.8,0.8-0.8S5.8,1,5.8,1.5h3.5
	c0-0.4,0.3-0.8,0.8-0.8s0.8,0.3,0.8,0.8H13C14.4,1.5,15.5,2.6,15.5,4z M14.5,4c0-0.8-0.7-1.5-1.5-1.5h-2.2v1c0,0.4-0.3,0.8-0.8,0.8
	S9.2,3.9,9.2,3.5v-1H5.8v1c0,0.4-0.3,0.8-0.8,0.8S4.2,3.9,4.2,3.5v-1H3C2.2,2.5,1.5,3.2,1.5,4v9c0,0.8,0.7,1.5,1.5,1.5h10
	c0.8,0,1.5-0.7,1.5-1.5V4z"/>
</svg>
