<?xml version="1.0" encoding="UTF-8"?>
<svg viewBox="0 0 24 24" version="1.1" xmlns="http://www.w3.org/2000/svg" xmlns:xlink="http://www.w3.org/1999/xlink">
    <g id="图标/面性/卡片" stroke="none" stroke-width="1">
        <path d="M19,15.2 C20.1045695,15.2 21,16.0954305 21,17.2 L21,19 C21,20.1045695 20.1045695,21 19,21 L14.6,21 C13.4954305,21 12.6,20.1045695 12.6,19 L12.6,17.2 C12.6,16.0954305 13.4954305,15.2 14.6,15.2 L19,15.2 Z M9.4,12 C10.5045695,12 11.4,12.8954305 11.4,14 L11.4,19 C11.4,20.1045695 10.5045695,21 9.4,21 L5,21 C3.8954305,21 3,20.1045695 3,19 L3,14 C3,12.8954305 3.8954305,12 5,12 L9.4,12 Z M19,3 C20.1045695,3 21,3.8954305 21,5 L21,12 C21,13.1045695 20.1045695,14 19,14 L14.6,14 C13.4954305,14 12.6,13.1045695 12.6,12 L12.6,5 C12.6,3.8954305 13.4954305,3 14.6,3 L19,3 Z M9.4,3 C10.5045695,3 11.4,3.8954305 11.4,5 L11.4,8.8 C11.4,9.9045695 10.5045695,10.8 9.4,10.8 L5,10.8 C3.8954305,10.8 3,9.9045695 3,8.8 L3,5 C3,3.8954305 3.8954305,3 5,3 L9.4,3 Z" id="形状"></path>
    </g>
</svg>