<?xml version="1.0" encoding="UTF-8"?>
<svg viewBox="0 0 22 22" version="1.1" xmlns="http://www.w3.org/2000/svg" xmlns:xlink="http://www.w3.org/1999/xlink" x="0px" y="0px" xml:space="preserve">
    <g id="Icon">
        <g id="UI-icons-英文名" transform="translate(-1038.000000, -1902.000000)" >
            <g id="网站通用图标" transform="translate(101.000000, 1053.000000)">
                <g id="checkedtrue" transform="translate(937.000000, 849.000000)">
                    <g id="Group">
                        <path class="svg-checkedtrue-w" d="M10.6666667,22 L2,22 C0.895930071,21.9987171 0.0012051411,21.046268 -3.33431061e-16,19.8709677 L-3.33431061e-16,0 L16,0 C17.1040699,0.00128289214 17.9987949,0.953732012 18,2.12903226 L18,12.0648639 C18,12.4568079 17.7015232,12.7745413 17.3333333,12.7745413 C16.9651435,12.7745413 16.6666667,12.4568079 16.6666667,12.0648639 L16.6666667,2.12903226 C16.6662992,1.73725039 16.3680375,1.41974603 16,1.41935484 L1.33333333,1.41935484 L1.33333333,19.8709677 C1.33370082,20.2627496 1.63196249,20.580254 2,20.5806452 L10.6666667,20.5806452 C11.0348565,20.5806452 11.3333333,20.8983786 11.3333333,21.2903226 C11.3333333,21.6822666 11.0348565,22 10.6666667,22 Z" id="Shape"></path>
                        <path class="svg-checkedtrue-r1" d="M11.7089844,5.85449563 L4.14648438,5.85449563 C3.76678861,5.85449563 3.45898438,5.54669139 3.45898438,5.16699563 C3.45898438,4.78729986 3.76678861,4.47949563 4.14648438,4.47949563 L11.7089844,4.47949563 C12.0886801,4.47949563 12.3964844,4.78729986 12.3964844,5.16699563 C12.3964844,5.54669139 12.0886801,5.85449563 11.7089844,5.85449563 Z" id="Shape"></path>
                        <path class="svg-checkedtrue-r2" d="M11.7089844,9.97949563 L4.14648438,9.97949563 C3.76678861,9.97949563 3.45898438,9.67169139 3.45898438,9.29199563 C3.45898438,8.91229986 3.76678861,8.60449563 4.14648438,8.60449563 L11.7089844,8.60449563 C12.0886801,8.60449563 12.3964844,8.91229986 12.3964844,9.29199563 C12.3964844,9.67169139 12.0886801,9.97949563 11.7089844,9.97949563 Z" id="Shape"></path>
                        <path class="svg-checkedtrue-c" d="M14.7931241,21.2503067 C14.6015405,21.4418719 14.2905314,21.4414544 14.0882267,21.2391341 L10.0714762,17.2220744 C9.80301998,16.9536181 9.80301999,16.5183644 10.0714763,16.2499082 C10.3399326,15.9814519 10.7751862,15.9814519 11.0436425,16.2499081 L14.4462313,19.6528338 L20.2805625,13.8191556 C20.5490188,13.5506993 20.9842725,13.5506993 21.2527287,13.8191556 C21.521185,14.0876119 21.521185,14.5228656 21.2527287,14.7913219 L14.7931241,21.2503067 Z" id="Shape"></path>
                    </g>
                </g>
            </g>
        </g>
    </g>
</svg>
