<?xml version="1.0" encoding="utf-8"?>
<!-- Generator: Adobe Illustrator 21.0.0, SVG Export Plug-In . SVG Version: 6.00 Build 0)  -->
<svg version="1.1" id="Layer_1" xmlns="http://www.w3.org/2000/svg" xmlns:xlink="http://www.w3.org/1999/xlink" x="0px" y="0px"
	 viewBox="0 0 24 24" xml:space="preserve">
<g id="Icon">
	<g id="UI-icons-英文名" transform="translate(-939.000000, -307.000000)">
		<g id="方向性图标" transform="translate(101.000000, 304.000000)">
			<g id="chevron-left" transform="translate(832.000000, 0.000000)">
				<path id="Shape" class="st0" d="M23,24c-0.2,0-0.5-0.1-0.6-0.2l-9.9-8C12.1,15.6,12,15.3,12,15c0-0.3,0.1-0.6,0.4-0.8l9.9-7.9
					c0.4-0.4,1.1-0.3,1.4,0.2c0.4,0.4,0.3,1.1-0.2,1.4L14.7,15l8.9,7.2c0.4,0.4,0.5,1,0.2,1.4C23.5,23.9,23.3,24,23,24z"/>
			</g>
		</g>
	</g>
</g>
</svg>
