<?xml version="1.0" encoding="utf-8"?>
<!-- Generator: Adobe Illustrator 21.0.0, SVG Export Plug-In . SVG Version: 6.00 Build 0)  -->
<svg version="1.1" id="Layer_1" xmlns="http://www.w3.org/2000/svg" xmlns:xlink="http://www.w3.org/1999/xlink" x="0px" y="0px"
	 viewBox="0 0 24 24" xml:space="preserve">
<g id="Icon">
	<g id="UI-icons-英文名" transform="translate(-311.000000, -1987.000000)">
		<g id="网站通用图标" transform="translate(99.000000, 1053.000000)">
			<g id="clearfilter" transform="translate(210.000000, 932.000000)">
				<path id="Shape" class="st0" d="M21.8,5.2C21.5,4.5,20.8,4,20,4H5.9C5.2,4,4.5,4.5,4.1,5.2S4,6.8,4.6,7.4l6.4,6.3V20
					c0,0.2,0.1,0.4,0.2,0.6l2.9,3.1c0.2,0.2,0.4,0.3,0.6,0.3c0.1,0,0.2,0,0.3-0.1c0.3-0.1,0.5-0.4,0.5-0.8v-9.5l5.8-6.3
					C22,6.8,22.1,6,21.8,5.2z M19.9,6.4l-5.8,6.4c-0.2,0.2-0.2,0.4-0.2,0.6V21l-1.2-1.4v-6.2c0-0.2-0.1-0.4-0.2-0.6L6.1,6.4
					C6,6.3,6,6.2,6,6.2C6,6.1,6.1,6,6.2,6h13.5C19.9,6,20,6.1,20,6.2C20,6.2,20,6.3,19.9,6.4z"/>
				<path id="Rectangle-4" class="st0" d="M19.6,17.2l4.2,4.2c0.4,0.4,0.4,1,0,1.4l0,0c-0.4,0.4-1,0.4-1.4,0l-4.2-4.2
					c-0.4-0.4-0.4-1,0-1.4l0,0C18.6,16.8,19.2,16.8,19.6,17.2z"/>
				<path id="Rectangle-4_1_" class="st0" d="M18.2,21.4l4.2-4.2c0.4-0.4,1-0.4,1.4,0l0,0c0.4,0.4,0.4,1,0,1.4l-4.2,4.2
					c-0.4,0.4-1,0.4-1.4,0l0,0C17.8,22.4,17.8,21.8,18.2,21.4z"/>
			</g>
		</g>
	</g>
</g>
</svg>
