<?xml version="1.0" standalone="no"?><svg t="1551136817521" class="icon" style="" viewBox="0 0 1024 1024" version="1.1" xmlns="http://www.w3.org/2000/svg" p-id="2412" xmlns:xlink="http://www.w3.org/1999/xlink"><path d="M827.871087 196.128913C743.498468 111.756293 631.321596 65.290005 512 65.290005c-119.319549 0-231.499491 46.465265-315.871087 130.837884S65.290005 392.680451 65.290005 512s46.465265 231.499491 130.837884 315.871087 196.551538 130.837884 315.871087 130.837884c119.321596 0 231.499491-46.465265 315.871087-130.837884S958.708971 631.319549 958.708971 512 912.243707 280.500509 827.871087 196.128913zM531.556405 917.246651l0-74.145697c0-11.31572-9.174963-20.491707-20.491707-20.491707-11.316743 0-20.491707 9.174963-20.491707 20.491707l0 74.059739C283.276738 906.322857 116.693746 739.164766 106.755396 531.634176l72.351841 0c11.31572 0 20.491707-9.174963 20.491707-20.491707 0-11.31572-9.174963-20.491707-20.491707-20.491707l-72.273047 0c10.769274-206.737528 177.01253-373.005342 383.740848-383.813502l0 72.346725c0 11.316743 9.174963 20.491707 20.491707 20.491707 11.31572 0 20.491707-9.17394 20.491707-20.491707L531.558451 106.752326c207.593012 9.901511 374.807385 176.539762 385.609405 383.89946l-74.142627 0c-11.316743 0-20.491707 9.174963-20.491707 20.491707 0 11.316743 9.174963 20.491707 20.491707 20.491707l74.220399 0C907.275555 739.78796 739.720422 907.317511 531.556405 917.246651z" p-id="2413"></path><path d="M532.098757 503.118726 532.098757 258.240529c0-11.316743-9.174963-20.491707-20.491707-20.491707-11.31572 0-20.491707 9.17394-20.491707 20.491707l0 254.66612c0 7.858992 4.429893 14.677281 10.924817 18.114566L693.447539 722.42757c4.002151 4.000104 9.245572 6.001691 14.490016 6.001691s10.487865-2.001587 14.490016-6.001691c8.002254-8.002254 8.002254-20.977777 0-28.980032L532.098757 503.118726z" p-id="2414"></path></svg>