<?xml version="1.0" encoding="utf-8"?>
<!-- Generator: Adobe Illustrator 21.0.0, SVG Export Plug-In . SVG Version: 6.00 Build 0)  -->
<svg version="1.1" id="Layer_1" xmlns="http://www.w3.org/2000/svg" xmlns:xlink="http://www.w3.org/1999/xlink" x="0px" y="0px"
	 viewBox="0 0 24 24" xml:space="preserve">
<g id="Icon">
	<g id="UI-icons-英文名" transform="translate(-729.000000, -765.000000)">
		<g id="提示建议性图标" transform="translate(101.000000, 761.000000)">
			<g id="close" transform="translate(624.000000, 0.000000)">
				<path id="Shape" class="st0" d="M17.4,16l6.3-6.3c0.4-0.4,0.4-1,0-1.4c-0.4-0.4-1-0.4-1.4,0L16,14.6L9.7,8.3
					c-0.4-0.4-1-0.4-1.4,0c-0.4,0.4-0.4,1,0,1.4l6.3,6.3l-6.3,6.3c-0.4,0.4-0.4,1,0,1.4C8.5,23.9,8.7,24,9,24c0.3,0,0.5-0.1,0.7-0.3
					l6.3-6.3l6.3,6.3c0.2,0.2,0.4,0.3,0.7,0.3s0.5-0.1,0.7-0.3c0.4-0.4,0.4-1,0-1.4L17.4,16z"/>
			</g>
		</g>
	</g>
</g>
</svg>
