<?xml version="1.0" standalone="no"?><svg t="1574422187643" class="icon" viewBox="0 0 1390 1024" version="1.1" xmlns="http://www.w3.org/2000/svg" p-id="1100" xmlns:xlink="http://www.w3.org/1999/xlink" width="271.484375" height="200">><path d="M819.555555 17.777778C978.844445 125.866666 1080.888891 307.2 1080.888891 512 1080.888891 716.8 978.844445 898.133336 819.555555 1006.222219 1035.733336 943.644445 1194.666664 750.933336 1194.666664 512 1194.666664 273.066664 1035.733336 80.355555 819.555555 17.777778L819.555555 17.777778ZM990.222219 17.777778C1149.511109 125.866666 1251.555555 307.2 1251.555555 512 1251.555555 716.8 1149.511109 898.133336 990.222219 1006.222219 1206.4 943.644445 1365.333336 750.933336 1365.333336 512 1365.333336 273.066664 1206.4 80.355555 990.222219 17.777778L990.222219 17.777778ZM512 0C227.555555 0 0 227.555555 0 512 0 796.444445 227.555555 1024 512 1024 796.444445 1024 1024 796.444445 1024 512 1024 227.555555 796.444445 0 512 0L512 0ZM438.857143 190.171429 512 190.171429 512 264C595.382857 280.120686 658.285714 349.502171 658.285714 433.371429L512 433.371429C512 414.193371 495.542857 398.628571 475.428571 398.628571 455.314286 398.628571 438.857143 414.193371 438.857143 433.371429 438.857143 443.377371 439.625143 467.836343 480 468.114286 548.169143 468.114286 658.285714 542.880914 658.285714 641.828571 658.285714 725.697829 595.382857 795.079314 512 811.2L512 885.028571 438.857143 885.028571 438.857143 811.2C355.474286 795.079314 292.571429 725.697829 292.571429 641.828571L438.857143 641.828571C438.857143 661.006629 455.314286 676.571429 475.428571 676.571429 495.542857 676.571429 512 661.006629 512 641.828571 512 631.822629 511.232 607.363657 470.857143 607.085714 402.761143 607.085714 292.571429 532.319086 292.571429 433.371429 292.571429 349.502171 355.474286 280.120686 438.857143 264L438.857143 190.171429 438.857143 190.171429Z" p-id="1101"></path></svg>