<?xml version="1.0" encoding="utf-8"?>
<!-- Generator: Adobe Illustrator 26.0.2, SVG Export Plug-In . SVG Version: 6.00 Build 0)  -->
<svg version="1.1" id="图层_1" xmlns="http://www.w3.org/2000/svg" xmlns:xlink="http://www.w3.org/1999/xlink" x="0px" y="0px"
	 viewBox="0 0 16 16" style="enable-background:new 0 0 16 16;" xml:space="preserve">
<style type="text/css">
	.st0{fill:none;}
</style>
<rect id="size" class="st0"/>
<path id="形状结合" class="st1" d="M8.87,1.2c0.55,0,1.05,0.29,1.33,0.79l0.07,0.13l0.41,0.97l0.21,0.12l1.07-0.12
	c0.46-0.06,0.93,0.11,1.27,0.45l0.11,0.12l0.1,0.15l0.9,1.55c0.27,0.47,0.28,1.04-0.01,1.54l-0.1,0.15l-0.64,0.85v0.24l0.64,0.85
	c0.28,0.38,0.38,0.86,0.25,1.32l-0.05,0.16l-0.07,0.16l-0.9,1.55c-0.28,0.47-0.78,0.76-1.36,0.76l-0.16-0.01l-1.07-0.13l-0.21,0.12
	l-0.41,0.97c-0.18,0.44-0.56,0.75-1.03,0.87l-0.15,0.04L8.92,14.8H7.12c-0.55,0-1.05-0.29-1.33-0.79l-0.07-0.13l-0.42-0.97
	l-0.21-0.12l-1.05,0.13c-0.46,0.06-0.93-0.11-1.27-0.45l-0.11-0.12l-0.1-0.15l-0.9-1.55c-0.27-0.47-0.28-1.04,0.01-1.54l0.1-0.15
	L2.4,8.12V7.88L1.76,7.03C1.48,6.65,1.38,6.17,1.5,5.71l0.05-0.16l0.07-0.16l0.02-0.05l0.87-1.5C2.8,3.37,3.3,3.08,3.88,3.08
	l0.16,0.01l1.05,0.12L5.3,3.09l0.42-0.97C5.9,1.68,6.28,1.37,6.75,1.25l0.16-0.04L7.09,1.2H8.87z M7.14,2.19L7.03,2.21
	C6.85,2.23,6.7,2.35,6.63,2.52L6.15,3.65C6.1,3.75,6.02,3.83,5.94,3.88l-0.5,0.29c-0.1,0.05-0.21,0.07-0.3,0.06l-1.2-0.15l-0.1-0.01
	c-0.19,0-0.36,0.1-0.46,0.27l-0.87,1.5L2.46,5.93C2.4,6.1,2.42,6.28,2.53,6.42l0.74,0.98c0.06,0.08,0.1,0.19,0.1,0.3v0.57
	c0,0.11-0.04,0.22-0.1,0.3L2.56,9.54L2.5,9.62c-0.1,0.16-0.08,0.36,0,0.52l0.87,1.5l0.06,0.08c0.11,0.13,0.29,0.21,0.47,0.18
	l1.22-0.15c0.11-0.01,0.22,0.01,0.3,0.06l0.51,0.29c0.1,0.05,0.17,0.13,0.21,0.23l0.47,1.1l0.04,0.08c0.1,0.16,0.27,0.27,0.46,0.27
	h1.75l0.1-0.01c0.18-0.02,0.33-0.15,0.4-0.32l0.48-1.13c0.05-0.1,0.12-0.18,0.21-0.23l0.5-0.29c0.1-0.05,0.21-0.07,0.3-0.06
	l1.2,0.15l0.1,0.01c0.19,0,0.36-0.1,0.46-0.27l0.87-1.5l0.05-0.08c0.06-0.17,0.04-0.35-0.07-0.5l-0.74-0.98
	c-0.06-0.08-0.1-0.19-0.1-0.3V7.72c0-0.11,0.04-0.22,0.1-0.3l0.72-0.96l0.06-0.08c0.1-0.16,0.08-0.36,0-0.52l-0.87-1.5l-0.06-0.08
	c-0.11-0.13-0.29-0.21-0.47-0.18l-1.22,0.15c-0.11,0.01-0.22-0.01-0.3-0.06l-0.5-0.29c-0.1-0.05-0.17-0.13-0.21-0.23l-0.48-1.1
	L9.33,2.46C9.24,2.3,9.07,2.19,8.87,2.19H7.14z M8.04,5.38c1.44,0,2.62,1.18,2.62,2.62s-1.18,2.62-2.62,2.62S5.42,9.44,5.42,8
	S6.59,5.38,8.04,5.38z M8.04,6.39C7.15,6.39,6.42,7.1,6.42,8s0.73,1.61,1.61,1.61c0.9,0,1.61-0.73,1.61-1.61S8.93,6.39,8.04,6.39z"
	/>
</svg>
