<?xml version="1.0" encoding="utf-8"?>
<!-- Generator: Adobe Illustrator 21.0.0, SVG Export Plug-In . SVG Version: 6.00 Build 0)  -->
<svg version="1.1" id="Layer_1" xmlns="http://www.w3.org/2000/svg" xmlns:xlink="http://www.w3.org/1999/xlink" x="0px" y="0px"
	 viewBox="0 0 24 24" xml:space="preserve">
<g id="Icon">
	<g id="UI-icons-英文名" transform="translate(-1037.000000, -1389.000000)">
		<g id="网站通用图标" transform="translate(101.000000, 1053.000000)">
			<g id="conmentrefresh" transform="translate(936.000000, 336.000000)">
				<path id="Shape" class="st0" d="M23.2,12c-0.5,0-0.9,0.3-0.9,0.8c-0.2,2.6-1.4,5-3.3,6.8c-1.9,1.8-4.4,2.8-7,2.8
					c-2,0-4-0.6-5.7-1.7c-1.5-1-2.7-2.3-3.5-3.9h2.3c0.5,0,0.8-0.4,0.8-0.8C6,15.4,5.6,15,5.2,15H0.8C0.4,15,0,15.4,0,15.8v4.3
					C0,20.6,0.4,21,0.8,21s0.8-0.4,0.8-0.8v-2C2.6,19.7,3.9,21,5.4,22c2,1.3,4.3,2,6.6,2c3,0,6-1.1,8.2-3.2c2.2-2.1,3.6-4.9,3.8-7.9
					C24,12.4,23.7,12,23.2,12z M23.2,3c-0.5,0-0.8,0.4-0.8,0.8v2C21.4,4.3,20.1,3,18.6,2c-2-1.3-4.3-2-6.6-2C9,0,6,1.1,3.8,3.2
					C1.6,5.3,0.3,8.1,0,11.1C0,11.6,0.3,12,0.8,12c0.5,0,0.9-0.3,0.9-0.8c0.2-2.6,1.3-5,3.3-6.8c1.9-1.8,4.4-2.8,7-2.8
					c2,0,4,0.6,5.7,1.7c1.5,1,2.7,2.3,3.5,3.9h-2.3c-0.5,0-0.8,0.4-0.8,0.8C18,8.6,18.4,9,18.8,9h4.3C23.6,9,24,8.6,24,8.2V3.8
					C24,3.4,23.6,3,23.2,3z"/>
			</g>
		</g>
	</g>
</g>
</svg>
