<?xml version="1.0" encoding="utf-8"?>
<!-- Generator: Adobe Illustrator 21.0.0, SVG Export Plug-In . SVG Version: 6.00 Build 0)  -->
<svg version="1.1" id="Layer_1" xmlns="http://www.w3.org/2000/svg" xmlns:xlink="http://www.w3.org/1999/xlink" x="0px" y="0px"
	 viewBox="0 0 24 24" xml:space="preserve">
<g id="Icon">
	<g id="UI-icons-英文名" transform="translate(-207.000000, -1137.000000)">
		<g id="网站通用图标" transform="translate(100.000000, 1053.000000)">
			<g id="copy" transform="translate(105.000000, 84.000000)">
				<path id="Shape" class="st0" d="M23.5,5.6l-5-5.1c-0.1-0.1-0.2-0.2-0.3-0.3c0,0-0.1,0-0.1-0.1c0,0,0,0-0.1,0
					C17.8,0.1,17.6,0,17.3,0H9C8.1,0,7,1.1,7,2v1H6C5.1,3,4,4.1,4,5c0,0.6,0,6.3,0,17c0,0.9,1.1,2,2,2h13c0.9,0,2-1.1,2-2v-1h1
					c0.9,0,2-1.1,2-2V7C24,6.6,23.8,5.9,23.5,5.6z M18,3l3,3h-3L18,3z M19,22H6V5h1v14c0,0.9,1.2,2,2,2h10V22z M22,19H9V2h7v4
					c0,0.9,1.1,2,2,2h4L22,19z M17,10c0-0.6-0.4-1-0.8-1h-4.3C11.4,9,11,9.4,11,10s0.4,1,0.8,1h4.3C16.6,11,17,10.6,17,10z M20,13
					c0-0.6-0.4-1-0.8-1h-7.3c-0.5,0-0.8,0.4-0.8,1s0.4,1,0.8,1h7.3C19.6,14,20,13.6,20,13z M19,16c0-0.6-0.4-1-0.9-1h-6.2
					c-0.5,0-0.9,0.4-0.9,1s0.4,1,0.9,1h6.2C18.6,17,19,16.6,19,16z"/>
			</g>
		</g>
	</g>
</g>
</svg>
