<?xml version="1.0" standalone="no"?><svg t="1551136877546" viewBox="0 0 1024 1024" version="1.1" xmlns="http://www.w3.org/2000/svg" p-id="3388" xmlns:xlink="http://www.w3.org/1999/xlink" ><path d="M222.3 769c0 13.3 10.7 24 24 24H564v-48H246.3c-13.2 0-24 10.7-24 24zM723.7 279.1l-157.3-90.8c-4.8-2.8-10.8 0.7-10.8 6.2v181.6c0 5.5 6 9 10.8 6.2l157.3-90.8c4.8-2.7 4.8-9.6 0-12.4z" p-id="3389"></path><path d="M212.3 769c0 18.7 15.3 34 34 34H778c18.7 0 34-15.3 34-34s-15.3-34-34-34H246.3c-18.7 0-34 15.3-34 34zM778 755c7.7 0 14 6.3 14 14s-6.3 14-14 14H574v-28h204z m-224 28H246.3c-7.7 0-14-6.3-14-14s6.3-14 14-14H554v28zM900.4 64.8H379.8c-32.8 0-59.6 26.7-59.6 59.6v327.9c0 32.8 26.7 59.6 59.6 59.6h118.1v105.9c0 6.8 4.2 13 10.6 15.4 1.9 0.7 3.9 1.1 5.9 1.1 4.6 0 9.1-1.9 12.3-5.5l105.5-117h268.3c32.8 0 59.6-26.7 59.6-59.6V124.4c-0.1-32.9-26.8-59.6-59.7-59.6zM927 452.2c0 14.7-11.9 26.6-26.6 26.6H624.8c-4.7 0-9.1 2-12.3 5.4l-81.7 90.5v-79.5c0-9.1-7.4-16.5-16.5-16.5H379.8c-14.7 0-26.6-11.9-26.6-26.6V124.4c0-14.7 11.9-26.6 26.6-26.6h520.6c14.7 0 26.6 11.9 26.6 26.6v327.8z" p-id="3390"></path><path d="M728.7 270.5l-157.3-90.8c-5.4-3.1-11.8-3.1-17.2 0s-8.6 8.7-8.6 14.9v181.6c0 6.2 3.2 11.8 8.6 14.9 2.7 1.6 5.6 2.3 8.6 2.3s5.9-0.8 8.6-2.3l157.3-90.8c5.4-3.1 8.6-8.7 8.6-14.9s-3.3-11.8-8.6-14.9zM565.6 371.3V199.4l148.8 85.9-148.8 86zM163.3 896.1h697.4c28.6 0 51.8-23.2 51.8-51.8V559.1c0-9.1-7.4-16.5-16.5-16.5s-16.5 7.4-16.5 16.5v285.1c0 10.4-8.4 18.8-18.8 18.8H163.3c-10.4 0-18.8-8.4-18.8-18.8v-476c0-10.4 8.4-18.8 18.8-18.8h108.9c9.1 0 16.5-7.4 16.5-16.5s-7.4-16.5-16.5-16.5H163.3c-28.6 0-51.8 23.2-51.8 51.8v476c0 28.6 23.2 51.9 51.8 51.9zM943.5 926.6H80.1c-9.1 0-16.5 7.4-16.5 16.5s7.4 16.5 16.5 16.5h863.4c9.1 0 16.5-7.4 16.5-16.5s-7.4-16.5-16.5-16.5z" p-id="3391"></path></svg>