<?xml version="1.0" encoding="UTF-8"?>
<svg viewBox="0 0 24 24" version="1.1" xmlns="http://www.w3.org/2000/svg" xmlns:xlink="http://www.w3.org/1999/xlink">
    <g id="补充组件" stroke="none" stroke-width="1">
        <g id="画板" transform="translate(-233.000000, -104.000000)">
            <g id="线性/ic_cut_lined" transform="translate(233.000000, 104.000000)">
                <g id="编组" transform="translate(0.000000, 0.000000)">
                    <path d="M15.1069,5.75 C16.7832441,5.75 18.1524885,7.06143944 18.2449259,8.714611 L18.2499,8.893 L18.249,16.75 L21.25,16.75 C21.6642136,16.75 22,17.0857864 22,17.5 C22,17.8796958 21.7178461,18.193491 21.3517706,18.2431534 L21.25,18.25 L18.249,18.25 L18.2499,21.25 C18.2499,21.6642136 17.9141136,22 17.4999,22 C17.1202042,22 16.806409,21.7178461 16.7567466,21.3517706 L16.7499,21.25 L16.7499,8.893 C16.7499,8.0329918 16.0900407,7.32786894 15.2487185,7.25602778 L15.1069,7.25 L9.0009,7.25 C8.58668644,7.25 8.2509,6.91421356 8.2509,6.5 C8.2509,6.12030423 8.53305388,5.80650904 8.89912944,5.75684662 L9.0009,5.75 L15.1069,5.75 Z M6.4999,2 C6.87959577,2 7.19339096,2.28215388 7.24305338,2.64822944 L7.2499,2.75 L7.24984919,6.48480737 C7.24994957,6.48985949 7.25,6.49492385 7.25,6.5 L7.249,6.514 L7.2499,15.108 C7.2499,15.9680082 7.90886176,16.6722336 8.75008947,16.7439802 L8.8919,16.75 L15.0009,16.75 C15.4151136,16.75 15.7509,17.0857864 15.7509,17.5 C15.7509,17.8796958 15.4687461,18.193491 15.1026706,18.2431534 L15.0009,18.25 L8.8919,18.25 C7.21555587,18.25 5.84724369,16.9394928 5.7548706,15.2863855 L5.7499,15.108 L5.749,7.25 L2.75,7.25 C2.33578644,7.25 2,6.91421356 2,6.5 C2,6.12030423 2.28215388,5.80650904 2.64822944,5.75684662 L2.75,5.75 L5.749,5.75 L5.7499,2.75 C5.7499,2.33578644 6.08568644,2 6.4999,2 Z" id="形状结合"></path>
                </g>
            </g>
        </g>
    </g>
</svg>