<?xml version="1.0" encoding="UTF-8"?>
<svg viewBox="0 0 16 16" version="1.1" xmlns="http://www.w3.org/2000/svg" xmlns:xlink="http://www.w3.org/1999/xlink">
    <g id="日视图">
        <path d="M2.75,12.25 C3.16421356,12.25 3.5,12.5857864 3.5,13 C3.5,13.4142136 3.16421356,13.75 2.75,13.75 C2.33578644,13.75 2,13.4142136 2,13 C2,12.5857864 2.33578644,12.25 2.75,12.25 Z M13.5,12.5 C13.7761424,12.5 14,12.7238576 14,13 C14,13.2761424 13.7761424,13.5 13.5,13.5 L5.5,13.5 C5.22385763,13.5 5,13.2761424 5,13 C5,12.7238576 5.22385763,12.5 5.5,12.5 L13.5,12.5 Z M2.75,7.25 C3.16421356,7.25 3.5,7.58578644 3.5,8 C3.5,8.41421356 3.16421356,8.75 2.75,8.75 C2.33578644,8.75 2,8.41421356 2,8 C2,7.58578644 2.33578644,7.25 2.75,7.25 Z M13.5,7.5 C13.7761424,7.5 14,7.72385763 14,8 C14,8.27614237 13.7761424,8.5 13.5,8.5 L5.5,8.5 C5.22385763,8.5 5,8.27614237 5,8 C5,7.72385763 5.22385763,7.5 5.5,7.5 L13.5,7.5 Z M2.75,2.25 C3.16421356,2.25 3.5,2.58578644 3.5,3 C3.5,3.41421356 3.16421356,3.75 2.75,3.75 C2.33578644,3.75 2,3.41421356 2,3 C2,2.58578644 2.33578644,2.25 2.75,2.25 Z M13.5,2.5 C13.7761424,2.5 14,2.72385763 14,3 C14,3.27614237 13.7761424,3.5 13.5,3.5 L5.5,3.5 C5.22385763,3.5 5,3.27614237 5,3 C5,2.72385763 5.22385763,2.5 5.5,2.5 L13.5,2.5 Z"></path>
    </g>
</svg>