<?xml version="1.0" encoding="utf-8"?>
<!-- Generator: Adobe Illustrator 26.0.2, SVG Export Plug-In . SVG Version: 6.00 Build 0)  -->
<svg version="1.1" id="图层_1" xmlns="http://www.w3.org/2000/svg" xmlns:xlink="http://www.w3.org/1999/xlink" x="0px" y="0px"
	 viewBox="0 0 16 16" style="enable-background:new 0 0 16 16;" xml:space="preserve">
<style type="text/css">
	.st0{fill:none;}
</style>
<rect id="售罄-sold-out备份-3" class="st0"/>
<path id="形状结合" class="st1" d="M12.46,5.34c0.25,0,0.49,0.25,0.49,0.49l0,0v7.19c0,0.98-0.82,1.8-1.8,1.8l0,0H4.53
	c-0.98,0-1.8-0.82-1.8-1.8l0,0V5.83c0-0.25,0.25-0.49,0.49-0.49s0.49,0.25,0.49,0.49l0,0v7.19c0,0.41,0.33,0.82,0.82,0.82l0,0h6.62
	c0.41,0,0.82-0.33,0.82-0.82l0,0V5.83C11.97,5.59,12.21,5.34,12.46,5.34z M6.32,6.81c0.25,0,0.49,0.25,0.49,0.49v4.5
	c0,0.16-0.08,0.25-0.16,0.33c-0.08,0.08-0.25,0.16-0.33,0.16c-0.33,0-0.49-0.25-0.49-0.49v-4.5C5.83,7.06,6.08,6.81,6.32,6.81z
	 M9.35,6.81c0.25,0,0.49,0.25,0.49,0.49v4.5c0,0.25-0.25,0.49-0.49,0.49s-0.49-0.25-0.49-0.49v-4.5C8.86,7.06,9.1,6.81,9.35,6.81z
	 M9.35,1.17c0.57,0,1.06,0.33,1.23,0.82l0,0l0.49,1.72h2.94c0.25,0,0.49,0.25,0.49,0.49c0,0.25-0.25,0.49-0.49,0.49l0,0H1.99
	C1.75,4.69,1.5,4.44,1.5,4.2c0-0.25,0.25-0.49,0.49-0.49l0,0h2.86l0.65-1.72C5.67,1.5,6.16,1.17,6.65,1.17l0,0H9.35z M9.35,2.07
	H6.73c-0.16,0-0.33,0.08-0.33,0.16l0,0L5.92,3.63h4.17L9.68,2.24C9.59,2.15,9.51,2.07,9.35,2.07L9.35,2.07z"/>
</svg>
