<?xml version="1.0" encoding="utf-8"?>
<!-- Generator: Adobe Illustrator 26.0.2, SVG Export Plug-In . SVG Version: 6.00 Build 0)  -->
<svg version="1.1" id="图层_1" xmlns="http://www.w3.org/2000/svg" xmlns:xlink="http://www.w3.org/1999/xlink" x="0px" y="0px"
	 viewBox="0 0 16 16" style="enable-background:new 0 0 16 16;" xml:space="preserve">
<style type="text/css">
	.st0{fill:none;}
	.st1{fill-rule:evenodd;clip-rule:evenodd;}
</style>
<polygon id="Fill-1" class="st0" points="0,16 16,16 16,0 0,0 "/>
<g id="编组" transform="translate(3.949450, 3.950050)">
	<path id="形状结合" class="st1" d="M0.9,0.2l3.1,3.1l3.1-3.1c0.2-0.2,0.6-0.2,0.8,0s0.2,0.6,0,0.8L4.8,4.1l3.1,3.1
		c0.2,0.2,0.2,0.6,0,0.8c-0.2,0.2-0.6,0.2-0.8,0L4.1,4.8L0.9,7.9c-0.2,0.2-0.6,0.2-0.8,0c-0.2-0.2-0.2-0.6,0-0.8L3.3,4L0.2,0.9
		c-0.2-0.2-0.2-0.6,0-0.8S0.7-0.1,0.9,0.2z"/>
</g>
</svg>
