<?xml version="1.0" encoding="UTF-8"?>
<svg viewBox="0 0 16 16" version="1.1" xmlns="http://www.w3.org/2000/svg" xmlns:xlink="http://www.w3.org/1999/xlink">
    <!-- Generator: Sketch 50 (54983) - http://www.bohemiancoding.com/sketch -->
    <defs></defs>
    <g id="Icon">
        <g id="UI-icons" transform="translate(-352.000000, -869.000000)">
            <g id="Icon/导出" transform="translate(352.000000, 869.000000)">
                <path d="M16.001,16 L1.5,16 C0.671947554,15.9990961 0.000903855827,15.3280524 8.8817842e-16,14.5 L8.8817842e-16,0 L14.501,0 C15.3290524,0.000903855827 16.0000961,0.671947554 16.001,1.5 L16.001,5 C16.001,5.27614237 15.7771424,5.5 15.501,5.5 C15.2248576,5.5 15.001,5.27614237 15.001,5 L15.001,1.5 C15.0007244,1.22397187 14.7770281,1.00027561 14.501,1 L1,1 L1,14.5 C1.00027561,14.7760281 1.22397187,14.9997244 1.5,15 L15.001,15 L15.001,13.00415 C15.001,12.7280076 15.2248576,12.50415 15.501,12.50415 C15.7771424,12.50415 16.001,12.7280076 16.001,13.00415 L16.001,16 Z" id="Shape"></path>
                <path d="M15.501,10 L4.46875,10 C4.19260763,10 3.96875,9.77614237 3.96875,9.5 C3.96875,9.22385763 4.19260763,9 4.46875,9 L15.501,9 C15.7771424,9 16.001,9.22385763 16.001,9.5 C16.001,9.77614237 15.7771424,10 15.501,10 Z" id="Shape"></path>
                <path d="M12.483885,14 C12.2943228,13.9998847 12.121127,13.892581 12.0366213,13.722897 C11.9521156,13.553213 11.970834,13.3503326 12.08496,13.198975 L15.10156,9.198975 C15.2680736,8.97920578 15.5810391,8.93565108 15.8012326,9.10160316 C16.0214262,9.26755525 16.0657795,9.58040863 15.90039,9.801025 L12.88379,13.801025 C12.789192,13.9265429 12.6410584,14.0002477 12.483885,14 L12.483885,14 Z" id="Shape"></path>
                <path d="M15.501465,10 C15.3442934,10.0002461 15.1961619,9.92654153 15.101565,9.801025 L12.084965,5.801025 C11.9195755,5.58040863 11.9639288,5.26755525 12.1841224,5.10160316 C12.4043159,4.93565108 12.7172814,4.97920578 12.883795,5.198975 L15.900395,9.198975 C16.0145215,9.35033329 16.0332395,9.5532149 15.9487326,9.72289924 C15.8642256,9.89258358 15.6910281,9.99988659 15.501465,10 Z" id="Shape"></path>
            </g>
        </g>
    </g>
</svg>