<?xml version="1.0" encoding="utf-8"?>
<svg viewBox="0 0 1024 1024" version="1.1" xmlns="http://www.w3.org/2000/svg">
  <path d="M950.272 802.816 950.272 802.816l-77.824-118.784c0-4.096 0-8.192 0-12.288L872.448 229.376c0-20.48-16.384-40.96-40.96-40.96L192.512 188.416c-20.48 0-40.96 16.384-40.96 40.96l0 442.368c0 4.096 0 8.192 0 12.288l-77.824 118.784 0 0c-4.096 4.096-4.096 8.192-4.096 12.288 0 12.288 8.192 20.48 20.48 20.48l843.776 0c12.288 0 20.48-8.192 20.48-20.48C954.368 811.008 950.272 806.912 950.272 802.816zM192.512 229.376l643.072 0 0 442.368L192.512 671.744 192.512 229.376zM126.976 794.624l53.248-81.92c4.096 0 4.096 0 8.192 0l643.072 0c4.096 0 4.096 0 8.192 0l53.248 81.92L126.976 794.624z" ></path>
</svg>