<?xml version="1.0" encoding="UTF-8"?>
<svg viewBox="0 0 16 13" version="1.1" xmlns="http://www.w3.org/2000/svg" xmlns:xlink="http://www.w3.org/1999/xlink">
    <!-- Generator: Sketch 50 (54983) - http://www.bohemiancoding.com/sketch -->
    <defs></defs>
    <g id="Icon">
        <g id="UI-icons" transform="translate(-438.000000, -870.000000)" >
            <g id="Icon/对话2" transform="translate(438.000000, 868.000000)">
                <g id="对话2" transform="translate(0.000000, 2.000000)">
                    <path d="M12.5,13 L0,13 L0,1.5 C0.000903855827,0.671947554 0.671947554,0.000903855827 1.5,-2.22044605e-16 L14,-2.22044605e-16 L14,4.171875 L15.62134,5.79297 C16.0112334,6.18369743 16.0112334,6.81630757 15.62134,7.207035 L14,8.828125 L14,11.5 C13.9990961,12.3280524 13.3280524,12.9990961 12.5,13 L12.5,13 Z M1,12 L12.5,12 C12.7760281,11.9997244 12.9997244,11.7760281 13,11.5 L13,8.414065 L14.914305,6.5 L13,4.58594 L13,1 L1.5,1 C1.22397187,1.00027561 1.00027561,1.22397187 1,1.5 L1,12 Z" id="Shape"></path>
                    <path d="M10.497315,7.5 C9.94503025,7.5 9.497315,7.05228475 9.497315,6.5 C9.497315,5.94771525 9.94503025,5.5 10.497315,5.5 C11.0495997,5.5 11.497315,5.94771525 11.497315,6.5 C11.496684,7.05202318 11.0493382,7.49936902 10.497315,7.5 Z" id="Shape"></path>
                    <path d="M6.99536,7.5 C6.44307525,7.5 5.99536,7.05228475 5.99536,6.5 C5.99536,5.94771525 6.44307525,5.5 6.99536,5.5 C7.54764475,5.5 7.99536,5.94771525 7.99536,6.5 C7.99472902,7.05202318 7.54738318,7.49936902 6.99536,7.5 Z" id="Shape"></path>
                    <path d="M3.49658,7.5 C2.94429525,7.5 2.49658,7.05228475 2.49658,6.5 C2.49658,5.94771525 2.94429525,5.5 3.49658,5.5 C4.04886475,5.5 4.49658,5.94771525 4.49658,6.5 C4.49594902,7.05202318 4.04860318,7.49936902 3.49658,7.5 Z" id="Shape"></path>
                </g>
            </g>
        </g>
    </g>
</svg>