<svg viewBox="0 0 24 24" xmlns="http://www.w3.org/2000/svg"
	xmlns:xlink="http://www.w3.org/1999/xlink">
	<g clip-path="url(#clip131_1877)">
		<path id="合并"
			d="M16 2L6 2C4.34314 2 3 3.34326 3 5L3 19C3 20.6567 4.34314 22 6 22L11.8924 22C9.85956 20.7751 8.5 18.5464 8.5 16C8.5 12.134 11.634 9 15.5 9C16.775 9 17.9704 9.34082 19 9.93652L19 5C19 3.34326 17.6569 2 16 2ZM6 5.25L13.5 5.25C13.92 5.25 14.25 5.58008 14.25 6C14.25 6.41992 13.92 6.75 13.5 6.75L6 6.75C5.58002 6.75 5.25 6.41992 5.25 6C5.25 5.58008 5.58002 5.25 6 5.25ZM6 8.75L8 8.75C8.41998 8.75 8.75 9.08008 8.75 9.5C8.75 9.91992 8.41998 10.25 8 10.25L6 10.25C5.58002 10.25 5.25 9.91992 5.25 9.5C5.25 9.08008 5.58002 8.75 6 8.75ZM10 16C10 12.9624 12.4625 10.5 15.5 10.5C18.5375 10.5 21 12.9624 21 16C21 19.0376 18.5375 21.5 15.5 21.5C12.4625 21.5 10 19.0376 10 16ZM18 15.25C18.42 15.25 18.75 15.5801 18.75 16C18.75 16.4199 18.42 16.75 18 16.75L13 16.75C12.58 16.75 12.25 16.4199 12.25 16C12.25 15.5801 12.58 15.25 13 15.25L18 15.25Z"
			fill-opacity="1.000000" fill-rule="evenodd" />
	</g>
</svg>