<?xml version="1.0" encoding="utf-8"?>
<!-- Generator: Adobe Illustrator 26.0.2, SVG Export Plug-In . SVG Version: 6.00 Build 0)  -->
<svg version="1.1" id="图层_1" xmlns="http://www.w3.org/2000/svg" xmlns:xlink="http://www.w3.org/1999/xlink" x="0px" y="0px"
	 viewBox="0 0 16 16" style="enable-background:new 0 0 16 16;" xml:space="preserve">
<style type="text/css">
	.st0{fill:none;}
</style>
<rect id="矩形" class="st0"/>
<path id="形状" class="st1" d="M13.4,5.6l-4-4C9.3,1.6,9.1,1.5,9,1.5H5C3.6,1.5,2.5,2.6,2.5,4v8c0,1.4,1.1,2.5,2.5,2.5h6
	c1.4,0,2.5-1.1,2.5-2.5V6C13.5,5.9,13.4,5.7,13.4,5.6z M12.5,12c0,0.8-0.7,1.5-1.5,1.5H5c-0.8,0-1.5-0.7-1.5-1.5V4
	c0-0.8,0.7-1.5,1.5-1.5h3.8l3.7,3.7V12z M5.5,7.5h5C10.8,7.5,11,7.7,11,8s-0.2,0.5-0.5,0.5h-5C5.2,8.5,5,8.3,5,8S5.2,7.5,5.5,7.5z
	 M11,11c0,0.3-0.2,0.5-0.5,0.5h-5C5.2,11.5,5,11.3,5,11s0.2-0.5,0.5-0.5h5C10.8,10.5,11,10.7,11,11z"/>
</svg>
