<?xml version="1.0" encoding="utf-8"?>
<!-- Generator: Adobe Illustrator 26.0.2, SVG Export Plug-In . SVG Version: 6.00 Build 0)  -->
<svg version="1.1" id="图层_1" xmlns="http://www.w3.org/2000/svg" xmlns:xlink="http://www.w3.org/1999/xlink" x="0px" y="0px"
	 viewBox="0 0 16 16" style="enable-background:new 0 0 16 16;" xml:space="preserve">
<style type="text/css">
	.st0{fill-rule:evenodd;clip-rule:evenodd;fill:#D8D8D8;fill-opacity:0;}
	.st1{fill-rule:evenodd;clip-rule:evenodd;}
</style>
<polygon id="矩形" class="st0" points="0,0 0,16 16,16 16,0 "/>
<path id="形状结合" class="st1" d="M1.25,1.23C0.95,1.5,0.92,1.92,1.15,2.22l0.1,0.11l6.02,5.56C7.32,7.93,7.33,8,7.3,8.06
	L7.26,8.12l-6.02,5.56c-0.33,0.3-0.33,0.8,0,1.1c0.29,0.27,0.75,0.3,1.07,0.09l0.12-0.09l6.02-5.56C9.13,8.59,9.18,7.61,8.6,6.93
	L8.46,6.78L2.44,1.23C2.11,0.92,1.58,0.92,1.25,1.23z M7.25,1.23C6.95,1.5,6.92,1.92,7.15,2.22l0.1,0.11l6.02,5.56
	C13.32,7.93,13.33,8,13.3,8.06l-0.04,0.05l-6.02,5.56c-0.33,0.3-0.33,0.8,0,1.1c0.29,0.27,0.75,0.3,1.07,0.09l0.12-0.09l6.02-5.56
	c0.67-0.62,0.72-1.61,0.14-2.28l-0.14-0.15L8.44,1.23C8.11,0.92,7.58,0.92,7.25,1.23z"/>
</svg>
