<?xml version="1.0" encoding="UTF-8"?>
<svg viewBox="0 0 16 16" version="1.1" xmlns="http://www.w3.org/2000/svg" xmlns:xlink="http://www.w3.org/1999/xlink">
     
    <g id="补充组件" stroke="none" stroke-width="1">
        <g id="富文本编辑器" transform="translate(-1276.000000, -2846.000000)">
            <g id="编组" transform="translate(1276.000000, 2846.000000)">
                <path d="M9.75733333,2.83333333 C10.8220421,2.83333333 11.6930778,3.6663438 11.7539366,4.71586069 L11.7573333,4.83333333 L11.7567333,5.36366667 L13.3781686,4.50671316 C14.16446,4.09069751 15.1046475,4.62649962 15.168553,5.49323121 L15.172,5.58733333 L15.172,10.4126667 C15.172,11.3028282 14.2590994,11.8829715 13.4619523,11.5340107 L13.3770335,11.4930387 L12.7310335,11.150372 C12.4870864,11.0209718 12.3942278,10.7183139 12.523628,10.4743668 C12.6422449,10.2507487 12.9064463,10.1540868 13.1375575,10.2392005 L13.1996332,10.2669613 L13.8449119,10.6092462 C13.9792611,10.6802301 14.1367231,10.6006428 14.166872,10.4612292 L14.172,10.4126667 L14.172,5.58733333 C14.172,5.43614026 14.027916,5.33420715 13.8909457,5.37255495 L13.8457599,5.39065799 L11.4910932,6.63599133 C11.1789126,6.80109704 10.8071645,6.599241 10.7619154,6.26297618 L10.7573333,6.194 L10.7573333,4.83333333 C10.7573333,4.31393792 10.3603629,3.88641484 9.85357324,3.83791523 L9.75733333,3.83333333 L2.828,3.83333333 C2.30822614,3.83333333 1.88103699,4.23006933 1.83257796,4.73705206 L1.828,4.83333333 L1.828,11.1666667 C1.828,11.6866895 2.22437987,12.113659 2.73165588,12.1620913 L2.828,12.1666667 L9.75733333,12.1666667 C10.2769778,12.1666667 10.7042811,11.7700524 10.752754,11.2629694 L10.7573333,11.1666667 L10.7573333,7.89333333 C10.7573333,7.61719096 10.981191,7.39333333 11.2573333,7.39333333 C11.5104638,7.39333333 11.7196606,7.58261629 11.7527689,7.82666667 L11.7573333,7.89333333 L11.7573333,11.1666667 C11.7573333,12.2318294 10.924505,13.1024436 9.87482549,13.1632717 L9.75733333,13.1666667 L2.828,13.1666667 C1.76264842,13.1666667 0.892209581,12.3342761 0.831394245,11.2842057 L0.828,11.1666667 L0.828,4.83333333 C0.828,3.76843569 1.66057267,2.89757534 2.71048045,2.83672932 L2.828,2.83333333 L9.75733333,2.83333333 Z M4.49978864,5 C5.32839801,5 6,5.67160199 6,6.50021136 C6,7.32848089 5.32831512,8 4.49978864,8 C3.67160199,8 3,7.32839801 3,6.50021136 C3,5.67168488 3.67151911,5 4.49978864,5 Z M4.49983728,5.83333333 C4.13179575,5.83333333 3.83333333,6.13186943 3.83333333,6.50016272 C3.83333333,6.86816742 4.13183258,7.16666667 4.49983728,7.16666667 C4.86813057,7.16666667 5.16666667,6.86820425 5.16666667,6.50016272 C5.16666667,6.13183258 4.86816742,5.83333333 4.49983728,5.83333333 Z" id="形状结合"></path>
            </g>
        </g>
    </g>
</svg>