<?xml version="1.0" encoding="UTF-8"?>
<svg viewBox="0 0 16 16" version="1.1" xmlns="http://www.w3.org/2000/svg" xmlns:xlink="http://www.w3.org/1999/xlink">
     
    <g id="补充组件" stroke="none" stroke-width="1">
        <g id="富文本编辑器" transform="translate(-1276.000000, -2558.000000)">
            <g id="编组" transform="translate(1276.000000, 2558.000000)">
                <path d="M2,2.66666667 C2,2.39052429 2.22385763,2.16666667 2.5,2.16666667 C2.75313051,2.16666667 2.96232731,2.35476925 2.99543559,2.59881963 L3,2.66666667 L3,13.6666667 C3,13.942809 2.77614237,14.1666667 2.5,14.1666667 C2.24686949,14.1666667 2.03767269,13.9785641 2.00456441,13.7345137 L2,13.6666667 L2,2.66666667 Z" id="路径"></path>
                <path d="M14,4 C14,2.93487941 13.1673867,2.06422608 12.1175152,2.00339513 L12,2 L4.16666667,2 C3.89052429,2 3.66666667,2.22385763 3.66666667,2.5 C3.66666667,2.75313051 3.85476925,2.96232731 4.09881963,2.99543559 L4.16666667,3 L12,3 C12.5197974,3 12.9469658,3.39659206 12.9954223,3.90369333 L13,4 L13,12 C13,12.5197974 12.6034079,12.9469658 12.0963067,12.9954223 L12,13 L4.16666667,13 C3.89052429,13 3.66666667,13.2238576 3.66666667,13.5 C3.66666667,13.7531305 3.85476925,13.9623273 4.09881963,13.9954356 L4.16666667,14 L12,14 C13.0651206,14 13.9357739,13.1673867 13.9966049,12.1175152 L14,12 L14,4 Z" id="路径" fill="#BBBBBB"></path>
            </g>
        </g>
    </g>
</svg>