<?xml version="1.0" encoding="UTF-8"?>
<svg viewBox="0 0 16 16" version="1.1" xmlns="http://www.w3.org/2000/svg" xmlns:xlink="http://www.w3.org/1999/xlink">
     
    <g id="补充组件" stroke="none" stroke-width="1">
        <g id="富文本编辑器" transform="translate(-960.000000, -2654.000000)">
            <g id="编组" transform="translate(960.000000, 2654.000000)">
                <path d="M4.66666667,14.6666667 C4.39052429,14.6666667 4.16666667,14.442809 4.16666667,14.1666667 C4.16666667,13.9135362 4.35476925,13.7043394 4.59881963,13.6712311 L4.66666667,13.6666667 L6.26266667,13.6663333 L8.71266667,2.33333333 L7.33333333,2.33333333 C7.05719096,2.33333333 6.83333333,2.10947571 6.83333333,1.83333333 C6.83333333,1.58020282 7.02143592,1.37100603 7.2654863,1.33789774 L7.33333333,1.33333333 L11.3333333,1.33333333 C11.6094757,1.33333333 11.8333333,1.55719096 11.8333333,1.83333333 C11.8333333,2.08646384 11.6452307,2.29566064 11.4011804,2.32876892 L11.3333333,2.33333333 L9.73666667,2.33333333 L7.28566667,13.6663333 L8.66666667,13.6666667 C8.94280904,13.6666667 9.16666667,13.8905243 9.16666667,14.1666667 C9.16666667,14.4197972 8.97856408,14.628994 8.7345137,14.6621023 L8.66666667,14.6666667 L4.66666667,14.6666667 Z" id="形状结合"></path>
            </g>
        </g>
    </g>
</svg>