<?xml version="1.0" encoding="UTF-8"?>
<svg viewBox="0 0 16 16" version="1.1" xmlns="http://www.w3.org/2000/svg" xmlns:xlink="http://www.w3.org/1999/xlink">
     
    <g id="补充组件" stroke="none" stroke-width="1">
        <g id="富文本编辑器" transform="translate(-960.000000, -2462.000000)">
            <g id="编组" transform="translate(960.000000, 2462.000000)">
                <path d="M10.325538,3.31328874 L14.1868713,7.17528874 C14.5122046,7.50062207 14.5122046,8.02928874 14.1868713,8.3539554 L10.3248713,12.2159554 C10.165538,12.3759554 9.95353795,12.4606221 9.73687129,12.4606221 C9.62953795,12.4606221 9.52087129,12.4399554 9.41753795,12.3966221 C9.10487129,12.2672887 8.90287129,11.9652887 8.90287129,11.6266221 L8.90181016,9.93875435 C7.21397073,9.98887084 5.77517247,10.2956691 4.61920462,10.8520887 C4.54920462,10.8860887 4.47520462,10.9014221 4.40253795,10.9014221 C4.21653795,10.9014221 4.03787129,10.7974221 3.95187129,10.6180887 C3.83187129,10.3694221 3.93653795,10.0707554 4.18520462,9.9507554 C5.58987129,9.2747554 7.34520462,8.93142207 9.40253795,8.93142207 C9.67887129,8.93128874 9.90287129,9.15528874 9.90287129,9.43128874 L9.90287129,11.2246221 L13.3622046,7.76462207 L9.90287129,4.30528874 L9.90287129,6.0979554 C9.90287129,6.34328874 9.72588363,6.54753565 9.49270942,6.58989505 L9.40253795,6.59802207 L9.40253795,6.59802207 C6.82053795,6.59802207 4.88853795,7.58468874 3.65853795,9.5313554 C2.73187129,11.0000221 2.56787129,12.4693554 2.56653795,12.4833554 C2.53987129,12.7406887 2.32253795,12.9313554 2.06987129,12.9313554 C2.05253795,12.9313554 2.03453795,12.9306887 2.01653795,12.9286887 C1.74253795,12.8993554 1.54320462,12.6533554 1.57187129,12.3793554 C1.57902665,12.3123552 2.32941765,5.91991829 8.90129243,5.60969139 L8.90287129,3.90262207 C8.90287129,3.5639554 9.10487129,3.2619554 9.41753795,3.13262207 C9.72953795,3.00262207 10.0862046,3.07462207 10.325538,3.31328874 Z" id="形状结合"></path>
            </g>
        </g>
    </g>
</svg>