<?xml version="1.0" encoding="UTF-8"?>
<svg viewBox="0 0 16 16" version="1.1" xmlns="http://www.w3.org/2000/svg" xmlns:xlink="http://www.w3.org/1999/xlink">
     
    <g id="补充组件" stroke="none" stroke-width="1">
        <g id="富文本编辑器" transform="translate(-960.000000, -2846.000000)">
            <g id="编组" transform="translate(960.000000, 2846.000000)">
                <path d="M2.8,2.49644165 C3.04545989,2.49644165 3.24960837,2.67331681 3.29194433,2.90656602 L3.3,2.99644165 L3.3,12.9964417 C3.3,13.272584 3.07614237,13.4964417 2.8,13.4964417 C2.55454011,13.4964417 2.35039163,13.3195665 2.30805567,13.0863173 L2.3,12.9964417 L2.3,2.99644165 C2.3,2.72029928 2.52385763,2.49644165 2.8,2.49644165 Z" id="路径-3"></path>
                <path d="M8.8,2.49644165 C9.04545989,2.49644165 9.24960837,2.67331681 9.29194433,2.90656602 L9.3,2.99644165 L9.3,12.9964417 C9.3,13.272584 9.07614237,13.4964417 8.8,13.4964417 C8.55454011,13.4964417 8.35039163,13.3195665 8.30805567,13.0863173 L8.3,12.9964417 L8.3,2.99644165 C8.3,2.72029928 8.52385763,2.49644165 8.8,2.49644165 Z" id="路径-3备份"></path>
                <path d="M14.0607097,12.8000121 L10.8,12.8000121 L13.3000207,10.3000207 C13.871935,9.72810637 13.871935,8.80085005 13.3000207,8.22893574 C12.7281064,7.65702142 11.8008501,7.65702142 11.2289357,8.22893574 C10.9406171,8.51725435 10.7976483,8.89588173 10.8,9.27376334" id="路径备份" stroke="#000000" stroke-linecap="round" stroke-linejoin="round"  fill="#fff"></path>
                <path d="M8.8,7.5 C9.07614237,7.5 9.3,7.72385763 9.3,8 C9.3,8.24545989 9.12312484,8.44960837 8.88987563,8.49194433 L8.8,8.5 L2.8,8.5 C2.52385763,8.5 2.3,8.27614237 2.3,8 C2.3,7.75454011 2.47687516,7.55039163 2.71012437,7.50805567 L2.8,7.5 L8.8,7.5 Z" id="路径-3备份-2"></path>
            </g>
        </g>
    </g>
</svg>