<?xml version="1.0" encoding="UTF-8"?>
<svg viewBox="0 0 16 16" version="1.1" xmlns="http://www.w3.org/2000/svg" xmlns:xlink="http://www.w3.org/1999/xlink"> 
    <g id="补充组件" stroke="none" stroke-width="1">
        <g id="富文本编辑器" transform="translate(-1276.000000, -2718.000000)">
            <g id="编组" transform="translate(1276.000000, 2718.000000)">
                <path d="M6.99564941,9.34 C7.2411093,9.34 7.44525778,9.51687516 7.48759374,9.75012437 L7.49564941,9.84 L7.49564941,12.878717 C7.49564941,13.4715027 7.04713823,13.9595329 6.47095458,14.021969 L6.34564941,14.028717 L3.81564941,14.028717 C3.22286378,14.028717 2.73483355,13.5802059 2.67239746,13.0040222 L2.66564941,12.878717 L2.66564941,9.84 C2.66564941,9.56385763 2.88950704,9.34 3.16564941,9.34 C3.4111093,9.34 3.61525778,9.51687516 3.65759374,9.75012437 L3.66564941,9.84 L3.66564941,12.878717 C3.66564941,12.9449912 3.70863008,13.0012267 3.76823781,13.0210699 L3.81564941,13.028717 L6.34564941,13.028717 C6.41192358,13.028717 6.46815908,12.9857364 6.48800231,12.9261286 L6.49564941,12.878717 L6.49564941,9.84 C6.49564941,9.56385763 6.71950704,9.34 6.99564941,9.34 Z M12.83,9.34 C13.0754599,9.34 13.2796084,9.51687516 13.3219443,9.75012437 L13.33,9.84 L13.33,10.85 C13.33,11.4427856 12.8814888,11.9308159 12.3053052,11.993252 L12.18,12 L9.65,12 C9.05721437,12 8.56918414,11.5514888 8.50674804,10.9753052 L8.5,10.85 L8.5,9.84 C8.5,9.56385763 8.72385763,9.34 9,9.34 C9.24545989,9.34 9.44960837,9.51687516 9.49194433,9.75012437 L9.5,9.84 L9.5,10.85 C9.5,10.9162742 9.54298066,10.9725097 9.6025884,10.9923529 L9.65,11 L12.18,11 C12.2462742,11 12.3025097,10.9570193 12.3223529,10.8974116 L12.33,10.85 L12.33,9.84 C12.33,9.56385763 12.5538576,9.34 12.83,9.34 Z M13.5,7.33333333 C13.7761424,7.33333333 14,7.55719096 14,7.83333333 C14,8.07879322 13.8265825,8.2829417 13.5933333,8.32527766 L13.5,8.33333333 L2.5,8.33333333 C2.22385763,8.33333333 2,8.10947571 2,7.83333333 C2,7.58787344 2.17687516,7.38372496 2.41012437,7.341389 L2.5,7.33333333 L13.5,7.33333333 Z M6.34564941,2.02871704 C6.93843505,2.02871704 7.42646528,2.47722823 7.48890137,3.05341187 L7.49564941,3.17871704 L7.49564941,5.83 C7.49564941,6.10614237 7.27179179,6.33 6.99564941,6.33 C6.75018953,6.33 6.54604104,6.15312484 6.50370508,5.91987563 L6.49564941,5.83 L6.49564941,3.17871704 C6.49564941,3.11244287 6.45266875,3.05620737 6.39306102,3.03636414 L6.34564941,3.02871704 L3.81564941,3.02871704 C3.74937524,3.02871704 3.69313975,3.07169771 3.67329651,3.13130544 L3.66564941,3.17871704 L3.66564941,5.83 C3.66564941,6.10614237 3.44179179,6.33 3.16564941,6.33 C2.92018953,6.33 2.71604104,6.15312484 2.67370508,5.91987563 L2.66564941,5.83 L2.66564941,3.17871704 C2.66564941,2.58593141 3.1141606,2.09790118 3.69034424,2.03546508 L3.81564941,2.02871704 L6.34564941,2.02871704 Z M12.18,4 C12.7727856,4 13.2608159,4.44851119 13.323252,5.02469483 L13.33,5.15 L13.33,5.83 C13.33,6.10614237 13.1061424,6.33 12.83,6.33 C12.5845401,6.33 12.3803916,6.15312484 12.3380557,5.91987563 L12.33,5.83 L12.33,5.15 C12.33,5.08372583 12.2870193,5.02749033 12.2274116,5.0076471 L12.18,5 L9.65,5 C9.58372583,5 9.52749033,5.04298066 9.5076471,5.1025884 L9.5,5.15 L9.5,5.83 C9.5,6.10614237 9.27614237,6.33 9,6.33 C8.75454011,6.33 8.55039163,6.15312484 8.50805567,5.91987563 L8.5,5.83 L8.5,5.15 C8.5,4.55721437 8.94851119,4.06918414 9.52469483,4.00674804 L9.65,4 L12.18,4 Z" id="形状结合" transform="translate(8.000000, 8.028717) rotate(-90.000000) translate(-8.000000, -8.028717) "></path>
            </g>
        </g>
    </g>
</svg>