<?xml version="1.0" encoding="UTF-8"?>
<svg viewBox="0 0 16 16" version="1.1" xmlns="http://www.w3.org/2000/svg" xmlns:xlink="http://www.w3.org/1999/xlink">
    <!-- Generator: Sketch 50 (54983) - http://www.bohemiancoding.com/sketch -->
    <defs></defs>
    <g id="Icon">
		<path d="M14.8,1.2c-1.1-1.1-2.9-1.1-4,0L3.2,8.8c-0.3,0.3-0.5,0.6-0.7,1L0,16l6.2-2.5c0.4-0.2,0.7-0.4,1-0.7l7.7-7.7
			C15.9,4.1,15.9,2.3,14.8,1.2z M6.5,12.2c-0.2,0.2-0.4,0.3-0.7,0.4l-4,1.6l1.6-4C3.5,10,3.7,9.7,3.9,9.5l6-6l2.6,2.6L6.5,12.2z
			 M14.1,4.5l-1,1l-2.6-2.6l1-1c0.3-0.3,0.8-0.5,1.3-0.5s1,0.2,1.3,0.5C14.8,2.6,14.8,3.8,14.1,4.5z"/>
	 </g>
</svg>