<?xml version="1.0" encoding="UTF-8"?>
<svg viewBox="0 0 16 16" version="1.1" xmlns="http://www.w3.org/2000/svg" xmlns:xlink="http://www.w3.org/1999/xlink">
     
    <g id="补充组件" stroke="none" stroke-width="1">
        <g id="富文本编辑器" transform="translate(-960.000000, -2430.000000)">
            <g id="编组" transform="translate(960.000000, 2430.000000)">
                <path d="M6.57403996,6.15810747 L6.53372659,6.14880618 C6.5185331,6.14462693 6.50362913,6.13974873 6.48905142,6.13420832 C6.47861134,6.13023978 6.46836468,6.12594357 6.45829791,6.12132286 L6.48905142,6.13420832 C6.46185952,6.12387378 6.43580278,6.1112352 6.41111968,6.09653105 C6.39919268,6.08942779 6.38753961,6.08180888 6.37623708,6.07373095 C6.36381886,6.06485858 6.35176412,6.05538082 6.3401734,6.04537996 C6.3316183,6.03799774 6.3233303,6.03034464 6.31530889,6.02242223 C6.30259192,6.0098483 6.29072467,5.99681529 6.27956348,5.98318187 C6.2735466,5.9758589 6.26722922,5.96766681 6.26116571,5.95927911 C6.232824,5.92001665 6.21016607,5.87681908 6.19411704,5.83053317 C6.19048785,5.82005876 6.18722741,5.80953693 6.18431117,5.79887292 C6.17933265,5.78069998 6.17531868,5.7618884 6.17239332,5.74271874 C6.17197704,5.73999092 6.17158281,5.73725584 6.1712108,5.7345137 L6.16664639,5.66666667 L6.16631306,3.87293333 L2.70631306,7.33293333 L6.16631306,10.7929333 L6.16664639,9 L6.16897973,8.96466429 L6.17470206,8.91019103 C6.19101182,8.82033273 6.23133688,8.73884115 6.28878748,8.67260607 L6.28875722,8.67257429 C6.30749821,8.65103437 6.32802545,8.63108093 6.35013119,8.61298375 C6.35989406,8.60493834 6.36960905,8.59757053 6.37959214,8.59055857 C6.39271286,8.58139492 6.40661963,8.57259682 6.42096698,8.56448709 C6.43250773,8.55789764 6.44431738,8.55182776 6.45638807,8.54622533 C6.47145055,8.53929801 6.48699629,8.53300526 6.50290674,8.52749335 C6.51495286,8.52325294 6.52722816,8.51952151 6.53969323,8.51625913 C6.55446226,8.51246353 6.56939923,8.50927608 6.58456645,8.50677123 C6.58911493,8.50595085 6.59394608,8.50522281 6.59879935,8.50456441 L6.66664639,8.5 C8.80275193,8.50006667 10.5286502,8.86649349 11.8843261,9.51961652 C12.1331029,9.63946951 12.2376162,9.93830296 12.1177632,10.1870797 C11.9979102,10.4358565 11.6990768,10.5403698 11.4503,10.4205168 C10.3387266,9.88499492 8.92395785,9.55906285 7.16730765,9.50733275 L7.16664639,12 C7.16664639,12.4220076 6.68327523,12.6444374 6.36457403,12.398862 L6.313093,12.3535534 L1.64642634,7.68688672 C1.46891529,7.50937568 1.45277793,7.23159989 1.59801423,7.0358589 L1.64642634,6.97977994 L6.313093,2.31311328 C6.61149741,2.01470887 7.11057407,2.19922227 7.16228185,2.59822604 L7.16664639,2.66666667 L7.1674241,5.17814927 C9.99534396,5.30963743 11.9909002,6.56317112 13.2560575,8.56633684 C13.7213939,9.3031194 14.0524022,10.0892642 14.2730406,10.8752885 L14.3150189,11.0296048 L14.3850922,11.3142635 L14.4378569,11.564291 L14.474756,11.7764886 C14.4845717,11.8405608 14.4919837,11.8977948 14.4972325,11.9476576 C14.5261404,12.2222827 14.3269472,12.4683448 14.0523221,12.4972527 C13.777697,12.5261606 13.5316349,12.3269675 13.502727,12.0523424 L13.4871085,11.9395032 L13.4662601,11.8166561 C13.4299272,11.615311 13.3787327,11.3895065 13.3102522,11.1455449 C13.1142239,10.4471942 12.8202323,9.74896394 12.4105686,9.10032983 C11.2491482,7.26141421 9.40536288,6.16666667 6.66664639,6.16666667 L6.57403996,6.15810747 L6.57403996,6.15810747 Z" id="形状结合"></path>
            </g>
        </g>
    </g>
</svg>