<?xml version="1.0" encoding="UTF-8"?>
<svg viewBox="0 0 16 16" version="1.1" xmlns="http://www.w3.org/2000/svg" xmlns:xlink="http://www.w3.org/1999/xlink">
     
    <g id="补充组件" stroke="none" stroke-width="1">
        <g id="富文本编辑器" transform="translate(-1276.000000, -2590.000000)">
            <g id="编组" transform="translate(1276.000000, 2590.000000)">
                <path d="M14,2.5 C14,2.22385763 13.7761424,2 13.5,2 C13.2468695,2 13.0376727,2.18810259 13.0045644,2.43215296 L13,2.5 L13,13.5 C13,13.7761424 13.2238576,14 13.5,14 C13.7531305,14 13.9623273,13.8118974 13.9954356,13.567847 L14,13.5 L14,2.5 Z" id="路径"></path>
                <path d="M2,4 C2,2.93487941 2.83261331,2.06422608 3.88248481,2.00339513 L4,2 L11.8333333,2 C12.1094757,2 12.3333333,2.22385763 12.3333333,2.5 C12.3333333,2.75313051 12.1452307,2.96232731 11.9011804,2.99543559 L11.8333333,3 L4,3 C3.48020259,3 3.05303421,3.39659206 3.00457772,3.90369333 L3,4 L3,12 C3,12.5197974 3.39659206,12.9469658 3.90369333,12.9954223 L4,13 L11.8333333,13 C12.1094757,13 12.3333333,13.2238576 12.3333333,13.5 C12.3333333,13.7531305 12.1452307,13.9623273 11.9011804,13.9954356 L11.8333333,14 L4,14 C2.93487941,14 2.06422608,13.1673867 2.00339513,12.1175152 L2,12 L2,4 Z" id="路径" fill="#BBBBBB"></path>
            </g>
        </g>
    </g>
</svg>