<?xml version="1.0" encoding="UTF-8"?>
<svg viewBox="0 0 16 16" version="1.1" xmlns="http://www.w3.org/2000/svg" xmlns:xlink="http://www.w3.org/1999/xlink">
     
    <g id="补充组件" stroke="none" stroke-width="1">
        <g id="富文本编辑器" transform="translate(-1276.000000, -2462.000000)">
            <g id="editor-super" transform="translate(1276.000000, 2462.000000)">
                <g id="编组备份-2" transform="translate(1.605348, 0.608345)">
                    <path d="M9.47003472,1.36703731 C10.2372112,0.599860853 11.48105,0.599860853 12.2482265,1.36703731 C12.9750252,2.09383607 13.0132778,3.24844257 12.3629824,4.02027548 L12.2482244,4.14523111 L10.6020004,5.791 L12.655362,5.79166708 C12.9008219,5.79166708 13.1049704,5.96854225 13.1473064,6.20179145 L13.155362,6.29166708 C13.155362,6.53712697 12.9784869,6.74127545 12.7452377,6.78361142 L12.655362,6.79166708 L9.39465238,6.79166708 C8.97889547,6.79166708 8.75684847,6.3225094 8.9851847,6.00386335 L9.04110106,5.93811163 L11.5411197,3.43812226 C11.9177718,3.06147009 11.9177718,2.45079627 11.5411197,2.0741441 C11.1644675,1.69749193 10.5537937,1.69749193 10.1771415,2.0741441 C10.0228428,2.22844282 9.92841925,2.42516933 9.9021555,2.63504072 L9.8946427,2.76230668 C9.8963612,3.0384437 9.67390103,3.26369012 9.39776401,3.26540862 C9.12162698,3.26712713 8.89638057,3.04466696 8.89466206,2.76852993 C8.89141689,2.24708202 9.09385635,1.74321569 9.47003472,1.36703731 Z" id="路径"></path>
                    <path d="M7.28612142,3.10643616 C7.47251703,2.95996363 7.74261359,2.96300858 7.92630533,3.12582105 C8.13295854,3.30898508 8.15200028,3.62499439 7.96883625,3.8316476 L7.96883625,3.8316476 L4.762652,7.44899397 L7.9634882,11.0600068 C8.14665222,11.26666 8.12761047,11.5826693 7.92095726,11.7658333 C7.73726551,11.9286458 7.46716895,11.9316908 7.28077334,11.7852182 L7.21513071,11.7233024 L4.094652,8.20199397 L0.974184188,11.7233024 L0.908541554,11.7852182 C0.722145942,11.9316908 0.452049379,11.9286458 0.268357637,11.7658333 C0.061704427,11.5826693 0.0426626847,11.26666 0.225826715,11.0600068 L0.225826715,11.0600068 L3.425652,7.44899397 L0.22047887,3.83164739 C0.0373148452,3.62499417 0.0563565968,3.30898486 0.263009812,3.12582084 C0.446701559,2.96300837 0.716798122,2.95996343 0.903193729,3.10643597 L0.968836362,3.16835178 L4.094652,6.69499397 L7.22047878,3.16835197 Z" id="形状结合"></path>
                </g>
            </g>
        </g>
    </g>
</svg>