<?xml version="1.0" encoding="UTF-8"?>
<svg viewBox="0 0 16 16" version="1.1" xmlns="http://www.w3.org/2000/svg" xmlns:xlink="http://www.w3.org/1999/xlink">
     
    <g id="补充组件" stroke="none" stroke-width="1">
        <g id="富文本编辑器" transform="translate(-960.000000, -2750.000000)">
            <g id="编组" transform="translate(960.000000, 2750.000000)">
                <path d="M6.19999999,2.7 C6.36568542,2.7 6.5,2.83431458 6.5,3.00000001 L6.5,6.7 L6.497,6.7 L6.49644711,6.7475838 C6.39724913,10.1986922 4.23271669,13 1.5,13 C1.22385763,13 1,12.7761424 1,12.5 C1,12.2238576 1.22385763,12 1.5,12 C3.62503843,12 5.4195335,9.66959841 5.49736906,6.70103039 L2.80000001,6.7 C2.63431458,6.7 2.5,6.56568542 2.5,6.39999999 L2.5,3.00000001 C2.5,2.83431458 2.63431458,2.7 2.80000001,2.7 L6.19999999,2.7 Z M13.2,2.7 C13.3656854,2.7 13.5,2.83431458 13.5,3.00000001 L13.5,6.7 L13.497,6.7 L13.4964471,6.7475838 C13.3972491,10.1986922 11.2327167,13 8.5,13 C8.22385763,13 8,12.7761424 8,12.5 C8,12.2238576 8.22385763,12 8.5,12 C10.6250384,12 12.4195335,9.66959841 12.4973691,6.70103039 L9.80000001,6.7 C9.63431458,6.7 9.5,6.56568542 9.5,6.39999999 L9.5,3.00000001 C9.5,2.83431458 9.63431458,2.7 9.80000001,2.7 L13.2,2.7 Z" id="形状结合"></path>
            </g>
        </g>
    </g>
</svg>