<?xml version="1.0" encoding="UTF-8"?>
<svg viewBox="0 0 16 16" version="1.1" xmlns="http://www.w3.org/2000/svg" xmlns:xlink="http://www.w3.org/1999/xlink">
     
    <g id="补充组件" stroke="none" stroke-width="1">
        <g id="富文本编辑器" transform="translate(-1276.000000, -2622.000000)">
            <g id="editor-textcolor" transform="translate(1276.000000, 2622.000000)">
                <g id="编组" transform="translate(-0.000000, 0.000000)">
                    <path d="M12.3333333,12.2066068 C12.5787932,12.2066068 12.7829417,12.3834819 12.8252777,12.6167311 L12.8333333,12.7066068 L12.8333333,14.2072734 C12.8333333,14.4527333 12.6564582,14.6568818 12.423209,14.6992178 L12.3333333,14.7072734 L3.66666667,14.7072734 C3.42120678,14.7072734 3.2170583,14.5303983 3.17472234,14.2971491 L3.16666667,14.2072734 L3.16666667,12.7066068 C3.16666667,12.4611469 3.34354183,12.2569984 3.57679103,12.2146624 L3.66666667,12.2066068 L12.3333333,12.2066068 Z M9.03601275,1.95911554 L9.07874185,2.0577179 L12.4660752,10.7783846 C12.5660584,11.0357908 12.4384419,11.3255122 12.1810357,11.4254954 C11.94508,11.5171468 11.6819706,11.417551 11.562745,11.202047 L11.5339248,11.140456 L10.2606667,7.86372658 L5.73766667,7.86372658 L4.46607518,11.140456 C4.36609193,11.3978622 4.07637051,11.5254787 3.8189643,11.4254954 C3.5830086,11.3338441 3.4561123,11.0827601 3.51361406,10.8432808 L3.53392482,10.7783846 L6.92117425,2.05793404 C7.30372635,1.07170147 8.59308282,1.03882705 9.03601275,1.95911554 Z M7.87580307,2.37407568 L7.85340852,2.4197893 L6.12666667,6.86372658 L9.87266667,6.86372658 L8.14650759,2.41957315 C8.08747678,2.26738969 7.95048686,2.25217134 7.87580307,2.37407568 Z" id="形状结合"></path>
                </g>
            </g>
        </g>
    </g>
</svg>