<?xml version="1.0" encoding="UTF-8"?>
<svg viewBox="0 0 16 16" version="1.1" xmlns="http://www.w3.org/2000/svg" xmlns:xlink="http://www.w3.org/1999/xlink">
     
    <g id="补充组件" stroke="none" stroke-width="1">
        <g id="富文本编辑器" transform="translate(-1276.000000, -2430.000000)">
            <g id="editor-sub" transform="translate(1276.000000, 2430.000000)">
                <g id="编组-3" transform="translate(1.605348, 3.308345)">
                    <path d="M7.28557051,0.198096999 C7.47209055,0.051624464 7.74236742,0.0546694035 7.9261818,0.21748187 C8.13297297,0.400645894 8.15202743,0.716655205 7.96874113,0.92330842 L7.96874113,0.92330842 L4.762652,4.537655 L7.96874113,8.15166778 C8.15202743,8.358321 8.13297297,8.67433031 7.9261818,8.85749433 C7.74236742,9.0203068 7.47209055,9.02335174 7.28557051,8.8768792 L7.21988406,8.81496339 L4.094652,5.290655 L0.969419939,8.81496339 L0.903733485,8.8768792 C0.717213446,9.02335174 0.446936576,9.0203068 0.263122202,8.85749433 C0.056331032,8.67433031 0.0372765688,8.358321 0.220562868,8.15166778 L0.220562868,8.15166778 L3.425652,4.537655 L0.220562868,0.92330842 C0.0372765688,0.716655205 0.056331032,0.400645894 0.263122202,0.21748187 C0.446936576,0.0546694035 0.717213446,0.051624464 0.903733485,0.198096999 L0.969419939,0.260012812 L4.094652,3.783655 L7.21988406,0.260012812 Z" id="形状结合"></path>
                    <path d="M9.47003472,4.66703735 C10.2372112,3.89986088 11.48105,3.89986088 12.2482265,4.66703735 C12.9750252,5.3938361 13.0132778,6.54844261 12.3629824,7.32027551 L12.2482244,7.44523114 L10.6020004,9.091 L12.655362,9.09166712 C12.9008219,9.09166712 13.1049704,9.26854228 13.1473064,9.50179148 L13.155362,9.59166712 C13.155362,9.83712701 12.9784869,10.0412755 12.7452377,10.0836114 L12.655362,10.0916671 L9.39465238,10.0916671 C8.97889547,10.0916671 8.75684847,9.62250943 8.9851847,9.30386338 L9.04110106,9.23811166 L11.5411197,6.73812229 C11.9177718,6.36147012 11.9177718,5.7507963 11.5411197,5.37414413 C11.1644675,4.99749196 10.5537937,4.99749196 10.1771415,5.37414413 C10.0228428,5.52844285 9.92841925,5.72516936 9.9021555,5.93504075 L9.8946427,6.06230671 C9.8963612,6.33844374 9.67390103,6.56369015 9.39776401,6.56540866 C9.12162698,6.56712716 8.89638057,6.34466699 8.89466206,6.06852997 C8.89141689,5.54708205 9.09385635,5.04321572 9.47003472,4.66703735 Z" id="路径"></path>
                </g>
            </g>
        </g>
    </g>
</svg>