<?xml version="1.0" encoding="UTF-8"?>
<svg viewBox="0 0 16 16" version="1.1" xmlns="http://www.w3.org/2000/svg" xmlns:xlink="http://www.w3.org/1999/xlink">
     
    <g id="补充组件" stroke="none" stroke-width="1">
        <g id="富文本编辑器" transform="translate(-960.000000, -2686.000000)">
            <g id="编组" transform="translate(960.000000, 2686.000000)">
                <path d="M12.3333333,13.6673333 C12.6094757,13.6673333 12.8333333,13.891191 12.8333333,14.1673333 C12.8333333,14.4204638 12.6452307,14.6296606 12.4011804,14.6627689 L12.3333333,14.6673333 L3.66666667,14.6673333 C3.39052429,14.6673333 3.16666667,14.4434757 3.16666667,14.1673333 C3.16666667,13.9142028 3.35476925,13.705006 3.59881963,13.6718977 L3.66666667,13.6673333 L12.3333333,13.6673333 Z M11.9365333,1.33266667 C12.1896638,1.33266667 12.3988606,1.52076925 12.4319689,1.76481963 L12.4365333,1.83266667 L12.4365333,8.23 C12.4365333,10.6795919 10.4498928,12.666 7.99986667,12.666 C5.6019687,12.666 3.64794766,10.7632207 3.56588335,8.38571322 L3.5632,8.23 L3.5632,1.83266667 C3.5632,1.55652429 3.78705763,1.33266667 4.0632,1.33266667 C4.31633051,1.33266667 4.52552731,1.52076925 4.55863559,1.76481963 L4.5632,1.83266667 L4.5632,8.23 C4.5632,10.127281 6.10209905,11.666 7.99986667,11.666 C9.84897357,11.666 11.3573795,10.205178 11.4335179,8.37521757 L11.4365333,8.23 L11.4365333,1.83266667 C11.4365333,1.55652429 11.660391,1.33266667 11.9365333,1.33266667 Z" id="形状结合"></path>
            </g>
        </g>
    </g>
</svg>