<?xml version="1.0" encoding="UTF-8"?>
<svg viewBox="0 0 16 16" version="1.1" xmlns="http://www.w3.org/2000/svg" xmlns:xlink="http://www.w3.org/1999/xlink">
     
    <g id="补充组件" stroke="none" stroke-width="1">
        <g id="富文本编辑器" transform="translate(-960.000000, -2878.000000)">
            <g id="编组" transform="translate(960.000000, 2878.000000)">
                <path d="M12.4261,12.1562667 C12.7022424,12.1562667 12.9261,12.3801243 12.9261,12.6562667 C12.9261,12.9093972 12.7379974,13.118594 12.493947,13.1517023 L12.4261,13.1562667 L6.75943333,13.1562667 C6.48329096,13.1562667 6.25943333,12.932409 6.25943333,12.6562667 C6.25943333,12.4031362 6.44753592,12.1939394 6.6915863,12.1608311 L6.75943333,12.1562667 L12.4261,12.1562667 Z M12.4261,7.49026667 C12.7022424,7.49026667 12.9261,7.71412429 12.9261,7.99026667 C12.9261,8.24339718 12.7379974,8.45259397 12.493947,8.48570226 L12.4261,8.49026667 L6.75943333,8.49026667 C6.48329096,8.49026667 6.25943333,8.26640904 6.25943333,7.99026667 C6.25943333,7.73713616 6.44753592,7.52793936 6.6915863,7.49483108 L6.75943333,7.49026667 L12.4261,7.49026667 Z M12.4261,2.8242 C12.7022424,2.8242 12.9261,3.04805763 12.9261,3.3242 C12.9261,3.57733051 12.7379974,3.78652731 12.493947,3.81963559 L12.4261,3.8242 L6.75943333,3.8242 C6.48329096,3.8242 6.25943333,3.60034237 6.25943333,3.3242 C6.25943333,3.07106949 6.44753592,2.86187269 6.6915863,2.82876441 L6.75943333,2.8242 L12.4261,2.8242 Z" id="形状结合"></path>
                <path d="M4.3,1.65 C4.45660852,1.65 4.58727134,1.76108676 4.61749004,1.90876184 L4.62407407,1.97407407 L4.62314815,3.96481481 L5.22592593,3.96481481 C5.40490709,3.96481481 5.55,4.10990772 5.55,4.28888889 C5.55,4.44549741 5.43891324,4.57616023 5.29123816,4.60637893 L5.22592593,4.61296296 L3.37407407,4.61296296 C3.19509291,4.61296296 3.05,4.46787006 3.05,4.28888889 C3.05,4.13228037 3.16108676,4.00161755 3.30876184,3.97139885 L3.37407407,3.96481481 L3.975,3.96481481 L3.975,2.29814815 L3.37407407,2.29814815 C3.21746555,2.29814815 3.08680273,2.18706139 3.05658403,2.0393863 L3.05,1.97407407 C3.05,1.81746555 3.16108676,1.68680273 3.30876184,1.65658403 L3.37407407,1.65 L4.3,1.65 Z" id="形状结合"></path>
                <path d="M3.3584024,6.6584024 C3.76960559,6.2471992 4.4362977,6.2471992 4.84750089,6.6584024 C5.22707307,7.03797458 5.25627093,7.63524145 4.93509334,8.04830626 L4.84749945,8.14750234 L4.244,8.75 L4.96514533,8.750013 C5.13428253,8.750013 5.27539838,8.8699867 5.30803457,9.02947579 L5.31514533,9.100013 C5.31514533,9.2691502 5.19517163,9.41026605 5.03568253,9.44290224 L4.96514533,9.450013 L3.4,9.450013 C3.11416712,9.450013 2.95913168,9.13322684 3.10511059,8.91059793 L3.15251407,8.85252418 L4.35252615,7.65252615 C4.49036234,7.51468996 4.49036234,7.29121333 4.35252615,7.15337714 C4.21468996,7.01554095 3.99121333,7.01554095 3.85337714,7.15337714 C3.80247893,7.20427535 3.76944509,7.26754918 3.75635643,7.33571334 L3.74999322,7.40523038 C3.75119618,7.5985263 3.59547406,7.75619879 3.40217814,7.75740174 C3.20888222,7.7586047 3.05120973,7.60288258 3.05000678,7.40958666 C3.04826789,7.13017429 3.15682418,6.85998061 3.3584024,6.6584024 Z" id="路径"></path>
                <path d="M4.2,10.95 C4.83158374,10.95 5.35,11.3887336 5.35,11.9909091 C5.35,12.1854473 5.30031163,12.3479658 5.21095253,12.4790364 L5.12895428,12.5797338 C5.26808571,12.7422038 5.35,12.9498985 5.35,13.1909091 C5.35,13.7930846 4.83158374,14.2318182 4.2,14.2318182 C3.56841626,14.2318182 3.05,13.7930846 3.05,13.1909091 C3.05,12.9976094 3.20670034,12.8409091 3.4,12.8409091 C3.5691372,12.8409091 3.71025305,12.9608828 3.74288924,13.1203719 L3.75,13.1909091 C3.75,13.3781846 3.9315364,13.5318182 4.2,13.5318182 C4.4684636,13.5318182 4.65,13.3781846 4.65,13.1909091 C4.65,13.0208005 4.4854656,12.89408 4.2,12.89408 C4.00670034,12.89408 3.85,12.7373797 3.85,12.54408 C3.85,12.3507803 4.00670034,12.19408 4.2,12.19408 C4.52805374,12.19408 4.65,12.1198828 4.65,11.9909091 C4.65,11.8036335 4.4684636,11.65 4.2,11.65 C3.99631623,11.65 3.82840374,11.7636911 3.77115492,11.9132342 L3.75361338,11.9792922 C3.72449923,12.1703867 3.54598481,12.3016978 3.35489026,12.2725836 C3.16379571,12.2434695 3.03248466,12.0649551 3.06159881,11.8738605 C3.14293389,11.3400071 3.63160284,10.95 4.2,10.95 Z" id="形状结合"></path>
            </g>
        </g>
    </g>
</svg>