<?xml version="1.0" encoding="UTF-8"?>
<svg viewBox="0 0 16 16" version="1.1" xmlns="http://www.w3.org/2000/svg" xmlns:xlink="http://www.w3.org/1999/xlink">
     
    <g id="补充组件" stroke="none" stroke-width="1">
        <g id="富文本编辑器" transform="translate(-960.000000, -2782.000000)">
            <g id="编组" transform="translate(960.000000, 2782.000000)">
                <path d="M9.72926814,3.67509775 C9.96429251,3.76911156 10.0886636,4.02145602 10.0287622,4.26034632 L10.0078015,4.32503558 L6.9191348,12.0463689 C6.81657428,12.3027591 6.5255872,12.4274628 6.26919697,12.3249022 C6.03417259,12.2308884 5.90980155,11.978544 5.96970287,11.7396537 L5.99066364,11.6749644 L9.07933031,3.95363108 C9.18189083,3.69724085 9.4728779,3.57253723 9.72926814,3.67509775 Z M5.06812486,3.78745462 C5.24610048,3.96449985 5.26296575,4.2422324 5.11824291,4.43835334 L5.06997794,4.49455897 L2.02516901,7.55536859 C1.7890626,7.79252436 1.77090057,8.16348928 1.97080397,8.42135272 L2.02532292,8.48331941 L5.03198958,11.5059861 C5.22673288,11.7017657 5.22589277,12.0183471 5.03011315,12.2130904 C4.85213167,12.3901297 4.57431404,12.4055299 4.37895914,12.2597747 L4.32300886,12.2112139 L1.3164961,9.18870192 C0.700287518,8.56975464 0.673495841,7.58700518 1.23599657,6.93654803 L1.31635384,6.84997436 L4.3610205,3.7893077 C4.55577027,3.59353451 4.87235167,3.59270486 5.06812486,3.78745462 Z M11.583026,3.7407488 L11.6389779,3.7893077 L14.6835023,6.84983141 C15.2997109,7.4687787 15.3265026,8.45152815 14.7640128,9.10197433 L14.6836571,9.18854643 L11.6796571,12.2085464 C11.4849142,12.4043265 11.1683329,12.4051674 10.9725528,12.2104245 C10.7945709,12.0333856 10.7776958,11.7556536 10.9224117,11.5595276 L10.9706747,11.5033202 L13.9748294,8.48316474 C14.2109358,8.24600898 14.2290979,7.87504405 14.0292036,7.61718983 L13.9746872,7.55522564 L10.9300205,4.49455897 C10.7352707,4.29878578 10.7361004,3.98220438 10.9318736,3.78745462 C11.1098492,3.61040938 11.3876663,3.59500002 11.583026,3.7407488 Z" id="形状结合"></path>
            </g>
        </g>
    </g>
</svg>