<?xml version="1.0" encoding="utf-8"?>
<!-- Generator: Adobe Illustrator 26.0.2, SVG Export Plug-In . SVG Version: 6.00 Build 0)  -->
<svg version="1.1" id="图层_1" xmlns="http://www.w3.org/2000/svg" xmlns:xlink="http://www.w3.org/1999/xlink" x="0px" y="0px"
	 viewBox="0 0 16 16" style="enable-background:new 0 0 16 16;" xml:space="preserve">
<style type="text/css">
	.st0{fill:none;}
	.st1{fill-rule:evenodd;clip-rule:evenodd;}
</style>
<rect id="售罄-sold-out备份-2" class="st0"/>
<path id="矢量_36" class="st1" d="M5.48,14.29c0.19-0.08,0.35-0.19,0.49-0.33l7.69-7.69C13.79,6.14,13.91,6,14,5.85
	c0.08-0.13,0.15-0.27,0.21-0.41s0.1-0.29,0.13-0.44c0.04-0.16,0.06-0.33,0.06-0.5S14.38,4.16,14.34,4c-0.03-0.15-0.07-0.3-0.13-0.44
	C14.15,3.42,14.08,3.28,14,3.15C13.91,3,13.79,2.86,13.66,2.73c-0.13-0.13-0.27-0.24-0.42-0.34c-0.13-0.08-0.26-0.15-0.4-0.21
	c-0.15-0.05-0.29-0.1-0.44-0.13C12.23,2.02,12.07,2,11.9,2c-0.18,0-0.34,0.02-0.51,0.05c-0.15,0.03-0.29,0.08-0.44,0.13
	c-0.14,0.06-0.27,0.13-0.4,0.21c-0.15,0.1-0.29,0.21-0.42,0.34l-7.69,7.69c-0.15,0.15-0.25,0.31-0.33,0.49
	C2.03,11.09,2,11.29,2,11.49v2.21c0,0.1,0.01,0.19,0.05,0.27c0.03,0.08,0.08,0.16,0.15,0.22c0.07,0.07,0.14,0.12,0.23,0.16
	C2.51,14.38,2.6,14.4,2.7,14.4h2.21C5.11,14.4,5.3,14.36,5.48,14.29z M12.96,5.56l-1.13,1.13L9.71,4.56l1.12-1.12
	c0.09-0.08,0.18-0.15,0.27-0.21c0.07-0.05,0.15-0.09,0.23-0.12c0.08-0.03,0.17-0.06,0.25-0.08C11.69,3.01,11.79,3,11.9,3
	c0.1,0,0.21,0.01,0.31,0.03c0.08,0.02,0.17,0.05,0.25,0.08c0.08,0.03,0.16,0.07,0.23,0.12c0.09,0.06,0.18,0.13,0.27,0.21
	c0.08,0.08,0.15,0.17,0.21,0.27c0.04,0.07,0.08,0.15,0.12,0.23c0.03,0.08,0.05,0.16,0.07,0.25c0.02,0.1,0.04,0.2,0.04,0.31
	s-0.02,0.21-0.04,0.31c-0.02,0.09-0.04,0.17-0.07,0.25C13.21,5.25,13.1,5.42,12.96,5.56z M5.26,13.25l5.86-5.86L9,5.27l-5.86,5.86
	C3.04,11.23,3,11.35,3,11.49v1.91h1.91C5.05,13.4,5.17,13.35,5.26,13.25z M8.01,13.88c0-0.28,0.22-0.5,0.5-0.5h5
	c0.28,0,0.5,0.22,0.5,0.5s-0.22,0.5-0.5,0.5h-5C8.23,14.38,8.01,14.16,8.01,13.88z"/>
</svg>
