<?xml version="1.0" encoding="UTF-8"?>
<svg viewBox="0 0 16 16" version="1.1" xmlns="http://www.w3.org/2000/svg" xmlns:xlink="http://www.w3.org/1999/xlink">
     
    <g id="补充组件" stroke="none" stroke-width="1">
        <g id="富文本编辑器" transform="translate(-960.000000, -2718.000000)">
            <g id="编组" transform="translate(960.000000, 2718.000000)">
                <path d="M13.3333333,7.5 C13.6094757,7.5 13.8333333,7.72385763 13.8333333,8 C13.8333333,8.25313051 13.6452307,8.46232731 13.4011804,8.49543559 L13.3333333,8.5 L2.66666667,8.5 C2.39052429,8.5 2.16666667,8.27614237 2.16666667,8 C2.16666667,7.74686949 2.35476925,7.53767269 2.59881963,7.50456441 L2.66666667,7.5 L13.3333333,7.5 Z" id="Stroke-1"></path>
                <path d="M7.82025924,1.5 C6.63146084,1.5 5.66159943,1.79320041 4.90710061,2.37848577 C4.11885746,2.97284341 3.72829391,3.7555827 3.72829391,4.73689675 C3.72829391,5.731939 4.1384411,6.4966811 4.96966708,7.04465661 C5.4299953,7.36618129 6.24003864,7.70516421 7.39580186,8.05840583 L8.45104032,8.3680802 C9.30630674,8.62740989 9.89589229,8.84702881 10.2222555,9.02835915 C10.9970168,9.45037605 11.3917305,10.0695842 11.3917305,10.8749274 C11.3917305,12.597169 10.2489547,13.4606684 8.01675761,13.4606684 C6.94901886,13.4606684 6.14264649,13.2366582 5.59780604,12.782578 C5.21481622,12.4552102 4.92829443,11.9956873 4.73745281,11.4051441 C4.71056999,11.3219575 4.64348236,11.0824741 4.53618991,10.6866938 C4.4633871,10.4182372 4.19176945,10.2549997 3.92055213,10.3167279 C3.6448367,10.3794797 3.46656492,10.6471725 3.51497096,10.9257648 C3.56432609,11.2098948 3.608223,11.4192664 3.64666168,11.5538797 C4.16683469,13.37554 5.45982494,14.3487309 7.54193753,14.4836962 L7.79733784,14.4959247 L8.06042392,14.5 C11.0671075,14.5 12.545386,13.2719142 12.545386,10.8021444 C12.545386,9.77451471 12.1130795,8.96871808 11.2393208,8.37363763 C10.6823343,7.99276183 9.71529456,7.60783974 8.34009071,7.22177302 L7.79815354,7.05512276 C6.94245792,6.78404694 6.32420265,6.54620988 5.94001781,6.33959545 C5.23987832,5.93368516 4.88194938,5.3889673 4.88194938,4.71263576 C4.88194938,4.05933515 5.16166413,3.52403591 5.71302509,3.11559078 C6.24037336,2.73051217 6.93604901,2.53933159 7.79842609,2.53933159 C8.83806315,2.53933159 9.62370575,2.77213313 10.1512929,3.24118645 C10.5531002,3.57943503 10.8416646,4.0723463 11.018,4.71874061 L11.1386544,5.1826399 C11.2113153,5.46201068 11.4966933,5.62958219 11.776064,5.55692135 C11.7792108,5.55610292 11.7823498,5.55525515 11.7854807,5.55437814 C12.0723169,5.47403203 12.2443235,5.18130649 12.174921,4.89162775 C12.1187427,4.65716904 12.080422,4.50109622 12.0599588,4.42340928 C11.5844093,2.6180181 10.3474089,1.65233799 8.33071484,1.51664378 L8.0794021,1.50416028 L7.82025924,1.5 Z" id="路径"></path>
            </g>
        </g>
    </g>
</svg>