<?xml version="1.0" encoding="UTF-8"?>
<svg viewBox="0 0 16 16" version="1.1" xmlns="http://www.w3.org/2000/svg" xmlns:xlink="http://www.w3.org/1999/xlink">
     
    <g id="补充组件" stroke="none" stroke-width="1">
        <g id="富文本编辑器" transform="translate(-1276.000000, -2686.000000)">
            <g id="编组" transform="translate(1276.000000, 2686.000000)">
                <path d="M11.5016667,8.49833333 C12.1459989,8.49833333 12.6683333,9.02066779 12.6683333,9.665 L12.6683333,9.665 L12.6683333,12.165 C12.6683333,12.8093322 12.1459989,13.3316667 11.5016667,13.3316667 L11.5016667,13.3316667 L5.83833333,13.3316667 C5.19400113,13.3316667 4.66833333,12.8093322 4.66833333,12.165 L4.66833333,12.165 L4.66833333,9.665 C4.66833333,9.02066779 5.19400113,8.49833333 5.83833333,8.49833333 L5.83833333,8.49833333 Z M14.165,2.67167318 C14.4104599,2.67167318 14.6146084,2.84854834 14.6569443,3.08179754 L14.665,3.17167318 L14.665,12.8283333 C14.665,13.1044757 14.4411424,13.3283333 14.165,13.3283333 C13.9195401,13.3283333 13.7153916,13.1515825 13.6730557,12.9183333 L13.665,12.8283333 L13.665,3.17167318 C13.665,2.8955308 13.8888576,2.67167318 14.165,2.67167318 Z M11.5016667,9.49833333 L5.83833333,9.49833333 C5.74628588,9.49833333 5.66833333,9.57295254 5.66833333,9.665 L5.66833333,9.665 L5.66833333,12.165 C5.66833333,12.2570475 5.74628588,12.3316667 5.83833333,12.3316667 L5.83833333,12.3316667 L11.5016667,12.3316667 C11.5937141,12.3316667 11.6683333,12.2570475 11.6683333,12.165 L11.6683333,12.165 L11.6683333,9.665 C11.6683333,9.57295254 11.5937141,9.49833333 11.5016667,9.49833333 L11.5016667,9.49833333 Z M11.5016667,2.66833333 C12.1459989,2.66833333 12.6683333,3.19066779 12.6683333,3.835 L12.6683333,3.835 L12.6683333,6.335 C12.6683333,6.97933221 12.1459989,7.50166667 11.5016667,7.50166667 L11.5016667,7.50166667 L2.505,7.50166667 C1.86066779,7.50166667 1.335,6.97933221 1.335,6.335 L1.335,6.335 L1.335,3.835 C1.335,3.19066779 1.86066779,2.66833333 2.505,2.66833333 L2.505,2.66833333 Z M11.5083333,3.66833333 L2.505,3.66833333 C2.41295254,3.66833333 2.335,3.74295254 2.335,3.835 L2.335,3.835 L2.335,6.335 C2.335,6.42704746 2.41295254,6.50166667 2.505,6.50166667 L2.505,6.50166667 L11.5083333,6.50166667 C11.6003808,6.50166667 11.675,6.42704746 11.675,6.335 L11.675,6.335 L11.675,3.835 C11.675,3.74295254 11.6003808,3.66833333 11.5083333,3.66833333 L11.5083333,3.66833333 Z" id="形状结合" transform="translate(8.000000, 8.000000) scale(-1, 1) translate(-8.000000, -8.000000) "></path>
            </g>
        </g>
    </g>
</svg>