<?xml version="1.0" encoding="UTF-8"?>
<svg viewBox="0 0 16 16" version="1.1" xmlns="http://www.w3.org/2000/svg" xmlns:xlink="http://www.w3.org/1999/xlink">
     
    <g id="补充组件" stroke="none" stroke-width="1">
        <g id="富文本编辑器" transform="translate(-1276.000000, -2910.000000)">
            <g id="编组" transform="translate(1276.000000, 2910.000000)">
                <path d="M12,2.00244141 C13.1045695,2.00244141 14,2.89787191 14,4.00244141 L14,4.00244141 L14,12.0024414 C14,13.1070109 13.1045695,14.0024414 12,14.0024414 L12,14.0024414 L4,14.0024414 C2.8954305,14.0024414 2,13.1070109 2,12.0024414 L2,12.0024414 L2,4.00244141 C2,2.89787191 2.8954305,2.00244141 4,2.00244141 L4,2.00244141 Z M5.641,6.49944141 L3,6.49944141 L3,12.0024414 C3,12.5152772 3.38604019,12.9379486 3.88337887,12.9957137 L4,13.0024414 L5.641,13.0024414 L5.641,6.49944141 Z M9.308,6.49944141 L6.641,6.49944141 L6.641,13.0024414 L9.308,13.0024414 L9.308,6.49944141 Z M13,6.49744141 L12.9750977,6.5 L10.308,6.49944141 L10.308,13.0024414 L12,13.0024414 C12.5128358,13.0024414 12.9355072,12.6164012 12.9932723,12.1190625 L13,12.0024414 L13,6.49744141 Z M12,3.00244141 L4,3.00244141 C3.44771525,3.00244141 3,3.45015666 3,4.00244141 L3,4.00244141 L3,5.49944141 L12.9750977,5.5 L13,5.50144141 L13,4.00244141 C13,3.48960557 12.6139598,3.06693425 12.1166211,3.00916914 L12,3.00244141 Z" id="形状结合"></path>
            </g>
        </g>
    </g>
</svg>