<?xml version="1.0" encoding="UTF-8"?>
<svg viewBox="0 0 16 16" version="1.1" xmlns="http://www.w3.org/2000/svg" xmlns:xlink="http://www.w3.org/1999/xlink">
     
    <g id="补充组件" stroke="none" stroke-width="1">
        <g id="富文本编辑器" transform="translate(-960.000000, -2910.000000)">
            <g id="编组" transform="translate(960.000000, 2910.000000)">
                <path d="M3.74056667,12.0091333 C4.10923333,12.0091333 4.40723333,12.3071333 4.40723333,12.6758 C4.40723333,13.0438 4.10923333,13.3424667 3.74056667,13.3424667 C3.37256667,13.3424667 3.0739,13.0438 3.0739,12.6758 C3.0739,12.3071333 3.37256667,12.0091333 3.74056667,12.0091333 Z M12.4261,12.1562667 C12.7022424,12.1562667 12.9261,12.3801243 12.9261,12.6562667 C12.9261,12.9093972 12.7379974,13.118594 12.493947,13.1517023 L12.4261,13.1562667 L5.75943333,13.1562667 C5.48329096,13.1562667 5.25943333,12.932409 5.25943333,12.6562667 C5.25943333,12.4031362 5.44753592,12.1939394 5.6915863,12.1608311 L5.75943333,12.1562667 L12.4261,12.1562667 Z M3.74056667,7.3242 C4.10923333,7.3242 4.40723333,7.6222 4.40723333,7.99086667 C4.40723333,8.35886667 4.10923333,8.65753333 3.74056667,8.65753333 C3.37256667,8.65753333 3.0739,8.35886667 3.0739,7.99086667 C3.0739,7.6222 3.37256667,7.3242 3.74056667,7.3242 Z M12.4261,7.49026667 C12.7022424,7.49026667 12.9261,7.71412429 12.9261,7.99026667 C12.9261,8.24339718 12.7379974,8.45259397 12.493947,8.48570226 L12.4261,8.49026667 L5.75943333,8.49026667 C5.48329096,8.49026667 5.25943333,8.26640904 5.25943333,7.99026667 C5.25943333,7.73713616 5.44753592,7.52793936 5.6915863,7.49483108 L5.75943333,7.49026667 L12.4261,7.49026667 Z M3.74056667,2.65753333 C4.10923333,2.65753333 4.40723333,2.95553333 4.40723333,3.3242 C4.40723333,3.6922 4.10923333,3.9902 3.74056667,3.9902 C3.37256667,3.9902 3.07456667,3.6922 3.07456667,3.3242 C3.07456667,2.95553333 3.37256667,2.65753333 3.74056667,2.65753333 Z M12.4261,2.8242 C12.7022424,2.8242 12.9261,3.04805763 12.9261,3.3242 C12.9261,3.57733051 12.7379974,3.78652731 12.493947,3.81963559 L12.4261,3.8242 L5.75943333,3.8242 C5.48329096,3.8242 5.25943333,3.60034237 5.25943333,3.3242 C5.25943333,3.07106949 5.44753592,2.86187269 5.6915863,2.82876441 L5.75943333,2.8242 L12.4261,2.8242 Z" id="形状结合"></path>
            </g>
        </g>
    </g>
</svg>