<?xml version="1.0" encoding="UTF-8"?>
<svg viewBox="0 0 16 16" version="1.1" xmlns="http://www.w3.org/2000/svg" xmlns:xlink="http://www.w3.org/1999/xlink">
     
    <g id="补充组件" stroke="none" stroke-width="1">
        <g id="富文本编辑器" transform="translate(-960.000000, -2590.000000)">
            <g id="编组" transform="translate(960.000000, 2590.000000)">
                <path d="M8.5489,1.16666667 C10.4357565,1.16666667 11.9655667,2.69647683 11.9655667,4.58333333 C11.9655667,5.61395722 11.5091514,6.53805717 10.7874356,7.16451826 C10.9450806,7.25011163 11.0973159,7.34679301 11.2431959,7.45362259 C12.2861096,8.21798899 12.9157667,9.43212792 12.9157667,10.75 C12.9157667,13.0047696 11.0873768,14.8326667 8.83243333,14.8326667 C8.78471821,14.8326667 8.73817389,14.8276539 8.69329826,14.8181262 L8.62664742,14.8288482 L8.62664742,14.8288482 L8.5489,14.8333333 L4.7509,14.8333333 C3.86751776,14.8333333 3.14422942,14.1453803 3.08777977,13.276219 L3.08423333,13.1666667 L3.08423333,2.83333333 C3.08423333,1.94995109 3.77218638,1.22666275 4.6413477,1.1702131 L4.7509,1.16666667 L8.5489,1.16666667 L8.5489,1.16666667 Z M4.41723333,7.99966667 L4.41756667,13.1666667 C4.41756667,13.3300535 4.53570843,13.4663493 4.69105791,13.4946202 L4.7509,13.5 L8.5489,13.5 C8.59697121,13.5 8.64385407,13.5050879 8.68903948,13.5147545 C8.73470206,13.5047272 8.78293779,13.4993333 8.83243333,13.4993333 C10.3510776,13.4993333 11.5824333,12.2683095 11.5824333,10.75 C11.5824333,9.86164956 11.1588748,9.04492106 10.4552151,8.52919869 C9.98796231,8.18702417 9.42523105,8 8.83243333,8 L4.41723333,7.99966667 Z M8.5489,2.5 L4.7509,2.5 C4.58751319,2.5 4.45121733,2.61814176 4.42294649,2.77349124 L4.41756667,2.83333333 L4.41723333,6.66666667 L8.5489,6.66666667 L8.5489,6.66666667 C9.69937683,6.66666667 10.6322333,5.73381017 10.6322333,4.58333333 C10.6322333,3.4328565 9.69937683,2.5 8.5489,2.5 Z" id="形状结合"></path>
            </g>
        </g>
    </g>
</svg>