<?xml version="1.0" encoding="UTF-8"?>
<svg viewBox="0 0 16 16" version="1.1" xmlns="http://www.w3.org/2000/svg" xmlns:xlink="http://www.w3.org/1999/xlink">
     
    <g id="补充组件" stroke="none" stroke-width="1">
        <g id="富文本编辑器" transform="translate(-1276.000000, -2654.000000)">
            <g id="编组" transform="translate(1276.000000, 2654.000000)">
                <path d="M11.0618524,1.97073831 C11.458519,1.97073831 11.856519,2.12340498 12.160519,2.42807164 C12.764519,3.03207164 12.770519,4.00540498 12.1738524,4.60140498 L12.1738524,4.60140498 L7.17651903,9.59873831 C7.12251903,9.65340498 7.05918569,9.69807164 6.98985236,9.73073831 L6.98985236,9.73073831 L4.22585236,11.0340716 C4.15318569,11.0680716 4.07918569,11.083405 4.00851903,11.083405 C3.66518569,11.083405 3.38785236,10.717405 3.55518569,10.3627383 L3.55518569,10.3627383 L4.85785236,7.59873831 C4.89051903,7.53007164 4.93518569,7.46607164 4.98985236,7.41207164 L4.98985236,7.41207164 L9.98718569,2.41473831 C10.2831857,2.11873831 10.6718524,1.97073831 11.0618524,1.97073831 Z M9.860073,3.95473831 L5.73785236,8.07807164 L5.04785236,9.54007164 L6.51051903,8.85073831 L10.633073,4.72773831 L9.860073,3.95473831 Z M11.0618524,2.97073831 L11.0154727,2.97278152 C10.9294079,2.98031239 10.8032968,3.01207164 10.6938524,3.12207164 L10.6938524,3.12207164 L10.567073,3.24773831 L11.340073,4.02073831 L11.4671857,3.89473831 C11.5771857,3.78473831 11.608482,3.65714572 11.6158585,3.57021671 L11.6178524,3.52340498 C11.6171857,3.37740498 11.558519,3.23940498 11.4538524,3.13473831 C11.3478524,3.02940498 11.208519,2.97073831 11.0618524,2.97073831 L11.0618524,2.97073831 Z" id="形状结合"></path>
                <path d="M12.3333333,12.2066068 C12.6094757,12.2066068 12.8333333,12.4304644 12.8333333,12.7066068 L12.8333333,12.7066068 L12.8333333,14.2072734 C12.8333333,14.4834158 12.6094757,14.7072734 12.3333333,14.7072734 L12.3333333,14.7072734 L3.66666667,14.7072734 C3.39052429,14.7072734 3.16666667,14.4834158 3.16666667,14.2072734 L3.16666667,14.2072734 L3.16666667,12.7066068 C3.16666667,12.4304644 3.39052429,12.2066068 3.66666667,12.2066068 L3.66666667,12.2066068 Z" id="形状结合备份"></path>
            </g>
        </g>
    </g>
</svg>