<?xml version="1.0" encoding="UTF-8"?>
<svg viewBox="0 0 16 16" version="1.1" xmlns="http://www.w3.org/2000/svg" xmlns:xlink="http://www.w3.org/1999/xlink">
     
    <g id="补充组件" stroke="none" stroke-width="1">
        <g id="富文本编辑器" transform="translate(-1276.000000, -2494.000000)">
            <g id="编组" transform="translate(1276.000000, 2494.000000)">
                <path d="M13.5,12.8333333 C13.7761424,12.8333333 14,13.057191 14,13.3333333 C14,13.5864638 13.8118974,13.7956606 13.567847,13.8287689 L13.5,13.8333333 L2.5,13.8333333 C2.22385763,13.8333333 2,13.6094757 2,13.3333333 C2,13.0802028 2.18810259,12.871006 2.43215296,12.8378977 L2.5,12.8333333 L13.5,12.8333333 Z M4.59733333,5.362 C4.80733333,5.15266667 5.16666667,5.30133333 5.16666667,5.598 L5.16666667,5.598 L5.16666667,10.4026667 C5.16666667,10.6993333 4.80733333,10.848 4.59733333,10.6386667 L4.59733333,10.6386667 L2.33666667,8.37733333 C2.128,8.16933333 2.128,7.83133333 2.33666667,7.62333333 L2.33666667,7.62333333 Z M13.5,9.278 C13.7761424,9.278 14,9.50185763 14,9.778 C14,10.0311305 13.8118974,10.2403273 13.567847,10.2734356 L13.5,10.278 L6.83333333,10.278 C6.55719096,10.278 6.33333333,10.0541424 6.33333333,9.778 C6.33333333,9.52486949 6.52143592,9.31567269 6.7654863,9.28256441 L6.83333333,9.278 L13.5,9.278 Z M13.5,5.72233333 C13.7761424,5.72233333 14,5.94619096 14,6.22233333 C14,6.47546384 13.8118974,6.68466064 13.567847,6.71776892 L13.5,6.72233333 L6.83333333,6.72233333 C6.55719096,6.72233333 6.33333333,6.49847571 6.33333333,6.22233333 C6.33333333,5.96920282 6.52143592,5.76000603 6.7654863,5.72689774 L6.83333333,5.72233333 L13.5,5.72233333 Z M13.5,2.16666667 C13.7761424,2.16666667 14,2.39052429 14,2.66666667 C14,2.91979718 13.8118974,3.12899397 13.567847,3.16210226 L13.5,3.16666667 L2.5,3.16666667 C2.22385763,3.16666667 2,2.94280904 2,2.66666667 C2,2.41353616 2.18810259,2.20433936 2.43215296,2.17123108 L2.5,2.16666667 L13.5,2.16666667 Z" id="形状结合"></path>
            </g>
        </g>
    </g>
</svg>