<?xml version="1.0" encoding="UTF-8"?>
<svg viewBox="0 0 16 16" version="1.1" xmlns="http://www.w3.org/2000/svg" xmlns:xlink="http://www.w3.org/1999/xlink">
     
    <g id="补充组件" stroke="none" stroke-width="1">
        <g id="富文本编辑器" transform="translate(-960.000000, -2494.000000)">
            <g id="编组" transform="translate(960.000000, 2494.000000)">
                <path d="M8.58815995,1.99044377 C9.36942209,1.20918162 10.6373379,1.20918162 11.4186001,1.99044377 L11.4186001,1.99044377 L14.0092667,4.58111043 C14.791229,5.36307275 14.791229,6.63047693 14.0092846,7.41153268 L14.0092846,7.41153268 L7.41173234,14.0097515 C6.62981608,14.7907792 5.36272194,14.7907792 4.58153877,14.009596 L4.58153877,14.009596 L1.98995901,11.4186828 C1.20896478,10.6368001 1.20896478,9.36986088 1.99032676,8.58761037 L1.99032676,8.58761037 Z M13.29058,13.1665972 C13.5667224,13.1665972 13.79058,13.3904548 13.79058,13.6665972 C13.79058,13.9197277 13.6024774,14.1289245 13.358427,14.1620327 L13.29058,14.1665972 L9.99991334,14.1665972 C9.72377096,14.1665972 9.49991334,13.9427395 9.49991334,13.6665972 C9.49991334,13.4134666 9.68801593,13.2042698 9.9320663,13.1711616 L9.99991334,13.1665972 L13.29058,13.1665972 Z M3.7572593,8.23549716 L2.69746767,9.29468283 C2.30646189,9.68613343 2.30646189,10.3205275 2.69722124,10.7117316 L2.69722124,10.7117316 L5.28860006,13.3024438 C5.67937141,13.6932151 6.31361059,13.6932151 6.70480875,13.3024616 L6.70480875,13.3024616 L7.7642593,12.2424972 L3.7572593,8.23549716 Z M10.7114933,2.69755055 C10.3207554,2.30681269 9.68600458,2.30681269 9.29528946,2.69752781 L9.29528946,2.69752781 L4.4642593,7.52849716 L8.4712593,11.5354972 L13.302361,6.70424283 C13.663441,6.34357318 13.6912163,5.77567671 13.385529,5.38261826 L13.3021599,5.28821721 Z" id="形状结合"></path>
            </g>
        </g>
    </g>
</svg>