<?xml version="1.0" encoding="utf-8"?>
<!-- Generator: Adobe Illustrator 15.0.0, SVG Export Plug-In . SVG Version: 6.00 Build 0)  -->
<!DOCTYPE svg PUBLIC "-//W3C//DTD SVG 1.1//EN" "http://www.w3.org/Graphics/SVG/1.1/DTD/svg11.dtd">
<svg version="1.1" id="图层_1" xmlns="http://www.w3.org/2000/svg" xmlns:xlink="http://www.w3.org/1999/xlink" x="0px" y="0px"
	 viewBox="0 0 597.015 597.014" enable-background="new 0 0 597.015 597.014"
	 xml:space="preserve">
<g>
	<g>
		<path d="M87.331,509.681c116.438,116.443,305.916,116.443,422.353,0c116.441-116.438,116.441-305.911,0-422.349
			C393.247-29.11,203.77-29.11,87.331,87.332C-29.11,203.77-29.11,393.237,87.331,509.681L87.331,509.681z M107.503,110.483
			C211.175,6.812,378.243,0,488.54,108.483c104.52,102.801,103.658,274.363,0,378.035c-103.676,103.668-276.378,104.668-380.037,1
			C4.827,383.847,3.827,214.153,107.503,110.483L107.503,110.483z M107.503,110.483"/>
	</g>
</g>
<g>
	<path d="M422.309,200.463H174.703c-14.627,0-26.523,10.995-26.523,24.511v147.064
		c0,13.518,11.896,24.512,26.523,24.512h247.606c14.617,0,26.525-10.994,26.525-24.512V224.975
		C448.834,211.458,436.913,200.463,422.309,200.463L422.309,200.463z M165.867,372.039V228.112l78.108,72.16h-0.079l-78.029,72.109
		V372.039z M178.639,216.804h239.725l-119.85,110.75L178.639,216.804z M256.42,311.788l42.081,38.891l42.275-39.072l74.266,68.618
		H182.378L256.42,311.788z M353.549,300.271h-0.51l78.107-72.16v143.864L353.549,300.271z M353.549,300.271"/>
</g>
</svg>
