<?xml version="1.0" encoding="UTF-8" standalone="no"?>
<svg viewBox="0 0 14 12" version="1.1" xmlns="http://www.w3.org/2000/svg" xmlns:xlink="http://www.w3.org/1999/xlink">
    <!-- Generator: Sketch 50.2 (55047) - http://www.bohemiancoding.com/sketch -->
    <defs></defs>
    <g id="业务组件">
        <g  transform="translate(-428.000000, -1183.000000)">
            <g id="Group-14" transform="translate(167.000000, 1140.000000)">
                <g id="Icon/邮件" transform="translate(260.000000, 41.000000)">
                    <g id="Group">
                        <path d="M13.8763794,2 L2.12362056,2 C1.50250808,2 1,2.50188336 1,3.12222367 L1,12.8777763 C1,13.4981166 1.50250808,14 2.12362056,14 L13.8763794,14 C14.4974919,14 15,13.4981166 15,12.8777763 L15,3.12222367 C15,2.50344201 14.4959313,2 13.8763794,2 Z M12.6716085,3.12222367 L8.48768253,6.61514482 L8.46271319,6.6354072 L8.44086501,6.65878686 C8.33474529,6.77100922 8.19117155,6.83179634 8.03667373,6.83335498 C7.88061532,6.83335498 7.73704158,6.77256787 7.63092186,6.66346279 L7.60907368,6.64164177 L3.3361944,3.12222367 L12.6716085,3.12222367 Z M2.12362056,12.8777763 C2.12362056,12.8777763 2.12362056,9.77815301 2.12362056,3.57890635 L6.84906922,7.46772308 C7.16742838,7.78256916 7.58566492,7.95557865 8.03511314,7.95557865 C8.49392487,7.95402 8.91528258,7.77789323 9.23208115,7.45837122 L13.87794,3.580465 L13.87794,12.8777763 C13.8768996,12.8777763 9.95879315,12.8777763 2.12362056,12.8777763 Z" id="Shape" fill-rule="nonzero"></path>
                    </g>
                </g>
            </g>
        </g>
    </g>
</svg>