<svg width="24.000000" height="24.000000" viewBox="0 0 24 24" fill="none" xmlns="http://www.w3.org/2000/svg" xmlns:xlink="http://www.w3.org/1999/xlink">
	<g clip-path="url(#clip131_1889)">
		<path id="矢量 165" d="M21 2L13 2C12.4477 2 12 2.44775 12 3L12 3.75L5.08057 3.75C4.8797 3.75 4.68341 3.771 4.4917 3.81287C4.32776 3.84875 4.16718 3.8999 4.00989 3.96643C3.85278 4.03284 3.70428 4.11243 3.56433 4.20496C3.41125 4.30615 3.26843 4.42297 3.13605 4.55542C3.0036 4.68787 2.88678 4.83057 2.78558 4.98364C2.69299 5.12354 2.61346 5.27222 2.547 5.42932C2.48053 5.58655 2.42932 5.74707 2.39349 5.91101C2.35156 6.10278 2.33057 6.29907 2.33057 6.5L2.33057 10.55C2.33057 10.7509 2.3515 10.9471 2.39343 11.1388C2.42926 11.3027 2.48047 11.4635 2.547 11.6207C2.61346 11.7778 2.69299 11.9264 2.78552 12.0663C2.88678 12.2194 3.0036 12.3622 3.13605 12.4946C3.26849 12.6271 3.41125 12.7439 3.56433 12.8451C3.70129 12.9357 3.8465 13.0138 4 13.0795L4 14.251C4 14.671 4.33002 15.001 4.75 15.001C5.16998 15.001 5.5 14.671 5.5 14.251L5.5 12.5704L6.14197 13.4594C6.15613 13.4735 6.24847 13.5782 6.26367 13.5912C6.34766 13.6519 6.48334 13.7302 6.57642 13.7523C6.66956 13.7744 6.76721 13.7771 6.86945 13.7606C6.97168 13.7441 7.06348 13.7108 7.1449 13.6606C7.22632 13.6104 7.29736 13.5433 7.35803 13.4594L8 12.5704L8 14.251C8 14.671 8.33002 15.001 8.75 15.001C9.16998 15.001 9.5 14.671 9.5 14.251L9.5 10.251C9.5 10.1475 9.48169 10.0515 9.44507 9.96313C9.40845 9.87463 9.35358 9.79395 9.28033 9.7207C9.20709 9.64746 9.12628 9.59253 9.0379 9.55591C8.94952 9.51929 8.85358 9.50098 8.75 9.50098C8.68982 9.50098 8.63123 9.50781 8.57434 9.52161C8.5174 9.53528 8.46216 9.55579 8.40857 9.58325C8.35498 9.6106 8.30591 9.64343 8.26154 9.68152C8.2171 9.7196 8.17725 9.76306 8.14197 9.81189L6.75 11.7393L5.35803 9.81189C5.29736 9.72791 5.22638 9.66089 5.1449 9.6106C5.06348 9.56042 4.97168 9.5271 4.86945 9.51062C4.76721 9.49402 4.66956 9.49683 4.57642 9.51892C4.48334 9.54102 4.39484 9.5824 4.31085 9.64294C4.26208 9.67822 4.21863 9.71802 4.18048 9.76245C4.1424 9.80688 4.10962 9.85596 4.08221 9.90955C4.05481 9.96313 4.03424 10.0184 4.02057 10.0753C4.00684 10.1322 4 10.1908 4 10.251L4 11.1794C3.97327 11.1337 3.94946 11.0859 3.92847 11.0364C3.90149 10.9725 3.88007 10.9072 3.8642 10.8407C3.8418 10.7466 3.83057 10.6495 3.83057 10.55L3.83057 6.5C3.83057 6.40051 3.8418 6.30359 3.8642 6.20947C3.88 6.14282 3.90143 6.07764 3.92847 6.01367C3.95697 5.94629 3.99078 5.88245 4.02991 5.8219C4.07758 5.74817 4.13318 5.67957 4.19666 5.61609C4.26019 5.55261 4.3288 5.49707 4.40247 5.44934C4.46295 5.41028 4.52692 5.37646 4.59424 5.3479C4.65814 5.32092 4.72345 5.29944 4.78998 5.28357C4.88416 5.26123 4.98108 5.25 5.08057 5.25L12 5.25L12 6C12 6.55225 12.4477 7 13 7L21 7C21.5523 7 22 6.55225 22 6L22 3C22 2.44775 21.5523 2 21 2ZM10.5 10.251L10.5 14.251C10.5 14.671 10.83 15.001 11.25 15.001C11.67 15.001 12 14.671 12 14.251L12 13.5558L13.2202 14.7754C13.5172 15.0723 13.9839 15.0721 14.2808 14.775C14.5778 14.478 14.5776 14.0114 14.2806 13.7145L13.614 13.0482C13.7431 12.964 13.8947 12.8414 14.0016 12.723C14.0597 12.6587 14.113 12.5909 14.1614 12.5199C14.2451 12.397 14.3143 12.2642 14.3688 12.1213C14.4031 12.0315 14.4307 11.9402 14.4515 11.8473C14.4838 11.7036 14.5 11.5557 14.5 11.4047C14.5 11.2535 14.4838 11.106 14.4515 10.962C14.4307 10.8691 14.4031 10.7778 14.3688 10.688C14.3143 10.5453 14.2451 10.4124 14.1614 10.2894C14.113 10.2184 14.0598 10.1506 14.0016 10.0863C13.8947 9.9679 13.7766 9.86658 13.6474 9.78235C13.5787 9.73755 13.5069 9.69763 13.4319 9.66248C13.3113 9.60596 13.1875 9.56433 13.0605 9.53748C12.9457 9.51318 12.8283 9.50098 12.7083 9.50098L11.25 9.50098C11.1464 9.50098 11.0505 9.51929 10.9621 9.55591C10.8737 9.59253 10.7929 9.64746 10.7197 9.7207C10.6464 9.79395 10.5916 9.87463 10.5549 9.96313C10.5183 10.0515 10.5 10.1475 10.5 10.251ZM15.5 10.251L15.5 14.251C15.5 14.671 15.83 15.001 16.25 15.001C16.67 15.001 17 14.671 17 14.251L17 13.3083L18 13.3083C18.0673 13.3083 18.1339 13.3053 18.1998 13.2991L19.0845 13.3C19.1839 13.3 19.2807 13.3113 19.3748 13.3336C19.4409 13.3495 19.5073 13.3711 19.5708 13.3979C19.6381 13.4264 19.702 13.4602 19.7625 13.4994C19.8362 13.5471 19.9048 13.6027 19.9684 13.6661C20.0317 13.7295 20.0872 13.798 20.1348 13.8715C20.1738 13.9319 20.2081 13.9963 20.2366 14.0637C20.2636 14.1277 20.285 14.1929 20.3008 14.2595C20.3232 14.3538 20.3345 14.4506 20.3345 14.55L20.3345 17.5C20.3345 17.5996 20.3232 17.6964 20.3008 17.7906C20.285 17.8572 20.2635 17.9225 20.2366 17.9863C20.2081 18.0537 20.1743 18.1177 20.1351 18.1781C20.0875 18.2517 20.0318 18.3204 19.9684 18.3839C19.905 18.4473 19.8366 18.5027 19.7631 18.5503C19.7028 18.5892 19.6379 18.6238 19.5708 18.6521C19.5074 18.679 19.4426 18.7003 19.3766 18.7161C19.2824 18.7385 19.184 18.75 19.0845 18.75L12 18.75L12 18C12 17.4478 11.5523 17 11 17L3 17C2.44769 17 2 17.4478 2 18L2 21C2 21.5522 2.44769 22 3 22L11 22C11.5523 22 12 21.5522 12 21L12 20.25L19.0845 20.25C19.2853 20.25 19.4816 20.2291 19.6732 20.1871C19.8372 20.1514 19.9979 20.1001 20.1551 20.0337C20.3123 19.9672 20.4608 19.8877 20.6007 19.7952C20.7537 19.694 20.8966 19.577 21.029 19.4446C21.1614 19.3123 21.2782 19.1694 21.3795 19.0165C21.472 18.8766 21.5516 18.7279 21.618 18.5707C21.6846 18.4135 21.7358 18.2528 21.7716 18.0889C21.8135 17.8972 21.8345 17.7009 21.8345 17.5L21.8345 14.55C21.8345 14.3491 21.8135 14.1528 21.7716 13.9612C21.7357 13.7972 21.6846 13.6366 21.618 13.4794C21.5516 13.3224 21.4722 13.174 21.3798 13.0342C21.2787 12.8816 21.1611 12.7377 21.029 12.6055C20.8966 12.4731 20.7539 12.3563 20.6009 12.2551C20.4609 12.1626 20.3123 12.0829 20.1552 12.0165C20.0786 11.9841 20.0012 11.9553 19.923 11.9302C19.9377 11.8816 19.9503 11.8325 19.9608 11.783C19.9869 11.6597 20 11.5336 20 11.4047C20 11.2759 19.9869 11.1498 19.9608 11.0265C19.9331 10.8956 19.8907 10.7678 19.8336 10.6432C19.7947 10.5583 19.7501 10.4773 19.6998 10.4C19.614 10.2684 19.5116 10.1476 19.3926 10.0377C19.3192 9.97009 19.2417 9.90845 19.16 9.85303C19.0361 9.76892 18.9025 9.69885 18.7593 9.64294C18.6605 9.60449 18.56 9.57373 18.4578 9.5509C18.3089 9.51758 18.1563 9.50098 18 9.50098L16.25 9.50098C16.1464 9.50098 16.0505 9.51929 15.9621 9.55591C15.8737 9.59253 15.7929 9.64746 15.7197 9.7207C15.6464 9.79395 15.5916 9.87463 15.5549 9.96313C15.5183 10.0515 15.5 10.1475 15.5 10.251ZM12 11.8083L12.7083 11.8083C12.7596 11.7991 12.8441 11.7667 12.8882 11.7179C12.929 11.6484 13 11.498 13 11.4047C13 11.3113 12.9796 11.2299 12.9389 11.1604C12.8948 11.1116 12.7964 11.0135 12.7452 11.0043L12 11.001L12 11.8083ZM17 11.8083L18 11.8083C18.1002 11.8083 18.1893 11.7876 18.2675 11.7461C18.306 11.7256 18.342 11.7 18.3752 11.6693C18.4329 11.6161 18.4706 11.5573 18.4883 11.4929C18.4883 11.4625 18.4961 11.3448 18.4883 11.3165C18.4707 11.2522 18.4329 11.1934 18.3752 11.14C18.342 11.1094 18.3062 11.0839 18.2676 11.0634C18.1895 11.0219 18.1002 11.001 18 11.001L17 11.001L17 11.8083Z" fill-opacity="1.000000" fill-rule="evenodd"/>
	</g>
</svg>
