<?xml version="1.0" encoding="utf-8"?>
<!-- Generator: Adobe Illustrator 26.0.2, SVG Export Plug-In . SVG Version: 6.00 Build 0)  -->
<svg version="1.1" id="图层_1" xmlns="http://www.w3.org/2000/svg" xmlns:xlink="http://www.w3.org/1999/xlink" x="0px" y="0px"
	 viewBox="0 0 16 16" style="enable-background:new 0 0 16 16;" xml:space="preserve">
<style type="text/css">
	.st0{fill:none;}
	.st1{fill-rule:evenodd;clip-rule:evenodd;}
</style>
<rect id="矩形备份-5" class="st0"/>
<path id="形状结合" class="st1" d="M8,1c3.87,0,7,3.13,7,7s-3.13,7-7,7s-7-3.13-7-7S4.13,1,8,1z M10.29,5.04L8,7.33L5.71,5.04
	c-0.19-0.19-0.49-0.19-0.67,0L4.98,5.11c-0.12,0.18-0.1,0.43,0.06,0.6L7.33,8l-2.29,2.29c-0.19,0.19-0.19,0.49,0,0.67
	c0.09,0.09,0.21,0.14,0.34,0.14l0.09-0.01c0.09-0.02,0.18-0.06,0.24-0.13L8,8.67l2.29,2.29c0.09,0.09,0.21,0.14,0.34,0.14
	s0.25-0.05,0.34-0.14l0.06-0.07c0.12-0.18,0.1-0.43-0.06-0.6L8.67,8l2.29-2.29c0.19-0.19,0.19-0.49,0-0.67
	C10.78,4.85,10.47,4.85,10.29,5.04z"/>
</svg>
