<?xml version="1.0" encoding="UTF-8"?>
<svg viewBox="0 0 24 24" version="1.1" xmlns="http://www.w3.org/2000/svg" xmlns:xlink="http://www.w3.org/1999/xlink">
    <title>icon/alert/error/24</title>
    <g id="icon/alert/error/24" stroke="none" stroke-width="1" fill="none" fill-rule="evenodd">
        <g id="Icon/Fill/3">
            <path d="M12,1.5 C6.2015625,1.5 1.5,6.2015625 1.5,12 C1.5,17.7984375 6.2015625,22.5 12,22.5 C17.7984375,22.5 22.5,17.7984375 22.5,12 C22.5,6.2015625 17.7984375,1.5 12,1.5 Z" id="形状备份-2" fill="#F23030"></path>
            <path d="M8.46029812,7.66494797 L12,11.204 L15.5397019,7.66494797 C15.7596325,7.44501734 16.1151214,7.44501734 16.335052,7.66494797 C16.5549827,7.8848786 16.5549827,8.24036749 16.335052,8.46029812 L12.796,12 L16.335052,15.5397019 C16.5549827,15.7596325 16.5549827,16.1151214 16.335052,16.335052 C16.225368,16.4447361 16.0813725,16.4998594 15.937377,16.4998594 C15.7933815,16.4998594 15.649386,16.4447361 15.5397019,16.335052 L12,12.796 L8.46029812,16.335052 C8.35061404,16.4447361 8.20661854,16.4998594 8.06262304,16.4998594 C7.91862754,16.4998594 7.77463204,16.4447361 7.66494797,16.335052 C7.44501734,16.1151214 7.44501734,15.7596325 7.66494797,15.5397019 L11.204,12 L7.66494797,8.46029812 C7.44501734,8.24036749 7.44501734,7.8848786 7.66494797,7.66494797 C7.8848786,7.44501734 8.24036749,7.44501734 8.46029812,7.66494797 Z" id="形状结合备份" stroke="#FFFFFF" stroke-width="0.2" fill="#FFFFFF"></path>
        </g>
    </g>
</svg>