<?xml version="1.0" encoding="utf-8"?>
<svg class="tiny-icon-error" version="1.1" id="图层_1" xmlns="http://www.w3.org/2000/svg"
	xmlns:xlink="http://www.w3.org/1999/xlink" x="0px" y="0px"
	viewBox="0 0 14 14" style="enable-background:new 0 0 14 14;" xml:space="preserve">
<style type="text/css">
	.st0{fill-rule:evenodd;clip-rule:evenodd;}
	.st1{fill:#FFFFFF;}
</style>
<path class="st0" d="M14,7c0,3.87-3.13,7-7,7c-3.87,0-7-3.13-7-7c0-3.87,3.13-7,7-7C10.87,0,14,3.13,14,7z"/>
<path class="st1" d="M9.96,9.29c0.09,0.09,0.14,0.21,0.14,0.34c0,0.13-0.05,0.25-0.14,0.33c-0.09,0.09-0.21,0.14-0.33,0.14
	c-0.13,0-0.25-0.05-0.34-0.14L7,7.67L4.71,9.96c-0.18,0.18-0.49,0.18-0.67,0c-0.18-0.18-0.18-0.49,0-0.67L6.33,7L4.04,4.71
	C3.95,4.62,3.9,4.5,3.9,4.37s0.05-0.25,0.14-0.34c0.18-0.18,0.49-0.18,0.67,0L7,6.33l2.29-2.29c0.19-0.18,0.49-0.18,0.67,0
	c0.09,0.09,0.14,0.21,0.14,0.34s-0.05,0.25-0.14,0.34L7.67,7L9.96,9.29z"/>
</svg>