<?xml version="1.0" encoding="utf-8"?>
<!-- Generator: Adobe Illustrator 15.0.0, SVG Export Plug-In . SVG Version: 6.00 Build 0)  -->
<!DOCTYPE svg PUBLIC "-//W3C//DTD SVG 1.1//EN" "http://www.w3.org/Graphics/SVG/1.1/DTD/svg11.dtd">
<svg version="1.1" id="图层_1" xmlns="http://www.w3.org/2000/svg" xmlns:xlink="http://www.w3.org/1999/xlink" x="0px" y="0px"
	 viewBox="1 1.12 14.012 13.88" enable-background="new 1 1.12 14.012 13.88"
	 xml:space="preserve">
<path d="M14.969,7.188c-0.135-0.782-0.656-1.406-2.036-1.182c0.582-0.648,0.759-1.096,0.429-2.152
	s-1.427-1.503-2.799-1.03C10.318,0.71,8.75,1,8.023,1.41C7.458,1.729,7.001,2.302,6.688,3.813C5.447,2.426,4.542,2.366,3.634,2.542
	c-1.362,0.263-1.309,1.576-1.055,2.49c-1.009,0.233-1.642,0.587-1.574,2C1.073,8.444,1.665,8.939,3,9.25
	c-2.548,0.998-1.263,2.401-0.692,2.92c0.606,0.551,1.394,0.855,2.158,0.76c0.172,0.513,0.421,1.626,1.978,1.413
	c1.556-0.212,2.271-1.53,2.352-1.826c0.445,1.137,0.438,1.968,0.532,2.331c0.057,0.22,1.328,0.227,1.806-0.143
	c0.478-0.367,0.577-1.74,0.458-2.143c0.511,0.505,0.877,0.418,1.609-0.234c0.73-0.652,0.947-1.498,0.549-2.391
	C14.863,9.634,15.131,8.127,14.969,7.188z M12.592,9.502c0.182,0.841,0.235,1.299-0.373,1.842c-0.609,0.543-1.7-0.768-2.125-1.188
	c0.099,0.334,1.031,2.781,0.824,3.408c-0.158,0.479-0.871,0.211-0.918,0.029c-0.047-0.184-0.531-2.625-1.156-3.406
	C8.776,10.436,8,13.105,6.704,13.281c-1.296,0.178-1.28-1.168-1.423-1.594c-0.638,0.078-1.722,0.354-2.02-0.215
	c-0.299-0.57,0.586-1.58,2.707-2.41C4.857,8.805,2.232,8.371,2.176,7.194C2.12,6.018,2.879,5.882,3.719,5.688
	C3.508,4.926,3.23,3.675,4.364,3.456C5.12,3.31,6.185,4.346,7.219,5.5C7.48,4.243,7.633,2.893,8.02,2.514
	c0.579-0.568,1.91-0.583,2.114,1.178c1.142-0.395,2.055-0.022,2.33,0.857c0.275,0.879-1.229,2.287-1.714,2.827
	c0.765-0.099,2.408-0.801,2.904-0.181C14.15,7.815,13.519,9.25,12.592,9.502z"/>
</svg>
