<?xml version="1.0" encoding="UTF-8" standalone="no"?>
<svg viewBox="0 0 16 16" version="1.1" xmlns="http://www.w3.org/2000/svg" xmlns:xlink="http://www.w3.org/1999/xlink">
    <!-- Generator: Sketch 50.2 (55047) - http://www.bohemiancoding.com/sketch -->
    <defs></defs>
    <g id="业务组件" stroke="none" stroke-width="1" stroke-linecap="round">
        <g transform="translate(-403.000000, -1181.000000)" stroke-width="1.3">
            <g id="Group-14" transform="translate(167.000000, 1140.000000)">
                <g id="Icon/espace" transform="translate(236.000000, 41.000000)">
                    <path d="M6.85621091,4.35806959 C7.17043953,2.84769468 7.55939244,1.865064 8.02306964,1.41017756 C8.71858543,0.727847904 10.3188529,0.710115005 10.5625206,2.82431799 C11.934736,2.35058025 13.0306238,2.79788422 13.3613639,3.85414437 C13.6921039,4.91040452 12.295401,6.08038234 11.7135182,6.72824085 C12.6308526,6.60955353 14.1954042,6.28627042 14.7912249,7.03156186 C15.3870456,7.77685331 14.6284623,9.49877545 13.5150387,9.80285681 C13.9142424,10.6950322 13.932083,11.6750918 13.200669,12.3281017 C12.469255,12.9811116 11.6443235,12.5358977 11.1339591,12.0319062 C11.2528158,12.4331156 11.6114063,14.3375494 11.1339591,14.7055554 C10.6565118,15.0735614 9.3847154,15.0673189 9.32812561,14.8478976 C9.27153583,14.6284764 9.21220256,12.7301022 8.83507197,11.7658948 C8.75379609,12.0614004 8,14.1304129 6.44371723,14.3429015 C4.88743446,14.5553901 4.63852218,13.4423986 4.46609209,12.9297064 C3.70184914,13.0251838 2.66612404,12.8531772 2.30791514,12.1696835 C1.94970624,11.4861898 1.71491034,10.2267956 4.26280742,9.22878397 C2.92752097,8.91836361 1.07292572,8.4443201 1.00497921,7.03156186 C0.937032704,5.61880363 1.56978216,5.26479417 2.57867921,5.03099448 C2.32533048,4.11706037 2.27165869,2.80444032 3.6336524,2.54136896 C4.54164821,2.36598805 5.61583438,2.97155493 6.85621091,4.35806959 Z" id="Path-3"></path>
                </g>
            </g>
        </g>
    </g>
</svg>