<?xml version="1.0" encoding="utf-8"?>
<!-- Generator: Adobe Illustrator 26.0.2, SVG Export Plug-In . SVG Version: 6.00 Build 0)  -->
<svg version="1.1" id="图层_1" xmlns="http://www.w3.org/2000/svg" xmlns:xlink="http://www.w3.org/1999/xlink" x="0px" y="0px"
	 viewBox="0 0 16 16" style="enable-background:new 0 0 16 16;" xml:space="preserve">
<style type="text/css">
	.st0{fill:none;}
	.st1{fill-rule:evenodd;clip-rule:evenodd;}
</style>
<rect id="size" class="st0"/>
<path id="形状" class="st1" d="M11.5,0h-7C2,0,0,2,0,4.5v7C0,14,2,16,4.5,16h7c2.5,0,4.5-2,4.5-4.5v-7C16,2,14,0,11.5,0z M15,11.5
	c0,1.9-1.6,3.5-3.5,3.5h-7C2.6,15,1,13.4,1,11.5v-7C1,2.6,2.6,1,4.5,1h7C13.4,1,15,2.6,15,4.5V11.5z M11,8c0,0.3-0.2,0.5-0.5,0.5h-5
	C5.2,8.5,5,8.3,5,8s0.2-0.5,0.5-0.5h5C10.8,7.5,11,7.7,11,8z"/>
</svg>
