<?xml version="1.0" encoding="utf-8"?>
<!-- Generator: Adobe Illustrator 21.0.0, SVG Export Plug-In . SVG Version: 6.00 Build 0)  -->
<svg version="1.1" id="Layer_1" xmlns="http://www.w3.org/2000/svg" xmlns:xlink="http://www.w3.org/1999/xlink" x="0px" y="0px"
	 viewBox="0 0 24 24" xml:space="preserve">
<g id="Icon">
	<g id="UI-icons-英文名" transform="translate(-726.000000, -2069.000000)">
		<g id="网站通用图标" transform="translate(100.000000, 1136.000000)">
			<g id="export" transform="translate(625.000000, 932.000000)">
				<path id="Combined-Shape" class="st0" d="M22,19c0-0.6,0.4-1,1-1s1,0.4,1,1v2.4c0,0.9-0.1,1.2-0.3,1.5c-0.2,0.3-0.4,0.6-0.8,0.8
					c-0.3,0.2-0.6,0.3-1.5,0.3H4.6c-0.9,0-1.2-0.1-1.5-0.3c-0.3-0.2-0.6-0.4-0.8-0.8C2.1,22.7,2,22.3,2,21.4V4.6
					C2,3.7,2.1,3.3,2.3,3C2.4,2.7,2.7,2.4,3,2.3C3.3,2.1,3.7,2,4.6,2h16.9c0.9,0,1.2,0.1,1.5,0.3c0.3,0.2,0.6,0.4,0.8,0.8
					C23.9,3.3,24,3.7,24,4.6V7c0,0.6-0.4,1-1,1s-1-0.4-1-1V4H4v18h18V19z"/>
				<path id="Combined-Shape_1_" class="st0" d="M19.8,12l-2.5-2.5c-0.4-0.4-0.4-1,0-1.4c0.4-0.4,1-0.4,1.4,0l4.2,4.2
					c0.4,0.4,0.4,1,0,1.4l-4.2,4.2c-0.4,0.4-1,0.4-1.4,0c-0.4-0.4-0.4-1,0-1.4l2.5-2.5H9c-0.6,0-1-0.4-1-1s0.4-1,1-1H19.8z"/>
			</g>
		</g>
	</g>
</g>
</svg>
