<?xml version="1.0" encoding="utf-8"?>
<!-- Generator: Adobe Illustrator 26.0.2, SVG Export Plug-In . SVG Version: 6.00 Build 0)  -->
<svg version="1.1" id="图层_1" xmlns="http://www.w3.org/2000/svg" xmlns:xlink="http://www.w3.org/1999/xlink" x="0px" y="0px"
	 viewBox="0 0 16 16" style="enable-background:new 0 0 16 16;" xml:space="preserve">
<style type="text/css">
	.st0{fill:none;}
</style>
<rect id="size" class="st0"/>
<path id="形状结合" d="M3.49,5.21l0.72,0.72L3.98,6.11c-0.16,0.13-0.3,0.27-0.46,0.4L3.27,6.74c-0.39,0.39-0.75,0.79-1.05,1.2
	L2.16,8L2.11,8.06L1.94,8.3l0.28,0.38l0.19,0.24c0.33,0.4,0.7,0.8,1.1,1.19l0.18,0.16c1.32,1.18,2.78,1.87,4.32,1.87h0.23
	c0.61-0.02,1.21-0.17,1.78-0.4l0.76,0.76l-0.22,0.1c-0.81,0.35-1.67,0.55-2.56,0.55H7.78c-1.81-0.06-3.47-0.92-4.95-2.29l-0.27-0.25
	c-0.42-0.42-0.81-0.86-1.15-1.3L1.37,9.22L1.32,9.16L1.15,8.92L1.01,8.73l-0.1-0.16L0.87,8.5c-0.05-0.12-0.05-0.25,0-0.38l0.04-0.08
	l0.1-0.16l0.13-0.19l0.17-0.24l0.1-0.13l0.21-0.27c0.35-0.44,0.76-0.87,1.2-1.28C3.04,5.58,3.26,5.38,3.49,5.21z M3.76,2.86h0.07
	c0.1,0.01,0.19,0.06,0.28,0.15l1.12,1.12C6.11,3.71,7.03,3.48,8,3.48h0.23c1.81,0.06,3.47,0.92,4.95,2.29l0.27,0.25
	c0.42,0.42,0.81,0.86,1.15,1.3l0.05,0.07l0.05,0.06l0.17,0.24l0.13,0.19l0.1,0.16l0.04,0.07c0.05,0.12,0.05,0.25,0.01,0.38
	L15.1,8.58l-0.1,0.16l-0.13,0.19L14.7,9.18l-0.1,0.13L14.4,9.58c-0.35,0.44-0.76,0.87-1.2,1.28l-0.24,0.22
	c-0.13,0.12-0.28,0.24-0.42,0.35l0.79,0.79l0.05,0.06c0.15,0.19,0.13,0.47-0.05,0.65l-0.06,0.05c-0.19,0.15-0.47,0.13-0.65-0.05
	L11.68,12l-0.73-0.73l0,0L9.62,9.94L9.41,9.72l0,0l-6-6.01L3.36,3.65C3.21,3.45,3.22,3.18,3.41,2.99C3.5,2.91,3.62,2.86,3.76,2.86z
	 M5.3,7.02l0.78,0.78L6.05,7.92C6.02,8.05,6.01,8.17,6.01,8.3v0.12C6.06,9.48,6.93,10.3,8,10.3h0.13c0.13-0.01,0.25-0.04,0.39-0.06
	l0.78,0.78l-0.15,0.06c-0.35,0.15-0.74,0.23-1.14,0.23H7.87c-1.59-0.07-2.86-1.38-2.86-2.99C4.99,7.84,5.1,7.41,5.3,7.02z M8,4.47
	H7.78C7.16,4.5,6.57,4.63,5.99,4.87L6.72,5.6c0.39-0.18,0.82-0.29,1.3-0.29h0.15c1.59,0.07,2.86,1.38,2.86,2.99v0.17
	c-0.02,0.4-0.12,0.79-0.29,1.13l1.09,1.09c0.23-0.18,0.46-0.38,0.69-0.59l0.24-0.23c0.39-0.39,0.75-0.79,1.05-1.2l0.05-0.06
	l0.05-0.06l0.18-0.25l-0.28-0.38l-0.19-0.24c-0.33-0.4-0.7-0.8-1.1-1.19l-0.18-0.16C10.98,5.16,9.54,4.47,8,4.47z M8,6.3H7.87
	C7.73,6.32,7.61,6.33,7.49,6.36l2.45,2.45c0.05-0.17,0.07-0.34,0.07-0.52V8.17C9.94,7.14,9.07,6.3,8,6.3z"/>
</svg>
