<?xml version="1.0" encoding="UTF-8"?>
<svg  viewBox="0 0 16 16" version="1.1" xmlns="http://www.w3.org/2000/svg" xmlns:xlink="http://www.w3.org/1999/xlink">
    <defs>
        <filter x="-45.3%" y="-67.2%" width="190.7%" height="234.5%" filterUnits="objectBoundingBox" id="filter-1">
            <feOffset dx="1" dy="0" in="SourceAlpha" result="shadowOffsetOuter1"></feOffset>
            <feGaussianBlur stdDeviation="1" in="shadowOffsetOuter1" result="shadowBlurOuter1"></feGaussianBlur>
            <feColorMatrix values="0 0 0 0 0.145098039   0 0 0 0 0.168627451   0 0 0 0 0.22745098  0 0 0 0.08 0" type="matrix" in="shadowBlurOuter1" result="shadowMatrixOuter1"></feColorMatrix>
            <feMerge>
                <feMergeNode in="shadowMatrixOuter1"></feMergeNode>
                <feMergeNode in="SourceGraphic"></feMergeNode>
            </feMerge>
        </filter>
        <path d="M3.47665742,1.144 L4.20565742,1.871 C5.14665742,1.312 6.13765742,1.001 7.16665742,1.001 L7.16665742,1.001 C8.77165742,1.001 10.2856574,1.759 11.6596574,3.034 L11.6596574,3.034 C12.1486574,3.488 12.5836574,3.975 12.9576574,4.461 L12.9576574,4.461 L13.2316574,4.833 L13.0486574,5.086 L13.0046574,5.145 L12.9576574,5.207 C12.5836574,5.693 12.1486574,6.18 11.6596574,6.634 L11.6596574,6.634 C11.1666574,7.092 10.6556574,7.483 10.1286574,7.797 L10.1286574,7.797 L10.8556574,8.525 C11.3686574,8.199 11.8636574,7.81 12.3406574,7.367 L12.3406574,7.367 C12.8726574,6.872 13.3436574,6.344 13.7506574,5.816 L13.7506574,5.816 L13.8516574,5.683 L14.0246574,5.446 L14.1606574,5.249 L14.2586574,5.096 L14.3006574,5.012 C14.3556574,4.869 14.3416574,4.705 14.2586574,4.572 L14.2586574,4.572 L14.1606574,4.419 L14.0246574,4.222 L13.8516574,3.985 L13.8016574,3.92 L13.7506574,3.852 C13.3436574,3.324 12.8726574,2.795 12.3406574,2.301 L12.3406574,2.301 C10.7976574,0.869 9.06165742,0 7.16665742,0 L7.16665742,0 C5.85665742,0 4.62265742,0.416 3.47665742,1.144 L3.47665742,1.144 Z M1.99265742,2.301 C1.46065742,2.795 0.989657421,3.324 0.582657421,3.852 L0.582657421,3.852 L0.481657421,3.985 L0.307657421,4.222 L0.172657421,4.419 L0.073657421,4.572 L0.032657421,4.656 C-0.022342579,4.799 -0.00734257902,4.963 0.073657421,5.096 L0.073657421,5.096 L0.172657421,5.249 L0.307657421,5.446 L0.481657421,5.683 L0.531657421,5.748 L0.582657421,5.816 C0.989657421,6.344 1.46065742,6.872 1.99265742,7.367 L1.99265742,7.367 C3.53565742,8.799 5.27165742,9.668 7.16665742,9.668 L7.16665742,9.668 C8.13565742,9.668 9.06365742,9.441 9.94365742,9.028 L9.94365742,9.028 L9.18365742,8.266 C8.53065742,8.527 7.85765742,8.667 7.16665742,8.667 L7.16665742,8.667 C5.56165742,8.667 4.04765742,7.911 2.67365742,6.634 L2.67365742,6.634 C2.18465742,6.18 1.74965742,5.693 1.37565742,5.207 L1.37565742,5.207 L1.10065742,4.833 L1.28465742,4.582 L1.32865742,4.522 L1.37565742,4.461 C1.74965742,3.975 2.18465742,3.488 2.67365742,3.034 L2.67365742,3.034 C2.89965742,2.823 3.13065742,2.627 3.36465742,2.445 L3.36465742,2.445 L2.65265742,1.733 C2.42965742,1.911 2.20865742,2.1 1.99265742,2.301 L1.99265742,2.301 Z M5.04565742,2.713 L5.75265742,3.419 C6.11365742,3.058 6.61465742,2.834 7.16665742,2.834 L7.16665742,2.834 C8.27165742,2.834 9.16665742,3.73 9.16665742,4.835 L9.16665742,4.835 C9.16665742,5.386 8.94265742,5.886 8.58065742,6.249 L8.58065742,6.249 L9.28765742,6.955 C9.83065742,6.412 10.1666574,5.663 10.1666574,4.835 L10.1666574,4.835 C10.1666574,3.177 8.82265742,1.834 7.16665742,1.834 L7.16665742,1.834 C6.33865742,1.834 5.58865742,2.169 5.04565742,2.713 L5.04565742,2.713 Z M4.16665742,4.835 C4.16665742,6.491 5.51065742,7.834 7.16665742,7.834 L7.16665742,7.834 C7.62965742,7.834 8.06865742,7.729 8.46065742,7.541 L8.46065742,7.541 L7.68365742,6.767 C7.51865742,6.811 7.34565742,6.835 7.16665742,6.835 L7.16665742,6.835 C6.06165742,6.835 5.16665742,5.939 5.16665742,4.835 L5.16665742,4.835 C5.16665742,4.656 5.18965742,4.482 5.23365742,4.316 L5.23365742,4.316 L4.45865742,3.541 C4.27165742,3.932 4.16665742,4.37 4.16665742,4.835 L4.16665742,4.835 Z" id="path-2"></path>
        <filter x="-63.8%" y="-63.8%" width="227.6%" height="227.5%" filterUnits="objectBoundingBox" id="filter-4">
            <feOffset dx="1" dy="0" in="SourceAlpha" result="shadowOffsetOuter1"></feOffset>
            <feGaussianBlur stdDeviation="1" in="shadowOffsetOuter1" result="shadowBlurOuter1"></feGaussianBlur>
            <feColorMatrix values="0 0 0 0 0.145098039   0 0 0 0 0.168627451   0 0 0 0 0.22745098  0 0 0 0.08 0" type="matrix" in="shadowBlurOuter1" result="shadowMatrixOuter1"></feColorMatrix>
            <feMerge>
                <feMergeNode in="shadowMatrixOuter1"></feMergeNode>
                <feMergeNode in="SourceGraphic"></feMergeNode>
            </feMerge>
        </filter>
        <path d="M0.14625,0.147 C-0.04875,0.342 -0.04875,0.658 0.14625,0.854 L0.14625,0.854 L9.33825,10.046 C9.53325,10.242 9.85025,10.242 10.04525,10.046 L10.04525,10.046 C10.24025,9.851 10.24025,9.534 10.04525,9.339 L10.04525,9.339 L0.85325,0.147 C0.75525,0.05 0.62725,2.27373675e-13 0.49925,2.27373675e-13 L0.49925,2.27373675e-13 C0.37125,2.27373675e-13 0.24325,0.05 0.14625,0.147 L0.14625,0.147 Z" id="path-5"></path>
    </defs>
    <g id="icon/16/不可视" stroke="none" stroke-width="1" fill="none" fill-rule="evenodd">
        <polygon id="Fill-1" points="0 16 16 16 16 0 0 0"></polygon>
        <g id="编组" filter="url(#filter-1)" transform="translate(0.833343, 3.474000)">
            <mask id="mask-3" fill="white">
                <use xlink:href="#path-2"></use>
            </mask>
            <g id="Clip-3"></g>
            <polygon id="Fill-2" fill="#808080" mask="url(#mask-3)" points="-1.02134258 10.667 15.3556574 10.667 15.3556574 -1 -1.02134258 -1"></polygon>
        </g>
        <g id="编组" filter="url(#filter-4)" transform="translate(3.257750, 2.858000)">
            <mask id="mask-6" fill="white">
                <use xlink:href="#path-5"></use>
            </mask>
            <g id="Clip-5"></g>
            <polygon id="Fill-4" fill="#808080" mask="url(#mask-6)" points="16.79985 5.0969 5.09585 16.8009 -6.60815 5.0969 5.09585 -6.6081"></polygon>
        </g>
    </g>
</svg>
