<?xml version="1.0" encoding="UTF-8"?>
<svg width="16px" height="12px" viewBox="0 0 16 12" version="1.1" xmlns="http://www.w3.org/2000/svg" xmlns:xlink="http://www.w3.org/1999/xlink">
    <title>形状结合</title>
    <g id="页面-1" stroke="none" stroke-width="1" fill="none" fill-rule="evenodd">
        <path d="M3.48600042,3.207 L4.19800042,3.919 L3.96507449,4.1057037 C3.81055598,4.23333333 3.65766709,4.36733333 3.50700042,4.508 L3.50700042,4.508 L3.22013642,4.784088 C2.84644042,5.15676 2.50820042,5.5462 2.20900042,5.935 L2.20900042,5.935 L2.16200042,5.996 L2.11800042,6.056 L1.93400042,6.307 L2.20900042,6.681 L2.44066442,6.972448 C2.75916042,7.36048 3.11580042,7.7448 3.50700042,8.108 L3.50700042,8.108 L3.75091432,8.3278968 C5.05943295,9.47132526 6.48941218,10.141 8.00000042,10.141 L8.00000042,10.141 L8.29503541,10.132484 C8.88287797,10.0985306 9.45728613,9.96371429 10.0170004,9.74 L10.0170004,9.74 L10.7770004,10.502 L10.4818989,10.6327215 C9.69027202,10.962642 8.86133375,11.142 8.00000042,11.142 L8.00000042,11.142 L7.70211618,11.134823 C5.9227982,11.0489668 4.28778989,10.1976316 2.82600042,8.841 L2.82600042,8.841 L2.51414442,8.540304 C2.10816042,8.1348 1.74160042,7.7124 1.41600042,7.29 L1.41600042,7.29 L1.36500042,7.222 L1.31500042,7.157 L1.14100042,6.92 L1.00600042,6.723 L0.907000421,6.57 L0.866352421,6.486896 C0.822800421,6.37224 0.822000421,6.2444 0.866000421,6.13 L0.866000421,6.13 L0.907000421,6.046 L1.00600042,5.893 L1.14100042,5.696 L1.31500042,5.459 L1.41600042,5.326 L1.66785642,5.009368 C2.01384042,4.5878 2.40040042,4.1702 2.82600042,3.775 C3.04200042,3.574 3.26300042,3.385 3.48600042,3.207 L3.48600042,3.207 Z M3.757,0.858 L3.85253125,0.867328125 C3.947125,0.8859375 4.0375,0.93225 4.111,1.005 L4.111,1.005 L5.2226312,2.11473838 C6.10360075,1.70160946 7.03100934,1.474 8.00000042,1.474 L8.00000042,1.474 L8.29788466,1.48117699 C10.0772026,1.56703324 11.7122109,2.41836842 13.1740004,3.775 L13.1740004,3.775 L13.4858564,4.075312 C13.8918404,4.48056 14.2584004,4.9036 14.5840004,5.326 L14.5840004,5.326 L14.6350004,5.394 L14.6850004,5.459 L14.8580004,5.696 L14.9940004,5.893 L15.0920004,6.046 L15.1335204,6.129104 C15.1778404,6.24376 15.1780004,6.3716 15.1340004,6.486 L15.1340004,6.486 L15.0920004,6.57 L14.9940004,6.723 L14.8580004,6.92 L14.6850004,7.157 L14.5840004,7.29 L14.3321444,7.606536 C13.9861604,8.02788 13.5996004,8.445 13.1740004,8.841 L13.1740004,8.841 L12.8856404,9.100248 C12.7630416,9.20685476 12.6392889,9.30988421 12.5143821,9.40919025 L13.303,10.197 L13.3607778,10.2661838 C13.4955926,10.4609383 13.4763333,10.7306667 13.303,10.904 L13.303,10.904 L13.2338162,10.9620741 C13.0390617,11.0975802 12.7693333,11.0782222 12.596,10.904 L12.596,10.904 L11.689343,9.997 L11.6890004,9.999 L10.9620004,9.271 L10.962343,9.27 L10.1210004,8.429 L9.41400042,7.723 L9.413343,7.721 L3.404,1.712 L3.34622222,1.64255281 C3.21140741,1.4472716 3.23066667,1.17833333 3.404,1.005 C3.501,0.908 3.629,0.858 3.757,0.858 L3.757,0.858 Z M5.29200042,5.015 L6.06700042,5.79 L6.03007449,5.95855556 C6.01022264,6.07255556 6.00000042,6.18966667 6.00000042,6.309 L6.00000042,6.309 L6.00548361,6.45819159 C6.08179794,7.49260331 6.94522769,8.309 8.00000042,8.309 L8.00000042,8.309 L8.17692635,8.30114815 C8.29344486,8.29077778 8.40700042,8.27033333 8.51700042,8.241 L8.51700042,8.241 L9.29400042,9.015 L9.09419023,9.10198148 C8.75500042,9.23508333 8.38583375,9.308 8.00000042,9.308 L8.00000042,9.308 L7.82381274,9.30290789 C6.24971471,9.21167219 5.00000042,7.90585714 5.00000042,6.309 C5.00000042,5.844 5.10500042,5.406 5.29200042,5.015 L5.29200042,5.015 Z M8.00000042,2.475 L7.72031522,2.48266341 C7.12745484,2.51516356 6.5477493,2.6503939 5.9835412,2.87605583 L6.7064216,3.600358 C7.09816474,3.41280178 7.53688178,3.308 8.00000042,3.308 L8.00000042,3.308 L8.1761881,3.3130922 C9.75028613,3.40433036 11.0000004,4.71021429 11.0000004,6.309 L11.0000004,6.309 L10.9930751,6.51428067 C10.966872,6.90132912 10.8671244,7.26812123 10.7077025,7.6010016 L11.801229,8.69668964 C12.0355005,8.51529448 12.266156,8.31873987 12.4930004,8.108 L12.4930004,8.108 L12.7798644,7.831912 C13.1535604,7.45924 13.4918004,7.0698 13.7910004,6.681 L13.7910004,6.681 L13.8380004,6.619 L13.8820004,6.56 L14.0650004,6.307 L13.7910004,5.935 L13.5593364,5.643552 C13.2408404,5.25552 12.8842004,4.8712 12.4930004,4.508 L12.4930004,4.508 L12.2490865,4.28841584 C10.9405679,3.14644637 9.51058866,2.475 8.00000042,2.475 L8.00000042,2.475 Z M8.00000042,4.308 L7.81801139,4.31617695 C7.70330557,4.32653079 7.59135154,4.34657117 7.48300439,4.37546221 L9.93226336,6.82602746 C9.97644377,6.66100358 10.0000004,6.48768346 10.0000004,6.309 L10.0000004,6.309 L9.99451723,6.15967816 C9.9182029,5.12439669 9.05477315,4.308 8.00000042,4.308 L8.00000042,4.308 Z" id="形状结合" fill="#808080"></path>
    </g>
</svg>