<?xml version="1.0" encoding="UTF-8"?>
<svg  viewBox="0 0 16 16" version="1.1" xmlns="http://www.w3.org/2000/svg" xmlns:xlink="http://www.w3.org/1999/xlink">
    <defs>
        <filter x="-52.5%" y="-80.8%" width="204.9%" height="261.6%" filterUnits="objectBoundingBox" id="filter-1">
            <feOffset dx="1" dy="0" in="SourceAlpha" result="shadowOffsetOuter1"></feOffset>
            <feGaussianBlur stdDeviation="1" in="shadowOffsetOuter1" result="shadowBlurOuter1"></feGaussianBlur>
            <feColorMatrix values="0 0 0 0 0.145098039   0 0 0 0 0.168627451   0 0 0 0 0.22745098  0 0 0 0.08 0" type="matrix" in="shadowBlurOuter1" result="shadowMatrixOuter1"></feColorMatrix>
            <feMerge>
                <feMergeNode in="shadowMatrixOuter1"></feMergeNode>
                <feMergeNode in="SourceGraphic"></feMergeNode>
            </feMerge>
        </filter>
    </defs>
    <g id="icon/16/可视" stroke="none" stroke-width="1" fill="none" fill-rule="evenodd">
        <polygon id="Fill-1" points="0 16 16 16 16 0 0 0"></polygon>
        <g id="编组" filter="url(#filter-1)" transform="translate(1.327000, 3.667000)" stroke="currentColor">
            <path d="M6.673,8.666 C5.013,8.666 3.387,7.937 1.84,6.5 C1.358,6.052 0.902,5.551 0.485,5.01 L0.218,4.649 L0,4.322 L0.227,4.004 L0.488,3.651 C0.902,3.114 1.358,2.613 1.84,2.166 C3.387,0.729 5.013,0 6.673,0 C8.333,0 9.959,0.729 11.506,2.166 C11.988,2.614 12.444,3.115 12.861,3.656 L13.128,4.017 L13.346,4.344 L13.119,4.662 L12.858,5.015 C12.444,5.552 11.988,6.053 11.506,6.5 C9.959,7.937 8.333,8.666 6.673,8.666 Z" id="Stroke-2" stroke-linejoin="round"></path>
            <path d="M6.673,6.833 C5.295,6.833 4.173,5.711 4.173,4.333 C4.173,2.955 5.295,1.833 6.673,1.833 C8.051,1.833 9.173,2.955 9.173,4.333 C9.173,5.711 8.051,6.833 6.673,6.833 Z" id="Stroke-4"></path>
        </g>
    </g>
</svg>