<?xml version="1.0" encoding="utf-8"?>
<!-- Generator: Adobe Illustrator 26.0.2, SVG Export Plug-In . SVG Version: 6.00 Build 0)  -->
<svg version="1.1" id="图层_1" xmlns="http://www.w3.org/2000/svg" xmlns:xlink="http://www.w3.org/1999/xlink" x="0px" y="0px"
	 viewBox="0 0 16 16" style="enable-background:new 0 0 16 16;" xml:space="preserve">
<style type="text/css">
	.st0{fill:none;}
</style>
<rect id="隐藏-hide" class="st0"/>
<path id="形状结合" class="st1" d="M8,3.16c1.89,0,3.63,0.87,5.17,2.3c0.53,0.5,1,1.02,1.41,1.55c0.03,0.05,0.07,0.09,0.1,0.14
	l0.17,0.23l0.14,0.2l0.1,0.15c0.1,0.16,0.1,0.37,0,0.53l-0.1,0.15l-0.14,0.2l-0.17,0.23l-0.1,0.14c-0.41,0.52-0.88,1.05-1.41,1.55
	c-1.54,1.43-3.28,2.3-5.17,2.3c-1.9,0-3.64-0.87-5.18-2.3c-0.53-0.5-1-1.03-1.41-1.55c-0.03-0.05-0.07-0.09-0.1-0.14L1.14,8.61
	L1,8.41L0.9,8.26c-0.1-0.16-0.1-0.37,0-0.53L1,7.58l0.14-0.2l0.17-0.23l0.1-0.14c0.41-0.53,0.88-1.05,1.41-1.55
	C4.36,4.03,6.1,3.16,8,3.16z M8,4.16c-1.61,0-3.12,0.76-4.5,2.03C3.01,6.65,2.58,7.14,2.2,7.62C2.17,7.66,2.14,7.7,2.11,7.74
	L1.93,7.99L2.2,8.37c0.38,0.48,0.81,0.97,1.3,1.42c1.38,1.28,2.89,2.04,4.5,2.04c1.6,0,3.11-0.76,4.49-2.04
	c0.49-0.45,0.92-0.94,1.3-1.42c0.03-0.04,0.06-0.08,0.09-0.12l0.18-0.26l-0.27-0.37c-0.38-0.48-0.81-0.97-1.3-1.43
	C11.11,4.92,9.6,4.16,8,4.16z M8,5c1.65,0,3,1.34,3,3c0,1.65-1.35,3-3,3c-1.66,0-3-1.35-3-3C5,6.34,6.34,5,8,5z M8,6
	C6.89,6,6,6.89,6,8c0,1.1,0.89,2,2,2c1.1,0,2-0.9,2-2C10,6.89,9.1,6,8,6z"/>
</svg>
