<?xml version="1.0" standalone="no"?><svg t="1573022678536" class="icon" viewBox="0 0 1024 1024" version="1.1" xmlns="http://www.w3.org/2000/svg" p-id="1116" xmlns:xlink="http://www.w3.org/1999/xlink" ><path d="M512.331 932c-8.559 0.045-16.764-3.216-22.674-9.014-6.09-5.495-9.448-13.126-9.284-21.047a28.477 28.477 0 0 1 2.53-11.383c1.663-3.626 3.896-6.95 6.754-9.865 12.78-11.116 32.526-11.116 45.308 0a34.928 34.928 0 0 1 6.784 9.865 28.953 28.953 0 0 1 2.562 11.383c-0.134 16.531-14.367 29.907-31.98 30.06m255.64-150.056c-11.424 0-21.979-5.726-27.688-15.01-5.706-9.279-5.706-20.718 0-30.005 5.709-9.288 16.264-15.002 27.687-15.002 105.928 0 191.797-80.604 191.797-180.035 0-99.432-85.87-180.034-191.797-180.034h-28.192l-5.639-26.128c-13.803-105.132-108.95-184.11-221.794-184.11-112.853 0-207.989 78.978-221.792 184.11l-3.648 27.417-29.426-1.15h-0.18c-105.873-0.169-191.853 80.258-192.03 179.638-0.18 99.388 85.501 180.085 191.382 180.254 17.232 0.542 30.91 13.822 30.91 30.012s-13.678 29.462-30.91 30.004C119.913 782.412 6.968 681.829 0.308 553.63c-6.66-128.197 95.332-238.62 231.467-250.604C261.125 179.697 377.717 92 512.345 92c134.63 0 251.222 87.697 280.57 211.027 67.49 6.105 129.625 37.128 172.747 86.247 43.115 49.111 63.673 112.292 57.153 175.644-12.633 123.191-122.995 217.17-254.845 217.025" p-id="1117"></path><path d="M511.99 822c-7.954 0.007-15.584-3.034-21.2-8.448-5.624-5.421-8.78-12.778-8.773-20.436V475.888c-0.366-10.553 5.265-20.463 14.696-25.848 9.424-5.387 21.148-5.387 30.58 0 9.424 5.385 15.063 15.295 14.69 25.848v317.228c-0.038 15.946-13.452 28.864-29.994 28.884" p-id="1118"></path><path d="M631.81 603a30.144 30.144 0 0 1-21.274-8.715l-99.075-98.432-99.105 98.468c-11.893 10.721-30.166 10.282-41.53-0.99-11.356-11.276-11.813-29.43-1.029-41.255l105.33-104.612c20.332-19.285 52.336-19.285 72.67 0l105.292 104.612c8.673 8.508 11.298 21.39 6.622 32.578-4.674 11.189-15.707 18.439-27.902 18.345" p-id="1119"></path></svg>