<?xml version="1.0" encoding="utf-8"?>
<!-- Generator: Adobe Illustrator 21.0.0, SVG Export Plug-In . SVG Version: 6.00 Build 0)  -->
<svg version="1.1" id="Layer_1" xmlns="http://www.w3.org/2000/svg" xmlns:xlink="http://www.w3.org/1999/xlink" x="0px" y="0px"
	 viewBox="0 0 24 24" xml:space="preserve">
<g id="Icon">
	<g id="UI-icons-英文名" transform="translate(-206.000000, -1987.000000)">
		<g id="网站通用图标" transform="translate(101.000000, 1053.000000)">
			<g id="file-cloudupload" transform="translate(105.000000, 932.000000)">
				<path id="Shape" class="st0" d="M22.3,7.1H11.5l-0.6-1.9C10.7,4.5,10,4,9.3,4H1.7C0.8,4,0,4.8,0,5.7v16.5c0,1,0.8,1.7,1.7,1.7
					H13c0.5,0,1-0.5,1-1S13.5,22,13,22H2V9h20v3c0,0.5,0.5,1,1,1s1-0.5,1-1V8.8C24,7.9,23.2,7.1,22.3,7.1z M2,6h6.6L9,7H2V6z
					 M15.9,18.5c0.2,0,0.4-0.1,0.6-0.2l1.7-1.5v6.5c0,0.4,0.4,0.8,0.9,0.8c0.5,0,0.9-0.4,0.9-0.8v-6.5l1.7,1.5
					c0.2,0.2,0.4,0.2,0.6,0.2s0.4-0.1,0.6-0.2c0.3-0.3,0.3-0.8,0-1.1l-3.1-2.9C19.4,14.1,19.2,14,19,14c-0.2,0-0.4,0.1-0.6,0.2
					l-3.1,2.9c-0.3,0.3-0.3,0.8,0,1.1C15.4,18.4,15.6,18.5,15.9,18.5z"/>
			</g>
		</g>
	</g>
</g>
</svg>
