<?xml version="1.0" encoding="utf-8"?>
<!-- Generator: Adobe Illustrator 15.0.0, SVG Export Plug-In . SVG Version: 6.00 Build 0)  -->
<!DOCTYPE svg PUBLIC "-//W3C//DTD SVG 1.1//EN" "http://www.w3.org/Graphics/SVG/1.1/DTD/svg11.dtd">
<svg version="1.1" id="图层_1" xmlns="http://www.w3.org/2000/svg" xmlns:xlink="http://www.w3.org/1999/xlink" x="0px" y="0px"
	 viewBox="0 0 525.84 484" enable-background="new 0 0 525.84 484" xml:space="preserve">
<g>
	<path d="M390.801,0H134.559C60.238,0,0,60.641,0,134.559v214.882C0,423.762,60.641,484,134.559,484h256.722
		c74.32,0,134.559-60.641,134.559-134.559V134.559C525.762,60.641,465.121,0,390.801,0z M491.68,349.441h-0.078
		c0,55.359-45.043,100.398-100.402,100.398h-256.64c-55.36,0-100.399-45.039-100.399-100.398V134.559
		c0-55.36,45.039-100.399,100.399-100.399h256.32c55.602,0,100.801,45.039,100.801,100.399V349.441z"/>
	<path d="M410.879,152H332.32c-9.441,0-17.121,7.68-17.121,17.121c0,9.438,7.68,17.117,17.121,17.117h78.559
		c9.441,0,17.121-7.679,17.121-17.117C428,159.68,420.32,152,410.879,152z"/>
	<path d="M272.078,152H116.16c-9.441,0-17.121,7.68-17.121,17.121c0,9.438,7.68,17.117,17.121,17.117h155.918
		c9.441,0,17.121-7.679,17.121-17.117C289.199,159.68,281.52,152,272.078,152z"/>
	<path d="M271.078,288H115.16c-9.441,0-17.121,7.68-17.121,17.121c0,9.438,7.68,17.117,17.121,17.117h155.918
		c9.441,0,17.121-7.68,17.121-17.117C288.199,295.68,280.52,288,271.078,288z"/>
	<path d="M409.879,288H331.32c-9.441,0-17.121,7.68-17.121,17.121c0,9.438,7.68,17.117,17.121,17.117h78.559
		c9.441,0,17.121-7.68,17.121-17.117C427,295.68,419.32,288,409.879,288z"/>
</g>
</svg>
