<?xml version="1.0" encoding="utf-8"?>
<!-- Generator: Adobe Illustrator 21.0.0, SVG Export Plug-In . SVG Version: 6.00 Build 0)  -->
<svg version="1.1" id="Layer_1" xmlns="http://www.w3.org/2000/svg" xmlns:xlink="http://www.w3.org/1999/xlink" x="0px" y="0px"
	 viewBox="0 0 24 24" xml:space="preserve">
<g id="Icon">
	<g id="UI-icons-英文名" transform="translate(-732.000000, -1221.000000)">
		<g id="网站通用图标" transform="translate(100.000000, 1053.000000)">
			<g id="file" transform="translate(629.000000, 168.000000)">
				<path id="Shape" class="st0" d="M23.5,7.1L17,0.5c-0.1-0.1-0.2-0.2-0.3-0.3c0,0-0.1,0-0.1-0.1c0,0,0,0-0.1,0
					C16.3,0.1,16,0,15.8,0H7.7C6.8,0,6,0.8,6,1.7v20.6C6,23.2,6.8,24,7.7,24h14.6c0.9,0,1.7-0.8,1.7-1.7V8.3
					C24,7.8,23.8,7.4,23.5,7.1z M21,8h-5V3L21,8z M22,22H8V2h6v5.5c0,0.9,1.7,2.5,2.6,2.5H22V22z"/>
			</g>
		</g>
	</g>
</g>
</svg>
