<?xml version="1.0" encoding="utf-8"?>
<!-- Generator: Adobe Illustrator 26.0.2, SVG Export Plug-In . SVG Version: 6.00 Build 0)  -->
<svg version="1.1" id="图层_1" xmlns="http://www.w3.org/2000/svg" xmlns:xlink="http://www.w3.org/1999/xlink" x="0px" y="0px"
	 viewBox="0 0 16 16" style="enable-background:new 0 0 16 16;" xml:space="preserve">
<style type="text/css">
	.st0{fill:none;}
</style>
<rect id="size" class="st0"/>
<path id="形状结合" class="st1" d="M7.01,2c0.28,0,0.5,0.22,0.5,0.5s-0.22,0.5-0.5,0.5H4.5c-0.82,0-1.5,0.67-1.5,1.5v7.01
	c0,0.82,0.67,1.5,1.5,1.5h7.01c0.82,0,1.5-0.67,1.5-1.5V8.99c0-0.28,0.22-0.5,0.5-0.5c0.28,0,0.5,0.22,0.5,0.5v2.5
	c0,1.38-1.12,2.5-2.5,2.5H4.5c-1.38,0-2.5-1.12-2.5-2.5V4.5C2,3.12,3.12,2,4.5,2H7.01z M13.5,2L13.5,2c0.02,0,0.04,0,0.05,0H13.5
	c0.04,0,0.06,0,0.1,0.01c0.01,0,0.01,0,0.02,0s0.04,0.01,0.05,0.01s0.01,0,0.02,0.01c0.01,0,0.02,0.01,0.04,0.01
	s0.02,0.01,0.02,0.01c0.01,0,0.02,0.01,0.02,0.01c0.01,0,0.01,0.01,0.02,0.01c0.04,0.02,0.07,0.06,0.1,0.1l-0.05-0.05
	c0.02,0.02,0.04,0.04,0.05,0.06c0.01,0.01,0.02,0.02,0.02,0.05c0,0.01,0.01,0.02,0.01,0.02c0,0.01,0.01,0.02,0.01,0.04
	s0,0.01,0.01,0.02c0,0.01,0.01,0.02,0.01,0.05c0,0.01,0,0.01,0,0.02s0,0.02,0,0.04s0,0.02,0,0.04c0,0,0,0.01,0,0.02V6
	c0,0.28-0.22,0.5-0.5,0.5c-0.28,0-0.5-0.22-0.5-0.5V3.71l-4.79,4.8C8,8.7,7.68,8.7,7.49,8.51C7.3,8.32,7.3,8,7.49,7.81l4.8-4.8H10
	c-0.25,0-0.46-0.19-0.5-0.44V2.5C9.5,2.22,9.72,2,10,2H13.5z"/>
</svg>
