<?xml version="1.0" encoding="utf-8"?>
<!-- Generator: Adobe Illustrator 26.0.2, SVG Export Plug-In . SVG Version: 6.00 Build 0)  -->
<svg version="1.1" id="图层_1" xmlns="http://www.w3.org/2000/svg" xmlns:xlink="http://www.w3.org/1999/xlink" x="0px" y="0px"
	 viewBox="0 0 16 16" style="enable-background:new 0 0 16 16;" xml:space="preserve">
<style type="text/css">
	.st0{fill:none;}
</style>
<rect id="筛选-screen" class="st0"/>
<path id="路径-7" class="st1" d="M12.31,1.84H3.68c-0.3,0-0.59,0.11-0.82,0.3L2.75,2.23C2.29,2.7,2.25,3.45,2.67,3.97l3.18,3.89
	v5.78c0,0.28,0.23,0.5,0.5,0.5h3.28h0.09c0.23-0.05,0.41-0.25,0.41-0.5l-0.01-5.78l3.19-3.89c0.19-0.23,0.3-0.53,0.3-0.82
	C13.61,2.43,13.02,1.84,12.31,1.84z M12.31,2.84c0.16,0,0.3,0.14,0.3,0.31c0,0.06-0.03,0.13-0.07,0.18l-3.3,4.04L9.19,7.44
	C9.15,7.51,9.13,7.59,9.13,7.68l-0.01,5.46H6.85V7.68c0-0.11-0.03-0.23-0.11-0.31L3.45,3.33C3.34,3.21,3.36,3.02,3.49,2.91
	c0.06-0.04,0.12-0.07,0.19-0.07H12.31z"/>
</svg>
