<?xml version="1.0" encoding="UTF-8"?>
<svg viewBox="0 0 9 10" version="1.1" xmlns="http://www.w3.org/2000/svg" xmlns:xlink="http://www.w3.org/1999/xlink">
    <!-- Generator: Sketch 50 (54983) - http://www.bohemiancoding.com/sketch -->
    <defs></defs>
    <g id="Icon" stroke="none" stroke-width="1" stroke-linecap="round">
		<path d="M4.8,9.5H4.6L4.4,9.3L2.9,8.1C2.7,7.9,2.6,7.6,2.6,7.3V4.9L0.4,3.4C0.2,3.2,0.1,2.9,0.3,2.7C0.4,2.5,0.7,2.4,1,2.6l2.2,1.5
		c0.3,0.2,0.4,0.5,0.4,0.8v2.4L4.4,8V4.9c0-0.3,0.1-0.6,0.4-0.8L7.4,2C7.5,2,7.5,1.9,7.5,1.8c0-0.2-0.1-0.3-0.3-0.3H0.7
		C0.4,1.5,0.2,1.3,0.2,1s0.2-0.5,0.5-0.5h6.5c0.7,0,1.3,0.6,1.3,1.3c0,0.4-0.2,0.8-0.5,1L5.4,4.9v4C5.4,9.2,5.1,9.5,4.8,9.5z"/>
	</g>
</svg>
