<?xml version="1.0" encoding="utf-8"?>
<!-- Generator: Adobe Illustrator 21.0.0, SVG Export Plug-In . SVG Version: 6.00 Build 0)  -->
<svg version="1.1" id="Layer_1" xmlns="http://www.w3.org/2000/svg" xmlns:xlink="http://www.w3.org/1999/xlink" x="0px" y="0px"
	 viewBox="0 0 24 24" xml:space="preserve">
<g id="Icon">
	<g id="UI-icons-英文名" transform="translate(-932.000000, -1314.000000)">
		<g id="网站通用图标" transform="translate(100.000000, 1136.000000)">
			<g id="folder-closed" transform="translate(832.000000, 176.000000)">
				<path id="Combined-Shape" class="st0" d="M0,9V7V6c0-1.1,0.9-2,2-2h6c0.6,0,1.2,0.3,1.6,0.8L11,6.5c0.1,0.2,0.2,0.3,0.3,0.5H22
					c1.1,0,2,0.9,2,2v13c0,1.1-0.9,2-2,2H2c-1.1,0-2-0.9-2-2V9z M2,9v13h20V9H9.8H2z M2.5,6C2.2,6,2,6.2,2,6.5S2.2,7,2.5,7h5
					C7.8,7,8,6.8,8,6.5S7.8,6,7.5,6H2.5z"/>
			</g>
		</g>
	</g>
</g>
</svg>
