<?xml version="1.0" encoding="utf-8"?>
<!-- Generator: Adobe Illustrator 21.0.0, SVG Export Plug-In . SVG Version: 6.00 Build 0)  -->
<svg version="1.1" id="Layer_1" xmlns="http://www.w3.org/2000/svg" xmlns:xlink="http://www.w3.org/1999/xlink" x="0px" y="0px"
	 viewBox="0 0 24 24" xml:space="preserve">
<g id="Icon">
	<g id="_x36_.21版本" transform="translate(-828.000000, -2236.000000)">
		<g id="网站通用图标" transform="translate(100.000000, 1221.000000)">
			<g id="frown-o" transform="translate(728.000000, 1015.000000)">
				<path id="Combined-Shape" class="st0" d="M12,24C5.4,24,0,18.6,0,12S5.4,0,12,0s12,5.4,12,12S18.6,24,12,24z M6.5,11
					C7.3,11,8,10.3,8,9.5S7.3,8,6.5,8S5,8.7,5,9.5S5.7,11,6.5,11z M17.5,11c0.8,0,1.5-0.7,1.5-1.5S18.3,8,17.5,8S16,8.7,16,9.5
					S16.7,11,17.5,11z M15.1,19c0.5,0,0.9-0.4,0.9-0.9c0-2.3-1.8-4.1-4-4.1s-4,1.8-4,4.1C8,18.6,8.4,19,8.9,19
					c0.5,0,0.9-0.4,0.9-0.9c0-1.3,1-2.3,2.2-2.3s2.2,1,2.2,2.3C14.2,18.6,14.6,19,15.1,19z"/>
			</g>
		</g>
	</g>
</g>
</svg>
