<?xml version="1.0" encoding="utf-8"?>
<!-- Generator: Adobe Illustrator 21.0.0, SVG Export Plug-In . SVG Version: 6.00 Build 0)  -->
<svg version="1.1" id="Layer_1" xmlns="http://www.w3.org/2000/svg" xmlns:xlink="http://www.w3.org/1999/xlink" x="0px" y="0px"
	 viewBox="0 0 24 24" xml:space="preserve">
<g id="Icon">
	<g id="UI-icons-英文名" transform="translate(-727.000000, -556.000000)">
		<g id="方向性图标" transform="translate(101.000000, 304.000000)">
			<g id="fullscreen" transform="translate(625.000000, 251.000000)">
				<path id="Shape" class="st0" d="M9,4H5.5l5.2,5.3c0.4,0.4,0.4,1,0,1.4c-0.4,0.4-1,0.4-1.4,0L4,5.3V9c0,0.6-0.4,1-1,1S2,9.6,2,9
					V3c0-0.6,0.4-1,1-1h6c0.5,0,1,0.4,1,1C10,3.6,9.6,4,9,4z"/>
				<path id="Shape-Copy-5" class="st0" d="M9,22H5.5l5.2-5.3c0.4-0.4,0.4-1,0-1.4c-0.4-0.4-1-0.4-1.4,0L4,20.7V17c0-0.6-0.4-1-1-1
					s-1,0.4-1,1v6c0,0.6,0.4,1,1,1h6c0.5,0,1-0.4,1-1S9.6,22,9,22z"/>
				<path id="Shape-Copy-4" class="st0" d="M17,4h3.5l-5.2,5.3c-0.4,0.4-0.4,1,0,1.4c0.4,0.4,1,0.4,1.4,0L22,5.3V9c0,0.6,0.4,1,1,1
					s1-0.4,1-1V3c0-0.6-0.4-1-1-1h-6c-0.5,0-1,0.4-1,1C16,3.6,16.4,4,17,4z"/>
				<path id="Shape-Copy-6" class="st0" d="M17,22h3.5l-5.2-5.3c-0.4-0.4-0.4-1,0-1.4c0.4-0.4,1-0.4,1.4,0l5.3,5.4V17
					c0-0.6,0.4-1,1-1s1,0.4,1,1v6c0,0.6-0.4,1-1,1h-6c-0.5,0-1-0.4-1-1S16.4,22,17,22z"/>
			</g>
		</g>
	</g>
</g>
</svg>
