<svg viewBox="0 0 24 24" xmlns="http://www.w3.org/2000/svg"
	xmlns:xlink="http://www.w3.org/1999/xlink">
	<defs />
	<g opacity="0.000000" />
	<path id="path3 (边框)"
		d="M1.25 12C1.25 6.06293 6.06293 1.25 12 1.25C17.9371 1.25 22.75 6.06293 22.75 12C22.75 17.9371 17.9371 22.75 12 22.75C6.06293 22.75 1.25 17.9371 1.25 12Z"
		fill-rule="evenodd" />
	<path id="矢量 2"
		d="M16.7731 13.0044C16.749 13.119 16.7208 13.2328 16.6884 13.3456C16.5793 13.2844 16.4525 13.2496 16.3162 13.2496C15.8962 13.2496 15.5662 13.5797 15.5662 13.9996L15.5662 15.6083C15.5662 15.8154 15.6395 15.9922 15.7859 16.1386C15.9324 16.285 16.1091 16.3583 16.3162 16.3583C16.4272 16.3583 16.533 16.3348 16.6335 16.2878C16.7341 16.2408 16.8201 16.1748 16.8913 16.0897C17.1437 15.7881 17.3651 15.469 17.5553 15.1323C17.7208 14.8392 17.8628 14.5328 17.9811 14.2131C18.0958 13.9036 18.1855 13.5889 18.2502 13.2693C18.3342 12.8546 18.3762 12.4313 18.3762 11.9996C18.3762 11.5266 18.3261 11.0646 18.226 10.6138C18.1432 10.2408 18.0261 9.87561 17.8749 9.51794C17.7223 9.15735 17.5401 8.81622 17.3283 8.49469C17.0921 8.13611 16.819 7.80182 16.509 7.49182C16.199 7.18182 15.8647 6.90869 15.5061 6.67249C15.1845 6.46063 14.8434 6.27844 14.4828 6.12592C14.1252 5.97467 13.7599 5.8576 13.3871 5.77478C12.9362 5.67468 12.4742 5.62463 12.0012 5.62463C11.5832 5.62463 11.173 5.66406 10.7705 5.74292C10.4692 5.802 10.1723 5.88312 9.8797 5.98633C9.48358 6.1261 9.28217 6.54712 9.42194 6.94318C9.56165 7.33923 9.98267 7.54065 10.3787 7.40088C10.5907 7.32611 10.8057 7.26654 11.0239 7.22211C11.343 7.1571 11.6688 7.12463 12.0012 7.12463C12.3729 7.12463 12.7354 7.16492 13.0887 7.24548C13.3643 7.30835 13.6342 7.39563 13.8985 7.50745C14.1693 7.62195 14.4258 7.75842 14.6679 7.91687C14.9471 8.09955 15.2073 8.31146 15.4483 8.55249C15.6893 8.79352 15.9012 9.05365 16.0839 9.33289C16.2423 9.57495 16.3788 9.83148 16.4933 10.1023C16.6052 10.3666 16.6925 10.6366 16.7553 10.912C16.8359 11.2654 16.8762 11.6279 16.8762 11.9996C16.8762 12.3418 16.8418 12.6767 16.7731 13.0044ZM7.31342 10.6558C7.2811 10.7684 7.25299 10.8818 7.22906 10.9962C7.16046 11.3236 7.12616 11.6583 7.12616 12.0001C7.12616 12.3718 7.16644 12.7343 7.24701 13.0876C7.30981 13.3632 7.39716 13.6331 7.50897 13.8974C7.62347 14.1682 7.76001 14.4247 7.9184 14.6668C8.1011 14.946 8.31296 15.2062 8.55402 15.4472C8.79504 15.6882 9.05518 15.9001 9.33441 16.0828C9.57654 16.2413 9.83301 16.3777 10.1038 16.4923C10.3682 16.6041 10.6381 16.6914 10.9136 16.7542C11.2669 16.8348 11.6295 16.8751 12.0012 16.8751C12.3333 16.8751 12.6588 16.8426 12.9778 16.7777C13.1956 16.7334 13.4102 16.674 13.6218 16.5994C14.0179 16.4598 14.4389 16.6614 14.5785 17.0575C14.7181 17.4536 14.5165 17.8746 14.1204 18.0142C13.8282 18.1171 13.5317 18.1981 13.2308 18.257C12.8286 18.3357 12.4188 18.3751 12.0012 18.3751C11.5281 18.3751 11.0662 18.325 10.6154 18.2249C10.2425 18.1421 9.87714 18.025 9.51947 17.8738C9.15887 17.7213 8.81781 17.5391 8.49628 17.3273C8.13773 17.0911 7.80338 16.8179 7.49335 16.5079C7.18338 16.1979 6.91025 15.8636 6.67401 15.505C6.46216 15.1835 6.27997 14.8424 6.12744 14.4818C5.97617 14.1241 5.8591 13.7588 5.77631 13.386C5.67621 12.9351 5.62616 12.4731 5.62616 12.0001C5.62616 11.5688 5.66806 11.1461 5.75183 10.7318C5.81641 10.4127 5.90576 10.0986 6.02002 9.78961C6.13803 9.4704 6.27954 9.16443 6.44458 8.8717C6.63428 8.53528 6.85507 8.21631 7.10687 7.91492C7.14252 7.87225 7.18182 7.83441 7.22479 7.80133C7.26776 7.76825 7.31442 7.73993 7.36475 7.71637C7.41507 7.69287 7.46671 7.67523 7.51965 7.66345C7.57263 7.65167 7.62689 7.64575 7.68243 7.64575C7.78598 7.64575 7.88196 7.66406 7.97034 7.70068C8.05875 7.7373 8.13956 7.79224 8.21277 7.86548C8.28601 7.93866 8.34091 8.01947 8.3775 8.10791C8.41412 8.19629 8.43243 8.29224 8.43243 8.39575L8.43243 10.0001C8.43243 10.42 8.10242 10.7501 7.68243 10.7501C7.54749 10.7501 7.42181 10.716 7.31342 10.6558Z"
		fill-rule="evenodd" fill="#FFFFFF" />
</svg>