<?xml version="1.0" encoding="utf-8"?>
<!-- Generator: Adobe Illustrator 26.0.2, SVG Export Plug-In . SVG Version: 6.00 Build 0)  -->
<svg version="1.1" id="图层_1" xmlns="http://www.w3.org/2000/svg" xmlns:xlink="http://www.w3.org/1999/xlink" x="0px" y="0px"
	 viewBox="0 0 16 16" style="enable-background:new 0 0 16 16;" xml:space="preserve">
<style type="text/css">
	.st0{fill:none;}
</style>
<rect id="返回旧版-back-to-old-version" class="st0"/>
<path id="形状结合" class="st1" d="M12.45,1.5h0.12c1.17,0.07,2.09,1.1,2.15,2.36V4v8v0.13c-0.06,1.26-0.98,2.29-2.15,2.36
	l-0.12,0.01H8l-0.12-0.01c-1.17-0.07-2.09-1.1-2.15-2.36L5.72,12v-1.5l0.01-0.07C5.76,10.18,5.97,10,6.22,10
	c0.26,0,0.47,0.18,0.5,0.43v0.07V12l0.01,0.1c0.04,0.75,0.56,1.34,1.18,1.39L8,13.5h4.45l0.09-0.01c0.62-0.05,1.13-0.63,1.18-1.38
	V12V4V3.89c-0.05-0.75-0.56-1.34-1.18-1.39h-0.09H8H7.91C7.29,2.55,6.77,3.13,6.73,3.88L6.72,4v1.5v0.06C6.69,5.81,6.48,6,6.22,6
	C5.97,6,5.76,5.81,5.73,5.56L5.72,5.5V4l0.01-0.14C5.79,2.6,6.71,1.57,7.88,1.5H8H12.45z M4.09,4.97c0.2-0.15,0.48-0.14,0.66,0.04
	c0.15,0.2,0.18,0.53,0,0.71L2.97,7.5h7.25h0.07c0.25,0.03,0.43,0.24,0.43,0.5c0,0.25-0.18,0.46-0.43,0.49L10.22,8.5H2.97l1.78,1.77
	c0.15,0.2,0.18,0.53,0,0.71c-0.19,0.19-0.51,0.19-0.71,0L1.41,8.35c-0.15-0.2-0.18-0.53,0-0.71L4.09,4.97z"/>
</svg>
