<?xml version="1.0" encoding="UTF-8" standalone="no"?>
<svg viewBox="0 0 30 25" version="1.1" xmlns="http://www.w3.org/2000/svg" xmlns:xlink="http://www.w3.org/1999/xlink">
    <!-- Generator: Sketch 50.2 (55047) - http://www.bohemiancoding.com/sketch -->
    <defs></defs>
    <g id="组件规范" stroke="none" stroke-width="1" fill-rule="evenodd">
        <g id="选择组件-马丹" transform="translate(-721.000000, -9211.000000)">
            <g id="穿梭框典型页面-copy" transform="translate(212.000000, 8889.000000)">
                <g id="选择产品">
                    <g id="Group-35">
                        <g id="Group-36" transform="translate(509.000000, 322.000000)">
                            <path d="M26.4746753,6.55459756 L21.6271845,1.70710678 C21.2366603,1.31658249 21.2366603,0.683417511 21.6271845,0.292893219 C22.0177088,-0.0976310729 22.6508738,-0.0976310729 23.0413981,0.292893219 L29.3763326,6.62782775 C29.7421054,6.77650544 30,7.13543424 30,7.55459756 C30,8.10688231 29.5522847,8.55459756 29,8.55459756 L1,8.55459756 C0.44771525,8.55459756 6.76353751e-17,8.10688231 0,7.55459756 C-6.76353751e-17,7.00231281 0.44771525,6.55459756 1,6.55459756 L26.4746753,6.55459756 Z" id="Combined-Shape"></path>
                            <path d="M26.4746753,22.5545976 L21.6271845,17.7071068 C21.2366603,17.3165825 21.2366603,16.6834175 21.6271845,16.2928932 C22.0177088,15.9023689 22.6508738,15.9023689 23.0413981,16.2928932 L29.3763326,22.6278278 C29.7421054,22.7765054 30,23.1354342 30,23.5545976 C30,24.1068823 29.5522847,24.5545976 29,24.5545976 L1,24.5545976 C0.44771525,24.5545976 6.76353751e-17,24.1068823 0,23.5545976 C-6.76353751e-17,23.0023128 0.44771525,22.5545976 1,22.5545976 L26.4746753,22.5545976 Z" id="Combined-Shape" transform="translate(15.000000, 20.277299) scale(-1, -1) translate(-15.000000, -20.277299) "></path>
                        </g>
                    </g>
                </g>
            </g>
        </g>
    </g>
</svg>