<?xml version="1.0" encoding="UTF-8"?>
<svg viewBox="0 0 16 16" version="1.1" xmlns="http://www.w3.org/2000/svg" xmlns:xlink="http://www.w3.org/1999/xlink">
    <g id="CheckBox复选框/中尺寸/无文本/半选/默认" stroke="none" stroke-width="1">
        <path d="M13,1 C14.1045695,1 15,1.8954305 15,3 L15,13 C15,14.1045695 14.1045695,15 13,15 L3,15 C1.8954305,15 1,14.1045695 1,13 L1,3 C1,1.8954305 1.8954305,1 3,1 L13,1 Z M10.34,5 L5.66,5 C5.32862915,5 5.05429621,5.24420832 5.00715609,5.56247004 L5,5.66 L5,10.34 C5,10.6713708 5.24420832,10.9457038 5.56247004,10.9928439 L5.66,11 L10.34,11 C10.6713708,11 10.9457038,10.7557917 10.9928439,10.43753 L11,10.34 L11,5.66 C11,5.32862915 10.7557917,5.05429621 10.43753,5.00715609 L10.34,5 Z" id="形状"></path>
        <path d="M10.34,5 L5.66,5 C5.32862915,5 5.05429621,5.24420832 5.00715609,5.56247004 L5,5.66 L5,10.34 C5,10.6713708 5.24420832,10.9457038 5.56247004,10.9928439 L5.66,11 L10.34,11 C10.6713708,11 10.9457038,10.7557917 10.9928439,10.43753 L11,10.34 L11,5.66 C11,5.32862915 10.7557917,5.05429621 10.43753,5.00715609 L10.34,5 Z" id="路径" fill="#FFFFFF"></path>
    </g>
</svg>