<?xml version="1.0" encoding="utf-8"?>
<!-- Generator: Adobe Illustrator 21.0.0, SVG Export Plug-In . SVG Version: 6.00 Build 0)  -->
<svg version="1.1" id="Layer_1" xmlns="http://www.w3.org/2000/svg" xmlns:xlink="http://www.w3.org/1999/xlink" x="0px" y="0px"
	 viewBox="0 0 24 24" xml:space="preserve">
<g id="Icon">
	<g id="UI-icons-英文名" transform="translate(-829.000000, -1054.000000)">
		<g id="网站通用图标" transform="translate(101.000000, 1053.000000)">
			<g id="heartempty" transform="translate(728.000000, 0.000000)">
				<path id="Shape" class="st0" d="M23.4,6.5c-0.4-0.9-0.9-1.7-1.5-2.4C20.6,2.7,18.9,2,17.2,2c-2,0-3.9,1-5.2,2.6
					C10.7,3,8.8,2,6.8,2C5,2,3.4,2.7,2.1,4.1C1.4,4.8,0.9,5.6,0.6,6.5c-0.4,1-0.6,2-0.6,3c0,2.3,0.9,4.4,2.5,5.8
					c0.1,0.1,0.1,0.1,0.2,0.2c0.3,0.3,1.4,1.3,2.6,2.5c2.2,2.1,4.9,4.7,6,5.7c0.2,0.1,0.4,0.2,0.6,0.2c0.2,0,0.4-0.1,0.6-0.2
					c0.8-0.8,2.5-2.4,4.2-4.1c1.7-1.7,3.5-3.4,4.6-4.4C23,13.9,24,11.8,24,9.5C24,8.5,23.8,7.5,23.4,6.5z M13.3,5.9
					c1-1.3,2.4-2.1,3.9-2.1c1.3,0,2.5,0.5,3.4,1.5c0.5,0.5,0.9,1.1,1.2,1.8c0.3,0.7,0.4,1.5,0.4,2.3c0,0.9-0.2,1.7-0.5,2.5
					c-0.3,0.7-0.8,1.4-1.4,1.9l0,0c-0.9,0.9-2.5,2.3-4.6,4.4c-1.7,1.6-2.8,2.7-3.6,3.4c-1.2-1.1-3.1-2.9-4.7-4.5l-1.1-1.1
					c-1.1-1-1.9-1.8-2.2-2.1c0,0,0,0-0.1-0.1c-0.1-0.1-0.1-0.1-0.2-0.2c-1.2-1.1-1.9-2.6-1.9-4.3c0-0.8,0.1-1.5,0.4-2.3
					C2.5,6.6,2.9,6,3.4,5.4c0.9-1,2.2-1.5,3.4-1.5c1.5,0,2.9,0.7,3.9,2C11,6.4,11.5,6.6,12,6.6C12.5,6.6,13,6.4,13.3,5.9z"/>
			</g>
		</g>
	</g>
</g>
</svg>
