<?xml version="1.0" encoding="utf-8"?>
<!-- Generator: Adobe Illustrator 21.0.0, SVG Export Plug-In . SVG Version: 6.00 Build 0)  -->
<svg version="1.1" id="Layer_1" xmlns="http://www.w3.org/2000/svg" xmlns:xlink="http://www.w3.org/1999/xlink" x="0px" y="0px"
	 viewBox="0 0 24 24" xml:space="preserve">
<g id="Icon">
	<g id="UI-icons-英文名" transform="translate(-308.000000, -929.000000)">
		<g id="提示建议性图标" transform="translate(100.000000, 761.000000)">
			<g id="Unknow" transform="translate(208.000000, 168.000000)">
				<path id="Combined-Shape" class="st0" d="M12,24C5.4,24,0,18.6,0,12S5.4,0,12,0s12,5.4,12,12S18.6,24,12,24z M16,8.4
					c0.1-1.1-0.3-2.2-1-3C14.2,4.5,13.1,4,12,4c-1.1,0-2.1,0.5-2.8,1.3C8.4,6.1,8,7.2,8,8.4c0,0.5,0.4,0.9,0.8,0.9
					c0.4,0,0.8-0.4,0.8-0.9c0-1.4,1.1-2.6,2.4-2.6c0,0,0,0,0,0c0.7,0,1.3,0.3,1.8,0.8c0.4,0.5,0.6,1.1,0.6,1.7c0,0.5,0,1-1.5,2.6
					c-0.9,1-1.7,2-1.8,3.2c0,0.5,0.3,0.9,0.7,1c0,0,0.1,0,0.1,0c0.4,0,0.8-0.3,0.8-0.8c0.1-0.6,0.6-1.2,1.4-2.1
					C15.6,10.4,15.9,9.5,16,8.4z M12,19c0.6,0,1-0.4,1-1s-0.4-1-1-1s-1,0.4-1,1S11.4,19,12,19z"/>
			</g>
		</g>
	</g>
</g>
</svg>
