<?xml version="1.0" encoding="utf-8"?>
<!-- Generator: Adobe Illustrator 21.0.0, SVG Export Plug-In . SVG Version: 6.00 Build 0)  -->
<svg version="1.1" id="Layer_1" xmlns="http://www.w3.org/2000/svg" xmlns:xlink="http://www.w3.org/1999/xlink" x="0px" y="0px"
	 viewBox="0 0 24 24" xml:space="preserve">
<g id="Icon">
	<g id="UI-icons-英文名" transform="translate(-205.000000, -761.000000)">
		<g id="提示建议性图标" transform="translate(101.000000, 761.000000)">
			<g id="help" transform="translate(104.000000, 0.000000)">
				<path id="Shape" class="st0" d="M12,0C5.4,0,0,5.4,0,12s5.4,12,12,12s12-5.4,12-12S18.6,0,12,0z M19.3,19.3
					c-0.9,0.9-2.1,1.7-3.3,2.2c-1.3,0.5-2.6,0.8-4,0.8S9.3,22,8,21.5c-1.2-0.5-2.3-1.3-3.3-2.2C3.8,18.3,3,17.2,2.5,16
					c-0.5-1.3-0.8-2.6-0.8-4S2,9.3,2.5,8C3,6.8,3.8,5.7,4.7,4.7C5.7,3.8,6.8,3,8,2.5c1.3-0.5,2.6-0.8,4-0.8s2.7,0.3,4,0.8
					c1.2,0.5,2.3,1.3,3.3,2.2C20.2,5.7,21,6.8,21.5,8c0.5,1.3,0.8,2.6,0.8,4s-0.3,2.7-0.8,4C21,17.2,20.2,18.3,19.3,19.3z
					 M11.9,15.6C11.9,15.6,11.8,15.6,11.9,15.6c-0.5,0-0.9-0.5-0.8-0.9c0.1-1.2,1-2.1,1.9-3.1c1.5-1.5,1.5-2,1.6-2.5
					c0-0.6-0.2-1.2-0.6-1.6c-0.5-0.5-1.2-0.8-1.9-0.8c0,0,0,0,0,0c-1.4,0-2.5,1.1-2.5,2.5c0,0.5-0.4,0.8-0.8,0.8
					c-0.5,0-0.8-0.4-0.8-0.8C7.8,8,8.2,7,9,6.2S10.9,5,12,5c1.2,0,2.3,0.5,3.1,1.3c0.8,0.8,1.1,1.8,1.1,2.9
					c-0.1,1.1-0.4,1.9-2.1,3.6c-0.8,0.8-1.4,1.5-1.4,2C12.7,15.2,12.3,15.6,11.9,15.6z M10.8,18c0,0.4,0.2,0.7,0.5,0.9
					c0.3,0.2,0.7,0.2,1,0c0.3-0.2,0.5-0.5,0.5-0.9c0-0.6-0.5-1-1-1S10.8,17.5,10.8,18z"/>
			</g>
		</g>
	</g>
</g>
</svg>
