<?xml version="1.0" encoding="UTF-8" standalone="no"?>
<svg viewBox="0 0 16 16" version="1.1" xmlns="http://www.w3.org/2000/svg" xmlns:xlink="http://www.w3.org/1999/xlink">
    <!-- Generator: Sketch 50.2 (55047) - http://www.bohemiancoding.com/sketch -->
    <defs></defs>
    <g id="组件规范" stroke="none" stroke-width="1" fill-rule="evenodd">
        <g transform="translate(-711.000000, -2350.000000)">
            <g id="Group-11" transform="translate(74.000000, 2107.000000)">
                <g id="Icon/帮助" transform="translate(637.000000, 243.000000)">
                    <g id="help">
                        <path d="M8,0 C3.58125,0 0,3.58125 0,8 C0,12.41875 3.58125,16 8,16 C12.41875,16 16,12.41875 16,8 C16,3.58125 12.41875,0 8,0 Z M12.8609375,12.8609375 C12.2296875,13.4921875 11.49375,13.9890625 10.675,14.334375 C9.828125,14.69375 8.928125,14.875 8,14.875 C7.071875,14.875 6.171875,14.69375 5.325,14.3359375 C4.50625,13.9890625 3.771875,13.49375 3.1390625,12.8625 C2.5078125,12.23125 2.0109375,11.4953125 1.665625,10.6765625 C1.30625,9.828125 1.125,8.928125 1.125,8 C1.125,7.071875 1.30625,6.171875 1.6640625,5.325 C2.0109375,4.50625 2.50625,3.771875 3.1375,3.1390625 C3.76875,2.5078125 4.5046875,2.0109375 5.3234375,1.665625 C6.171875,1.30625 7.071875,1.125 8,1.125 C8.928125,1.125 9.828125,1.30625 10.675,1.6640625 C11.49375,2.0109375 12.228125,2.50625 12.8609375,3.1375 C13.4921875,3.76875 13.9890625,4.5046875 14.334375,5.3234375 C14.69375,6.171875 14.875,7.071875 14.875,8 C14.875,8.928125 14.69375,9.828125 14.3359375,10.675 C13.9890625,11.49375 13.49375,12.2296875 12.8609375,12.8609375 Z M7.91875,10.3734375 C7.9,10.3734375 7.88125,10.371875 7.8625,10.3703125 C7.553125,10.340625 7.328125,10.0640625 7.3578125,9.7546875 C7.434375,8.975 8.00625,8.3453125 8.6359375,7.715625 C9.64375,6.7078125 9.6609375,6.3875 9.678125,6.0484375 C9.6984375,5.653125 9.553125,5.2703125 9.265625,4.96875 C8.9390625,4.625 8.4765625,4.428125 7.996875,4.428125 C7.9953125,4.428125 7.99375,4.428125 7.99375,4.428125 C7.0703125,4.4296875 6.3171875,5.1828125 6.3171875,6.1078125 C6.3171875,6.41875 6.065625,6.6703125 5.7546875,6.6703125 C5.44375,6.6703125 5.1921875,6.41875 5.1921875,6.1078125 C5.1921875,5.359375 5.4828125,4.65625 6.0109375,4.1265625 C6.5390625,3.596875 7.2421875,3.3046875 7.990625,3.303125 C8.7796875,3.3015625 9.5421875,3.6265625 10.08125,4.19375 C10.5828125,4.721875 10.8390625,5.4015625 10.8015625,6.1078125 C10.7625,6.83125 10.540625,7.4015625 9.43125,8.5109375 C8.86875,9.0734375 8.5140625,9.4953125 8.478125,9.865625 C8.45,10.15625 8.2046875,10.3734375 7.91875,10.3734375 Z M7.221875,12.01875 C7.22187499,12.2604625 7.35082707,12.4838141 7.56015624,12.6046703 C7.76948541,12.7255266 8.02738959,12.7255266 8.23671876,12.6046703 C8.44604793,12.4838141 8.57500001,12.2604625 8.575,12.01875 C8.575,11.6450948 8.27209265,11.3421875 7.8984375,11.3421875 C7.52478235,11.3421875 7.221875,11.6450948 7.221875,12.01875 Z" id="Shape" fill-rule="nonzero"></path>
                    </g>
                </g>
            </g>
        </g>
    </g>
</svg>