<?xml version="1.0" encoding="UTF-8"?>
<svg viewBox="0 0 24 24" version="1.1" xmlns="http://www.w3.org/2000/svg" xmlns:xlink="http://www.w3.org/1999/xlink">
    <!-- Generator: Sketch 52.6 (67491) - http://www.bohemiancoding.com/sketch -->
    <g id="组件规范" stroke="none" stroke-width="1">
        <g transform="translate(-165.000000, -1578.000000)">
            <g id="9" transform="translate(141.000000, 1560.000000)">
                <g id="Icon/Info-Big" transform="translate(24.000000, 18.000000)">
                    <path d="M12,0 C5.371875,0 0,5.371875 0,12 C0,18.628125 5.371875,24 12,24 C18.628125,24 24,18.628125 24,12 C24,5.371875 18.628125,0 12,0 Z M11.9296875,4.32421875 C12.3960937,4.32421875 12.7734375,4.7015625 12.7734375,5.16796875 C12.7734375,5.634375 12.3960937,6.01171875 11.9296875,6.01171875 C11.4632813,6.01171875 11.0859375,5.634375 11.0859375,5.16796875 C11.0859375,4.7015625 11.4632813,4.32421875 11.9296875,4.32421875 Z M15.6140625,17.38125 C15.6140625,17.8476562 15.2367188,18.225 14.7703125,18.225 L12.7734375,18.225 L11.0859375,18.225 L9.0890625,18.225 C8.62265625,18.225 8.2453125,17.8476562 8.2453125,17.38125 C8.2453125,16.9148437 8.62265625,16.5375 9.0890625,16.5375 L11.0859375,16.5375 L11.0859375,9.17578125 L9.6796875,9.17578125 C9.21328125,9.17578125 8.8359375,8.7984375 8.8359375,8.33203125 C8.8359375,7.865625 9.21328125,7.48828125 9.6796875,7.48828125 L11.0859375,7.48828125 L11.9296875,7.48828125 C12.3960937,7.48828125 12.7734375,7.865625 12.7734375,8.33203125 L12.7734375,16.5375 L14.7703125,16.5375 C15.2367188,16.5375 15.6140625,16.9148437 15.6140625,17.38125 Z" id="Shape"></path>
                </g>
            </g>
        </g>
    </g>
</svg>