<?xml version="1.0" standalone="no"?><svg t="1573725094379" viewBox="0 0 1024 1024" version="1.1" xmlns="http://www.w3.org/2000/svg" p-id="31068" xmlns:xlink="http://www.w3.org/1999/xlink"><path d="M768 488.96C768 345.6 652.8 230.4 512 230.4s-256 115.2-256 258.56 115.2 258.56 256 258.56 256-115.2 256-258.56z m138.24-115.2C855.04 202.24 698.88 76.8 512 76.8 325.12 76.8 168.96 202.24 120.32 373.76c-56.32 20.48-94.72 74.24-94.72 135.68 0 66.56 46.08 122.88 107.52 140.8 0 2.56 2.56 2.56 2.56 5.12h84.48c-25.6-48.64-40.96-104.96-40.96-163.84C179.2 304.64 327.68 153.6 512 153.6s332.8 151.04 332.8 335.36c0 181.76-143.36 327.68-320 335.36-10.24-10.24-25.6-17.92-40.96-17.92-30.72 0-56.32 25.6-56.32 56.32 0 30.72 25.6 58.88 56.32 58.88 17.92 0 33.28-7.68 43.52-20.48C691.2 896 829.44 793.6 890.88 647.68c61.44-15.36 107.52-71.68 107.52-140.8 0-58.88-38.4-112.64-92.16-133.12z" p-id="31069"></path></svg>