<?xml version="1.0" encoding="UTF-8"?>
<svg viewBox="0 0 24 24" version="1.1" xmlns="http://www.w3.org/2000/svg" xmlns:xlink="http://www.w3.org/1999/xlink">
    <g id="IconHistoryRecord" stroke="none" stroke-width="1" fill-rule="evenodd">
        <path d="M0.00291621452,11.9902281 C0.00291621452,10.1155171 -0.00364526815,8.24080602 0.00291621452,6.36609498 C-0.000855476148,5.458924 0.110645142,4.55494944 0.334739841,3.67588464 C0.825913793,1.81523393 2.03791364,0.711029125 3.89668835,0.282657653 C4.82870208,0.0812877063 5.78065248,-0.0130582937 6.73406154,0.00145099696 C10.3291299,0.00145099696 13.9245108,0.00145099696 17.520204,0.00145099696 C18.4282917,-0.00418604304 19.3337475,0.0996723569 20.216974,0.310778319 C22.13199,0.779456079 23.2811871,1.99239413 23.7189318,3.90084997 C23.9157326,4.80281845 24.0097548,5.72417301 23.999201,6.64730165 C23.999201,10.2811165 23.999201,13.9152439 23.999201,17.5496837 C24.0041104,18.4490183 23.9005666,19.3456644 23.6908112,20.2202096 C23.2221338,22.1361643 22.0035724,23.279738 20.0951179,23.717483 C19.1629846,23.9180909 18.2111214,24.0124282 17.2577447,23.9986897 C13.677674,23.9986897 10.0979157,23.9986897 6.51846992,23.9986897 C5.60344091,24.0061581 4.69081717,23.9038813 3.8001408,23.6940492 C1.8766886,23.2253714 0.721867404,22.0068092 0.285060033,20.0889798 C0.0619695745,19.1141301 0.00291621452,18.1364683 0.00291621452,17.1503703 C0.00291621452,15.4306354 0.00291621452,13.7105879 0.00291621452,11.9902281 Z" id="path1" stroke-opacity="0" stroke="#FFFFFF" stroke-width="0.75" fill-opacity="0" fill="#FFFFFF" fill-rule="nonzero"></path>
        <path d="M16.5,9.24999985 C19.9517797,9.24999985 22.75,12.0482202 22.75,15.4999998 C22.75,18.9517795 19.9517797,21.7499998 16.5,21.7499998 C13.0482203,21.7499998 10.25,18.9517795 10.25,15.4999998 C10.25,12.0482202 13.0482203,9.24999985 16.5,9.24999985 Z M16.3001933,2.15905706 C17.9799164,2.15905706 19.3525718,3.47377256 19.4452404,5.13030751 L19.4502269,5.30905706 L19.4510267,8.06188194 C18.9718549,7.87161141 18.4699407,7.7263037 17.9504914,7.63116622 L17.9502269,5.30905706 C17.9502269,4.44575102 17.2872001,3.73729631 16.4425648,3.66511356 L16.3001933,3.65905706 L6.10000001,3.65905706 C5.23668109,3.65905706 4.52823791,4.32206595 4.45605641,5.16668774 L4.45000001,5.30905709 L4.45000001,18.5090571 C4.45000001,19.3723723 5.11300534,20.0808188 5.9576301,20.1530006 L6.10000001,20.1590571 L9.99625745,20.1595144 C10.3968275,20.7176387 10.8674609,21.222082 11.3952908,21.6599776 L6.10000001,21.6590571 C4.42028,21.6590571 3.04765309,20.3443445 2.95498645,18.6878069 L2.95000001,18.5090571 L2.95000001,5.30905709 C2.95000001,3.62934435 4.26470554,2.25671064 5.92124943,2.16404353 L6.10000001,2.15905706 L16.3001933,2.15905706 Z M16.5,10.7499998 C13.8766474,10.7499998 11.75,12.8766473 11.75,15.4999998 C11.75,18.1233524 13.8766474,20.2499998 16.5,20.2499998 C19.1233526,20.2499998 21.25,18.1233524 21.25,15.4999998 C21.25,12.8766473 19.1233526,10.7499998 16.5,10.7499998 Z M16,12.75 C16.3796958,12.75 16.693491,13.0321539 16.7431534,13.3982294 L16.75,13.5 L16.749,15.5249997 L18.4712269,16.9165232 C18.7641772,17.1531154 18.832343,17.5648774 18.6467849,17.8798957 L18.5834768,17.9712269 C18.3468846,18.2641772 17.9351226,18.332343 17.6201043,18.1467849 L17.5287731,18.0834768 L15.5287731,16.468239 C15.381853,16.3495836 15.2862073,16.1808706 15.2584065,15.9967826 L15.25,15.8847622 L15.25,13.5 C15.25,13.0857864 15.5857864,12.75 16,12.75 Z M11,8.74999998 C11.4142136,8.74999998 11.75,9.08578642 11.75,9.49999998 C11.75,9.87969575 11.4678461,10.1934909 11.1017706,10.2431534 L11,10.25 L7.50000001,10.25 C7.08578644,10.25 6.75000001,9.91421354 6.75000001,9.49999998 C6.75000001,9.12030422 7.03215389,8.80650902 7.39822945,8.7568466 L7.50000001,8.74999998 L11,8.74999998 Z M14.5,5.74999998 C14.9142136,5.74999998 15.25,6.08578642 15.25,6.49999998 C15.25,6.87969575 14.9678461,7.19349094 14.6017706,7.24315337 L14.5,7.24999998 L7.50000001,7.24999998 C7.08578644,7.24999998 6.75000001,6.91421355 6.75000001,6.49999998 C6.75000001,6.12030422 7.03215389,5.80650902 7.39822945,5.7568466 L7.50000001,5.74999998 L14.5,5.74999998 Z" id="形状结合" fill-rule="nonzero"></path>
    </g>
</svg>