<?xml version="1.0" encoding="UTF-8"?>
<svg viewBox="0 0 24 24" version="1.1" xmlns="http://www.w3.org/2000/svg"
    xmlns:xlink="http://www.w3.org/1999/xlink">
    <g id="编辑类/ImageAdd" stroke="none" stroke-width="1">
        <rect id="矩形" opacity="0" x="0" y="0" width="24" height="24"></rect>
        <path
            d="M17.9783341,3.022 C19.5705758,3.022 20.8816065,4.27616494 20.9732206,5.84628917 L20.9783341,6.022 L20.9783341,13.4777069 C20.9783341,13.8919205 20.6425477,14.2277069 20.2283341,14.2277069 C19.9841207,14.2277069 19.7671693,14.1109847 19.630224,13.9302845 L16.3835041,10.6846981 C15.9279377,10.2291318 15.2084078,10.1987607 14.7176463,10.5935848 L14.6161642,10.6846981 L9.05907272,16.2417896 C8.76083183,16.5400305 8.28304152,16.5577534 7.96352506,16.2824272 C7.67269311,16.0318184 7.64008582,15.5928939 7.89069464,15.302062 L7.9253008,15.2647547 L13.5555041,9.62403791 C14.5846517,8.59489025 16.2263561,8.55200909 17.3065502,9.49539446 L17.4441642,9.62403791 L19.4783341,11.658 L19.4783341,6.022 C19.4783341,5.24761276 18.8784495,4.6021759 18.1219124,4.52892169 L17.9783341,4.522 L6.02133414,4.522 C5.24694691,4.522 4.60151004,5.12188468 4.52825583,5.87842174 L4.52133414,6.022 L4.52133414,17.978 C4.52133414,18.7529555 5.12086774,19.397891 5.87769393,19.4710842 L6.02133414,19.478 L13.2232206,19.4770943 C13.6028687,19.4770466 13.9166599,19.7591255 13.9663621,20.1251488 L13.9732206,20.227 L13.9732206,20.227 C13.9732206,20.6412288 13.6374495,20.9770422 13.2232206,20.9770943 L6.02133414,20.978 C4.42880954,20.978 3.11804157,19.7244922 3.02644657,18.1537812 L3.02133414,17.978 L3.02133414,6.022 C3.02133414,4.42975835 4.27549908,3.11872764 5.84562331,3.02711351 L6.02133414,3.022 L17.9783341,3.022 Z M17.5005973,13.5 C17.8785921,13.5 18.1909815,13.7808899 18.2404215,14.1453255 L18.2472374,14.2466401 L18.247,16.753 L20.7533599,16.7538576 C21.1657178,16.7538576 21.5,17.0881398 21.5,17.5004978 C21.5,17.8784925 21.2191101,18.190882 20.8546745,18.2403219 L20.7533599,18.2471379 L18.247,18.247 L18.2472374,20.7533599 C18.2472374,21.1657178 17.9129553,21.5 17.5005973,21.5 C17.1226025,21.5 16.8102131,21.2191101 16.7607731,20.8546745 L16.7539572,20.7533599 L16.753,18.247 L14.2466401,18.2471379 C13.8342822,18.2471379 13.5,17.9128557 13.5,17.5004978 C13.5,17.122503 13.7808899,16.8101135 14.1453255,16.7606736 L14.2466401,16.7538576 L16.753,16.753 L16.7539572,14.2466401 C16.7539572,13.8342822 17.0882394,13.5 17.5005973,13.5 Z M8.99983414,7.3505 C9.6900477,7.3505 10.2498341,7.91028644 10.2498341,8.6005 C10.2498341,9.29071356 9.6900477,9.8505 8.99983414,9.8505 C8.30962058,9.8505 7.74983414,9.29071356 7.74983414,8.6005 C7.74983414,7.91028644 8.30962058,7.3505 8.99983414,7.3505 Z"
            id="形状结合"></path>
    </g>
</svg>