<?xml version="1.0" encoding="utf-8"?>
<svg viewBox="0 0 1024 1024" version="1.1" xmlns="http://www.w3.org/2000/svg">
  <path d="M512 1024a512 512 0 1 1 512-512 512 512 0 0 1-512 512zM512 64a448 448 0 1 0 448 448 448 448 0 0 0-448-448z"></path>
  <path d="M512 1024c-145.28 0-256-224-256-512s110.72-512 256-512 259.2 224 259.2 512-113.92 512-259.2 512zM512 64C417.92 64 320 245.76 320 512s97.92 448 192 448 195.2-179.2 195.2-448S606.08 64 512 64z"></path>
  <path d="M512 339.84a778.88 778.88 0 0 1-390.4-90.88 32 32 0 1 1 32.64-56.96A723.2 723.2 0 0 0 512 275.84a733.44 733.44 0 0 0 352.64-78.08A32 32 0 1 1 896 256a794.88 794.88 0 0 1-384 83.84zM880.64 822.4a30.72 30.72 0 0 1-16.64-4.48 723.2 723.2 0 0 0-357.76-81.92 733.44 733.44 0 0 0-352.64 78.72 32 32 0 0 1-32-55.68 802.56 802.56 0 0 1 384-87.04 790.4 790.4 0 0 1 390.4 90.88 32 32 0 0 1-16.64 59.52zM989.44 544H34.56a32 32 0 1 1 0-64h954.88a32 32 0 0 1 0 64z"></path>
  <path d="M512 1024a32 32 0 0 1-32-32V34.56a32 32 0 1 1 64 0v954.88A32 32 0 0 1 512 1024z"></path>
</svg>