<?xml version="1.0" encoding="utf-8"?>
<!-- Generator: Adobe Illustrator 21.0.0, SVG Export Plug-In . SVG Version: 6.00 Build 0)  -->
<svg version="1.1" id="Layer_1" xmlns="http://www.w3.org/2000/svg" xmlns:xlink="http://www.w3.org/1999/xlink" x="0px" y="0px"
	 viewBox="0 0 24 24" xml:space="preserve">
<g id="Icon">
	<g id="UI-icons-英文名" transform="translate(-1038.000000, -1650.000000)">
		<g id="网站通用图标" transform="translate(100.000000, 1136.000000)">
			<g id="link" transform="translate(936.000000, 512.000000)">
				<path id="Combined-Shape" class="st0" d="M18.9,14.7l1.4-1.4c1.6-1.6,1.6-4.1,0-5.7c-1.6-1.6-4.1-1.6-5.7,0l-1.4,1.4
					c-0.4,0.4-1,0.4-1.4,0c-0.4-0.4-0.4-1,0-1.4l1.4-1.4c2.3-2.3,6.1-2.3,8.5,0s2.3,6.1,0,8.5l-1.4,1.4c-0.4,0.4-1,0.4-1.4,0
					S18.6,15.1,18.9,14.7z M14.7,18.9c0.4-0.4,1-0.4,1.4,0s0.4,1,0,1.4l-1.4,1.4c-2.3,2.3-6.1,2.3-8.5,0s-2.3-6.1,0-8.5l1.4-1.4
					c0.4-0.4,1-0.4,1.4,0c0.4,0.4,0.4,1,0,1.4l-1.4,1.4c-1.6,1.6-1.6,4.1,0,5.7c1.6,1.6,4.1,1.6,5.7,0L14.7,18.9z M11.9,14.7
					l2.8-2.8c0.4-0.4,1-0.4,1.4,0s0.4,1,0,1.4l-2.8,2.8c-0.4,0.4-1,0.4-1.4,0S11.5,15.1,11.9,14.7z"/>
			</g>
		</g>
	</g>
</g>
</svg>
