<?xml version="1.0" encoding="UTF-8"?>
<svg viewBox="0 0 24 24" version="1.1" xmlns="http://www.w3.org/2000/svg" xmlns:xlink="http://www.w3.org/1999/xlink">
    <g id="图标/面性/列表" stroke="none" stroke-width="1">
        <path d="M19,15.8 C20.1045695,15.8 21,16.6954305 21,17.8 L21,19 C21,20.1045695 20.1045695,21 19,21 L5,21 C3.8954305,21 3,20.1045695 3,19 L3,17.8 C3,16.6954305 3.8954305,15.8 5,15.8 L19,15.8 Z M19,9.4 C20.1045695,9.4 21,10.2954305 21,11.4 L21,12.6 C21,13.7045695 20.1045695,14.6 19,14.6 L5,14.6 C3.8954305,14.6 3,13.7045695 3,12.6 L3,11.4 C3,10.2954305 3.8954305,9.4 5,9.4 L19,9.4 Z M19,3 C20.1045695,3 21,3.8954305 21,5 L21,6.2 C21,7.3045695 20.1045695,8.2 19,8.2 L5,8.2 C3.8954305,8.2 3,7.3045695 3,6.2 L3,5 C3,3.8954305 3.8954305,3 5,3 L19,3 Z" id="形状"></path>
    </g>
</svg>