<svg viewBox="0 0 24 24" xmlns="http://www.w3.org/2000/svg"
	xmlns:xlink="http://www.w3.org/1999/xlink">
	<g clip-path="url(#clip131_1907)">
		<path id="矢量 183"
			d="M13.5529 16.4424C16.851 13.2213 18.5 10.2988 18.5 7.6748C18.5 3.91919 15.5898 0.874756 12 0.874756C8.41016 0.874756 5.5 3.91919 5.5 7.6748C5.5 10.2988 7.14905 13.2213 10.4471 16.4424C7.88611 16.6705 6 17.4492 6 18.3748C6 19.4794 8.68628 20.3748 12 20.3748C15.3137 20.3748 18 19.4794 18 18.3748C18 17.4492 16.1139 16.6705 13.5529 16.4424ZM12.1396 7.41016C12.506 7.41016 12.839 7.48083 13.1387 7.62231C13.1984 7.65051 13.257 7.68152 13.314 7.71533C13.4745 7.81042 13.6187 7.92188 13.7465 8.04968C13.8921 8.19531 14.0165 8.36218 14.1196 8.55029C14.1609 8.62549 14.1978 8.70251 14.2302 8.78137C14.3502 9.07275 14.4102 9.38879 14.4102 9.72949C14.4102 10.079 14.347 10.4016 14.2207 10.6971C14.183 10.7855 14.1394 10.8716 14.0903 10.9551C13.9927 11.1212 13.8782 11.2708 13.7468 11.4034C13.5912 11.5607 13.412 11.6945 13.209 11.8047C13.1179 11.8544 13.0245 11.8981 12.9287 11.9355C12.6323 12.0518 12.3131 12.1099 11.9712 12.1099C11.5573 12.1099 11.1809 12.0299 10.8424 11.8701C10.799 11.8496 10.7561 11.8278 10.7139 11.8047C10.5302 11.7035 10.3662 11.5823 10.2219 11.4409C10.076 11.298 9.95032 11.1344 9.84473 10.9502C9.66907 10.6068 9.52979 10.1237 9.52979 9.69043C9.52979 9.42908 9.56506 9.1781 9.6355 8.93726C9.66199 8.84668 9.69348 8.75757 9.72998 8.66992C9.8634 8.34924 10.0864 7.93591 10.3989 7.42969L12.1006 4.6709L13.2896 4.6709L11.8101 7.04883L11.5 7.50049C11.6725 7.44031 11.8857 7.41016 12.1396 7.41016ZM11.959 11.1406C12.2279 11.1406 12.4601 11.0807 12.6555 10.9607C12.7462 10.905 12.829 10.8364 12.9038 10.7549C12.9579 10.6964 13.0059 10.6339 13.0476 10.5676C13.1893 10.3427 13.2603 10.0731 13.2603 9.75879C13.2603 9.41162 13.1791 9.12061 13.0166 8.88574C12.9825 8.83655 12.9449 8.78992 12.9038 8.74561C12.829 8.66406 12.7462 8.59546 12.6555 8.53979C12.4601 8.4198 12.2279 8.35986 11.959 8.35986C11.6996 8.35986 11.474 8.41675 11.2822 8.53064C11.184 8.58899 11.0946 8.66223 11.0142 8.75049C10.9652 8.80444 10.9214 8.86157 10.8827 8.922C10.7344 9.15332 10.6602 9.43225 10.6602 9.75879C10.6602 10.0947 10.738 10.3781 10.8939 10.6086C10.9299 10.6619 10.97 10.7123 11.0142 10.7598C11.0887 10.8395 11.1709 10.9066 11.2606 10.9613C11.457 11.0808 11.6898 11.1406 11.959 11.1406ZM1.25 18.3756C1.25 16.6337 3.37195 15.1108 6.53589 14.2841C6.82043 14.7012 7.12866 15.1207 7.46033 15.5432C4.64856 16.1008 2.75 17.1603 2.75 18.3756C2.75 20.1705 6.89136 21.6256 12 21.6256C17.1086 21.6256 21.25 20.1705 21.25 18.3756C21.25 17.1603 19.3514 16.1008 16.5397 15.5432C16.8713 15.1207 17.1796 14.7012 17.4641 14.2841C20.6281 15.1108 22.75 16.6337 22.75 18.3756C22.75 20.9989 17.937 23.1256 12 23.1256C6.06299 23.1256 1.25 20.9989 1.25 18.3756Z"
			fill-opacity="1.000000" fill-rule="evenodd" />
	</g>
</svg>