<?xml version="1.0" encoding="utf-8"?>
<!-- Generator: Adobe Illustrator 15.0.0, SVG Export Plug-In . SVG Version: 6.00 Build 0)  -->
<!DOCTYPE svg PUBLIC "-//W3C//DTD SVG 1.1//EN" "http://www.w3.org/Graphics/SVG/1.1/DTD/svg11.dtd">
<svg version="1.1" id="图层_1" xmlns="http://www.w3.org/2000/svg" xmlns:xlink="http://www.w3.org/1999/xlink" x="0px" y="0px"
	 viewBox="0 0 576.352 375.897" enable-background="new 0 0 576.352 375.897"
	 xml:space="preserve">
<g>
	<path d="M525.503,0H50.845C22.805,0,0,21.077,0,46.988v281.92c0,25.912,22.805,46.989,50.845,46.989h474.658
		c28.019,0,50.849-21.077,50.849-46.989V46.988C576.352,21.077,553.494,0,525.503,0L525.503,0z M33.906,328.908V53.002
		l149.732,138.33h-0.152l-149.58,138.23V328.908z M58.388,31.326h459.548L288.188,243.631L58.388,31.326z M207.496,213.408
		l80.667,74.554l81.041-74.902L511.57,344.599H65.558L207.496,213.408z M393.688,191.332h-0.977l149.732-138.33v275.783
		L393.688,191.332z M393.688,191.332"/>
</g>
</svg>
