<svg width="24.000000" height="24.000000" viewBox="0 0 24 24" xmlns="http://www.w3.org/2000/svg" xmlns:xlink="http://www.w3.org/1999/xlink">
	<g clip-path="url(#clip131_1901)">
		<path id="矢量 177" d="M15 1.74951L5 1.74951C3.34314 1.74951 2 3.09277 2 4.74951L2 20.0793C2 20.835 2.80603 21.3176 3.47217 20.9609L6.65503 19.2556C7.05493 19.0415 7.54883 19.1233 7.8584 19.4548L9.26892 20.9663C9.66431 21.3899 10.3357 21.3899 10.7311 20.9663L10.832 20.8582C9.99414 19.7043 9.5 18.2847 9.5 16.7495C9.5 16.6064 9.50427 16.4646 9.5127 16.3237C9.3512 16.187 9.25 15.9819 9.25 15.7495L9.25 12.9043L7 12.9043C6.57996 12.9043 6.25 12.5742 6.25 12.1543C6.25 11.7344 6.57996 11.4043 7 11.4043L9.25 11.4043L9.25 9.54712L7 9.54712C6.57996 9.54712 6.25 9.21704 6.25 8.79712C6.25 8.3772 6.57996 8.04712 7 8.04712L8.51062 8.04712L6.39746 5.19604C6.14734 4.85864 6.21594 4.39697 6.55347 4.14697C6.89087 3.89697 7.35242 3.96558 7.60254 4.30298L10 7.5376L12.3975 4.30298C12.6476 3.96558 13.1091 3.89697 13.4465 4.14697C13.7841 4.39697 13.8527 4.85864 13.6025 5.19604L11.4894 8.04712L13 8.04712C13.42 8.04712 13.75 8.3772 13.75 8.79712C13.75 9.21704 13.42 9.54712 13 9.54712L10.75 9.54712L10.75 11.4043L11.98 11.4043C13.1995 10.3721 14.7771 9.74951 16.5 9.74951C17.0149 9.74951 17.5167 9.80518 18 9.91064L18 4.74951C18 3.09277 16.6569 1.74951 15 1.74951ZM11 16.7498C11 13.7124 13.4624 11.2498 16.5 11.2498C19.5376 11.2498 22 13.7124 22 16.7498C22 19.7874 19.5376 22.2498 16.5 22.2498C13.4624 22.2498 11 19.7874 11 16.7498ZM16.5028 19.0325L19.5281 16.0325C19.8263 15.7366 19.8282 15.27 19.5326 14.9717C19.2368 14.6736 18.7701 14.6716 18.4719 14.9673L15.9747 17.4436L14.5281 16.0093C14.2299 15.7134 13.7632 15.7153 13.4674 16.0137C13.1718 16.3118 13.1737 16.7786 13.4719 17.0742L15.4465 19.0325C15.5197 19.105 15.6002 19.1592 15.6882 19.1956C15.7762 19.2317 15.8718 19.2498 15.9747 19.2498C16.0776 19.2498 16.1731 19.2317 16.2611 19.1956C16.3491 19.1592 16.4297 19.105 16.5028 19.0325Z" fill-opacity="1.000000" fill-rule="evenodd"/>
	</g>
</svg>
