<?xml version="1.0" encoding="utf-8"?>
<!-- Generator: Adobe Illustrator 21.0.0, SVG Export Plug-In . SVG Version: 6.00 Build 0)  -->
<svg version="1.1" id="Layer_1" xmlns="http://www.w3.org/2000/svg" xmlns:xlink="http://www.w3.org/1999/xlink" x="0px" y="0px"
	 viewBox="0 0 24 24" xml:space="preserve">
<g id="Icon">
	<g id="UI-icons-英文名" transform="translate(-622.000000, -1313.000000)">
		<g id="网站通用图标" transform="translate(100.000000, 1221.000000)">
			<g id="male" transform="translate(520.000000, 91.000000)">
				<path id="Shape" class="st0" d="M11,8.5c-4.1,0-7.5,3.4-7.5,7.5s3.4,7.5,7.5,7.5s7.5-3.4,7.5-7.5S15.1,8.5,11,8.5z M11,21.8
					c-3.2,0-5.8-2.6-5.8-5.8s2.6-5.8,5.8-5.8s5.8,2.6,5.8,5.8S14.2,21.8,11,21.8z M24.3,2.7c-0.2-0.2-0.4-0.2-0.6-0.2h-8.8
					c-0.5,0-0.8,0.4-0.8,0.8s0.4,0.8,0.8,0.8h8v8c0,0.5,0.4,0.8,0.8,0.8s0.8-0.4,0.8-0.8V3.3C24.5,3.1,24.4,2.9,24.3,2.7z"/>
			</g>
		</g>
	</g>
</g>
</svg>
