<?xml version="1.0" encoding="UTF-8"?>
<svg viewBox="0 0 24 24" version="1.1" xmlns="http://www.w3.org/2000/svg" xmlns:xlink="http://www.w3.org/1999/xlink">
    <g id="ic_box_lined" stroke="none">
        <g id="编组">
           <path d="M10.4997889,2.50824731 C11.4286928,1.97249496 12.5713072,1.97249496 13.500681,2.50851854 L13.500681,2.50851854 L19.4706149,5.95748036 C20.3985039,6.49341623 20.9705,7.48391916 20.9705,8.55493305 L20.9705,8.55493305 L20.9705,15.4469331 C20.9705,16.5181382 20.3982376,17.5088329 19.4703892,18.0455161 L19.4703892,18.0455161 L13.4996149,21.4913857 C13.04422,21.7544156 12.53711,21.8883753 12.0289023,21.8932772 C12.0193837,21.8933446 12.0096139,21.8935331 11.9998,21.8935331 L11.9711419,21.8932786 C11.4629236,21.8884021 10.9555252,21.7544681 10.4995637,21.4914889 L10.4995637,21.4914889 L4.52938508,18.0453857 C3.60133674,17.5093578 3.0295,16.5187629 3.0295,15.4469331 L3.0295,15.4469331 L3.0295,8.55293305 C3.0295,7.48146833 3.60194136,6.48982602 4.53008543,5.95507635 L4.53008543,5.95507635 Z M4.5295,8.55293305 L4.5295,15.4469331 C4.5295,15.9829449 4.81552617,16.4784291 5.27943626,16.7463772 L5.27943626,16.7463772 L11.2492111,20.1922473 C11.2495363,20.1924349 11.2498616,20.1926223 11.2501869,20.1928096 L11.2495,12.4334669 L4.5295,8.55293305 Z M19.4704987,8.55292031 L14.6283764,11.349108 C14.2696813,11.556257 13.810974,11.4334045 13.603825,11.0747094 C13.4139385,10.7459056 13.5013448,10.3330637 13.7935177,10.1069827 L13.8782236,10.0501581 L18.7175,7.25446695 L12.7507889,3.80761879 C12.3322024,3.5661959 11.8275214,3.54205362 11.3919397,3.73506289 L11.2495179,3.80744179 L5.2795,7.25446695 L12.361734,11.3424851 C12.5648725,11.4546224 12.7104576,11.6582268 12.7429534,11.8977625 L12.7498,11.9995331 L12.7496108,20.19235 L18.7199806,16.7467142 C19.1839869,16.4783249 19.4705,15.9823163 19.4705,15.4469331 L19.4705,15.4469331 L19.4704987,8.55292031 L19.4704987,8.55292031 Z"></path>
        </g>
    </g>
</svg>