<?xml version="1.0" encoding="utf-8"?>
<!-- Generator: Adobe Illustrator 21.0.0, SVG Export Plug-In . SVG Version: 6.00 Build 0)  -->
<svg version="1.1" id="Layer_1" xmlns="http://www.w3.org/2000/svg" xmlns:xlink="http://www.w3.org/1999/xlink" x="0px" y="0px"
	 viewBox="0 0 24 24" xml:space="preserve">
<g id="Icon">
	<g id="_x36_.21版本" transform="translate(-516.000000, -1480.000000)">
		<g id="网站通用图标" transform="translate(100.000000, 1221.000000)">
			<g id="meh" transform="translate(416.000000, 259.000000)">
				<path id="Combined-Shape" class="st0" d="M9,16h6.1c0.6,0,1,0.4,1,1s-0.4,1-1,1H9c-0.6,0-1-0.4-1-1S8.5,16,9,16z M6.5,11
					C5.7,11,5,10.3,5,9.5S5.7,8,6.5,8S8,8.7,8,9.5S7.3,11,6.5,11z M17.5,11c-0.8,0-1.5-0.7-1.5-1.5S16.7,8,17.5,8S19,8.7,19,9.5
					S18.3,11,17.5,11z"/>
				<path id="Combined-Shape_1_" class="st0" d="M12,24C5.4,24,0,18.6,0,12S5.4,0,12,0s12,5.4,12,12S18.6,24,12,24z M12,22
					c5.5,0,10-4.5,10-10S17.5,2,12,2S2,6.5,2,12S6.5,22,12,22z"/>
			</g>
		</g>
	</g>
</g>
</svg>