<?xml version="1.0" encoding="utf-8"?>
<!-- Generator: Adobe Illustrator 15.0.0, SVG Export Plug-In . SVG Version: 6.00 Build 0)  -->
<!DOCTYPE svg PUBLIC "-//W3C//DTD SVG 1.1//EN" "http://www.w3.org/Graphics/SVG/1.1/DTD/svg11.dtd">
<svg version="1.1" id="图层_1" xmlns="http://www.w3.org/2000/svg" xmlns:xlink="http://www.w3.org/1999/xlink" x="0px" y="0px"
	 viewBox="0 0 597.015 597.013" enable-background="new 0 0 597.015 597.013"
	 xml:space="preserve">
<g>
	<path d="M420.001,179.268H177.014c-12.916,0-23.423,10.508-23.423,23.424v158.05
		c0,12.915,10.507,23.423,23.423,23.423h108.856l27.224,33.58l22.473-33.58h84.434c12.917,0,23.422-10.508,23.422-23.423v-158.05
		C443.423,189.776,432.918,179.268,420.001,179.268z M424.158,360.742c0,2.233-1.925,4.158-4.157,4.158h-94.066l-12.842,32.308
		l-20.017-32.285l0.802-0.022h-0.815l-0.081-0.131l-1.378,0.131H177.014c-2.233,0-4.159-1.925-4.159-4.158v-158.05
		c0-2.233,1.926-4.16,4.159-4.16h242.987c2.232,0,4.157,1.927,4.157,4.16V360.742z"/>
	<path d="M244.227,265.458h-17.513c-2.407,0-4.376,1.972-4.376,4.379v17.514c0,2.407,1.97,4.377,4.376,4.377h17.513
		c2.409,0,4.379-1.97,4.379-4.377v-17.514C248.606,267.429,246.636,265.458,244.227,265.458z"/>
	<path d="M306.397,265.021h-17.513c-2.408,0-4.379,1.971-4.379,4.379v17.511c0,2.408,1.971,4.378,4.379,4.378h17.513
		c2.405,0,4.379-1.97,4.379-4.378V269.4C310.776,266.992,308.803,265.021,306.397,265.021z"/>
	<path d="M369.442,265.021h-17.514c-2.408,0-4.377,1.971-4.377,4.379v17.511c0,2.408,1.969,4.378,4.377,4.378h17.514
		c2.407,0,4.377-1.97,4.377-4.378V269.4C373.819,266.992,371.85,265.021,369.442,265.021z"/>
</g>
<g>
	<g>
		<path d="M87.331,509.681c116.438,116.443,305.915,116.443,422.353,0c116.441-116.438,116.441-305.911,0-422.349
			c-116.438-116.442-305.914-116.442-422.353,0C-29.11,203.77-29.11,393.237,87.331,509.681L87.331,509.681z M107.503,110.483
			C211.175,6.811,378.242,0,488.539,108.483c104.52,102.801,103.658,274.364,0,378.036c-103.676,103.668-276.378,104.668-380.036,1
			C4.827,383.847,3.827,214.152,107.503,110.483L107.503,110.483z M107.503,110.483"/>
	</g>
</g>
</svg>
