<?xml version="1.0" encoding="UTF-8"?>
<svg viewBox="0 0 24 24" version="1.1" xmlns="http://www.w3.org/2000/svg" xmlns:xlink="http://www.w3.org/1999/xlink">
     
    <g id="基础组件" stroke="none" stroke-width="1">
        <g id="编组">
            <path d="M20.25005,13.7501 C20.6642636,13.7501 21.00005,14.0858864 21.00005,14.5001 C21.00005,14.8797958 20.7178961,15.193591 20.3518206,15.2432534 L20.25005,15.2501 L16.31095,15.25 L20.7803801,19.7196699 C21.0732733,20.0125631 21.0732733,20.4874369 20.7803801,20.7803301 C20.5141135,21.0465966 20.0974498,21.0708027 19.8038383,20.8529482 L19.7197199,20.7803301 L15.24895,16.31 L15.25005,20.2491 C15.25005,20.6287958 14.9678961,20.942591 14.6018206,20.9922534 L14.50005,20.9991 C14.1203542,20.9991 13.806559,20.7169461 13.7568966,20.3508706 L13.75005,20.2491 L13.75005,14.5001 L13.7502293,14.4835489 C13.750673,14.4631986 13.7519402,14.4428629 13.7540307,14.422596 L13.75005,14.5001 C13.75005,14.4532544 13.7543449,14.407412 13.7625624,14.3629449 C13.7646258,14.3519672 13.7670647,14.3402739 13.7697847,14.328633 C13.774728,14.3073736 13.7804603,14.2869476 13.787015,14.2668936 C13.791729,14.2524422 13.7970401,14.2377044 13.8028271,14.2231116 C13.8097541,14.2057846 13.8171665,14.189004 13.8251623,14.1725594 C13.8307786,14.1607939 13.8369597,14.1488686 13.8434824,14.1370817 C13.8558976,14.114901 13.8692324,14.0934849 13.8835791,14.0728244 C13.8889783,14.0648335 13.8949052,14.0566481 13.9010177,14.0485584 C13.9446763,13.9909424 13.9962389,13.9398652 14.0542061,13.8969457 L13.9697199,13.9696699 C14.0067732,13.9326166 14.0467389,13.9002509 14.0888802,13.8725727 C14.107801,13.8603187 14.1274734,13.8486364 14.1476978,13.8378534 C14.1601982,13.8310476 14.1725411,13.8249188 14.1850099,13.8191508 C14.2118481,13.8068174 14.2399773,13.7957578 14.2688744,13.7864044 C14.2728889,13.7850531 14.2769169,13.7837895 14.2809533,13.7825606 C14.318984,13.7710186 14.3581269,13.7623938 14.3982794,13.7569466 L14.50005,13.7501 L20.25005,13.7501 Z M9.50095,3 C9.88064577,3 10.194441,3.28215388 10.2441034,3.64822944 L10.25095,3.75 L10.25095,9.501 L10.2507483,9.51844798 C10.2502854,9.53846552 10.2490257,9.55846806 10.2469693,9.57840395 L10.25095,9.501 C10.25095,9.54784558 10.2466551,9.59368804 10.2384376,9.63815509 C10.2363742,9.64903282 10.2339353,9.6607261 10.2312153,9.67236702 C10.2257791,9.6958272 10.2193707,9.71828345 10.2119697,9.74028365 C10.208647,9.75009131 10.2049215,9.76045649 10.2009607,9.77075191 C10.1935005,9.79009421 10.185505,9.80851392 10.1768102,9.82653283 C10.1698916,9.84099086 10.1622481,9.85562442 10.1540892,9.87004532 C10.144137,9.88750806 10.1334887,9.90465806 10.1221871,9.92132907 C10.1152647,9.93166123 10.1077743,9.94212909 10.0999823,9.95244158 C10.0570481,10.0091986 10.0064776,10.0595304 9.94968696,10.1020016 L10.0312801,10.0313301 C9.99422681,10.0683834 9.95426108,10.1007491 9.91211979,10.1284273 C9.89196486,10.1415922 9.87097753,10.1539723 9.84936825,10.165329 C9.84024638,10.1701626 9.83151563,10.1745192 9.82272041,10.1786949 C9.79593188,10.191442 9.76747211,10.2029466 9.73821047,10.2126971 C9.73126678,10.2149554 9.72519558,10.2168799 9.71910554,10.2187252 C9.68201605,10.2300814 9.64287311,10.2387062 9.60272056,10.2441534 L9.50095,10.251 L3.75095,10.251 C3.33673644,10.251 3.00095,9.91521356 3.00095,9.501 C3.00095,9.12130423 3.28310388,8.80750904 3.64917944,8.75784662 L3.75095,8.751 L7.68995,8.751 L3.21961991,4.28033009 C2.9267267,3.98743687 2.9267267,3.51256313 3.21961991,3.21966991 C3.48588648,2.95340335 3.90255016,2.9291973 4.19616165,3.14705176 L4.28028009,3.21966991 L8.74995,7.689 L8.75095,3.75 C8.75095,3.37030423 9.03310388,3.05650904 9.39917944,3.00684662 L9.50095,3 Z" id="形状结合"></path>
        </g>
    </g>
</svg>