<?xml version="1.0" encoding="UTF-8"?>
<svg width="24px" height="24px" viewBox="0 0 24 24" version="1.1" xmlns="http://www.w3.org/2000/svg" xmlns:xlink="http://www.w3.org/1999/xlink">
  <title>ic/confirm</title>
  <g id="ic/confirm" stroke="none" stroke-width="1" fill="none" fill-rule="evenodd" opacity="0.901454381">
    <g id="编组" fill="#FFFFFF" fill-rule="nonzero">
      <path d="M12,0 C18.627417,0 24,5.372583 24,12 C24,18.627417 18.627417,24 12,24 C5.372583,24 0,18.627417 0,12 C0,5.372583 5.372583,0 12,0 Z M12,1 C5.92486775,1 1,5.92486775 1,12 C1,18.0751322 5.92486775,23 12,23 C18.0751322,23 23,18.0751322 23,12 C23,5.92486775 18.0751322,1 12,1 Z" id="椭圆形"></path>
      <path d="M18.2438551,7.3738727 C18.4382221,7.17771949 18.7548013,7.17627148 18.9509545,7.37063848 C19.1471077,7.56500548 19.1485557,7.88158466 18.9541887,8.07773786 L10.5786117,16.5302855 C10.1804875,16.9253033 9.54732756,16.9227822 9.15836135,16.530706 L4.74353718,12.0805832 C4.54905407,11.8845451 4.55031463,11.5679652 4.74635272,11.3734821 C4.94239081,11.1789989 5.25897079,11.1802595 5.4534539,11.3762976 L9.86827807,15.8264203 L18.2438551,7.3738727 Z" id="路径"></path>
    </g>
  </g>
</svg>