<svg viewBox="0 0 24 24" xmlns="http://www.w3.org/2000/svg"
	xmlns:xlink="http://www.w3.org/1999/xlink">
	<g clip-path="url(#clip131_1908)">
		<g opacity="0.000000" />
		<path id="矢量 184"
			d="M14.1617 2.0957C14.0532 2.03479 13.928 2 13.7947 2L6.69739 2C4.93018 2 3.5 3.44141 3.5 5.21667L3.5 18.7833C3.5 20.5586 4.93018 22 6.69739 22L17.3026 22C19.0698 22 20.5 20.5586 20.5 18.7833L20.5 8.79333C20.5 8.56653 20.3994 8.36328 20.2405 8.22632C20.2109 8.18591 20.1782 8.14697 20.1426 8.10986L14.6188 2.38159C14.491 2.24902 14.3337 2.15161 14.1617 2.0957ZM14.5439 4.46399L17.994 8.04297L15.5079 8.04333C14.9958 8.04333 14.5447 7.61792 14.5447 7.14893L14.5439 4.46399ZM7.99841 15.3424L7.99841 16.7516C7.99841 17.1716 8.32837 17.5016 8.74841 17.5016C9.16846 17.5016 9.49841 17.1716 9.49841 16.7516L9.49841 12.7516C9.49841 12.6481 9.4801 12.5521 9.44348 12.4637C9.40686 12.3754 9.35193 12.2946 9.27881 12.2213C9.20557 12.1481 9.12476 12.0931 9.03638 12.0565C8.948 12.0199 8.85205 12.0016 8.74841 12.0016C8.68408 12.0016 8.62183 12.0094 8.5614 12.0249C8.5011 12.0404 8.44275 12.0637 8.38647 12.0947C8.3302 12.1259 8.2793 12.1627 8.23401 12.2053C8.1886 12.248 8.14868 12.2966 8.11438 12.351L6.99841 14.1169L5.88245 12.351C5.82715 12.2634 5.76038 12.1921 5.68225 12.137C5.604 12.0818 5.5144 12.0428 5.41345 12.02C5.31238 11.9972 5.21472 11.994 5.12048 12.0103C5.02625 12.0265 4.9353 12.0624 4.84778 12.1177C4.79346 12.152 4.74487 12.1919 4.70215 12.2372C4.65942 12.2825 4.62256 12.3334 4.59155 12.3896C4.56042 12.446 4.53723 12.5044 4.52173 12.5647C4.50623 12.625 4.49841 12.6873 4.49841 12.7516L4.49841 16.7516C4.49841 17.1716 4.82837 17.5016 5.24841 17.5016C5.66846 17.5016 5.99841 17.1716 5.99841 16.7516L5.99841 15.3424L6.36438 15.9215C6.38171 15.9431 6.44849 16.0315 6.46814 16.0511C6.48975 16.0684 6.57422 16.14 6.59778 16.1549C6.6853 16.2102 6.77625 16.246 6.87048 16.2622C6.96472 16.2784 7.06238 16.2753 7.16345 16.2524C7.2644 16.2296 7.354 16.1907 7.43225 16.1356C7.51038 16.0804 7.57715 16.009 7.63245 15.9215L7.99841 15.3424ZM13.0027 13.7289C12.9688 13.6986 12.8893 13.6313 12.8354 13.6055C12.6913 13.5363 12.5233 13.5016 12.3313 13.5016C12.2084 13.5016 12.0924 13.5168 11.9835 13.5474C11.8901 13.5736 11.8109 13.6082 11.7461 13.6511C11.7552 13.6671 11.7007 13.7468 11.7289 13.7689C11.8696 13.8794 12.1095 13.9613 12.4484 14.0148C13.4396 14.1714 14.0715 14.5135 14.3442 15.0413C14.4729 15.2902 14.5216 15.5804 14.4904 15.9119C14.4744 16.0822 14.4344 16.2422 14.3707 16.3921C14.3268 16.4955 14.2715 16.5941 14.2048 16.688C14.0684 16.8613 13.8486 17.0709 13.6415 17.1885C13.274 17.3972 12.839 17.5016 12.3363 17.5016C11.8776 17.5016 11.4604 17.4132 11.0851 17.2363C10.8505 17.1163 10.575 16.9288 10.4132 16.75C10.2983 16.6229 10.2053 16.4852 10.1343 16.337C10.0875 16.2393 10.05 16.1365 10.0223 16.0295C9.91711 15.6229 10.1538 15.2208 10.5604 15.1156C10.967 15.0103 11.3693 15.2471 11.4745 15.6537C11.4941 15.7295 11.5663 15.7992 11.6909 15.8629C11.8716 15.9553 12.0867 16.0016 12.3363 16.0016C12.5748 16.0016 12.7629 15.9625 12.9006 15.8843C12.9086 15.8732 12.995 15.792 12.9969 15.7714C12.9941 15.6746 12.7335 15.5784 12.2144 15.4965C11.6189 15.4023 11.1486 15.2201 10.8033 14.9495C10.6189 14.8048 10.4733 14.6381 10.3667 14.4493C10.3192 14.3569 10.2522 14.2069 10.2246 14.1088C10.1868 13.974 10.1678 13.8335 10.1678 13.6881C10.1678 13.5845 10.1788 13.4834 10.2008 13.3848C10.2368 13.2233 10.3021 13.0684 10.3969 12.92C10.5254 12.7188 10.699 12.5455 10.9176 12.4006C11.1135 12.2709 11.334 12.1716 11.5787 12.103C11.8201 12.0354 12.0709 12.0016 12.3313 12.0016C12.7051 12.0016 13.051 12.0681 13.369 12.2013C13.4077 12.2175 13.4471 12.2354 13.4851 12.2535C13.8158 12.4124 14.0688 12.6232 14.2441 12.8857C14.2765 12.9342 14.3064 12.9849 14.3335 13.0369C14.5272 13.4094 14.3867 13.8545 14.0142 14.0482C13.6415 14.2421 13.1964 14.1016 13.0027 13.7289ZM19.2788 14.2216C19.2072 14.15 19.1283 14.0959 19.0422 14.0593C19.1077 14.0309 19.1705 13.9924 19.2286 13.944C19.5511 13.6748 19.593 13.21 19.324 12.8876C19.156 12.6863 18.9669 12.5176 18.7568 12.3813C18.681 12.3323 18.6025 12.2874 18.5214 12.2467C18.3411 12.1565 18.1554 12.0911 17.9645 12.0507C17.8099 12.0179 17.6517 12.0016 17.4902 12.0016C17.3324 12.0016 17.1779 12.0172 17.0265 12.0486C16.8411 12.0869 16.6604 12.1488 16.4846 12.2341C16.4061 12.2723 16.3301 12.3145 16.2565 12.3605C16.049 12.4905 15.8611 12.6519 15.693 12.8448C15.6331 12.9138 15.5768 12.9854 15.5242 13.0594C15.3832 13.2585 15.2689 13.4767 15.1815 13.7139C15.1406 13.8251 15.1066 13.9379 15.0793 14.0522C15.0254 14.2789 14.9984 14.5121 14.9984 14.7516C14.9984 14.9912 15.0254 15.2244 15.0793 15.451C15.1066 15.5654 15.1406 15.6782 15.1815 15.7894C15.2689 16.0266 15.3832 16.2446 15.5242 16.4437C15.5767 16.5178 15.6331 16.5895 15.693 16.6584C15.8611 16.8514 16.049 17.0128 16.2565 17.1428C16.3301 17.1888 16.4061 17.231 16.4846 17.2692C16.6604 17.3545 16.8411 17.4164 17.0265 17.4547C17.1779 17.486 17.3324 17.5016 17.4902 17.5016C17.6517 17.5016 17.8099 17.4852 17.9646 17.4525C18.1556 17.4121 18.3413 17.3467 18.5217 17.2563C18.603 17.2157 18.6815 17.1708 18.7573 17.1216C18.9674 16.9852 19.1565 16.8165 19.3243 16.6152C19.3525 16.5814 19.3773 16.5459 19.3988 16.5084C19.4204 16.4709 19.4386 16.4315 19.4536 16.3903C19.4685 16.349 19.4797 16.3071 19.4872 16.2645C19.4946 16.2219 19.4984 16.1787 19.4984 16.1348L19.4984 14.752C19.4984 14.6483 19.4801 14.5524 19.4435 14.464C19.4069 14.3756 19.3519 14.2948 19.2788 14.2216ZM18.1722 13.8486C18.0774 13.735 17.97 13.6482 17.85 13.588C17.7751 13.5505 17.6984 13.5253 17.6194 13.5122C17.5769 13.5051 17.5338 13.5016 17.4902 13.5016C17.4471 13.5016 17.4047 13.505 17.3628 13.512C17.2866 13.5244 17.2123 13.5482 17.1399 13.5835C17.0232 13.6401 16.918 13.7223 16.8242 13.83C16.7263 13.9438 16.6444 14.082 16.5891 14.2324C16.5479 14.3705 16.4984 14.6012 16.4984 14.7516C16.4984 14.9021 16.519 15.0464 16.5603 15.1844C16.6156 15.3348 16.7211 15.5533 16.819 15.6672C16.9127 15.775 17.0232 15.8632 17.1399 15.9198C17.2123 15.955 17.2866 15.9788 17.3628 15.9913C17.4047 15.9982 17.4473 16.0016 17.4902 16.0016C17.5338 16.0016 17.5769 15.998 17.6194 15.9911C17.6984 15.978 17.7753 15.9526 17.8501 15.9152C17.9019 15.8892 17.9513 15.8583 17.9984 15.8224L17.9984 15.502L17.6486 15.502C17.2286 15.502 16.8986 15.1719 16.8986 14.752C16.8986 14.3319 17.2286 14.002 17.6486 14.002L18.3446 14.002C18.2816 13.9611 18.2234 13.9099 18.1722 13.8486Z"
			fill-opacity="1.000000" fill-rule="evenodd" />
	</g>
</svg>