<?xml version="1.0" encoding="UTF-8"?>
<svg viewBox="0 0 96 96" version="1.1" xmlns="http://www.w3.org/2000/svg" xmlns:xlink="http://www.w3.org/1999/xlink">
    <g id="缺省图" stroke="none" stroke-width="1" fill="none" fill-rule="evenodd">
        <g transform="translate(-1036.000000, -711.000000)" id="暂无最新消息">
            <g transform="translate(1036.000000, 711.000000)">
                <rect id="矩形" x="0" y="0" width="96" height="96"></rect>
                <g id="4" transform="translate(3.000000, 13.000000)">
                    <g id="暂无最新消息" transform="translate(8.153142, 0.000000)">
                        <path d="M1.9226688,24.2243259 L33.4958146,1.86450512 C35.073242,0.747385065 37.1839296,0.747385065 38.761357,1.86450512 L70.3345028,24.2243259 C71.5404167,25.0783434 72.2571716,26.4642336 72.2571716,27.9419259 L72.2571716,67.360119 C72.2571716,69.2470441 70.7275166,70.776699 68.8405916,70.776699 L3.41658,70.776699 C1.52965497,70.776699 6.7517088e-16,69.2470441 0,67.360119 L0,27.9419259 C-1.06914352e-15,26.4642336 0.716754881,25.0783434 1.9226688,24.2243259 Z" id="矩形" fill="#FFFFFF"></path>
                        <path d="M38.4589791,1.6503638 L70.5732776,24.3934241 C71.6298877,25.141706 72.2571716,26.3511761 72.2571716,27.6401509 L72.2571716,67.7861343 C72.2571716,69.4377776 70.9092283,70.776699 69.2464561,70.776699 L3.01071548,70.776699 C1.34794324,70.776699 0,69.4377776 0,67.7861343 L0,27.6401509 C0,26.3511761 0.627283879,25.141706 1.68389399,24.3934241 L33.7981925,1.6503638 C35.1927178,0.662773362 37.0644537,0.662773362 38.4589791,1.6503638 Z M34.3807908,2.46204551 L2.26649232,25.2051058 C1.47403474,25.7663172 1.00357183,26.6734198 1.00357183,27.6401509 L1.00357183,67.7861343 C1.00357183,68.8872298 1.90220065,69.7798441 3.01071548,69.7798441 L69.2464561,69.7798441 C70.3549709,69.7798441 71.2535997,68.8872298 71.2535997,67.7861343 L71.2535997,27.6401509 C71.2535997,26.6734198 70.7831368,25.7663172 69.9906792,25.2051058 L37.8763808,2.46204551 C36.8304868,1.72135268 35.4266848,1.72135268 34.3807908,2.46204551 Z" id="矩形" fill="#818181" fill-rule="nonzero"></path>
                        <path d="M33.4844676,43.1499392 C34.9997667,42.0628812 37.0246431,42.0193989 38.5807083,43.0194922 L38.772704,43.1499392 L72.2571716,67.5482397 C72.2571716,67.8951243 71.9759661,68.1763298 71.6290815,68.1763298 C71.496153,68.1763298 71.366652,68.134156 71.2592159,68.0558779 L38.1851222,43.9580688 L38.1851222,43.9580688 C37.0159099,43.1192895 35.4566259,43.0793476 34.2502639,43.8382431 L34.0720494,43.9580688 L0.997955685,68.0558779 C0.717594823,68.2601491 0.324722969,68.1984662 0.120451837,67.9181053 C0.0421738022,67.8106692 -6.92105991e-16,67.6811681 0,67.5482397 L0,67.5482397 L0,67.5482397 L33.4844676,43.1499392 Z" id="路径-312" fill="#818181" fill-rule="nonzero"></path>
                        <path d="M72.2571716,27.9119376 L41.1464449,46.0626338 L70.4466429,67.460749 C70.9545838,67.8317013 71.6670675,67.7206502 72.0380199,67.2127093 C72.1804267,67.0177132 72.2571716,66.7825013 72.2571716,66.5410407 L72.2571716,27.9119376 L72.2571716,27.9119376 Z" id="路径-313" fill="#EEEEEE"></path>
                        <path d="M72.2571716,27.9119376 L72.2571716,66.8127857 C72.2571716,67.0252293 72.1888443,67.2321171 72.0621543,67.403278 C71.7338369,67.8468416 71.1056809,67.9420485 70.6591286,67.6159286 L41.1464449,46.0626338 L72.2571716,27.9119376 Z M71.2535997,29.6526918 L42.9682442,46.1556798 L71.2535997,66.8127857 L71.2535997,29.6526918 Z" id="路径-313" fill="#818181" fill-rule="nonzero"></path>
                        <path d="M31.1107266,27.9119376 L0,46.0626338 L29.300198,67.460749 C29.8081389,67.8317013 30.5206226,67.7206502 30.8915749,67.2127093 C31.0339818,67.0177132 31.1107266,66.7825013 31.1107266,66.5410407 L31.1107266,27.9119376 L31.1107266,27.9119376 Z" id="路径-313备份" fill="#EEEEEE" transform="translate(15.555363, 48.347463) scale(-1, 1) translate(-15.555363, -48.347463) "></path>
                        <path d="M31.1107266,27.9119376 L31.1107266,66.8127857 C31.1107266,67.0252293 31.0423994,67.2321171 30.9157094,67.403278 C30.587392,67.8468416 29.959236,67.9420485 29.5126837,67.6159286 L0,46.0626338 L31.1107266,27.9119376 Z M30.1071548,29.6526918 L1.82179931,46.1556798 L30.1071548,66.8127857 L30.1071548,29.6526918 Z" id="路径-313备份" fill="#818181" fill-rule="nonzero" transform="translate(15.555363, 47.860822) scale(-1, 1) translate(-15.555363, -47.860822) "></path>
                    </g>
                    <g id="ic_tips_filled" transform="translate(69.928563, 39.172706)" fill-rule="nonzero">
                        <path d="M10.0357183,0 C4.50202322,0 0,4.47189115 0,9.96854916 C0,15.4652072 4.50202322,19.9370983 10.0357183,19.9370983 C15.5694133,19.9370983 20.0714365,15.4652072 20.0714365,9.96854916 C20.0714365,4.47189115 15.5694133,0 10.0357183,0" id="Fill-1" fill="#0067D1"></path>
                        <path d="M10.0357183,4.73506085 C10.451197,4.73506085 10.7883971,5.0700041 10.7883971,5.48270204 L10.7883971,11.3382278 C10.7883971,11.7509257 10.451197,12.085869 10.0357183,12.085869 C9.62023954,12.085869 9.2830394,11.7509257 9.2830394,11.3382278 L9.2830394,5.48270204 C9.2830394,5.0700041 9.62023954,4.73506085 10.0357183,4.73506085" id="Fill-1-path" fill="#FFFFFF"></path>
                        <path d="M10.0357183,15.4512512 C9.48174662,15.4512512 9.03214644,15.005657 9.03214644,14.4543963 C9.03214644,13.9031355 9.48174662,13.4575414 10.0357183,13.4575414 C10.5896899,13.4575414 11.0392901,13.9031355 11.0392901,14.4543963 C11.0392901,15.005657 10.5896899,15.4512512 10.0357183,15.4512512" id="Fill-1-path" fill="#FFFFFF"></path>
                    </g>
                    <g id="编组" transform="translate(7.032035, 15.788936) scale(-1, 1) translate(-7.032035, -15.788936) translate(0.000000, 7.161589)" fill="#818181">
                        <rect id="矩形" x="0" y="0" width="1" height="7.45063401"></rect>
                        <path d="M7.44271242,2.85163945 C7.69903124,2.85077879 7.9075164,3.05786856 7.90837705,3.31418738 C7.90838054,3.31522627 7.90838054,3.31626518 7.90837705,3.31730407 L7.88641317,9.8585727 C7.88554502,10.1171246 7.67616277,10.3265069 7.41761085,10.327375 C7.16129203,10.3282357 6.95280688,10.1211459 6.95194623,9.86482709 C6.95194274,9.8637882 6.95194274,9.86274929 6.95194623,9.8617104 L6.9739101,3.32044177 C6.97477825,3.06188985 7.1841605,2.8525076 7.44271242,2.85163945 Z" id="矩形" transform="translate(7.430162, 6.589507) rotate(45.000000) translate(-7.430162, -6.589507) "></path>
                        <path d="M10.3136511,9.75385556 C10.5708305,9.75385556 10.7793157,9.96234072 10.7793157,10.2195202 L10.7793157,16.7890281 C10.7793157,17.0462076 10.5708305,17.2546927 10.3136511,17.2546927 C10.0564716,17.2546927 9.84798645,17.0462076 9.84798645,16.7890281 L9.84798645,10.2195202 C9.84798645,9.96234072 10.0564716,9.75385556 10.3136511,9.75385556 Z" id="矩形" transform="translate(10.313651, 13.504274) rotate(90.000000) translate(-10.313651, -13.504274) "></path>
                    </g>
                </g>
            </g>
        </g>
    </g>
</svg>