<?xml version="1.0" encoding="UTF-8"?>
<svg viewBox="0 0 96 96" version="1.1" xmlns="http://www.w3.org/2000/svg" xmlns:xlink="http://www.w3.org/1999/xlink">
    <g id="缺省图" stroke="none" stroke-width="1" fill="none" fill-rule="evenodd">
        <g transform="translate(-820.000000, -711.000000)" id="无相关搜索结果">
            <g transform="translate(820.000000, 711.000000)">
                <rect id="矩形" x="0" y="0" width="96" height="96"></rect>
                <g id="8" transform="translate(3.000000, 11.000000)">
                    <g id="01小容器/01背景/文档">
                        <path d="M56.5842099,8.38389637e-07 L65.3799674,8.38389637e-07 C68.1754119,8.38389637e-07 70.4415674,2.26615635 70.4415674,5.06160084 L70.4415674,14.936529 C70.4415674,15.6353901 69.8750286,16.201929 69.1761674,16.201929 L56.5842099,16.201929 L56.5842099,16.201929 L56.5842099,8.38389637e-07 Z" id="矩形备份-2" fill="#EEEEEE"></path>
                        <path d="M65.8224483,8.38389637e-07 C68.3735174,8.38389637e-07 70.4415674,2.0725295 70.4415674,4.62912317 L70.4415674,15.0446484 C70.4415674,15.6837968 69.9245549,16.201929 69.2867877,16.201929 L56.5842099,16.201929 L56.5842099,8.38389637e-07 L65.8224483,8.38389637e-07 Z M65.8224483,1.04259596 L57.6245521,1.04259596 L57.6245521,15.1593339 L69.2867877,15.1593339 C69.3499898,15.1593339 69.4012253,15.1079875 69.4012253,15.0446484 L69.4012253,4.62912317 C69.4012253,2.64833889 67.7989522,1.04259596 65.8224483,1.04259596 Z" id="矩形备份-2" fill="#818181" fill-rule="nonzero"></path>
                        <path d="M11.2572989,0 L65.8026574,0 L65.8026574,0 C66.0100485,0.658749624 66.1137441,0.988124437 66.1137441,0.988124437 C61.1076562,0.988124437 61.7496765,4.17808892 61.7496765,14.0541831 C61.7496765,19.0437942 61.7496765,23.0389363 61.7496765,26.0396096 C61.7472464,23.0112124 59.2902768,20.55818 56.2618796,20.5606084 C53.2334825,20.5630368 50.78045,23.0200064 50.7828784,26.0484035 C50.7853068,29.0768007 53.2422764,31.5298331 56.2706735,31.5274048 C59.2962645,31.5249786 61.7481365,29.0723879 61.7496765,26.0467963 L61.7496765,66.2679971 C61.7496765,69.2963953 59.2946748,71.751397 56.2662766,71.751397 L11.2572989,71.751397 C8.22890074,71.751397 5.77389897,69.2963953 5.77389897,66.2679971 L5.77389897,5.48339993 C5.77389897,2.45500177 8.22890074,1.44448614e-15 11.2572989,0 Z" id="矩形" fill="#FFFFFF"></path>
                        <path d="M65.8026574,0 C66.0100485,0.658749624 66.1137441,0.988124437 66.1137441,0.988124437 C61.1076562,0.988124437 61.7496765,4.17808892 61.7496765,14.0541831 L61.7496765,66.7365146 C61.7496765,69.5061577 59.5092889,71.751397 56.7456308,71.751397 L10.7779447,71.751397 C8.01428655,71.751397 5.77389897,69.5061577 5.77389897,66.7365146 L5.77389897,5.01488247 C5.77389897,2.24523936 8.01428655,0 10.7779447,0 L65.8026574,0 Z M10.7779447,1.04259512 C8.58885166,1.04259512 6.81424113,2.82104875 6.81424113,5.01488247 L6.81424113,66.7365146 C6.81424113,68.9303483 8.58885166,70.7088019 10.7779447,70.7088019 L56.7456308,70.7088019 C58.9347238,70.7088019 60.7093344,68.9303483 60.7093344,66.7365146 L60.7092881,13.8964422 C60.7088237,13.1129789 60.7048319,12.3969145 60.6959881,11.243344 C60.6899976,10.4619477 60.6861642,9.76386127 60.6855655,9.13668035 L60.6856574,8.72892813 C60.6907131,5.35000843 60.8073297,4.15942615 61.2316018,2.9000285 C61.4954385,2.11686314 61.8775976,1.50376827 62.3942397,1.04401645 L10.7779447,1.04259512 Z" id="矩形" fill="#818181" fill-rule="nonzero"></path>
                        <path d="M57.0020587,71.751397 C58.5362399,71.751397 41.978708,71.751397 7.32946322,71.751397 C3.28151246,71.7514166 4.09103351e-15,68.4699041 0,64.4219533 L0,57.9361096 C-5.70572024e-17,57.4702022 0.377692585,57.0925096 0.8436,57.0925096 L51.2252415,57.0925096 C51.6911489,57.0925096 52.0688415,57.4702022 52.0688415,57.9361096 C52.0688415,60.7898391 52.0688415,63.6435685 52.0688415,66.497298 C52.0688415,68.3827349 53.3458441,70.7228729 56.0751026,70.7228729 C57.7893916,70.7228729 56.1687428,71.751397 57.0020587,71.751397 Z" id="路径备份-3" fill="#FFFFFF"></path>
                        <path d="M51.2989883,57.0925096 C51.7241665,57.0925096 52.0688415,57.4379311 52.0688415,57.86403 L52.0688415,66.497298 C52.0688415,68.3827349 53.3458441,70.7228729 56.0751026,70.7228729 C57.7893916,70.7228729 56.1687428,71.751397 57.0020587,71.751397 L7.3135996,71.751397 C3.27441007,71.751397 0,68.4698901 0,64.4219533 L0,57.86403 C0,57.4379311 0.344675016,57.0925096 0.769853196,57.0925096 L51.2989883,57.0925096 Z M51.0282626,58.1351048 L1.04034216,58.1351048 L1.04034216,64.4219533 C1.04034216,67.8414722 3.76450968,70.6233516 7.15657593,70.7068707 L7.3135996,70.7088019 L52.9700613,70.7088019 L52.9368827,70.6823952 C51.7635143,69.7279303 51.0689423,68.2428153 51.0302103,66.6390996 L51.0284993,66.497298 L51.0282626,58.1351048 Z" id="路径备份-3" fill="#818181" fill-rule="nonzero"></path>
                    </g>
                    <g id="编组" transform="translate(52.027511, 24.480134)">
                        <g id="编组-2" transform="translate(0.000000, 10.784604)">
                            <path d="M26.3706432,28.6661096 L23.4790399,25.7683913 C23.2317428,25.5214171 23.2317428,25.1196611 23.4790399,24.871841 C23.726337,24.624021 24.1272452,24.624021 24.3736983,24.871841 L27.2653016,27.7695593 C27.5125986,28.0173793 27.5125986,28.4182896 27.2653016,28.6661096 C27.142075,28.7904425 26.9800237,28.8521861 26.8179724,28.8521861 C26.6559211,28.8521861 26.4938697,28.7904425 26.3706432,28.6661096 Z" id="Fill-1" fill="#818181"></path>
                            <path d="M31.0259297,26.2371516 C32.1726704,26.2359112 33.103293,27.1645228 33.1045333,28.3112635 C33.1045349,28.3127608 33.1045349,28.314258 33.1045333,28.3157552 L33.0955305,36.6391726 C33.0942867,37.7891241 32.162377,38.7210338 31.0124254,38.7222776 C29.8656847,38.723518 28.9350621,37.7949064 28.9338218,36.6481657 C28.9338202,36.6466685 28.9338202,36.6451712 28.9338218,36.643674 L28.9428246,28.3202566 C28.9440685,27.1703051 29.8759781,26.2383954 31.0259297,26.2371516 Z" id="矩形" fill="#FFFFFF" transform="translate(31.019178, 32.479715) rotate(-45.000000) translate(-31.019178, -32.479715) "></path>
                            <path d="M31.0191776,26.2303995 C32.1671586,26.2303995 33.0977812,27.1630374 33.0977812,28.3135045 L33.0977812,36.6459247 C33.0977812,37.7963919 32.1671586,38.7290298 31.0191776,38.7290298 C29.8711965,38.7290298 28.9405739,37.7963919 28.9405739,36.6459247 L28.9405739,28.3135045 C28.9405739,27.1630374 29.8711965,26.2303995 31.0191776,26.2303995 Z M31.0191776,27.271952 C30.445187,27.271952 29.9798757,27.7382709 29.9798757,28.3135045 L29.9798757,36.6459247 C29.9798757,37.2211583 30.445187,37.6874772 31.0191776,37.6874772 C31.5931681,37.6874772 32.0584794,37.2211583 32.0584794,36.6459247 L32.0584794,28.3135045 C32.0584794,27.7382709 31.5931681,27.271952 31.0191776,27.271952 Z" id="矩形" fill="#818181" fill-rule="nonzero" transform="translate(31.019178, 32.479715) rotate(-45.000000) translate(-31.019178, -32.479715) "></path>
                            <path d="M14.5502254,0 C22.5733878,0 29.1004508,6.54119804 29.1004508,14.5817354 C29.1004508,22.6222727 22.5733878,29.1634707 14.5502254,29.1634707 C6.52706304,29.1634707 0,22.6222727 0,14.5817354 C0,6.54119804 6.52706304,0 14.5502254,0 Z" id="路径" fill="#FFFFFF"></path>
                            <path d="M14.5502254,0 C22.5733878,0 29.1004508,6.54119804 29.1004508,14.5817354 C29.1004508,22.6222727 22.5733878,29.1634707 14.5502254,29.1634707 C6.52706304,29.1634707 0,22.6222727 0,14.5817354 C0,6.54119804 6.52706304,0 14.5502254,0 Z M14.5502254,1.04155253 C7.10105358,1.04155253 1.03930181,7.11643162 1.03930181,14.5817354 C1.03930181,22.0470391 7.10105358,28.1219182 14.5502254,28.1219182 C21.9993972,28.1219182 28.061149,22.0470391 28.061149,14.5817354 C28.061149,7.11643162 21.9993972,1.04155253 14.5502254,1.04155253 Z" id="路径" fill="#818181" fill-rule="nonzero"></path>
                        </g>
                        <g transform="translate(23.407699, 0.000000)" fill="#818181" id="矩形">
                            <rect x="0" y="0" width="1" height="7.78471023"></rect>
                            <path d="M7.69049082,2.99682213 C7.95908143,2.99711265 8.17674469,3.2147759 8.1770352,3.48336652 L8.18439489,10.2876283 C8.18468459,10.555469 7.96779167,10.7728316 7.69995099,10.7731213 C7.69960129,10.7731217 7.69925158,10.7731217 7.69890188,10.7731213 C7.43031126,10.7728308 7.21264801,10.5551675 7.21235749,10.2865769 L7.20499781,3.48231514 C7.2047081,3.21447446 7.42160102,2.99711184 7.6894417,2.99682213 C7.68979141,2.99682175 7.69014111,2.99682175 7.69049082,2.99682213 Z" transform="translate(7.694696, 6.884972) rotate(45.000000) translate(-7.694696, -6.884972) "></path>
                            <path d="M10.6808461,10.2258432 C10.9495572,10.2258432 11.1673905,10.4436766 11.1673905,10.7123876 L11.1673905,17.507187 C11.1673905,17.775898 10.9495572,17.9937314 10.6808461,17.9937314 C10.4121351,17.9937314 10.1943018,17.775898 10.1943018,17.507187 L10.1943018,10.7123876 C10.1943018,10.4436766 10.4121351,10.2258432 10.6808461,10.2258432 Z" transform="translate(10.680846, 14.109787) rotate(90.000000) translate(-10.680846, -14.109787) "></path>
                        </g>
                    </g>
                    <g id="ic_tips_filled" transform="translate(23.615767, 21.602572)" fill-rule="nonzero">
                        <path d="M10.3930181,0 C4.66230794,0 0,4.67240463 0,10.4155253 C0,16.1586459 4.66230794,20.8310505 10.3930181,20.8310505 C16.1237284,20.8310505 20.7860363,16.1586459 20.7860363,10.4155253 C20.7860363,4.67240463 16.1237284,0 10.3930181,0" id="Fill-1" fill="#0067D1"></path>
                        <path d="M10.3930181,4.9473745 C10.8232891,4.9473745 11.1724945,5.29733614 11.1724945,5.72853889 L11.1724945,11.8466184 C11.1724945,12.2778212 10.8232891,12.6277828 10.3930181,12.6277828 C9.9627472,12.6277828 9.61354179,12.2778212 9.61354179,11.8466184 L9.61354179,5.72853889 C9.61354179,5.29733614 9.9627472,4.9473745 10.3930181,4.9473745" id="Fill-1-path" fill="#FFFFFF"></path>
                        <path d="M10.3930181,16.1440641 C9.81932355,16.1440641 9.35371633,15.6784902 9.35371633,15.1025116 C9.35371633,14.5265331 9.81932355,14.0609591 10.3930181,14.0609591 C10.9667127,14.0609591 11.43232,14.5265331 11.43232,15.1025116 C11.43232,15.6784902 10.9667127,16.1440641 10.3930181,16.1440641" id="Fill-1-path" fill="#FFFFFF"></path>
                    </g>
                </g>
            </g>
        </g>
    </g>
</svg>