<?xml version="1.0" encoding="utf-8"?>
<!-- Generator: Adobe Illustrator 21.0.0, SVG Export Plug-In . SVG Version: 6.00 Build 0)  -->
<svg version="1.1" id="Layer_1" xmlns="http://www.w3.org/2000/svg" xmlns:xlink="http://www.w3.org/1999/xlink" x="0px" y="0px"
	 viewBox="0 0 24 24" xml:space="preserve">
<g id="Icon">
	<g id="UI-icons-英文名" transform="translate(-309.000000, -845.000000)">
		<g id="提示建议性图标" transform="translate(101.000000, 761.000000)">
			<g id="operationfaild" transform="translate(208.000000, 84.000000)">
				<path id="close-circle" class="st0" d="M16.8,7.2c-0.3-0.3-0.9-0.3-1.2,0L12,10.8L8.4,7.2c-0.3-0.3-0.9-0.3-1.2,0
					c-0.3,0.3-0.3,0.9,0,1.2l3.6,3.6l-3.6,3.6c-0.3,0.3-0.3,0.9,0,1.2C7.4,16.9,7.6,17,7.8,17s0.4-0.1,0.6-0.2l3.6-3.6l3.6,3.6
					c0.2,0.2,0.4,0.2,0.6,0.2c0.2,0,0.4-0.1,0.6-0.2c0.3-0.3,0.3-0.9,0-1.2L13.2,12l3.6-3.6C17.1,8.1,17.1,7.6,16.8,7.2z M12,0
					C5.4,0,0,5.4,0,12s5.4,12,12,12s12-5.4,12-12S18.6,0,12,0z M19.1,19.1c-0.9,0.9-2,1.6-3.2,2.1C14.7,21.7,13.4,22,12,22
					s-2.7-0.3-3.9-0.8c-1.2-0.5-2.3-1.2-3.2-2.1c-0.9-0.9-1.6-2-2.1-3.2C2.3,14.7,2,13.4,2,12s0.3-2.7,0.8-3.9
					C3.3,6.9,4,5.8,4.9,4.9c0.9-0.9,2-1.6,3.2-2.1C9.3,2.3,10.6,2,12,2s2.7,0.3,3.9,0.8c1.2,0.5,2.3,1.2,3.2,2.1
					c0.9,0.9,1.6,2,2.1,3.2C21.7,9.3,22,10.6,22,12s-0.3,2.7-0.8,3.9C20.7,17.1,20,18.2,19.1,19.1z"/>
			</g>
		</g>
	</g>
</g>
</svg>
