<?xml version="1.0" encoding="utf-8"?>
<!-- Generator: Adobe Illustrator 21.0.0, SVG Export Plug-In . SVG Version: 6.00 Build 0)  -->
<svg version="1.1" class="svg-operationfaild" id="Layer_1" xmlns="http://www.w3.org/2000/svg" xmlns:xlink="http://www.w3.org/1999/xlink" x="0px" y="0px"
	 viewBox="0 0 24 24" xml:space="preserve">
<g id="Icon">
	<g id="UI-icons-英文名" transform="translate(-204.000000, -929.000000)">
		<g id="提示建议性图标" transform="translate(100.000000, 761.000000)">
			<g id="Error" transform="translate(104.000000, 168.000000)">
				<path id="Combined-Shape" class="st0" d="M12,24C5.4,24,0,18.6,0,12S5.4,0,12,0s12,5.4,12,12S18.6,24,12,24z M16.8,15.6L13.2,12
					l3.6-3.6c0.3-0.3,0.3-0.9,0-1.2c-0.3-0.3-0.9-0.3-1.2,0L12,10.8L8.4,7.2c-0.3-0.3-0.9-0.3-1.2,0s-0.3,0.9,0,1.2l3.6,3.6
					l-3.6,3.6c-0.3,0.3-0.3,0.9,0,1.2C7.4,16.9,7.6,17,7.8,17s0.4-0.1,0.6-0.2l3.6-3.6l3.6,3.6c0.2,0.2,0.4,0.2,0.6,0.2
					c0.2,0,0.4-0.1,0.6-0.2C17.1,16.4,17.1,15.9,16.8,15.6z"/>
			</g>
		</g>
	</g>
</g>
</svg>
