<?xml version="1.0" encoding="UTF-8"?>
<svg viewBox="0 0 30 30" version="1.1" xmlns="http://www.w3.org/2000/svg" xmlns:xlink="http://www.w3.org/1999/xlink">
    <g id="多端组件" stroke="none" stroke-width="1">
        <g id="文件上传" transform="translate(-691.000000, -1942.000000)">
            <g id="其他" transform="translate(691.000000, 1942.000000)">
                <rect id="矩形" x="0" y="0" width="30" height="30" rx="2"></rect>
                <path d="M7.5,6 L12.5,6 C13.3284271,6 14,6.67157288 14,7.5 L14,12.5 C14,13.3284271 13.3284271,14 12.5,14 L7.5,14 C6.67157288,14 6,13.3284271 6,12.5 L6,7.5 C6,6.67157288 6.67157288,6 7.5,6 Z M7.5,16 L12.5,16 C13.3284271,16 14,16.6715729 14,17.5 L14,22.5 C14,23.3284271 13.3284271,24 12.5,24 L7.5,24 C6.67157288,24 6,23.3284271 6,22.5 L6,17.5 C6,16.6715729 6.67157288,16 7.5,16 Z M17.5,16 L22.5,16 C23.3284271,16 24,16.6715729 24,17.5 L24,22.5 C24,23.3284271 23.3284271,24 22.5,24 L17.5,24 C16.6715729,24 16,23.3284271 16,22.5 L16,17.5 C16,16.6715729 16.6715729,16 17.5,16 Z M22.5,6 C23.3284271,6 24,6.67157288 24,7.5 L24,12.5 C24,13.3284271 23.3284271,14 22.5,14 L17.5,14 C16.6715729,14 16,13.3284271 16,12.5 L16,7.5 C16,6.67157288 16.6715729,6 17.5,6 L22.5,6 Z M22.5,7 L17.5,7 C17.2238576,7 17,7.22385763 17,7.5 L17,12.5 C17,12.7761424 17.2238576,13 17.5,13 L22.5,13 C22.7761424,13 23,12.7761424 23,12.5 L23,7.5 C23,7.22385763 22.7761424,7 22.5,7 Z" id="形状结合" fill="#FFFFFF"></path>
            </g>
        </g>
    </g>
</svg>