<?xml version="1.0" encoding="utf-8"?>
<!-- Generator: Adobe Illustrator 21.0.0, SVG Export Plug-In . SVG Version: 6.00 Build 0)  -->
<svg version="1.1" id="Layer_1" xmlns="http://www.w3.org/2000/svg" xmlns:xlink="http://www.w3.org/1999/xlink" x="0px" y="0px"
	 viewBox="0 0 24 24" xml:space="preserve">
<g id="Icon">
	<g id="UI-icons-英文名" transform="translate(-520.000000, -1986.000000)">
		<g id="网站通用图标" transform="translate(100.000000, 1053.000000)">
			<g id="pagelink" transform="translate(418.000000, 932.000000)">
				<path id="Rectangle-6" class="st0" d="M8,6h7c0.6,0,1,0.4,1,1l0,0c0,0.6-0.4,1-1,1H8C7.4,8,7,7.6,7,7l0,0C7,6.4,7.4,6,8,6z"/>
				<path id="Rectangle-6-Copy" class="st0" d="M8,10h5c0.6,0,1,0.4,1,1l0,0c0,0.6-0.4,1-1,1H8c-0.6,0-1-0.4-1-1l0,0
					C7,10.4,7.4,10,8,10z"/>
				<path id="Shape" class="st0" d="M20,2H6C5.1,2,4,3.1,4,4v18c0,0.9,1.1,2,2,2h5c0.5,0,1-0.5,1-1s-0.5-1-1-1l-5,0V4h14v6
					c0,0.5,0.5,1,1,1s1-0.5,1-1V4C22,3.1,20.9,2,20,2z"/>
				<path id="Combined-Shape" class="st0" d="M18.9,14.9l1.4-1.4c0.4-0.4,0.9-0.7,1.4-0.8c0.5-0.1,1-0.1,1.5,0
					c0.5,0.1,1,0.4,1.4,0.8c0.4,0.4,0.7,0.9,0.8,1.4c0.1,0.5,0.1,1,0,1.5c-0.1,0.5-0.4,1-0.8,1.4l-1.4,1.4c-0.4,0.4-1,0.4-1.4,0
					s-0.4-1,0-1.4l1.4-1.4c0.1-0.1,0.2-0.3,0.3-0.5c0-0.2,0-0.3,0-0.5c0-0.2-0.1-0.3-0.3-0.5s-0.3-0.2-0.5-0.3c-0.2,0-0.3,0-0.5,0
					s-0.3,0.1-0.5,0.3l-1.4,1.4c-0.1,0.1-0.3,0.2-0.5,0.3c-0.2,0-0.3,0-0.5,0c-0.2,0-0.3-0.1-0.5-0.3s-0.2-0.3-0.3-0.5
					c0-0.2,0-0.3,0-0.5C18.7,15.2,18.7,15,18.9,14.9z M18.9,20.5c0.4-0.4,1-0.4,1.4,0s0.4,1,0,1.4l-1.4,1.4
					c-0.4,0.4-0.9,0.7-1.4,0.8c-0.5,0.1-1,0.1-1.5,0c-0.5-0.1-1-0.4-1.4-0.8S14,22.5,13.9,22c-0.1-0.5-0.1-1,0-1.5
					c0.1-0.5,0.4-1,0.8-1.4l1.4-1.4c0.1-0.1,0.3-0.2,0.5-0.3c0.2,0,0.3,0,0.5,0c0.2,0,0.3,0.1,0.5,0.3s0.2,0.3,0.3,0.5
					c0,0.2,0,0.3,0,0.5c0,0.2-0.1,0.3-0.3,0.5l-1.4,1.4c-0.1,0.1-0.2,0.3-0.3,0.5c0,0.2,0,0.3,0,0.5c0,0.2,0.1,0.3,0.3,0.5
					c0.1,0.1,0.3,0.2,0.5,0.3c0.2,0,0.3,0,0.5,0c0.2,0,0.3-0.1,0.5-0.3L18.9,20.5z M20.3,19.1c-0.4,0.4-1,0.4-1.4,0s-0.4-1,0-1.4
					s1-0.4,1.4,0S20.7,18.7,20.3,19.1z"/>
			</g>
		</g>
	</g>
</g>
</svg>
