<?xml version="1.0" encoding="UTF-8"?>
<svg viewBox="0 0 120 120" version="1.1" xmlns="http://www.w3.org/2000/svg" xmlns:xlink="http://www.w3.org/1999/xlink">
    <g id="图标" stroke="none" stroke-width="1" fill="none" fill-rule="evenodd">
        <g id="pagenoperm">
            <rect id="矩形" x="0" y="0" width="120" height="120"></rect>
            <g id="7" transform="translate(4.000000, 21.000000)" fill-rule="nonzero">
                <g id="01小容器/01背景/窗口">
                    <rect id="矩形" fill="#FFFFFF" x="0" y="0" width="102.81911" height="78" rx="4.218"></rect>
                    <path d="M98.0809023,0 C100.697742,0 102.81911,2.09112512 102.81911,4.67065868 L102.81911,73.3293413 C102.81911,75.9088749 100.697742,78 98.0809023,78 L4.73820784,78 C2.12136791,78 0,75.9088749 0,73.3293413 L0,4.67065868 C0,2.09112512 2.12136791,0 4.73820784,0 L98.0809023,0 Z M98.0809023,1.26234018 L4.73820784,1.26234018 C2.82862194,1.26234018 1.28059671,2.78829635 1.28059671,4.67065868 L1.28059671,73.3293413 C1.28059671,75.2117036 2.82862194,76.7376598 4.73820784,76.7376598 L98.0809023,76.7376598 C99.9904882,76.7376598 101.538513,75.2117036 101.538513,73.3293413 L101.538513,4.67065868 C101.538513,2.78829635 99.9904882,1.26234018 98.0809023,1.26234018 Z" id="矩形" fill="#8F8F8F"></path>
                    <path d="M4.218,0 L98.461989,0 C100.791526,0 102.679989,1.88846293 102.679989,4.218 L102.679989,17.0285391 L102.679989,17.0285391 L0,17.0285391 L0,4.218 C0,1.88846293 1.88846293,0 4.218,0 Z" id="矩形" fill="#EEEEEE"></path>
                    <path d="M97.9417812,0 C100.558621,0 102.679989,2.09112512 102.679989,4.67065868 L102.679989,17.0285391 L0,17.0285391 L0,4.67065868 C0,2.09112512 2.12136791,0 4.73820784,0 L97.9417812,0 Z M97.9417812,1.26234018 L4.73820784,1.26234018 C2.82862194,1.26234018 1.28059671,2.78829635 1.28059671,4.67065868 L1.28059671,15.7659977 L101.399392,15.7659977 L101.399392,4.67065868 C101.399392,2.83420763 99.9259596,1.33698909 98.0808445,1.26504652 L97.9417812,1.26234018 Z" id="矩形" fill="#818181"></path>
                    <path d="M94.3714363,10.688683 C95.4982037,10.688683 96.4116291,9.79140431 96.4116291,8.68455494 C96.4116291,7.57770557 95.4982037,6.68042688 94.3714363,6.68042688 C93.2446689,6.68042688 92.3312435,7.57770557 92.3312435,8.68455494 C92.3312435,9.79140431 93.2446689,10.688683 94.3714363,10.688683 Z M87.5707936,10.688683 C88.697561,10.688683 89.6109864,9.79140431 89.6109864,8.68455494 C89.6109864,7.57770557 88.697561,6.68042688 87.5707936,6.68042688 C86.4440263,6.68042688 85.5306008,7.57770557 85.5306008,8.68455494 C85.5306008,9.79140431 86.4440263,10.688683 87.5707936,10.688683 Z M80.770151,10.688683 C81.8969183,10.688683 82.8103438,9.79140431 82.8103438,8.68455494 C82.8103438,7.57770557 81.8969183,6.68042688 80.770151,6.68042688 C79.6433836,6.68042688 78.7299582,7.57770557 78.7299582,8.68455494 C78.7299582,9.79140431 79.6433836,10.688683 80.770151,10.688683 Z" id="形状结合" fill="#818181"></path>
                </g>
                <g id="ic_tips_filled" transform="translate(88.413678, 41.196472)">
                    <path d="M12.7931612,0 C5.7390121,0 0,5.65719521 0,12.6107784 C0,19.5643617 5.7390121,25.2215569 12.7931612,25.2215569 C19.8473102,25.2215569 25.5863223,19.5643617 25.5863223,12.6107784 C25.5863223,5.65719521 19.8473102,0 12.7931612,0" id="Fill-1" fill="#0067D1"></path>
                    <path d="M12.7931612,5.99011976 C13.322798,5.99011976 13.7526483,6.41384192 13.7526483,6.93592814 L13.7526483,14.3434994 C13.7526483,14.8655856 13.322798,15.2893078 12.7931612,15.2893078 C12.2635243,15.2893078 11.8336741,14.8655856 11.8336741,14.3434994 L11.8336741,6.93592814 C11.8336741,6.41384192 12.2635243,5.99011976 12.7931612,5.99011976" id="Fill-1-path" fill="#FFFFFF"></path>
                    <path d="M12.7931612,19.5467066 C12.0869787,19.5467066 11.513845,18.9830048 11.513845,18.2856287 C11.513845,17.5882527 12.0869787,17.0245509 12.7931612,17.0245509 C13.4993437,17.0245509 14.0724773,17.5882527 14.0724773,18.2856287 C14.0724773,18.9830048 13.4993437,19.5467066 12.7931612,19.5467066" id="Fill-1-path" fill="#FFFFFF"></path>
                </g>
                <g id="ic_locked_lined" transform="translate(42.784736, 37.226412)" fill="#818181">
                    <path d="M8.05525539,0 C10.7582267,0 12.9496464,2.0327979 12.9496464,4.54088248 L12.9496464,4.54088248 L12.9493443,6.77162253 L13.0892992,6.77227643 C14.6973327,6.77227643 16.0128614,7.93950621 16.1047766,9.41010879 L16.1099067,9.57471368 L16.1099067,15.8801975 C16.1099067,17.4280021 14.7571854,18.6826347 13.0892992,18.6826347 L13.0892992,18.6826347 L3.0206075,18.6826347 C1.35272123,18.6826347 0,17.4280021 0,15.8801975 L0,15.8801975 L0,9.57471368 C0,8.02756879 1.35301713,6.77227643 3.0206075,6.77227643 L3.0206075,6.77227643 L3.15955544,6.77162253 L3.1598575,4.54088248 C3.1598575,2.1004178 5.23459713,0.110219166 7.83718444,0.00442351641 L8.05525539,0 Z M3.8433064,7.94093331 L2.95226796,7.94079037 C2.10748121,7.94079037 1.42146235,8.58478112 1.42146235,9.37781295 L1.42146235,9.37781295 L1.42146235,15.8444145 C1.42146235,16.6380243 2.10707612,17.2814371 2.95226796,17.2814371 L2.95226796,17.2814371 L13.1576387,17.2814371 C14.0028306,17.2814371 14.6884443,16.6380243 14.6884443,15.8444145 L14.6884443,15.8444145 L14.6884443,9.37781295 C14.6884443,8.58478112 14.0024254,7.94079037 13.1576387,7.94079037 L13.1576387,7.94079037 L12.2656893,7.94011976 L12.2506874,7.94107778 L3.85881104,7.94107778 C3.85363064,7.94107778 3.84846228,7.94102949 3.8433064,7.94093331 Z M7.81804293,10.2754491 C8.17785846,10.2754491 8.47522383,10.5392766 8.52228599,10.8815748 L8.52877411,10.9767352 L8.53042945,12.8435993 C8.81714722,13.0569812 9.00259489,13.3959004 9.00259489,13.7772977 C9.00259489,14.4224809 8.47191562,14.9461078 7.81804293,14.9461078 C7.16417025,14.9461078 6.63349097,14.4224809 6.63349097,13.7772977 C6.63349097,13.3954803 6.81934737,13.0562348 7.10660406,12.8428948 L7.10731176,10.9767352 C7.10731176,10.5894255 7.42551691,10.2754491 7.81804293,10.2754491 Z M8.05559464,1.4011976 C6.22336697,1.4011976 4.73850383,2.74566975 4.73850383,4.40477942 L4.73850383,4.40477942 L4.73820784,6.53892216 L11.3714028,6.53892216 L11.3716988,4.40477942 C11.3716988,2.80108259 9.98429322,1.49118596 8.23753362,1.4056414 L8.23753362,1.4056414 L8.05559464,1.4011976 Z" id="形状结合"></path>
                </g>
            </g>
        </g>
    </g>
</svg>