<?xml version="1.0" encoding="UTF-8"?>
<svg viewBox="0 0 30 30" version="1.1" xmlns="http://www.w3.org/2000/svg" xmlns:xlink="http://www.w3.org/1999/xlink">
    <g id="多端组件" stroke="none" stroke-width="1">
        <g id="文件上传" transform="translate(-381.000000, -1942.000000)">
            <g id="图片" transform="translate(381.000000, 1942.000000)">
                <rect id="矩形" x="0" y="0" width="30" height="30" rx="2"></rect>
                <path d="M7,10 L7,20 C7,21.1045695 7.8954305,22 9,22 L21,22 C22.1045695,22 23,21.1045695 23,20 L23,10 C23,8.8954305 22.1045695,8 21,8 L9,8 C7.8954305,8 7,8.8954305 7,10 Z M21.1646178,12.6316709 C21.3779531,12.8214321 21.5,13.093335 21.5,13.3788544 L21.5,19.9953815 C21.5,20.2715239 21.2761424,20.4953815 21,20.4953815 L10.4684018,20.4953815 C10.1922594,20.4953815 9.96840178,20.2715239 9.96840178,19.9953815 C9.96840178,19.8916278 10.0006783,19.7904436 10.0607573,19.7058543 L12.431829,16.3674663 C12.7516319,15.9171947 13.3759007,15.8114289 13.8261723,16.1312318 C13.8444618,16.1442219 13.8623091,16.1578237 13.8796837,16.1720141 L15.1287239,17.1921477 C15.3362555,17.3616458 15.6405121,17.3374136 15.8185986,17.1372034 L19.7528165,12.7142365 C20.1198748,12.3015785 20.7519598,12.2646126 21.1646178,12.6316709 Z M10.5,10 C11.3284271,10 12,10.6715729 12,11.5 C12,12.3284271 11.3284271,13 10.5,13 C9.67157288,13 9,12.3284271 9,11.5 C9,10.6715729 9.67157288,10 10.5,10 Z" id="形状" fill="#FFFFFF" fill-rule="nonzero"></path>
            </g>
        </g>
    </g>
</svg>