<?xml version="1.0" encoding="utf-8"?>
<!-- Generator: Adobe Illustrator 26.0.2, SVG Export Plug-In . SVG Version: 6.00 Build 0)  -->
<svg version="1.1" id="图层_1" xmlns="http://www.w3.org/2000/svg" xmlns:xlink="http://www.w3.org/1999/xlink" x="0px" y="0px"
	 viewBox="0 0 16 16" style="enable-background:new 0 0 16 16;" xml:space="preserve">
<style type="text/css">
	.st0{fill:none;}
	.st1{fill-rule:evenodd;clip-rule:evenodd;}
</style>
<polygon id="Fill-1" class="st0" points="0,16 16,16 16,0 0,0 "/>
<path id="路径" class="st1" d="M14,8c0,0.3-0.3,0.6-0.6,0.6H8.6v4.8C8.6,13.7,8.3,14,8,14s-0.6-0.3-0.6-0.6V8.6H2.6
	C2.3,8.6,2,8.3,2,8s0.3-0.6,0.6-0.6h4.8V2.6C7.4,2.3,7.7,2,8,2s0.6,0.3,0.6,0.6v4.8h4.8C13.7,7.4,14,7.7,14,8z"/>
</svg>
