<?xml version="1.0" encoding="utf-8"?>
<!-- Generator: Adobe Illustrator 21.0.0, SVG Export Plug-In . SVG Version: 6.00 Build 0)  -->
<svg version="1.1" id="Layer_1" xmlns="http://www.w3.org/2000/svg" xmlns:xlink="http://www.w3.org/1999/xlink" x="0px" y="0px"
	 viewBox="0 0 24 24" xml:space="preserve">
<g id="Icon">
	<g id="UI-icons-英文名" transform="translate(-1141.000000, -930.000000)">
		<g id="提示建议性图标" transform="translate(100.000000, 761.000000)">
			<g id="pre-checked" transform="translate(1040.000000, 168.000000)">
				<path id="Shape-Copy-3" class="st0" d="M4,2h18c0.9,0,2,1.1,2,2v18c0,0.9-1,2-2,2H4c-0.9,0-2-1.1-2-2V4C2,3.1,3.1,2,4,2z M4,4
					v18h18V4H4z"/>
				<path id="Shape" class="st0" d="M12.9,16.6C12.9,16.6,12.8,16.6,12.9,16.6c-0.5,0-0.9-0.5-0.8-0.9c0.1-1.2,1-2.1,1.9-3.1
					c1.5-1.5,1.5-2,1.6-2.5c0-0.6-0.2-1.2-0.6-1.6c-0.5-0.5-1.2-0.8-1.9-0.8c0,0,0,0,0,0c-1.4,0-2.5,1.1-2.5,2.5
					c0,0.5-0.4,0.8-0.8,0.8c-0.5,0-0.8-0.4-0.8-0.8C8.8,9,9.2,8,10,7.2S11.9,6,13,6c1.2,0,2.3,0.5,3.1,1.3c0.8,0.8,1.1,1.8,1.1,2.9
					c-0.1,1.1-0.4,1.9-2.1,3.6c-0.8,0.8-1.4,1.5-1.4,2C13.7,16.2,13.3,16.6,12.9,16.6z M11.8,19c0,0.4,0.2,0.7,0.5,0.9
					c0.3,0.2,0.7,0.2,1,0c0.3-0.2,0.5-0.5,0.5-0.9c0-0.6-0.5-1-1-1S11.8,18.5,11.8,19z"/>
			</g>
		</g>
	</g>
</g>
</svg>
