<?xml version="1.0" encoding="utf-8"?>
<!-- Generator: Adobe Illustrator 15.0.0, SVG Export Plug-In . SVG Version: 6.00 Build 0)  -->
<!DOCTYPE svg PUBLIC "-//W3C//DTD SVG 1.1//EN" "http://www.w3.org/Graphics/SVG/1.1/DTD/svg11.dtd">
<svg version="1.1" id="图层_1" xmlns="http://www.w3.org/2000/svg" xmlns:xlink="http://www.w3.org/1999/xlink" x="0px" y="0px"
	 viewBox="0 0 24 24" enable-background="new 0 0 24 24" xml:space="preserve">
<g id="网站通用图标" transform="translate(100.000000, 303.000000)">
</g>
<g id="打印" transform="translate(308.000000, 303.000000)">
	<path id="Combined-Shape" d="M-289-299h3c1.1,0,2,0.9,2,2v11c0,1.1-0.9,2-2,2h-1v3c0,1.1-0.9,2-2,2h-14
		c-1.1,0-2-0.9-2-2v-3h-1c-1.1,0-2-0.9-2-2v-11c0-1.1,0.9-2,2-2h3v-2c0-1.1,0.9-2,2-2h10c1.1,0,2,0.9,2,2V-299z M-287-286h1v-11h-20
		v11h1v-3c0-1.101,0.9-2.001,2-2.001h14c1.1,0,2,0.9,2,2.001V-286z M-303-289v8h14v-8H-303z M-301-301v2h10v-2H-301z"/>
</g>
</svg>
