<svg width="24" height="24" viewBox="0 0 24 24" xmlns="http://www.w3.org/2000/svg" xmlns:xlink="http://www.w3.org/1999/xlink">
	<defs/>
	<g opacity="0.000000"/>
	<path id="path3 (边框)" d="M1.25 12C1.25 6.06293 6.06293 1.25 12 1.25C17.9371 1.25 22.75 6.06293 22.75 12C22.75 17.9371 17.9371 22.75 12 22.75C6.06293 22.75 1.25 17.9371 1.25 12Z" fill-rule="evenodd"/>
	<path id="path6 (边框)" d="M11.75 7L11.75 12.25L17 12.25C17.42 12.25 17.75 12.58 17.75 13C17.75 13.42 17.42 13.75 17 13.75L11 13.75C10.75 13.75 10.5625 13.6875 10.4375 13.5625C10.3125 13.4375 10.25 13.25 10.25 13L10.25 7C10.25 6.58002 10.58 6.25 11 6.25C11.42 6.25 11.75 6.58002 11.75 7Z" fill-rule="evenodd" fill="#FFFFFF"/>
</svg>
