<svg viewBox="0 0 24 24" xmlns="http://www.w3.org/2000/svg"
	xmlns:xlink="http://www.w3.org/1999/xlink">
	<g clip-path="url(#clip131_1890)">
		<path id="矢量 166"
			d="M15.5 2L8.5 2C7.94769 2 7.5 2.44775 7.5 3L7.5 4C7.5 4.55225 7.94769 5 8.5 5L15.5 5C16.0523 5 16.5 4.55225 16.5 4L16.5 3C16.5 2.44775 16.0523 2 15.5 2ZM6 3.5C5.95886 3.65979 6 3.82739 6 4L6 4.5C6 5.60461 6.89545 6.5 8 6.5L16 6.5C17.1046 6.5 18 5.60461 18 4.5L18 4C18 3.82739 17.9781 3.65979 17.937 3.5C19.5939 3.5 21 4.84314 21 6.5L21 19C21 20.6567 19.6569 22 18 22L6 22C4.34314 22 3 20.6567 3 19L3 6.5C3 4.84314 4.34314 3.5 6 3.5ZM9.74768 14.2823C9.51642 13.5664 9.47162 12.8932 9.61328 12.2626C9.76184 11.6013 10.1154 10.9869 10.6741 10.4196C11.2628 9.82166 11.8975 9.453 12.5783 9.3136C13.2141 9.18579 13.9006 9.25525 14.6166 9.52661C14.7505 9.57739 14.7924 9.67029 14.7421 9.80542L13.4536 11.1411C13.1584 11.441 13.0126 11.739 13.0163 12.035C13.0198 12.3167 13.1584 12.5964 13.4323 12.8745C13.6884 13.1346 13.9498 13.2706 14.2168 13.2825C14.4964 13.2949 14.7819 13.1711 15.0734 12.9113L16.3746 11.5935C16.4754 11.4911 16.5765 11.4908 16.678 11.5925C16.9484 12.3289 17.0672 13.1018 16.9343 13.7545C16.7932 14.4354 16.43 15.082 15.8492 15.6719C15.2784 16.2517 14.6608 16.6147 13.9962 16.7607C13.3733 16.8977 12.7091 16.8442 12.0038 16.6001C11.9518 16.582 11.9002 16.5627 11.8491 16.5425L9.61707 18.8096C9.47113 18.9578 9.30988 19.0686 9.13336 19.1421C8.96021 19.2141 8.7724 19.25 8.56982 19.25C8.36731 19.25 8.17944 19.2141 8.00629 19.1421C7.82977 19.0686 7.66858 18.9578 7.52258 18.8096C7.17419 18.4556 7 18.1018 7 17.7478C7 17.394 7.17419 17.04 7.52258 16.6863L9.78406 14.3893C9.77142 14.3538 9.75928 14.3181 9.74768 14.2823Z"
			fill-opacity="1.000000" fill-rule="evenodd" />
	</g>
</svg>