<?xml version="1.0" encoding="UTF-8"?>
<svg viewBox="0 0 16 16" version="1.1" xmlns="http://www.w3.org/2000/svg" xmlns:xlink="http://www.w3.org/1999/xlink">
    <g id="icon/alert/prompt/16" stroke="none" stroke-width="1" fill="none" fill-rule="evenodd">
        <path d="M8,1 C4.134375,1 1,4.134375 1,8 C1,11.865625 4.134375,15 8,15 C11.865625,15 15,11.865625 15,8 C15,4.134375 11.865625,1 8,1 Z M8,5.71428571 C7.52678571,5.71428571 7.14285714,5.33035714 7.14285714,4.85714286 C7.14285714,4.38392857 7.52678571,4 8,4 C8.47321429,4 8.85714286,4.38392857 8.85714286,4.85714286 C8.85714286,5.33035714 8.47321429,5.71428571 8,5.71428571 Z M8,6.85714286 C8.31559129,6.85714286 8.57142857,7.11298014 8.57142857,7.42857143 L8.57142857,11.4285714 C8.57142857,11.7441627 8.31559129,12 8,12 C7.68440871,12 7.42857143,11.7441627 7.42857143,11.4285714 L7.42857143,7.42857143 C7.42857143,7.11298014 7.68440871,6.85714286 8,6.85714286 Z" id="形状" fill="#1476FF"></path>
    </g>
</svg>