<?xml version="1.0" encoding="utf-8"?>
<!-- Generator: Adobe Illustrator 21.0.0, SVG Export Plug-In . SVG Version: 6.00 Build 0)  -->
<svg version="1.1" id="图层_1" xmlns="http://www.w3.org/2000/svg" xmlns:xlink="http://www.w3.org/1999/xlink" x="0px" y="0px"
	 viewBox="0 0 14 14" style="enable-background:new 0 0 14 14;" xml:space="preserve">
<style type="text/css">
	.st0{fill-rule:evenodd;clip-rule:evenodd;fill:#1476FF;}
	.st1{fill-rule:evenodd;clip-rule:evenodd;fill:#FFFFFF;}
</style>
<path class="st0" d="M7,0C3.13,0,0,3.13,0,7c0,3.87,3.13,7,7,7c3.87,0,7-3.13,7-7C14,3.13,10.87,0,7,0z"/>
<path class="st1" d="M7.57,6.43v4C7.57,10.74,7.32,11,7,11s-0.57-0.26-0.57-0.57v-4c0-0.32,0.26-0.57,0.57-0.57S7.57,6.11,7.57,6.43
	z M7,3C6.53,3,6.14,3.38,6.14,3.86S6.53,4.71,7,4.71s0.86-0.38,0.86-0.86S7.47,3,7,3z"/>
</svg>
