<?xml version="1.0" encoding="UTF-8"?>
<svg viewBox="0 0 16 16" version="1.1" xmlns="http://www.w3.org/2000/svg" xmlns:xlink="http://www.w3.org/1999/xlink">
    <g id="Radiobutton单选框/中尺寸/无文本/未选中/默认" stroke="none" stroke-width="1">
        <g id="radiobutton/off">
            <path d="M8,1 C11.8659932,1 15,4.13400675 15,8 C15,11.8659932 11.8659932,15 8,15 C4.13400675,15 1,11.8659932 1,8 C1,4.13400675 4.13400675,1 8,1 Z M8,2 C4.6862915,2 2,4.6862915 2,8 C2,11.3137085 4.6862915,14 8,14 C11.3137085,14 14,11.3137085 14,8 C14,4.6862915 11.3137085,2 8,2 Z" id="椭圆形"></path>
            <path d="M3.75735931,12.2426407 C6.10050506,14.5857864 9.89949494,14.5857864 12.2426407,12.2426407 C14.5857864,9.89949494 14.5857864,6.10050506 12.2426407,3.75735931 C9.89949494,1.41421356 6.10050506,1.41421356 3.75735931,3.75735931 C1.41421356,6.10050506 1.41421356,9.89949494 3.75735931,12.2426407 Z" id="Path" fill="#FFFFFF"></path>
        </g>
    </g>
</svg>