<?xml version="1.0" encoding="utf-8"?>
<svg viewBox="0 0 1024 1024" version="1.1" xmlns="http://www.w3.org/2000/svg">
  <path d="M616.448 692.906667a933.418667 933.418667 0 0 1-74.538667 92.8c71.338667 69.248 137.728 101.674667 174.506667 80.384 36.864-21.248 41.941333-94.933333 17.664-191.317334-36.394667 8.106667-75.946667 14.250667-117.632 18.133334z m-55.893333 3.712a1173.845333 1173.845333 0 0 1-97.109334 0c16.085333 20.992 32.341333 40.448 48.554667 58.197333 16.213333-17.749333 32.426667-37.205333 48.554667-58.197333z m215.04-336.810667c113.706667 32.597333 187.946667 86.784 187.946666 152.192 0 65.408-74.24 119.594667-187.946666 152.192 28.586667 114.773333 18.816 206.165333-37.802667 238.848-56.661333 32.725333-140.714667-4.48-225.792-86.613333-85.077333 82.133333-169.130667 119.338667-225.792 86.613333-56.618667-32.682667-66.432-124.074667-37.802667-238.848-113.706667-32.597333-187.946667-86.784-187.946666-152.192 0-65.408 74.24-119.594667 187.946666-152.192-28.586667-114.773333-18.816-206.165333 37.802667-238.848 56.661333-32.725333 140.714667 4.48 225.792 86.613333 85.077333-82.133333 169.130667-119.338667 225.792-86.613333 56.618667 32.682667 66.432 124.074667 37.802667 238.848z m-41.514667-10.581333c24.32-96.426667 19.2-170.069333-17.621333-191.317334-36.821333-21.290667-103.210667 11.136-174.506667 80.384a940.757333 940.757333 0 0 1 74.496 92.8c41.728 3.84 81.237333 9.984 117.632 18.133334z m-444.16 325.546666c-24.32 96.426667-19.2 170.069333 17.621333 191.317334 36.821333 21.290667 103.210667-11.136 174.506667-80.384a933.418667 933.418667 0 0 1-74.496-92.8 933.418667 933.418667 0 0 1-117.632-18.133334z m173.525333-347.392a1173.845333 1173.845333 0 0 1 97.109334 0A875.648 875.648 0 0 0 512 269.226667c-16.213333 17.749333-32.426667 37.205333-48.554667 58.197333z m-55.893333 3.712A933.418667 933.418667 0 0 1 482.133333 238.293333C410.752 169.045333 344.32 136.618667 307.584 157.909333c-36.864 21.248-41.941333 94.933333-17.664 191.317334 36.394667-8.106667 75.946667-14.250667 117.632-18.133334z m185.258667 320.853334A1082.368 1082.368 0 0 0 673.578667 512a1082.368 1082.368 0 0 0-80.768-139.946667 1082.368 1082.368 0 0 0-161.621334 0A1082.368 1082.368 0 0 0 350.421333 512a1082.368 1082.368 0 0 0 80.768 139.946667 1082.368 1082.368 0 0 0 161.621334 0z m54.784-5.589334c26.24-3.413333 51.2-7.808 74.666666-12.970666a875.648 875.648 0 0 0-26.112-71.125334 1173.845333 1173.845333 0 0 1-48.554666 84.053334zM376.405333 377.6c-26.24 3.413333-51.2 7.808-74.666666 12.970667 7.253333 22.869333 15.957333 46.677333 26.112 71.125333a1173.845333 1173.845333 0 0 1 48.554666-84.053333z m-74.666666 255.744c23.466667 5.162667 48.426667 9.514667 74.666666 12.970667a1173.845333 1173.845333 0 0 1-48.554666-84.053334 871.253333 871.253333 0 0 0-26.112 71.082667z m-41.728-10.453333c11.136-35.584 25.6-72.874667 43.093333-110.933334a938.752 938.752 0 0 1-43.093333-110.933333c-95.658667 27.178667-156.885333 68.437333-156.885334 110.933333s61.226667 83.754667 156.885334 110.933334z m462.250666-232.32a887.808 887.808 0 0 0-74.666666-12.970667 1173.802667 1173.802667 0 0 1 48.554666 84.053333c10.154667-24.405333 18.858667-48.213333 26.112-71.082666z m41.728 10.453333c-11.136 35.584-25.6 72.874667-43.093333 110.933333 17.493333 38.058667 31.957333 75.349333 43.093333 110.933334 95.658667-27.178667 156.885333-68.437333 156.885334-110.933334s-61.226667-83.754667-156.885334-110.933333zM512 592.213333a80.213333 80.213333 0 1 1 0-160.426666 80.213333 80.213333 0 0 1 0 160.426666z"></path>
</svg>