<?xml version="1.0" encoding="utf-8"?>
<!-- Generator: Adobe Illustrator 21.0.0, SVG Export Plug-In . SVG Version: 6.00 Build 0)  -->
<svg version="1.1" id="Layer_1" xmlns="http://www.w3.org/2000/svg" xmlns:xlink="http://www.w3.org/1999/xlink" x="0px" y="0px"
	 viewBox="0 0 24 24" xml:space="preserve">
<g id="Icon">
	<g id="UI-icons-英文名" transform="translate(-1245.000000, -1473.000000)">
		<g id="网站通用图标" transform="translate(100.000000, 1136.000000)">
			<g id="refres" transform="translate(1145.000000, 336.000000)">
				<path id="Shape" class="st0" d="M12.2,23.9c0.5-0.1,0.8-0.5,0.7-1c-0.1-0.5-0.5-0.8-1-0.7c-0.4,0.1-0.9,0.1-1.4,0.1
					c-2.4,0-4.6-1-6.2-2.7S1.7,15.5,1.7,13c0-2.5,0.9-4.8,2.6-6.5s3.9-2.7,6.2-2.7s4.6,1,6.2,2.7s2.6,4.1,2.6,6.5c0,0.1,0,0.2,0,0.3
					l-1.9-2c-0.3-0.3-0.9-0.3-1.2,0c-0.3,0.3-0.3,0.9,0,1.2l3.2,3.3c0.3,0.3,0.9,0.3,1.2,0l3.2-3.3c0.3-0.3,0.3-0.9,0-1.2
					c-0.3-0.3-0.9-0.3-1.2,0L21,12.9c0-1.5-0.3-2.9-0.8-4.2c-0.5-1.3-1.3-2.5-2.2-3.5s-2.1-1.8-3.3-2.4C13.3,2.3,11.9,2,10.5,2
					S7.7,2.3,6.4,2.9C5.2,3.4,4,4.2,3.1,5.2c-1,1-1.7,2.2-2.2,3.5C0.3,10.1,0,11.5,0,13s0.3,2.9,0.8,4.3c0.5,1.3,1.3,2.5,2.2,3.5
					c1,1,2.1,1.8,3.3,2.4c1.3,0.6,2.7,0.9,4.1,0.9C11.1,24,11.6,24,12.2,23.9z"/>
			</g>
		</g>
	</g>
</g>
</svg>
