<?xml version="1.0" encoding="utf-8"?>
<!-- Generator: Adobe Illustrator 26.0.2, SVG Export Plug-In . SVG Version: 6.00 Build 0)  -->
<svg version="1.1" id="图层_1" xmlns="http://www.w3.org/2000/svg" xmlns:xlink="http://www.w3.org/1999/xlink" x="0px" y="0px"
	 viewBox="0 0 16 16" style="enable-background:new 0 0 16 16;" xml:space="preserve">
<style type="text/css">
	.st0{fill:none;}
</style>
<rect id="size" class="st0"/>
<path id="形状结合" class="st1" d="M11.81,2.75c2.75,1.99,3.47,5.71,1.75,8.55l1.7-0.45c0.23-0.06,0.46,0.05,0.56,0.25
	l0.02,0.08c0.07,0.25-0.08,0.52-0.34,0.58l-2.9,0.78c-0.25,0.07-0.52-0.08-0.58-0.34l-0.78-2.9c-0.07-0.25,0.08-0.52,0.34-0.59
	c0.25-0.07,0.52,0.08,0.59,0.34l0.5,1.84c1.56-2.42,0.97-5.67-1.41-7.38C8.79,1.73,5.35,2.28,3.55,4.73s-1.24,5.88,1.22,7.66
	c1.66,1.2,3.53,1.45,5.64,0.78c0.25-0.08,0.52,0.06,0.61,0.3c0.08,0.25-0.06,0.52-0.3,0.61c-2.4,0.78-4.58,0.47-6.48-0.91
	c-2.92-2.08-3.58-6.11-1.47-8.99C4.86,1.3,8.91,0.67,11.81,2.75z"/>
</svg>
