<?xml version="1.0" encoding="utf-8"?>
<!-- Generator: Adobe Illustrator 21.0.0, SVG Export Plug-In . SVG Version: 6.00 Build 0)  -->
<svg version="1.1" id="Layer_1" xmlns="http://www.w3.org/2000/svg" xmlns:xlink="http://www.w3.org/1999/xlink" x="0px" y="0px"
	 viewBox="0 0 24 24" xml:space="preserve">
<g id="Icon">
	<g id="UI-icons-英文名" transform="translate(-1141.000000, -1390.000000)">
		<g id="网站通用图标" transform="translate(101.000000, 1053.000000)">
			<g id="repeat" transform="translate(1040.000000, 336.000000)">
				<path id="Shape" class="st0" d="M11.8,23.9c-0.5-0.1-0.8-0.5-0.7-1c0.1-0.5,0.5-0.8,1-0.7c0.4,0.1,0.9,0.1,1.4,0.1
					c2.4,0,4.6-1,6.2-2.7s2.6-4.1,2.6-6.5c0-2.5-0.9-4.8-2.6-6.5s-3.9-2.7-6.2-2.7s-4.6,1-6.2,2.7S4.7,10.5,4.7,13
					c0,0.1,0,0.2,0,0.3l1.9-2c0.3-0.3,0.9-0.3,1.2,0c0.3,0.3,0.3,0.9,0,1.2l-3.2,3.3c-0.3,0.3-0.9,0.3-1.2,0l-3.2-3.3
					c-0.3-0.3-0.3-0.9,0-1.2c0.3-0.3,0.9-0.3,1.2,0L3,12.9c0-1.5,0.3-2.9,0.8-4.2c0.5-1.3,1.3-2.5,2.2-3.5s2.1-1.8,3.3-2.4
					C10.7,2.3,12.1,2,13.5,2s2.8,0.3,4.1,0.9c1.3,0.6,2.4,1.3,3.3,2.4c1,1,1.7,2.2,2.2,3.5c0.5,1.4,0.8,2.8,0.8,4.3
					s-0.3,2.9-0.8,4.3c-0.5,1.3-1.3,2.5-2.2,3.5c-1,1-2.1,1.8-3.3,2.4c-1.3,0.6-2.7,0.9-4.1,0.9C12.9,24,12.4,24,11.8,23.9z"/>
			</g>
		</g>
	</g>
</g>
</svg>
