<svg viewBox="0 0 24 24" xmlns="http://www.w3.org/2000/svg"
	xmlns:xlink="http://www.w3.org/1999/xlink">
	<defs />
	<g opacity="0.000000" />
	<path id="path4 (边框)"
		d="M1.25 12C1.25 6.06293 6.06293 1.25 12 1.25C17.9371 1.25 22.75 6.06293 22.75 12C22.75 17.9371 17.9371 22.75 12 22.75C6.06293 22.75 1.25 17.9371 1.25 12Z"
		fill-rule="evenodd" />
	<path id="矢量 248"
		d="M6.05609 12.3314C5.58966 12.1299 5.37436 11.5874 5.5752 11.1196C5.67838 10.8793 5.87842 10.6943 6.12558 10.6106L16.6909 7.03247C17.0116 6.92383 17.3595 7.09656 17.4678 7.41827C17.4998 7.51349 17.5081 7.61511 17.4919 7.71429L16.2251 15.4758C16.1431 15.9785 15.6703 16.3192 15.1692 16.2369C15.0952 16.2248 15.0229 16.2036 14.954 16.1739L12.9901 15.3257L11.9841 16.6395C11.8101 16.8668 11.541 17 11.2552 17C10.7473 17 10.3358 16.5871 10.3358 16.0778L10.3358 14.1795L14.2291 9.45789L8.67032 13.4603L6.05609 12.3314Z"
		fill-rule="evenodd" fill="#FFFFFF" />
</svg>