<?xml version="1.0" encoding="utf-8"?>
<!-- Generator: Adobe Illustrator 21.0.0, SVG Export Plug-In . SVG Version: 6.00 Build 0)  -->
<svg version="1.1" id="Layer_1" xmlns="http://www.w3.org/2000/svg" xmlns:xlink="http://www.w3.org/1999/xlink" x="0px" y="0px"
	 viewBox="0 0 24 24" xml:space="preserve">
<g id="Icon">
	<g id="UI-icons-英文名" transform="translate(-938.000000, -1647.000000)">
		<g id="网站通用图标" transform="translate(100.000000, 1053.000000)">
			<g id="save" transform="translate(837.000000, 593.000000)">
				<path id="Shape" class="st0" d="M17.3,2L4,2C3.1,2,2,3.1,2,4l0,18c0,0.9,1.1,2,2,2h18c0.9,0,2-1.1,2-2V8.8L17.3,2z M8,4h6v6.3
					c0,0.4-0.3,0.7-0.7,0.7H8.7C8.3,11,8,10.7,8,10.3V4z M4,22V4h2v7c0,1.3,0.6,2,2,2l6,0c1.3,0,2-0.7,2-2l0-7l6,6v12H4z M11,10
					c0.6,0,1-0.4,1-0.9V5.9C12,5.4,11.6,5,11,5s-1,0.4-1,0.9v3.1C10,9.6,10.4,10,11,10z"/>
			</g>
		</g>
	</g>
</g>
</svg>
