<?xml version="1.0" encoding="utf-8"?>
<!-- Generator: Adobe Illustrator 21.0.0, SVG Export Plug-In . SVG Version: 6.00 Build 0)  -->
<svg version="1.1" id="Layer_1" xmlns="http://www.w3.org/2000/svg" xmlns:xlink="http://www.w3.org/1999/xlink" x="0px" y="0px"
	 viewBox="0 0 24 24" xml:space="preserve">
<g id="UI-icons-英文名" transform="translate(-100.000000, -1986.000000)">
	<g id="网站通用图标" transform="translate(100.000000, 1053.000000)">
		<g id="scissor" transform="translate(0.000000, 932.000000)">
			<path class="st0" d="M13.6,13l9.3-9.4c0.1-0.1,0-0.4-0.2-0.4h-2.7c-0.1,0-0.1,0-0.2,0.1l-8,8L9.3,8.7C9.7,8,9.9,7.3,9.9,6.5
				C9.9,4,7.9,2,5.4,2S1,4,1,6.5s2,4.5,4.5,4.5c0.8,0,1.6-0.2,2.2-0.6l2.6,2.7l-2.6,2.7C7,15.3,6.2,15,5.4,15C3,15,1,17,1,19.5
				S3,24,5.4,24s4.5-2,4.5-4.5c0-0.8-0.2-1.5-0.6-2.2l2.6-2.7l8,8c0,0,0.1,0.1,0.2,0.1h2.7c0.2,0,0.3-0.3,0.2-0.4L13.6,13z M5.4,8.8
				c-1.3,0-2.3-1.1-2.3-2.3s1.1-2.3,2.3-2.3s2.3,1.1,2.3,2.3S6.7,8.8,5.4,8.8z M5.4,21.8c-1.3,0-2.3-1.1-2.3-2.3
				c0-1.3,1.1-2.3,2.3-2.3s2.3,1.1,2.3,2.3C7.8,20.8,6.7,21.8,5.4,21.8z"/>
		</g>
	</g>
</g>
</svg>
