<?xml version="1.0" encoding="utf-8"?>
<!-- Generator: Adobe Illustrator 21.0.0, SVG Export Plug-In . SVG Version: 6.00 Build 0)  -->
<svg version="1.1" id="Layer_1" xmlns="http://www.w3.org/2000/svg" xmlns:xlink="http://www.w3.org/1999/xlink" x="0px" y="0px"
	 viewBox="0 0 24 24" xml:space="preserve">
<g id="Icon">
	<g id="UI-icons-英文名" transform="translate(-311.000000, -1729.000000)">
		<g id="网站通用图标" transform="translate(101.000000, 1053.000000)">
			<g id="search" transform="translate(208.000000, 674.000000)">
				<path id="Shape" class="st0" d="M24.8,23.6l-4.8-4.8c1.3-1.6,2.1-3.6,2.1-5.7c0-5-4-9-9-9s-9,4-9,9s4,9,9,9
					c2.2,0,4.2-0.8,5.7-2.1l4.8,4.8c0.2,0.2,0.4,0.2,0.6,0.2s0.4-0.1,0.6-0.2C25.1,24.4,25.1,23.9,24.8,23.6z M15.7,19.5
					C14.9,19.8,13.9,20,13,20s-1.9-0.2-2.7-0.5c-0.8-0.4-1.6-0.9-2.2-1.5c-0.6-0.6-1.1-1.4-1.5-2.2C6.2,14.9,6,13.9,6,13
					s0.2-1.9,0.5-2.7c0.4-0.8,0.9-1.6,1.5-2.2s1.4-1.1,2.2-1.5C11.1,6.2,12.1,6,13,6s1.9,0.2,2.7,0.5c0.8,0.4,1.6,0.9,2.2,1.5
					c0.6,0.6,1.1,1.4,1.5,2.2c0.4,0.9,0.5,1.8,0.5,2.7s-0.2,1.9-0.5,2.7c-0.4,0.8-0.9,1.6-1.5,2.2C17.3,18.6,16.6,19.1,15.7,19.5z"
					/>
			</g>
		</g>
	</g>
</g>
</svg>
