<?xml version="1.0" encoding="UTF-8"?>
<svg viewBox="0 0 24 24" version="1.1" xmlns="http://www.w3.org/2000/svg" xmlns:xlink="http://www.w3.org/1999/xlink">
    <g id="ic_view_tasks_lined" >
        <g id="编组">
            <path d="M13.2683889,13.280251 C15.0253235,11.5221163 17.8754765,11.5221163 19.6324111,13.280251 C21.2060065,14.8538463 21.3700113,17.3037223 20.1242954,19.0609675 L21.7627301,20.7009699 C22.0556233,20.9938631 22.0556233,21.4687369 21.7627301,21.7616301 C21.4964635,22.0278966 21.0797998,22.0521027 20.7861883,21.8342482 L20.7020699,21.7616301 L19.064651,20.1251988 C17.3070363,21.3824558 14.8468061,21.2219663 13.2685699,19.6437301 C11.5106465,17.8858067 11.5106465,15.0367933 13.2683889,13.280251 Z M10.9646,12.7392 C11.3788136,12.7392 11.7146,13.0749864 11.7146,13.4892 C11.7146,13.8688958 11.4324461,14.182691 11.0663706,14.2323534 L10.9646,14.2392 L5.6236,14.2392 C4.46069955,14.2392 3.5176,15.1825276 3.5176,16.3462 C3.5176,17.4584305 4.380578,18.3697664 5.47323689,18.4469104 L5.6236,18.4522 L10.9646,18.4522 C11.3788136,18.4522 11.7146,18.7879864 11.7146,19.2022 C11.7146,19.5818958 11.4324461,19.895691 11.0663706,19.9453534 L10.9646,19.9522 L5.6236,19.9522 C3.63238644,19.9522 2.0176,18.3374136 2.0176,16.3462 C2.0176,14.4184403 3.52970416,12.8437847 5.4321009,12.7442 L5.6236,12.7392 L10.9646,12.7392 Z M18.4274561,14.2055501 C17.2495012,13.1705592 15.4536194,13.2155728 14.329049,14.3409111 C13.1571535,15.5120067 13.1571535,17.4109933 14.3292301,18.5830699 C15.5003369,19.7541767 17.4004631,19.7541767 18.5713889,18.583251 C19.7427069,17.4111329 19.7427069,15.511867 18.5715699,14.3407301 L18.5715699,14.3407301 Z M18.3416,4.03805 C20.3336,4.03805 21.9466,5.65105 21.9466,7.64305 C21.9466,9.63605 20.3336,11.25005 18.3416,11.25005 L2.8036,11.25005 C1.8036,11.25005 1.8036,9.75005 2.8036,9.75005 C3.9666,9.75005 4.9086,8.80805 4.9086,7.64305 C4.9086,6.48005 3.9666,5.53805 2.8036,5.53805 C1.8036,5.53805 1.8036,4.03805 2.8036,4.03805 L18.3416,4.03805 Z M5.7306,5.53705 L5.7556,5.57205 C6.1676,6.15805 6.4086,6.87305 6.4086,7.64305 L6.4036,7.83605 C6.3716,8.45605 6.1826,9.03405 5.8756,9.53205 L5.7316,9.74905 L18.3416,9.75005 C19.5046,9.75005 20.4466,8.80805 20.4466,7.64305 L20.4426,7.49305 C20.3646,6.40005 19.4546,5.53805 18.3416,5.53805 L5.7306,5.53705 Z"></path>
        </g>
    </g>
</svg>