<?xml version="1.0" encoding="utf-8"?>
<!-- Generator: Adobe Illustrator 26.0.2, SVG Export Plug-In . SVG Version: 6.00 Build 0)  -->
<svg version="1.1" id="图层_1" xmlns="http://www.w3.org/2000/svg" xmlns:xlink="http://www.w3.org/1999/xlink" x="0px" y="0px"
	 viewBox="0 0 16 16" style="enable-background:new 0 0 16 16;" xml:space="preserve">
<style type="text/css">
	.st0{fill:none;}
</style>
<rect id="size" class="st0"/>
<path id="形状结合" class="st1" d="M7.22,1.67c3.04,0,5.5,2.46,5.5,5.5c0,1.33-0.47,2.55-1.25,3.49l2.73,2.69
	c0.19,0.19,0.19,0.51,0,0.7s-0.51,0.19-0.7,0l-2.73-2.68c-0.96,0.81-2.19,1.3-3.54,1.3c-3.04,0-5.5-2.46-5.5-5.5
	S4.19,1.67,7.22,1.67z M7.22,2.68c-2.48,0-4.5,2.01-4.5,4.5s2.01,4.5,4.5,4.5s4.5-2.01,4.5-4.5S9.71,2.68,7.22,2.68z"/>
</svg>
