<?xml version="1.0" encoding="utf-8"?>
<!-- Generator: Adobe Illustrator 21.0.0, SVG Export Plug-In . SVG Version: 6.00 Build 0)  -->
<svg version="1.1" id="Layer_1" xmlns="http://www.w3.org/2000/svg" xmlns:xlink="http://www.w3.org/1999/xlink" x="0px" y="0px"
	 viewBox="0 0 24 24" xml:space="preserve">
<g id="Icon">
	<g id="UI-icons-英文名" transform="translate(-1038.000000, -1054.000000)">
		<g id="网站通用图标" transform="translate(99.000000, 1053.000000)">
			<g id="select" transform="translate(938.000000, 0.000000)">
				<path id="Shape" class="st0" d="M22,2H4C3.1,2,2,3.1,2,4v18c0,0.9,1.1,2,2,2h12c0.5,0,1-0.5,1-1s-0.5-1-1-1L4,22V4h18v12
					c0,0.5,0.5,1,1,1s1-0.5,1-1V4C24,3.1,22.9,2,22,2z"/>
				<path id="Shape_1_" class="st0" d="M18,13h-3.5l7.2,7.3c0.4,0.4,0.4,1,0,1.4c-0.4,0.4-1,0.4-1.4,0L13,14.3V18c0,0.6-0.4,1-1,1
					s-1-0.4-1-1v-6c0-0.6,0.4-1,1-1h6c0.5,0,1,0.4,1,1S18.6,13,18,13z"/>
			</g>
		</g>
	</g>
</g>
</svg>
