<?xml version="1.0" encoding="utf-8"?>
<!-- Generator: Adobe Illustrator 21.0.0, SVG Export Plug-In . SVG Version: 6.00 Build 0)  -->
<svg version="1.1" id="Layer_1" xmlns="http://www.w3.org/2000/svg" xmlns:xlink="http://www.w3.org/1999/xlink" x="0px" y="0px"
	 viewBox="0 0 24 24" xml:space="preserve">
<g id="Icon">
	<g id="UI-icons-英文名" transform="translate(-726.000000, -1558.000000)">
		<g id="网站通用图标" transform="translate(101.000000, 1053.000000)">
			<g id="setting" transform="translate(624.000000, 504.000000)">
				<path id="Shape" class="st0" d="M23.9,11.3l-0.1-0.6L22,10.1c-0.2-0.5-0.3-0.9-0.6-1.4L22.3,7l-0.3-0.5
					c-0.7-0.9-1.5-1.8-2.5-2.5L19,3.7l-1.7,0.8c-0.4-0.2-0.9-0.4-1.4-0.6l-0.6-1.8l-0.6-0.1C14.1,2,13.6,2,13,2
					c-0.5,0-1.1,0-1.7,0.2l-0.6,0.1L10.1,4c-0.5,0.2-1,0.4-1.4,0.6L7,3.8L6.6,4.1C5.6,4.8,4.8,5.6,4.1,6.6L3.7,7l0.8,1.7
					C4.4,9.1,4.2,9.6,4,10.1l-1.8,0.6l-0.1,0.6C2,11.9,2,12.5,2,13c0,0.5,0,1.1,0.1,1.7l0.1,0.6L4,15.9c0.2,0.5,0.3,0.9,0.6,1.4
					L3.8,19l0.3,0.5c0.4,0.5,0.7,0.9,1.1,1.3c0.4,0.4,0.8,0.7,1.3,1.1L7,22.2l1.7-0.8c0.4,0.2,0.9,0.4,1.4,0.6l0.6,1.8l0.6,0.1
					C11.9,24,12.5,24,13,24s1.1,0,1.7-0.1l0.6-0.1l0.6-1.8c0.5-0.2,0.9-0.3,1.4-0.6l1.7,0.8l0.5-0.3c0.5-0.4,1-0.7,1.3-1.1
					c0.4-0.4,0.8-0.8,1.1-1.3l0.3-0.5l-0.8-1.7c0.2-0.4,0.4-0.9,0.6-1.4l1.8-0.6l0.1-0.6C24,14.1,24,13.5,24,13
					C24,12.5,24,11.9,23.9,11.3z M22,13L22,13c0,0.3,0,0.6-0.1,1l-0.8,0.3l-0.7,0.2l-0.2,0.7c-0.1,0.4-0.3,0.8-0.5,1.2l-0.4,0.7
					l0.7,1.5c-0.2,0.3-0.4,0.5-0.7,0.7l0,0c-0.2,0.2-0.5,0.4-0.7,0.6l-1.5-0.7l-0.7,0.4c-0.4,0.2-0.8,0.4-1.3,0.5l-0.7,0.2l-0.2,0.7
					L14,21.9c-0.3,0-0.7,0.1-1,0.1c-0.3,0-0.6,0-1-0.1l-0.3-0.8l-0.2-0.7l-0.7-0.2c-0.4-0.1-0.9-0.3-1.2-0.5l-0.7-0.4l-0.7,0.3
					L7.4,20c-0.3-0.2-0.5-0.4-0.7-0.7c-0.2-0.2-0.4-0.5-0.7-0.7l0.7-1.5l-0.4-0.7c-0.2-0.4-0.4-0.8-0.5-1.2l-0.2-0.7L4.1,14
					C4,13.6,4,13.3,4,13s0-0.6,0.1-1l1.6-0.5l0.2-0.7C6,10.3,6.1,9.9,6.4,9.5l0.4-0.7L6.4,8.2L6,7.4c0.4-0.5,0.9-1,1.4-1.4l1.5,0.7
					l0.7-0.4c0.4-0.2,0.8-0.4,1.2-0.5l0.7-0.2l0.2-0.7L12,4.1C12.4,4,12.7,4,13,4c0.3,0,0.6,0,1,0.1l0.5,1.6l0.7,0.2
					c0.4,0.1,0.8,0.3,1.2,0.5l0.7,0.4L18.6,6c0.5,0.4,1,0.9,1.4,1.4l-0.7,1.5l0.4,0.7c0.2,0.4,0.4,0.8,0.5,1.3l0.2,0.7l0.7,0.2
					l0.8,0.3C22,12.4,22,12.7,22,13z M13,9c-2.2,0-4,1.8-4,4s1.8,4,4,4s4-1.8,4-4S15.2,9,13,9z M14.4,14.4C14,14.8,13.5,15,13,15
					s-1-0.2-1.4-0.6C11.2,14,11,13.5,11,13s0.2-1,0.6-1.4C12,11.2,12.5,11,13,11s1,0.2,1.4,0.6C14.8,12,15,12.5,15,13
					S14.8,14,14.4,14.4z"/>
			</g>
		</g>
	</g>
</g>
</svg>
