<?xml version="1.0" encoding="UTF-8"?>
<svg viewBox="0 0 22 22" version="1.1" xmlns="http://www.w3.org/2000/svg" xmlns:xlink="http://www.w3.org/1999/xlink">
    <!-- Generator: Sketch 49.3 (51167) - http://www.bohemiancoding.com/sketch -->
    <defs></defs>
    <g id="Icon" stroke="none" stroke-width="1">
        <g id="UI-icons-英文名" transform="translate(-518.000000, -1560.000000)" fill="#000000" fill-rule="nonzero">
            <g id="网站通用图标" transform="translate(101.000000, 1053.000000)">
                <g id="share" transform="translate(417.453125, 507.500000)">
                    <path d="M17.578125,14.0414063 C16.36875,14.0414063 15.3,14.6648438 14.6789063,15.6070313 L9.140625,11.6789063 C9.23203125,11.315625 9.28125,10.9382813 9.28125,10.546875 C9.28125,9.9234375 9.15703125,9.328125 8.93203125,8.784375 L14.9625,5.746875 C15.6,6.478125 16.5351563,6.93984375 17.578125,6.93984375 C19.490625,6.93984375 21.046875,5.38359375 21.046875,3.47109375 C21.046875,1.55859375 19.490625,0.00234375 17.578125,0.00234375 C15.665625,0.00234375 14.109375,1.55859375 14.109375,3.47109375 C14.109375,3.7359375 14.1398438,3.99375 14.1960938,4.2421875 L8.0109375,7.359375 C7.16484375,6.4640625 5.9671875,5.90625 4.640625,5.90625 C2.08125,5.90625 0,7.9875 0,10.546875 C0,13.10625 2.08125,15.1875 4.640625,15.1875 C6.196875,15.1875 7.57734375,14.4164063 8.42109375,13.2375 L14.11875,17.278125 C14.1140625,17.3554688 14.1117188,17.4328125 14.1117188,17.5125 C14.1117188,19.425 15.6679688,20.98125 17.5804688,20.98125 C19.4929688,20.98125 21.0492188,19.425 21.0492188,17.5125 C21.0492188,15.6 19.490625,14.0414063 17.578125,14.0414063 Z M17.578125,1.68984375 C18.5601562,1.68984375 19.359375,2.4890625 19.359375,3.47109375 C19.359375,4.453125 18.5601562,5.25234375 17.578125,5.25234375 C16.5960938,5.25234375 15.796875,4.453125 15.796875,3.47109375 C15.796875,2.4890625 16.5960938,1.68984375 17.578125,1.68984375 Z M4.640625,13.5 C3.01171875,13.5 1.6875,12.1757812 1.6875,10.546875 C1.6875,8.91796875 3.01171875,7.59375 4.640625,7.59375 C6.26953125,7.59375 7.59375,8.91796875 7.59375,10.546875 C7.59375,12.1757812 6.26953125,13.5 4.640625,13.5 Z M17.578125,19.2914063 C16.5960938,19.2914063 15.796875,18.4921875 15.796875,17.5101563 C15.796875,16.528125 16.5960938,15.7289063 17.578125,15.7289063 C18.5601562,15.7289063 19.359375,16.528125 19.359375,17.5101563 C19.359375,18.4921875 18.5601562,19.2914063 17.578125,19.2914063 Z" id="Shape"></path>
                </g>
            </g>
        </g>
    </g>
</svg>