<?xml version="1.0" encoding="UTF-8"?>
<svg viewBox="0 0 24 24" version="1.1" xmlns="http://www.w3.org/2000/svg" xmlns:xlink="http://www.w3.org/1999/xlink">
     
    <g id="1920" stroke="none" stroke-width="1">
        <g id="编组">
            <path d="M13.2,3.9990003 C13.614,3.9990003 13.95,4.3350003 13.95,4.7490003 C13.95,5.1640003 13.614,5.4990003 13.2,5.4990003 L5,5.4990003 C4.173,5.4990003 3.5,6.1720003 3.5,6.9990003 L3.5,17.0000003 C3.5,17.8260003 4.173,18.4990003 5,18.4990003 L19,18.4990003 C19.827,18.4990003 20.5,17.8260003 20.5,17.0000003 L20.5,13.5 C20.5,13.086 20.836,12.75 21.25,12.75 C21.664,12.75 22,13.086 22,13.5 L22,17.0000003 C22,18.6530003 20.654,19.9990003 19,19.9990003 L5,19.9990003 C3.346,19.9990003 2,18.6530003 2,17.0000003 L2,6.9990003 C2,5.3450003 3.346,3.9990003 5,3.9990003 L13.2,3.9990003 Z M18.0023164,3.3383773 L22.6603164,7.9953773 C22.8773164,8.2123773 22.9973164,8.5023773 22.9973164,8.8103773 C22.9973164,9.1183773 22.8773164,9.4083773 22.6593164,9.6253773 L18.0013164,14.2833773 C17.7823164,14.5033773 17.4883164,14.6213773 17.1883164,14.6213773 C17.0393164,14.6213773 16.8903164,14.5923773 16.7473164,14.5343773 C16.3143164,14.3553773 16.0353164,13.9363773 16.0353164,13.4683773 L16.0351258,11.5292019 C12.4830849,11.495301 10.0281134,12.6100234 8.57782162,14.8565538 C8.353165,15.2045513 7.88893709,15.3045389 7.54093956,15.0798823 C7.46994218,15.0340485 7.4092677,14.9782431 7.35956687,14.9154874 C7.23782579,14.7653384 7.17241449,14.5686069 7.19411637,14.3611773 C7.20284807,14.2806516 8.11237143,6.53351357 16.0347724,6.07168054 L16.0353164,4.1523773 C16.0353164,3.6843773 16.3143164,3.2663773 16.7463164,3.0873773 C17.1803164,2.9093773 17.6713164,3.0083773 18.0023164,3.3383773 Z M17.5353164,4.9923773 L17.5353164,6.8003773 C17.5353164,7.1798773 17.252983,7.49383564 16.8870421,7.54352661 L16.7851164,7.5501773 C12.577034,7.5501773 10.5375514,9.78189146 9.55995782,11.7208231 C11.3896788,10.4624236 13.8092457,9.90786691 16.783675,10.0506395 C16.9072215,10.0565697 17.0223473,10.0920719 17.1225361,10.1499726 C17.367194,10.273708 17.5353164,10.5275285 17.5353164,10.8203773 L17.5353164,12.6283773 L21.3533164,8.8103773 L17.5353164,4.9923773 Z" id="形状结合"></path>
        </g>
    </g>
</svg>