<svg width="24.000000" height="24.000000" viewBox="0 0 24 24" xmlns="http://www.w3.org/2000/svg" xmlns:xlink="http://www.w3.org/1999/xlink">
	<g clip-path="url(#clip131_1897)">
		<path id="矢量 173" d="M14.0737 17.1017L10.9272 17.1066C10.5708 15.2626 8.948 13.87 7 13.87C5.04773 13.87 3.42212 15.2686 3.07043 17.1185L2.10022 17.12C1.49268 17.1199 1.00012 16.6416 1 16.0515L1 4.19934C1 3.60974 1.49182 3.13171 2.099 3.13098L11.7812 3.12L11.9109 3.1272C12.4581 3.18884 12.8828 3.6405 12.8828 4.18835L12.8828 12.8083C12.8834 13.2502 13.2529 13.608 13.708 13.6074C14.1639 13.6069 14.5332 13.2478 14.5332 12.8051L14.5332 6.80261L14.5421 6.698C14.5939 6.39355 14.8667 6.16162 15.1948 6.16235L18.1469 6.16846C18.5341 6.20874 18.8882 6.4071 19.1178 6.71802L22.6392 10.8054L22.733 10.9453C22.9072 11.2323 23 11.5602 23 11.8953L23 15.2517L22.9937 15.405C22.9365 16.088 22.5015 16.6671 21.8925 16.9447C21.4749 15.1816 19.8906 13.87 18 13.87C16.0536 13.87 14.432 15.2601 14.0737 17.1017ZM10.5205 7.03992L6.89014 10.5399C6.74487 10.6799 6.57141 10.75 6.36963 10.75C6.16785 10.75 5.99426 10.6799 5.84912 10.5399L3.47949 8.25549C3.17712 7.96399 3.16858 7.49731 3.46008 7.19495C3.75159 6.89258 4.21814 6.88403 4.52051 7.17554L6.36963 8.95825L9.47949 5.96008C9.78186 5.66858 10.2484 5.67712 10.5399 5.97949C10.8314 6.28186 10.8229 6.74841 10.5205 7.03992ZM4 17.87C4 16.2131 5.34314 14.87 7 14.87C8.65686 14.87 10 16.2131 10 17.87C10 19.5269 8.65686 20.87 7 20.87C5.34314 20.87 4 19.5269 4 17.87ZM15 17.87C15 16.2131 16.3431 14.87 18 14.87C19.6569 14.87 21 16.2131 21 17.87C21 19.5269 19.6569 20.87 18 20.87C16.3431 20.87 15 19.5269 15 17.87Z" fill-opacity="1.000000" fill-rule="evenodd"/>
	</g>
</svg>
