<?xml version="1.0" encoding="utf-8"?>
<!-- Generator: Adobe Illustrator 26.0.2, SVG Export Plug-In . SVG Version: 6.00 Build 0)  -->
<svg version="1.1" id="图层_1" xmlns="http://www.w3.org/2000/svg" xmlns:xlink="http://www.w3.org/1999/xlink" x="0px" y="0px"
	 viewBox="0 0 17 16" style="enable-background:new 0 0 17 16;" xml:space="preserve">
<style type="text/css">
	.st0{fill:none;}
</style>
<rect id="售罄-sold-out" x="0.75" class="st0"/>
<path id="形状结合" class="st1" d="M6.55,12.3c0.44,0,0.79,0.36,0.79,0.8c0,0.44-0.35,0.8-0.79,0.8c-0.45,0-0.8-0.36-0.8-0.8
	C5.75,12.66,6.1,12.3,6.55,12.3z M12.55,12.3c0.44,0,0.79,0.36,0.79,0.8c0,0.44-0.35,0.8-0.79,0.8c-0.45,0-0.8-0.36-0.8-0.8
	C11.75,12.66,12.1,12.3,12.55,12.3z M11.66,2.19c0.27,0.07,0.43,0.35,0.35,0.61l-0.36,1.4h1.71c0.83,0,1.5,0.67,1.5,1.5
	c0,0.16-0.02,0.31-0.06,0.47l-0.87,2.64c-0.18,0.58-0.71,0.99-1.34,1.03L10.09,10l-0.2,0.8h3.95c0.29,0,0.5,0.22,0.5,0.5
	s-0.21,0.5-0.5,0.5H9.61l-0.18,0.66c-0.07,0.27-0.35,0.43-0.6,0.35c-0.27-0.07-0.43-0.35-0.35-0.61l0.1-0.4H6.65
	c-0.76,0-1.4-0.57-1.49-1.32L4.35,3.94C4.33,3.69,4.11,3.5,3.85,3.5h-0.6c-0.28,0-0.5-0.22-0.5-0.5s0.22-0.5,0.5-0.5h0.6
	c0.76,0,1.4,0.57,1.49,1.32L5.4,4.2h5.21l0.46-1.66C11.13,2.27,11.41,2.12,11.66,2.19z M9.03,10.06l-2.92,0.18l0.02,0.11
	c0.03,0.25,0.23,0.44,0.5,0.44h2.2L9.03,10.06z M10.34,5.2H5.51L6,9.25l3.32-0.21L10.34,5.2z M13.36,5.2h-1.98l-1.02,3.78l2.17-0.14
	c0.21-0.01,0.38-0.15,0.45-0.34l0.85-2.64c0.02-0.05,0.02-0.1,0.02-0.16C13.86,5.42,13.65,5.2,13.36,5.2z"/>
</svg>
