<?xml version="1.0" encoding="utf-8"?>
<!-- Generator: Adobe Illustrator 26.0.2, SVG Export Plug-In . SVG Version: 6.00 Build 0)  -->
<svg version="1.1" id="图层_1" xmlns="http://www.w3.org/2000/svg" xmlns:xlink="http://www.w3.org/1999/xlink" x="0px" y="0px"
	 viewBox="0 0 16 16" style="enable-background:new 0 0 16 16;" xml:space="preserve">
<style type="text/css">
	.st0{fill:none;}
</style>
<rect id="size" class="st0" />
<path id="形状结合" class="st1" d="M8,1.26l0.15,0.01C8.33,1.3,8.51,1.37,8.67,1.5l0.05,0.04l3.85,4.18l0.07,0.1
	c0.28,0.4,0.22,0.95-0.16,1.26l-0.1,0.07c-0.17,0.11-0.36,0.17-0.57,0.17H4.19L4.07,7.31c-0.5-0.06-0.88-0.46-0.88-0.96L3.2,6.23
	c0.02-0.19,0.11-0.38,0.24-0.52l3.81-4.15C7.45,1.38,7.72,1.26,8,1.26z M8.01,2.27H7.99L4.24,6.34h7.52L8.02,2.28h0.01L8.01,2.27z
	 M11.81,8.19c0.56,0,0.99,0.44,0.99,0.97c0,0.23-0.08,0.46-0.25,0.64l-3.79,4.13c-0.36,0.4-0.99,0.44-1.41,0.08L7.3,13.99L3.44,9.79
	c-0.36-0.4-0.33-1.01,0.08-1.36c0.18-0.16,0.42-0.24,0.67-0.24H11.81z"/>
</svg>
