<?xml version="1.0" encoding="utf-8"?>
<svg version="1.1" id="图层_1" xmlns="http://www.w3.org/2000/svg" xmlns:xlink="http://www.w3.org/1999/xlink" x="0px" y="0px"
	 viewBox="0 0 16 16" style="enable-background:new 0 0 16 16;" xml:space="preserve">
<g>
	<path class="st0" d="M11.75,9.43L7.99,13.5L4.25,9.43H11.75 M8,1.5C8,1.5,8,1.5,8,1.5c-0.28,0-0.55,0.11-0.75,0.32L3.44,5.97
		c-0.16,0.18-0.25,0.4-0.25,0.64c0,0.53,0.45,0.97,1,0.97h7.61c0.24,0,0.48-0.09,0.66-0.24c0.41-0.35,0.45-0.96,0.09-1.36L8.75,1.82
		C8.72,1.8,8.69,1.77,8.66,1.74C8.47,1.58,8.24,1.5,8,1.5l0.01,1l3.74,4.07l-7.5,0L7.99,2.5c0,0,0.01,0,0.01,0L8,1.5L8,1.5z
		 M11.81,8.43H4.19c-0.24,0-0.48,0.09-0.66,0.24c-0.41,0.35-0.45,0.96-0.08,1.36l3.81,4.14c0.03,0.03,0.06,0.06,0.09,0.08
		C7.53,14.42,7.76,14.5,8,14.5c0.28,0,0.55-0.11,0.75-0.32l3.81-4.14c0.16-0.18,0.25-0.4,0.25-0.64
		C12.81,8.86,12.36,8.43,11.81,8.43L11.81,8.43z"/>
</g>
</svg>
