<?xml version="1.0" encoding="utf-8"?>
<!-- Generator: Adobe Illustrator 21.0.0, SVG Export Plug-In . SVG Version: 6.00 Build 0)  -->
<svg version="1.1" id="Layer_1" xmlns="http://www.w3.org/2000/svg" xmlns:xlink="http://www.w3.org/1999/xlink" x="0px" y="0px"
	 viewBox="0 0 24 24" style="enable-background:new 0 0 24 24;" xml:space="preserve">
<g id="Icon">
	<g id="_x36_.21版本" transform="translate(-933.000000, -1565.000000)">
		<g id="网站通用图标" transform="translate(100.000000, 1221.000000)">
			<g id="star" transform="translate(832.000000, 343.000000)">
				<path id="Shape" class="st0" d="M13,2c-0.4,0-0.8,0.1-1.1,0.3c-0.4,0.2-0.6,0.5-0.8,0.9L8.8,8l-5,0.8C3,8.9,2.4,9.5,2.1,10.2
					S2,11.8,2.6,12.4l3.7,3.8l-0.9,5.4c-0.1,0.6,0.1,1.2,0.5,1.7c0.4,0.5,1,0.8,1.6,0.8c0.4,0,0.7-0.1,1-0.3l4.4-2.5l4.4,2.5
					c0.3,0.2,0.7,0.3,1,0.3c0.6,0,1.2-0.3,1.6-0.8c0.4-0.5,0.6-1.1,0.5-1.7l-0.9-5.4l3.7-3.8c0.6-0.6,0.7-1.4,0.5-2.2
					c-0.3-0.8-0.9-1.3-1.7-1.4l-5-0.8l-2.2-4.8c-0.2-0.4-0.5-0.7-0.8-0.9C13.8,2.1,13.4,2,13,2z"/>
			</g>
		</g>
	</g>
</g>
</svg>