<?xml version="1.0" encoding="utf-8"?>
<!-- Generator: Adobe Illustrator 26.0.2, SVG Export Plug-In . SVG Version: 6.00 Build 0)  -->
<svg version="1.1" id="图层_1" xmlns="http://www.w3.org/2000/svg" xmlns:xlink="http://www.w3.org/1999/xlink" x="0px" y="0px"
	 viewBox="0 0 16 16" style="enable-background:new 0 0 16 16;" xml:space="preserve">
<style type="text/css">
	.st0{fill-rule:evenodd;clip-rule:evenodd;fill:#D8D8D8;fill-opacity:0;}
	.st1{fill-rule:evenodd;clip-rule:evenodd;}
</style>
<polygon id="矩形备份-3" class="st0" points="16,0 16,16 0,16 0,0 "/>
<path id="路径" class="st1" d="M8.48,1.1c0.3,0.13,0.54,0.38,0.67,0.69l1.26,3.17c0.03,0.07,0.09,0.12,0.16,0.13l3.28,0.27
	c0.69,0.06,1.2,0.68,1.14,1.39c-0.02,0.34-0.18,0.65-0.43,0.87l-2.49,2.24c-0.06,0.05-0.09,0.13-0.07,0.21l0.76,3.34
	c0.16,0.69-0.25,1.38-0.92,1.55c-0.32,0.08-0.66,0.02-0.94-0.16l-2.81-1.78c-0.06-0.04-0.13-0.04-0.19,0L5.09,14.8
	c-0.59,0.38-1.36,0.18-1.72-0.43c-0.17-0.29-0.22-0.63-0.14-0.96l0.76-3.34c0.02-0.08-0.01-0.16-0.07-0.22L1.43,7.62
	C0.91,7.16,0.85,6.35,1.29,5.81C1.5,5.55,1.81,5.39,2.14,5.36l3.28-0.27c0.07-0.01,0.13-0.06,0.16-0.13l1.26-3.17
	C7.11,1.13,7.84,0.82,8.48,1.1z"/>
</svg>
