<?xml version="1.0" encoding="utf-8"?>
<!-- Generator: Adobe Illustrator 26.0.2, SVG Export Plug-In . SVG Version: 6.00 Build 0)  -->
<svg version="1.1" id="图层_1" xmlns="http://www.w3.org/2000/svg" xmlns:xlink="http://www.w3.org/1999/xlink" x="0px" y="0px"
	 viewBox="0 0 16 16" style="enable-background:new 0 0 16 16;" xml:space="preserve">
<style type="text/css">
	.st0{fill:none;}
	.st1{fill-rule:evenodd;clip-rule:evenodd;}
</style>
<rect id="矩形备份-2" class="st0"/>
<path id="形状结合" class="st1" d="M5.7,5.28l0.04,0.03L8,7.58l2.26-2.26c0.12-0.12,0.31-0.12,0.42,0
	c0.11,0.11,0.12,0.27,0.03,0.39l-0.03,0.04L8.42,8l2.26,2.26c0.12,0.12,0.12,0.31,0,0.42c-0.11,0.1-0.27,0.12-0.39,0.03l-0.04-0.03
	L8,8.42l-2.26,2.26c-0.12,0.12-0.31,0.12-0.42,0c-0.11-0.11-0.12-0.27-0.03-0.39l0.03-0.04L7.58,8L5.31,5.74
	c-0.12-0.12-0.12-0.31,0-0.42C5.42,5.21,5.58,5.2,5.7,5.28z"/>
</svg>
