<?xml version="1.0" encoding="utf-8"?>
<!-- Generator: Adobe Illustrator 26.0.2, SVG Export Plug-In . SVG Version: 6.00 Build 0)  -->
<svg version="1.1" id="图层_1" xmlns="http://www.w3.org/2000/svg" xmlns:xlink="http://www.w3.org/1999/xlink" x="0px" y="0px"
	 viewBox="0 0 16 16" style="enable-background:new 0 0 16 16;" xml:space="preserve">
<style type="text/css">
	.st0{fill:none;}
</style>
<polygon id="Fill-1" class="st0" points="0,16 16,16 16,0 0,0 "/>
<path id="形状结合" class="st1" d="M11.79,7.82c0.21,0.21,0.23,0.53,0.07,0.76l-0.07,0.08L8.71,11.8
	c-0.23,0.24-0.61,0.24-0.85,0.01c-0.21-0.21-0.23-0.53-0.07-0.76l0.07-0.08l3.08-3.12C11.17,7.59,11.55,7.59,11.79,7.82z M10.99,4.2
	c0.21,0.21,0.24,0.53,0.07,0.76L11,5.05l-5.94,6.02c-0.23,0.24-0.61,0.24-0.85,0.01C4,10.87,3.98,10.54,4.14,10.31l0.07-0.08
	l5.94-6.02C10.38,3.97,10.76,3.97,10.99,4.2z"/>
</svg>
