<?xml version="1.0" encoding="utf-8"?>
<!-- Generator: Adobe Illustrator 26.0.2, SVG Export Plug-In . SVG Version: 6.00 Build 0)  -->
<svg version="1.1" id="图层_1" xmlns="http://www.w3.org/2000/svg" xmlns:xlink="http://www.w3.org/1999/xlink" x="0px" y="0px"
	 viewBox="0 0 16 16" style="enable-background:new 0 0 16 16;" xml:space="preserve">
<style type="text/css">
	.st0{fill:none;}
</style>
<rect id="矩形" class="st0"/>
<path id="形状" class="st1" d="M0,5.8L0,5.8c0-0.33,0.27-0.6,0.6-0.6h14.8c0.33,0,0.6,0.27,0.6,0.6l0,0c0,0.33-0.27,0.6-0.6,0.6
	H0.6C0.27,6.4,0,6.13,0,5.8z M0.6,10.8h14.8c0.33,0,0.6-0.27,0.6-0.6l0,0c0-0.33-0.27-0.6-0.6-0.6H0.6C0.27,9.6,0,9.87,0,10.2l0,0
	C0,10.53,0.27,10.8,0.6,10.8z"/>
</svg>
