<svg width="24.000000" height="24.000000" viewBox="0 0 24 24" xmlns="http://www.w3.org/2000/svg" xmlns:xlink="http://www.w3.org/1999/xlink">
	<g clip-path="url(#clip131_1906)">
		<path id="矢量 182" d="M16.4 2L7.59998 2C6.71631 2 6 2.89539 6 4L18 4C18 2.89539 17.2837 2 16.4 2ZM20 7.31812C20 6.31396 19.2466 5.5 18.3164 5.5L5.68457 5.5C4.75439 5.5 4 6.31396 4 7.31812L4 8L10 8C9.75037 9.04712 10.5 10.5 12 10.5C13.5 10.5 14.2457 9.03076 14 8L20 8L20 7.31812ZM20.049 9.5C21.1266 9.5 22 10.3654 22 11.4329L22 19.1007C22 20.7019 20.6897 22 19.0732 22L4.92676 22C3.3103 22 2 20.7019 2 19.1007L2 11.4329C2 10.3654 2.87378 9.5 3.95142 9.5L8.97681 9.5C8.97681 11.1012 10.4885 12 11.9885 12C13.4885 12 14.9768 11.1012 14.9768 9.5L20.049 9.5ZM15.8312 13.9514C15.524 14.2378 15.5077 14.7042 15.7941 15.0115L16.2754 15.5278L6 15.5278C5.95374 15.5278 5.9082 15.532 5.8634 15.5403C5.8186 15.5486 5.77454 15.561 5.73132 15.5776C5.68799 15.5942 5.64697 15.6144 5.60815 15.6382C5.56934 15.662 5.53271 15.6893 5.49829 15.7203C5.42126 15.7896 5.36218 15.8674 5.32104 15.9537C5.27979 16.04 5.25647 16.135 5.25098 16.2384C5.24561 16.3418 5.25891 16.4386 5.29077 16.5288C5.32263 16.619 5.37329 16.7025 5.4425 16.7795L7.4425 19.0017C7.72351 19.314 8.18958 19.3384 8.50171 19.0575C8.81396 18.7765 8.83838 18.3104 8.5575 17.9983L7.68408 17.0278L18 17.0278C18.1035 17.0278 18.1995 17.0095 18.288 16.9729C18.3763 16.9363 18.4572 16.8813 18.5303 16.8081C18.6035 16.7349 18.6584 16.6541 18.6951 16.5657C18.7317 16.4773 18.75 16.3813 18.75 16.2778C18.75 16.2303 18.7456 16.1837 18.7369 16.1379C18.7283 16.0922 18.7152 16.0471 18.6979 16.0029C18.6804 15.9589 18.6593 15.917 18.6344 15.8776C18.6095 15.8381 18.5809 15.801 18.5486 15.7664L16.8912 13.9885C16.6049 13.6814 16.1384 13.665 15.8312 13.9514Z" fill-opacity="1.000000" fill-rule="evenodd"/>
	</g>
</svg>
