<?xml version="1.0" encoding="UTF-8"?>
<svg viewBox="0 0 24 24" version="1.1" xmlns="http://www.w3.org/2000/svg" xmlns:xlink="http://www.w3.org/1999/xlink">
    <title>icon/alert/success/24</title>
    <g id="icon/alert/success/24" stroke="none" stroke-width="1" fill="none" fill-rule="evenodd">
        <g id="Icon/Fill/1">
            <path d="M12,1.5 C6.2015625,1.5 1.5,6.2015625 1.5,12 C1.5,17.7984375 6.2015625,22.5 12,22.5 C17.7984375,22.5 22.5,17.7984375 22.5,12 C22.5,6.2015625 17.7984375,1.5 12,1.5 Z" id="形状备份" fill="#5CB300"></path>
            <path d="M10.6500337,15.020512 C10.3494413,15.020512 10.0668483,14.9035149 9.85445364,14.6911202 L7.6319592,12.4681758 C7.4560136,12.2926802 7.4560136,12.0078373 7.6319592,11.8318917 C7.8079048,11.6559461 8.09229769,11.6559461 8.26824329,11.8318917 L10.4907377,14.0548361 C10.5483363,14.1119847 10.6153846,14.1205345 10.6500337,14.1205345 C10.6846829,14.1205345 10.7517312,14.1119847 10.8088798,14.0548361 L15.7317567,9.1319592 C15.9077023,8.9560136 16.1920952,8.9560136 16.3680408,9.1319592 C16.5439864,9.3079048 16.5439864,9.59229769 16.3680408,9.76824329 L11.4456139,14.6911202 C11.2332192,14.9035149 10.9506262,15.020512 10.6500337,15.020512" id="Fill-1备份-2" stroke="#FFFFFF" stroke-width="0.3" fill="#FFFFFF"></path>
        </g>
    </g>
</svg>