<svg width="24.000000" height="24.000000" viewBox="0 0 24 24" xmlns="http://www.w3.org/2000/svg" xmlns:xlink="http://www.w3.org/1999/xlink">
	<g clip-path="url(#clip131_1903)">
		<path id="矢量 179" d="M14.4037 2L5.47437 2C4.30945 2 3.55188 3.22583 4.07275 4.26758C4.60364 5.32935 5.68884 6 6.87585 6L13.0022 6C14.1892 6 15.2743 5.32935 15.8052 4.26758C16.326 3.22583 15.5685 2 14.4037 2ZM9.00989 7.5L10.8677 7.5C12.8027 7.5 14.5741 8.29028 15.8511 9.58398C15.0734 9.70532 14.338 9.95483 13.6674 10.3101C13.6313 10.1746 13.5562 10.0471 13.4425 9.94409C13.1312 9.66211 12.6652 9.6853 12.3832 9.99658L9.93896 12.6946L7.49487 9.99658C7.21289 9.6853 6.7467 9.66211 6.43542 9.94409C6.12427 10.2261 6.1012 10.6921 6.38318 11.0034L8.24756 13.0618L6.93896 13.0618C6.51904 13.0618 6.18896 13.3916 6.18896 13.8118C6.18896 14.2317 6.51904 14.5618 6.93896 14.5618L9.18896 14.5618L9.18896 15.8083L6.93896 15.8083C6.51904 15.8083 6.18896 16.1384 6.18896 16.5583C6.18896 16.9785 6.51904 17.3083 6.93896 17.3083L9.18896 17.3083L9.18896 19.5C9.18896 19.9199 9.51904 20.25 9.93896 20.25C10.3135 20.25 10.6163 19.9878 10.6776 19.6333C11.027 20.3298 11.489 20.9602 12.04 21.5L5.55078 21.5C3.11658 21.5 1.2467 19.344 1.59094 16.9343L2.0802 13.51C2.57288 10.0615 5.52625 7.5 9.00989 7.5ZM11.439 16.5C11.439 13.4624 13.9014 11 16.939 11C19.9766 11 22.439 13.4624 22.439 16.5C22.439 19.5376 19.9766 22 16.939 22C13.9014 22 11.439 19.5376 11.439 16.5ZM16.9418 18.7825L19.967 15.7825C20.2653 15.4868 20.2673 15.02 19.9716 14.7219C19.6758 14.4236 19.2091 14.4216 18.9109 14.7175L16.4137 17.1938L14.967 15.7593C14.6688 15.4636 14.2021 15.4656 13.9064 15.7637C13.6107 16.062 13.6127 16.5286 13.9109 16.8245L15.8856 18.7825C15.9587 18.855 16.0392 18.9094 16.1272 18.9456C16.2152 18.9819 16.3108 19 16.4137 19C16.5166 19 16.6121 18.9819 16.7001 18.9456C16.7881 18.9094 16.8687 18.855 16.9418 18.7825Z" fill-opacity="1.000000" fill-rule="evenodd"/>
	</g>
</svg>
