<?xml version="1.0" encoding="utf-8"?>
<svg viewBox="0 0 1024 1024" version="1.1" xmlns="http://www.w3.org/2000/svg">
  <path d="M78 206c-9 9-14 21.2-14 33.8V784c0 12.8 5 24.8 14 33.8 9 9 21.2 14 33.8 14H912c12.8 0 24.8-5 33.8-14 9-9 14-21.2 14-33.8V239.8c0-12.8-5-24.8-14-33.8-9-9-21.2-14-33.8-14H111.8c-12.6 0-24.8 5-33.8 14z m19.4 306.8c0-7.8 6.2-14 14-14s14 6.2 14 14-6.2 14-14 14c-7.6 0-14-6.4-14-14zM940 512c0 15.4-13 28-28.2 28-15 0-28-12.4-28-28 0-15.4 12.8-28.2 28-28.2 15.2 0.2 28.2 12.8 28.2 28.2z m-76-288v576H160V224h704z" ></path>
</svg>