<?xml version="1.0" encoding="UTF-8"?>
<svg viewBox="0 0 24 24" version="1.1" xmlns="http://www.w3.org/2000/svg" xmlns:xlink="http://www.w3.org/1999/xlink">
    <g id="图标/面性/表格" stroke="none" stroke-width="1">
        <path d="M6.5,8.5 C6.77614237,8.5 7,8.72385763 7,9 L7,20.5 C7,20.7761424 6.77614237,21 6.5,21 L5,21 C3.8954305,21 3,20.1045695 3,19 L3,9 C3,8.72385763 3.22385763,8.5 3.5,8.5 L6.5,8.5 Z M20.5,8.5 C20.7761424,8.5 21,8.72385763 21,9 L21,18 C21,19.6568542 19.6568542,21 18,21 L9,21 C8.72385763,21 8.5,20.7761424 8.5,20.5 L8.5,9 C8.5,8.72385763 8.72385763,8.5 9,8.5 L20.5,8.5 Z M19,3 C20.1045695,3 21,3.8954305 21,5 L21,6.5 C21,6.77614237 20.7761424,7 20.5,7 L3.5,7 C3.22385763,7 3,6.77614237 3,6.5 L3,5 C3,3.8954305 3.8954305,3 5,3 L19,3 Z" id="形状"></path>
    </g>
</svg>