<?xml version="1.0" encoding="utf-8"?>
<!-- Generator: Adobe Illustrator 15.0.0, SVG Export Plug-In . SVG Version: 6.00 Build 0)  -->
<!DOCTYPE svg PUBLIC "-//W3C//DTD SVG 1.1//EN" "http://www.w3.org/Graphics/SVG/1.1/DTD/svg11.dtd">
<svg version="1.1" id="图层_1" xmlns="http://www.w3.org/2000/svg" xmlns:xlink="http://www.w3.org/1999/xlink" x="0px" y="0px"
	 viewBox="0 0 597.015 597.014" enable-background="new 0 0 597.015 597.014"
	 xml:space="preserve">
<g>
	<g>
		<path d="M87.331,509.681c116.438,116.443,305.915,116.443,422.353,0c116.441-116.438,116.441-305.911,0-422.349
			C393.246-29.11,203.77-29.11,87.331,87.332C-29.11,203.77-29.11,393.237,87.331,509.681L87.331,509.681z M107.503,110.483
			C211.175,6.812,378.242,0,488.539,108.483c104.52,102.801,103.658,274.363,0,378.035c-103.676,103.668-276.378,104.668-380.036,1
			C4.827,383.847,3.827,214.153,107.503,110.483L107.503,110.483z M107.503,110.483"/>
	</g>
</g>
<path d="M373.891,440.117h-0.003c-5.083,0-9.817-0.793-14.089-2.358c-5.081-1.353-53.431-15.552-119.208-81.333
	c-63.754-63.751-79.508-113.833-81.034-119.108c-5.968-14.877-1.601-35.497,10.031-47.126l24.755-24.755
	c5.505-5.51,12.6-8.54,19.971-8.54c8.537,0,16.6,4.081,22.119,11.2l36.299,46.797c5.733,7.389,6.428,19.463,1.589,27.488
	l-18.07,29.936c1.305,4.739,6.695,19.256,27.464,41.232c22.703,21.496,36.468,26.272,40.835,27.303l30.086-18.153
	c7.854-4.752,20.263-4.006,27.489,1.584l46.794,36.302c6.687,5.184,10.649,12.441,11.149,20.429c0.503,7.99-2.51,15.685-8.487,21.66
	l-24.757,24.756C398.998,435.257,386.376,440.117,373.891,440.117L373.891,440.117z M214.313,169.322
	c-4.055,0-8.025,1.738-11.186,4.899l-24.756,24.757c-8.006,8.008-11.367,23.863-7.193,33.934l0.252,0.732
	c0.137,0.5,14.528,50.574,77.946,113.994c65.677,65.674,113.311,78.039,113.785,78.155l0.702,0.219
	c2.903,1.1,6.371,1.678,10.027,1.678c9.171,0,18.65-3.549,24.148-9.046l24.755-24.755c3.418-3.419,5.148-7.715,4.875-12.094
	c-0.276-4.38-2.535-8.425-6.364-11.396l-46.796-36.298c-3.249-2.519-9.911-2.903-13.455-0.765l-33.525,20.229l-1.76-0.014
	c-1.852-0.02-18.981-1.041-50.842-31.225c-28.871-30.537-31.26-48.619-31.439-50.581l-0.183-2.026l20.375-33.761
	c2.21-3.669,1.846-10.079-0.768-13.453l-36.3-46.796C223.417,171.592,219.049,169.322,214.313,169.322L214.313,169.322z
	 M214.313,169.322"/>
</svg>
