<?xml version="1.0" encoding="UTF-8"?>
<!DOCTYPE svg PUBLIC "-//W3C//DTD SVG 1.1//EN" "http://www.w3.org/Graphics/SVG/1.1/DTD/svg11.dtd">
<!-- Creator: CorelDRAW X7 -->
<svg xmlns="http://www.w3.org/2000/svg" xml:space="preserve" version="1.1" style="shape-rendering:geometricPrecision; text-rendering:geometricPrecision; image-rendering:optimizeQuality; fill-rule:evenodd; clip-rule:evenodd"
viewBox="0 0 30 30"
 xmlns:xlink="http://www.w3.org/1999/xlink">
 <g id="图层_x0020_1">
  <path class="fil0" d="M1 6l5 0 0 -5c0,0 0,-1 1,-1l22 0c0,0 1,1 1,1l0 23c0,0 -1,1 -1,1l-5 0 0 4c0,1 0,1 -1,1l-22 0c0,0 -1,0 -1,-1l0 -22c0,0 1,-1 1,-1zm1 7l20 0 0 -5 -20 0 0 5zm20 2l-20 0 0 13 20 0 0 -13zm-14 -9l15 0c1,0 1,1 1,1l0 16 4 0 0 -21 -20 0 0 4z"/>
 </g>
</svg>
