<?xml version="1.0" encoding="utf-8"?>
<!-- Generator: Adobe Illustrator 26.0.2, SVG Export Plug-In . SVG Version: 6.00 Build 0)  -->
<svg version="1.1" id="图层_1" xmlns="http://www.w3.org/2000/svg" xmlns:xlink="http://www.w3.org/1999/xlink" x="0px" y="0px"
	 viewBox="0 0 16 16" style="enable-background:new 0 0 16 16;" xml:space="preserve">
<style type="text/css">
	.st0{fill:none;}
</style>
<polygon id="Fill-1" class="st0" points="0,16 16,16 16,0 0,0 "/>
<path id="形状" class="st1" d="M8,1C4.1,1,1,4.1,1,8s3.1,7,7,7s7-3.1,7-7S11.9,1,8,1z M8,14c-3.3,0-6-2.7-6-6s2.7-6,6-6s6,2.7,6,6
	S11.3,14,8,14z M10,8.4L10,8.4C10,8.8,9.8,9,9.5,9H7.7C7.3,9,7,8.7,7,8.3V5.5C7,5.2,7.2,5,7.5,5S8,5.2,8,5.5V8h1.5
	C9.7,8,9.9,8.2,10,8.4z"/>
</svg>
