<svg viewBox="0 0 24 24" xmlns="http://www.w3.org/2000/svg"
	xmlns:xlink="http://www.w3.org/1999/xlink">
	<g clip-path="url(#clip131_1898)">
		<path id="矢量 174"
			d="M0.5 13.1666C0.5 16.1122 2.92297 18.5 5.91174 18.5L10.4596 18.5C10.1627 17.7236 10 16.8809 10 16C10 12.134 13.134 9 17 9C19.8993 9 22.387 10.7627 23.4497 13.2748C23.4829 13.0211 23.5 12.7626 23.5 12.5C23.5 9.18628 20.7742 6.5 17.4117 6.5L17.2323 6.50256L17.0687 6.50952C16.2357 4.17419 13.978 2.5 11.3235 2.5C8.17664 2.5 5.58752 4.85291 5.26843 7.87061C2.58289 8.18408 0.5 10.4357 0.5 13.1666ZM11.5 16C11.5 12.9624 13.9624 10.5 17 10.5C20.0376 10.5 22.5 12.9624 22.5 16C22.5 19.0376 20.0376 21.5 17 21.5C13.9624 21.5 11.5 19.0376 11.5 16ZM17.25 14L17.25 15.9338L18.9893 17.4316C19.3076 17.7057 19.3423 18.171 19.0682 18.4893C18.7942 18.8076 18.3289 18.8423 18.0105 18.5682L16.0106 16.8462C15.9279 16.7749 15.8638 16.6897 15.8182 16.5905C15.7955 16.5408 15.7784 16.49 15.7671 16.438C15.7557 16.3859 15.75 16.3324 15.75 16.2778L15.75 14C15.75 13.58 16.08 13.25 16.5 13.25C16.9199 13.25 17.25 13.58 17.25 14Z"
			fill-opacity="1.000000" fill-rule="evenodd" />
	</g>
</svg>