<svg viewBox="0 0 24 24" xmlns="http://www.w3.org/2000/svg"
	xmlns:xlink="http://www.w3.org/1999/xlink">
	<defs />
	<g opacity="0.000000" />
	<path id="path3 (边框)"
		d="M1.25 12C1.25 6.06293 6.06293 1.25 12 1.25C17.9371 1.25 22.75 6.06293 22.75 12C22.75 17.9371 17.9371 22.75 12 22.75C6.06293 22.75 1.25 17.9371 1.25 12Z"
		fill-rule="evenodd" />
	<path id="矢量 249"
		d="M12.75 10.3333L12.75 6.16656C12.75 5.74658 12.42 5.41656 12 5.41656C11.58 5.41656 11.25 5.74658 11.25 6.16656L11.25 10.3333C11.25 10.7532 11.58 11.0833 12 11.0833C12.42 11.0833 12.75 10.7532 12.75 10.3333ZM8.40662 8.36249C8.16055 8.60962 7.94363 8.87585 7.75586 9.16125C7.5853 9.42047 7.43875 9.69556 7.31622 9.98639C7.20078 10.2605 7.11032 10.5404 7.04489 10.826C6.95938 11.1993 6.91663 11.5825 6.91663 11.9754C6.91663 12.3683 6.95938 12.7515 7.04492 13.1249C7.11032 13.4105 7.20078 13.6903 7.31622 13.9644C7.43875 14.2553 7.58527 14.5303 7.75586 14.7896C7.94363 15.075 8.16055 15.3412 8.40662 15.5883C8.66318 15.846 8.94049 16.0718 9.23853 16.2658C9.48563 16.4266 9.74698 16.5656 10.0226 16.6826C10.3014 16.8011 10.5863 16.8932 10.877 16.9592C11.242 17.0419 11.6163 17.0833 12 17.0833C12.3836 17.0833 12.7579 17.0419 13.1228 16.9592C13.4136 16.8932 13.6985 16.8011 13.9774 16.6826C14.253 16.5656 14.5143 16.4266 14.7614 16.2658C15.0594 16.0718 15.3368 15.8459 15.5933 15.5883C15.8394 15.3412 16.0563 15.075 16.2441 14.7896C16.4146 14.5303 16.5612 14.2552 16.6837 13.9644C16.7992 13.6903 16.8896 13.4105 16.955 13.1249C17.0405 12.7515 17.0833 12.3683 17.0833 11.9754C17.0833 11.5825 17.0405 11.1993 16.955 10.826C16.8896 10.5404 16.7991 10.2605 16.6837 9.98639C16.5612 9.69556 16.4146 9.42053 16.2441 9.16125C16.0563 8.87579 15.8394 8.60956 15.5933 8.36249C15.2969 8.06488 15.2979 7.59821 15.5955 7.30182C15.8931 7.00549 16.3598 7.00647 16.6562 7.30408C17.2631 7.91357 17.7331 8.61359 18.0661 9.40417C18.2207 9.7713 18.3407 10.1462 18.426 10.5288C18.5309 10.9993 18.5833 11.4815 18.5833 11.9754C18.5833 12.4693 18.5309 12.9515 18.426 13.4221C18.3407 13.8046 18.2207 14.1796 18.0661 14.5467C17.9058 14.9272 17.7137 15.2869 17.49 15.6255C17.2489 15.9902 16.9709 16.3307 16.6562 16.6468C16.049 17.2565 15.3516 17.7286 14.5638 18.0632C14.1913 18.2215 13.8107 18.3436 13.4222 18.4296C12.9595 18.532 12.4854 18.5833 12 18.5833C11.5145 18.5833 11.0404 18.5321 10.5776 18.4296C10.1891 18.3436 9.80865 18.2215 9.43616 18.0632C8.64838 17.7286 7.9509 17.2565 7.34372 16.6468C7.02896 16.3307 6.75107 15.9902 6.50998 15.6255C6.28619 15.2869 6.09415 14.9272 5.93384 14.5467C5.77921 14.1796 5.65927 13.8047 5.57397 13.4221C5.46915 12.9517 5.41663 12.4692 5.41663 11.9754C5.41663 11.4816 5.46906 10.9995 5.57388 10.5291C5.65918 10.1464 5.77921 9.7713 5.93384 9.40417C6.09415 9.02356 6.28619 8.66394 6.50998 8.32532C6.75104 7.96051 7.02899 7.62012 7.34372 7.30408C7.64008 7.00647 8.10678 7.00549 8.40439 7.30182C8.702 7.59821 8.70297 8.06488 8.40662 8.36249Z"
		fill-rule="evenodd" fill="#FFFFFF" />
</svg>