<?xml version="1.0" encoding="utf-8"?>
<!-- Generator: Adobe Illustrator 15.0.0, SVG Export Plug-In . SVG Version: 6.00 Build 0)  -->
<!DOCTYPE svg PUBLIC "-//W3C//DTD SVG 1.1//EN" "http://www.w3.org/Graphics/SVG/1.1/DTD/svg11.dtd">
<svg version="1.1" id="图层_1" xmlns="http://www.w3.org/2000/svg" xmlns:xlink="http://www.w3.org/1999/xlink" x="0px" y="0px"
	 viewBox="0 0 200 200" enable-background="new 0 0 200 200" xml:space="preserve">
<g>
	<path d="M199.998,167.984v21.354c0,2.962-1.018,5.479-3.118,7.555c-1.977,2.031-4.705,3.155-7.541,3.104h-35.6
		c-2.843,0.06-5.581-1.07-7.554-3.118c-2.038-1.978-3.166-4.712-3.117-7.553v-21.356c0-2.96,1.017-5.479,3.117-7.552
		c1.979-2.038,4.713-3.168,7.554-3.119h35.601c2.961,0,5.479,1.018,7.554,3.119C198.98,162.506,199.998,165.023,199.998,167.984
		L199.998,167.984z M199.998,111.066v21.356c0,2.961-1.018,5.479-3.118,7.553c-1.978,2.039-4.713,3.167-7.553,3.118h-35.602
		c-2.842,0.061-5.581-1.07-7.553-3.118c-2.038-1.979-3.168-4.712-3.119-7.553v-21.355c0-2.961,1.019-5.479,3.119-7.554
		c1.979-2.038,4.713-3.167,7.553-3.118h35.602c2.962,0,5.479,1.018,7.553,3.118C198.928,105.486,200.059,108.225,199.998,111.066
		L199.998,111.066z M199.998,54.11v21.356c0,2.961-1.018,5.479-3.118,7.553c-1.978,2.038-4.712,3.167-7.553,3.118h-35.602
		c-2.842,0.06-5.581-1.071-7.553-3.118c-2.038-1.979-3.168-4.713-3.119-7.553V54.11c0-2.961,1.019-5.479,3.119-7.553
		c1.989-2.029,4.725-3.151,7.566-3.105h35.6c2.962,0,5.479,1.018,7.555,3.118C198.934,48.541,200.06,51.274,199.998,54.11z
		 M128.796,167.984v21.354c0,2.962-1.018,5.479-3.118,7.555c-1.977,2.031-4.705,3.155-7.54,3.104H82.537
		c-2.842,0.06-5.581-1.07-7.553-3.118c-2.038-1.978-3.167-4.713-3.118-7.553v-21.356c0-2.96,1.017-5.479,3.118-7.552
		c1.979-2.038,4.713-3.168,7.553-3.119h35.576c2.961,0,5.479,1.018,7.553,3.119C127.805,162.506,128.796,165.023,128.796,167.984
		L128.796,167.984z M128.796,111.066v21.356c0,2.961-1.018,5.479-3.118,7.553c-1.979,2.039-4.713,3.167-7.553,3.118H82.537
		c-2.842,0.061-5.581-1.07-7.554-3.118c-2.038-1.979-3.167-4.712-3.118-7.553v-21.355c0-2.961,1.018-5.479,3.118-7.554
		c1.979-2.038,4.713-3.167,7.554-3.118h35.575c2.961,0,5.479,1.018,7.554,3.118C127.732,105.474,128.871,108.219,128.796,111.066
		L128.796,111.066z M57.633,167.984v21.354c0,2.962-1.018,5.479-3.118,7.555c-1.98,2.034-4.715,3.158-7.553,3.104H11.374
		c-2.843,0.06-5.581-1.07-7.554-3.118c-2.039-1.978-3.167-4.713-3.118-7.553v-21.356c0-2.96,1.018-5.479,3.118-7.552
		c1.979-2.038,4.713-3.168,7.553-3.119h35.601c2.961,0,5.479,1.018,7.553,3.119C56.603,162.506,57.633,165.023,57.633,167.984
		L57.633,167.984z"/>
	<path d="M57.633,111.627v21.355c0,2.962-1.018,5.479-3.118,7.554c-1.98,2.035-4.715,3.159-7.553,3.104H11.374
		c-2.843,0.061-5.581-1.069-7.554-3.117c-2.039-1.979-3.167-4.714-3.118-7.554v-21.355c0-2.961,1.018-5.479,3.118-7.553
		c1.979-2.038,4.713-3.167,7.553-3.118h35.602c2.961,0,5.479,1.017,7.552,3.118C56.603,106.149,57.633,108.667,57.633,111.627
		L57.633,111.627z"/>
	<path d="M128.796,53.666v21.356c0,2.96-1.018,5.479-3.118,7.553c-1.979,2.039-4.713,3.167-7.553,3.118H82.537
		c-2.842,0.06-5.581-1.07-7.554-3.118c-2.038-1.979-3.166-4.712-3.117-7.553V53.667c0-2.961,1.017-5.479,3.117-7.554
		c1.979-2.038,4.714-3.167,7.554-3.118h35.575c2.961,0,5.479,1.019,7.554,3.118C127.732,48.073,128.871,50.818,128.796,53.666
		L128.796,53.666z"/>
	<path d="M57.633,54.227v21.355c0,2.962-1.018,5.479-3.118,7.554c-1.98,2.035-4.715,3.159-7.553,3.104H11.374
		c-2.843,0.061-5.581-1.07-7.554-3.118c-2.039-1.978-3.167-4.713-3.118-7.553V54.213c0-2.96,1.018-5.479,3.118-7.552
		c1.979-2.038,4.713-3.167,7.553-3.119h35.602c2.961,0,5.479,1.017,7.552,3.119C56.603,48.749,57.633,51.266,57.633,54.227
		L57.633,54.227z"/>
</g>
</svg>
