<svg viewBox="0 0 24 23.9999" xmlns="http://www.w3.org/2000/svg"
	xmlns:xlink="http://www.w3.org/1999/xlink">
	<g clip-path="url(#clip131_1876)">
		<path id="矢量 160"
			d="M16 1.99988L6 1.99988C4.34314 1.99988 3 3.34302 3 4.99988L3 18.9999C3 20.6566 4.34314 21.9999 6 21.9999L11.8924 21.9999C9.85956 20.7748 8.5 18.5463 8.5 15.9998C8.5 12.1339 11.634 8.99988 15.5 8.99988C16.775 8.99988 17.9704 9.3407 19 9.9364L19 4.99988C19 3.34302 17.6569 1.99988 16 1.99988ZM6 5.24988L13.5 5.24988C13.92 5.24988 14.25 5.57983 14.25 5.99988C14.25 6.41992 13.92 6.74988 13.5 6.74988L6 6.74988C5.58002 6.74988 5.25 6.41992 5.25 5.99988C5.25 5.57983 5.58002 5.24988 6 5.24988ZM6 8.74988L8 8.74988C8.41998 8.74988 8.75 9.07983 8.75 9.49988C8.75 9.91992 8.41998 10.2499 8 10.2499L6 10.2499C5.58002 10.2499 5.25 9.91992 5.25 9.49988C5.25 9.07983 5.58002 8.74988 6 8.74988ZM10 15.9998C10 12.9623 12.4625 10.4999 15.5 10.4999C18.5375 10.4999 21 12.9623 21 15.9998C21 19.0375 18.5375 21.4999 15.5 21.4999C12.4625 21.4999 10 19.0375 10 15.9998ZM15.75 13.9999L15.75 15.9337L17.4893 17.4315C17.8076 17.7054 17.8423 18.1708 17.5683 18.4891C17.2943 18.8075 16.8289 18.8422 16.5106 18.5682L14.5106 16.8461C14.4279 16.7748 14.3638 16.6893 14.3182 16.5902C14.2728 16.4911 14.25 16.3871 14.25 16.2777L14.25 13.9999C14.25 13.5798 14.58 13.2499 15 13.2499C15.42 13.2499 15.75 13.5798 15.75 13.9999Z"
			fill-opacity="1.000000" fill-rule="evenodd" />
	</g>
</svg>