<?xml version="1.0" standalone="no"?><svg t="1573719989194" viewBox="0 0 1088 1024" version="1.1" xmlns="http://www.w3.org/2000/svg" p-id="1085" xmlns:xlink="http://www.w3.org/1999/xlink" >defs><path d="M480 64a32 32 0 0 0-32 32v128a32 32 0 0 0 32 32h128a32 32 0 0 0 32-32V96a32 32 0 0 0-32-32H480zM192 704h32a96 96 0 0 1 96 96v128a96 96 0 0 1-96 96H96a96 96 0 0 1-96-96V800a96 96 0 0 1 96-96h32V512a64 64 0 0 1 64-64h320V320h-32a96 96 0 0 1-96-96V96a96 96 0 0 1 96-96h128a96 96 0 0 1 96 96v128a96 96 0 0 1-96 96h-32v128h320a64 64 0 0 1 64 64v192h32a96 96 0 0 1 96 96v128a96 96 0 0 1-96 96H864a96 96 0 0 1-96-96V800a96 96 0 0 1 96-96h32V512H576v192h32a96 96 0 0 1 96 96v128a96 96 0 0 1-96 96H480a96 96 0 0 1-96-96V800a96 96 0 0 1 96-96h32V512H192v192z m672 64a32 32 0 0 0-32 32v128a32 32 0 0 0 32 32h128a32 32 0 0 0 32-32V800a32 32 0 0 0-32-32H864z m-384 0a32 32 0 0 0-32 32v128a32 32 0 0 0 32 32h128a32 32 0 0 0 32-32V800a32 32 0 0 0-32-32H480z m-384 0a32 32 0 0 0-32 32v128a32 32 0 0 0 32 32h128a32 32 0 0 0 32-32V800a32 32 0 0 0-32-32H96z" p-id="1086"></path></svg>