<?xml version="1.0" encoding="UTF-8"?>
<svg viewBox="0 0 30 30" version="1.1" xmlns="http://www.w3.org/2000/svg" xmlns:xlink="http://www.w3.org/1999/xlink">
    <g id="多端组件" stroke="none" stroke-width="1">
        <g id="文件上传" transform="translate(-505.000000, -1942.000000)">
            <g id="视频" transform="translate(505.000000, 1942.000000)">
                <rect id="矩形" x="0" y="0" width="30" height="30" rx="2"></rect>
                <g id="编组" transform="translate(5.000000, 5.000000)">
                    <rect id="矩形" fill="#D8D8D8" opacity="0" x="0" y="0" width="20" height="20"></rect>
                    <path d="M18.257111,5.64709677 C17.7911322,5.36696774 17.2289459,5.35103226 16.7495817,5.60516129 L14.7150028,6.68374194 L14.7150028,6.01612903 C14.7150028,4.62890323 13.5889571,3.5 12.2052426,3.5 L3.50976018,3.5 C2.12604573,3.5 1,4.62890323 1,6.01612903 L1,13.983871 C1,15.3710968 2.12604573,16.5 3.50976018,16.5 L12.2052426,16.5 C13.5889571,16.5 14.7150028,15.3710968 14.7150028,13.983871 L14.7150028,13.333871 L16.7495817,14.3948387 C17.2289459,14.6489677 17.7911322,14.633871 18.257111,14.3529032 C18.7222532,14.0719355 19,13.5804516 19,13.0352903 L19,6.96470968 C19,6.41954839 18.7222532,5.92806452 18.257111,5.64709677 M10.5967297,10.6326356 L7.20889216,12.4019364 C7.08304244,12.4675891 6.94433217,12.5 6.80654051,12.5 C6.66783024,12.5 6.52911997,12.4675891 6.40327026,12.4011053 C6.15065221,12.2697998 6,12.0337822 6,11.769509 L6,8.2309075 C6,7.96746536 6.15065221,7.73144778 6.40327026,7.60014223 C6.65496969,7.46717459 6.95719272,7.46634354 7.20889216,7.59931118 L10.5967297,9.36861193 C10.8493478,9.50074853 11,9.7367661 11,10.0002082 C11,10.2644814 10.8493478,10.500499 10.5967297,10.6326356" id="Fill-1" fill="#FFFFFF"></path>
                </g>
            </g>
        </g>
    </g>
</svg>