<svg width="24.000000" height="24.000000" viewBox="0 0 24 24" xmlns="http://www.w3.org/2000/svg" xmlns:xlink="http://www.w3.org/1999/xlink">
	<g clip-path="url(#clip451_2373)">
		<g opacity="0.000000"/>
		<path id="矢量 252" d="M4.21 2.67C2.58 2.67 1.26 3.99 1.26 5.61C1.26 7.23 2.58 8.55 4.21 8.55C5.62 8.55 6.8 7.57 7.09 6.26L16.36 6.26C16.55 6.26 16.74 6.28 16.92 6.32C17.06 6.35 17.19 6.4 17.33 6.45C17.62 6.58 17.89 6.76 18.12 6.98C18.35 7.21 18.53 7.48 18.65 7.77C18.71 7.9 18.75 8.04 18.78 8.18C18.83 8.36 18.85 8.55 18.85 8.74C18.85 8.93 18.83 9.12 18.78 9.3C18.75 9.44 18.71 9.57 18.65 9.7C18.6 9.83 18.53 9.96 18.45 10.08C18.36 10.23 18.24 10.36 18.12 10.49C17.99 10.61 17.86 10.72 17.71 10.82C17.59 10.9 17.46 10.96 17.33 11.02C17.19 11.08 17.06 11.12 16.92 11.15C16.74 11.2 16.55 11.22 16.36 11.22L13.6 11.22C13.2 10.06 12.1 9.24 10.81 9.24C9.51 9.24 8.41 10.06 8.01 11.22L5.26 11.22C4.96 11.22 4.68 11.25 4.39 11.31C4.16 11.36 3.93 11.43 3.7 11.53C3.47 11.63 3.26 11.74 3.06 11.87C2.83 12.02 2.62 12.19 2.43 12.38C2.24 12.57 2.07 12.78 1.92 13.01C1.78 13.21 1.67 13.42 1.57 13.65C1.48 13.87 1.4 14.1 1.35 14.34C1.29 14.61 1.26 14.91 1.26 15.2C1.26 15.74 1.36 16.25 1.57 16.74C1.78 17.22 2.06 17.64 2.43 18.01C2.62 18.2 2.82 18.36 3.04 18.51C3.25 18.65 3.47 18.76 3.7 18.86C3.93 18.96 4.16 19.03 4.39 19.08C4.67 19.14 4.96 19.17 5.26 19.17L13.82 19.17C14.22 19.74 14.77 20.19 15.29 20.53C15.48 20.66 15.68 20.77 15.89 20.87C16.53 21.17 17.24 21.32 18.02 21.32C18.8 21.32 19.51 21.17 20.15 20.87C20.35 20.77 20.55 20.66 20.74 20.53C21.51 20.02 22.15 19.27 22.65 18.28C22.7 18.17 22.73 18.06 22.73 17.94C22.73 17.82 22.7 17.71 22.65 17.61C22.15 16.61 21.51 15.86 20.74 15.35C20.55 15.22 20.35 15.11 20.15 15.01C19.51 14.72 18.8 14.57 18.02 14.57C17.24 14.57 16.53 14.72 15.89 15.01C15.68 15.11 15.48 15.22 15.29 15.35C14.52 15.86 13.88 16.61 13.39 17.61L5.26 17.67C5.06 17.67 4.88 17.65 4.69 17.61C4.56 17.58 4.42 17.54 4.29 17.48C3.99 17.35 3.73 17.18 3.5 16.95C3.27 16.72 3.09 16.46 2.96 16.16C2.91 16.03 2.86 15.89 2.83 15.76C2.79 15.57 2.77 15.39 2.77 15.2C2.77 15 2.79 14.82 2.83 14.63C2.86 14.5 2.91 14.36 2.96 14.23C3.09 13.93 3.27 13.67 3.5 13.44C3.62 13.32 3.75 13.21 3.9 13.12C4.02 13.04 4.15 12.97 4.29 12.91C4.42 12.86 4.56 12.81 4.69 12.78C4.88 12.74 5.06 12.72 5.26 12.72L7.9 12.72C8.16 14.08 9.36 15.11 10.81 15.11C12.25 15.11 13.45 14.08 13.71 12.72L16.36 12.72C16.65 12.72 16.94 12.69 17.22 12.62C17.45 12.57 17.69 12.5 17.91 12.4C18.14 12.31 18.35 12.19 18.56 12.06C18.78 11.91 18.99 11.74 19.18 11.55C19.55 11.18 19.84 10.76 20.04 10.29C20.14 10.06 20.21 9.83 20.26 9.6C20.32 9.32 20.35 9.03 20.35 8.74C20.35 8.45 20.32 8.16 20.26 7.89C20.21 7.65 20.14 7.41 20.04 7.19C19.84 6.71 19.55 6.29 19.18 5.92C18.99 5.73 18.78 5.56 18.56 5.41C18.35 5.28 18.14 5.17 17.91 5.07C17.69 4.98 17.45 4.9 17.22 4.85C16.94 4.79 16.65 4.76 16.36 4.76L7.04 4.76C6.67 3.55 5.54 2.67 4.21 2.67ZM4.21 4.17C3.41 4.17 2.77 4.82 2.77 5.61C2.77 6.41 3.41 7.05 4.21 7.05C5.01 7.05 5.66 6.41 5.66 5.61C5.66 4.82 5.01 4.17 4.21 4.17ZM19.91 16.6C20.37 16.9 20.78 17.35 21.12 17.94C20.78 18.53 20.37 18.98 19.91 19.29C19.83 19.34 19.76 19.38 19.68 19.42C19.2 19.69 18.64 19.82 18.02 19.82C17.39 19.82 16.84 19.69 16.35 19.42C16.28 19.38 16.2 19.34 16.13 19.29C15.66 18.98 15.26 18.53 14.92 17.94C15.26 17.35 15.66 16.9 16.13 16.6C16.2 16.55 16.28 16.5 16.35 16.46C16.84 16.2 17.39 16.07 18.02 16.07C18.64 16.07 19.2 16.2 19.68 16.46C19.76 16.5 19.83 16.55 19.91 16.6ZM16.7 17.94C16.7 17.22 17.29 16.63 18.02 16.63C18.75 16.63 19.34 17.22 19.34 17.94C19.34 18.67 18.75 19.25 18.02 19.25C17.29 19.25 16.7 18.67 16.7 17.94Z" fill-opacity="1.000000" fill-rule="evenodd"/>
	</g>
</svg>
