<?xml version="1.0" encoding="utf-8"?>
<!-- Generator: Adobe Illustrator 21.0.0, SVG Export Plug-In . SVG Version: 6.00 Build 0)  -->
<svg version="1.1" id="Layer_1" xmlns="http://www.w3.org/2000/svg" xmlns:xlink="http://www.w3.org/1999/xlink" x="0px" y="0px"
	 viewBox="0 0 24 24" xml:space="preserve">
<g id="Icon">
	<g transform="translate(-206.000000, -2154.000000)">
		<g transform="translate(100.000000, 1136.000000)">
			<g id="view" transform="translate(104.000000, 1016.000000)">
				<path class="st0" d="M13.7,11.3h3c0.6,0,1,0.4,1,1s-0.4,1-1,1h-3v3c0,0.6-0.4,1-1,1s-1-0.4-1-1v-3h-3
					c-0.6,0-1-0.4-1-1s0.4-1,1-1h3v-3c0-0.6,0.4-1,1-1s1,0.4,1,1V11.3z"/>
				<path class="st0" d="M24.4,22.8L19.6,18c1.3-1.6,2.1-3.6,2.1-5.7c0-5-4-9-9-9s-9,4-9,9s4,9,9,9
					c2.2,0,4.2-0.8,5.7-2.1l4.8,4.8c0.2,0.2,0.4,0.2,0.6,0.2s0.4-0.1,0.6-0.2C24.7,23.7,24.7,23.2,24.4,22.8z M15.4,18.7
					c-0.9,0.4-1.8,0.5-2.7,0.5s-1.9-0.2-2.7-0.5c-0.8-0.4-1.6-0.9-2.2-1.5c-0.6-0.6-1.1-1.4-1.5-2.2c-0.4-0.9-0.5-1.8-0.5-2.7
					s0.2-1.9,0.5-2.7C6.6,8.7,7.1,8,7.7,7.3s1.4-1.1,2.2-1.5c0.9-0.4,1.8-0.5,2.7-0.5s1.9,0.2,2.7,0.5c0.8,0.4,1.6,0.9,2.2,1.5
					c0.6,0.6,1.1,1.4,1.5,2.2c0.4,0.9,0.5,1.8,0.5,2.7s-0.2,1.9-0.5,2.7c-0.4,0.8-0.9,1.6-1.5,2.2C17,17.9,16.2,18.4,15.4,18.7z"/>
			</g>
		</g>
	</g>
</g>
</svg>
