<svg viewBox="0 0 24 24" xmlns="http://www.w3.org/2000/svg"
	xmlns:xlink="http://www.w3.org/1999/xlink">
	<g clip-path="url(#clip131_1873)">
		<path id="矢量 158"
			d="M14.0737 17.1017L10.9272 17.1066C10.5709 15.2626 8.94806 13.87 7 13.87C5.04773 13.87 3.42212 15.2686 3.0705 17.1185L2.10022 17.12C1.49261 17.1199 1.00006 16.6416 1 16.0515L1 4.19934C1 3.60974 1.49182 3.13171 2.09894 3.13098L11.7813 3.12L11.9109 3.1272C12.4581 3.18884 12.8828 3.6405 12.8828 4.18835L12.8828 12.8083C12.8834 13.2502 13.2529 13.608 13.708 13.6074C14.1639 13.6069 14.5332 13.2478 14.5332 12.8051L14.5332 6.80261L14.5421 6.698C14.5939 6.39355 14.8666 6.16162 15.1948 6.16235L18.1469 6.16846C18.534 6.20874 18.8882 6.4071 19.1179 6.71802L22.6391 10.8054L22.733 10.9453C22.9073 11.2323 23 11.5602 23 11.8953L23 15.2517L22.9936 15.405C22.9365 16.088 22.5015 16.6671 21.8925 16.9447C21.4749 15.1816 19.8906 13.87 18 13.87C16.0536 13.87 14.4319 15.2601 14.0737 17.1017ZM6.75 6L6.75 8.32483L9.37689 9.85156C9.73999 10.0626 9.8595 10.5138 9.64844 10.8768C9.43738 11.24 8.98627 11.3595 8.62311 11.1484L5.62311 9.40479C5.50763 9.33765 5.41656 9.24622 5.34991 9.13037C5.28333 9.01465 5.25 8.88989 5.25 8.75635L5.25 6C5.25 5.57996 5.58002 5.25 6 5.25C6.41998 5.25 6.75 5.57996 6.75 6ZM7 14.87C5.34314 14.87 4 16.2131 4 17.87C4 19.5269 5.34314 20.87 7 20.87C8.65686 20.87 10 19.5269 10 17.87C10 16.2131 8.65686 14.87 7 14.87ZM15 17.87C15 16.2131 16.3431 14.87 18 14.87C19.6569 14.87 21 16.2131 21 17.87C21 19.5269 19.6569 20.87 18 20.87C16.3431 20.87 15 19.5269 15 17.87Z"
			fill-opacity="1.000000" fill-rule="evenodd" />
	</g>
</svg>