<?xml version="1.0" encoding="utf-8"?>
<!-- Generator: Adobe Illustrator 21.0.0, SVG Export Plug-In . SVG Version: 6.00 Build 0)  -->
<svg version="1.1" id="Layer_1" xmlns="http://www.w3.org/2000/svg" xmlns:xlink="http://www.w3.org/1999/xlink" x="0px" y="0px"
	 viewBox="0 0 24 24" xml:space="preserve">
<g id="Icon">
	<g id="UI-icons-英文名" transform="translate(-412.000000, -929.000000)">
		<g id="提示建议性图标" transform="translate(100.000000, 761.000000)">
			<g id="Warning" transform="translate(312.000000, 168.000000)">
				<path id="Combined-Shape" class="st0" d="M12,24C5.4,24,0,18.6,0,12S5.4,0,12,0s12,5.4,12,12S18.6,24,12,24z M12,5
					c-0.6,0-1,0.4-1,1v8c0,0.6,0.4,1,1,1s1-0.4,1-1V6C13,5.4,12.6,5,12,5z M12,18c0.6,0,1-0.4,1-1s-0.4-1-1-1s-1,0.4-1,1
					S11.4,18,12,18z"/>
			</g>
		</g>
	</g>
</g>
</svg>
