<?xml version="1.0" encoding="UTF-8"?>
<svg viewBox="0 0 2 12" version="1.1" xmlns="http://www.w3.org/2000/svg"
    xmlns:xlink="http://www.w3.org/1999/xlink">
    <g id="流程图&amp;步骤条" stroke="none" stroke-width="1">
        <g id="【PC】步骤条-Steps" transform="translate(-1261.000000, -2126.000000)">
            <g id="叹号" transform="translate(1261.000000, 2126.000000)">
                <path
                    d="M1,0 C1.41421356,-7.6089797e-17 1.75,0.335786438 1.75,0.75 L1.75,7.25 C1.75,7.66421356 1.41421356,8 1,8 C0.585786438,8 0.25,7.66421356 0.25,7.25 L0.25,0.75 C0.25,0.335786438 0.585786438,7.6089797e-17 1,0 Z M1,12 C1.55228475,12 2,11.5522847 2,11 C2,10.4477153 1.55228475,10 1,10 C0.44771525,10 0,10.4477153 0,11 C0,11.5522847 0.44771525,12 1,12 Z"
                    id="形状结合"></path>
            </g>
        </g>
    </g>
</svg>