<svg width="24" height="24" viewBox="0 0 24 24" xmlns="http://www.w3.org/2000/svg" xmlns:xlink="http://www.w3.org/1999/xlink">
	<defs/>
	<g opacity="0.000000"/>
	<path id="矢量 174" d="M12 1.25C6.06293 1.25 1.25 6.06293 1.25 12C1.25 17.9371 6.06293 22.75 12 22.75C17.9371 22.75 22.75 17.9371 22.75 12C22.75 6.06293 17.9371 1.25 12 1.25Z" fill-rule="evenodd"/>
	<path id="矢量 250" d="M10.4976 7.40839C10.4088 6.52048 11.1061 5.75 11.9984 5.75C12.8908 5.75 13.5881 6.52048 13.4993 7.40839L12.9147 13.2542C12.8676 13.7249 12.4715 14.0833 11.9984 14.0833C11.5254 14.0833 11.1293 13.7249 11.0822 13.2542L10.4976 7.40839ZM11.9984 15.75C11.3081 15.75 10.7484 16.3096 10.7484 17C10.7484 17.6904 11.3081 18.25 11.9984 18.25C12.6888 18.25 13.2484 17.6904 13.2484 17C13.2484 16.3096 12.6888 15.75 11.9984 15.75Z" fill-rule="evenodd" fill="#FFFFFF"/>
</svg>
