<?xml version="1.0" encoding="UTF-8"?>
<!DOCTYPE svg PUBLIC "-//W3C//DTD SVG 1.1//EN" "http://www.w3.org/Graphics/SVG/1.1/DTD/svg11.dtd">
<!-- Creator: CorelDRAW X7 -->
<svg xmlns="http://www.w3.org/2000/svg" xml:space="preserve" version="1.1" style="shape-rendering:geometricPrecision; text-rendering:geometricPrecision; image-rendering:optimizeQuality; fill-rule:evenodd; clip-rule:evenodd"
viewBox="0 0 18 16" xmlns:xlink="http://www.w3.org/1999/xlink">
 <g>
  <path class="fil0" d="M0 0l17 0c0,0 1,0 1,0l0 12c0,1 -1,1 -1,1l-8 0 0 2 4 0c0,0 0,0 0,0l0 1c0,0 0,0 0,0l-9 0c-1,0 -1,0 -1,0l0 -1c0,0 0,0 1,0l3 0 0 -2 -7 0c0,0 0,0 0,-1l0 -12c0,0 0,0 0,0zm2 8l14 0 0 -6 -14 0 0 6zm14 1l-14 0 0 2 14 0 0 -2z"/>
 </g>
</svg>
