<svg viewBox="0 0 24 24" xmlns="http://www.w3.org/2000/svg"
	xmlns:xlink="http://www.w3.org/1999/xlink">
	<g clip-path="url(#clip131_1888)">
		<path id="矢量 164"
			d="M15.5 2L8.5 2C7.94769 2 7.5 2.44775 7.5 3L7.5 4C7.5 4.55225 7.94769 5 8.5 5L15.5 5C16.0523 5 16.5 4.55225 16.5 4L16.5 3C16.5 2.44775 16.0523 2 15.5 2ZM6 3.5C5.95886 3.65979 6 3.82739 6 4L6 4.5C6 5.60461 6.89545 6.5 8 6.5L16 6.5C17.1046 6.5 18 5.60461 18 4.5L18 4C18 3.82739 17.9781 3.65979 17.937 3.5C19.5939 3.5 21 4.84314 21 6.5L21 19C21 20.6569 19.6569 22 18 22L6 22C4.34314 22 3 20.6569 3 19L3 6.5C3 4.84314 4.34314 3.5 6 3.5ZM11.0707 8.75L12.9292 8.75C13.2523 8.75 13.5353 8.96924 13.6201 9.28528L13.8717 10.223L14.4965 10.5895L15.4206 10.3425C15.7332 10.2589 16.0623 10.3981 16.2236 10.682L17.1544 12.3198C17.3153 12.6029 17.2697 12.96 17.0431 13.1923L16.3687 13.8835L16.3687 14.6165L17.0431 15.3077C17.2697 15.54 17.3153 15.8971 17.1544 16.1802L16.2237 17.8179C16.0623 18.1019 15.7332 18.241 15.4206 18.1575L14.497 17.9105L13.8717 18.2772L13.6202 19.2147C13.5353 19.5308 13.2523 19.75 12.9292 19.75L11.0707 19.75C10.7477 19.75 10.4647 19.5308 10.3798 19.215L10.1279 18.277L9.50305 17.9105L8.57947 18.1575C8.26685 18.241 7.93774 18.1019 7.77637 17.8179L6.84558 16.1801C6.68475 15.8971 6.73029 15.54 6.95679 15.3077L7.6311 14.6162L7.6311 13.8833L6.95697 13.1923C6.73035 12.96 6.68475 12.6029 6.84564 12.3198L7.77637 10.6821C7.93774 10.3981 8.26685 10.259 8.57947 10.3425L9.50305 10.5895L10.1279 10.223L10.3798 9.28503C10.4647 8.96924 10.7477 8.75 11.0707 8.75ZM12 17.2916C13.6615 17.2916 15.0111 15.9283 15.0111 14.25C15.0111 12.5717 13.6615 11.2084 12 11.2084C10.3385 11.2084 8.98889 12.5717 8.98889 14.25C8.98889 15.9283 10.3385 17.2916 12 17.2916ZM12 15.7916C12.8338 15.7916 13.5111 15.1007 13.5111 14.25C13.5111 13.3993 12.8338 12.7084 12 12.7084C11.1662 12.7084 10.4889 13.3993 10.4889 14.25C10.4889 15.1007 11.1662 15.7916 12 15.7916Z"
			fill-opacity="1.000000" fill-rule="evenodd" />
	</g>
</svg>