<svg viewBox="0 0 24 24" xmlns="http://www.w3.org/2000/svg"
	xmlns:xlink="http://www.w3.org/1999/xlink">
	<g clip-path="url(#clip131_1910)">
		<g opacity="0.000000" />
		<path id="矢量 186"
			d="M14.1617 2.0957C14.0532 2.03479 13.928 2 13.7947 2L6.69739 2C4.93018 2 3.5 3.44141 3.5 5.21667L3.5 18.7834C3.5 20.5586 4.93018 22 6.69739 22L17.3026 22C19.0698 22 20.5 20.5586 20.5 18.7834L20.5 8.79333C20.5 8.56653 20.3994 8.36328 20.2405 8.22632C20.2109 8.18591 20.1782 8.14697 20.1426 8.10986L14.6188 2.38159C14.491 2.24902 14.3337 2.15161 14.1617 2.0957ZM14.5439 4.46399L17.994 8.04297L15.5079 8.04333C14.9958 8.04333 14.5447 7.61792 14.5447 7.14893L14.5439 4.46399ZM7.60461 12.2683L6.72815 13.4744L5.85168 12.2684C5.60474 11.9287 5.1438 11.8558 4.80408 12.1028C4.46436 12.3496 4.39148 12.8107 4.63831 13.1504L5.80103 14.75L4.63831 16.3499C4.39148 16.6895 4.46436 17.1504 4.80408 17.3975C5.1438 17.6443 5.60486 17.5713 5.85168 17.2317L6.72827 16.0256L7.60461 17.2314C7.85156 17.5713 8.3125 17.6443 8.65234 17.3972C8.99207 17.1504 9.06494 16.6895 8.81799 16.3496L7.6554 14.75L8.81799 13.1503C9.06494 12.8104 8.99207 12.3495 8.65234 12.1025C8.3125 11.8557 7.85156 11.9286 7.60461 12.2683ZM13.3937 15.0875L13.3937 16.7891C13.3937 17.209 13.7236 17.5391 14.1437 17.5391C14.5637 17.5391 14.8937 17.209 14.8937 16.7891L14.8937 12.7083C14.8937 12.6047 14.8754 12.5088 14.8387 12.4204C14.8021 12.332 14.7472 12.2512 14.674 12.178C14.6008 12.1047 14.52 12.0498 14.4316 12.0132C14.3431 11.9766 14.2472 11.9583 14.1437 11.9583C14.0825 11.9583 14.0231 11.9653 13.9653 11.9795C13.9076 11.9935 13.8517 12.0148 13.7974 12.0431C13.743 12.0713 13.6936 12.105 13.6489 12.1442C13.6042 12.1833 13.5643 12.228 13.5293 12.2782L12.166 14.2256L10.8029 12.2782C10.7434 12.1934 10.6735 12.1252 10.5928 12.0739C10.5121 12.0225 10.4208 11.9877 10.3187 11.9697C10.2168 11.9518 10.1191 11.9531 10.0258 11.9738C9.93237 11.9944 9.84314 12.0344 9.7583 12.0939C9.70813 12.1289 9.66357 12.1688 9.62439 12.2135C9.58521 12.2582 9.55139 12.3076 9.52319 12.3619C9.495 12.4163 9.47375 12.4722 9.45959 12.5299C9.44556 12.5876 9.43848 12.6471 9.43848 12.7083L9.43848 16.7891C9.43848 17.209 9.76843 17.5391 10.1885 17.5391C10.6084 17.5391 10.9385 17.209 10.9385 16.7891L10.9385 15.0875L11.5516 15.9635C11.5657 15.9802 11.6202 16.0483 11.6357 16.0637C11.6525 16.0776 11.718 16.1353 11.736 16.1479C11.8208 16.2073 11.9099 16.2473 12.0033 16.2681C12.0967 16.2888 12.1945 16.29 12.2964 16.272C12.3983 16.2542 12.4897 16.2195 12.5704 16.168C12.6511 16.1165 12.7211 16.0483 12.7805 15.9635L13.3937 15.0875ZM16.8727 16.0391L16.8727 12.7083C16.8727 12.2883 16.5426 11.9583 16.1227 11.9583C15.7026 11.9583 15.3727 12.2883 15.3727 12.7083L15.3727 16.7891C15.3727 16.8926 15.391 16.9885 15.4276 17.0769C15.4641 17.1653 15.519 17.2461 15.5923 17.3193C15.6655 17.3926 15.7463 17.4475 15.8347 17.4841C15.9231 17.5208 16.019 17.5391 16.1227 17.5391L18.7583 17.5391C19.1783 17.5391 19.5083 17.209 19.5083 16.7891C19.5083 16.3691 19.1783 16.0391 18.7583 16.0391L16.8727 16.0391Z"
			fill-opacity="1.000000" fill-rule="evenodd" />
	</g>
</svg>