<?xml version="1.0" encoding="utf-8"?>
<!-- Generator: Adobe Illustrator 21.0.0, SVG Export Plug-In . SVG Version: 6.00 Build 0)  -->
<svg version="1.1" id="Layer_1" xmlns="http://www.w3.org/2000/svg" xmlns:xlink="http://www.w3.org/1999/xlink" x="0px" y="0px"
	 viewBox="0 0 24 24" xml:space="preserve">
<g id="Icon">
	<g transform="translate(-831.000000, -767.000000)">
		<g transform="translate(100.000000, 761.000000)">
			<g id="yes" transform="translate(728.000000, 0.000000)">
				<path class="st0" d="M12.9,21.6l9.4-9.4c0.4-0.4,1-0.4,1.4,0c0.4,0.4,0.4,1,0,1.4L13.7,23.7
					c-0.4,0.4-1,0.4-1.4,0c0,0,0,0,0,0c-0.1,0-0.1-0.1-0.2-0.1l-5.8-5.8c-0.4-0.4-0.4-1,0-1.4c0.4-0.4,1-0.4,1.4,0L12.9,21.6z"/>
			</g>
		</g>
	</g>
</g>
</svg>