<?xml version="1.0" encoding="UTF-8"?>
<svg viewBox="0 0 30 30" version="1.1" xmlns="http://www.w3.org/2000/svg" xmlns:xlink="http://www.w3.org/1999/xlink">
    <g id="多端组件" stroke="none" stroke-width="1">
        <g id="文件上传" transform="translate(-567.000000, -1942.000000)">
            <g id="压缩备份-3" transform="translate(567.000000, 1942.000000)">
                <rect id="矩形" x="0" y="0" width="30" height="30" rx="2"></rect>
                <g id="编组" transform="translate(11.000000, 4.000000)" fill="#FFFFFF">
                    <rect id="矩形" x="0" y="0" width="4" height="4" rx="0.5"></rect>
                    <rect id="矩形备份" x="4" y="4" width="4" height="4" rx="0.5"></rect>
                    <rect id="矩形备份-2" x="0" y="8" width="4" height="4" rx="0.5"></rect>
                    <path d="M7,14 C7.55228475,14 8,14.4477153 8,15 L8,21 C8,21.5522847 7.55228475,22 7,22 L1,22 C0.44771525,22 6.76353751e-17,21.5522847 0,21 L0,15 C-6.76353751e-17,14.4477153 0.44771525,14 1,14 L7,14 Z M6.5,18 L1.5,18 C1.22385763,18 1,18.2238576 1,18.5 L1,20.5 C1,20.7761424 1.22385763,21 1.5,21 L6.5,21 C6.77614237,21 7,20.7761424 7,20.5 L7,18.5 C7,18.2238576 6.77614237,18 6.5,18 Z" id="形状结合"></path>
                </g>
            </g>
        </g>
    </g>
</svg>