<?xml version="1.0" standalone="no"?><svg t="1572574193179" class="icon" viewBox="0 0 1024 1024" version="1.1" xmlns="http://www.w3.org/2000/svg" p-id="1100" xmlns:xlink="http://www.w3.org/1999/xlink" ><path d="M943.616 892.416L742.4 691.712c24.064-29.184 44.032-61.44 58.88-96.256 19.968-47.104 30.208-97.792 30.208-149.504s-10.24-101.888-30.208-149.504c-19.456-45.568-47.104-86.528-81.92-121.856A385.5872 385.5872 0 0 0 597.504 92.16c-47.104-19.968-97.28-30.208-149.504-30.208s-101.888 10.24-149.504 30.208c-45.568 19.456-86.528 47.104-121.856 82.432S113.664 250.88 94.72 296.448c-19.968 47.104-30.208 97.792-30.208 149.504s10.24 101.888 30.208 149.504c19.456 45.568 47.104 86.528 81.92 121.856 35.328 35.328 76.288 62.976 121.856 82.432 47.104 19.968 97.28 30.208 149.504 30.208 51.712 0 101.888-10.24 149.504-30.208 34.816-14.848 66.56-34.304 95.232-57.856l201.728 201.216c6.656 6.656 15.872 10.24 25.088 10.24 9.216 0 17.92-3.584 25.088-10.24 12.8-14.336 12.8-36.864-1.024-50.688z m-273.92-225.792c-0.512 0.512-1.024 0.512-1.024 1.024l-1.024 1.024c-58.88 58.368-137.216 90.624-219.648 90.624-83.456 0-162.304-32.768-221.184-91.648s-91.648-137.728-91.648-221.184S167.424 284.16 226.816 225.28s137.728-91.648 221.184-91.648 162.304 32.768 221.184 91.648c58.88 58.88 91.648 137.728 91.648 221.184 0 82.944-32.768 161.28-91.136 220.16z" p-id="1101"></path><path d="M573.952 418.816H473.088V321.024c0-19.456-12.8-35.328-32.256-35.328s-32.256 15.872-32.256 35.328v97.792H305.152c-19.456 0-35.328 12.8-35.328 32.256s15.872 32.256 35.328 32.256h102.912V588.8c0 19.456 12.8 35.328 32.256 35.328s32.256-15.872 32.256-35.328V483.84H573.44c19.456 0 35.328-12.8 35.328-32.256s-15.36-32.768-34.816-32.768z" p-id="1102"></path></svg>