<?xml version="1.0" encoding="utf-8"?>
<!-- Generator: Adobe Illustrator 21.0.0, SVG Export Plug-In . SVG Version: 6.00 Build 0)  -->
<svg version="1.1" id="Layer_1" xmlns="http://www.w3.org/2000/svg" xmlns:xlink="http://www.w3.org/1999/xlink" x="0px" y="0px"
	 viewBox="0 0 24 24" xml:space="preserve">
<g id="Icon">
	<g id="UI-icons-英文名" transform="translate(-832.000000, -311.000000)">
		<g id="方向性图标" transform="translate(101.000000, 304.000000)">
			<g id="chevron-down" transform="translate(728.000000, 0.000000)">
				<path id="Shape" class="st0" d="M24,14c0,0.2-0.1,0.5-0.2,0.6l-8,9.9C15.6,24.9,15.3,25,15,25c-0.3,0-0.6-0.1-0.8-0.4l-7.9-9.9
					c-0.4-0.4-0.3-1.1,0.2-1.4c0.4-0.4,1.1-0.3,1.4,0.2l7.2,8.9l7.2-8.9c0.4-0.4,1-0.5,1.4-0.2C23.9,13.4,24,13.7,24,14z"/>
			</g>
		</g>
	</g>
</g>
</svg>
