<?xml version="1.0" encoding="UTF-8"?>
<svg viewBox="0 0 100 100" version="1.1" xmlns="http://www.w3.org/2000/svg" xmlns:xlink="http://www.w3.org/1999/xlink">
    <g id="页面-1" stroke="none" stroke-width="1" fill="none" fill-rule="evenodd">
        <g id="空状态（文案统一）" transform="translate(-80.000000, -691.000000)">
            <g id="暂无数据" transform="translate(80.000000, 691.000000)">
                <rect id="矩形" x="0" y="0" width="100" height="100"></rect>
                <path d="M85.6,32.5 C85.8485281,32.5 86.0735281,32.6007359 86.2363961,32.7636039 C86.3992641,32.9264719 86.5,33.1514719 86.5,33.4 L86.5,33.4 L86.5,84 C86.5,84.9664983 86.1082492,85.8414983 85.4748737,86.4748737 C84.8414983,87.1082492 83.9664983,87.5 83,87.5 L83,87.5 L21,87.5 C20.0335017,87.5 19.1585017,87.1082492 18.5251263,86.4748737 C17.8917508,85.8414983 17.5,84.9664983 17.5,84 L17.5,84 L17.5,32.5 Z" id="矩形备份" stroke="#818181" fill="#EEEEEE"></path>
                <path d="M67.5,32.5 L67.5,84 C67.5,84.9664983 67.1082492,85.8414983 66.4748737,86.4748737 C65.8414983,87.1082492 64.9664983,87.5 64,87.5 L64,87.5 L16,87.5 C15.0335017,87.5 14.1585017,87.1082492 13.5251263,86.4748737 C12.8917508,85.8414983 12.5,84.9664983 12.5,84 L12.5,84 L12.5,33.4 C12.5,33.1514719 12.6007359,32.9264719 12.7636039,32.7636039 C12.9264719,32.6007359 13.1514719,32.5 13.4,32.5 L13.4,32.5 L67.5,32.5 Z" id="矩形" stroke="#818181" fill="#FFFFFF"></path>
                <path d="M56.249178,32.5 C56.7659495,32.5 57.2463306,32.7660067 57.5205587,33.2040155 L57.5205587,33.2040155 L66.6178949,47.7346718 L14.1761075,48.5 C12.988871,48.5 11.8825796,47.8981478 11.2376119,46.9013795 L11.2376119,46.9013795 L1.91907226,32.5 Z" id="矩形" stroke="#818181" fill="#FFFFFF" transform="translate(34.500000, 40.500000) scale(-1, 1) translate(-34.500000, -40.500000) "></path>
                <path d="M86.9920023,32.5 C87.5026904,32.5 87.9782927,32.7598252 88.2542153,33.1895566 L88.2542153,33.1895566 L97.5902673,47.7298522 L80.2877842,48.5 C79.0475092,48.5 77.8998588,47.8436059 77.2710145,46.7745704 L77.2710145,46.7745704 L68.8742083,32.5 Z" id="矩形备份-4" stroke="#818181" fill="#FFFFFF"></path>
                <rect id="矩形" fill="#0067D1" x="19" y="67" width="16" height="5" rx="0.84"></rect>
                <rect id="矩形备份-2" fill="#818181" x="19" y="76" width="12" height="1" rx="0.35"></rect>
                <rect id="矩形备份-3" fill="#818181" x="19" y="80" width="6" height="1" rx="0.35"></rect>
                <g id="编组" transform="translate(31.400000, 11.000000)" fill="#818181" fill-rule="nonzero">
                    <g id="编组-3" transform="translate(0.012023, 0.000000)">
                        <path d="M19.587977,0.5 L19.587977,7.5 C19.587977,7.77614237 19.3641193,8 19.087977,8 C18.8118346,8 18.587977,7.77614237 18.587977,7.5 L18.587977,0.5 C18.587977,0.223857625 18.8118346,5.07265313e-17 19.087977,0 C19.3641193,-5.07265313e-17 19.587977,0.223857625 19.587977,0.5 Z" id="路径备份"></path>
                        <path d="M36.1759539,3.42490789 L36.1759539,10.4249079 C36.1759539,10.7010503 35.9520963,10.9249079 35.6759539,10.9249079 C35.3998115,10.9249079 35.1759539,10.7010503 35.1759539,10.4249079 L35.1759539,3.42490789 C35.1759539,3.14876552 35.3998115,2.92490789 35.6759539,2.92490789 C35.9520963,2.92490789 36.1759539,3.14876552 36.1759539,3.42490789 Z" id="路径备份" transform="translate(35.675954, 6.924908) rotate(-330.000000) translate(-35.675954, -6.924908) "></path>
                        <path d="M3,3.42490789 L3,10.4249079 C3,10.7010503 2.77614237,10.9249079 2.5,10.9249079 C2.22385763,10.9249079 2,10.7010503 2,10.4249079 L2,3.42490789 C2,3.14876552 2.22385763,2.92490789 2.5,2.92490789 C2.77614237,2.92490789 3,3.14876552 3,3.42490789 Z" id="路径备份" transform="translate(2.500000, 6.924908) rotate(-30.000000) translate(-2.500000, -6.924908) "></path>
                    </g>
                </g>
            </g>
        </g>
    </g>
</svg>