<?xml version="1.0" encoding="UTF-8"?>
<svg viewBox="0 0 100 100" version="1.1" xmlns="http://www.w3.org/2000/svg" xmlns:xlink="http://www.w3.org/1999/xlink">
    <g id="页面-1" stroke="none" stroke-width="1" fill="none" fill-rule="evenodd">
        <g id="空状态（文案统一）" transform="translate(-590.000000, -691.000000)">
            <g id="无相关搜索结果" transform="translate(590.000000, 691.000000)">
                <rect id="矩形" x="0" y="0" width="100" height="100"></rect>
                <path d="M79,16.5 C81.0710678,16.5 82.9460678,17.3394661 84.3033009,18.6966991 C85.6605339,20.0539322 86.5,21.9289322 86.5,24 L86.5,24 L86.5,29 C86.5,29.6903559 86.220178,30.3153559 85.767767,30.767767 C85.3153559,31.220178 84.6903559,31.5 84,31.5 L84,31.5 L73.5,31.5 L73.5,16.5 Z" id="矩形备份-2" stroke="#818181" fill="#EEEEEE"></path>
                <path d="M76.5343141,16.5 C76.1242357,16.7589435 75.745129,17.0624829 75.4038059,17.4038059 C74.2275373,18.5800746 73.5,20.2050746 73.5,22 L73.5,22 L73.5,83 C73.5,84.2426407 72.9963203,85.3676407 72.1819805,86.1819805 C71.3676407,86.9963203 70.2426407,87.5 69,87.5 L69,87.5 L22,87.5 C21.0335017,87.5 20.1585017,87.1082492 19.5251263,86.4748737 C18.8917508,85.8414983 18.5,84.9664983 18.5,84 L18.5,84 L18.5,20 C18.5,19.0335017 18.8917508,18.1585017 19.5251263,17.5251263 C20.1585017,16.8917508 21.0335017,16.5 22,16.5 L22,16.5 Z" id="矩形" stroke="#818181" fill="#FFFFFF"></path>
                <path d="M60.1355932,76.5 C60.5498068,76.5 60.9248068,76.6678932 61.1962534,76.9393398 C61.4677,77.2107864 61.6355932,77.5857864 61.6355932,78 L61.6355932,78 L61.6355932,82 C61.6355932,83.7949254 62.3631305,85.4199254 63.5393991,86.5961941 C63.8807222,86.9375171 64.2598289,87.2410565 64.6699073,87.5 L64.6699073,87.5 L18,87.5 C16.4812169,87.5 15.1062169,86.8843915 14.1109127,85.8890873 C13.1156085,84.8937831 12.5,83.5187831 12.5,82 L12.5,82 L12.5,78 C12.5,77.5857864 12.6678932,77.2107864 12.9393398,76.9393398 C13.2107864,76.6678932 13.5857864,76.5 14,76.5 L14,76.5 Z" id="路径备份-3" stroke="#818181" fill="#FFFFFF"></path>
                <rect id="矩形" fill="#0067D1" x="27" y="29" width="7" height="7"></rect>
                <rect id="矩形备份-2" stroke="#818181" x="27.5" y="40.5" width="6" height="6"></rect>
                <rect id="矩形备份" fill="#818181" x="38" y="32" width="12" height="1"></rect>
                <rect id="矩形备份-3" fill="#818181" x="38" y="43" width="18" height="1"></rect>
                <g id="编组" transform="translate(54.000000, 46.000000)">
                    <path d="M25.3734217,27.522481 L22.5911661,24.7403666 C22.3532207,24.5032454 22.3532207,24.1175173 22.5911661,23.879584 C22.8291115,23.6416507 23.2148591,23.6416507 23.4519924,23.879584 L26.234248,26.6616984 C26.4721934,26.8996317 26.4721934,27.2845477 26.234248,27.522481 C26.1156814,27.6418537 25.9597581,27.701134 25.8038349,27.701134 C25.6479116,27.701134 25.4919883,27.6418537 25.3734217,27.522481 Z" id="Fill-1" fill="#818181"></path>
                    <path d="M29.846169,25.683943 C30.2603825,25.683943 30.6353825,25.8518362 30.9068291,26.1232828 C31.1782757,26.3947295 31.346169,26.7697295 31.346169,27.183943 L31.346169,27.183943 L31.346169,35.183943 C31.346169,35.5981566 31.1782757,35.9731566 30.9068291,36.2446032 C30.6353825,36.5160498 30.2603825,36.683943 29.846169,36.683943 C29.4319554,36.683943 29.0569554,36.5160498 28.7855088,36.2446032 C28.5140622,35.9731566 28.346169,35.5981566 28.346169,35.183943 L28.346169,35.183943 L28.346169,27.183943 C28.346169,26.7697295 28.5140622,26.3947295 28.7855088,26.1232828 C29.0569554,25.8518362 29.4319554,25.683943 29.846169,25.683943 Z" id="矩形" stroke="#818181" fill="#FFFFFF" transform="translate(29.846169, 31.183943) rotate(-45.000000) translate(-29.846169, -31.183943) "></path>
                    <path d="M14.343616,4.807648 C9.085312,4.807648 4.807648,9.085312 4.807648,14.343616 C4.807648,19.60192 9.085312,23.879584 14.343616,23.879584 C19.60192,23.879584 23.879584,19.60192 23.879584,14.343616 C23.879584,9.085312 19.60192,4.807648 14.343616,4.807648 Z" id="路径" fill="#FFFFFF"></path>
                    <path d="M14,0.5 C17.722028,0.5 21.0969062,2.01419168 23.5413573,4.45864275 C25.9858083,6.90309381 27.5,10.277972 27.5,14 C27.5,17.722028 25.9858083,21.0969062 23.5413573,23.5413573 C21.0969062,25.9858083 17.722028,27.5 14,27.5 C10.277972,27.5 6.90309381,25.9858083 4.45864275,23.5413573 C2.01419168,21.0969062 0.5,17.722028 0.5,14 C0.5,10.277972 2.01419168,6.90309381 4.45864275,4.45864275 C6.90309381,2.01419168 10.277972,0.5 14,0.5 Z" id="路径" stroke="#818181" fill="#FFFFFF"></path>
                </g>
            </g>
        </g>
    </g>
</svg>