<?xml version="1.0" encoding="UTF-8"?>
<svg viewBox="0 0 100 100" version="1.1" xmlns="http://www.w3.org/2000/svg" xmlns:xlink="http://www.w3.org/1999/xlink">
    <g id="页面-1" stroke="none" stroke-width="1" fill="none" fill-rule="evenodd">
        <g id="空状态（文案统一）" transform="translate(-250.000000, -691.000000)">
            <g id="暂无最新消息" transform="translate(250.000000, 691.000000)">
                <rect id="矩形" x="0" y="0" width="100" height="100"></rect>
                <path d="M50,18.412541 C50.7119517,18.412541 51.4239034,18.629258 52.0318368,19.062692 L52.0318368,19.062692 L84.0318368,41.8775068 C84.9530801,42.5343192 85.5,43.5959444 85.5,44.7273558 L85.5,44.7273558 L85.5,85 C85.5,85.6903559 85.220178,86.3153559 84.767767,86.767767 C84.3153559,87.220178 83.6903559,87.5 83,87.5 L83,87.5 L17,87.5 C16.3096441,87.5 15.6846441,87.220178 15.232233,86.767767 C14.779822,86.3153559 14.5,85.6903559 14.5,85 L14.5,85 L14.5,44.7273558 C14.5,43.5959444 15.0469199,42.5343192 15.9681632,41.8775068 L15.9681632,41.8775068 L47.9681632,19.062692 C48.5760966,18.629258 49.2880483,18.412541 50,18.412541 Z" id="矩形" stroke="#818181" fill="#FFFFFF"></path>
                <path d="M73,24.5 C73.6903559,24.5 74.3153559,24.779822 74.767767,25.232233 C75.220178,25.6846441 75.5,26.3096441 75.5,27 L75.5,27 L75.5,68.5 L63.1682068,68.5 L52.667112,60.7753622 C51.8738474,60.1918343 50.9369347,59.9001387 50.0000589,59.9002572 C49.0631832,59.9003757 48.1263443,60.1923083 47.3332274,60.7760368 L47.3332274,60.7760368 L36.8386115,68.5 L24.5,68.5 L24.5,27 C24.5,26.3096441 24.779822,25.6846441 25.232233,25.232233 C25.6846441,24.779822 26.3096441,24.5 27,24.5 L27,24.5 Z" id="矩形" stroke="#818181" fill="#FFFFFF"></path>
                <path d="M64,34.5 C64.4142136,34.5 64.7892136,34.6678932 65.0606602,34.9393398 C65.3321068,35.2107864 65.5,35.5857864 65.5,36 L65.5,36 L65.5,48 C65.5,48.4142136 65.3321068,48.7892136 65.0606602,49.0606602 C64.7892136,49.3321068 64.4142136,49.5 64,49.5 L64,49.5 L60.5,49.5 L60.5,54.0978762 L53.5082022,49.7280025 C53.2698048,49.5790042 52.9943333,49.5 52.7132038,49.5 L52.7132038,49.5 L36,49.5 C35.5857864,49.5 35.2107864,49.3321068 34.9393398,49.0606602 C34.6678932,48.7892136 34.5,48.4142136 34.5,48 L34.5,48 L34.5,36 C34.5,35.5857864 34.6678932,35.2107864 34.9393398,34.9393398 C35.2107864,34.6678932 35.5857864,34.5 36,34.5 L36,34.5 Z" id="矩形" stroke="#818181" fill="#FFFFFF" transform="translate(50.000000, 44.500000) scale(-1, 1) translate(-50.000000, -44.500000) "></path>
                <rect id="矩形" fill="#0067D1" transform="translate(50.000000, 39.500000) scale(-1, 1) translate(-50.000000, -39.500000) " x="40" y="39" width="20" height="1"></rect>
                <rect id="矩形备份" fill="#0067D1" transform="translate(46.000000, 44.500000) scale(-1, 1) translate(-46.000000, -44.500000) " x="40" y="44" width="12" height="1"></rect>
                <path d="M47.3652925,60.2860775 C48.8751985,59.1955899 50.8928681,59.1519704 52.4433952,60.155219 L52.6347075,60.2860775 L86,84.7613549 C86,85.1079575 85.7190231,85.3889344 85.3724205,85.3889344 C85.2389138,85.3889344 85.1088859,85.3463588 85.0012346,85.2673955 L52.0492169,61.0967568 L52.0492169,61.0967568 C50.884166,60.2553311 49.3304317,60.2152632 48.1283633,60.9765531 L47.9507831,61.0967568 L14.9987654,85.2673955 C14.7192869,85.4723958 14.3265392,85.4120193 14.1215389,85.1325408 C14.0425756,85.0248894 14,84.8948615 14,84.7613549 L14,84.7613549 L14,84.7613549 L47.3652925,60.2860775 Z" id="路径-312" fill="#818181" fill-rule="nonzero"></path>
                <path d="M85.5,45.8735441 L85.5,84.0235805 L55.9076675,63.2547072 L85.5,45.8735441 Z" id="路径-313" stroke="#818181" fill="#EEEEEE"></path>
                <path d="M44.5,45.8735441 L44.5,84.0235805 L14.9076675,63.2547072 L44.5,45.8735441 Z" id="路径-313备份" stroke="#818181" fill="#EEEEEE" transform="translate(29.500000, 65.500000) scale(-1, 1) translate(-29.500000, -65.500000) "></path>
                <g id="编组" transform="translate(74.000000, 65.000000)">
                    <circle id="椭圆形" stroke="#818181" fill="#FFFFFF" cx="11.5" cy="11.5" r="11"></circle>
                    <path d="M13,6.81366965 L13,13.1863303 C13,13.635476 12.552,14 12,14 C11.448,14 11,13.635476 11,13.1863303 L11,6.81366965 C11,6.364524 11.448,6 12,6 C12.552,6 13,6.364524 13,6.81366965 Z" id="路径" fill="#0067D1"></path>
                    <path d="M11,17 C11,16.447 11.448,16 12,16 C12.552,16 13,16.447 13,17 C13,17.553 12.552,18 12,18 C11.448,18 11,17.553 11,17 Z" id="路径" fill="#0067D1"></path>
                </g>
            </g>
        </g>
    </g>
</svg>