<?xml version="1.0" encoding="UTF-8"?>
<svg viewBox="0 0 200 160" version="1.1" xmlns="http://www.w3.org/2000/svg" xmlns:xlink="http://www.w3.org/1999/xlink">
    <defs>
        <rect id="path-1" x="89" y="33" width="70" height="48"></rect>
        <mask id="mask-2" maskContentUnits="userSpaceOnUse" maskUnits="objectBoundingBox" x="0" y="0" width="70" height="48" fill="white">
            <use xlink:href="#path-1"></use>
        </mask>
    </defs>
    <g id="页面-1" stroke="none" stroke-width="1" fill="none" fill-rule="evenodd">
        <g id="空状态（文案统一）" transform="translate(-504.000000, -385.000000)">
            <g id="500:服务器异常" transform="translate(504.000000, 385.000000)">
                <rect id="矩形" x="0" y="0" width="200" height="160"></rect>
                <use id="矩形" stroke="#EEEEEE" mask="url(#mask-2)" stroke-width="2" stroke-dasharray="2" xlink:href="#path-1"></use>
                <g id="编组-2" transform="translate(105.500000, 68.500000)">
                    <path d="M64,41 L64,59.5 C64,59.9142136 63.8321068,60.2892136 63.5606602,60.5606602 C63.2892136,60.8321068 62.9142136,61 62.5,61 L62.5,61 L2.5,61 C2.08578644,61 1.71078644,60.8321068 1.43933983,60.5606602 C1.16789322,60.2892136 1,59.9142136 1,59.5 L1,59.5 L1,41 L64,41 Z" id="矩形" stroke="#818181" fill="#FFFFFF"></path>
                    <rect id="矩形备份-2" stroke="#818181" fill="#FFFFFF" x="1" y="21" width="63" height="20"></rect>
                    <path d="M62.5,1 C62.9142136,1 63.2892136,1.16789322 63.5606602,1.43933983 C63.8321068,1.71078644 64,2.08578644 64,2.5 L64,2.5 L64,21 L1,21 L1,2.5 C1,2.08578644 1.16789322,1.71078644 1.43933983,1.43933983 C1.71078644,1.16789322 2.08578644,1 2.5,1 L2.5,1 Z" id="矩形备份-5" stroke="#818181" fill="#FFFFFF"></path>
                    <circle id="椭圆形" fill="#0067D1" cx="53" cy="11" r="2.5"></circle>
                    <circle id="椭圆形备份-4" fill="#EEEEEE" cx="53" cy="31" r="2.5"></circle>
                    <circle id="椭圆形备份-5" fill="#EEEEEE" cx="53" cy="51" r="2.5"></circle>
                    <rect id="矩形" fill="#EEEEEE" x="27.5" y="50.5" width="19" height="1"></rect>
                    <rect id="矩形备份-4" fill="#EEEEEE" x="27.5" y="30.5" width="19" height="1"></rect>
                    <rect id="矩形备份-6" fill="#EEEEEE" x="27.5" y="10.5" width="19" height="1"></rect>
                </g>
                <rect id="矩形备份-3" fill="#818181" x="16" y="129" width="158" height="1"></rect>
                <rect id="矩形备份-8" fill="#818181" x="178" y="129" width="6" height="1"></rect>
                <g id="编组-2备份" transform="translate(24.000000, 23.000000)">
                    <g id="电脑" transform="translate(0.000000, 30.000000)" stroke="#818181">
                        <path d="M107,0.5 C107.966498,0.5 108.841498,0.891750844 109.474874,1.52512627 C110.108249,2.15850169 110.5,3.03350169 110.5,4 L110.5,4 L110.5,67.5 L8.5,67.5 L8.5,4 C8.5,3.03350169 8.89175084,2.15850169 9.52512627,1.52512627 C10.1585017,0.891750844 11.0335017,0.5 12,0.5 L12,0.5 Z" id="矩形" fill="#EEEEEE"></path>
                        <path d="M118,67.5 L118.5,72 C118.5,73.2426407 117.99632,74.3676407 117.181981,75.1819805 C116.367641,75.9963203 115.242641,76.5 114,76.5 L114,76.5 L5,76.5 C3.75735931,76.5 2.63235931,75.9963203 1.81801948,75.1819805 C1.00367966,74.3676407 0.5,73.2426407 0.5,72 L0.5,72 L0.5,68 L118,67.5 Z" id="矩形备份" fill="#FFFFFF"></path>
                        <path d="M75.3491942,67.5 L74.7922849,69.5884097 C74.7206101,69.8571903 74.5630625,70.0850879 74.3538904,70.2457903 C74.1447183,70.4064927 73.8839215,70.5 73.6057484,70.5 L73.6057484,70.5 L46.3942516,70.5 C46.1160785,70.5 45.8552817,70.4064927 45.6461096,70.2457903 C45.4369375,70.0850879 45.2793899,69.8571903 45.2077151,69.5884097 L45.2077151,69.5884097 L44.6508058,67.5 L75.3491942,67.5 Z" id="矩形" fill="#EEEEEE"></path>
                        <path d="M104,4.5 C104.690356,4.5 105.315356,4.77982203 105.767767,5.23223305 C106.220178,5.68464406 106.5,6.30964406 106.5,7 L106.5,7 L106.5,67.5 L12.5,67.5 L12.5,7 C12.5,6.30964406 12.779822,5.68464406 13.232233,5.23223305 C13.6846441,4.77982203 14.3096441,4.5 15,4.5 L15,4.5 Z" id="矩形" fill="#FFFFFF"></path>
                    </g>
                    <g id="编组" transform="translate(25.000000, 54.000000)">
                        <circle id="椭圆形" fill="#0067D1" cx="13" cy="13" r="13"></circle>
                        <path d="M18.1333333,7.86666667 C18.6119801,8.34531345 18.6119801,9.12135323 18.1333334,9.60000003 L14.7332969,13.0000367 L14.7332969,13.0000367 L18.1333259,16.4000074 C18.6119727,16.878646 18.6119793,17.6546791 18.1333408,18.1333259 C18.1333383,18.1333284 18.1333358,18.1333309 18.1333333,18.1333333 C17.6546907,18.611976 16.8786575,18.611976 16.4000149,18.1333333 C16.4000124,18.1333309 16.4000099,18.1333284 16.4000074,18.1333259 L13.0000367,14.7332969 L13.0000367,14.7332969 L9.60000003,18.1333334 C9.12135323,18.6119801 8.34531345,18.6119801 7.86666667,18.1333333 C7.38802811,17.6546948 7.38802811,16.8786683 7.86666667,16.4000298 C7.86667163,16.4000248 7.8666766,16.4000199 7.86668156,16.4000149 L11.2667766,13.0000367 L11.2667766,13.0000367 L7.8666741,9.59999257 C7.38802732,9.12135399 7.38802066,8.34532088 7.86665923,7.8666741 C7.86666171,7.86667162 7.86666419,7.86666914 7.86666667,7.86666667 C8.34530934,7.38802399 9.12134246,7.38802399 9.59998513,7.86666667 C9.59998761,7.86666914 9.59999009,7.86667162 9.59999257,7.8666741 L13.0000367,11.2667766 L13.0000367,11.2667766 L16.4000149,7.86668156 C16.8786452,7.38803478 17.6546717,7.38802144 18.1333184,7.86665177 C18.1333234,7.86665674 18.1333284,7.8666617 18.1333333,7.86666667 Z" id="路径" fill="#FFFFFF"></path>
                    </g>
                    <g id="编组-3" transform="translate(56.000000, 0.000000)">
                        <rect id="矩形" stroke="#818181" fill="#FFFFFF" transform="translate(10.000000, 10.000000) rotate(-315.000000) translate(-10.000000, -10.000000) " x="3" y="3" width="14" height="14"></rect>
                        <path d="M11,11 L11,6.5 C11,5.94771525 10.5522847,5.5 10,5.5 C9.44771525,5.5 9,5.94771525 9,6.5 L9,11 C9,11.5522847 9.44771525,12 10,12 C10.5522847,12 11,11.5522847 11,11 Z M10.0077519,15 C10.2868217,15 10.5219638,14.8992248 10.7131783,14.6976744 C10.9043928,14.496124 11,14.255814 11,13.9767442 C11,13.6976744 10.9018088,13.4651163 10.7054264,13.2790698 C10.5090439,13.0930233 10.2739018,13 10,13 C9.72609819,13 9.49095607,13.0981912 9.29457364,13.2945736 C9.09819121,13.4909561 9,13.7260982 9,14 C9,14.2739018 9.09819121,14.5090439 9.29457364,14.7054264 C9.49095607,14.9018088 9.72868217,15 10.0077519,15 Z" id="!" fill="#0067D1" fill-rule="nonzero"></path>
                    </g>
                </g>
                <g id="编组-3备份" transform="translate(81.000000, 75.000000)" fill="#818181">
                    <path d="M0.5,0 L5.5,0 C5.77614237,-5.07265313e-17 6,0.223857625 6,0.5 C6,0.776142375 5.77614237,1 5.5,1 L0.5,1 C0.223857625,1 3.38176876e-17,0.776142375 0,0.5 C-3.38176876e-17,0.223857625 0.223857625,5.07265313e-17 0.5,0 Z" id="矩形"></path>
                    <path d="M11.5,0 L36.5,0 C36.7761424,-5.07265313e-17 37,0.223857625 37,0.5 C37,0.776142375 36.7761424,1 36.5,1 L11.5,1 C11.2238576,1 11,0.776142375 11,0.5 C11,0.223857625 11.2238576,5.07265313e-17 11.5,0 Z" id="矩形"></path>
                    <path d="M0.5,7 L36.5,7 C36.7761424,7 37,7.22385763 37,7.5 C37,7.77614237 36.7761424,8 36.5,8 L0.5,8 C0.223857625,8 3.38176876e-17,7.77614237 0,7.5 C-3.38176876e-17,7.22385763 0.223857625,7 0.5,7 Z" id="矩形备份-2"></path>
                    <path d="M0.5,14 L31.5,14 C31.7761424,14 32,14.2238576 32,14.5 C32,14.7761424 31.7761424,15 31.5,15 L0.5,15 C0.223857625,15 3.38176876e-17,14.7761424 0,14.5 C-3.38176876e-17,14.2238576 0.223857625,14 0.5,14 Z" id="矩形备份-4"></path>
                    <path d="M0.5,21 L31.5,21 C31.7761424,21 32,21.2238576 32,21.5 C32,21.7761424 31.7761424,22 31.5,22 L0.5,22 C0.223857625,22 3.38176876e-17,21.7761424 0,21.5 C-3.38176876e-17,21.2238576 0.223857625,21 0.5,21 Z" id="矩形备份-5"></path>
                    <path d="M0.5,28 L5.5,28 C5.77614237,28 6,28.2238576 6,28.5 C6,28.7761424 5.77614237,29 5.5,29 L0.5,29 C0.223857625,29 3.38176876e-17,28.7761424 0,28.5 C-3.38176876e-17,28.2238576 0.223857625,28 0.5,28 Z" id="矩形备份-6"></path>
                    <rect id="矩形备份-7" x="10" y="28" width="8" height="1"></rect>
                </g>
            </g>
        </g>
    </g>
</svg>