<?xml version="1.0" encoding="UTF-8"?>
<svg viewBox="0 0 100 100" version="1.1" xmlns="http://www.w3.org/2000/svg" xmlns:xlink="http://www.w3.org/1999/xlink">
    <g id="页面-1" stroke="none" stroke-width="1" fill="none" fill-rule="evenodd">
        <g id="空状态（文案统一）" transform="translate(-760.000000, -691.000000)">
            <g id="网络异常" transform="translate(760.000000, 691.000000)">
                <rect id="矩形" x="0" y="0" width="100" height="100"></rect>
                <rect id="矩形" stroke="#818181" fill="#FFFFFF" x="10.5" y="24.5" width="77" height="63"></rect>
                <rect id="矩形" stroke="#818181" fill="#FFFFFF" x="29.5" y="47.5" width="39" height="24"></rect>
                <circle id="椭圆形" stroke="#818181" cx="49" cy="62" r="2.5"></circle>
                <circle id="椭圆形备份-3" stroke="#818181" cx="58" cy="62" r="2.5"></circle>
                <circle id="椭圆形备份-4" stroke="#818181" cx="40" cy="62" r="2.5"></circle>
                <path d="M31,47 L67,47 C68.1045695,47 69,47.8954305 69,49 L69,53 L69,53 L29,53 L29,49 C29,47.8954305 29.8954305,47 31,47 Z" id="矩形" fill="#0067D1"></path>
                <path d="M84,24.5 C84.9664983,24.5 85.8414983,24.8917508 86.4748737,25.5251263 C87.1082492,26.1585017 87.5,27.0335017 87.5,28 L87.5,28 L87.5,36.5 L10.5,36.5 L10.5,28 C10.5,27.0335017 10.8917508,26.1585017 11.5251263,25.5251263 C12.1585017,24.8917508 13.0335017,24.5 14,24.5 L14,24.5 L84,24.5 Z" id="矩形" stroke="#818181" fill="#EEEEEE"></path>
                <circle id="椭圆形" fill="#818181" cx="80.5" cy="30.5" r="1.5"></circle>
                <circle id="椭圆形备份" fill="#818181" cx="75.5" cy="30.5" r="1.5"></circle>
                <circle id="椭圆形备份-2" fill="#818181" cx="70.5" cy="30.5" r="1.5"></circle>
                <circle id="椭圆形" stroke="#818181" fill="#FFFFFF" cx="86.5" cy="76.5" r="11"></circle>
                <g id="编组" transform="translate(80.000000, 70.000000)">
                    <path d="M7.85555556,10.1444444 C7.93532968,10.2242186 7.93532968,10.353558 7.85555556,10.4333321 C7.85555535,10.4333323 7.85555514,10.4333325 7.85555494,10.4333327 L7.28888281,11 L7.28888281,11 L7.85555494,11.5666673 C7.9353294,11.6464411 7.93532995,11.7757805 7.85555617,11.8555549 C7.85555597,11.8555551 7.85555576,11.8555553 7.85555556,11.8555556 C7.77578143,11.9353297 7.64644202,11.9353297 7.5666679,11.8555556 C7.5666677,11.8555553 7.56666749,11.8555551 7.56666728,11.8555549 L7,11.2888828 L7,11.2888828 L6.43333272,11.8555549 C6.35355893,11.9353294 6.22421953,11.93533 6.14444506,11.8555562 C6.14444486,11.855556 6.14444465,11.8555558 6.14444444,11.8555556 C6.06467101,11.7757821 6.06467101,11.6464438 6.14444444,11.5666704 C6.14444506,11.5666698 6.14444568,11.5666691 6.14444631,11.5666685 L6.71112943,11 L6.71112943,11 L6.14444631,10.4333315 C6.06467184,10.3535591 6.06467018,10.2242208 6.14444258,10.1444463 C6.1444432,10.1444457 6.14444382,10.1444451 6.14444444,10.1444444 C6.22421788,10.064671 6.35355618,10.064671 6.43332961,10.1444444 C6.43333023,10.1444451 6.43333085,10.1444457 6.43333147,10.1444463 L7,10.7111294 L7,10.7111294 L7.56666853,10.1444463 C7.64644094,10.0646718 7.77577923,10.0646702 7.85555369,10.1444426 C7.85555432,10.1444432 7.85555494,10.1444438 7.85555556,10.1444444 Z" id="路径" stroke="#2070F3" stroke-width="0.4" fill="#2070F3"></path>
                    <path d="M9.52371344,7.13037033 C9.75889355,7.36571165 9.75889355,7.74610991 9.52371344,7.98145123 C9.40642413,8.09882095 9.25244431,8.15780675 9.09846449,8.15780675 C8.94448468,8.15780675 8.79050486,8.09882095 8.67321555,7.98145123 C7.73911142,7.04670679 6.21795925,7.04670679 5.28385512,7.98145123 C5.0492765,8.21679256 4.66853734,8.21679256 4.43335723,7.98145123 C4.1987786,7.74610991 4.1987786,7.36571165 4.43335723,7.13037033 C5.83722009,5.72554513 8.11985058,5.72554513 9.52371344,7.13037033 Z M11.65477,4.99791309 C11.8899502,5.23325441 11.8899502,5.61365267 11.65477,5.84899399 C11.5374807,5.96636371 11.3835009,6.02534951 11.2295211,6.02534951 C11.0755413,6.02534951 10.9215615,5.96636371 10.8042722,5.84899399 C8.69607193,3.73934861 5.26520913,3.73934861 3.1570089,5.84899399 C2.92182879,6.08433532 2.54169112,6.08433532 2.30651101,5.84899399 C2.0713309,5.61365267 2.0713309,5.23325441 2.30651101,4.99791309 C4.88386849,2.41878885 9.07741257,2.41878885 11.65477,4.99791309 Z M13.5549171,3.09640333 C13.7900972,3.33174466 13.7900972,3.71214291 13.5549171,3.94748424 C13.4376278,4.06485395 13.2836479,4.12383976 13.1296681,4.12383976 C12.9756883,4.12383976 12.8217085,4.06485395 12.7044192,3.94748424 C9.54843442,0.789336071 4.41296693,0.789937967 1.25818514,3.94748424 C1.02300503,4.18282556 0.642265871,4.18282556 0.407687244,3.94748424 C0.172507133,3.71214291 0.172507133,3.33174466 0.407687244,3.09640333 C4.03162629,-0.5300199 9.93097803,-0.5300199 13.5549171,3.09640333 Z" id="形状结合" fill="#818181"></path>
                </g>
            </g>
        </g>
    </g>
</svg>