<?xml version="1.0" encoding="UTF-8"?>
<svg width="96px" height="104px" viewBox="0 0 96 104" version="1.1" xmlns="http://www.w3.org/2000/svg" xmlns:xlink="http://www.w3.org/1999/xlink">
    <g id="空数据/空数据" stroke="none" stroke-width="1" fill="none" fill-rule="evenodd">
        <g id="编组备份" transform="translate(0.000000, 5.000000)">
            <g id="编组-4备份-2" transform="translate(0.000000, 46.057916)">
                <path d="M84.1455921,0.4 L84.1455921,43.4676929 C84.1455921,44.4618055 83.7426484,45.3618055 83.0911765,46.0132773 C82.4397046,46.6647492 81.5397046,47.0676929 80.5455921,47.0676929 L80.5455921,47.0676929 L22.1367598,47.0676929 C21.1426473,47.0676929 20.2426473,46.6647492 19.5911754,46.0132773 C18.9397035,45.3618055 18.5367598,44.4618055 18.5367598,43.4676929 L18.5367598,43.4676929 L18.5367598,0.4 L84.1455921,0.4 Z" id="矩形备份" stroke="#000000" stroke-width="0.8" fill="#D1D1D1"></path>
                <path d="M70.5114471,0.4 L70.5114471,43.4676929 C70.5114471,44.4618055 70.1085034,45.3618055 69.4570315,46.0132773 C68.8055596,46.6647492 67.9055596,47.0676929 66.9114471,47.0676929 L66.9114471,47.0676929 L13.1231102,47.0676929 C12.1289976,47.0676929 11.2289976,46.6647492 10.5775257,46.0132773 C9.92605388,45.3618055 9.52311015,44.4618055 9.52311015,43.4676929 L9.52311015,43.4676929 L9.52311015,0.4 L70.5114471,0.4 Z" id="矩形" stroke="#000000" stroke-width="0.8" fill="#FFFFFF"></path>
                <path d="M61.3683089,0.4 L68.5410587,11.7168711 C68.7775867,12.0900552 68.8404598,12.5237818 68.7509049,12.9233445 C68.66135,13.3229071 68.4193671,13.6883056 68.046183,13.9248335 C67.790001,14.0872044 67.4929441,14.1734145 67.1896397,14.1734145 L67.1896397,14.1734145 L8.56488254,14.1734145 C7.83013778,14.1734145 7.13226945,13.9501288 6.5495346,13.5564285 C5.96679974,13.1627282 5.49919834,12.5986133 5.22498744,11.9169549 L5.22498744,11.9169549 L0.592059358,0.4 L61.3683089,0.4 Z" id="矩形" stroke="#000000" stroke-width="0.8" fill="#FFFFFF" transform="translate(35.412571, 7.286707) scale(-1, 1) translate(-35.412571, -7.286707) "></path>
                <path d="M84.2778389,0.4 L94.0234607,13.2101301 L81.0313353,14.1734145 C80.3809512,14.1734145 79.7558586,13.9979896 79.2136678,13.6808386 C78.6714769,13.3636876 78.2121879,12.9048105 77.8934109,12.337906 L77.8934109,12.337906 L71.180587,0.4 L84.2778389,0.4 Z" id="矩形备份-4" stroke="#000000" stroke-width="0.8" fill="#FFFFFF"></path>
                <path d="M15.4326854,30.3959788 L26.4506839,30.3959788 C27.1870636,30.3959788 27.7840173,30.9953745 27.7840173,31.7347667 L27.7840173,34.4701734 C27.7840173,35.2095656 27.1870636,35.8089613 26.4506839,35.8089613 L15.4326854,35.8089613 C14.6963057,35.8089613 14.0993521,35.2095656 14.0993521,34.4701734 L14.0993521,31.7347667 C14.0993521,30.9953745 14.6963057,30.3959788 15.4326854,30.3959788 Z" id="矩形" fill="#007DFF"></path>
                <line x1="14.5140389" y1="41.2219438" x2="20.7343413" y2="41.2219438" id="路径-159备份-2" stroke="#000000" stroke-width="0.8" stroke-linecap="round"></line>
                <line x1="14.5140389" y1="38.9318359" x2="26.9546436" y2="38.9318359" id="路径-159" stroke="#000000" stroke-width="0.8" stroke-linecap="round"></line>
            </g>
            <g id="编组-6备份-2" transform="translate(66.070778, -0.000000)" stroke="#000000" stroke-linecap="round" stroke-width="0.8">
                <path d="M4.2502628,7.66467982 C4.9283829,8.97893757 5.94556305,10.9503242 7.30180325,13.5788397 C7.35452398,13.6810172 7.47973006,13.7212189 7.58145886,13.6686327 C7.59331425,13.6625043 7.60454878,13.6552407 7.61500611,13.6469428 L19.2529673,4.41224803 C19.3426996,4.34104563 19.3576838,4.21020431 19.2864354,4.12000577 C19.2497176,4.07352197 19.1950342,4.04487664 19.1360872,4.04124739 L2.19511284,2.99822557 C2.08073028,2.99118327 1.98257567,3.07845663 1.97587837,3.19315608 C1.97369614,3.23052957 1.9816116,3.26782973 1.99879004,3.30112309 L3.72475549,6.64619938" id="路径" fill="#FFFFFF" transform="translate(10.653478, 8.344784) rotate(22.000000) translate(-10.653478, -8.344784) "></path>
                <polyline id="路径-7备份" stroke-linejoin="round" transform="translate(11.602324, 8.079389) rotate(29.000000) translate(-11.602324, -8.079389) " points="18.8331829 3.68983406 4.37146603 8.80001034 4.37781047 12.4689449 6.06060504 11.2333873"></polyline>
            </g>
            <path d="M26.338253,27.7197705 C33.6278867,33.6504263 41.1339873,36.6830878 48.1160491,33.8341969 C55.0981108,30.985306 54.9446899,21.1607867 49.0363968,20.561935 C43.1281036,19.9630832 40.2727061,28.696167 49.9790582,30.4260045 C59.6854104,32.1558419 64.7919086,23.5641916 68.9722085,13.0426543" id="路径-101备份-4" stroke="#000000" stroke-width="0.8" stroke-linecap="round" stroke-linejoin="round" transform="translate(47.655231, 23.979328) scale(-1, 1) rotate(-112.000000) translate(-47.655231, -23.979328) "></path>
            <path d="M36.0704659,43.3952006 C37.1750354,43.3952006 38.0704659,42.4961069 38.0704659,41.3870187 C38.0704659,40.2779305 37.1750354,39.3788369 36.0704659,39.3788369 C34.9658964,39.3788369 34.0704659,40.2779305 34.0704659,41.3870187 C34.0704659,42.4961069 34.9658964,43.3952006 36.0704659,43.3952006 Z" id="椭圆形备份-2" fill="#000000"></path>
            <path d="M65.4037993,9.64192471 C66.1401789,9.64192471 66.7371326,9.04252896 66.7371326,8.30313683 C66.7371326,7.56374471 66.1401789,6.96434895 65.4037993,6.96434895 C64.6674196,6.96434895 64.0704659,7.56374471 64.0704659,8.30313683 C64.0704659,9.04252896 64.6674196,9.64192471 65.4037993,9.64192471 Z" id="椭圆形备份-3" fill="#000000"></path>
        </g>
    </g>
</svg>