<?xml version="1.0" standalone="no"?><!DOCTYPE svg PUBLIC "-//W3C//DTD SVG 1.1//EN" "http://www.w3.org/Graphics/SVG/1.1/DTD/svg11.dtd"><svg class="icon" width="20px" height="20.00px" viewBox="0 0 1024 1024" version="1.1" xmlns="http://www.w3.org/2000/svg"><path fill="#595959" d="M925.99596 99.038384c-25.470707-25.6-60.121212-39.822222-96.323233-39.822222H194.19798c-36.072727 0-70.723232 14.351515-96.323233 39.822222-25.6 25.6-39.822222 60.121212-39.822222 96.323232v635.474748c0 36.072727 14.351515 70.723232 39.822222 96.323232C123.474747 952.759596 158.125253 967.111111 194.19798 967.111111h635.474747c36.072727 0 70.723232-14.351515 96.323233-39.951515 25.6-25.6 39.951515-60.121212 39.951515-96.323232V195.361616c0-36.072727-14.351515-70.723232-39.951515-96.323232z m-550.270707 5.559596h272.290909v227.167677H375.725253V104.59798z m56.242424 360.468687l31.935353-32.19394 48.09697 48.226263 48.09697-48.226263 32.193939 32.19394-48.09697 48.096969 48.226263 48.226263-32.193939 31.935354-48.226263-48.09697-48.226263 48.09697-31.935353-31.935354 48.226262-48.226263-48.096969-48.096969zM103.434343 195.361616c0-24.048485 9.567677-47.191919 26.634344-64.129293 17.066667-17.066667 40.080808-26.634343 64.129293-26.634343h136.145454v227.167677H103.434343V195.361616z m817.002021 635.733333c0 24.048485-9.567677 47.191919-26.634344 64.258586-17.066667 17.066667-40.080808 26.634343-64.129293 26.634344H194.19798c-24.048485 0-47.191919-9.567677-64.258586-26.634344C112.872727 878.157576 103.434343 855.014141 103.434343 830.836364V694.690909h226.909091v226.909091h45.381819V694.690909h272.290909v226.909091h45.381818V694.690909h226.909091v136.40404z m0-499.329292H693.527273V104.59798h136.145454c24.048485 0 47.191919 9.567677 64.129293 26.634343 17.066667 17.066667 26.634343 40.080808 26.634344 64.129293v136.404041z" /></svg>