<?xml version="1.0" standalone="no"?><!DOCTYPE svg PUBLIC "-//W3C//DTD SVG 1.1//EN" "http://www.w3.org/Graphics/SVG/1.1/DTD/svg11.dtd"><svg class="icon" width="20px" height="20.00px" viewBox="0 0 1024 1024" version="1.1" xmlns="http://www.w3.org/2000/svg"><path fill="#595959" d="M204.8 73.142857h614.4a131.657143 131.657143 0 0 1 131.657143 131.657143v614.4a131.657143 131.657143 0 0 1-131.657143 131.657143H204.8A131.657143 131.657143 0 0 1 73.142857 819.2V204.8A131.84 131.84 0 0 1 204.8 73.142857z m0 43.885714a87.771429 87.771429 0 0 0-87.771429 87.771429v614.4a87.771429 87.771429 0 0 0 87.771429 87.771429h614.4a87.771429 87.771429 0 0 0 87.771429-87.771429V204.8a87.771429 87.771429 0 0 0-87.771429-87.771429zM73.142857 336.457143h877.714286v44.068571H73.142857zM336.64 117.028571h43.885714v526.628572h-43.885714z m307.017143 0h44.068571v526.628572H643.657143zM73.142857 599.771429v219.428571a131.657143 131.657143 0 0 0 131.657143 131.657143h614.4a131.657143 131.657143 0 0 0 131.657143-131.657143v-219.428571z m526.628572 197.485714h-65.645715v65.828571H490.057143v-65.828571h-65.828572v-43.885714h65.828572v-65.828572h44.068571v65.828572h65.645715z" /></svg>