<?xml version="1.0" standalone="no"?><!DOCTYPE svg PUBLIC "-//W3C//DTD SVG 1.1//EN" "http://www.w3.org/Graphics/SVG/1.1/DTD/svg11.dtd"><svg class="icon" width="20px" height="20.00px" viewBox="0 0 1024 1024" version="1.1" xmlns="http://www.w3.org/2000/svg"><path fill="#595959" d="M336.457143 73.142857h43.885714v877.714286h-43.885714z m307.382857 0h43.702857v877.714286h-43.702857z m-438.857143 0h614.4A131.657143 131.657143 0 0 1 950.857143 204.8v614.4a131.474286 131.474286 0 0 1-131.474286 131.657143h-614.4A131.657143 131.657143 0 0 1 73.142857 819.2V204.8A131.84 131.84 0 0 1 204.982857 73.142857z m0 43.885714a87.588571 87.588571 0 0 0-87.771428 87.771429v614.4a87.588571 87.588571 0 0 0 87.771428 87.771429h614.4a87.771429 87.771429 0 0 0 87.771429-87.771429V204.8a87.771429 87.771429 0 0 0-87.771429-87.771429zM73.142857 336.457143h877.714286v307.2H73.142857z m292.571429 43.885714v219.428572h292.571428v-219.428572z" /></svg>