<?xml version="1.0" standalone="no"?><!DOCTYPE svg PUBLIC "-//W3C//DTD SVG 1.1//EN" "http://www.w3.org/Graphics/SVG/1.1/DTD/svg11.dtd"><svg class="icon" width="20px" height="20.00px" viewBox="0 0 1024 1024" version="1.1" xmlns="http://www.w3.org/2000/svg"><path fill="#595959" d="M73.142857 599.771429h877.714286v43.885714H73.142857zM336.457143 380.342857h43.885714v526.628572h-43.885714z m307.2 0h43.885714v526.628572h-43.885714zM204.8 73.142857h614.4a131.657143 131.657143 0 0 1 131.657143 131.657143v614.4a131.657143 131.657143 0 0 1-131.657143 131.657143H204.8A131.657143 131.657143 0 0 1 73.142857 819.2V204.8A131.657143 131.657143 0 0 1 204.8 73.142857z m0 43.885714a87.771429 87.771429 0 0 0-87.771429 87.771429v614.4a87.588571 87.588571 0 0 0 87.771429 87.771429h614.4a87.588571 87.588571 0 0 0 87.771429-87.771429V204.8a87.771429 87.771429 0 0 0-87.771429-87.771429zM819.2 73.142857H204.8A131.657143 131.657143 0 0 0 73.142857 204.8v219.428571h877.714286v-219.428571A131.657143 131.657143 0 0 0 819.2 73.142857z m-219.428571 197.485714h-65.828572v65.828572h-43.885714v-65.828572h-65.828572v-43.885714h65.828572V160.914286h43.885714v65.828571h65.828572z" /></svg>