<?xml version="1.0" encoding="UTF-8"?>
<svg width="31px" height="34px" viewBox="0 0 31 34" version="1.1" xmlns="http://www.w3.org/2000/svg" xmlns:xlink="http://www.w3.org/1999/xlink">
    <title>angular</title>
    <g id="页面一" stroke="none" stroke-width="1" fill="none" fill-rule="evenodd">
        <g id="弹出2" transform="translate(-67.000000, -114.000000)">
            <g id="编组-20" transform="translate(24.000000, 14.000000)">
                <g id="angular" transform="translate(42.000000, 100.000000)">
                    <rect id="矩形" fill-opacity="0" fill="#FFFFFF" x="0" y="0" width="34" height="34"></rect>
                    <polygon id="路径" fill="#DD0533" fill-rule="nonzero" points="16.5 0 16.5 0 16.5 0 1 5.644 3.3641246 26.571 16.5 34 16.5 34 16.5 34 29.6358754 26.571 32 5.644"></polygon>
                    <polygon id="路径" fill="#C40430" fill-rule="nonzero" points="16.5 0 16.5 3.774 16.5 3.757 16.5 20.978 16.5 20.978 16.5 34 16.5 34 29.6358754 26.571 32 5.644"></polygon>
                    <path d="M16.5171014,4.74418605 L6.56410256,26.8837209 L6.56410256,26.8837209 L10.2751004,26.8837209 L10.2751004,26.8837209 L12.275961,21.929894 L20.724039,21.929894 L22.7248996,26.8837209 L22.7248996,26.8837209 L26.4358974,26.8837209 L26.4358974,26.8837209 L16.5171014,4.74418605 L16.5171014,4.74418605 L16.5171014,4.74418605 L16.5171014,4.74418605 L16.5171014,4.74418605 Z M19.4243347,18.876165 L13.609868,18.876165 L16.5171014,11.9374142 L19.4243347,18.876165 Z" id="形状" fill="#FFFFFF" fill-rule="nonzero"></path>
                </g>
            </g>
        </g>
    </g>
</svg>