<?xml version="1.0" encoding="UTF-8"?>
<svg width="125px" height="125px" viewBox="0 0 125 125" version="1.1" xmlns="http://www.w3.org/2000/svg" xmlns:xlink="http://www.w3.org/1999/xlink">
    <title>Ring diagram 环图</title>
    <defs>
        <linearGradient x1="50%" y1="45.9685271%" x2="50%" y2="100%" id="linearGradient-1">
            <stop stop-color="#ECF3FB" offset="0%"></stop>
            <stop stop-color="#FFFFFF" offset="100%"></stop>
        </linearGradient>
        <linearGradient x1="50.3956523%" y1="35.9331967%" x2="50%" y2="64.0668033%" id="linearGradient-2">
            <stop stop-color="#E3EFFD" stop-opacity="0.00575352382" offset="0%"></stop>
            <stop stop-color="#E5F0FD" offset="34.0601199%"></stop>
            <stop stop-color="#F0F6FE" offset="100%"></stop>
        </linearGradient>
        <linearGradient x1="33.3333333%" y1="34.495573%" x2="96.9740837%" y2="65.4421891%" id="linearGradient-3">
            <stop stop-color="#D5E6F9" offset="0%"></stop>
            <stop stop-color="#F7FBFF" stop-opacity="0" offset="100%"></stop>
        </linearGradient>
        <linearGradient x1="90.9912104%" y1="29.4309598%" x2="33.3333333%" y2="67.7472684%" id="linearGradient-4">
            <stop stop-color="#D5E6F9" offset="0%"></stop>
            <stop stop-color="#E7F0F9" stop-opacity="0" offset="100%"></stop>
        </linearGradient>
        <linearGradient x1="-5.8027489%" y1="27.0499439%" x2="103.630422%" y2="71.1332543%" id="linearGradient-5">
            <stop stop-color="#CEE6FE" offset="0%"></stop>
            <stop stop-color="#8AB5F2" offset="100%"></stop>
        </linearGradient>
        <linearGradient x1="-5.8027489%" y1="27.0499439%" x2="103.630422%" y2="71.1332543%" id="linearGradient-6">
            <stop stop-color="#BFD6F9" offset="0%"></stop>
            <stop stop-color="#F3F6FE" offset="100%"></stop>
        </linearGradient>
        <linearGradient x1="89.8473889%" y1="61.7348066%" x2="0%" y2="61.7348066%" id="linearGradient-7">
            <stop stop-color="#CAD9F3" offset="0%"></stop>
            <stop stop-color="#D5E3F7" offset="100%"></stop>
        </linearGradient>
        <filter x="-18.5%" y="-60.0%" width="136.9%" height="220.0%" filterUnits="objectBoundingBox" id="filter-8">
            <feGaussianBlur stdDeviation="4" in="SourceGraphic"></feGaussianBlur>
        </filter>
        <linearGradient x1="46.5403065%" y1="86.8386573%" x2="96.1938916%" y2="-43.8247114%" id="linearGradient-9">
            <stop stop-color="#5073E5" offset="0%"></stop>
            <stop stop-color="#5E7CE0" offset="100%"></stop>
        </linearGradient>
        <linearGradient x1="46.5403065%" y1="86.8386573%" x2="96.1938916%" y2="-43.8247114%" id="linearGradient-10">
            <stop stop-color="#5073E5" offset="0%"></stop>
            <stop stop-color="#5E7CE0" offset="100%"></stop>
        </linearGradient>
        <linearGradient x1="44.0988019%" y1="63.7066298%" x2="128.792906%" y2="15.0904598%" id="linearGradient-11">
            <stop stop-color="#5073E5" offset="0%"></stop>
            <stop stop-color="#5E7CE0" offset="100%"></stop>
        </linearGradient>
        <linearGradient x1="46.3944299%" y1="86.8386573%" x2="98.1416386%" y2="-43.8247114%" id="linearGradient-12">
            <stop stop-color="#5073E5" offset="0%"></stop>
            <stop stop-color="#5E7CE0" offset="100%"></stop>
        </linearGradient>
        <linearGradient x1="46.4298892%" y1="86.8386573%" x2="97.6681852%" y2="-43.8247114%" id="linearGradient-13">
            <stop stop-color="#5073E5" offset="0%"></stop>
            <stop stop-color="#5E7CE0" offset="100%"></stop>
        </linearGradient>
        <linearGradient x1="46.4298892%" y1="86.8386573%" x2="97.6681852%" y2="-43.8247114%" id="linearGradient-14">
            <stop stop-color="#5073E5" offset="0%"></stop>
            <stop stop-color="#5E7CE0" offset="100%"></stop>
        </linearGradient>
    </defs>
    <g id="页面一" stroke="none" stroke-width="1" fill="none" fill-rule="evenodd">
        <g id="-TinyUI-Vue-组件总览3" transform="translate(-696.000000, -884.000000)">
            <g id="编组-25备份-9" transform="translate(598.000000, 851.000000)">
                <g id="Ring-diagram-环图" transform="translate(98.000000, 33.000000)">
                    <g id="编组">
                        <g transform="translate(9.000000, 1.000000)" id="多边形">
                            <polygon fill="url(#linearGradient-1)" opacity="0.54620216" points="53.2605623 0 106.521125 30.75 53.2605623 62 0 30.75"></polygon>
                            <polygon fill="url(#linearGradient-2)" points="53.2605623 61.5 106.521125 86.75 53.2605623 118 0 86.75"></polygon>
                            <polygon fill="url(#linearGradient-3)" opacity="0.600606283" points="53.2605623 62 53.2605623 123 7.39138783e-15 92.25 0 30.75"></polygon>
                            <polygon fill="url(#linearGradient-4)" opacity="0.791265578" points="53.2605623 62 106.521125 30.75 106.521125 92.25 53.2605623 123"></polygon>
                            <polygon fill="url(#linearGradient-5)" points="53.2605623 118.007802 53.2605623 123 7.39138783e-15 92.25 0 86.9161706"></polygon>
                            <polygon fill="url(#linearGradient-6)" transform="translate(79.630281, 104.958085) scale(-1, 1) translate(-79.630281, -104.958085) " points="106.260562 118.007802 106.260562 123 53 92.25 53 86.9161706"></polygon>
                        </g>
                        <ellipse id="椭圆形" fill="url(#linearGradient-7)" filter="url(#filter-8)" cx="62.5" cy="90" rx="32.5" ry="10"></ellipse>
                    </g>
                    <g id="NBcharts-PIE" transform="translate(36.000000, 35.000000)">
                        <path d="M11.9432141,13.1541593 C15.2567071,10.6884796 19.2867415,9.35567349 23.4284757,9.35567349 L23.4284757,14.1752629 C20.3376858,14.1752279 17.3302465,15.1698405 14.8575089,17.0098308 L11.9432141,13.1541593 L11.9432141,13.1541593 Z" id="路径" fill="#F9BE47" fill-rule="nonzero"></path>
                        <path d="M23.4284757,0 C32.6124471,0 41.2365283,4.38073519 46.6065533,11.7734888 C51.9765784,19.1662424 53.4378291,28.6697482 50.5338102,37.3151074 L36.981143,32.8333011 C38.4333472,28.510561 37.7028167,23.7586548 35.0177803,20.0621489 C32.3327438,16.3656431 28.0205809,14.1752432 23.4284757,14.1752629 L23.4284757,0 Z" id="路径" stroke="url(#linearGradient-10)" fill="url(#linearGradient-9)"></path>
                        <path d="M48.90792,36.7771743 C46.5155207,43.897816 41.2081509,49.6874238 34.2900479,52.7232546 C27.3721388,55.7589151 19.4848127,55.7589151 12.5669035,52.7232546 L17.6511684,41.3151969 C21.3310457,42.9297305 25.526468,42.9296017 29.2062446,41.3148419 C32.8860211,39.7000822 35.7089348,36.6204245 36.981143,32.8328165 L48.90792,36.7776589 L48.90792,36.7771743 Z" id="路径" fill="url(#linearGradient-11)" opacity="0.604724702"></path>
                        <path d="M13.9534768,49.6119661 C5.02836498,45.69523 -0.515458345,36.6993376 0.0379268453,27.0313782 L9.16616035,27.5460493 C8.82857721,33.4409061 12.2087553,38.9260598 17.65068,41.3142276 L13.9534768,49.6124508 L13.9534768,49.6119661 Z" id="路径" fill="url(#linearGradient-12)" opacity="0.303770519"></path>
                        <path d="M2.60496775,27.1762809 C2.95390564,21.0838076 5.99469965,15.4546596 10.9146395,11.7933341 L14.8575089,17.0103154 C11.4876321,19.5178249 9.40478155,23.3732337 9.1656719,27.5460493 L2.60496775,27.1762809 L2.60496775,27.1762809 Z" id="路径" stroke="url(#linearGradient-14)" fill="url(#linearGradient-13)"></path>
                    </g>
                    <g id="编组-6" transform="translate(68.500000, 58.500000)"></g>
                </g>
            </g>
        </g>
    </g>
</svg>