<?xml version="1.0" encoding="UTF-8"?>
<svg width="125px" height="125px" viewBox="0 0 125 125" version="1.1" xmlns="http://www.w3.org/2000/svg" xmlns:xlink="http://www.w3.org/1999/xlink">
    <title>ScrollText 文字滚动</title>
    <defs>
        <linearGradient x1="50%" y1="45.9685271%" x2="50%" y2="100%" id="linearGradient-1">
            <stop stop-color="#ECF3FB" offset="0%"></stop>
            <stop stop-color="#FFFFFF" offset="100%"></stop>
        </linearGradient>
        <linearGradient x1="50.3956523%" y1="35.9331967%" x2="50%" y2="64.0668033%" id="linearGradient-2">
            <stop stop-color="#E3EFFD" stop-opacity="0.00575352382" offset="0%"></stop>
            <stop stop-color="#E5F0FD" offset="34.0601199%"></stop>
            <stop stop-color="#F0F6FE" offset="100%"></stop>
        </linearGradient>
        <linearGradient x1="33.3333333%" y1="34.495573%" x2="96.9740837%" y2="65.4421891%" id="linearGradient-3">
            <stop stop-color="#D5E6F9" offset="0%"></stop>
            <stop stop-color="#F7FBFF" stop-opacity="0" offset="100%"></stop>
        </linearGradient>
        <linearGradient x1="90.9912104%" y1="29.4309598%" x2="33.3333333%" y2="67.7472684%" id="linearGradient-4">
            <stop stop-color="#D5E6F9" offset="0%"></stop>
            <stop stop-color="#E7F0F9" stop-opacity="0" offset="100%"></stop>
        </linearGradient>
        <linearGradient x1="-5.8027489%" y1="27.0499439%" x2="103.630422%" y2="71.1332543%" id="linearGradient-5">
            <stop stop-color="#CEE6FE" offset="0%"></stop>
            <stop stop-color="#8AB5F2" offset="100%"></stop>
        </linearGradient>
        <linearGradient x1="-5.8027489%" y1="27.0499439%" x2="103.630422%" y2="71.1332543%" id="linearGradient-6">
            <stop stop-color="#BFD6F9" offset="0%"></stop>
            <stop stop-color="#F3F6FE" offset="100%"></stop>
        </linearGradient>
        <linearGradient x1="89.8473889%" y1="61.7348066%" x2="0%" y2="61.7348066%" id="linearGradient-7">
            <stop stop-color="#CAD9F3" offset="0%"></stop>
            <stop stop-color="#D5E3F7" offset="100%"></stop>
        </linearGradient>
        <filter x="-18.5%" y="-60.0%" width="136.9%" height="220.0%" filterUnits="objectBoundingBox" id="filter-8">
            <feGaussianBlur stdDeviation="4" in="SourceGraphic"></feGaussianBlur>
        </filter>
        <linearGradient x1="44.8473549%" y1="86.8386573%" x2="118.798214%" y2="-43.8247114%" id="linearGradient-9">
            <stop stop-color="#5073E5" offset="0%"></stop>
            <stop stop-color="#5E7CE0" offset="100%"></stop>
        </linearGradient>
        <linearGradient x1="44.0988019%" y1="52.9709406%" x2="128.792906%" y2="42.4332843%" id="linearGradient-10">
            <stop stop-color="#5073E5" offset="0%"></stop>
            <stop stop-color="#5E7CE0" offset="100%"></stop>
        </linearGradient>
        <linearGradient x1="44.0988019%" y1="50.8719209%" x2="128.792906%" y2="47.7792968%" id="linearGradient-11">
            <stop stop-color="#5073E5" offset="0%"></stop>
            <stop stop-color="#5E7CE0" offset="100%"></stop>
        </linearGradient>
        <rect id="path-12" x="0" y="0" width="68" height="19" rx="2"></rect>
    </defs>
    <g id="页面一" stroke="none" stroke-width="1" fill="none" fill-rule="evenodd">
        <g id="-TinyUI-Vue-组件总览" transform="translate(-1478.000000, -2530.000000)">
            <g id="编组-14备份-17" transform="translate(1380.000000, 2500.000000)">
                <g id="ScrollText-文字滚动" transform="translate(98.000000, 30.000000)">
                    <g id="编组">
                        <g transform="translate(9.000000, 1.000000)" id="多边形">
                            <polygon fill="url(#linearGradient-1)" opacity="0.54620216" points="53.2605623 0 106.521125 30.75 53.2605623 62 0 30.75"></polygon>
                            <polygon fill="url(#linearGradient-2)" points="53.2605623 61.5 106.521125 86.75 53.2605623 118 0 86.75"></polygon>
                            <polygon fill="url(#linearGradient-3)" opacity="0.600606283" points="53.2605623 62 53.2605623 123 7.39138783e-15 92.25 0 30.75"></polygon>
                            <polygon fill="url(#linearGradient-4)" opacity="0.791265578" points="53.2605623 62 106.521125 30.75 106.521125 92.25 53.2605623 123"></polygon>
                            <polygon fill="url(#linearGradient-5)" points="53.2605623 118.007802 53.2605623 123 7.39138783e-15 92.25 0 86.9161706"></polygon>
                            <polygon fill="url(#linearGradient-6)" transform="translate(79.630281, 104.958085) scale(-1, 1) translate(-79.630281, -104.958085) " points="106.260562 118.007802 106.260562 123 53 92.25 53 86.9161706"></polygon>
                        </g>
                        <ellipse id="椭圆形" fill="url(#linearGradient-7)" filter="url(#filter-8)" cx="62.5" cy="90" rx="32.5" ry="10"></ellipse>
                    </g>
                    <g id="编组-15" transform="translate(22.000000, 32.000000)">
                        <g id="编组-29">
                            <path d="M16,0 L24.2725011,0 L24.2725011,0 L65,0 C67.209139,-4.33003142e-15 69,1.790861 69,4 L69,57 C69,59.209139 67.209139,61 65,61 L16,61 C13.790861,61 12,59.209139 12,57 L12,4 C12,1.790861 13.790861,4.05812251e-16 16,0 Z" id="矩形" fill="url(#linearGradient-9)" opacity="0.204287574"></path>
                            <path d="M80.0958313,45 C80.648116,45 81.0958313,45.4477153 81.0958313,46 C81.0958313,46.2829303 80.9759798,46.5526192 80.7659819,46.7422251 L74.1441845,52.721006 C73.7342649,53.09112 73.1019227,53.0588511 72.7318088,52.6489314 C72.5658847,52.4651622 72.4740339,52.2263731 72.4740339,51.9787808 L72.474,49 L55,49 C53.8954305,49 53,48.1045695 53,47 C53,45.8954305 53.8954305,45 55,45 L80.0958313,45 Z" id="形状结合备份-25" fill="url(#linearGradient-10)" opacity="0.604724702"></path>
                            <path d="M27.0958313,8 C27.648116,8 28.0958313,8.44771525 28.0958313,9 C28.0958313,9.2829303 27.9759798,9.55261923 27.7659819,9.74222515 L21.1441845,15.721006 C20.7342649,16.09112 20.1019227,16.0588511 19.7318088,15.6489314 C19.5658847,15.4651622 19.4740339,15.2263731 19.4740339,14.9787808 L19.474,12 L2,12 C0.8954305,12 1.3527075e-16,11.1045695 0,10 C-1.3527075e-16,8.8954305 0.8954305,8 2,8 L27.0958313,8 Z" id="形状结合备份-26" fill="url(#linearGradient-10)" opacity="0.604724702" transform="translate(14.047916, 11.989394) scale(-1, -1) translate(-14.047916, -11.989394) "></path>
                        </g>
                        <rect id="矩形备份-6" fill="url(#linearGradient-11)" opacity="0.204287574" x="19.5" y="25" width="39" height="6" rx="3"></rect>
                    </g>
                    <g id="形状-+-形状备份-4-蒙版" transform="translate(28.000000, 53.000000)">
                        <mask id="mask-13" fill="white">
                            <use xlink:href="#path-12"></use>
                        </mask>
                        <use id="蒙版" fill="#5073E5" xlink:href="#path-12"></use>
                        <path d="M47.8171145,5 L51.1187036,5 L52.8425421,7.80285619 L54.513789,5 L57.7861605,5 L54.7767474,9.39941984 L58.0783365,14.0885864 L54.7007816,14.0885864 L52.7899504,11.1792926 L50.8791192,14.0885864 L47.5015644,14.0885864 L50.8557451,9.34620105 L47.8171145,5 L47.8171145,5 Z M38,7.25292871 L38,5.0059132 L47.104205,5.0059132 L47.104205,7.25292871 L44.0422002,7.25292871 L44.0422002,14.1122392 L41.0327871,14.1122392 L41.0327871,7.25292871 L38,7.25292871 L38,7.25292871 Z M67.4396564,7.25292871 L64.3776516,7.25292871 L64.3776516,14.1122392 L61.3682385,14.1122392 L61.3682385,7.25292871 L58.3062338,7.25292871 L58.3062338,5.0059132 L67.4338128,5.0059132 L67.4338128,7.25292871 L67.4396564,7.25292871 Z" id="形状" fill="#FFFFFF" fill-rule="nonzero" mask="url(#mask-13)"></path>
                        <path d="M-5.18288553,5 L-1.88129644,5 L-0.157457888,7.80285619 L1.51378898,5 L4.78616047,5 L1.7767474,9.39941984 L5.07833649,14.0885864 L1.70078164,14.0885864 L-0.210049573,11.1792926 L-2.12088078,14.0885864 L-5.49843564,14.0885864 L-2.14425486,9.34620105 L-5.18288553,5 L-5.18288553,5 Z M-15,7.25292871 L-15,5.0059132 L-5.89579504,5.0059132 L-5.89579504,7.25292871 L-8.95779979,7.25292871 L-8.95779979,14.1122392 L-11.9672129,14.1122392 L-11.9672129,7.25292871 L-15,7.25292871 L-15,7.25292871 Z M14.4396564,7.25292871 L11.3776516,7.25292871 L11.3776516,14.1122392 L8.36823855,14.1122392 L8.36823855,7.25292871 L5.30623379,7.25292871 L5.30623379,5.0059132 L14.4338128,5.0059132 L14.4338128,7.25292871 L14.4396564,7.25292871 Z" id="形状备份-4" fill="#FFFFFF" fill-rule="nonzero" mask="url(#mask-13)"></path>
                    </g>
                </g>
            </g>
        </g>
    </g>
</svg>