<?xml version="1.0" encoding="utf-8"?>
<!-- Generator: Adobe Illustrator 26.0.2, SVG Export Plug-In . SVG Version: 6.00 Build 0)  -->
<svg version="1.1" id="图层_1" xmlns="http://www.w3.org/2000/svg" xmlns:xlink="http://www.w3.org/1999/xlink" x="0px" y="0px"
	 viewBox="0 0 12 12" style="enable-background:new 0 0 12 12;" xml:space="preserve">
<style type="text/css">
	.st0{fill-rule:evenodd;clip-rule:evenodd;fill:#FFFFFF;fill-opacity:0;}
</style>
<rect id="矩形" x="0" class="st0" width="12" height="12"/>
<path id="形状" d="M6,0C2.69,0,0,2.69,0,6s2.69,6,6,6c3.31,0,6-2.69,6-6S9.31,0,6,0z M7.62,9.37C7.27,9.49,6.99,9.58,6.78,9.65
	c-0.21,0.07-0.45,0.1-0.73,0.1c-0.43,0-0.76-0.09-0.99-0.28C4.82,9.28,4.7,9.05,4.7,8.76c0-0.11,0.01-0.22,0.03-0.34
	c0.02-0.12,0.05-0.25,0.08-0.39l0.44-1.39C5.3,6.51,5.27,6.38,5.3,6.26c0.03-0.12,0.04-0.23,0.04-0.32c0-0.18,0.02-0.31-0.06-0.37
	C5.19,5.5,5.04,5.52,4.8,5.52c-0.11,0-0.23,0.02-0.35,0.04C4.33,5.59,4.23,5.57,4.15,5.6l0.12-0.43C4.55,5.06,4.83,4.97,5.09,4.9
	C5.35,4.82,5.6,4.79,5.84,4.79c0.43,0,0.75,0.09,0.98,0.27C7.05,5.25,7.3,5.48,7.3,5.77c0,0.06-0.01,0.17-0.02,0.32
	C7.26,6.24,7.23,6.38,7.19,6.51L6.61,7.9C6.57,8.01,6.54,8.14,6.51,8.28C6.48,8.42,6.47,8.53,6.47,8.6c0,0.18,0.05,0.31,0.14,0.38
	c0.09,0.07,0.25,0.1,0.48,0.1c0.11,0,0.23-0.02,0.36-0.05C7.58,9,7.68,8.97,7.74,8.94L7.62,9.37z M7.55,3.74C7.34,3.91,7.1,4,6.81,4
	C6.52,4,6.28,3.91,6.07,3.74C5.86,3.58,5.76,3.37,5.76,3.13c0-0.24,0.1-0.44,0.31-0.62c0.21-0.17,0.46-0.26,0.74-0.26
	c0.29,0,0.53,0.09,0.74,0.26c0.21,0.17,0.31,0.38,0.31,0.62C7.85,3.37,7.75,3.58,7.55,3.74z"/>
</svg>
