<?xml version="1.0" encoding="utf-8"?>
<!-- Generator: Adobe Illustrator 26.0.2, SVG Export Plug-In . SVG Version: 6.00 Build 0)  -->
<svg version="1.1" id="图层_1" xmlns="http://www.w3.org/2000/svg" xmlns:xlink="http://www.w3.org/1999/xlink" x="0px" y="0px"
	 viewBox="0 0 12 12" style="enable-background:new 0 0 12 12;" xml:space="preserve">
<style type="text/css">
	.st0{fill-rule:evenodd;clip-rule:evenodd;fill:#FFFFFF;fill-opacity:0;}
</style>
<rect id="矩形" y="0" class="st0" width="12" height="12"/>
<path id="形状" d="M10.15,0H1.85C0.83,0,0,0.83,0,1.85v8.31C0,11.17,0.83,12,1.85,12h8.31c1.02,0,1.85-0.83,1.85-1.85V1.85
	C12,0.83,11.17,0,10.15,0z M8.31,8.77c0,0.26-0.2,0.46-0.46,0.46H3.23c-0.26,0-0.46-0.2-0.46-0.46l0,0c0-0.26,0.2-0.46,0.46-0.46
	h4.62C8.1,8.31,8.31,8.51,8.31,8.77L8.31,8.77z M2.77,6c0-0.26,0.2-0.46,0.46-0.46h3.69c0.26,0,0.46,0.2,0.46,0.46
	s-0.2,0.46-0.46,0.46H3.23C2.97,6.46,2.77,6.26,2.77,6z M8.77,3.69H3.23c-0.26,0-0.46-0.2-0.46-0.46s0.2-0.46,0.46-0.46h5.54
	c0.26,0,0.46,0.2,0.46,0.46S9.03,3.69,8.77,3.69z"/>
</svg>
