<?xml version="1.0" encoding="utf-8"?>
<!-- Generator: Adobe Illustrator 26.0.2, SVG Export Plug-In . SVG Version: 6.00 Build 0)  -->
<svg version="1.1" id="图层_1" xmlns="http://www.w3.org/2000/svg" xmlns:xlink="http://www.w3.org/1999/xlink" x="0px" y="0px"
	 viewBox="0 0 12 12" style="enable-background:new 0 0 12 12;" xml:space="preserve">
<style type="text/css">
	.st0{fill-rule:evenodd;clip-rule:evenodd;fill:#FFFFFF;fill-opacity:0;}
</style>
<rect id="矩形" class="st0" width="12" height="12"/>
<path id="形状结合" d="M11.42,4H0.58C0.26,4,0,3.74,0,3.42V0.58C0,0.26,0.26,0,0.58,0h10.84C11.74,0,12,0.26,12,0.58v2.85
	C12,3.74,11.74,4,11.42,4z M2.99,8h-2.4C0.27,8,0.01,7.74,0.01,7.42V5.04c0-0.32,0.26-0.58,0.58-0.58h2.4
	c0.32,0,0.58,0.26,0.58,0.58v2.39C3.57,7.74,3.31,8,2.99,8z M7.19,8h-2.4C4.47,8,4.21,7.74,4.21,7.42V5.04
	c0-0.32,0.26-0.58,0.58-0.58h2.4c0.32,0,0.58,0.26,0.58,0.58v2.39C7.77,7.74,7.51,8,7.19,8z M11.39,8h-2.4
	C8.67,8,8.41,7.74,8.41,7.42V5.04c0-0.32,0.26-0.58,0.58-0.58h2.4c0.32,0,0.58,0.26,0.58,0.58v2.39C11.97,7.74,11.71,8,11.39,8z
	 M2.99,12h-2.4c-0.32,0-0.58-0.26-0.58-0.58V9.04c0-0.32,0.26-0.58,0.58-0.58h2.4c0.32,0,0.58,0.26,0.58,0.58v2.39
	C3.57,11.74,3.31,12,2.99,12z M7.19,12h-2.4c-0.32,0-0.58-0.26-0.58-0.58V9.04c0-0.32,0.26-0.58,0.58-0.58h2.4
	c0.32,0,0.58,0.26,0.58,0.58v2.39C7.77,11.74,7.51,12,7.19,12z M11.39,12h-2.4c-0.32,0-0.58-0.26-0.58-0.58V9.04
	c0-0.32,0.26-0.58,0.58-0.58h2.4c0.32,0,0.58,0.26,0.58,0.58v2.39C11.97,11.74,11.71,12,11.39,12z"/>
</svg>
