<?xml version="1.0" encoding="utf-8"?>
<!-- Generator: Adobe Illustrator 26.0.2, SVG Export Plug-In . SVG Version: 6.00 Build 0)  -->
<svg version="1.1" id="图层_1" xmlns="http://www.w3.org/2000/svg" xmlns:xlink="http://www.w3.org/1999/xlink" x="0px" y="0px"
	 viewBox="0 0 12 12" style="enable-background:new 0 0 12 12;" xml:space="preserve">
<style type="text/css">
	.st0{fill-rule:evenodd;clip-rule:evenodd;fill:#FFFFFF;fill-opacity:0;}
</style>
<rect id="矩形" class="st0" width="12" height="12"/>
<path id="形状" d="M6,0C2.69,0,0,2.69,0,6s2.69,6,6,6s6-2.69,6-6S9.31,0,6,0z M3.29,6.74C2.88,6.74,2.54,6.41,2.54,6
	s0.33-0.74,0.74-0.74S4.03,5.59,4.03,6S3.7,6.74,3.29,6.74z M6,6.74C5.59,6.74,5.26,6.41,5.26,6S5.59,5.26,6,5.26S6.74,5.59,6.74,6
	S6.41,6.74,6,6.74z M8.71,6.74C8.3,6.74,7.97,6.41,7.97,6S8.3,5.26,8.71,5.26S9.46,5.59,9.46,6S9.12,6.74,8.71,6.74z"/>
</svg>
