<?xml version="1.0" encoding="utf-8"?>
<!-- Generator: Adobe Illustrator 26.0.2, SVG Export Plug-In . SVG Version: 6.00 Build 0)  -->
<svg version="1.1" id="图层_1" xmlns="http://www.w3.org/2000/svg"
	xmlns:xlink="http://www.w3.org/1999/xlink" x="0px" y="0px"
	viewBox="0 0 12 12" style="enable-background:new 0 0 12 12;" xml:space="preserve">
<style type="text/css">
	.st0{fill-rule:evenodd;clip-rule:evenodd;fill:#FFFFFF;fill-opacity:0;}
</style>
<rect id="矩形" class="st0" width="12" height="12"/>
<path id="形状结合" d="M10.5,0C11.33,0,12,0.83,12,1.85v8.31c0,1.02-0.67,1.85-1.5,1.85h-9C0.67,12,0,11.17,0,10.15
	V1.85C0,0.83,0.67,0,1.5,0H10.5z M5.5,2.85c-0.91,0-1.65,0.82-1.65,1.86c0,0.32,0.23,0.58,0.53,0.58c0.27,0,0.48-0.21,0.52-0.49
	L4.9,4.71c0-0.4,0.28-0.71,0.6-0.71s0.6,0.31,0.6,0.71C6.1,5,5.98,5.28,5.62,5.73L5.4,5.99L4.8,6.66l-0.26,0.3
	C4.06,7.56,3.85,8.04,3.85,8.57c0,0.32,0.23,0.58,0.53,0.58h2.25l0.08-0.01c0.27-0.05,0.44-0.3,0.44-0.57L7.14,8.48L7.12,8.39
	c-0.07-0.24-0.27-0.4-0.5-0.4l-1.49,0l0.03-0.04c0.08-0.12,0.17-0.24,0.27-0.34l0.12-0.14l0.47-0.52c0.85-0.95,1.13-1.48,1.13-2.23
	C7.15,3.67,6.41,2.85,5.5,2.85z M10.63,2.85H8.38L8.3,2.86c-0.27,0.06-0.44,0.3-0.44,0.58l0.01,0.09l0.02,0.09
	c0.07,0.24,0.27,0.4,0.5,0.4l1.17,0L8.64,5.34L8.6,5.4c-0.09,0.19-0.09,0.4,0,0.58c0.09,0.18,0.27,0.3,0.46,0.3
	c0.68,0,1.05,0.34,1.05,0.98c0,0.5-0.21,0.72-0.6,0.72c-0.26,0-0.48-0.09-0.65-0.26L8.78,7.63c-0.12-0.16-0.32-0.24-0.51-0.2
	c-0.19,0.05-0.34,0.2-0.39,0.4c-0.05,0.2-0.01,0.41,0.12,0.56c0.37,0.48,0.9,0.74,1.51,0.74c0.97,0,1.65-0.72,1.65-1.89l0-0.15
	l-0.02-0.18c-0.08-0.71-0.43-1.25-0.98-1.55L9.99,5.3l1.05-1.5l0.04-0.07c0.09-0.19,0.09-0.4,0-0.58
	C10.99,2.97,10.82,2.85,10.63,2.85z M2.33,2.95L1.08,3.91L1.01,3.97C0.83,4.17,0.8,4.47,0.93,4.7l0.05,0.07l0.07,0.07
	C1.23,5,1.48,5.01,1.67,4.86L2.1,4.53l0,4.04l0.01,0.09C2.16,8.96,2.4,9.18,2.68,9.15c0.27-0.03,0.47-0.28,0.47-0.58V3.43L3.14,3.35
	C3.12,3.15,3,2.98,2.84,2.9C2.67,2.82,2.48,2.84,2.33,2.95z"/>
</svg>