<?xml version="1.0" encoding="utf-8"?>
<!-- Generator: Adobe Illustrator 26.0.2, SVG Export Plug-In . SVG Version: 6.00 Build 0)  -->
<svg version="1.1" id="图层_1" xmlns="http://www.w3.org/2000/svg" xmlns:xlink="http://www.w3.org/1999/xlink" x="0px" y="0px"
	 viewBox="0 0 12 12" style="enable-background:new 0 0 12 12;" xml:space="preserve">
<style type="text/css">
	.st0{fill-rule:evenodd;clip-rule:evenodd;fill:#FFFFFF;fill-opacity:0;}
</style>
<rect id="矩形" y="0" class="st0" width="12" height="12"/>
<path id="形状" d="M1.67,3.14C1.52,3.21,1.43,3.35,1.43,3.51c0,0.15,0.09,0.29,0.24,0.36l3.79,1.9c0.28,0.14,0.61,0.14,0.89,0
	l3.92-1.91c0.14-0.07,0.24-0.21,0.24-0.36c0-0.16-0.09-0.3-0.23-0.37L6.45,1.17c-0.29-0.15-0.62-0.15-0.91,0L1.67,3.14z M6.44,0.11
	l5.11,2.6C11.83,2.85,12,3.12,12,3.41v5.18c0,0.29-0.17,0.56-0.45,0.7L6.44,11.9c-0.28,0.14-0.6,0.14-0.88,0L0.45,9.29
	C0.17,9.15,0,8.88,0,8.59V3.41c0-0.29,0.17-0.56,0.45-0.7L5.56,0.1C5.84-0.04,6.16-0.03,6.44,0.11L6.44,0.11L6.44,0.11z"/>
</svg>
