<?xml version="1.0" encoding="utf-8"?>
<!-- Generator: Adobe Illustrator 26.0.2, SVG Export Plug-In . SVG Version: 6.00 Build 0)  -->
<svg version="1.1" id="图层_1" xmlns="http://www.w3.org/2000/svg" xmlns:xlink="http://www.w3.org/1999/xlink" x="0px" y="0px"
	 viewBox="0 0 12 12" style="enable-background:new 0 0 12 12;" xml:space="preserve">
<style type="text/css">
	.st0{fill-rule:evenodd;clip-rule:evenodd;fill:#FFFFFF;fill-opacity:0;}
</style>
<rect id="矩形" class="st0" width="12" height="12"/>
<path id="形状" d="M12,7.2H3C2.04,7.2,1.2,8.04,1.2,9s0.84,1.8,1.8,1.8h9v0.6c0,0.36-0.24,0.6-0.6,0.6h-9C1.08,12,0,10.92,0,9.6
	V2.4C0,1.08,1.08,0,2.4,0h9C11.76,0,12,0.24,12,0.6V7.2z M2.4,9c0-0.36,0.24-0.6,0.6-0.6h9v1.2H3C2.64,9.6,2.4,9.36,2.4,9z"/>
</svg>
