<?xml version="1.0" encoding="utf-8"?>
<!-- Generator: Adobe Illustrator 26.0.2, SVG Export Plug-In . SVG Version: 6.00 Build 0)  -->
<svg version="1.1" id="图层_1" xmlns="http://www.w3.org/2000/svg" xmlns:xlink="http://www.w3.org/1999/xlink" x="0px" y="0px"
	 viewBox="0 0 12 12" style="enable-background:new 0 0 12 12;" xml:space="preserve">
<style type="text/css">
		.st0{fill-rule:evenodd;clip-rule:evenodd;fill:#FFFFFF;fill-opacity:0;}
</style>
<rect id="矩形" class="st0" width="12" height="12" />
<path id="形状" d="M2.68,0c1.48,0,2.68,1.2,2.68,2.68v2.68H2.68C1.2,5.37,0,4.17,0,2.68S1.2,0,2.68,0z M2.68,6.63h2.68v2.68
	c0,1.48-1.2,2.68-2.68,2.68S0,10.8,0,9.32S1.2,6.63,2.68,6.63z M9.32,0C10.8,0,12,1.2,12,2.68s-1.2,2.68-2.68,2.68H6.63V2.68
	C6.63,1.2,7.83,0,9.32,0z M6.63,6.63h2.68c1.48,0,2.68,1.2,2.68,2.68S10.8,12,9.32,12s-2.68-1.2-2.68-2.68V6.63z"/>
</svg>
