<?xml version="1.0" encoding="UTF-8"?>
<svg width="16px" height="16px" viewBox="0 0 16 16" version="1.1" xmlns="http://www.w3.org/2000/svg"
    xmlns:xlink="http://www.w3.org/1999/xlink">
    <title>settings</title>
    <g id="Tiny-Vue" stroke="none" stroke-width="1" fill="none" fill-rule="evenodd">
        <g id="-TinyUI-Vue-组件总览1" transform="translate(-2299.000000, -2288.000000)">
            <g id="设置" transform="translate(2123.000000, 2108.000000)">
                <g id="编组-14备份-18" transform="translate(164.000000, 168.000000)">
                    <g id="编组-39" transform="translate(12.000000, 12.000000)">
                        <polygon id="Fill-1"
                            transform="translate(8.000000, 8.000000) scale(-1, 1) rotate(-180.000000) translate(-8.000000, -8.000000) "
                            points="0 16 16 16 16 0 0 0"></polygon>
                        <path
                            d="M15.9402305,7.1922353 C15.8775158,6.85389144 15.5418536,6.50948693 15.193696,6.43326592 L14.9333738,6.37537414 C14.3217322,6.19551191 13.7790855,5.80230659 13.4340681,5.22319945 C13.089029,4.64101989 13.0074306,3.97956795 13.1580022,3.37308268 L13.2395789,3.13530763 C13.3430711,2.80611786 13.2081782,2.35199045 12.935339,2.12639982 C12.935339,2.12639982 12.6906521,1.92524116 12.0005955,1.53813857 C11.3105173,1.15408735 11.0125359,1.04741581 11.0125359,1.04741581 C10.6768953,0.928559852 10.2064268,1.04133412 9.96176158,1.29432392 L9.77978934,1.48329816 C9.31557933,1.91002641 8.69137754,2.1690979 8.0013643,2.1690979 C7.31135107,2.1690979 6.6808908,1.90701714 6.21661582,1.47721647 L6.04090207,1.29430288 C5.79937686,1.04133412 5.32578996,0.92860194 4.99012774,1.04741581 C4.99012774,1.04741581 4.68902791,1.15408735 3.9989497,1.53811753 C3.3088715,1.92827148 3.06736795,2.12943014 3.06736795,2.12943014 C2.79450705,2.35194836 2.65961415,2.80304545 2.76312805,3.13528659 L2.83846797,3.37607092 C2.98587782,3.98259827 2.90744114,4.64101989 2.56240204,5.22313631 C2.21736294,5.80525274 1.66860936,6.20161464 1.05389273,6.37842551 L0.802968986,6.43326592 C0.457929884,6.50948693 0.119149259,6.85086112 0.0564345635,7.1922353 C0.0564345635,7.1922353 0,7.49701414 0,8.27121931 C0,9.04542447 0.0564345635,9.35020331 0.0564345635,9.35020331 C0.119149259,9.6915775 0.454789819,10.0329517 0.802968986,10.1091727 L1.04765591,10.1640131 C1.66241585,10.340845 2.21446109,10.7370807 2.55950019,11.3222695 C2.90453929,11.9044701 2.98613769,12.565901 2.83556612,13.1724073 L2.76345288,13.4071099 C2.65996064,13.7362997 2.79485354,14.1904271 3.06767113,14.4160178 C3.06767113,14.4160178 3.31235805,14.6171764 4.0024146,15.004279 C4.69247115,15.3913816 4.99045258,15.4950018 4.99045258,15.4950018 C5.32609314,15.6138367 5.79656163,15.5010834 6.0412269,15.2480937 L6.21373562,15.0682314 C6.68104239,14.6384518 7.3084059,14.37635 8.00162417,14.37635 C8.69484244,14.37635 9.32523774,14.6415032 9.78951272,15.0712617 L9.96202144,15.251124 C10.2035467,15.5040927 10.6771336,15.6169301 11.0127958,15.498011 C11.0127958,15.498011 11.3138956,15.3913395 12.0039738,15.0073093 C12.694052,14.6201857 12.9355556,14.4190481 12.9355556,14.4190481 C13.2084165,14.1965298 13.3433094,13.7424024 13.2397738,13.4101403 L13.1644339,13.1662835 C13.017024,12.5628075 13.0954607,11.904407 13.4404998,11.3252788 C13.7855389,10.7430782 14.3375625,10.3438332 14.9523441,10.1670224 L15.197031,10.112182 C15.5420701,10.035961 15.8808507,9.69458677 15.9435654,9.35321259 C15.9435654,9.35321259 16,9.04843375 16,8.27422858 C15.9967083,7.49692996 15.9402521,7.19213008 15.9402521,7.19213008 L15.9402305,7.1922353 Z M8.00155921,11.3710493 C6.24190959,11.3710493 4.81162041,9.98423505 4.81162041,8.27121931 C4.81162041,6.56127598 6.23874787,5.17441968 8.00155921,5.17441968 C9.76120882,5.17441968 11.191498,6.56123389 11.191498,8.27424963 C11.188293,9.98419296 9.76116551,11.3710493 8.00155921,11.3710493 Z"
                            id="形状" fill="#595959" fill-rule="nonzero"></path>
                    </g>
                </g>
            </g>
        </g>
    </g>
</svg>