<?xml version="1.0" encoding="UTF-8"?>
<svg width="16px" height="16px" viewBox="0 0 16 16" version="1.1" xmlns="http://www.w3.org/2000/svg" xmlns:xlink="http://www.w3.org/1999/xlink">
    <title>主题</title>
    <g id="Tiny-Vue" stroke="none" stroke-width="1" fill="none" fill-rule="evenodd">
        <g id="OpenTiny-组件详情-窄距1" transform="translate(-1662.000000, -2340.000000)">
            <g id="编组-4" transform="translate(1650.000000, 2328.000000)">
                <g id="主题" transform="translate(12.000000, 12.000000)">
                    <polygon id="Fill-1" points="0 16 16 16 16 0 0 0"></polygon>
                    <path d="M3.60060958,12.9176944 L3.60060958,7.65083602 L2.96862533,8.32531893 C2.85933935,8.44596528 2.70503123,8.51419685 2.54363593,8.51323964 C2.38224062,8.51419685 2.22793248,8.44596529 2.1186465,8.32531893 L0.17069504,6.25717551 C-0.0568983467,5.99939057 -0.0568983467,5.60887796 0.17069504,5.35109302 L3.13462121,2.18793062 C3.24390719,2.06728428 3.39821531,1.99905272 3.55961061,2 L4.62658402,2 C4.71958171,2 4.7925799,2.05486246 4.83357887,2.14425178 C5.41356443,3.42617564 6.66753319,4.25607407 8.00449988,4.25607407 C9.34146656,4.25607407 10.5844356,3.42617564 11.1754209,2.14323598 C11.2121106,2.05949304 11.2922674,2.00403005 11.3824157,2 L12.4503891,2 C12.6085679,1.99926079 12.7594062,2.06773021 12.8643788,2.18793062 L15.829305,5.35210881 C16.0568983,5.60989376 16.0568983,6.00040636 15.829305,6.25819131 L13.8813535,8.33750838 C13.7720675,8.45815473 13.6177594,8.5263863 13.4563641,8.52542909 C13.2949688,8.5263863 13.1406606,8.45815473 13.0313747,8.33750838 L12.3993904,7.66302547 L12.3993904,12.9187102 C12.3993904,13.6267141 11.8604038,14.1904762 11.2074201,14.1904762 L4.7925799,14.1904762 C4.12959641,14.1894604 3.59960962,13.6145247 3.59960962,12.9176944 L3.60060958,12.9176944 Z" id="路径" fill="#595959" fill-rule="nonzero"></path>
                </g>
            </g>
        </g>
    </g>
</svg>