<svg viewBox="0 0 48 48" xmlns="http://www.w3.org/2000/svg" xmlns:xlink="http://www.w3.org/1999/xlink" width="48.000000" height="48.000000">
  <path id="path" d="M38.7021 27.3105C38.5913 27.1029 38.4805 26.9853 38.3697 26.9576C38.2589 26.93 38.1481 26.9576 38.0373 27.0407C37.9403 27.1237 37.878 27.2136 37.8503 27.3105C37.4763 29.2338 36.576 30.9012 35.1493 32.3126C33.7226 33.7239 32.0259 34.6441 30.059 35.073C29.9344 35.1145 29.8443 35.1976 29.7889 35.3221C29.7474 35.4605 29.7543 35.585 29.8097 35.6957C29.879 35.8202 29.9621 35.8825 30.059 35.8825C32.0259 36.2699 33.7226 37.1832 35.1493 38.6222C36.576 40.0474 37.4763 41.7217 37.8503 43.6451C37.9195 43.8111 38.0165 43.9218 38.1412 43.9771C38.2797 44.0187 38.3974 44.0048 38.4944 43.9356C38.5913 43.8803 38.6606 43.7834 38.7021 43.6451C39.1315 41.6802 40.0457 39.9921 41.4446 38.5807C42.8298 37.1693 44.5058 36.2699 46.4726 35.8825C46.6111 35.841 46.7081 35.7649 46.7635 35.6542C46.8327 35.5297 46.8327 35.412 46.7635 35.3013C46.7081 35.1907 46.6111 35.1145 46.4726 35.073C44.5473 34.6441 42.8782 33.7239 41.4654 32.3126C40.0526 30.9012 39.1315 29.2338 38.7021 27.3105Z" fill="#AEAEAE" fill-rule="nonzero"/>
  <path id="合并" d="M26.9959 42.6023L9.06254 42.6023C8.60411 42.6023 8.15564 42.5556 7.71715 42.4621C7.28145 42.3692 6.8556 42.2301 6.43959 42.0449C6.13046 41.9073 5.83525 41.748 5.55396 41.5671L5.55379 41.567C5.10743 41.2799 4.69613 40.9383 4.31987 40.5422C4.05912 40.2678 3.82371 39.9761 3.61365 39.6671C3.33397 39.2558 3.09923 38.8139 2.90941 38.3415C2.76758 37.9886 2.65513 37.6289 2.57205 37.2626C2.4546 36.7447 2.39587 36.2135 2.39587 35.669L2.39587 14.3357C2.39587 13.7911 2.4546 13.2599 2.57205 12.7421L2.57208 12.742C2.65515 12.3757 2.76759 12.0161 2.90941 11.6632C3.09922 11.1908 3.33396 10.7489 3.61362 10.3376L3.61363 10.3376C3.82369 10.0286 4.05911 9.73693 4.31987 9.46244C4.69614 9.06636 5.10747 8.72477 5.55384 8.43768L5.55385 8.43768L5.55389 8.43765C5.8352 8.25672 6.13044 8.09743 6.43959 7.95979C6.85568 7.77454 7.2816 7.63546 7.71738 7.54255C8.1558 7.44908 8.60419 7.40234 9.06254 7.40234L36.9292 7.40234C37.3875 7.40234 37.8357 7.44906 38.2741 7.54248L38.2745 7.54257L38.2749 7.54267C38.7105 7.63557 39.1363 7.77462 39.5522 7.95979C39.8613 8.09742 40.1565 8.25668 40.4378 8.43759C40.8842 8.7247 41.2956 9.06632 41.6719 9.46244C41.9326 9.73691 42.168 10.0286 42.3781 10.3375C42.6578 10.7489 42.8925 11.1907 43.0823 11.6632C43.2241 12.0161 43.3366 12.3756 43.4197 12.7418C43.5371 13.2598 43.5959 13.7911 43.5959 14.3357L43.5959 23.891C43.5959 24.787 42.8919 25.491 41.9959 25.491C41.0999 25.491 40.3959 24.787 40.3959 23.891L40.3959 14.3357C40.3959 13.9972 40.3555 13.669 40.2747 13.3511C40.2321 13.1833 40.1782 13.0183 40.1131 12.8563C39.9992 12.5729 39.8562 12.3104 39.6839 12.0687C39.5832 11.9275 39.4725 11.7934 39.3519 11.6664C39.1213 11.4237 38.8673 11.2208 38.5899 11.0577C38.4805 10.9933 38.3674 10.9351 38.2506 10.8831C38.0417 10.7901 37.8278 10.7202 37.6089 10.6734C37.3874 10.626 37.1609 10.6023 36.9292 10.6023L9.06254 10.6023C8.83091 10.6023 8.60434 10.626 8.38283 10.6734C8.16399 10.7202 7.9501 10.7901 7.74114 10.8831C7.62435 10.9351 7.5112 10.9933 7.4017 11.0577C7.12436 11.2209 6.87041 11.4238 6.63987 11.6664C6.51926 11.7934 6.40863 11.9275 6.30797 12.0686C6.13564 12.3103 5.99254 12.5729 5.87867 12.8563C5.81355 13.0183 5.75968 13.1832 5.71705 13.351L5.71703 13.3511L5.71702 13.3511C5.63626 13.669 5.59587 13.9972 5.59587 14.3357L5.59587 35.669C5.59587 36.0075 5.63626 36.3357 5.71703 36.6536C5.75966 36.8214 5.81354 36.9864 5.87867 37.1484C5.99253 37.4318 6.13562 37.6943 6.30794 37.936C6.40861 38.0772 6.51925 38.2113 6.63987 38.3382C6.87039 38.5809 7.1243 38.7838 7.40161 38.9469C7.51114 39.0113 7.62432 39.0695 7.74114 39.1216C7.9501 39.2146 8.16401 39.2845 8.38286 39.3313C8.60436 39.3787 8.83092 39.4023 9.06254 39.4023L26.9959 39.4023C27.8919 39.4023 28.5959 40.1063 28.5959 41.0023C28.5959 41.8983 27.8919 42.6023 26.9959 42.6023ZM24.5402 17.8303C25.2769 18.0145 25.7489 18.7141 25.6677 19.4485L25.6316 19.6493L23.2744 29.0779C23.0735 29.8816 22.2591 30.3702 21.4554 30.1693C20.7187 29.9851 20.2467 29.2854 20.3279 28.5511L20.364 28.3503L22.7212 18.9217C22.9221 18.118 23.7365 17.6294 24.5402 17.8303ZM18.6248 20.1779C19.0605 19.5907 19.0121 18.7574 18.4795 18.2249C17.8937 17.6391 16.944 17.6391 16.3582 18.2249L11.4987 23.1074C11.063 23.6946 11.1114 24.5279 11.6439 25.0605L16.5265 29.92C17.1137 30.3557 18.0922 30.139 18.6248 29.6065C19.0605 29.0193 19.0121 28.186 18.4795 27.6534L14.8236 23.9982L18.6248 20.1779ZM34.3517 22.9391L29.4692 18.0796C28.8819 17.6439 27.9034 17.8606 27.3708 18.3931C26.9351 18.9803 26.9835 19.8136 27.5161 20.3462L31.1697 23.9982L27.3708 27.8217C26.9351 28.4089 26.9835 29.2422 27.5161 29.7747C28.1019 30.3605 29.0516 30.3605 29.6374 29.7747L34.4969 24.8922C34.9326 24.305 34.8842 23.4717 34.3517 22.9391Z" fill="#191919" fill-rule="evenodd"/>
</svg>