<svg viewBox="0 0 48 48" xmlns="http://www.w3.org/2000/svg" xmlns:xlink="http://www.w3.org/1999/xlink" width="48.000000" height="48.000000">
  <path id="合并" d="M20.2275 6.8295C19.6971 6.60983 19.1213 6.5 18.5 6.5L10.5 6.5C9.8787 6.5 9.30288 6.60983 8.77256 6.82949L8.77252 6.8295L8.77249 6.82952C8.24217 7.04919 7.75735 7.37869 7.31802 7.81802C6.87868 8.25736 6.54917 8.7422 6.3295 9.27252C6.10983 9.80285 6 10.3787 6 11L6 19C6 19.6213 6.10983 20.1971 6.32948 20.7274L6.3295 20.7275L6.32951 20.7275C6.54918 21.2578 6.87869 21.7426 7.31802 22.182C7.75736 22.6213 8.2422 22.9508 8.77253 23.1705C9.30286 23.3902 9.87868 23.5 10.5 23.5L18.5 23.5C19.1213 23.5 19.6972 23.3902 20.2275 23.1705C20.7578 22.9508 21.2426 22.6213 21.682 22.182C22.1213 21.7426 22.4508 21.2578 22.6705 20.7275C22.8902 20.1972 23 19.6213 23 19L23 11C23 10.3787 22.8902 9.80285 22.6705 9.27252C22.4508 8.74219 22.1213 8.25736 21.682 7.81802C21.2426 7.37868 20.7578 7.04917 20.2275 6.8295ZM39.2275 6.8295C38.6971 6.60983 38.1213 6.5 37.5 6.5L29.5 6.5C28.8787 6.5 28.3029 6.60984 27.7725 6.8295C27.2422 7.04917 26.7574 7.37868 26.318 7.81802C25.8787 8.25736 25.5492 8.7422 25.3295 9.27252C25.1098 9.80285 25 10.3787 25 11L25 19C25 19.6213 25.1098 20.1971 25.3295 20.7274L25.3295 20.7275C25.5492 21.2578 25.8787 21.7426 26.318 22.182C26.7574 22.6213 27.2422 22.9508 27.7725 23.1705L27.7728 23.1706C28.3031 23.3902 28.8788 23.5 29.5 23.5L37.5 23.5C38.1213 23.5 38.6972 23.3902 39.2275 23.1705C39.7578 22.9508 40.2426 22.6213 40.682 22.182C41.1213 21.7426 41.4508 21.2578 41.6705 20.7275C41.8902 20.1972 42 19.6213 42 19L42 11C42 10.3787 41.8902 9.80285 41.6705 9.27252C41.4508 8.74219 41.1213 8.25736 40.682 7.81802C40.2426 7.37868 39.7578 7.04917 39.2275 6.8295ZM10.5 9.5L18.5 9.5C18.7071 9.5 18.899 9.53661 19.0758 9.60984C19.2526 9.68306 19.4142 9.79289 19.5607 9.93934C19.7071 10.0858 19.8169 10.2474 19.8902 10.4242C19.9634 10.601 20 10.7929 20 11L20 19C20 19.2071 19.9634 19.399 19.8902 19.5758C19.8169 19.7526 19.7071 19.9142 19.5607 20.0607C19.4142 20.2071 19.2526 20.3169 19.0758 20.3902C18.899 20.4634 18.7071 20.5 18.5 20.5L10.5 20.5C10.2929 20.5 10.101 20.4634 9.92418 20.3902C9.7474 20.3169 9.58579 20.2071 9.43934 20.0607C9.29289 19.9142 9.18306 19.7526 9.10983 19.5758L9.10981 19.5758C9.0366 19.399 9 19.2071 9 19L9 11C9 10.7929 9.03661 10.601 9.10983 10.4242C9.18306 10.2474 9.29289 10.0858 9.43934 9.93934C9.58579 9.79289 9.7474 9.68306 9.92418 9.60983C10.101 9.53661 10.2929 9.5 10.5 9.5ZM29.5 9.5L37.5 9.5C37.7071 9.5 37.899 9.53661 38.0758 9.60984C38.2526 9.68306 38.4142 9.79289 38.5607 9.93934C38.7071 10.0858 38.8169 10.2474 38.8902 10.4242C38.9634 10.601 39 10.7929 39 11L39 19C39 19.2071 38.9634 19.399 38.8902 19.5758C38.8169 19.7526 38.7071 19.9142 38.5607 20.0607C38.4142 20.2071 38.2526 20.3169 38.0758 20.3902C37.899 20.4634 37.7071 20.5 37.5 20.5L29.5 20.5C29.2929 20.5 29.101 20.4634 28.9242 20.3902C28.7474 20.3169 28.5858 20.2071 28.4393 20.0607C28.2929 19.9142 28.1831 19.7526 28.1098 19.5758L28.1098 19.5757C28.0366 19.399 28 19.2071 28 19L28 11C28 10.7929 28.0366 10.601 28.1098 10.4242C28.1831 10.2474 28.2929 10.0858 28.4393 9.93934C28.5858 9.79289 28.7474 9.68306 28.9242 9.60983C29.101 9.53661 29.2929 9.5 29.5 9.5ZM20.2275 26.8295C19.6971 26.6098 19.1213 26.5 18.5 26.5L10.5 26.5C9.87868 26.5 9.30286 26.6098 8.77252 26.8295C8.24219 27.0492 7.75736 27.3787 7.31802 27.818C6.87868 28.2574 6.54917 28.7422 6.3295 29.2725C6.10983 29.8029 6 30.3787 6 31L6 39C6 39.6213 6.10983 40.1971 6.3295 40.7275C6.54917 41.2578 6.87868 41.7426 7.31802 42.182C7.75736 42.6213 8.2422 42.9508 8.77253 43.1705C9.30286 43.3902 9.87868 43.5 10.5 43.5L18.5 43.5C19.1213 43.5 19.6972 43.3902 20.2275 43.1705C20.7578 42.9508 21.2426 42.6213 21.682 42.182C22.1213 41.7426 22.4508 41.2578 22.6705 40.7275C22.8902 40.1972 23 39.6213 23 39L23 31C23 30.3787 22.8902 29.8029 22.6705 29.2725C22.4508 28.7422 22.1213 28.2574 21.682 27.818C21.2426 27.3787 20.7578 27.0492 20.2275 26.8295ZM39.2275 26.8295C38.6971 26.6098 38.1213 26.5 37.5 26.5L29.5 26.5C28.8787 26.5 28.3029 26.6098 27.7725 26.8295C27.2422 27.0492 26.7574 27.3787 26.318 27.818C25.8787 28.2574 25.5492 28.7422 25.3295 29.2725C25.1098 29.8029 25 30.3787 25 31L25 39C25 39.6213 25.1098 40.1971 25.3295 40.7275C25.5492 41.2578 25.8787 41.7426 26.318 42.182C26.7574 42.6213 27.2422 42.9508 27.7725 43.1705C28.3029 43.3902 28.8787 43.5 29.5 43.5L37.5 43.5C38.1213 43.5 38.6972 43.3902 39.2275 43.1705C39.7578 42.9508 40.2426 42.6213 40.682 42.182C41.1213 41.7426 41.4508 41.2578 41.6705 40.7275C41.8902 40.1972 42 39.6213 42 39L42 31C42 30.3787 41.8902 29.8029 41.6705 29.2725C41.4508 28.7422 41.1213 28.2574 40.682 27.818C40.2426 27.3787 39.7578 27.0492 39.2275 26.8295ZM10.5 29.5L18.5 29.5C18.7071 29.5 18.899 29.5366 19.0758 29.6098C19.2526 29.6831 19.4142 29.7929 19.5607 29.9393C19.7071 30.0858 19.8169 30.2474 19.8902 30.4242C19.9634 30.601 20 30.7929 20 31L20 39C20 39.2071 19.9634 39.399 19.8902 39.5758C19.8169 39.7526 19.7071 39.9142 19.5607 40.0607C19.4142 40.2071 19.2526 40.3169 19.0758 40.3902C18.899 40.4634 18.7071 40.5 18.5 40.5L10.5 40.5C10.2929 40.5 10.101 40.4634 9.92418 40.3902C9.7474 40.3169 9.58579 40.2071 9.43934 40.0607C9.29289 39.9142 9.18306 39.7526 9.10983 39.5758C9.03661 39.399 9 39.2071 9 39L9 31C9 30.7929 9.03661 30.601 9.10983 30.4242C9.18306 30.2474 9.29289 30.0858 9.43934 29.9393C9.58579 29.7929 9.7474 29.6831 9.92418 29.6098C10.101 29.5366 10.2929 29.5 10.5 29.5ZM29.5 29.5L37.5 29.5C37.7071 29.5 37.899 29.5366 38.0758 29.6098C38.2526 29.6831 38.4142 29.7929 38.5607 29.9393C38.7071 30.0858 38.8169 30.2474 38.8902 30.4242C38.9634 30.601 39 30.7929 39 31L39 39C39 39.2071 38.9634 39.399 38.8902 39.5758C38.8169 39.7526 38.7071 39.9142 38.5607 40.0607C38.4142 40.2071 38.2526 40.3169 38.0758 40.3902C37.899 40.4634 37.7071 40.5 37.5 40.5L29.5 40.5C29.2929 40.5 29.101 40.4634 28.9242 40.3902C28.7474 40.3169 28.5858 40.2071 28.4393 40.0607C28.2929 39.9142 28.1831 39.7526 28.1098 39.5758C28.0366 39.399 28 39.2071 28 39L28 31C28 30.7929 28.0366 30.601 28.1098 30.4242L28.1099 30.4241C28.1831 30.2473 28.2929 30.0858 28.4393 29.9393C28.5858 29.7929 28.7474 29.6831 28.9242 29.6098C29.101 29.5366 29.2929 29.5 29.5 29.5Z" fill="#191919" fill-rule="evenodd"/>
  <path id="合并" d="M38.0649 11.8906C38.532 12.3612 38.5715 13.0947 38.1856 13.6098L33.7289 18.0373C33.2607 18.5012 32.384 18.4169 31.8684 18.0373L29.3909 15.591C28.8728 15.0776 28.8693 14.2419 29.383 13.7242C29.8501 13.2536 30.7325 13.3351 31.2513 13.7164L32.7974 15.2398L36.1966 11.8827C36.7147 11.3694 37.5512 11.3729 38.0649 11.8906ZM17 11.5C17.5523 11.5 18 11.9477 18 12.5L18 17.5C18 18.0523 17.5523 18.5 17 18.5L12 18.5C11.4477 18.5 11 18.0523 11 17.5L11 12.5C11 11.9477 11.4477 11.5 12 11.5L17 11.5ZM36 31.5C36.5523 31.5 37 31.9477 37 32.5L37 37.5C37 38.0523 36.5523 38.5 36 38.5L31 38.5C30.4477 38.5 30 38.0523 30 37.5L30 32.5C30 31.9477 30.4477 31.5 31 31.5L36 31.5Z" fill="#AEAEAE" fill-rule="evenodd"/>
</svg>