<svg viewBox="0 0 48 48" xmlns="http://www.w3.org/2000/svg" xmlns:xlink="http://www.w3.org/1999/xlink" width="48.000000" height="48.000000">
  <path id="合并" d="M24.1799 28.5093C26.2913 27.9408 27.9406 26.2916 28.5091 24.1802C28.5737 23.9399 28.9146 23.9399 28.9792 24.1802C29.5477 26.2916 31.197 27.9408 33.3084 28.5093C33.5486 28.574 33.5486 28.9148 33.3084 28.9795C31.197 29.548 29.5477 31.1972 28.9792 33.3086C28.9146 33.5488 28.5737 33.5488 28.5091 33.3086C27.9406 31.1972 26.2913 29.548 24.1799 28.9795C23.9397 28.9148 23.9397 28.574 24.1799 28.5093ZM30.3038 37.6036C33.864 36.645 36.645 33.864 37.6036 30.3038C37.7127 29.8987 38.2873 29.8987 38.3964 30.3038C39.355 33.864 42.136 36.645 45.6962 37.6036C46.1013 37.7127 46.1013 38.2873 45.6962 38.3964C42.136 39.355 39.355 42.136 38.3964 45.6962C38.2873 46.1013 37.7127 46.1013 37.6036 45.6962C36.645 42.136 33.864 39.355 30.3038 38.3964C29.8987 38.2873 29.8987 37.7127 30.3038 37.6036Z" fill="var(--tiny-second-color)" fill-rule="evenodd"/>
  <path id="合并" d="M17.5 8.5L17.5 5C17.5 4.16 16.84 3.5 16 3.5C15.16 3.5 14.5 4.16 14.5 5L14.5 8.5L12 8.5C11.4481 8.5 10.9089 8.55797 10.3825 8.67391C9.93936 8.77152 9.50526 8.91022 9.0802 9.09C8.65363 9.27043 8.25033 9.48608 7.87028 9.73698C7.45074 10.0139 7.05954 10.3339 6.6967 10.6967C6.33385 11.0595 6.01395 11.4507 5.73698 11.8703C5.48609 12.2503 5.27043 12.6536 5.09 13.0802C4.91023 13.5052 4.77154 13.9393 4.67393 14.3825C4.55799 14.9088 4.5 15.4481 4.5 16L4.5 36C4.5 36.5519 4.55798 37.0911 4.67393 37.6175C4.77153 38.0606 4.91027 38.4948 5.09 38.9198C5.27018 39.3458 5.48549 39.7486 5.73595 40.1282C6.01292 40.5477 6.33386 40.9405 6.6967 41.3033C7.38823 41.9948 8.18273 42.5304 9.0802 42.91C9.50529 43.0898 9.93944 43.2285 10.3826 43.3261C10.909 43.442 11.4481 43.5 12 43.5L24 43.5C24.84 43.5 25.5 42.84 25.5 42C25.5 41.16 24.84 40.5 24 40.5L12 40.5C11.6508 40.5 11.3105 40.4616 10.9791 40.3847C10.731 40.3271 10.487 40.2477 10.2489 40.147C9.71067 39.9193 9.23372 39.5977 8.81802 39.182C8.40232 38.7663 8.08065 38.2893 7.85302 37.7511C7.61767 37.1947 7.5 36.611 7.5 36L7.5 21.5L40.5 21.5L40.5 26C40.5 26.84 41.16 27.5 42 27.5C42.84 27.5 43.5 26.84 43.5 26L43.5 16C43.5 15.448 43.442 14.9088 43.3261 14.3824C43.2285 13.9394 43.0897 13.5051 42.91 13.0802C42.5304 12.1827 41.9948 11.3882 41.3033 10.6967C40.6118 10.0052 39.8173 9.4696 38.9198 9.09C38.4948 8.91024 38.0607 8.77155 37.6176 8.67395C37.0913 8.55803 36.5519 8.5 36 8.5L33.5 8.5L33.5 5C33.5 4.16 32.84 3.5 32 3.5C31.16 3.5 30.5 4.16 30.5 5L30.5 8.5L17.5 8.5ZM40.5 18.5L40.5 16C40.5 15.389 40.3823 14.8053 40.147 14.2489C39.9193 13.7107 39.5977 13.2337 39.182 12.818C38.7663 12.4023 38.2893 12.0807 37.7511 11.853C37.1947 11.6177 36.611 11.5 36 11.5L33.5 11.5L33.5 13C33.5 13.84 32.84 14.5 32 14.5C31.16 14.5 30.5 13.84 30.5 13L30.5 11.5L17.5 11.5L17.5 13C17.5 13.84 16.84 14.5 16 14.5C15.16 14.5 14.5 13.84 14.5 13L14.5 11.5L12 11.5C11.6508 11.5 11.3105 11.5384 10.9791 11.6153C10.7307 11.673 10.4873 11.7522 10.2489 11.853C10.0019 11.9575 9.76784 12.0817 9.54667 12.2258C9.28585 12.3957 9.04297 12.5931 8.81802 12.818C8.59309 13.0429 8.3957 13.2858 8.22583 13.5466C8.08177 13.7678 7.95748 14.0019 7.85302 14.2489C7.75218 14.4873 7.67295 14.7307 7.61532 14.9791C7.53844 15.3105 7.5 15.6508 7.5 16L7.5 18.5L40.5 18.5Z" fill="var(--tiny-first-color)" fill-rule="evenodd"/>
</svg>