<svg viewBox="0 0 48 48" xmlns="http://www.w3.org/2000/svg" xmlns:xlink="http://www.w3.org/1999/xlink" width="48.000000" height="48.000000">
  <path id="path" d="M35.4361 4.38339C35.3192 4.16431 35.2022 4.04016 35.0853 4.01095C34.9683 3.98174 34.8513 4.01095 34.7344 4.09859C34.632 4.18622 34.5662 4.28115 34.537 4.38339C34.1423 6.41351 33.1919 8.17344 31.6861 9.66317C30.1802 11.1529 28.3892 12.1241 26.3132 12.5769C26.1816 12.6207 26.0866 12.7084 26.0281 12.8398C25.9842 12.9859 25.9915 13.1173 26.05 13.2341C26.1231 13.3656 26.2108 13.4313 26.3132 13.4313C28.3892 13.8403 30.1802 14.8042 31.6861 16.3231C33.1919 17.8275 34.1423 19.5947 34.537 21.6248C34.6101 21.8001 34.7124 21.9169 34.844 21.9754C34.9902 22.0192 35.1145 22.0046 35.2168 21.9315C35.3192 21.8731 35.3923 21.7709 35.4361 21.6248C35.8894 19.5509 36.8543 17.7691 38.3309 16.2793C39.7929 14.7896 41.562 13.8403 43.638 13.4313C43.7842 13.3875 43.8866 13.3072 43.9451 13.1903C44.0182 13.0589 44.0182 12.9347 43.9451 12.8179C43.8866 12.701 43.7842 12.6207 43.638 12.5769C41.6058 12.1241 39.8441 11.1529 38.3528 9.66317C36.8616 8.17344 35.8894 6.41351 35.4361 4.38339Z" fill="var(--tiny-second-color)" fill-rule="nonzero"/>
  <path id="合并" d="M22.9321 18.7064L22.9321 8.23237C22.9321 7.92572 22.9003 7.62599 22.8367 7.33315C22.7812 7.07741 22.7014 6.82694 22.5974 6.58173C22.4951 6.34079 22.373 6.11303 22.2309 5.89846C22.0744 5.66208 21.8938 5.44171 21.6889 5.23734C21.4857 5.03461 21.2668 4.85566 21.0321 4.70049C20.8163 4.55776 20.5871 4.43515 20.3446 4.33266C20.0952 4.22726 19.8405 4.1469 19.5805 4.09159C19.2934 4.03053 18.9998 4 18.6997 4L8.22565 4C7.91367 4 7.60889 4.03276 7.31133 4.09828L7.31132 4.09828L7.31132 4.09828C7.06165 4.15326 6.81707 4.23129 6.57756 4.33239C6.33188 4.43609 6.09993 4.56046 5.88172 4.70549L5.88171 4.70549L5.88171 4.70549C5.64955 4.85979 5.43292 5.03748 5.23184 5.23856C5.03077 5.43964 4.85308 5.65626 4.69878 5.88842L4.69876 5.88845L4.69875 5.88846C4.55373 6.10667 4.42937 6.33861 4.32568 6.58428C4.22457 6.82379 4.14654 7.06838 4.09156 7.31805C4.02605 7.61561 3.99329 7.92038 3.99329 8.23237L3.99329 18.7064C3.99329 19.0065 4.02382 19.3001 4.08488 19.5872C4.14019 19.8472 4.22054 20.102 4.32595 20.3513C4.42843 20.5938 4.55104 20.823 4.69378 21.0388C4.84894 21.2735 5.02789 21.4924 5.23062 21.6956C5.43484 21.9003 5.65504 22.0809 5.89123 22.2373L5.89184 22.2377C6.10638 22.3797 6.33411 22.5019 6.57501 22.6041C6.82011 22.7081 7.07047 22.7878 7.32609 22.8434L7.32643 22.8434L7.32673 22.8435C7.61947 22.907 7.91912 22.9388 8.22565 22.9388L18.6997 22.9388C18.9946 22.9388 19.2833 22.9092 19.5657 22.85C19.8317 22.7942 20.0922 22.7121 20.3472 22.6038C20.5848 22.5028 20.8097 22.3825 21.0218 22.2428C21.2608 22.0854 21.4835 21.9034 21.6901 21.6968C21.8967 21.4903 22.0787 21.2675 22.2361 21.0285C22.3758 20.8164 22.4961 20.5915 22.5971 20.3539C22.7054 20.0989 22.7874 19.8385 22.8432 19.5725C22.9025 19.29 22.9321 19.0014 22.9321 18.7064ZM19.8433 7.76372C19.9025 7.90778 19.9321 8.06399 19.9321 8.23237L19.9321 18.7064C19.9321 18.866 19.905 19.015 19.8507 19.1533C19.7904 19.3072 19.6964 19.4479 19.5688 19.5755C19.4412 19.7031 19.3005 19.7971 19.1465 19.8575C19.0082 19.9117 18.8593 19.9388 18.6997 19.9388L8.22565 19.9388C8.05726 19.9388 7.90104 19.9092 7.75698 19.85C7.61014 19.7897 7.47595 19.6986 7.35438 19.5767C7.23168 19.4538 7.14025 19.3181 7.08009 19.1697L7.08007 19.1697C7.02221 19.027 6.99329 18.8726 6.99329 18.7064L6.99329 8.23237C6.99329 8.05731 7.02477 7.89561 7.08772 7.74727C7.14767 7.60603 7.23615 7.4769 7.35316 7.35988C7.47018 7.24286 7.59931 7.15438 7.74055 7.09444L7.74057 7.09443C7.8889 7.03148 8.0506 7 8.22565 7L18.6997 7C18.8659 7 19.0203 7.02893 19.163 7.0868C19.3114 7.14696 19.447 7.2384 19.57 7.3611C19.6919 7.48266 19.783 7.61685 19.8433 7.76369L19.8433 7.76372ZM22.9321 40.1098L22.9321 29.6357C22.9321 29.329 22.9003 29.0293 22.8367 28.7365C22.7812 28.4807 22.7014 28.2303 22.5974 27.985C22.4951 27.7441 22.373 27.5163 22.2309 27.3018C22.0744 27.0654 21.8938 26.845 21.6889 26.6407C21.4857 26.4379 21.2668 26.259 21.0321 26.1038C20.8163 25.9611 20.5871 25.8385 20.3446 25.736C20.0952 25.6306 19.8405 25.5502 19.5805 25.4949C19.2934 25.4339 18.9998 25.4033 18.6997 25.4033L8.22565 25.4033C7.91367 25.4033 7.60889 25.4361 7.31133 25.5016C7.06166 25.5566 6.81707 25.6346 6.57756 25.7357C6.33188 25.8394 6.09993 25.9638 5.88172 26.1088C5.64955 26.2631 5.43292 26.4408 5.23184 26.6419C5.03077 26.843 4.85308 27.0596 4.69878 27.2917C4.55375 27.51 4.42938 27.7419 4.32568 27.9876C4.22457 28.2271 4.14654 28.4717 4.09156 28.7214C4.02605 29.0189 3.99329 29.3237 3.99329 29.6357L3.99329 40.1098C3.99329 40.4099 4.02382 40.7034 4.08488 40.9905C4.14019 41.2506 4.22054 41.5053 4.32595 41.7547C4.42843 41.9971 4.55103 42.2263 4.69375 42.4421C4.84893 42.6768 5.02788 42.8957 5.23062 43.0989C5.435 43.3038 5.65538 43.4845 5.89177 43.641C6.10633 43.783 6.33408 43.9052 6.57502 44.0074C6.8195 44.1111 7.06924 44.1907 7.32422 44.2463L7.32645 44.2468C7.61928 44.3103 7.91902 44.3421 8.22565 44.3421L18.6997 44.3421C18.9946 44.3421 19.2833 44.3125 19.5657 44.2533C19.8317 44.1975 20.0922 44.1154 20.3472 44.0071C20.5849 43.9061 20.8098 43.7858 21.0219 43.646C21.2608 43.4887 21.4836 43.3067 21.6901 43.1002C21.8967 42.8936 22.0786 42.6709 22.236 42.4319C22.3758 42.2198 22.4961 41.9949 22.5971 41.7572C22.7054 41.5023 22.7874 41.2418 22.8432 40.9758C22.9025 40.6934 22.9321 40.4047 22.9321 40.1098ZM44.3354 29.6357L44.3354 40.1098C44.3354 40.4046 44.3058 40.6933 44.2466 40.9758C44.1908 41.2418 44.1087 41.5022 44.0004 41.7572C43.8994 41.9949 43.7791 42.2198 43.6393 42.432C43.482 42.6709 43.3 42.8936 43.0935 43.1002C42.8869 43.3067 42.6641 43.4887 42.4252 43.6461C42.2131 43.7858 41.9882 43.9061 41.7505 44.0071C41.4955 44.1154 41.2351 44.1975 40.9691 44.2533C40.6866 44.3125 40.3979 44.3421 40.1031 44.3421L29.629 44.3421C29.3223 44.3421 29.0226 44.3103 28.7298 44.2468C28.474 44.1912 28.2235 44.1114 27.9783 44.0074C27.7374 43.9052 27.5097 43.783 27.2951 43.641C27.0587 43.4845 26.8383 43.3038 26.6339 43.0989C26.4312 42.8957 26.2522 42.6768 26.0971 42.4421C25.9543 42.2263 25.8317 41.9971 25.7293 41.7547C25.6239 41.5053 25.5435 41.2506 25.4882 40.9905C25.4271 40.7034 25.3966 40.4099 25.3966 40.1098L25.3966 29.6357C25.3966 29.3237 25.4294 29.0189 25.4949 28.7214C25.5499 28.4717 25.6279 28.2271 25.729 27.9876C25.8327 27.7419 25.9571 27.51 26.1021 27.2917C26.2564 27.0596 26.4341 26.843 26.6352 26.6419C26.8362 26.4408 27.0529 26.2631 27.285 26.1088C27.5033 25.9638 27.7352 25.8394 27.9809 25.7357C28.2204 25.6346 28.465 25.5566 28.7146 25.5016C29.0122 25.4361 29.317 25.4033 29.629 25.4033L40.1031 25.4033C40.4031 25.4033 40.6967 25.4339 40.9838 25.4949C41.2439 25.5502 41.4986 25.6306 41.748 25.736C41.9904 25.8385 42.2196 25.9611 42.4354 26.1038C42.6701 26.259 42.889 26.4379 43.0922 26.6407C43.2971 26.845 43.4777 27.0654 43.6342 27.3018C43.7763 27.5164 43.8984 27.7441 44.0007 27.985C44.1047 28.2303 44.1845 28.4807 44.24 28.7365C44.3036 29.0293 44.3354 29.3291 44.3354 29.6357ZM19.8434 29.1672C19.9025 29.3112 19.9321 29.4674 19.9321 29.6357L19.9321 40.1098C19.9321 40.2693 19.905 40.4183 19.8507 40.5566C19.7904 40.7105 19.6964 40.8513 19.5688 40.9788C19.4412 41.1064 19.3005 41.2004 19.1465 41.2608C19.0082 41.315 18.8593 41.3421 18.6997 41.3421L8.22565 41.3421C8.05726 41.3421 7.90103 41.3125 7.75697 41.2533C7.61014 41.193 7.47594 41.1019 7.35438 40.9801C7.23168 40.8571 7.14025 40.7214 7.08009 40.5731C7.02222 40.4304 6.99329 40.2759 6.99329 40.1098L6.99329 29.6357C6.99329 29.4606 7.02477 29.2989 7.08772 29.1506C7.14767 29.0093 7.23615 28.8802 7.35316 28.7632C7.47018 28.6462 7.59931 28.5577 7.74055 28.4978L7.74065 28.4977C7.88897 28.4348 8.05063 28.4033 8.22565 28.4033L18.6997 28.4033C18.8659 28.4033 19.0203 28.4322 19.1629 28.4901L19.163 28.4901C19.3114 28.5503 19.447 28.6417 19.57 28.7644C19.6919 28.886 19.783 29.0202 19.8433 29.167L19.8434 29.1672ZM41.3354 29.6357C41.3354 29.4673 41.3058 29.3111 41.2466 29.167C41.1863 29.0202 41.0952 28.886 40.9734 28.7644C40.8504 28.6417 40.7147 28.5503 40.5664 28.4901C40.4237 28.4323 40.2692 28.4033 40.1031 28.4033L29.629 28.4033C29.4539 28.4033 29.2922 28.4348 29.1439 28.4978C29.0026 28.5577 28.8735 28.6462 28.7565 28.7632C28.6395 28.8802 28.551 29.0093 28.491 29.1506C28.4281 29.2989 28.3966 29.4606 28.3966 29.6357L28.3966 40.1098C28.3966 40.2759 28.4255 40.4304 28.4834 40.5731C28.5436 40.7214 28.635 40.8571 28.7577 40.9801C28.8793 41.1019 29.0135 41.193 29.1603 41.2533C29.3044 41.3125 29.4606 41.3421 29.629 41.3421L40.1031 41.3421C40.2626 41.3421 40.4116 41.315 40.5499 41.2608C40.7038 41.2004 40.8446 41.1064 40.9721 40.9788C41.0997 40.8513 41.1937 40.7105 41.2541 40.5566C41.3083 40.4183 41.3354 40.2693 41.3354 40.1098L41.3354 29.6357Z" fill="var(--tiny-first-color)" fill-rule="evenodd"/>
</svg>