<svg width="24" height="24" viewBox="0 0 24 24" xmlns="http://www.w3.org/2000/svg" xmlns:xlink="http://www.w3.org/1999/xlink">
	<defs/>
	<g opacity="0.000000"/>
	<path id="矢量 1" d="M12 1.75C12.42 1.75 12.75 2.08002 12.75 2.5L12.75 3.64667C12.75 4.06665 12.42 4.39667 12 4.39667C11.58 4.39667 11.25 4.06665 11.25 3.64667L11.25 2.5C11.25 2.08002 11.58 1.75 12 1.75ZM18.7755 6.73315L19.5977 5.92236C19.8967 5.62744 19.9 5.16077 19.6051 4.86169C19.3102 4.56268 18.8435 4.55939 18.5444 4.85431L17.7222 5.6651C17.4232 5.96002 17.4199 6.4267 17.7148 6.72577C18.0098 7.02484 18.4764 7.02808 18.7755 6.73315ZM4.3949 4.86169C4.10004 5.16077 4.10327 5.62744 4.40234 5.92236L5.22455 6.73315C5.52356 7.02808 5.99023 7.02484 6.28516 6.72577C6.58008 6.4267 6.57684 5.96002 6.27777 5.6651L5.45557 4.85431C5.15649 4.55939 4.68982 4.56268 4.3949 4.86169ZM8.51984 17.0925L8.51978 18.25L6 18.25C5.58002 18.25 5.25 18.58 5.25 19C5.25 19.42 5.58002 19.75 6 19.75L18 19.75C18.42 19.75 18.75 19.42 18.75 19C18.75 18.58 18.42 18.25 18 18.25L15.4802 18.25L15.4802 17.0925C15.8734 16.8309 16.2325 16.5284 16.5577 16.1849C16.7599 15.9714 16.9453 15.746 17.1139 15.5085C17.2393 15.3319 17.3554 15.1486 17.4622 14.9587C17.7172 14.5054 17.9112 14.0283 18.0443 13.5272C18.097 13.329 18.1395 13.1293 18.1719 12.9279C18.224 12.6047 18.25 12.2771 18.25 11.9456C18.25 11.4932 18.2025 11.0512 18.1074 10.6197C18.0258 10.2491 17.9092 9.88635 17.7575 9.53125C17.6142 9.1958 17.4443 8.87781 17.2477 8.57715C17.0098 8.21326 16.7328 7.87488 16.4167 7.56201C16.1248 7.27295 15.8109 7.01691 15.475 6.79388C15.1477 6.5766 14.7995 6.39069 14.4305 6.23615C14.0874 6.09241 13.7371 5.98059 13.3796 5.90057C12.931 5.80017 12.4711 5.75 12 5.75C11.5289 5.75 11.069 5.80017 10.6204 5.90057C10.2629 5.98059 9.9126 6.09241 9.56946 6.23615C9.20047 6.39069 8.85233 6.5766 8.52502 6.79388C8.18918 7.01685 7.87524 7.27289 7.58325 7.56201C7.26724 7.87488 6.99026 8.21326 6.75232 8.57715C6.55573 8.87775 6.3858 9.1958 6.24249 9.53125C6.09082 9.88641 5.97418 10.2492 5.89252 10.6198C5.79752 11.0513 5.75 11.4932 5.75 11.9456C5.75 12.2771 5.77603 12.6045 5.82806 12.9277C5.86044 13.1284 5.90323 13.3298 5.95569 13.5272C6.01526 13.7514 6.08701 13.9708 6.17096 14.1854C6.27466 14.4505 6.39691 14.7083 6.53784 14.9587C6.78815 15.4038 7.0896 15.8126 7.44226 16.1849C7.76746 16.5284 8.12665 16.8309 8.51984 17.0925ZM13.9802 16.9651L13.9802 18.25L10.0198 18.25L10.0198 16.9651C10.0198 16.7431 9.96417 16.5349 9.85284 16.3405C9.7475 16.1566 9.60468 16.007 9.42444 15.8917C9.07184 15.6663 8.75861 15.4047 8.48468 15.107C8.24023 14.8412 8.02704 14.5468 7.84521 14.2234C7.65369 13.8829 7.50836 13.5298 7.4093 13.1642C7.30313 12.7724 7.25 12.3661 7.25 11.9456C7.25 11.5955 7.28754 11.2538 7.36261 10.9207C7.42395 10.6483 7.51038 10.3816 7.62195 10.1205C7.72681 9.87506 7.85059 9.64178 7.99335 9.42078C8.17706 9.13623 8.39215 8.87195 8.63861 8.62793C8.86154 8.40717 9.10129 8.21179 9.35785 8.04175C9.60583 7.87738 9.86951 7.73669 10.1489 7.61975C10.3994 7.51477 10.6552 7.43219 10.9161 7.37195C11.268 7.29065 11.6293 7.25 12 7.25C12.3707 7.25 12.732 7.29065 13.0839 7.37195C13.3448 7.43219 13.6006 7.51477 13.8511 7.61975C14.1305 7.73669 14.3942 7.87738 14.6422 8.04175C14.8987 8.21179 15.1384 8.40717 15.3614 8.62793C15.6078 8.87195 15.8229 9.13623 16.0067 9.42072C16.1494 9.64178 16.2732 9.87506 16.3781 10.1205C16.4896 10.3816 16.576 10.6483 16.6374 10.9207C16.7125 11.2538 16.75 11.5955 16.75 11.9456C16.75 12.3661 16.6969 12.7724 16.5907 13.1642C16.4916 13.5298 16.3463 13.8829 16.1548 14.2234C15.973 14.5468 15.7598 14.8412 15.5153 15.107C15.2414 15.4047 14.9281 15.6663 14.5756 15.8917C14.3953 16.007 14.2525 16.1566 14.1472 16.3405C14.0878 16.4443 14.0442 16.552 14.0165 16.6637C13.9922 16.7612 13.9802 16.8616 13.9802 16.9651ZM4.16278 11.6113L3 11.6113C2.58002 11.6113 2.25 11.9413 2.25 12.3613C2.25 12.7813 2.58002 13.1113 3 13.1113L4.16278 13.1113C4.58276 13.1113 4.91278 12.7813 4.91278 12.3613C4.91278 11.9413 4.58276 11.6113 4.16278 11.6113ZM21 11.6113L19.8372 11.6113C19.4172 11.6113 19.0872 11.9413 19.0872 12.3613C19.0872 12.7813 19.4172 13.1113 19.8372 13.1113L21 13.1113C21.42 13.1113 21.75 12.7813 21.75 12.3613C21.75 11.9413 21.42 11.6113 21 11.6113ZM16 20.75L8 20.75C7.58002 20.75 7.25 21.08 7.25 21.5C7.25 21.92 7.58002 22.25 8 22.25L16 22.25C16.42 22.25 16.75 21.92 16.75 21.5C16.75 21.08 16.42 20.75 16 20.75Z" fill-rule="evenodd"/>
</svg>
