<?xml version="1.0" encoding="UTF-8"?>
<svg xmlns="http://www.w3.org/2000/svg" viewBox="0 0 24 24">
  <path d="m13.28,5.14c-.46.46-.71,1.07-.71,1.72s.25,1.26.71,1.72c.46.46,1.07.71,1.72.71s1.26-.25,1.72-.71c.46-.46.71-1.07.71-1.72s-.25-1.26-.71-1.72c-.92-.92-2.52-.92-3.43,0Zm2.38,1.06c.17.17.27.41.27.66s-.1.48-.27.66c-.35.35-.96.35-1.31,0-.18-.18-.27-.41-.27-.66s.1-.48.27-.66c.18-.18.41-.27.66-.27s.48.1.66.27Zm-.95,7.31l-1.22,1.24c-.33.33-.76.5-1.2.5s-.86-.16-1.18-.48l-4.37-4.29c-.07-.07-.19-.07-.27,0l-3.71,3.69v2.41c0,1.37,1.25,2.49,2.78,2.49h6.24c.41,0,.75.34.75.75s-.34.75-.75.75h-6.24c-2.36,0-4.28-1.79-4.28-3.99v-2.73h0V5.24c0-2.2,1.92-3.99,4.28-3.99h12.37c2.36,0,4.28,1.79,4.28,3.99v5.75c0,.41-.34.75-.75.75s-.75-.34-.75-.75v-5.75c0-1.37-1.25-2.49-2.78-2.49H5.53c-1.53,0-2.78,1.12-2.78,2.49v6.81l2.66-2.64c.65-.65,1.72-.65,2.38,0l4.37,4.29c.08.07.19.07.27,0l1.23-1.24c.29-.29.77-.3,1.06,0,.29.29.3.77,0,1.06Zm8.04,4.44c0,.41-.34.75-.75.75h-2.49v2.49c0,.41-.34.75-.75.75s-.75-.34-.75-.75v-2.49h-2.49c-.41,0-.75-.34-.75-.75s.34-.75.75-.75h2.49v-2.49c0-.41.34-.75.75-.75s.75.34.75.75v2.49h2.49c.41,0,.75.34.75.75Z"/>
</svg>