<?xml version="1.0" encoding="UTF-8"?>
<svg viewBox="0 0 24 24" version="1.1" xmlns="http://www.w3.org/2000/svg" xmlns:xlink="http://www.w3.org/1999/xlink">
    <g id="页面-1" stroke="none" stroke-width="1" fill-rule="evenodd">
        <g id="IconAdministratorO" fill-rule="nonzero">
            <rect id="矩形" fill="#D8D8D8" opacity="0" x="0" y="0" width="24" height="24"></rect>
            <path d="M12.0005986,2.99845 C14.0265986,2.99845 15.6685986,4.64145 15.6685986,6.66645 C15.6685986,9.04729817 15.0253455,10.7392392 14.0469201,11.6719697 L14.0474986,11.67055 L18.0374986,14.30355 C18.9234986,14.86555 19.5664986,15.73755 19.8414986,16.74955 L19.8414986,16.74955 L20.4414986,18.94855 C20.7234986,19.98355 19.9454986,21.00155 18.8744986,21.00155 L18.8744986,21.00155 L5.12649862,21.00155 C4.05449862,21.00155 3.27649862,19.98355 3.55849862,18.94855 L3.55849862,18.94855 L4.15849862,16.74955 C4.43349862,15.73755 5.07749862,14.86555 5.96349862,14.30355 L5.96349862,14.30355 L10.1065986,11.67445 C9.04359862,10.64845 8.33159862,8.78445 8.33159862,6.66645 C8.33159862,4.64145 9.97359862,2.99845 12.0005986,2.99845 Z" id="形状结合"></path>
        </g>
    </g>
</svg>