<svg viewBox="0 0 24 24" xmlns="http://www.w3.org/2000/svg"
	xmlns:xlink="http://www.w3.org/1999/xlink">
	<defs />
	<path id="路径"
		d="M11.7526 2.25424C8.66901 2.36115 7.12378 4.4877 7.12378 7.75305L7.12598 7.91599L7.07214 7.99249C6.71204 8.55203 6.64929 9.32507 6.89874 10.0481L6.96301 10.2166C7.1709 10.713 7.51251 11.1258 7.92822 11.381L8.05298 11.451L8.2088 11.7083C8.26019 11.7885 8.31323 11.867 8.36792 11.9436L8.47369 12.0851C9.03601 12.8459 9.06085 13.1228 8.71722 13.3281L8.58777 13.3959L8.45862 13.4555L8.24304 13.5468L8.06714 13.6172L7.02917 14.0099L6.4303 14.2426L5.80212 14.5056L5.55548 14.6166C5.46338 14.659 5.37921 14.6988 5.29669 14.7388L5.05316 14.8604C3.2793 15.7727 2.25592 16.8758 2.26038 18.3838L2.25006 19.2635L2.25092 19.5244L2.25952 19.7944L2.27032 19.9538C2.36401 21.0356 2.87354 21.7057 3.93713 21.749L20.0325 21.75C21.1585 21.7049 21.6561 21.0085 21.7347 19.8913L21.7469 19.6323L21.7499 19.4651L21.7485 19.1119L21.7397 18.3783C21.7446 16.7279 20.5435 15.5842 18.4507 14.6198L18.0719 14.4512L17.8257 14.3473L17.577 14.2459L17.2131 14.1029L16.1108 13.6865L15.835 13.5788L15.6713 13.5118L15.5232 13.4477L15.3516 13.3662C14.9474 13.1607 14.9321 12.9193 15.4757 12.1554L15.6786 11.8761C15.7262 11.8072 15.7729 11.7363 15.8185 11.6635L15.944 11.45L16.0704 11.3807C16.532 11.097 16.9023 10.619 17.0993 10.0481L17.1552 9.86658C17.3361 9.1983 17.2562 8.50647 16.9268 7.99332L16.872 7.91599L16.8748 7.75305C16.8748 4.40176 15.2471 2.25 11.9993 2.25L11.7526 2.25424Z"
		fill-rule="evenodd" />
</svg>