<svg viewBox="0 0 24 24" xmlns="http://www.w3.org/2000/svg"
	xmlns:xlink="http://www.w3.org/1999/xlink">
	<defs />
	<g opacity="0.000000" />
	<path id="矢量 34"
		d="M20.75 4C20.75 3.58578 20.4142 3.25 20 3.25L4 3.25L3.89825 3.25685C3.53217 3.30651 3.25 3.6203 3.25 4C3.25 4.41422 3.58582 4.75 4 4.75L20 4.75L20.1017 4.74315C20.4678 4.69349 20.75 4.3797 20.75 4ZM18 7.25L6 7.25C4.4812 7.25 3.25 8.48122 3.25 10L3.25 14C3.25 15.5188 4.4812 16.75 6 16.75L18 16.75C19.5188 16.75 20.75 15.5188 20.75 14L20.75 10C20.75 8.48122 19.5188 7.25 18 7.25ZM18 8.75L6 8.75C5.30963 8.75 4.75 9.30965 4.75 10L4.75 14C4.75 14.6904 5.30963 15.25 6 15.25L18 15.25C18.6904 15.25 19.25 14.6904 19.25 14L19.25 10C19.25 9.30965 18.6904 8.75 18 8.75ZM20.75 20C20.75 19.5858 20.4142 19.25 20 19.25L4 19.25L3.89825 19.2569C3.53217 19.3065 3.25 19.6203 3.25 20C3.25 20.4142 3.58582 20.75 4 20.75L20 20.75L20.1017 20.7431C20.4678 20.6935 20.75 20.3797 20.75 20Z"
		fill-rule="evenodd" />
</svg>