<?xml version="1.0" encoding="utf-8"?>
<svg viewBox="0 0 1024 1024" version="1.1" xmlns="http://www.w3.org/2000/svg">
  <path d="M884.363636 535.272727c51.2 0 93.090909 41.890909 93.090909 93.090909v256c0 51.2-41.890909 93.090909-93.090909 93.090909H628.363636c-51.2 0-93.090909-41.890909-93.090909-93.090909V628.363636c0-51.2 41.890909-93.090909 93.090909-93.090909h256z m23.272728 349.090909V628.363636c0-12.613818-10.658909-23.272727-23.272728-23.272727H628.363636c-12.613818 0-23.272727 10.658909-23.272727 23.272727v256c0 12.613818 10.658909 23.272727 23.272727 23.272728h256c12.613818 0 23.272727-10.658909 23.272728-23.272728zM884.363636 46.545455c51.2 0 93.090909 41.890909 93.090909 93.090909v256c0 51.2-41.890909 93.090909-93.090909 93.090909H628.363636c-51.2 0-93.090909-41.890909-93.090909-93.090909V139.636364c0-51.2 41.890909-93.090909 93.090909-93.090909h256z m23.272728 349.090909V139.636364c0-12.613818-10.658909-23.272727-23.272728-23.272728H628.363636c-12.613818 0-23.272727 10.658909-23.272727 23.272728v256c0 12.613818 10.658909 23.272727 23.272727 23.272727h256c12.613818 0 23.272727-10.658909 23.272728-23.272727zM139.636364 46.545455h256c51.2 0 93.090909 41.890909 93.090909 93.090909v256c0 51.2-41.890909 93.090909-93.090909 93.090909H139.636364c-51.2 0-93.090909-41.890909-93.090909-93.090909V139.636364c0-51.2 41.890909-93.090909 93.090909-93.090909z m279.272727 349.090909V139.636364c0-12.613818-10.658909-23.272727-23.272727-23.272728H139.636364c-12.613818 0-23.272727 10.658909-23.272728 23.272728v256c0 12.613818 10.658909 23.272727 23.272728 23.272727h256c12.613818 0 23.272727-10.658909 23.272727-23.272727z m-23.272727 139.636363c51.2 0 93.090909 41.890909 93.090909 93.090909v256c0 51.2-41.890909 93.090909-93.090909 93.090909H139.636364c-51.2 0-93.090909-41.890909-93.090909-93.090909V628.363636c0-51.2 41.890909-93.090909 93.090909-93.090909h256z m23.272727 349.090909V628.363636c0-12.613818-10.658909-23.272727-23.272727-23.272727H139.636364c-12.613818 0-23.272727 10.658909-23.272728 23.272727v256c0 12.613818 10.658909 23.272727 23.272728 23.272728h256c12.613818 0 23.272727-10.658909 23.272727-23.272728z"></path>
</svg>