<?xml version="1.0" encoding="UTF-8"?>
<svg viewBox="0 0 24 24" version="1.1" xmlns="http://www.w3.org/2000/svg" xmlns:xlink="http://www.w3.org/1999/xlink">
    <g id="S12组件" stroke="none" stroke-width="1">
        <g id="AreaChart">
            <rect id="矩形" opacity="0" x="0" y="0" width="24" height="24"></rect>
            <g id="编组-25" transform="translate(3.000000, 3.007080)">
                <path d="M0.75,0 C1.12969577,0 1.44349096,0.282153882 1.49315338,0.648229443 L1.5,0.75 L1.5,15.2429199 C1.5,15.8901286 1.99187466,16.4224538 2.62219476,16.4864663 L2.75,16.4929199 L17.2476654,16.4929199 C17.661879,16.4929199 17.9976654,16.8287064 17.9976654,17.2429199 C17.9976654,17.6226157 17.7155115,17.9364109 17.349436,17.9860733 L17.2476654,17.9929199 L2.75,17.9929199 C1.28746816,17.9929199 0.0915957212,16.8512153 0.00501879394,15.4104423 L0,15.2429199 L0,0.75 C0,0.335786438 0.335786438,0 0.75,0 Z M3.65517241,10.1357837 C4.03486818,10.1357837 4.34866337,10.4179376 4.3983258,10.7840132 L4.40517241,10.8857837 L4.40517241,14.3500655 C4.40517241,14.764279 4.06938598,15.1000655 3.65517241,15.1000655 C3.27547665,15.1000655 2.96168145,14.8179116 2.91201903,14.451836 L2.90517241,14.3500655 L2.90517241,10.8857837 C2.90517241,10.4715702 3.24095885,10.1357837 3.65517241,10.1357837 Z M7.65517241,8.60006545 C8.03486818,8.60006545 8.34866337,8.88221933 8.3983258,9.2482949 L8.40517241,9.35006545 L8.40517241,14.3500655 C8.40517241,14.764279 8.06938598,15.1000655 7.65517241,15.1000655 C7.27547665,15.1000655 6.96168145,14.8179116 6.91201903,14.451836 L6.90517241,14.3500655 L6.90517241,9.35006545 C6.90517241,8.93585189 7.24095885,8.60006545 7.65517241,8.60006545 Z M11.6551724,10.1357837 C12.0348682,10.1357837 12.3486634,10.4179376 12.3983258,10.7840132 L12.4051724,10.8857837 L12.4051724,14.3500655 C12.4051724,14.764279 12.069386,15.1000655 11.6551724,15.1000655 C11.2754766,15.1000655 10.9616815,14.8179116 10.912019,14.451836 L10.9051724,14.3500655 L10.9051724,10.8857837 C10.9051724,10.4715702 11.2409589,10.1357837 11.6551724,10.1357837 Z M15.6551724,5.60006545 C16.0348682,5.60006545 16.3486634,5.88221933 16.3983258,6.2482949 L16.4051724,6.35006545 L16.4051724,14.3500655 C16.4051724,14.764279 16.069386,15.1000655 15.6551724,15.1000655 C15.2754766,15.1000655 14.9616815,14.8179116 14.912019,14.451836 L14.9051724,14.3500655 L14.9051724,6.35006545 C14.9051724,5.93585189 15.2409589,5.60006545 15.6551724,5.60006545 Z M16.8080528,1.27238329 C17.0532139,1.55820108 17.0455387,1.97549672 16.8059041,2.25161898 L16.7270758,2.32994781 L11.4970618,6.70826818 C11.2007155,6.9624601 10.765085,6.94393643 10.4910259,6.68176717 L10.4205144,6.6042475 L8.239,3.846 L3.5667782,7.27667308 C3.26320468,7.49947094 2.84769045,7.46019655 2.59052082,7.20032725 L2.51839055,7.11579009 C2.29559269,6.81221657 2.33486708,6.39670233 2.59473639,6.1395327 L2.67927355,6.06740244 L7.93555802,2.20972431 C8.23142393,1.9925832 8.63528512,2.02375681 8.89441852,2.26911174 L8.96756398,2.34910953 L11.113,5.061 L15.7504883,1.19140625 C16.0648879,0.921729063 16.5383756,0.957983718 16.8080528,1.27238329 Z" id="形状"></path>
            </g>
        </g>
    </g>
</svg>