<svg viewBox="0 0 24 24" xmlns="http://www.w3.org/2000/svg"
	xmlns:xlink="http://www.w3.org/1999/xlink">
	<defs />
	<path id="矢量 35"
		d="M20.5428 3.51771C20.7955 3.25346 20.8232 2.83702 20.5922 2.53972C20.338 2.21268 19.8668 2.15365 19.5397 2.40786L14.886 6.023L11.8328 3.29796C11.5762 3.13183 11.1468 3.06632 10.8931 3.25035L6.55969 6.39285C6.29834 6.64854 6.17175 7.13547 6.39282 7.44031C6.64856 7.70164 7.1355 7.82822 7.44031 7.60715L11.284 4.819L14.3547 7.55954C14.6185 7.72884 15.0604 7.78965 15.3145 7.59215L20.5428 3.51771ZM3 3.25C3.3797 3.25 3.69348 3.53216 3.74316 3.89824L3.75 4L3.75 18.3C3.75 19.328 4.54547 20.1702 5.55444 20.2447L5.70001 20.25L21 20.25C21.4142 20.25 21.75 20.5858 21.75 21C21.75 21.3797 21.4678 21.6935 21.1018 21.7432L21 21.75L5.70001 21.75C3.85815 21.75 2.35339 20.3066 2.25513 18.4893L2.25 18.3L2.25 4C2.25 3.58578 2.58582 3.25 3 3.25ZM19.5 7.25C19.8797 7.25 20.1935 7.53216 20.2432 7.89824L20.25 8L20.25 17C20.25 17.4142 19.9142 17.75 19.5 17.75C19.1203 17.75 18.8065 17.4678 18.7568 17.1018L18.75 17L18.75 8C18.75 7.58578 19.0858 7.25 19.5 7.25ZM12.2432 10.8982C12.1935 10.5322 11.8797 10.25 11.5 10.25C11.0858 10.25 10.75 10.5858 10.75 11L10.75 17L10.7568 17.1018C10.8065 17.4678 11.1203 17.75 11.5 17.75C11.9142 17.75 12.25 17.4142 12.25 17L12.25 11L12.2432 10.8982ZM8.24316 11.8982C8.19348 11.5322 7.8797 11.25 7.5 11.25C7.08582 11.25 6.75 11.5858 6.75 12L6.75 17L6.75684 17.1018C6.80652 17.4678 7.1203 17.75 7.5 17.75C7.91418 17.75 8.25 17.4142 8.25 17L8.25 12L8.24316 11.8982ZM15.5 12.25C15.8797 12.25 16.1935 12.5322 16.2432 12.8982L16.25 13L16.25 17C16.25 17.4142 15.9142 17.75 15.5 17.75C15.1203 17.75 14.8065 17.4678 14.7568 17.1018L14.75 17L14.75 13C14.75 12.5858 15.0858 12.25 15.5 12.25Z"
		fill-rule="evenodd" />
</svg>