<?xml version="1.0" encoding="UTF-8"?>
<svg viewBox="0 0 24 24" version="1.1" xmlns="http://www.w3.org/2000/svg" xmlns:xlink="http://www.w3.org/1999/xlink">
    <g id="置底" stroke="none" stroke-width="1">
        <rect id="bj" opacity="0" x="0" y="0"></rect>
        <path d="M19.25,20.4992918 C19.6642136,20.4992918 20,20.8350782 20,21.2492918 C20,21.6635054 19.6642136,21.9992918 19.25,21.9992918 L4.75,21.9992918 C4.33578644,21.9992918 4,21.6635054 4,21.2492918 C4,20.8350782 4.33578644,20.4992918 4.75,20.4992918 L19.25,20.4992918 Z M12.0000201,2.0007082 C12.4137298,2.0007082 12.7491078,2.33608615 12.7491078,2.74979582 L12.749,16.9667082 L17.2476618,12.469678 C17.5139243,12.2034074 17.9305877,12.179195 18.2242025,12.397045 L18.308322,12.4696618 C18.5745926,12.7359243 18.598805,13.1525877 18.380955,13.4462025 L18.3083382,13.530322 L12.6010404,19.2377936 C12.5198075,19.3190264 12.4262234,19.3803802 12.3263331,19.4218547 C12.2275673,19.4689847 12.1169209,19.4957627 12.0000201,19.4957627 C11.8851008,19.4957627 11.7762256,19.4698847 11.6789038,19.4236383 C11.6113952,19.3965475 11.5463285,19.359776 11.485997,19.3138582 L11.3989507,19.2377855 L5.6916618,13.530322 C5.39877306,13.2374243 5.39878033,12.7625505 5.69167803,12.4696618 C5.95794866,12.2033993 6.37461271,12.1791996 6.66822088,12.3970586 L6.7523382,12.469678 L11.25,16.9677082 L11.2509325,2.74979582 C11.2509325,2.33608615 11.5863105,2.0007082 12.0000201,2.0007082 Z" id="zhidi"></path>
    </g>
</svg>