<?xml version="1.0" encoding="UTF-8"?>
<svg viewBox="0 0 24 24" version="1.1" xmlns="http://www.w3.org/2000/svg" xmlns:xlink="http://www.w3.org/1999/xlink">
    <g id="页面-1" stroke="none" stroke-width="1">
        <g id="画板" transform="translate(-1076.000000, -157.000000)">
            <g id="编组" transform="translate(1076.000000, 157.000000)">
                <path d="M11.2195801,2.96966991 C11.4858466,3.23593648 11.5100527,3.65260016 11.2921982,3.94621165 L11.2195801,4.03033009 L3.99875,11.25 L21.18925,11.25 C21.6034636,11.25 21.93925,11.5857864 21.93925,12 C21.93925,12.3796958 21.6570961,12.693491 21.2910206,12.7431534 L21.18925,12.75 L3.99975,12.75 L11.2195801,19.9696699 C11.5124733,20.2625631 11.5124733,20.7374369 11.2195801,21.0303301 C10.9533135,21.2965966 10.5366498,21.3208027 10.2430383,21.1029482 L10.1589199,21.0303301 L2.71991991,13.5913301 C1.88287875,12.7542889 1.84301965,11.4220273 2.60034261,10.5378223 L2.71991991,10.4086699 L10.1589199,2.96966991 C10.4518131,2.6767767 10.9266869,2.6767767 11.2195801,2.96966991 Z" id="形状结合"></path>
            </g>
        </g>
    </g>
</svg>