<svg viewBox="0 0 24 24" xmlns="http://www.w3.org/2000/svg"
	xmlns:xlink="http://www.w3.org/1999/xlink">
	<defs />
	<path id="矢量 41"
		d="M1.87729 11.5818C1.68634 11.8656 1.71021 12.2502 1.94891 12.5087L7.94891 19.0087L8.03003 19.0846C8.3147 19.3141 8.73199 19.3065 9.00873 19.0511L9.08463 18.97C9.31403 18.6853 9.30652 18.268 9.05109 17.9913L4.2124 12.75L21.5 12.75L21.6018 12.7432C21.9678 12.6935 22.25 12.3797 22.25 12C22.25 11.5858 21.9142 11.25 21.5 11.25L4.2124 11.25L9.05109 6.00871L9.1203 5.92176C9.32623 5.61967 9.2854 5.20432 9.00873 4.9489C8.70435 4.66795 8.22986 4.68693 7.94891 4.99129L1.94891 11.4913L1.87729 11.5818Z"
		fill-rule="evenodd" />
</svg>