<svg viewBox="0 0 24 24" xmlns="http://www.w3.org/2000/svg"
	xmlns:xlink="http://www.w3.org/1999/xlink">
	<defs />
	<path id="形状"
		d="M20.2495 3C20.2495 2.58578 19.9138 2.25 19.4995 2.25L4.49954 2.25L4.39777 2.25685C4.03171 2.3065 3.74954 2.6203 3.74954 3C3.74954 3.41422 4.08533 3.75 4.49954 3.75L19.4995 3.75L19.6013 3.74315C19.9674 3.6935 20.2495 3.3797 20.2495 3ZM5.39661 11.5538L5.46921 11.4697L11.4692 5.46967C11.5039 5.43494 11.5412 5.40433 11.5805 5.37784L11.6724 5.32489L11.751 5.29221L11.8134 5.27339L11.9218 5.25403L12 5.25L12.0639 5.25269L12.1541 5.26599L12.2238 5.28395L12.3045 5.31444L12.3625 5.34343L12.4583 5.40627L12.5299 5.46967L18.5299 11.4697C18.8228 11.7626 18.8228 12.2374 18.5299 12.5303C18.2636 12.7966 17.847 12.8208 17.5533 12.603L17.4692 12.5303L12.7495 7.81055L12.75 21C12.75 21.4142 12.4142 21.75 12 21.75C11.6203 21.75 11.3065 21.4678 11.2568 21.1018L11.25 21L11.2495 7.81055L6.52988 12.5303C6.26361 12.7966 5.84695 12.8208 5.55334 12.603L5.46921 12.5303C5.23254 12.2937 5.1871 11.9381 5.33295 11.6558L5.39661 11.5538Z"
		clip-rule="evenodd" fill-rule="evenodd" fill-opacity="1.000000" />
</svg>