<svg viewBox="0 0 24 24" xmlns="http://www.w3.org/2000/svg"
	xmlns:xlink="http://www.w3.org/1999/xlink">
	<defs />
	<path id="矢量 42"
		d="M22.1227 11.5818C22.3137 11.8656 22.2898 12.2502 22.0511 12.5087L16.0511 19.0087L15.97 19.0846C15.6853 19.3141 15.268 19.3065 14.9913 19.0511L14.9154 18.97C14.686 18.6853 14.6935 18.268 14.9489 17.9913L19.7876 12.75L2.5 12.75L2.39819 12.7432C2.03217 12.6935 1.75 12.3797 1.75 12C1.75 11.5858 2.08582 11.25 2.5 11.25L19.7876 11.25L14.9489 6.00871L14.8797 5.92176C14.6738 5.61967 14.7146 5.20432 14.9913 4.9489C15.2957 4.66795 15.7701 4.68693 16.0511 4.99129L22.0511 11.4913L22.1227 11.5818Z"
		fill-rule="evenodd" />
</svg>