<svg viewBox="0 0 24 24" xmlns="http://www.w3.org/2000/svg"
	xmlns:xlink="http://www.w3.org/1999/xlink">
	<defs />
	<path id="矢量 36"
		d="M5.39655 12.4462L11.4692 18.5303C11.5039 18.5651 11.5412 18.5957 11.5804 18.6222L11.751 18.7078L11.9218 18.746L12.0638 18.7473L12.2238 18.716L12.3624 18.6566L12.5298 18.5303L18.5298 12.5303C18.8228 12.2374 18.8228 11.7626 18.5298 11.4697C18.2635 11.2034 17.8469 11.1792 17.5533 11.397L12.7495 16.1895L12.75 3C12.75 2.58578 12.4142 2.25 12 2.25C11.6202 2.25 11.3065 2.53215 11.2568 2.89822L11.25 3L11.2495 16.1895L6.52985 11.4697C6.26355 11.2034 5.84692 11.1792 5.55328 11.397C5.31665 11.6337 5.18707 12.0619 5.33289 12.3442L5.39655 12.4462ZM20.2495 21C20.2495 21.4142 19.9137 21.75 19.4995 21.75L4.49951 21.75L4.39771 21.7431C4.03168 21.6935 3.74951 21.3797 3.74951 21C3.74951 20.5858 4.08533 20.25 4.49951 20.25L19.4995 20.25L19.6013 20.2569C19.9673 20.3065 20.2495 20.6203 20.2495 21Z"
		fill-rule="evenodd" />
</svg>