<?xml version="1.0" encoding="UTF-8"?>
<svg viewBox="0 0 24 24" version="1.1" xmlns="http://www.w3.org/2000/svg" xmlns:xlink="http://www.w3.org/1999/xlink">
    <g id="线性/ic_from_bottom_to_up_lined" stroke="none" stroke-width="1">
        <g id="编组">
            <rect id="矩形" stroke="#979797" stroke-width="1.5" opacity="0" x="0.75" y="0.75" width="22.5" height="22.5"></rect>
            <path d="M13.75,18.5 L13.88,18.5120835 C14.2298738,18.5755874 14.5,18.8818102 14.5,19.25 C14.5,19.6642136 14.1642136,20 13.75,20 L13.75,20 L3.75,20 L3.61518655,19.9879165 C3.26531274,19.9244126 3,19.6181898 3,19.25 C3,18.8357864 3.33578644,18.5 3.75,18.5 L3.75,18.5 L13.75,18.5 Z M16.5065468,4.64884263 C16.5841085,4.05033696 17.3327235,3.77356687 17.7803301,4.22117348 L17.7803301,4.22117348 L20.7803301,7.22117348 L20.8529482,7.30529191 C21.0708027,7.59890341 21.0465966,8.01556709 20.7803301,8.28183365 L20.7803301,8.28183365 L20.6962117,8.35445181 C20.4026002,8.57230627 19.9859365,8.54810021 19.7196699,8.28183365 L19.7196699,8.28183365 L18.0006,6.56250357 L18,19.25 L17.9931534,19.35 C17.943491,19.7160756 17.6296958,20 17.25,20 C16.8357864,20 16.5,19.6642136 16.5,19.25 L16.5,19.25 L16.5,4.75150357 Z M13.75,11.25 L13.88,11.2620835 C14.2298738,11.3255874 14.5,11.6318102 14.5,12 C14.5,12.4142136 14.1642136,12.75 13.75,12.75 L13.75,12.75 L3.75,12.75 L3.61518655,12.7379165 C3.26531274,12.6744126 3,12.3681898 3,12 C3,11.5857864 3.33578644,11.25 3.75,11.25 L3.75,11.25 L13.75,11.25 Z M13.75,4 L13.88,4.0120835 C14.2298738,4.07558744 14.5,4.38181017 14.5,4.75 C14.5,5.16421356 14.1642136,5.5 13.75,5.5 L13.75,5.5 L3.75,5.5 L3.61518655,5.4879165 C3.26531274,5.42441256 3,5.11818983 3,4.75 C3,4.33578644 3.33578644,4 3.75,4 L3.75,4 L13.75,4 Z" id="形状结合"></path>
        </g>
    </g>
</svg>