<svg viewBox="0 0 24 24" xmlns="http://www.w3.org/2000/svg"
	xmlns:xlink="http://www.w3.org/1999/xlink">
	<defs />
	<path id="形状"
		d="M18 21.2515C18.3797 21.2515 18.6935 20.9693 18.7432 20.6033L18.75 20.5015L18.75 5.24249L20.485 6.88008C20.7588 7.13864 21.176 7.15094 21.4633 6.92477L21.5453 6.84979C21.8038 6.57603 21.8161 6.15884 21.59 5.87157L21.515 5.78957L18.515 2.95622C18.0632 2.5296 17.3365 2.80835 17.2571 3.39487L17.25 3.5015L17.25 20.5015C17.25 20.9157 17.5858 21.2515 18 21.2515ZM14.75 4C14.75 3.58578 14.4142 3.25 14 3.25L3 3.25L2.89822 3.25685C2.53217 3.3065 2.25 3.6203 2.25 4C2.25 4.41422 2.58578 4.75 3 4.75L14 4.75L14.1018 4.74315C14.4678 4.6935 14.75 4.3797 14.75 4ZM14 11.25C14.4142 11.25 14.75 11.5858 14.75 12C14.75 12.3797 14.4678 12.6935 14.1018 12.7431L14 12.75L3 12.75C2.58578 12.75 2.25 12.4142 2.25 12C2.25 11.6203 2.53217 11.3065 2.89822 11.2569L3 11.25L14 11.25ZM14.75 20C14.75 19.5858 14.4142 19.25 14 19.25L3 19.25L2.89822 19.2569C2.53217 19.3065 2.25 19.6203 2.25 20C2.25 20.4142 2.58578 20.75 3 20.75L14 20.75L14.1018 20.7431C14.4678 20.6935 14.75 20.3797 14.75 20Z"
		clip-rule="evenodd" fill-rule="evenodd" fill-opacity="1.000000" />
</svg>