<?xml version="1.0" encoding="UTF-8"?>
<svg viewBox="0 0 24 24" version="1.1" xmlns="http://www.w3.org/2000/svg" xmlns:xlink="http://www.w3.org/1999/xlink">
    <g id="页面-1" stroke="none" stroke-width="1">
        <g id="画板" transform="translate(-1076.000000, -225.000000)">
            <g id="编组" transform="translate(1076.000000, 225.000000)">
                <path d="M18,3 C19.5976809,3 20.9036609,4.24891996 20.9949073,5.82372721 L21,6 L21,9.29 C21,9.66969577 20.7178461,9.98349096 20.3517706,10.0331534 L20.25,10.04 L17.0769231,10.04 C16.6627095,10.04 16.3269231,9.70421356 16.3269231,9.29 C16.3269231,9.24843775 16.3303038,9.20766513 16.3368053,9.16794211 L16.3424166,9.28846154 C16.3424166,8.30072151 15.5416951,7.5 14.5539551,7.5 C13.566215,7.5 12.7654935,8.30072151 12.7654935,9.28846154 C12.7654935,9.66800804 12.4835532,9.98173409 12.1176387,10.0315633 L12.0159105,10.0384614 L8.517,10.04 L8.507,11.338 L8.65525462,11.3755151 C9.97501548,11.7515601 10.9560979,12.9313196 11.0355636,14.3518551 L11.0407692,14.5384615 C11.0407692,16.0414964 10.0323964,17.3090132 8.65525462,17.701408 L8.501,17.74 L8.5,19.5 L18,19.5 C18.7796961,19.5 19.4204487,18.9051119 19.4931334,18.14446 L19.5,18 L19.5,11.8 C19.5,11.3857864 19.8357864,11.05 20.25,11.05 C20.6296958,11.05 20.943491,11.3321539 20.9931534,11.6982294 L21,11.8 L21,18 C21,19.5976809 19.75108,20.9036609 18.1762728,20.9949073 L18,21 L6,21 C4.40231912,21 3.09633912,19.75108 3.00509269,18.1762728 L3,18 L3,6 C3,4.40231912 4.24891996,3.09633912 5.82372721,3.00509269 L6,3 L18,3 Z M7.017,10.041 L4.5,10.043 L4.5,18 C4.5,18.7796961 5.09488808,19.4204487 5.85553999,19.4931334 L6,19.5 L7,19.5 L7.00230789,17.0763776 C7.00260898,16.6623772 7.33830713,16.3269231 7.75230769,16.3269231 C8.74004773,16.3269231 9.54076923,15.5262016 9.54076923,14.5384615 C9.54076923,13.6001085 8.81811807,12.8305397 7.89898935,12.7559287 L7.75230769,12.75 C7.37061177,12.75 7.05589628,12.4649787 7.00848187,12.0967534 L7.00232847,11.994417 L7.017,10.041 Z M7.058,4.5 L6,4.5 C5.22030388,4.5 4.57955132,5.09488808 4.50686658,5.85553999 L4.5,6 L4.5,8.543 L7.028,8.541 L7.058,4.5 Z M18,4.5 L8.557,4.5 L8.528,8.54 L11.351,8.538 L11.3910086,8.38551461 C11.7670536,7.06575375 12.9468131,6.08467129 14.3673486,6.00520567 L14.5539551,6 C16.1127779,6 17.4182748,7.08461731 17.7569453,8.54035154 L19.5,8.54 L19.5,6 C19.5,5.22030388 18.9051119,4.57955132 18.14446,4.50686658 L18,4.5 Z" id="形状"></path>
            </g>
        </g>
    </g>
</svg>