<svg viewBox="0 0 24 24" xmlns="http://www.w3.org/2000/svg"
	xmlns:xlink="http://www.w3.org/1999/xlink">
	<defs />
	<path id="矢量 55"
		d="M18.5455 21.75C20.3153 21.75 21.75 20.3153 21.75 18.5455L21.75 5.45454C21.75 3.68472 20.3153 2.25 18.5455 2.25L5.45453 2.25C3.68469 2.25 2.25 3.68472 2.25 5.45454L2.25 18.5455C2.25 20.3153 3.68469 21.75 5.45453 21.75L18.5455 21.75ZM6.75 3.75L5.45453 3.75C4.51318 3.75 3.75 4.51315 3.75 5.45454L3.75 8.795L6.75 8.795L6.75 3.75ZM8.25 3.75L18.5455 3.75L18.6925 3.75626C19.5651 3.83083 20.25 4.5627 20.25 5.45454L20.25 8.795L17.979 8.795L17.9459 8.66556C17.5801 7.3819 16.4341 6.42703 15.0533 6.34644L14.8636 6.34091L14.6818 6.34598C13.2975 6.42342 12.1478 7.37946 11.7814 8.66556L11.748 8.795L8.25 8.795L8.25 3.75ZM14.8636 7.84091L14.7166 7.84717C13.844 7.92174 13.1591 8.65361 13.1591 9.54546C13.1591 9.95967 12.8233 10.2955 12.4091 10.2955L8.25 10.295L8.25 11.748L8.37988 11.7814C9.66602 12.1479 10.6221 13.2975 10.6995 14.6818L10.7045 14.8636C10.7045 16.3283 9.72192 17.5635 8.37988 17.9459L8.25 17.979L8.25 20.25L18.5455 20.25C19.4373 20.25 20.1692 19.5651 20.2438 18.6925L20.25 18.5455L20.25 10.295L17.3182 10.2955C16.9385 10.2955 16.6247 10.0133 16.575 9.64722L16.5619 9.39838C16.4915 8.57431 15.8348 7.9176 15.0107 7.84717L14.8636 7.84091ZM3.74902 10.295L6.75 10.295L6.75 12.4091C6.75 12.8233 7.08582 13.1591 7.5 13.1591C8.44141 13.1591 9.20453 13.9222 9.20453 14.8636C9.20453 15.7555 8.51959 16.4874 7.64709 16.5619L7.39819 16.575C7.03217 16.6247 6.75 16.9385 6.75 17.3182L6.75 20.249L5.45453 20.25L5.3075 20.2437C4.43494 20.1692 3.75 19.4373 3.75 18.5455L3.74902 10.295Z"
		fill-rule="evenodd" />
</svg>