<?xml version="1.0" encoding="UTF-8"?>
<svg viewBox="0 0 24 24" version="1.1" xmlns="http://www.w3.org/2000/svg" xmlns:xlink="http://www.w3.org/1999/xlink">
    <g id="页面-1" stroke="none" stroke-width="1">
        <g id="画板" transform="translate(-319.000000, -303.000000)">
            <g id="编组" transform="translate(319.000000, 303.000000)">
                <path d="M19.4725594,3.16758655 C21.0091928,4.70540473 21.060414,7.16711951 19.6260382,8.76671544 L19.4723551,8.92904231 L10.4130842,17.9886335 C10.4109242,17.9908465 10.4087479,17.9930495 10.4065551,17.9952423 C9.46466187,18.9371355 7.93678813,18.9371355 6.99489491,17.9952423 C6.05306971,17.0534171 6.05306971,15.5268582 6.99448681,14.5839906 L7.000575,14.5772378 L15.0542949,6.52498214 C15.3471881,6.23208892 15.8220619,6.23208892 16.1149551,6.52498214 C16.3812216,6.7912487 16.4054277,7.20791239 16.1875732,7.50152388 L16.1149551,7.58564231 L8.05595509,15.6446423 L8.051575,15.6472378 L7.97424604,15.7374512 C7.70185372,16.0956698 7.72906152,16.6080886 8.05555509,16.9345821 C8.3819863,17.2610134 8.89497556,17.288216 9.25249978,17.0161899 L9.34589491,16.9345821 L18.4114906,7.86858655 C19.4158698,6.86343294 19.4158698,5.23299151 18.4116949,4.22804231 C17.4502559,3.26660328 15.9168524,3.22480158 14.9050252,4.10261162 L14.7703843,4.22801306 L5.70529123,13.2937061 L5.70529123,13.2937061 C4.05102562,14.9488214 4.05102562,17.6310527 5.70515509,19.2851821 C7.35926187,20.9392889 10.0413881,20.9392889 11.6954949,19.2851821 L11.701575,19.2782378 L19.7551278,11.2265492 C20.0480392,10.9336742 20.5229129,10.9337037 20.815788,11.226615 C21.082038,11.4928981 21.1062182,11.9095633 20.8883456,12.2031613 L20.8157222,12.2872752 L12.7557222,20.3462752 L12.745575,20.3552378 L12.5715467,20.5225468 C10.3209612,22.5840994 6.82385048,22.5251979 4.64449491,20.3458423 C2.40462439,18.1059718 2.40462439,14.4742031 4.64435878,12.2333183 L4.651575,12.2262378 L13.7098992,3.16717797 C15.3017796,1.57652295 17.8814959,1.57652295 19.4725594,3.16758655 Z" id="形状结合"></path>
            </g>
        </g>
    </g>
</svg>