<svg viewBox="0 0 24 24" xmlns="http://www.w3.org/2000/svg"
	xmlns:xlink="http://www.w3.org/1999/xlink">
	<defs />
	<g opacity="0.000000" />
	<path id="路径"
		d="M13.7288 3.42346C15.3164 1.85884 17.886 1.85884 19.4737 3.42346C21.0143 4.94173 21.0656 7.37619 19.6277 8.95555L19.4737 9.1158L10.9694 17.4967C10.0295 18.4229 8.51028 18.4229 7.57047 17.4967C6.66754 16.6069 6.6265 15.1852 7.44733 14.247L7.57047 14.1164L15.7815 6.02444C16.0765 5.73369 16.5514 5.73717 16.8422 6.0322C17.1065 6.3004 17.1276 6.71722 16.9076 7.00923L16.8344 7.09282L8.62335 15.1848C8.27359 15.5294 8.27359 16.0837 8.62335 16.4283C8.94952 16.7498 9.46527 16.7766 9.82309 16.5087L9.91647 16.4283L18.4208 8.04742C19.4184 7.0643 19.4184 5.47496 18.4208 4.49185C17.4608 3.54573 15.926 3.50459 14.916 4.36844L14.7816 4.49185L5.98407 13.1618C4.33865 14.7833 4.33865 17.4078 5.98407 19.0293C7.58054 20.6026 10.14 20.6551 11.8007 19.1867L11.9692 19.0293L20.4736 10.6484C20.7686 10.3577 21.2434 10.3611 21.5342 10.6562C21.7985 10.9244 21.8197 11.3412 21.5997 11.6332L21.5264 11.7168L13.0221 20.0977C10.7867 22.3008 7.16669 22.3008 4.93118 20.0977C2.75018 17.9483 2.69125 14.4953 4.75436 12.2755L4.93118 12.0934L13.7288 3.42346Z"
		fill-rule="evenodd" />
</svg>