<svg xmlns="http://www.w3.org/2000/svg" xmlns:xlink="http://www.w3.org/1999/xlink" viewBox="0 0 20 24" version="1.1">
    <g id="图标">
        <g id="0809-审核icon" transform="translate(-83.000000, -34.000000)">
            <g id="审核" transform="translate(81.000000, 34.000000)">
                <path d="M0.75273395,11.990831 C0.75273395,10.2332907 0.74658256,8.4757503 0.75273395,6.7182099 C0.74919799,5.8677377 0.85372982,5.02026215 1.0638186,4.19613946 C1.52429418,2.45178063 2.66054404,1.41658934 4.40314533,1.01499136 C5.2769082,0.82620717 6.1693617,0.73775786 7.0631827,0.75136031 C10.4335593,0.75136031 13.8042289,0.75136031 17.1751913,0.75136031 C18.0265235,0.746075585 18.8753883,0.84344277 19.7034132,1.04135447 C21.4987407,1.48073957 22.5761129,2.6178682 22.9864986,4.40704431 C23.1709994,5.2526392 23.2591451,6.1164085 23.2492509,6.98184095 C23.2492509,10.3885401 23.2492509,13.7955321 23.2492509,17.2028171 C23.2538536,18.0459426 23.1567812,18.8865478 22.9601355,19.7064333 C22.5207504,21.5026396 21.3783492,22.5747393 19.5891731,22.9851249 C18.7152981,23.1731946 17.8229263,23.2616358 16.9291357,23.248756 C13.5728194,23.248756 10.216796,23.248756 6.86106555,23.248756 C6.00322585,23.2557576 5.1476411,23.1598731 4.31263201,22.9631557 C2.50939557,22.5237706 1.42675069,21.3813693 1.01724378,19.5834055 C0.808096475,18.6694845 0.75273395,17.7529272 0.75273395,16.828461 C0.75273395,15.2162106 0.75273395,13.6036673 0.75273395,11.990831 Z" id="path1" stroke-opacity="0" stroke="#FFFFFF" stroke-width="0.75" fill-opacity="0" fill="#FFFFFF" fill-rule="nonzero"/>
                <path xmlns="http://www.w3.org/2000/svg" d="M0.75273395,11.990831 C0.75273395,10.2332907 0.74658256,8.4757503 0.75273395,6.7182099 C0.74919799,5.8677377 0.85372982,5.02026215 1.0638186,4.19613946 C1.52429418,2.45178063 2.66054404,1.41658934 4.40314533,1.01499136 C5.2769082,0.82620717 6.1693617,0.73775786 7.0631827,0.75136031 C10.4335593,0.75136031 13.8042289,0.75136031 17.1751913,0.75136031 C18.0265235,0.746075585 18.8753883,0.84344277 19.7034132,1.04135447 C21.4987407,1.48073957 22.5761129,2.6178682 22.9864986,4.40704431 C23.1709994,5.2526392 23.2591451,6.1164085 23.2492509,6.98184095 C23.2492509,10.3885401 23.2492509,13.7955321 23.2492509,17.2028171 C23.2538536,18.0459426 23.1567812,18.8865478 22.9601355,19.7064333 C22.5207504,21.5026396 21.3783492,22.5747393 19.5891731,22.9851249 C18.7152981,23.1731946 17.8229263,23.2616358 16.9291357,23.248756 C13.5728194,23.248756 10.216796,23.248756 6.86106555,23.248756 C6.00322585,23.2557576 5.1476411,23.1598731 4.31263201,22.9631557 C2.50939557,22.5237706 1.42675069,21.3813693 1.01724378,19.5834055 C0.808096475,18.6694845 0.75273395,17.7529272 0.75273395,16.828461 C0.75273395,15.2162106 0.75273395,13.6036673 0.75273395,11.990831 Z" id="path2" stroke-opacity="0" stroke="#FFFFFF" fill="#FFFFFF" stroke-width="0.75" opacity="0.200000003"/>
                <circle id="path3" fill-opacity="0" fill="#FFFFFF" fill-rule="nonzero" cx="12" cy="12" r="12"/>
                <path d="M19.5,22 C19.9142136,22 20.25,22.3357864 20.25,22.75 C20.25,23.1296958 19.9678461,23.443491 19.6017706,23.4931534 L19.5,23.5 L4.5,23.5 C4.08578644,23.5 3.75,23.1642136 3.75,22.75 C3.75,22.3703042 4.03215388,22.056509 4.39822944,22.0068466 L4.5,22 L19.5,22 Z" id="路径" fill-rule="nonzero"/>
                <path d="M12,0.25 C14.7765635,0.25 17.027413,2.50084948 17.027413,5.27741303 C17.027413,6.91261856 16.2396516,8.41124979 14.9558612,9.34465537 L15.4948375,12.25 L18.9388965,12.25 C19.7234723,12.25 20.3760391,12.8142495 20.6032045,13.5951342 L20.6407413,13.7440039 L21.5727608,18.0934286 C21.7184564,18.7733412 21.3640262,19.4931071 20.7008229,19.6977527 C20.6261099,19.720807 20.5494885,19.7363433 20.471975,19.7441392 L20.3551625,19.75 L3.64483746,19.75 C2.92115347,19.75 2.39483746,19.1184208 2.39483746,18.4 L2.40295508,18.2457735 L2.42723918,18.0934286 L3.35925874,13.7440039 C3.53210295,12.9373976 4.14868558,12.3257007 4.91561414,12.2565274 L5.06110349,12.25 L8.49583746,12.25 L9.05249042,9.35074353 C7.76436906,8.41824368 6.97258697,6.91674258 6.97258697,5.27741303 C6.97258697,2.50084948 9.22343645,0.25 12,0.25 Z M12,1.75 C10.0518636,1.75 8.47258697,3.32927661 8.47258697,5.27741303 C8.47258697,6.56200589 9.16448202,7.72487162 10.2618955,8.34773818 C10.5788384,8.52762768 10.714679,8.90360612 10.6035002,9.23671765 L9.85234457,13.1414842 C9.79069243,13.4624309 9.53296951,13.6959982 9.22715924,13.741895 L9.12330805,13.75 L5.06110349,13.75 C4.99516823,13.75 4.90615294,13.8226007 4.85304578,13.9647133 L4.82596236,14.0582976 L3.927,18.25 L20.072,18.25 L19.1740376,14.0582976 C19.1376532,13.8885038 19.0535631,13.7876041 18.9807554,13.7586874 L18.9388965,13.75 L14.8766919,13.75 C14.5531871,13.7524172 14.2617184,13.5448772 14.1597856,13.2358879 L14.1344529,13.1370832 L13.3908157,9.13708315 C13.3560388,8.95001953 13.3939447,8.76627535 13.4845685,8.61493385 L13.5149658,8.56818162 L13.5149658,8.56818162 C13.5764695,8.474153 13.6605876,8.39278029 13.7645821,8.33255808 C14.8472753,7.70558069 15.527413,6.55113768 15.527413,5.27741303 C15.527413,3.32927661 13.9481364,1.75 12,1.75 Z" id="形状"/>
            </g>
        </g>
    </g>
</svg>