<?xml version="1.0" encoding="UTF-8"?>
<svg viewBox="0 0 24 24" version="1.1" xmlns="http://www.w3.org/2000/svg"
    xmlns:xlink="http://www.w3.org/1999/xlink">
    <g id="页面-1" stroke="none" stroke-width="1" fill-rule="evenodd">
        <g id="文件类型方案" transform="translate(-700.000000, -68.000000)">
            <g id="IconAudio" transform="translate(700.000000, 68.000000)">
                <g id="Group-6-Copy-3">
                    <rect id="Rectangle-Copy" x="0" y="0" width="24" height="24" rx="4"></rect>
                </g>
                <path
                    d="M7.403,10.3333333 C7.65613051,10.3333333 7.86532731,10.5214359 7.89843559,10.7654863 L7.903,10.8333333 L7.903,12.1666667 C7.903,12.442809 7.67914237,12.6666667 7.403,12.6666667 C7.14986949,12.6666667 6.94067269,12.4785641 6.90756441,12.2345137 L6.903,12.1666667 L6.903,10.8333333 C6.903,10.557191 7.12685763,10.3333333 7.403,10.3333333 Z M9.30726667,8.66666667 C9.56039718,8.66666667 9.76959397,8.85476925 9.80270226,9.09881963 L9.80726667,9.16666667 L9.80726667,13.8333333 C9.80726667,14.1094757 9.58340904,14.3333333 9.30726667,14.3333333 C9.05413616,14.3333333 8.84493936,14.1452307 8.81183108,13.9011804 L8.80726667,13.8333333 L8.80726667,9.16666667 C8.80726667,8.89052429 9.03112429,8.66666667 9.30726667,8.66666667 Z M15.0214667,9.33333333 C15.2745972,9.33333333 15.483794,9.52143592 15.5169023,9.7654863 L15.5214667,9.83333333 L15.5214667,13.1666667 C15.5214667,13.442809 15.297609,13.6666667 15.0214667,13.6666667 C14.7683362,13.6666667 14.5591394,13.4785641 14.5260311,13.2345137 L14.5214667,13.1666667 L14.5214667,9.83333333 C14.5214667,9.55719096 14.7453243,9.33333333 15.0214667,9.33333333 Z M16.9264,10.6666667 C17.1795305,10.6666667 17.3887273,10.8547693 17.4218356,11.0988196 L17.4264,11.1666667 L17.4264,11.8333333 C17.4264,12.1094757 17.2025424,12.3333333 16.9264,12.3333333 C16.6732695,12.3333333 16.4640727,12.1452307 16.4309644,11.9011804 L16.4264,11.8333333 L16.4264,11.1666667 C16.4264,10.8905243 16.6502576,10.6666667 16.9264,10.6666667 Z M13.1172,8 C13.3703305,8 13.5795273,8.18810259 13.6126356,8.43215296 L13.6172,8.5 L13.6172,14.5 C13.6172,14.7761424 13.3933424,15 13.1172,15 C12.8640695,15 12.6548727,14.8118974 12.6217644,14.567847 L12.6172,14.5 L12.6172,8.5 C12.6172,8.22385763 12.8410576,8 13.1172,8 Z M18.3333333,11.5 C18.3333333,11.2246667 18.556,11.002 18.8313333,11.002 C19.106,11.002 19.3293333,11.2246667 19.3293333,11.5 C19.3293333,11.7753333 19.106,11.998 18.8313333,11.998 C18.556,11.998 18.3333333,11.7753333 18.3333333,11.5 M5,11.5 C5,11.2246667 5.22266667,11.002 5.498,11.002 C5.77266667,11.002 5.996,11.2246667 5.996,11.5 C5.996,11.7753333 5.77266667,11.998 5.498,11.998 C5.22266667,11.998 5,11.7753333 5,11.5 M11.2122667,6 C11.4653972,6 11.674594,6.18810259 11.7077023,6.43215296 L11.7122667,6.5 L11.7122667,16.5 C11.7122667,16.7761424 11.488409,17 11.2122667,17 C10.9591362,17 10.7499394,16.8118974 10.7168311,16.567847 L10.7122667,16.5 L10.7122667,6.5 C10.7122667,6.22385763 10.9361243,6 11.2122667,6 Z"
                    id="形状结合-copy" fill="#FFFFFF"></path>
            </g>
        </g>
    </g>
</svg>