<svg viewBox="0 0 24 24" xmlns="http://www.w3.org/2000/svg"
	xmlns:xlink="http://www.w3.org/1999/xlink">
	<defs />
	<path id="矢量 18"
		d="M10.9931 4.39823C10.9435 4.03215 10.6297 3.75 10.25 3.75C9.83578 3.75 9.5 4.08578 9.5 4.5L9.5 19.5L9.50685 19.6018C9.5565 19.9678 9.8703 20.25 10.25 20.25C10.6642 20.25 11 19.9142 11 19.5L11 4.5L10.9931 4.39823ZM13.75 6.25C14.1297 6.25 14.4435 6.53215 14.4931 6.89823L14.5 7L14.5 17C14.5 17.4142 14.1642 17.75 13.75 17.75C13.3703 17.75 13.0565 17.4678 13.0069 17.1018L13 17L13 7C13 6.58578 13.3358 6.25 13.75 6.25ZM7.49315 7.89823C7.4435 7.53215 7.1297 7.25 6.75 7.25C6.33578 7.25 6 7.58578 6 8L6 16L6.00685 16.1018C6.0565 16.4678 6.3703 16.75 6.75 16.75C7.16422 16.75 7.5 16.4142 7.5 16L7.5 8L7.49315 7.89823ZM17.25 8.25C17.6297 8.25 17.9435 8.53215 17.9931 8.89823L18 9L18 15C18 15.4142 17.6642 15.75 17.25 15.75C16.8703 15.75 16.5565 15.4678 16.5069 15.1018L16.5 15L16.5 9C16.5 8.58578 16.8358 8.25 17.25 8.25ZM3.99315 10.3982C3.9435 10.0322 3.6297 9.75 3.25 9.75C2.83578 9.75 2.5 10.0858 2.5 10.5L2.5 13.5L2.50685 13.6018C2.5565 13.9678 2.8703 14.25 3.25 14.25C3.66422 14.25 4 13.9142 4 13.5L4 10.5L3.99315 10.3982ZM21.4931 10.8982C21.4435 10.5322 21.1297 10.25 20.75 10.25C20.3358 10.25 20 10.5858 20 11L20 13L20.0069 13.1018C20.0565 13.4678 20.3703 13.75 20.75 13.75C21.1642 13.75 21.5 13.4142 21.5 13L21.5 11L21.4931 10.8982Z"
		fill-rule="evenodd" />
</svg>