<svg viewBox="0 0 24 24" xmlns="http://www.w3.org/2000/svg"
	xmlns:xlink="http://www.w3.org/1999/xlink">
	<defs />
	<path id="矢量 20"
		d="M12 2C14.5135 2 16.5613 3.97982 16.5613 6.43494C16.5613 7.89673 15.8279 9.23209 14.64 10.0521L15.049 12.135L18.2687 12.1351C18.9889 12.1351 19.6095 12.6157 19.8337 13.3018L19.8731 13.4416L20.7151 16.9682C20.8687 17.6114 20.5019 18.2799 19.8608 18.4575C19.7929 18.4763 19.7236 18.4889 19.6536 18.4952L19.5482 18.5L4.45171 18.5C3.77509 18.5 3.25 17.9345 3.25 17.2635C3.25 17.1972 3.25517 17.131 3.26547 17.0656L4.12674 13.4416C4.29678 12.7294 4.88293 12.2043 5.58856 12.1415L5.7312 12.1351L8.944 12.135L9.36592 10.0563C8.17503 9.23702 7.43864 7.89973 7.43864 6.43494C7.43864 3.97982 9.48636 2 12 2ZM8.93864 6.43494C8.93864 4.81978 10.3037 3.5 12 3.5C13.6962 3.5 15.0613 4.81978 15.0613 6.43494C15.0613 7.4886 14.477 8.44742 13.5407 8.97162C13.2261 9.10968 12.9975 9.47594 13.0665 9.82715L13.6964 13.0299C13.8157 13.3795 14.2044 13.6943 14.577 13.621L18.2687 13.6351C18.315 13.6523 18.395 13.7096 18.4142 13.79L19.181 17L4.81799 17L5.58574 13.79C5.6165 13.7246 5.68614 13.6351 5.7312 13.6351L9.40108 13.6351C9.80699 13.7176 10.2097 13.4404 10.2921 13.0345L10.9429 9.83178L10.9565 9.73068C10.9777 9.40794 10.7877 9.10793 10.4822 8.98438C9.53307 8.46355 8.93864 7.49763 8.93864 6.43494ZM19 20.5C19.4142 20.5 19.75 20.8358 19.75 21.25C19.75 21.6297 19.4678 21.9435 19.1018 21.9931L19 22L5 22C4.58578 22 4.25 21.6642 4.25 21.25C4.25 20.8703 4.53215 20.5565 4.89822 20.5069L5 20.5L19 20.5Z"
		fill-rule="evenodd" />
</svg>