<svg width="24.000000" height="24.000000" viewBox="0 0 24 24" xmlns="http://www.w3.org/2000/svg" xmlns:xlink="http://www.w3.org/1999/xlink">
	<g clip-path="url(#clip131_1892)">
		<g opacity="0.000000"/>
		<path id="矢量 168" d="M12.295 2C12.4283 2 12.5535 2.03467 12.662 2.0957C12.834 2.15161 12.9912 2.24902 13.119 2.38159L18.6428 8.10986C18.6785 8.14697 18.7112 8.18579 18.7407 8.22632C18.8996 8.36328 19.0002 8.56665 19.0002 8.79321L19.0002 9.79517C18.4401 9.60352 17.8426 9.5 17.2222 9.5C16.4529 9.5 15.8242 10.1367 15.7802 10.9395C12.5892 10.9395 10 13.7681 10 17.1467C10 19.1238 10.8858 20.8816 12.2601 22L5.19763 22C3.43042 22 2.00024 20.5586 2.00024 18.7834L2.00024 5.21655C2.00024 3.44141 3.43042 2 5.19763 2L12.295 2ZM16.4943 8.04297L13.0443 4.46411L13.045 7.14893C13.045 7.61792 13.4961 8.04321 14.0082 8.04321L16.4943 8.04297ZM11.0549 8.50439L8.3277 11.5044C8.2511 11.574 8.11725 11.6755 8.02722 11.708C7.93719 11.7405 7.84052 11.7542 7.73706 11.7493C7.63361 11.7441 7.53864 11.7214 7.45209 11.6807C7.36554 11.6399 7.28741 11.5811 7.21777 11.5044L6.13635 10.3149L5.05493 11.5044C4.77246 11.8152 4.30627 11.8374 3.99548 11.5549C3.68469 11.2725 3.66254 10.8062 3.94507 10.4956L5.58142 8.69556C5.65106 8.6189 5.72919 8.56006 5.81573 8.51929C5.90228 8.47852 5.99725 8.45581 6.10071 8.45093C6.20416 8.4458 6.30084 8.45947 6.39087 8.49194C6.4809 8.52441 6.56427 8.57544 6.64087 8.64502L7.77271 9.88501L9.94507 7.49561C10.2275 7.18481 10.6937 7.1626 11.0045 7.44507C11.3153 7.72754 11.3375 8.19385 11.0549 8.50439ZM21.8911 16.1738C21.8186 16.2463 21.71 16.2825 21.565 16.2825L18.0868 16.2825C18.0248 16.2825 17.9641 16.2761 17.9048 16.2634C17.8515 16.2522 17.7993 16.2356 17.7482 16.2141C17.6978 16.1926 17.6501 16.167 17.6053 16.1372C17.5577 16.1057 17.5132 16.0691 17.4719 16.0278C17.4307 15.9866 17.3942 15.9421 17.3625 15.8945C17.3327 15.8496 17.3071 15.802 17.2858 15.7515C17.2642 15.7004 17.2477 15.6482 17.2363 15.595C17.2236 15.5356 17.2173 15.4751 17.2173 15.4131L17.2173 11.9348C17.2173 11.7898 17.2535 11.6812 17.3259 11.6086C17.3984 11.5361 17.5071 11.5 17.652 11.5C17.9752 11.5 18.2908 11.5342 18.5988 11.6028C18.8525 11.6592 19.1011 11.739 19.3445 11.8418C19.5901 11.9458 19.8226 12.0698 20.0416 12.2141C20.2865 12.3752 20.5147 12.5618 20.7264 12.7734C20.938 12.9851 21.1245 13.2134 21.2857 13.4583C21.43 13.6772 21.554 13.9097 21.658 14.1553C21.7609 14.3987 21.8406 14.6472 21.897 14.9009C21.9655 15.209 21.9998 15.5244 21.9998 15.8477C21.9998 15.9927 21.9636 16.1013 21.8911 16.1738ZM16.3478 13.2632L16.3477 16.2827C16.3477 16.4009 16.3704 16.5137 16.4159 16.6211C16.4359 16.6682 16.4595 16.7129 16.487 16.7554C16.52 16.8062 16.5585 16.8538 16.6024 16.8975C16.6828 16.978 16.775 17.04 16.8789 17.084C16.924 17.1033 16.97 17.1182 17.017 17.1294C17.0819 17.1445 17.1487 17.1523 17.2173 17.1523L20.2368 17.1526C20.3818 17.1526 20.4904 17.1887 20.5629 17.2612C20.6354 17.3337 20.6689 17.4902 20.6689 17.6353C20.6387 17.9077 20.5841 18.1729 20.5049 18.4307C20.4285 18.6797 20.329 18.9216 20.2067 19.1567C20.0912 19.3789 19.9587 19.5879 19.8093 19.7842C19.6456 19.9993 19.4617 20.1987 19.2574 20.3828C19.0482 20.5713 18.8253 20.7368 18.5884 20.8794C18.3806 21.0046 18.1622 21.1121 17.9332 21.2017C17.4257 21.4006 16.8972 21.5 16.3477 21.5C16.0245 21.5 15.7089 21.4658 15.4009 21.3972C15.1472 21.3408 14.8986 21.261 14.6553 21.1582C14.4096 21.0542 14.1772 20.9302 13.9583 20.7859C13.7133 20.6248 13.485 20.4382 13.2734 20.2266C13.0618 20.0149 12.8753 19.7866 12.7141 19.5417C12.5699 19.3228 12.4457 19.0903 12.3418 18.8447C12.2389 18.6013 12.1592 18.353 12.1028 18.0994C12.0343 17.7913 11.9999 17.4753 11.9999 17.1523C11.9999 16.8457 12.0309 16.5454 12.0928 16.252C12.1419 16.0193 12.2104 15.791 12.2983 15.5667C12.3881 15.3376 12.4955 15.1191 12.6206 14.9114C12.7632 14.6746 12.9287 14.4517 13.1172 14.2424C13.3013 14.0381 13.5009 13.8542 13.7158 13.6907C13.9121 13.5413 14.1214 13.4087 14.3435 13.2932C14.5786 13.1709 14.8207 13.0713 15.0698 12.9949C15.3275 12.9158 15.5926 12.8611 15.8653 12.8311C16.1534 12.7991 16.316 12.9751 16.3478 13.2632Z" fill-opacity="1.000000" fill-rule="evenodd"/>
	</g>
</svg>
