<?xml version="1.0" encoding="UTF-8"?>
<svg viewBox="0 0 24 24" version="1.1" xmlns="http://www.w3.org/2000/svg" xmlns:xlink="http://www.w3.org/1999/xlink">
    <g id="S12组件" stroke="none" stroke-width="1">
        <g id="BarChart">
            <rect id="矩形" opacity="0" x="0" y="0" width="24" height="24"></rect>
            <g id="编组-5备份" transform="translate(3.000000, 3.000000)">
                <path d="M0.75,-1.66977543e-13 C1.12969577,-1.66977543e-13 1.44349096,0.282153882 1.49315338,0.648229443 L1.5,0.75 L1.5,15.2429199 C1.5,15.8901286 1.99187466,16.4224538 2.62219476,16.4864663 L2.75,16.4929199 L17.2476654,16.4929199 C17.661879,16.4929199 17.9976654,16.8287064 17.9976654,17.2429199 C17.9976654,17.6226157 17.7155115,17.9364109 17.349436,17.9860733 L17.2476654,17.9929199 L2.75,17.9929199 C1.28746816,17.9929199 0.0915957212,16.8512153 0.00501879394,15.4104423 L1.77635684e-14,15.2429199 L1.77635684e-14,0.75 C1.77635684e-14,0.335786438 0.335786438,-1.66977543e-13 0.75,-1.66977543e-13 Z M6.25,1 C7.76878306,1 9,2.23121694 9,3.75 L9,3.75 L9,12.25 C9,13.7687831 7.76878306,15 6.25,15 L6.25,15 L5.75,15 C4.23121694,15 3,13.7687831 3,12.25 L3,12.25 L3,3.75 C3,2.23121694 4.23121694,1 5.75,1 L5.75,1 Z M14.25,5 C15.7687831,5 17,6.23121694 17,7.75 L17,7.75 L17,12.25 C17,13.7687831 15.7687831,15 14.25,15 L14.25,15 L13.75,15 C12.2312169,15 11,13.7687831 11,12.25 L11,12.25 L11,7.75 C11,6.23121694 12.2312169,5 13.75,5 L13.75,5 Z M6.25,2.5 L5.75,2.5 C5.05964406,2.5 4.5,3.05964406 4.5,3.75 L4.5,3.75 L4.5,12.25 C4.5,12.9403559 5.05964406,13.5 5.75,13.5 L5.75,13.5 L6.25,13.5 C6.94035594,13.5 7.5,12.9403559 7.5,12.25 L7.5,12.25 L7.5,3.75 C7.5,3.05964406 6.94035594,2.5 6.25,2.5 L6.25,2.5 Z M14.25,6.5 L13.75,6.5 C13.0596441,6.5 12.5,7.05964406 12.5,7.75 L12.5,7.75 L12.5,12.25 C12.5,12.9403559 13.0596441,13.5 13.75,13.5 L13.75,13.5 L14.25,13.5 C14.9403559,13.5 15.5,12.9403559 15.5,12.25 L15.5,12.25 L15.5,7.75 C15.5,7.05964406 14.9403559,6.5 14.25,6.5 L14.25,6.5 Z" id="形状结合"></path>
            </g>
        </g>
    </g>
</svg>