<svg viewBox="0 0 24 24" xmlns="http://www.w3.org/2000/svg"
	xmlns:xlink="http://www.w3.org/1999/xlink">
	<defs />
	<g opacity="0.000000" />
	<path id="矢量 56"
		d="M3.74316 2.89822C3.69348 2.53215 3.3797 2.25 3 2.25C2.58578 2.25 2.25 2.58578 2.25 3L2.25 18.3L2.25513 18.4893C2.35339 20.3066 3.85812 21.75 5.70001 21.75L21 21.75L21.1018 21.7431C21.4678 21.6935 21.75 21.3797 21.75 21C21.75 20.5858 21.4142 20.25 21 20.25L5.70001 20.25L5.55447 20.2447C4.54547 20.1702 3.75 19.328 3.75 18.3L3.75 3L3.74316 2.89822ZM10.3043 3.75519L10.15 3.75L8.35001 3.75C7.26166 3.75 6.33765 4.52061 6.25586 5.54198L6.25 5.68954L6.25 16.3059C6.25 17.3499 7.12476 18.1722 8.19574 18.2448L8.35001 18.25L10.15 18.25C11.2381 18.25 12.1624 17.4751 12.2441 16.4535L12.25 16.3059L12.25 5.68954C12.25 4.64548 11.3754 3.82739 10.3043 3.75519ZM8.35001 5.25L10.15 5.25C10.462 5.25 10.6934 5.42336 10.741 5.61649L10.75 16.3059C10.75 16.5033 10.5519 16.7007 10.2626 16.7421L10.15 16.75L8.35001 16.75C8.03952 16.75 7.80695 16.5745 7.75909 16.3796L7.75 5.68954C7.75 5.49387 7.94672 5.29877 8.237 5.25783L8.35001 5.25ZM18.15 8.75L18.3036 8.75502C19.3708 8.82503 20.25 9.61848 20.25 10.6466L20.25 16.341L20.2441 16.4862C20.1619 17.4915 19.2328 18.25 18.15 18.25L16.35 18.25L16.1964 18.2449C15.1298 18.1738 14.25 17.3686 14.25 16.341L14.25 10.6466L14.2559 10.5014C14.3381 9.49672 15.2665 8.75 16.35 8.75L18.15 8.75ZM18.15 10.25L16.35 10.25L16.2357 10.2574C15.9427 10.2958 15.75 10.4782 15.75 10.6466L15.75 16.341C15.7975 16.5153 16.0377 16.75 16.35 16.75L18.15 16.75L18.2631 16.7424C18.5535 16.7026 18.75 16.514 18.75 16.341L18.75 10.6466C18.7032 10.4772 18.4665 10.25 18.15 10.25Z"
		fill-rule="evenodd" />
</svg>