<svg viewBox="0 0 24 24" xmlns="http://www.w3.org/2000/svg"
	xmlns:xlink="http://www.w3.org/1999/xlink">
	<defs />
	<g opacity="0.000000" />
	<path id="矢量 122"
		d="M19.0109 13.75C20.3856 13.75 21.5 14.8644 21.5 16.2391L21.5 19.7609C21.5 21.1356 20.3856 22.25 19.0109 22.25L4.48914 22.25C3.11444 22.25 2 21.1356 2 19.7609L2 16.2391C2 14.8644 3.11444 13.75 4.48914 13.75L19.0109 13.75ZM4.48914 15.25L19.0109 15.25C19.5572 15.25 20 15.6929 20 16.2391L20 19.7609C20 20.3072 19.5572 20.75 19.0109 20.75L4.48914 20.75C3.94287 20.75 3.5 20.3072 3.5 19.7609L3.5 16.2391C3.5 15.6929 3.94287 15.25 4.48914 15.25ZM8.75 2.25L8.85178 2.25685C9.21783 2.3065 9.5 2.6203 9.5 3C9.5 3.41422 9.16422 3.75 8.75 3.75L6.75 3.75L6.62219 3.75645C5.99188 3.82047 5.5 4.3528 5.5 5L5.5 9.202L6.2149 8.4745C6.47873 8.20583 6.89514 8.17784 7.19073 8.39304C7.34024 8.53989 7.5 8.80582 7.5 9.00005C7.5 9.1548 7.45239 9.30965 7.35696 9.44072L5.34711 11.499C5.04584 11.8058 4.56815 11.8313 4.23746 11.5757L2.2149 9.52727C2.07147 9.38126 2 9.19147 2 9.00182C2 8.80759 2.07498 8.61348 2.22449 8.46664C2.49316 8.2028 2.91003 8.18239 3.20166 8.40289L4 9.20399L4 5L4.005 4.83247C4.09161 3.39171 5.28748 2.25 6.75 2.25L8.75 2.25ZM21.25 2.25L21.25 3.75L17.25 3.75L17.25 2.25L21.25 2.25ZM21.25 10.25L21.25 11.75L17.25 11.75L17.25 10.25L21.25 10.25ZM15.75 2.25L15.75 3.75L11.75 3.75L11.75 2.25L15.75 2.25ZM15.75 10.25L15.75 11.75L11.75 11.75L11.75 10.25L15.75 10.25ZM13.25 9L11.75 9L11.75 5L13.25 5L13.25 9ZM21.25 9L19.75 9L19.75 5L21.25 5L21.25 9Z"
		fill-rule="evenodd" />
</svg>