<?xml version="1.0" encoding="UTF-8"?>
<svg viewBox="0 0 24 24" version="1.1" xmlns="http://www.w3.org/2000/svg" xmlns:xlink="http://www.w3.org/1999/xlink">
    <g id="页面-1" stroke="none" stroke-width="1">
        <g id="画板" transform="translate(-789.000000, -303.000000)">
            <g id="Befilter" transform="translate(789.000000, 303.000000)">
                <g id="编组">
                    <path d="M19.0488092,2.99777072 C20.1257644,2.99777072 20.9988092,3.87081546 20.9988092,4.94777072 C20.9988092,5.42572644 20.8233804,5.88482743 20.5093857,6.23976224 L20.3852144,6.36781337 L15.3557803,11.1010246 C15.0541388,11.3849 14.5794836,11.3704978 14.2956081,11.0688563 C14.0375395,10.7946368 14.0259814,10.3774306 14.2526404,10.0905614 L14.3277763,10.0086841 L19.3572104,5.27547287 C19.4475722,5.19043319 19.4988092,5.07185538 19.4988092,4.94777072 C19.4988092,4.72685682 19.3396215,4.54312319 19.1296972,4.50502082 L19.0488092,4.49777072 L4.9511969,4.49777072 C4.82692853,4.49777072 4.70819202,4.54915906 4.62313277,4.63975461 C4.47428424,4.79829133 4.46255028,5.03614527 4.58332222,5.20709377 L4.64318079,5.27583486 L10.0795469,10.3799842 C10.2053741,10.4981221 10.2858225,10.6552382 10.3091435,10.8241863 L10.3161867,10.9267578 L10.3161867,19.2520083 C10.3161867,19.2995407 10.3297374,19.3460882 10.35525,19.3861936 C10.4170071,19.4832745 10.534603,19.5233177 10.6395035,19.4910819 L10.700372,19.462945 L13.547872,17.6515362 C13.6019705,17.617122 13.640067,17.5637649 13.6557342,17.5031715 L13.6636867,17.4405995 L13.6636867,12.9711814 C13.6636867,12.5569679 13.9994732,12.2211814 14.4136867,12.2211814 C14.7933825,12.2211814 15.1071777,12.5033353 15.1568401,12.8694109 L15.1636867,12.9711814 L15.1636867,17.4405995 C15.1636867,17.9846218 14.9109727,18.494354 14.4856717,18.8238581 L14.3529839,18.9171566 L11.5054839,20.7285654 C10.6900039,21.2473248 9.60838909,21.0067853 9.08962962,20.1913054 C8.94080591,19.9573573 8.85013083,19.6920937 8.8240398,19.4176205 L8.81618674,19.2520083 L8.81540626,11.2503378 L3.61646043,6.36938197 C2.87264907,5.67102498 2.79859243,4.52669293 3.41963764,3.74059559 L3.52958565,3.61303425 C3.85722127,3.26407362 4.30016341,3.0493533 4.77275327,3.00594583 L4.9511969,2.99777072 L19.0488092,2.99777072 Z M20.2488092,16.9370118 C20.6630227,16.9370118 20.9988092,17.2727982 20.9988092,17.6870118 C20.9988092,18.1012253 20.6630227,18.4370118 20.2488092,18.4370118 L16.8650955,18.4370118 C16.4508819,18.4370118 16.1150955,18.1012253 16.1150955,17.6870118 C16.1150955,17.2727982 16.4508819,16.9370118 16.8650955,16.9370118 L20.2488092,16.9370118 Z M20.2488092,14.4685059 C20.6630227,14.4685059 20.9988092,14.8042923 20.9988092,15.2185059 C20.9988092,15.6327195 20.6630227,15.9685059 20.2488092,15.9685059 L16.8650955,15.9685059 C16.4508819,15.9685059 16.1150955,15.6327195 16.1150955,15.2185059 C16.1150955,14.8042923 16.4508819,14.4685059 16.8650955,14.4685059 L20.2488092,14.4685059 Z M20.2488092,12 C20.6630227,12 20.9988092,12.3357864 20.9988092,12.75 C20.9988092,13.1642136 20.6630227,13.5 20.2488092,13.5 L16.8650955,13.5 C16.4508819,13.5 16.1150955,13.1642136 16.1150955,12.75 C16.1150955,12.3357864 16.4508819,12 16.8650955,12 L20.2488092,12 Z" id="路径"></path>
                </g>
                <path d="M7.02592839,5.30114298 C7.30930333,5.05316233 7.72665453,5.05670295 8.00513731,5.29359029 L8.08424325,5.37163872 L10.2301221,7.82379897 C10.5029008,8.13551141 10.4713388,8.60933511 10.1596264,8.88211383 C9.87625141,9.13009448 9.45890022,9.12655387 9.18041743,8.88966652 L9.10131149,8.81161809 L6.95543265,6.35945785 C6.68265393,6.04774541 6.71421595,5.5739217 7.02592839,5.30114298 Z" id="路径-27" transform="translate(8.592777, 7.091628) rotate(-5.000000) translate(-8.592777, -7.091628) "></path>
            </g>
        </g>
    </g>
</svg>