<svg viewBox="0 0 24 24" xmlns="http://www.w3.org/2000/svg"
	xmlns:xlink="http://www.w3.org/1999/xlink">
	<defs />
	<g opacity="0.000000" />
	<path id="矢量 136"
		d="M19.75 4.22264C19.75 3.13766 18.8861 2.25 17.8101 2.25L4.18994 2.25C3.70148 2.25 3.23175 2.4373 2.8739 2.7733L2.75653 2.89323C2.08865 3.6362 2.07553 4.78622 2.7511 5.54582L7.79901 11.221L7.7999 20.5924C7.7999 20.8113 7.86136 21.026 7.97757 21.2114C8.31897 21.7561 9.03787 21.916 9.57516 21.5605L13.2595 19.1226L13.3927 19.0262C13.8636 18.6538 14.1413 18.0797 14.1413 17.4692L14.141 11.223L19.2416 5.55392C19.5691 5.18987 19.75 4.71478 19.75 4.22264ZM17.8101 3.75L4.18994 3.75C4.08429 3.75 3.98135 3.79105 3.9006 3.86685C3.71198 4.04395 3.69839 4.35384 3.87195 4.54898L9.11032 10.439C9.23242 10.5763 9.2999 10.7536 9.2999 10.9374L9.29901 19.944L12.4318 17.8717C12.535 17.8034 12.6072 17.6927 12.6319 17.5664L12.6413 10.9374C12.6413 10.7522 12.7098 10.5736 12.8337 10.4359L18.1263 4.55089C18.2053 4.46315 18.25 4.34566 18.25 4.22264C18.25 3.95712 18.0484 3.75 17.8101 3.75ZM21.75 12.1923C21.75 11.7781 21.4142 11.4423 21 11.4423L17 11.4423L16.8982 11.4492C16.5322 11.4988 16.25 11.8126 16.25 12.1923C16.25 12.6065 16.5858 12.9423 17 12.9423L21 12.9423L21.1018 12.9355C21.4678 12.8858 21.75 12.572 21.75 12.1923ZM21 13.75C21.4142 13.75 21.75 14.0858 21.75 14.5C21.75 14.8797 21.4678 15.1935 21.1018 15.2431L21 15.25L17 15.25C16.5858 15.25 16.25 14.9142 16.25 14.5C16.25 14.1203 16.5322 13.8065 16.8982 13.7569L17 13.75L21 13.75ZM21.75 16.8077C21.75 16.3935 21.4142 16.0577 21 16.0577L17 16.0577L16.8982 16.0645C16.5322 16.1142 16.25 16.428 16.25 16.8077C16.25 17.2219 16.5858 17.5577 17 17.5577L21 17.5577L21.1018 17.5508C21.4678 17.5012 21.75 17.1874 21.75 16.8077Z"
		fill-rule="evenodd" />
</svg>