<?xml version="1.0" encoding="UTF-8"?>
<svg viewBox="0 0 24 24" version="1.1" xmlns="http://www.w3.org/2000/svg" xmlns:xlink="http://www.w3.org/1999/xlink">
    <g id="页面-1" stroke="none" stroke-width="1">
        <g id="画板" transform="translate(-1076.000000, -295.000000)">
            <g id="Boat" transform="translate(1076.000000, 295.000000)">
                <g id="编组" transform="translate(0.000000, 0.000000)">
                    <path d="M16.1533101,18.0862483 C16.769082,18.925125 17.8552567,19.454459 19.0586245,19.454459 C19.403834,19.454459 19.7414087,19.4112644 20.0638914,19.3273833 C20.4647658,19.2231118 20.8742676,19.4635559 20.9785391,19.8644304 C21.0828107,20.2653048 20.8423665,20.6748066 20.4414921,20.7790781 C19.9957187,20.8950283 19.531256,20.954459 19.0586245,20.954459 C17.7191944,20.954459 16.4659468,20.4737504 15.5557789,19.6501352 C14.6436783,20.5006334 13.3699031,20.9983357 12.0069832,20.9983357 C10.6896572,20.9983357 9.45561255,20.5333755 8.54930068,19.7343443 L8.46614796,19.6582177 C7.55483872,20.4810267 6.30329963,20.9589465 4.96741403,20.9589465 C4.48514611,20.9589465 4.01140779,20.8970669 3.55739453,20.776427 C3.1570726,20.670054 2.91877996,20.2592965 3.02515303,19.8589746 C3.13152609,19.4586527 3.54228354,19.22036 3.94260547,19.3267331 C4.27095118,19.4139807 4.61520059,19.4589465 4.96741403,19.4589465 C6.12197492,19.4589465 7.17041823,18.9719449 7.7991307,18.1866987 C7.86871287,18.0997923 7.9536896,18.0324694 8.04703707,17.9855077 C8.04992771,17.9828267 8.05346248,17.9801709 8.05702727,17.9775407 C8.39033566,17.7316172 8.85989592,17.8024566 9.10581948,18.1357649 C9.72245692,18.9715142 10.8064572,19.4983357 12.0069832,19.4983357 C13.2074633,19.4983357 14.2914284,18.9715548 14.9080797,18.1358561 L14.9253934,18.1125801 C14.9725764,18.0421221 15.0326018,17.9785281 15.1049093,17.9254513 C15.4388201,17.6803463 15.9082051,17.7523376 16.1533101,18.0862483 Z M13,3 C13.6472087,3 14.1795339,3.49187466 14.2435464,4.12219476 L14.25,4.25 L14.2498148,5.434 L16,5.43495088 C17.5976809,5.43495088 18.9036609,6.68387085 18.9949073,8.2586781 L19,8.43495088 L18.9998148,11.737 L19.6412766,11.9215202 C20.5245541,12.1756093 21.0860152,13.0282747 20.9868779,13.9273764 L20.9641803,14.077562 L20.2446105,17.8190225 C20.1663813,18.2257818 19.7732205,18.4921079 19.3664612,18.4138787 C18.9935986,18.3421685 18.7387388,18.0058284 18.7591079,17.6369615 L18.7716051,17.5357294 L19.4911749,13.7942688 C19.5232395,13.6275465 19.4393873,13.4635133 19.2930031,13.3891747 L19.2265942,13.3630605 L12.741,11.4972548 L12.7418173,17.6770235 C12.7418173,18.0912371 12.4060309,18.4270235 11.9918173,18.4270235 C11.6121215,18.4270235 11.2983263,18.1448696 11.2486639,17.7787941 L11.2418173,17.6770235 L11.241,11.4922548 L4.77260278,13.338136 C4.5975568,13.3886326 4.48779923,13.5540811 4.50155255,13.7279632 L4.51517847,13.8026899 L5.57380569,17.4723011 C5.68861796,17.8702847 5.45906216,18.285988 5.06107847,18.4008003 C4.69626008,18.5060448 4.31655234,18.3219246 4.1673665,17.9839582 L4.13257925,17.888073 L3.07395203,14.2184619 C2.8012729,13.2732506 3.30557421,12.2880596 4.20973921,11.9458106 L4.36107361,11.8956923 L4.99981485,11.713 L5,8.43495088 C5,6.83727 6.24891996,5.53129001 7.82372721,5.44004358 L8,5.43495088 L9.74981485,5.434 L9.75,4.25 C9.75,3.60279131 10.2418747,3.0704661 10.8721948,3.00645361 L11,3 L13,3 Z M16,6.93495088 L8,6.93495088 C7.22030388,6.93495088 6.57955132,7.52983897 6.50686658,8.29049087 L6.5,8.43495088 L6.49981485,11.285 L11.4711056,9.86720017 C11.7524164,9.78694222 12.0477947,9.77383759 12.3336723,9.82786052 L12.5038702,9.86832937 L17.4998148,11.305 L17.5,8.43495088 C17.5,7.65525477 16.9051119,7.01450221 16.14446,6.94181746 L16,6.93495088 Z M12.75,4.5 L11.25,4.5 L11.2498148,5.434 L12.7498148,5.434 L12.75,4.5 Z" id="形状结合"></path>
                </g>
            </g>
        </g>
    </g>
</svg>