<svg viewBox="0 0 24 24" xmlns="http://www.w3.org/2000/svg"
	xmlns:xlink="http://www.w3.org/1999/xlink">
	<defs />
	<g opacity="0.000000" />
	<path id="矢量 135"
		d="M15.3846 4.01518C15.192 2.97775 14.2638 2.25 13.1852 2.25L10.815 2.25L10.629 2.25778L10.4653 2.27829C9.38733 2.44974 8.58356 3.30707 8.58356 4.35278L8.58282 4.89301L6.66785 4.89552L6.48041 4.90102C4.6806 5.00241 3.25284 6.49208 3.25 8.31516L3.24951 10.7921C2.25299 11.3776 1.75778 12.5938 2.12457 13.7408L3.46594 17.9357C3.62476 18.2693 4.04712 18.5373 4.40875 18.4217C4.80328 18.2955 5.02084 17.8734 4.89468 17.4789L3.55328 13.2839L3.52338 13.1677C3.42426 12.6627 3.71716 12.1525 4.21921 11.992C4.26157 11.9784 4.30475 11.9676 4.34851 11.9597L11.2498 10.705L11.25 18.1463L11.2568 18.2481C11.3065 18.6142 11.6203 18.8963 12 18.8963C12.4142 18.8963 12.75 18.5606 12.75 18.1463L12.7498 10.699L19.6581 11.9418L19.7672 11.9676C20.2642 12.1136 20.5815 12.6139 20.4877 13.1353C20.48 13.1781 20.4696 13.2203 20.4566 13.2618L19.1291 17.4823C19.0666 17.8464 19.2573 18.3088 19.6194 18.4228C20.0146 18.547 20.4357 18.3275 20.5599 17.9324L21.8875 13.7118L21.9307 13.5575L21.9641 13.4008C22.1571 12.327 21.6414 11.2898 20.7511 10.7699L20.74 8.29181L20.7343 8.10464C20.6304 6.30797 19.1398 4.88486 17.3186 4.88641L15.4158 4.888L15.4167 4.35292L15.4079 4.17307L15.3846 4.01518ZM10.7328 3.75378L10.8495 3.74921L13.1852 3.75L13.2998 3.75737C13.6346 3.80096 13.8841 4.03217 13.9136 4.29736L13.9168 4.88901L10.0829 4.892L10.0836 4.35292C10.1306 4.09489 10.3908 3.78549 10.7328 3.75378ZM17.3199 6.38641L6.67032 6.39552C5.66095 6.39795 4.83389 7.17773 4.75598 8.1665L4.75 8.31631L4.74985 10.361L11.404 9.15314C11.7255 9.09473 12.0533 9.08279 12.3773 9.11739L12.6196 9.15204L19.2479 10.344L19.24 8.29756C19.2361 7.29059 18.457 6.46738 17.4695 6.39204L17.3199 6.38641ZM17.6006 18.9481L17.7085 19.0579C18.3296 19.7549 19.4792 20.2052 20.7529 20.2052C21.1268 20.2052 21.493 20.1669 21.8429 20.0919C22.2479 20.0052 22.6466 20.2631 22.7333 20.6682C22.8201 21.0732 22.5622 21.4719 22.1571 21.5586C21.7032 21.6559 21.2317 21.7052 20.7529 21.7052C19.0746 21.7052 17.5135 21.0938 16.5886 20.0558C16.53 19.9901 16.3473 19.967 16.236 20.0343C15.3101 21.068 13.6788 21.75 12.0046 21.75C10.3304 21.75 8.77271 21.1416 7.8468 20.1079C7.79761 20.053 7.66238 20.028 7.55444 20.0603L7.37909 20.1468C6.44009 21.1129 4.88025 21.7097 3.27136 21.7097C2.78287 21.7097 2.30194 21.6585 1.83963 21.5573C1.435 21.4687 1.17877 21.0689 1.26733 20.6642C1.35593 20.2596 1.75574 20.0034 2.1604 20.092C2.51654 20.1699 2.88995 20.2097 3.27136 20.2097C4.49536 20.2097 5.60745 19.7944 6.24658 19.1368C6.36475 19.0152 6.50131 18.9137 6.651 18.8338L6.85199 18.7298C7.50525 18.4097 8.32889 18.5132 8.8559 18.9975L8.96414 19.1071C9.58636 19.8018 10.7339 20.25 12.0046 20.25C13.1906 20.25 14.2693 19.8596 14.9154 19.241L15.0471 19.1049C15.158 18.9695 15.2987 18.8482 15.4598 18.7508C16.1322 18.3442 17.0372 18.4278 17.6006 18.9481Z"
		fill-rule="evenodd" />
</svg>