<svg viewBox="0 0 24 24" xmlns="http://www.w3.org/2000/svg"
	xmlns:xlink="http://www.w3.org/1999/xlink">
	<defs />
	<g opacity="0.000000" />
	<path id="矢量 137"
		d="M6.61954 2.75C6.99924 2.75 7.31302 3.03215 7.3627 3.39822L7.36954 3.5L7.36954 6.25L10.1195 6.25C10.5338 6.25 10.8695 6.58578 10.8695 7C10.8695 7.3797 10.5874 7.69348 10.2213 7.74316L10.1195 7.75L7.36954 7.75L7.36954 10.5C7.36954 10.9142 7.03375 11.25 6.61954 11.25C6.23984 11.25 5.92606 10.9678 5.87637 10.6018L5.86954 10.5L5.86954 7.75L3.11954 7.75C2.70532 7.75 2.36954 7.41422 2.36954 7C2.36954 6.6203 2.65167 6.30652 3.01776 6.25684L3.11954 6.25L5.86954 6.25L5.86954 3.5C5.86954 3.08578 6.20532 2.75 6.61954 2.75ZM21.6195 6.99493C21.6195 6.58069 21.2838 6.24493 20.8695 6.24493L13.8695 6.24493L13.7678 6.25177C13.4017 6.30142 13.1195 6.61523 13.1195 6.99493C13.1195 7.40912 13.4553 7.74493 13.8695 7.74493L20.8695 7.74493L20.9713 7.73807C21.3374 7.68842 21.6195 7.37463 21.6195 6.99493ZM17.3695 12.75C16.6792 12.75 16.1195 13.3096 16.1195 14C16.1195 14.6904 16.6792 15.25 17.3695 15.25C18.0599 15.25 18.6195 14.6904 18.6195 14C18.6195 13.3096 18.0599 12.75 17.3695 12.75ZM9.98361 13.7488C10.248 14.017 10.2692 14.4338 10.0493 14.7259L7.66754 17.085L9.9761 19.3613C10.2711 19.6522 10.2744 20.127 9.98361 20.422C9.71924 20.6901 9.30273 20.7173 9.0076 20.5015L6.59955 18.138L4.27612 20.4295C3.98114 20.7203 3.50629 20.7169 3.21545 20.422C2.95111 20.1538 2.92984 19.737 3.14975 19.4449L5.53055 17.085L3.22296 14.8094C2.92801 14.5186 2.92465 14.0438 3.21545 13.7488C3.47986 13.4807 3.89633 13.4536 4.19147 13.6693L6.59955 16.032L8.92297 13.7413C9.21793 13.4505 9.69278 13.4539 9.98361 13.7488ZM21.62 17C21.62 16.5858 21.2842 16.25 20.87 16.25L13.87 16.25L13.7682 16.2568C13.4022 16.3065 13.12 16.6203 13.12 17C13.12 17.4142 13.4558 17.75 13.87 17.75L20.87 17.75L20.9718 17.7432C21.3378 17.6935 21.62 17.3797 21.62 17ZM16.1195 20C16.1195 19.3096 16.6792 18.75 17.3695 18.75C18.0599 18.75 18.6195 19.3096 18.6195 20C18.6195 20.6904 18.0599 21.25 17.3695 21.25C16.6792 21.25 16.1195 20.6904 16.1195 20Z"
		fill-rule="evenodd" />
</svg>