<?xml version="1.0" encoding="UTF-8"?>
<svg viewBox="0 0 24 24" version="1.1" xmlns="http://www.w3.org/2000/svg" xmlns:xlink="http://www.w3.org/1999/xlink">
    <g id="页面-1" stroke="none" stroke-width="1">
        <g id="画板" transform="translate(-635.000000, -370.000000)">
            <g id="Calculator" transform="translate(635.000000, 370.000000)">
                <g id="编组" transform="translate(-0.000000, 0.000000)">
                    <path d="M17.4546,18.5 C18.0066,18.5 18.4546,18.947 18.4546,19.5 C18.4546,20.053 18.0066,20.5 17.4546,20.5 C16.9016,20.5 16.4546,20.053 16.4546,19.5 C16.4546,18.947 16.9016,18.5 17.4546,18.5 Z M3.99156102,12.9204143 L4.07568555,12.9930254 L6.522,15.44 L8.96971445,12.9930254 C9.26263226,12.7001568 9.73750599,12.7001966 10.0303746,12.9931144 C10.2966188,13.2594034 10.3207899,13.6760691 10.1029108,13.9696623 L10.0302856,14.0537746 L7.583,16.5 L10.0306856,18.9470254 C10.3236034,19.239894 10.3236432,19.7147677 10.0307746,20.0076856 C9.76453041,20.2739745 9.34786876,20.2982155 9.05423898,20.0803857 L8.97011445,20.0077746 L6.523,17.56 L4.07528555,20.0077746 C3.78236774,20.3006432 3.30749401,20.3006034 3.01462538,20.0076856 C2.74838118,19.7413966 2.72421012,19.3247309 2.94208923,19.0311377 L3.01471445,18.9470254 L5.462,16.5 L3.01511445,14.0537746 C2.72219664,13.760906 2.72215676,13.2860323 3.01502538,12.9931144 C3.28126959,12.7268255 3.69793124,12.7025845 3.99156102,12.9204143 Z M21,15.75 C21.4142136,15.75 21.75,16.0857864 21.75,16.5 C21.75,16.8796958 21.4678461,17.193491 21.1017706,17.2431534 L21,17.25 L14,17.25 C13.5857864,17.25 13.25,16.9142136 13.25,16.5 C13.25,16.1203042 13.5321539,15.806509 13.8982294,15.7568466 L14,15.75 L21,15.75 Z M17.4546,12.5 C18.0066,12.5 18.4546,12.948 18.4546,13.5 C18.4546,14.053 18.0066,14.5 17.4546,14.5 C16.9016,14.5 16.4546,14.053 16.4546,13.5 C16.4546,12.948 16.9016,12.5 17.4546,12.5 Z M6.5,2.25 C6.87969577,2.25 7.19349096,2.53215388 7.24315338,2.89822944 L7.25,3 L7.25,5.75 L10,5.75 C10.4142136,5.75 10.75,6.08578644 10.75,6.5 C10.75,6.87969577 10.4678461,7.19349096 10.1017706,7.24315338 L10,7.25 L7.25,7.25 L7.25,10 C7.25,10.4142136 6.91421356,10.75 6.5,10.75 C6.12030423,10.75 5.80650904,10.4678461 5.75684662,10.1017706 L5.75,10 L5.75,7.25 L3,7.25 C2.58578644,7.25 2.25,6.91421356 2.25,6.5 C2.25,6.12030423 2.53215388,5.80650904 2.89822944,5.75684662 L3,5.75 L5.75,5.75 L5.75,3 C5.75,2.58578644 6.08578644,2.25 6.5,2.25 Z M21,5.75 C21.4142136,5.75 21.75,6.08578644 21.75,6.5 C21.75,6.87969577 21.4678461,7.19349096 21.1017706,7.24315338 L21,7.25 L14,7.25 C13.5857864,7.25 13.25,6.91421356 13.25,6.5 C13.25,6.12030423 13.5321539,5.80650904 13.8982294,5.75684662 L14,5.75 L21,5.75 Z" id="形状结合"></path>
                </g>
            </g>
        </g>
    </g>
</svg>