<?xml version="1.0" encoding="UTF-8"?>
<svg viewBox="0 0 24 24" version="1.1" xmlns="http://www.w3.org/2000/svg" xmlns:xlink="http://www.w3.org/1999/xlink">
    <g id="页面-1" stroke="none" stroke-width="1">
        <g id="画板" transform="translate(-789.000000, -370.000000)">
            <g id="编组" transform="translate(789.000000, 370.000000)">
                <path d="M6.36215,9.6045 C5.94793644,9.6045 5.61215,9.26871356 5.61215,8.8545 C5.61215,8.47480423 5.89430388,8.16100904 6.26037944,8.11134662 L6.36215,8.1045 L19.49985,8.1045 L19.49985,7.3125 C19.49985,6.53246571 18.9052802,5.89201154 18.1443662,5.81936307 L17.99985,5.8125 L5.99985,5.8125 C5.21981571,5.8125 4.57936154,6.4070698 4.50671307,7.16798382 L4.49985,7.3125 L4.49985,18.3955 C4.49985,19.1755343 5.0944198,19.8159885 5.85533382,19.8886369 L5.99985,19.8955 L17.99985,19.8955 C18.7798843,19.8955 19.4203385,19.3009302 19.4929869,18.5400162 L19.49985,18.3955 L19.49985,11.8035 C19.49985,11.3892864 19.8356364,11.0535 20.24985,11.0535 C20.6295458,11.0535 20.943341,11.3356539 20.9930034,11.7017294 L20.99985,11.8035 L20.99985,18.3955 C20.99985,19.9935274 19.7512641,21.2991856 18.1761586,21.3904086 L17.99985,21.3955 L5.99985,21.3955 C4.40182264,21.3955 3.09616437,20.1469141 3.00494137,18.5718086 L2.99985,18.3955 L2.99985,7.3125 C2.99985,5.71447264 4.24843586,4.40881437 5.82354141,4.31759137 L5.99985,4.3125 L7.74985,4.3125 L7.74985,3.3545 C7.74985,2.94028644 8.08563644,2.6045 8.49985,2.6045 C8.87954577,2.6045 9.19334096,2.88665388 9.24300338,3.25272944 L9.24985,3.3545 L9.24985,4.3125 L14.74985,4.3125 L14.74985,3.3545 C14.74985,2.94028644 15.0856364,2.6045 15.49985,2.6045 C15.8795458,2.6045 16.193341,2.88665388 16.2430034,3.25272944 L16.24985,3.3545 L16.24985,4.3125 L17.99985,4.3125 C19.5978774,4.3125 20.9035356,5.56108586 20.9947586,7.13619141 L20.99985,7.3125 L21.00015,8.8545 L21.00015,8.8545 C21.00015,9.23419577 20.7179961,9.54799096 20.3519206,9.59765338 L20.24985,9.6045 L20.24985,9.6045 L6.36215,9.6045 Z M8.49985,15.3545 C8.77585,15.3545 8.99985,15.5785 8.99985,15.8545 L8.99985,16.8545 C8.99985,17.1295 8.77585,17.3545 8.49985,17.3545 L7.49985,17.3545 C7.22385,17.3545 6.99985,17.1295 6.99985,16.8545 L6.99985,15.8545 C6.99985,15.5785 7.22385,15.3545 7.49985,15.3545 L8.49985,15.3545 Z M12.49985,15.3545 C12.77585,15.3545 12.99985,15.5785 12.99985,15.8545 L12.99985,16.8545 C12.99985,17.1295 12.77585,17.3545 12.49985,17.3545 L11.49985,17.3545 C11.22385,17.3545 10.99985,17.1295 10.99985,16.8545 L10.99985,15.8545 C10.99985,15.5785 11.22385,15.3545 11.49985,15.3545 L12.49985,15.3545 Z M12.49985,11.3545 C12.77585,11.3545 12.99985,11.5785 12.99985,11.8535 L12.99985,12.8545 C12.99985,13.1295 12.77585,13.3545 12.49985,13.3545 L11.49985,13.3545 C11.22385,13.3545 10.99985,13.1295 10.99985,12.8545 L10.99985,11.8535 C10.99985,11.5785 11.22385,11.3545 11.49985,11.3545 L12.49985,11.3545 Z M16.49985,11.3545 C16.77585,11.3545 16.99985,11.5785 16.99985,11.8545 L16.99985,12.8545 C16.99985,13.1295 16.77585,13.3545 16.49985,13.3545 L15.49985,13.3545 C15.22385,13.3545 14.99985,13.1295 14.99985,12.8545 L14.99985,11.8545 C14.99985,11.5785 15.22385,11.3545 15.49985,11.3545 L16.49985,11.3545 Z" id="形状结合"></path>
            </g>
        </g>
    </g>
</svg>