<svg viewBox="0 0 24 24" xmlns="http://www.w3.org/2000/svg"
	xmlns:xlink="http://www.w3.org/1999/xlink">
	<defs />
	<g opacity="0.000000" />
	<path id="矢量 138"
		d="M14.8055 2.25002C15.1852 2.25002 15.499 2.53217 15.5487 2.89824L15.5555 3.00002L15.555 4.25002L18.5455 4.25002C20.2507 4.25002 21.6504 5.56117 21.7449 7.22089L21.75 7.40002L21.75 9.20001C21.75 9.57971 21.4678 9.89349 21.1018 9.94318L21 9.95001L3.75 9.95001L3.75 18.6C3.75 19.4597 4.43158 20.1714 5.30695 20.2439L5.45453 20.25L18.5455 20.25C19.4408 20.25 20.1696 19.5836 20.2438 18.7418L20.25 18.6L20.25 12.7027C20.25 12.2885 20.5858 11.9527 21 11.9527C21.3797 11.9527 21.6935 12.2348 21.7432 12.6009L21.75 12.7027L21.75 18.6C21.75 20.2834 20.4091 21.6526 18.7269 21.7451L18.5455 21.75L5.45453 21.75C3.74933 21.75 2.34961 20.4388 2.25507 18.7791L2.25 18.6L2.25 7.40002C2.25 5.71661 3.59094 4.34741 5.27307 4.25499L5.45453 4.25002L7.444 4.25002L7.44446 3.00002C7.44446 2.5858 7.78021 2.25002 8.19446 2.25002C8.57416 2.25002 8.88794 2.53217 8.93759 2.89824L8.94446 3.00002L8.944 4.25002L14.055 4.25002L14.0555 3.00002C14.0555 2.5858 14.3914 2.25002 14.8055 2.25002ZM12.6667 16.25C12.8508 16.25 13 16.3993 13 16.5833L13 17.9167C13 18.1008 12.8508 18.25 12.6667 18.25L11.3333 18.25C11.1492 18.25 11 18.1008 11 17.9167L11 16.5833C11 16.3993 11.1492 16.25 11.3333 16.25L12.6667 16.25ZM17.1667 16.25C17.3508 16.25 17.5 16.3993 17.5 16.5833L17.5 17.9167C17.5 18.1008 17.3508 18.25 17.1667 18.25L15.8333 18.25C15.6492 18.25 15.5 18.1008 15.5 17.9167L15.5 16.5833C15.5 16.3993 15.6492 16.25 15.8333 16.25L17.1667 16.25ZM8.16669 16.25C8.35077 16.25 8.5 16.3993 8.5 16.5833L8.5 17.9167C8.5 18.1008 8.35077 18.25 8.16669 18.25L6.83331 18.25C6.64923 18.25 6.5 18.1008 6.5 17.9167L6.5 16.5833C6.5 16.3993 6.64923 16.25 6.83331 16.25L8.16669 16.25ZM17.1667 12.25C17.3508 12.25 17.5 12.3993 17.5 12.5833L17.5 13.9167C17.5 14.1008 17.3508 14.25 17.1667 14.25L15.8333 14.25C15.6492 14.25 15.5 14.1008 15.5 13.9167L15.5 12.5833C15.5 12.3993 15.6492 12.25 15.8333 12.25L17.1667 12.25ZM12.6667 12.25C12.8508 12.25 13 12.3993 13 12.5833L13 13.9167C13 14.1008 12.8508 14.25 12.6667 14.25L11.3333 14.25C11.1492 14.25 11 14.1008 11 13.9167L11 12.5833C11 12.3993 11.1492 12.25 11.3333 12.25L12.6667 12.25ZM8.16669 12.25C8.35077 12.25 8.5 12.3993 8.5 12.5833L8.5 13.9167C8.5 14.1008 8.35077 14.25 8.16669 14.25L6.83331 14.25C6.64923 14.25 6.5 14.1008 6.5 13.9167L6.5 12.5833C6.5 12.3993 6.64923 12.25 6.83331 12.25L8.16669 12.25ZM18.5455 5.75002L18.6931 5.7561C19.5684 5.82863 20.25 6.54034 20.25 7.40002L20.25 8.45001L3.75 8.45001L3.75 7.40002L3.75623 7.25818C3.83044 6.41644 4.55917 5.75002 5.45453 5.75002L18.5455 5.75002Z"
		fill-rule="evenodd" />
</svg>