<svg viewBox="0 0 24 24" xmlns="http://www.w3.org/2000/svg"
	xmlns:xlink="http://www.w3.org/1999/xlink">
	<defs />
	<g opacity="0.000000" />
	<path id="矢量 139"
		d="M9.40002 3L4.59998 3C3.71631 3 3 3.69644 3 4.55554L3 8.44446C3 9.30356 3.71631 10 4.59998 10L9.40002 10C10.2837 10 11 9.30356 11 8.44446L11 4.55554C11 3.69644 10.2837 3 9.40002 3ZM19.4 3L14.6 3C13.7163 3 13 3.70355 13 4.57141L13 12.4286C13 13.2964 13.7163 14 14.6 14L19.4 14C20.2837 14 21 13.2964 21 12.4286L21 4.57141C21 3.70355 20.2837 3 19.4 3ZM9.40002 12L4.59998 12C3.71631 12 3 12.7326 3 13.6364L3 19.3636C3 20.2674 3.71631 21 4.59998 21L9.40002 21C10.2837 21 11 20.2674 11 19.3636L11 13.6364C11 12.7326 10.2837 12 9.40002 12ZM14.7455 16L19.2545 16C20.2185 16 21 16.7462 21 17.6667L21 19.3333C21 20.2538 20.2185 21 19.2545 21L14.7455 21C13.7815 21 13 20.2538 13 19.3333L13 17.6667C13 16.7462 13.7815 16 14.7455 16Z"
		fill-rule="evenodd" />
</svg>