<svg viewBox="0 0 24 24" xmlns="http://www.w3.org/2000/svg"
	xmlns:xlink="http://www.w3.org/1999/xlink">
	<defs />
	<g opacity="0.000000" />
	<path id="矢量 244"
		d="M9 2.25C9.1575 2.25 9.31155 2.26611 9.46216 2.2984C9.60632 2.32928 9.74731 2.37494 9.88513 2.43542C9.99936 2.48553 10.1079 2.54425 10.2109 2.61157C10.3513 2.70337 10.4811 2.81116 10.6005 2.935C10.6952 3.03314 10.7799 3.13788 10.8548 3.24933C10.9419 3.37915 11.0163 3.51904 11.0766 3.66681C11.127 3.79053 11.1665 3.91669 11.1949 4.04529C11.2316 4.2113 11.25 4.38141 11.25 4.55554L11.25 8.44446C11.25 8.61859 11.2316 8.7887 11.1949 8.95471C11.1665 9.08325 11.127 9.20947 11.0766 9.33319C11.0162 9.48114 10.9424 9.62012 10.8552 9.75006C10.7802 9.86169 10.6954 9.96667 10.6005 10.065C10.4811 10.1888 10.3513 10.2966 10.2109 10.3884C10.108 10.4557 9.99936 10.5145 9.88513 10.5646C9.7475 10.625 9.60663 10.6706 9.46265 10.7015C9.31207 10.7338 9.15753 10.75 9 10.75L4.5 10.75C4.34259 10.75 4.18863 10.7339 4.03815 10.7017C3.89398 10.6708 3.75269 10.6251 3.61487 10.5646C3.50064 10.5145 3.39203 10.4557 3.28909 10.3884C3.14886 10.2967 3.01874 10.1887 2.89948 10.065C2.80463 9.96667 2.71973 9.86163 2.64478 9.75C2.55756 9.62006 2.48376 9.48114 2.4234 9.33319C2.37299 9.20947 2.33353 9.08337 2.30508 8.95477C2.26837 8.78876 2.25 8.61859 2.25 8.44446L2.25 4.55554C2.25 4.38141 2.26837 4.2113 2.30508 4.04523C2.33353 3.91669 2.37299 3.79053 2.4234 3.66681C2.48376 3.51886 2.55756 3.37994 2.64478 3.25C2.71973 3.13831 2.80463 3.03333 2.89948 2.935C3.01886 2.81122 3.14871 2.70337 3.28906 2.61163C3.392 2.54431 3.50064 2.48553 3.61487 2.43542C3.75269 2.37494 3.89368 2.32928 4.03784 2.2984C4.18845 2.26611 4.3425 2.25 4.5 2.25L9 2.25ZM20.0039 2.30463C19.84 2.26819 19.672 2.25 19.5 2.25L15 2.25C14.828 2.25 14.66 2.26819 14.4962 2.30463C14.3738 2.33179 14.2537 2.36914 14.1359 2.41656C13.9864 2.47681 13.8463 2.55103 13.7155 2.6391C13.612 2.70898 13.5139 2.7879 13.4221 2.87531C13.2972 2.99432 13.1888 3.12408 13.0971 3.26477C13.0345 3.36078 12.9796 3.46191 12.9324 3.56812C12.872 3.70422 12.8265 3.84357 12.7961 3.98615C12.7654 4.13019 12.75 4.27802 12.75 4.42859L12.75 11.5714C12.75 11.7222 12.7654 11.8697 12.7961 12.0139C12.8265 12.1564 12.872 12.2958 12.9324 12.4319C12.9796 12.5381 13.0345 12.6392 13.0971 12.7352C13.1888 12.8759 13.2972 13.0057 13.4221 13.1247C13.514 13.2122 13.6118 13.291 13.7156 13.3609C13.8463 13.449 13.9864 13.5232 14.1359 13.5834C14.2537 13.6309 14.3738 13.6682 14.4962 13.6954C14.66 13.7318 14.828 13.75 15 13.75L19.5 13.75C19.672 13.75 19.84 13.7318 20.0038 13.6954C20.1256 13.6682 20.2469 13.6307 20.3641 13.5834C20.5136 13.5232 20.6537 13.449 20.7845 13.3608C20.8882 13.291 20.9861 13.2122 21.0779 13.1247C21.2028 13.0057 21.3112 12.8759 21.4029 12.7352C21.4655 12.6392 21.5204 12.5381 21.5676 12.4319C21.628 12.2958 21.6735 12.1564 21.7039 12.0139C21.7346 11.8697 21.75 11.7222 21.75 11.5714L21.75 4.42859C21.75 4.27795 21.7346 4.13062 21.7039 3.98651C21.6735 3.84399 21.628 3.70422 21.5676 3.56812C21.5204 3.46198 21.4656 3.3609 21.403 3.26489C21.3113 3.12427 21.2028 2.99432 21.0779 2.87531C20.986 2.78778 20.8882 2.70905 20.7845 2.6391C20.6537 2.55103 20.5136 2.47681 20.3641 2.41656C20.2463 2.36914 20.1262 2.33185 20.0039 2.30463ZM15 3.75L19.5 3.75C19.6251 3.75 19.739 3.77405 19.8415 3.82214C19.9145 3.85645 19.9818 3.90289 20.0434 3.96155C20.1242 4.03845 20.1813 4.12384 20.2147 4.21759C20.2382 4.28369 20.25 4.35413 20.25 4.42859L20.25 11.5714C20.25 11.6459 20.2382 11.7162 20.2147 11.7824C20.1813 11.8762 20.1242 11.9615 20.0434 12.0385C19.9818 12.0971 19.9145 12.1436 19.8415 12.1779C19.739 12.2259 19.6251 12.25 19.5 12.25L15 12.25C14.8749 12.25 14.7611 12.226 14.6586 12.1779C14.5855 12.1436 14.5182 12.0971 14.4566 12.0385C14.3758 11.9615 14.3187 11.8762 14.2853 11.7824C14.2618 11.7162 14.25 11.6459 14.25 11.5714L14.25 4.42859C14.25 4.35406 14.2618 4.28375 14.2853 4.21759C14.3187 4.12384 14.3758 4.03845 14.4566 3.96155C14.5181 3.90289 14.5854 3.85645 14.6584 3.8222C14.761 3.77411 14.8749 3.75 15 3.75ZM9 3.75L4.5 3.75C4.4115 3.75 4.32843 3.76453 4.25079 3.79352C4.1514 3.83063 4.06085 3.89154 3.97922 3.9762C3.91205 4.04584 3.85965 4.12219 3.82202 4.20526C3.77399 4.31116 3.75 4.42792 3.75 4.55554L3.75 8.44446C3.75 8.57208 3.77399 8.68884 3.82202 8.79474C3.85965 8.87781 3.91205 8.95416 3.97922 9.0238C4.06085 9.10846 4.15137 9.16931 4.25073 9.20648C4.32837 9.23547 4.41153 9.25 4.5 9.25L9 9.25C9.0885 9.25 9.17157 9.23547 9.24921 9.20648C9.3486 9.16937 9.43915 9.10846 9.52078 9.0238C9.58795 8.95416 9.64035 8.87781 9.67798 8.79474C9.72601 8.68884 9.75 8.57208 9.75 8.44446L9.75 4.55554C9.75 4.42792 9.72601 4.31116 9.67798 4.20526C9.64035 4.12219 9.58795 4.0459 9.52078 3.9762C9.43915 3.89154 9.34863 3.83069 9.24927 3.79352C9.1716 3.76453 9.0885 3.75 9 3.75ZM9.44122 12.2955C9.29733 12.2651 9.15027 12.25 9 12.25L4.5 12.25C4.34973 12.25 4.20264 12.2651 4.05878 12.2955C3.90271 12.3284 3.75043 12.379 3.6019 12.4476C3.50793 12.491 3.41788 12.5403 3.33167 12.5958C3.16956 12.7 3.02115 12.8256 2.88647 12.9725C2.81061 13.0552 2.74127 13.1424 2.67841 13.2341C2.57385 13.3865 2.48724 13.5512 2.41858 13.7283C2.37445 13.8421 2.33899 13.9579 2.31219 14.0756C2.27075 14.2578 2.25 14.4448 2.25 14.6364L2.25 19.3636C2.25 19.5553 2.27075 19.7422 2.31219 19.9244C2.33902 20.0422 2.37448 20.1579 2.41858 20.2717C2.48724 20.4488 2.57385 20.6135 2.67844 20.766C2.74127 20.8576 2.81064 20.9448 2.88647 21.0275C3.02115 21.1744 3.16956 21.3 3.33167 21.4042C3.41788 21.4597 3.50793 21.509 3.60193 21.5524C3.75043 21.621 3.90271 21.6716 4.05878 21.7045C4.20264 21.7349 4.34973 21.75 4.5 21.75L9 21.75C9.15027 21.75 9.29736 21.7349 9.44122 21.7045C9.59729 21.6716 9.74957 21.621 9.89807 21.5524C9.99203 21.509 10.0821 21.4597 10.1683 21.4042C10.3304 21.3 10.4788 21.1744 10.6135 21.0275C10.6894 20.9448 10.7587 20.8575 10.8216 20.7659C10.9261 20.6135 11.0128 20.4487 11.0814 20.2717C11.1255 20.1579 11.161 20.0422 11.1878 19.9244C11.2292 19.7422 11.25 19.5553 11.25 19.3636L11.25 14.6364C11.25 14.4448 11.2292 14.2579 11.1878 14.0757C11.161 13.9579 11.1255 13.8421 11.0814 13.7283C11.0128 13.5512 10.9261 13.3865 10.8216 13.234C10.7587 13.1424 10.6894 13.0552 10.6135 12.9725C10.4789 12.8256 10.3304 12.7 10.1683 12.5958C10.0821 12.5403 9.99207 12.491 9.8981 12.4476C9.74957 12.379 9.59726 12.3284 9.44122 12.2955ZM4.5 13.75L9 13.75C9.06918 13.75 9.13519 13.76 9.19806 13.78C9.31165 13.816 9.41492 13.8848 9.50781 13.9861C9.56497 14.0574 9.64819 14.1812 9.68286 14.2706C9.70905 14.3612 9.75 14.5381 9.75 14.6364L9.75 19.3636C9.75 19.4619 9.73691 19.5562 9.71072 19.6469C9.67609 19.7363 9.60226 19.8992 9.54504 19.9705C9.45218 20.0718 9.31168 20.184 9.19806 20.22C9.13519 20.24 9.06921 20.25 9 20.25L4.5 20.25C4.43079 20.25 4.36481 20.24 4.30194 20.22C4.18835 20.184 4.08508 20.1152 3.99219 20.0139C3.935 19.9426 3.85181 19.8188 3.81714 19.7294C3.79095 19.6388 3.75 19.4619 3.75 19.3636L3.75 14.6364C3.75 14.5382 3.76309 14.4438 3.78925 14.3531C3.82391 14.2637 3.89774 14.1008 3.9549 14.0295C4.04779 13.9282 4.18835 13.816 4.30194 13.78C4.36481 13.76 4.43082 13.75 4.5 13.75ZM19.3636 15.25C19.5338 15.25 19.7003 15.2676 19.8629 15.3027C20.0108 15.3347 20.1556 15.3812 20.2973 15.4422C20.4258 15.4976 20.5477 15.563 20.6628 15.6388C20.8039 15.7315 20.9349 15.8395 21.0559 15.9627C21.1634 16.0722 21.259 16.1897 21.3426 16.3151C21.4292 16.4449 21.5031 16.5834 21.5641 16.7303C21.6198 16.8644 21.6629 17.0012 21.6936 17.1407C21.7312 17.312 21.75 17.4872 21.75 17.6667L21.75 19.3333C21.75 19.5128 21.7312 19.688 21.6936 19.8592C21.6629 19.9988 21.6198 20.1356 21.5641 20.2697C21.5031 20.4166 21.4292 20.5551 21.3426 20.6849C21.259 20.8103 21.1634 20.9278 21.0559 21.0373C20.9349 21.1605 20.8039 21.2685 20.6628 21.3613C20.5477 21.437 20.4258 21.5024 20.2973 21.5578C20.1557 21.6188 20.0109 21.6653 19.863 21.6973C19.7003 21.7324 19.5339 21.75 19.3636 21.75L15.1364 21.75C14.9662 21.75 14.7997 21.7324 14.6371 21.6973C14.4891 21.6653 14.3444 21.6188 14.2027 21.5578C14.0742 21.5024 13.9524 21.437 13.8372 21.3613C13.6962 21.2686 13.5651 21.1605 13.4441 21.0373C13.3366 20.9278 13.241 20.8103 13.1574 20.6849C13.0708 20.5551 12.9969 20.4166 12.9359 20.2697C12.8802 20.1356 12.8371 19.9988 12.8064 19.8592C12.7688 19.688 12.75 19.5128 12.75 19.3333L12.75 17.6667C12.75 17.4872 12.7688 17.312 12.8064 17.1408C12.8371 17.0012 12.8802 16.8644 12.9359 16.7303C12.9969 16.5834 13.0708 16.4449 13.1574 16.3151C13.241 16.1897 13.3366 16.0722 13.4441 15.9627C13.5651 15.8395 13.6961 15.7315 13.8372 15.6387C13.9523 15.563 14.0742 15.4976 14.2027 15.4422C14.3444 15.3812 14.4892 15.3347 14.6371 15.3027C14.7997 15.2676 14.9662 15.25 15.1364 15.25L19.3636 15.25ZM19.3636 16.75L15.1364 16.75C15.0223 16.75 14.9159 16.7695 14.8173 16.8085C14.7066 16.8524 14.6057 16.9207 14.5145 17.0136C14.4748 17.054 14.4394 17.0973 14.4083 17.1434C14.3741 17.194 14.3451 17.248 14.3212 17.3055C14.3037 17.3477 14.2895 17.3907 14.2784 17.4344C14.2595 17.5095 14.25 17.5869 14.25 17.6667L14.25 19.3333C14.25 19.4131 14.2595 19.4905 14.2784 19.5656C14.2895 19.6093 14.3037 19.6523 14.3212 19.6945C14.3451 19.752 14.3741 19.806 14.4082 19.8566C14.4394 19.9026 14.4748 19.946 14.5145 19.9864C14.6057 20.0793 14.7066 20.1476 14.8173 20.1915C14.9159 20.2305 15.0223 20.25 15.1364 20.25L19.3636 20.25C19.4777 20.25 19.5841 20.2305 19.6827 20.1915C19.7934 20.1476 19.8943 20.0793 19.9855 19.9864C20.0252 19.946 20.0606 19.9028 20.0917 19.8566C20.1259 19.806 20.1549 19.752 20.1788 19.6945C20.1962 19.6523 20.2105 19.6094 20.2216 19.5656C20.2405 19.4906 20.25 19.4131 20.25 19.3333L20.25 17.6667C20.25 17.5869 20.2405 17.5095 20.2216 17.4344C20.2105 17.3907 20.1963 17.3477 20.1788 17.3055C20.1549 17.248 20.1259 17.194 20.0917 17.1434C20.0606 17.0973 20.0252 17.054 19.9855 17.0136C19.8943 16.9207 19.7934 16.8524 19.6827 16.8085C19.5841 16.7695 19.4777 16.75 19.3636 16.75Z"
		fill-rule="evenodd" />
</svg>