<svg viewBox="0 0 24 24" xmlns="http://www.w3.org/2000/svg"
	xmlns:xlink="http://www.w3.org/1999/xlink">
	<defs />
	<path id="矢量 80"
		d="M6.09998 2L16.3002 2C18.0399 2 19.4502 3.44638 19.4502 5.23062L19.4502 8.05478C18.9711 7.85941 18.4694 7.71017 17.9502 7.61246L17.9502 5.23062C17.9502 4.29602 17.2114 3.53839 16.3002 3.53839L6.09998 3.53839C5.18866 3.53839 4.44995 4.29602 4.44995 5.23062L4.44995 18.7684C4.44995 19.703 5.18866 20.4607 6.09998 20.4607L9.99829 20.4607C10.3989 21.0328 10.8696 21.55 11.3973 21.9991L6.09998 21.9991C4.36023 21.9991 2.94995 20.5527 2.94995 18.7684L2.94995 5.23062C2.94995 3.44638 4.36023 2 6.09998 2ZM14.5 5.75C14.9142 5.75 15.25 6.08578 15.25 6.5C15.25 6.8797 14.9678 7.19348 14.6017 7.24316L14.5 7.25L7.5 7.25C7.08575 7.25 6.75 6.91422 6.75 6.5C6.75 6.1203 7.0321 5.80652 7.39819 5.75684L7.5 5.75L14.5 5.75ZM11.75 9.5C11.75 9.08578 11.4142 8.75 11 8.75L7.5 8.75L7.39819 8.75684C7.0321 8.80652 6.75 9.1203 6.75 9.5C6.75 9.91422 7.08575 10.25 7.5 10.25L11 10.25L11.1017 10.2432C11.4678 10.1935 11.75 9.8797 11.75 9.5ZM10.25 15.5C10.25 12.0482 13.0482 9.25 16.5 9.25C19.9518 9.25 22.75 12.0482 22.75 15.5C22.75 18.9518 19.9518 21.75 16.5 21.75C13.0482 21.75 10.25 18.9518 10.25 15.5ZM21.25 15.5C21.25 12.8766 19.1233 10.75 16.5 10.75C13.8766 10.75 11.75 12.8766 11.75 15.5C11.75 18.1234 13.8766 20.25 16.5 20.25C19.1233 20.25 21.25 18.1234 21.25 15.5ZM19.5325 13.7219C19.2408 13.4278 18.766 13.4258 18.4719 13.7174L15.974 16.1931L14.5281 14.7593L14.4437 14.687C14.1491 14.4704 13.7325 14.4964 13.4674 14.7638C13.1758 15.0579 13.1777 15.5327 13.4719 15.8244L15.4465 17.7826L15.5305 17.8544C15.8231 18.0701 16.2369 18.0461 16.5027 17.7826L19.5281 14.7826L19.6011 14.6987C19.8201 14.406 19.7977 13.9893 19.5325 13.7219Z"
		fill-rule="evenodd" />
</svg>