<?xml version="1.0" encoding="UTF-8"?>
<svg viewBox="0 0 16 16" version="1.1" xmlns="http://www.w3.org/2000/svg" xmlns:xlink="http://www.w3.org/1999/xlink">
    <g id="CheckBox复选框/中尺寸/无文本/选中/默认" stroke="none" stroke-width="1">
        <path d="M12.9,1 C14.059798,1 15,1.94020203 15,3.1 L15,12.9 C15,14.059798 14.059798,15 12.9,15 L3.1,15 C1.94020203,15 1,14.059798 1,12.9 L1,3.1 C1,1.94020203 1.94020203,1 3.1,1 L12.9,1 Z M12.5645707,5.11507576 C12.3122319,4.86273699 11.9151702,4.84332631 11.6405663,5.05684373 L11.5746212,5.11507576 L7.11935351,9.56935351 L4.64497475,7.09497475 C4.37160774,6.82160774 3.92839226,6.82160774 3.65502525,7.09497475 C3.40268648,7.34731352 3.38327581,7.74437526 3.59679323,8.0189791 L3.65502525,8.08492424 L6.62487373,11.0547727 C6.87721251,11.3071115 7.27427425,11.3265222 7.54887809,11.1130047 L7.61482323,11.0547727 L12.5645707,6.10502525 C12.8379377,5.83165825 12.8379377,5.38844276 12.5645707,5.11507576 Z" id="形状备份"></path>
        <path d="M12.5645707,5.11507576 C12.3122319,4.86273699 11.9151702,4.84332631 11.6405663,5.05684373 L11.5746212,5.11507576 L7.11935351,9.56935351 L4.64497475,7.09497475 C4.37160774,6.82160774 3.92839226,6.82160774 3.65502525,7.09497475 C3.40268648,7.34731352 3.38327581,7.74437526 3.59679323,8.0189791 L3.65502525,8.08492424 L6.62487373,11.0547727 C6.87721251,11.3071115 7.27427425,11.3265222 7.54887809,11.1130047 L7.61482323,11.0547727 L12.5645707,6.10502525 C12.8379377,5.83165825 12.8379377,5.38844276 12.5645707,5.11507576 Z" id="路径" fill="#FFFFFF"></path>
    </g>
</svg>