<svg viewBox="0 0 24 24" xmlns="http://www.w3.org/2000/svg"
	xmlns:xlink="http://www.w3.org/1999/xlink">
	<defs />
	<g opacity="0.000000" />
	<path id="矢量 144"
		d="M16.3002 2C18.0399 2 19.4502 3.44641 19.4502 5.23062L19.4506 8.05371C18.9714 7.85861 18.4695 7.70959 17.9501 7.61206L17.9502 5.23062C17.9502 4.29602 17.2115 3.53839 16.3002 3.53839L6.10001 3.53839C5.18872 3.53839 4.45 4.29602 4.45 5.23062L4.45 18.7684C4.45 19.703 5.18872 20.4607 6.10001 20.4607L9.99579 20.4605C10.3965 21.0331 10.8673 21.5507 11.3953 22L6.10001 21.9991C4.36029 21.9991 2.95 20.5527 2.95 18.7684L2.95 5.23062C2.95 3.44641 4.36029 2 6.10001 2L16.3002 2ZM15.25 6.5C15.25 6.08578 14.9142 5.75 14.5 5.75L7.5 5.75L7.39822 5.75684C7.03215 5.80652 6.75 6.1203 6.75 6.5C6.75 6.91422 7.08578 7.25 7.5 7.25L14.5 7.25L14.6018 7.24316C14.9678 7.19348 15.25 6.8797 15.25 6.5ZM11 8.75C11.4142 8.75 11.75 9.08578 11.75 9.5C11.75 9.8797 11.4678 10.1935 11.1018 10.2432L11 10.25L7.5 10.25C7.08578 10.25 6.75 9.91422 6.75 9.5C6.75 9.1203 7.03215 8.80652 7.39822 8.75684L7.5 8.75L11 8.75ZM22.75 15.5C22.75 12.0482 19.9518 9.25 16.5 9.25C13.0482 9.25 10.25 12.0482 10.25 15.5C10.25 18.9518 13.0482 21.75 16.5 21.75C19.9518 21.75 22.75 18.9518 22.75 15.5ZM16.5 10.75C13.8766 10.75 11.75 12.8766 11.75 15.5C11.75 18.1234 13.8766 20.25 16.5 20.25C19.1234 20.25 21.25 18.1234 21.25 15.5C21.25 12.8766 19.1234 10.75 16.5 10.75ZM19.6011 14.6987C19.8202 14.4061 19.7977 13.9893 19.5325 13.7219C19.2409 13.4278 18.766 13.4258 18.4719 13.7174L15.974 16.1931L14.5281 14.7593C14.2336 14.5427 13.7326 14.4964 13.4674 14.7638C13.1758 15.0579 13.1778 15.5327 13.4719 15.8244L15.4466 17.7826C15.7393 17.9982 16.237 18.0461 16.5028 17.7826L19.6011 14.6987Z"
		fill-rule="evenodd" />
</svg>