<svg viewBox="0 0 24 24" xmlns="http://www.w3.org/2000/svg"
	xmlns:xlink="http://www.w3.org/1999/xlink">
	<defs />
	<g opacity="0.000000" />
	<path id="矢量 145"
		d="M18.1579 2.25C20.0778 2.25 21.6458 3.75616 21.745 5.65134L21.75 5.8421L21.75 7.29755C21.75 7.71173 21.4142 8.04755 21 8.04755C20.6203 8.04755 20.3065 7.76538 20.2568 7.39929L20.25 7.29755L20.25 5.8421C20.25 4.73691 19.393 3.83185 18.3073 3.75525L18.1579 3.75L5.8421 3.75C4.73691 3.75 3.83185 4.60699 3.75525 5.69269L3.75 5.8421L3.75 18.1579C3.75 19.2631 4.60699 20.1682 5.69269 20.2448L5.8421 20.25L18.1579 20.25C19.2631 20.25 20.1682 19.393 20.2448 18.3073L20.25 18.1579L20.25 10.7C20.25 10.2858 20.5858 9.94998 21 9.94998C21.3797 9.94998 21.6935 10.2321 21.7432 10.5982L21.75 10.7L21.75 18.1579C21.75 20.0778 20.2438 21.6458 18.3487 21.745L18.1579 21.75L5.8421 21.75C3.92224 21.75 2.35413 20.2438 2.25497 18.3487L2.25 18.1579L2.25 5.8421C2.25 3.92224 3.75616 2.35413 5.65134 2.25497L5.8421 2.25L18.1579 2.25ZM17.6011 9.94873C17.8202 9.65607 17.7977 9.23929 17.5326 8.97192C17.2409 8.6778 16.766 8.67578 16.4719 8.96744L10.949 14.443L7.52808 11.0511C7.23358 10.8345 6.7326 10.7882 6.46744 11.0556C6.17578 11.3497 6.1778 11.8246 6.47192 12.1163L10.4213 16.0326C10.714 16.2482 11.2116 16.2961 11.4774 16.0326L17.6011 9.94873Z"
		fill-rule="evenodd" />
</svg>