<?xml version="1.0" encoding="UTF-8"?>
<svg viewBox="0 0 24 24" version="1.1" xmlns="http://www.w3.org/2000/svg"
    xmlns:xlink="http://www.w3.org/1999/xlink">
    <g id="S12组件" stroke="none" stroke-width="1" fill-rule="evenodd">
        <g id="CheckOut" fill-rule="nonzero">
            <g id="编组">
                <path
                    d="M17,2 C18.597744,2 19.9036655,3.24924242 19.9949074,4.8237617 L20,5 L20,10.5 C20,10.9142132 19.6642132,11.25 19.25,11.25 C18.8703041,11.25 18.556509,10.9678459 18.5068464,10.6017704 L18.5,10.5 L18.5,5 C18.5,4.22053337 17.9050789,3.57957828 17.144454,3.50686896 L17,3.5 L7,3.5 C6.2203393,3.5 5.57955551,4.09510398 5.50686693,4.85557818 L5.5,5 L5.5,19.0009995 C5.5,19.7801895 6.09466124,20.4205036 6.85549998,20.4931374 L7,20.5 L11.5,20.5 C11.9142137,20.5 12.25,20.8357868 12.25,21.25 C12.25,21.6296959 11.9678459,21.943491 11.6017704,21.9931526 L11.5,22 L7,22 C5.40217149,22 4.09632857,20.751606 4.00509213,19.1772251 L4,19.0009995 L4,5 C4,3.40265357 5.24885905,2.09636301 6.82372069,2.00509397 L7,2 L17,2 Z M17,12 C19.7618957,12 22,14.2384684 22,17 C22,19.7622137 19.7622137,22 17,22 C14.2377865,22 12,19.7622137 12,17 C12,14.2384684 14.2381046,12 17,12 Z M17,13.5 C15.0665863,13.5 13.5,15.0668409 13.5,17 C13.5,18.9337864 15.0662136,20.5 17,20.5 C18.9337864,20.5 20.5,18.9337864 20.5,17 C20.5,15.0668409 18.933414,13.5 17,13.5 Z M19.5303302,15.2196699 C19.7965965,15.4859365 19.8208027,15.9026002 19.6029482,16.1962117 L19.5303302,16.2803301 L17.0303302,18.7803302 C16.7640636,19.0465965 16.3474,19.0708027 16.0537883,18.8529482 L15.9696699,18.7803302 L14.4696699,17.2803302 C14.1767767,16.9874369 14.1767767,16.5125631 14.4696699,16.2196699 C14.7359365,15.9534034 15.1526002,15.9291973 15.4462117,16.1470518 L15.5303301,16.2196699 L16.5,17.1889999 L18.4696698,15.2196699 C18.7625632,14.9267767 19.2374368,14.9267767 19.5303302,15.2196699 Z M13,9.75 C13.4142137,9.75 13.75,10.0857864 13.75,10.5 C13.75,10.8796958 13.4678459,11.193491 13.1017704,11.2431533 L13,11.25 L8.5,11.25 C8.08578643,11.25 7.75,10.9142135 7.75,10.5 C7.75,10.1203042 8.03215387,9.80650904 8.39822942,9.75684662 L8.5,9.75 L13,9.75 Z M15.5,5.75 C15.9142132,5.75 16.25,6.08578643 16.25,6.5 C16.25,6.87969577 15.9678459,7.19349098 15.6017704,7.24315333 L15.5,7.25 L8.5,7.25 C8.08578643,7.25 7.75,6.91421354 7.75,6.5 C7.75,6.12030423 8.03215387,5.80650904 8.39822942,5.75684662 L8.5,5.75 L15.5,5.75 Z"
                    id="形状结合"></path>
            </g>
        </g>
    </g>
</svg>