<svg viewBox="0 0 24 24" xmlns="http://www.w3.org/2000/svg"
	xmlns:xlink="http://www.w3.org/1999/xlink">
	<defs />
	<g opacity="0.000000" />
	<path id="矢量 160"
		d="M5.84 2.25L18.15 2.25C20.14 2.25 21.75 3.85 21.75 5.84L21.75 18.15C21.75 20.14 20.14 21.75 18.15 21.75L5.84 21.75C3.85 21.75 2.25 20.14 2.25 18.15L2.25 5.84C2.25 3.85 3.85 2.25 5.84 2.25Z"
		fill-opacity="1.000000" fill-rule="evenodd" />
	<path id="矢量 160"
		d="M17.53 8.97C17.24 8.67 16.76 8.67 16.47 8.96L10.94 14.44L7.52 11.05C7.23 10.83 6.73 10.78 6.46 11.05C6.17 11.34 6.17 11.82 6.47 12.11L10.42 16.03C10.71 16.24 11.21 16.29 11.47 16.03L17.52 10.03C17.74 9.73 17.79 9.23 17.53 8.97Z"
		fill="#FFFFFF" fill-opacity="1.000000" fill-rule="evenodd" />
</svg>