<?xml version="1.0" encoding="UTF-8"?>
<svg width="24px" height="24px" viewBox="0 0 24 24" version="1.1" xmlns="http://www.w3.org/2000/svg" xmlns:xlink="http://www.w3.org/1999/xlink">
    <g id="S12组件" stroke="none" stroke-width="1" fill-rule="evenodd">
        <g id="CheckedLinear" fill-rule="nonzero">
            <g id="编组">
                <path d="M18,3 C19.6568546,3 21,4.34314573 21,6 C21,6.41421366 20.6642132,6.75 20.25,6.75 C19.8357868,6.75 19.5,6.41421366 19.5,6 C19.5,5.23074627 18.9209394,4.59673929 18.1749315,4.51009154 L18,4.5 L6,4.5 C5.23074627,4.5 4.59673929,5.07906032 4.51009154,5.82506824 L4.5,6 L4.5,18 C4.5,18.7692537 5.07906032,19.4032612 5.82506824,19.4899082 L6,19.5 L18,19.5 C18.7692537,19.5 19.4032612,18.9209394 19.4899082,18.1749315 L19.5,18 L19.5,8.5 C19.5,8.08578634 19.8357868,7.75 20.25,7.75 C20.6181889,7.75 20.9244118,8.01531267 20.9879169,8.36518669 L21,8.5 L21,18 C21,19.581543 19.7761841,20.8772469 18.2238932,20.9917717 L18,21 L6,21 C4.41845727,21 3.12275232,19.7761841 3.0082286,18.2238932 L3,18 L3,6 C3,4.41845727 4.22381663,3.12275232 5.7761066,3.0082286 L6,3 L18,3 Z M17.08002,8.41864452 C17.3462858,8.68491107 17.370492,9.10157478 17.1526375,9.39518631 L17.08002,9.47930467 L11.0460196,15.5133047 C10.7797532,15.7795711 10.3630893,15.8037772 10.0694778,15.5859227 L9.98535943,15.5133047 L6.95135936,12.4793048 C6.65846615,12.1864114 6.65846615,11.7115378 6.95135936,11.4186444 C7.21762592,11.1523778 7.63428962,11.1281719 7.92790115,11.3460264 L8.01201952,11.4186444 L10.5157895,13.9223747 L16.0193596,8.41864452 C16.312253,8.1257513 16.7871265,8.1257513 17.08002,8.41864452 Z" id="形状结合"></path>
            </g>
        </g>
    </g>
</svg>