<svg viewBox="0 0 24 24" xmlns="http://www.w3.org/2000/svg"
	xmlns:xlink="http://www.w3.org/1999/xlink">
	<defs />
	<g opacity="0.000000" />
	<path id="形状"
		d="M19.75 4.22263C19.75 3.13766 18.8861 2.25 17.8101 2.25L4.18997 2.25C3.70148 2.25 3.23175 2.43729 2.8739 2.77332L2.75653 2.89322C2.08865 3.6362 2.07553 4.78622 2.7511 5.54584L7.79901 11.221L7.7999 20.5924C7.7999 20.8112 7.86136 21.0259 7.97757 21.2114C8.31897 21.7561 9.03787 21.916 9.57516 21.5605L13.2595 19.1226L13.3927 19.0262C13.8636 18.6538 14.1413 18.0797 14.1413 17.4692L14.141 11.223L19.2417 5.55392C19.5691 5.18985 19.75 4.71478 19.75 4.22263ZM4.18994 3.75L17.8101 3.75C18.0484 3.75 18.25 3.95712 18.25 4.22263C18.25 4.34567 18.2053 4.46313 18.1263 4.55087L12.8337 10.4359C12.7098 10.5736 12.6413 10.7522 12.6413 10.9374L12.6413 17.4692L12.6319 17.5664C12.6072 17.6927 12.535 17.8034 12.4318 17.8717L9.29901 19.944L9.2999 10.9374C9.2999 10.7536 9.23242 10.5763 9.11032 10.439L3.87195 4.54898C3.69839 4.35385 3.71198 4.04395 3.9006 3.86685C3.98135 3.79105 4.08429 3.75 4.18994 3.75ZM17.4462 15.398L17.5303 15.4706L19 16.94L20.4697 15.4706C20.7626 15.1777 21.2374 15.1777 21.5303 15.4706C21.7966 15.7368 21.8208 16.1535 21.6029 16.4471L21.5303 16.5312L20.061 18.001L21.5303 19.4706C21.8232 19.7635 21.8232 20.2383 21.5303 20.5312C21.2641 20.7975 20.8474 20.8217 20.5538 20.6039L20.4697 20.5312L19 19.062L17.5303 20.5312C17.2374 20.8241 16.7626 20.8241 16.4697 20.5312C16.2034 20.265 16.1792 19.8483 16.3971 19.5547L16.4697 19.4706L17.939 18.001L16.4697 16.5312C16.1768 16.2383 16.1768 15.7635 16.4697 15.4706C16.7359 15.2043 17.1526 15.1801 17.4462 15.398Z"
		clip-rule="evenodd" fill-rule="evenodd" fill-opacity="1.000000" />
</svg>