<?xml version="1.0" encoding="UTF-8"?>
<svg viewBox="0 0 24 24" version="1.1" xmlns="http://www.w3.org/2000/svg" xmlns:xlink="http://www.w3.org/1999/xlink">
    <g id="S12组件" stroke="none" stroke-width="1">
        <g id="ClearFilter">
            <g id="编组-2备份" transform="translate(3.000000, 2.999926)">
                <path d="M13.4341853,7.9225515e-13 C14.9817468,7.9225515e-13 15.8578692,1.73986903 14.9951347,2.97516207 L14.9061801,3.09305606 L11.0761801,7.80505609 C10.8149185,8.12648289 10.3425561,8.17525649 10.0211292,7.91399479 C9.728923,7.67648419 9.6620501,7.26451019 9.848596,6.95007602 L9.9121905,6.85894394 L13.7422662,2.14685082 C13.9366815,1.90774237 13.7944227,1.55890208 13.5085372,1.50664918 L13.4341853,1.5 L1.8821853,1.5 C1.58361914,1.5 1.41253254,1.82368849 1.54525272,2.05876402 L1.58911402,2.12036874 L6.16419932,7.13246219 C6.47091801,7.46859229 6.65664424,7.89570079 6.69413009,8.34542629 L6.7011853,8.51499999 L6.7011853,16.2011291 C6.7011853,16.4149222 6.9150542,16.5501591 7.1012346,16.4788477 L7.1619378,16.4472516 L8.806318,15.3386699 C9.0128742,15.1991175 9.1480937,14.9805556 9.1825124,14.7387253 L9.1911853,14.6161291 L9.1911853,9.74769959 C9.1911853,9.33348609 9.5269717,8.99769959 9.9411853,8.99769959 C10.3208811,8.99769959 10.6346763,9.27985349 10.6843387,9.64592909 L10.6911853,9.74769959 L10.6911853,14.6161291 C10.6911853,15.3435743 10.3574696,16.0265641 9.7916613,16.4749167 L9.6454328,16.5820065 L7.9990671,17.6919251 C6.84475825,18.4664397 5.30764807,17.6944276 5.20645662,16.3429631 L5.2011853,16.2011291 L5.2011853,8.51499999 C5.2011853,8.41274829 5.17210957,8.31245499 5.11823669,8.22559229 L5.05625658,8.14363129 L0.47199714,3.12129698 C-0.56249629,1.94500383 0.21357471,0.1185146 1.73287217,0.00550775 L1.8821853,7.9225515e-13 L13.4341853,7.9225515e-13 Z M16.8122296,12.1460881 C17.1037692,11.9297709 17.5174926,11.9538062 17.7818802,12.2181938 C18.0727066,12.5090202 18.0727066,12.9805429 17.7818802,13.2713693 L17.7818802,13.2713693 L16.553,14.5 L17.7818802,15.7287787 C18.0727066,16.0196051 18.0727066,16.4911278 17.7818802,16.7819542 C17.5174926,17.0463418 17.1037692,17.0703771 16.8122296,16.8540599 L16.7287047,16.7819542 L15.5,15.553 L14.2712953,16.7819542 L14.1877704,16.8540599 C13.8962308,17.0703771 13.4825074,17.0463418 13.2181198,16.7819542 C12.9272934,16.4911278 12.9272934,16.0196051 13.2181198,15.7287787 L13.2181198,15.7287787 L14.447,14.5 L13.2181198,13.2713693 C12.9272934,12.9805429 12.9272934,12.5090202 13.2181198,12.2181938 C13.4825074,11.9538062 13.8962308,11.9297709 14.1877704,12.1460881 L14.2712953,12.2181938 L15.5,13.447 L16.7287047,12.2181938 Z M4.70514103,2.29366458 L4.78424696,2.37171301 L6.93012581,4.82387326 C7.2029045,5.1355857 7.1713425,5.6094094 6.85963007,5.88218812 C6.57625513,6.13016877 6.15890393,6.12662816 5.88042115,5.88974081 L5.80131521,5.81169238 L3.65543636,3.35953214 C3.38265764,3.0478197 3.41421966,2.57399599 3.7259321,2.30121727 C4.00930705,2.05323662 4.42665824,2.05677724 4.70514103,2.29366458 Z" id="形状结合"></path>
            </g>
        </g>
    </g>
</svg>