<?xml version="1.0" encoding="UTF-8"?>
<svg viewBox="0 0 24 24" version="1.1" xmlns="http://www.w3.org/2000/svg" xmlns:xlink="http://www.w3.org/1999/xlink">
    <g id="页面-1" stroke="none" stroke-width="1">
        <g id="画板" transform="translate(-635.000000, -574.000000)">
            <g id="编组" transform="translate(635.000000, 574.000000)">
                <path d="M10.7851754,2.04350559 C11.7819006,1.92162798 12.6662382,2.66415288 12.7445731,3.64611855 L12.7502059,3.78796072 L12.7500025,11.6590535 L15.3160595,14.2201545 C15.5825651,14.4861818 15.6071454,14.9028236 15.3895547,15.1966307 L15.3170121,15.2808143 C15.0509848,15.5473199 14.634343,15.5719002 14.340536,15.3543095 L14.2563524,15.2817669 L11.4703524,12.5007669 C11.3575974,12.3882143 11.2843566,12.2434832 11.2595706,12.0881302 L11.2502059,11.9699607 L11.2502059,3.78796072 C11.2502059,3.63495493 11.1149405,3.51435489 10.9663087,3.53252871 C6.72586665,4.04567963 3.50020593,7.66038697 3.50020593,11.9699607 C3.50020593,16.7548509 7.44583594,20.5992302 12.2416447,20.4662426 C16.7230439,20.3433389 20.4487674,16.5524375 20.4992529,12.0665638 C20.5426208,8.19327561 17.9709108,4.81397868 14.2998129,3.78513595 C13.9009665,3.67335735 13.6682521,3.25941403 13.7800307,2.86056767 C13.8918093,2.46172131 14.3057526,2.2290069 14.704599,2.3407855 C19.0249811,3.55159323 22.0501773,7.52678337 21.9991584,12.083401 C21.9396079,17.3747403 17.5701166,21.8206717 12.2829954,21.9656725 C6.64243878,22.122085 2.00020593,17.5989787 2.00020593,11.9699607 C2.00020593,6.89945842 5.79459063,2.64743335 10.7851754,2.04350559 Z" id="Stroke-1"></path>
            </g>
        </g>
    </g>
</svg>