<svg viewBox="0 0 24 24" xmlns="http://www.w3.org/2000/svg"
	xmlns:xlink="http://www.w3.org/1999/xlink">
	<defs />
	<g opacity="0.000000" />
	<path id="矢量 170"
		d="M12 1.25C14.3112 1.25 16.5139 1.98203 18.3405 3.31812C18.6748 3.56268 18.7477 4.03195 18.5031 4.36627C18.2585 4.70059 17.7893 4.77335 17.455 4.52881C15.8832 3.37915 13.9901 2.75 12 2.75C6.89139 2.75 2.75 6.89136 2.75 12C2.75 17.1086 6.89139 21.25 12 21.25C17.1086 21.25 21.25 17.1086 21.25 12C21.25 10.0093 20.6205 8.11557 19.4701 6.54361C19.2255 6.20932 19.2982 5.74005 19.6325 5.49542C19.9668 5.25082 20.436 5.32352 20.6806 5.65778C22.0175 7.48468 22.75 9.68808 22.75 12C22.75 17.9371 17.937 22.75 12 22.75C6.06296 22.75 1.25 17.9371 1.25 12C1.25 6.06293 6.06296 1.25 12 1.25ZM12.7431 6.89822C12.6935 6.53217 12.3797 6.25 12 6.25C11.5858 6.25 11.25 6.58578 11.25 7L11.25 12.9675L11.2592 13.0847C11.2836 13.2388 11.3557 13.3826 11.4668 13.4949L14.4668 16.5275C14.7592 16.7469 15.2598 16.798 15.5275 16.5332C15.7469 16.2407 15.798 15.7402 15.5332 15.4725L12.75 12.658L12.75 7L12.7431 6.89822Z"
		fill-rule="evenodd" />
</svg>