<?xml version="1.0" encoding="UTF-8"?>
<svg viewBox="0 0 24 24" version="1.1" xmlns="http://www.w3.org/2000/svg" xmlns:xlink="http://www.w3.org/1999/xlink">
    <g id="S12组件" stroke="none" stroke-width="1">
        <g id="CloseSquare">
            <g id="编组">
                <path d="M18,3 C19.6568542,3 21,4.34314575 21,6 C21,6.41421356 20.6642136,6.75 20.25,6.75 C19.8357864,6.75 19.5,6.41421356 19.5,6 C19.5,5.23074624 18.9209397,4.59673926 18.1749317,4.5100916 L18,4.5 L6,4.5 C5.23074624,4.5 4.59673926,5.07906029 4.5100916,5.82506831 L4.5,6 L4.5,18 C4.5,18.7692538 5.07906029,19.4032607 5.82506831,19.4899084 L6,19.5 L18,19.5 C18.7692538,19.5 19.4032607,18.9209397 19.4899084,18.1749317 L19.5,18 L19.5,8.5 C19.5,8.08578644 19.8357864,7.75 20.25,7.75 C20.6181898,7.75 20.9244126,8.01531274 20.9879165,8.36518655 L21,8.5 L21,18 C21,19.5815427 19.7761833,20.8772477 18.2238935,20.9917714 L18,21 L6,21 C4.41845731,21 3.12275232,19.7761833 3.0082286,18.2238935 L3,18 L3,6 C3,4.41845731 4.22381669,3.12275232 5.77610648,3.0082286 L6,3 L18,3 Z M15.9623106,8.5376894 C16.2307961,8.80617487 16.2705188,9.21022556 16.06929,9.48168761 L16.0084263,9.55223391 L13.3106602,12.25 L16.0084263,14.9477661 C16.2758505,15.2151903 16.2552038,15.6694174 15.9623106,15.9623106 C15.6938251,16.2307961 15.2897744,16.2705188 15.0183124,16.06929 L14.9477661,16.0084263 L12.25,13.3106602 L9.5522339,16.0084263 C9.28480966,16.2758505 8.83058264,16.2552038 8.5376894,15.9623106 C8.26920392,15.6938251 8.22948121,15.2897744 8.43071001,15.0183124 L8.49157373,14.9477661 L11.1893398,12.25 L8.49157374,9.55223391 C8.2241495,9.28480967 8.24479615,8.83058264 8.5376894,8.5376894 C8.80617487,8.26920392 9.21022556,8.22948118 9.48168761,8.43070999 L9.55223391,8.49157374 L12.25,11.1893398 L14.9477661,8.49157374 C15.2151903,8.2241495 15.6694174,8.24479615 15.9623106,8.5376894 Z" id="形状结合"></path>
            </g>
        </g>
    </g>
</svg>