<svg viewBox="0 0 24 24" xmlns="http://www.w3.org/2000/svg"
	xmlns:xlink="http://www.w3.org/1999/xlink">
	<defs />
	<g opacity="0.000000" />
	<path id="矢量 98"
		d="M18.5455 2.25C20.2542 2.25 21.6507 3.58749 21.7449 5.27271L21.75 5.45456L21.75 6.68182C21.75 7.09604 21.4142 7.43182 21 7.43182C20.6203 7.43182 20.3065 7.14966 20.2568 6.7836L20.25 6.68182L20.25 5.45456C20.25 4.56268 19.5651 3.83081 18.6925 3.75626L18.5455 3.75L5.45453 3.75C4.56268 3.75 3.83081 4.43494 3.75626 5.30746L3.75 5.45456L3.75 18.5454C3.75 19.4373 4.43494 20.1692 5.30746 20.2437L5.45453 20.25L18.5455 20.25C19.4373 20.25 20.1692 19.5651 20.2437 18.6925L20.25 18.5454L20.25 9.51465C20.25 9.10043 20.5858 8.76465 21 8.76465C21.3797 8.76465 21.6935 9.04678 21.7432 9.41287L21.75 9.51465L21.75 18.5454C21.75 20.2542 20.4125 21.6507 18.7273 21.7449L18.5455 21.75L5.45453 21.75C3.74576 21.75 2.34933 20.4125 2.25507 18.7273L2.25 18.5454L2.25 5.45456C2.25 3.74576 3.58749 2.34933 5.27271 2.25507L5.45453 2.25L18.5455 2.25ZM8.53033 7.46967C8.23672 7.2518 7.73593 7.2034 7.46967 7.46967C7.17676 7.76257 7.17676 8.23743 7.46967 8.53033L10.939 12L7.46967 15.4697C7.25183 15.7633 7.2034 16.2641 7.46967 16.5303C7.76257 16.8232 8.23743 16.8232 8.53033 16.5303L12 13.061L15.4697 16.5303C15.7633 16.7482 16.2641 16.7966 16.5303 16.5303C16.8232 16.2374 16.8232 15.7626 16.5303 15.4697L13.061 12L16.5303 8.53033C16.7482 8.23672 16.7966 7.73593 16.5303 7.46967C16.2374 7.17679 15.7626 7.17679 15.4697 7.46967L12 10.939L8.53033 7.46967Z"
		fill-rule="evenodd" />
</svg>