<svg viewBox="0 0 24 24" xmlns="http://www.w3.org/2000/svg"
	xmlns:xlink="http://www.w3.org/1999/xlink">
	<defs />
	<g opacity="0.000000" />
	<path id="路径"
		d="M18.6248 4.32602C18.9185 4.10815 19.3351 4.13235 19.6014 4.39862C19.8943 4.69153 19.8943 5.16638 19.6014 5.45929L13.0609 12L19.6014 18.5408C19.8943 18.8336 19.8943 19.3085 19.6014 19.6014C19.3351 19.8677 18.9185 19.8919 18.6248 19.674L18.5407 19.6014L11.9999 13.0609L5.45926 19.6014L5.37512 19.674C5.08151 19.8919 4.66486 19.8677 4.39859 19.6014C4.10571 19.3085 4.10571 18.8336 4.39859 18.5408L10.9389 12L4.39859 5.45929C4.10571 5.16638 4.10571 4.69153 4.39859 4.39862C4.66486 4.13235 5.08151 4.10815 5.37512 4.32602L5.45926 4.39862L11.9999 10.939L18.5407 4.39862L18.6248 4.32602Z"
		fill-rule="evenodd" />
</svg>