<?xml version="1.0" encoding="UTF-8"?>
<svg viewBox="0 0 24 24" version="1.1" xmlns="http://www.w3.org/2000/svg" xmlns:xlink="http://www.w3.org/1999/xlink">
    <g id="页面-1" stroke="none" stroke-width="1">
        <g id="画板" transform="translate(-319.000000, -642.000000)">
            <g id="编组" transform="translate(319.000000, 642.000000)">
                <path d="M5.44621165,4.39705176 L5.53033009,4.46966991 L12,10.939 L18.4696699,4.46966991 C18.7625631,4.1767767 19.2374369,4.1767767 19.5303301,4.46966991 C19.7965966,4.73593648 19.8208027,5.15260016 19.6029482,5.44621165 L19.5303301,5.53033009 L13.061,12 L19.5303301,18.4696699 C19.8232233,18.7625631 19.8232233,19.2374369 19.5303301,19.5303301 C19.2640635,19.7965966 18.8473998,19.8208027 18.5537883,19.6029482 L18.4696699,19.5303301 L12,13.061 L5.53033009,19.5303301 C5.23743687,19.8232233 4.76256313,19.8232233 4.46966991,19.5303301 C4.20340335,19.2640635 4.1791973,18.8473998 4.39705176,18.5537883 L4.46966991,18.4696699 L10.939,12 L4.46966991,5.53033009 C4.1767767,5.23743687 4.1767767,4.76256313 4.46966991,4.46966991 C4.73593648,4.20340335 5.15260016,4.1791973 5.44621165,4.39705176 Z" id="形状结合"></path>
            </g>
        </g>
    </g>
</svg>