<svg viewBox="0 0 24 24" xmlns="http://www.w3.org/2000/svg"
	xmlns:xlink="http://www.w3.org/1999/xlink">
	<defs />
	<g opacity="0.000000" />
	<path id="矢量 7"
		d="M0.13 13.4C0.04 13.81 0 14.23 0 14.66C0 15.12 0.04 15.56 0.14 16C0.22 16.35 0.33 16.69 0.47 17.03C0.62 17.38 0.8 17.72 1.01 18.03C1.23 18.36 1.48 18.67 1.76 18.96C2.07 19.27 2.39 19.53 2.74 19.76C3.04 19.96 3.35 20.12 3.68 20.27C4.03 20.41 4.38 20.53 4.74 20.61C5.16 20.7 5.6 20.75 6.04 20.75L17.29 20.75C17.78 20.75 18.26 20.69 18.73 20.59C19.13 20.5 19.52 20.38 19.9 20.21C20.27 20.06 20.62 19.87 20.94 19.66C21.33 19.4 21.7 19.1 22.03 18.77C22.35 18.45 22.63 18.1 22.87 17.74C23.1 17.39 23.3 17.01 23.47 16.62C23.62 16.25 23.75 15.87 23.83 15.48C23.94 15 24 14.5 24 14C24 13.49 23.94 12.99 23.83 12.51C23.75 12.12 23.62 11.74 23.47 11.37C23.3 10.98 23.1 10.6 22.87 10.25C22.63 9.89 22.35 9.54 22.03 9.22C21.7 8.89 21.33 8.59 20.94 8.33C20.62 8.12 20.27 7.93 19.9 7.78C19.56 7.63 19.21 7.52 18.86 7.43C18.4 7.32 17.94 7.26 17.46 7.25C17.4 7.11 17.34 6.98 17.27 6.85C17.11 6.54 16.91 6.23 16.7 5.94C16.48 5.66 16.25 5.39 15.99 5.14C15.76 4.92 15.52 4.71 15.25 4.52C14.94 4.29 14.62 4.09 14.28 3.93C14 3.79 13.72 3.68 13.43 3.58C13.14 3.49 12.85 3.41 12.56 3.36C12.16 3.28 11.75 3.25 11.33 3.25C10.87 3.25 10.41 3.29 9.96 3.39C9.59 3.46 9.23 3.57 8.88 3.71C8.53 3.85 8.21 4.01 7.89 4.2C7.52 4.43 7.16 4.69 6.83 4.99C6.52 5.27 6.25 5.57 6 5.9C5.76 6.21 5.55 6.55 5.37 6.91C5.18 7.27 5.03 7.64 4.92 8.02C4.85 8.25 4.79 8.48 4.75 8.72C4.58 8.75 4.41 8.8 4.25 8.85C3.9 8.96 3.55 9.1 3.22 9.28C2.92 9.44 2.65 9.62 2.38 9.82C2.08 10.05 1.79 10.31 1.53 10.61C1.28 10.89 1.06 11.19 0.87 11.51C0.69 11.81 0.53 12.13 0.4 12.46C0.29 12.76 0.19 13.08 0.13 13.4ZM1.61 15.7C1.53 15.36 1.5 15.02 1.5 14.66C1.5 14.32 1.53 13.99 1.6 13.67C1.65 13.44 1.72 13.22 1.8 13C1.9 12.75 2.01 12.52 2.15 12.29C2.29 12.05 2.46 11.82 2.65 11.61C2.85 11.38 3.07 11.17 3.31 11C3.5 10.85 3.71 10.72 3.92 10.6C4.17 10.47 4.43 10.36 4.7 10.28C4.96 10.2 5.22 10.14 5.5 10.11C5.59 10.1 5.67 10.08 5.74 10.04C5.81 10 5.88 9.95 5.94 9.89C6.01 9.83 6.05 9.76 6.09 9.69C6.12 9.61 6.15 9.53 6.16 9.44C6.19 9.1 6.26 8.77 6.36 8.45C6.45 8.15 6.56 7.87 6.7 7.59C6.84 7.32 7.01 7.05 7.19 6.81C7.39 6.56 7.6 6.32 7.84 6.1C8.1 5.86 8.39 5.65 8.69 5.47C8.92 5.33 9.17 5.21 9.43 5.11C9.69 5 9.96 4.92 10.24 4.86C10.6 4.78 10.96 4.75 11.33 4.75C11.67 4.75 12 4.78 12.32 4.84C12.53 4.88 12.75 4.94 12.96 5.01C13.17 5.08 13.39 5.16 13.59 5.26C13.86 5.39 14.12 5.55 14.37 5.73C14.57 5.88 14.76 6.04 14.94 6.21C15.14 6.4 15.33 6.61 15.5 6.84C15.67 7.07 15.82 7.31 15.95 7.56C16.06 7.78 16.16 8.01 16.25 8.25C16.27 8.33 16.31 8.4 16.36 8.46C16.41 8.52 16.46 8.58 16.53 8.63C16.6 8.67 16.67 8.71 16.75 8.73C16.82 8.75 16.9 8.76 16.99 8.75L17.14 8.75L17.3 8.74C17.64 8.75 17.97 8.78 18.3 8.84C18.65 8.91 18.98 9.02 19.31 9.16C19.59 9.27 19.85 9.41 20.1 9.57C20.41 9.78 20.7 10.01 20.97 10.28C21.22 10.53 21.44 10.8 21.63 11.09C21.8 11.36 21.96 11.65 22.09 11.95C22.2 12.23 22.29 12.51 22.36 12.81C22.45 13.19 22.5 13.59 22.5 14C22.5 14.4 22.45 14.8 22.36 15.18C22.3 15.48 22.2 15.76 22.09 16.04C21.96 16.34 21.8 16.63 21.63 16.9C21.44 17.19 21.22 17.46 20.97 17.71C20.7 17.98 20.41 18.21 20.1 18.41C19.85 18.58 19.59 18.72 19.31 18.83C19.03 18.96 18.73 19.05 18.43 19.12C18.06 19.2 17.68 19.25 17.29 19.25L6.04 19.25C5.7 19.25 5.37 19.21 5.04 19.14C4.78 19.08 4.52 18.99 4.27 18.89C4.03 18.78 3.8 18.66 3.59 18.52C3.31 18.35 3.06 18.14 2.83 17.9C2.61 17.69 2.42 17.45 2.25 17.2C2.1 16.96 1.96 16.71 1.85 16.45C1.75 16.2 1.67 15.96 1.61 15.7ZM12.75 9L12.75 15.17L14.96 12.93C15.26 12.63 15.72 12.63 16.02 12.92C16.32 13.22 16.32 13.68 16.03 13.98L12.53 17.52C12.46 17.6 12.38 17.65 12.29 17.69C12.2 17.73 12.1 17.74 12 17.75C11.9 17.75 11.8 17.73 11.71 17.69C11.62 17.66 11.54 17.6 11.47 17.53L7.96 13.98C7.67 13.68 7.67 13.22 7.97 12.92C8.27 12.63 8.73 12.63 9.03 12.93L11.25 15.17L11.25 9C11.25 8.58 11.58 8.25 12 8.25C12.41 8.25 12.75 8.58 12.75 9Z"
		fill-opacity="1.000000" />
</svg>