<?xml version="1.0" encoding="UTF-8"?>
<svg viewBox="0 0 24 24" version="1.1" xmlns="http://www.w3.org/2000/svg" xmlns:xlink="http://www.w3.org/1999/xlink">
    <g id="S12组件" stroke="none" stroke-width="1">
        <g id="CloudDownload">
            <path d="M6.73174794,3 C7.13233082,3 7.52724934,3.08750489 7.88917758,3.25543381 L8.067266,3.34606749 L11.6611984,5.3426966 C11.8097564,5.42522882 11.9731805,5.47638366 12.1413722,5.49354431 L12.2682521,5.5 L18.25,5.5 C20.2542592,5.5 21.8912737,7.07236105 21.994802,9.05084143 L22,9.25 L22.001223,14.5414835 C22.5831804,15.0634141 22.9726927,15.7936496 23.0530738,16.6169994 L23.0530738,16.6169994 L23.0656039,16.7966982 L23.0679497,16.9161405 C23.0679497,18.6867412 21.617821,20.1166381 19.8339309,20.1166381 L19.8339309,20.1166381 L14.8116554,20.1160195 L14.718917,20.1127679 C13.198583,20.034406 12,18.7888311 12,17.2735653 C12,16.0757528 12.7517141,15.0355681 13.8433837,14.6195837 L13.8433837,14.6195837 L13.8945371,14.6007157 L13.9361634,14.463025 C14.3733406,13.1214748 15.5881397,12.1421969 17.0346694,12.0142279 L17.0346694,12.0142279 L17.2381874,12.0020364 L17.3577258,12 C18.6315669,12 19.7944243,12.6649153 20.4426055,13.7321834 L20.4426055,13.7321834 L20.4685371,13.7767157 L20.5,13.783 L20.5,9.25 C20.5,8.05913601 19.5748384,7.08435508 18.4040488,7.00519081 L18.25,7 L12.2682521,7 C11.8676692,7 11.4727507,6.91249511 11.1108224,6.74456619 L10.932734,6.65393251 L7.33880161,4.6573034 C7.19024361,4.57477118 7.02681946,4.52361634 6.8586278,4.50645569 L6.73174794,4.5 L4.5,4.5 C3.4456382,4.5 2.58183488,5.31587779 2.50548574,6.35073766 L2.5,6.5 L2.5,16.75 C2.5,17.940864 3.42516159,18.9156449 4.59595119,18.9948092 L4.75,19 L11.25,19 C11.6642136,19 12,19.3357864 12,19.75 C12,20.1296958 11.7178461,20.443491 11.3517706,20.4931534 L11.25,20.5 L4.75,20.5 C2.74574083,20.5 1.10872626,18.9276389 1.00519801,16.9491586 L1,16.75 L1,6.5 C1,4.6314366 2.4642776,3.10487355 4.3079648,3.00517886 L4.5,3 L6.73174794,3 Z M17.3712673,13.4998777 L17.2665371,13.5017157 L17.1130413,13.5138748 C16.2381401,13.6139336 15.5206012,14.2453918 15.3209505,15.0690507 L15.3209505,15.0690507 L15.289673,15.2256563 L15.2778891,15.3102283 C15.2325837,15.6353792 14.9810755,15.8932755 14.6571631,15.9467205 L14.6571631,15.9467205 L14.614262,15.953665 C13.9712228,16.0722098 13.5,16.6263254 13.5,17.2735653 C13.5,17.9860776 14.0688911,18.5772727 14.7828522,18.61419 L14.7828522,18.61419 L14.8370136,18.6164473 L19.8339596,18.6166381 C20.7940747,18.6166381 21.5679497,17.85356 21.5681154,16.9319077 L21.5681154,16.9319077 L21.5664345,16.8440387 C21.5304852,15.9908461 20.8501664,15.2929268 19.993219,15.2224398 L19.993219,15.2224398 L19.9297525,15.2181181 C19.6494095,15.1990287 19.4032546,15.024836 19.2919978,14.7668079 L19.2919978,14.7668079 L19.2686258,14.7121055 C18.9323765,13.9789709 18.1864747,13.5 17.3712673,13.4998777 L17.3712673,13.4998777 Z M7.5,10 C7.91421356,10 8.25,10.3357864 8.25,10.75 L8.25,10.75 L8.25,13.933 L9.47853539,12.7045652 L9.56265382,12.6319471 C9.85626531,12.4140926 10.272929,12.4382986 10.5391956,12.7045652 C10.8320888,12.9974584 10.8320888,13.4723322 10.5391956,13.7652254 L10.5391956,13.7652254 L8.064,16.241 L8.03033009,16.2803301 C7.73743687,16.5732233 7.26256313,16.5732233 6.96966991,16.2803301 L6.96966991,16.2803301 L4.46966991,13.7803301 L4.39705176,13.6962117 C4.1791973,13.4026002 4.20340335,12.9859365 4.46966991,12.7196699 C4.76256313,12.4267767 5.23743687,12.4267767 5.53033009,12.7196699 L5.53033009,12.7196699 L6.75,13.94 L6.75,10.75 L6.75684662,10.6482294 C6.80650904,10.2821539 7.12030423,10 7.5,10 Z M18.25,3.25 C18.6642136,3.25 19,3.58578644 19,4 C19,4.37969577 18.7178461,4.69349096 18.3517706,4.74315338 L18.25,4.75 L12.25,4.75 C11.8357864,4.75 11.5,4.41421356 11.5,4 C11.5,3.62030423 11.7821539,3.30650904 12.1482294,3.25684662 L12.25,3.25 L18.25,3.25 Z" id="形状结合"></path>
        </g>
    </g>
</svg>