<?xml version="1.0" encoding="UTF-8"?>
<svg viewBox="0 0 24 24" version="1.1" xmlns="http://www.w3.org/2000/svg" xmlns:xlink="http://www.w3.org/1999/xlink">
    <g id="基础组件" stroke="none" stroke-width="1">
        <g id="编组">
            <path d="M12,2 C14.2170341,2 16.3258236,2.72418837 18.0532894,4.03924114 C18.3828702,4.29013825 18.446656,4.76070858 18.1957589,5.0902894 C17.9448618,5.41987022 17.4742914,5.48365597 17.1447106,5.23275886 C15.6761624,4.11481002 13.8858755,3.5 12,3.5 C7.30585564,3.5 3.5,7.30557146 3.5,12 C3.5,16.6937864 7.30621356,20.5 12,20.5 C16.6944285,20.5 20.5,16.6941444 20.5,12 C20.5,10.1146074 19.8858507,8.32533664 18.7681003,6.85610438 C18.5173054,6.52644579 18.581237,6.05589525 18.9108956,5.80510033 C19.2405542,5.55430541 19.7111047,5.61823704 19.9618997,5.94789562 C21.2765776,7.67598035 22,9.78360864 22,12 C22,17.5225464 17.5228807,22 12,22 C6.47778644,22 2,17.5222136 2,12 C2,6.47711926 6.47745359,2 12,2 Z" id="形状结合"></path>
            <g id="编组-19" transform="translate(11.854727, 12.244579) rotate(3.000000) translate(-11.854727, -12.244579) translate(7.854727, 4.744579)">
                <path d="M3.65428063,0.0984233011 C4.08701787,0.075744503 4.46109395,0.380847413 4.53540749,0.796643377 L4.5476013,0.902772843 L4.56627697,1.2570416 C5.52954168,1.42243929 6.35381275,1.95959721 6.91282535,2.72184017 C7.17411673,3.07812464 7.0971096,3.57876878 6.74082513,3.84006015 C6.41423104,4.07957724 5.96633472,4.03482962 5.69269246,3.75127861 L5.62260515,3.66805993 C5.24005968,3.14643914 4.61854719,2.8 3.89483604,2.8 C2.72288187,2.8 1.74601002,3.61980982 1.8,4.65 C1.85398998,5.68019018 2.833976,6.40645048 4.01704964,6.48004247 L4.17921892,6.48509612 C4.231075,6.48509612 4.28177872,6.49002997 4.33088625,6.49945383 L4.27525062,6.5 C6.28206648,6.5 7.9322357,8.03061648 7.9322357,9.95 C7.9322357,11.5662596 6.7627609,12.9109676 5.19792765,13.2920017 L5.1983481,13.3197616 C5.2229168,13.7885603 4.86279724,14.1885136 4.39399856,14.2130823 C3.96126132,14.2357611 3.58718524,13.9306582 3.5128717,13.5148622 L3.50067789,13.4087327 L3.49635096,13.3395882 C2.63199042,13.2079203 1.82537584,12.8703975 1.04565663,12.3172137 C0.685306858,12.061558 0.600435553,11.5621868 0.856091267,11.2018371 C1.11174698,10.8414873 1.6111181,10.756616 1.97146787,11.0122717 C2.71961499,11.5430562 3.46980756,11.7956113 4.27959488,11.8000581 C5.42239809,11.806264 6.3322357,10.9604433 6.3322357,9.95 C6.3322357,8.98808006 5.5048483,8.17691224 4.43036631,8.10515715 L4.27525062,8.1 C4.22214632,8.1 4.17025052,8.09482578 4.12003988,8.08495398 L4.17921892,8.08509612 C2.11518262,8.08509612 0.127172735,6.71976112 0.200000001,4.65 C0.255622167,3.06921021 1.33390818,1.7494606 2.86667505,1.33552476 L2.84993109,0.991743968 C2.82536239,0.522945285 3.18548195,0.122991999 3.65428063,0.0984233011 Z" id="路径"></path>
            </g>
        </g>
    </g>
</svg>