<svg viewBox="0 0 24 24" xmlns="http://www.w3.org/2000/svg"
	xmlns:xlink="http://www.w3.org/1999/xlink">
	<defs />
	<g opacity="0.000000" />
	<path id="矢量 178"
		d="M12 1.25C14.3112 1.25 16.5139 1.98203 18.3405 3.31812C18.6749 3.56268 18.7476 4.03195 18.5031 4.36627C18.2585 4.70059 17.7893 4.77335 17.455 4.52881C15.8832 3.37915 13.9901 2.75 12 2.75C6.89136 2.75 2.75 6.89136 2.75 12C2.75 17.1086 6.89136 21.25 12 21.25C17.1086 21.25 21.25 17.1086 21.25 12C21.25 10.0093 20.6205 8.11557 19.4701 6.54361C19.2255 6.20932 19.2982 5.74005 19.6325 5.49542C19.9667 5.25082 20.436 5.32352 20.6806 5.65778C22.0175 7.48468 22.75 9.68808 22.75 12C22.75 17.9371 17.9371 22.75 12 22.75C6.06293 22.75 1.25 17.9371 1.25 12C1.25 6.06293 6.06293 1.25 12 1.25ZM12.7432 5.89822C12.6935 5.53217 12.3797 5.25 12 5.25C11.5858 5.25 11.25 5.58578 11.25 6L11.2501 6.79263C9.59378 7.01443 8.38846 8.07944 8.26083 9.4664C8.10846 11.1222 9.45468 12.3892 11.9254 12.7462L12.1466 12.7811C13.724 13.0531 14.3143 13.6621 14.2446 14.3987C14.1758 15.1262 13.3569 15.75 12.1 15.75C11.0571 15.75 10.4355 15.4727 10.0862 15.0184C9.86032 14.7247 9.76422 14.3817 9.74963 14.0617C9.73074 13.6479 9.38 13.3278 8.96625 13.3466C8.55243 13.3655 8.2323 13.7162 8.25116 14.13C8.2785 14.7298 8.45425 15.3569 8.89709 15.9328C9.41351 16.6044 10.1972 17.043 11.2498 17.1927L11.25 18L11.2568 18.1018C11.3065 18.4678 11.6203 18.75 12 18.75C12.4142 18.75 12.75 18.4142 12.75 18L12.7505 17.2072C14.4034 16.9854 15.607 15.9239 15.738 14.54C15.8956 12.8742 14.6031 11.6174 12.1399 11.2616L11.9165 11.2262C10.3225 10.9504 9.6886 10.32 9.75452 9.60385C9.82153 8.87543 10.6408 8.25 11.8994 8.25C12.9423 8.25 13.5639 8.52734 13.9132 8.98157C14.1391 9.27527 14.2352 9.61829 14.2498 9.93829C14.2686 10.3521 14.6193 10.6722 15.0331 10.6534C15.4469 10.6345 15.7671 10.2838 15.7482 9.87003C15.7209 9.27026 15.5451 8.64307 15.1023 8.06717C14.5862 7.396 13.8031 6.95746 12.7514 6.8075L12.75 6L12.7432 5.89822Z"
		fill-rule="evenodd" />
</svg>