<svg viewBox="0 0 24 24" xmlns="http://www.w3.org/2000/svg"
	xmlns:xlink="http://www.w3.org/1999/xlink">
	<defs />
	<g opacity="0.000000" />
	<path id="矢量 108"
		d="M15.5 1.25C19.5041 1.25 22.75 4.49594 22.75 8.5C22.75 12.5041 19.5041 15.75 15.5 15.75C14.7782 15.75 14.0703 15.6443 13.3937 15.4391L12.4842 16.8173C12.329 17.0524 12.0573 17.1783 11.7826 17.1504L11.6797 17.1326L10.814 16.92L10.8637 17.1144C10.8809 17.1817 10.8924 17.2502 10.8982 17.3194L10.9025 17.4233C10.9025 18.0787 10.3999 18.6123 9.7619 18.6765L9.63263 18.6829L8.448 18.682L8.44901 20.0631C8.44901 20.6239 8.07721 21.1085 7.49524 21.276L7.35727 21.3089L3.07623 21.7461C2.62128 21.7926 2.23947 21.4269 2.25003 20.984L2.79822 17.3114C2.81778 17.1818 2.87088 17.0601 2.95148 16.9582L8.79657 11.2661C8.43787 10.3978 8.25 9.46179 8.25 8.5C8.25 4.49594 11.496 1.25 15.5 1.25ZM9.75 8.5C9.75 5.32437 12.3244 2.75 15.5 2.75C18.6757 2.75 21.25 5.32437 21.25 8.5C21.25 11.6756 18.6757 14.25 15.5 14.25C14.7595 14.25 14.0396 14.1104 13.3678 13.8419L13.21 13.7979L13.0063 13.793L12.791 13.8503L12.6199 13.9534L12.478 14.1039L11.523 15.55L10.7977 15.3721L10.6463 15.3445C10.4937 15.3261 10.3386 15.3354 10.1885 15.3721L10.0641 15.4093C9.45776 15.6245 9.09943 16.2664 9.26202 16.9039L9.33301 17.182L8.2189 17.1829L8.0896 17.1894C7.45163 17.2535 6.94901 17.7871 6.94901 18.4425L6.948 19.845L3.88501 20.156L4.24301 17.785L10.0786 12.1145C10.4288 11.9184 10.5638 11.4785 10.3792 11.1183C9.96759 10.3151 9.75 9.42395 9.75 8.5ZM15.5 5.25C17.2949 5.25 18.75 6.70508 18.75 8.5C18.75 10.2949 17.2949 11.75 15.5 11.75C13.7051 11.75 12.25 10.2949 12.25 8.5C12.25 6.70508 13.7051 5.25 15.5 5.25ZM13.75 8.5C13.75 7.53351 14.5335 6.75 15.5 6.75C16.4665 6.75 17.25 7.53351 17.25 8.5C17.25 9.46649 16.4665 10.25 15.5 10.25C14.5335 10.25 13.75 9.46649 13.75 8.5Z"
		fill-rule="evenodd" />
</svg>