<?xml version="1.0" encoding="UTF-8"?>
<svg viewBox="0 0 24 24" version="1.1" xmlns="http://www.w3.org/2000/svg" xmlns:xlink="http://www.w3.org/1999/xlink">
    <g id="页面-1" stroke="none" stroke-width="1">
        <g id="画板" transform="translate(-319.000000, -715.000000)">
            <g id="编组" transform="translate(319.000000, 715.000000)">
                <path d="M14.75,2.5 C18.4772136,2.5 21.5,5.52278644 21.5,9.25 C21.5,12.9785615 18.4778658,16 14.75,16 C13.7835732,16 12.844117,15.7929722 11.9746051,15.3992092 C11.5972791,15.2283351 11.4299167,14.7839312 11.6007908,14.4066051 C11.7716649,14.0292791 12.2160688,13.8619167 12.5933949,14.0327908 C13.2704531,14.3394001 13.9992274,14.5 14.75,14.5 C17.6495159,14.5 20,12.1500571 20,9.25 C20,6.35121356 17.6487864,4 14.75,4 C11.8499429,4 9.5,6.35048406 9.5,9.25 C9.5,10.0007726 9.66059985,10.7295469 9.9672092,11.4066051 C10.0799187,11.6554916 10.0473833,11.9426963 9.88957418,12.1585229 L9.81433009,12.2463301 L3.9995,18.0596 L3.9995,19.9996 L6.4995,19.9996 L6.5,18.75 C6.5,18.3703042 6.78215388,18.056509 7.14822944,18.0068466 L7.25,18 L8.4995,17.9996 L8.5,16.75 C8.5,16.3703042 8.78215388,16.056509 9.14822944,16.0068466 L9.25,16 L10.25,16 C10.6642136,16 11,16.3357864 11,16.75 C11,17.1296958 10.7178461,17.443491 10.3517706,17.4931534 L10.25,17.5 L9.9995,17.4996 L10,18.75 C10,19.1296958 9.71784612,19.443491 9.35177056,19.4931534 L9.25,19.5 L7.9995,19.4996 L8,20.75 C8,21.1296958 7.71784612,21.443491 7.35177056,21.4931534 L7.25,21.5 L3.25,21.5 C2.87030423,21.5 2.55650904,21.2178461 2.50684662,20.8517706 L2.5,20.75 L2.5,17.75 C2.5,17.5908701 2.55057128,17.4369542 2.64281377,17.3097391 L2.71966991,17.2196699 L8.4025,11.5366 L8.36616929,11.4358298 C8.15965764,10.8368457 8.03814362,10.2110196 8.00763986,9.57108441 L8,9.25 C8,5.52213424 11.0214385,2.5 14.75,2.5 Z M16.2498,6.5001 C16.9390136,6.5001 17.4998,7.06088644 17.4998,7.7501 C17.4998,8.44020065 16.9391273,9.0001 16.2498,9.0001 C15.5595864,9.0001 14.9998,8.44031356 14.9998,7.7501 C14.9998,7.06077269 15.5596994,6.5001 16.2498,6.5001 Z M16.2498,7.5001 C16.1111633,7.5001 15.9998,7.6113097 15.9998,7.7501 C15.9998,7.88931356 16.1105864,8.0001 16.2498,8.0001 C16.3885903,8.0001 16.4998,7.8887367 16.4998,7.7501 C16.4998,7.61188644 16.3880136,7.5001 16.2498,7.5001 Z" id="形状结合"></path>
            </g>
        </g>
    </g>
</svg>