<svg viewBox="0 0 24 24" xmlns="http://www.w3.org/2000/svg"
	xmlns:xlink="http://www.w3.org/1999/xlink">
	<defs />
	<path id="路径"
		d="M12 1.25C17.9371 1.25 22.75 6.06293 22.75 12C22.75 12.5714 22.1445 12.9199 21.6588 12.6683L21.5694 12.614L18.5259 10.4797C18.1868 10.2418 18.1046 9.77411 18.3425 9.43497C18.5587 9.12668 18.9649 9.03079 19.2917 9.19458L19.3871 9.25156L21.123 10.469L21.116 10.4226C20.3821 6.15082 16.7186 2.8804 12.2679 2.75381L12 2.75C6.89136 2.75 2.75 6.89136 2.75 12C2.75 17.1086 6.89136 21.25 12 21.25C14.5865 21.25 17.0008 20.184 18.7386 18.3368C19.0224 18.0351 19.4971 18.0206 19.7988 18.3044C20.1005 18.5882 20.1149 19.0629 19.8311 19.3646C17.8127 21.51 15.0046 22.75 12 22.75C6.06293 22.75 1.25 17.9371 1.25 12C1.25 6.06293 6.06293 1.25 12 1.25Z"
		fill-rule="evenodd" />
</svg>