<svg viewBox="0 0 24 24" xmlns="http://www.w3.org/2000/svg"
	xmlns:xlink="http://www.w3.org/1999/xlink">
	<defs>
		<clipPath id="clip309_1923">
			<rect id="ConnectSquare" width="24" height="24" fill="white" />
		</clipPath>
	</defs>
	<g clip-path="url(#clip309_1923)">
		<g opacity="0.000000" />
		<path id="矢量 245"
			d="M16.17 11.9959L16.17 12.8745C16.17 13.1161 16.1447 13.3523 16.0941 13.5829C16.0512 13.7784 15.9901 13.97 15.9107 14.1575C15.8313 14.3453 15.7363 14.5229 15.6258 14.6902C15.5042 14.8741 15.3639 15.0457 15.2048 15.2048C15.0457 15.3639 14.8742 15.5042 14.6902 15.6257C14.5229 15.7363 14.3454 15.8313 14.1575 15.9108C13.9699 15.9901 13.7784 16.0512 13.5829 16.0941C13.3523 16.1447 13.1162 16.17 12.8745 16.17L9.36841 16.17L9.36841 18.7045C9.36841 18.8422 9.38373 18.9764 9.41431 19.1069C9.43674 19.2026 9.46735 19.2963 9.5062 19.3882C9.54669 19.4839 9.59482 19.5747 9.65057 19.6605C9.71716 19.7631 9.79468 19.8585 9.88306 19.9469C9.97144 20.0353 10.0669 20.1128 10.1694 20.1794C10.2552 20.2351 10.346 20.2833 10.4418 20.3238C10.5336 20.3626 10.6274 20.3932 10.7231 20.4156C10.8536 20.4462 10.9878 20.4615 11.1255 20.4615L18.7044 20.4615C18.8422 20.4615 18.9763 20.4462 19.1069 20.4156C19.2026 20.3932 19.2963 20.3626 19.3882 20.3238C19.4839 20.2833 19.5747 20.2351 19.6606 20.1793C19.7631 20.1127 19.8585 20.0353 19.9469 19.9469C20.0352 19.8585 20.1127 19.7631 20.1793 19.6606C20.2351 19.5748 20.2833 19.4839 20.3238 19.3882C20.3626 19.2963 20.3932 19.2026 20.4156 19.1069C20.4462 18.9763 20.4615 18.8422 20.4615 18.7045L20.4615 11.1255C20.4615 10.9878 20.4463 10.8536 20.4156 10.7231C20.3932 10.6274 20.3626 10.5336 20.3238 10.4418C20.2833 10.3461 20.2351 10.2552 20.1794 10.1694C20.1128 10.0669 20.0353 9.97144 19.9469 9.88306C19.8585 9.79468 19.7631 9.71716 19.6605 9.65057C19.5747 9.59485 19.4839 9.54669 19.3882 9.50616C19.2963 9.46735 19.2026 9.43671 19.1069 9.41431C18.9763 9.38373 18.8422 9.36841 18.7044 9.36841L11.1255 9.36841C10.9878 9.36841 10.8536 9.38373 10.723 9.41431C10.6274 9.43671 10.5336 9.46735 10.4418 9.50616C10.3461 9.54669 10.2552 9.59479 10.1694 9.65057C10.0669 9.71716 9.97144 9.79468 9.88306 9.88306C9.79468 9.97144 9.71716 10.0669 9.65057 10.1694C9.59482 10.2552 9.54669 10.3461 9.5062 10.4418C9.46735 10.5336 9.43671 10.6274 9.41431 10.723C9.3837 10.8536 9.36841 10.9878 9.36841 11.1255L9.36841 11.9788C9.36841 12.4096 9.02994 12.748 8.59918 12.748C8.16843 12.748 7.82996 12.4096 7.82996 11.9788L7.82996 11.1255C7.82996 10.8838 7.85526 10.6477 7.90588 10.4171C7.94879 10.2216 8.00992 10.03 8.08923 9.84247C8.1687 9.65466 8.2637 9.47705 8.37424 9.30975C8.49579 9.12579 8.63608 8.95428 8.7952 8.79523C8.95428 8.63611 9.12579 8.49579 9.30975 8.37427C9.47705 8.26373 9.65463 8.1687 9.8425 8.08923C10.03 8.00995 10.2216 7.94879 10.4171 7.90588C10.6477 7.85529 10.8838 7.82996 11.1255 7.82996L14.6316 7.82996L14.6316 5.29553C14.6316 5.15778 14.6163 5.02362 14.5857 4.89307C14.5633 4.79742 14.5327 4.70367 14.4938 4.61182C14.4533 4.51611 14.4052 4.42529 14.3494 4.33948C14.2828 4.23694 14.2053 4.14148 14.1169 4.0531C14.0286 3.96472 13.9331 3.88727 13.8306 3.82062C13.7448 3.76489 13.6539 3.71674 13.5582 3.67621C13.4664 3.63739 13.3726 3.60675 13.2769 3.58435C13.1464 3.55377 13.0122 3.53845 12.8745 3.53845L5.29553 3.53845C5.15781 3.53845 5.02365 3.55377 4.8931 3.58435C4.79742 3.60675 4.70367 3.63739 4.61185 3.67621C4.51608 3.71674 4.42529 3.76483 4.33945 3.82062C4.23694 3.88721 4.14148 3.96472 4.0531 4.0531C3.96472 4.14148 3.88724 4.23694 3.82062 4.33948C3.76486 4.42529 3.71674 4.51611 3.67624 4.61182C3.63739 4.70367 3.60675 4.79742 3.58435 4.89307C3.55377 5.02368 3.53845 5.15784 3.53845 5.29553L3.53845 12.8745C3.53845 13.0122 3.55374 13.1464 3.58435 13.2769C3.60675 13.3726 3.63739 13.4664 3.67624 13.5582C3.71671 13.6539 3.76483 13.7447 3.82056 13.8304C3.88715 13.933 3.96472 14.0286 4.0531 14.1169C4.14148 14.2053 4.23694 14.2828 4.33948 14.3494C4.42529 14.4052 4.51611 14.4533 4.61185 14.4938C4.70367 14.5327 4.79739 14.5633 4.8931 14.5857C5.02365 14.6163 5.15781 14.6316 5.29553 14.6316L12.8745 14.6316C13.0122 14.6316 13.1464 14.6163 13.277 14.5857C13.3726 14.5633 13.4664 14.5327 13.5582 14.4938C13.6539 14.4533 13.7447 14.4052 13.8306 14.3494C13.9331 14.2828 14.0286 14.2053 14.1169 14.1169C14.2053 14.0286 14.2828 13.9331 14.3494 13.8306C14.4052 13.7448 14.4533 13.6539 14.4938 13.5582C14.5327 13.4664 14.5633 13.3726 14.5857 13.2769C14.6163 13.1464 14.6316 13.0122 14.6316 12.8745L14.6316 11.9959C14.6316 11.5651 14.9701 11.2267 15.4008 11.2267C15.8316 11.2267 16.17 11.5651 16.17 11.9959ZM16.17 7.82996L16.17 7.55707L16.17 5.29553C16.17 5.05389 16.1447 4.81775 16.0941 4.58722C16.0512 4.39166 15.9901 4.20007 15.9107 4.01251C15.8313 3.82471 15.7363 3.64709 15.6258 3.4798C15.5042 3.2959 15.3639 3.12433 15.2048 2.96521C15.0457 2.80621 14.8743 2.66589 14.6904 2.54443C14.5231 2.43384 14.3454 2.33875 14.1575 2.25928C13.97 2.17999 13.7784 2.11884 13.5829 2.07593C13.3523 2.02533 13.1162 2 12.8745 2L5.29553 2C5.05386 2 4.81772 2.02533 4.58716 2.07593C4.39163 2.11884 4.20007 2.17999 4.01254 2.25928C3.82468 2.33875 3.64709 2.43378 3.47977 2.54431C3.29587 2.66583 3.12436 2.80615 2.96524 2.96521C2.80615 3.12433 2.66583 3.29584 2.54428 3.4798C2.43375 3.64709 2.33875 3.82471 2.25928 4.01251C2.17996 4.20007 2.11887 4.3916 2.07593 4.58716C2.0253 4.81769 2 5.05383 2 5.29553L2 12.8745C2 13.1161 2.0253 13.3523 2.07593 13.5829C2.11884 13.7784 2.17996 13.97 2.25928 14.1575C2.33875 14.3453 2.43375 14.5229 2.54431 14.6902C2.66583 14.8742 2.80615 15.0457 2.96524 15.2048C3.12436 15.3639 3.29587 15.5042 3.4798 15.6257C3.64713 15.7363 3.82468 15.8313 4.01254 15.9108C4.20007 15.9901 4.39163 16.0512 4.58719 16.0941C4.81775 16.1447 5.05389 16.17 5.29553 16.17L7.82996 16.17L7.82996 18.7045C7.82996 18.9462 7.85526 19.1823 7.90588 19.4128C7.94879 19.6084 8.00992 19.7999 8.08923 19.9875C8.1687 20.1754 8.26373 20.353 8.3743 20.5203C8.49582 20.7042 8.63611 20.8757 8.7952 21.0348C8.95428 21.1938 9.12579 21.3342 9.30972 21.4557C9.47702 21.5662 9.65463 21.6613 9.8425 21.7407C10.03 21.82 10.2216 21.8812 10.4171 21.9241C10.6477 21.9747 10.8838 22 11.1255 22L18.7044 22C18.9461 22 19.1823 21.9747 19.4128 21.9241C19.6084 21.8812 19.7999 21.82 19.9875 21.7407C20.1753 21.6613 20.3529 21.5662 20.5203 21.4557C20.7042 21.3341 20.8757 21.1938 21.0348 21.0348C21.1938 20.8757 21.3341 20.7042 21.4557 20.5203C21.5662 20.353 21.6612 20.1754 21.7407 19.9875C21.82 19.7999 21.8812 19.6083 21.9241 19.4128C21.9747 19.1823 22 18.9461 22 18.7045L22 11.1255C22 10.8838 21.9747 10.6477 21.9241 10.4171C21.8811 10.2216 21.82 10.03 21.7407 9.84247C21.6612 9.6546 21.5662 9.47705 21.4557 9.30975C21.3341 9.12579 21.1938 8.95428 21.0348 8.79523C20.8757 8.63611 20.7042 8.49585 20.5203 8.37433C20.353 8.26373 20.1753 8.1687 19.9875 8.08923C19.7999 8.00995 19.6084 7.94879 19.4128 7.90588C19.1823 7.85529 18.9461 7.82996 18.7044 7.82996L16.17 7.82996Z"
			fill-rule="evenodd" />
	</g>
</svg>