<svg viewBox="0 0 24 24" xmlns="http://www.w3.org/2000/svg"
	xmlns:xlink="http://www.w3.org/1999/xlink">
	<defs />
	<g opacity="0.000000" />
	<path id="矢量 115"
		d="M20.7455 7.27829C20.6313 4.48462 18.3692 2.25 15.5882 2.25L9.41176 2.25L9.11993 2.25827C8.44196 2.29678 7.78612 2.4693 7.18225 2.76379C6.80995 2.94537 6.65533 3.39438 6.83691 3.76666C7.01848 4.13898 7.46747 4.29358 7.83977 4.112C8.32637 3.87469 8.85971 3.75 9.41176 3.75L15.5882 3.75L15.7824 3.75519C17.7115 3.85852 19.25 5.49255 19.25 7.49997L19.25 16.5L19.2416 16.7567C19.2136 17.1818 19.1162 17.5934 18.9544 17.979C18.7941 18.3609 18.9738 18.8005 19.3558 18.9608C19.7377 19.121 20.1773 18.9413 20.3376 18.5594C20.6085 17.9136 20.75 17.2162 20.75 16.5L20.75 7.49997L20.7455 7.27829ZM9.875 21.75C9.67918 21.75 9.49112 21.6734 9.35101 21.5366L3.47601 15.7997C3.4348 15.7595 3.39871 15.715 3.36818 15.6672L3.28882 15.5015C3.26575 15.4304 3.25044 15.3441 3.25002 15.2718L3.25 8.36841C3.25 6.64127 4.68184 5.25 6.4375 5.25L14.5625 5.25C16.3182 5.25 17.75 6.64127 17.75 8.36841L17.75 18.6316C17.75 20.3587 16.3182 21.75 14.5625 21.75L9.875 21.75ZM6.4375 6.75L14.5625 6.75C15.4992 6.75 16.25 7.47949 16.25 8.36841L16.25 18.6316C16.25 19.5205 15.4992 20.25 14.5625 20.25L10.695 20.249L10.6954 17.595L10.6902 17.4138C10.5964 15.7952 9.2541 14.5116 7.61205 14.5116L4.75 14.511L4.75 8.36841C4.75 7.52628 5.42383 6.82724 6.29123 6.75598L6.4375 6.75ZM7.61205 16.0116L5.85938 16.0126L9.19539 19.2326L9.19539 17.5949C9.19539 16.7691 8.56308 16.0909 7.75616 16.0181L7.61205 16.0116Z"
		fill-rule="evenodd" />
</svg>