<?xml version="1.0" encoding="UTF-8"?>
<svg viewBox="0 0 24 24" version="1.1" xmlns="http://www.w3.org/2000/svg" xmlns:xlink="http://www.w3.org/1999/xlink">
    <g id="页面-1" stroke="none" stroke-width="1">
        <g id="画板" transform="translate(-789.000000, -709.000000)">
            <g id="编组" transform="translate(789.000000, 709.000000)">
                <path d="M17.3017049,2 C18.8727686,2 20.1569911,3.24929814 20.2467174,4.82458225 L20.2517252,5.00090842 L20.2517252,17.0676874 C20.2517252,17.6960046 20.0469048,18.3065856 19.6693307,18.8038375 C19.4203424,19.1317465 18.9571824,19.1922425 18.6348339,18.9389591 C18.3417899,18.7087014 18.2660007,18.2983891 18.4417113,17.979327 L18.5020037,17.8866171 C18.6504196,17.6911586 18.7422474,17.4585775 18.7687341,17.2149679 L18.7767151,17.0676874 L18.7767151,5.00090842 C18.7767151,4.2209762 18.1917378,3.58002962 17.4437583,3.50732287 L17.3017049,3.50045421 L11.4978246,3.50045421 C10.7671424,3.50045421 10.1605515,4.04091661 10.0432972,4.75029536 L14.2536999,4.75782682 C15.9084332,4.76082009 17.2482748,6.10349326 17.2482748,7.75873033 L17.2482748,19.0017481 C17.2463155,20.659989 15.9015841,22.0019535 14.2447311,21.9999979 L6.74473105,21.9911337 C5.08926171,21.9891776 3.7482748,20.6461991 3.7482748,18.9902273 L3.7482748,10.8828437 C3.7482748,10.1501447 4.0162538,9.44276056 4.50168415,8.89406902 L7.27317131,5.76140218 C7.62169995,5.36745335 8.06332078,5.07659875 8.55048431,4.91020753 L8.54780428,5.00090842 C8.54780428,3.40274375 9.77591735,2.09636829 11.3244885,2.00509424 L11.4978246,2 L17.3017049,2 Z M10.0112748,6.25 L10.0122217,8.69924768 L10.0067977,8.86696165 C9.92046118,10.1975346 8.8142148,11.2500198 7.46222173,11.2500198 L7.46222173,11.2500198 L5.2482748,11.25 L5.2482748,18.9902273 C5.2482748,19.8182132 5.91876825,20.4897024 6.74650292,20.4906805 L14.2465029,20.4995436 C15.0749295,20.5005214 15.7472952,19.8295392 15.7482748,19.0008618 L15.7482748,7.75873023 C15.7482748,6.93111179 15.078354,6.25977521 14.2509873,6.25827858 L10.0112748,6.25 Z M8.39646664,6.75578952 L5.7472748,9.749 L7.46222173,9.74956563 L7.5766308,9.7434025 C8.10271152,9.68637837 8.51222173,9.24065062 8.51222173,8.69924768 L8.51222173,8.69924768 L8.51199631,6.63879093 C8.47158639,6.67545886 8.43300346,6.71449122 8.39646664,6.75578952 Z" id="形状结合"></path>
            </g>
        </g>
    </g>
</svg>