<svg viewBox="0 0 24 24" xmlns="http://www.w3.org/2000/svg"
	xmlns:xlink="http://www.w3.org/1999/xlink">
	<defs />
	<g opacity="0.000000" />
	<path id="矢量 116"
		d="M18.6 3C20.3537 3 21.75 4.51266 21.75 6.35001L21.75 14.15C21.75 15.9873 20.3537 17.5 18.6 17.5L12.75 17.5L12.75 19.5L18.5 19.5C18.9142 19.5 19.25 19.8358 19.25 20.25C19.25 20.6297 18.9678 20.9435 18.6018 20.9932L18.5 21L5.5 21C5.08578 21 4.75 20.6642 4.75 20.25C4.75 19.8703 5.03215 19.5565 5.39822 19.5068L5.5 19.5L11.25 19.5L11.25 17.5L5.39999 17.5C3.6463 17.5 2.25 15.9873 2.25 14.15L2.25 6.35001C2.25 4.51266 3.6463 3 5.39999 3L18.6 3ZM5.39999 4.5L18.6 4.5C19.4973 4.5 20.25 5.31546 20.25 6.35001L20.25 14.15C20.25 15.1845 19.4973 16 18.6 16L5.39999 16C4.50273 16 3.75 15.1845 3.75 14.15L3.75 6.35001C3.75 5.31546 4.50273 4.5 5.39999 4.5ZM10.6806 6.49979C10.9422 6.49979 11.198 6.57382 11.4206 6.71277L15.0597 8.98459C15.7255 9.40024 15.9429 10.2841 15.5659 10.9756C15.4455 11.1965 15.2716 11.3826 15.0597 11.5149L11.4206 13.7867C10.7246 14.2212 9.82742 13.9685 9.43437 13.2474C9.31339 13.0254 9.25021 12.7754 9.25021 12.5215L9.25021 7.97794C9.25021 7.17252 9.87881 6.49979 10.6806 6.49979ZM10.7502 12.4368L10.7502 8.0618L14.2542 10.2488L10.7502 12.4368Z"
		fill-rule="evenodd" />
</svg>