<?xml version="1.0" encoding="UTF-8"?>
<svg viewBox="0 0 24 24" version="1.1" xmlns="http://www.w3.org/2000/svg" xmlns:xlink="http://www.w3.org/1999/xlink">
    <g id="S12组件" stroke="none" stroke-width="1">
        <g id="Course" >
            <g id="编组">
                <rect id="矩形" opacity="0" x="0" y="0" width="24" height="24"></rect>
                <path d="M12,17.5233333 C12.6981576,17.5233333 13.3008273,17.932165 13.5816629,18.523482 L20,18.5233333 C20.4142132,18.5233333 20.75,18.8591197 20.75,19.2733333 C20.75,19.6530291 20.4678459,19.9668243 20.1017704,20.0164866 L20,20.0233333 L13.5811884,20.0241827 C13.300149,20.6149616 12.6977647,21.0233333 12,21.0233333 C11.3022354,21.0233333 10.6998511,20.6149616 10.4188116,20.0241827 L4,20.0233333 C3.58578643,20.0233333 3.25,19.6875468 3.25,19.2733333 C3.25,18.8936375 3.53215387,18.5798424 3.89822942,18.5301799 L4,18.5233333 L10.4183372,18.523482 C10.6991727,17.932165 11.3018425,17.5233333 12,17.5233333 Z M17.998291,3.0065105 C19.6551456,3.0065105 20.998291,4.34965622 20.998291,6.0065105 C20.998291,6.42072415 20.6625042,6.7565105 20.248291,6.7565105 C19.8685951,6.7565105 19.5548,6.47435665 19.5051384,6.10828114 L19.498291,6.0065105 C19.498291,5.22681427 18.9034033,4.58606184 18.1427507,4.51337707 L17.998291,4.5065105 L5.99829102,4.5065105 C5.21859479,4.5065105 4.57784235,5.10139847 4.50515759,5.86205053 L4.49829102,6.0065105 L4.49829102,13.8065107 C4.49829102,14.5862062 5.09317899,15.226959 5.85383105,15.2996442 L5.99829102,15.3065107 L17.998291,15.3065107 C18.7779875,15.3065107 19.4187393,14.711622 19.4914246,13.9509704 L19.498291,13.8065107 L19.498291,8.56666684 C19.498291,8.15245318 19.8340778,7.81666684 20.248291,7.81666684 C20.6279869,7.81666684 20.941782,8.09882045 20.9914436,8.46489596 L20.998291,8.56666684 L20.998291,13.8065107 C20.998291,15.4041917 19.7493706,16.7101715 18.1745634,16.8014181 L17.998291,16.8065107 L5.99829102,16.8065107 C4.40061009,16.8065107 3.09463014,15.5575902 3.00338371,13.9827831 L2.99829102,13.8065107 L2.99829102,6.0065105 C2.99829102,4.40882957 4.24721098,3.10284962 5.82201815,3.01160319 L5.99829102,3.0065105 L17.998291,3.0065105 Z M11.0456665,6.58616674 L14.7326665,8.71516681 C15.1256666,8.94116664 15.3596663,9.34716678 15.3596663,9.80016685 C15.3596663,10.2531667 15.1256666,10.660167 14.7326665,10.8851669 L11.0456665,13.0141666 C10.9149998,13.0895002 10.7063332,13.1461669 10.4196665,13.1841667 C10.2046665,13.1841667 9.98866653,13.127167 9.79266649,13.0141666 C9.40066651,12.7871668 9.16666651,12.3821666 9.16666651,11.9291666 L9.16666651,7.67116678 C9.16666651,7.21816677 9.40066651,6.81316674 9.79266649,6.58616674 C10.1856666,6.36016675 10.6536665,6.36016675 11.0456665,6.58616674 Z M10.6666665,8.09916675 L10.6666665,11.5011667 L13.6126666,9.80016673 L10.6666665,8.09916675 Z" id="形状结合"></path>
            </g>
        </g>
    </g>
</svg>