<svg viewBox="0 0 24 24" xmlns="http://www.w3.org/2000/svg"
	xmlns:xlink="http://www.w3.org/1999/xlink">
	<defs />
	<g opacity="0.000000" />
	<path id="矢量 198"
		d="M6.74316 2.89822C6.69348 2.53217 6.3797 2.25 6 2.25C5.58578 2.25 5.25 2.58578 5.25 3L5.25 5.25L3 5.25L2.89822 5.25684C2.53217 5.30652 2.25 5.6203 2.25 6C2.25 6.41422 2.58578 6.75 3 6.75L5.25 6.75L5.25 16.7143L5.25558 16.8662C5.33331 17.9196 6.21252 18.75 7.28571 18.75L15.3214 18.75L15.3214 17.25L7.28571 17.25C7.03116 17.2085 6.75 16.9806 6.75 16.7143L6.75 3L6.74316 2.89822ZM16.7143 5.25C17.7875 5.25 18.6667 6.08044 18.7444 7.13379L18.75 7.28571L18.749 17.25L21 17.25C21.4142 17.25 21.75 17.5858 21.75 18C21.75 18.3797 21.4678 18.6935 21.1018 18.7432L21 18.75L18.749 18.75L18.75 21C18.75 21.4142 18.4142 21.75 18 21.75C17.6203 21.75 17.3065 21.4678 17.2568 21.1018L17.25 21L17.25 7.28571C17.25 7.01944 17.0557 6.79852 16.8012 6.75702L8.67859 6.75L8.67859 5.25L16.7143 5.25Z"
		fill-rule="evenodd" />
</svg>