<svg viewBox="0 0 24 24" xmlns="http://www.w3.org/2000/svg"
	xmlns:xlink="http://www.w3.org/1999/xlink">
	<defs />
	<g opacity="0.000000" />
	<path id="矢量 197"
		d="M18.3405 3.31812C16.5139 1.98203 14.3112 1.25 12 1.25C6.06293 1.25 1.25 6.06293 1.25 12C1.25 17.9371 6.06293 22.75 12 22.75C17.9371 22.75 22.75 17.9371 22.75 12C22.75 9.68808 22.0175 7.48468 20.6806 5.65778C20.436 5.32352 19.9667 5.25082 19.6325 5.49542C19.2982 5.74005 19.2255 6.20932 19.4701 6.54361C20.6205 8.11557 21.25 10.0093 21.25 12C21.25 17.1086 17.1086 21.25 12 21.25C6.89136 21.25 2.75 17.1086 2.75 12C2.75 6.89136 6.89136 2.75 12 2.75C13.9901 2.75 15.8832 3.37915 17.455 4.52881C17.7893 4.77335 18.2585 4.70059 18.5031 4.36627C18.7476 4.03195 18.6749 3.56268 18.3405 3.31812ZM12.7432 6.39822C12.6935 6.03217 12.3797 5.75 12 5.75C11.5858 5.75 11.25 6.08578 11.25 6.5L11.25 13.5L11.2568 13.6018C11.3065 13.9678 11.6203 14.25 12 14.25C12.4142 14.25 12.75 13.9142 12.75 13.5L12.75 6.5L12.7432 6.39822ZM12 15.75C11.3096 15.75 10.75 16.3096 10.75 17C10.75 17.6904 11.3096 18.25 12 18.25C12.6904 18.25 13.25 17.6904 13.25 17C13.25 16.3096 12.6904 15.75 12 15.75Z"
		fill-rule="evenodd" />
</svg>