<?xml version="1.0" encoding="UTF-8"?>
<svg viewBox="0 0 24 24" version="1.1" xmlns="http://www.w3.org/2000/svg" xmlns:xlink="http://www.w3.org/1999/xlink">
    <g id="页面-1" stroke="none" stroke-width="1">
        <g id="画板" transform="translate(-319.000000, -776.000000)">
            <g id="编组" transform="translate(319.000000, 776.000000)">
                <path d="M12,2 C14.2170341,2 16.3258236,2.72418837 18.0532894,4.03924114 C18.3828702,4.29013825 18.446656,4.76070858 18.1957589,5.0902894 C17.9448618,5.41987022 17.4742914,5.48365597 17.1447106,5.23275886 C15.6761624,4.11481002 13.8858755,3.5 12,3.5 C7.30585564,3.5 3.5,7.30557146 3.5,12 C3.5,16.6937864 7.30621356,20.5 12,20.5 C16.6944285,20.5 20.5,16.6941444 20.5,12 C20.5,10.1146074 19.8858507,8.32533664 18.7681003,6.85610438 C18.5173054,6.52644579 18.581237,6.05589525 18.9108956,5.80510033 C19.2405542,5.55430541 19.7111047,5.61823704 19.9618997,5.94789562 C21.2765776,7.67598035 22,9.78360864 22,12 C22,17.5225464 17.5228807,22 12,22 C6.47778644,22 2,17.5222136 2,12 C2,6.47711926 6.47745359,2 12,2 Z M11.8270303,15.34 C12.3790303,15.34 12.8270303,15.787 12.8270303,16.34 C12.8270303,16.893 12.3790303,17.34 11.8270303,17.34 C11.2750303,17.34 10.8270303,16.893 10.8270303,16.34 C10.8270303,15.787 11.2750303,15.34 11.8270303,15.34 Z M11.8270303,6.59 C12.2067261,6.59 12.5205213,6.87215388 12.5701837,7.23822944 L12.5770303,7.34 L12.5770303,13.34 C12.5770303,13.7542136 12.2412439,14.09 11.8270303,14.09 C11.4473346,14.09 11.1335394,13.8078461 11.083877,13.4417706 L11.0770303,13.34 L11.0770303,7.34 C11.0770303,6.92578644 11.4128168,6.59 11.8270303,6.59 Z" id="形状结合"></path>
            </g>
        </g>
    </g>
</svg>