<svg viewBox="0 0 24 24" xmlns="http://www.w3.org/2000/svg"
	xmlns:xlink="http://www.w3.org/1999/xlink">
	<defs />
	<g opacity="0.000000" />
	<path id="矢量 6"
		d="M20.9572 6.0542C20.9147 5.98999 20.8715 5.92651 20.8275 5.86353C20.5875 5.5188 20.1281 5.43652 19.7834 5.67676C19.4388 5.91675 19.3566 6.37598 19.5966 6.7207C19.6344 6.77515 19.6716 6.82959 19.7083 6.88477C19.9785 7.2912 20.2139 7.71344 20.4146 8.15161C20.5821 8.51733 20.7254 8.8941 20.8444 9.28198C20.9479 9.61914 21.0317 9.96021 21.0955 10.3049C21.1985 10.8604 21.25 11.4255 21.25 12C21.25 12.7002 21.1746 13.3833 21.0238 14.0493C20.9043 14.5771 20.7375 15.094 20.5234 15.6003C20.305 16.1167 20.0446 16.6055 19.7421 17.0669C19.3965 17.5942 18.9961 18.0854 18.5407 18.5408C18.0854 18.9961 17.5941 19.3965 17.0668 19.7422C16.6055 20.0447 16.1166 20.3049 15.6003 20.5234C15.0941 20.7375 14.5773 20.9042 14.0497 21.0237C13.3836 21.1746 12.7003 21.25 12 21.25C11.2998 21.25 10.6168 21.1746 9.95074 21.0239C9.42303 20.9043 8.90601 20.7375 8.39972 20.5234C7.88333 20.305 7.39444 20.0446 6.93311 19.7422C6.40594 19.3965 5.91455 18.9961 5.45929 18.5408C5.00391 18.0854 4.60339 17.594 4.25781 17.0669C3.95541 16.6055 3.69501 16.1166 3.47662 15.6003C3.26251 15.094 3.0957 14.5771 2.97626 14.0496C2.82541 13.3834 2.75 12.7002 2.75 12C2.75 11.2998 2.82541 10.6166 2.97626 9.95044C3.09573 9.42279 3.26251 8.90582 3.47662 8.39966C3.69501 7.88336 3.95541 7.39453 4.25781 6.93311C4.60342 6.40594 5.00394 5.91461 5.45929 5.45923C5.91461 5.00385 6.40591 4.60333 6.93323 4.25781C7.39453 3.95538 7.88336 3.69501 8.39972 3.47656C8.90561 3.26251 9.42221 3.09589 9.94952 2.97656C10.6156 2.82568 11.2998 2.75 12 2.75C12.5783 2.75 13.1469 2.80219 13.7058 2.90649C14.0565 2.97192 14.4032 3.05786 14.7462 3.16431C15.1375 3.28571 15.5175 3.43188 15.886 3.60278C16.3281 3.80768 16.7539 4.04803 17.1631 4.32373C17.5114 4.55859 17.9695 4.46948 18.2042 4.12109C18.439 3.77295 18.3498 3.3147 18.0015 3.08008C17.5313 2.76318 17.0424 2.48651 16.5348 2.25C16.1009 2.04803 15.6522 1.87494 15.1909 1.73169C14.7756 1.60278 14.3557 1.49976 13.931 1.42261C13.2978 1.30756 12.6541 1.25 12 1.25C11.1985 1.25 10.416 1.33521 9.65247 1.50562C9.02747 1.64496 8.41495 1.84149 7.81537 2.09521C7.2092 2.35156 6.63577 2.65765 6.09503 3.01343C5.48843 3.41254 4.92291 3.87427 4.39862 4.39868C3.87442 4.92279 3.41275 5.4881 3.01361 6.09473C2.65775 6.63544 2.35147 7.20917 2.09509 7.81543C1.84152 8.41486 1.64499 9.0271 1.50555 9.6521C1.33517 10.4158 1.25 11.1984 1.25 12C1.25 12.8016 1.33517 13.5842 1.50549 14.3477C1.64496 14.9727 1.84149 15.5852 2.09509 16.1846C2.3515 16.7908 2.65759 17.3643 3.01343 17.905C3.4126 18.5117 3.87433 19.0771 4.39862 19.6013C4.92285 20.1257 5.48828 20.5874 6.09485 20.9866C6.63562 21.3423 7.2092 21.6484 7.81537 21.9048C8.41498 22.1584 9.02728 22.355 9.65234 22.4944C10.4159 22.6648 11.1985 22.75 12 22.75C12.8016 22.75 13.5843 22.6648 14.3478 22.4944C14.9728 22.355 15.5851 22.1584 16.1846 21.9048C16.7908 21.6484 17.3643 21.3423 17.9051 20.9866C18.5117 20.5873 19.0771 20.1255 19.6014 19.6013C20.1257 19.0771 20.5874 18.5117 20.9865 17.905C21.3423 17.3643 21.6485 16.7908 21.9049 16.1846C22.1585 15.585 22.355 14.9729 22.4944 14.3479C22.6648 13.5842 22.75 12.8016 22.75 12C22.75 11.3504 22.6932 10.7111 22.5797 10.082C22.5043 9.66406 22.4039 9.25073 22.2784 8.8418C22.138 8.38428 21.9686 7.94019 21.7703 7.50928C21.5388 7.0061 21.2677 6.521 20.9572 6.0542ZM9.05542 6.49487L12.0008 9.74072L14.9446 6.49658C15.2268 6.18555 15.6929 6.16284 16.004 6.44507C16.315 6.72754 16.3376 7.1936 16.0554 7.50464L13.6938 10.1072L15.5001 10.1072C15.92 10.1072 16.2501 10.4373 16.2501 10.8572C16.2501 11.2771 15.92 11.6072 15.5001 11.6072L12.7501 11.6072L12.7501 13.5356L15.5001 13.5356C15.92 13.5356 16.2501 13.8657 16.2501 14.2856C16.2501 14.7056 15.92 15.0356 15.5001 15.0356L12.7501 15.0356L12.7501 17.9993C12.7501 18.4194 12.42 18.7493 12.0001 18.7493C11.5801 18.7493 11.2501 18.4194 11.2501 17.9993L11.2501 15.0356L8.50006 15.0356C8.08008 15.0356 7.75006 14.7056 7.75006 14.2856C7.75006 13.8657 8.08008 13.5356 8.50006 13.5356L11.2501 13.5356L11.2501 11.6072L8.50006 11.6072C8.08008 11.6072 7.75006 11.2771 7.75006 10.8572C7.75006 10.4373 8.08008 10.1072 8.50006 10.1072L10.3077 10.1072L7.94458 7.50293C7.66235 7.19189 7.685 6.72583 7.99603 6.44336C8.30707 6.16113 8.77319 6.18384 9.05542 6.49487Z"
		fill-rule="evenodd" />
</svg>