<?xml version="1.0" encoding="UTF-8"?>
<svg viewBox="0 0 24 24" version="1.1" xmlns="http://www.w3.org/2000/svg"
    xmlns:xlink="http://www.w3.org/1999/xlink">
    <g id="S12组件" stroke="none" stroke-width="1" fill-rule="evenodd">
        <g id="Custom" fill-rule="nonzero">
            <rect id="矩形" opacity="0" x="0" y="0" width="24" height="24"></rect>
            <path
                d="M11.9752543,2.02504441 C14.2050276,2.02504441 16.3244513,2.76365554 18.050608,4.1020841 C18.3779483,4.35589744 18.4375537,4.82701554 18.1837403,5.15435583 C17.929927,5.48169612 17.4588089,5.54130149 17.1314686,5.28748815 C15.6660294,4.15121493 13.8692509,3.52504441 11.9752543,3.52504441 C7.32156699,3.52504441 3.54880741,7.30029371 3.54880741,11.957547 C3.54880741,15.4156544 5.6481094,18.4816267 8.78769887,19.7660621 L8.87103655,19.7995599 L8.90497905,19.8114024 C10.0079327,20.1894993 10.95825,20.0532958 11.7078812,19.5175226 L11.7394362,19.4946468 C12.3959965,19.0119081 12.836449,18.2406757 12.8998261,17.5497298 L12.9117923,17.4136508 C12.9307938,17.1863864 12.9413585,16.9940113 12.9530053,16.6826847 L12.9688641,16.2269154 C12.9887308,15.6850037 13.0131582,15.4203052 13.0849095,15.1100195 C13.1901994,14.654698 13.3879072,14.2674757 13.7123015,13.9067274 C13.7504462,13.8643078 13.7902926,13.8223226 13.831897,13.7806908 C13.9433934,13.6691208 14.0565273,13.5707933 14.17315,13.4845504 C14.4873928,13.2521666 14.819074,13.1122864 15.2024649,13.0382322 L15.2495908,13.0294188 C15.4992167,12.9843142 15.7266835,12.9690202 16.1836679,12.9552117 L16.4650971,12.9465895 C16.935712,12.9310544 17.1877056,12.9148855 17.560239,12.8730685 C18.2927161,12.7908477 19.0660397,12.3467973 19.5411755,11.693901 C20.0815649,10.9513381 20.2152419,10.0035176 19.8263518,8.89195212 L19.8128699,8.85422655 L19.7854852,8.78569837 C19.518266,8.12748001 19.16849,7.50621202 18.7454583,6.93606462 L18.6943435,6.86789322 C18.4441942,6.53774448 18.5090465,6.06731995 18.8391953,5.81717063 C19.169344,5.5670213 19.6397685,5.63187365 19.8899179,5.96202239 C20.4165663,6.65709657 20.8500773,7.41868974 21.1779389,8.22792234 L21.2165773,8.32474045 L21.2202082,8.33478106 C21.7975005,9.93117089 21.5974651,11.4175159 20.7540125,12.5765256 C20.0293607,13.5722882 18.8754925,14.2348514 17.7275637,14.3637068 L17.6132098,14.3761761 C17.229719,14.416659 16.9431216,14.4324565 16.4273588,14.4485733 L16.1564445,14.4568989 C15.4837478,14.4800089 15.2907683,14.5236633 15.0650278,14.6905993 C15.0101321,14.7311949 14.9531412,14.7807271 14.892907,14.8410011 C14.8697361,14.8641872 14.8480188,14.8870702 14.8276719,14.9096974 L14.8030508,14.9375818 C14.5548471,15.22418 14.4975104,15.4699832 14.4664489,16.3222823 L14.4501504,16.7866162 C14.4359489,17.1557217 14.4223456,17.3728683 14.3935555,17.6867423 C14.290746,18.8075851 13.6281659,19.9677634 12.6279905,20.7031464 C11.4733769,21.5520808 9.99386382,21.773627 8.4071367,21.2264129 L8.34447634,21.2044381 L8.33212354,21.1995591 C4.57159179,19.7142603 2.04880741,16.0713607 2.04880741,11.957547 C2.04880741,6.47208802 6.49291826,2.02504441 11.9752543,2.02504441 Z M6.44919295,14.6945457 C6.88860884,14.2551298 7.60109363,14.2551298 8.04050954,14.6945457 C8.47992538,15.1339615 8.47992546,15.8464464 8.04050957,16.2858623 C7.60148382,16.724888 6.88899905,16.7243629 6.44984567,16.2852096 C6.01069221,15.8460561 6.0101672,15.1335714 6.44919295,14.6945457 Z M5.99545124,9.4965655 C6.43486712,9.05714962 7.14735204,9.05714963 7.58676788,9.49656547 C8.02618379,9.93598138 8.02618374,10.6484662 7.58676785,11.0878821 C7.1477421,11.5269079 6.43525741,11.5263829 5.99610395,11.0872294 C5.55695056,10.648076 5.55642549,9.93559125 5.99545124,9.4965655 Z M14.7576976,6.38604098 C15.1971135,5.94662507 15.9095984,5.94662509 16.3490142,6.38604098 C16.7884301,6.82545686 16.7884302,7.53794168 16.3490142,7.97735759 C15.9099885,8.41638337 15.1975038,8.4158583 14.7583503,7.97670488 C14.3191969,7.53755146 14.3186718,6.82506676 14.7576976,6.38604098 Z M9.57878457,5.99656549 C10.0182005,5.55714958 10.7306853,5.5571496 11.1701012,5.99656549 C11.6095171,6.43598137 11.6095171,7.14846619 11.1701012,7.5878821 C10.7310755,8.02690782 10.0185907,8.02638281 9.57943728,7.58722939 C9.14028386,7.14807597 9.13975885,6.4355912 9.57878457,5.99656549 Z"
                id="形状结合"></path>
        </g>
    </g>
</svg>