<svg viewBox="0 0 24 24" xmlns="http://www.w3.org/2000/svg"
	xmlns:xlink="http://www.w3.org/1999/xlink">
	<defs />
	<g opacity="0.000000" />
	<path id="矢量 196"
		d="M12 1.25C17.9358 1.25 22.75 6.02988 22.75 11.9285C22.75 14.7377 21.3192 15.467 18.24 15.395L17.2825 15.3641L16.8666 15.3586L16.5031 15.3629L16.3396 15.3691L16.0468 15.3898C15.5047 15.4427 15.2151 15.5666 15.0318 15.7889C14.7234 16.1629 14.5695 16.6087 14.4715 17.3879L14.4268 17.8065L14.3578 18.6498C14.1465 20.9194 13.5319 22.0189 11.52 22.5358C6.15576 23.9142 1.25 18.2715 1.25 11.9285C1.25 6.02972 6.06415 1.25 12 1.25ZM2.75 11.9285C2.75 6.86057 6.89017 2.75 12 2.75C17.1097 2.75 21.25 6.86072 21.25 11.9285C21.25 13.5521 20.6414 13.9332 18.4968 13.9005L17.2874 13.8633L16.8135 13.8564C15.2382 13.8518 14.5132 14.0602 13.8745 14.8346C13.2719 15.5655 13.0569 16.324 12.9348 17.6493L12.8652 18.5042L12.845 18.7106L12.7981 19.0895C12.616 20.3392 12.2305 20.8046 11.1467 21.083C6.89587 22.1753 2.75 17.4066 2.75 11.9285ZM10.5 5.75C11.1904 5.75 11.75 6.30963 11.75 7C11.75 7.69037 11.1904 8.25 10.5 8.25C9.80963 8.25 9.25 7.69037 9.25 7C9.25 6.30963 9.80963 5.75 10.5 5.75ZM17.25 7C17.25 6.30963 16.6904 5.75 16 5.75C15.3096 5.75 14.75 6.30963 14.75 7C14.75 7.69037 15.3096 8.25 16 8.25C16.6904 8.25 17.25 7.69037 17.25 7ZM8.25 11C8.25 10.3096 7.69037 9.75 7 9.75C6.30963 9.75 5.75 10.3096 5.75 11C5.75 11.6904 6.30963 12.25 7 12.25C7.69037 12.25 8.25 11.6904 8.25 11ZM7 14.75C7.69037 14.75 8.25 15.3096 8.25 16C8.25 16.6904 7.69037 17.25 7 17.25C6.30963 17.25 5.75 16.6904 5.75 16C5.75 15.3096 6.30963 14.75 7 14.75Z"
		fill-rule="evenodd" />
</svg>