<svg viewBox="0 0 24 24" xmlns="http://www.w3.org/2000/svg"
	xmlns:xlink="http://www.w3.org/1999/xlink">
	<defs />
	<g opacity="0.000000" />
	<path id="矢量 195"
		d="M12.005 22.75C6.77155 22.7429 2.32043 18.9808 1.4303 13.9546C1.33484 13.6012 1.27673 13.2375 1.25729 12.8678L1.25 12.5895L1.25 11.5465C1.25 11.3388 1.26886 11.1331 1.29688 10.9984C1.80634 5.4946 6.44342 1.25 12.015 1.25C15.9299 1.25 19.511 3.36014 21.4151 6.75693C21.6837 7.23602 21.9145 7.73401 22.1058 8.24704L22.2064 8.53339C22.5452 8.92725 22.75 9.4397 22.75 10L22.75 12.7239C22.75 14.0035 21.9644 15.1519 20.7719 15.6157L19.514 16.1048C19.0365 16.2905 18.4988 16.054 18.3131 15.5764C18.2714 15.4692 18.25 15.3551 18.25 15.2401L18.25 10C18.25 8.84067 19.1268 7.88614 20.2534 7.76337C20.2065 7.67206 20.1574 7.58084 20.1067 7.49039C18.4673 4.56573 15.3857 2.75 12.015 2.75C8.46069 2.75 5.34833 4.7569 3.79318 7.7504C5.0159 7.77344 6 8.77179 6 10L6 15.2401C6 15.3551 5.97861 15.4692 5.93692 15.5764C5.75122 16.054 5.2135 16.2905 4.73596 16.1048L3.48462 15.619C4.565 18.1577 6.74197 20.0923 9.39221 20.873C9.2998 20.5986 9.25 20.3051 9.25 20C9.25 18.4824 10.4824 17.25 12 17.25C13.5176 17.25 14.75 18.4824 14.75 20C14.75 21.516 13.5204 22.7473 12.005 22.75ZM3 10C3 9.58578 3.33578 9.25 3.75 9.25C4.16422 9.25 4.5 9.58578 4.5 10L4.50101 14.403L4.02185 14.2177C3.44977 13.9952 3.05902 13.4678 3.00613 12.8644L3 12.7239L3 10ZM20.5 9.25C20.0858 9.25 19.75 9.58578 19.75 10L19.749 14.403L20.2281 14.2177C20.8002 13.9952 21.191 13.4678 21.2439 12.8644L21.25 12.7239L21.25 10C21.25 9.58578 20.9142 9.25 20.5 9.25ZM10.75 20C10.75 19.3108 11.3108 18.75 12 18.75C12.6892 18.75 13.25 19.3108 13.25 20L13.2435 20.1276C13.1795 20.7561 12.6478 21.2484 12.0031 21.25L11.8724 21.2435C11.2429 21.1794 10.75 20.6461 10.75 20Z"
		fill-rule="evenodd" />
</svg>