<svg viewBox="0 0 24 24" xmlns="http://www.w3.org/2000/svg"
	xmlns:xlink="http://www.w3.org/1999/xlink">
	<g clip-path="url(#clip131_1885)">
		<path id="矢量 187"
			d="M9.75 1.00171L14.25 1.00171C15.7688 1.00171 17 2.23291 17 3.75171L17 5.00171L19 5.00171C20.1046 5.00171 21 5.89722 21 7.00171L21 9.5L3.00024 9.5L3.00024 11L21 11L20.9999 20.5007C20.9999 21.6052 20.1046 22.5007 19.0001 22.5007L5.00012 22.5017C3.89551 22.5017 3 21.6062 3 20.5017L3 7.00171C3 5.89722 3.89545 5.00171 5 5.00171L7 5.00171L7 3.75171C7 2.23291 8.2312 1.00171 9.75 1.00171ZM12 2.5C11.5858 2.5 11.25 2.83569 11.25 3.25C11.25 3.66431 11.5858 4 12 4C12.4142 4 12.75 3.66431 12.75 3.25C12.75 2.83569 12.4142 2.5 12 2.5ZM15.2803 19.7808L17.7803 17.2808C17.8535 17.2075 17.9084 17.1267 17.9451 17.0383C17.9817 16.95 18 16.854 18 16.7502C18 16.6467 17.9816 16.5508 17.9449 16.4624C17.9084 16.374 17.8535 16.2932 17.7803 16.22L15.2803 13.72C14.9833 13.4231 14.5166 13.4231 14.2196 13.72C13.9226 14.0171 13.9226 14.4836 14.2196 14.7808L15.4393 16.0002L12.25 16.0002L12.25 17.5002L15.4393 17.5002L14.2196 18.72C13.9226 19.0171 13.9226 19.4836 14.2196 19.7808C14.5166 20.0776 14.9833 20.0776 15.2803 19.7808ZM6.25 17.5002L6.25 16.0002L7.75 16.0002L7.75 17.5002L6.25 17.5002ZM10.75 16.0002L9.25 16.0002L9.25 17.5002L10.75 17.5002L10.75 16.0002Z"
			fill-opacity="1.000000" fill-rule="evenodd" />
	</g>
</svg>