<?xml version="1.0" encoding="UTF-8"?>
<svg viewBox="0 0 24 24" version="1.1" xmlns="http://www.w3.org/2000/svg" xmlns:xlink="http://www.w3.org/1999/xlink">
    <g id="页面-1" stroke="none" stroke-width="1">
        <g id="画板" transform="translate(-789.000000, -776.000000)">
            <g id="编组" transform="translate(789.000000, 776.000000)">
                <path d="M12,2.0195 C15.6552842,2.0195 18.9622825,4.00077347 20.715455,7.13318223 C21.3894685,8.33735945 21.8060916,9.66874932 21.9361034,11.0579751 C21.9643584,11.2168322 21.98,11.3802806 21.98,11.5474 L21.98,12.5884 C21.98,13.5515961 21.6759888,14.4438934 21.1586415,15.1744853 C20.3470511,16.3205143 19.0110506,17.0685 17.5,17.0685 C17.1203042,17.0685 16.806509,16.7863461 16.7568466,16.4202706 L16.75,16.3185 L16.75,11.0805 C16.75,10.3578483 17.1063519,9.71871963 17.6529859,9.32918377 L17.7729738,9.24949262 C18.1003852,9.0477598 18.4860562,8.9314 18.899,8.9314 L19.365,8.9314 C19.5597161,8.9314 19.7494343,8.95265359 19.9319667,8.9929687 C19.7855015,8.60571456 19.6098127,8.22897106 19.4065335,7.86579721 C17.9159608,5.20257764 15.1066894,3.5195 12,3.5195 C8.37522535,3.5195 5.28182508,5.79380244 4.0684471,8.99343271 C4.25056567,8.95265359 4.44028395,8.9314 4.635,8.9314 L4.635,8.9314 L5.101,8.9314 C6.28821356,8.9314 7.25,9.89318644 7.25,11.0804 L7.25,11.0804 L7.25,16.3184 C7.25,16.7326136 6.91421356,17.0684 6.5,17.0684 C5.98101406,17.0684 5.48266466,16.9801588 5.01912343,16.8178686 C6.14734434,18.4479608 7.83155017,19.6644022 9.79776862,20.1917243 C9.76626111,20.0423029 9.75,19.8882928 9.75,19.7305 C9.75,18.4882864 10.7577864,17.4805 12,17.4805 C13.2422136,17.4805 14.25,18.4882864 14.25,19.7305 C14.25,20.9727136 13.2422136,21.9805 12,21.9805 L12,21.9805 C7.0869313,21.9805 3.00315434,18.4302143 2.17381677,13.7555011 C2.07338764,13.3832221 2.02,12.9920363 2.02,12.5884 L2.02,12.5884 L2.02,11.5474 C2.02,11.3841111 2.03493277,11.2243269 2.06350821,11.0693398 C2.53268315,5.99326838 6.8021049,2.0195 12,2.0195 Z M12,18.9805 C11.5862136,18.9805 11.25,19.3167136 11.25,19.7305 C11.25,20.1442864 11.5862136,20.4805 12,20.4805 C12.4137864,20.4805 12.75,20.1442864 12.75,19.7305 C12.75,19.3167136 12.4137864,18.9805 12,18.9805 Z M5.101,10.4314 L4.635,10.4314 C4.10613263,10.4314 3.66406886,10.7985808 3.54910958,11.2925732 C3.52981695,11.5264199 3.52,11.7623131 3.52,12.0005 C3.52,12.4852159 3.56067158,12.9604373 3.63878848,13.4229369 C3.92137119,14.3940478 4.68465728,15.160089 5.65386858,15.4465685 L5.65386858,15.4465685 L5.7495,15.4712 L5.75,11.0804 C5.75,10.7542305 5.51015408,10.4847328 5.19698417,10.4384289 L5.19698417,10.4384289 L5.101,10.4314 Z M19.365,10.4314 L18.913,10.4305 L18.899,10.4315 L18.796,10.4395 L18.7439079,10.4500996 C18.7285687,10.4538522 18.7134445,10.4581491 18.6985569,10.4629688 C18.6478128,10.4793045 18.5998959,10.5017646 18.5555696,10.5294268 C18.5420295,10.5379794 18.5289027,10.5468603 18.5161308,10.556197 L18.5555696,10.5294268 C18.5298538,10.545475 18.5053465,10.5632741 18.4822137,10.5826581 L18.5161308,10.556197 C18.4891416,10.575927 18.4637373,10.5976921 18.4401424,10.6212679 L18.4822137,10.5826581 C18.4536147,10.6066225 18.4271165,10.6330092 18.403033,10.6615046 L18.4401424,10.6212679 C18.416399,10.644992 18.3944879,10.6705495 18.3746379,10.6977116 L18.403033,10.6615046 C18.3878233,10.6795006 18.3735766,10.6983376 18.3603721,10.7179366 L18.3746379,10.6977116 C18.3345611,10.7525516 18.3028862,10.8139324 18.2814969,10.87997 C18.2786399,10.8886953 18.275991,10.8975151 18.2735266,10.9064122 L18.2814969,10.87997 C18.2706796,10.9133677 18.2624931,10.9479565 18.257181,10.9834927 L18.2735266,10.9064122 C18.2581926,10.9617715 18.25,11.0201179 18.25,11.0804 L18.2505,15.4712 L18.3461761,15.4466531 C18.4593341,15.4132021 18.5696843,15.3732131 18.6767898,15.3271235 C18.7104328,15.3125569 18.7435868,15.297557 18.7764106,15.2819749 L18.6767898,15.3271235 C18.7324742,15.3031615 18.7872814,15.2775505 18.8411503,15.2503519 L18.7764106,15.2819749 C18.8217003,15.2604748 18.8663615,15.2378662 18.910359,15.2141841 L18.8411503,15.2503519 C18.8943573,15.2234875 18.9466489,15.1950744 18.9979658,15.1651718 L18.910359,15.2141841 C18.9672031,15.1835871 19.0229395,15.1511982 19.0774925,15.1170931 L18.9979658,15.1651718 C19.0481694,15.1359178 19.0974402,15.1052382 19.1457229,15.0731885 L19.0774925,15.1170931 C19.1278194,15.0856301 19.1771391,15.0527064 19.2253925,15.0183815 L19.1457229,15.0731885 C19.1941383,15.0410507 19.2415601,15.0075351 19.2879324,14.9726978 L19.2253925,15.0183815 C19.2667828,14.9889387 19.3073884,14.9584648 19.3471719,14.9269975 L19.2879324,14.9726978 C19.3413927,14.9325355 19.3934583,14.8906165 19.4440435,14.8470264 L19.3471719,14.9269975 C19.3877011,14.8949404 19.4273772,14.8618522 19.4661605,14.8277726 L19.4440435,14.8470264 C19.4862737,14.8106359 19.5274721,14.7730808 19.5675891,14.7344109 L19.4661605,14.8277726 C19.5141714,14.7855845 19.5608142,14.7418771 19.6060137,14.6967256 L19.5675891,14.7344109 C19.6109014,14.6926609 19.6529531,14.6496113 19.6936815,14.605325 L19.6060137,14.6967256 C19.6485292,14.6542553 19.6897678,14.6105073 19.7296671,14.5655441 L19.6936815,14.605325 C19.7304037,14.5653948 19.7660502,14.5244592 19.800575,14.4825641 L19.7296671,14.5655441 C19.7700608,14.5200236 19.8090818,14.4732577 19.8466652,14.4253113 L19.800575,14.4825641 C19.8407172,14.4338523 19.8793431,14.3838435 19.9163804,14.3326099 L19.8466652,14.4253113 C19.8810799,14.3814072 19.9142891,14.3365133 19.9462432,14.2906795 L19.9163804,14.3326099 C19.9492301,14.2871688 19.9808302,14.2407643 20.0111303,14.1934467 L19.9462432,14.2906795 C19.9835278,14.2371996 20.0191035,14.1824399 20.0528912,14.1264797 L20.0111303,14.1934467 C20.0400036,14.1483572 20.0676964,14.1024385 20.0941652,14.0557343 L20.0528912,14.1264797 C20.0818961,14.0784408 20.1095833,14.0295173 20.1359028,13.9797591 L20.0941652,14.0557343 C20.125528,14.0003948 20.1551722,13.9439525 20.1830254,13.8864799 L20.1359028,13.9797591 C20.1651415,13.9244822 20.1926923,13.8681752 20.2184865,13.810907 L20.1830254,13.8864799 C20.2057968,13.8394934 20.227371,13.7918182 20.2477086,13.7434941 L20.2184865,13.810907 C20.2427053,13.7571367 20.2653755,13.702519 20.2864405,13.6471107 L20.2477086,13.7434941 C20.3758542,13.4390078 20.4549017,13.1087569 20.4749425,12.7626619 L20.48,12.5875 L20.48,12.0005 C20.48,11.7627695 20.4702505,11.5265384 20.4509424,11.2922459 C20.3353284,10.7980804 19.8935069,10.4314 19.365,10.4314 Z" id="形状结合"></path>
            </g>
        </g>
    </g>
</svg>