<svg viewBox="0 0 24 24" xmlns="http://www.w3.org/2000/svg"
	xmlns:xlink="http://www.w3.org/1999/xlink">
	<g clip-path="url(#clip131_1880)">
		<path id="矢量 29"
			d="M16 2L6 2C4.34314 2 3 3.34326 3 5L3 19C3 20.6567 4.34314 22 6 22L11.8925 22C9.85962 20.7751 8.5 18.5464 8.5 16C8.5 12.134 11.634 9 15.5 9C16.775 9 17.9703 9.34082 19 9.93652L19 5C19 3.34326 17.6569 2 16 2ZM6 5.25L13.5 5.25C13.92 5.25 14.25 5.58008 14.25 6C14.25 6.41992 13.92 6.75 13.5 6.75L6 6.75C5.57996 6.75 5.25 6.41992 5.25 6C5.25 5.58008 5.57996 5.25 6 5.25ZM6 8.75L8 8.75C8.42004 8.75 8.75 9.08008 8.75 9.5C8.75 9.91992 8.42004 10.25 8 10.25L6 10.25C5.57996 10.25 5.25 9.91992 5.25 9.5C5.25 9.08008 5.57996 8.75 6 8.75ZM10 16C10 12.9624 12.4624 10.5 15.5 10.5C18.5376 10.5 21 12.9624 21 16C21 19.0376 18.5376 21.5 15.5 21.5C12.4624 21.5 10 19.0376 10 16ZM13.4664 13.5C13.4664 12.3955 14.3618 11.5 15.4664 11.5C16.571 11.5 17.4664 12.3955 17.4664 13.5C17.4664 14.3291 16.9618 15.0405 16.2429 15.3438L16.2429 16L16.9999 16C17.4199 16 17.7499 16.3301 17.7499 16.75C17.7499 17.1699 17.4199 17.5 16.9999 17.5L16.2429 17.5L16.2429 18.6665C16.2974 18.6538 16.3514 18.6399 16.4049 18.6243C16.6683 18.5481 16.9218 18.4373 17.1652 18.2915C17.4148 18.1423 17.6375 17.9668 17.8333 17.7651C18.0273 17.5654 18.1949 17.3398 18.3361 17.0886C18.5417 16.7224 18.9911 16.5962 19.3572 16.802C19.7234 17.0078 19.8495 17.457 19.6438 17.8232C19.5491 17.9917 19.4449 18.1536 19.3313 18.3086C19.2012 18.4858 19.0587 18.6538 18.9037 18.813C18.7505 18.9705 18.5881 19.116 18.4164 19.2495C18.2633 19.3689 18.1028 19.4785 17.9349 19.5791C17.7423 19.6943 17.5435 19.7949 17.3385 19.8809C17.1582 19.9565 16.9733 20.021 16.7834 20.0742C16.6199 20.1201 16.4547 20.157 16.2881 20.1848C16.0304 20.228 15.7692 20.2495 15.5044 20.25C15.2454 20.2488 14.964 20.2271 14.7119 20.1848C14.5453 20.157 14.3801 20.1201 14.2166 20.0742C14.028 20.0215 13.8441 19.9575 13.6649 19.8823C13.46 19.7964 13.2576 19.6943 13.0649 19.5791C12.8972 19.4785 12.7367 19.3689 12.5836 19.2498C12.4119 19.116 12.2495 18.9705 12.0962 18.813C11.9413 18.6541 11.7988 18.4858 11.6687 18.3086C11.5551 18.1538 11.4508 17.9917 11.3561 17.8232C11.1504 17.457 11.2766 17.0078 11.6427 16.802C12.0089 16.5962 12.4583 16.7224 12.6639 17.0886C12.8051 17.3398 12.9727 17.5654 13.1667 17.7651C13.3624 17.9668 13.5852 18.1423 13.8348 18.2915C14.0782 18.4373 14.3317 18.5481 14.5951 18.6243C14.6428 18.6379 14.6946 18.6519 14.7429 18.6631L14.7429 17.5L13.9999 17.5C13.5798 17.5 13.2499 17.1699 13.2499 16.75C13.2499 16.3301 13.5798 16 13.9999 16L14.7429 16L14.7429 15.3652C13.996 15.0752 13.4664 14.3494 13.4664 13.5ZM14.9664 13.5C14.9664 13.2239 15.1903 13 15.4664 13C15.7426 13 15.9664 13.2239 15.9664 13.5C15.9664 13.7761 15.7426 14 15.4664 14C15.1903 14 14.9664 13.7761 14.9664 13.5Z"
			fill-opacity="1.000000" fill-rule="evenodd" />
	</g>
</svg>