<svg viewBox="0 0 24 24" xmlns="http://www.w3.org/2000/svg"
	xmlns:xlink="http://www.w3.org/1999/xlink">
	<defs />
	<g opacity="0.000000" />
	<path id="矢量 200"
		d="M9.82095 10.6845C9.09857 11.3692 9.06183 12.4722 9.70978 13.1995L9.8241 13.3171L17.4853 20.5455C17.7866 20.8298 18.2612 20.816 18.5455 20.5147C18.8039 20.2408 18.816 19.8236 18.5897 19.5365L10.8535 12.226C10.7354 12.1146 10.7184 11.9571 10.8024 11.8324L18.4961 4.54492C18.7971 4.26031 18.8103 3.78561 18.5257 3.48468C18.267 3.21109 17.8511 3.17526 17.5516 3.38483L9.82095 10.6845ZM5.25684 3.89822C5.30652 3.53217 5.6203 3.25 6 3.25C6.41422 3.25 6.75 3.58578 6.75 4L6.75 20L6.74316 20.1018C6.69348 20.4678 6.3797 20.75 6 20.75C5.58578 20.75 5.25 20.4142 5.25 20L5.25 4L5.25684 3.89822Z"
		fill-rule="evenodd" />
</svg>