<?xml version="1.0" encoding="UTF-8"?>
<svg viewBox="0 0 24 24" version="1.1" xmlns="http://www.w3.org/2000/svg" xmlns:xlink="http://www.w3.org/1999/xlink">
    <g id="页面-1" stroke="none" stroke-width="1">
        <g id="画板" transform="translate(-1076.000000, -768.000000)">
            <g id="编组" transform="translate(1076.000000, 768.000000)">
                <path d="M5.75,1.99999988 C6.16421356,1.99999988 6.5,2.33578631 6.5,2.74999988 L6.5,21.2499999 C6.5,21.6642134 6.16421356,21.9999999 5.75,21.9999999 C5.33578644,21.9999999 5,21.6642134 5,21.2499999 L5,2.74999988 C5,2.33578631 5.33578644,1.99999988 5.75,1.99999988 Z M18.7702466,2.214244 C19.0392374,2.47775811 19.0677273,2.89415081 18.8529039,3.18998726 L18.7811547,3.27484808 L11.0137214,11.2037159 C10.5661695,11.6605694 10.539766,12.3742346 10.932082,12.8613913 L11.0225578,12.962139 L18.7765813,20.7197942 C19.0694059,21.012756 19.0692947,21.4876297 18.7763329,21.7804544 C18.510004,22.0466586 18.0933347,22.0707671 17.7997742,21.8528439 L17.7156728,21.780206 L9.96164936,14.0225508 C8.94034098,13.000764 8.8898232,11.373532 9.81588034,10.291912 L9.94220911,10.15402 L17.7096425,2.22515217 C17.999508,1.92926223 18.4743566,1.92437848 18.7702466,2.214244 Z" id="形状结合"></path>
            </g>
        </g>
    </g>
</svg>