<svg viewBox="0 0 24 24" xmlns="http://www.w3.org/2000/svg"
	xmlns:xlink="http://www.w3.org/1999/xlink">
	<defs />
	<g opacity="0.000000" />
	<path id="矢量 220"
		d="M17.8101 2.25L4.18996 2.25C3.70148 2.25 3.23177 2.43732 2.87389 2.77332L2.75652 2.89325C2.08865 3.63617 2.07553 4.78619 2.7511 5.54584L7.79901 11.221L7.7999 20.5924C7.7999 20.8113 7.86136 21.0259 7.97757 21.2114C8.31897 21.7561 9.03787 21.916 9.57516 21.5605L13.2595 19.1226L13.3927 19.0262C13.8636 18.6538 14.1413 18.0797 14.1413 17.4692L14.141 11.223L19.2417 5.55396C19.5691 5.18988 19.75 4.71478 19.75 4.22266C19.75 3.13763 18.8861 2.25 17.8101 2.25ZM17.8101 3.75L4.18996 3.75C4.08429 3.75 3.98135 3.79108 3.9006 3.86682C3.71198 4.04395 3.69839 4.35382 3.87195 4.54895L9.11032 10.439C9.23242 10.5763 9.2999 10.7537 9.2999 10.9374L9.29901 19.944L12.4318 17.8717C12.535 17.8034 12.6072 17.6926 12.6319 17.5664L12.6413 10.9374C12.6413 10.7522 12.7099 10.5735 12.8337 10.4359L18.1263 4.5509C18.2053 4.46313 18.25 4.34564 18.25 4.22266C18.25 3.95715 18.0484 3.75 17.8101 3.75ZM21.7177 12.1179C22.1023 11.9641 22.5388 12.1512 22.6926 12.5358C22.8336 12.8883 22.6882 13.2844 22.3668 13.4665L22.2748 13.5106L17.2748 15.5106C16.8902 15.6645 16.4538 15.4774 16.2999 15.0928C16.1589 14.7403 16.3043 14.3442 16.6258 14.1621L16.7177 14.1179L21.7177 12.1179ZM22.7463 17.8143C22.7463 17.4001 22.4105 17.0643 21.9963 17.0643L16.9963 17.0643L16.8945 17.0711C16.5284 17.1208 16.2463 17.4346 16.2463 17.8143C16.2463 18.2285 16.5821 18.5643 16.9963 18.5643L21.9963 18.5643L22.0981 18.5574C22.4641 18.5078 22.7463 18.194 22.7463 17.8143Z"
		fill-rule="evenodd" />
</svg>