<svg viewBox="0 0 24 24" xmlns="http://www.w3.org/2000/svg" xmlns:xlink="http://www.w3.org/1999/xlink">
	<defs/>
	<g opacity="0.000000"/>
	<path id="矢量 169" d="M3 5L6.83 5L7.46 3.27C7.53 3.08 7.62 2.9 7.74 2.75C7.86 2.6 8 2.46 8.17 2.35C8.34 2.23 8.51 2.14 8.7 2.08C8.88 2.02 9.08 2 9.28 2L14.71 2C14.91 2 15.11 2.02 15.29 2.08C15.48 2.14 15.65 2.23 15.82 2.35C15.99 2.46 16.13 2.6 16.25 2.75C16.37 2.9 16.46 3.08 16.53 3.27L17.16 5L21 5C21.42 5 21.75 5.33 21.75 5.75C21.75 6.16 21.42 6.5 21 6.5L16.63 6.5C16.55 6.5 16.48 6.48 16.41 6.46C16.33 6.44 16.27 6.4 16.2 6.36C16.07 6.27 15.98 6.15 15.93 6L15.12 3.78C15.1 3.74 14.99 3.61 14.96 3.57C14.92 3.55 14.88 3.53 14.84 3.51C14.8 3.5 14.76 3.5 14.71 3.5L9.28 3.5C9.23 3.5 9.19 3.5 9.15 3.51C9.11 3.53 8.97 3.64 8.93 3.66C8.91 3.7 8.89 3.74 8.87 3.78L8.06 6C8.01 6.15 7.92 6.27 7.79 6.36C7.66 6.45 7.52 6.5 7.36 6.5L3 6.5C2.58 6.5 2.25 6.16 2.25 5.75C2.25 5.33 2.58 5 3 5ZM20.66 8.25L19.71 19.68C19.7 19.85 19.67 20.02 19.62 20.18C19.58 20.32 19.52 20.46 19.46 20.59C19.39 20.73 19.31 20.85 19.23 20.97C19.13 21.1 19.02 21.22 18.9 21.33C18.79 21.44 18.66 21.53 18.52 21.62C18.4 21.7 18.26 21.76 18.13 21.82C17.99 21.87 17.84 21.91 17.7 21.94C17.53 21.98 17.37 22 17.19 22L6.8 22C6.62 22 6.46 21.98 6.29 21.94C6.15 21.91 6 21.87 5.86 21.82C5.73 21.76 5.59 21.7 5.47 21.62C5.33 21.53 5.21 21.44 5.09 21.33C4.97 21.22 4.86 21.1 4.76 20.97C4.68 20.85 4.6 20.73 4.53 20.59C4.47 20.46 4.41 20.32 4.37 20.18C4.32 20.02 4.29 19.85 4.28 19.68L3.33 8.25L4.83 8.25L5.77 19.55C5.78 19.69 5.82 19.81 5.87 19.92C5.93 20.03 6 20.13 6.1 20.22C6.2 20.31 6.31 20.38 6.42 20.43C6.54 20.47 6.66 20.5 6.8 20.5L17.19 20.5C17.33 20.5 17.45 20.47 17.57 20.43C17.68 20.38 17.79 20.31 17.89 20.22C17.99 20.13 18.06 20.03 18.12 19.92C18.17 19.81 18.21 19.69 18.22 19.55L19.16 8.25L20.66 8.25ZM10.25 16.75L10.25 10.75C10.25 10.33 9.91 10 9.5 10C9.08 10 8.75 10.33 8.75 10.75L8.75 16.75C8.75 17.17 9.08 17.5 9.5 17.5C9.91 17.5 10.25 17.17 10.25 16.75ZM15.25 10.75L15.25 16.75C15.25 17.17 14.92 17.5 14.5 17.5C14.08 17.5 13.75 17.17 13.75 16.75L13.75 10.75C13.75 10.33 14.08 10 14.5 10C14.92 10 15.25 10.33 15.25 10.75Z" fill-opacity="1.000000" fill-rule="evenodd"/>
</svg>