<?xml version="1.0" encoding="UTF-8"?>
<svg viewBox="0 0 24 24" version="1.1" xmlns="http://www.w3.org/2000/svg" xmlns:xlink="http://www.w3.org/1999/xlink">
    <g id="页面-1" stroke="none" stroke-width="1">
        <g id="画板" transform="translate(-794.000000, -841.000000)">
            <g id="编组" transform="translate(794.000000, 841.000000)">
                <path d="M17,2 C18.5977441,2 19.9036654,3.24924244 19.9949075,4.82376176 L20,5 L20,10.5 C20,10.9142136 19.6642136,11.25 19.25,11.25 C18.8703042,11.25 18.556509,10.9678461 18.5068466,10.6017706 L18.5,10.5 L18.5,5 C18.5,4.22053329 17.9050787,3.57957831 17.1444541,3.50686896 L17,3.5 L7,3.5 C6.22033921,3.5 5.57955548,4.095104 5.50686694,4.85557809 L5.5,5 L5.5,19.001 C5.5,19.7801901 6.09466112,20.4205033 6.85549994,20.4931381 L7,20.5 L11.5,20.5 C11.9142136,20.5 12.25,20.8357864 12.25,21.25 C12.25,21.6296958 11.9678461,21.943491 11.6017706,21.9931534 L11.5,22 L7,22 C5.40217146,22 4.09632857,20.7516058 4.00509213,19.1772258 L4,19.001 L4,5 C4,3.40265354 5.24885901,2.09636301 6.82372068,2.00509397 L7,2 L17,2 Z M17,12 C19.7618955,12 22,14.2384683 22,17 C22,19.7622136 19.7622136,22 17,22 C14.2377864,22 12,19.7622136 12,17 C12,14.2384683 14.2381045,12 17,12 Z M17,13.5 C15.0665862,13.5 13.5,15.0668409 13.5,17 C13.5,18.9337864 15.0662136,20.5 17,20.5 C18.9337864,20.5 20.5,18.9337864 20.5,17 C20.5,15.0668409 18.9334138,13.5 17,13.5 Z M18.9519968,14.9775604 C19.2204823,15.2460459 19.2428561,15.6674455 19.0191182,15.9614167 L18.9519968,16.0382206 L18.0983749,16.8908905 L18.9519968,17.7448523 C19.2448901,18.0377455 19.2448901,18.5126193 18.9519968,18.8055125 C18.6835114,19.0739979 18.2621118,19.0963717 17.9681406,18.8726338 L17.8913367,18.8055125 L17.0373749,17.9518905 L16.184705,18.8055125 C15.8918118,19.0984057 15.416938,19.0984057 15.1240448,18.8055125 C14.8555594,18.537027 14.8331856,18.1156274 15.0569235,17.8216562 L15.1240448,17.7448523 L15.9763749,16.8908905 L15.1240448,16.0382206 C14.8311516,15.7453274 14.8311516,15.2704537 15.1240448,14.9775604 C15.3925303,14.709075 15.8139299,14.6867012 16.1079011,14.9104391 L16.184705,14.9775604 L17.0373749,15.8298905 L17.8913367,14.9775604 C18.1842299,14.6846672 18.6591036,14.6846672 18.9519968,14.9775604 Z M13,9.75 C13.4142136,9.75 13.75,10.0857864 13.75,10.5 C13.75,10.8796958 13.4678461,11.193491 13.1017706,11.2431534 L13,11.25 L8.5,11.25 C8.08578644,11.25 7.75,10.9142136 7.75,10.5 C7.75,10.1203042 8.03215388,9.80650904 8.39822944,9.75684662 L8.5,9.75 L13,9.75 Z M15.5,5.75 C15.9142136,5.75 16.25,6.08578644 16.25,6.5 C16.25,6.87969577 15.9678461,7.19349096 15.6017706,7.24315338 L15.5,7.25 L8.5,7.25 C8.08578644,7.25 7.75,6.91421356 7.75,6.5 C7.75,6.12030423 8.03215388,5.80650904 8.39822944,5.75684662 L8.5,5.75 L15.5,5.75 Z" id="形状结合"></path>
            </g>
        </g>
    </g>
</svg>