<svg viewBox="0 0 24 24" xmlns="http://www.w3.org/2000/svg"
	xmlns:xlink="http://www.w3.org/1999/xlink">
	<defs />
	<g opacity="0.000000" />
	<path id="矢量 15"
		d="M16.3002 2C18.0399 2 19.4503 3.44641 19.4503 5.23059L19.4506 8.05371C18.9714 7.85858 18.4695 7.70959 17.9501 7.61206L17.9503 5.23059C17.9503 4.29602 17.2115 3.53839 16.3002 3.53839L6.10001 3.53839C5.18872 3.53839 4.45001 4.29602 4.45001 5.23059L4.45001 18.7684C4.45001 19.7031 5.18872 20.4607 6.10001 20.4607L9.99579 20.4604C10.3965 21.0331 10.8673 21.5507 11.3953 22L6.10001 21.9991C4.36029 21.9991 2.95001 20.5527 2.95001 18.7684L2.95001 5.23059C2.95001 3.44641 4.36029 2 6.10001 2L16.3002 2ZM15.25 6.5C15.25 6.08582 14.9142 5.75 14.5 5.75L7.5 5.75L7.39825 5.75684C7.03217 5.80652 6.75 6.1203 6.75 6.5C6.75 6.91418 7.08582 7.25 7.5 7.25L14.5 7.25L14.6018 7.24316C14.9679 7.19348 15.25 6.8797 15.25 6.5ZM11 8.75C11.4142 8.75 11.75 9.08582 11.75 9.5C11.75 9.8797 11.4679 10.1935 11.1018 10.2432L11 10.25L7.5 10.25C7.08582 10.25 6.75 9.91418 6.75 9.5C6.75 9.1203 7.03217 8.80652 7.39825 8.75684L7.5 8.75L11 8.75ZM22.75 15.5C22.75 12.0482 19.9518 9.25 16.5 9.25C13.0482 9.25 10.25 12.0482 10.25 15.5C10.25 18.9518 13.0482 21.75 16.5 21.75C19.9518 21.75 22.75 18.9518 22.75 15.5ZM16.5 10.75C13.8766 10.75 11.75 12.8766 11.75 15.5C11.75 18.1234 13.8766 20.25 16.5 20.25C19.1234 20.25 21.25 18.1234 21.25 15.5C21.25 12.8766 19.1234 10.75 16.5 10.75ZM15.0303 12.9697C14.7368 12.7518 14.236 12.7034 13.9697 12.9697C13.6768 13.2626 13.6768 13.7374 13.9697 14.0303L15.439 15.5L13.9697 16.9697C13.7518 17.2633 13.7034 17.764 13.9697 18.0303C14.2626 18.3232 14.7374 18.3232 15.0303 18.0303L16.5 16.561L17.9697 18.0303C18.2633 18.2482 18.7641 18.2966 19.0303 18.0303C19.3232 17.7374 19.3232 17.2626 19.0303 16.9697L17.561 15.5L19.0303 14.0303C19.2482 13.7367 19.2966 13.236 19.0303 12.9697C18.7374 12.6768 18.2626 12.6768 17.9697 12.9697L16.5 14.439L15.0303 12.9697Z"
		fill-rule="evenodd" />
</svg>