<?xml version="1.0" encoding="UTF-8"?>
<svg viewBox="0 0 24 24" version="1.1" xmlns="http://www.w3.org/2000/svg"
    xmlns:xlink="http://www.w3.org/1999/xlink">
    <g id="S12组件" stroke="none" stroke-width="1">
        <g id="Deleted">
            <g id="编组">
                <rect id="矩形" opacity="0" x="0" y="0" width="24" height="24"></rect>
                <path
                    d="M13.8979998,2.15490007 C14.8241067,2.15490007 15.6490703,2.72012818 15.9879594,3.56924915 L16.045711,3.73171759 L16.551,5.34490007 L21,5.34490013 C21.4142137,5.34490013 21.75,5.68068656 21.75,6.09490013 C21.75,6.4745959 21.4678459,6.78839111 21.1017704,6.83805346 L21,6.84490013 L20.165,6.84490007 L18.9492848,19.1436636 C18.8018963,20.6188223 17.603184,21.7547667 16.140712,21.8399661 L15.964,21.8451006 L8.03699994,21.8451006 C6.55501604,21.8451006 5.30472028,20.7652915 5.07441163,19.3189862 L5.05172098,19.1437161 L3.821,6.84490007 L3,6.84490013 C2.58578643,6.84490013 2.25,6.50911367 2.25,6.09490013 C2.25,5.71520436 2.53215387,5.40140917 2.89822942,5.35174675 L3,5.34490013 L4.39498613,5.34447668 C4.40504802,5.34306106 4.41518168,5.34184109 4.42538363,5.34082105 C4.48713802,5.33464656 4.54789046,5.33614809 4.60669346,5.34455037 L7.449,5.34490007 L7.95526206,3.7318033 C8.23199266,2.84795958 9.01804888,2.23098008 9.93052292,2.16145253 L10.1029999,2.15490007 L13.8979998,2.15490007 Z M13.8979998,3.65490007 L10.1029999,3.65490007 C9.8103354,3.65490007 9.5494504,3.82251275 9.42618299,4.07983744 L9.38661528,4.18038726 L8.71561539,6.31938744 L8.70999312,6.33721374 C8.70207086,6.36043277 8.69304162,6.38313914 8.68296833,6.40526992 L8.71561539,6.31938744 C8.70267103,6.36065115 8.68649007,6.40000358 8.66743967,6.43725292 C8.65872954,6.4542733 8.64942726,6.47078292 8.63953353,6.48689019 C8.63145367,6.50022051 8.62308999,6.51297371 8.61437515,6.52541725 C8.6041433,6.53976273 8.5933726,6.55400674 8.58211856,6.56784184 C8.57301262,6.57932191 8.56346063,6.59038661 8.55361495,6.60113946 C8.54196461,6.61360946 8.53014757,6.62567953 8.51793739,6.63734148 C8.50477072,6.65011434 8.49029982,6.6629064 8.47538235,6.67510563 C8.4664087,6.68237753 8.45764937,6.68923641 8.44873683,6.69590169 C8.43285932,6.7077622 8.416164,6.71920127 8.39904695,6.72994586 C8.38704222,6.73760606 8.37469443,6.74489904 8.36212617,6.75184183 C8.35024622,6.75822349 8.33860963,6.76423888 8.32682267,6.76994826 C8.30856647,6.77901342 8.2891452,6.78746249 8.26931793,6.79509363 C8.25921881,6.79879254 8.24958343,6.80227467 8.23987504,6.80556045 C8.22144879,6.81194874 8.2022678,6.81758991 8.18278468,6.822469 C8.16749246,6.82624952 8.15219667,6.82960131 8.13678087,6.83247384 C8.12545307,6.8345502 8.11365597,6.83644105 8.1017704,6.83805346 L8.08280026,6.8405051 C8.07121239,6.84179822 8.05957243,6.84282201 8.04788904,6.84357193 L8,6.84490013 L5.329,6.84490007 L6.54427791,18.9944727 C6.61614823,19.7131751 7.18787861,20.2713854 7.89407611,20.3383543 L8.03699994,20.3450997 L15.964,20.3450997 C16.6869061,20.3450997 17.2989552,19.8323214 17.4357951,19.1360943 L17.4567196,18.9945004 L18.658,6.84490007 L16,6.84490013 C15.8928758,6.84490013 15.7909972,6.82244117 15.6988159,6.78197498 C15.6920011,6.77879793 15.6845117,6.77537241 15.6770811,6.77182567 C15.6529506,6.76046053 15.6301018,6.74800343 15.6080099,6.73443372 C15.596551,6.72730968 15.5850289,6.71981924 15.5737132,6.71201414 C15.5580647,6.70122711 15.5428479,6.68981785 15.5280941,6.67785982 C15.5165781,6.66863665 15.5050611,6.65875223 15.493838,6.64851029 C15.4793239,6.63506452 15.4654186,6.62130575 15.4520652,6.60702454 C15.4418841,6.59643978 15.4311922,6.58429734 15.4208791,6.57178208 C15.4082417,6.55613585 15.3966243,6.54085702 15.385595,6.52513553 C15.377607,6.51396825 15.3699007,6.50228009 15.362505,6.49033838 C15.3517622,6.47288797 15.3418242,6.45535031 15.3325898,6.43739155 C15.3286276,6.42956067 15.3248743,6.42189977 15.3212428,6.41415358 C15.3069583,6.38313913 15.2979291,6.36043276 15.2900069,6.33721373 L15.2842889,6.31908274 L14.6142621,4.17999697 C14.5272751,3.90217113 14.2886901,3.70336652 14.0059061,3.66261768 L13.8979998,3.65490007 Z M10,8.34490013 C10.3796958,8.34490013 10.693491,8.62705401 10.7431533,8.99312955 L10.75,9.09490013 L10.75,17.0949001 C10.75,17.5091133 10.4142135,17.8449001 10,17.8449001 C9.62030423,17.8449001 9.30650904,17.562746 9.25684662,17.1966705 L9.25,17.0949001 L9.25,9.09490013 C9.25,8.68068656 9.58578643,8.34490013 10,8.34490013 Z M14,8.34490013 C14.3796958,8.34490013 14.693491,8.62705401 14.7431533,8.99312955 L14.75,9.09490013 L14.75,17.0949001 C14.75,17.5091133 14.4142135,17.8449001 14,17.8449001 C13.6203042,17.8449001 13.306509,17.562746 13.2568466,17.1966705 L13.25,17.0949001 L13.25,9.09490013 C13.25,8.68068656 13.5857864,8.34490013 14,8.34490013 Z"
                    id="形状结合"></path>
            </g>
        </g>
    </g>
</svg>