<svg viewBox="0 0 24 24" xmlns="http://www.w3.org/2000/svg"
	xmlns:xlink="http://www.w3.org/1999/xlink">
	<defs />
	<g opacity="0.000000" />
	<path id="矢量 13"
		d="M15.4724 2.87421C15.1586 2.19342 14.4749 1.75 13.7155 1.75L10.2845 1.75L10.123 1.75671C9.37593 1.81903 8.7256 2.31 8.46609 3.02362L7.83701 4.75L4 4.75L3.89822 4.75684C3.53215 4.80652 3.25 5.1203 3.25 5.5C3.25 5.91418 3.58578 6.25 4 6.25L8.36363 6.25L8.46732 6.2428C8.73947 6.20496 8.97269 6.01978 9.06848 5.75629L9.87578 3.53625C9.95261 3.40399 10.1277 3.25 10.2845 3.25L13.7155 3.25C13.8661 3.27704 14.0707 3.38892 14.1242 3.53625L14.9315 5.75629C15.0601 5.99908 15.356 6.25 15.6364 6.25L20 6.25L20.1018 6.24316C20.4678 6.19348 20.75 5.8797 20.75 5.5L20.7431 5.39825C20.6935 5.03217 20.3797 4.75 20 4.75L16.162 4.75L15.5339 3.02362L15.4724 2.87421ZM5.836 8L6.77826 19.308C6.81604 19.7612 7.14413 20.1254 7.57043 20.2238L7.689 20.2438L7.802 20.25L16.198 20.25C16.7323 20.25 17.1774 19.8405 17.2217 19.308L18.163 8L19.669 8L18.7166 19.4326C18.6074 20.7425 17.5124 21.75 16.198 21.75L7.802 21.75C6.48758 21.75 5.39261 20.7425 5.28345 19.4326L4.33099 8L5.836 8ZM10.7432 10.3983C10.6935 10.0322 10.3797 9.75 10 9.75C9.58578 9.75 9.25 10.0858 9.25 10.5L9.25 16.5L9.25684 16.6017C9.30652 16.9678 9.6203 17.25 10 17.25C10.4142 17.25 10.75 16.9142 10.75 16.5L10.75 10.5L10.7432 10.3983ZM14 9.75C14.3797 9.75 14.6935 10.0322 14.7432 10.3983L14.75 10.5L14.75 16.5C14.75 16.9142 14.4142 17.25 14 17.25C13.6203 17.25 13.3065 16.9678 13.2568 16.6017L13.25 16.5L13.25 10.5C13.25 10.0858 13.5858 9.75 14 9.75Z"
		fill-rule="evenodd" />
</svg>