<svg viewBox="0 0 24 24" xmlns="http://www.w3.org/2000/svg"
	xmlns:xlink="http://www.w3.org/1999/xlink">
	<defs />
	<g opacity="0.000000" />
	<path id="矢量 240"
		d="M10.3616 7.87347L4.0423 13.572C3.53796 14.0268 3.25 14.6721 3.25 15.3493C3.25 16.6769 4.33408 17.75 5.66757 17.75L18.3324 17.75C19.0128 17.75 19.662 17.4653 20.1204 16.9651C21.0212 15.9822 20.9464 14.4599 19.954 13.5687L13.6084 7.87012C12.6863 7.04199 11.282 7.04346 10.3616 7.87347ZM18.9518 14.6847L12.6062 8.98615C12.255 8.67078 11.7166 8.67133 11.3661 8.98743L5.04684 14.686C4.85742 14.8568 4.75 15.0975 4.75 15.3493C4.75 15.845 5.15912 16.25 5.66757 16.25L18.3324 16.25C18.5929 16.25 18.8408 16.1413 19.0146 15.9517C19.3514 15.5842 19.3236 15.0186 18.9518 14.6847Z"
		fill-rule="evenodd" />
</svg>