<svg viewBox="0 0 24 24" xmlns="http://www.w3.org/2000/svg"
	xmlns:xlink="http://www.w3.org/1999/xlink">
	<defs />
	<g opacity="0.000000" />
	<path id="矢量 12"
		d="M13.6384 17.1265L19.9577 11.428C20.462 10.9732 20.75 10.3279 20.75 9.6507C20.75 8.32312 19.6659 7.25 18.3324 7.25L5.66759 7.25C4.98724 7.25 4.33798 7.53473 3.87961 8.03485C2.97882 9.01776 3.05365 10.5401 4.04602 11.4313L10.3916 17.1299C11.3137 17.958 12.718 17.9565 13.6384 17.1265ZM5.04825 10.3153L11.3938 16.0139C11.745 16.3292 12.2834 16.3287 12.6339 16.0126L18.9532 10.314C19.1426 10.1432 19.25 9.90253 19.25 9.6507C19.25 9.15497 18.8409 8.75 18.3324 8.75L5.6676 8.75C5.40709 8.75 5.15926 8.8587 4.98546 9.04834C4.64862 9.41583 4.67641 9.98138 5.04825 10.3153Z"
		fill-rule="evenodd" />
</svg>