<svg viewBox="0 0 24 24" xmlns="http://www.w3.org/2000/svg"
	xmlns:xlink="http://www.w3.org/1999/xlink">
	<defs />
	<g opacity="0.000000" />
	<path id="矢量 239"
		d="M7.37299 13.6384L13.0715 19.9577C13.5263 20.462 14.1716 20.75 14.8488 20.75C16.1764 20.75 17.2495 19.666 17.2495 18.3325L17.2495 5.6676C17.2495 4.98724 16.9648 4.33801 16.4647 3.87964C15.4818 2.97882 13.9594 3.05365 13.0682 4.04602L7.36963 10.3916C6.5415 11.3137 6.54297 12.718 7.37299 13.6384ZM14.1842 5.04828L8.48566 11.3938C8.17029 11.745 8.17084 12.2834 8.48694 12.6339L14.1855 18.9532C14.3563 19.1426 14.597 19.25 14.8488 19.25C15.3445 19.25 15.7495 18.8409 15.7495 18.3325L15.7495 5.6676C15.7495 5.4071 15.6408 5.15924 15.4512 4.98547C15.0837 4.64862 14.5182 4.67639 14.1842 5.04828Z"
		fill-rule="evenodd" />
</svg>