<svg viewBox="0 0 24 24" xmlns="http://www.w3.org/2000/svg"
	xmlns:xlink="http://www.w3.org/1999/xlink">
	<defs />
	<g opacity="0.000000" />
	<path id="矢量 238"
		d="M16.6265 13.6384L10.928 19.9577C10.4732 20.462 9.82788 20.75 9.15076 20.75C7.82312 20.75 6.75 19.666 6.75 18.3325L6.75 5.6676C6.75 4.98724 7.03467 4.33801 7.53485 3.87964C8.51776 2.97882 10.0402 3.05365 10.9313 4.04602L16.6299 10.3916C17.458 11.3137 17.4565 12.718 16.6265 13.6384ZM9.81531 5.04822L15.5139 11.3938C15.8292 11.745 15.8287 12.2834 15.5126 12.6339L9.81403 18.9532C9.64319 19.1426 9.40253 19.25 9.15076 19.25C8.65497 19.25 8.25 18.8409 8.25 18.3324L8.25 5.6676C8.25 5.4071 8.35864 5.15924 8.54834 4.98547C8.91583 4.64862 9.48132 4.67639 9.81531 5.04822Z"
		fill-rule="evenodd" />
</svg>