<?xml version="1.0" encoding="UTF-8"?>
<svg viewBox="0 0 24 24" version="1.1" xmlns="http://www.w3.org/2000/svg" xmlns:xlink="http://www.w3.org/1999/xlink">
    <g id="页面-1" stroke="none" stroke-width="1">
        <g id="画板" transform="translate(-319.000000, -1045.000000)">
            <g id="编组" transform="translate(319.000000, 1045.000000)">
                <path d="M15.4510195,3 C17.0753284,3 18.4030748,4.2697353 18.495842,5.87078933 L18.5010195,6.05 L18.5010195,6.11975098 C18.5010195,6.53396454 18.1652331,6.86975098 17.7510195,6.86975098 C17.3713238,6.86975098 17.0575286,6.58759709 17.0078661,6.22152153 L17.0010195,6.11975098 L17.0010195,6.05 C17.0010195,5.24151649 16.3820256,4.57760677 15.5921011,4.50633434 L15.4510195,4.5 L6.05101953,4.5 C5.24253602,4.5 4.5786263,5.11899397 4.50735387,5.90891841 L4.50101953,6.05 L4.50101953,17.95 C4.50101953,18.7584835 5.1200135,19.4223932 5.90993794,19.4936657 L6.05101953,19.5 L15.4510195,19.5 C16.259503,19.5 16.9234128,18.881006 16.9946852,18.0910816 L17.0010195,17.9207764 C17.0010195,17.5065628 17.336806,17.1707764 17.7510195,17.1707764 C18.1307153,17.1707764 18.4445105,17.4529302 18.4941729,17.8190058 L18.5010195,17.9207764 L18.5010195,17.95 C18.5010195,19.5743089 17.2312842,20.9020552 15.6302302,20.9948224 L15.4510195,21 L6.05101953,21 C4.42671063,21 3.0989643,19.7302647 3.0061971,18.1292107 L3.00101953,17.95 L3.00101953,6.05 C3.00101953,4.4256911 4.27075483,3.09794477 5.87180886,3.00517757 L6.05101953,3 L15.4510195,3 Z M17.0616011,8.63572921 C17.3249897,8.44686224 17.6832041,8.44925296 17.9441921,8.64290137 L17.9441921,8.64290137 L18.0283106,8.71551952 L20.7793106,11.4665195 L20.8590919,11.5604578 C21.0479414,11.8238111 21.0455837,12.1819745 20.8520015,12.4429628 L20.8520015,12.4429628 L20.7794069,12.5270833 L18.0284069,15.2790833 L17.9443017,15.3517168 C17.6507298,15.5696246 17.2340617,15.5454942 16.9677468,15.2792761 C16.7014318,15.0130579 16.6771501,14.5963986 16.8949512,14.3027475 L16.8949512,14.3027475 L16.967554,14.2186159 L18.4389805,12.7458496 L11.7503398,12.7468496 L11.6485693,12.740003 C11.2824937,12.6903406 11.0003398,12.3765454 11.0003398,11.9968496 C11.0003398,11.6171538 11.2824937,11.3033586 11.6485693,11.2536962 L11.6485693,11.2536962 L11.7503398,11.2468496 L18.4389805,11.2458496 L16.9676504,9.7761797 L16.8878601,9.68222901 C16.6989931,9.41884037 16.7013838,9.06062595 16.8950322,8.79963796 L16.8950322,8.79963796 L16.9676504,8.71551952 Z" id="形状结合"></path>
            </g>
        </g>
    </g>
</svg>