<?xml version="1.0" encoding="UTF-8"?>
<svg viewBox="0 0 24 24" version="1.1" xmlns="http://www.w3.org/2000/svg" xmlns:xlink="http://www.w3.org/1999/xlink">
    <g id="页面-1" stroke="none" stroke-width="1">
        <g id="画板" transform="translate(-635.000000, -1047.000000)">
            <g id="编组" transform="translate(635.000000, 1047.000000)">
                <path d="M13.75,18.5 L13.88,18.5120835 C14.2298738,18.5755874 14.5,18.8818102 14.5,19.25 C14.5,19.6642136 14.1642136,20 13.75,20 L13.75,20 L3.75,20 L3.61518655,19.9879165 C3.26531274,19.9244126 3,19.6181898 3,19.25 C3,18.8357864 3.33578644,18.5 3.75,18.5 L3.75,18.5 L13.75,18.5 Z M17.25,4 C17.6296958,4 17.943491,4.28392444 17.9931534,4.65 L18,4.75 L18.0006,17.4374964 L19.7196699,15.7181663 C19.9859365,15.4518998 20.4026002,15.4276937 20.6962117,15.6455482 L20.7803301,15.7181663 C21.0465966,15.9844329 21.0708027,16.4010966 20.8529482,16.6947081 L20.7803301,16.7788265 L17.7803301,19.7788265 C17.3327235,20.2264331 16.5841085,19.949663 16.5065468,19.3511574 L16.5,19.2484964 L16.5,4.75 C16.5,4.33578644 16.8357864,4 17.25,4 Z M13.75,11.25 L13.88,11.2620835 C14.2298738,11.3255874 14.5,11.6318102 14.5,12 C14.5,12.4142136 14.1642136,12.75 13.75,12.75 L13.75,12.75 L3.75,12.75 L3.61518655,12.7379165 C3.26531274,12.6744126 3,12.3681898 3,12 C3,11.5857864 3.33578644,11.25 3.75,11.25 L3.75,11.25 L13.75,11.25 Z M13.75,4 L13.88,4.0120835 C14.2298738,4.07558744 14.5,4.38181017 14.5,4.75 C14.5,5.16421356 14.1642136,5.5 13.75,5.5 L13.75,5.5 L3.75,5.5 L3.61518655,5.4879165 C3.26531274,5.42441256 3,5.11818983 3,4.75 C3,4.33578644 3.33578644,4 3.75,4 L3.75,4 L13.75,4 Z" id="形状结合"></path>
            </g>
        </g>
    </g>
</svg>