<svg viewBox="0 0 24 24" xmlns="http://www.w3.org/2000/svg"
	xmlns:xlink="http://www.w3.org/1999/xlink">
	<defs />
	<path id="矢量 30"
		d="M18 2.75C18.3797 2.75 18.6935 3.03215 18.7432 3.39823L18.75 3.5L18.75 18.759L20.485 17.1214C20.7588 16.8629 21.176 16.8506 21.4633 17.0767C21.7218 17.3505 21.8161 17.8427 21.59 18.1299L18.515 21.0453C18.0632 21.4719 17.3365 21.1931 17.2571 20.6066L17.25 20.5L17.25 3.5C17.25 3.08578 17.5858 2.75 18 2.75ZM14.75 4C14.75 3.58578 14.4142 3.25 14 3.25L3 3.25L2.89822 3.25684C2.53217 3.30651 2.25 3.6203 2.25 4C2.25 4.41422 2.58578 4.75 3 4.75L14 4.75L14.1018 4.74316C14.4678 4.69349 14.75 4.3797 14.75 4ZM14 11.25C14.4142 11.25 14.75 11.5858 14.75 12C14.75 12.3797 14.4678 12.6935 14.1018 12.7432L14 12.75L3 12.75C2.58578 12.75 2.25 12.4142 2.25 12C2.25 11.6203 2.53217 11.3065 2.89822 11.2568L3 11.25L14 11.25ZM14.75 20C14.75 19.5858 14.4142 19.25 14 19.25L3 19.25L2.89822 19.2569C2.53217 19.3065 2.25 19.6203 2.25 20C2.25 20.4142 2.58578 20.75 3 20.75L14 20.75L14.1018 20.7431C14.4678 20.6935 14.75 20.3797 14.75 20Z"
		fill-rule="evenodd" />
</svg>