<?xml version="1.0" encoding="UTF-8"?>
<svg viewBox="0 0 24 24" version="1.1" xmlns="http://www.w3.org/2000/svg" xmlns:xlink="http://www.w3.org/1999/xlink">
    <g id="页面-1" stroke="none" stroke-width="1">
        <g id="画板" transform="translate(-1076.000000, -1037.000000)">
            <g id="编组" transform="translate(1076.000000, 1037.000000)">
                <path d="M18.7741,1.99974822 C20.3683546,1.99974822 21.6710072,3.24469587 21.7620203,4.81587672 L21.7671,4.99174822 L21.7671,12.3317482 C21.7671,13.0066564 21.5414594,13.6503041 21.134024,14.1716019 C20.8789492,14.4979602 20.4076046,14.555747 20.0812463,14.3006722 C19.7845569,14.068786 19.7098275,13.6581645 19.8903338,13.3402246 L19.952176,13.2478945 C20.1213663,13.0314221 20.22727,12.7736863 20.2578715,12.4986525 L20.2671,12.3317482 L20.2671,4.99174822 C20.2671,4.21575559 19.6754484,3.57882175 18.9179671,3.50657345 L18.7741,3.49974822 L9.73880273,3.49974822 C8.96337758,3.49974822 8.32682884,4.09086587 8.25462389,4.84795319 L8.24780273,4.99174822 L8.2471,5.01974822 L15.7631,5.01974822 C17.3705147,5.01974822 18.6609472,6.35530361 18.7510707,8.01325602 L18.7561,8.19874822 L18.7561,16.3577482 C18.7561,18.0411128 17.5201049,19.4383132 15.9343053,19.5326702 L15.7631,19.5377482 L8.854,19.5372482 L6.60040217,21.766089 C6.15164014,22.20977 5.40677652,21.9319642 5.32961293,21.3351092 L5.3231,21.2327482 L5.323,19.5372482 L5.2421,19.5377482 C3.63525906,19.5377482 2.34522361,18.2018096 2.25512776,16.5433027 L2.2501,16.3577482 L2.2501,8.19874822 C2.2501,6.58406409 3.39225241,5.21602196 4.9143528,5.03878183 C5.32578638,4.99087267 5.69815724,5.28556744 5.74606639,5.69700102 C5.78998312,6.07414846 5.54601738,6.41847238 5.18814282,6.51014286 L5.0878472,6.52871461 C4.38687951,6.6103384 3.82038635,7.24428306 3.75616559,8.04646195 L3.7501,8.19874822 L3.7501,16.3577482 C3.7501,17.2460917 4.35863503,17.9549716 5.10841482,18.0309942 L5.2421,18.0377482 L6.0731,18.0377482 C6.45279577,18.0377482 6.76659096,18.3199021 6.81625338,18.6859777 L6.8231,18.7877482 L6.823,19.4352482 L8.01879783,18.2544074 C8.13111692,18.14336 8.27484164,18.0713266 8.42892454,18.0469551 L8.5461,18.0377482 L15.7631,18.0377482 C16.5287311,18.0377482 17.1798893,17.3783285 17.2498771,16.5125774 L17.2561,16.3577482 L17.2561,8.19874822 C17.2561,7.3111299 16.6473957,6.60249742 15.8969145,6.52650004 L15.7631,6.51974822 L7.4991,6.51974822 L7.4081,6.51374822 L7.39603218,6.5129016 C7.06323621,6.46775394 6.79979701,6.20431474 6.75464935,5.87151877 L6.74780273,5.76974822 L6.74780273,4.99174822 C6.74780273,3.39777696 7.99247738,2.09579109 9.56300535,2.00482522 L9.73880273,1.99974822 L18.7741,1.99974822 Z M9.5505,12.9996482 C9.96471356,12.9996482 10.3005,13.3354347 10.3005,13.7496482 C10.3005,14.129344 10.0183461,14.4431392 9.65227056,14.4928016 L9.5505,14.4996482 L6.0585,14.4996482 C5.64428644,14.4996482 5.3085,14.1638618 5.3085,13.7496482 C5.3085,13.3699525 5.59065388,13.0561573 5.95672944,13.0064948 L6.0585,12.9996482 L9.5505,12.9996482 Z M13.0435,9.49964822 C13.4577136,9.49964822 13.7935,9.83543465 13.7935,10.2496482 C13.7935,10.629344 13.5113461,10.9431392 13.1452706,10.9928016 L13.0435,10.9996482 L6.0585,10.9996482 C5.64428644,10.9996482 5.3085,10.6638618 5.3085,10.2496482 C5.3085,9.86995245 5.59065388,9.55615726 5.95672944,9.50649483 L6.0585,9.49964822 L13.0435,9.49964822 Z" id="形状结合"></path>
            </g>
        </g>
    </g>
</svg>