<svg viewBox="0 0 24 24" xmlns="http://www.w3.org/2000/svg"
	xmlns:xlink="http://www.w3.org/1999/xlink">
	<defs />
	<path id="形状"
		d="M22.7453 6.05977C22.6269 3.37387 20.2816 1.25 17.4288 1.25L9.20056 1.25L8.91827 1.25696C8.54327 1.27549 8.17418 1.33092 7.81552 1.42194C7.41403 1.52382 7.17116 1.93188 7.27304 2.33337C7.37492 2.73486 7.78297 2.97774 8.18446 2.87585C8.51233 2.79266 8.85303 2.75 9.20056 2.75L17.4288 2.75L17.6327 2.75492C19.658 2.85287 21.25 4.4014 21.25 6.27295L21.25 13.9643L21.2431 14.1787C21.2292 14.3921 21.1946 14.602 21.1401 14.807C21.0334 15.2072 21.2715 15.6181 21.6718 15.7247C22.072 15.8313 22.4829 15.5933 22.5895 15.193C22.6957 14.7942 22.75 14.3823 22.75 13.9643L22.75 6.27295L22.7453 6.05977ZM19.75 7.86316C19.75 5.86767 18.1323 4.25 16.1368 4.25L4.86316 4.25C2.86766 4.25 1.25 5.86767 1.25 7.86316L1.25 15.4825L1.25511 15.6718C1.33643 17.1758 2.38104 18.4236 3.78282 18.8092L3.94901 18.85L3.94997 22L3.95668 22.1034C4.03188 22.6734 4.72147 22.9614 5.18233 22.5743L9.517 18.932L16.1368 18.9325C18.1323 18.9325 19.75 17.3148 19.75 15.3193L19.75 7.86316ZM16.1368 5.75L4.86316 5.75C3.69609 5.75 2.75 6.69609 2.75 7.86316L2.75 15.4825C2.75 16.5594 3.62303 17.4325 4.69997 17.4325C5.11418 17.4325 5.44997 17.7682 5.44997 18.1825L5.44901 20.39L8.76289 17.6082C8.87099 17.5174 9.00192 17.4594 9.1403 17.4398L9.24525 17.4325L16.1368 17.4325C17.3039 17.4325 18.25 16.4864 18.25 15.3193L18.25 7.86316C18.25 6.69609 17.3039 5.75 16.1368 5.75ZM15.75 9.55556C15.75 9.14134 15.4142 8.80556 15 8.80556L6 8.80556L5.89822 8.81241C5.53215 8.86206 5.25 9.17586 5.25 9.55556C5.25 9.96977 5.58578 10.3056 6 10.3056L15 10.3056L15.1018 10.2987C15.4678 10.2491 15.75 9.93526 15.75 9.55556ZM10.5 12.6944C10.9142 12.6944 11.25 13.0302 11.25 13.4444C11.25 13.8241 10.9678 14.1379 10.6018 14.1876L10.5 14.1944L6 14.1944C5.58578 14.1944 5.25 13.8587 5.25 13.4444C5.25 13.0647 5.53215 12.7509 5.89822 12.7013L6 12.6944L10.5 12.6944Z"
		clip-rule="evenodd" fill-rule="evenodd" fill-opacity="1.000000" />
</svg>