<svg viewBox="0 0 24 24" xmlns="http://www.w3.org/2000/svg"
	xmlns:xlink="http://www.w3.org/1999/xlink">
	<defs />
	<path id="矢量 31"
		d="M22.75 11C22.75 5.86189 17.9125 1.75 12 1.75C6.08752 1.75 1.25 5.86189 1.25 11C1.25 13.4676 2.37589 15.7735 4.33081 17.4839C4.3649 18.4158 4.11752 19.2244 3.47714 19.9539L3.38333 20.066C2.84512 20.7425 2.75577 21.4798 3.51443 21.8894C3.92554 22.1113 4.48502 22.1004 5.22229 21.9498C6.47275 21.6944 8.06836 21.0372 9.06915 20.3357L9.57483 20.0139C10.364 20.1703 11.1761 20.25 12 20.25C17.9125 20.25 22.75 16.1381 22.75 11ZM12 3.25C6.86679 3.25 2.75 6.74927 2.75 11C2.75 13.104 3.75879 15.0815 5.53033 16.5356L5.65097 16.6588L5.72916 16.7832L5.78726 16.9433L5.80441 17.0468C5.91605 18.2171 5.71829 19.3014 5.10056 20.2817L4.97601 20.468L5.19287 20.4189C6.11621 20.1907 7.22925 19.7307 8.01022 19.2385L8.23404 19.0901L9.02292 18.5846L9.23181 18.4919L9.33267 18.472L9.53973 18.4745C10.3179 18.6501 11.178 18.75 12 18.75C17.1332 18.75 21.25 15.2507 21.25 11C21.25 6.74927 17.1332 3.25 12 3.25ZM8.16666 10.956C8.16666 10.289 7.62482 9.75 6.95834 9.75C6.29187 9.75 5.75 10.289 5.75 10.956C5.75 11.6229 6.29187 12.1619 6.95834 12.1619C7.62482 12.1619 8.16666 11.6229 8.16666 10.956ZM12 9.75C12.6665 9.75 13.2083 10.289 13.2083 10.956C13.2083 11.6229 12.6665 12.1619 12 12.1619C11.3335 12.1619 10.7917 11.6229 10.7917 10.956C10.7917 10.289 11.3335 9.75 12 9.75ZM18.25 10.956C18.25 10.289 17.7081 9.75 17.0417 9.75C16.3752 9.75 15.8333 10.289 15.8333 10.956C15.8333 11.6229 16.3752 12.1619 17.0417 12.1619C17.7081 12.1619 18.25 11.6229 18.25 10.956Z"
		fill-rule="evenodd" />
</svg>