<?xml version="1.0" encoding="utf-8"?>
<!-- Generator: Adobe Illustrator 26.0.2, SVG Export Plug-In . SVG Version: 6.00 Build 0)  -->
<svg version="1.1" id="图层_1" xmlns="http://www.w3.org/2000/svg" xmlns:xlink="http://www.w3.org/1999/xlink" x="0px" y="0px"
	 viewBox="0 0 16 16" style="enable-background:new 0 0 16 16;" xml:space="preserve">
<style type="text/css">
	.st0{fill:none;}
</style>
<rect id="size" class="st0"/>
<path id="形状" class="st1" d="M13,5.6h-0.7L13,4.8c0.3-0.3,0.4-0.7,0.4-1.1S13.2,2.9,13,2.6l-0.4-0.4c-0.6-0.6-1.5-0.6-2.1,0
	L8,4.9L5.4,2.4c-0.6-0.6-1.5-0.6-2.1,0L3,2.7C2.4,3.3,2.4,4.2,3,4.8l0.8,0.8H3c-0.8,0-1.5,0.7-1.5,1.5v6.1c0,0.8,0.7,1.5,1.5,1.5h10
	c0.8,0,1.5-0.7,1.5-1.5V7.1C14.5,6.3,13.8,5.6,13,5.6z M11.3,3.1c0.2-0.2,0.5-0.2,0.7,0l0.4,0.4c0.1,0.1,0.1,0.2,0.1,0.4
	c0,0.1-0.1,0.3-0.1,0.4l-1.5,1.5H8.7L11.3,3.1z M3.7,4.1c-0.2-0.2-0.2-0.5,0-0.7L4,3.1c0.2-0.2,0.5-0.2,0.7,0l2.5,2.5H5.1L3.7,4.1z
	 M2.5,13.2V7.1c0-0.3,0.2-0.5,0.5-0.5h4.5v7.1H3C2.7,13.7,2.5,13.5,2.5,13.2z M13.5,13.2c0,0.3-0.2,0.5-0.5,0.5H8.5V6.6H13
	c0.3,0,0.5,0.2,0.5,0.5V13.2z"/>
</svg>
