<?xml version="1.0" encoding="UTF-8"?>
<svg viewBox="0 0 24 24" version="1.1" xmlns="http://www.w3.org/2000/svg" xmlns:xlink="http://www.w3.org/1999/xlink">
    <g id="S12组件" stroke="none" stroke-width="1">
        <g id="DotChart">
            <g id="编组备份" transform="translate(3.000000, 3.000000)">
                <path d="M0.75,0 C1.12969577,0 1.44349096,0.28215388 1.49315338,0.64822944 L1.5,0.75 L1.5,15 C1.5,15.7800343 2.0945698,16.4204885 2.85548382,16.4931369 L3,16.5 L17.25,16.5 C17.6642136,16.5 18,16.8357864 18,17.25 C18,17.6296958 17.7178461,17.943491 17.3517706,17.9931534 L17.25,18 L3,18 C1.40197264,18 0.09631437,16.7514141 0.00509137,15.1763086 L0,15 L0,0.75 C0,0.33578644 0.33578644,0 0.75,0 Z M4.5,10.5 C5.05228475,10.5 5.5,10.9477153 5.5,11.5 C5.5,12.0522847 5.05228475,12.5 4.5,12.5 C3.94771525,12.5 3.5,12.0522847 3.5,11.5 C3.5,10.9477153 3.94771525,10.5 4.5,10.5 Z M9,10 C9.55228475,10 10,10.4477153 10,11 C10,11.5522847 9.55228475,12 9,12 C8.44771525,12 8,11.5522847 8,11 C8,10.4477153 8.44771525,10 9,10 Z M13,7 C13.5522847,7 14,7.44771525 14,8 C14,8.55228475 13.5522847,9 13,9 C12.4477153,9 12,8.55228475 12,8 C12,7.44771525 12.4477153,7 13,7 Z M9.5,4.5 C10.0522847,4.5 10.5,4.94771525 10.5,5.5 C10.5,6.05228475 10.0522847,6.5 9.5,6.5 C8.94771525,6.5 8.5,6.05228475 8.5,5.5 C8.5,4.94771525 8.94771525,4.5 9.5,4.5 Z M14.5,2.5 C15.0522847,2.5 15.5,2.94771525 15.5,3.5 C15.5,4.05228475 15.0522847,4.5 14.5,4.5 C13.9477153,4.5 13.5,4.05228475 13.5,3.5 C13.5,2.94771525 13.9477153,2.5 14.5,2.5 Z" id="形状结合"></path>
            </g>
        </g>
    </g>
</svg>