<svg viewBox="0 0 24 24" xmlns="http://www.w3.org/2000/svg"
	xmlns:xlink="http://www.w3.org/1999/xlink">
	<defs />
	<path id="形状结合"
		d="M3 3.25C3.3797 3.25 3.69348 3.53215 3.74316 3.89823L3.75 4L3.75 18.3C3.75 19.328 4.54547 20.1702 5.55447 20.2447L5.70001 20.25L21 20.25C21.4142 20.25 21.75 20.5858 21.75 21C21.75 21.3797 21.4678 21.6935 21.1018 21.7431L21 21.75L5.70001 21.75C3.85812 21.75 2.35336 20.3066 2.2551 18.4893L2.25 18.3L2.25 4C2.25 3.58578 2.58578 3.25 3 3.25ZM18.75 7.5C18.75 6.80965 19.3096 6.25 20 6.25C20.6904 6.25 21.25 6.80965 21.25 7.5C21.25 8.19035 20.6904 8.75 20 8.75C19.3096 8.75 18.75 8.19035 18.75 7.5ZM12 8.25C11.3096 8.25 10.75 8.80965 10.75 9.5C10.75 10.1904 11.3096 10.75 12 10.75C12.6904 10.75 13.25 10.1904 13.25 9.5C13.25 8.80965 12.6904 8.25 12 8.25ZM16.25 12.5C16.25 11.8096 16.8096 11.25 17.5 11.25C18.1904 11.25 18.75 11.8096 18.75 12.5C18.75 13.1904 18.1904 13.75 17.5 13.75C16.8096 13.75 16.25 13.1904 16.25 12.5ZM6.25 15.5C6.25 14.8096 6.80963 14.25 7.5 14.25C8.19037 14.25 8.75 14.8096 8.75 15.5C8.75 16.1904 8.19037 16.75 7.5 16.75C6.80963 16.75 6.25 16.1904 6.25 15.5ZM12.5 14.25C11.8096 14.25 11.25 14.8096 11.25 15.5C11.25 16.1904 11.8096 16.75 12.5 16.75C13.1904 16.75 13.75 16.1904 13.75 15.5C13.75 14.8096 13.1904 14.25 12.5 14.25Z"
		clip-rule="evenodd" fill-rule="evenodd" fill-opacity="1.000000" />
</svg>