<svg viewBox="0 0 24 24" xmlns="http://www.w3.org/2000/svg"
	xmlns:xlink="http://www.w3.org/1999/xlink">
	<defs />
	<path id="矢量 45"
		d="M2.96967 3.46967C3.26257 3.17677 3.73743 3.17677 4.03033 3.46967L12.0303 11.4697L12.1029 11.5538C12.3208 11.8474 12.2966 12.2641 12.0303 12.5303L4.03033 20.5303L3.9462 20.603C3.65259 20.8208 3.23593 20.7966 2.96967 20.5303L2.89706 20.4462C2.6792 20.1526 2.7034 19.7359 2.96967 19.4697L10.439 12L2.96967 4.53033L2.89706 4.44621C2.6792 4.1526 2.7034 3.73593 2.96967 3.46967ZM11.9697 3.46967C12.2626 3.17677 12.7374 3.17677 13.0303 3.46967L21.0303 11.4697L21.1029 11.5538C21.3208 11.8474 21.2966 12.2641 21.0303 12.5303L13.0303 20.5303L12.9462 20.603C12.6526 20.8208 12.2359 20.7966 11.9697 20.5303L11.8971 20.4462C11.6792 20.1526 11.7034 19.7359 11.9697 19.4697L19.439 12L11.9697 4.53033L11.8971 4.44621C11.6792 4.1526 11.7034 3.73593 11.9697 3.46967Z"
		fill-rule="evenodd" />
</svg>