<svg viewBox="0 0 24 24" xmlns="http://www.w3.org/2000/svg"
	xmlns:xlink="http://www.w3.org/1999/xlink">
	<defs />
	<path id="矢量 44"
		d="M12.0303 3.46967C11.7374 3.17677 11.2626 3.17677 10.9697 3.46967L2.96967 11.4697L2.89706 11.5538C2.6792 11.8474 2.7034 12.2641 2.96967 12.5303L10.9697 20.5303L11.0538 20.603C11.3474 20.8208 11.7641 20.7966 12.0303 20.5303L12.1029 20.4462C12.3208 20.1526 12.2966 19.7359 12.0303 19.4697L4.561 12L12.0303 4.53033L12.1029 4.44621C12.3208 4.1526 12.2966 3.73593 12.0303 3.46967ZM21.0303 3.46967C20.7374 3.17677 20.2626 3.17677 19.9697 3.46967L11.9697 11.4697L11.8971 11.5538C11.6792 11.8474 11.7034 12.2641 11.9697 12.5303L19.9697 20.5303L20.0538 20.603C20.3474 20.8208 20.7641 20.7966 21.0303 20.5303L21.1029 20.4462C21.3208 20.1526 21.2966 19.7359 21.0303 19.4697L13.561 12L21.0303 4.53033L21.1029 4.44621C21.3208 4.1526 21.2966 3.73593 21.0303 3.46967Z"
		fill-rule="evenodd" />
</svg>