<?xml version="1.0" encoding="UTF-8"?>
<svg viewBox="0 0 24 24" version="1.1" xmlns="http://www.w3.org/2000/svg" xmlns:xlink="http://www.w3.org/1999/xlink">
    <g id="页面-1" stroke="none" stroke-width="1">
        <g id="画板" transform="translate(-789.000000, -1108.000000)">
            <g id="编组" transform="translate(789.000000, 1108.000000)">
                <path d="M14.1212947,2.21563236 C14.3875613,2.48179377 14.4117674,2.8982929 14.1939129,3.19178844 L14.1212947,3.27587365 L5.57445072,11.8193423 C5.4930915,11.9006694 5.47953163,12.024105 5.53377111,12.1194683 L5.57445072,12.1727561 L14.1212947,20.7162247 C14.414188,21.0090023 14.414188,21.4836885 14.1212947,21.776466 C13.8550282,22.0426274 13.4383645,22.0668239 13.144753,21.8490555 L13.0606346,21.776466 L4.51379055,13.2329974 C3.87057407,12.5900349 3.83273781,11.571086 4.40028176,10.8838898 L4.51379055,10.759101 L13.0606346,2.21563236 C13.3535278,1.92285481 13.8284015,1.92285481 14.1212947,2.21563236 Z M19.7800673,2.21563236 C20.0463339,2.48179377 20.0705399,2.8982929 19.8526855,3.19178844 L19.7800673,3.27587365 L11.2332233,11.8193423 C11.1518641,11.9006694 11.1383042,12.024105 11.1925437,12.1194683 L11.2332233,12.1727561 L19.7800673,20.7162247 C20.0729605,21.0090023 20.0729605,21.4836885 19.7800673,21.776466 C19.5138008,22.0426274 19.0971371,22.0668239 18.8035256,21.8490555 L18.7194072,21.776466 L10.1725631,13.2329974 C9.52934665,12.5900349 9.49151039,11.571086 10.0590543,10.8838898 L10.1725631,10.759101 L18.7194072,2.21563236 C19.0123004,1.92285481 19.4871741,1.92285481 19.7800673,2.21563236 Z" id="形状结合"></path>
            </g>
        </g>
    </g>
</svg>