<svg viewBox="0 0 24 24" xmlns="http://www.w3.org/2000/svg"
	xmlns:xlink="http://www.w3.org/1999/xlink">
	<defs />
	<g opacity="0.000000" />
	<path id="矢量 59"
		d="M11.9995 2C12.3793 2 12.693 2.28215 12.7427 2.64822L12.7495 2.75L12.7495 16.0538L16.9951 12.1951C17.3015 11.9164 17.7759 11.939 18.0545 12.2455C18.3078 12.5241 18.3121 12.9415 18.0806 13.2244L18.004 13.305L12.504 18.305C12.2466 18.539 11.8669 18.5624 11.5851 18.3752L11.4951 18.305L5.99506 13.305C5.68854 13.0263 5.66595 12.552 5.94458 12.2455C6.19788 11.9669 6.61292 11.9229 6.91656 12.1265L7.00403 12.1951L11.2495 16.0547L11.2495 2.75C11.2495 2.33578 11.5853 2 11.9995 2ZM21 15.5C21.3797 15.5 21.6935 15.7822 21.7432 16.1482L21.75 16.25L21.75 18.75C21.75 20.4877 20.3594 21.8996 18.6166 21.9949L18.4286 22L5.57141 22C3.80481 22 2.35327 20.648 2.25525 18.9349L2.25 18.75L2.25 16.25C2.25 15.8358 2.58582 15.5 3 15.5C3.3797 15.5 3.69348 15.7822 3.74316 16.1482L3.75 16.25L3.75 18.75C3.75 19.6636 4.48181 20.4207 5.42139 20.4942L5.57141 20.5L18.4286 20.5C19.3887 20.5 20.1685 19.7886 20.244 18.8929L20.25 18.75L20.25 16.25C20.25 15.8358 20.5858 15.5 21 15.5Z"
		fill-rule="evenodd" />
</svg>