<svg viewBox="0 0 24 24" xmlns="http://www.w3.org/2000/svg"
	xmlns:xlink="http://www.w3.org/1999/xlink">
	<defs />
	<g opacity="0.000000" />
	<path id="矢量 52"
		d="M17.3731 7.05307C16.2696 4.76361 13.9475 3.25 11.3382 3.25L11.099 3.25424C8.00107 3.36401 5.40985 5.59705 4.7789 8.58994L4.75299 8.72299L4.64127 8.74802C1.95996 9.3884 0 11.8149 0 14.6667C0 18.0252 2.7048 20.75 6.04413 20.75L17.2941 20.75C20.9989 20.75 24 17.7267 24 14L23.9959 13.7631C23.8747 10.2247 21.0471 7.37625 17.5296 7.25409L17.3731 7.05307ZM11.3382 4.75C8.66779 4.75 6.43582 6.78851 6.1608 9.44778C6.12473 9.79655 5.85181 10.0738 5.50363 10.1153C3.23221 10.3864 1.5 12.337 1.5 14.6667C1.5 17.1992 3.53571 19.25 6.04413 19.25L17.2941 19.25C20.168 19.25 22.5 16.9007 22.5 14C22.5 11.0993 20.168 8.75 17.3051 8.74992L17.1513 8.75183L16.9913 8.75885C16.6606 8.77332 16.3595 8.56923 16.2504 8.25665C15.523 6.17215 13.5641 4.75 11.3382 4.75ZM12.7432 8.89822C12.6935 8.53215 12.3797 8.25 12 8.25C11.5858 8.25 11.25 8.58578 11.25 9L11.249 15.173L9.03342 12.9315C8.74109 12.7119 8.2406 12.6606 7.97278 12.9253C7.67819 13.2165 7.67538 13.6913 7.96658 13.9859L11.4666 17.5272C11.7614 17.7482 12.2665 17.7973 12.5334 17.5272L16.0334 13.9859C16.2495 13.691 16.295 13.19 16.0272 12.9253C15.7324 12.7092 15.2313 12.6637 14.9666 12.9315L12.749 15.175L12.75 9L12.7432 8.89822Z"
		fill-rule="evenodd" />
</svg>