<svg viewBox="0 0 24 24" xmlns="http://www.w3.org/2000/svg"
	xmlns:xlink="http://www.w3.org/1999/xlink">
	<defs />
	<path id="矢量 51"
		d="M12.7427 2.64822C12.6931 2.28215 12.3792 2 11.9995 2C11.5853 2 11.2495 2.33578 11.2495 2.75L11.249 16.054L7.00406 12.195C6.70044 11.9914 6.19791 11.9669 5.94458 12.2455C5.66595 12.552 5.68854 13.0263 5.99506 13.305L11.4951 18.305C11.7769 18.4922 12.2466 18.539 12.5041 18.305L18.0041 13.305C18.2356 13.022 18.3078 12.5241 18.0545 12.2455C17.7759 11.939 17.3015 11.9164 16.9951 12.195L12.749 16.054L12.7495 2.75L12.7427 2.64822ZM21 15.5C21.3797 15.5 21.6935 15.7822 21.7432 16.1482L21.75 16.25L21.75 18.75C21.75 20.4877 20.3594 21.8996 18.6166 21.9949L18.4286 22L5.57144 22C3.80481 22 2.35327 20.648 2.25528 18.9349L2.25 18.75L2.25 16.25C2.25 15.8358 2.58578 15.5 3 15.5C3.3797 15.5 3.69348 15.7822 3.74316 16.1482L3.75 16.25L3.75 18.75C3.75 19.6636 4.48178 20.4207 5.42142 20.4942L5.57144 20.5L18.4286 20.5C19.3886 20.5 20.1684 19.7886 20.244 18.8929L20.25 18.75L20.25 16.25C20.25 15.8358 20.5858 15.5 21 15.5Z"
		fill-rule="evenodd" />
</svg>