<?xml version="1.0" encoding="UTF-8"?>
<svg viewBox="0 0 24 24" version="1.1" xmlns="http://www.w3.org/2000/svg" xmlns:xlink="http://www.w3.org/1999/xlink">
    <g id="页面-1" stroke="none" stroke-width="1">
        <g id="画板" transform="translate(-319.000000, -1256.000000)">
            <g id="编组" transform="translate(319.000000, 1256.000000)">
                <path d="M20,16.25 C20.3796958,16.25 20.693491,16.5321539 20.7431534,16.8982294 L20.75,17 L20.75,18.75 C20.75,20.3473465 19.501141,21.653637 17.9262793,21.744906 L17.75,21.75 L6.25,21.75 C4.6522559,21.75 3.34633461,20.5007576 3.25509245,18.9262382 L3.25,18.75 L3.25,17 C3.25,16.5857864 3.58578644,16.25 4,16.25 C4.37969577,16.25 4.69349096,16.5321539 4.74315338,16.8982294 L4.75,17 L4.75,18.75 C4.75,19.5294667 5.34492134,20.1704217 6.10554586,20.243131 L6.25,20.25 L17.75,20.25 C18.5296608,20.25 19.1704445,19.654896 19.2431331,18.8944219 L19.25,18.75 L19.25,17 C19.25,16.5857864 19.5857864,16.25 20,16.25 Z M11.9995,2.25 C12.3791958,2.25 12.692991,2.53215388 12.7426534,2.89822944 L12.7495,3 L12.749,15.885 L17.4696699,11.1659699 C17.7625631,10.8730767 18.2374369,10.8730767 18.5303301,11.1659699 C18.7965966,11.4322365 18.8208027,11.8489002 18.6029482,12.1425117 L18.5303301,12.2266301 L13.5913301,17.1656301 C13.1533286,17.6036315 12.5797283,17.8233525 12.0056821,17.8247929 L12.0055857,17.8249758 C11.4826992,17.8261051 10.9593463,17.6462433 10.5378223,17.2852074 L10.4086699,17.1656301 L5.46966991,12.2266301 C5.1767767,11.9337369 5.1767767,11.4588631 5.46966991,11.1659699 C5.73593648,10.8997034 6.15260016,10.8754973 6.44621165,11.0933518 L6.53033009,11.1659699 L11.249,15.884 L11.2495,3 C11.2495,2.58578644 11.5852864,2.25 11.9995,2.25 Z" id="形状结合"></path>
            </g>
        </g>
    </g>
</svg>