<?xml version="1.0" encoding="UTF-8"?>
<svg viewBox="0 0 24 24" version="1.1" xmlns="http://www.w3.org/2000/svg" xmlns:xlink="http://www.w3.org/1999/xlink">
    <g id="S12组件" stroke="none" stroke-width="1">
        <g id="DownloadCloud">
            <g id="编组" transform="translate(2.000000, 4.500000)">
                <path d="M10,0 C12.8185586,0 14.2480407,1.66583461 15.3576072,4.06666479 C17.9885201,4.47906106 20,6.75462738 20,9.5 C20,12.5375661 17.5375661,15 14.5,15 L6.5,15 L6.25498353,14.9936109 C6.17052437,14.9978533 6.08551288,15 6,15 L5,15 C2.23857625,15 0,12.7614237 0,10 L0.00461951385,9.78311038 L0.018352984,9.56858086 L0.0448762426,9.32721424 L0.0762732897,9.12517529 L0.107390591,8.96434246 L0.155776012,8.75680253 L0.240963969,8.46212605 L0.322362581,8.22990478 L0.38828468,8.06477861 L0.517720655,7.78183048 L0.64156465,7.54788159 L0.796447611,7.29146418 L0.899662697,7.13791281 L1.07355681,6.90401906 L1.17429857,6.78050791 L1.29007202,6.64786528 L1.46446609,6.46446609 L1.61016998,6.32449924 L1.67870046,6.26241999 C1.78576469,6.16721145 1.89694737,6.07653363 2.01194776,5.99068726 L2.13042483,5.90490609 L2.37887928,5.74127655 L2.55483922,5.63764851 L2.85119825,5.48399391 L3.04952722,5.39472349 L3.20675569,5.33119333 L3.51942624,5.22284351 L3.67724875,5.17683618 L3.92932961,5.11489838 L4.25913311,5.05451001 L4.27784851,5.04088032 C5.12522431,2.12840617 6.81405421,0 10,0 Z M10,1.5 C7.53806372,1.5 6.39533302,3.13233244 5.71812678,5.45992506 C5.63860052,5.73326093 5.4832472,5.9773498 5.27141975,6.16463371 L5.14217404,6.26704402 C5.00569386,6.36643718 4.85374773,6.44183513 4.69288711,6.49042717 L4.52929765,6.52997981 L4.2872432,6.57157194 L4.09704491,6.61689562 L4.01056851,6.64015761 L3.76870925,6.72195147 L3.66520259,6.76254799 L3.54162779,6.81564967 L3.31603614,6.93015741 L3.20391154,6.99400229 L3.01010501,7.11988048 L2.90924343,7.19271075 L2.79162213,7.28435116 L2.64931974,7.40624218 L2.55147724,7.49810373 L2.42015579,7.63422762 L2.336676,7.72860006 L2.27731657,7.79898411 L2.14455783,7.97471394 L2.08040046,8.06700598 L1.967273,8.24966316 L1.88177143,8.40582205 L1.78137285,8.62093087 L1.73791966,8.72608836 L1.68195804,8.87870269 L1.61660098,9.09737619 L1.58008024,9.24927263 L1.55848278,9.35551208 L1.53590094,9.49105973 L1.5152888,9.66440974 L1.5042794,9.81505151 L1.5,10 C1.5,11.8685634 2.9642776,13.3951264 4.8079648,13.4948211 L5,13.5 L6,13.5 L6.29408462,13.4941206 L6.5,13.5 L14.5,13.5 C16.709139,13.5 18.5,11.709139 18.5,9.5 C18.5,7.52362528 17.0565368,5.8512886 15.1253182,5.54856959 C14.6300497,5.47093613 14.2063036,5.15101618 13.99599,4.6959491 C13.1027942,2.76329205 12.1663509,1.5 10,1.5 Z M10.5303301,12.5303301 L10.564,12.491 L13.0391956,10.0152254 C13.3320888,9.72233216 13.3320888,9.24745843 13.0391956,8.95456521 C12.772929,8.68829865 12.3562653,8.66409259 12.0626538,8.88194705 L11.9785354,8.95456521 L10.75,10.183 L10.75,6 C10.75,5.58578644 10.4142136,5.25 10,5.25 C9.62030423,5.25 9.30650904,5.53215388 9.25684662,5.89822944 L9.25,6 L9.25,10.19 L8.03033009,8.96966991 C7.73743687,8.6767767 7.26256313,8.6767767 6.96966991,8.96966991 C6.70340335,9.23593648 6.6791973,9.65260016 6.89705176,9.94621165 L6.96966991,10.0303301 L9.46966991,12.5303301 C9.76256313,12.8232233 10.2374369,12.8232233 10.5303301,12.5303301 Z" id="形状"></path>
            </g>
        </g>
    </g>
</svg>