<?xml version="1.0" encoding="UTF-8"?>
<svg viewBox="0 0 24 24" version="1.1" xmlns="http://www.w3.org/2000/svg" xmlns:xlink="http://www.w3.org/1999/xlink">
    <g id="S12组件" stroke="none" stroke-width="1" fill-rule="evenodd">
        <g id="DownloadLink" fill-rule="nonzero">
            <g id="编组">
                <rect id="矩形" fill="#FFFFFF" opacity="0" x="0" y="0" width="24" height="24"></rect>
                <path d="M20,16.25 C20.3796959,16.25 20.693491,16.5321539 20.7431526,16.8982294 L20.75,17 L20.75,18.75 C20.75,20.3473463 19.5011406,21.6536369 17.9262791,21.7449059 L17.75,21.75 L6.25,21.75 C4.65225589,21.75 3.34633461,20.5007577 3.25509245,18.9262383 L3.25,18.75 L3.25,17 C3.25,16.5857864 3.58578643,16.25 4,16.25 C4.37969577,16.25 4.69349098,16.5321539 4.74315333,16.8982294 L4.75,17 L4.75,18.75 C4.75,19.5294666 5.34492135,20.1704216 6.10554576,20.2431309 L6.25,20.25 L17.75,20.25 C18.5296612,20.25 19.1704445,19.654896 19.2431326,18.8944218 L19.25,18.75 L19.25,17 C19.25,16.5857864 19.5857868,16.25 20,16.25 Z M11.9994998,2.25 C12.3791956,2.25 12.6929908,2.53215387 12.7426531,2.89822942 L12.7494998,3 L12.749,15.885 L17.4696703,11.1659695 C17.7625628,10.8730762 18.2374372,10.8730762 18.5303297,11.1659695 C18.7965965,11.432236 18.8208027,11.8488997 18.6029482,12.1425112 L18.5303297,12.2266296 L13.5913305,17.1656299 C13.153329,17.6036312 12.5797285,17.8233521 12.0056821,17.8247925 L12.0055855,17.8249756 C11.4826992,17.8261047 10.9593461,17.6462429 10.5378222,17.2852068 L10.4086699,17.1656299 L5.46966991,12.2266296 C5.17677669,11.9337364 5.17677669,11.4588627 5.46966991,11.1659695 C5.73593646,10.8997029 6.15260017,10.8754969 6.4462117,11.0933513 L6.53033006,11.1659695 L11.249,15.884 L11.2494998,3 C11.2494998,2.58578643 11.5852862,2.25 11.9994998,2.25 Z" id="形状结合"></path>
            </g>
        </g>
    </g>
</svg>