<svg width="24.000000" height="24.000000" viewBox="0 0 24 24" xmlns="http://www.w3.org/2000/svg" xmlns:xlink="http://www.w3.org/1999/xlink">
	<g clip-path="url(#clip451_2372)">
		<g opacity="0.000000"/>
		<path id="矢量 251" d="M4.2 2.23C2.57 2.23 1.26 3.55 1.26 5.17C1.26 6.79 2.57 8.11 4.2 8.11C5.6 8.11 6.77 7.13 7.06 5.82L16.28 5.82C16.47 5.82 16.66 5.84 16.84 5.88C16.98 5.91 17.11 5.96 17.24 6.01C17.54 6.14 17.8 6.32 18.03 6.54C18.26 6.77 18.44 7.04 18.56 7.33C18.62 7.46 18.66 7.6 18.7 7.74C18.74 7.92 18.76 8.11 18.76 8.3C18.76 8.49 18.74 8.68 18.7 8.86C18.66 9 18.62 9.13 18.56 9.26C18.44 9.56 18.26 9.82 18.03 10.05C17.91 10.17 17.77 10.28 17.63 10.38C17.51 10.46 17.38 10.52 17.24 10.58C17.11 10.64 16.98 10.68 16.84 10.71C16.66 10.76 16.47 10.78 16.28 10.78L13.54 10.78C13.14 9.62 12.05 8.8 10.76 8.8C9.47 8.8 8.38 9.62 7.98 10.78L5.24 10.78C4.94 10.78 4.66 10.81 4.38 10.87C4.14 10.92 3.91 10.99 3.69 11.09C3.46 11.19 3.25 11.3 3.05 11.43C2.82 11.58 2.62 11.75 2.42 11.94C2.23 12.13 2.06 12.34 1.91 12.57C1.78 12.77 1.67 12.98 1.57 13.21C1.48 13.43 1.4 13.66 1.35 13.9C1.29 14.18 1.26 14.46 1.26 14.76C1.26 15.3 1.36 15.81 1.57 16.3C1.77 16.78 2.06 17.2 2.42 17.57C2.62 17.76 2.82 17.93 3.05 18.08C3.25 18.21 3.46 18.33 3.69 18.42C3.91 18.52 4.14 18.59 4.38 18.64C4.66 18.7 4.94 18.73 5.24 18.73L12.84 18.73L12.28 20.79C12.25 20.92 12.25 21.05 12.28 21.18C12.35 21.42 12.46 21.59 12.61 21.68C12.77 21.76 12.96 21.77 13.21 21.71L15.89 20.98C15.97 20.96 16.05 20.93 16.12 20.89C16.19 20.85 16.26 20.8 16.31 20.74L22.05 15.47C22.27 15.25 22.45 14.98 22.57 14.7C22.62 14.57 22.66 14.44 22.69 14.31C22.72 14.16 22.73 14.01 22.73 13.86C22.73 13.7 22.72 13.55 22.69 13.41C22.66 13.27 22.62 13.14 22.57 13.01C22.51 12.88 22.45 12.76 22.38 12.64C22.29 12.51 22.19 12.38 22.07 12.27C21.96 12.15 21.83 12.05 21.7 11.96C21.58 11.89 21.46 11.82 21.33 11.77C21.2 11.72 21.07 11.68 20.93 11.65C20.78 11.62 20.63 11.61 20.48 11.61C20.19 11.61 19.91 11.66 19.64 11.77C19.45 11.85 19.27 11.95 19.12 12.07C19.04 12.12 18.97 12.19 18.9 12.26L13.72 17.23L5.24 17.23C5.05 17.23 4.86 17.21 4.68 17.17C4.54 17.14 4.4 17.1 4.27 17.04C3.98 16.91 3.71 16.74 3.48 16.51C3.26 16.28 3.08 16.02 2.95 15.72C2.9 15.59 2.85 15.45 2.82 15.32C2.78 15.13 2.76 14.95 2.76 14.76C2.76 14.56 2.78 14.38 2.82 14.19C2.85 14.06 2.9 13.92 2.95 13.79C3.08 13.49 3.26 13.23 3.48 13C3.61 12.88 3.74 12.77 3.89 12.68C4.01 12.6 4.14 12.53 4.27 12.47C4.4 12.42 4.54 12.37 4.68 12.34C4.86 12.3 5.05 12.28 5.24 12.28L7.87 12.28C8.12 13.64 9.32 14.67 10.76 14.67C12.2 14.67 13.39 13.64 13.65 12.28L16.28 12.28C16.57 12.28 16.86 12.25 17.14 12.18C17.37 12.13 17.6 12.06 17.83 11.96C18.05 11.87 18.27 11.75 18.47 11.62C18.69 11.47 18.9 11.3 19.09 11.11C19.46 10.74 19.74 10.32 19.95 9.85C20.04 9.62 20.11 9.39 20.17 9.16C20.23 8.88 20.26 8.59 20.26 8.3C20.26 8 20.23 7.72 20.17 7.44C20.11 7.2 20.04 6.97 19.95 6.75C19.74 6.27 19.46 5.85 19.09 5.48C18.9 5.29 18.69 5.12 18.47 4.97C18.27 4.84 18.05 4.73 17.83 4.63C17.6 4.54 17.37 4.46 17.14 4.41C16.86 4.35 16.57 4.32 16.28 4.32L7.01 4.32C6.64 3.11 5.52 2.23 4.2 2.23ZM4.2 3.73C3.4 3.73 2.76 4.38 2.76 5.17C2.76 5.97 3.4 6.61 4.2 6.61C4.99 6.61 5.63 5.97 5.63 5.17C5.63 4.38 4.99 3.73 4.2 3.73ZM20.73 14.65L19.68 13.59L19.94 13.34C20.03 13.25 20.13 13.18 20.24 13.15C20.31 13.12 20.39 13.11 20.48 13.11C20.69 13.11 20.87 13.18 21.01 13.33C21.09 13.4 21.14 13.48 21.18 13.57C21.21 13.66 21.23 13.75 21.23 13.86C21.23 13.96 21.21 14.06 21.18 14.14C21.14 14.23 21.09 14.31 21.02 14.38L20.73 14.65ZM14.08 19.92L14.43 18.63L18.59 14.63L19.62 15.66L15.39 19.56L14.08 19.92Z" fill-opacity="1.000000" fill-rule="evenodd"/>
	</g>
</svg>
