<?xml version="1.0" encoding="UTF-8"?>
<svg viewBox="0 0 24 24" version="1.1" xmlns="http://www.w3.org/2000/svg" xmlns:xlink="http://www.w3.org/1999/xlink">
    <g id="ic_earth_lined" stroke="none" stroke-width="1">
        <path d="M12,2 C17.5228475,2 22,6.4771525 22,12 C22,17.5228475 17.5228475,22 12,22 C6.4771525,22 2,17.5228475 2,12 C2,6.4771525 6.4771525,2 12,2 Z M15.5447265,4.27213158 L15.5264648,4.34460991 C15.1532278,5.67309036 14.3886695,6.69582637 13.2460792,7.37754921 L13.0125246,7.50933649 C12.3848311,7.84403554 12.1100593,8.31656977 12.0430475,9.01879686 C12.0231738,9.22705633 12.0210646,9.43119354 12.0355697,9.68971685 L12.0608772,10.0297947 L12.1291175,10.7628635 L12.138019,10.9385334 L12.1391536,11.0527806 C12.1391536,11.5960867 11.5794551,11.9591286 11.0833597,11.7376091 C10.2923109,11.3843851 9.77917533,11.2729056 8.83347211,11.1987167 L8.56429443,11.1792543 C7.398667,11.1010741 6.85569951,10.9430463 6.21762934,10.2995443 C5.62479309,9.70166135 5.50655584,9.17348799 5.56381672,8.1938912 L5.60043434,7.64900789 L5.60436801,7.49508734 L5.60044802,7.36098826 C5.58512451,7.09475241 5.51894076,6.89135156 5.35993396,6.69516629 C4.1953901,8.14898592 3.5,9.99328443 3.5,12 C3.5,16.4328985 6.89337949,20.0732307 11.2242142,20.4650724 L11.2364609,20.4056106 L11.2364609,20.4056106 L11.2540882,20.3469855 C11.5633634,19.4549375 11.461676,19.0030161 10.9350793,18.3598753 L10.4586637,17.8087556 C10.054545,17.3215673 9.8442269,16.8967822 9.8442269,16.3510341 C9.84469649,15.2428952 11.1309083,14.2064661 12.3459732,14.0452157 C12.5527057,14.0177804 12.7549186,14.0440232 12.9489452,14.1145373 C13.164059,14.192715 13.347191,14.3119499 13.5660675,14.4915364 L14.0172523,14.877619 C14.6634619,15.4111994 15.1844974,15.5417153 16.1272021,15.1849446 C16.4392124,15.0668629 16.7917125,15.1690653 16.992171,15.4357301 C17.4905248,16.0986771 17.6957933,17.2336382 17.6426347,18.3567421 C19.3957326,16.7996172 20.5,14.5287664 20.5,12 C20.5,8.57074532 18.4692506,5.61579758 15.5447265,4.27213158 Z M12.474,15.545 L12.4239338,15.5544557 C11.9427292,15.6688514 11.4299906,16.0736563 11.3538856,16.299021 L11.3442269,16.3513519 C11.3442269,16.4548392 11.3936602,16.5694649 11.5347786,16.7532024 L11.7757248,17.0392118 L11.9463381,17.2331432 L12.0841325,17.3960223 C12.8512873,18.3323802 13.1274105,19.2110794 12.7879131,20.4624227 C13.8614333,20.3654373 14.8781837,20.0667697 15.7994785,19.6056305 L15.9489497,19.5285667 L15.95743,19.4786013 L15.95743,19.4786013 L15.9694214,19.4286415 C16.1904711,18.6275883 16.2000217,17.580719 16.0265664,16.8886333 L15.998,16.789 L15.9801529,16.7945361 C14.8982193,17.0383821 14.0437087,16.7871761 13.2254218,16.1638643 L13.0621908,16.0342769 L12.614607,15.6511582 L12.5151241,15.5736581 L12.474,15.545 Z M12,3.5 C9.85411704,3.5 7.8939598,4.29518636 6.39812097,5.6069664 C6.84943129,6.09085311 7.06143022,6.6399485 7.09796964,7.27479666 C7.10199431,7.34472266 7.10421728,7.40985598 7.10464317,7.47624774 L7.10053423,7.68524951 L7.06230312,8.26080456 C7.02581096,8.84167693 7.07090798,9.02971808 7.28277542,9.2433891 C7.54574013,9.50859238 7.75870311,9.59960012 8.32095372,9.65505886 L8.66467591,9.6826169 C9.41469937,9.73292198 9.95987447,9.79656625 10.4945318,9.93488887 L10.549,9.949 L10.5480091,9.93283606 C10.5234568,9.59565131 10.5184249,9.32425052 10.5363174,9.04522233 L10.549831,8.87630283 C10.6547841,7.77648394 11.1356306,6.89209802 12.1061022,6.30020165 L12.3067585,6.18574507 C13.2555235,5.67984415 13.8561532,4.89053296 14.1270294,3.76902763 C13.4469007,3.5931179 12.7343248,3.5 12,3.5 Z" id="形状"></path>
    </g>
</svg>