<svg viewBox="0 0 24 24" xmlns="http://www.w3.org/2000/svg"
	xmlns:xlink="http://www.w3.org/1999/xlink">
	<defs />
	<g opacity="0.000000" />
	<path id="矢量 123"
		d="M19.9749 19.209L20.1617 18.9969C20.3422 18.7868 20.514 18.5703 20.6769 18.3479L20.9625 17.9388L21.2073 17.5522L21.4292 17.1671L21.6538 16.7351L21.8093 16.4042L21.9246 16.138L22.0792 15.7451L22.2145 15.3587L22.2991 15.0884L22.4392 14.5749C22.5035 14.3132 22.558 14.0485 22.6023 13.7811L22.6755 13.2696C22.7249 12.8515 22.75 12.4278 22.75 12C22.75 8.23547 20.8149 4.9229 17.8849 3.00264L17.6171 2.83247L17.3694 2.68491L17.0391 2.50179L16.6943 2.32639L16.5389 2.25246L16.2213 2.11053L15.8024 1.94186L15.4615 1.8196L15.2806 1.75978L14.8896 1.64285L14.715 1.59593L14.5316 1.5498L14.3014 1.49692C14.0651 1.44536 13.8258 1.4016 13.5836 1.36595L13.3611 1.33534L13.1713 1.31308L12.8535 1.28339L12.4105 1.25772L12.1928 1.25169L12 1.25L11.5797 1.2581L11.1624 1.28229C10.7786 1.31197 10.3992 1.36194 10.0258 1.43134L9.77307 1.48143L9.20667 1.61699C8.94745 1.68654 8.69141 1.76569 8.43903 1.85419L8.10559 1.97736L7.83643 2.08617L7.54065 2.21567L7.24231 2.35735L6.93726 2.51416L6.67401 2.65961L6.30078 2.883L5.97192 3.09741L5.69763 3.28983L5.41565 3.50142L5.09619 3.75894L4.83887 3.98193L4.6828 4.12463L4.37531 4.42178L4.02484 4.7916L3.89343 4.93958C3.00378 5.96027 2.31268 7.14021 1.8609 8.41949C1.45819 9.55989 1.25 10.7663 1.25 12C1.25 13.1643 1.43512 14.2854 1.7807 15.3447L1.83899 15.5184L1.97638 15.892L2.1084 16.216L2.25409 16.5425L2.4209 16.8839L2.61768 17.2513L2.76978 17.5137L3.03333 17.9318L3.26837 18.272L3.50153 18.584L3.75403 18.8972L4.10889 19.3003L4.31042 19.5122L4.47192 19.674L4.74591 19.9336L5.00757 20.1653L5.18164 20.3114C5.33594 20.4381 5.49377 20.5606 5.65485 20.6784L5.88794 20.8444L6.13 21.0072L6.53314 21.2581C6.69031 21.3511 6.8501 21.4402 7.01239 21.5252L7.18335 21.6131L7.54736 21.7871L7.92151 21.9493C8.1076 22.0257 8.29633 22.0969 8.48749 22.1628L8.68866 22.2303L9.08655 22.3503L9.53772 22.4667C10.3285 22.652 11.1528 22.75 12 22.75C12.4761 22.75 12.9474 22.7189 13.4111 22.6581L13.6715 22.6206L14.0668 22.5512L14.2488 22.5141L14.5839 22.4371L15.0228 22.3189L15.3837 22.2064L15.7325 22.0841L16.0917 21.9437L16.4332 21.796L16.7925 21.6251L17.1771 21.4238L17.4865 21.2464L17.7185 21.1047L18.0071 20.9165L18.396 20.6411L18.7151 20.3952L18.8984 20.245L19.0433 20.1215L19.3475 19.8471C19.5662 19.6423 19.7754 19.4294 19.9749 19.209ZM11.6664 2.75592L12 2.75L12.3179 2.75536C12.5646 2.76369 12.8088 2.78168 13.0502 2.80896C13.1607 2.82144 13.2706 2.83589 13.38 2.85225L13.491 2.86946L13.7297 2.91145L14.0062 2.96799L14.1967 3.01221L14.4254 3.07126L14.6733 3.14189L14.8251 3.18907L15.0844 3.27672L15.2488 3.3363L15.5259 3.44539L15.8661 3.59389L16.1748 3.74318L16.408 3.86583L16.574 3.96001L16.5166 4.0659C16.1575 4.69154 15.8185 4.8779 14.9702 4.89874L14.5991 4.90553C12.9257 4.98738 11.605 6.11815 11.5095 7.51967L11.4985 7.81329C11.4229 8.74138 10.5731 9.91667 9.77777 9.91667C8.39081 9.91667 7.4881 9.11322 7.42072 7.32983L7.41296 6.86859L7.40747 6.73878L7.39319 6.54953L7.36609 6.36185C7.33105 6.16814 7.27942 6.05466 7.10352 5.89893L6.88049 5.71248C6.65186 5.53206 6.40643 5.36977 6.14453 5.22552L5.862 5.08L6.17578 4.81281L6.46277 4.58904L6.82581 4.33076L7.08508 4.16171L7.35291 3.99971L7.62811 3.84578L7.95679 3.67767L8.22699 3.55164L8.54297 3.41747L8.82898 3.30777L9.12622 3.20514L9.41016 3.11758L9.74353 3.02737L9.95007 2.97816L10.1246 2.94044L10.4249 2.88379L10.699 2.84096L11.0172 2.80173L11.2273 2.78192L11.6664 2.75592ZM17.8183 4.80864C17.16 5.93449 16.3313 6.40079 14.7936 6.40079C13.7452 6.40079 13.004 7.03618 13.004 7.68254C13.004 9.36264 11.5819 11.4167 9.77777 11.4167C7.59326 11.4167 6.01477 9.9861 5.92108 7.36073L5.91504 6.96867L5.91101 6.85899L5.73254 6.73006C5.4657 6.54924 5.16699 6.39604 4.83533 6.27072C4.19666 7.07298 3.61768 7.94955 3.27527 8.91898C2.92908 9.89949 2.75 10.937 2.75 12C2.75 12.8161 2.85571 13.6074 3.05408 14.3612L3.5 14.361L3.82806 14.3169C5.81396 14.0583 7.27026 14.0773 8.23718 14.3996C9.5318 14.8311 10.0834 16.3019 10.0834 18.6667L10.0834 21.0512C10.7018 21.1815 11.3429 21.25 12 21.25C12.2014 21.25 12.4017 21.2435 12.6007 21.2308L12.5859 20.2104L12.5878 19.91L12.5959 19.6258C12.6335 18.6803 12.7842 17.9523 13.1418 17.3803C13.6863 16.5091 14.4412 15.9429 15.3788 15.7156C15.4529 15.6976 15.5292 15.691 15.6052 15.6961C16.5533 15.759 17.0922 15.6513 17.2016 15.5199C17.2286 15.4874 17.2491 15.4387 17.2644 15.353L17.2837 15.1944L17.2964 14.965L17.3107 14.5041C17.3326 14.0669 17.3914 13.766 17.5499 13.4454C18.0204 12.4937 18.621 12.0161 19.8181 11.7168C20.1976 11.6219 20.6687 11.5719 21.2372 11.5634C21.1132 8.83704 19.8063 6.41902 17.8183 4.80864ZM21.0146 13.0702L21.187 13.064L21.1641 13.2613C21.1154 13.6188 21.046 13.9712 20.957 14.3169L20.8853 14.5802L20.8463 14.7101L20.7402 15.0357L20.6682 15.2364L20.6295 15.3373L20.5109 15.6295L20.3645 15.955C20.2118 16.2776 20.0405 16.591 19.8514 16.8938L19.7123 17.1101L19.5325 17.371L19.3202 17.6562L19.1146 17.9122L18.9149 18.1442L18.6761 18.4026L18.401 18.6776L18.0654 18.984L17.8706 19.1487C17.7335 19.2615 17.5933 19.3702 17.4502 19.4747L17.2711 19.6026L17.1251 19.7021L16.9772 19.7986L16.8098 19.9033L16.496 20.0863L16.2828 20.2011L15.9785 20.3536L15.6044 20.5216L15.2481 20.6638L14.9032 20.7854L14.5844 20.8843L14.3868 20.9391L14.098 21.009L14.0861 20.2162L14.0875 19.9403L14.0947 19.6855C14.1228 18.9789 14.2275 18.4733 14.4138 18.1753L14.531 18.0013L14.655 17.8436C14.91 17.5444 15.207 17.3414 15.5544 17.2246L15.7616 17.2068C17.0137 17.2599 17.8723 17.0581 18.3539 16.4801C18.6858 16.0819 18.7689 15.7366 18.7944 15.0487L18.8077 14.6033C18.8198 14.3494 18.8457 14.2089 18.8945 14.1102C19.1683 13.5564 19.4085 13.3654 20.1819 13.1721C20.3922 13.1195 20.6708 13.085 21.0146 13.0702ZM20.6682 15.2364L20.6295 15.3373L20.6682 15.2364ZM20.6295 15.3373L20.5109 15.6295L20.6295 15.3373ZM7.76282 15.8226C7.01245 15.5725 5.62927 15.5725 3.66162 15.8536L3.66455 16.0157L3.849 16.3769L3.98743 16.6249L4.11823 16.8443L4.35718 17.2121L4.49243 17.405C4.62024 17.5822 4.75415 17.7546 4.8938 17.922L5.09705 18.1575L5.34253 18.422L5.63831 18.715L5.87903 18.9353L6.12598 19.1458L6.33521 19.313L6.60791 19.5167L6.87775 19.7035L7.23706 19.9312L7.43567 20.0474C7.63489 20.1606 7.83856 20.2666 8.04651 20.3651L8.30231 20.4813L8.58301 20.597L8.58337 18.6667C8.58337 16.9682 8.20935 16.0433 7.76282 15.8226Z"
		fill-rule="evenodd" />
</svg>