<?xml version="1.0" encoding="UTF-8"?>
<svg viewBox="0 0 16 16" version="1.1" xmlns="http://www.w3.org/2000/svg" xmlns:xlink="http://www.w3.org/1999/xlink">
    <g id="S12组件" stroke="none" stroke-width="1" fill-rule="evenodd">
        <g id="editor-title">
            <rect id="矩形备份-11" opacity="0" x="0" y="0" width="16" height="16"></rect>
            <path d="M13.5713675,7.75269698 L13.578407,7.837994 L13.578407,13.0760491 C13.578407,13.3521915 13.3545494,13.5760491 13.078407,13.5760491 C12.8329471,13.5760491 12.6287986,13.3991739 12.5864627,13.1659247 L12.578407,13.0760491 L12.578,8.686 L11.6206466,9.21688158 C11.4059176,9.3358018 11.1416356,9.27997662 10.9915956,9.09644047 L10.9410056,9.02171982 C10.8220854,8.80699084 10.8779106,8.54270884 11.0614467,8.39266882 L11.1361674,8.34207882 L12.8361674,7.40059262 C13.1437867,7.23022831 13.5159343,7.42248511 13.5713675,7.75269698 Z M9,2.49644165 C9.24545989,2.49644165 9.44960837,2.67331681 9.49194433,2.90656602 L9.5,2.99644165 L9.5,12.9964417 C9.5,13.272584 9.27614237,13.4964417 9,13.4964417 C8.75454011,13.4964417 8.55039163,13.3195665 8.50805567,13.0863173 L8.5,12.9964417 L8.5,8.49944165 L3.5,8.49944165 L3.5,12.9964417 C3.5,13.272584 3.27614237,13.4964417 3,13.4964417 C2.75454011,13.4964417 2.55039163,13.3195665 2.50805567,13.0863173 L2.5,12.9964417 L2.5,2.99644165 C2.5,2.72029928 2.72385763,2.49644165 3,2.49644165 C3.24545989,2.49644165 3.44960837,2.67331681 3.49194433,2.90656602 L3.5,2.99644165 L3.5,7.49944165 L8.5,7.49944165 L8.5,2.99644165 C8.5,2.72029928 8.72385763,2.49644165 9,2.49644165 Z" id="形状结合"></path>
        </g>
    </g>
</svg>