<?xml version="1.0" encoding="UTF-8"?>
<svg viewBox="0 0 24 24" version="1.1" xmlns="http://www.w3.org/2000/svg" xmlns:xlink="http://www.w3.org/1999/xlink">
    <g id="S12组件" stroke="none" stroke-width="1">
        <g id="EditorTab">
            <g id="编组-7备份" transform="translate(3.000000, 2.000000)">
                <path d="M12.7789474,0.4 C13.9053798,0.4 14.9460962,0.923623055 15.6133118,1.79676115 L15.652274,1.85506706 C15.7472075,1.84252083 15.8428661,1.83624771 15.9385812,1.83624771 C16.5022654,1.83624771 17.0678444,2.05319508 17.4998444,2.48614245 C18.317288,3.30358606 18.3639475,4.59707693 17.6340943,5.4500379 L17.5187917,5.5745635 L10.417318,12.6760372 C10.3661601,12.7278267 10.3091075,12.7733003 10.2475637,12.8116161 L10.1520549,12.8636161 L6.2242654,14.7157214 C6.12100225,14.7640372 6.01584435,14.7858267 5.9154233,14.7858267 C5.45802198,14.7858267 5.08305282,14.3287029 5.23390089,13.8562792 L5.27121277,13.7617214 L7.12237067,9.83393192 C7.15331804,9.76887929 7.19184435,9.70677403 7.23710751,9.64986175 L7.30994961,9.56866876 L14.3637369,2.51556551 C14.0008839,2.11862099 13.4976369,1.86997782 12.9476783,1.82754095 L12.7789474,1.82105263 L4.25263158,1.82105263 C3.12472803,1.82105263 2.2042993,2.68184255 2.12639417,3.76853452 L2.12105263,3.91806038 L2.12105263,18.1745402 C2.12105263,18.2139588 2.13194747,18.2528141 2.15281593,18.2871718 C2.20828498,18.3784957 2.32115841,18.4193084 2.42346342,18.3911263 L2.48303443,18.3657899 L8.15351213,15.0048884 C8.3449759,14.8914076 8.57643016,14.875196 8.77931978,14.9562538 L8.87806681,15.0048884 L14.5485445,18.3657899 C14.586215,18.3881172 14.6295756,18.4 14.6736842,18.4 C14.7874078,18.4 14.8801831,18.3243861 14.9043695,18.2256135 L14.9105263,18.1745402 L14.9105263,9.41519508 C14.9105263,9.02278223 15.2286398,8.70466876 15.6210526,8.70466876 C15.9807644,8.70466876 16.2780441,8.97197244 16.3250927,9.31878087 L16.3315789,9.41519508 L16.3315789,18.1745402 C16.3315789,19.0857588 15.5873863,19.8211293 14.6736842,19.8211293 C14.4344442,19.8211293 14.1986745,19.7695534 13.9823436,19.6709586 L13.8239898,19.5882509 L8.51484211,16.4418267 L3.20758911,19.5882509 C2.46820291,20.0264863 1.52209531,19.8273273 1.02178053,19.1494477 L0.938250108,19.0248848 C0.80840485,18.8111084 0.729516891,18.5713129 0.706827718,18.323816 L0.7,18.1745402 L0.7,3.91806038 C0.7,2.0358693 2.19141583,0.501879122 4.06413026,0.404870589 L4.25263158,0.4 L12.7789474,0.4 Z M14.23,4.65624771 L8.37289698,10.5150898 L7.39237067,12.5926688 L9.47089698,11.6130898 L15.33,5.75424771 L14.23,4.65624771 Z M5.2,3.25730034 C5.9848257,3.25730034 6.62105263,3.89352728 6.62105263,4.67835297 C6.62105263,5.46317867 5.9848257,6.09940561 5.2,6.09940561 C4.4151743,6.09940561 3.77894737,5.46317867 3.77894737,4.67835297 C3.77894737,3.89352728 4.4151743,3.25730034 5.2,3.25730034 Z M15.9385812,3.25730034 L15.8830151,3.25936909 C15.781028,3.26690937 15.6355393,3.29813386 15.4973009,3.40137768 L15.4156338,3.47235297 L15.236,3.65124771 L16.334,4.75024771 L16.5145812,4.57035297 C16.6753631,4.40957102 16.7178207,4.22234009 16.7266702,4.09874579 L16.7286865,4.04266876 C16.7277391,3.83519508 16.6443707,3.63908982 16.4956338,3.49035297 C16.3450022,3.34066876 16.1470022,3.25730034 15.9385812,3.25730034 Z" id="形状结合"></path>
            </g>
        </g>
    </g>
</svg>