<svg viewBox="0 0 24 24" xmlns="http://www.w3.org/2000/svg"
	xmlns:xlink="http://www.w3.org/1999/xlink">
	<defs />
	<g opacity="0.000000" />
	<path id="矢量 233"
		d="M5.24316 3.89825C5.19348 3.53217 4.8797 3.25 4.5 3.25C4.08578 3.25 3.75 3.58582 3.75 4L3.75 20L3.75684 20.1017C3.80652 20.4678 4.1203 20.75 4.5 20.75C4.91422 20.75 5.25 20.4142 5.25 20L5.25 13.25L13.75 13.25L13.75 20L13.7568 20.1017C13.8065 20.4678 14.1203 20.75 14.5 20.75C14.9142 20.75 15.25 20.4142 15.25 20L15.25 4L15.2432 3.89825C15.1935 3.53217 14.8797 3.25 14.5 3.25C14.0858 3.25 13.75 3.58582 13.75 4L13.75 11.75L5.25 11.75L5.25 4L5.24316 3.89825ZM20.2431 13.8983C20.1935 13.5322 19.8797 13.25 19.5 13.25L18.2364 13.25L18.1248 13.2584C17.9412 13.286 17.7729 13.3811 17.6542 13.5272L16.4178 15.0499L16.3542 15.1411C16.1678 15.4556 16.2349 15.8676 16.5272 16.1049L16.6184 16.1685C16.9329 16.3549 17.3448 16.2878 17.5822 15.9955L18.592 14.75L18.749 14.75L18.75 20.5L18.7568 20.6017C18.8065 20.9678 19.1203 21.25 19.5 21.25C19.9142 21.25 20.25 20.9142 20.25 20.5L20.25 14L20.2431 13.8983Z"
		fill-rule="evenodd" />
</svg>