<svg viewBox="0 0 24 24" xmlns="http://www.w3.org/2000/svg"
	xmlns:xlink="http://www.w3.org/1999/xlink">
	<defs />
	<g opacity="0.000000" />
	<path id="矢量 217"
		d="M14.8876 2.99133L22.5516 11.2967C22.8163 11.5835 22.8167 12.0254 22.5526 12.3128L14.8886 20.6526C14.416 21.0479 13.5864 20.7927 13.5864 20.1451L13.5874 15.519L13.3069 15.5263C11.4573 15.5897 9.81567 15.827 8.38232 16.2363C5.93246 16.9357 4.4769 18.2374 3.36069 20.0573L3.0033 20.6552L2.91388 20.7931C2.78171 20.9706 2.61874 21.1443 2.39133 21.2144C1.9299 21.3567 1.5705 21.1018 1.41531 20.7521C0.663788 19.0587 2.55893 14.5072 5.38962 11.6454L5.63742 11.4031C7.5665 9.57684 10.1701 8.49457 13.4239 8.14642L13.5874 8.13L13.5864 3.5C13.5864 2.8172 14.4246 2.48956 14.8876 2.99133ZM15.0874 5.41901L20.9814 11.806L15.0874 18.2191L15.0864 14.759C15.0864 14.3793 14.8043 14.0656 14.4382 14.0159L14.3364 14.009C11.9293 14.009 9.80753 14.2695 7.97055 14.7939C5.94507 15.3722 4.48474 16.3185 3.34366 17.5739L3.40698 17.3023C4.08817 15.6663 5.15692 14.0138 6.45609 12.7004C8.29202 10.8443 10.9234 9.79584 14.3854 9.56909C14.7798 9.54327 15.0864 9.21588 15.0864 8.82068L15.0874 5.41901Z"
		fill-rule="evenodd" />
</svg>