<svg viewBox="0 0 24 24" xmlns="http://www.w3.org/2000/svg"
	xmlns:xlink="http://www.w3.org/1999/xlink">
	<defs />
	<g opacity="0.000000" />
	<path id="矢量 175"
		d="M13.8764 4.99561C13.4763 4.8884 13.0651 5.12582 12.9579 5.52591L9.59323 18.0829L9.57352 18.183C9.52673 18.5495 9.75681 18.9032 10.1236 19.0015C10.5237 19.1087 10.9349 18.8713 11.0421 18.4712L14.4068 5.91415L14.4265 5.81409C14.4733 5.44763 14.2432 5.09387 13.8764 4.99561ZM6.52682 5.91666C6.84818 5.6553 7.32056 5.70398 7.58188 6.02536C7.81946 6.3175 7.80084 6.73447 7.55405 7.00421L2.01352 11.5201C1.69153 11.7817 1.66461 12.128 1.93274 12.4038L7.47318 16.9167C7.79456 17.178 7.84323 17.6503 7.58188 17.9717C7.34433 18.2639 6.93234 18.3307 6.61795 18.144L1.06677 13.641L0.936188 13.5269C0.0209656 12.6687 0.0212708 11.3275 0.936859 10.4699L1.06738 10.3561L6.52682 5.91666ZM22.0668 11.5933C22.3109 11.8441 22.311 12.153 22.0672 12.4039L16.5268 16.9167C16.28 17.1864 16.1805 17.6796 16.4181 17.9717C16.6878 18.2185 17.181 18.318 17.4732 18.0804L22.9331 13.6411L23.0636 13.5271C24.0206 12.6297 23.9768 11.2045 22.9324 10.3559L17.4732 5.91666C17.1588 5.73004 16.6557 5.73322 16.4181 6.02536C16.1568 6.34674 16.2054 6.81909 16.5268 7.08044L22.0668 11.5933Z"
		fill-rule="evenodd" />
</svg>