<svg viewBox="0 0 24 24" xmlns="http://www.w3.org/2000/svg"
	xmlns:xlink="http://www.w3.org/1999/xlink">
	<defs />
	<g opacity="0.000000" />
	<path id="矢量 8"
		d="M9.11279 2.99133L1.44885 11.2967C1.18414 11.5835 1.18372 12.0254 1.44775 12.3128L9.11176 20.6526C9.58435 21.0479 10.4139 20.7927 10.4139 20.1451L10.413 15.519L10.6935 15.5263C12.5431 15.5897 14.1847 15.827 15.618 16.2363C18.0679 16.9357 19.5235 18.2374 20.6396 20.0573L20.9971 20.6552L21.0865 20.7931C21.2186 20.9706 21.3817 21.1443 21.6091 21.2144C22.0705 21.3567 22.4299 21.1018 22.5851 20.7521C23.3365 19.0587 21.4414 14.5072 18.6107 11.6454L18.3629 11.4031C16.4338 9.57684 13.8303 8.49457 10.5765 8.14642L10.413 8.13L10.4139 3.5C10.4139 2.8172 9.57581 2.48956 9.11279 2.99133ZM8.91296 5.41901L3.01904 11.806L8.91296 18.219L8.91394 14.759C8.91394 14.3793 9.19617 14.0655 9.56219 14.0159L9.66394 14.009C12.0711 14.009 14.1929 14.2694 16.0298 14.7939C18.0554 15.3721 19.5156 16.3184 20.6567 17.5738L20.5934 17.3022C19.9122 15.6663 18.8435 14.0137 17.5443 12.7003C15.7084 10.8442 13.077 9.79578 9.61499 9.56903C9.22058 9.54321 8.91394 9.21582 8.91394 8.82062L8.91296 5.41901Z"
		fill-rule="evenodd" />
</svg>