<svg viewBox="0 0 24 24" xmlns="http://www.w3.org/2000/svg"
	xmlns:xlink="http://www.w3.org/1999/xlink">
	<defs />
	<g opacity="0.000000" />
	<path id="矢量 132"
		d="M18.8274 1.98097C18.2198 1.4726 17.437 1.1666 16.5829 1.1666L6.49951 1.1666C4.56653 1.1666 2.99951 2.73357 2.99951 4.66652L2.99951 20.9384C2.99951 21.2355 3.07895 21.5273 3.22961 21.7834L3.31241 21.9107C3.80911 22.6039 4.7619 22.8157 5.5112 22.3749L11.5405 18.827L17.5712 22.3749C17.8273 22.5256 18.119 22.6053 18.4162 22.6053L18.56 22.5992C19.4131 22.5262 20.0829 21.8104 20.0829 20.9384L20.0825 11.6866L18.5825 13.1856L18.5829 20.9384C18.5829 21.0305 18.5082 21.1052 18.4162 21.1052L11.9214 17.3114C11.6867 17.1733 11.3956 17.1733 11.1609 17.3114L4.7507 21.082C4.67136 21.1287 4.56918 21.1022 4.52252 21.0229L4.49951 4.66652C4.49951 3.562 5.39493 2.6666 6.49951 2.6666L16.5829 2.6666C17.0228 2.6666 17.4296 2.80867 17.7599 3.04942L18.8274 1.98097ZM17.7568 4.935C18.6703 4.02168 20.1513 4.02168 21.0648 4.935C21.9784 5.84839 21.9784 7.32935 21.0648 8.24274L15.2604 14.0461C15.1882 14.1182 15.1021 14.1749 15.0074 14.2126L11.2773 15.6969C10.6659 15.9401 10.06 15.3345 10.303 14.723L11.7857 10.9918C11.8234 10.8968 11.8802 10.8106 11.9524 10.7383L17.7568 4.935ZM7.99951 5.25C8.68988 5.25 9.24951 5.80965 9.24951 6.5C9.24951 7.19037 8.68988 7.75 7.99951 7.75C7.30914 7.75 6.74951 7.19037 6.74951 6.5C6.74951 5.80965 7.30914 5.25 7.99951 5.25ZM18.8174 5.99576C19.1451 5.66809 19.6765 5.66809 20.0042 5.99576L20.1461 6.18425C20.3218 6.50298 20.2745 6.91173 20.0042 7.18199L19.7615 7.4236L18.5745 6.2366L18.8174 5.99576ZM13.122 11.689L17.5135 7.29759L18.7005 8.4836L14.309 12.875L12.339 13.659L13.122 11.689Z"
		fill-rule="evenodd" />
</svg>