<svg viewBox="0 0 24 24" xmlns="http://www.w3.org/2000/svg"
	xmlns:xlink="http://www.w3.org/1999/xlink">
	<defs />
	<g opacity="0.000000" />
	<path id="矢量 94"
		d="M11.2495 2.625L11.2495 21.375L11.2564 21.4768C11.3061 21.8428 11.6198 22.125 11.9995 22.125C12.4138 22.125 12.7495 21.7892 12.7495 21.375L12.7495 2.625L12.7427 2.52322C12.693 2.15717 12.3792 1.875 11.9995 1.875C11.5853 1.875 11.2495 2.21078 11.2495 2.625ZM5.86121 9.08337L5.86121 5.75003C5.86121 4.41534 6.94318 3.33337 8.27786 3.33337L9.99957 3.33337L9.99957 4.83337L8.27786 4.83337C7.77161 4.83337 7.36121 5.24377 7.36121 5.75003L7.36121 9.08337C7.36121 9.58963 7.77161 10 8.27786 10L9.99957 10L9.99957 11.5L8.27786 11.5C6.94318 11.5 5.86121 10.4181 5.86121 9.08337ZM13.9996 11.5L15.7779 11.5C17.1125 11.5 18.1945 10.4181 18.1945 9.08337L18.1945 5.75003C18.1945 4.41534 17.1125 3.33337 15.7779 3.33337L13.9996 3.33337L13.9996 4.83337L15.7779 4.83337C16.2841 4.83337 16.6945 5.24377 16.6945 5.75003L16.6945 9.08337C16.6945 9.58963 16.2841 10 15.7779 10L13.9996 10L13.9996 11.5ZM3.36121 18.25L3.36121 14.9167C3.36121 13.582 4.44318 12.5 5.77786 12.5L9.99957 12.5L9.99957 14L5.77786 14C5.27161 14 4.86121 14.4104 4.86121 14.9167L4.86121 18.25C4.86121 18.7563 5.27161 19.1667 5.77786 19.1667L9.99957 19.1667L9.99957 20.6667L5.77786 20.6667C4.44318 20.6667 3.36121 19.5847 3.36121 18.25ZM13.9996 20.6667L18.2779 20.6667C19.6125 20.6667 20.6945 19.5847 20.6945 18.25L20.6945 14.9167C20.6945 13.582 19.6125 12.5 18.2779 12.5L13.9996 12.5L13.9996 14L18.2779 14C18.7841 14 19.1945 14.4104 19.1945 14.9167L19.1945 18.25C19.1945 18.7563 18.7841 19.1667 18.2779 19.1667L13.9996 19.1667L13.9996 20.6667Z"
		fill-rule="evenodd" />
</svg>