<svg viewBox="0 0 24 24" xmlns="http://www.w3.org/2000/svg"
	xmlns:xlink="http://www.w3.org/1999/xlink">
	<defs />
	<g opacity="0.000000" />
	<path id="矢量 176"
		d="M13.4633 3L6.50186 3C5.94962 3 5.50192 3.44763 5.50186 3.99988L5.5 19.9999C5.49994 20.5523 5.94785 21.0002 6.50031 21L14.0247 20.9978C17.0401 20.9978 19.5 18.6305 19.5 15.6907L19.4956 15.4766C19.4236 13.711 18.4634 12.1721 17.0403 11.2606L16.797 11.114C17.7152 10.2613 18.3278 9.02692 18.3278 7.6918C18.3278 5.09457 16.1291 3 13.4633 3ZM7.49994 12.3836L7.49899 19L14.0244 18.9978C15.9523 18.9978 17.5 17.5084 17.5 15.6907C17.5 13.873 15.9523 12.3836 14.0244 12.3836L7.49994 12.3836ZM7.50024 10.3836L7.49994 12.3836L7.50024 10.3836ZM7.50024 10.3836L7.50101 5L13.4633 5C15.0457 5 16.3278 6.22144 16.3278 7.6918C16.3278 9.16965 15.0664 10.3836 13.4916 10.3836L7.50024 10.3836Z"
		fill-rule="evenodd" />
</svg>