<?xml version="1.0" encoding="UTF-8"?>
<svg viewBox="0 0 24 24" version="1.1" xmlns="http://www.w3.org/2000/svg" xmlns:xlink="http://www.w3.org/1999/xlink">
    <g id="面性/ic_eraser_filled">
        <path d="M4.57575,11.278575 L12.70675,19.409575 L11.11775,20.999575 C10.55075,21.566575 9.79675,21.879575 8.99475,21.879575 C8.19275,21.879575 7.43875,21.566575 6.87175,20.999575 L6.87175,20.999575 L2.98575,17.113575 C2.41875,16.546575 2.10675,15.792575 2.10675,14.990575 C2.10675,14.188575 2.41875,13.434575 2.98575,12.868575 L2.98575,12.868575 L4.57575,11.278575 Z M19.93565,19.735575 C20.34965,19.735575 20.68565,20.071575 20.68565,20.485575 C20.68565,20.899575 20.34965,21.235575 19.93565,21.235575 L14.99965,21.235575 C14.58565,21.235575 14.24965,20.899575 14.24965,20.485575 C14.24965,20.071575 14.58565,19.735575 14.99965,19.735575 L19.93565,19.735575 Z M12.88225,2.971675 C14.01525,1.836675 15.99325,1.836675 17.12825,2.971675 L17.12825,2.971675 L21.01425,6.857675 C21.58125,7.424675 21.89325,8.178675 21.89325,8.980675 C21.89325,9.782675 21.58125,10.536675 21.01425,11.102675 L21.01425,11.102675 L13.76725,18.348675 L5.63625,10.217675 Z"></path>
    </g>
</svg>