<svg viewBox="0 0 24 24" xmlns="http://www.w3.org/2000/svg"
	xmlns:xlink="http://www.w3.org/1999/xlink">
	<defs />
	<g opacity="0.000000" />
	<path id="矢量 224"
		d="M16.0028 5.80847C16.1943 5.49701 16.1338 5.08405 15.8454 4.84198C15.5281 4.57574 15.055 4.61713 14.7888 4.93445L8.99973 11.8325L3.21127 4.93445C2.93777 4.69183 2.44312 4.59991 2.15463 4.84198C1.83734 5.10822 1.79596 5.5813 2.06219 5.89862L8.02072 12.9995L2.06219 20.1013C1.87076 20.4128 1.86618 20.9159 2.15463 21.158C2.47195 21.4242 2.94501 21.3828 3.21127 21.0655L8.99973 14.1665L14.7888 21.0655C15.0623 21.3081 15.5569 21.4 15.8454 21.158C16.1627 20.8917 16.2041 20.4186 15.9378 20.1013L9.97873 12.9995L16.0028 5.80847ZM19.2487 13.75C19.73 13.75 20.1669 13.8541 20.5477 14.0681C20.9336 14.285 21.2371 14.5912 21.4454 14.976C21.6473 15.3488 21.7468 15.7675 21.7468 16.2208C21.7468 16.674 21.637 17.1036 21.4198 17.4977C21.2558 17.7953 21.0002 18.144 20.6239 18.5811L20.4552 18.774L19.456 19.75L21.5 19.75C21.8797 19.75 22.1935 20.0322 22.2432 20.3982L22.25 20.5C22.25 20.8797 21.9679 21.1935 21.6018 21.2432L21.5 21.25L17.6152 21.25C16.9782 21.25 16.6461 20.5171 17.0218 20.0404L19.3688 17.7412C19.7343 17.3272 19.9817 16.9996 20.106 16.7738C20.2007 16.6021 20.2468 16.4217 20.2468 16.2208C20.2468 16.0097 20.2057 15.8366 20.1264 15.6903C20.0537 15.556 19.9534 15.4547 19.8128 15.3757C19.6671 15.2939 19.483 15.25 19.2487 15.25C18.9467 15.25 18.6974 15.3266 18.479 15.4816C18.3276 15.5889 18.2574 15.6682 18.1421 15.8593C17.9279 16.2138 17.4669 16.3277 17.1124 16.1136C16.7578 15.8995 16.6439 15.4385 16.858 15.0839C17.0744 14.7255 17.2809 14.4924 17.6111 14.2582C18.0878 13.92 18.641 13.75 19.2487 13.75Z"
		fill-rule="evenodd" />
</svg>