<?xml version="1.0" encoding="UTF-8"?>
<svg viewBox="0 0 16 16" version="1.1" xmlns="http://www.w3.org/2000/svg" xmlns:xlink="http://www.w3.org/1999/xlink">
    <g id="S12组件" stroke="none" stroke-width="1" fill-rule="evenodd">
        <g id="editor-subtitle">
            <rect id="矩形" opacity="0" x="0" y="0" width="16" height="16"></rect>
            <path d="M8.5,2.49644165 C8.74545989,2.49644165 8.94960837,2.67331681 8.99194433,2.90656602 L9,2.99644165 L9,12.9964416 C9,13.272584 8.77614237,13.4964416 8.5,13.4964416 C8.25454011,13.4964416 8.05039163,13.3195665 8.00805567,13.0863173 L8,12.9964416 L8,8.49944165 L3,8.49944165 L3,12.9964416 C3,13.272584 2.77614237,13.4964416 2.5,13.4964416 C2.25454011,13.4964416 2.05039163,13.3195665 2.00805567,13.0863173 L2,12.9964416 L2,2.99644165 C2,2.72029928 2.22385763,2.49644165 2.5,2.49644165 C2.74545989,2.49644165 2.94960837,2.67331681 2.99194433,2.90656602 L3,2.99644165 L3,7.49944165 L8,7.49944165 L8,2.99644165 C8,2.72029928 8.22385763,2.49644165 8.5,2.49644165 Z M13.3535741,7.87538235 C14.0803728,8.6021811 14.1186254,9.7567876 13.4683283,10.5286222 L13.35357,10.6535782 L11.706,12.3 L13.7607097,12.3000121 C14.0061696,12.3000121 14.2103181,12.4768873 14.252654,12.7101365 L14.2607097,12.8000121 C14.2607097,13.045472 14.0838345,13.2496205 13.8505853,13.2919564 L13.7607097,13.3000121 L10.4999715,13.3000121 C10.0842133,13.3000121 9.86216672,12.8308519 10.0905053,12.5122062 L10.1464222,12.4464546 L12.6464673,9.94646732 C13.0231195,9.56981513 13.0231195,8.95914129 12.6464673,8.58248912 C12.2698151,8.20583695 11.6591413,8.20583695 11.2824891,8.58248912 C11.1281904,8.73678781 11.0337606,8.93352153 11.0074836,9.1434112 L10.999962,9.27068948 C11.0016597,9.54682663 10.7791825,9.77205624 10.5030453,9.77375389 C10.2269082,9.77545154 10.0016786,9.55297436 9.99998091,9.2768372 C9.99677516,8.75539501 10.1992171,8.25154756 10.5753823,7.87538232 C11.3425589,7.10820589 12.5863977,7.10820589 13.3535741,7.87538235 Z" id="形状"></path>
        </g>
    </g>
</svg>