<svg viewBox="0 0 24 24" xmlns="http://www.w3.org/2000/svg"
	xmlns:xlink="http://www.w3.org/1999/xlink">
	<defs />
	<g opacity="0.000000" />
	<path id="矢量 110"
		d="M18.3522 6.35303C17.4344 4.47818 15.0286 3.25 12.3317 3.25C8.8399 3.25 5.92783 5.2999 5.92783 7.97989C5.92783 9.27121 6.43951 10.3749 7.40771 11.25L4 11.25L3.89822 11.2568C3.53217 11.3065 3.25 11.6203 3.25 12C3.25 12.4142 3.58578 12.75 4 12.75L10.1305 12.75C10.7586 12.9601 11.4521 13.1298 12.2076 13.2565L12.5151 13.3102C16.0407 13.9487 17.4124 15.0523 17.234 17.0662C17.0564 19.0712 15.1034 20.25 12.3513 20.25C9.5722 20.25 7.22 18.9713 6.72867 16.9548C6.63062 16.5524 6.22488 16.3057 5.82245 16.4037C5.42001 16.5018 5.17325 16.9075 5.2713 17.3099C5.95581 20.1193 8.95563 21.75 12.3513 21.75C15.7888 21.75 18.4682 20.1327 18.7281 17.1986C18.9147 15.0928 17.9755 13.6734 15.936 12.75L20 12.75L20.1018 12.7432C20.4678 12.6935 20.75 12.3797 20.75 12C20.75 11.5858 20.4142 11.25 20 11.25L10.3676 11.25C8.39859 10.5392 7.42783 9.39825 7.42783 7.97989C7.42783 6.26382 9.5784 4.75 12.3317 4.75C14.4978 4.75 16.3637 5.70255 17.0049 7.01251C17.187 7.38455 17.6363 7.53851 18.0083 7.35638C18.3803 7.17429 18.5343 6.72507 18.3522 6.35303Z"
		fill-rule="evenodd" />
</svg>