<svg viewBox="0 0 24 24" xmlns="http://www.w3.org/2000/svg"
	xmlns:xlink="http://www.w3.org/1999/xlink">
	<defs />
	<g opacity="0.000000" />
	<path id="矢量 225"
		d="M4.24316 3.89825C4.19348 3.53217 3.8797 3.25 3.5 3.25C3.08578 3.25 2.75 3.58582 2.75 4L2.75 20L2.75684 20.1017C2.80652 20.4678 3.1203 20.75 3.5 20.75C3.91422 20.75 4.25 20.4142 4.25 20L4.25 13.25L12.75 13.25L12.75 20L12.7568 20.1017C12.8065 20.4678 13.1203 20.75 13.5 20.75C13.9142 20.75 14.25 20.4142 14.25 20L14.25 4L14.2432 3.89825C14.1935 3.53217 13.8797 3.25 13.5 3.25C13.0858 3.25 12.75 3.58582 12.75 4L12.75 11.75L4.25 11.75L4.25 4L4.24316 3.89825ZM19.5477 14.0681C19.1669 13.8541 18.73 13.75 18.2487 13.75C17.641 13.75 17.0877 13.92 16.6111 14.2582C16.2809 14.4924 16.0744 14.7255 15.8579 15.0839C15.6439 15.4385 15.7578 15.8995 16.1123 16.1136C16.4669 16.3278 16.9279 16.2139 17.142 15.8593C17.2574 15.6682 17.3276 15.589 17.479 15.4816C17.6974 15.3266 17.9467 15.25 18.2487 15.25C18.483 15.25 18.6671 15.2939 18.8128 15.3757C18.9533 15.4547 19.0536 15.556 19.1264 15.6903C19.2056 15.8366 19.2467 16.0097 19.2467 16.2208C19.2467 16.4217 19.2006 16.6021 19.106 16.7738C18.9816 16.9996 18.7343 17.3272 18.3688 17.7412L16.0911 19.9635L16.0218 20.0404C15.646 20.5171 15.9781 21.25 16.6152 21.25L20.5 21.25L20.6017 21.2432C20.9678 21.1935 21.25 20.8797 21.25 20.5L21.2431 20.3983C21.1935 20.0322 20.8797 19.75 20.5 19.75L18.456 19.75L19.4552 18.774L19.6239 18.5812C20.0002 18.144 20.2558 17.7953 20.4198 17.4977C20.637 17.1036 20.7467 16.674 20.7467 16.2208C20.7467 15.7675 20.6473 15.3488 20.4454 14.976C20.237 14.5912 19.9336 14.285 19.5477 14.0681Z"
		fill-rule="evenodd" />
</svg>