<svg viewBox="0 0 24 24" xmlns="http://www.w3.org/2000/svg"
	xmlns:xlink="http://www.w3.org/1999/xlink">
	<defs />
	<g opacity="0.000000" />
	<path id="矢量 124"
		d="M19.7952 3.23795C18.5116 1.92076 16.4222 1.92067 15.1385 3.23776L4.31421 14.2583C4.23761 14.3363 4.17896 14.4301 4.14246 14.5332L2.29309 19.7494C2.08411 20.3389 2.64594 20.9101 3.23877 20.711L8.67548 18.8846C8.78436 18.848 8.88336 18.787 8.96484 18.7061L19.7863 7.96983C21.0682 6.6545 21.0682 4.5443 19.7952 3.23795ZM16.3306 4.17422C17.0306 3.57393 18.0646 3.61137 18.7209 4.28484L18.8319 4.40955L18.9299 4.54181C19.3997 5.23894 19.3523 6.19696 18.7878 6.84151L16.3306 4.17422ZM15.1906 5.325L5.50098 15.19L4.22095 18.798L8.03296 17.517L17.7255 7.901L15.1906 5.325ZM19.75 21C19.75 20.5858 19.4142 20.25 19 20.25L11 20.25L10.8982 20.2569C10.5321 20.3065 10.25 20.6203 10.25 21C10.25 21.4142 10.5858 21.75 11 21.75L19 21.75L19.1017 21.7431C19.4678 21.6935 19.75 21.3797 19.75 21Z"
		fill-rule="evenodd" />
</svg>