<svg viewBox="0 0 24 24" xmlns="http://www.w3.org/2000/svg"
	xmlns:xlink="http://www.w3.org/1999/xlink">
	<defs />
	<g opacity="0.000000" />
	<path id="矢量 102"
		d="M2.75684 3.39822C2.80652 3.03217 3.1203 2.75 3.5 2.75C3.91422 2.75 4.25 3.08578 4.25 3.5L4.25 20.5L4.24316 20.6018C4.19348 20.9678 3.8797 21.25 3.5 21.25C3.08578 21.25 2.75 20.9142 2.75 20.5L2.75 3.5L2.75684 3.39822ZM19.5042 3.25L8.49585 3.25C7.25504 3.25 6.25 4.25781 6.25 5.5L6.25 8.5C6.25 9.74219 7.25504 10.75 8.49585 10.75L19.5042 10.75C20.745 10.75 21.75 9.74219 21.75 8.5L21.75 5.5C21.75 4.25781 20.745 3.25 19.5042 3.25ZM8.49585 4.75L19.5042 4.75C19.9156 4.75 20.25 5.08533 20.25 5.5L20.25 8.5C20.25 8.91467 19.9156 9.25 19.5042 9.25L8.49585 9.25C8.08438 9.25 7.75 8.91467 7.75 8.5L7.75 5.5C7.75 5.08533 8.08438 4.75 8.49585 4.75ZM15.5799 13.25L8.4201 13.25C7.21213 13.25 6.25 14.2663 6.25 15.5L6.25 18.5C6.25 19.7337 7.21213 20.75 8.4201 20.75L15.5799 20.75C16.7879 20.75 17.75 19.7337 17.75 18.5L17.75 15.5C17.75 14.2663 16.7879 13.25 15.5799 13.25ZM8.4201 14.75L15.5799 14.75C15.9405 14.75 16.25 15.0769 16.25 15.5L16.25 18.5C16.25 18.9231 15.9405 19.25 15.5799 19.25L8.4201 19.25C8.05948 19.25 7.75 18.9231 7.75 18.5L7.75 15.5C7.75 15.0769 8.05948 14.75 8.4201 14.75Z"
		fill-rule="evenodd" />
</svg>