<svg viewBox="0 0 24 24" xmlns="http://www.w3.org/2000/svg"
	xmlns:xlink="http://www.w3.org/1999/xlink">
	<defs />
	<g opacity="0.000000" />
	<path id="矢量 193"
		d="M4.49268 2.89822C4.44299 2.53217 4.12921 2.25 3.74951 2.25C3.33533 2.25 2.99951 2.58578 2.99951 3L2.99951 21L3.00635 21.1018C3.05603 21.4678 3.36981 21.75 3.74951 21.75C4.1637 21.75 4.49951 21.4142 4.49951 21L4.49951 3L4.49268 2.89822ZM7.24951 2.25C6.83533 2.25 6.49951 2.58578 6.49951 3C6.49951 3.3797 6.78168 3.69348 7.14771 3.74316L7.24951 3.75L18.0829 3.75C18.8008 3.75 19.4263 4.41342 19.4935 5.29651L19.4995 5.45456L19.4995 18.5454C19.4995 19.4529 18.9139 20.1667 18.2085 20.2432L18.0829 20.25L7.24951 20.25C6.83533 20.25 6.49951 20.5858 6.49951 21C6.49951 21.3797 6.78168 21.6935 7.14771 21.7432L7.24951 21.75L18.0829 21.75C19.6576 21.75 20.9073 20.3979 20.9946 18.7318L20.9995 18.5454L20.9995 5.45456C20.9995 3.76663 19.806 2.35425 18.2565 2.25552L18.0829 2.25L7.24951 2.25Z"
		fill-rule="evenodd" />
</svg>