<svg viewBox="0 0 24 24" xmlns="http://www.w3.org/2000/svg"
	xmlns:xlink="http://www.w3.org/1999/xlink">
	<defs />
	<g opacity="0.000000" />
	<path id="矢量 9"
		d="M18.2432 2.89825C18.1935 2.53217 17.8797 2.25 17.5 2.25C17.0858 2.25 16.75 2.58582 16.75 3L16.75 11.8235L16.7458 12.0543C16.6396 14.9607 14.536 17.25 12 17.25C9.39728 17.25 7.25 14.8386 7.25 11.8235L7.25 3L7.24316 2.89825C7.19348 2.53217 6.8797 2.25 6.5 2.25C6.08582 2.25 5.75 2.58582 5.75 3L5.75 11.8235L5.75378 12.0656C5.86853 15.7621 8.60144 18.75 12 18.75C15.4724 18.75 18.25 15.6308 18.25 11.8235L18.25 3L18.2432 2.89825ZM18.75 21C18.75 20.5858 18.4142 20.25 18 20.25L6 20.25L5.89819 20.2568C5.53217 20.3065 5.25 20.6203 5.25 21C5.25 21.4142 5.58582 21.75 6 21.75L18 21.75L18.1018 21.7432C18.4678 21.6935 18.75 21.3797 18.75 21Z"
		fill-rule="evenodd" />
</svg>