<?xml version="1.0" encoding="UTF-8"?>
<svg viewBox="0 0 24 24" version="1.1" xmlns="http://www.w3.org/2000/svg" xmlns:xlink="http://www.w3.org/1999/xlink">
    <g id="页面-1" stroke="none" stroke-width="1">
        <g id="画板" transform="translate(-1076.000000, -3852.000000)">
            <g id="编组" transform="translate(1076.000000, 3852.000000)">
                <path d="M20.1660496,3.36879733 L20.4201352,3.60792613 L20.4549551,3.6454954 C21.5638246,4.8652519 21.5152702,6.74196884 20.3448113,7.90275455 L10.1523895,18.016983 C9.85828351,18.3086584 9.38341387,18.306688 9.09173849,18.012582 C8.8000631,17.718476 8.80203352,17.2436063 9.09613953,16.9519309 L17.8822754,8.2323824 L17.8230486,8.18108494 L15.8440486,6.20208494 L15.8052754,6.1573824 L6.798,15.174 L5.043,18.954 L7.10555592,18.1172662 C7.48107451,17.9424558 7.92720428,18.1051619 8.10201465,18.4806805 C8.25740165,18.8144748 8.14610893,19.2040607 7.85572015,19.4092893 L7.73860029,19.4771393 L3.81652219,21.1799365 C3.22217396,21.4566159 2.60736719,20.8969077 2.77541643,20.3032097 L2.81970238,20.1842546 L5.49365258,14.4230241 L5.64334445,14.2087152 L16.2934296,3.54755 C17.3533133,2.4865636 19.0359837,2.42677567 20.1660496,3.36879733 Z M19.5012786,19.7488549 C19.9154922,19.7488549 20.2512786,20.0846413 20.2512786,20.4988549 C20.2512786,20.8785506 19.9691248,21.1923458 19.6030492,21.2420082 L19.5012786,21.2488549 L12.5012786,21.2488549 C12.0870651,21.2488549 11.7512786,20.9130684 11.7512786,20.4988549 C11.7512786,20.1191591 12.0334325,19.8053639 12.3995081,19.7557015 L12.5012786,19.7488549 L19.5012786,19.7488549 Z M17.4953991,4.48451662 L17.3546411,4.60765858 L16.8592754,5.1023824 L16.9047087,5.14142477 L18.8837087,7.12042477 L18.9382754,7.1843824 L19.2885613,6.83770247 C19.8426216,6.28822111 19.9064578,5.42590853 19.4657433,4.80451372 L19.3225046,4.63030149 L19.2993887,4.60664746 C18.8068578,4.11462843 18.0341894,4.07400723 17.4953991,4.48451662 Z" id="形状结合"></path>
            </g>
        </g>
    </g>
</svg>