<svg viewBox="0 0 24 24" xmlns="http://www.w3.org/2000/svg"
	xmlns:xlink="http://www.w3.org/1999/xlink">
	<defs />
	<g opacity="0.000000" />
	<path id="矢量 104"
		d="M15.1088 3.17654C16.2012 2.08124 17.9747 2.07889 19.0758 3.17712C20.1703 4.27515 20.1686 6.05215 19.0721 7.14813L10.4339 15.7823C10.3546 15.8615 10.2587 15.9219 10.153 15.9592L5.7229 17.5201C5.12598 17.7304 4.55298 17.1525 4.76843 16.5575L6.42407 11.984C6.46143 11.8809 6.52087 11.7873 6.59827 11.7097L15.1088 3.17654ZM18.0134 4.23605C18.4319 4.75067 18.491 5.60825 18.0117 6.08722L17.4579 6.64072L15.6011 4.80701L16.1708 4.23578C16.6782 3.72705 17.502 3.72595 18.0134 4.23605ZM14.5417 5.86905L16.3969 7.70108L9.49341 14.6005L6.71802 15.5785L7.77795 12.6503L14.5417 5.86905ZM4.4458 19L19.5542 19C20.2146 19 20.75 19.5354 20.75 20.1958L20.75 21.3042C20.75 21.9646 20.2146 22.5 19.5542 22.5L4.4458 22.5C3.7854 22.5 3.25 21.9646 3.25 21.3042L3.25 20.1958C3.25 19.5354 3.7854 19 4.4458 19Z"
		fill-rule="evenodd" />
</svg>