<svg viewBox="0 0 24 24" xmlns="http://www.w3.org/2000/svg"
	xmlns:xlink="http://www.w3.org/1999/xlink">
	<defs />
	<g opacity="0.000000" />
	<path id="矢量 119"
		d="M12.9169 3.26892L3.26892 12.9169C1.91037 14.2754 1.91037 16.4781 3.26892 17.8367L6.1633 20.7311C7.52188 22.0896 9.72458 22.0896 11.0831 20.7311L13.6082 18.206C13.6161 18.1987 13.624 18.1912 13.6317 18.1834C13.6389 18.1762 13.6459 18.1689 13.6527 18.1615L20.7311 11.0831C22.0896 9.72458 22.0896 7.52188 20.7311 6.1633L17.8367 3.26892C16.4781 1.91037 14.2754 1.91037 12.9169 3.26892ZM19.6704 10.0225L13.0994 16.5935L7.39816 10.9089L13.9775 4.32959C14.7503 3.55679 16.0032 3.55679 16.776 4.32959L19.6704 7.22397C20.4432 7.99677 20.4432 9.24969 19.6704 10.0225ZM12.0387 17.6542L6.33749 11.9696L4.32959 13.9775C3.55679 14.7503 3.55679 16.0032 4.32959 16.776L7.22397 19.6704C7.99677 20.4432 9.24969 20.4432 10.0225 19.6704L12.0387 17.6542ZM20.7495 21C20.7495 20.5858 20.4138 20.25 19.9995 20.25L14.9995 20.25L14.8978 20.2568C14.5317 20.3065 14.2495 20.6203 14.2495 21C14.2495 21.4142 14.5853 21.75 14.9995 21.75L19.9995 21.75L20.1013 21.7432C20.4674 21.6935 20.7495 21.3797 20.7495 21Z"
		fill-rule="evenodd" />
</svg>