<svg viewBox="0 0 24 24" xmlns="http://www.w3.org/2000/svg"
	xmlns:xlink="http://www.w3.org/1999/xlink">
	<defs />
	<g opacity="0.000000" />
	<path id="矢量 234"
		d="M12.667 1.95367L18.689 15.9537C18.8527 16.3342 18.6769 16.7753 18.2964 16.939C17.9159 17.1027 17.4747 16.9269 17.311 16.5463L15.6502 12.6852L15.5648 12.691L8.3912 12.691C8.37256 12.691 8.3541 12.6903 8.33578 12.689L6.68976 16.5445C6.5271 16.9255 6.08643 17.1024 5.70547 16.9398C5.32455 16.7771 5.14761 16.3364 5.31027 15.9555L11.2882 1.95551C11.5472 1.34906 12.4064 1.3479 12.667 1.95367ZM8.97531 11.191L11.98 4.15302L15.0074 11.191L8.97531 11.191ZM18.5 19L5.5 19C4.80963 19 4.25 19.5596 4.25 20.25L4.25 21.25C4.25 21.9404 4.80963 22.5 5.5 22.5L18.5 22.5C19.1904 22.5 19.75 21.9404 19.75 21.25L19.75 20.25C19.75 19.5596 19.1904 19 18.5 19Z"
		fill-rule="evenodd" />
</svg>