<svg viewBox="0 0 24 24" xmlns="http://www.w3.org/2000/svg"
	xmlns:xlink="http://www.w3.org/1999/xlink">
	<defs />
	<g opacity="0.000000" />
	<path id="矢量 103"
		d="M19.7568 3.39822C19.8065 3.03217 20.1203 2.75 20.5 2.75C20.9142 2.75 21.25 3.08578 21.25 3.5L21.25 20.5L21.2432 20.6018C21.1935 20.9678 20.8797 21.25 20.5 21.25C20.0858 21.25 19.75 20.9142 19.75 20.5L19.75 3.5L19.7568 3.39822ZM15.5042 3.25L4.49585 3.25C3.25504 3.25 2.25 4.25781 2.25 5.5L2.25 8.5C2.25 9.74219 3.25504 10.75 4.49585 10.75L15.5042 10.75C16.745 10.75 17.75 9.74219 17.75 8.5L17.75 5.5C17.75 4.25781 16.745 3.25 15.5042 3.25ZM4.49585 4.75L15.5042 4.75C15.9156 4.75 16.25 5.08533 16.25 5.5L16.25 8.5C16.25 8.91467 15.9156 9.25 15.5042 9.25L4.49585 9.25C4.08438 9.25 3.75 8.91467 3.75 8.5L3.75 5.5C3.75 5.08533 4.08438 4.75 4.49585 4.75ZM15.5799 13.25L8.4201 13.25C7.21213 13.25 6.25 14.2663 6.25 15.5L6.25 18.5C6.25 19.7337 7.21213 20.75 8.4201 20.75L15.5799 20.75C16.7879 20.75 17.75 19.7337 17.75 18.5L17.75 15.5C17.75 14.2663 16.7879 13.25 15.5799 13.25ZM8.4201 14.75L15.5799 14.75C15.9405 14.75 16.25 15.0769 16.25 15.5L16.25 18.5C16.25 18.9231 15.9405 19.25 15.5799 19.25L8.4201 19.25C8.05948 19.25 7.75 18.9231 7.75 18.5L7.75 15.5C7.75 15.0769 8.05948 14.75 8.4201 14.75Z"
		fill-rule="evenodd" />
</svg>