<svg viewBox="0 0 24 24" xmlns="http://www.w3.org/2000/svg"
	xmlns:xlink="http://www.w3.org/1999/xlink">
	<defs />
	<g opacity="0.000000" />
	<path id="矢量 120"
		d="M20.7311 6.1633L17.8367 3.26892C16.4781 1.91037 14.2754 1.91037 12.9169 3.26892L6.12201 10.062L13.937 17.877L20.7311 11.0831C22.0896 9.72458 22.0896 7.52188 20.7311 6.1633ZM12.877 18.938L5.06201 11.123L3.26892 12.9169C1.9104 14.2754 1.9104 16.4781 3.26892 17.8367L6.16333 20.7311L6.31201 20.8714C7.6781 22.0879 9.77307 22.0411 11.0831 20.7311L12.877 18.938ZM19.9995 20.25C20.4138 20.25 20.7495 20.5858 20.7495 21C20.7495 21.3797 20.4674 21.6935 20.1013 21.7432L19.9995 21.75L14.9995 21.75C14.5853 21.75 14.2495 21.4142 14.2495 21C14.2495 20.6203 14.5317 20.3065 14.8978 20.2568L14.9995 20.25L19.9995 20.25Z"
		fill-rule="evenodd" />
</svg>