<svg viewBox="0 0 24 24" xmlns="http://www.w3.org/2000/svg"
	xmlns:xlink="http://www.w3.org/1999/xlink">
	<defs />
	<g opacity="0.000000" />
	<path id="矢量 205"
		d="M21 2.75C21.4142 2.75 21.75 3.08578 21.75 3.5C21.75 3.8797 21.4678 4.19348 21.1018 4.24316L21 4.25L3 4.25C2.58582 4.25 2.25 3.91422 2.25 3.5C2.25 3.1203 2.53217 2.80652 2.89819 2.75684L3 2.75L21 2.75ZM2.25 8.36948C2.25 7.75037 2.75293 7.25 3.37134 7.25C3.63831 7.25 3.89661 7.34506 4.09973 7.51828L8.35693 11.1488C8.82886 11.5512 8.88367 12.26 8.47876 12.73L8.35693 12.8512L4.09973 16.4817C3.63 16.8822 2.92419 16.8282 2.52124 16.3605C2.34631 16.1575 2.25 15.8985 2.25 15.6305L2.25 8.36948ZM21 8.5C21.4142 8.5 21.75 8.83578 21.75 9.25C21.75 9.6297 21.4678 9.94348 21.1018 9.99316L21 10L12 10C11.5858 10 11.25 9.66422 11.25 9.25C11.25 8.8703 11.5322 8.55652 11.8982 8.50684L12 8.5L21 8.5ZM21.75 14.75C21.75 14.3358 21.4142 14 21 14L12 14L11.8982 14.0068C11.5322 14.0565 11.25 14.3703 11.25 14.75C11.25 15.1642 11.5858 15.5 12 15.5L21 15.5L21.1018 15.4932C21.4678 15.4435 21.75 15.1297 21.75 14.75ZM21 19.75C21.4142 19.75 21.75 20.0858 21.75 20.5C21.75 20.8797 21.4678 21.1935 21.1018 21.2432L21 21.25L3 21.25C2.58582 21.25 2.25 20.9142 2.25 20.5C2.25 20.1203 2.53217 19.8065 2.89819 19.7568L3 19.75L21 19.75Z"
		fill-rule="evenodd" />
</svg>