<svg viewBox="0 0 24 24" xmlns="http://www.w3.org/2000/svg"
	xmlns:xlink="http://www.w3.org/1999/xlink">
	<defs />
	<g opacity="0.000000" />
	<path id="矢量 203"
		d="M5.74319 2.89822C5.69354 2.53217 5.37973 2.25 5.00003 2.25L3.9892 2.25L3.88461 2.25732C3.71243 2.28156 3.5528 2.36514 3.43433 2.49539L2.44519 3.58304C2.24149 3.88663 2.21686 4.38913 2.49542 4.64249C2.79904 4.84616 3.30154 4.87082 3.5549 4.59225L4.25003 3.827L4.25003 7L4.2569 7.10178C4.30655 7.46783 4.62036 7.75 5.00003 7.75C5.41425 7.75 5.75003 7.41422 5.75003 7L5.75003 3L5.74319 2.89822ZM21.75 5.04544C21.75 4.63123 21.4142 4.29544 21 4.29544L9.00003 4.29544L8.89828 4.30231C8.5322 4.35196 8.25003 4.66577 8.25003 5.04544C8.25003 5.45966 8.58582 5.79544 9.00003 5.79544L21 5.79544L21.1018 5.7886C21.4679 5.73895 21.75 5.42514 21.75 5.04544ZM4.09299 9.25C4.44742 9.25 4.77478 9.33319 5.06082 9.5047C5.3468 9.67612 5.57092 9.91739 5.7225 10.2159C5.86569 10.498 5.93552 10.8115 5.93552 11.1472C5.93552 11.4842 5.85849 11.8056 5.70572 12.1014C5.5972 12.3114 5.43372 12.5505 5.18954 12.8538L5.06061 13.011L4.83105 13.25L5.50003 13.25C5.87973 13.25 6.19354 13.5322 6.24319 13.8982L6.25003 14C6.25003 14.3797 5.9679 14.6935 5.60181 14.7432L5.50003 14.75L3.07202 14.75C2.44797 14.75 2.11191 14.0431 2.46191 13.5629L3.94168 12.0135L4.13516 11.7702C4.2478 11.6216 4.32751 11.5011 4.37302 11.4129C4.4151 11.3315 4.43552 11.2463 4.43552 11.1472C4.43552 11.0399 4.41748 10.959 4.38498 10.895C4.36084 10.8474 4.33261 10.817 4.28955 10.7912C4.24658 10.7654 4.18582 10.75 4.09299 10.75C3.97021 10.75 3.87866 10.78 3.79327 10.8446C3.73022 10.8923 3.7088 10.9182 3.65274 11.0172C3.4487 11.3777 2.99106 11.5045 2.63058 11.3004C2.27011 11.0964 2.14331 10.6387 2.34735 10.2783C2.49866 10.011 2.65018 9.82855 2.88812 9.64853C3.23715 9.38437 3.64716 9.25 4.09299 9.25ZM21 11.25C21.4142 11.25 21.75 11.5858 21.75 12C21.75 12.3797 21.4679 12.6935 21.1018 12.7432L21 12.75L9.00003 12.75C8.58582 12.75 8.25003 12.4142 8.25003 12C8.25003 11.6203 8.5322 11.3065 8.89828 11.2568L9.00003 11.25L21 11.25ZM4.20438 18.2576C3.36411 18.3674 3.36411 19.6326 4.20438 19.7424L4.32416 19.75L4.47305 19.7464L4.67093 19.7369L4.75003 19.8602C4.75003 19.9543 4.7337 20.0119 4.70584 20.0529C4.66791 20.1086 4.6188 20.1494 4.54523 20.1829C4.44846 20.227 4.33643 20.25 4.202 20.25C4.03918 20.25 3.91718 20.2154 3.81699 20.1487C3.75574 20.108 3.70963 20.0551 3.67163 19.9786C3.4642 19.6729 3.00616 19.4719 2.66617 19.6409C2.29526 19.8253 2.14407 20.2755 2.32846 20.6464C2.48209 20.9554 2.70355 21.2095 2.98587 21.3974C3.34027 21.6333 3.75195 21.75 4.202 21.75C4.54568 21.75 4.86969 21.6833 5.1669 21.548C5.4873 21.4021 5.75131 21.1826 5.94574 20.897C6.15021 20.5967 6.25003 20.2445 6.25003 19.8602L6.2421 19.6747C6.21552 19.3706 6.12195 19.0926 5.95505 18.849C6.05551 18.625 6.12881 18.3327 6.12881 18.0712C6.12881 17.7273 6.04486 17.4067 5.87451 17.1244C5.70334 16.8407 5.46063 16.6183 5.1601 16.4658C4.8735 16.3203 4.55286 16.25 4.20703 16.25C3.75513 16.25 3.3429 16.3745 2.99289 16.6248C2.71252 16.8253 2.49756 17.0944 2.35352 17.4189C2.18546 17.7975 2.35614 18.2407 2.73474 18.4087C3.11334 18.5768 3.55646 18.4061 3.72452 18.0275C3.75333 17.9827 3.82657 17.8727 3.86554 17.8448C3.95328 17.7821 4.05957 17.75 4.20703 17.75C4.32587 17.75 4.41437 17.7694 4.48129 17.8034C4.53436 17.8303 4.56607 17.8593 4.59021 17.8994C4.61511 17.9407 4.62881 17.993 4.62881 18.0712L4.60852 18.188L4.47498 18.2332L4.20438 18.2576ZM21.75 18.9545C21.75 18.5403 21.4142 18.2046 21 18.2046L9.00003 18.2046L8.89828 18.2114C8.5322 18.261 8.25003 18.5749 8.25003 18.9545C8.25003 19.3688 8.58582 19.7045 9.00003 19.7045L21 19.7045L21.1018 19.6977C21.4679 19.648 21.75 19.3342 21.75 18.9545Z"
		fill-rule="evenodd" />
</svg>