<svg viewBox="0 0 24 24" xmlns="http://www.w3.org/2000/svg"
	xmlns:xlink="http://www.w3.org/1999/xlink">
	<defs />
	<g opacity="0.000000" />
	<path id="路径"
		d="M17.4995 2.45435C17.9138 2.45435 18.2495 2.79013 18.2495 3.20435C18.2495 3.58405 17.9674 3.89783 17.6013 3.94751L17.4995 3.95435L14.6906 3.95419L11.2216 20.0452L14.1149 20.0457C14.5291 20.0457 14.8649 20.3814 14.8649 20.7957C14.8649 21.1754 14.5828 21.4891 14.2167 21.5388L14.1149 21.5457L6.49954 21.5457C6.08533 21.5457 5.74954 21.2099 5.74954 20.7957C5.74954 20.416 6.03171 20.1022 6.39777 20.0525L6.49954 20.0457L9.68655 20.0452L13.1566 3.95419L9.88416 3.95435C9.46994 3.95435 9.13416 3.61856 9.13416 3.20435C9.13416 2.82465 9.41632 2.51086 9.78238 2.46118L9.88416 2.45435L17.4995 2.45435Z"
		fill-rule="evenodd" />
</svg>