<svg viewBox="0 0 24 24" xmlns="http://www.w3.org/2000/svg"
	xmlns:xlink="http://www.w3.org/1999/xlink">
	<defs />
	<g opacity="0.000000" />
	<path id="矢量 192"
		d="M2.25 4.5C2.25 3.80963 2.80963 3.25 3.5 3.25C4.19037 3.25 4.75 3.80963 4.75 4.5C4.75 5.19037 4.19037 5.75 3.5 5.75C2.80963 5.75 2.25 5.19037 2.25 4.5ZM21.75 4.5C21.75 4.08578 21.4142 3.75 21 3.75L7 3.75L6.89819 3.75684C6.53217 3.80652 6.25 4.1203 6.25 4.5C6.25 4.91422 6.58582 5.25 7 5.25L21 5.25L21.1018 5.24316C21.4678 5.19348 21.75 4.8797 21.75 4.5ZM2.25 12C2.25 11.3096 2.80963 10.75 3.5 10.75C4.19037 10.75 4.75 11.3096 4.75 12C4.75 12.6904 4.19037 13.25 3.5 13.25C2.80963 13.25 2.25 12.6904 2.25 12ZM21 11.25C21.4142 11.25 21.75 11.5858 21.75 12C21.75 12.3797 21.4678 12.6935 21.1018 12.7432L21 12.75L7 12.75C6.58582 12.75 6.25 12.4142 6.25 12C6.25 11.6203 6.53217 11.3065 6.89819 11.2568L7 11.25L21 11.25ZM3.5 18.25C2.80963 18.25 2.25 18.8096 2.25 19.5C2.25 20.1904 2.80963 20.75 3.5 20.75C4.19037 20.75 4.75 20.1904 4.75 19.5C4.75 18.8096 4.19037 18.25 3.5 18.25ZM21.75 19.5C21.75 19.0858 21.4142 18.75 21 18.75L7 18.75L6.89819 18.7568C6.53217 18.8065 6.25 19.1203 6.25 19.5C6.25 19.9142 6.58582 20.25 7 20.25L21 20.25L21.1018 20.2432C21.4678 20.1935 21.75 19.8797 21.75 19.5Z"
		fill-rule="evenodd" />
</svg>