<svg viewBox="0 0 24 24" xmlns="http://www.w3.org/2000/svg"
	xmlns:xlink="http://www.w3.org/1999/xlink">
	<defs />
	<g opacity="0.000000" />
	<path id="矢量 218"
		d="M10.2536 4.82568C10.2536 4.36969 9.88397 4 9.42795 4L4.7157 4C4.25967 4 3.89001 4.36969 3.89001 4.82568L3.89001 9.9743C3.89001 10.4303 4.25967 10.8 4.7157 10.8L8.75 10.8L8.75 12.6417L8.74643 12.9394C8.64456 17.1561 6.37082 19.25 3.5 19.25C3.08578 19.25 2.75 19.5858 2.75 20C2.75 20.4142 3.08578 20.75 3.5 20.75C7.24866 20.75 10.25 17.9045 10.25 12.6417L10.25 10.025L10.2536 4.82568ZM19.9279 4C20.384 4 20.7536 4.36969 20.7536 4.82568L20.7536 9.9743L20.75 12.6417C20.75 17.9045 17.7487 20.75 14 20.75C13.5858 20.75 13.25 20.4142 13.25 20C13.25 19.5858 13.5858 19.25 14 19.25C16.8708 19.25 19.1446 17.1561 19.2464 12.9394L19.25 12.6417L19.25 10.8L15.2157 10.8C14.7597 10.8 14.39 10.4303 14.39 9.9743L14.39 4.82568C14.39 4.36969 14.7597 4 15.2157 4L19.9279 4Z"
		fill-rule="evenodd" />
</svg>