<svg viewBox="0 0 24 24" xmlns="http://www.w3.org/2000/svg"
	xmlns:xlink="http://www.w3.org/1999/xlink">
	<defs />
	<g opacity="0.000000" />
	<path id="矢量 216"
		d="M17.2495 3C17.2495 2.58582 16.9138 2.25 16.4995 2.25L5.6662 2.25L5.49261 2.25549C3.94305 2.35425 2.74954 3.7666 2.74954 5.45453L2.74954 18.5455L2.75443 18.7318C2.84167 20.3979 4.09143 21.75 5.6662 21.75L16.4995 21.75L16.6013 21.7432C16.9674 21.6935 17.2495 21.3797 17.2495 21C17.2495 20.5858 16.9138 20.25 16.4995 20.25L5.6662 20.25L5.54059 20.2432C4.83514 20.1667 4.24954 19.4529 4.24954 18.5455L4.24954 5.45453L4.25552 5.29651C4.32281 4.41345 4.9483 3.75 5.6662 3.75L16.4995 3.75L16.6013 3.74316C16.9674 3.69348 17.2495 3.3797 17.2495 3ZM20.7427 2.89825C20.693 2.53217 20.3792 2.25 19.9995 2.25C19.5853 2.25 19.2495 2.58582 19.2495 3L19.2495 21L19.2564 21.1017C19.3061 21.4678 19.6198 21.75 19.9995 21.75C20.4138 21.75 20.7495 21.4142 20.7495 21L20.7495 3L20.7427 2.89825Z"
		fill-rule="evenodd" />
</svg>