<svg viewBox="0 0 24 24" xmlns="http://www.w3.org/2000/svg"
	xmlns:xlink="http://www.w3.org/1999/xlink">
	<defs />
	<g opacity="0.000000" />
	<path id="矢量 223"
		d="M19.2487 2.75C19.73 2.75 20.1669 2.85406 20.5477 3.06812C20.9336 3.28497 21.2371 3.59125 21.4454 3.97601C21.6473 4.34882 21.7468 4.76752 21.7468 5.22083C21.7468 5.67401 21.637 6.10358 21.4198 6.49768C21.2559 6.79529 21.0002 7.14398 20.6239 7.58118L20.4552 7.77405L19.456 8.75L21.5 8.75C21.8797 8.75 22.1935 9.03217 22.2432 9.39825L22.25 9.5C22.25 9.8797 21.9679 10.1935 21.6018 10.2432L21.5 10.25L17.6152 10.25C16.9782 10.25 16.6461 9.51709 17.0219 9.04041L17.0911 8.9635L19.3688 6.74121C19.7343 6.32721 19.9817 5.99957 20.106 5.7738C20.2007 5.60211 20.2468 5.42169 20.2468 5.22083C20.2468 5.0097 20.2057 4.83661 20.1264 4.69031C20.0537 4.55597 19.9534 4.45471 19.8128 4.37573C19.6671 4.29388 19.483 4.25 19.2487 4.25C18.9467 4.25 18.6975 4.3266 18.479 4.48157C18.3276 4.58899 18.2574 4.66821 18.1421 4.85925C17.928 5.21387 17.4669 5.32776 17.1124 5.11365C16.7578 4.89954 16.6439 4.43854 16.858 4.08392C17.0744 3.72546 17.2809 3.49237 17.6111 3.25818C18.0878 2.91998 18.641 2.75 19.2487 2.75ZM2.15466 21.158C2.47195 21.4242 2.94504 21.3828 3.2113 21.0656L9.00003 14.1668L14.7888 21.0656L14.8662 21.1452C15.1397 21.3879 15.5569 21.4 15.8454 21.158C16.1627 20.8917 16.2041 20.4186 15.9379 20.1014L9.9791 13L15.9378 5.89862L16.0028 5.80853C16.1943 5.49701 16.1339 5.08405 15.8454 4.84204C15.5281 4.57574 15.055 4.61713 14.7888 4.93445L9.00003 11.8332L3.21127 4.93445L3.13382 4.85474C2.86032 4.61218 2.44315 4.59998 2.15466 4.84204C1.83737 5.10822 1.79599 5.5813 2.06223 5.89862L8.02097 13L2.06219 20.1014L1.99722 20.1915C1.80576 20.5029 1.86621 20.916 2.15466 21.158Z"
		fill-rule="evenodd" />
</svg>