<svg viewBox="0 0 24 24" xmlns="http://www.w3.org/2000/svg"
	xmlns:xlink="http://www.w3.org/1999/xlink">
	<defs />
	<g opacity="0.000000" />
	<path id="矢量 2"
		d="M4.5 3.75L15.5 3.75C17.5606 3.75 19.25 5.3338 19.25 7.3125L19.25 7.75342L21.0831 6.88928C21.9207 6.49445 22.8519 6.96478 23.153 7.85187C23.2173 8.04126 23.25 8.24152 23.25 8.44305L23.25 15.5573C23.25 16.4673 22.5858 17.25 21.7 17.25C21.4869 17.25 21.2769 17.2024 21.0831 17.111L20.9312 17.0335L20.7457 16.9285L20.523 16.7942L20.1113 16.5335L19.25 15.9661L19.25 16.6875C19.25 18.6662 17.5606 20.25 15.5 20.25L4.5 20.25C2.43936 20.25 0.75 18.6662 0.75 16.6875L0.75 7.3125C0.75 5.3338 2.43936 3.75 4.5 3.75ZM17.75 7.3125L17.75 16.6875C17.75 17.8154 16.7531 18.75 15.5 18.75L4.5 18.75C3.24692 18.75 2.25 17.8154 2.25 16.6875L2.25 7.3125C2.25 6.18463 3.24692 5.25 4.5 5.25L15.5 5.25C16.7531 5.25 17.75 6.18463 17.75 7.3125ZM10 7.75C7.6528 7.75 5.75 9.65277 5.75 12C5.75 14.3472 7.6528 16.25 10 16.25C12.3472 16.25 14.25 14.3472 14.25 12C14.25 9.65277 12.3472 7.75 10 7.75ZM19.25 14.171L19.25 9.41101L21.7227 8.24609C21.734 8.27942 21.75 8.40466 21.75 8.44305L21.75 15.5573C21.74 15.6194 21.7135 15.7276 21.703 15.744L21.5996 15.6895L21.4254 15.5875L20.9257 15.2736L19.25 14.171ZM10 9.25C11.5188 9.25 12.75 10.4812 12.75 12C12.75 13.5188 11.5188 14.75 10 14.75C8.48123 14.75 7.25 13.5188 7.25 12C7.25 10.4812 8.48123 9.25 10 9.25Z"
		fill-rule="evenodd" />
</svg>