<svg viewBox="0 0 24 24" xmlns="http://www.w3.org/2000/svg"
	xmlns:xlink="http://www.w3.org/1999/xlink">
	<defs />
	<g opacity="0.000000" />
	<path id="矢量 235"
		d="M18.1579 2.25L5.8421 2.25C3.85825 2.25 2.25 3.85822 2.25 5.8421L2.25 18.1579C2.25 20.1418 3.85825 21.75 5.8421 21.75L18.1579 21.75C20.1418 21.75 21.75 20.1418 21.75 18.1579L21.75 5.8421C21.75 3.85822 20.1418 2.25 18.1579 2.25ZM15.75 20.25L18.1579 20.25C19.3133 20.25 20.25 19.3134 20.25 18.1579L20.25 10.25L15.75 10.25L15.75 20.25ZM14.25 10.25L14.25 20.25L9.75 20.25L9.75 10.25L14.25 10.25ZM20.25 8.75L20.25 5.8421C20.25 4.68665 19.3133 3.75 18.1579 3.75L5.8421 3.75C4.68668 3.75 3.75 4.68665 3.75 5.8421L3.75 8.75L20.25 8.75ZM8.25 20.25L8.25 10.25L3.75 10.25L3.75 18.1579C3.75 19.3134 4.68668 20.25 5.8421 20.25L8.25 20.25Z"
		fill-rule="evenodd" />
</svg>