<svg viewBox="0 0 24 24" xmlns="http://www.w3.org/2000/svg"
	xmlns:xlink="http://www.w3.org/1999/xlink">
	<defs />
	<g opacity="0.000000" />
	<path id="矢量 141"
		d="M12 1.25002C14.3112 1.25002 16.5139 1.98203 18.3405 3.31815C18.6749 3.5627 18.7476 4.03195 18.5031 4.36627C18.2585 4.70059 17.7893 4.77338 17.455 4.52882C15.8832 3.37915 13.9901 2.75002 12 2.75002C6.89136 2.75002 2.75 6.89139 2.75 12C2.75 17.1086 6.89136 21.25 12 21.25C17.1086 21.25 21.25 17.1086 21.25 12C21.25 10.0093 20.6205 8.1156 19.4701 6.54361C19.2255 6.20935 19.2982 5.74007 19.6325 5.49545C19.9667 5.25084 20.436 5.32352 20.6806 5.65779C22.0175 7.48471 22.75 9.68811 22.75 12C22.75 17.9371 17.9371 22.75 12 22.75C6.06293 22.75 1.25 17.9371 1.25 12C1.25 6.06296 6.06293 1.25002 12 1.25002ZM18.75 8.66669C18.75 7.33868 17.7049 6.25 16.4 6.25L7.60001 6.25C6.2951 6.25 5.25 7.33868 5.25 8.66669L5.25 15.3333C5.25 16.6613 6.2951 17.75 7.60001 17.75L16.4 17.75C17.7049 17.75 18.75 16.6613 18.75 15.3333L18.75 8.66669ZM16.4 7.75L7.60001 7.75C7.13754 7.75 6.75 8.15372 6.75 8.66669L6.75 15.3333C6.75 15.8463 7.13754 16.25 7.60001 16.25L16.4 16.25C16.8624 16.25 17.25 15.8463 17.25 15.3333L17.25 8.66669C17.25 8.15372 16.8624 7.75 16.4 7.75ZM16.0795 10.4762C16.312 10.194 16.309 9.77667 16.0565 9.49725C15.7789 9.18988 15.3046 9.1658 14.9972 9.44348L11.979 12.169L8.97949 9.67487C8.66714 9.4848 8.16406 9.48248 7.92331 9.77203C7.65848 10.0905 7.702 10.5634 8.02048 10.8282L11.1755 13.4516L11.2845 13.5333C11.7684 13.8591 12.3947 13.8159 12.8387 13.4148L16.0795 10.4762Z"
		fill-rule="evenodd" />
</svg>