<svg viewBox="0 0 24 24" xmlns="http://www.w3.org/2000/svg"
	xmlns:xlink="http://www.w3.org/1999/xlink">
	<defs />
	<path id="矢量 64"
		d="M18.6 4.25L5.40002 4.25C3.66492 4.25 2.25 5.62566 2.25 7.33333L2.25 16.6667C2.25 18.3743 3.66492 19.75 5.40002 19.75L18.6 19.75C20.3351 19.75 21.75 18.3743 21.75 16.6667L21.75 7.33333C21.75 5.62566 20.3351 4.25 18.6 4.25ZM5.40002 5.75L18.6 5.75C19.5159 5.75 20.25 6.46368 20.25 7.33333L20.25 16.6667C20.25 17.5363 19.5159 18.25 18.6 18.25L5.40002 18.25C4.48407 18.25 3.75 17.5363 3.75 16.6667L3.75 7.33333C3.75 6.46368 4.48407 5.75 5.40002 5.75ZM18.5884 7.53491C18.3315 7.20996 17.8599 7.15475 17.5349 7.41161L12.1108 11.699L12.0598 11.7308C11.9904 11.7631 11.9168 11.7546 11.8498 11.7058L6.44122 7.77083L6.3468 7.7122C6.02283 7.54274 5.61505 7.63156 5.39355 7.93605C5.14984 8.271 5.22382 8.74008 5.55872 8.98376L10.9673 12.9188L11.0956 13.0039C11.7061 13.3715 12.4714 13.326 13.041 12.8758L18.4651 8.58839L18.547 8.51328C18.7975 8.24699 18.8219 7.83034 18.5884 7.53491Z"
		fill-rule="evenodd" />
</svg>