<?xml version="1.0" encoding="UTF-8"?>
<svg viewBox="0 0 24 24" version="1.1" xmlns="http://www.w3.org/2000/svg" xmlns:xlink="http://www.w3.org/1999/xlink">
    <g id="页面-1" stroke="none" stroke-width="1">
        <g id="画板" transform="translate(-319.000000, -1314.000000)">
            <g id="编组" transform="translate(319.000000, 1314.000000)">
                <path d="M18.996,3.915 C19.79605,3.915 20.5480486,4.23026364 21.1060423,4.78140242 C21.1079613,4.78340335 21.1085961,4.78403595 21.1092301,4.78466991 L21.128,4.806 L21.179179,4.86507044 C21.1803859,4.86667626 21.1815856,4.86828584 21.182778,4.86989914 L21.1092301,4.78466991 C21.1485812,4.82402107 21.1826454,4.86665711 21.2114227,4.91169538 C21.2235101,4.93042496 21.234785,4.94997159 21.245108,4.96988581 C21.2509354,4.98133131 21.2564398,4.99265648 21.2616424,5.00408541 C21.2726082,5.02791151 21.2823409,5.05272601 21.2907043,5.07789793 C21.2946916,5.09022823 21.2982406,5.10189912 21.3014991,5.11363379 C21.3078472,5.1360597 21.3131756,5.15948942 21.3173699,5.18308274 C21.3200182,5.19858338 21.3222123,5.21362534 21.3239494,5.22870994 C21.326598,5.25067112 21.3281999,5.27346092 21.328767,5.29627286 C21.3290027,5.31011782 21.3289707,5.32349271 21.3285834,5.33685921 C21.3280623,5.35867724 21.326456,5.38079634 21.3238743,5.40282404 C21.3217237,5.4202769 21.3190756,5.43761019 21.3158197,5.45485132 C21.3122156,5.474514 21.3076716,5.49422215 21.3023229,5.51375727 C21.2982,5.52843181 21.2937389,5.54297525 21.2888262,5.55739883 C21.2695546,5.61429894 21.2430992,5.6694167 21.2095815,5.72131803 C21.2008252,5.73473946 21.1915781,5.74809829 21.1818482,5.76121165 L21.1092301,5.84533009 L13.5912301,13.3633301 C12.7541889,14.2003712 11.4219273,14.2402303 10.5377223,13.4829074 L10.4085699,13.3633301 L4.96956991,7.92433009 C4.6766767,7.63143687 4.6766767,7.15656313 4.96956991,6.86366991 C5.23583648,6.59740335 5.65250016,6.5731973 5.94611165,6.79105176 L6.03023009,6.86366991 L11.4692301,12.3026699 C11.7356908,12.5691306 12.1525808,12.5933543 12.4463923,12.375341 L12.5305699,12.3026699 L19.370356,5.46187706 C19.2969501,5.44309886 19.2217095,5.4298103 19.1451326,5.42228729 L18.996,5.415 L5.004,5.415 C4.22396571,5.415 3.58351154,6.0095698 3.51086307,6.77048382 L3.504,6.915 L3.504,17.085 C3.504,17.8650343 4.0985698,18.5054885 4.85948382,18.5781369 L5.004,18.585 L18.996,18.585 C19.7760343,18.585 20.4164885,17.9904302 20.4891369,17.2295162 L20.496,17.085 L20.496,8.17004395 C20.496,7.75583038 20.8317864,7.42004395 21.246,7.42004395 C21.6256958,7.42004395 21.939491,7.70219783 21.9891534,8.06827339 L21.996,8.17004395 L21.996,17.085 C21.996,18.6830274 20.7474141,19.9886856 19.1723086,20.0799086 L18.996,20.085 L5.004,20.085 C3.40597264,20.085 2.10031437,18.8364141 2.00909137,17.2613086 L2.004,17.085 L2.004,6.915 C2.004,5.31697264 3.25258586,4.01131437 4.82769141,3.92009137 L5.004,3.915 L18.996,3.915 Z" id="形状结合"></path>
            </g>
        </g>
    </g>
</svg>