<?xml version="1.0" encoding="UTF-8"?>
<svg viewBox="0 0 24 24" version="1.1" xmlns="http://www.w3.org/2000/svg" xmlns:xlink="http://www.w3.org/1999/xlink">
    <g id="页面-1" stroke="none" stroke-width="1">
        <g id="画板" transform="translate(-789.000000, -1314.000000)">
            <g id="编组" transform="translate(789.000000, 1314.000000)">
                <path d="M5.75193649,1.99999988 C6.16615006,1.99999988 6.50193649,2.33578631 6.50193649,2.74999988 L6.50193649,21.2499999 C6.50193649,21.6642134 6.16615006,21.9999999 5.75193649,21.9999999 C5.33772293,21.9999999 5.00193649,21.6642134 5.00193649,21.2499999 L5.00193649,2.74999988 C5.00193649,2.33578631 5.33772293,1.99999988 5.75193649,1.99999988 Z M18.7721831,2.214244 C19.0411739,2.47775811 19.0696638,2.89415081 18.8548404,3.18998726 L18.7830912,3.27484808 L11.0156579,11.2037159 C10.568106,11.6605694 10.5417025,12.3742346 10.9340185,12.8613913 L11.0244943,12.962139 L18.7785177,20.7197942 C19.0713424,21.012756 19.0712312,21.4876297 18.7782694,21.7804544 C18.5119405,22.0466586 18.0952712,22.0707671 17.8017107,21.8528439 L17.7176093,21.780206 L9.96358585,14.0225508 C8.94227747,13.000764 8.89175969,11.373532 9.81781684,10.291912 L9.94414561,10.15402 L17.711579,2.22515217 C18.0014445,1.92926223 18.4762931,1.92437848 18.7721831,2.214244 Z" id="形状结合备份" transform="translate(12.000000, 12.000000) scale(-1, 1) translate(-12.000000, -12.000000) "></path>
            </g>
        </g>
    </g>
</svg>