<svg viewBox="0 0 24 24" xmlns="http://www.w3.org/2000/svg"
	xmlns:xlink="http://www.w3.org/1999/xlink">
	<defs />
	<g opacity="0.000000" />
	<path id="矢量 70"
		d="M14.2902 13.1995C14.9381 12.4722 14.9014 11.3692 14.179 10.6845L6.53455 3.45508L6.44843 3.38484C6.14886 3.17526 5.73303 3.21107 5.4743 3.48468C5.1897 3.78563 5.20294 4.26031 5.50388 4.54492L13.1468 11.7728L13.1976 11.8324C13.2816 11.9572 13.2646 12.1146 13.1465 12.226L5.48529 19.4545L5.41028 19.5365C5.18399 19.8236 5.19608 20.2408 5.4545 20.5147C5.73874 20.816 6.21341 20.8298 6.51471 20.5455L14.1759 13.3171L14.2902 13.1995ZM18.7432 3.89822C18.6935 3.53215 18.3797 3.25 18 3.25C17.5858 3.25 17.25 3.58578 17.25 4L17.25 20L17.2568 20.1018C17.3065 20.4678 17.6203 20.75 18 20.75C18.4142 20.75 18.75 20.4142 18.75 20L18.75 4L18.7432 3.89822Z"
		fill-rule="evenodd" />
</svg>