<?xml version="1.0" encoding="UTF-8"?>
<svg viewBox="0 0 24 24" version="1.1" xmlns="http://www.w3.org/2000/svg" xmlns:xlink="http://www.w3.org/1999/xlink">
    <g id="页面-1" stroke="none" stroke-width="1">
        <g id="画板" transform="translate(-1076.000000, -1306.000000)">
            <g id="编组" transform="translate(1076.000000, 1306.000000)">
                <path d="M16.066,15.017 C16.359,15.31 16.359,15.785 16.066,16.078 C15.92,16.224 15.728,16.297 15.536,16.297 C15.344,16.297 15.152,16.224 15.005,16.078 L12,13.073 L8.995,16.078 C8.848,16.224 8.656,16.297 8.464,16.297 C8.273,16.297 8.081,16.224 7.934,16.078 C7.641,15.785 7.641,15.31 7.934,15.017 L10.94,12.012 L7.934,9.006 C7.641,8.713 7.641,8.239 7.934,7.946 C8.227,7.653 8.702,7.653 8.995,7.946 L12,10.952 L15.005,7.946 C15.298,7.653 15.773,7.653 16.066,7.946 C16.359,8.239 16.359,8.713 16.066,9.006 L13.061,12.012 L16.066,15.017 Z M12,2 C6.477,2 2,6.477 2,12 C2,17.523 6.477,22 12,22 C17.523,22 22,17.523 22,12 C22,6.477 17.523,2 12,2 L12,2 Z" id="Fill-1"></path>
            </g>
        </g>
    </g>
</svg>