<svg viewBox="0 0 24 24" xmlns="http://www.w3.org/2000/svg"
	xmlns:xlink="http://www.w3.org/1999/xlink">
	<defs />
	<g opacity="0.000000" />
	<path id="矢量 142"
		d="M1.25 12C1.25 6.06293 6.06293 1.25 12 1.25C17.9371 1.25 22.75 6.06293 22.75 12C22.75 17.9371 17.9371 22.75 12 22.75C6.06293 22.75 1.25 17.9371 1.25 12ZM8.53033 7.46967L8.34412 7.3334C8.06189 7.18756 7.70636 7.23297 7.46967 7.46967C7.17676 7.76257 7.17676 8.23743 7.46967 8.53033L10.939 12L7.46967 15.4697C7.25183 15.7633 7.20337 16.2641 7.46967 16.5303C7.76257 16.8232 8.23743 16.8232 8.53033 16.5303L12 13.061L15.4697 16.5303C15.7633 16.7482 16.264 16.7966 16.5303 16.5303C16.8232 16.2374 16.8232 15.7626 16.5303 15.4697L13.061 12L16.5303 8.53033C16.7482 8.23672 16.7966 7.73593 16.5303 7.46967C16.2374 7.17676 15.7626 7.17676 15.4697 7.46967L12 10.939L8.53033 7.46967Z"
		fill-rule="evenodd" />
</svg>