<?xml version="1.0" encoding="UTF-8"?>
<svg viewBox="0 0 24 24" version="1.1" xmlns="http://www.w3.org/2000/svg" xmlns:xlink="http://www.w3.org/1999/xlink">
    <g id="S12组件" stroke="none" stroke-width="1">
        <g id="EspaceAuto">
            <path d="M10.9823914,3.98347447 C10.6962792,4.66188937 10.5279447,5.33091501 10.4126928,6.20261919 L10.369,6.562 L9.76216148,6.0847196 L8.89918418,5.35957436 C8.45346608,4.99954219 8.06069102,4.72951022 7.66665382,4.53475679 C6.82772005,4.12011262 6.02622801,4.08566132 5.36249724,4.621464 C4.9791884,4.93098076 4.8015323,5.30620384 4.66684875,5.95909522 L4.59666893,6.34402915 L4.49156307,7.02894159 L4.45301166,7.246646 L4.41659008,7.41068156 L4.37248352,7.5617324 L4.375,7.568 L4.51097482,7.53513191 C3.01407166,7.85451762 2.03726337,9.44694745 2.2888062,10.9543685 C2.38182103,11.5015352 2.61023804,12.0086209 2.96230643,12.4079821 C3.42703304,12.9381674 4.00203808,13.2291489 4.86448677,13.4702876 L5.34585195,13.594167 L5.92130442,13.7357518 L6.049,13.77 L5.54717384,14.0513142 C5.34575691,14.1690314 5.19867522,14.268496 5.07514424,14.3815428 C4.14516964,15.2333843 4.08714884,16.6763614 4.87262079,17.6774532 C5.39508619,18.3429978 5.95609194,18.6443642 7.00017164,18.9612795 L7.32482908,19.0563864 C8.28427485,19.3317551 8.63347818,19.4987161 8.91821342,19.875241 L9.29072499,20.4198056 C9.86443191,21.2487331 10.3910242,21.681492 11.2043207,21.614416 L11.3515555,21.5967087 C12.3106441,21.4421636 12.8753028,20.5553865 13.3462346,19.0414474 L13.424,18.78 L13.4315774,18.9957942 C13.4315528,19.2342871 13.4063942,19.4670655 13.3533322,19.6913816 C13.3244149,19.8136275 13.2872526,19.9327505 13.2415087,20.0487789 L13.1664145,20.2205037 C12.8225199,20.9343406 13.0749466,21.8181303 13.769768,22.2075256 C14.5045824,22.6193338 15.4217118,22.3602853 16.2807894,21.5435592 C16.870758,20.9826754 17.1597876,20.2354139 17.2064681,19.3776407 L17.2132693,19.0973885 C17.2127927,19.0035582 17.2096212,18.9093474 17.2039012,18.8148533 L17.195,18.72 L17.3326326,18.7840734 C17.4907548,18.8520094 17.6419271,18.9010666 17.7870914,18.9312275 C18.706898,19.1223358 19.3577312,18.5680634 19.5044603,17.609084 L19.5300258,17.4100544 L19.546531,17.194739 L19.5602117,16.7698199 L19.5718708,16.1558666 L19.591788,15.807765 C19.6325415,15.331823 19.7222494,15.0598871 19.8609673,14.9387531 L20.3992176,14.4934442 C21.2711278,13.7746874 21.6786524,13.1966019 21.7422821,12.230587 L21.7508133,12.0462771 C21.790452,10.4872004 20.9391463,9.91549765 19.2603574,9.72267748 L18.8582844,9.68462928 L18.725,9.674 L18.8322715,9.57779924 C18.9708541,9.44844564 19.0857389,9.32611944 19.2059332,9.1818864 C20.4166096,7.73261038 19.6333656,5.49957407 17.9459208,5.0576732 C17.785642,5.01576819 17.6284331,4.99042495 17.4469928,4.973932 L16.8012503,4.93549343 L16.6148081,4.91407495 C16.4590007,4.88837794 16.3868881,4.84814319 16.324584,4.7780511 C16.2430991,4.68639869 16.1746123,4.58243257 16.1072483,4.4490648 L15.9879787,4.18265284 L15.9065805,3.97852297 C15.5182541,3.0013788 15.1000043,2.52131525 14.0977517,2.30913104 C12.8778984,2.05133658 11.5872536,2.64806298 11.0739685,3.77474198 L10.9823914,3.98347447 Z M13.7873401,3.77666111 C14.1598431,3.85552278 14.272356,3.95560628 14.4594867,4.40193881 L14.648617,4.86772181 L14.6661708,4.90783398 C14.8147739,5.24659673 14.9769894,5.51985656 15.203519,5.77465196 C15.632147,6.25685853 16.0387343,6.39052346 16.7972385,6.43876176 L17.1710001,6.45766685 C17.3477947,6.4677563 17.4670488,6.48289171 17.56621,6.50881743 C18.2109276,6.67765339 18.5458073,7.63239882 18.054177,8.22091969 C17.9530281,8.34229794 17.8488571,8.44818108 17.6964437,8.58137727 L17.4874971,8.7570627 L16.9202981,9.21049727 L16.7510984,9.35010403 C16.7428036,9.35655655 16.7317555,9.36511441 16.716545,9.37688715 C16.5787753,9.48460518 16.4819682,9.58212944 16.3909423,9.73728719 C16.1748221,10.105674 16.3095198,10.5799096 16.6870173,10.7796904 C17.0528854,10.9733167 17.4169217,11.0599253 18.0109148,11.1205273 L18.4435215,11.1579648 L18.9232488,11.1948863 L19.2381496,11.2271204 C20.1047505,11.3322941 20.2856492,11.5257224 20.2455409,12.1317655 C20.2178761,12.5517665 20.0584607,12.8096317 19.5827983,13.2200597 L19.0426517,13.6654556 L18.8743375,13.8089029 C18.3305796,14.2837337 18.1367994,14.9181077 18.0827851,15.8783709 L18.0667615,16.3407191 L18.0544526,16.9764445 L18.0450403,17.1661338 L18.0310135,17.3151213 C18.0282049,17.3378793 18.0251394,17.3599302 18.0217845,17.3817686 L18.018,17.442 L17.9369989,17.4125128 C17.61911,17.2809845 17.1208942,16.9309618 16.4887863,16.3615707 C15.887419,15.8198701 14.9729862,16.4832574 15.301296,17.2230513 L15.3572325,17.3605839 L15.4272338,17.5575998 L15.5047248,17.8065031 C15.6543337,18.3219208 15.7336622,18.8371517 15.7086843,19.2961305 C15.681302,19.7992917 15.531729,20.1860001 15.2472646,20.4564408 C14.9910502,20.7000241 14.7724244,20.835813 14.6075609,20.8823796 L14.5602442,20.894177 L14.5104965,20.9002624 C14.5063643,20.9000733 14.5040356,20.89953 14.5030963,20.8990036 L14.5108218,20.8984763 L14.5177724,20.8715273 C14.6470985,20.6030796 14.7450355,20.3241964 14.8130481,20.0366777 C15.0733395,18.9363133 14.8932939,17.7982261 14.4450538,16.7007562 C14.2646646,16.2590917 14.0820121,15.9210355 13.9511542,15.7179404 C13.6077234,15.1849266 12.798898,15.2921256 12.6061732,15.8961998 L12.5604272,16.0609475 L12.0702859,18.0534502 L12.0432198,18.1544978 C11.6970814,19.4038527 11.3019533,20.1016124 11.0821785,20.1193976 C11.0071149,20.1255877 10.8793601,20.0341732 10.6837737,19.7842613 L10.4588916,19.468825 L10.1952779,19.082929 L10.1147747,18.9706742 C9.60495376,18.2965031 9.07615013,18.0149772 7.98195791,17.6859805 L7.64640763,17.5881026 C6.73676405,17.326247 6.35908789,17.1417805 6.05261226,16.7513754 C5.76170366,16.3806095 5.75625836,15.882229 6.01189082,15.5686043 L6.10030657,15.4767728 L6.14084675,15.44479 L6.36853368,15.3106452 L6.75358548,15.0957752 C7.43032897,14.7190412 7.75640268,14.4803916 7.95072452,14.0639877 C8.20446411,13.5228398 8.06786664,12.9691708 7.58715564,12.660881 C7.44158739,12.567525 7.31304711,12.5128221 7.13217554,12.4657621 L6.88557167,12.410974 L6.50708291,12.3387131 L5.92222608,12.1899957 L5.477624,12.0814778 C4.74901637,11.8956696 4.34489732,11.7096908 4.08890176,11.4176395 C3.92803289,11.2351568 3.8156404,10.9856455 3.76796916,10.7052265 C3.64398764,9.96222114 4.14392081,9.14721117 4.8232096,9.00227499 C5.52698539,8.85288347 5.74951251,8.49196738 5.92760645,7.52759219 L5.98932945,7.16152915 L6.04625955,6.78262745 C6.06357427,6.66750231 6.08086117,6.56321818 6.0979721,6.46930427 L6.14862879,6.21820246 L6.19734061,6.02649733 C6.23687649,5.89070704 6.27346041,5.81384591 6.30477724,5.78855799 C6.42913523,5.68816889 6.63266178,5.69691727 7.00202478,5.87947544 C7.23269681,5.99348541 7.48674916,6.16071641 7.77759929,6.38500103 L8.03028796,6.58699333 L8.8777088,7.2987215 C9.06330934,7.4418232 9.24027375,7.5798625 9.41444058,7.71964169 L9.81142741,8.04639753 L10.0164198,8.22468368 L10.1803473,8.37670046 L10.275,8.473 L10.278345,8.48481223 C10.501575,9.13937838 11.5748186,9.143044 11.7220758,8.37829776 L11.7422212,8.17839038 L11.7602382,7.90540934 C11.7745575,7.69180523 11.7894632,7.49091478 11.80539,7.30112992 L11.8566678,6.7634841 C11.9578859,5.83298472 12.1031346,5.18978616 12.3647115,4.56634864 L12.4389891,4.39660916 C12.6516368,3.9298399 13.2352814,3.65999328 13.7873401,3.77666111 Z" id="Stroke-1"></path>
        </g>
    </g>
</svg>