<svg viewBox="0 0 24 24" xmlns="http://www.w3.org/2000/svg"
	xmlns:xlink="http://www.w3.org/1999/xlink">
	<defs />
	<g opacity="0.000000" />
	<path id="path4"
		d="M16.3161 17.64C18.1056 19.432 18.9286 20.6134 19.9827 19.8062C20.8157 19.1682 20.5836 18.4554 20.5271 15.5094C21.0798 15.3552 21.6157 14.9939 22.1348 14.4254C22.9136 13.5726 23.6116 11.5807 22.1348 10.5738C21.2873 9.85565 19.9084 10.036 17.9094 9.99243C20.0519 8.73428 20.8689 7.39944 20.3605 5.98788C19.5978 3.87054 17.4643 4.46936 16.645 4.44308C16.5646 2.89313 16.0523 1.86411 15.1081 1.35599C13.6918 0.593811 12.1561 0.963623 11.4696 3.36676C11.017 4.9512 11.0323 6.43228 10.8077 7.52573C8.58453 5.25238 6.849 3.01099 4.97333 3.77841C3.09766 4.54581 3.64514 5.98788 3.64514 7.52573C2.54791 7.72739 1.91919 8.23615 1.50159 8.80884C0.214722 10.5738 1.61884 12.5997 3.28937 13.236C4.64185 13.7512 5.8623 14.08 6.95068 14.2226C5.86743 14.4956 4.9566 15.1355 4.21808 16.1422C3.61627 16.9625 3.26709 18.6444 4.38824 19.5316C5.5094 20.4188 6.36853 19.8636 7.4082 20.2805C8.44788 20.6974 8.35004 21.9046 9.68756 22.182C11.0251 22.4594 11.4767 21.9046 12.0114 20.7355C12.3854 19.9175 13.0501 18.8008 13.7136 17.4362C14.0697 18.2592 14.0697 18.9758 14.0697 19.5316C14.0697 19.9124 14.0141 21.4875 14.0697 22.182C14.0958 22.5084 14.2751 23.0612 15.1081 22.9945C15.9411 22.9277 16.3161 21.1836 16.3161 19.8062C16.3161 19.2626 16.3161 18.4995 16.3161 17.64Z"
		fill-rule="evenodd" />
</svg>