<svg viewBox="0 0 24 24" xmlns="http://www.w3.org/2000/svg"
	xmlns:xlink="http://www.w3.org/1999/xlink">
	<defs />
	<g opacity="0.000000" />
	<path id="矢量 148"
		d="M10.7967 3.94562L10.7514 4.10736L10.6578 4.47385C10.6297 4.59338 10.6043 4.71198 10.5806 4.83487L10.5137 5.22159L10.4511 5.66516L10.376 6.28601L9.96976 5.86386L9.6582 5.54971L9.37488 5.27441C9.32907 5.2309 9.28372 5.18832 9.23853 5.14636C8.38315 4.3526 7.66556 3.88174 6.91055 3.70676C6.375 3.58264 5.84357 3.62076 5.32809 3.83167L5.15436 3.90613C3.80902 4.51068 3.5213 5.33936 3.60962 7.0094L3.63098 7.35797C2.90085 7.61707 2.27689 8.07153 1.84998 8.65707C0.454529 10.571 1.6575 13.003 3.81427 13.8245L4.237 13.9807C4.51593 14.0806 4.78918 14.1718 5.05676 14.2544L5.25299 14.312C4.92645 14.5928 4.59637 14.9463 4.3208 15.322C3.4223 16.5467 3.35553 18.4385 4.61481 19.435C5.21927 19.9133 5.69958 20.0579 6.48236 20.0975L7.0058 20.1177C7.25235 20.1327 7.38895 20.1607 7.54651 20.2239C7.6763 20.2759 7.76431 20.3461 7.901 20.5244L8.08279 20.7791C8.56937 21.4851 8.96262 21.8284 9.74548 21.9908C11.1854 22.2894 11.9406 21.8006 12.6061 20.4362L12.766 20.1023L13.121 19.412L13.1102 20.158L13.1093 20.5611L13.1143 20.9062L13.1256 21.1938C13.1281 21.237 13.1308 21.2778 13.1339 21.3162C13.2018 22.1635 13.7961 22.8299 14.8855 22.7426L15.0226 22.725C16.1389 22.5277 16.6336 21.0551 16.6714 19.3153L16.673 18.956L16.9168 19.1942L17.036 19.3055C17.6589 19.8613 18.1779 20.1301 18.7852 20.0753C19.1148 20.0456 19.4233 19.9138 19.713 19.692L19.8801 19.5594C20.2696 19.2364 20.452 18.9602 20.5232 18.3733L20.546 18.1211C20.5517 18.0309 20.5557 17.9344 20.5582 17.8307L20.5614 17.4969L20.5568 17.1149L20.5383 16.4398L20.514 15.693C20.9268 15.4732 21.3935 15.1199 21.7673 14.7106C22.9832 13.3791 23.2458 11.1814 21.636 10.0838L21.5273 9.99597C21.087 9.66064 20.5694 9.51434 19.7241 9.45996L19.529 9.44897C20.3855 8.4939 20.7063 7.39154 20.3061 6.28027C19.8925 5.13202 19.0736 4.52887 17.9979 4.37088L17.8269 4.34918C17.6014 4.32513 17.3821 4.32056 17.1217 4.33051L16.892 4.34198C16.6808 3.10162 16.1134 2.16498 15.1809 1.66318C13.3079 0.655212 11.4988 1.48755 10.7967 3.94562ZM15.4738 5.16895C15.4131 3.99902 15.0679 3.30576 14.4701 2.98407C13.4614 2.44122 12.6842 2.79877 12.239 4.3576C12.2253 4.4054 12.2123 4.452 12.1998 4.4978L12.1309 4.7655L12.072 5.03021L12.0199 5.30853L11.9717 5.61713L11.8999 6.17319L11.7974 7.08887L11.7371 7.57565L11.6964 7.84009L11.6508 8.08337C11.5298 8.67212 10.8001 8.88657 10.3799 8.45685L8.95209 6.9978L8.32822 6.36743L7.94791 5.99286L7.59027 5.65979L7.42441 5.51974L7.24365 5.38831L7.05624 5.28979L6.91428 5.24353L6.43192 5.14349C6.24829 5.12222 6.0751 5.14673 5.89609 5.21997C5.19492 5.50684 5.05423 5.75473 5.09814 6.75745L5.15118 7.70081L5.15466 7.93246C5.15466 8.29437 4.89618 8.60468 4.54022 8.6701C3.83566 8.79962 3.39453 9.08475 3.06201 9.5408C2.33548 10.5373 3.01733 11.9158 4.34824 12.4228C5.52628 12.8715 6.58017 13.1555 7.50711 13.2769C8.3273 13.3843 8.39514 14.5456 7.59302 14.7478C6.78287 14.952 6.10135 15.4307 5.53024 16.2092C5.05774 16.8533 5.02274 17.845 5.54562 18.2588C5.89447 18.5348 6.1203 18.5898 6.74344 18.6063L6.97461 18.6141C7.45157 18.6347 7.73367 18.6828 8.1048 18.8316C8.63098 19.0426 8.89697 19.3166 9.29269 19.8912L9.40842 20.0562C9.63635 20.3698 9.76761 20.4634 10.0501 20.522C10.6721 20.651 10.8593 20.584 11.188 19.9254L11.4257 19.4297L12.5601 17.2498L12.8763 16.6283L12.942 16.5128C13.2649 16.0418 14.0074 16.0924 14.2461 16.6441C14.5623 17.375 14.6315 17.9213 14.6315 18.8469L14.6117 20.0166L14.6107 20.7014L14.6173 20.9811L14.6318 21.2515L14.7656 21.2474C14.7835 21.2459 14.8136 21.1944 14.8496 21.1028L14.9072 20.9366L14.9689 20.7177L15.0301 20.4537L15.0858 20.1521C15.1373 19.8341 15.1737 19.471 15.1737 19.0965L15.1737 17.1273C15.1737 16.4589 15.9821 16.1244 16.4544 16.5974L17.9284 18.0695L18.3007 18.4238L18.4109 18.5163L18.5411 18.5881L18.6754 18.5759C18.704 18.5666 18.744 18.5447 18.801 18.501L18.9364 18.3751L19.0196 18.1922L19.04 18.0841L19.054 17.9479L19.062 17.7782L19.0622 17.3165L19.0139 15.7066L19.0021 15.2047C18.9955 14.8629 19.221 14.5598 19.5504 14.4679C19.9055 14.3688 20.2764 14.1188 20.6596 13.6992C21.3408 12.9532 21.4794 11.7925 20.7286 11.2756C20.5101 11.1202 20.1342 10.9899 19.5681 10.9546L19.1968 10.9388C19.0621 10.9352 18.9159 10.9333 18.7571 10.9327L17.7451 10.9306L17.3558 10.9247C16.6001 10.9083 16.3406 9.91089 16.9923 9.5282C18.6656 8.54565 19.2083 7.65894 18.8948 6.7886C18.6794 6.19037 18.3345 5.93643 17.7798 5.85495C17.5134 5.8158 17.2508 5.81848 16.8059 5.85162L16.505 5.87323L16.3355 5.88123L16.1987 5.8797C15.8091 5.86719 15.494 5.55829 15.4738 5.16895Z"
		fill-rule="evenodd" />
</svg>