<svg viewBox="0 0 24 24" xmlns="http://www.w3.org/2000/svg"
	xmlns:xlink="http://www.w3.org/1999/xlink">
	<defs />
	<g opacity="0.000000" />
	<path id="矢量 93"
		d="M18.75 2.25C20.4069 2.25 21.75 3.59314 21.75 5.25L21.75 18.75C21.75 20.4069 20.4069 21.75 18.75 21.75L5.25 21.75C3.59314 21.75 2.25 20.4069 2.25 18.75L2.25 5.25C2.25 3.59314 3.59314 2.25 5.25 2.25L18.75 2.25ZM9 6.25L15 6.25C15.4142 6.25 15.75 6.58582 15.75 7C15.75 7.3797 15.4678 7.69348 15.1018 7.74316L15 7.75L9.75 7.75L9.75 11.25L14.5999 11.25C15.014 11.25 15.3499 11.5858 15.3499 12C15.3499 12.3797 15.0676 12.6935 14.7016 12.7432L14.5999 12.75L9.75 12.75L9.75 16.25L15 16.25C15.3797 16.25 15.6935 16.5322 15.7432 16.8982L15.75 17C15.75 17.3797 15.4678 17.6935 15.1018 17.7432L15 17.75L9 17.75C8.6203 17.75 8.30652 17.4678 8.25684 17.1018L8.25 17L8.25 7C8.25 6.6203 8.53217 6.30652 8.89819 6.25684L9 6.25Z"
		fill-rule="evenodd" />
</svg>