<svg viewBox="0 0 24 24" xmlns="http://www.w3.org/2000/svg"
	xmlns:xlink="http://www.w3.org/1999/xlink">
	<defs />
	<g opacity="0.000000" />
	<path id="矢量 159"
		d="M19.4502 5.23062C19.4502 3.44638 18.0399 2 16.3002 2L6.10001 2C4.36029 2 2.95001 3.44638 2.95001 5.23062L2.95001 18.7684C2.95001 20.5527 4.36029 21.9991 6.10001 21.9991L11.3953 22C10.8673 21.5508 10.3965 21.0331 9.99582 20.4605L6.10001 20.4607C5.18872 20.4607 4.45001 19.703 4.45001 18.7684L4.45001 5.23062C4.45001 4.29602 5.18872 3.53839 6.10001 3.53839L16.3002 3.53839C17.2115 3.53839 17.9502 4.29602 17.9502 5.23062L17.9501 7.61206C18.4695 7.70963 18.9714 7.85861 19.4506 8.05371L19.4502 5.23062ZM15.25 6.5C15.25 6.08578 14.9142 5.75 14.5 5.75L7.5 5.75L7.39825 5.75684C7.03217 5.80652 6.75 6.1203 6.75 6.5C6.75 6.91422 7.08578 7.25 7.5 7.25L14.5 7.25L14.6018 7.24316C14.9679 7.19348 15.25 6.8797 15.25 6.5ZM11 8.75C11.4142 8.75 11.75 9.08578 11.75 9.5C11.75 9.8797 11.4679 10.1935 11.1018 10.2432L11 10.25L7.5 10.25C7.08578 10.25 6.75 9.91422 6.75 9.5C6.75 9.1203 7.03217 8.80652 7.39825 8.75684L7.5 8.75L11 8.75ZM16.5 9.25C19.9518 9.25 22.75 12.0482 22.75 15.5C22.75 18.9518 19.9518 21.75 16.5 21.75C13.0482 21.75 10.25 18.9518 10.25 15.5C10.25 12.0482 13.0482 9.25 16.5 9.25ZM11.75 15.5C11.75 12.8766 13.8766 10.75 16.5 10.75C19.1234 10.75 21.25 12.8766 21.25 15.5C21.25 18.1234 19.1234 20.25 16.5 20.25C13.8766 20.25 11.75 18.1234 11.75 15.5ZM17.2432 12.3982C17.1935 12.0322 16.8797 11.75 16.5 11.75C16.0858 11.75 15.75 12.0858 15.75 12.5L15.75 15.5L15.7569 15.6018C15.8065 15.9678 16.1203 16.25 16.5 16.25C16.9142 16.25 17.25 15.9142 17.25 15.5L17.25 12.5L17.2432 12.3982ZM16.5 16.75C17.0523 16.75 17.5 17.1977 17.5 17.75C17.5 18.3023 17.0523 18.75 16.5 18.75C15.9477 18.75 15.5 18.3023 15.5 17.75C15.5 17.1977 15.9477 16.75 16.5 16.75Z"
		fill-rule="evenodd" />
</svg>