<svg viewBox="0 0 24 24" xmlns="http://www.w3.org/2000/svg"
	xmlns:xlink="http://www.w3.org/1999/xlink">
	<defs />
	<g opacity="0.000000" />
	<path id="矢量 149"
		d="M14.1617 2.09576C14.0532 2.03479 13.928 2 13.7947 2L6.69739 2C4.93018 2 3.5 3.44147 3.5 5.21667L3.5 18.7833C3.5 20.5585 4.93018 22 6.69739 22L17.3026 22C19.0698 22 20.5 20.5585 20.5 18.7833L20.5 8.79333C20.5 8.56653 20.3994 8.36328 20.2405 8.22629C20.2109 8.18585 20.1782 8.14697 20.1425 8.10992L14.6188 2.38159C14.491 2.24905 14.3337 2.15158 14.1617 2.09576ZM14.544 4.46399L17.994 8.043L15.5079 8.04333C14.9958 8.04333 14.5447 7.61798 14.5447 7.14886L14.544 4.46399ZM13.9607 9.72861L11.9999 12.4589L10.1103 9.81409C9.85645 9.5509 9.37048 9.42084 9.06409 9.63971C8.72705 9.88046 8.64893 10.3489 8.88971 10.6859L11.0779 13.7499L8.88971 16.8141C8.64893 17.1511 8.72705 17.6195 9.06409 17.8603C9.37048 18.0792 9.78546 18.0345 10.0393 17.7714L11.9999 15.0399L13.8897 17.6859C14.1436 17.9491 14.6295 18.0792 14.9359 17.8603C15.2729 17.6195 15.3511 17.1511 15.1103 16.8141L12.9209 13.7499L15.1103 10.6859C15.3511 10.3489 15.2729 9.88046 14.9359 9.63971C14.6295 9.42084 14.2145 9.46545 13.9607 9.72861Z"
		fill-rule="evenodd" />
</svg>