<?xml version="1.0" encoding="UTF-8"?>
<svg viewBox="0 0 24 24" version="1.1" xmlns="http://www.w3.org/2000/svg"
    xmlns:xlink="http://www.w3.org/1999/xlink">
    <g id="S12组件" stroke="none" stroke-width="1">
        <g id="Exclamation">
            <rect id="矩形" opacity="0" x="0" y="0" width="24" height="24"></rect>
            <path
                d="M12,2 C14.2170343,2 16.3258238,2.72418839 18.0532894,4.03924108 C18.3828697,4.29013824 18.4466553,4.76070857 18.1957588,5.09028935 C17.9448614,5.41987014 17.4742918,5.48365593 17.1447105,5.23275876 C15.6761627,4.11480999 13.8858757,3.5 12,3.5 C7.30585575,3.5 3.5,7.30557156 3.5,12 C3.5,16.6937866 7.30621338,20.5 12,20.5 C16.6944284,20.5 20.5,16.6941442 20.5,12 C20.5,10.1146078 19.8858509,8.32533646 18.7681007,6.85610437 C18.5173054,6.52644587 18.5812378,6.05589533 18.9108963,5.80510044 C19.2405548,5.55430532 19.7111053,5.61823702 19.9618988,5.94789553 C21.276577,7.67598057 22,9.78360844 22,12 C22,17.5225468 17.5228806,22 12,22 C6.47778654,22 2,17.5222139 2,12 C2,6.47711945 6.47745371,2 12,2 Z M11.8270302,15.3400002 C12.3790302,15.3400002 12.8270302,15.7870001 12.8270302,16.3400002 C12.8270302,16.8930001 12.3790302,17.3400002 11.8270302,17.3400002 C11.2750302,17.3400002 10.8270302,16.8930001 10.8270302,16.3400002 C10.8270302,15.7870001 11.2750302,15.3400002 11.8270302,15.3400002 Z M11.8270302,6.59000015 C12.206726,6.59000015 12.5205212,6.87215403 12.5701836,7.23822957 L12.5770302,7.34000015 L12.5770302,13.3400002 C12.5770302,13.7542138 12.2412438,14.0900002 11.8270302,14.0900002 C11.4473345,14.0900002 11.1335393,13.8078461 11.0838769,13.4417706 L11.0770302,13.3400002 L11.0770302,7.34000015 C11.0770302,6.92578658 11.4128167,6.59000015 11.8270302,6.59000015 Z"
                id="形状结合"></path>
        </g>
    </g>
</svg>