<?xml version="1.0" encoding="UTF-8"?>
<svg width="24px" height="24px" viewBox="0 0 24 24" version="1.1" xmlns="http://www.w3.org/2000/svg" xmlns:xlink="http://www.w3.org/1999/xlink">
    <g id="页面-2" stroke="none" stroke-width="1" fill="none" fill-rule="evenodd">
        <g id="画板" transform="translate(-32.000000, -79.000000)">
            <g id="矩形" transform="translate(32.000000, 79.000000)">
                <path d="M4,0 L20,0 C22.209139,-4.05812251e-16 24,1.790861 24,4 L24,20 C24,22.209139 22.209139,24 20,24 L4,24 C1.790861,24 1.62577531e-14,22.209139 1.59872116e-14,20 L1.59872116e-14,4 C1.57166701e-14,1.790861 1.790861,4.05812251e-16 4,0 Z" fill="#E7FBF2"></path>
                <path d="M5,8 L19,8 C20.1045695,8 21,8.8954305 21,10 L21,14 C21,15.1045695 20.1045695,16 19,16 L5,16 C3.8954305,16 3,15.1045695 3,14 L3,10 C3,8.8954305 3.8954305,8 5,8 Z" fill="#09AA71"></path>
            </g>
        </g>
    </g>
</svg>