<svg viewBox="0 0 24 24" xmlns="http://www.w3.org/2000/svg"
	xmlns:xlink="http://www.w3.org/1999/xlink">
	<defs />
	<path id="矢量 157"
		d="M15.5259 2.25L15.7132 2.25488C17.5115 2.34912 18.95 3.79218 18.95 5.57233L18.95 6.85104L18.9431 6.95282C18.8935 7.31888 18.5797 7.60104 18.2 7.60104C17.7858 7.60104 17.45 7.26526 17.45 6.85104L17.45 5.57233L17.4442 5.43076C17.3681 4.49606 16.544 3.75 15.5259 3.75L5.67407 3.75L5.52289 3.75552C4.52557 3.82874 3.75 4.62015 3.75 5.57233L3.75 18.4277L3.75574 18.5692C3.83191 19.5039 4.65598 20.25 5.67407 20.25L15.5306 20.2273L15.6815 20.2215C16.677 20.1462 17.45 19.3556 17.45 18.405L17.45 17.1477L17.4568 17.046C17.5065 16.6799 17.8203 16.3977 18.2 16.3977C18.6142 16.3977 18.95 16.7335 18.95 17.1477L18.95 18.405L18.9449 18.5876C18.8473 20.3404 17.3529 21.7231 15.5341 21.7273L5.67581 21.75L5.48837 21.7451C3.68848 21.6509 2.25 20.2078 2.25 18.4277L2.25 5.57233L2.2551 5.3894C2.353 3.63373 3.8522 2.25 5.67407 2.25L15.5259 2.25ZM19.7802 9.07474C19.4901 8.77908 19.0153 8.77457 18.7196 9.06464C18.4508 9.32837 18.4226 9.74478 18.6377 10.0404L19.812 11.249L11.9995 11.25C11.5853 11.25 11.2495 11.5858 11.2495 12C11.2495 12.3797 11.5317 12.6935 11.8978 12.7432L11.9995 12.75L19.814 12.749L18.7095 13.8748C18.4457 14.1435 18.4255 14.5604 18.6461 14.8519C18.9149 15.1156 19.4052 15.2193 19.6968 14.9987L22.1349 12.5253C22.3951 12.2601 22.4187 11.8499 22.2059 11.5584L19.7802 9.07474Z"
		fill-rule="evenodd" />
</svg>