<svg viewBox="0 0 24 24" xmlns="http://www.w3.org/2000/svg"
	xmlns:xlink="http://www.w3.org/1999/xlink">
	<defs />
	<g opacity="0.000000" />
	<path id="矢量 161"
		d="M16.6048 2.08331C18.6177 2.08331 20.2495 3.71509 20.2495 5.72797L20.2503 12.1555C19.792 11.8473 19.2876 11.6025 18.7496 11.4335L18.7495 5.72797C18.7495 4.54352 17.7892 3.58331 16.6048 3.58331L5.72797 3.58331C4.54352 3.58331 3.58331 4.54352 3.58331 5.72797L3.58331 16.6048C3.58331 17.7892 4.54352 18.7495 5.72797 18.7495L11.4335 18.7496C11.6025 19.2876 11.8473 19.792 12.1555 20.2503L5.72797 20.2495C3.71509 20.2495 2.08331 18.6177 2.08331 16.6048L2.08331 5.72797C2.08331 3.71509 3.71509 2.08331 5.72797 2.08331L16.6048 2.08331ZM20.95 16.6C20.95 14.1976 19.0024 12.25 16.6 12.25C14.1976 12.25 12.25 14.1976 12.25 16.6C12.25 19.0024 14.1976 20.95 16.6 20.95C17.5302 20.95 18.3921 20.6581 19.0992 20.1609L20.4697 21.5303C20.7633 21.7482 21.2641 21.7966 21.5303 21.5303C21.8232 21.2374 21.8232 20.7626 21.5303 20.4697L20.1609 19.0992C20.6581 18.3921 20.95 17.5302 20.95 16.6ZM13.75 16.6C13.75 15.026 15.026 13.75 16.6 13.75C18.174 13.75 19.45 15.026 19.45 16.6C19.45 18.174 18.174 19.45 16.6 19.45C15.026 19.45 13.75 18.174 13.75 16.6Z"
		fill-rule="evenodd" />
</svg>