<?xml version="1.0" encoding="UTF-8"?>
<svg viewBox="0 0 14 14" version="1.1" xmlns="http://www.w3.org/2000/svg" xmlns:xlink="http://www.w3.org/1999/xlink">
    <g id="查询列表页" stroke="none" stroke-width="1" fill-rule="evenodd">
        <g id="编组" transform="translate(-1.000000, -1.000000)">
            <rect id="矩形" fill="#D8D8D8" opacity="0" x="0" y="0" width="16" height="16"></rect>
            <path d="M12.5688571,8.37166577 C13.6181414,9.42166661 13.7274808,11.0549853 12.8968754,12.2265541 L13.9893779,13.3190531 C14.18464,13.5143153 14.18464,13.8308978 13.9893779,14.0261599 C13.8118668,14.2036709 13.534091,14.2198083 13.33835,14.074572 L13.2822711,14.0261599 L12.1909017,12.9355324 C11.0187659,13.7740597 9.37885367,13.6672092 8.32653776,12.6148932 C7.15460894,11.4429644 7.15460894,9.54371527 8.32653776,8.37178645 C9.49777979,7.20054442 11.3969359,7.20054442 12.5688571,8.37166577 Z M12.1666667,1.82 C13.2317873,1.82 14.1024406,2.65261331 14.1632715,3.70248481 L14.1666667,3.82 L14.1666667,7.84945964 C14.1666667,8.12560201 13.942809,8.34945964 13.6666667,8.34945964 C13.4135362,8.34945964 13.2043394,8.16135705 13.1712311,7.91730667 L13.1666667,7.84945964 L13.1666667,3.82 C13.1666667,3.30020259 12.7700746,2.87303421 12.2629733,2.82457772 L12.1666667,2.82 L3.83333333,2.82 C3.31353592,2.82 2.88636755,3.21659206 2.83791105,3.72369333 L2.83333333,3.82 L2.83333333,12.1533333 C2.83333333,12.6731307 3.22992539,13.1002991 3.73702666,13.1487556 L3.83333333,13.1533333 L7.73333333,13.1533333 C8.00947571,13.1533333 8.23333333,13.377191 8.23333333,13.6533333 C8.23333333,13.9064638 8.04523075,14.1156606 7.80118037,14.1487689 L7.73333333,14.1533333 L3.83333333,14.1533333 C2.76821274,14.1533333 1.89755941,13.32072 1.83672846,12.2708485 L1.83333333,12.1533333 L1.83333333,3.82 C1.83333333,2.75487941 2.66594664,1.88422608 3.71581814,1.82339513 L3.83333333,1.82 L12.1666667,1.82 Z M9.03364454,9.07889323 C8.25224002,9.86029776 8.25224002,11.1263819 9.03364454,11.9077865 C9.81440251,12.6885444 11.0805798,12.6885444 11.8617504,11.9079072 C12.6426492,11.126475 12.6426492,9.86020468 11.8619918,9.07901392 C11.0805798,8.29813527 9.81440251,8.29813527 9.03364454,9.07889323 Z" id="形状结合"></path>
        </g>
    </g>
</svg>