<?xml version="1.0" encoding="UTF-8"?>
<svg viewBox="0 0 24 24" version="1.1" xmlns="http://www.w3.org/2000/svg" xmlns:xlink="http://www.w3.org/1999/xlink">
    <g id="页面-1" stroke="none" stroke-width="1">
        <g id="画板" transform="translate(-1076.000000, -1441.000000)">
            <g id="编组" transform="translate(1076.000000, 1441.000000)">
                <path d="M20.5303801,3.46966991 C20.7966466,3.73593648 20.8208527,4.15260016 20.6029982,4.44621165 L20.5303801,4.53033009 L8.05751046,17.0042931 C9.29094024,17.5247097 10.6247586,17.7977 11.99975,17.7977 C15.8723812,17.7977 19.3415323,15.6101547 21.0565662,12.2408572 L21.17405,12.0004 C20.6795098,10.9836166 19.9266661,9.94041992 19.0861527,9.08767449 L18.8315407,8.83778456 C18.5310511,8.55269006 18.5185709,8.07798035 18.8036654,7.77749074 C19.0887599,7.47700114 19.5634697,7.46452094 19.8639593,7.74961544 C21.0321532,8.85795887 22.0763588,10.302158 22.6869848,11.6993529 C22.7706967,11.8908972 22.7706707,12.108687 22.686913,12.3002112 C20.843316,16.5158667 16.6779396,19.2977 11.99975,19.2977 C10.2169823,19.2977 8.49155496,18.8967294 6.92525698,18.1375822 L4.53038009,20.5303301 C4.23748687,20.8232233 3.76261313,20.8232233 3.46971991,20.5303301 C3.20345335,20.2640635 3.1792473,19.8473998 3.39710176,19.5537883 L3.46971991,19.4696699 L15.9433166,6.99518183 C14.7101264,6.47447937 13.3757128,6.2013 12.00025,6.2013 C8.12711583,6.2013 4.65737625,8.38930015 2.94335448,11.758884 L2.82505,11.9984 C3.31550829,13.0070174 4.05965057,14.0430987 4.88901097,14.889776 L5.14020585,15.1378779 C5.4397773,15.423937 5.45073122,15.8986844 5.1646721,16.1982558 C4.87861299,16.4978273 4.40386561,16.5087812 4.10429415,16.2227221 C2.95145346,15.1218809 1.91934259,13.6874266 1.31306129,12.3007525 C1.22933669,12.1092593 1.22931191,11.8915162 1.31299292,11.700004 C3.15527289,7.48376466 7.32144482,4.7013 12.00025,4.7013 C13.7839648,4.7013 15.5105607,5.10270298 17.0767341,5.86264151 L19.4697199,3.46966991 C19.7626131,3.1767767 20.2374869,3.1767767 20.5303801,3.46966991 Z" id="形状结合"></path>
            </g>
        </g>
    </g>
</svg>