<svg viewBox="0 0 24 24" xmlns="http://www.w3.org/2000/svg"
	xmlns:xlink="http://www.w3.org/1999/xlink">
	<defs />
	<g opacity="0.000000" />
	<path id="矢量 89"
		d="M1.77914 6.2832C2.17499 6.16122 2.59476 6.38324 2.71677 6.77908C3.87674 10.5432 7.64688 13.2065 12.002 13.2065C16.3522 13.2065 20.1193 10.5491 21.2836 6.79062C21.4062 6.39496 21.8263 6.17358 22.222 6.29614C22.6176 6.4187 22.839 6.83881 22.7164 7.2345C22.2718 8.66995 21.5083 9.9642 20.5079 11.0566L22.119 12.5977C22.4183 12.884 22.4289 13.3588 22.1426 13.6581C21.8801 13.9325 21.4594 13.9642 21.1605 13.747L21.0822 13.6816L19.4184 12.0902C18.7697 12.6253 18.0546 13.0898 17.2875 13.4727L18.1674 15.785C18.3147 16.1721 18.1203 16.6054 17.7332 16.7527C17.3783 16.8878 16.9846 16.7357 16.808 16.4112L16.7655 16.3185L15.9039 14.0544C14.9076 14.3994 13.8476 14.6156 12.75 14.6834L12.75 17C12.75 17.4142 12.4142 17.75 12 17.75C11.6203 17.75 11.3065 17.4678 11.2569 17.1017L11.25 17L11.25 14.6832C10.1525 14.615 9.09268 14.3985 8.09657 14.0532L7.23462 16.3185C7.08731 16.7056 6.65405 16.9 6.26694 16.7527C5.91205 16.6177 5.71912 16.2424 5.80289 15.8826L5.8327 15.785L6.71318 13.4711C5.94652 13.088 5.23172 12.6236 4.5834 12.0885L2.91785 13.6816C2.61853 13.968 2.14377 13.9574 1.85745 13.6581C1.595 13.3837 1.58197 12.9619 1.81219 12.673L1.88101 12.5977L3.49423 11.0546C2.49149 9.95917 1.72702 8.6608 1.28326 7.22083C1.16129 6.82498 1.3833 6.40521 1.77914 6.2832Z"
		fill-rule="evenodd" />
</svg>