<?xml version="1.0" encoding="UTF-8"?>
<svg viewBox="0 0 24 24" version="1.1" xmlns="http://www.w3.org/2000/svg" xmlns:xlink="http://www.w3.org/1999/xlink">
    <g id="隐藏密码">
        <path d="M22.1851733,7.39229449 C22.5213953,7.63421938 22.5978382,8.10290003 22.3559133,8.43912201 C21.7014262,9.3487139 20.9381324,10.159559 20.0890046,10.8572094 L22.0113268,13.503433 C22.2547954,13.8385388 22.1805088,14.307566 21.845403,14.5510347 C21.5382226,14.7742142 21.1185111,14.7303911 20.8631596,14.4634206 L20.7978013,14.3851108 L18.8752416,11.7401201 C18.1729605,12.1902136 17.427026,12.570911 16.6475678,12.8758416 L17.6575643,15.9851415 C17.7855633,16.379082 17.5699752,16.8021976 17.1760347,16.9301966 C16.8149225,17.0475291 16.4292952,16.8761529 16.2689399,16.5433408 L16.2309795,16.448667 L15.2215303,13.338652 C14.4211303,13.5470762 13.5942665,13.6789138 12.7505062,13.728148 L12.75,17 C12.75,17.4142136 12.4142136,17.75 12,17.75 C11.6203042,17.75 11.306509,17.4678461 11.2568466,17.1017706 L11.25,17 L11.2504401,13.7282031 C10.4066918,13.6790322 9.57983546,13.5472604 8.77943744,13.338904 L7.76902048,16.448667 C7.64102145,16.8426075 7.21790585,17.0581957 6.82396534,16.9301966 C6.46285321,16.8128642 6.25160659,16.4475519 6.31749839,16.0840468 L6.3424357,15.9851415 L7.35215643,12.8757337 C6.57279806,12.5708212 5.82695666,12.1901605 5.12475843,11.7401201 L3.20219871,14.3851108 C2.95873009,14.7202167 2.48970284,14.7945033 2.15459702,14.5510347 C1.8474167,14.3278551 1.75939694,13.9151436 1.93439301,13.5897914 L1.98867322,13.503433 L3.91034327,10.8566736 C3.06147677,10.1591438 2.29840621,9.34848103 1.64408674,8.43912201 C1.40216184,8.10290003 1.47860473,7.63421938 1.81482671,7.39229449 C2.15104869,7.15036959 2.61972934,7.22681248 2.86165424,7.56303446 C3.56830455,8.54512174 4.41826464,9.39662668 5.37464156,10.0943459 L5.38741591,10.1014412 L5.38741591,10.1014412 L5.40083343,10.1133963 C6.34494981,10.7980129 7.39202648,11.3331616 8.50678613,11.6966554 L8.52355881,11.6993858 L8.52355881,11.6993858 L8.53775691,11.7067043 C9.63766821,12.0618212 10.8030068,12.25 12,12.25 C13.1957005,12.25 14.3598146,12.0622274 15.4586792,11.7078543 L15.4764412,11.6993858 L15.4764412,11.6993858 L15.4937591,11.6964776 C16.6082582,11.3330056 17.6550976,10.7979557 18.5990225,10.1135008 L18.6125841,10.1014412 L18.6125841,10.1014412 L18.6251163,10.0945226 C19.5815919,9.3967704 20.4316358,8.54520462 21.1383458,7.56303446 C21.3802707,7.22681248 21.8489513,7.15036959 22.1851733,7.39229449 Z"></path>
    </g>
</svg>