<?xml version="1.0" encoding="UTF-8"?>
<svg viewBox="0 0 24 24" version="1.1" xmlns="http://www.w3.org/2000/svg" xmlns:xlink="http://www.w3.org/1999/xlink">
    <g id="页面-1" stroke="none" stroke-width="1">
        <g id="画板" transform="translate(-319.000000, -1518.000000)">
            <g id="编组" transform="translate(319.000000, 1518.000000)">
                <path d="M11.9999052,4.7015 C16.6780948,4.7015 20.8434712,7.48333335 22.6870682,11.6989888 C22.853036,12.0784984 22.6799261,12.5206953 22.3004164,12.686663 C21.9209068,12.8526308 21.47871,12.6795209 21.3127422,12.3000112 C19.7057436,8.62537291 16.0763591,6.2015 11.9999052,6.2015 C8.12727402,6.2015 4.65812294,8.3890453 2.943089,11.7583428 L2.82400521,11.9991 L2.94311208,12.2407116 C4.61315675,15.5216918 7.94621893,17.6825169 11.6950587,17.7939724 L11.9999052,17.7985 C15.2333346,17.7985 18.2109127,16.2775121 20.1206126,13.7395584 C20.3696608,13.4085782 20.8398667,13.3421592 21.1708469,13.5912074 C21.501827,13.8402556 21.568246,14.3104615 21.3191978,14.6414416 C19.1292004,17.5519054 15.7099608,19.2985 11.9999052,19.2985 C7.32199731,19.2985 3.1564689,16.5159631 1.31274219,12.3000112 C1.22895955,12.1084299 1.22895955,11.8905701 1.31274219,11.6989888 C3.15633924,7.48333335 7.32171558,4.7015 11.9999052,4.7015 Z M11.9999052,8.0009 C13.0477071,8.0009 14.0323674,8.40575869 14.7711075,9.1166709 C14.9843553,9.32123999 15.1741154,9.54857943 15.3333165,9.7904357 C15.7656278,10.4401667 15.9999052,11.2037846 15.9999052,12.0009 C15.9999052,14.2101136 14.2091188,16.0009 11.9999052,16.0009 C9.79069165,16.0009 7.99990521,14.2101136 7.99990521,12.0009 C7.99990521,9.79168644 9.79069165,8.0009 11.9999052,8.0009 Z M11.9999052,9.5009 C10.6191188,9.5009 9.49990521,10.6201136 9.49990521,12.0009 C9.49990521,13.3816864 10.6191188,14.5009 11.9999052,14.5009 C13.3806916,14.5009 14.4999052,13.3816864 14.4999052,12.0009 C14.4999052,11.5016479 14.3541911,11.0266986 14.0824565,10.6182858 C13.9832447,10.4675748 13.8655392,10.3265593 13.7318518,10.1983114 C13.2690694,9.75296256 12.6560259,9.5009 11.9999052,9.5009 Z" id="形状结合"></path>
            </g>
        </g>
    </g>
</svg>