<svg viewBox="0 0 24 24" xmlns="http://www.w3.org/2000/svg"
	xmlns:xlink="http://www.w3.org/1999/xlink">
	<defs />
	<g opacity="0.000000" />
	<path id="矢量 162"
		d="M22.4881 10.954C20.1023 6.51224 16.5784 4.25 12 4.25C7.42163 4.25 3.89771 6.51224 1.51208 10.9536C1.16272 11.6051 1.16272 12.3949 1.51187 13.046C3.89771 17.4878 7.42163 19.75 12 19.75C16.5784 19.75 20.1023 17.4878 22.4879 13.0464C22.8373 12.3949 22.8373 11.6051 22.4881 10.954ZM2.83377 11.663C4.96591 7.69342 7.99326 5.75 12 5.75C16.0067 5.75 19.0341 7.69342 21.1665 11.6634C21.2779 11.8712 21.2779 12.1288 21.1662 12.337C19.0341 16.3066 16.0067 18.25 12 18.25C7.99326 18.25 4.96591 16.3066 2.83353 12.3366C2.72208 12.1288 2.72208 11.8712 2.83377 11.663ZM11.9995 8.25C14.0706 8.25 15.7495 9.92892 15.7495 12C15.7495 14.0711 14.0706 15.75 11.9995 15.75C9.92847 15.75 8.24954 14.0711 8.24954 12C8.24954 9.92892 9.92847 8.25 11.9995 8.25ZM9.74954 12C9.74954 10.7574 10.7569 9.75 11.9995 9.75C13.2422 9.75 14.2495 10.7574 14.2495 12C14.2495 13.2426 13.2422 14.25 11.9995 14.25C10.7569 14.25 9.74954 13.2426 9.74954 12Z"
		fill-rule="evenodd" />
</svg>