<svg viewBox="0 0 24 24" xmlns="http://www.w3.org/2000/svg"
	xmlns:xlink="http://www.w3.org/1999/xlink">
	<defs />
	<path id="矢量 25"
		d="M6.815 3.33327C7.46512 3.33327 8.08783 3.59522 8.54245 4.05996L8.76581 4.2873C8.80841 4.27331 8.85269 4.26303 8.89825 4.25685L9.00003 4.25L16.6 4.25C18.2913 4.25 19.6532 5.64664 19.7451 7.38403L19.7507 7.61937C21.1198 8.00193 22.1241 9.25854 22.1241 10.7497L22.1242 14.8726L21.7035 14.6573C21.3528 14.4781 21.0014 14.2969 20.6621 14.1065L20.6241 10.7497C20.6241 9.83158 19.9171 9.0786 19.0177 9.0056L18.8742 8.99979L12.293 8.99979C11.6429 8.99979 11.0202 8.73784 10.5656 8.2731L7.47021 5.10889C7.29776 4.93262 7.06158 4.83327 6.815 4.83327L5.07053 4.83327C4.13412 4.83327 3.375 5.5924 3.375 6.52884L3.375 17.4162C3.375 18.3826 4.15845 19.1661 5.12488 19.1661L9.51807 19.1661C9.57385 19.7109 9.75461 20.2201 10.0321 20.6664L5.12488 20.6661C3.33002 20.6661 1.875 19.211 1.875 17.4162L1.875 6.52884C1.875 4.76398 3.30569 3.33327 5.07053 3.33327L6.815 3.33327ZM10.195 5.74927L16.6 5.75L16.7407 5.7566C17.5298 5.83089 18.1747 6.52419 18.2439 7.4127L12.293 7.49979C12.0464 7.49979 11.8103 7.40044 11.6378 7.22417L10.195 5.74927ZM8.44623 9.39706L11.0304 11.9697C11.3232 12.2626 11.3232 12.7374 11.0304 13.0303C10.7641 13.2966 10.3474 13.3208 10.0538 13.103L8.75104 11.812L8.75003 16.5C8.75003 16.9142 8.41425 17.25 8.00003 17.25C7.62033 17.25 7.30655 16.9678 7.25687 16.6018L7.25003 16.5L7.25104 11.81L6.03036 13.0303C5.7641 13.2966 5.34744 13.3208 5.05383 13.103C4.78757 12.8367 4.67923 12.3474 4.89709 12.0538L7.4697 9.46967C7.73596 9.20341 8.15262 9.1792 8.44623 9.39706ZM19.1732 14.9803C18.5838 13.9312 17.4597 13.25 16.2059 13.25L16.0204 13.255C14.6071 13.3309 13.4105 14.2684 12.9797 15.5649L12.931 15.722L12.7984 15.7659C11.5971 16.1967 10.75 17.3398 10.75 18.6667C10.75 20.371 12.1407 21.75 13.853 21.75L18.853 21.75C20.7277 21.75 22.25 20.2404 22.25 18.375L22.245 18.1897C22.1548 16.5334 20.8135 15.1569 19.1732 14.9803ZM14.3192 16.428C14.4187 15.4802 15.231 14.75 16.2059 14.75C17.0191 14.75 17.733 15.2602 17.9969 16.0048C18.107 16.3153 18.4069 16.5177 18.7361 16.5035L18.8637 16.4999C19.9021 16.5 20.75 17.3409 20.75 18.375C20.75 19.4091 19.9021 20.25 18.853 20.25L13.853 20.25C12.9663 20.25 12.25 19.5397 12.25 18.6667C12.25 17.9111 12.7896 17.2686 13.5214 17.1171L13.7628 17.0753C14.0614 16.9975 14.2862 16.7419 14.3192 16.428Z"
		fill-rule="evenodd" />
</svg>