<?xml version="1.0" encoding="UTF-8"?>
<svg viewBox="0 0 80 80" version="1.1" xmlns="http://www.w3.org/2000/svg" xmlns:xlink="http://www.w3.org/1999/xlink">
    <g id="文件上传" stroke="none" stroke-width="1" fill="none" fill-rule="evenodd">
        <g id="【pc-多端】文件上传列表视图" transform="translate(-520.000000, -254.000000)">
            <g id="编组-10" transform="translate(80.000000, 238.000000)">   
                <g id="拖拽文件" transform="translate(440.000000, 16.000000)">
                    <rect id="矩形" x="0" y="0" width="80" height="80"></rect>
                    <g id="编组-15" transform="translate(37.854799, 37.012326) rotate(180.000000) translate(-37.854799, -37.012326) translate(4.198294, 12.089876)">
                        <rect id="矩形备份-18" stroke="#818181" fill="#EEEEEE" fill-rule="nonzero" x="-7.33643308e-14" y="0" width="40.7095652" height="31.2188235" rx="2.7"></rect>
                        <g id="编组-2" transform="translate(20.753913, 15.781365) rotate(180.000000) translate(-20.753913, -15.781365) translate(5.187826, 7.124424)" fill="#FFFFFF" fill-rule="nonzero">
                            <rect id="矩形备份-19" x="0" y="0" width="31.1321739" height="4.00235294" rx="1"></rect>
                            <rect id="矩形备份-20" x="0" y="6.9077647" width="11.973913" height="4.00235294" rx="1"></rect>
                            <rect id="矩形备份-21" x="15.9652174" y="6.9077647" width="15.1669566" height="10.4061177" rx="1"></rect>
                            <rect id="矩形备份-22" x="0" y="13.3115294" width="11.973913" height="4.00235294" rx="1"></rect>
                        </g>
                        <path d="M8.86629709,20.2503657 C3.86050238,21.9019364 0.873762271,23.9864404 0.873762271,26.2523018 C0.873762271,29.6211389 7.47599378,32.5890827 17.500112,34.329317 M55.0274025,32.6136482 C62.6870702,30.8362638 67.5096139,28.249887 67.5096139,25.3706811 C67.5096139,21.9804823 60.8233873,18.9962769 50.6921632,17.2607097" id="形状" stroke="#818181" transform="translate(34.191688, 25.795013) rotate(-30.000000) translate(-34.191688, -25.795013) "></path>
                        <ellipse id="椭圆形" fill="#818181" fill-rule="nonzero" cx="44.2900997" cy="10.3594742" rx="1.43686957" ry="1.44084706"></ellipse>
                        <ellipse id="椭圆形备份-3" fill="#818181" fill-rule="nonzero" transform="translate(24.018224, 41.564010) rotate(180.000000) translate(-24.018224, -41.564010) " cx="24.0182235" cy="41.5640098" rx="1.43686957" ry="1.44084706"></ellipse>
                    </g>
                    <g id="线性插画/空页面/任务状态下发成功1" transform="translate(9.600000, 9.896000)" fill-rule="nonzero">
                        <rect id="矩形备份" stroke="#818181" fill="#FFFFFF" x="8.4512" y="8.1552" width="20.7488" height="20.7488" rx="2.7"></rect>
                        <rect id="矩形" fill="#0067D1" x="8.09856" y="7.80256" width="17.76" height="17.76" rx="2.7"></rect>
                        <g id="编组" transform="translate(5.695040, 4.617600) rotate(-90.000000) translate(-5.695040, -4.617600) translate(1.077440, -1.077440)" fill="#818181">
                            <rect id="矩形" x="0" y="-3.93031286e-14" width="1" height="4.92544"></rect>
                            <path d="M4.87903094,1.8934496 C5.04904628,1.8934496 5.18687094,2.03127426 5.18687094,2.2012896 L5.18687094,6.5110496 C5.18687094,6.68106494 5.04904628,6.8188896 4.87903094,6.8188896 C4.70901561,6.8188896 4.57119094,6.68106494 4.57119094,6.5110496 L4.57119094,2.2012896 C4.57119094,2.03127426 4.70901561,1.8934496 4.87903094,1.8934496 Z" id="矩形" transform="translate(4.879031, 4.356170) rotate(45.000000) translate(-4.879031, -4.356170) "></path>
                            <path d="M6.77248,6.46464 C6.94249534,6.46464 7.08032,6.60246466 7.08032,6.77248 L7.08032,11.08224 C7.08032,11.2522554 6.94249534,11.39008 6.77248,11.39008 C6.60246466,11.39008 6.46464,11.2522554 6.46464,11.08224 L6.46464,6.77248 C6.46464,6.60246466 6.60246466,6.46464 6.77248,6.46464 Z" id="矩形" transform="translate(6.772480, 8.927360) rotate(90.000000) translate(-6.772480, -8.927360) "></path>
                        </g>
                    </g>
                </g>
            </g>
        </g>
    </g>
</svg>