<?xml version="1.0" encoding="UTF-8"?>
<svg viewBox="0 0 24 24" version="1.1" xmlns="http://www.w3.org/2000/svg"
    xmlns:xlink="http://www.w3.org/1999/xlink">
    <g id="页面-1" stroke="none" stroke-width="1" fill-rule="evenodd">
        <g id="文件类型方案" transform="translate(-700.000000, -112.000000)">
            <g id="IconFileType" transform="translate(700.000000, 112.000000)">
                <g id="Group-Copy-2">
                    <rect id="Rectangle-Copy-2" x="0" y="0" width="24" height="24" rx="4"></rect>
                </g>
                <path
                    d="M15.3,8.7661875 C15.7134,8.7661875 16.05,9.08175 16.05,9.4693125 L16.05,9.75 L12.249,9.75 C12.1692,9.75 12.0912,9.735375 12.0192,9.7078125 C11.9472,9.6796875 11.8806,9.638625 11.8248,9.58575 L10.95,8.7661875 L15.3,8.7661875 Z M16.95,9.7640625 L16.95,9.4693125 C16.95,8.616 16.2102,7.9224375 15.3,7.9224375 L10.05,7.9224375 L9.7758,7.6648125 C9.72,7.6119375 9.6534,7.570875 9.5814,7.54275 C9.5094,7.514625 9.4314,7.5 9.3516,7.5 L7.2,7.5 C6.8328,7.5 6.507,7.6603125 6.2862,7.906125 C6.1104,8.101875 6,8.3510625 6,8.625 L6,14.8125 C6,15.740625 6.8106,16.5 7.8,16.5 L16.2,16.5 C16.7514,16.5 17.2404,16.2598125 17.571,15.891375 C17.835,15.5983125 18,15.22425 18,14.8125 L18,10.875 C18,10.304625 17.5392,9.834375 16.95,9.7640625 L16.95,9.7640625 Z"
                    id="Fill-1" fill="#FFFFFF"></path>
            </g>
        </g>
    </g>
</svg>