<svg viewBox="0 0 24 24" xmlns="http://www.w3.org/2000/svg"
	xmlns:xlink="http://www.w3.org/1999/xlink">
	<defs />
	<path id="矢量 39"
		d="M18.3405 3.31813C16.5139 1.98202 14.3112 1.25 12 1.25C6.06293 1.25 1.25 6.06294 1.25 12C1.25 17.9371 6.06293 22.75 12 22.75C17.9371 22.75 22.75 17.9371 22.75 12C22.75 9.68808 22.0175 7.48468 20.6806 5.65778C20.436 5.3235 19.9667 5.25082 19.6325 5.49544C19.2982 5.74004 19.2255 6.20932 19.4701 6.54359C20.6205 8.11557 21.25 10.0093 21.25 12C21.25 17.1086 17.1086 21.25 12 21.25C6.89136 21.25 2.75 17.1086 2.75 12C2.75 6.89136 6.89136 2.75 12 2.75C13.9901 2.75 15.8832 3.37914 17.455 4.52881C17.7893 4.77335 18.2585 4.70058 18.5031 4.36626C18.7476 4.03194 18.6749 3.56268 18.3405 3.31813ZM18.25 8.77777C18.25 7.38173 17.1183 6.25 15.7222 6.25L8.27777 6.25C6.88171 6.25 5.75 7.38173 5.75 8.77777L5.75 15.2222C5.75 16.6183 6.88171 17.75 8.27777 17.75L15.7222 17.75C17.1183 17.75 18.25 16.6183 18.25 15.2222L18.25 8.77777ZM7.25 8.77777C7.25 8.21014 7.71014 7.75 8.27777 7.75L15.7222 7.75C16.2899 7.75 16.75 8.21014 16.75 8.77777L16.75 15.2222C16.75 15.7899 16.2899 16.25 15.7222 16.25L8.27777 16.25C7.71014 16.25 7.25 15.7899 7.25 15.2222L7.25 8.77777ZM12.5 9.75C12.9142 9.75 13.25 10.0858 13.25 10.5C13.25 10.8797 12.9678 11.1935 12.6018 11.2431L12.5 11.25L9.5 11.25C9.08578 11.25 8.75 10.9142 8.75 10.5C8.75 10.1203 9.03217 9.80652 9.39822 9.75685L9.5 9.75L12.5 9.75ZM15.25 13.5C15.25 13.0858 14.9142 12.75 14.5 12.75L9.5 12.75L9.39822 12.7569C9.03217 12.8065 8.75 13.1203 8.75 13.5C8.75 13.9142 9.08578 14.25 9.5 14.25L14.5 14.25L14.6018 14.2431C14.9678 14.1935 15.25 13.8797 15.25 13.5Z"
		fill-rule="evenodd" />
</svg>