<svg viewBox="0 0 24 24" xmlns="http://www.w3.org/2000/svg"
	xmlns:xlink="http://www.w3.org/1999/xlink">
	<defs />
	<path id="矢量 129"
		d="M21.75 5.25C21.75 3.59314 20.4069 2.25 18.75 2.25L5.25 2.25C3.59314 2.25 2.25 3.59314 2.25 5.25L2.25 18.75C2.25 20.4069 3.59314 21.75 5.25 21.75L18.75 21.75C20.4069 21.75 21.75 20.4069 21.75 18.75L21.75 5.25ZM8.90521 7L7.25 7C6.14545 7 5.25 7.89545 5.25 9L5.25 15C5.25 16.1046 6.14545 17 7.25 17L16.75 17C17.8546 17 18.75 16.1046 18.75 15L18.75 11.6316C18.75 10.739 18.1653 9.98297 17.358 9.72568C16.9131 8.15289 15.4662 7 13.75 7L9.25 7L9.14825 7.00684C9.07794 6.99927 8.97705 7 8.90521 7ZM13.9041 8.50519L13.75 8.5L11.297 8.5L12.3885 9.51617C12.4653 9.58765 12.58 9.63159 12.7035 9.63159L15.7023 9.6308C15.3382 8.99698 14.6743 8.55725 13.9041 8.50519Z"
		fill-rule="evenodd" />
</svg>