<?xml version="1.0" encoding="UTF-8"?>
<svg viewBox="0 0 24 24" version="1.1" xmlns="http://www.w3.org/2000/svg" xmlns:xlink="http://www.w3.org/1999/xlink">
    <g id="S12组件" stroke="none" stroke-width="1">
        <g id="FilesCircle">
            <g id="编组-2" transform="translate(2.000000, 2.000000)">
                <path d="M10,0 C12.2170341,0 14.3258236,0.72418837 16.0532894,2.03924114 C16.3828702,2.29013825 16.446656,2.76070858 16.1957589,3.0902894 C15.9448618,3.41987022 15.4742914,3.48365597 15.1447106,3.23275886 C13.6761624,2.11481002 11.8858755,1.5 10,1.5 C5.30585564,1.5 1.5,5.30557146 1.5,10 C1.5,14.6937864 5.30621356,18.5 10,18.5 C14.6944285,18.5 18.5,14.6941444 18.5,10 C18.5,8.1146074 17.8858507,6.32533664 16.7681003,4.85610438 C16.5173054,4.52644579 16.581237,4.05589525 16.9108956,3.80510033 C17.2405542,3.55430541 17.7111047,3.61823704 17.9618997,3.94789562 C19.2765776,5.67598035 20,7.78360864 20,10 C20,15.5225464 15.5228807,20 10,20 C4.47778644,20 0,15.5222136 0,10 C0,4.47711926 4.47745359,0 10,0 Z M13.5,5.25 C14.7426407,5.25 15.75,6.25735931 15.75,7.5 L15.75,7.5 L15.75,12.5 C15.75,13.7426407 14.7426407,14.75 13.5,14.75 L13.5,14.75 L6.5,14.75 C5.25735931,14.75 4.25,13.7426407 4.25,12.5 L4.25,12.5 L4.25,7.5 C4.25,6.25735931 5.25735931,5.25 6.5,5.25 L6.5,5.25 Z M13.5,6.75 L6.5,6.75 C6.08578644,6.75 5.75,7.08578644 5.75,7.5 L5.75,7.5 L5.75,12.5 C5.75,12.9142136 6.08578644,13.25 6.5,13.25 L6.5,13.25 L13.5,13.25 C13.9142136,13.25 14.25,12.9142136 14.25,12.5 L14.25,12.5 L14.25,7.5 C14.25,7.08578644 13.9142136,6.75 13.5,6.75 L13.5,6.75 Z M12.206706,10.25 C12.6209196,10.25 12.956706,10.5857864 12.956706,11 C12.956706,11.3796958 12.6745521,11.693491 12.3084766,11.7431534 L12.206706,11.75 L7.206706,11.75 C6.79249244,11.75 6.456706,11.4142136 6.456706,11 C6.456706,10.6203042 6.73885988,10.306509 7.10493544,10.2568466 L7.206706,10.25 L12.206706,10.25 Z M9.206706,7.75 C9.62091956,7.75 9.956706,8.08578644 9.956706,8.5 C9.956706,8.87969577 9.67455212,9.19349096 9.30847656,9.24315338 L9.206706,9.25 L7.206706,9.25 C6.79249244,9.25 6.456706,8.91421356 6.456706,8.5 C6.456706,8.12030423 6.73885988,7.80650904 7.10493544,7.75684662 L7.206706,7.75 L9.206706,7.75 Z" id="形状结合"></path>
            </g>
        </g>
    </g>
</svg>