<?xml version="1.0" encoding="UTF-8"?>
<svg viewBox="0 0 24 24" version="1.1" xmlns="http://www.w3.org/2000/svg" xmlns:xlink="http://www.w3.org/1999/xlink">
    <g id="页面-1" stroke="none" stroke-width="1">
        <g id="画板" transform="translate(-1076.000000, -1510.000000)">
            <g id="编组" transform="translate(1076.000000, 1510.000000)">
                <path d="M14,2.018 L14.0226575,2.01868888 C14.0350862,2.0190618 14.0474961,2.01974066 14.0598754,2.02072374 L14,2.018 C14.0454133,2.018 14.089888,2.022043 14.1330836,2.02978847 C14.143361,2.03198766 14.1536989,2.03405908 14.1639899,2.03634675 C14.1878251,2.04133042 14.2112254,2.04778643 14.2341394,2.05531741 C14.2452207,2.05914795 14.2568779,2.06326239 14.2684363,2.06766781 C14.2883567,2.07519799 14.3071054,2.08332504 14.3254397,2.09217634 C14.3390275,2.0986595 14.3530506,2.10592797 14.3668588,2.11365719 C14.3837512,2.12329271 14.4002136,2.13341044 14.4162405,2.14412919 C14.4286404,2.15218107 14.4405332,2.16064534 14.4522037,2.16948774 C14.4821822,2.19238757 14.5110047,2.21784545 14.5377382,2.2453447 L19.742,7.4715 C19.956,7.6865 20.02,8.0085 19.903,8.2885 C19.787,8.5675 19.514,8.7505 19.211,8.7505 L15.5,8.7505 C14.259,8.7505 13.25,7.7405 13.25,6.5005 L13.249,3.517 L7.039,3.518 C6.212,3.518 5.539,4.191 5.539,5.018 L5.539,18.982 C5.539,19.809 6.212,20.482 7.039,20.482 L16.961,20.482 C17.788,20.482 18.461,19.809 18.461,18.982 L18.461,10.495 C18.461,10.081 18.797,9.745 19.211,9.745 C19.625,9.745 19.961,10.081 19.961,10.495 L19.961,18.982 C19.961,20.636 18.615,21.982 16.961,21.982 L7.039,21.982 C5.385,21.982 4.039,20.636 4.039,18.982 L4.039,5.018 C4.039,3.364 5.385,2.018 7.039,2.018 L14,2.018 Z M14.75,4.5845 L14.75,6.5005 C14.75,6.9135 15.086,7.2505 15.5,7.2505 L17.405,7.2505 L14.75,4.5845 Z" id="形状结合"></path>
            </g>
        </g>
    </g>
</svg>