<svg viewBox="0 0 24 24" xmlns="http://www.w3.org/2000/svg"
	xmlns:xlink="http://www.w3.org/1999/xlink">
	<defs />
	<path id="矢量 27"
		d="M14.9659 2.01078C15.2018 1.97707 15.4747 2.04658 15.6642 2.25617L20.3001 7.38398C20.7476 7.87896 20.3948 8.66769 19.7258 8.66769L16.3261 8.66769C15.2166 8.66769 14.3172 7.77234 14.3172 6.66785L14.317 3.539L6.12701 3.53989C5.56946 3.53989 5.11041 3.95987 5.05164 4.4994L5.04529 4.61673L5.04529 19.3848C5.04529 19.9399 5.46722 20.3969 6.00916 20.4553L6.12701 20.4617L17.8715 20.4617C18.429 20.4617 18.8881 20.0417 18.9468 19.5022L18.9532 19.3848L18.9532 11.1803C18.9532 10.7555 19.2991 10.4112 19.7258 10.4112C20.117 10.4112 20.4402 10.7005 20.4915 11.076L20.4985 11.1803L20.4985 19.3848C20.4985 20.7714 19.4146 21.9059 18.0442 21.9944L17.8715 22L6.12701 22C4.73419 22 3.59454 20.9209 3.50562 19.5568L3.5 19.3848L3.5 4.61673C3.5 3.23018 4.58398 2.09565 5.95428 2.00711L6.12701 2.00155L14.8459 2.00155C14.8867 2.00155 14.9268 2.0047 14.9659 2.01078ZM15.8625 6.66785L15.8625 4.77467L17.991 7.12936L16.3261 7.12936C16.1099 7.09028 15.8625 6.89442 15.8625 6.66785Z"
		fill-rule="evenodd" />
</svg>