<svg viewBox="0 0 24 24" xmlns="http://www.w3.org/2000/svg"
	xmlns:xlink="http://www.w3.org/1999/xlink">
	<defs />
	<g opacity="0" />
	<path id="合并"
		d="M0 14.39C0 14.48 0 14.57 0 14.67C0 14.83 0 15 0.02 15.17C0.07 15.82 0.22 16.46 0.46 17.09C0.64 17.54 0.85 17.95 1.1 18.35C1.29 18.64 1.5 18.92 1.73 19.18C2.23 19.74 2.79 20.2 3.4 20.54C3.48 20.59 3.56 20.63 3.64 20.67C4.16 20.93 4.68 21.1 5.22 21.18C5.49 21.22 5.76 21.25 6.04 21.25L17.29 21.25C17.61 21.25 17.92 21.22 18.23 21.17C18.81 21.08 19.38 20.89 19.94 20.62C20.05 20.56 20.16 20.5 20.27 20.44C20.93 20.07 21.53 19.58 22.06 18.99C22.32 18.69 22.56 18.38 22.77 18.05C23.05 17.62 23.28 17.17 23.47 16.68C23.74 16.02 23.9 15.34 23.96 14.66C23.98 14.44 24 14.22 24 14C24 13.77 23.98 13.55 23.96 13.33C23.9 12.65 23.74 11.97 23.47 11.31C23.28 10.82 23.05 10.37 22.77 9.94C22.56 9.61 22.32 9.3 22.06 9C21.53 8.41 20.93 7.92 20.27 7.55C20.16 7.49 20.05 7.43 19.94 7.37C19.42 7.11 18.88 6.94 18.33 6.84C18.04 6.79 17.75 6.76 17.46 6.75C17.4 6.62 17.34 6.49 17.27 6.36C17.11 6.04 16.91 5.73 16.7 5.44C16.48 5.16 16.25 4.89 15.99 4.64C15.76 4.42 15.52 4.21 15.25 4.02C14.94 3.79 14.62 3.59 14.28 3.43C14 3.29 13.72 3.18 13.43 3.08C13.14 2.99 12.85 2.91 12.56 2.86C12.16 2.78 11.75 2.75 11.33 2.75C10.87 2.75 10.41 2.79 9.96 2.89C9.59 2.96 9.23 3.07 8.88 3.21C8.53 3.35 8.21 3.51 7.89 3.7C7.52 3.93 7.16 4.19 6.83 4.49C6.52 4.77 6.25 5.07 6 5.4C5.76 5.71 5.55 6.05 5.37 6.41C5.18 6.77 5.03 7.14 4.92 7.52C4.85 7.75 4.79 7.98 4.75 8.22C4.2 8.35 3.68 8.57 3.18 8.88C2.56 9.27 1.98 9.79 1.5 10.4C1.3 10.65 1.12 10.92 0.95 11.2C0.73 11.58 0.55 11.98 0.4 12.4C0.16 13.06 0.03 13.72 0 14.39ZM1.5 14.9C1.5 14.82 1.5 14.74 1.5 14.67C1.5 14.09 1.6 13.48 1.81 12.9C1.93 12.56 2.09 12.24 2.27 11.93C2.39 11.72 2.53 11.52 2.68 11.32C3.06 10.84 3.49 10.45 3.97 10.16C4.4 9.89 4.86 9.71 5.33 9.63C5.39 9.63 5.44 9.62 5.5 9.61C5.59 9.6 5.67 9.58 5.74 9.54C5.81 9.5 5.88 9.45 5.94 9.39C6.01 9.33 6.05 9.26 6.09 9.19C6.12 9.11 6.15 9.03 6.16 8.94C6.19 8.6 6.26 8.27 6.36 7.95C6.45 7.65 6.56 7.37 6.7 7.09C6.84 6.82 7.01 6.55 7.19 6.31C7.39 6.06 7.6 5.82 7.84 5.6C8.1 5.36 8.39 5.15 8.69 4.97C8.92 4.83 9.17 4.71 9.43 4.61C9.69 4.5 9.96 4.42 10.24 4.36C10.6 4.28 10.96 4.25 11.33 4.25C11.67 4.25 12 4.28 12.32 4.34C12.53 4.38 12.75 4.44 12.96 4.51C13.17 4.58 13.39 4.66 13.59 4.76C13.86 4.89 14.12 5.05 14.37 5.23C14.57 5.38 14.76 5.54 14.94 5.71C15.14 5.9 15.33 6.11 15.5 6.34C15.67 6.57 15.82 6.81 15.95 7.06C16.06 7.28 16.16 7.51 16.25 7.75C16.27 7.83 16.31 7.9 16.36 7.96C16.41 8.02 16.46 8.08 16.53 8.13C16.6 8.17 16.67 8.21 16.75 8.23C16.82 8.25 16.9 8.26 16.99 8.25L17.14 8.25L17.3 8.24C17.47 8.24 17.63 8.25 17.79 8.27C18.3 8.33 18.79 8.48 19.28 8.72C19.86 9.02 20.47 9.48 20.94 10C21.14 10.23 21.33 10.47 21.5 10.73C21.73 11.08 21.92 11.46 22.08 11.86C22.31 12.43 22.44 13.02 22.48 13.61C22.49 13.74 22.5 13.87 22.5 14C22.5 14.12 22.49 14.25 22.48 14.38C22.44 14.97 22.31 15.56 22.08 16.13C21.92 16.53 21.73 16.91 21.5 17.26C21.33 17.52 21.14 17.76 20.94 17.99C20.47 18.51 19.95 18.93 19.37 19.23C18.92 19.45 18.36 19.64 17.89 19.7C17.69 19.73 17.49 19.75 17.29 19.75L6.04 19.75C5.88 19.75 5.72 19.73 5.56 19.71C5.14 19.66 4.72 19.53 4.31 19.33C3.77 19.06 3.29 18.68 2.86 18.19C2.69 17.99 2.53 17.78 2.38 17.57C2.18 17.25 2 16.91 1.86 16.55C1.65 16 1.53 15.45 1.5 14.9ZM16.03 12.01L12.53 8.47C12.46 8.39 12.38 8.34 12.29 8.3C12.2 8.26 12.1 8.25 12 8.25C11.9 8.24 11.8 8.26 11.71 8.3C11.62 8.33 11.54 8.39 11.47 8.46L7.96 12.01C7.67 12.31 7.67 12.77 7.97 13.07C8.27 13.37 8.73 13.36 9.03 13.06L11.25 10.82L11.25 17C11.25 17.41 11.58 17.75 12 17.75C12.41 17.75 12.75 17.41 12.75 17L12.75 10.82L14.96 13.06C15.26 13.36 15.72 13.37 16.02 13.07C16.32 12.77 16.32 12.31 16.03 12.01Z"
		fill-opacity="1" />
</svg>