<?xml version="1.0" encoding="UTF-8"?>
<svg viewBox="0 0 24 24" version="1.1" xmlns="http://www.w3.org/2000/svg" xmlns:xlink="http://www.w3.org/1999/xlink">
    <g id="S12组件" stroke="none" stroke-width="1">
        <g id="FileCloudupload">
            <path d="M17.9960739,13.2607212 C18.2630739,12.9937212 18.6800739,12.9697212 18.9730739,13.1877212 L18.9730739,13.1877212 L19.0570739,13.2597212 L21.8090739,16.0117212 C22.1020739,16.3037212 22.1030739,16.7797212 21.8100739,17.0727212 C21.5430739,17.3377212 21.1260739,17.3627212 20.8330739,17.1447212 L20.8330739,17.1447212 L20.7490739,17.0727212 L19.2760739,15.6007212 L19.2770739,19.2937212 C19.2770739,19.7077212 18.9420739,20.0437212 18.5270739,20.0437212 C18.1480739,20.0437212 17.8330739,19.7617212 17.7830739,19.3957212 L17.7830739,19.3957212 L17.7770739,19.2937212 L17.7760739,15.6007212 L16.3070739,17.0727212 C16.0400739,17.3377212 15.6230739,17.3627212 15.3300739,17.1447212 L15.3300739,17.1447212 L15.2450739,17.0727212 C14.9800739,16.8057212 14.9550739,16.3887212 15.1730739,16.0957212 L15.1730739,16.0957212 L15.2450739,16.0117212 Z M7.27752654,4 C7.68103375,4 8.07027063,4.13936113 8.38079554,4.39157602 L8.50887066,4.50650025 L11.8471184,7.81211548 C11.9444864,7.90853166 12.0691515,7.9710843 12.2028205,7.9922487 L12.3044748,8.00024414 L18.7587488,8 L18.7589004,7.5 C18.7589004,6.85332521 18.2665252,6.32053284 17.6366118,6.25645987 L17.5089004,6.25 L11.9885942,6.25 C11.5743807,6.25 11.2385942,5.91421356 11.2385942,5.5 C11.2385942,5.12030423 11.5207481,4.80650904 11.8868237,4.75684662 L11.9885942,4.75 L17.5089004,4.75 C18.9708838,4.75 20.1672641,5.89223269 20.2538794,7.33253635 L20.2589004,7.5 L20.2594399,8.01824133 C21.1931204,8.14366221 21.9236899,8.91011395 21.9937873,9.86023548 L21.9993004,10.0102441 L21.9993004,12.3843994 C21.9993004,12.798613 21.663514,13.1343994 21.2493004,13.1343994 C20.8696047,13.1343994 20.5558095,12.8522455 20.506147,12.48617 L20.4993004,12.3843994 L20.4993004,10.0102441 C20.4993004,9.75987505 20.3188878,9.5516436 20.0809736,9.50846092 L19.9893004,9.50024414 L12.3044748,9.50024414 C11.8008685,9.50024414 11.3153553,9.3235505 10.9309366,9.00430493 L10.7916806,8.87797241 L7.45343284,5.57235718 C7.42222515,5.54145455 7.38372657,5.51959668 7.34200875,5.50845839 L7.27752654,5.5 L5.04874878,5.5 C4.24026527,5.5 3.57635555,6.11899397 3.50508312,6.90891841 L3.49874878,7.05 L3.49874878,16.95 C3.49874878,17.7584835 4.11774275,18.4223932 4.90766718,18.4936657 L5.04874878,18.5 L14.4175035,18.5 C14.8317171,18.5 15.1675035,18.8357864 15.1675035,19.25 C15.1675035,19.6296958 14.8853497,19.943491 14.5192741,19.9931534 L14.4175035,20 L5.04874878,20 C3.42443988,20 2.09669355,18.7302647 2.00392635,17.1292107 L1.99874878,16.95 L1.99874878,7.05 C1.99874878,5.4256911 3.26848408,4.09794477 4.86953811,4.00517757 L5.04874878,4 L7.27752654,4 Z" id="形状结合"></path>
        </g>
    </g>
</svg>