<svg viewBox="0 0 24 24" xmlns="http://www.w3.org/2000/svg"
	xmlns:xlink="http://www.w3.org/1999/xlink">
	<defs />
	<path id="矢量 26"
		d="M13.7947 2.00002C13.928 2.00002 14.0532 2.0348 14.1617 2.09578C14.3338 2.1516 14.491 2.24907 14.6188 2.38159L20.1425 8.10992C20.1783 8.14699 20.2109 8.18588 20.2405 8.2263C20.3994 8.36331 20.5 8.56657 20.5 8.79333L20.5 18.7834C20.5 20.5586 19.0698 22 17.3026 22L6.69739 22C4.93018 22 3.5 20.5586 3.5 18.7834L3.5 5.21667C3.5 3.44147 4.93018 2.00002 6.69739 2.00002L13.7947 2.00002ZM6.69739 3.50002L12.699 3.50002L12.7 7.15234L12.7055 7.31741C12.804 8.79348 14.2093 10 15.7044 10L19 10L19 18.7834C19 19.7328 18.2387 20.5 17.3026 20.5L6.69739 20.5C5.76129 20.5 5 19.7328 5 18.7834L5 5.21667C5 4.26728 5.76129 3.50002 6.69739 3.50002ZM14.5447 7.14889L14.544 4.46602L17.992 8.04301L15.5079 8.04333C14.9959 8.04333 14.5447 7.618 14.5447 7.14889ZM14.9359 11.1397C15.2424 11.3586 15.3347 11.7656 15.1681 12.091L12.921 15.25L15.1103 18.3141C15.3511 18.6512 15.273 19.1196 14.9359 19.3603C14.6295 19.5792 14.2145 19.5346 13.9608 19.2714L12 16.54L10.1103 19.186C9.86957 19.523 9.40112 19.6011 9.06409 19.3603C8.75763 19.1415 8.66528 18.7345 8.83191 18.409L11.078 15.25L8.88971 12.186C8.64893 11.8489 8.72699 11.3805 9.06409 11.1397C9.37048 10.9209 9.78546 10.9655 10.0392 11.2286L12 13.959L13.8897 11.3141C14.1304 10.977 14.5989 10.899 14.9359 11.1397Z"
		fill-rule="evenodd" />
</svg>