<?xml version="1.0" encoding="UTF-8"?>
<svg viewBox="0 0 24 24" version="1.1" xmlns="http://www.w3.org/2000/svg" xmlns:xlink="http://www.w3.org/1999/xlink">
    <g id="页面-1" stroke="none" stroke-width="1">
        <g id="SaaS基础图标库" transform="translate(-1277.000000, -1594.000000)">
            <g id="IconFileExcel" transform="translate(1277.000000, 1594.000000)">
                <path d="M14.0226575,2.01868888 L14.035,2.019 L14.05,2.019 L14.0673734,2.02098968 C14.0895682,2.02296862 14.1114858,2.02591574 14.1330836,2.02978847 C14.143361,2.03198766 14.1536989,2.03405908 14.1639899,2.03634675 C14.1878251,2.04133042 14.2112254,2.04778643 14.2341394,2.05531741 L14.2684363,2.06766781 L14.2684363,2.06766781 C14.2883567,2.07519799 14.3071054,2.08332504 14.3254397,2.09217634 C14.3390275,2.0986595 14.3530506,2.10592797 14.3668588,2.11365719 C14.3837512,2.12329271 14.4002136,2.13341044 14.4162405,2.14412919 C14.4286404,2.15218107 14.4405332,2.16064534 14.4522037,2.16948774 C14.4821822,2.19238757 14.5110047,2.21784545 14.5377382,2.2453447 L19.742,7.4715 C19.956,7.6865 20.02,8.0085 19.903,8.2885 C19.787,8.5675 19.514,8.7505 19.211,8.7505 L15.5,8.7505 C14.259,8.7505 13.25,7.7405 13.25,6.5005 L13.249,3.517 L7.039,3.518 C6.212,3.518 5.539,4.191 5.539,5.018 L5.539,18.982 C5.539,19.809 6.212,20.482 7.039,20.482 L16.961,20.482 C17.788,20.482 18.461,19.809 18.461,18.982 L18.461,10.495 C18.461,10.081 18.797,9.745 19.211,9.745 C19.625,9.745 19.961,10.081 19.961,10.495 L19.961,18.982 C19.961,20.636 18.615,21.982 16.961,21.982 L7.039,21.982 C5.385,21.982 4.039,20.636 4.039,18.982 L4.039,5.018 C4.039,3.364 5.385,2.018 7.039,2.018 L14.0226575,2.01868888 Z M9.20383867,10.1348924 L9.3073026,10.2221615 L11.379,12.314 L13.4721615,10.2416827 C13.7664243,9.9501655 14.2412928,9.95239127 14.53281,10.2466541 C14.7919364,10.508221 14.8189696,10.9124888 14.6151077,11.2038387 L14.5278386,11.3073026 L12.435,13.379 L14.5083174,15.4721615 C14.7998346,15.7664243 14.7976088,16.2412928 14.503346,16.53281 C14.2417791,16.7919364 13.8375113,16.8189696 13.5461614,16.6151077 L13.4426975,16.5278386 L11.37,14.435 L9.27783862,16.5083174 C8.9835758,16.7998346 8.50870729,16.7976088 8.2171901,16.503346 C7.95806371,16.2417791 7.93103051,15.8375113 8.13489241,15.5461614 L8.22216149,15.4426975 L10.314,13.37 L8.24168269,11.2778386 C7.9501655,10.9835758 7.95239127,10.5087073 8.24665408,10.2171901 C8.50822102,9.95806371 8.91248877,9.93103051 9.20383867,10.1348924 Z M14.75,4.5845 L14.75,6.5005 C14.75,6.9135 15.086,7.2505 15.5,7.2505 L17.405,7.2505 L14.75,4.5845 Z" id="形状结合"></path>
            </g>
        </g>
    </g>
</svg>