<svg viewBox="0 0 24 24" xmlns="http://www.w3.org/2000/svg"
	xmlns:xlink="http://www.w3.org/1999/xlink">
	<defs />
	<path id="矢量 40"
		d="M14.9664 2.01085C14.9271 2.00473 14.8869 2.00155 14.8459 2.00155L6.12701 2.00155L5.95428 2.00711C4.58392 2.09566 3.5 3.23018 3.5 4.61673L3.5 19.3848L3.50562 19.5568C3.59454 20.9209 4.73419 22 6.12701 22L17.8715 22L18.0442 21.9944C19.4146 21.9059 20.4985 20.7714 20.4985 19.3848L20.4985 11.1803L20.4915 11.076C20.4402 10.7005 20.117 10.4112 19.7258 10.4112C19.2991 10.4112 18.9532 10.7555 18.9532 11.1803L18.9532 19.3848L18.9468 19.5022C18.8881 20.0417 18.429 20.4617 17.8715 20.4617L6.12701 20.4617L6.00916 20.4553C5.46722 20.3969 5.04529 19.9399 5.04529 19.3848L5.04529 4.61673L5.05164 4.4994C5.11041 3.95987 5.56946 3.53989 6.12701 3.53989L14.3171 3.53989L14.3171 6.66785C14.3171 7.77234 15.2166 8.66769 16.326 8.66769L19.7258 8.66769C20.3947 8.66769 20.7476 7.87895 20.3 7.38397L15.6641 2.25616C15.4695 2.04096 15.2076 1.97042 14.9664 2.01085ZM17.9908 7.12936L16.326 7.12936C16.1097 7.09029 15.8624 6.89441 15.8624 6.66785L15.8624 4.77467L17.9908 7.12936ZM12.9803 10.4033C13.4071 10.4033 13.7531 10.7476 13.7531 11.1724C13.7531 11.5618 13.4623 11.8837 13.0852 11.9346L12.9803 11.9416L7.87836 11.9416C7.45166 11.9416 7.10571 11.5972 7.10571 11.1724C7.10571 10.783 7.39636 10.4612 7.7735 10.4103L7.87836 10.4033L12.9803 10.4033ZM16.8927 15.9058C16.8927 15.481 16.5468 15.1366 16.1201 15.1366L7.87836 15.1366L7.7735 15.1436C7.39636 15.1946 7.10571 15.5164 7.10571 15.9058C7.10571 16.3306 7.45166 16.675 7.87836 16.675L16.1201 16.675L16.2249 16.668C16.6021 16.617 16.8927 16.2952 16.8927 15.9058Z"
		fill-rule="evenodd" />
</svg>