<?xml version="1.0" encoding="UTF-8"?>
<svg viewBox="0 0 30 30" version="1.1" xmlns="http://www.w3.org/2000/svg" xmlns:xlink="http://www.w3.org/1999/xlink">
    <g id="多端组件" stroke="none" stroke-width="1">
        <g id="文件上传" transform="translate(-629.000000, -1942.000000)">
            <g id="文件夹" transform="translate(629.000000, 1942.000000)">
                <rect id="矩形" x="0" y="0" width="30" height="30" rx="2"></rect>
                <g id="面性/ic_folder_filled" transform="translate(5.000000, 5.000000)">
                    <rect id="矩形" fill="#D8D8D8" opacity="0" x="0" y="0" width="20" height="20"></rect>
                    <path d="M14.5833333,5.20916667 C15.1575,5.20916667 15.625,5.67666667 15.625,6.25083333 L15.625,6.66666667 L10.3458333,6.66666667 C10.235,6.66666667 10.1266667,6.645 10.0266667,6.60416667 C9.92666667,6.5625 9.83416667,6.50166667 9.75666667,6.42333333 L8.54166667,5.20916667 L14.5833333,5.20916667 Z M16.875,6.6875 L16.875,6.25083333 C16.875,4.98666667 15.8475,3.95916667 14.5833333,3.95916667 L7.29166667,3.95916667 L6.91083333,3.5775 C6.83333333,3.49916667 6.74083333,3.43833333 6.64083333,3.39666667 C6.54083333,3.355 6.4325,3.33333333 6.32166667,3.33333333 L3.33333333,3.33333333 C2.82333333,3.33333333 2.37083333,3.57083333 2.06416667,3.935 C1.82,4.225 1.66666667,4.59416667 1.66666667,5 L1.66666667,14.1666667 C1.66666667,15.5416667 2.7925,16.6666667 4.16666667,16.6666667 L15.8333333,16.6666667 C16.5991667,16.6666667 17.2783333,16.3108333 17.7375,15.765 C18.1041667,15.3308333 18.3333333,14.7766667 18.3333333,14.1666667 L18.3333333,8.33333333 C18.3333333,7.48833333 17.6933333,6.79166667 16.875,6.6875 L16.875,6.6875 Z" id="Fill-1" fill="#FFFFFF"></path>
                </g>
            </g>
        </g>
    </g>
</svg>