<?xml version="1.0" encoding="UTF-8"?>
<svg viewBox="0 0 24 24" version="1.1" xmlns="http://www.w3.org/2000/svg" xmlns:xlink="http://www.w3.org/1999/xlink" class="icon">
    <g id="页面-1" stroke="none" stroke-width="1">
        <g id="画板" transform="translate(-1076.000000, -1581.000000)">
            <g id="编组" transform="translate(1076.000000, 1581.000000)">
                <path d="M11.566294,4.585 C14.1398288,4.585 16.4168342,6.11164459 17.4306783,8.38668926 L17.4937465,8.5346296 L17.5148384,8.53498278 C20.5504124,8.65089251 22.9149693,11.2356246 22.7409796,14.290819 L22.7246985,14.5047103 C22.4645415,17.2238084 20.1072323,19.300144 17.3318272,19.4103921 L17.0996116,19.415 L14.1971997,19.415 C13.7822123,19.415 13.4457986,19.0789643 13.4457986,18.6644433 C13.4457986,18.2844657 13.7284796,17.9704375 14.095239,17.9207383 L14.1971997,17.9138866 L17.0996116,17.9138866 C19.2197359,17.9138866 21.0370389,16.3652276 21.2286844,14.3621957 C21.4448649,12.0932271 19.7285833,10.1462876 17.4999285,10.0368861 L17.289048,10.0328069 L17.0841352,10.0580122 C17.0655965,10.0597637 17.0471656,10.0611981 17.0265415,10.0625211 C16.6802303,10.0847362 16.3637359,9.86717262 16.2608011,9.53613823 C15.6280247,7.50115299 13.7343335,6.08611344 11.566294,6.08611344 C8.89967565,6.08611344 6.724236,8.21268724 6.65891798,10.8720582 C6.64873319,11.2867238 6.30621367,11.6074155 5.90330631,11.6043164 L5.8234924,11.5992299 C4.82440064,11.4961012 3.85434452,11.9493765 3.35146822,12.7601641 C1.87626779,15.137716 3.31107498,17.7930463 5.73402039,17.9098868 L5.90072985,17.9138866 L9.78998186,17.9138866 C10.5454466,17.9138866 11.1656886,17.3389113 11.2360442,16.6026486 L11.2426906,16.4628102 L11.242,12.327 L9.31512652,14.2530012 C9.04836254,14.5194654 8.63092048,14.5436895 8.33676049,14.3256733 L8.25248492,14.2530012 C7.98572094,13.986537 7.96146967,13.569564 8.1797311,13.2757346 L8.25248492,13.1915537 L11.4604666,9.98717692 C11.7272005,9.72074273 12.1445859,9.69649016 12.4387461,9.914441 L12.5230236,9.98709238 L15.6678876,13.1274217 C15.9613747,13.4204856 15.9614505,13.8957118 15.6680568,14.1888692 C15.4013354,14.4553758 14.9838972,14.4796663 14.6897024,14.2616969 L14.6054153,14.1890383 L12.745,12.331 L12.7454928,16.4628102 C12.7454928,18.0356864 11.515342,19.3202431 9.96366716,19.409991 L9.78998186,19.415 L5.90072985,19.415 C2.20420291,19.415 -0.0573382077,15.4045792 2.07403471,11.9694868 C2.73842293,10.8982935 3.88400755,10.2246819 5.14951808,10.1053529 L5.21685468,10.0997905 L5.2431548,9.92709531 C5.73963138,6.96464006 8.2651542,4.69790208 11.335054,4.58909181 L11.566294,4.585 Z" id="形状结合"></path>
            </g>
        </g>
    </g>
</svg>