<?xml version="1.0" encoding="UTF-8"?>
<svg viewBox="0 0 16 16" version="1.1" xmlns="http://www.w3.org/2000/svg"
    xmlns:xlink="http://www.w3.org/1999/xlink">
    <title>icon/16/链接</title>
    <g id="页面-1" stroke="none" stroke-width="1" fill="none" fill-rule="evenodd">
        <g id="icon/16/链接">
            <rect id="矩形" fill="#FFFFFF" opacity="0" x="0" y="0" width="16" height="16"></rect>
            <path
                d="M7,2 C7.27614237,2 7.5,2.22385763 7.5,2.5 C7.5,2.74545989 7.32312484,2.94960837 7.08987563,2.99194433 L7,3 L4.5,3 C3.72030388,3 3.07955132,3.59488808 3.00686658,4.35553999 L3,4.5 L3,11.5 C3,12.2796961 3.59488808,12.9204487 4.35553999,12.9931334 L4.5,13 L11.5,13 C12.2796961,13 12.9204487,12.4051119 12.9931334,11.64446 L13,11.5 L13,9 C13,8.72385763 13.2238576,8.5 13.5,8.5 C13.7454599,8.5 13.9496084,8.67687516 13.9919443,8.91012437 L14,9 L14,11.5 C14,12.8254834 12.9684641,13.9100387 11.6643757,13.9946823 L11.5,14 L4.5,14 C3.1745166,14 2.08996133,12.9684641 2.00531768,11.6643757 L2,11.5 L2,4.5 C2,3.1745166 3.03153594,2.08996133 4.33562431,2.00531768 L4.5,2 L7,2 Z"
                id="路径" fill="#808080" fill-rule="nonzero"></path>
            <path
                d="M13.5,2 C13.7454599,2 13.9496084,2.17687516 13.9919443,2.41012437 L14,2.5 L14,6 C14,6.27614237 13.7761424,6.5 13.5,6.5 C13.2545401,6.5 13.0503916,6.32312484 13.0080557,6.08987563 L13,6 L13,2.99944661 L10,3 C9.75454011,3 9.55039163,2.82312484 9.50805567,2.58987563 L9.5,2.5 C9.5,2.25454011 9.67687516,2.05039163 9.91012437,2.00805567 L10,2 L13.5,2 Z"
                id="形状" fill="#808080" fill-rule="nonzero"></path>
            <path
                d="M10.6715729,0.828427125 C10.9170328,0.828427125 11.1211812,1.00530229 11.1635172,1.23855149 L11.1715729,1.32842712 L11.1715729,9.32842712 C11.1715729,9.6045695 10.9477153,9.82842712 10.6715729,9.82842712 C10.426113,9.82842712 10.2219645,9.65155196 10.1796285,9.41830276 L10.1715729,9.32842712 L10.1715729,1.32842712 C10.1715729,1.05228475 10.3954305,0.828427125 10.6715729,0.828427125 Z"
                id="直线-5" fill="#808080" fill-rule="nonzero"
                transform="translate(10.671573, 5.328427) rotate(-135.000000) translate(-10.671573, -5.328427) "></path>
        </g>
    </g>
</svg>