<?xml version="1.0" encoding="UTF-8"?>
<svg viewBox="0 0 24 24" version="1.1" xmlns="http://www.w3.org/2000/svg" xmlns:xlink="http://www.w3.org/1999/xlink">
    <g id="页面-1" stroke="none" stroke-width="1">
        <g id="画板" transform="translate(-635.000000, -3658.000000)">
            <g id="编组" transform="translate(635.000000, 3658.000000)">
                <path d="M16.4341853,2.99992571 C17.9817468,2.99992571 18.8578692,4.73979474 17.9951347,5.97508778 L17.9061801,6.09298177 L14.0761801,10.8049818 C13.8149185,11.1264086 13.3425561,11.1751822 13.0211292,10.9139205 C12.728923,10.6764099 12.6620501,10.2644359 12.848596,9.95000173 L12.9121905,9.85886965 L16.7422662,5.14677653 C16.9366815,4.90766808 16.7944227,4.55882779 16.5085372,4.50657489 L16.4341853,4.49992571 L4.8821853,4.49992571 C4.58361914,4.49992571 4.41253254,4.8236142 4.54525272,5.05868973 L4.58911402,5.12029445 L9.16419932,10.1323879 C9.47091801,10.468518 9.65664424,10.8956265 9.69413009,11.345352 L9.7011853,11.5149257 L9.7011853,19.2010548 C9.7011853,19.4148479 9.9150542,19.5500848 10.1012346,19.4787734 L10.1619378,19.4471773 L11.806318,18.3385956 C12.0128742,18.1990432 12.1480937,17.9804813 12.1825124,17.738651 L12.1911853,17.6160548 L12.1911853,12.7476253 C12.1911853,12.3334118 12.5269717,11.9976253 12.9411853,11.9976253 C13.3208811,11.9976253 13.6346763,12.2797792 13.6843387,12.6458548 L13.6911853,12.7476253 L13.6911853,17.6160548 C13.6911853,18.3435 13.3574696,19.0264898 12.7916613,19.4748424 L12.6454328,19.5819322 L10.9990671,20.6918508 C9.84475825,21.4663654 8.30764807,20.6943533 8.20645662,19.3428888 L8.2011853,19.2010548 L8.2011853,11.5149257 C8.2011853,11.412674 8.17210957,11.3123807 8.11823669,11.225518 L8.05625658,11.143557 L3.47199714,6.12122269 C2.43750371,4.94492954 3.21357471,3.11844031 4.73287217,3.00543346 L4.8821853,2.99992571 L16.4341853,2.99992571 Z M18.4264583,15.8682098 L18.5303301,15.954993 L20.7803301,18.204993 C21.0732233,18.4978862 21.0732233,18.9727599 20.7803301,19.2656531 C20.5199806,19.5260027 20.115844,19.5549304 19.8235417,19.3524363 L19.7196699,19.2656531 L17.9991771,17.5454257 L16.2803301,19.2656531 C16.0199806,19.5260027 15.615844,19.5549304 15.3235417,19.3524363 L15.2196699,19.2656531 C14.9593204,19.0053036 14.9303927,18.601167 15.1328867,18.3088648 L15.2196699,18.204993 L17.4696699,15.954993 C17.7300194,15.6946434 18.134156,15.6657157 18.4264583,15.8682098 Z M7.70514103,5.29359029 L7.78424696,5.37163872 L9.93012581,7.82379897 C10.2029045,8.13551141 10.1713425,8.60933511 9.85963007,8.88211383 C9.57625513,9.13009448 9.15890393,9.12655387 8.88042115,8.88966652 L8.80131521,8.81161809 L6.65543636,6.35945785 C6.38265764,6.04774541 6.41421966,5.5739217 6.7259321,5.30114298 C7.00930705,5.05316233 7.42665824,5.05670295 7.70514103,5.29359029 Z" id="形状结合"></path>
            </g>
        </g>
    </g>
</svg>