<svg viewBox="0 0 24 24" xmlns="http://www.w3.org/2000/svg"
	xmlns:xlink="http://www.w3.org/1999/xlink">
	<defs />
	<path id="矢量 47"
		d="M4.18994 2.25L17.8101 2.25C18.886 2.25 19.75 3.13766 19.75 4.22264C19.75 4.71478 19.5691 5.18987 19.2416 5.55392L14.141 11.223L14.1414 17.4692C14.1414 18.0797 13.8636 18.6538 13.3927 19.0262L13.2595 19.1226L9.5752 21.5605C9.0379 21.916 8.31897 21.7561 7.97754 21.2114C7.86133 21.0259 7.79987 20.8113 7.79987 20.5924L7.79901 11.221L2.7511 5.54582C2.07556 4.78622 2.08862 3.6362 2.75653 2.89322L2.8739 2.77332C3.23175 2.4373 3.70148 2.25 4.18994 2.25ZM4.18994 3.75L17.8101 3.75C18.0484 3.75 18.25 3.95712 18.25 4.22264C18.25 4.34566 18.2053 4.46315 18.1263 4.55089L12.8337 10.4359C12.7098 10.5736 12.6414 10.7522 12.6414 10.9374L12.632 17.5664C12.6072 17.6927 12.535 17.8034 12.4318 17.8717L9.29901 19.944L9.29987 10.9374C9.29987 10.7536 9.23242 10.5763 9.11029 10.439L3.87195 4.54898C3.69843 4.35384 3.71198 4.04395 3.90063 3.86685C3.98132 3.79105 4.08429 3.75 4.18994 3.75ZM22.4973 18.5611C22.8071 18.2862 22.8355 17.8122 22.5606 17.5023L20.1391 14.7726L20.0324 14.6629C19.4438 14.1125 18.556 14.1123 17.9669 14.6626L17.86 14.7723L15.4385 17.5023L15.371 17.5906C15.1711 17.8967 15.2202 18.3112 15.5018 18.5611C15.8117 18.8359 16.2858 18.8076 16.5606 18.4977L18.9958 15.752C19.0001 15.7479 19.002 15.7501 19.009 15.7586C19.011 15.7611 19.0136 15.7642 19.0168 15.7678L21.4385 18.4977L21.5181 18.5752C21.7982 18.8102 22.2156 18.811 22.4973 18.5611Z"
		fill-rule="evenodd" />
</svg>