<svg width="24.000000" height="24.000000" viewBox="0 0 24 24" fill="none" xmlns="http://www.w3.org/2000/svg" xmlns:xlink="http://www.w3.org/1999/xlink">
	<g clip-path="url(#clip131_1879)">
		<path id="矢量 30" d="M16 2L6 2C4.34314 2 3 3.34326 3 5L3 19C3 20.6567 4.34314 22 6 22L11.8925 22C9.85962 20.7751 8.5 18.5464 8.5 16C8.5 12.134 11.634 9 15.5 9C16.775 9 17.9703 9.34082 19 9.93652L19 5C19 3.34326 17.6569 2 16 2ZM6 5.25L13.5 5.25C13.92 5.25 14.25 5.58008 14.25 6C14.25 6.41992 13.92 6.75 13.5 6.75L6 6.75C5.57996 6.75 5.25 6.41992 5.25 6C5.25 5.58008 5.57996 5.25 6 5.25ZM6 8.75L8 8.75C8.42004 8.75 8.75 9.08008 8.75 9.5C8.75 9.91992 8.42004 10.25 8 10.25L6 10.25C5.57996 10.25 5.25 9.91992 5.25 9.5C5.25 9.08008 5.57996 8.75 6 8.75ZM10 16C10 12.9624 12.4624 10.5 15.5 10.5C18.5376 10.5 21 12.9624 21 16C21 19.0376 18.5376 21.5 15.5 21.5C12.4624 21.5 10 19.0376 10 16ZM18.5281 15.0325L15.5028 18.0325C15.3268 18.207 15.1508 18.2944 14.9747 18.2944C14.7987 18.2944 14.6226 18.207 14.4465 18.0325L12.4719 16.0742C12.1737 15.7786 12.1718 15.312 12.4674 15.0137C12.7632 14.7153 13.2299 14.7134 13.5281 15.0093L14.9747 16.4436L17.4719 13.9673C17.7701 13.6716 18.2368 13.6736 18.5326 13.9717C18.8282 14.27 18.8263 14.7368 18.5281 15.0325Z" fill-opacity="1.000000" fill-rule="evenodd"/>
	</g>
</svg>
