<?xml version="1.0" encoding="UTF-8"?>
<svg viewBox="0 0 24 24" version="1.1" xmlns="http://www.w3.org/2000/svg" xmlns:xlink="http://www.w3.org/1999/xlink">
    <g id="S12组件" stroke="none" stroke-width="1">
        <g id="Flag">
            <rect id="矩形" opacity="0" x="0" y="0" width="24" height="24"></rect>
            <path d="M5.75,2 C6.16421356,2 6.5,2.33578644 6.5,2.75 L6.50084394,3.08031913 C7.87431538,2.49153506 9.20795359,2.19429525 10.5,2.19429525 C11.5649383,2.19429525 12.3191862,2.39378666 13.4350971,2.86942459 L13.4350971,2.86942459 L13.5654993,2.92553576 L13.9084388,3.0746276 L14.0471292,3.13376778 C14.6589747,3.39148895 15.0709203,3.5077796 15.5348732,3.52937565 C16.5195006,3.57520804 17.2458336,3.36896241 17.7518137,2.93223885 L17.7518137,2.93223885 L17.7677548,2.91883103 C18.2541041,2.5203125 18.991862,2.86500014 18.991862,3.5 L18.991862,3.5 L18.991862,11.1018473 C18.991862,11.3480109 18.8710646,11.5785029 18.6686419,11.7185798 C17.7901393,12.326505 16.6930038,12.5428744 15.409637,12.3871146 C14.8144818,12.3148817 14.2955332,12.1241793 13.6198902,11.7777605 C13.5648495,11.7495398 13.5088476,11.7203887 13.4464156,11.6875063 L13.4464156,11.6875063 L12.9750953,11.4373089 C11.9734434,10.9133449 11.3731465,10.7246341 10.5220576,10.7496756 C9.2715838,10.7864681 7.93127092,11.3103826 6.50015034,12.3428668 L6.5,21.25 C6.5,21.6642136 6.16421356,22 5.75,22 C5.33578644,22 5,21.6642136 5,21.25 L5,2.75 C5,2.33578644 5.33578644,2 5.75,2 Z M10.5,3.69429525 C9.25939751,3.69429525 7.94453991,4.02860283 6.55279899,4.70572992 L6.55279899,4.70572992 L6.5,4.731 L6.5,10.542 L6.52526594,10.5286315 C7.74813345,9.79198202 8.94834191,9.36960608 10.1254901,9.27038667 L10.4192965,9.25231939 L10.4779424,9.25032443 C11.6781992,9.21500942 12.5090438,9.49061647 13.7858992,10.1690985 L13.7858992,10.1690985 L14.1144674,10.3440002 C14.1852936,10.3814302 14.2458765,10.4130458 14.3042637,10.4429823 L14.3042637,10.4429823 L14.3521798,10.4674013 C14.8585987,10.7238672 15.2167627,10.8526985 15.590363,10.8980417 C16.3567267,10.9910538 16.9838227,10.9125951 17.4891794,10.6731749 L17.4891794,10.6731749 L17.4918333,10.6719167 L17.4918333,4.77433333 L17.4313662,4.79475481 C16.8672208,4.97982597 16.230246,5.05729762 15.5260038,5.03033615 L15.5260038,5.03033615 L15.4651268,5.02775325 C14.7920746,4.99642406 14.2250859,4.83636535 13.4648479,4.5161384 C13.4174663,4.49618035 13.36934,4.47565396 13.3160281,4.45268857 L13.3160281,4.45268857 L12.9099421,4.27629431 C11.9285299,3.85374777 11.3410158,3.69429525 10.5,3.69429525 Z" id="形状结合"></path>
        </g>
    </g>
</svg>