<svg viewBox="0 0 24 24" xmlns="http://www.w3.org/2000/svg"
	xmlns:xlink="http://www.w3.org/1999/xlink">
	<defs />
	<path id="形状"
		d="M5.5 1.25C5.8797 1.25 6.19348 1.53215 6.24316 1.89822L6.25 2L6.24893 2.97342C7.16394 2.48929 8.27356 2.25 9.5639 2.25C10.8542 2.25 11.8659 2.5126 13.1043 3.04887L13.4298 3.19319L14.1223 3.49358C14.4326 3.61824 14.6678 3.68739 14.8757 3.71304L14.982 3.72244C15.7705 3.76321 16.8536 3.50903 18.2116 2.94431C18.7055 2.73891 19.2495 3.10187 19.2495 3.63683L19.2495 11.1484C19.2495 11.3373 19.1783 11.5192 19.0499 11.6579C18.2623 12.5087 16.8763 12.834 14.9045 12.732C13.837 12.6768 13.1469 12.4841 12.2448 12.0591L11.5265 11.7084C10.8206 11.3773 10.3508 11.2616 9.5639 11.2616C8.22021 11.2616 7.12534 11.6164 6.24902 12.3253L6.25 22C6.25 22.4142 5.91422 22.75 5.5 22.75C5.1203 22.75 4.80652 22.4678 4.75684 22.1018L4.75 22L4.75 2C4.75 1.58578 5.08578 1.25 5.5 1.25ZM6.35236 4.69806C7.11133 4.07048 8.17072 3.75 9.5639 3.75C10.5134 3.75 11.2751 3.92308 12.1953 4.29427L12.6163 4.4735L13.3237 4.7843L13.5631 4.88544C13.9836 5.05437 14.335 5.1577 14.692 5.20175C14.7631 5.21054 14.8339 5.21678 14.9045 5.22043L15.1329 5.22661C15.8291 5.22879 16.6247 5.08412 17.5248 4.79672L17.749 4.72099L17.749 10.806L17.6774 10.854C17.1712 11.1559 16.2751 11.3009 14.982 11.234C14.1372 11.1903 13.6223 11.0498 12.8885 10.7043L12.1855 10.3608C11.2802 9.93413 10.6099 9.76155 9.5639 9.76155L9.24332 9.76733L8.89438 9.78731C7.97415 9.85962 7.1362 10.0842 6.38626 10.4612L6.24954 10.533L6.24954 4.78799L6.35236 4.69806Z"
		clip-rule="evenodd" fill-rule="evenodd" fill-opacity="1.000000" />
</svg>