<?xml version="1.0" encoding="UTF-8"?>
<svg viewBox="0 0 24 24" version="1.1" xmlns="http://www.w3.org/2000/svg" xmlns:xlink="http://www.w3.org/1999/xlink">
    <g id="S12组件" stroke="none" stroke-width="1">
        <g id="FolderOpened">
            <rect id="矩形" opacity="0" x="0" y="0" width="24" height="24"></rect>
            <path d="M4.96210697,19.9973145 C4.82872499,19.9973145 4.69778269,19.9868689 4.57005347,19.9667513 C3.13289585,19.760561 2.02453729,18.5355249 2.00040191,17.0469249 L2,7 C2,5.35971429 3.31641715,4.02689429 4.95038951,4.00040191 L6.98077687,4 C7.48278954,4 7.97649121,4.12597373 8.41677184,4.36600701 L8.4621257,4.39124442 L11.3910162,6.05437779 C11.6055243,6.17618349 11.8465809,6.2431074 12.0927778,6.24949528 L12.1316906,6.25 L17.340332,6.25 C18.2568364,6.25 19.1069101,6.66452195 19.6724958,7.36281676 C19.9332016,7.68469463 19.8836118,8.15697201 19.5617339,8.4176778 C19.2459292,8.67346463 18.7853469,8.63055469 18.5218534,8.32484442 L18.5068729,8.30691597 C18.2300512,7.96514083 17.8200404,7.76016337 17.3738617,7.75036779 L12.1316906,7.75 C11.6296779,7.75 11.1359762,7.62402627 10.6956956,7.38399299 L10.6503418,7.35875558 L7.72145129,5.69562221 C7.5069432,5.57381651 7.26588652,5.5068926 7.01968966,5.50050472 L5,5.5 C4.18077762,5.5 3.51494321,6.15673194 3.50024802,6.97244456 L3.5,12.815 L3.84438569,11.3605125 C4.0886653,10.3275307 4.9752519,9.58195472 6.02057909,9.50633448 L6.19618719,9.5 L19.611249,9.5 C20.9459372,9.5 22.0279157,10.5819785 22.0279157,11.9166667 C22.0279157,12.1039385 22.0061479,12.2905756 21.9630505,12.4728208 L21.9630505,12.4728208 L20.7298325,17.6877127 C20.409742,19.0412751 19.2012499,19.9973145 17.8103548,19.9973145 L17.8103548,19.9973145 L4.96210697,19.9973145 Z M19.611249,11 L6.19618719,11 C5.77119148,11 5.40192999,11.2921231 5.30412455,11.7057116 L5.30412455,11.7057116 L3.98894772,17.2671817 C3.97111433,17.3425935 3.96210697,17.4198227 3.96210697,17.4973145 C3.96210697,17.9986298 4.33099775,18.4137861 4.81214042,18.4861444 C4.8647529,18.4922393 4.91824783,18.4960901 4.97244456,18.4970664 L17.8103548,18.4973145 C18.5058023,18.4973145 19.1100484,18.0192948 19.2700937,17.3425136 L19.2700937,17.3425136 L20.5033117,12.1276217 C20.519659,12.0584942 20.5279157,11.9877008 20.5279157,11.9166667 C20.5279157,11.4104056 20.1175101,11 19.611249,11 L19.611249,11 Z" id="形状结合"></path>
        </g>
    </g>
</svg>