<svg viewBox="0 0 24 24" xmlns="http://www.w3.org/2000/svg"
	xmlns:xlink="http://www.w3.org/1999/xlink">
	<defs />
	<g opacity="0.000000" />
	<path id="矢量 49"
		d="M5.34784 3.75L7.02258 3.75C7.65271 3.75 8.25687 4.00079 8.69897 4.44679L8.99957 4.75003L9 4.75L16.6 4.75C18.2913 4.75 19.6531 6.14664 19.7451 7.88403L19.7458 7.91014C20.9181 8.36354 21.75 9.49232 21.75 10.8158L21.75 17.1316C21.75 18.8561 20.3375 20.25 18.6 20.25L5.39999 20.25C3.66251 20.25 2.25 18.8561 2.25 17.1316L2.25 6.81693C2.25 5.12088 3.63916 3.75 5.34784 3.75ZM18.7379 9.20293C18.8195 9.23337 18.9078 9.25 19 9.25C19.0061 9.25 19.0122 9.24992 19.0183 9.24979C19.7282 9.43161 20.25 10.0653 20.25 10.8158L20.25 17.1316C20.25 18.0232 19.5135 18.75 18.6 18.75L5.39999 18.75C4.48651 18.75 3.75 18.0232 3.75 17.1316L3.75 6.81693C3.75 5.95378 4.46317 5.25 5.34784 5.25L7.02258 5.25C7.25336 5.25 7.47379 5.34149 7.63367 5.50281L10.6054 8.50058C11.0475 8.94656 11.6516 9.19736 12.2818 9.19736L18.6 9.19736C18.6465 9.19736 18.6924 9.19925 18.7379 9.20293ZM18.2153 7.69736C18.0674 6.91418 17.4648 6.32477 16.7407 6.25659L16.6 6.25L10.4865 6.25L11.6707 7.44455C11.8306 7.60587 12.051 7.69736 12.2818 7.69736L18.2153 7.69736Z"
		fill-rule="evenodd" />
</svg>