<?xml version="1.0" encoding="utf-8"?>
<!-- Generator: Adobe Illustrator 26.0.2, SVG Export Plug-In . SVG Version: 6.00 Build 0)  -->
<svg version="1.1" id="图层_1" xmlns="http://www.w3.org/2000/svg" xmlns:xlink="http://www.w3.org/1999/xlink" x="0px" y="0px"
	 viewBox="0 0 16 16" style="enable-background:new 0 0 16 16;" xml:space="preserve">
<style type="text/css">
	.st0{fill:none;}
</style>
<rect id="蒙版" class="st0" width="16" height="16"/>
<path id="形状结合" class="st1" d="M5.32,2.17c0.17,0,0.33,0.07,0.46,0.17l2.2,1.86h4.92c0.83,0,1.51,0.63,1.59,1.45l0.01,0.14
	v5.55c0,1.48-1.21,2.68-2.69,2.68H4.18c-1.48,0-2.68-1.2-2.68-2.68v-7.6V3.59c0.09-0.8,0.77-1.42,1.58-1.42H5.32z M13.5,7.4h-11
	v3.94c0,0.89,0.69,1.62,1.57,1.67l0.11,0.01h7.63c0.93,0,1.69-0.76,1.69-1.68V7.4z M5.21,3.17H3.08c-0.3,0-0.55,0.23-0.58,0.5v0.1
	V6.4h11V5.79c0-0.3-0.23-0.55-0.52-0.59H12.9H7.87c-0.16,0-0.33-0.06-0.46-0.17L5.21,3.17z"/>
</svg>
