<svg viewBox="0 0 24 24" xmlns="http://www.w3.org/2000/svg"
	xmlns:xlink="http://www.w3.org/1999/xlink">
	<defs />
	<g opacity="0.000000" />
	<path id="矢量 21"
		d="M8.21655 3.88455C7.99561 3.7959 7.75958 3.75002 7.52081 3.75002L5.2973 3.75002L5.11774 3.75533C3.51379 3.85049 2.25 5.21254 2.25 6.86844L2.25 17.1316L2.25513 17.3143C2.3288 18.617 3.18512 19.7097 4.35501 20.0983C4.61334 20.1963 4.89355 20.25 5.18628 20.25L17.5527 20.25C18.6774 20.25 19.6434 19.4509 19.8495 18.3475L21.6927 12.1059C21.7368 11.8911 21.75 11.7483 21.75 11.6053C21.75 10.3183 20.7032 9.27634 19.4136 9.27634L7.0473 9.27634C5.92249 9.27634 4.9566 10.0755 4.75043 11.1789L3.75 14.5667L3.75 6.86844L3.75635 6.72038C3.828 5.89185 4.49512 5.25002 5.2973 5.25002L7.52081 5.25002L7.5791 5.25471C7.61774 5.26096 7.65546 5.27341 7.6911 5.29181L11.1085 7.05644L11.2369 7.11583C11.4119 7.18668 11.6011 7.22385 11.7926 7.22418L16.9754 7.22389L17.1357 7.22806C17.7546 7.2614 18.1094 7.49605 18.3127 7.96133C18.4786 8.34088 18.9208 8.5141 19.3004 8.34822C19.6799 8.18234 19.8531 7.74019 19.6873 7.36063L19.5991 7.17569C19.1027 6.21819 18.1883 5.72389 16.9753 5.72389L11.798 5.72401L8.37933 3.95901L8.21655 3.88455ZM5.15723 18.7434L17.5527 18.75C17.9564 18.75 18.3017 18.4644 18.3928 17.9977L20.236 11.7562C20.2453 11.7064 20.25 11.6559 20.25 11.6053C20.25 11.1483 19.8763 10.7763 19.4136 10.7763L7.0473 10.7763C6.64355 10.7763 6.29822 11.062 6.20709 11.5286L4.36395 17.7701C4.35468 17.8199 4.34998 17.8705 4.34998 17.9211C4.34998 18.2545 4.53339 18.5391 4.81219 18.6687C4.92239 18.7068 5.03793 18.7322 5.15723 18.7434Z"
		fill-rule="evenodd" />
</svg>