<?xml version="1.0" encoding="UTF-8"?>
<svg viewBox="0 0 24 24" version="1.1" xmlns="http://www.w3.org/2000/svg" xmlns:xlink="http://www.w3.org/1999/xlink">
    <g id="页面-1" stroke="none" stroke-width="1">
        <g id="画板" transform="translate(-789.000000, -1653.000000)">
            <g id="编组" transform="translate(789.000000, 1653.000000)">
                <path d="M7.171,4 C7.702,4 8.211,4.211 8.586,4.586 L8.586,4.586 L11.707,7.707 C11.894,7.895 12.149,8 12.414,8 L12.414,8 L18.749,8 L18.7496,7.5 C18.7496,6.85332521 18.2572248,6.32053284 17.6273114,6.25645987 L17.4996,6.25 L11.9792938,6.25 C11.5650803,6.25 11.2292938,5.91421356 11.2292938,5.5 C11.2292938,5.12030423 11.5114477,4.80650904 11.8775233,4.75684662 L11.9792938,4.75 L17.4996,4.75 C18.9615834,4.75 20.1579637,5.89223269 20.2445789,7.33253635 L20.2496,7.5 L20.2499007,8.01564807 C21.2330963,8.13960113 22,8.98458904 22,10 L22,10 L22,17 C22,18.65 20.65,20 19,20 L19,20 L5,20 C3.35,20 2,18.65 2,17 L2,17 L2,7 C2,5.35 3.35,4 5,4 L5,4 Z M7.171,5.5 L5,5.5 C4.172,5.5 3.5,6.173 3.5,7 L3.5,7 L3.5,17 C3.5,17.827 4.172,18.5 5,18.5 L5,18.5 L19,18.5 C19.827,18.5 20.5,17.827 20.5,17 L20.5,17 L20.5,10 C20.5,9.729 20.271,9.5 20,9.5 L20,9.5 L12.414,9.5 C11.746,9.5 11.118,9.24 10.646,8.768 L10.646,8.768 L7.525,5.646 C7.43,5.552 7.305,5.5 7.171,5.5 L7.171,5.5 Z" id="形状结合"></path>
            </g>
        </g>
    </g>
</svg>