<svg viewBox="0 0 24 24" xmlns="http://www.w3.org/2000/svg"
	xmlns:xlink="http://www.w3.org/1999/xlink">
	<defs />
	<g opacity="0.000000" />
	<path id="矢量 126"
		d="M12.1454 2.75002L12.1454 4.25002L5.45456 4.25002L5.30746 4.25627C4.43494 4.33084 3.75 5.06271 3.75 5.95456L3.75101 7.25002L10.6 7.25002L10.6 8.75002L3.75 8.75002L3.75 18.0455L3.75626 18.1926C3.83081 19.0651 4.56268 19.75 5.45456 19.75L18.5454 19.75L18.6925 19.7438C19.5651 19.6692 20.25 18.9373 20.25 18.0455L20.25 14.2L21.75 14.2L21.75 18.0455L21.7449 18.2273C21.6507 19.9125 20.2542 21.25 18.5454 21.25L5.45456 21.25L5.27271 21.2449C3.58749 21.1507 2.25 19.7543 2.25 18.0455L2.25 5.95456L2.25507 5.77272C2.34933 4.08749 3.74576 2.75002 5.45456 2.75002L12.1454 2.75002ZM12.6667 15.5C12.8508 15.5 13 15.6493 13 15.8333L13 17.1667C13 17.3508 12.8508 17.5 12.6667 17.5L11.3333 17.5C11.1492 17.5 11 17.3508 11 17.1667L11 15.8333C11 15.6493 11.1492 15.5 11.3333 15.5L12.6667 15.5ZM8.16666 15.5C8.35077 15.5 8.5 15.6493 8.5 15.8333L8.5 17.1667C8.5 17.3508 8.35077 17.5 8.16666 17.5L6.83334 17.5C6.64923 17.5 6.5 17.3508 6.5 17.1667L6.5 15.8333C6.5 15.6493 6.64923 15.5 6.83334 15.5L8.16666 15.5ZM17.1667 15.5C17.3508 15.5 17.5 15.6493 17.5 15.8333L17.5 17.1667C17.5 17.3508 17.3508 17.5 17.1667 17.5L15.8333 17.5C15.6492 17.5 15.5 17.3508 15.5 17.1667L15.5 15.8333C15.5 15.6493 15.6492 15.5 15.8333 15.5L17.1667 15.5ZM8.16666 11.5C8.35077 11.5 8.5 11.6493 8.5 11.8333L8.5 13.1667C8.5 13.3508 8.35077 13.5 8.16666 13.5L6.83334 13.5C6.64923 13.5 6.5 13.3508 6.5 13.1667L6.5 11.8333C6.5 11.6493 6.64923 11.5 6.83334 11.5L8.16666 11.5ZM16.8 2.75002C18.5203 2.75002 19.95 4.01155 19.95 5.61766L19.9499 5.79121C20.8585 5.97505 21.55 6.7533 21.55 7.70001L21.55 10.9C21.55 11.9858 20.6403 12.85 19.5368 12.85L14.0632 12.85C12.9597 12.85 12.05 11.9858 12.05 10.9L12.05 7.70001C12.05 6.75365 12.7411 5.97563 13.6491 5.79141L13.65 5.61766L13.6554 5.44695C13.7525 3.92305 15.1412 2.75002 16.8 2.75002ZM19.5368 7.25002C19.8286 7.25002 20.05 7.46033 20.05 7.70001L20.05 10.9C20.05 11.1397 19.8286 11.35 19.5368 11.35L14.0632 11.35C13.7714 11.35 13.55 11.1397 13.55 10.9L13.55 7.70001C13.55 7.46033 13.7714 7.25002 14.0632 7.25002L19.5368 7.25002ZM17.6 8.55002L17.7018 8.55685C18.0678 8.60652 18.35 8.92032 18.35 9.30002C18.35 9.71423 18.0142 10.05 17.6 10.05L16 10.05L15.8982 10.0432C15.5322 9.9935 15.25 9.67972 15.25 9.30002C15.25 8.8858 15.5858 8.55002 16 8.55002L17.6 8.55002ZM15.15 5.61766C15.15 4.88467 15.8693 4.25002 16.8 4.25002C17.679 4.25002 18.3694 4.81612 18.4434 5.49651L18.45 5.61766L18.449 5.75002L15.149 5.75002L15.15 5.61766Z"
		fill-rule="evenodd" />
</svg>