<?xml version="1.0" encoding="UTF-8"?>
<svg viewBox="0 0 24 24" version="1.1" xmlns="http://www.w3.org/2000/svg"
    xmlns:xlink="http://www.w3.org/1999/xlink">
    <g id="S12组件" stroke="none" stroke-width="1" fill-rule="evenodd">
        <g id="FreezeRight">
            <g id="编组"
                transform="translate(12.000000, 12.500000) scale(-1, 1) translate(-12.000000, -12.500000) translate(3.000000, 4.000000)">
                <path
                    d="M14.5384615,0 C16.3885469,0 17.8996373,1.4514102 17.9952018,3.27769978 L18,3.46153846 L18,13.5384615 C18,15.3885469 16.5485898,16.8996373 14.7223002,16.9952018 L14.5384615,17 L3.46153846,17 C1.61145307,17 0.100362697,15.5485898 0.00479816249,13.7223002 L0,13.5384615 L0,11 C0,10.617649 0.309956712,10.3076923 0.692307692,10.3076923 C1.04279609,10.3076923 1.33245319,10.568142 1.37829543,10.9060579 L1.38461538,11 L1.38461538,13.5384615 C1.38461538,14.6377206 2.2386107,15.5375184 3.31933956,15.6105931 L3.46153846,15.6153846 L14.5384615,15.6153846 C15.6377206,15.6153846 16.5375184,14.7613893 16.6105931,13.6806604 L16.6153846,13.5384615 L16.6153846,3.46153846 C16.6153846,2.36227939 15.7613893,1.46248162 14.6806604,1.3894069 L14.5384615,1.38461538 L9,1.38461538 C8.61764902,1.38461538 8.30769231,1.07465867 8.30769231,0.692307692 C8.30769231,0.341819293 8.56814204,0.0521621899 8.90605795,0.00631995323 L9,0 L14.5384615,0 Z"
                    id="路径"></path>
                <path
                    d="M16.8136029,5.56103516 C17.15472,5.56103516 17.43125,5.89682159 17.43125,6.31103516 C17.43125,6.69073092 17.198888,7.00452612 16.897414,7.05418854 L16.8136029,7.06103516 L11.0488971,7.06103516 C10.70778,7.06103516 10.43125,6.72524872 10.43125,6.31103516 C10.43125,5.93133939 10.663612,5.6175442 10.965086,5.56788177 L11.0488971,5.56103516 L16.8136029,5.56103516 Z"
                    id="形状结合-path"></path>
            </g>
            <path
                d="M16.68,3 C18.1490774,3 19.34,4.1909226 19.34,5.66 L19.3409004,6.3225205 C20.2830791,6.4843201 21,7.3052287 21,8.2935832 L21,11 C21,12.1045695 20.1045695,13 19,13 L14.36,13 C13.2554305,13 12.36,12.1045695 12.36,11 L12.36,8.2935832 C12.36,7.3048776 13.0774304,6.4837369 14.0201037,6.3223483 L14.02,5.66 C14.02,4.1909226 15.2109226,3 16.68,3 Z M19,7.7935832 L14.36,7.7935832 C14.1145401,7.7935832 13.9103916,7.9704584 13.8680557,8.2037076 L13.86,8.2935832 L13.86,11 C13.86,11.2454599 14.0368752,11.4496084 14.2701244,11.4919443 L14.36,11.5 L19,11.5 C19.2454599,11.5 19.4496084,11.3231248 19.4919443,11.0898756 L19.5,11 L19.5,8.2935832 C19.5,8.0481233 19.3231248,7.8439748 19.0898756,7.8016389 L19,7.7935832 Z M17.25,8.8967916 C17.6642136,8.8967916 18,9.232578 18,9.6467916 C18,10.0264874 17.7178461,10.3402826 17.3517706,10.389945 L17.25,10.3967916 L16.11,10.3967916 C15.6957864,10.3967916 15.36,10.0610052 15.36,9.6467916 C15.36,9.2670958 15.6421539,8.9533006 16.0082294,8.9036382 L16.11,8.8967916 L17.25,8.8967916 Z M16.68,4.5 C16.0820597,4.5 15.5897857,4.9524113 15.5268067,5.5336052 L15.52,5.66 L15.519,6.293 L17.839,6.293 L17.84,5.66 C17.84,5.0620597 17.3875887,4.5697857 16.8063948,4.5068067 L16.68,4.5 Z"
                id="形状结合备份"></path>
            <path
                d="M16.43125,16.3545 C16.70725,16.3545 16.93125,16.5785 16.93125,16.8545 L16.93125,17.8545 C16.93125,18.1295 16.70725,18.3545 16.43125,18.3545 L15.43125,18.3545 C15.15525,18.3545 14.93125,18.1295 14.93125,17.8545 L14.93125,16.8545 C14.93125,16.5785 15.15525,16.3545 15.43125,16.3545 L16.43125,16.3545 Z"
                id="形状结合-path"></path>
            <path
                d="M16.43125,13.3545 C16.70725,13.3545 16.93125,13.5785 16.93125,13.8535 L16.93125,14.8545 C16.93125,15.1295 16.70725,15.3545 16.43125,15.3545 L15.43125,15.3545 C15.15525,15.3545 14.93125,15.1295 14.93125,14.8545 L14.93125,13.8535 C14.93125,13.5785 15.15525,13.3545 15.43125,13.3545 L16.43125,13.3545 Z"
                id="形状结合-path"></path>
            <path
                d="M11.93125,16.3545 C12.20725,16.3545 12.43125,16.5785 12.43125,16.8545 L12.43125,17.8545 C12.43125,18.1295 12.20725,18.3545 11.93125,18.3545 L10.93125,18.3545 C10.65525,18.3545 10.43125,18.1295 10.43125,17.8545 L10.43125,16.8545 C10.43125,16.5785 10.65525,16.3545 10.93125,16.3545 L11.93125,16.3545 Z"
                id="形状结合-path"></path>
            <path
                d="M7.93125,13.3545 C8.20725,13.3545 8.43125,13.5785 8.43125,13.8545 L8.43125,14.8545 C8.43125,15.1295 8.20725,15.3545 7.93125,15.3545 L6.93125,15.3545 C6.65525,15.3545 6.43125,15.1295 6.43125,14.8545 L6.43125,13.8545 C6.43125,13.5785 6.65525,13.3545 6.93125,13.3545 L7.93125,13.3545 Z"
                id="形状结合-path备份-2"></path>
            <path
                d="M7.93125,16.3545 C8.20725,16.3545 8.43125,16.5785 8.43125,16.8545 L8.43125,17.8545 C8.43125,18.1295 8.20725,18.3545 7.93125,18.3545 L6.93125,18.3545 C6.65525,18.3545 6.43125,18.1295 6.43125,17.8545 L6.43125,16.8545 C6.43125,16.5785 6.65525,16.3545 6.93125,16.3545 L7.93125,16.3545 Z"
                id="形状结合-path备份-3"></path>
            <path
                d="M11.93125,13.3545 C12.20725,13.3545 12.43125,13.5785 12.43125,13.8545 L12.43125,14.8545 C12.43125,15.1295 12.20725,15.3545 11.93125,15.3545 L10.93125,15.3545 C10.65525,15.3545 10.43125,15.1295 10.43125,14.8545 L10.43125,13.8545 C10.43125,13.5785 10.65525,13.3545 10.93125,13.3545 L11.93125,13.3545 Z"
                id="形状结合-path备份"></path>
        </g>
    </g>
</svg>