<svg viewBox="0 0 24 24" xmlns="http://www.w3.org/2000/svg"
	xmlns:xlink="http://www.w3.org/1999/xlink">
	<defs />
	<g opacity="0.000000" />
	<path id="矢量 48"
		d="M18.5455 2.75C20.2543 2.75 21.6506 4.08749 21.7449 5.77271L21.75 5.95454L21.75 18.0455C21.75 19.7542 20.4125 21.1507 18.7273 21.2449L18.5455 21.25L5.45453 21.25C3.74573 21.25 2.34937 19.9125 2.25507 18.2273L2.25 18.0455L2.25 14.2L3.75 14.2L3.75 18.0455C3.75 18.9373 4.43494 19.6692 5.3075 19.7437L5.45453 19.75L18.5455 19.75C19.4373 19.75 20.1692 19.0651 20.2438 18.1925L20.25 18.0455L20.25 8.75L13.4 8.75L13.4 7.25L20.25 7.25L20.25 5.95454C20.25 5.0627 19.5651 4.33083 18.6925 4.25626L18.5455 4.25L11.8546 4.25L11.8546 2.75L18.5455 2.75ZM12.6667 15.5C12.8508 15.5 13 15.6492 13 15.8333L13 17.1667C13 17.3508 12.8508 17.5 12.6667 17.5L11.3333 17.5C11.1492 17.5 11 17.3508 11 17.1667L11 15.8333C11 15.6492 11.1492 15.5 11.3333 15.5L12.6667 15.5ZM17.1667 15.5C17.3508 15.5 17.5 15.6492 17.5 15.8333L17.5 17.1667C17.5 17.3508 17.3508 17.5 17.1667 17.5L15.8333 17.5C15.6492 17.5 15.5 17.3508 15.5 17.1667L15.5 15.8333C15.5 15.6492 15.6492 15.5 15.8333 15.5L17.1667 15.5ZM8.16669 15.5C8.35077 15.5 8.5 15.6492 8.5 15.8333L8.5 17.1667C8.5 17.3508 8.35077 17.5 8.16669 17.5L6.83331 17.5C6.64923 17.5 6.5 17.3508 6.5 17.1667L6.5 15.8333C6.5 15.6492 6.64923 15.5 6.83331 15.5L8.16669 15.5ZM17.1667 11.5C17.3508 11.5 17.5 11.6492 17.5 11.8333L17.5 13.1667C17.5 13.3508 17.3508 13.5 17.1667 13.5L15.8333 13.5C15.6492 13.5 15.5 13.3508 15.5 13.1667L15.5 11.8333C15.5 11.6492 15.6492 11.5 15.8333 11.5L17.1667 11.5ZM7.20001 2.75C8.85883 2.75 10.2475 3.92303 10.3446 5.44693L10.35 5.61765L10.3508 5.7914C11.259 5.97562 11.95 6.75363 11.95 7.7L11.95 10.9C11.95 11.9858 11.0403 12.85 9.93683 12.85L4.46313 12.85C3.35968 12.85 2.45001 11.9858 2.45001 10.9L2.45001 7.7C2.45001 6.7533 3.14154 5.97504 4.05011 5.7912L4.04999 5.61765C4.04999 4.01154 5.47974 2.75 7.20001 2.75ZM9.93683 7.25C10.2286 7.25 10.45 7.46033 10.45 7.7L10.45 10.9C10.45 11.1397 10.2286 11.35 9.93683 11.35L4.46313 11.35C4.17139 11.35 3.95001 11.1397 3.95001 10.9L3.95001 7.7C3.95001 7.46033 4.17139 7.25 4.46313 7.25L9.93683 7.25ZM8 8.55C8.41418 8.55 8.75 8.88579 8.75 9.3C8.75 9.67969 8.46783 9.9935 8.10175 10.0432L8 10.05L6.40002 10.05C5.98578 10.05 5.65002 9.7142 5.65002 9.3C5.65002 8.9203 5.93213 8.60651 6.29822 8.55685L6.40002 8.55L8 8.55ZM7.20001 4.25C8.13074 4.25 8.84998 4.88467 8.84998 5.61765L8.84998 5.75L5.54999 5.75L5.54999 5.61765L5.55658 5.49649C5.63055 4.8161 6.32098 4.25 7.20001 4.25Z"
		fill-rule="evenodd" />
</svg>