<?xml version="1.0" encoding="UTF-8"?>
<svg viewBox="0 0 24 24" version="1.1" xmlns="http://www.w3.org/2000/svg" xmlns:xlink="http://www.w3.org/1999/xlink">
    <g id="S12组件" stroke="none" stroke-width="1">
        <g id="FreezeLeft">
            <g id="编组" transform="translate(3.000000, 3.000000)">
                <path d="M14.5384615,1 C16.3885469,1 17.8996373,2.4514102 17.9952018,4.27769978 L18,4.46153846 L18,14.5384615 C18,16.3885469 16.5485898,17.8996373 14.7223002,17.9952018 L14.5384615,18 L3.46153846,18 C1.61145307,18 0.100362697,16.5485898 0.00479816249,14.7223002 L4.36983782e-13,14.5384615 L4.36983782e-13,12 C4.36983782e-13,11.617649 0.309956712,11.3076923 0.692307692,11.3076923 C1.04279609,11.3076923 1.33245319,11.568142 1.37829543,11.9060579 L1.38461538,12 L1.38461538,14.5384615 C1.38461538,15.6377206 2.2386107,16.5375184 3.31933956,16.6105931 L3.46153846,16.6153846 L14.5384615,16.6153846 C15.6377206,16.6153846 16.5375184,15.7613893 16.6105931,14.6806604 L16.6153846,14.5384615 L16.615,8.061 L11.0488971,8.06103516 C10.70778,8.06103516 10.43125,7.72524872 10.43125,7.31103516 C10.43125,6.93133939 10.663612,6.6175442 10.965086,6.56788177 L11.0488971,6.56103516 L16.615,6.561 L16.6153846,4.46153846 C16.6153846,3.36227939 15.7613893,2.46248162 14.6806604,2.3894069 L14.5384615,2.38461538 L9,2.38461538 C8.61764902,2.38461538 8.30769231,2.07465867 8.30769231,1.69230769 C8.30769231,1.34181929 8.56814204,1.05216219 8.90605795,1.00631995 L9,1 L14.5384615,1 Z M13.43125,13.3545 C13.70725,13.3545 13.93125,13.5785 13.93125,13.8545 L13.93125,14.8545 C13.93125,15.1295 13.70725,15.3545 13.43125,15.3545 L12.43125,15.3545 C12.15525,15.3545 11.93125,15.1295 11.93125,14.8545 L11.93125,13.8545 C11.93125,13.5785 12.15525,13.3545 12.43125,13.3545 L13.43125,13.3545 Z M8.93125,13.3545 C9.20725,13.3545 9.43125,13.5785 9.43125,13.8545 L9.43125,14.8545 C9.43125,15.1295 9.20725,15.3545 8.93125,15.3545 L7.93125,15.3545 C7.65525,15.3545 7.43125,15.1295 7.43125,14.8545 L7.43125,13.8545 C7.43125,13.5785 7.65525,13.3545 7.93125,13.3545 L8.93125,13.3545 Z M4.93125,13.3545 C5.20725,13.3545 5.43125,13.5785 5.43125,13.8545 L5.43125,14.8545 C5.43125,15.1295 5.20725,15.3545 4.93125,15.3545 L3.93125,15.3545 C3.65525,15.3545 3.43125,15.1295 3.43125,14.8545 L3.43125,13.8545 C3.43125,13.5785 3.65525,13.3545 3.93125,13.3545 L4.93125,13.3545 Z M13.43125,10.3545 C13.70725,10.3545 13.93125,10.5785 13.93125,10.8535 L13.93125,11.8545 C13.93125,12.1295 13.70725,12.3545 13.43125,12.3545 L12.43125,12.3545 C12.15525,12.3545 11.93125,12.1295 11.93125,11.8545 L11.93125,10.8535 C11.93125,10.5785 12.15525,10.3545 12.43125,10.3545 L13.43125,10.3545 Z M4.93125,10.3545 C5.20725,10.3545 5.43125,10.5785 5.43125,10.8545 L5.43125,11.8545 C5.43125,12.1295 5.20725,12.3545 4.93125,12.3545 L3.93125,12.3545 C3.65525,12.3545 3.43125,12.1295 3.43125,11.8545 L3.43125,10.8545 C3.43125,10.5785 3.65525,10.3545 3.93125,10.3545 L4.93125,10.3545 Z M8.93125,10.3545 C9.20725,10.3545 9.43125,10.5785 9.43125,10.8545 L9.43125,11.8545 C9.43125,12.1295 9.20725,12.3545 8.93125,12.3545 L7.93125,12.3545 C7.65525,12.3545 7.43125,12.1295 7.43125,11.8545 L7.43125,10.8545 C7.43125,10.5785 7.65525,10.3545 7.93125,10.3545 L8.93125,10.3545 Z M4.32,0 C5.7890774,0 6.98,1.1909226 6.98,2.66 L6.9809004,3.3225205 C7.9230791,3.4843201 8.64,4.3052287 8.64,5.2935832 L8.64,8 C8.64,9.1045695 7.7445695,10 6.64,10 L2,10 C0.8954305,10 -3.19744231e-14,9.1045695 -3.19744231e-14,8 L-3.19744231e-14,5.2935832 C-3.19744231e-14,4.3048776 0.7174304,3.4837369 1.6601037,3.3223483 L1.66,2.66 C1.66,1.1909226 2.8509226,0 4.32,0 Z M6.64,4.7935832 L2,4.7935832 C1.7545401,4.7935832 1.5503916,4.9704584 1.5080557,5.2037076 L1.5,5.2935832 L1.5,8 C1.5,8.2454599 1.6768752,8.4496084 1.9101244,8.4919443 L2,8.5 L6.64,8.5 C6.8854599,8.5 7.0896084,8.3231248 7.1319443,8.0898756 L7.14,8 L7.14,5.2935832 C7.14,5.0481233 6.9631248,4.8439748 6.7298756,4.8016389 L6.64,4.7935832 Z M4.89,5.8967916 C5.3042136,5.8967916 5.64,6.232578 5.64,6.6467916 C5.64,7.0264874 5.3578461,7.3402826 4.9917706,7.389945 L4.89,7.3967916 L3.75,7.3967916 C3.3357864,7.3967916 3,7.0610052 3,6.6467916 C3,6.2670958 3.2821539,5.9533006 3.6482294,5.9036382 L3.75,5.8967916 L4.89,5.8967916 Z M4.32,1.5 C3.7220597,1.5 3.2297857,1.9524113 3.1668067,2.5336052 L3.16,2.66 L3.159,3.293 L5.479,3.293 L5.48,2.66 C5.48,2.0620597 5.0275887,1.5697857 4.4463948,1.5068067 L4.32,1.5 Z" id="形状结合"></path>
            </g>
        </g>
    </g>
</svg>