<svg viewBox="0 0 24 24" xmlns="http://www.w3.org/2000/svg"
	xmlns:xlink="http://www.w3.org/1999/xlink">
	<defs />
	<g opacity="0.000000" />
	<path id="矢量 127"
		d="M22.75 12C22.75 6.06294 17.9371 1.25 12 1.25C6.06293 1.25 1.25 6.06294 1.25 12C1.25 17.9371 6.06293 22.75 12 22.75C17.9371 22.75 22.75 17.9371 22.75 12ZM7.75 7.25C6.92157 7.25 6.25 7.92157 6.25 8.75C6.25 9.57843 6.92157 10.25 7.75 10.25C8.57843 10.25 9.25 9.57843 9.25 8.75C9.25 7.92157 8.57843 7.25 7.75 7.25ZM14.75 8.75C14.75 7.92157 15.4216 7.25 16.25 7.25C17.0784 7.25 17.75 7.92157 17.75 8.75C17.75 9.57843 17.0784 10.25 16.25 10.25C15.4216 10.25 14.75 9.57843 14.75 8.75ZM6.80847 16.2097C7.68121 14.1309 9.71375 12.75 12.0005 12.75C14.2861 12.75 16.3179 14.1295 17.1913 16.2066C17.3519 16.5885 17.1725 17.0282 16.7907 17.1887C16.4089 17.3493 15.9692 17.1699 15.8087 16.7881C15.1669 15.2621 13.6763 14.25 12.0005 14.25C10.3239 14.25 8.8327 15.2631 8.19153 16.7903C8.03119 17.1722 7.59161 17.3519 7.20966 17.1915C6.82776 17.0312 6.64813 16.5916 6.80847 16.2097Z"
		fill-rule="evenodd" />
</svg>