<svg viewBox="0 0 24 24" xmlns="http://www.w3.org/2000/svg"
	xmlns:xlink="http://www.w3.org/1999/xlink">
	<defs />
	<g opacity="0.000000" />
	<path id="矢量 128"
		d="M12 1.25C14.3112 1.25 16.5139 1.98201 18.3405 3.31813C18.6749 3.56268 18.7476 4.03194 18.5031 4.36626C18.2585 4.70058 17.7892 4.77336 17.455 4.52881C15.8832 3.37914 13.9901 2.75 12 2.75C6.89136 2.75 2.75 6.89137 2.75 12C2.75 17.1086 6.89136 21.25 12 21.25C17.1086 21.25 21.25 17.1086 21.25 12C21.25 10.0093 20.6205 8.11557 19.4702 6.54359C19.2255 6.20932 19.2982 5.74005 19.6324 5.49544C19.9667 5.25082 20.436 5.3235 20.6807 5.65778C22.0175 7.4847 22.75 9.68808 22.75 12C22.75 17.9371 17.9371 22.75 12 22.75C6.06293 22.75 1.25 17.9371 1.25 12C1.25 6.06294 6.06293 1.25 12 1.25ZM7.75 7.25C8.57843 7.25 9.25 7.92157 9.25 8.75C9.25 9.57843 8.57843 10.25 7.75 10.25C6.92157 10.25 6.25 9.57843 6.25 8.75C6.25 7.92157 6.92157 7.25 7.75 7.25ZM17.75 8.75C17.75 7.92157 17.0784 7.25 16.25 7.25C15.4216 7.25 14.75 7.92157 14.75 8.75C14.75 9.57843 15.4216 10.25 16.25 10.25C17.0784 10.25 17.75 9.57843 17.75 8.75ZM17.1913 16.2066C16.3179 14.1295 14.2861 12.75 12.0005 12.75C9.71375 12.75 7.68121 14.1309 6.80847 16.2097C6.64813 16.5916 6.82776 17.0312 7.20966 17.1915C7.59161 17.3519 8.03119 17.1722 8.19153 16.7903C8.8327 15.2631 10.3239 14.25 12.0005 14.25C13.6763 14.25 15.1669 15.2621 15.8087 16.7881C15.9692 17.1699 16.4089 17.3493 16.7907 17.1887C17.1725 17.0282 17.3519 16.5885 17.1913 16.2066Z"
		fill-rule="evenodd" />
</svg>