<?xml version="1.0" encoding="UTF-8"?>
<svg  viewBox="0 0 24 24" version="1.1" xmlns="http://www.w3.org/2000/svg" xmlns:xlink="http://www.w3.org/1999/xlink">
    <g id="S12组件" stroke="none" stroke-width="1"  fill-rule="evenodd">
        <g id="frown">
            <rect id="矩形" opacity="0" x="0" y="0"></rect>
            <path d="M12,2 C14.2170341,2 16.3258236,2.72418837 18.0532894,4.03924114 C18.3828702,4.29013825 18.446656,4.76070858 18.1957589,5.0902894 C17.9448618,5.41987022 17.4742914,5.48365597 17.1447106,5.23275886 C15.6761624,4.11481002 13.8858755,3.5 12,3.5 C7.30585564,3.5 3.5,7.30557146 3.5,12 C3.5,16.6937864 7.30621356,20.5 12,20.5 C16.6944285,20.5 20.5,16.6941444 20.5,12 C20.5,10.1146074 19.8858507,8.32533664 18.7681003,6.85610438 C18.5173054,6.52644579 18.581237,6.05589525 18.9108956,5.80510033 C19.2405542,5.55430541 19.7111047,5.61823704 19.9618997,5.94789562 C21.2765776,7.67598035 22,9.78360864 22,12 C22,17.5225464 17.5228807,22 12,22 C6.47778644,22 2,17.5222136 2,12 C2,6.47711926 6.47745359,2 12,2 Z M12.0076294,12.0079956 C14.3650761,12.0079956 16.4144149,13.5752504 17.0547733,15.8085017 C17.1689433,16.2066701 16.9387172,16.6220025 16.5405488,16.7361726 C16.1423804,16.8503426 15.727048,16.6201165 15.6128779,16.2219481 C15.1557835,14.6278302 13.6914904,13.5079956 12.0076294,13.5079956 C10.3316543,13.5079956 8.87252001,14.6174152 8.40840073,16.2011821 C8.2919151,16.5986792 7.87524974,16.8264841 7.47775261,16.7099984 C7.08025547,16.5935128 6.85245064,16.1768474 6.96893627,15.7793503 C7.61911104,13.5606852 9.66124424,12.0079956 12.0076294,12.0079956 Z M16,7.8125 C16.6902136,7.8125 17.25,8.37228644 17.25,9.0625 C17.25,9.75182731 16.6901006,10.3125 16,10.3125 C15.3098994,10.3125 14.75,9.75182731 14.75,9.0625 C14.75,8.37228644 15.3097864,7.8125 16,7.8125 Z M8,7.8125 C8.69021356,7.8125 9.25,8.37228644 9.25,9.0625 C9.25,9.75182731 8.69010065,10.3125 8,10.3125 C7.30989935,10.3125 6.75,9.75182731 6.75,9.0625 C6.75,8.37228644 7.30978644,7.8125 8,7.8125 Z" id="形状结合"  fill-rule="nonzero"></path>
        </g>
    </g>
</svg>