<svg viewBox="0 0 24 24" xmlns="http://www.w3.org/2000/svg"
	xmlns:xlink="http://www.w3.org/1999/xlink">
	<defs />
	<g opacity="0.000000" />
	<path id="矢量 130"
		d="M10.4832 3.50002C10.4832 3.0858 10.1474 2.75002 9.73322 2.75002L3.5 2.75002L3.39825 2.75687C3.03217 2.80652 2.75 3.12032 2.75 3.50002L2.75 9.73322L2.75684 9.83499C2.80652 10.201 3.1203 10.4832 3.5 10.4832L3.60175 10.4764C3.96783 10.4267 4.25 10.1129 4.25 9.73322L4.24902 5.31001L10.2526 11.3132C10.5462 11.5311 11.0469 11.5795 11.3132 11.3132C11.6061 11.0203 11.6061 10.5455 11.3132 10.2526L5.31 4.24901L9.73322 4.25002L9.83496 4.24316C10.201 4.19351 10.4832 3.87971 10.4832 3.50002ZM13.6633 12.6142L19.75 18.689L19.75 14.2668C19.75 13.8871 20.0322 13.5733 20.3983 13.5237L20.5 13.5168C20.8797 13.5168 21.1935 13.799 21.2432 14.165L21.25 14.2668L21.25 20.5C21.25 20.8797 20.9678 21.1935 20.6017 21.2432L20.5 21.25L14.2668 21.25C13.8526 21.25 13.5168 20.9142 13.5168 20.5C13.5168 20.1203 13.799 19.8065 14.165 19.7569L14.2668 19.75L18.689 19.75L12.6868 13.7474C12.3939 13.4546 12.3939 12.9797 12.6868 12.6868C12.9531 12.4205 13.3697 12.3963 13.6633 12.6142Z"
		fill-rule="evenodd" />
</svg>