<?xml version="1.0" encoding="UTF-8"?>
<svg viewBox="0 0 24 24" version="1.1" xmlns="http://www.w3.org/2000/svg" xmlns:xlink="http://www.w3.org/1999/xlink">
    <g id="基础组件" stroke="none" stroke-width="1">
        <g id="编组">
            <path d="M14.9462117,13.8970518 L15.0303301,13.9696699 L19.499,18.438 L19.5,14.501 C19.5,14.1213042 19.7821539,13.807509 20.1482294,13.7578466 L20.25,13.751 C20.6296958,13.751 20.943491,14.0331539 20.9931534,14.3992294 L21,14.501 L21,20.25 L20.9994268,20.2794084 C20.9988542,20.2940905 20.9978527,20.3087591 20.9964221,20.3233936 L21,20.25 C21,20.2968456 20.9957051,20.342688 20.9874876,20.3871551 C20.9854242,20.3980328 20.9829853,20.4097261 20.9802653,20.421367 C20.9748291,20.4448272 20.9684207,20.4672835 20.9610197,20.4892836 C20.957697,20.4990913 20.9539715,20.5094565 20.9500107,20.5197519 C20.9425505,20.5390942 20.934555,20.5575139 20.9258602,20.5755328 C20.9189416,20.5899909 20.9112981,20.6046244 20.9031392,20.6190453 C20.893187,20.6365081 20.8825387,20.6536581 20.8712371,20.6703291 C20.8643147,20.6806612 20.8568243,20.6911291 20.8490323,20.7014416 C20.8060981,20.7581986 20.7555276,20.8085304 20.698737,20.8510016 L20.7803301,20.7803301 C20.7432768,20.8173834 20.7033111,20.8497491 20.6611698,20.8774273 C20.6410149,20.8905922 20.6200275,20.9029723 20.5984182,20.914329 C20.5892964,20.9191626 20.5805656,20.9235192 20.5717704,20.9276949 C20.5449819,20.940442 20.5165221,20.9519466 20.4872605,20.9616971 C20.4803168,20.9639554 20.4742456,20.9658799 20.4681555,20.9677252 C20.431066,20.9790814 20.3919231,20.9877062 20.3517706,20.9931534 L20.25,21 L14.5,21 C14.0857864,21 13.75,20.6642136 13.75,20.25 C13.75,19.8703042 14.0321539,19.556509 14.3982294,19.5068466 L14.5,19.5 L18.439,19.5 L13.9696699,15.0303301 C13.6767767,14.7374369 13.6767767,14.2625631 13.9696699,13.9696699 C14.2359365,13.7034034 14.6526002,13.6791973 14.9462117,13.8970518 Z M9.5,3 C9.91421356,3 10.25,3.33578644 10.25,3.75 C10.25,4.12969577 9.96784612,4.44349096 9.60177056,4.49315338 L9.5,4.5 L5.561,4.5 L10.0313301,8.97066991 C10.3242233,9.26356313 10.3242233,9.73843687 10.0313301,10.0313301 C9.76506352,10.2975966 9.34839984,10.3218027 9.05478835,10.1039482 L8.97066991,10.0313301 L4.499,5.56 L4.5,9.501 C4.5,9.88069577 4.21784612,10.194491 3.85177056,10.2441534 L3.75,10.251 C3.37030423,10.251 3.05650904,9.96884612 3.00684662,9.60277056 L3,9.501 L3,3.75 L3.00017932,3.73354891 C3.00062303,3.71319859 3.00189016,3.69286288 3.0039807,3.67259605 L3,3.75 C3,3.70315442 3.00429489,3.65731196 3.01251238,3.61284491 C3.01457582,3.60196718 3.01701468,3.5902739 3.01973472,3.57863298 C3.02517085,3.5551728 3.03157935,3.53271655 3.03898031,3.51071635 C3.04230301,3.50090869 3.04602848,3.49054351 3.04998933,3.48024809 C3.05744952,3.46090579 3.065445,3.44248608 3.07413984,3.42446717 C3.08105843,3.41000914 3.0887019,3.39537558 3.09686081,3.38095468 C3.10681304,3.36349194 3.11746126,3.34634194 3.1287629,3.32967093 C3.13568532,3.31933877 3.14317572,3.30887091 3.15096775,3.29855842 C3.19462629,3.24084242 3.24618887,3.18976524 3.30415605,3.14684567 L3.21966991,3.21966991 C3.25672319,3.18261664 3.29668892,3.15025089 3.33883021,3.12257267 C3.35898514,3.10940783 3.37997247,3.09702767 3.40158175,3.08567096 C3.41070362,3.08083742 3.41943437,3.07648082 3.42822959,3.07230508 C3.45660552,3.05880073 3.48676262,3.0467322 3.51780866,3.03663399 C3.52310765,3.03496585 3.52747119,3.03359992 3.53184446,3.0322748 C3.56893395,3.0209186 3.60807689,3.01229378 3.64822944,3.00684662 L3.75,3 L9.5,3 Z" id="形状结合"></path>
        </g>
    </g>
</svg>