<svg viewBox="0 0 24 24" xmlns="http://www.w3.org/2000/svg"
	xmlns:xlink="http://www.w3.org/1999/xlink">
	<defs />
	<g opacity="0.000000" />
	<path id="矢量 131"
		d="M20.6018 2.75687L20.5 2.75002L14.2668 2.75002C13.8526 2.75002 13.5168 3.0858 13.5168 3.50002C13.5168 3.87971 13.799 4.19351 14.165 4.24316L14.2668 4.25002L18.689 4.24901L12.6868 10.2526C12.3939 10.5455 12.3939 11.0203 12.6868 11.3132C12.953 11.5795 13.3697 11.6037 13.6633 11.3859L19.75 5.31001L19.75 9.73322C19.75 10.1129 20.0322 10.4267 20.3982 10.4764L20.5 10.4832C20.8797 10.4832 21.1935 10.201 21.2432 9.83499L21.25 9.73322L21.25 3.50002C21.25 3.12032 20.9678 2.80652 20.6018 2.75687ZM10.3367 12.6142C10.6303 12.3963 11.047 12.4205 11.3132 12.6868C11.6061 12.9797 11.6061 13.4546 11.3132 13.7474L5.31 19.75L9.73322 19.75L9.83499 19.7569C10.201 19.8065 10.4832 20.1203 10.4832 20.5C10.4832 20.9142 10.1474 21.25 9.73322 21.25L3.5 21.25L3.39822 21.2432C3.03217 21.1935 2.75 20.8797 2.75 20.5L2.75 14.2668L2.75684 14.165C2.80652 13.799 3.1203 13.5168 3.5 13.5168L3.60178 13.5237C3.96783 13.5733 4.25 13.8871 4.25 14.2668L4.24899 18.689L10.3367 12.6142Z"
		fill-rule="evenodd" />
</svg>