<svg viewBox="0 0 24 24" xmlns="http://www.w3.org/2000/svg"
	xmlns:xlink="http://www.w3.org/1999/xlink">
	<defs />
	<g opacity="0.000000" />
	<path id="矢量 143"
		d="M3.79993 3L11.2 3C12.056 3 12.75 3.69395 12.75 4.55L12.75 6.45001C12.75 7.30603 12.056 8 11.2 8L3.79993 8C2.94391 8 2.25 7.30603 2.25 6.45001L2.25 4.55C2.25 3.69395 2.94391 3 3.79993 3ZM11.2 4.5L3.79993 4.5L3.75 6.45001L11.2 6.5L11.2 4.5ZM15.1995 9.5L3.7995 9.5C2.94348 9.5 2.24951 10.194 2.24951 11.05L2.24951 12.95C2.24951 13.806 2.94348 14.5 3.7995 14.5L15.1995 14.5C16.0555 14.5 16.7495 13.806 16.7495 12.95L16.7495 11.05C16.7495 10.194 16.0555 9.5 15.1995 9.5ZM15.1995 11L3.7995 11L3.74951 12.95L15.1995 13L15.1995 11ZM20.1995 16L3.7995 16C2.94348 16 2.24951 16.694 2.24951 17.55L2.24951 19.45C2.24951 20.306 2.94348 21 3.7995 21L20.1995 21C21.0555 21 21.7495 20.306 21.7495 19.45L21.7495 17.55C21.7495 16.694 21.0555 16 20.1995 16ZM20.1995 17.5L3.7995 17.5L3.74951 19.45L20.1995 19.5L20.1995 17.5Z"
		fill-rule="evenodd" />
</svg>