<?xml version="1.0" encoding="UTF-8"?>
<svg viewBox="0 0 24 24" version="1.1" xmlns="http://www.w3.org/2000/svg" xmlns:xlink="http://www.w3.org/1999/xlink">
    <g id="S12组件" stroke="none" stroke-width="1">
        <g id="Grade">
            <g id="编组备份" transform="translate(3.000000, 3.000000)">
                <path d="M15.75,13 C16.9926407,13 18,14.0073593 18,15.25 L18,15.25 L18,15.75 C18,16.9926407 16.9926407,18 15.75,18 L15.75,18 L2.25,18 C1.00735931,18 0,16.9926407 0,15.75 L0,15.75 L0,15.25 C0,14.0073593 1.00735931,13 2.25,13 L2.25,13 Z M15.75,14.5 L2.25,14.5 C1.83578644,14.5 1.5,14.8357864 1.5,15.25 L1.5,15.25 L1.5,15.75 C1.5,16.1642136 1.83578644,16.5 2.25,16.5 L2.25,16.5 L15.75,16.5 C16.1642136,16.5 16.5,16.1642136 16.5,15.75 L16.5,15.75 L16.5,15.25 C16.5,14.8357864 16.1642136,14.5 15.75,14.5 L15.75,14.5 Z M11.75,6.5 C12.9926407,6.5 14,7.50735931 14,8.75 L14,8.75 L14,9.25 C14,10.4926407 12.9926407,11.5 11.75,11.5 L11.75,11.5 L2.25,11.5 C1.00735931,11.5 0,10.4926407 0,9.25 L0,9.25 L0,8.75 C0,7.50735931 1.00735931,6.5 2.25,6.5 L2.25,6.5 Z M11.75,8 L2.25,8 C1.83578644,8 1.5,8.33578644 1.5,8.75 L1.5,8.75 L1.5,9.25 C1.5,9.66421356 1.83578644,10 2.25,10 L2.25,10 L11.75,10 C12.1642136,10 12.5,9.66421356 12.5,9.25 L12.5,9.25 L12.5,8.75 C12.5,8.33578644 12.1642136,8 11.75,8 L11.75,8 Z M7.75,0 C8.99264069,0 10,1.00735931 10,2.25 L10,2.25 L10,2.75 C10,3.99264069 8.99264069,5 7.75,5 L7.75,5 L2.25,5 C1.00735931,5 0,3.99264069 0,2.75 L0,2.75 L0,2.25 C0,1.00735931 1.00735931,0 2.25,0 L2.25,0 Z M7.75,1.5 L2.25,1.5 C1.83578644,1.5 1.5,1.83578644 1.5,2.25 L1.5,2.25 L1.5,2.75 C1.5,3.16421356 1.83578644,3.5 2.25,3.5 L2.25,3.5 L7.75,3.5 C8.16421356,3.5 8.5,3.16421356 8.5,2.75 L8.5,2.75 L8.5,2.25 C8.5,1.83578644 8.16421356,1.5 7.75,1.5 L7.75,1.5 Z" id="形状结合"></path>
            </g>
        </g>
    </g>
</svg>