<?xml version="1.0" encoding="UTF-8"?>
<svg viewBox="0 0 24 24" version="1.1" xmlns="http://www.w3.org/2000/svg" xmlns:xlink="http://www.w3.org/1999/xlink">
    <g id="页面-1" stroke="none" stroke-width="1">
        <g id="画板" transform="translate(-789.000000, -1793.000000)">
            <g id="Group-Transfer" transform="translate(789.000000, 1793.000000)">
                <g id="编组" transform="translate(-0.000000, 0.000000)">
                    <path d="M21,14.25 C21.4142136,14.25 21.75,14.5857864 21.75,15 C21.75,15.3796958 21.4678461,15.693491 21.1017706,15.7431534 L21,15.75 L4.81,15.7494 L6.53033009,17.4696699 C6.79659665,17.7359365 6.8208027,18.1526002 6.60294824,18.4462117 L6.53033009,18.5303301 C6.26406352,18.7965966 5.84739984,18.8208027 5.55378835,18.6029482 L5.46966991,18.5303301 L2.46966991,15.5303301 C2.0220633,15.0827235 2.2988334,14.3341085 2.89733906,14.2565468 L3,14.25 L21,14.25 Z M18.4462117,5.39705176 L18.5303301,5.46966991 L21.5303301,8.46966991 C21.9779367,8.91727653 21.7011666,9.66589152 21.1026609,9.74345319 L21,9.75 L3,9.75 C2.58578644,9.75 2.25,9.41421356 2.25,9 C2.25,8.62030423 2.53215388,8.30650904 2.89822944,8.25684662 L3,8.25 L19.189,8.2494 L17.4696699,6.53033009 C17.2034034,6.26406352 17.1791973,5.84739984 17.3970518,5.55378835 L17.4696699,5.46966991 C17.7359365,5.20340335 18.1526002,5.1791973 18.4462117,5.39705176 Z" id="形状结合"></path>
                </g>
            </g>
        </g>
    </g>
</svg>