<svg viewBox="0 0 24 24" xmlns="http://www.w3.org/2000/svg"
	xmlns:xlink="http://www.w3.org/1999/xlink">
	<defs />
	<g opacity="0.000000" />
	<path id="矢量 74"
		d="M2.89752 7.75757C2.53143 7.80725 2.24927 8.12103 2.24927 8.50073C2.24927 8.91495 2.58508 9.25073 2.99927 9.25073L20.9993 9.25073L21.1013 9.24426C21.6966 9.16748 21.9754 8.42627 21.5355 7.97638L18.6022 4.97638L18.5189 4.90283C18.2277 4.6817 17.8109 4.70123 17.5416 4.96448L17.468 5.04779C17.2469 5.33893 17.2664 5.75583 17.5297 6.02509L19.2153 7.75073L2.99927 7.75073L2.89752 7.75757ZM21.1025 16.2439C21.4686 16.1942 21.7507 15.8804 21.7507 15.5007C21.7507 15.0865 21.4149 14.7507 21.0007 14.7507L3.00073 14.7507L2.89868 14.7572C2.30341 14.834 2.0246 15.5752 2.46448 16.0251L5.39783 19.0251L5.48108 19.0986C5.77228 19.3198 6.18915 19.3002 6.45837 19.037L6.53198 18.9537C6.75311 18.6625 6.73358 18.2456 6.47034 17.9764L4.78473 16.2507L21.0007 16.2507L21.1025 16.2439Z"
		fill-rule="evenodd" />
</svg>