<svg viewBox="0 0 24 24" xmlns="http://www.w3.org/2000/svg"
	xmlns:xlink="http://www.w3.org/1999/xlink">
	<defs />
	<g opacity="0.000000" />
	<path id="矢量 75"
		d="M5.88373 7.76456C5.88373 4.80457 7.27911 2.86029 10.059 2.75455L10.3007 2.75C13.2414 2.75 14.7177 4.72 14.7177 7.76456L14.7503 7.93756C15.0569 8.41632 15.1311 9.05908 14.965 9.67859L14.9138 9.8468C14.7374 10.3629 14.4085 10.7982 13.9952 11.0649L13.869 11.1383L13.7386 11.3565L13.588 11.5806L13.4166 11.8154C12.9985 12.4096 13.0228 12.5807 13.3193 12.733L14.7655 13.4599C15.1414 13.6574 15.4862 13.8502 15.8207 14.0526C17.845 15.2773 19.0452 16.5752 19.0405 18.1445L19.0473 18.9909C19.0353 20.571 18.7446 21.1967 17.4396 21.2496L3.12958 21.2494C1.75104 21.1929 1.52466 20.4677 1.55481 18.5935L1.55945 18.1533C1.55481 16.5756 2.755 15.2778 4.77924 14.053C5.16638 13.8187 5.5722 13.5948 6.02014 13.3636L6.19421 13.2745L7.28064 12.7334C7.59009 12.5745 7.60052 12.4086 7.14471 11.762L6.92017 11.4456C6.85382 11.3458 6.79047 11.2429 6.73016 11.1373L6.60016 10.8959C6.64178 10.9779 6.68512 11.0584 6.73016 11.1373L6.60602 11.0646C6.23889 10.8276 5.93842 10.4573 5.75232 10.0157L5.68799 9.8468C5.45923 9.1778 5.55127 8.41083 5.88501 7.88834L5.88373 7.76456ZM14.3609 2.83789C14.3127 2.83984 14.265 2.84238 14.2177 2.84552C14.7714 3.29291 15.2313 3.84064 15.5632 4.47153C16.6079 4.81174 17.0885 5.77625 17.0885 7.32416C17.0885 7.42279 17.0856 7.52179 17.0798 7.62073C17.066 7.85443 17.1622 8.08118 17.3397 8.2337C17.3832 8.27112 17.4178 8.46423 17.3389 8.69324C17.2695 8.89417 17.1428 9.02924 17.054 9.05673C16.8613 9.11646 16.7007 9.25134 16.6086 9.43091C16.5328 9.57874 16.3845 9.8028 16.294 9.92963C15.3839 11.161 15.4254 12.3279 16.6212 12.9362C18.5347 13.9096 20.9197 16.0804 20.9159 17.3536L20.9271 18.2805L20.8907 18.6662L20.4046 18.6662C20.4091 19.337 20.3813 19.6338 20.254 20.0378C20.2402 20.0815 20.2254 20.1243 20.2095 20.1663L20.9125 20.1663C22.0222 20.1218 22.3506 19.6355 22.4111 18.4783L22.4215 18.1292C22.4222 18.0679 22.4224 18.005 22.4221 17.9406L22.4159 17.3495C22.4218 15.3603 19.8693 12.9748 17.5272 11.7173L17.3012 11.5992C17.1113 11.5026 17.0818 11.4213 17.3422 11.0415L17.5693 10.7292L17.7062 10.5276L17.9058 10.299C18.2894 10.0541 18.5938 9.65509 18.7568 9.1825L18.8073 9.01682C18.9543 8.46185 18.8896 7.88556 18.6177 7.44794L18.5885 7.32416C18.5885 4.60651 17.2473 2.83331 14.5918 2.83331L14.3609 2.83789ZM10.3007 4.25C12.3035 4.25 13.2177 5.46985 13.2177 7.76456C13.2177 7.87921 13.2143 7.99426 13.2076 8.10925C13.194 8.34161 13.2891 8.56708 13.465 8.71954C13.5496 8.79291 13.5972 9.06104 13.4944 9.36157C13.4058 9.62079 13.2396 9.79956 13.1085 9.84058C12.9156 9.90091 12.7552 10.0365 12.6638 10.2167C12.5758 10.3898 12.4788 10.5515 12.3735 10.7004L12.299 10.8005C11.3439 12.1046 11.3479 13.3115 12.4915 13.9887L12.6797 14.0905L13.7003 14.5982C14.2013 14.8522 14.6343 15.088 15.0442 15.3359C16.6502 16.3076 17.5431 17.2732 17.5405 18.1485L17.5503 19.2144L17.5424 19.4884L17.53 19.6057C17.5121 19.7164 17.481 19.7421 17.4314 19.7485L3.11316 19.7368C3.09552 19.7238 3.0697 19.6032 3.05981 19.5532L3.05231 19.4117L3.04926 19.0926L3.05945 18.1511C3.05688 17.2736 3.94983 16.308 5.55579 15.3363L5.87683 15.1451L6.17542 14.9761L6.63031 14.7358L7.95959 14.071C9.2171 13.4254 9.23492 12.1252 8.30798 10.8103C8.16425 10.6199 8.04407 10.4263 7.93738 10.2164C7.84589 10.0364 7.68567 9.90085 7.49292 9.84048C7.36206 9.7995 7.19592 9.6207 7.1073 9.36157C7.00458 9.06097 7.05212 8.79248 7.13739 8.71826C7.31262 8.56577 7.40729 8.3407 7.39374 8.10883C7.38708 7.9942 7.38373 7.87921 7.38373 7.76456C7.38373 5.46985 8.29785 4.25 10.3007 4.25Z"
		fill-rule="evenodd" />
</svg>