<?xml version="1.0" encoding="UTF-8"?>
<svg viewBox="0 0 24 24" version="1.1" xmlns="http://www.w3.org/2000/svg" xmlns:xlink="http://www.w3.org/1999/xlink">
    <g id="页面-1" stroke="none" stroke-width="1">
        <g id="画板" transform="translate(-1076.000000, -1784.000000)">
            <g id="编组" transform="translate(1076.000000, 1784.000000)">
                <path d="M20.1992324,19.0001 C20.5665745,19.0001 20.84172,18.6768088 20.7998663,18.3256663 L20.7826686,18.2374715 L20.2828976,16.4053092 C20.1193486,15.8084612 19.7615195,15.2861124 19.2693405,14.9189069 L19.1003871,14.8023617 L15.7153871,12.6543617 C15.3656463,12.4324287 15.2620377,11.9689955 15.4839707,11.6192548 L15.5008805,11.5932191 C15.5285224,11.550374 15.5608424,11.5099402 15.5977261,11.4727148 L15.68155,11.3997568 C16.3627054,10.8894654 16.9037104,8.89875853 16.7747064,7.75265132 C16.6722042,6.84199478 16.3358567,6.25300032 15.8370447,5.89362245 C15.5378017,5.67802756 15.1860349,5.55727108 14.905242,5.52716912 L14.7713318,5.51965332 C14.3571182,5.51965332 14.0213318,5.18386688 14.0213318,4.76965332 C14.0213318,4.35543976 14.3571182,4.01965332 14.7713318,4.01965332 C16.3880499,4.01965332 17.9942525,5.17687036 18.2652936,7.58487309 C18.4096434,8.86731572 18.0133856,10.7040454 17.2543104,11.8550826 L19.904889,13.5363539 C20.7303865,14.0616705 21.3479109,14.8527285 21.6585791,15.7761837 L21.7297961,16.0097285 L22.2299216,17.8431892 C22.5808255,19.1328358 21.6563839,20.4058272 20.346335,20.4951102 L20.1992324,20.5001 L3.84583238,20.5 C2.479096,20.5 1.47288084,19.2463706 1.73761249,17.9317587 L1.77230361,17.7855003 L2.28914459,15.8920838 C2.55485538,14.9155686 3.15060719,14.064013 3.97058116,13.4806841 L4.16373803,13.3508964 L7.01086535,11.5425803 C6.9209396,11.4174886 6.83521114,11.2854756 6.75215979,11.1424319 C6.28219486,10.332987 5.96991178,9.28616031 5.85269483,7.90714943 C5.64511778,5.46508791 7.46311247,3.512146 9.68218994,3.512146 C12.3180556,3.512146 13.9897901,5.51185045 13.6248429,8.60780123 C13.4720375,9.90409291 13.1241696,10.8752073 12.6181497,11.5945668 L15.3640513,13.349912 C16.2171692,13.8917875 16.8539942,14.7113718 17.1718756,15.6684828 L17.2395244,15.8917321 L17.4775244,16.7647321 C17.5864724,17.1643609 17.3508291,17.5766439 16.9512003,17.685592 C16.5848739,17.785461 16.2079144,17.5957776 16.063714,17.2556542 L16.0303404,17.1592679 L15.792667,16.287462 C15.6216716,15.6642947 15.248816,15.1195882 14.7343646,14.7363899 L14.5577192,14.6147529 L11.5028488,12.6600792 C11.2949919,12.7915904 11.0747897,12.9042797 10.8432598,13.0001719 C10.4605701,13.1586695 10.0218512,12.976926 9.8633535,12.5942364 C9.70485585,12.2115467 9.88659938,11.7728277 10.269289,11.6143301 C10.5235587,11.5090198 10.756001,11.3749477 10.9648332,11.2002847 C10.9786475,11.1844271 10.9939534,11.1714314 11.0096902,11.1591203 C11.5823014,10.6579179 11.9699847,9.8334035 12.1351571,8.43219877 C12.3973939,6.2075692 11.3980311,5.012146 9.68218994,5.012146 C8.33709924,5.012146 7.21452865,6.21804344 7.34730517,7.78010643 C7.44638342,8.94572271 7.69487525,9.77871012 8.04936783,10.3892711 C8.15533082,10.5717766 8.26607751,10.7265162 8.39178477,10.8760114 L8.70172382,11.22247 C8.72756441,11.2523672 8.74974772,11.282119 8.76993595,11.3139057 C8.97181829,11.6317724 8.90469491,12.0437057 8.62812239,12.2828206 L8.53892672,12.3491036 L4.96735874,14.617464 C4.42392008,14.961927 4.01387223,15.4785236 3.8002187,16.082175 L3.73636114,16.2864997 L3.21929244,18.1807512 C3.11534556,18.5610342 3.37237643,18.9373144 3.74925535,18.9929535 L3.84583238,19 L20.1992324,19.0001 Z" id="形状结合"></path>
            </g>
        </g>
    </g>
</svg>