<svg viewBox="0 0 24 24" xmlns="http://www.w3.org/2000/svg"
	xmlns:xlink="http://www.w3.org/1999/xlink">
	<defs />
	<path id="矢量 152"
		d="M18.75 2.25L5.25 2.25C3.59 2.25 2.25 3.59 2.25 5.25L2.25 18.75C2.25 20.4 3.59 21.75 5.25 21.75L18.75 21.75C20.4 21.75 21.75 20.4 21.75 18.75L21.75 5.25C21.75 3.59 20.4 2.25 18.75 2.25Z"
		fill-opacity="1.000000" fill-rule="evenodd" />
	<path id="矢量 152"
		d="M9.81 8L14.18 8C15.18 8 16 8.81 16 9.81L16 14.18C16 15.18 15.18 16 14.18 16L9.81 16C8.81 16 8 15.18 8 14.18L8 9.81C8 8.81 8.81 8 9.81 8Z"
		fill="#FFFFFF" fill-opacity="1.000000" fill-rule="evenodd" />
</svg>