<svg viewBox="0 0 24 24" xmlns="http://www.w3.org/2000/svg"
	xmlns:xlink="http://www.w3.org/1999/xlink">
	<defs />
	<g opacity="0.000000" />
	<path id="矢量 151"
		d="M18.75 2.25L5.25 2.25C3.59314 2.25 2.25 3.59314 2.25 5.25L2.25 18.75C2.25 20.4069 3.59314 21.75 5.25 21.75L18.75 21.75C20.4069 21.75 21.75 20.4069 21.75 18.75L21.75 5.25C21.75 3.59314 20.4069 2.25 18.75 2.25ZM17.75 11.9991C17.75 11.5849 17.4142 11.2491 17 11.2491L7 11.2491L6.89819 11.2559C6.53217 11.3056 6.25 11.6194 6.25 11.9991C6.25 12.4133 6.58582 12.7491 7 12.7491L17 12.7491L17.1018 12.7422C17.4678 12.6926 17.75 12.3788 17.75 11.9991Z"
		fill-rule="evenodd" />
</svg>