<?xml version="1.0" encoding="UTF-8"?>
<svg viewBox="0 0 24 24" version="1.1" xmlns="http://www.w3.org/2000/svg" xmlns:xlink="http://www.w3.org/1999/xlink">
    <g id="页面-1" stroke="none" stroke-width="1">
        <g id="画板" transform="translate(-635.000000, -1860.000000)">
            <g id="Halfselect" transform="translate(635.000000, 1860.000000)">
                <g id="编组" transform="translate(-0.000181, 0.000000)">
                    <path d="M18.0001808,3 C19.5978616,3 20.9038416,4.24891996 20.9950881,5.82372721 L21.0001808,6 L21.0001808,18 C21.0001808,19.5976809 19.7512608,20.9036609 18.1764535,20.9949073 L18.0001808,21 L6.00018076,21 C4.40249987,21 3.09651988,19.75108 3.00527345,18.1762728 L3.00018076,18 L3.00018076,6 C3.00018076,4.40231912 4.24910072,3.09633912 5.82390797,3.00509269 L6.00018076,3 L18.0001808,3 Z M16.5653981,11.25 L7.43496337,11.25 L7.34204242,11.2568466 C7.00779952,11.306509 6.75018076,11.6203042 6.75018076,12 C6.75018076,12.4142136 7.05676837,12.75 7.43496337,12.75 L7.43496337,12.75 L16.5653981,12.75 L16.6583191,12.7431534 C16.992562,12.693491 17.2501808,12.3796958 17.2501808,12 C17.2501808,11.5857864 16.9435931,11.25 16.5653981,11.25 L16.5653981,11.25 Z" id="形状结合"></path>
                </g>
            </g>
        </g>
    </g>
</svg>