<svg viewBox="0 0 24 24" xmlns="http://www.w3.org/2000/svg"
	xmlns:xlink="http://www.w3.org/1999/xlink">
	<defs />
	<g opacity="0.000000" />
	<path id="矢量 153"
		d="M15.4626 3.25635C14.2248 3.31128 13.1031 3.72226 12.127 4.46277L12 4.56299L11.8736 4.46277C10.8223 3.66519 9.60193 3.25 8.25 3.25C4.93768 3.25 2.25 5.91525 2.25 9.20618C2.25 11.4407 3.23932 13.2137 5.52765 15.6681L6.05768 16.2252C7.34814 17.5568 9.02112 18.9645 11.0784 20.4525C11.6285 20.849 12.3714 20.8489 12.9205 20.4529L13.3845 20.1131C15.2306 18.7501 16.7488 17.4557 17.9421 16.2255C20.6056 13.4796 21.7496 11.61 21.75 9.22113C21.7505 5.91837 19.0646 3.25 15.7502 3.25L15.4626 3.25635ZM20.25 9.22089C20.2504 6.7489 18.2383 4.75 15.7502 4.75C14.5084 4.75 13.4365 5.20355 12.5258 6.09799C12.234 6.38452 11.7664 6.38452 11.4747 6.0979C10.5641 5.20346 9.49188 4.75 8.25 4.75C5.76331 4.75 3.75 6.74652 3.75 9.20618C3.75 10.7636 4.40454 12.1128 5.97668 13.9261L6.40784 14.41L6.88159 14.9177L7.13483 15.1813C8.35883 16.4443 9.96643 17.797 11.9565 19.2364L12.4958 18.9047C14.2775 17.5892 15.7343 16.3471 16.8654 15.1811C19.277 12.6949 20.2497 11.1053 20.25 9.22089Z"
		fill-rule="evenodd" />
</svg>