<?xml version="1.0" encoding="UTF-8"?>
<svg viewBox="0 0 24 24" version="1.1" xmlns="http://www.w3.org/2000/svg" xmlns:xlink="http://www.w3.org/1999/xlink">
    <g id="页面-1" stroke="none" stroke-width="1">
        <g id="画板" transform="translate(-789.000000, -1860.000000)">
            <g id="编组" transform="translate(789.000000, 1860.000000)">
                <path d="M11.9881206,20.961813 L11.9645703,20.9610554 C11.9390475,20.9598748 11.9135044,20.9573827 11.8880419,20.9535527 C11.8802226,20.9521101 11.8718335,20.9506897 11.863472,20.9491281 C11.8391711,20.9449266 11.8154978,20.9393355 11.7920074,20.9325433 C11.7776761,20.9280051 11.7628946,20.9232367 11.7482647,20.9180123 C11.7308325,20.9121888 11.7136014,20.905305 11.696536,20.8977337 C11.6843175,20.8919397 11.6721987,20.8861797 11.6602279,20.8800902 C11.6465581,20.8734921 11.6330086,20.866071 11.6196039,20.8581858 L11.4269777,20.7389183 L11.182958,20.5776179 L10.893798,20.3781348 L10.3890986,20.0157397 L10.0144454,19.7376443 L9.41081793,19.2753785 L8.98975376,18.9427344 L8.34582165,18.4166933 L7.91742887,18.053564 L7.705846,17.8697127 L7.705846,17.8697127 C5.11158784,15.5955159 3.19829458,13.2608366 2.35714731,10.9483816 C1.24342712,7.89023429 2.82095989,4.50762977 5.87935363,3.39496574 C8.32983399,2.50306296 11.0520611,3.33127912 12.5986808,5.38215531 C12.8480815,5.71286998 12.7821634,6.18314636 12.4514488,6.43254701 C12.1207341,6.68194766 11.6504577,6.61602962 11.4010571,6.28531495 C10.2486692,4.75720508 8.21896394,4.13968324 6.39228226,4.80454164 C4.11243277,5.63396609 2.93643648,8.15558113 3.76668909,10.4353593 C4.50248613,12.4581886 6.27369323,14.6194886 8.6946419,16.7417576 L9.10051599,17.0914696 L9.71596921,17.6015815 L10.1215848,17.9264107 L10.5161596,18.2345571 L11.0736482,18.6570844 L11.5711387,19.0204444 L11.9875372,19.3116584 L11.9919303,19.3149228 L12.2816935,19.1154133 L12.7104354,18.8094662 C13.5641461,18.1904016 14.4455068,17.4953195 15.3052837,16.7415153 C17.7262494,14.6189484 19.4973849,12.4577893 20.2332473,10.4351887 C21.0635576,8.15525226 19.8879777,5.63396369 17.6073964,4.80458369 C16.5421825,4.41677924 15.2852008,4.50480378 14.264959,4.94280413 C13.8843386,5.10620842 13.4433194,4.93011994 13.2799151,4.54949951 C13.1165108,4.16887908 13.2925993,3.72785991 13.6732197,3.56445562 C15.0410224,2.9772438 16.6929552,2.87535592 18.1202974,3.39499777 C21.1794736,4.50752963 22.7565575,7.88993148 21.6427725,10.9482567 C20.8015434,13.2604695 18.8883779,15.5949351 16.2941542,17.869405 L15.7513074,18.335974 L15.2144867,18.7802924 C15.1259422,18.8522675 15.0379665,18.9231477 14.9507182,18.992849 L14.4372288,19.3962396 C14.3535257,19.4608899 14.2708677,19.5241935 14.1894136,19.5860665 L13.7164063,19.9394665 L13.2799151,20.2545045 C13.2106331,20.3035903 13.1431902,20.3509098 13.0777451,20.3963792 L12.7103204,20.6463223 C12.5966841,20.7217885 12.4923099,20.7891828 12.3984682,20.8478339 L12.3826813,20.856842 C12.3663618,20.8665063 12.3497105,20.8755292 12.332769,20.8839001 L12.3984682,20.8478339 C12.3615272,20.870922 12.3233534,20.8904009 12.2843593,20.9063658 C12.274523,20.9097516 12.2645903,20.9135711 12.2545849,20.9171776 C12.1800071,20.9446787 12.1029914,20.9590216 12.0262063,20.9615344 C12.0172376,20.9616995 12.0075221,20.9618711 11.9977972,20.9618534 L11.9881206,20.961813 Z" id="形状结合"></path>
            </g>
        </g>
    </g>
</svg>