<?xml version="1.0" encoding="UTF-8"?>
<svg viewBox="0 0 24 24" version="1.1" xmlns="http://www.w3.org/2000/svg" xmlns:xlink="http://www.w3.org/1999/xlink">
    <g id="S12组件" stroke="none" stroke-width="1">
        <g id="Helpful">
            <path d="M12,3.25 C15.7931728,3.25 19.0226091,5.66364275 20.2362601,9.03887932 C21.3724321,9.27255788 22.2270508,10.2794259 22.2270508,11.4859009 C22.2270508,12.8666128 21.1077627,13.9859009 19.7270508,13.9859009 C19.4509084,13.9859009 19.2270508,13.7620433 19.2270508,13.4859009 L19.228411,11.4363164 C18.94076,7.69568142 15.8143804,4.75 12,4.75 C8.16458133,4.75 5.02477371,7.72826498 4.76708879,11.4982833 L4.76708879,12.5017167 C5.0039914,15.9676827 7.67687637,18.7644554 11.0867401,19.1930312 C11.3141,18.9344404 11.6476403,18.7724609 12.0189209,18.7724609 C12.7091345,18.7724609 13.2689209,19.3322474 13.2689209,20.0224609 C13.2689209,20.7117882 12.7090215,21.2724609 12.0189209,21.2724609 C11.5746267,21.2724609 11.1843,21.0400665 10.9626075,20.6905635 C7.23152987,20.2488088 4.218759,17.4596953 3.44393744,13.8406593 C2.46786418,13.5011414 1.76702881,12.5722833 1.76702881,11.4797363 C1.76702881,10.2700546 2.6261967,9.26104223 3.76760286,9.02962893 C4.98254697,5.65979094 8.20985507,3.25 12,3.25 Z M12,7 C14.7614237,7 17,9.23857625 17,12 C17,14.7614237 14.7614237,17 12,17 C9.23857625,17 7,14.7614237 7,12 C7,9.23857625 9.23857625,7 12,7 Z M12,8.5 C10.0670034,8.5 8.5,10.0670034 8.5,12 C8.5,13.9329966 10.0670034,15.5 12,15.5 C13.9329966,15.5 15.5,13.9329966 15.5,12 C15.5,10.0670034 13.9329966,8.5 12,8.5 Z" id="形状结合"></path>
        </g>
    </g>
</svg>