<svg viewBox="0 0 24 24" xmlns="http://www.w3.org/2000/svg"
	xmlns:xlink="http://www.w3.org/1999/xlink">
	<defs />
	<g opacity="0.000000" />
	<path id="矢量 154"
		d="M12 1.25C17.9371 1.25 22.75 6.06293 22.75 12C22.75 17.9371 17.9371 22.75 12 22.75C6.06293 22.75 1.25 17.9371 1.25 12C1.25 6.06293 6.06293 1.25 12 1.25ZM8.25 9.11111C8.25 6.98465 9.92273 5.25 12 5.25C14.0773 5.25 15.75 6.98465 15.75 9.11111C15.75 10.0668 15.4105 10.9712 14.806 11.6728C14.4226 12.1177 13.7662 12.5969 12.8196 13.1416L12.75 13.262L12.75 14.8889C12.75 15.3031 12.4142 15.6389 12 15.6389C11.6203 15.6389 11.3065 15.3568 11.2568 14.9907L11.25 14.8889L11.25 13.262C11.25 12.6756 11.5633 12.1339 12.0715 11.8414C12.8834 11.3742 13.4218 10.9812 13.6696 10.6937C14.0408 10.2629 14.25 9.70554 14.25 9.11111C14.25 7.80112 13.2364 6.75 12 6.75C10.7636 6.75 9.75 7.80112 9.75 9.11111C9.75 9.52533 9.41418 9.86111 9 9.86111C8.58582 9.86111 8.25 9.52533 8.25 9.11111ZM12 17C11.4477 17 11 17.4477 11 18C11 18.5523 11.4477 19 12 19C12.5523 19 13 18.5523 13 18C13 17.4477 12.5523 17 12 17Z"
		fill-rule="evenodd" />
</svg>