<?xml version="1.0" encoding="UTF-8"?>
<svg viewBox="0 0 24 24" version="1.1" xmlns="http://www.w3.org/2000/svg" xmlns:xlink="http://www.w3.org/1999/xlink">
    <g id="页面-1" stroke="none" stroke-width="1">
        <g id="画板" transform="translate(-319.000000, -1939.000000)">
            <g id="编组" transform="translate(319.000000, 1939.000000)">
                <path d="M12,2 C14.2170341,2 16.3258236,2.72418837 18.0532894,4.03924114 C18.3828702,4.29013825 18.446656,4.76070858 18.1957589,5.0902894 C17.9448618,5.41987022 17.4742914,5.48365597 17.1447106,5.23275886 C15.6761624,4.11481002 13.8858755,3.5 12,3.5 C7.30585564,3.5 3.5,7.30557146 3.5,12 C3.5,16.6937864 7.30621356,20.5 12,20.5 C16.6944285,20.5 20.5,16.6941444 20.5,12 C20.5,10.1146074 19.8858507,8.32533664 18.7681003,6.85610438 C18.5173054,6.52644579 18.581237,6.05589525 18.9108956,5.80510033 C19.2405542,5.55430541 19.7111047,5.61823704 19.9618997,5.94789562 C21.2765776,7.67598035 22,9.78360864 22,12 C22,17.5225464 17.5228807,22 12,22 C6.47778644,22 2,17.5222136 2,12 C2,6.47711926 6.47745359,2 12,2 Z M12,15.9966 C12.553,15.9966 13,16.4436 13,16.9966 C13,17.5486 12.553,17.9966 12,17.9966 C11.447,17.9966 11,17.5486 11,16.9966 C11,16.4436 11.447,15.9966 12,15.9966 Z M12.6212229,5.80389186 C14.0212342,6.0507258 15.1592548,7.18837566 15.4047754,8.5882294 C15.6556821,10.0221494 15.0125936,11.4057882 13.8322465,12.1429042 L13.6679935,12.2393567 C13.1401514,12.5302502 12.8086503,12.9949089 12.7570657,13.5052729 L12.75,13.6455 L12.75,14.2875 C12.75,14.7017136 12.4142136,15.0375 12,15.0375 C11.6203042,15.0375 11.306509,14.7553461 11.2568466,14.3892706 L11.25,14.2875 L11.25,13.6455 C11.25,12.5736193 11.8347702,11.6148103 12.7654613,11.0307283 L12.9439614,10.9256682 C13.6735881,10.5235058 14.0777431,9.70697707 13.9272762,8.84706497 C13.7908959,8.06948344 13.1396262,7.4184259 12.3616206,7.28125637 C11.1326492,7.06602494 10.041,7.99184219 10.041,9.2085 C10.041,9.62271356 9.70521356,9.9585 9.291,9.9585 C8.87678644,9.9585 8.541,9.62271356 8.541,9.2085 C8.541,7.06326833 10.4701535,5.42717167 12.6212229,5.80389186 Z" id="形状结合"></path>
            </g>
        </g>
    </g>
</svg>