<svg viewBox="0 0 24.0004 24" xmlns="http://www.w3.org/2000/svg"
	xmlns:xlink="http://www.w3.org/1999/xlink">
	<defs />
	<g opacity="0.000000" />
	<path id="矢量 90"
		d="M21.2131 8.29938C19.8887 4.48672 16.2642 1.75 12.0006 1.75C7.73703 1.75 4.11264 4.48666 2.78815 8.29922C1.19998 8.57782 -0.000183105 9.90634 0 11.5172L0.00305176 11.6429C0.0703125 13.1286 1.26593 14.3624 2.78033 14.6782C3.9259 18.0023 6.81845 20.5128 10.3609 21.1127C10.6092 21.777 11.2497 22.25 12.0006 22.25C12.9671 22.25 13.7506 21.4665 13.7506 20.5C13.7506 19.5335 12.9671 18.75 12.0006 18.75C11.3581 18.75 10.7964 19.0963 10.4921 19.6124C7.43701 19.0479 4.97211 16.8001 4.09515 13.8669C4.08939 13.8356 4.08157 13.8041 4.07159 13.7727L4.01108 13.5646C3.84103 12.9048 3.75061 12.213 3.75061 11.5C3.75061 6.94366 7.44427 3.25 12.0006 3.25C16.5569 3.25 20.2506 6.94366 20.2506 11.5C20.2506 12.058 20.1953 12.6085 20.0865 13.146L19.9288 13.7727C19.7694 14.2741 20.1622 14.7795 20.6874 14.7487L20.7589 14.7445C22.4851 14.6057 23.9234 13.2766 23.9974 11.6429L24.0004 11.5172C24.0006 9.90662 22.8009 8.57831 21.2131 8.29938ZM6.25061 11.5C6.25061 8.32437 8.82495 5.75 12.0006 5.75C15.1763 5.75 17.7506 8.32437 17.7506 11.5C17.7506 14.6756 15.1763 17.25 12.0006 17.25C8.82495 17.25 6.25061 14.6756 6.25061 11.5ZM16.2506 11.5C16.2506 9.1528 14.3478 7.25 12.0006 7.25C9.65338 7.25 7.75061 9.1528 7.75061 11.5C7.75061 13.8472 9.65338 15.75 12.0006 15.75C14.3478 15.75 16.2506 13.8472 16.2506 11.5Z"
		fill-rule="evenodd" />
</svg>