<svg viewBox="0 0 24 24" xmlns="http://www.w3.org/2000/svg"
	xmlns:xlink="http://www.w3.org/1999/xlink">
	<defs />
	<g opacity="0.000000" />
	<path id="矢量 155"
		d="M18.3405 3.31812C16.5139 1.98203 14.3112 1.25 12 1.25C6.06293 1.25 1.25 6.06293 1.25 12C1.25 17.9371 6.06293 22.75 12 22.75C17.9371 22.75 22.75 17.9371 22.75 12C22.75 9.68808 22.0175 7.48468 20.6807 5.65778C20.436 5.32352 19.9667 5.25082 19.6324 5.49542C19.2982 5.74005 19.2255 6.20932 19.4702 6.54361C20.6205 8.11557 21.25 10.0093 21.25 12C21.25 17.1086 17.1086 21.25 12 21.25C6.89136 21.25 2.75 17.1086 2.75 12C2.75 6.89136 6.89136 2.75 12 2.75C13.9901 2.75 15.8832 3.37915 17.455 4.52881C17.7892 4.77335 18.2585 4.70059 18.5031 4.36627C18.7476 4.03195 18.6749 3.56268 18.3405 3.31812ZM15.75 9.11111C15.75 6.98465 14.0773 5.25 12 5.25C9.92273 5.25 8.25 6.98465 8.25 9.11111C8.25 9.52533 8.58582 9.86111 9 9.86111C9.41418 9.86111 9.75 9.52533 9.75 9.11111C9.75 7.80112 10.7636 6.75 12 6.75C13.2364 6.75 14.25 7.80112 14.25 9.11111C14.25 9.70554 14.0408 10.2629 13.6696 10.6937C13.4218 10.9812 12.8834 11.3742 12.0715 11.8414C11.5633 12.1339 11.25 12.6756 11.25 13.262L11.25 14.8889L11.2568 14.9907C11.3065 15.3568 11.6203 15.6389 12 15.6389C12.4142 15.6389 12.75 15.3031 12.75 14.8889L12.75 13.262C12.761 13.2318 12.7909 13.1581 12.8196 13.1416C13.7662 12.5969 14.4226 12.1177 14.806 11.6728C15.4105 10.9712 15.75 10.0668 15.75 9.11111ZM12 17C12.5523 17 13 17.4477 13 18C13 18.5523 12.5523 19 12 19C11.4477 19 11 18.5523 11 18C11 17.4477 11.4477 17 12 17Z"
		fill-rule="evenodd" />
</svg>