<?xml version="1.0" encoding="UTF-8"?>
<svg viewBox="0 0 24 24" version="1.1" xmlns="http://www.w3.org/2000/svg" xmlns:xlink="http://www.w3.org/1999/xlink">
    <g id="页面-1" stroke="none" stroke-width="1">
        <g id="画板" transform="translate(-635.000000, -1939.000000)">
            <g id="编组" transform="translate(635.000000, 1939.000000)">
                <path d="M13.668,12.24 C13.093,12.556 12.75,13.082 12.75,13.645 L12.75,14.288 C12.75,14.702 12.414,15.038 12,15.038 C11.586,15.038 11.25,14.702 11.25,14.288 L11.25,13.645 C11.25,12.527 11.883,11.511 12.943,10.926 C13.69,10.514 14.077,9.698 13.928,8.847 C13.789,8.063 13.146,7.42 12.362,7.283 C11.767,7.175 11.194,7.33 10.742,7.708 C10.297,8.082 10.042,8.629 10.042,9.209 C10.042,9.623 9.706,9.959 9.292,9.959 C8.878,9.959 8.542,9.623 8.542,9.209 C8.542,8.184 8.992,7.219 9.777,6.559 C10.563,5.9 11.598,5.625 12.621,5.805 C14.015,6.049 15.159,7.193 15.404,8.588 C15.663,10.057 14.965,11.525 13.668,12.24 M12,17.997 C11.448,17.997 11,17.549 11,16.997 C11,16.444 11.448,15.997 12,15.997 C12.553,15.997 13,16.444 13,16.997 C13,17.549 12.553,17.997 12,17.997 M12,2 C6.486,2 2,6.486 2,12 C2,17.513 6.486,22 12,22 C17.514,22 22,17.513 22,12 C22,6.486 17.514,2 12,2" id="Fill-1"></path>
            </g>
        </g>
    </g>
</svg>