<svg viewBox="0 0 24 24" xmlns="http://www.w3.org/2000/svg"
	xmlns:xlink="http://www.w3.org/1999/xlink">
	<defs />
	<path id="路径"
		d="M13.4569 2.71805L13.5802 2.83249L20.8283 10.1497C21.3695 10.6961 21.693 11.4182 21.7431 12.1812L21.75 12.3901L21.75 18.5668C21.75 20.2642 20.4218 21.6513 18.7482 21.745L18.5676 21.75L14.75 21.75C14.3358 21.75 14 21.4142 14 21C14 20.6203 14.2822 20.3065 14.6482 20.2568L14.75 20.25L18.5676 20.25C19.4478 20.25 20.1702 19.5737 20.2438 18.712L20.25 18.5668L20.25 12.3901C20.25 12.0018 20.1159 11.6273 19.8732 11.3285L19.7626 11.2053L12.5146 3.88809C12.3575 3.72952 12.1145 3.70718 11.9333 3.82275L11.8599 3.88071L4.26437 11.2109C3.97678 11.4884 3.79865 11.8579 3.75861 12.2521L3.75 12.4223L3.75 18.5668C3.75 19.4475 4.42609 20.1702 5.28726 20.2438L5.43243 20.25L8.5 20.25L8.5 15.7053C8.5 13.7942 10.0697 12.25 12 12.25C13.8659 12.25 15.395 13.693 15.4948 15.5155L15.5 15.7053L15.5 17.889C15.5 18.3033 15.1642 18.639 14.75 18.639C14.3703 18.639 14.0565 18.3569 14.0068 17.9908L14 17.889L14 15.7053C14 14.6282 13.1073 13.75 12 13.75C10.943 13.75 10.0816 14.5502 10.0055 15.5597L10 15.7053L10 21C10 21.4142 9.66422 21.75 9.25 21.75L9.20401 21.747L9.15891 21.75L5.43243 21.75C3.73538 21.75 2.34866 20.4214 2.25504 18.7474L2.25 18.5668L2.25 12.4223C2.25 11.6303 2.54504 10.8695 3.07303 10.2861L3.22275 10.1315L10.8182 2.80136C11.5516 2.09357 12.6948 2.06876 13.4569 2.71805Z"
		fill-rule="evenodd" />
</svg>