<?xml version="1.0" encoding="UTF-8"?>
<svg  viewBox="0 0 20 20" version="1.1" xmlns="http://www.w3.org/2000/svg" xmlns:xlink="http://www.w3.org/1999/xlink">
    <title>上传图片-imageUpload</title>
    <defs>
        <rect id="path-1" x="0" y="0" width="20" height="20"></rect>
    </defs>
    <g id="图片" stroke="none" stroke-width="1" fill="none" fill-rule="evenodd">
        <g transform="translate(-106.000000, -2198.000000)" id="编组-3">
            <g transform="translate(52.000000, 2157.000000)">
                <g id="编组-2" transform="translate(36.000000, 41.000000)">
                    <g id="上传图片-imageUpload" transform="translate(18.000000, 0.000000)">
                        <mask id="mask-2" fill="white">
                            <use xlink:href="#path-1"></use>
                        </mask>
                        <g></g>
                        <path d="M10.5,5.75 C10.5,6.825 11.4125,7.75 12.5,7.75 C13.575,7.75 14.5,6.825 14.5,5.75 C14.5,4.6625 13.575,3.75 12.5,3.75 C11.4125,3.6625 10.5,4.575 10.5,5.75 Z M13.25,5.75 C13.25,6.1625 12.9125,6.5 12.5,6.5 C12.075,6.5 11.75,6.1625 11.75,5.75 C11.75,5.325 12.075,5 12.5,5 C12.9125,4.9125 13.25,5.25 13.25,5.75 Z M12.25,11.25 L11.25,12.25 C10.6625,12.825 9.825,12.825 9.25,12.25 L5.575,8.6625 C5.5,8.575 5.4125,8.575 5.325,8.6625 L2.25,11.75 L2.25,13.75 C2.25,14.9125 3.25,15.825 4.575,15.825 L9.75,15.825 C10.075,15.825 10.4125,16.075 10.4125,16.5 C10.4125,16.825 10.1625,17.1625 9.75,17.1625 L4.575,17.1625 C2.575,17.1625 1,15.6625 1,13.825 L1,4.325 C1,2.5 2.575,1 4.575,1 L14.9125,1 C16.9125,1 18.5,2.5 18.5,4.325 L18.5,9.1625 C18.5,9.5 18.25,9.825 17.825,9.825 C17.5,9.825 17.1625,9.575 17.1625,9.1625 L17.1625,4.325 C17.1625,3.1625 16.1625,2.25 14.825,2.25 L4.575,2.25 C3.325,2.325 2.325,3.25 2.325,4.325 L2.325,10 L4.575,7.825 C5.1625,7.25 6,7.25 6.575,7.825 L10.25,11.4125 C10.325,11.5 10.4125,11.5 10.5,11.4125 L11.5,10.4125 C11.75,10.1625 12.1625,10.1625 12.4125,10.4125 C12.6625,10.6625 12.5,11 12.25,11.25 Z M17.9942519,17.4155907 C17.7644422,17.6454004 17.349017,17.7072723 17.0484966,17.4067519 L15.58125,15.9395053 L14.1051646,17.4155907 C13.8753549,17.6454004 13.4599297,17.7072723 13.1594093,17.4067519 C12.9295996,17.1769422 12.8677277,16.761517 13.1594093,16.4698354 L14.6354947,14.99375 L13.1594093,13.5176646 C12.9295996,13.2878549 12.8677277,12.8724297 13.1594093,12.5807481 C13.4599297,12.2802277 13.813483,12.2802277 14.1051646,12.5719093 L15.6431218,14.1098665 L17.1103684,12.64262 C17.349017,12.4039714 17.7644422,12.3420996 18.0561237,12.6337811 C18.2947723,12.8724297 18.3478053,13.2790161 18.0472849,13.5795364 L16.5800383,15.046783 L17.9942519,16.4609966 C18.2329004,16.6996451 18.2947723,17.1150703 17.9942519,17.4155907 Z" id="path" fill="currentColor" fill-rule="nonzero" mask="url(#mask-2)"></path>
                    </g>
                </g>
            </g>
        </g>
    </g>
</svg>