<svg viewBox="0 0 24 24" xmlns="http://www.w3.org/2000/svg"
	xmlns:xlink="http://www.w3.org/1999/xlink">
	<defs />
	<path id="矢量 38"
		d="M21.2449 5.27271C21.1507 3.58748 19.7542 2.25 18.0455 2.25L4.95454 2.25L4.77271 2.25507C3.08748 2.34935 1.75 3.74575 1.75 5.45454L1.75 18.5455L1.75507 18.7273C1.84935 20.4125 3.24576 21.75 4.95454 21.75L11.7 21.75L11.8018 21.7431C12.1678 21.6935 12.45 21.3797 12.45 21C12.45 20.5858 12.1142 20.25 11.7 20.25L4.95454 20.25L4.80746 20.2437C3.93494 20.1692 3.25 19.4373 3.25 18.5455L3.25 5.45454L3.25626 5.30747C3.33083 4.43494 4.0627 3.75 4.95454 3.75L18.0455 3.75L18.1925 3.75626C19.0651 3.83083 19.75 4.5627 19.75 5.45454L19.75 11.459L17.2314 9.08789C16.3241 8.28607 14.9011 8.30673 14.0208 9.13583L5.98576 16.704C5.75923 16.991 5.69586 17.4901 5.95404 17.7642C6.23805 18.0658 6.71271 18.08 7.01424 17.796L15.0493 10.2277C15.3707 10.0056 15.9408 9.94916 16.238 10.2118L19.9858 13.7415C20.2858 13.9504 20.7878 13.9839 21.0459 13.7097C21.1873 13.5596 21.2548 13.3666 21.2497 13.1756L21.25 5.45454L21.2449 5.27271ZM9.25 8C9.25 7.03351 8.46649 6.25 7.5 6.25C6.53351 6.25 5.75 7.03351 5.75 8C5.75 8.96649 6.53351 9.75 7.5 9.75C8.46649 9.75 9.25 8.96649 9.25 8ZM17.5 14.25C17.8797 14.25 18.1935 14.5322 18.2431 14.8982L18.25 15L18.25 17.249L20.5 17.25C20.9142 17.25 21.25 17.5858 21.25 18C21.25 18.3797 20.9678 18.6935 20.6018 18.7431L20.5 18.75L18.249 18.749L18.25 21C18.25 21.4142 17.9142 21.75 17.5 21.75C17.1203 21.75 16.8065 21.4678 16.7569 21.1018L16.75 21L16.749 18.749L14.5 18.75C14.0858 18.75 13.75 18.4142 13.75 18C13.75 17.6203 14.0322 17.3065 14.3982 17.2569L14.5 17.25L16.75 17.249L16.75 15C16.75 14.5858 17.0858 14.25 17.5 14.25Z"
		fill-rule="evenodd" />
</svg>