<?xml version="1.0" encoding="UTF-8"?>
<svg viewBox="0 0 24 24" version="1.1" xmlns="http://www.w3.org/2000/svg" xmlns:xlink="http://www.w3.org/1999/xlink">
    <g id="页面-1" stroke="none" stroke-width="1">
        <g id="画板" transform="translate(-319.000000, -2003.000000)">
            <g id="编组" transform="translate(319.000000, 2003.000000)">
                <path d="M16.9513379,3.00146484 C18.5756468,3.00146484 19.9033931,4.27120014 19.9961603,5.87225418 L20.0013379,6.05146484 L20.0013379,17.9526855 C20.0013379,19.5769944 18.7316026,20.9047408 17.1305486,20.997508 L16.9513379,21.0026855 L7.56806152,21.0026855 C5.94375263,21.0026855 4.6160063,19.7329502 4.5232391,18.1318962 L4.51806152,17.9526855 L4.51806152,16.5490723 C4.51806152,16.1348587 4.85384796,15.7990723 5.26806152,15.7990723 C5.64775729,15.7990723 5.96155248,16.0812261 6.01121491,16.4473017 L6.01806152,16.5490723 L6.01806152,17.9526855 C6.01806152,18.7611691 6.63705549,19.4250788 7.42697993,19.4963512 L7.56806152,19.5026855 L16.9513379,19.5026855 C17.7598214,19.5026855 18.4237311,18.8836916 18.4950035,18.0937671 L18.5013379,17.9526855 L18.5013379,6.05146484 C18.5013379,5.24298133 17.8823439,4.57907161 17.0924195,4.50779919 L16.9513379,4.50146484 L7.56806152,4.50146484 C6.75957801,4.50146484 6.09566829,5.12045881 6.02439587,5.91038325 L6.01806152,6.05146484 L6.01806152,7.54125977 C6.01806152,7.95547333 5.68227509,8.29125977 5.26806152,8.29125977 C4.88836576,8.29125977 4.57457056,8.00910588 4.52490814,7.64303032 L4.51806152,7.54125977 L4.51806152,6.05146484 C4.51806152,4.42715595 5.78779682,3.09940962 7.38885086,3.00664242 L7.56806152,3.00146484 L16.9513379,3.00146484 Z M8.06478271,8.6398796 C8.32817135,8.45101263 8.68638577,8.45340335 8.94737376,8.64705176 L8.94737376,8.64705176 L9.0314922,8.71966991 L11.7824922,11.4706699 L11.8622735,11.5646082 C12.051123,11.8279615 12.0487654,12.1861249 11.8551831,12.4471132 L11.8551831,12.4471132 L11.7825886,12.5312337 L9.03158856,15.2832337 L8.94748332,15.3558671 C8.65391142,15.573775 8.23724335,15.5496446 7.9709284,15.2834264 C7.70461346,15.0172083 7.68033169,14.600549 7.89813279,14.3068979 L7.89813279,14.3068979 L7.97073566,14.2227663 L9.44216211,12.75 L2.74866211,12.751 L2.64689155,12.7441534 C2.28081599,12.694491 1.99866211,12.3806958 1.99866211,12.001 C1.99866211,11.6213042 2.28081599,11.307509 2.64689155,11.2578466 L2.64689155,11.2578466 L2.74866211,11.251 L9.44216211,11.25 L7.97083202,9.78033009 L7.89104171,9.6863794 C7.70217474,9.42299076 7.70456546,9.06477634 7.89821387,8.80378835 L7.89821387,8.80378835 L7.97083202,8.71966991 Z" id="形状结合"></path>
            </g>
        </g>
    </g>
</svg>