<svg viewBox="0 0 24 24" xmlns="http://www.w3.org/2000/svg"
	xmlns:xlink="http://www.w3.org/1999/xlink">
	<defs />
	<g opacity="0.000000" />
	<path id="矢量 91"
		d="M18.3238 21.75L8.46545 21.7273C6.64667 21.7231 5.15222 20.3404 5.05463 18.5876L5.04956 18.405L5.04956 17.1477C5.04956 16.7335 5.38538 16.3977 5.79956 16.3977C6.17926 16.3977 6.49304 16.6799 6.54272 17.046L6.54956 17.1477L6.54956 18.405C6.54956 19.3556 7.32257 20.1462 8.31805 20.2215L8.46893 20.2273L18.3255 20.25C19.3436 20.25 20.1677 19.5039 20.2438 18.5692L20.2496 18.4277L20.2496 5.57233C20.2496 4.62015 19.474 3.82874 18.4767 3.75552L18.3255 3.75L8.47363 3.75C7.45557 3.75 6.63147 4.49606 6.5553 5.43076L6.54956 5.57233L6.54956 6.85104C6.54956 7.26526 6.21381 7.60104 5.79956 7.60104C5.41986 7.60104 5.10608 7.31888 5.0564 6.95282L5.04956 6.85104L5.04956 5.57233C5.04956 3.79218 6.48804 2.34912 8.28638 2.25488L8.47363 2.25L18.3255 2.25C20.1473 2.25 21.6465 3.63373 21.7445 5.3894L21.7496 5.57233L21.7496 18.4277C21.7496 20.2078 20.3111 21.6509 18.5112 21.7451L18.3238 21.75ZM10.7802 9.07474C10.4901 8.77908 10.0153 8.77457 9.7196 9.06464C9.45081 9.32837 9.42261 9.74478 9.63763 10.0405L9.70947 10.1253L10.813 11.25L2.99951 11.25C2.58533 11.25 2.24951 11.5858 2.24951 12C2.24951 12.3797 2.53168 12.6935 2.89777 12.7432L2.99951 12.75L10.813 12.75L9.70947 13.8748C9.44574 14.1436 9.42554 14.5604 9.64618 14.8519L9.7196 14.9354C9.98834 15.1991 10.4052 15.2193 10.6968 14.9987L10.7802 14.9253L13.1349 12.5253C13.3951 12.2601 13.4187 11.8499 13.2059 11.5584L13.1349 11.4748L10.7802 9.07474Z"
		fill-rule="evenodd" />
</svg>