<svg viewBox="0 0 24 24" xmlns="http://www.w3.org/2000/svg"
	xmlns:xlink="http://www.w3.org/1999/xlink">
	<defs />
	<path id="形状"
		d="M12 1.25C17.9371 1.25 22.75 6.06294 22.75 12C22.75 17.9371 17.9371 22.75 12 22.75C6.06293 22.75 1.25 17.9371 1.25 12C1.25 6.06294 6.06293 1.25 12 1.25ZM10.75 7C10.75 6.30965 11.3096 5.75 12 5.75C12.6904 5.75 13.25 6.30965 13.25 7C13.25 7.69035 12.6904 8.25 12 8.25C11.3096 8.25 10.75 7.69035 10.75 7ZM12 9.75C11.5858 9.75 11.25 10.0858 11.25 10.5L11.25 17.5L11.2568 17.6018C11.3065 17.9678 11.6203 18.25 12 18.25C12.4142 18.25 12.75 17.9142 12.75 17.5L12.75 10.5L12.7432 10.3982C12.6935 10.0322 12.3797 9.75 12 9.75Z"
		clip-rule="evenodd" fill-rule="evenodd" fill-opacity="1.000000" />
</svg>