<svg viewBox="0 0 24 24" xmlns="http://www.w3.org/2000/svg"
	xmlns:xlink="http://www.w3.org/1999/xlink">
	<defs />
	<path id="矢量 33"
		d="M18.0015 3.08001C16.2417 1.89378 14.1678 1.25 12 1.25C6.06294 1.25 1.25 6.06294 1.25 12C1.25 17.9371 6.06294 22.75 12 22.75C17.9371 22.75 22.75 17.9371 22.75 12C22.75 9.85529 22.1199 7.80241 20.9572 6.05412L20.8275 5.86353C20.5908 5.52361 20.1234 5.43994 19.7834 5.67664C19.4435 5.91335 19.3599 6.3808 19.5966 6.72071L19.7082 6.88477L19.9021 7.18899C20.7783 8.62442 21.25 10.2763 21.25 12C21.25 17.1086 17.1086 21.25 12 21.25C6.89137 21.25 2.75 17.1086 2.75 12C2.75 6.89137 6.89137 2.75 12 2.75C13.8668 2.75 15.6491 3.3033 17.1631 4.32383C17.5066 4.55534 17.9727 4.46458 18.2042 4.12112C18.4357 3.77764 18.345 3.31152 18.0015 3.08001ZM13.25 7C13.25 6.30965 12.6904 5.75 12 5.75C11.3096 5.75 10.75 6.30965 10.75 7C10.75 7.69035 11.3096 8.25 12 8.25C12.6904 8.25 13.25 7.69035 13.25 7ZM12 9.75C12.3797 9.75 12.6935 10.0322 12.7431 10.3982L12.75 10.5L12.75 17.5C12.75 17.9142 12.4142 18.25 12 18.25C11.6203 18.25 11.3065 17.9678 11.2569 17.6018L11.25 17.5L11.25 10.5C11.25 10.0858 11.5858 9.75 12 9.75Z"
		fill-rule="evenodd" />
</svg>