<?xml version="1.0" encoding="UTF-8"?>
<svg viewBox="0 0 24 24" version="1.1" xmlns="http://www.w3.org/2000/svg" xmlns:xlink="http://www.w3.org/1999/xlink">
    <g id="页面-1" stroke="none" stroke-width="1">
        <g id="画板" transform="translate(-789.000000, -2006.000000)">
            <g id="编组" transform="translate(789.000000, 2006.000000)">
                <path d="M12,2 C17.514,2 22,6.486 22,12 C22,17.514 17.514,22 12,22 C6.486,22 2,17.514 2,12 C2,6.486 6.486,2 12,2 Z M12,9.876 C11.586,9.876 11.25,10.212 11.25,10.626 L11.25,10.626 L11.25,16.5 C11.25,16.914 11.586,17.25 12,17.25 C12.414,17.25 12.75,16.914 12.75,16.5 L12.75,16.5 L12.75,10.626 C12.75,10.212 12.414,9.876 12,9.876 Z M12,6.5 C11.447,6.5 11,6.947 11,7.5 C11,8.053 11.447,8.5 12,8.5 C12.553,8.5 13,8.053 13,7.5 C13,6.947 12.553,6.5 12,6.5 Z" id="形状结合"></path>
            </g>
        </g>
    </g>
</svg>