<?xml version="1.0" encoding="UTF-8"?>
<svg viewBox="0 0 24 24" version="1.1" xmlns="http://www.w3.org/2000/svg"
    xmlns:xlink="http://www.w3.org/1999/xlink">
    <g id="S12组件" stroke="none" stroke-width="1">
        <g id="lnformation">
            <rect id="矩形" opacity="0" x="0" y="0" width="24" height="24"></rect>
            <path
                d="M12.015,2.74993541 C17.6485625,2.74993541 22.278,6.65981297 22.278,11.5339354 C22.278,16.4088863 17.6487572,20.3189354 12.015,20.3189354 C11.492789,20.3189354 10.9662868,20.2774906 10.4508441,20.2143752 C10.0397014,20.1640312 9.7472162,19.7899223 9.79756021,19.3787795 C9.84790422,18.9676368 10.2220131,18.6751516 10.6331559,18.7254956 C11.0933132,18.7818414 11.5645444,18.8189354 12.015,18.8189354 C16.8711582,18.8189354 20.778,15.519056 20.778,11.5339354 C20.778,7.54967668 16.8709861,4.24993541 12.015,4.24993541 C7.15794986,4.24993541 3.25,7.54974885 3.25,11.5339354 C3.25,13.1414177 4.01283426,14.8118316 5.34150727,16.1668336 C5.49474061,16.3231034 5.57206891,16.5385107 5.55321067,16.756559 C5.48418194,17.5547038 5.28070931,18.3568983 4.98048203,19.1428301 L4.828,19.5169354 L5.05882683,19.4586931 C5.31762731,19.3870017 5.57307052,19.3048797 5.82197337,19.211742 L6.19002448,19.0637005 C6.74636956,18.8234909 7.22999557,18.5349773 7.62148518,18.1977143 C7.93530504,17.9273627 8.40886955,17.9626007 8.67922112,18.2764206 C8.94957269,18.5902405 8.91433468,19.063805 8.60051482,19.3341565 C8.08457933,19.778628 7.47222358,20.143937 6.78461524,20.4408213 C6.07282957,20.7481445 5.31788963,20.9673048 4.56403819,21.1150549 L4.2000486,21.1810343 C3.9181574,21.2277915 3.69206676,21.2546556 3.53840355,21.266658 C2.92052391,21.3149197 2.51406712,20.6354606 2.8487959,20.1138658 L2.9832808,19.8852935 L3.0321752,19.7967268 C3.17847252,19.5283317 3.32539488,19.2263113 3.4624806,18.8990551 C3.68971974,18.3565813 3.86390685,17.8076929 3.96822352,17.2685577 L4.021,16.9529354 L3.8343823,16.7427957 C2.58129577,15.2883394 1.83173091,13.5583157 1.75630049,11.8231338 L1.75,11.5339354 C1.75,6.65980066 6.38043067,2.74993541 12.015,2.74993541 Z M7.4998,10.2499354 C8.1898,10.2499354 8.7498,10.8099354 8.7498,11.4999354 C8.7498,12.1899354 8.1898,12.7499354 7.4998,12.7499354 C6.8098,12.7499354 6.2498,12.1899354 6.2498,11.4999354 C6.2498,10.8099354 6.8098,10.2499354 7.4998,10.2499354 Z M16.4998,10.2499354 C17.1898,10.2499354 17.7498,10.8099354 17.7498,11.4999354 C17.7498,12.1899354 17.1898,12.7499354 16.4998,12.7499354 C15.8098,12.7499354 15.2498,12.1899354 15.2498,11.4999354 C15.2498,10.8099354 15.8098,10.2499354 16.4998,10.2499354 Z M11.9998,10.2499354 C12.6898,10.2499354 13.2498,10.8099354 13.2498,11.4999354 C13.2498,12.1899354 12.6898,12.7499354 11.9998,12.7499354 C11.3098,12.7499354 10.7498,12.1899354 10.7498,11.4999354 C10.7498,10.8099354 11.3098,10.2499354 11.9998,10.2499354 Z"
                id="形状结合"></path>
        </g>
    </g>
</svg>