<?xml version="1.0" encoding="UTF-8"?>
<svg viewBox="0 0 24 24" version="1.1" xmlns="http://www.w3.org/2000/svg" xmlns:xlink="http://www.w3.org/1999/xlink">
    <g id="页面-1" stroke="none" stroke-width="1">
        <g id="画板" transform="translate(-635.000000, -2006.000000)">
            <g id="编组" transform="translate(635.000000, 2006.000000)">
                <path d="M12,2 C14.2170341,2 16.3258236,2.72418837 18.0532894,4.03924114 C18.3828702,4.29013825 18.446656,4.76070858 18.1957589,5.0902894 C17.9448618,5.41987022 17.4742914,5.48365597 17.1447106,5.23275886 C15.6761624,4.11481002 13.8858755,3.5 12,3.5 C7.30585564,3.5 3.5,7.30557146 3.5,12 C3.5,16.6937864 7.30621356,20.5 12,20.5 C16.6944285,20.5 20.5,16.6941444 20.5,12 C20.5,10.1146074 19.8858507,8.32533664 18.7681003,6.85610438 C18.5173054,6.52644579 18.581237,6.05589525 18.9108956,5.80510033 C19.2405542,5.55430541 19.7111047,5.61823704 19.9618997,5.94789562 C21.2765776,7.67598035 22,9.78360864 22,12 C22,17.5225464 17.5228807,22 12,22 C6.47778644,22 2,17.5222136 2,12 C2,6.47711926 6.47745359,2 12,2 Z M12,9.876 C12.3796958,9.876 12.693491,10.1581539 12.7431534,10.5242294 L12.75,10.626 L12.75,16.5 C12.75,16.9142136 12.4142136,17.25 12,17.25 C11.6203042,17.25 11.306509,16.9678461 11.2568466,16.6017706 L11.25,16.5 L11.25,10.626 C11.25,10.2117864 11.5857864,9.876 12,9.876 Z M12,6.5 C12.553,6.5 13,6.948 13,7.5 C13,8.052 12.553,8.5 12,8.5 C11.447,8.5 11,8.052 11,7.5 C11,6.948 11.447,6.5 12,6.5 Z" id="形状结合"></path>
            </g>
        </g>
    </g>
</svg>