<?xml version="1.0" encoding="UTF-8"?>
<svg viewBox="0 0 24 24" version="1.1" xmlns="http://www.w3.org/2000/svg" xmlns:xlink="http://www.w3.org/1999/xlink">
    <g id="S12组件" stroke="none" stroke-width="1">
        <g id="lnfo">
            <g id="编组">
                <rect id="矩形" opacity="0" x="0" y="0" width="24" height="24"></rect>
                <path d="M12,2 C14.2170343,2 16.3258238,2.72418839 18.0532894,4.03924108 C18.3828697,4.29013824 18.4466553,4.76070857 18.1957588,5.09028935 C17.9448614,5.41987014 17.4742918,5.48365593 17.1447105,5.23275876 C15.6761627,4.11480999 13.8858757,3.5 12,3.5 C7.30585575,3.5 3.5,7.30557156 3.5,12 C3.5,16.6937866 7.30621338,20.5 12,20.5 C16.6944284,20.5 20.5,16.6941442 20.5,12 C20.5,10.1146078 19.8858509,8.32533646 18.7681007,6.85610437 C18.5173054,6.52644587 18.5812378,6.05589533 18.9108963,5.80510044 C19.2405548,5.55430532 19.7111053,5.61823702 19.9618988,5.94789553 C21.276577,7.67598057 22,9.78360844 22,12 C22,17.5225468 17.5228806,22 12,22 C6.47778654,22 2,17.5222139 2,12 C2,6.47711945 6.47745371,2 12,2 Z M12,9.87599993 C12.3796958,9.87599993 12.693491,10.1581538 12.7431533,10.5242293 L12.75,10.6259999 L12.75,16.5 C12.75,16.9142137 12.4142135,17.25 12,17.25 C11.6203042,17.25 11.306509,16.9678459 11.2568466,16.6017704 L11.25,16.5 L11.25,10.6259999 C11.25,10.2117864 11.5857864,9.87599993 12,9.87599993 Z M12,6.5 C12.3686666,6.5 12.702,6.83333333 13,7.5 C13,8.05200005 12.553,8.5 12,8.5 C11.447,8.5 11,8.05200005 11,7.5 C11,6.94800001 11.447,6.5 12,6.5 Z" id="形状结合"></path>
            </g>
        </g>
    </g>
</svg>