<svg viewBox="0 0 24 24" xmlns="http://www.w3.org/2000/svg"
	xmlns:xlink="http://www.w3.org/1999/xlink">
	<g clip-path="url(#clip131_1886)">
		<path id="矢量 162"
			d="M20 2L4 2C2.89545 2 2 2.89539 2 4L2 7C2 8.10461 2.89545 9 4 9C2.89545 9 2 9.89539 2 11L2 13C2 14.1046 2.89545 15 4 15C2.89545 15 2 15.8954 2 17L2 20C2 21.1046 2.89545 22 4 22L12.101 22C10.8044 20.7295 10 18.9587 10 17C10 13.134 13.134 10 17 10C18.9587 10 20.7295 10.8044 22 12.1011L22 11C22 9.89539 21.1046 9 20 9C21.1046 9 22 8.10461 22 7L22 4C22 2.89539 21.1046 2 20 2ZM4.75 4.75L7.25 4.75C7.66418 4.75 8 5.08582 8 5.5C8 5.91418 7.66418 6.25 7.25 6.25L4.75 6.25C4.33582 6.25 4 5.91418 4 5.5C4 5.08582 4.33582 4.75 4.75 4.75ZM7.25 11.25L4.75 11.25C4.33582 11.25 4 11.5858 4 12C4 12.4142 4.33582 12.75 4.75 12.75L7.25 12.75C7.66418 12.75 8 12.4142 8 12C8 11.5858 7.66418 11.25 7.25 11.25ZM11.5 17C11.5 13.9624 13.9625 11.5 17 11.5C20.0376 11.5 22.5 13.9624 22.5 17C22.5 20.0376 20.0376 22.5 17 22.5C13.9625 22.5 11.5 20.0376 11.5 17ZM17 13.5C16.4477 13.5 16 13.9478 16 14.5C16 15.0522 16.4477 15.5 17 15.5C17.5523 15.5 18 15.0522 18 14.5C18 13.9478 17.5523 13.5 17 13.5ZM17 16.5C16.5858 16.5 16.25 16.8358 16.25 17.25L16.25 19.75C16.25 20.1642 16.5858 20.5 17 20.5C17.4142 20.5 17.75 20.1642 17.75 19.75L17.75 17.25C17.75 16.8358 17.4142 16.5 17 16.5ZM4.75 17.75L7.25 17.75C7.66418 17.75 8 18.0858 8 18.5C8 18.9142 7.66418 19.25 7.25 19.25L4.75 19.25C4.33582 19.25 4 18.9142 4 18.5C4 18.0858 4.33582 17.75 4.75 17.75Z"
			fill-opacity="1.000000" fill-rule="evenodd" />
	</g>
</svg>