<?xml version="1.0" encoding="UTF-8"?>
<svg viewBox="0 0 24 24" version="1.1" xmlns="http://www.w3.org/2000/svg" xmlns:xlink="http://www.w3.org/1999/xlink">
    <g id="S12组件" stroke="none" stroke-width="1" fill-rule="evenodd">
        <g id="leave" fill-rule="nonzero">
            <rect id="矩形" fill="#D8D8D8" opacity="0" x="0" y="0" width="24" height="24"></rect>
            <path d="M12,6.25 C10.4549048,6.25 9.00502426,6.86324774 7.934136,7.934136 C6.86324774,9.00502426 6.25,10.4549048 6.25,12 C6.25,13.5450952 6.86324775,14.9949758 7.934136,16.065864 C9.00502428,17.1367522 10.4549048,17.75 12,17.75 C13.5450952,17.75 14.9949757,17.1367522 16.065864,16.065864 C17.1367522,14.9949757 17.75,13.5450952 17.75,12 C17.75,10.4549048 17.1367522,9.00502428 16.065864,7.934136 C14.9949758,6.86324775 13.5450952,6.25 12,6.25 Z M12,7.75 C13.1431814,7.75 14.2128315,8.20242385 15.0052038,8.99479616 C15.7975761,9.78716852 16.25,10.8568186 16.25,12 C16.25,13.1431814 15.7975761,14.2128315 15.0052038,15.0052038 C14.2128315,15.7975761 13.1431814,16.25 12,16.25 C10.8568186,16.25 9.78716852,15.7975761 8.99479616,15.0052038 C8.20242385,14.2128315 7.75,13.1431814 7.75,12 C7.75,10.8568186 8.20242384,9.78716851 8.99479618,8.99479618 C9.78716851,8.20242384 10.8568186,7.75 12,7.75 Z" id="椭圆形"></path>
        </g>
    </g>
</svg>