<?xml version="1.0" encoding="UTF-8"?>
<svg viewBox="0 0 24 24" version="1.1" xmlns="http://www.w3.org/2000/svg" xmlns:xlink="http://www.w3.org/1999/xlink">
    <g id="S12组件" stroke="none" stroke-width="1">
        <g id="LeftFrozen">
            <g id="编组备份" transform="translate(3.000000, 3.000000)">
                <path d="M11,0.75 C13.2450375,0.75 15.1288402,2.23052678 15.2443855,4.16823032 L15.25,4.35714286 L15.2494162,7.1346471 C16.771872,7.55457707 17.9061507,8.91041178 17.9944571,10.5443561 L18,10.75 L18,13.25 C18,15.2542592 16.4276389,16.8912737 14.4491586,16.994802 L14.25,17 L7.75,17 C5.74574083,17 4.10872626,15.4276389 4.00519801,13.4491586 L4,13.25 L4,10.75 C4,9.02538792 5.16419939,7.57268917 6.74957695,7.13492497 L6.75,4.35714286 C6.75,2.32758524 8.68254192,0.75 11,0.75 Z M0.75,1 C1.12969577,1 1.44349096,1.28215388 1.49315338,1.64822944 L1.5,1.75 L1.5,16.25 C1.5,16.6642136 1.16421356,17 0.75,17 C0.370304234,17 0.0565090391,16.7178461 0.006846616,16.3517706 L0,16.25 L0,1.75 C0,1.33578644 0.335786438,1 0.75,1 Z M14.25,8.5 L7.75,8.5 C6.55913601,8.5 5.58435508,9.42516159 5.50519081,10.5959512 L5.5,10.75 L5.5,13.25 C5.5,14.440864 6.42516159,15.4156449 7.59595119,15.4948092 L7.75,15.5 L14.25,15.5 C15.440864,15.5 16.4156449,14.5748384 16.4948092,13.4040488 L16.5,13.25 L16.5,10.75 C16.5,9.50735931 15.4926407,8.5 14.25,8.5 Z M11,9.50475 C11.3796958,9.50475 11.693491,9.7869039 11.7431534,10.1529794 L11.75,10.25475 L11.7517468,12.2512935 C12.0543061,12.4794977 12.25,12.8419594 12.25,13.24985 C12.25,13.93985 11.69,14.49985 11,14.49985 C10.31,14.49985 9.75,13.93985 9.75,13.24985 C9.75,12.8415102 9.9461252,12.4786994 10.2492532,12.25054 L10.25,10.25475 C10.25,9.8405364 10.5857864,9.50475 11,9.50475 Z M11,2.25 C9.51340624,2.25 8.3466725,3.15389387 8.25571235,4.22273241 L8.25,4.35714286 L8.249,7 L13.749,7 L13.75,4.35714286 C13.75,3.23078763 12.5485351,2.25 11,2.25 Z" id="形状"></path>
            </g>
        </g>
    </g>
</svg>