<svg viewBox="0 0 24 24" xmlns="http://www.w3.org/2000/svg"
	xmlns:xlink="http://www.w3.org/1999/xlink">
	<defs />
	<path id="形状结合"
		d="M7.37347 13.6384L13.072 19.9577C13.5268 20.462 14.1721 20.75 14.8493 20.75C16.1769 20.75 17.25 19.6659 17.25 18.3324L17.25 5.66759C17.25 4.98724 16.9653 4.33798 16.4651 3.87962C15.4822 2.97882 13.9599 3.05365 13.0687 4.04602L7.37012 10.3916C6.54199 11.3137 6.54346 12.718 7.37347 13.6384ZM14.1847 5.04826L8.48615 11.3938C8.17078 11.745 8.17133 12.2834 8.48743 12.6339L14.186 18.9532C14.3568 19.1426 14.5975 19.25 14.8493 19.25C15.345 19.25 15.75 18.8409 15.75 18.3324L15.75 5.66759C15.75 5.40709 15.6413 5.15926 15.4517 4.98545C15.0842 4.64862 14.5186 4.67641 14.1847 5.04826Z"
		clip-rule="evenodd" fill-rule="evenodd" fill-opacity="1.000000" />
</svg>