<svg viewBox="0 0 24 24" xmlns="http://www.w3.org/2000/svg"
	xmlns:xlink="http://www.w3.org/1999/xlink">
	<defs />
	<path id="矢量 43"
		d="M14.25 2.5C16.7909 2.5 18.8809 4.40063 18.9951 6.80722L19 7.01471L19 8.5L19.0395 8.5C20.6857 8.5 22 9.90149 22 11.6071L22 17.8929C22 19.5985 20.6857 21 19.0395 21L9.46051 21C7.81433 21 6.5 19.5985 6.5 17.8929L6.5 11.6071C6.5 9.90149 7.81433 8.5 9.46051 8.5L9.5 8.5L9.5 7.01471C9.5 4.5108 11.6365 2.5 14.25 2.5ZM3.99316 3.64823C3.94348 3.28215 3.6297 3 3.25 3C2.83582 3 2.5 3.33578 2.5 3.75L2.5 20.75L2.50684 20.8518C2.55652 21.2178 2.8703 21.5 3.25 21.5C3.66418 21.5 4 21.1642 4 20.75L4 3.75L3.99316 3.64823ZM17.5 7.01471L17.5 8.5L11 8.5L11 7.01471L11.0051 6.84465C11.1001 5.26804 12.5074 4 14.25 4C16.0547 4 17.5 5.36024 17.5 7.01471ZM19.0395 10C19.835 10 20.5 10.7092 20.5 11.6071L20.5 17.8929C20.5 18.7908 19.835 19.5 19.0395 19.5L9.46051 19.5C8.66504 19.5 8 18.7908 8 17.8929L8 11.6071C8 10.7092 8.66504 10 9.46051 10L19.0395 10ZM14.25 11.5C14.6297 11.5 14.9435 11.7822 14.9932 12.1482L15 12.25L15 14.75C15 15.1642 14.6642 15.5 14.25 15.5C13.8703 15.5 13.5565 15.2178 13.5068 14.8518L13.5 14.75L13.5 12.25C13.5 11.8358 13.8358 11.5 14.25 11.5ZM15.2499 17.238C15.2432 17.7903 14.7901 18.2433 14.2379 18.2499C13.6856 18.2565 13.2433 17.8142 13.2501 17.262C13.2568 16.7097 13.7099 16.2567 14.2621 16.2501C14.8144 16.2435 15.2567 16.6858 15.2499 17.238Z"
		fill-rule="evenodd" />
</svg>