<svg viewBox="0 0 24 24" xmlns="http://www.w3.org/2000/svg"
	xmlns:xlink="http://www.w3.org/1999/xlink">
	<defs />
	<path id="矢量 54"
		d="M3 3.25C3.3797 3.25 3.69348 3.53215 3.74316 3.89822L3.75 4L3.75 18.3C3.75 19.328 4.54547 20.1702 5.55444 20.2447L5.70001 20.25L21 20.25C21.4142 20.25 21.75 20.5858 21.75 21C21.75 21.3797 21.4678 21.6935 21.1018 21.7431L21 21.75L5.70001 21.75C3.85815 21.75 2.35339 20.3066 2.25513 18.4893L2.25 18.3L2.25 4C2.25 3.58578 2.58582 3.25 3 3.25ZM20.9655 7.41196C21.2607 7.64569 21.3329 8.05678 21.1505 8.37358L15.5464 15.4655C15.2574 15.8305 14.7186 15.8415 14.4124 15.5145L11.104 10.732L7.07184 15.4853C6.82825 15.7724 6.41492 15.8305 6.10449 15.6374C5.81738 15.3937 5.66949 14.9149 5.86267 14.6045L10.5948 9.01535C10.8896 8.66789 11.4148 8.66632 11.7142 8.98781L14.999 13.739L19.912 7.53447C20.1691 7.20972 20.6407 7.15486 20.9655 7.41196Z"
		fill-rule="evenodd" />
</svg>