<?xml version="1.0" encoding="UTF-8"?>
<svg viewBox="0 0 24 24" version="1.1" xmlns="http://www.w3.org/2000/svg" xmlns:xlink="http://www.w3.org/1999/xlink">
    <g id="页面-1" stroke="none" stroke-width="1">
        <g id="画板" transform="translate(-789.000000, -2146.000000)">
            <g id="编组" transform="translate(789.000000, 2146.000000)">
                <path d="M3.75,3 C4.12969577,3 4.44349096,3.28215388 4.49315338,3.64822944 L4.5,3.75 L4.5,18 C4.5,18.7800343 5.0945698,19.4204885 5.85548382,19.4931369 L6,19.5 L20.25,19.5 C20.6642136,19.5 21,19.8357864 21,20.25 C21,20.6296958 20.7178461,20.943491 20.3517706,20.9931534 L20.25,21 L6,21 C4.40197264,21 3.09631437,19.7514141 3.00509137,18.1763086 L3,18 L3,3.75 C3,3.33578644 3.33578644,3 3.75,3 Z M19.9269075,6.38335586 C20.2365104,6.5976963 20.334861,7.00330905 20.1730434,7.33115556 L20.1166441,7.42690748 L15.6166441,13.9269075 C15.3200527,14.3553174 14.6992504,14.3519339 14.4004442,13.9511024 L14.3415783,13.8591391 L11.914,9.4094 L7.6103001,15.4359286 C7.39143034,15.7423463 6.98441526,15.8347221 6.65898362,15.6681012 L6.56407135,15.6103001 C6.25765368,15.3914303 6.16527789,14.9844153 6.33189878,14.6589836 L6.3896999,14.5640714 L11.3896999,7.56407135 C11.6899482,7.1437237 12.3040622,7.15165834 12.6000868,7.54962613 L12.6584217,7.6408609 L15.075,12.0724 L18.8833559,6.57309252 C19.1191303,6.23252936 19.5863443,6.14758136 19.9269075,6.38335586 Z" id="形状结合"></path>
            </g>
        </g>
    </g>
</svg>