<svg viewBox="0 0 24 24" xmlns="http://www.w3.org/2000/svg"
	xmlns:xlink="http://www.w3.org/1999/xlink">
	<defs />
	<path id="矢量 53"
		d="M12.8949 4.45724C14.8915 2.46062 18.1116 2.43733 20.0872 4.4129C22.012 6.33783 22.0393 9.44423 20.1925 11.4492L20.0428 11.6052L17.4752 14.1727C17.1824 14.4656 16.7075 14.4656 16.4146 14.1727C16.1461 13.9042 16.1238 13.4828 16.3475 13.1888L16.4146 13.112L18.9822 10.5445C20.3964 9.13025 20.4128 6.85989 19.0265 5.47357C17.6849 4.13196 15.5153 4.10406 14.095 5.38541L13.9556 5.51791L11.3784 8.09506C11.0854 8.38794 10.6106 8.38794 10.3177 8.09505C10.0492 7.82657 10.0269 7.40515 10.2506 7.11121L10.3177 7.03439L12.8949 4.45724ZM9.14856 16.4121L15.9122 9.6485L15.9792 9.57172C16.203 9.27774 16.1807 8.85634 15.9122 8.58784C15.6193 8.29495 15.1444 8.29495 14.8516 8.58784L8.08789 15.3515L8.02075 15.4283C7.797 15.7223 7.8194 16.1436 8.08789 16.4121C8.3808 16.705 8.85565 16.705 9.14856 16.4121ZM6.53442 10.8177C6.82733 10.5248 7.30219 10.5248 7.59509 10.8177C7.86359 11.0862 7.88599 11.5075 7.66223 11.8015L7.59509 11.8783L5.01453 14.4589C3.60229 15.8711 3.58716 18.14 4.97363 19.5264C6.31537 20.8682 8.4834 20.8972 9.90186 19.6178L10.0411 19.4855L12.606 16.9207C12.8988 16.6278 13.3737 16.6278 13.6666 16.9207C13.9351 17.1892 13.9575 17.6106 13.7338 17.9046L13.6666 17.9814L11.1018 20.5462C9.10693 22.541 5.88843 22.5625 3.91296 20.5871C1.98816 18.6623 1.95923 15.5573 3.80432 13.554L3.95386 13.3982L6.53442 10.8177Z"
		fill-rule="evenodd" />
</svg>