<?xml version="1.0" encoding="UTF-8"?>
<svg viewBox="0 0 24 24" version="1.1" xmlns="http://www.w3.org/2000/svg" xmlns:xlink="http://www.w3.org/1999/xlink">
    <g id="页面-1" stroke="none" stroke-width="1">
        <g id="画板" transform="translate(-1076.000000, -2138.000000)">
            <g id="编组" transform="translate(1076.000000, 2138.000000)">
                <path d="M8.28798979,10.0553411 C8.55425635,10.3216077 8.5784624,10.7382714 8.36060794,11.0318829 L8.28798979,11.1160013 L4.75181994,14.6521711 C3.48293962,15.9202391 3.48293962,17.9791034 4.75215946,19.2475109 C5.97425218,20.470386 7.92696189,20.5156776 9.20405145,19.3832343 L9.34832961,19.2473411 L12.8833296,15.7123411 C13.1762228,15.4194479 13.6510966,15.4194479 13.9439898,15.7123411 C14.2102563,15.9786077 14.2344624,16.3952714 14.0166079,16.6888829 L13.9439898,16.7730013 L10.4089898,20.3080013 C8.55306828,22.1639228 5.54606366,22.1639228 3.69149945,20.3081711 C1.89259553,18.5104188 1.83808329,15.6264144 3.52780787,13.7629835 L3.69132961,13.5913411 L7.22732961,10.0553411 C7.52022283,9.76244792 7.99509657,9.76244792 8.28798979,10.0553411 Z M16.0699898,7.93794114 C16.3362563,8.2042077 16.3604624,8.62087138 16.1426079,8.91448288 L16.0699898,8.99860131 L8.99898979,16.0696013 C8.70609657,16.3624945 8.23122283,16.3624945 7.93832961,16.0696013 C7.67206305,15.8033347 7.647857,15.3866711 7.86571146,15.0930596 L7.93832961,15.0089411 L15.0093296,7.93794114 C15.3022228,7.64504792 15.7770966,7.64504792 16.0699898,7.93794114 Z M20.3075502,3.69170173 C22.1076433,5.48949149 22.1621916,8.37374329 20.471573,10.2370014 L20.3079648,10.4086263 L16.7729648,13.9446263 C16.480113,14.2375609 16.0052393,14.2376281 15.7123046,13.9447763 C15.4460004,13.6785474 15.4217354,13.2618871 15.6395484,12.9682448 L15.7121546,12.8841161 L19.2475692,9.34770173 C20.5172232,8.07967242 20.5172232,6.02107003 19.2468902,4.75236168 C18.0257977,3.52970469 16.0724406,3.4844211 14.7960108,4.61688114 L14.6518148,4.7527763 L11.1158148,8.2877763 C10.8228801,8.5806281 10.3480064,8.58056094 10.0551546,8.2876263 C9.78892571,8.02132209 9.76477859,7.60465498 9.98267457,7.3110743 L10.0553046,7.22696614 L13.5910599,3.69221087 C15.4460202,1.83606302 18.4542868,1.83606302 20.3075502,3.69170173 Z" id="形状结合"></path>
            </g>
        </g>
    </g>
</svg>