<svg viewBox="0 0 24 24" xmlns="http://www.w3.org/2000/svg"
	xmlns:xlink="http://www.w3.org/1999/xlink">
	<defs />
	<g opacity="0.000000" />
	<path id="矢量 121"
		d="M19.5 2.5L4.5 2.5C3.67157 2.5 3 3.18878 3 4.03845L3 5.96155C3 6.81122 3.67157 7.5 4.5 7.5L19.5 7.5C20.3284 7.5 21 6.81122 21 5.96155L21 4.03845C21 3.18878 20.3284 2.5 19.5 2.5ZM4.5 9.5L19.5 9.5C20.3284 9.5 21 10.1888 21 11.0385L21 12.9615C21 13.8112 20.3284 14.5 19.5 14.5L4.5 14.5C3.67157 14.5 3 13.8112 3 12.9615L3 11.0385C3 10.1888 3.67157 9.5 4.5 9.5ZM19.5 16.5L4.5 16.5C3.67157 16.5 3 17.1888 3 18.0385L3 19.9615C3 20.8112 3.67157 21.5 4.5 21.5L19.5 21.5C20.3284 21.5 21 20.8112 21 19.9615L21 18.0385C21 17.1888 20.3284 16.5 19.5 16.5Z"
		fill-rule="evenodd" />
</svg>