<?xml version="1.0" encoding="UTF-8"?>
<svg viewBox="0 0 24 24" version="1.1" xmlns="http://www.w3.org/2000/svg" xmlns:xlink="http://www.w3.org/1999/xlink">
    <g id="S12组件" stroke="none" stroke-width="1">
        <g id="Loading">
            <g id="编组备份" transform="translate(2.000000, 2.000000)">
                <path d="M10,14.5 C10.3796958,14.5 10.693491,14.7821539 10.7431534,15.1482294 L10.75,15.25 L10.75,19.25 C10.75,19.6642136 10.4142136,20 10,20 C9.62030423,20 9.30650904,19.7178461 9.25684662,19.3517706 L9.25,19.25 L9.25,15.25 C9.25,14.8357864 9.58578644,14.5 10,14.5 Z M14.1658364,13.114859 L14.2426402,13.1819804 L17.0710674,16.0104075 C17.3639606,16.3033007 17.3639606,16.7781744 17.0710674,17.0710676 C16.802582,17.3395531 16.3811824,17.3619269 16.0872112,17.138189 L16.0104072,17.0710676 L13.1819801,14.2426405 C12.8890869,13.9497473 12.8890869,13.4748735 13.1819801,13.1819804 C13.4504655,12.9134949 13.8718652,12.8911211 14.1658364,13.114859 Z M6.81801939,13.1819804 C7.08650484,13.4504658 7.10887869,13.8718654 6.88514078,14.1658366 L6.81801939,14.2426406 L3.98959227,17.0710677 C3.69669909,17.3639609 3.22182531,17.3639609 2.9289321,17.0710677 C2.66044664,16.8025822 2.63807287,16.3811826 2.86181077,16.0872114 L2.9289321,16.0104075 L5.75735922,13.1819804 C6.05025247,12.8890871 6.52512617,12.8890872 6.81801939,13.1819804 Z M19.25,9.25 C19.6642136,9.25 20,9.5857864 20,10 C20,10.3796958 19.7178461,10.693491 19.3517706,10.7431534 L19.25,10.75 L15.25,10.75 C14.8357864,10.75 14.5,10.4142136 14.5,10 C14.5,9.6203042 14.7821539,9.306509 15.1482294,9.2568466 L15.25,9.25 L19.25,9.25 Z M4.75,9.25 C5.16421356,9.25 5.5,9.58578644 5.5,10 C5.5,10.3796958 5.21784612,10.693491 4.85177056,10.7431534 L4.75,10.75 L0.75,10.75 C0.3357864,10.75 0,10.4142136 0,10 C0,9.62030423 0.2821539,9.30650904 0.6482294,9.25684662 L0.75,9.25 L4.75,9.25 Z M3.91278882,2.86181099 L3.98959275,2.92893235 L6.81801987,5.75735948 C7.1109131,6.0502527 7.1109131,6.52512642 6.81801987,6.81801965 C6.54953443,7.08650509 6.12813479,7.10887889 5.83416365,6.88514101 L5.7573597,6.81801965 L2.92893258,3.98959252 C2.63603936,3.69669931 2.63603936,3.22182557 2.92893258,2.92893235 C3.19741803,2.6604469 3.61881767,2.63807312 3.91278882,2.86181099 Z M17.0710679,2.92893238 C17.3395533,3.19741778 17.3619271,3.61881742 17.1381892,3.91278855 L17.0710679,3.98959255 L14.2426408,6.81801968 C13.9497476,7.11091289 13.4748738,7.11091285 13.1819806,6.81801968 C12.9134951,6.5495342 12.8911213,6.12813456 13.1148592,5.83416343 L13.1819806,5.7573595 L16.0104077,2.92893238 C16.303301,2.63603916 16.7781747,2.63603913 17.0710679,2.92893238 Z M10,0 C10.3796958,0 10.693491,0.282153882 10.7431534,0.648229443 L10.75,0.75 L10.75,4.75 C10.75,5.16421356 10.4142136,5.5 10,5.5 C9.62030423,5.5 9.30650904,5.21784612 9.25684662,4.85177056 L9.25,4.75 L9.25,0.75 C9.25,0.335786438 9.58578644,0 10,0 Z" id="形状结合"></path>
            </g>
        </g>
    </g>
</svg>