<svg viewBox="0 0 24 24" xmlns="http://www.w3.org/2000/svg"
	xmlns:xlink="http://www.w3.org/1999/xlink">
	<defs />
	<g opacity="0.000000" />
	<path id="矢量 57"
		d="M12 1.25C12.3797 1.25 12.6935 1.53215 12.7432 1.89822L12.75 2L12.75 6.88373C12.75 7.29793 12.4142 7.63373 12 7.63373C11.6203 7.63373 11.3065 7.35156 11.2568 6.98549L11.25 6.88373L11.25 2C11.25 1.58578 11.5858 1.25 12 1.25ZM19.5333 4.46671C19.6797 4.61314 19.753 4.8051 19.753 4.99704C19.753 5.15408 19.7039 5.31113 19.6059 5.44325L19.5333 5.52737L16.1481 8.91257C15.8552 9.20546 15.3803 9.20546 15.0874 8.91257C14.941 8.76613 14.8677 8.57419 14.8677 8.38225C14.8677 8.2252 14.9168 8.06815 15.0148 7.93602L15.0874 7.85191L18.4726 4.46671C18.7655 4.17381 19.2404 4.17381 19.5333 4.46671ZM5.44324 4.39409L5.52737 4.46671L8.91257 7.85191C9.05902 7.99835 9.13223 8.19031 9.13223 8.38223C9.13223 8.57419 9.05902 8.76611 8.91257 8.91257C8.6463 9.17883 8.22964 9.20303 7.93604 8.98518L7.85193 8.91257L4.46671 5.52737C4.32025 5.38092 4.24704 5.18898 4.24704 4.99704C4.24704 4.8051 4.32025 4.61316 4.46671 4.46671C4.70337 4.23003 5.0589 4.1846 5.34119 4.33044L5.44324 4.39409ZM6.88373 11.25C7.29791 11.25 7.63373 11.5858 7.63373 12C7.63373 12.3797 7.35156 12.6935 6.98547 12.7431L6.88373 12.75L2 12.75C1.58578 12.75 1.25 12.4142 1.25 12C1.25 11.6203 1.53217 11.3065 1.89822 11.2569L2 11.25L6.88373 11.25ZM22 11.25C22.4142 11.25 22.75 11.5858 22.75 12C22.75 12.3797 22.4678 12.6935 22.1017 12.7431L22 12.75L17.1163 12.75C16.7021 12.75 16.3663 12.4142 16.3663 12C16.3663 11.6203 16.6484 11.3065 17.0145 11.2569L17.1163 11.25L22 11.25ZM8.91257 15.0874C9.05902 15.2339 9.13223 15.4258 9.13223 15.6178C9.13223 15.7748 9.08322 15.9318 8.98517 16.064L8.91257 16.1481L5.52737 19.5333C5.2345 19.8262 4.75958 19.8262 4.46671 19.5333C4.32025 19.3868 4.24704 19.1949 4.24704 19.003C4.24704 18.8459 4.29605 18.6889 4.3941 18.5567L4.46671 18.4726L7.85193 15.0874C8.14481 14.7945 8.61969 14.7945 8.91257 15.0874ZM16.064 15.0148L16.1481 15.0874L19.5333 18.4726C19.6797 18.6191 19.753 18.811 19.753 19.003C19.753 19.1949 19.6797 19.3868 19.5333 19.5333C19.267 19.7995 18.8503 19.8237 18.5567 19.6059L18.4726 19.5333L15.0874 16.1481C14.941 16.0016 14.8677 15.8097 14.8677 15.6178C14.8677 15.4258 14.941 15.2339 15.0874 15.0874C15.3241 14.8507 15.6796 14.8053 15.9619 14.9512L16.064 15.0148ZM12 16.3663C12.3797 16.3663 12.6935 16.6484 12.7432 17.0145L12.75 17.1163L12.75 22C12.75 22.4142 12.4142 22.75 12 22.75C11.6203 22.75 11.3065 22.4678 11.2568 22.1018L11.25 22L11.25 17.1163C11.25 16.7021 11.5858 16.3663 12 16.3663Z"
		fill-rule="evenodd" />
</svg>