<svg viewBox="0 0 24 24" xmlns="http://www.w3.org/2000/svg"
	xmlns:xlink="http://www.w3.org/1999/xlink">
	<defs />
	<g opacity="0.000000" />
	<path id="矢量 58"
		d="M17.7454 6.93373C17.6231 4.16922 15.0786 2 12 2C8.84442 2 6.25 4.27904 6.25 7.14215L6.25 9.01163C4.56738 9.15393 3.25 10.584 3.25 12.3214L3.25 19.1786C3.25 21.01 4.71387 22.5 6.52631 22.5L17.4737 22.5C19.2861 22.5 20.75 21.01 20.75 19.1786L20.75 12.3214C20.75 10.584 19.4326 9.15393 17.75 9.01163L17.75 7.14215L17.7454 6.93373ZM16.25 9L16.25 7.14215C16.25 5.15384 14.3673 3.5 12 3.5C9.7067 3.5 7.86813 5.05209 7.75546 6.95677L7.75 7.14215L7.75 9L16.25 9ZM19.25 12.3214C19.25 11.3125 18.4517 10.5 17.4737 10.5L6.52631 10.5C5.54828 10.5 4.75 11.3125 4.75 12.3214L4.75 19.1786C4.75 20.1875 5.54828 21 6.52631 21L17.4737 21C18.4517 21 19.25 20.1875 19.25 19.1786L19.25 12.3214ZM11.2514 17.0072L11.2514 13.25C11.2514 12.8358 11.5872 12.5 12.0014 12.5C12.3811 12.5 12.6949 12.7822 12.7446 13.1482L12.7514 13.25L12.7514 16.9927C13.059 17.2208 13.2564 17.5884 13.2513 18.0031C13.243 18.6864 12.6876 19.2417 12.0043 19.2499C11.3069 19.2583 10.743 18.6943 10.7515 17.9969C10.7564 17.5938 10.9518 17.2352 11.2514 17.0072Z"
		fill-rule="evenodd" />
</svg>