<svg viewBox="0 0 24 24" xmlns="http://www.w3.org/2000/svg"
	xmlns:xlink="http://www.w3.org/1999/xlink">
	<defs />
	<g opacity="0.000000" />
	<path id="矢量 133"
		d="M18.6 4.25C20.335 4.25 21.75 5.62566 21.75 7.33333L21.75 16.6667C21.75 18.3743 20.335 19.75 18.6 19.75L5.39999 19.75C3.66498 19.75 2.25 18.3743 2.25 16.6667L2.25 7.33333C2.25 5.62566 3.66498 4.25 5.39999 4.25L18.6 4.25ZM18.6 5.75L5.39999 5.75C4.48407 5.75 3.75 6.46368 3.75 7.33333L3.75 16.6667C3.75 17.5363 4.48407 18.25 5.39999 18.25L18.6 18.25C19.5159 18.25 20.25 17.5363 20.25 16.6667L20.25 7.33333C20.25 6.46368 19.5159 5.75 18.6 5.75ZM18.519 9.04156C18.7833 8.78894 18.8297 8.37416 18.6122 8.06677C18.373 7.72865 17.9049 7.64851 17.5668 7.88777L12.181 11.6988C12.075 11.733 11.8639 11.7561 11.7579 11.6918L6.40939 8.20695C6.07712 8.05443 5.57715 8.11047 5.37158 8.42599C5.14551 8.77306 5.24353 9.23769 5.59061 9.46379L10.9597 12.9616L11.1119 13.0451C11.7306 13.3503 12.462 13.3094 13.0268 12.9374L18.519 9.04156Z"
		fill-rule="evenodd" />
</svg>