<svg viewBox="0 0 24 24" xmlns="http://www.w3.org/2000/svg"
	xmlns:xlink="http://www.w3.org/1999/xlink">
	<defs />
	<g opacity="0.000000" />
	<path id="矢量 61"
		d="M13.1599 2.67111L3.91888 7.76439C2.32443 8.64319 1.77197 10.6115 2.70178 12.149L6.33789 18.1652C6.95169 19.1801 8.05466 19.7462 9.18893 19.75L3 19.75L2.89822 19.7569C2.53217 19.8065 2.25 20.1203 2.25 20.5C2.25 20.9142 2.58578 21.25 3 21.25L21 21.25L21.1018 21.2431C21.4678 21.1935 21.75 20.8797 21.75 20.5C21.75 20.0858 21.4142 19.75 21 19.75L9.21194 19.75C9.76569 19.7481 10.3261 19.6122 10.8401 19.3289L20.0811 14.2356C21.6756 13.3568 22.2281 11.3885 21.2982 9.85104L17.662 3.83469C16.7446 2.31776 14.7341 1.8035 13.1599 2.67111ZM20.0146 10.6271L16.3785 4.61093C15.8815 3.78922 14.7595 3.50221 13.884 3.9848L4.64294 9.07808C3.7876 9.5495 3.50073 10.5715 3.98541 11.3729L7.62152 17.3891C8.11847 18.2108 9.24048 18.4978 10.1161 18.0152L19.3571 12.922C20.2124 12.4505 20.4993 11.4285 20.0146 10.6271ZM5.74176 10.2679C5.37616 10.265 5.05392 10.5302 4.99585 10.9023C4.93198 11.3116 5.21198 11.6951 5.62122 11.759L11.541 12.6829L11.7069 12.7012C12.4786 12.7508 13.2078 12.3079 13.5134 11.5846L15.954 5.80992L15.9897 5.70467C16.0811 5.35068 15.902 4.97371 15.5551 4.82712C15.1736 4.66586 14.7336 4.84445 14.5723 5.22598L12.1318 11.0007L12.095 11.0661C12.0226 11.1663 11.8984 11.2205 11.7723 11.2009L5.85254 10.2769L5.74176 10.2679Z"
		fill-rule="evenodd" />
</svg>