<?xml version="1.0" encoding="UTF-8"?>
<svg viewBox="0 0 24 24" version="1.1" xmlns="http://www.w3.org/2000/svg" xmlns:xlink="http://www.w3.org/1999/xlink">
    <g id="页面-1" stroke="none" stroke-width="1">
        <g id="画板" transform="translate(-789.000000, -2210.000000)">
            <g id="编组" transform="translate(789.000000, 2210.000000)">
                <path d="M15.527672,2.10499471 C15.6583146,2.14830267 15.7694051,2.22412984 15.8548755,2.32053692 C16.0607135,2.47751933 16.1754679,2.73529869 16.1462771,3.00074263 L16.1259905,3.11021388 L13.8999322,11.5996532 C13.6018314,12.7365099 12.4870223,13.4383 11.3489277,13.2381355 L11.178138,13.2012878 L5.25127873,11.6835603 C4.84947987,11.5806692 4.60521425,11.1709842 4.70569622,10.7685032 C4.79704346,10.4026113 5.14185937,10.1686331 5.50567567,10.2064191 L5.61515611,10.2260477 L11.5420154,11.7437751 C11.9042462,11.8365337 12.2714536,11.6482615 12.4136136,11.3143155 L12.4492801,11.2098969 L14.4279985,3.66092451 L14.3839083,3.68506354 L4.07079393,9.6393429 C3.55137057,9.93923212 3.35267409,10.5826611 3.59207122,11.1236552 L3.65011889,11.2378521 L8.01207143,18.7929756 C8.31465116,19.317059 8.95676528,19.5216261 9.49351267,19.2853348 L9.60675508,19.2279089 L19.9198695,13.2736295 C20.4392946,12.9737393 20.6379916,12.3303148 20.3960701,11.7849069 L20.3374419,11.6696949 L16.7518367,5.33946992 C16.5467853,4.97746087 16.6714409,4.519288 17.0302628,4.31611217 C17.3591829,4.12986766 17.7706919,4.22254125 17.9949344,4.51811937 L18.0512457,4.60370516 L21.6337448,10.9284988 C22.3455156,12.161322 21.9752826,13.7195808 20.8160672,14.4898459 L20.673193,14.5784241 L10.4093947,20.502758 L21.246726,20.5033205 C21.6609396,20.5033205 21.996726,20.839107 21.996726,21.2533205 L21.996726,21.253758 C21.996726,21.6679716 21.6609396,22.003758 21.246726,22.003758 L2.75605702,22.003758 C2.34184346,22.003758 2.00605702,21.6679716 2.00605702,21.253758 L2.00605702,21.2533205 C2.00605702,20.839107 2.34184346,20.5033205 2.75605702,20.5033205 L7.66500889,20.5038324 C7.33101193,20.3034412 7.03601802,20.0275408 6.80816562,19.6838057 L6.71887459,19.5396031 L2.35692205,11.9844797 C1.645151,10.7516561 2.01538141,9.19339185 3.17459626,8.42312648 L3.31747042,8.33454829 L13.6305848,2.38026893 C14.2716849,2.01012958 14.9215917,1.90407938 15.527672,2.10499471 Z" id="形状结合"></path>
            </g>
        </g>
    </g>
</svg>