<svg viewBox="0 0 24 23.9999" xmlns="http://www.w3.org/2000/svg"
	xmlns:xlink="http://www.w3.org/1999/xlink">
	<g clip-path="url(#clip131_1900)">
		<path id="矢量 176"
			d="M15 1.74988L5 1.74988C3.34314 1.74988 2 3.09302 2 4.74988L2 20.0797C2 20.8353 2.80603 21.318 3.47217 20.9613L6.65503 19.256C7.05493 19.0419 7.54883 19.1237 7.8584 19.4552L9.26892 20.9667C9.66431 21.3903 10.3357 21.3903 10.7311 20.9667L10.832 20.8585C9.99414 19.7045 9.5 18.2848 9.5 16.7499C9.5 16.2897 9.54443 15.84 9.62915 15.4045C9.40112 15.2772 9.25 15.0342 9.25 14.7499L9.25 12.9047L7 12.9047C6.57996 12.9047 6.25 12.5747 6.25 12.1547C6.25 11.7346 6.57996 11.4047 7 11.4047L9.25 11.4047L9.25 9.54749L7 9.54749C6.57996 9.54749 6.25 9.21753 6.25 8.79749C6.25 8.37744 6.57996 8.04749 7 8.04749L8.51062 8.04749L6.39746 5.19641C6.14734 4.85901 6.21594 4.39746 6.55347 4.14734C6.89087 3.89722 7.35242 3.96582 7.60254 4.30334L10 7.53796L12.3975 4.30334C12.6476 3.96582 13.1091 3.89722 13.4465 4.14734C13.7841 4.39746 13.8527 4.85901 13.6025 5.19641L11.4894 8.04749L13 8.04749C13.42 8.04749 13.75 8.37744 13.75 8.79749C13.75 9.21753 13.42 9.54749 13 9.54749L10.75 9.54749L10.75 11.4047L11.9799 11.4047C13.1993 10.3723 14.777 9.74976 16.5 9.74976C17.0149 9.74976 17.5167 9.8053 18 9.91089L18 4.74988C18 3.09302 16.6569 1.74988 15 1.74988ZM11 16.7499C11 13.7123 13.4624 11.2499 16.5 11.2499C19.5376 11.2499 22 13.7123 22 16.7499C22 19.7875 19.5376 22.2499 16.5 22.2499C13.4624 22.2499 11 19.7875 11 16.7499ZM16.75 14.7501L16.75 16.684L18.4893 18.1818C18.8076 18.4557 18.8423 18.9213 18.5682 19.2394C18.2942 19.5577 17.8289 19.5924 17.5105 19.3185L15.5106 17.5963C15.4279 17.525 15.3638 17.4398 15.3182 17.3405C15.2955 17.2909 15.2784 17.2401 15.2671 17.1881C15.2557 17.1361 15.25 17.0824 15.25 17.028L15.25 14.7501C15.25 14.3301 15.58 14.0001 16 14.0001C16.4199 14.0001 16.75 14.3301 16.75 14.7501Z"
			fill-opacity="1.000000" fill-rule="evenodd" />
	</g>
</svg>