<svg viewBox="0 0 24 24" xmlns="http://www.w3.org/2000/svg"
	xmlns:xlink="http://www.w3.org/1999/xlink">
	<g clip-path="url(#clip131_1905)">
		<path id="矢量 181"
			d="M14.9216 2L4.92163 2C3.26477 2 1.92163 3.34326 1.92163 5L1.92163 19C1.92163 20.6567 3.26477 22 4.92163 22L9.86145 22C9.19873 21.0618 8.77942 19.335 9.49988 18C10.4102 16.313 11.5863 15.9238 11.5863 15.9238L11.5634 15.802C11.2261 13.894 11.7416 12.384 13.027 10.9233L13.136 10.803C14.4779 9.3584 16.2067 8.66748 17.9216 8.9502L17.9216 5C17.9216 3.34326 16.5785 2 14.9216 2ZM4.92163 5.25L12.4216 5.25C12.8417 5.25 13.1716 5.58008 13.1716 6C13.1716 6.41992 12.8417 6.75 12.4216 6.75L4.92163 6.75C4.50159 6.75 4.17163 6.41992 4.17163 6C4.17163 5.58008 4.50159 5.25 4.92163 5.25ZM4.92163 8.75L6.92163 8.75C7.34167 8.75 7.67163 9.08008 7.67163 9.5C7.67163 9.91992 7.34167 10.25 6.92163 10.25L4.92163 10.25C4.50159 10.25 4.17163 9.91992 4.17163 9.5C4.17163 9.08008 4.50159 8.75 4.92163 8.75ZM20.7599 18.0425C20.4318 18.3706 20.0636 18.6411 19.6554 18.8535C19.4727 18.9487 19.2852 19.0305 19.093 19.0991C18.8696 19.1787 18.6398 19.2407 18.4036 19.2844C17.9705 19.365 17.5348 19.3818 17.0963 19.3347C16.7687 19.2998 16.4503 19.2302 16.1414 19.1262L14.0424 21.2246C13.8507 21.4163 13.6301 21.5625 13.3806 21.6638C13.2657 21.7104 13.1487 21.7458 13.0293 21.7703C12.8983 21.7969 12.7646 21.8103 12.6282 21.8103C12.3674 21.8103 12.1167 21.7615 11.8759 21.6638C11.7611 21.6172 11.6525 21.5613 11.55 21.4956C11.4296 21.4185 11.3175 21.3281 11.214 21.2244C11.1105 21.1208 11.0201 21.009 10.943 20.8884C10.8773 20.7861 10.8213 20.6775 10.7747 20.5625C10.7281 20.4478 10.6926 20.3306 10.6683 20.2112C10.6416 20.0803 10.6282 19.9465 10.6282 19.8103C10.6282 19.5496 10.677 19.2988 10.7747 19.0579C10.8759 18.8083 11.0223 18.5876 11.214 18.396L13.3125 16.2976C13.2845 16.2146 13.259 16.1306 13.236 16.0464C13.1735 15.8167 13.1294 15.582 13.1038 15.3425C13.0798 15.1191 13.0724 14.8965 13.0815 14.6746C13.0903 14.4609 13.1145 14.2476 13.1539 14.0352C13.1978 13.7991 13.2595 13.5691 13.3394 13.3457C13.4078 13.1536 13.4897 12.9661 13.5848 12.7832C13.6718 12.6165 13.7683 12.4563 13.8744 12.3027C14.0281 12.0808 14.2019 11.8726 14.396 11.6785C14.5974 11.4771 14.8137 11.2976 15.0449 11.1399C15.2115 11.0264 15.3857 10.9241 15.5677 10.8333C15.7622 10.7361 15.9615 10.6538 16.1659 10.5867C16.4032 10.5083 16.6472 10.45 16.8978 10.4119C17.1284 10.377 17.3589 10.3596 17.5892 10.3601C17.8192 10.3608 18.0491 10.3792 18.2788 10.415C18.5291 10.4543 18.7726 10.5137 19.0094 10.593C19.2135 10.6614 19.4131 10.7446 19.6073 10.8428C19.7561 10.918 19.8489 11.0115 19.8856 11.1235C19.9225 11.2356 19.9033 11.366 19.8281 11.5146C19.816 11.5386 19.7509 11.6213 19.7354 11.6428L17.9315 13.4463C17.8583 13.5195 17.8035 13.6003 17.7668 13.6887C17.7302 13.7771 17.7118 13.873 17.7118 13.9766C17.7118 14.0801 17.7301 14.1763 17.7667 14.2646C17.8033 14.353 17.8583 14.4338 17.9315 14.5071C18.078 14.6533 18.2548 14.7266 18.4618 14.7266C18.5654 14.7266 18.6614 14.7083 18.7498 14.6716C18.8381 14.635 18.9189 14.5801 18.9922 14.5071L20.796 12.7036C21.0317 12.4678 21.2675 12.4678 21.5032 12.7036C21.5409 12.7412 21.5718 12.7839 21.5958 12.8315C21.694 13.0259 21.7772 13.2251 21.8456 13.4292C21.9248 13.666 21.9841 13.9097 22.0234 14.1602C22.0594 14.3899 22.0778 14.6199 22.0782 14.8496C22.0789 15.0801 22.0615 15.3105 22.0265 15.5408C21.9556 16.0071 21.8151 16.4504 21.6052 16.8708C21.5143 17.0527 21.4121 17.2271 21.2986 17.3936C21.1409 17.6248 20.9613 17.8411 20.7599 18.0425Z"
			fill-opacity="1.000000" fill-rule="evenodd" />
	</g>
</svg>