<svg viewBox="0 0 24 24" xmlns="http://www.w3.org/2000/svg"
	xmlns:xlink="http://www.w3.org/1999/xlink">
	<defs />
	<g opacity="0.000000" />
	<path id="矢量 62"
		d="M21.7432 3.2876C21.6799 2.70416 21.1858 2.25 20.5855 2.25L14.3684 2.25L14.2666 2.25685C13.9006 2.3065 13.6184 2.6203 13.6184 3L13.6252 3.10178C13.6749 3.46785 13.9887 3.75 14.3684 3.75L19.189 3.75L14.2939 8.64536C13.0228 7.60858 11.3998 6.98685 9.63159 6.98685C5.55484 6.98685 2.25 10.2917 2.25 14.3684C2.25 18.4452 5.55484 21.75 9.63159 21.75C13.7083 21.75 17.0132 18.4452 17.0132 14.3684C17.0132 12.6002 16.3914 10.9771 15.3546 9.70601L20.25 4.81L20.25 9.63158L20.2568 9.73335C20.3065 10.0994 20.6203 10.3816 21 10.3816C21.4142 10.3816 21.75 10.0458 21.75 9.63158L21.75 3.41447L21.7432 3.2876ZM9.63159 8.48685C12.8799 8.48685 15.5132 11.1201 15.5132 14.3684C15.5132 17.6167 12.8799 20.25 9.63159 20.25C6.38327 20.25 3.75 17.6167 3.75 14.3684C3.75 11.1201 6.38327 8.48685 9.63159 8.48685Z"
		fill-rule="evenodd" />
</svg>