<?xml version="1.0" encoding="UTF-8"?>
<svg viewBox="0 0 24 24" version="1.1" xmlns="http://www.w3.org/2000/svg" xmlns:xlink="http://www.w3.org/1999/xlink">
    <g id="S12组件" stroke="none" stroke-width="1" fill-rule="evenodd">
        <g id="Male" fill-rule="nonzero">
            <rect id="矩形" fill="#FFFFFF" opacity="0" x="0" y="0" width="24" height="24"></rect>
            <path d="M10.0004837,8.5 C6.96303782,8.5 4.5,10.9628107 4.5,14 C4.5,17.0371893 6.96303782,19.5 10.0004837,19.5 C13.0376445,19.5 15.5,17.0374743 15.5,14 C15.5,10.9625257 13.0376445,8.5 10.0004837,8.5 Z M20.7788038,3.21715338 L20.8500323,3.29855842 C20.8578243,3.30887091 20.8653147,3.31933877 20.8722371,3.32967093 C20.8835387,3.34634194 20.894187,3.36349194 20.9041392,3.38095468 L20.9041392,3.38095468 L20.9268602,3.42446717 C20.935555,3.44248608 20.9435505,3.46090579 20.9510107,3.48024809 C20.9549715,3.49054351 20.958697,3.50090869 20.9620197,3.51071635 C20.9694207,3.53271655 20.9758291,3.5551728 20.9812653,3.57863298 C20.9839853,3.5902739 20.9864242,3.60196718 20.9884876,3.61284491 L20.9884876,3.61284491 L20.997,3.68 C20.9980645,3.68272947 20.998904,3.6928801 20.9995375,3.70304117 L21.0008207,3.73354891 L21.001,9.501 L20.9941534,9.60277056 C20.944491,9.96884612 20.6306958,10.251 20.251,10.251 L20.251,10.251 L20.1492294,10.2441534 C19.7831539,10.194491 19.501,9.88069577 19.501,9.501 L19.501,9.501 L19.502,5.56 L15.4526144,9.60992726 C16.4205409,10.8106465 17,12.3376724 17,14 C17,17.8658782 13.8660948,21 10.0004837,21 C6.13472261,21 3,17.8657284 3,14 C3,10.1342716 6.13472261,7 10.0004837,7 C11.6631567,7 13.1904623,7.57982004 14.3912502,8.54829657 L18.44,4.5 L14.501,4.5 L14.3992294,4.49315338 C14.0331539,4.44349096 13.751,4.12969577 13.751,3.75 C13.751,3.33578644 14.0867864,3 14.501,3 L14.501,3 L20.251,3 L20.3527706,3.00684662 C20.3929231,3.01229378 20.432066,3.0209186 20.4691555,3.0322748 C20.4735288,3.03359992 20.4778924,3.03496585 20.4831913,3.03663399 C20.5142374,3.0467322 20.5443945,3.05880073 20.5727704,3.07230508 C20.5815656,3.07648082 20.5902964,3.08083742 20.5994182,3.08567096 C20.6210275,3.09702767 20.6420149,3.10940783 20.6621698,3.12257267 L20.6621698,3.12257267 L20.704,3.153 L20.708,3.156 L20.7236579,3.16760565 L20.7236579,3.16760565 L20.779,3.217 L20.72,3.167 L20.7788038,3.21715338 L20.7788038,3.21715338 Z" id="形状结合"></path>
        </g>
    </g>
</svg>