<svg viewBox="0 0 24 24" xmlns="http://www.w3.org/2000/svg"
	xmlns:xlink="http://www.w3.org/1999/xlink">
	<defs />
	<g opacity="0.000000" />
	<path id="矢量 68"
		d="M12.018 1.25L11.885 1.25461C7.14941 1.29434 3.25 5.13921 3.25 9.84351C3.25 12.5191 4.51715 15.2632 6.66144 17.9787C8.04636 19.7325 9.57703 21.212 10.9008 22.2928L11.0139 22.388C11.2831 22.6014 11.5918 22.75 11.9811 22.75C12.4065 22.75 12.7225 22.5887 13.0591 22.3265C14.3788 21.2531 15.9036 19.7868 17.2955 18.0342C19.4655 15.3022 20.75 12.5389 20.75 9.84351L20.7462 9.58728C20.6074 4.9911 16.749 1.28072 12.018 1.25ZM12.2598 2.75612L11.9581 2.75163C7.97836 2.78703 4.75 5.97021 4.75 9.84351C4.75 12.1181 5.88394 14.5737 7.83865 17.0491C9.03772 18.5675 10.3615 19.877 11.5517 20.8837L11.987 21.245L12.1249 21.153C13.355 20.1523 14.8058 18.7571 16.121 17.1013C18.0999 14.6098 19.25 12.1356 19.25 9.84351C19.25 6.04153 16.1408 2.90639 12.2598 2.75612ZM12 6.25C9.92892 6.25 8.25 7.92892 8.25 10C8.25 12.0711 9.92892 13.75 12 13.75C14.0711 13.75 15.75 12.0711 15.75 10C15.75 7.92892 14.0711 6.25 12 6.25ZM12 7.75C13.2426 7.75 14.25 8.75735 14.25 10C14.25 11.2426 13.2426 12.25 12 12.25C10.7574 12.25 9.75 11.2426 9.75 10C9.75 8.75735 10.7574 7.75 12 7.75Z"
		fill-rule="evenodd" />
</svg>