<?xml version="1.0" encoding="UTF-8"?>
<svg viewBox="0 0 24 24" version="1.1" xmlns="http://www.w3.org/2000/svg" xmlns:xlink="http://www.w3.org/1999/xlink">
    <g id="IconMarkon" stroke="none" stroke-width="1" fill-rule="evenodd">
        <g id="线性/ic_positione_lined">
            <path d="M11.8984222,2.00510854 L11.9532672,2.00090672 L12.2884163,2.00614814 C16.4947774,2.16441678 19.87125,5.64204709 19.87125,9.87568643 C19.87125,13.3872301 17.6191504,16.8984392 14.3416109,20.0678365 C14.0438465,20.3557762 13.5690396,20.3478117 13.2810999,20.0500473 C12.9931602,19.7522829 13.0011247,19.277476 13.2988891,18.9895363 C16.3061507,16.0814991 18.37125,12.861839 18.37125,9.87568643 C18.37125,6.46150286 15.6520061,3.65048931 12.2625673,3.50634252 L12.0230496,3.49990672 L11.9797874,3.50135617 C8.49536011,3.53265877 5.66194437,6.39100923 5.6610496,9.87553317 C5.66064678,11.9363325 6.76469893,14.2812586 8.66102077,16.7066827 C9.93141233,18.3315325 11.4061207,19.7985912 12.4877347,20.7016762 C12.8056906,20.967151 12.848235,21.4401151 12.5827602,21.7580711 C12.3172854,22.0760271 11.8443213,22.1185715 11.5263653,21.8530966 C10.3691537,20.886892 8.82156898,19.3473349 7.47932923,17.6305902 C5.39579739,14.9657218 4.16056734,12.3421834 4.1610496,9.87519392 C4.16215567,5.56761633 7.65888718,2.04011276 11.8984222,2.00510854 Z M11.99995,6.58888643 C13.7951636,6.58888643 15.24995,8.04367287 15.24995,9.83888643 C15.24995,11.6341 13.7951636,13.0888864 11.99995,13.0888864 C10.2047364,13.0888864 8.74995,11.6341 8.74995,9.83888643 C8.74995,8.04367287 10.2047364,6.58888643 11.99995,6.58888643 Z M11.99995,8.08888643 C11.0331636,8.08888643 10.24995,8.87209999 10.24995,9.83888643 C10.24995,10.8056729 11.0331636,11.5888864 11.99995,11.5888864 C12.9667364,11.5888864 13.74995,10.8056729 13.74995,9.83888643 C13.74995,8.87209999 12.9667364,8.08888643 11.99995,8.08888643 Z" id="形状"></path>
        </g>
    </g>
</svg>