<svg viewBox="0 0 24 24" xmlns="http://www.w3.org/2000/svg"
	xmlns:xlink="http://www.w3.org/1999/xlink">
	<defs />
	<g opacity="0.000000" />
	<path id="矢量 69"
		d="M3.18771 5.58513L10.4977 1.625C11.3745 1.125 12.445 1.125 13.3218 1.625L20.8271 5.59306C21.4207 5.93163 21.8612 6.465 22.0849 7.08566C22.1086 7.11514 22.1302 7.14676 22.1497 7.18048C22.2474 7.34961 22.2717 7.54095 22.2325 7.71768C22.2443 7.82129 22.2502 7.92618 22.2502 8.03192L22.2502 15.9681C22.2502 16.9756 21.7068 17.9052 20.8061 18.4185L13.144 22.4683C12.3032 22.8728 11.317 22.8422 10.512 22.3829L3.17343 18.4069C2.29364 17.9052 1.75024 16.9756 1.75024 15.9681L1.75024 8.03192C1.75024 7.92618 1.75623 7.82132 1.76797 7.71768C1.72879 7.54095 1.75311 7.34961 1.85077 7.18048C1.87042 7.14645 1.89236 7.1145 1.91626 7.08478C2.14108 6.46381 2.58459 5.92892 3.18771 5.58513ZM3.25024 8.85468L3.25024 15.9681C3.25024 16.4353 3.50336 16.8683 3.90222 17.096L11.2502 21.1111L11.2502 13.474L3.25024 8.85468ZM12.7502 20.9809L20.084 17.1039C20.4971 16.8683 20.7502 16.4353 20.7502 15.9681L20.7502 8.85455L12.7502 13.473L12.7502 20.9809ZM20.5018 7.26602L12.0002 12.175L3.50058 7.26712C3.60907 7.11844 3.74976 6.99118 3.9165 6.89609L11.2266 2.93594C11.657 2.69066 12.1625 2.69066 12.5787 2.92801L20.105 6.90759C20.262 6.99731 20.3967 7.12054 20.5018 7.26602Z"
		fill-rule="evenodd" />
</svg>