<svg viewBox="0 0 24 24" xmlns="http://www.w3.org/2000/svg"
	xmlns:xlink="http://www.w3.org/1999/xlink">
	<defs />
	<g opacity="0.000000" />
	<path id="矢量 140"
		d="M12 1.25C14.1678 1.25 16.2417 1.89378 18.0015 3.08C18.345 3.31152 18.4357 3.77765 18.2042 4.12111C17.9727 4.46458 17.5066 4.55534 17.1631 4.32382C15.6491 3.3033 13.8668 2.75 12 2.75C6.89136 2.75 2.75 6.89136 2.75 12C2.75 17.1086 6.89136 21.25 12 21.25C17.1086 21.25 21.25 17.1086 21.25 12C21.25 10.2763 20.7783 8.62442 19.9021 7.189L19.7082 6.88477L19.5966 6.7207C19.3599 6.3808 19.4435 5.91335 19.7834 5.67665C20.1234 5.43994 20.5908 5.52361 20.8275 5.86353L20.9572 6.05414C22.1199 7.8024 22.75 9.85529 22.75 12C22.75 17.9371 17.9371 22.75 12 22.75C6.06293 22.75 1.25 17.9371 1.25 12C1.25 6.06293 6.06293 1.25 12 1.25ZM7 8.25C7.96649 8.25 8.75 9.03351 8.75 10C8.75 10.9665 7.96649 11.75 7 11.75C6.03351 11.75 5.25 10.9665 5.25 10C5.25 9.03351 6.03351 8.25 7 8.25ZM18.75 10C18.75 9.03351 17.9665 8.25 17 8.25C16.0335 8.25 15.25 9.03351 15.25 10C15.25 10.9665 16.0335 11.75 17 11.75C17.9665 11.75 18.75 10.9665 18.75 10ZM15.75 17C15.75 16.5858 15.4142 16.25 15 16.25L9 16.25L8.89822 16.2568C8.53217 16.3065 8.25 16.6203 8.25 17C8.25 17.4142 8.58578 17.75 9 17.75L15 17.75L15.1018 17.7432C15.4678 17.6935 15.75 17.3797 15.75 17Z"
		fill-rule="evenodd" />
</svg>