<?xml version="1.0" encoding="UTF-8"?>
<svg  viewBox="0 0 24 24" version="1.1" xmlns="http://www.w3.org/2000/svg" xmlns:xlink="http://www.w3.org/1999/xlink">
    <g id="S12组件" stroke="none" stroke-width="1"  fill-rule="evenodd">
        <g id="meh">
            <rect id="矩形" opacity="0" x="0" y="0"></rect>
            <path d="M12,2 C17.5,2 22,6.5 22,12 C22,17.5 17.5,22 12,22 C6.5,22 2,17.5 2,12 C2,6.5 6.5,2 12,2 Z M12,3.66666667 C7.41666667,3.66666667 3.66666667,7.41666667 3.66666667,12 C3.66666667,16.5833333 7.41666667,20.3333333 12,20.3333333 C16.5833333,20.3333333 20.3333333,16.5833333 20.3333333,12 C20.3333333,7.41666667 16.5833333,3.66666667 12,3.66666667 Z M14.5833333,15.3333333 C15.0833333,15.3333333 15.4166667,15.6666667 15.4166667,16.1666667 C15.4166667,16.6666667 15.0833333,17 14.5833333,17 L9.5,17 C9,17 8.66666667,16.6666667 8.66666667,16.1666667 C8.66666667,15.6666667 9.08333333,15.3333333 9.5,15.3333333 L14.5833333,15.3333333 Z M7.41666667,8.66666667 C8.08333333,8.66666667 8.66666667,9.25 8.66666667,9.91666667 C8.66666667,10.5833333 8.08333333,11.1666667 7.41666667,11.1666667 C6.75,11.1666667 6.16666667,10.5833333 6.16666667,9.91666667 C6.16666667,9.25 6.75,8.66666667 7.41666667,8.66666667 Z M16.5833333,8.66666667 C17.25,8.66666667 17.8333333,9.25 17.8333333,9.91666667 C17.8333333,10.5833333 17.25,11.1666667 16.5833333,11.1666667 C15.9166667,11.1666667 15.3333333,10.5833333 15.3333333,9.91666667 C15.3333333,9.25 15.9166667,8.66666667 16.5833333,8.66666667 Z" id="形状"  fill-rule="nonzero"></path>
        </g>
    </g>
</svg>