<svg viewBox="0 0 24 24" xmlns="http://www.w3.org/2000/svg"
	xmlns:xlink="http://www.w3.org/1999/xlink">
	<defs />
	<g opacity="0.000000" />
	<path id="矢量 146"
		d="M18.3405 3.31812C16.5139 1.98199 14.3112 1.25 12 1.25C6.06293 1.25 1.25 6.06293 1.25 12C1.25 17.9371 6.06293 22.75 12 22.75C17.9371 22.75 22.75 17.9371 22.75 12C22.75 9.68808 22.0175 7.48468 20.6806 5.65778C20.436 5.32349 19.9667 5.25082 19.6325 5.49542C19.2982 5.74005 19.2255 6.20932 19.4701 6.54358C20.6205 8.11557 21.25 10.0093 21.25 12C21.25 17.1086 17.1086 21.25 12 21.25C6.89136 21.25 2.75 17.1086 2.75 12C2.75 6.89136 6.89136 2.75 12 2.75C13.9901 2.75 15.8832 3.37915 17.455 4.52881C17.7893 4.77338 18.2585 4.70056 18.5031 4.36627C18.7476 4.03192 18.6749 3.56268 18.3405 3.31812ZM16.0857 6.25C17.2841 6.25 18.25 7.23349 18.25 8.44L18.25 14.6552C18.25 15.8618 17.2841 16.8452 16.0857 16.8452L10.478 16.845L8.35797 18.5805C7.89545 18.9589 7.21399 18.6691 7.13971 18.1027L7.13306 18L7.133 16.707L7.01834 16.6606C6.31409 16.3444 5.81195 15.6536 5.75534 14.8408L5.75 14.687L5.75 8.44C5.75 7.23349 6.71594 6.25 7.91431 6.25L16.0857 6.25ZM7.25 8.44C7.25 8.05591 7.55048 7.75 7.91431 7.75L16.0857 7.75C16.4495 7.75 16.75 8.05591 16.75 8.44L16.75 14.6552C16.75 15.0393 16.4495 15.3452 16.0857 15.3452L10.2114 15.3452L10.1084 15.3524C9.97253 15.3712 9.84372 15.4271 9.73651 15.5147L8.633 16.417L8.63306 16.0952C8.63306 15.7155 8.35092 15.4017 7.98483 15.3521L7.79022 15.3382C7.48676 15.2916 7.25 15.0202 7.25 14.687L7.25 8.44ZM15.25 10.5C15.25 10.0858 14.9142 9.75 14.5 9.75L9.5 9.75L9.39822 9.75684C9.03217 9.80652 8.75 10.1203 8.75 10.5C8.75 10.9142 9.08578 11.25 9.5 11.25L14.5 11.25L14.6018 11.2432C14.9678 11.1935 15.25 10.8797 15.25 10.5ZM11.5 12.25C11.9142 12.25 12.25 12.5858 12.25 13C12.25 13.3797 11.9678 13.6935 11.6018 13.7432L11.5 13.75L9.5 13.75C9.08578 13.75 8.75 13.4142 8.75 13C8.75 12.6203 9.03217 12.3065 9.39822 12.2568L9.5 12.25L11.5 12.25Z"
		fill-rule="evenodd" />
</svg>