<?xml version="1.0" encoding="UTF-8"?>
<svg viewBox="0 0 24 24" version="1.1" xmlns="http://www.w3.org/2000/svg" xmlns:xlink="http://www.w3.org/1999/xlink">
    <g id="S12组件" stroke="none" stroke-width="1">
        <g id="MessageCircle">
            <path d="M12,2 C14.2170341,2 16.3258236,2.72418837 18.0532894,4.03924114 C18.3828702,4.29013825 18.446656,4.76070858 18.1957589,5.0902894 C17.9448618,5.41987022 17.4742914,5.48365597 17.1447106,5.23275886 C15.6761624,4.11481002 13.8858755,3.5 12,3.5 C7.30585564,3.5 3.5,7.30557146 3.5,12 C3.5,16.6937864 7.30621356,20.5 12,20.5 C16.6944285,20.5 20.5,16.6941444 20.5,12 C20.5,10.1146074 19.8858507,8.32533664 18.7681003,6.85610438 C18.5173054,6.52644579 18.581237,6.05589525 18.9108956,5.80510033 C19.2405542,5.55430541 19.7111047,5.61823704 19.9618997,5.94789562 C21.2765776,7.67598035 22,9.78360864 22,12 C22,17.5225464 17.5228807,22 12,22 C6.47778644,22 2,17.5222136 2,12 C2,6.47711926 6.47745359,2 12,2 Z M15.5,6.25 C16.7426407,6.25 17.75,7.25735931 17.75,8.5 L17.75,8.5 L17.75,14 C17.75,15.2426407 16.7426407,16.25 15.5,16.25 L15.5,16.25 L11.31,16.25 L9.65521861,17.9054416 C9.57351736,17.9871428 9.47631479,18.0510387 9.36976741,18.0936434 L9.36976741,18.0936434 L9.26033312,18.1290219 C8.92610905,18.2125779 8.57856201,18.0860386 8.37495904,17.8154838 L8.37495904,17.8154838 L8.29700924,17.6868067 L8.2799448,17.6509504 L8.22955672,17.5105561 L7.893,16.167 L7.76096648,16.1258147 C6.92764414,15.8361477 6.31714546,15.0703189 6.25519081,14.1540488 L6.25519081,14.1540488 L6.25,14 L6.25,8.5 C6.25,7.25735931 7.25735931,6.25 8.5,6.25 L8.5,6.25 L15.5,6.25 Z M15.5,7.75 L8.5,7.75 C8.08578644,7.75 7.75,8.08578644 7.75,8.5 L7.75,8.5 L7.75,14 C7.75,14.4142136 8.08578644,14.75 8.5,14.75 L8.5,14.75 L8.6128448,14.7584903 C8.90814151,14.8032798 9.15341237,15.0213203 9.22760688,15.3180983 L9.22760688,15.3180983 L9.406,16.032 L10.4696699,14.9696699 C10.5821917,14.8571481 10.726786,14.7840724 10.8819659,14.7593431 L10.8819659,14.7593431 L11,14.75 L15.5,14.75 C15.9142136,14.75 16.25,14.4142136 16.25,14 L16.25,14 L16.25,8.5 C16.25,8.08578644 15.9142136,7.75 15.5,7.75 L15.5,7.75 Z M10.9908999,11.5149364 C11.4051134,11.5149364 11.7408998,11.8507228 11.7408998,12.2649364 C11.7408998,12.6446321 11.458746,12.9584273 11.0926704,13.0080898 L10.9908999,13.0149364 L8.99089985,13.0149364 C8.57668629,13.0149364 8.24089985,12.6791499 8.24089985,12.2649364 C8.24089985,11.8852406 8.52305374,11.5714454 8.8891293,11.521783 L8.99089985,11.5149364 L10.9908999,11.5149364 Z M13.9908999,9.01493638 C14.4051134,9.01493638 14.7408998,9.35072281 14.7408998,9.76493638 C14.7408998,10.1446321 14.458746,10.4584273 14.0926704,10.5080898 L13.9908999,10.5149364 L8.99089985,10.5149364 C8.57668629,10.5149364 8.24089985,10.1791499 8.24089985,9.76493638 C8.24089985,9.38524061 8.52305374,9.07144541 8.8891293,9.02178299 L8.99089985,9.01493638 L13.9908999,9.01493638 Z" id="形状结合"></path>
        </g>
    </g>
</svg>