<?xml version="1.0" encoding="UTF-8"?>
<svg viewBox="0 0 24 24" version="1.1" xmlns="http://www.w3.org/2000/svg" xmlns:xlink="http://www.w3.org/1999/xlink">
    <g id="IconMic" stroke="none" stroke-width="1">
        <path d="M18.0065,11.41045 C18.4207136,11.41045 18.7565,11.7462364 18.7565,12.16045 C18.7565,15.6379687 16.1290562,18.501858 12.7510586,18.875228 L12.7505,20.49925 L13.9986,20.49975 C14.4128136,20.49975 14.7486,20.8355364 14.7486,21.24975 C14.7486,21.6294458 14.4664461,21.943241 14.1003706,21.9929034 L13.9986,21.99975 L10.0016,21.99975 C9.58738644,21.99975 9.2516,21.6639636 9.2516,21.24975 C9.2516,20.8700542 9.53375388,20.556259 9.89982944,20.5065966 L10.0016,20.49975 L11.2505,20.49925 L11.2509072,18.8753372 C7.87220206,18.5024073 5.2435,15.6381721 5.2435,12.16045 C5.2435,11.7462364 5.57928644,11.41045 5.9935,11.41045 C6.40771356,11.41045 6.7435,11.7462364 6.7435,12.16045 C6.7435,15.0630071 9.09748421,17.41645 12.0005,17.41645 C14.9032864,17.41645 17.2565,15.0632364 17.2565,12.16045 C17.2565,11.7462364 17.5922864,11.41045 18.0065,11.41045 Z M12.0006,2.00025 C14.1171213,2.00025 15.8336,3.71634414 15.8336,5.83325 L15.8336,12.00025 C15.8336,14.1171559 14.1171213,15.83325 12.0006,15.83325 C9.88327085,15.83325 8.1666,14.1173481 8.1666,12.00025 L8.1666,5.83325 C8.1666,3.7161519 9.88327085,2.00025 12.0006,2.00025 Z M12.0006,3.50025 C10.7115476,3.50025 9.6666,4.54472951 9.6666,5.83325 L9.6666,12.00025 C9.6666,13.2887705 10.7115476,14.33325 12.0006,14.33325 C13.2887694,14.33325 14.3336,13.2886535 14.3336,12.00025 L14.3336,5.83325 C14.3336,4.5448465 13.2887694,3.50025 12.0006,3.50025 Z" id="形状结合"></path>
    </g>
</svg>