<svg viewBox="0 0 24 24" xmlns="http://www.w3.org/2000/svg"
	xmlns:xlink="http://www.w3.org/1999/xlink">
	<defs />
	<g opacity="0.000000" />
	<path id="矢量 92"
		d="M12 1.75C9.37665 1.75 7.25 3.87665 7.25 6.5L7.25 11.5C7.25 14.1234 9.37665 16.25 12 16.25C14.6234 16.25 16.75 14.1234 16.75 11.5L16.75 6.5C16.75 3.87665 14.6234 1.75 12 1.75ZM12 3.25C13.7949 3.25 15.25 4.70508 15.25 6.5L15.25 11.5C15.25 13.2949 13.7949 14.75 12 14.75C10.2051 14.75 8.75 13.2949 8.75 11.5L8.75 6.5C8.75 4.70508 10.2051 3.25 12 3.25ZM19 10.38C19.3797 10.38 19.6935 10.6621 19.7432 11.0282L19.75 11.13L19.75 11.3489C19.75 15.3585 16.6777 18.6524 12.7502 19.028L12.75 20.931L14.625 20.931C15.0392 20.931 15.375 21.2668 15.375 21.681C15.375 22.0607 15.0928 22.3745 14.7268 22.4242L14.625 22.431L9.375 22.431C8.96082 22.431 8.625 22.0952 8.625 21.681C8.625 21.3013 8.90717 20.9875 9.27319 20.9379L9.375 20.931L11.25 20.931L11.2508 19.0281C7.40308 18.6606 4.37598 15.4922 4.25385 11.5938L4.25 11.13C4.25 10.7158 4.58582 10.38 5 10.38C5.3797 10.38 5.69348 10.6621 5.74316 11.0282L5.75 11.13L5.75 11.3489C5.75 14.7804 8.54736 17.5637 12 17.5637C15.3759 17.5637 18.1254 14.9027 18.2458 11.5767L18.25 11.3489L18.25 11.13C18.25 10.7158 18.5858 10.38 19 10.38Z"
		fill-rule="evenodd" />
</svg>