<?xml version="1.0" encoding="UTF-8"?>
<svg viewBox="0 0 24 24" version="1.1" xmlns="http://www.w3.org/2000/svg"
    xmlns:xlink="http://www.w3.org/1999/xlink">
    <g id="页面-2" stroke="none" stroke-width="1" fill="none" fill-rule="evenodd">
        <g id="画板" transform="translate(-32.000000, -118.000000)">
            <g id="编组" transform="translate(32.000000, 118.000000)">
                <path
                    d="M4,0 L20,0 C22.209139,-4.05812251e-16 24,1.790861 24,4 L24,20 C24,22.209139 22.209139,24 20,24 L4,24 C1.790861,24 -5.12438068e-14,22.209139 -5.15143483e-14,20 L-5.15143483e-14,4 C-5.17848898e-14,1.790861 1.790861,4.05812251e-16 4,0 Z"
                    id="矩形备份-2" fill="#F3F3F3"></path>
                <path
                    d="M13.4142136,5.41421356 L18.5857864,10.5857864 C19.366835,11.366835 19.366835,12.633165 18.5857864,13.4142136 L13.4142136,18.5857864 C12.633165,19.366835 11.366835,19.366835 10.5857864,18.5857864 L5.41421356,13.4142136 C4.63316498,12.633165 4.63316498,11.366835 5.41421356,10.5857864 L10.5857864,5.41421356 C11.366835,4.63316498 12.633165,4.63316498 13.4142136,5.41421356 Z"
                    id="多边形" fill="#393939"></path>
            </g>
        </g>
    </g>
</svg>