<svg viewBox="0 0 24 24" xmlns="http://www.w3.org/2000/svg"
	xmlns:xlink="http://www.w3.org/1999/xlink">
	<defs />
	<path id="矩形备份 2"
		d="M4 0L20 0C22.2092 0 24 1.79083 24 4L24 20C24 22.2092 22.2092 24 20 24L4 24C1.79083 24 0 22.2092 0 20L0 4C0 1.79083 1.79083 0 4 0Z"
		fill-rule="evenodd" fill="#F3F3F3" />
	<path id="多边形"
		d="M13.4142 5.41418L18.5858 10.5858C19.3668 11.3668 19.3668 12.6332 18.5858 13.4142L13.4142 18.5858C12.6332 19.3668 11.3668 19.3668 10.5858 18.5858L5.41418 13.4142C4.63318 12.6332 4.63318 11.3668 5.41418 10.5858L10.5858 5.41418C11.3668 4.63318 12.6332 4.63318 13.4142 5.41418Z"
		fill-rule="evenodd" />
</svg>