<?xml version="1.0" encoding="UTF-8"?>
<svg viewBox="0 0 24 24" version="1.1" xmlns="http://www.w3.org/2000/svg" xmlns:xlink="http://www.w3.org/1999/xlink">
    <g id="-IconMinscreenright">
        <g id="IconMinscreenLeft" transform="translate(0.000000, -0.000000)">
            <path d="M0.00291621452,11.9902115 C0.00291621452,10.1155031 -0.00364526815,8.24079459 0.00291621452,6.36608614 C-0.000855476148,5.45891642 0.110645142,4.55494313 0.334739841,3.67587954 C0.825913793,1.81523141 2.03791364,0.711028139 3.89668835,0.282657258 C4.82870208,0.0812875901 5.78065248,-0.013058275 6.73406154,0.00145099488 C10.3291299,0.00145099488 13.9245108,0.00145099488 17.520204,0.00145099488 C18.4282917,-0.0041860412 19.3337475,0.0996722173 20.216974,0.310777884 C22.13199,0.779454998 23.2811871,1.99239136 23.7189318,3.90084455 C23.9157326,4.80281181 24.0097548,5.72416509 23.999201,6.64729239 C23.999201,10.2811023 23.999201,13.9152246 23.999201,17.5496594 C24.0041104,18.4489927 23.9005666,19.3456375 23.6908112,20.2201815 C23.2221338,22.1361336 22.0035724,23.2797057 20.0951179,23.7174501 C19.1629846,23.9180577 18.2111214,24.0123949 17.2577447,23.9986564 C13.677674,23.9986564 10.0979157,23.9986564 6.51846992,23.9986564 C5.60344091,24.0061248 4.69081717,23.9038481 3.8001408,23.6940163 C1.8766886,23.2253392 0.721867404,22.0067787 0.285060033,20.088952 C0.0619695745,19.1141036 0.00291621452,18.1364431 0.00291621452,17.1503465 C0.00291621452,15.4306139 0.00291621452,13.7105689 0.00291621452,11.9902115 Z" id="path1" fill-opacity="0" fill="#FFFFFF" fill-rule="nonzero" opacity="0"></path>
            <path d="M2.00243018,11.9918484 C2.00243018,10.4295903 1.99696228,8.86733221 2.00243018,7.30507407 C1.9992871,6.54909879 2.09220429,5.79578719 2.27894987,5.06323369 C2.68826149,3.5126925 3.69826137,2.59252247 5.24724029,2.23554649 C6.0239184,2.06773832 6.8172104,1.98911671 7.61171795,2.00120777 C10.6076083,2.00120777 13.603759,2.00120777 16.60017,2.00120777 C17.3569097,1.99651024 18.1114562,2.08305885 18.8474783,2.25898036 C20.443325,2.64954489 21.4009892,3.6603259 21.7657765,5.25070466 C21.9297772,6.00234456 22.008129,6.7701395 21.9993341,7.53941279 C21.9993341,10.5675898 21.9993341,13.5960272 21.9993341,16.6247249 C22.0034254,17.3741698 21.9171388,18.1213744 21.7423427,18.8501616 C21.3517781,20.4467894 20.3363103,21.3997669 18.7459316,21.7645541 C17.9691539,21.9317272 17.1759345,22.0103416 16.3814539,21.9988928 C13.3980616,21.9988928 10.4149298,21.9988928 7.43205827,21.9988928 C6.66953409,22.0051165 5.90901431,21.9198858 5.166784,21.7450259 C3.56390717,21.3544614 2.60155617,20.3389936 2.23755003,18.7408035 C2.05164131,17.9284293 2.00243018,17.1137117 2.00243018,16.2919639 C2.00243018,14.8588525 2.00243018,13.4254806 2.00243018,11.9918484 Z" id="path2" opacity="0"></path>
            <path d="M19.7981367,12.6064852 C20.2123503,12.6064852 20.5481367,12.9422714 20.5481367,13.3564847 C20.5481367,13.7361802 20.2659829,14.0499751 19.8999073,14.0996375 L19.7981367,14.1064852 L15.166,14.1049984 L21.5303301,20.4696557 C21.8232233,20.7625487 21.8232233,21.2374221 21.5303301,21.5303151 C21.2640635,21.7965815 20.8473998,21.8207876 20.5537883,21.6029332 L20.4696699,21.5303151 L14.106,15.1669984 L14.1064939,19.798123 C14.1064939,20.1778185 13.82434,20.4916135 13.4582645,20.5412759 L13.3564939,20.5481225 C12.9767982,20.5481225 12.663003,20.2659688 12.6133405,19.8998935 L12.6064939,19.798123 L12.6064939,13.3564847 C12.6064939,12.9767892 12.8886478,12.6629942 13.2547234,12.6133318 L13.3564939,12.6064852 L19.7981367,12.6064852 Z M3.44621165,2.3970501 L3.53033009,2.4696682 L9.894,8.83299844 L9.89350607,4.20186033 C9.89350607,3.82216483 10.17566,3.50836986 10.5417355,3.45870747 L10.6435061,3.45186086 C11.0232018,3.45186086 11.336997,3.73401454 11.3866595,4.10008985 L11.3935061,4.20186033 L11.3935061,10.6434987 C11.3935061,11.0231942 11.1113522,11.3369892 10.7452766,11.3866516 L10.6435061,11.3934982 L4.20186325,11.3934982 C3.78764969,11.3934982 3.45186325,11.057712 3.45186325,10.6434987 C3.45186325,10.2638032 3.73401713,9.95000821 4.10009269,9.90034582 L4.20186325,9.89349816 L8.833,9.89399844 L2.46966991,3.53032764 C2.1767767,3.23743462 2.1767767,2.76256122 2.46966991,2.4696682 C2.73593648,2.20340182 3.15260016,2.17919579 3.44621165,2.3970501 Z" transform="translate(12.000000, 11.999992) scale(-1, 1) translate(-12.000000, -11.999992) "></path>
        </g>
    </g>
</svg>