<svg viewBox="0 0 24 24" xmlns="http://www.w3.org/2000/svg"
	xmlns:xlink="http://www.w3.org/1999/xlink">
	<defs />
	<g opacity="0.000000" />
	<path id="矢量 77"
		d="M9.8942 8.83353L9.89349 4.20187C9.89349 3.82217 10.1757 3.50836 10.5417 3.45871L10.6435 3.45187C11.0232 3.45187 11.337 3.73401 11.3867 4.1001L11.3935 4.20187L11.3935 10.6435C11.3935 11.0232 11.1113 11.337 10.7453 11.3867L10.6435 11.3935L4.20184 11.3935C3.78763 11.3935 3.45184 11.0577 3.45184 10.6435C3.45184 10.2638 3.73401 9.95001 4.10007 9.90036L4.20184 9.89349L8.83356 9.89423L2.46967 3.53033C2.17679 3.23743 2.17679 2.76257 2.46967 2.46967C2.73593 2.2034 3.15262 2.1792 3.44623 2.39703L3.53033 2.46967L9.8942 8.83353ZM20.5482 13.3565C20.5482 12.9423 20.2124 12.6065 19.7982 12.6065L13.3565 12.6065L13.2547 12.6133C12.8887 12.663 12.6065 12.9768 12.6065 13.3565L12.6065 19.7981L12.6133 19.8999C12.663 20.266 12.9768 20.5481 13.3565 20.5481L13.4583 20.5413C13.8243 20.4916 14.1065 20.1778 14.1065 19.7981L14.1061 15.1668L20.4697 21.5303L20.5538 21.603C20.8474 21.8208 21.2641 21.7966 21.5303 21.5303C21.8232 21.2374 21.8232 20.7626 21.5303 20.4697L15.1667 14.1061L19.7982 14.1065L19.8999 14.0996C20.266 14.05 20.5482 13.7362 20.5482 13.3565Z"
		fill-rule="evenodd" />
</svg>