<?xml version="1.0" encoding="UTF-8"?>
<svg viewBox="0 0 24 24" version="1.1" xmlns="http://www.w3.org/2000/svg" xmlns:xlink="http://www.w3.org/1999/xlink">
    <g id="页面-1" stroke="none" stroke-width="1">
        <g id="画板" transform="translate(-319.000000, -2345.000000)">
            <g id="编组" transform="translate(319.000000, 2345.000000)">
                <path d="M13.75195,14.453 L13.7540307,14.422596 L13.7540307,14.422596 L13.7625624,14.3629449 L13.7625624,14.3629449 C13.7646258,14.3519672 13.7670647,14.3402739 13.7697847,14.328633 C13.774728,14.3073736 13.7804603,14.2869476 13.787015,14.2668936 C13.791729,14.2524422 13.7970401,14.2377044 13.8028271,14.2231116 C13.8097541,14.2057846 13.8171665,14.189004 13.8251623,14.1725594 C13.8307786,14.1607939 13.8369597,14.1488686 13.8434824,14.1370817 C13.8558976,14.114901 13.8692324,14.0934849 13.8835791,14.0728244 L13.9010177,14.0485584 L13.9010177,14.0485584 L13.9722462,13.9672409 L13.9722462,13.9672409 L14.02995,13.917 L13.97095,13.967 L14.0273921,13.9176056 L14.0273921,13.9176056 L14.04195,13.906 L14.04495,13.904 L14.04695,13.902 L14.0888802,13.8725727 L14.0888802,13.8725727 C14.107801,13.8603187 14.1274734,13.8486364 14.1476978,13.8378534 L14.1850099,13.8191508 L14.1850099,13.8191508 C14.2118481,13.8068174 14.2399773,13.7957578 14.2688744,13.7864044 C14.2728889,13.7850531 14.2769169,13.7837895 14.2809533,13.7825606 C14.318984,13.7710186 14.3581269,13.7623938 14.3982794,13.7569466 L14.50005,13.7501 L20.25005,13.7501 C20.6642636,13.7501 21.00005,14.0858864 21.00005,14.5001 C21.00005,14.8797958 20.7178961,15.193591 20.3518206,15.2432534 L20.25005,15.2501 L16.31095,15.25 L20.7803801,19.7196699 C21.0732733,20.0125631 21.0732733,20.4874369 20.7803801,20.7803301 C20.5141135,21.0465966 20.0974498,21.0708027 19.8038383,20.8529482 L19.7197199,20.7803301 L15.24895,16.31 L15.25005,20.2491 C15.25005,20.6287958 14.9678961,20.942591 14.6018206,20.9922534 L14.50005,20.9991 C14.1203542,20.9991 13.806559,20.7169461 13.7568966,20.3508706 L13.75005,20.2491 L13.7502293,14.4835489 L13.7515124,14.4530412 L13.7515124,14.4530412 L13.7532246,14.4306305 L13.7532246,14.4306305 L13.75195,14.453 Z M10.0277538,13.9672409 L10.0989823,14.0485584 C10.1050948,14.0566481 10.1110217,14.0648335 10.1164209,14.0728244 C10.1307676,14.0934849 10.1441024,14.114901 10.1565176,14.1370817 C10.1630403,14.1488686 10.1692214,14.1607939 10.1748377,14.1725594 C10.1828335,14.189004 10.1902459,14.2057846 10.1971729,14.2231116 C10.2029599,14.2377044 10.208271,14.2524422 10.212985,14.2668936 C10.2195397,14.2869476 10.225272,14.3073736 10.2302153,14.328633 C10.2329353,14.3402739 10.2353742,14.3519672 10.2374376,14.3629449 L10.2374376,14.3629449 L10.24595,14.43 L10.24895,14.482 L10.24895,14.483 L10.24995,14.5001 L10.24995,20.2491 L10.2431034,20.3508706 C10.193441,20.7169461 9.87964577,20.9991 9.49995,20.9991 L9.49995,20.9991 L9.39817944,20.9922534 C9.03210388,20.942591 8.74995,20.6287958 8.74995,20.2491 L8.74995,20.2491 L8.75105,16.31 L4.28028009,20.7803301 L4.19616165,20.8529482 C3.90255016,21.0708027 3.48588648,21.0465966 3.21961991,20.7803301 C2.9267267,20.4874369 2.9267267,20.0125631 3.21961991,19.7196699 L3.21961991,19.7196699 L7.68905,15.25 L3.74995,15.2501 L3.64817944,15.2432534 C3.28210388,15.193591 2.99995,14.8797958 2.99995,14.5001 C2.99995,14.0858864 3.33573644,13.7501 3.74995,13.7501 L3.74995,13.7501 L9.49995,13.7501 L9.60172056,13.7569466 C9.64187311,13.7623938 9.68101605,13.7710186 9.7190467,13.7825606 L9.7190467,13.7825606 L9.7311256,13.7864044 C9.76002267,13.7957578 9.78815194,13.8068174 9.81499014,13.8191508 C9.82745887,13.8249188 9.83980182,13.8310476 9.85230224,13.8378534 C9.87252665,13.8486364 9.89219896,13.8603187 9.91111979,13.8725727 L9.91111979,13.8725727 L9.95295,13.903 L9.95695,13.906 L9.97260794,13.9176056 L9.97260794,13.9176056 L10.02795,13.967 L9.96895,13.917 L10.0277538,13.9672409 L10.0277538,13.9672409 Z M9.95795,10.094 L9.91211979,10.1284273 L9.91211979,10.1284273 C9.89196486,10.1415922 9.87097753,10.1539723 9.84936825,10.165329 C9.84024638,10.1701626 9.83151563,10.1745192 9.82272041,10.1786949 C9.79593188,10.191442 9.76747211,10.2029466 9.73821047,10.2126971 C9.73126678,10.2149554 9.72519558,10.2168799 9.71910554,10.2187252 C9.68201605,10.2300814 9.64287311,10.2387062 9.60272056,10.2441534 L9.50095,10.251 L3.75095,10.251 C3.33673644,10.251 3.00095,9.91521356 3.00095,9.501 C3.00095,9.12130423 3.28310388,8.80750904 3.64917944,8.75784662 L3.75095,8.751 L7.68995,8.751 L3.21961991,4.28033009 C2.9267267,3.98743687 2.9267267,3.51256313 3.21961991,3.21966991 C3.48588648,2.95340335 3.90255016,2.9291973 4.19616165,3.14705176 L4.28028009,3.21966991 L8.74995,7.689 L8.75095,3.75 C8.75095,3.37030423 9.03310388,3.05650904 9.39917944,3.00684662 L9.50095,3 C9.88064577,3 10.194441,3.28215388 10.2441034,3.64822944 L10.25095,3.75 L10.25095,9.501 L10.2507483,9.51844798 L10.24695,9.57 L10.2494563,9.54845658 C10.2488265,9.5584514 10.2479975,9.568436 10.2469693,9.57840395 L10.24695,9.57 L10.2384376,9.63815509 L10.2384376,9.63815509 C10.2363742,9.64903282 10.2339353,9.6607261 10.2312153,9.67236702 C10.2257791,9.6958272 10.2193707,9.71828345 10.2119697,9.74028365 C10.208647,9.75009131 10.2049215,9.76045649 10.2009607,9.77075191 C10.1935005,9.79009421 10.185505,9.80851392 10.1768102,9.82653283 L10.1540892,9.87004532 L10.1540892,9.87004532 C10.144137,9.88750806 10.1334887,9.90465806 10.1221871,9.92132907 C10.1152647,9.93166123 10.1077743,9.94212909 10.0999823,9.95244158 L10.0312801,10.0313301 L10.0300308,10.0325788 L9.97360794,10.0833944 L9.97360794,10.0833944 L9.95895,10.093 L9.95795,10.094 Z M14.0263921,10.0833944 L13.96895,10.032 L14.02795,10.083 L13.9699692,10.0325788 L13.9699692,10.0325788 L13.9000177,9.95244158 C13.8922257,9.94212909 13.8847353,9.93166123 13.8778129,9.92132907 C13.8665113,9.90465806 13.855863,9.88750806 13.8459108,9.87004532 L13.8459108,9.87004532 L13.8231898,9.82653283 C13.814495,9.80851392 13.8064995,9.79009421 13.7990393,9.77075191 C13.7950785,9.76045649 13.791353,9.75009131 13.7880303,9.74028365 C13.7806293,9.71828345 13.7742209,9.6958272 13.7687847,9.67236702 C13.7660647,9.6607261 13.7636258,9.64903282 13.7615624,9.63815509 L13.7615624,9.63815509 L13.7530307,9.57840395 L13.7530307,9.57840395 L13.75195,9.566 L13.7505437,9.54845658 L13.7505437,9.54845658 L13.7492517,9.51844798 L13.74905,3.75 L13.7558966,3.64822944 C13.805559,3.28215388 14.1193542,3 14.49905,3 L14.49905,3 L14.6008206,3.00684662 C14.9668961,3.05650904 15.24905,3.37030423 15.24905,3.75 L15.24905,3.75 L15.25005,7.689 L19.7197199,3.21966991 L19.8038383,3.14705176 C20.0974498,2.9291973 20.5141135,2.95340335 20.7803801,3.21966991 C21.0732733,3.51256313 21.0732733,3.98743687 20.7803801,4.28033009 L20.7803801,4.28033009 L16.31005,8.751 L20.24905,8.751 L20.3508206,8.75784662 C20.7168961,8.80750904 20.99905,9.12130423 20.99905,9.501 C20.99905,9.91521356 20.6632636,10.251 20.24905,10.251 L20.24905,10.251 L14.49905,10.251 L14.3972794,10.2441534 C14.3571269,10.2387062 14.317984,10.2300814 14.2808945,10.2187252 C14.2748044,10.2168799 14.2687332,10.2149554 14.2617895,10.2126971 C14.2325279,10.2029466 14.2040681,10.191442 14.1772796,10.1786949 C14.1684844,10.1745192 14.1597536,10.1701626 14.1506318,10.165329 C14.1290225,10.1539723 14.1080351,10.1415922 14.0878802,10.1284273 L14.0878802,10.1284273 L14.04095,10.094 L14.03995,10.093 L14.0263921,10.0833944 L14.0263921,10.0833944 Z" id="形状结合"></path>
            </g>
        </g>
    </g>
</svg>