<svg viewBox="0 0 24 24" xmlns="http://www.w3.org/2000/svg"
	xmlns:xlink="http://www.w3.org/1999/xlink">
	<defs />
	<path id="矢量 147"
		d="M3.6803 2.63116L9.25012 8.18909L9.25 4C9.25 3.6203 9.53217 3.30652 9.89825 3.25684L10 3.25C10.3797 3.25 10.6935 3.53217 10.7432 3.89825L10.75 4L10.75 10C10.75 10.3797 10.4678 10.6935 10.1018 10.7432L10 10.75L4 10.75C3.58582 10.75 3.25 10.4142 3.25 10C3.25 9.6203 3.53217 9.30652 3.89825 9.25684L4 9.25L8.18909 9.25012L2.70377 3.76443C2.41089 3.47156 2.41089 2.99664 2.70377 2.70377C2.97003 2.4375 3.38672 2.4133 3.6803 2.63116ZM21.2963 2.70377C21.03 2.4375 20.6133 2.4133 20.3197 2.63116L14.7491 8.18909L14.75 4C14.75 3.6203 14.4678 3.30652 14.1018 3.25684L14 3.25C13.6203 3.25 13.3065 3.53217 13.2568 3.89825L13.25 4L13.25 10C13.25 10.3797 13.5322 10.6935 13.8983 10.7432L14 10.75L20 10.75C20.4142 10.75 20.75 10.4142 20.75 10C20.75 9.6203 20.4678 9.30652 20.1018 9.25684L20 9.25L15.8101 9.25012L21.2963 3.76443C21.5891 3.47156 21.5891 2.99664 21.2963 2.70377ZM10.1018 13.2568L10 13.25L4 13.25C3.58582 13.25 3.25 13.5858 3.25 14C3.25 14.3797 3.53217 14.6935 3.89825 14.7432L4 14.75L8.19009 14.7481L2.70377 20.2356C2.41089 20.5285 2.41089 21.0034 2.70377 21.2963C2.97003 21.5625 3.38672 21.5867 3.6803 21.3689L9.25012 15.8101L9.25 20C9.25 20.3797 9.53217 20.6935 9.89825 20.7432L10 20.75C10.3797 20.75 10.6935 20.4678 10.7432 20.1018L10.75 20L10.75 14C10.75 13.6203 10.4678 13.3065 10.1018 13.2568ZM20 13.25C20.4142 13.25 20.75 13.5858 20.75 14C20.75 14.3797 20.4678 14.6935 20.1018 14.7432L20 14.75L15.8091 14.7481L21.2963 20.2356C21.5891 20.5285 21.5891 21.0034 21.2963 21.2963C21.03 21.5625 20.6133 21.5867 20.3197 21.3689L14.7491 15.8101L14.75 20C14.75 20.3797 14.4678 20.6935 14.1018 20.7432L14 20.75C13.6203 20.75 13.3065 20.4678 13.2568 20.1018L13.25 20L13.25 14C13.25 13.6203 13.5322 13.3065 13.8983 13.2568L14 13.25L20 13.25Z"
		fill-rule="evenodd" />
</svg>