<svg viewBox="0 0 24 24" xmlns="http://www.w3.org/2000/svg"
	xmlns:xlink="http://www.w3.org/1999/xlink">
	<defs />
	<g opacity="0.000000" />
	<path id="矢量 211"
		d="M20.5538 2.39703L14.106 8.83301L14.1065 4.20184C14.1065 3.82214 13.8243 3.50836 13.4583 3.45868L13.3565 3.45184C12.9768 3.45184 12.663 3.73401 12.6133 4.1001L12.6065 4.20184L12.6065 10.6435C12.6065 11.0232 12.8887 11.337 13.2547 11.3867L13.3565 11.3935L19.7982 11.3935C20.2123 11.3935 20.5482 11.0577 20.5482 10.6435C20.5482 10.2638 20.266 9.95001 19.8999 9.90033L19.7982 9.89349L15.167 9.89398L21.5303 3.53033C21.8232 3.23743 21.8232 2.76257 21.5303 2.46967C21.264 2.20343 20.8474 2.1792 20.5538 2.39703ZM3.45184 13.3565C3.45184 12.9423 3.78766 12.6065 4.20184 12.6065L10.6435 12.6065L10.7453 12.6133C11.1113 12.663 11.3935 12.9768 11.3935 13.3565L11.3935 19.7981L11.3867 19.8999C11.337 20.266 11.0232 20.5481 10.6435 20.5481L10.5417 20.5413C10.1757 20.4916 9.89349 20.1778 9.89349 19.7981L9.89398 15.167L3.53033 21.5303C3.23669 21.7482 2.73596 21.7966 2.46967 21.5303C2.17676 21.2374 2.17676 20.7626 2.46967 20.4697L8.83398 14.105L4.20184 14.1065L4.1001 14.0996C3.73401 14.05 3.45184 13.7362 3.45184 13.3565Z"
		fill-rule="evenodd" />
</svg>