<svg viewBox="0 0 24 24" xmlns="http://www.w3.org/2000/svg"
	xmlns:xlink="http://www.w3.org/1999/xlink">
	<defs />
	<g opacity="0.000000" />
	<path id="矢量 81"
		d="M18.3405 3.31812C16.5139 1.98203 14.3112 1.25 12 1.25C6.06296 1.25 1.25002 6.06293 1.25002 12C1.25002 17.9371 6.06296 22.75 12 22.75C17.9371 22.75 22.75 17.9371 22.75 12C22.75 9.68808 22.0175 7.48468 20.6806 5.65778C20.436 5.32352 19.9668 5.25082 19.6325 5.49542C19.2982 5.74005 19.2255 6.20932 19.4701 6.54361C20.6205 8.11557 21.25 10.0093 21.25 12C21.25 17.1086 17.1086 21.25 12 21.25C6.89139 21.25 2.75002 17.1086 2.75002 12C2.75002 6.89136 6.89139 2.75 12 2.75C13.9901 2.75 15.8833 3.37915 17.455 4.52881C17.7893 4.77335 18.2585 4.70059 18.5031 4.36627C18.7477 4.03195 18.6749 3.56268 18.3405 3.31812ZM18.25 12C18.25 11.5858 17.9142 11.25 17.5 11.25L6.50002 11.25L6.39824 11.2568C6.03217 11.3065 5.75002 11.6203 5.75002 12C5.75002 12.4142 6.0858 12.75 6.50002 12.75L17.5 12.75L17.6018 12.7432C17.9679 12.6935 18.25 12.3797 18.25 12Z"
		fill-rule="evenodd" />
</svg>