<?xml version="1.0" encoding="UTF-8"?>
<svg viewBox="0 0 24 24" version="1.1" xmlns="http://www.w3.org/2000/svg" xmlns:xlink="http://www.w3.org/1999/xlink">
    <g id="页面-1" stroke="none" stroke-width="1">
        <g id="画板" transform="translate(-789.000000, -2350.000000)">
            <g id="MinusSquare" transform="translate(789.000000, 2350.000000)">
                <g id="编组" transform="translate(-0.000181, 0.000000)">
                    <path d="M18.0001808,3 C19.657035,3 21.0001808,4.34314575 21.0001808,6 C21.0001808,6.41421356 20.6643943,6.75 20.2501808,6.75 C19.8359672,6.75 19.5001808,6.41421356 19.5001808,6 C19.5001808,5.23074624 18.9211205,4.59673926 18.1751124,4.5100916 L18.0001808,4.5 L6.00018076,4.5 C5.230927,4.5 4.59692002,5.07906029 4.51027235,5.82506831 L4.50018076,6 L4.50018076,18 C4.50018076,18.7692538 5.07924104,19.4032607 5.82524907,19.4899084 L6.00018076,19.5 L18.0001808,19.5 C18.7694345,19.5 19.4034415,18.9209397 19.4900892,18.1749317 L19.5001808,18 L19.5001808,8.5 C19.5001808,8.08578644 19.8359672,7.75 20.2501808,7.75 C20.6183706,7.75 20.9245933,8.01531274 20.9880973,8.36518655 L21.0001808,8.5 L21.0001808,18 C21.0001808,19.5815427 19.7763641,20.8772477 18.2240743,20.9917714 L18.0001808,21 L6.00018076,21 C4.41863806,21 3.12293307,19.7761833 3.00840936,18.2238935 L3.00018076,18 L3.00018076,6 C3.00018076,4.41845731 4.22399744,3.12275232 5.77628724,3.0082286 L6.00018076,3 L18.0001808,3 Z M16.5653981,11.25 C16.9435931,11.25 17.2501808,11.5857864 17.2501808,12 C17.2501808,12.3796958 16.992562,12.693491 16.6583191,12.7431534 L16.5653981,12.75 L7.43496337,12.75 C7.05676837,12.75 6.75018076,12.4142136 6.75018076,12 C6.75018076,11.6203042 7.00779952,11.306509 7.34204242,11.2568466 L7.43496337,11.25 L16.5653981,11.25 Z" id="形状结合"></path>
                </g>
            </g>
        </g>
    </g>
</svg>