<svg viewBox="0 0 24 24" xmlns="http://www.w3.org/2000/svg"
	xmlns:xlink="http://www.w3.org/1999/xlink">
	<defs />
	<g opacity="0.000000" />
	<path id="矢量 82"
		d="M21.745 5.65134C21.6458 3.75616 20.0778 2.25 18.1579 2.25L5.8421 2.25L5.65134 2.25497C3.75615 2.35416 2.25 3.92224 2.25 5.8421L2.25 18.1579L2.25497 18.3487C2.35414 20.2438 3.92224 21.75 5.8421 21.75L18.1579 21.75L18.3487 21.745C20.2439 21.6458 21.75 20.0778 21.75 18.1579L21.75 10.1545L21.7431 10.0527C21.6935 9.68665 21.3797 9.40448 21 9.40448C20.5858 9.40448 20.25 9.74026 20.25 10.1545L20.25 18.1579L20.2448 18.3073C20.1681 19.393 19.2631 20.25 18.1579 20.25L5.8421 20.25L5.69269 20.2448C4.60699 20.1682 3.75 19.2631 3.75 18.1579L3.75 5.8421L3.75525 5.69269C3.83186 4.60699 4.73691 3.75 5.8421 3.75L18.1579 3.75L18.3073 3.75525C19.393 3.83185 20.25 4.73691 20.25 5.8421L20.25 7.29752L20.2569 7.39929C20.3065 7.76538 20.6203 8.04752 21 8.04752C21.4142 8.04752 21.75 7.71173 21.75 7.29752L21.75 5.8421L21.745 5.65134ZM17.75 12C17.75 11.5858 17.4142 11.25 17 11.25L7 11.25L6.89822 11.2568C6.53215 11.3065 6.25 11.6203 6.25 12C6.25 12.4142 6.58578 12.75 7 12.75L17 12.75L17.1018 12.7432C17.4678 12.6935 17.75 12.3797 17.75 12Z"
		fill-rule="evenodd" />
</svg>