<svg viewBox="0 0 24 24" xmlns="http://www.w3.org/2000/svg"
	xmlns:xlink="http://www.w3.org/1999/xlink">
	<defs />
	<g opacity="0.000000" />
	<path id="矢量 243"
		d="M5.84 2.25L18.15 2.25C20.14 2.25 21.75 3.85 21.75 5.84L21.75 18.15C21.75 20.14 20.14 21.75 18.15 21.75L5.84 21.75C3.85 21.75 2.25 20.14 2.25 18.15L2.25 5.84C2.25 3.85 3.85 2.25 5.84 2.25Z"
		fill-opacity="1.000000" fill-rule="evenodd" />
	<path id="矢量 243"
		d="M9.81 8L14.18 8C15.18 8 16 8.81 16 9.81L16 14.18C16 15.18 15.18 16 14.18 16L9.81 16C8.81 16 8 15.18 8 14.18L8 9.81C8 8.81 8.81 8 9.81 8Z"
		fill="#FFFFFF" fill-opacity="1.000000" fill-rule="evenodd" />
</svg>