<?xml version="1.0" encoding="UTF-8"?>
<svg viewBox="0 0 24 24" version="1.1" xmlns="http://www.w3.org/2000/svg" xmlns:xlink="http://www.w3.org/1999/xlink">
    <g id="页面-1" stroke="none" stroke-width="1">
        <g id="画板" transform="translate(-319.000000, -2417.000000)">
            <g id="编组" transform="translate(319.000000, 2417.000000)">
                <path d="M15.497,1.25 C16.7412136,1.25 17.75,2.25878644 17.75,3.503 L17.75,3.503 L17.75,20.497 C17.75,21.7412136 16.7412136,22.75 15.497,22.75 L15.497,22.75 L8.503,22.75 C7.25878644,22.75 6.25,21.7412136 6.25,20.497 L6.25,20.497 L6.25,3.503 C6.25,2.25878644 7.25878644,1.25 8.503,1.25 L8.503,1.25 Z M15.497,2.75 L12.75,2.75 L12.7431493,2.85162569 C12.6934583,3.21756667 12.3795,3.4999 12,3.4999 C11.5863382,3.4999 11.2505491,3.1644488 11.2500007,2.75091455 L8.503,2.75 C8.08721356,2.75 7.75,3.08721356 7.75,3.503 L7.75,3.503 L7.75,20.497 C7.75,20.9127864 8.08721356,21.25 8.503,21.25 L8.503,21.25 L15.497,21.25 C15.9127864,21.25 16.25,20.9127864 16.25,20.497 L16.25,20.497 L16.25,3.503 C16.25,3.08721356 15.9127864,2.75 15.497,2.75 L15.497,2.75 Z M13,19.4999 C13.2761424,19.4999 13.5,19.7237576 13.5,19.9999 C13.5,20.2453599 13.3231248,20.4495084 13.0898756,20.4918443 L13,20.4999 L11,20.4999 C10.7238576,20.4999 10.5,20.2760424 10.5,19.9999 C10.5,19.7544401 10.6768752,19.5502916 10.9101244,19.5079557 L11,19.4999 L13,19.4999 Z" id="形状结合"></path>
            </g>
        </g>
    </g>
</svg>