<svg viewBox="0 0 24 24" xmlns="http://www.w3.org/2000/svg"
	xmlns:xlink="http://www.w3.org/1999/xlink">
	<defs />
	<g opacity="0" />
	<path id="矢量 254"
		d="M5.84 3.75L18.15 3.75C19.31 3.75 20.25 4.68 20.25 5.84L20.25 18.15C20.25 19.31 19.31 20.25 18.15 20.25L5.84 20.25C4.68 20.25 3.75 19.31 3.75 18.15L3.75 5.84C3.75 4.68 4.68 3.75 5.84 3.75Z"
		fill="#FFFFFF" fill-opacity="1" fill-rule="evenodd" />
	<path id="矢量 256"
		d="M5.84 2.25L18.15 2.25C20.14 2.25 21.75 3.85 21.75 5.84L21.75 18.15C21.75 20.14 20.14 21.75 18.15 21.75L5.84 21.75C3.85 21.75 2.25 20.14 2.25 18.15L2.25 5.84C2.25 3.85 3.85 2.25 5.84 2.25ZM18.15 3.75L5.84 3.75C4.68 3.75 3.75 4.68 3.75 5.84L3.75 18.15C3.75 19.31 4.68 20.25 5.84 20.25L18.15 20.25C19.31 20.25 20.25 19.31 20.25 18.15L20.25 5.84C20.25 4.68 19.31 3.75 18.15 3.75Z"
		fill-opacity="1" fill-rule="evenodd" />
</svg>