<svg viewBox="0 0 24 24" xmlns="http://www.w3.org/2000/svg"
	xmlns:xlink="http://www.w3.org/1999/xlink">
	<defs>
		<clipPath id="clip514_2432">
			<rect id="MobileRadio" width="24" height="24" fill="white" fill-opacity="0" />
		</clipPath>
	</defs>
	<g clip-path="url(#clip514_2432)">
		<g opacity="0" />
		<path id="矢量 231"
			d="M21.25 12C21.25 6.89 17.1 2.75 12 2.75C6.89 2.75 2.75 6.89 2.75 12C2.75 17.1 6.89 21.25 12 21.25C17.1 21.25 21.25 17.1 21.25 12Z"
			fill="#FFFFFF" fill-opacity="1" fill-rule="evenodd" />
		<path id="矢量 257"
			d="M12 1.25C6.06 1.25 1.25 6.06 1.25 12C1.25 17.93 6.06 22.75 12 22.75C17.93 22.75 22.75 17.93 22.75 12C22.75 6.06 17.93 1.25 12 1.25ZM12 2.75C17.1 2.75 21.25 6.89 21.25 12C21.25 17.1 17.1 21.25 12 21.25C6.89 21.25 2.75 17.1 2.75 12C2.75 6.89 6.89 2.75 12 2.75Z"
			fill-opacity="1" fill-rule="evenodd" />
	</g>
</svg>