<?xml version="1.0" encoding="UTF-8"?>
<svg  viewBox="0 0 24 24" version="1.1" xmlns="http://www.w3.org/2000/svg" xmlns:xlink="http://www.w3.org/1999/xlink">
    <g id="S12组件" stroke="none" stroke-width="1" fill-rule="evenodd">
        <g id="CheckBox复选框_未选中@1x">
            <path d="M19.0833333,3.5 L4.91666667,3.5 C4.19014923,3.5 3.59136486,4.04689027 3.50953095,4.75145341 L3.5,4.91666667 L3.5,19.0833333 C3.5,19.8098508 4.04689027,20.4086351 4.75145341,20.490469 L4.91666667,20.5 L19.0833333,20.5 C19.8098508,20.5 20.4086351,19.9531097 20.490469,19.2485466 L20.5,19.0833333 L20.5,4.91666667 C20.5,4.19014923 19.9531097,3.59136486 19.2485466,3.50953095 L19.0833333,3.5 Z" id="矩形" fill="#FFFFFF"></path>
            <path d="M19.1428571,2 C20.7208136,2 22,3.27918643 22,4.85714286 L22,19.1428571 C22,20.7208136 20.7208136,22 19.1428571,22 L4.85714286,22 C3.27918643,22 2,20.7208136 2,19.1428571 L2,4.85714286 C2,3.27918643 3.27918643,2 4.85714286,2 L19.1428571,2 Z M19.0833333,3.5 L4.91666667,3.5 C4.19014923,3.5 3.59136486,4.04689027 3.50953095,4.75145341 L3.5,4.91666667 L3.5,19.0833333 C3.5,19.8098508 4.04689027,20.4086351 4.75145341,20.490469 L4.91666667,20.5 L19.0833333,20.5 C19.8098508,20.5 20.4086351,19.9531097 20.490469,19.2485466 L20.5,19.0833333 L20.5,4.91666667 C20.5,4.19014923 19.9531097,3.59136486 19.2485466,3.50953095 L19.0833333,3.5 Z" id="矩形" fill-rule="nonzero"></path>
        </g>
    </g>
</svg>