<svg viewBox="0 0 24 24" xmlns="http://www.w3.org/2000/svg"
	xmlns:xlink="http://www.w3.org/1999/xlink">
	<defs />
	<g opacity="0.000000" />
	<path id="矢量 86"
		d="M8.20129 1.25L15.7987 1.25C17.8325 1.25 19.25 2.31125 19.25 4.27274L19.25 19.7273C19.25 21.6888 17.8325 22.75 15.7987 22.75L8.20129 22.75C6.16748 22.75 4.75 21.6888 4.75 19.7273L4.75 4.27274C4.75 2.31125 6.16748 1.25 8.20129 1.25ZM15.7987 2.75L8.20129 2.75C6.91711 2.75 6.25 3.24948 6.25 4.27274L6.25 19.7273C6.25 20.7505 6.91711 21.25 8.20129 21.25L15.7987 21.25C17.0829 21.25 17.75 20.7505 17.75 19.7273L17.75 4.27274C17.75 3.24948 17.0829 2.75 15.7987 2.75ZM12 6C12.5518 6 13 5.55179 13 5C13 4.44821 12.5518 4 12 4C11.4482 4 11 4.44821 11 5C11 5.55179 11.4482 6 12 6Z"
		fill-rule="evenodd" />
</svg>