<?xml version="1.0" encoding="UTF-8"?>
<svg viewBox="0 0 24 24" version="1.1" xmlns="http://www.w3.org/2000/svg" xmlns:xlink="http://www.w3.org/1999/xlink">
    <g id="S12组件" stroke="none" stroke-width="1" fill-rule="evenodd">
        <g id="CheckBox复选框_选中@1x">
            <path d="M18.5208153,7.87867966 C18.1603313,7.51819569 17.5931003,7.49046616 17.2008091,7.79549105 L17.1066017,7.87867966 L10.7419336,14.2419336 L7.20710678,10.7071068 C6.81658249,10.3165825 6.18341751,10.3165825 5.79289322,10.7071068 C5.43240926,11.0675907 5.40467972,11.6348218 5.70970461,12.027113 L5.79289322,12.1213203 L10.0355339,16.363961 C10.3960179,16.724445 10.9632489,16.7521745 11.3555401,16.4471496 L11.4497475,16.363961 L18.5208153,9.29289322 C18.9113396,8.90236893 18.9113396,8.26920395 18.5208153,7.87867966 Z" id="路径" fill="#FFFFFF" fill-rule="nonzero"></path>
            <path d="M19,2 C20.6568542,2 22,3.34314575 22,5 L22,19 C22,20.6568542 20.6568542,22 19,22 L5,22 C3.34314575,22 2,20.6568542 2,19 L2,5 C2,3.34314575 3.34314575,2 5,2 L19,2 Z M18.5208153,7.87867966 C18.1603313,7.51819569 17.5931003,7.49046616 17.2008091,7.79549105 L17.1066017,7.87867966 L10.7419336,14.2419336 L7.20710678,10.7071068 C6.81658249,10.3165825 6.18341751,10.3165825 5.79289322,10.7071068 C5.43240926,11.0675907 5.40467972,11.6348218 5.70970461,12.027113 L5.79289322,12.1213203 L10.0355339,16.363961 C10.3960179,16.724445 10.9632489,16.7521745 11.3555401,16.4471496 L11.4497475,16.363961 L18.5208153,9.29289322 C18.9113396,8.90236893 18.9113396,8.26920395 18.5208153,7.87867966 Z" id="形状备份" fill-rule="nonzero"></path>
        </g>
    </g>
</svg>