<?xml version="1.0" encoding="UTF-8"?>
<svg width="24px" height="24px" viewBox="0 0 24 24" version="1.1" xmlns="http://www.w3.org/2000/svg" xmlns:xlink="http://www.w3.org/1999/xlink">
  <title>ic/error</title>
  <g id="ic/error" stroke="none" stroke-width="1" fill="none" fill-rule="evenodd">
    <g id="编组" fill="#FFFFFF">
      <path d="M12,0 C18.627417,0 24,5.372583 24,12 C24,18.627417 18.627417,24 12,24 C5.372583,24 0,18.627417 0,12 C0,5.372583 5.372583,0 12,0 Z M12,1 C5.92486775,1 1,5.92486775 1,12 C1,18.0751322 5.92486775,23 12,23 C18.0751322,23 23,18.0751322 23,12 C23,5.92486775 18.0751322,1 12,1 Z" id="椭圆形" fill-opacity="0.898553595" fill-rule="nonzero"></path>
      <path d="M17.8336309,6.16636906 C18.0533009,6.38603897 18.0533009,6.74219427 17.8336309,6.96186418 L6.96186418,17.8336309 C6.74219427,18.0533009 6.38603897,18.0533009 6.16636906,17.8336309 C5.94669914,17.613961 5.94669914,17.2578057 6.16636906,17.0381358 L11.2046375,11.9996023 L6.16636906,6.96186418 C5.94669914,6.74219427 5.94669914,6.38603897 6.16636906,6.16636906 C6.38603897,5.94669914 6.74219427,5.94669914 6.96186418,6.16636906 L12,11.2042397 L17.0381358,6.16636906 C17.2578057,5.94669914 17.613961,5.94669914 17.8336309,6.16636906 Z M17.8336309,17.0381358 C18.0533009,17.2578057 18.0533009,17.613961 17.8336309,17.8336309 C17.613961,18.0533009 17.2578057,18.0533009 17.0381358,17.8336309 L11.9993524,12.7953625 L12.7947149,12 L17.8336309,17.0381358 Z" id="形状" fill-opacity="0.895881706"></path>
    </g>
  </g>
</svg>