<svg viewBox="0 0 24 24" xmlns="http://www.w3.org/2000/svg"
	xmlns:xlink="http://www.w3.org/1999/xlink">
	<defs />
	<g opacity="0.000000" />
	<path id="矢量 213"
		d="M5.84 2.25L18.15 2.25C20.14 2.25 21.75 3.85 21.75 5.84L21.75 18.15C21.75 20.14 20.14 21.75 18.15 21.75L5.84 21.75C3.85 21.75 2.25 20.14 2.25 18.15L2.25 5.84C2.25 3.85 3.85 2.25 5.84 2.25Z"
		fill-opacity="1.000000" fill-rule="evenodd" />
	<path id="矢量 213"
		d="M17.53 8.47C17.24 8.17 16.76 8.17 16.47 8.46L10.94 13.94L7.52 10.55C7.23 10.33 6.73 10.28 6.46 10.55C6.17 10.84 6.17 11.32 6.47 11.61L10.42 15.53C10.71 15.74 11.21 15.79 11.47 15.53L17.52 9.53C17.74 9.23 17.79 8.73 17.53 8.47Z"
		fill="#FFFFFF" fill-opacity="1.000000" fill-rule="evenodd" />
</svg>