<?xml version="1.0" encoding="UTF-8"?>
<svg viewBox="0 0 16 16" version="1.1" xmlns="http://www.w3.org/2000/svg" xmlns:xlink="http://www.w3.org/1999/xlink">
    <g id="月视图">
        <path d="M12,2 C13.1045695,2 14,2.8954305 14,4 L14,12 C14,13.1045695 13.1045695,14 12,14 L4,14 C2.8954305,14 2,13.1045695 2,12 L2,4 C2,2.8954305 2.8954305,2 4,2 L12,2 Z M3,8.5 L3,12 C3,12.5128358 3.38604019,12.9355072 3.88337887,12.9932723 L4,13 L5.7,13 L5.699,8.5 L3,8.5 Z M9.3,8.5 L6.699,8.5 L6.7,13 L9.3,13 L9.3,8.5 Z M13,8.5 L10.3,8.5 L10.3,13 L12,13 C12.5128358,13 12.9355072,12.6139598 12.9932723,12.1166211 L13,12 L13,8.5 Z M9.3,3 L6.699,3 L6.699,7.5 L9.3,7.5 L9.3,3 Z M12,3 L10.3,3 L10.3,7.5 L13,7.5 L13,4 C13,3.48716416 12.6139598,3.06449284 12.1166211,3.00672773 L12,3 Z M3,7.5 L5.699,7.5 L5.699,3 L4,3 C3.48716416,3 3.06449284,3.38604019 3.00672773,3.88337887 L3,4 L3,7.5 Z"></path>
    </g>
</svg>