<svg viewBox="0 0 24 24" xmlns="http://www.w3.org/2000/svg"
	xmlns:xlink="http://www.w3.org/1999/xlink">
	<defs />
	<g opacity="0.000000" />
	<path id="矢量 88"
		d="M4 10C5.10535 10 6 10.8947 6 12C6 13.1053 5.10535 14 4 14C2.89465 14 2 13.1053 2 12C2 10.8947 2.89465 10 4 10ZM14 12C14 10.8947 13.1053 10 12 10C10.896 10 10 10.8947 10 12C10 13.1053 10.896 14 12 14C13.1053 14 14 13.1053 14 12ZM20 10C18.8947 10 18 10.896 18 12C18 13.1053 18.8947 14 20 14C21.1053 14 22 13.1053 22 12C22 10.896 21.1053 10 20 10Z"
		fill-rule="evenodd" />
</svg>