<?xml version="1.0" encoding="UTF-8"?>
<svg viewBox="0 0 16 16" version="1.1" xmlns="http://www.w3.org/2000/svg" xmlns:xlink="http://www.w3.org/1999/xlink">
    <g id="查询列表页" stroke="none" stroke-width="1" fill-rule="evenodd">
        <g id="线性/ic_trash_lined备份-14">
            <rect id="矩形备份-68" fill="#D8D8D8" opacity="0" x="0" y="0" width="16" height="16"></rect>
            <path d="M8,12.0075 C8.552,12.0075 9,12.4555 9,13.0075 C9,13.5601667 8.552,14.0075 8,14.0075 C7.448,14.0075 7,13.5601667 7,13.0075 C7,12.4555 7.448,12.0075 8,12.0075 Z M8,7.0075 C8.552,7.0075 9,7.45483333 9,8.0075 C9,8.5595 8.552,9.0075 8,9.0075 C7.448,9.0075 7,8.5595 7,8.0075 C7,7.45483333 7.448,7.0075 8,7.0075 Z M8,1.9925 C8.552,1.9925 9,2.4405 9,2.9925 C9,3.5445 8.552,3.9925 8,3.9925 C7.448,3.9925 7,3.5445 7,2.9925 C7,2.4405 7.448,1.9925 8,1.9925 Z" id="形状结合" transform="translate(8.000000, 8.000000) rotate(-90.000000) translate(-8.000000, -8.000000) "></path>
        </g>
    </g>
</svg>