<svg viewBox="0 0 48 48" xmlns="http://www.w3.org/2000/svg" xmlns:xlink="http://www.w3.org/1999/xlink" width="48.000000" height="48.000000">
  <path id="减去顶层" d="M36 7L12 7C8.68629 7 6 9.68629 6 13L6 17L42 17L42 13C42 9.68629 39.3137 7 36 7ZM17 12C17 10.8954 16.1046 10 15 10C13.8954 10 13 10.8954 13 12C13 13.1046 13.8954 14 15 14C16.1046 14 17 13.1046 17 12ZM17 12L17 12.5L22.063 12.5C22.285 13.3626 23.0681 14 24 14C24.9319 14 25.715 13.3626 25.937 12.5L31.063 12.5C31.285 13.3626 32.0681 14 33 14C34.1046 14 35 13.1046 35 12C35 10.8954 34.1046 10 33 10C32.0681 10 31.285 10.6374 31.063 11.5L25.937 11.5C25.715 10.6374 24.9319 10 24 10C23.0681 10 22.285 10.6374 22.063 11.5L17 11.5L17 12Z" fill="var(--tiny-second-color)" fill-rule="evenodd"/>
  <path id="减去顶层" d="M42 19.5L42 35.084C42 38.392 39.308 41.084 36 41.084L12 41.084C8.692 41.084 6 38.392 6 35.084L6 19.5L42 19.5Z" fill="var(--tiny-first-color)" fill-rule="evenodd"/>
</svg>