<svg viewBox="0 0 24 24" xmlns="http://www.w3.org/2000/svg"
	xmlns:xlink="http://www.w3.org/1999/xlink">
	<defs />
	<g opacity="0.000000" />
	<path id="矢量 168"
		d="M18.1579 2.25C20.0778 2.25 21.6459 3.75616 21.745 5.65134L21.75 5.8421L21.75 8.29752C21.75 8.71173 21.4142 9.04752 21 9.04752C20.6203 9.04752 20.3065 8.76538 20.2568 8.39929L20.25 8.29752L20.25 5.8421C20.25 4.73691 19.393 3.83185 18.3073 3.75525L18.1579 3.75L5.8421 3.75C4.73694 3.75 3.83185 4.60699 3.75525 5.69269L3.75 5.8421L3.75 18.1579C3.75 19.2631 4.60699 20.1682 5.69269 20.2448L5.8421 20.25L18.1579 20.25C19.2631 20.25 20.1682 19.393 20.2448 18.3073L20.25 18.1579L20.25 11.4773C20.25 11.0631 20.5858 10.7273 21 10.7273C21.3797 10.7273 21.6935 11.0095 21.7432 11.3755L21.75 11.4773L21.75 18.1579C21.75 20.0778 20.2438 21.6458 18.3486 21.745L18.1579 21.75L5.8421 21.75C3.92224 21.75 2.35413 20.2438 2.255 18.3487L2.25 18.1579L2.25 5.8421C2.25 3.92224 3.75616 2.35416 5.65137 2.25497L5.8421 2.25L18.1579 2.25ZM12.7432 6.89822C12.6935 6.53217 12.3797 6.25 12 6.25C11.5858 6.25 11.25 6.58578 11.25 7L11.25 11.25L7 11.25L6.89819 11.2568C6.53217 11.3065 6.25 11.6203 6.25 12C6.25 12.4142 6.58582 12.75 7 12.75L11.25 12.75L11.25 17L11.2568 17.1018C11.3065 17.4678 11.6203 17.75 12 17.75C12.4142 17.75 12.75 17.4142 12.75 17L12.75 12.75L17 12.75L17.1018 12.7432C17.4678 12.6935 17.75 12.3797 17.75 12C17.75 11.5858 17.4142 11.25 17 11.25L12.75 11.25L12.75 7L12.7432 6.89822Z"
		fill-rule="evenodd" />
</svg>