<?xml version="1.0" encoding="UTF-8"?>
<svg viewBox="0 0 24 24" version="1.1" xmlns="http://www.w3.org/2000/svg"
    xmlns:xlink="http://www.w3.org/1999/xlink">
    <g id="S12组件" stroke="none" stroke-width="1">
        <g id="New">
            <g id="编组">
                <rect id="矩形备份-14" opacity="0" x="0" y="0" width="24" height="24"></rect>
                <path
                    d="M18,3 C19.6568546,3 21,4.34314573 21,6 C21,6.41421366 20.6642132,6.75 20.25,6.75 C19.8357868,6.75 19.5,6.41421366 19.5,6 C19.5,5.23074627 18.9209394,4.59673929 18.1749315,4.51009154 L18,4.5 L6,4.5 C5.23074627,4.5 4.59673929,5.07906032 4.51009154,5.82506824 L4.5,6 L4.5,18 C4.5,18.7692537 5.07906032,19.4032612 5.82506824,19.4899082 L6,19.5 L18,19.5 C18.7692537,19.5 19.4032612,18.9209394 19.4899082,18.1749315 L19.5,18 L19.5,8.5 C19.5,8.08578634 19.8357868,7.75 20.25,7.75 C20.6181889,7.75 20.9244118,8.01531267 20.9879169,8.36518669 L21,8.5 L21,18 C21,19.581543 19.7761841,20.8772469 18.2238932,20.9917717 L18,21 L6,21 C4.41845727,21 3.12275232,19.7761841 3.0082286,18.2238932 L3,18 L3,6 C3,4.41845727 4.22381663,3.12275232 5.7761066,3.0082286 L6,3 L18,3 Z M12,6.75 C12.3796958,6.75 12.693491,7.00761876 12.7431533,7.34186167 L12.75,7.43478262 L12.75,11.25 L16.565217,11.25 C16.9434128,11.25 17.25,11.5857864 17.25,12 C17.25,12.3796958 16.9923811,12.693491 16.6581383,12.7431533 L16.565217,12.75 L12.75,12.75 L12.75,16.565217 C12.75,16.9434128 12.4142135,17.25 12,17.25 C11.6203042,17.25 11.306509,16.9923811 11.2568466,16.6581383 L11.25,16.565217 L11.25,12.75 L7.43478262,12.75 C7.05658761,12.75 6.75,12.4142135 6.75,12 C6.75,11.6203042 7.00761876,11.306509 7.34186167,11.2568466 L7.43478262,11.25 L11.25,11.25 L11.25,7.43478262 C11.25,7.05658761 11.5857864,6.75 12,6.75 Z"
                    id="形状结合"></path>
            </g>
        </g>
    </g>
</svg>