<?xml version="1.0" encoding="UTF-8"?>
<svg viewBox="0 0 96 96" version="1.1" xmlns="http://www.w3.org/2000/svg" xmlns:xlink="http://www.w3.org/1999/xlink">
    <g id="缺省图" stroke="none" stroke-width="1" fill="none" fill-rule="evenodd">
        <g transform="translate(-332.000000, -710.000000)" id="暂无数据">
            <g transform="translate(332.000000, 710.500000)">
                <rect id="矩形" x="0" y="0.5" width="96" height="96"></rect>
                <g id="1" transform="translate(3.000000, 0.000000)">
                    <g id="编组">
                        <rect id="矩形" x="0" y="0" width="90" height="90"></rect>
                        <path d="M15.3,28.8 L76.705596,28.8 C77.586161,28.8 78.3,29.513839 78.3,30.394404 L78.3,74.64456 C78.3,77.16046 76.26046,79.2 73.74456,79.2 L19.85544,79.2 C17.33954,79.2 15.3,77.16046 15.3,74.64456 L15.3,28.8 L15.3,28.8 Z" id="矩形备份" fill="#EEEEEE"></path>
                        <path d="M12.394404,28.8 L61.2,28.8 L61.2,28.8 L61.2,74.64456 C61.2,77.16046 59.16046,79.2 56.64456,79.2 L15.35544,79.2 C12.83954,79.2 10.8,77.16046 10.8,74.64456 L10.8,30.394404 C10.8,29.513839 11.513839,28.8 12.394404,28.8 Z" id="矩形" fill="#FFFFFF"></path>
                        <path d="M0.9,28.8 L50.3597271,28.8 C51.1444342,28.8 51.8738834,29.2039259 52.2902931,29.8690335 L60.1086173,42.3567967 C60.4423869,42.8899078 60.2807887,43.5926535 59.7476776,43.926423 C59.5665101,44.0398482 59.3570793,44.1 59.1433343,44.1 L13.2782817,44.1 C11.733029,44.1 10.2931308,43.3166567 9.45367027,42.0193086 L0.9,28.8 L0.9,28.8 Z" id="矩形" fill="#FFFFFF" transform="translate(31.050000, 36.450000) scale(-1, 1) translate(-31.050000, -36.450000) "></path>
                        <path d="M61.2,28.8 L78.03182,28.8 C78.8072896,28.8 79.5294823,29.1945394 79.9484651,29.847078 L87.9736731,42.345819 C88.3135056,42.8750859 88.1599385,43.5796302 87.6306716,43.9194626 C87.4470907,44.0373364 87.2335161,44.1 87.0153506,44.1 L72.8054659,44.1 C71.1911807,44.1 69.6974514,43.2456674 68.8789763,41.8542598 L61.2,28.8 L61.2,28.8 Z" id="矩形备份-4" fill="#FFFFFF"></path>
                    </g>
                    <g id="编组">
                        <rect id="矩形" x="0" y="0" width="90" height="90"></rect>
                        <path d="M78.8130631,43.6021959 L78.8130631,75.1495495 C78.8130631,77.3863028 76.9998163,79.1995495 74.7630631,79.1995495 L57.2072776,79.1995495 L57.2072776,78.2995495 L74.7630631,78.2995495 C76.50276,78.2995495 77.9130631,76.8892465 77.9130631,75.1495495 L77.9130631,43.6021959 L78.8130631,43.6021959 Z" id="矩形备份" fill="#818181" fill-rule="nonzero"></path>
                        <path d="M61.65,28.8004505 L61.65,75.1495495 C61.65,77.3863028 59.8367532,79.1995495 57.6,79.1995495 L14.4,79.1995495 C12.1632468,79.1995495 10.35,77.3863028 10.35,75.1495495 L10.35,43.6021959 L11.25,43.6021959 L11.25,75.1495495 C11.25,76.8892465 12.6603031,78.2995495 14.4,78.2995495 L57.6,78.2995495 C59.3396969,78.2995495 60.75,76.8892465 60.75,75.1495495 L60.75,29.7004505 L12.06,29.7004505 L12.06,28.8004505 L61.65,28.8004505 Z" id="矩形" fill="#818181" fill-rule="nonzero"></path>
                        <path d="M51.3494492,28.8 C51.9695749,28.8 52.5460323,29.1192081 52.8751059,29.6448186 L61.0627086,42.7224093 C61.3264746,43.1437078 61.1987694,43.6990623 60.7774709,43.9628284 C60.6343007,44.0524642 60.4687952,44.1 60.2998802,44.1 L13.4836857,44.1 C12.2625281,44.1 11.1246285,43.480952 10.4612331,42.4557046 L1.62518894,28.8 L51.3494492,28.8 Z M51.3494492,29.7 L3.27924299,29.7 L11.2168462,41.9667785 C11.7143928,42.735714 12.5678175,43.2 13.4836857,43.2 L60.2998802,43.2 L52.1122775,30.1224093 C51.9477407,29.859604 51.659512,29.7 51.3494492,29.7 Z" id="矩形" fill="#818181" fill-rule="nonzero" transform="translate(31.412594, 36.450000) scale(-1, 1) translate(-31.412594, -36.450000) "></path>
                        <path d="M78.2928021,28.8 C78.9056278,28.8 79.4763506,29.1117903 79.8074576,29.627468 L88.2099045,42.713734 C88.4784618,43.1319946 88.3571033,43.6887705 87.9388427,43.9573278 C87.7937654,44.0504792 87.624985,44.1 87.4525767,44.1 L72.2590058,44.1 C70.9832944,44.1 69.802854,43.4248518 69.1560426,42.3252725 L61.2,28.8 L78.2928021,28.8 Z M78.2928021,29.7 L62.7734234,29.7 L69.9317834,41.8689543 C70.4168919,42.6936388 71.3022222,43.2 72.2590058,43.2 L87.4525767,43.2 L79.0501298,30.113734 C78.8845763,29.8558951 78.5992149,29.7 78.2928021,29.7 Z" id="矩形备份-4" fill="#818181" fill-rule="nonzero"></path>
                        <g id="编组-3" transform="translate(28.287808, 9.900000)" fill="#818181" fill-rule="nonzero">
                            <path d="M17.612192,0.45 L17.612192,6.75 C17.612192,6.99852814 17.4107201,7.2 17.162192,7.2 C16.9136638,7.2 16.712192,6.99852814 16.712192,6.75 L16.712192,0.45 C16.712192,0.201471863 16.9136638,4.56538782e-17 17.162192,0 C17.4107201,-4.56538782e-17 17.612192,0.201471863 17.612192,0.45 Z" id="路径备份"></path>
                            <path d="M32.5413712,3.0824171 L32.5413712,9.3824171 C32.5413712,9.63094524 32.3398994,9.8324171 32.0913712,9.8324171 C31.8428431,9.8324171 31.6413712,9.63094524 31.6413712,9.3824171 L31.6413712,3.0824171 C31.6413712,2.83388897 31.8428431,2.6324171 32.0913712,2.6324171 C32.3398994,2.6324171 32.5413712,2.83388897 32.5413712,3.0824171 Z" id="路径备份" transform="translate(32.091371, 6.232417) rotate(-330.000000) translate(-32.091371, -6.232417) "></path>
                            <path d="M2.6830127,3.0824171 L2.6830127,9.3824171 C2.6830127,9.63094524 2.48154084,9.8324171 2.2330127,9.8324171 C1.98448456,9.8324171 1.7830127,9.63094524 1.7830127,9.3824171 L1.7830127,3.0824171 C1.7830127,2.83388897 1.98448456,2.6324171 2.2330127,2.6324171 C2.48154084,2.6324171 2.6830127,2.83388897 2.6830127,3.0824171 Z" id="路径备份" transform="translate(2.233013, 6.232417) rotate(-30.000000) translate(-2.233013, -6.232417) "></path>
                        </g>
                        <g id="编组-2" transform="translate(17.100000, 60.300000)">
                            <rect id="矩形" fill="#0067D1" x="0" y="0" width="14.4" height="4.5" rx="1.14"></rect>
                            <rect id="矩形备份-2" fill="#818181" x="0" y="8.1" width="10.8" height="1" rx="0.398601"></rect>
                            <rect id="矩形备份-3" fill="#818181" x="0" y="11.7" width="5.4" height="1" rx="0.398601"></rect>
                        </g>
                    </g>
                </g>
            </g>
        </g>
    </g>
</svg>