<svg viewBox="0 0 112 95" xmlns="http://www.w3.org/2000/svg"
	xmlns:xlink="http://www.w3.org/1999/xlink">
	<defs>
		<filter id="filter_1096_227209_dd" x="26.984375" y="17.600113" width="57.000000"
			height="63.417480" filterUnits="userSpaceOnUse" color-interpolation-filters="sRGB">
			<feFlood flood-opacity="0" result="BackgroundImageFix" />
			<feColorMatrix in="SourceAlpha" type="matrix"
				values="0 0 0 0 0 0 0 0 0 0 0 0 0 0 0 0 0 0 127 0" result="hardAlpha" />
			<feOffset dx="0" dy="0" />
			<feGaussianBlur stdDeviation="0.666667" />
			<feComposite in2="hardAlpha" operator="out" k2="-1" k3="1" />
			<feColorMatrix type="matrix"
				values="0 0 0 0 0 0 0 0 0 0.40392 0 0 0 0 0.81961 0 0 0 0.2 0" />
			<feBlend mode="normal" in2="BackgroundImageFix" result="effect_dropShadow_1" />
			<feBlend mode="normal" in="SourceGraphic" in2="effect_dropShadow_1" result="shape" />
		</filter>
		<linearGradient id="paint_linear_1096_227225_0" x1="61.999973" y1="33.499992" x2="97.000000"
			y2="73.500008" gradientUnits="userSpaceOnUse">
			<stop stop-color="#AEDBFF" stop-opacity="0.513726" />
			<stop offset="1.000000" stop-color="#FFFFFF" stop-opacity="0.643137" />
		</linearGradient>
		<linearGradient id="paint_linear_1096_227228_0" x1="56.859962" y1="68.940750" x2="56.859962"
			y2="80.539268" gradientUnits="userSpaceOnUse">
			<stop stop-color="#96CEFD" stop-opacity="0.247059" />
			<stop offset="1.000000" stop-color="#FFFFFF" stop-opacity="0.000000" />
		</linearGradient>
		<linearGradient id="paint_linear_1096_227229_0" x1="53.107475" y1="79.710518" x2="52.009739"
			y2="87.133156" gradientUnits="userSpaceOnUse">
			<stop stop-color="#57E3BD" stop-opacity="0.121569" />
			<stop offset="1.000000" stop-color="#D8D8D8" stop-opacity="0.000000" />
			<stop offset="1.000000" stop-color="#D8D8D8" stop-opacity="0.000000" />
		</linearGradient>
	</defs>
	<path id="蒙版"
		d="M55.26 5.59C68.94 5.12 90.75 12.31 102.06 32.3C113.36 52.3 110.46 79.27 70.03 85.76C29.6 92.26 9.84 74.34 6.32 57.69C2.8 41.04 16.45 27.38 23.98 20.32C31.5 13.26 41.58 6.06 55.26 5.59Z"
		fill="#0D94FF" fill-opacity="0.101961" fill-rule="evenodd" />
	<path id="矢量 262"
		d="M105.71 40.46C99.31 34.43 89.94 26.09 87.13 26.09C82.73 26.09 73.45 35.87 70.43 37.69C69.25 38.39 64.96 36.04 59.51 33.06C50.92 28.36 39.47 22.1 32.86 23.76C26.22 25.43 15.32 34.67 7.9 41.55C5.95 46.46 5.1 51.9 6.32 57.69C9.07 70.7 21.74 84.5 46.46 86.79L66.14 86.32C67.42 86.16 68.71 85.98 70.03 85.76C105.16 80.12 111.96 59.01 105.71 40.46Z"
		fill="url(#paint_linear_1096_227225_0)" fill-opacity="1.000000" fill-rule="evenodd" />
	<path id="矢量 263"
		d="M88.96 80.12C79.42 75.72 56.19 65.07 54.41 65.07C52.16 65.07 46.85 69.71 45.3 70.51C44.73 70.81 43.63 69.65 42.18 68.13C39.73 65.56 36.3 61.95 32.82 62.7C27.31 63.91 18.88 74.61 18.88 74.61L19.07 77C29.43 84.91 46.11 89.6 70 85.76C77.59 84.54 83.86 82.6 88.96 80.12Z"
		fill="url(#paint_linear_1096_227228_0)" fill-opacity="1.000000" fill-rule="evenodd" />
	<path id="矢量 264"
		d="M83.81 82.3C74.63 80.47 62.72 79.37 49.69 79.37C40.78 79.37 32.4 79.88 25.05 80.79C35.45 86.28 50.27 88.94 70.03 85.76C75.23 84.93 79.8 83.75 83.81 82.3Z"
		fill="url(#paint_linear_1096_227229_0)" fill-opacity="1.000000" fill-rule="evenodd" />
	<g filter="url(#filter_1096_227209_dd)">
		<rect id="矩形" x="28.984375" y="19.600113" rx="5.282814" width="53.000000" height="59.417477"
			fill="#E4E4E4" fill-opacity="1.000000" />
	</g>
	<rect id="矩形" x="31.634277" y="22.240891" rx="3.962111" width="47.700001" height="54.135921"
		fill="#FFFFFF" fill-opacity="1.000000" />
	<path id="矢量 258"
		d="M55.81 11.01C58.19 11.01 59.52 12.79 60.22 14.31C60.75 15.47 61.84 16.41 63.12 16.41L63.45 16.41C66.36 16.41 68.73 18.77 68.73 21.69L68.73 24.88L42.89 24.88L42.89 21.69C42.89 18.77 45.26 16.41 48.17 16.41L48.5 16.41C49.78 16.41 50.87 15.47 51.41 14.31C52.1 12.79 53.43 11.01 55.81 11.01ZM55.81 17.08C56.52 17.08 57.1 16.5 57.1 15.78C57.1 15.06 56.52 14.48 55.81 14.48C55.1 14.48 54.52 15.06 54.52 15.78C54.52 16.5 55.1 17.08 55.81 17.08Z"
		fill="#C9C9C9" fill-opacity="1.000000" fill-rule="evenodd" />
	<path id="矢量 260"
		d="M69.39 37.42L42.23 37.45L42.23 40.06L69.39 40.03L69.39 37.42ZM69.39 45.34L42.23 45.38L42.23 47.98L69.39 47.95L69.39 45.34ZM61.17 55.25L69.17 55.22L69.17 52.6L61.17 52.63L61.17 55.25Z"
		fill="#EEEEEE" fill-opacity="1.000000" fill-rule="evenodd" />
	<path id="矢量 259"
		d="M58.29 60.56C58.07 56.32 54.67 52.92 50.43 52.7L50.43 60.56L58.29 60.56ZM48.58 52.8L48.58 62.41L58.19 62.41C57.52 66.34 54.1 69.34 49.98 69.34C45.38 69.34 41.66 65.61 41.66 61.01C41.66 56.89 44.65 53.47 48.58 52.8Z"
		fill="#EEEEEE" fill-opacity="1.000000" fill-rule="evenodd" />
	<path id="合并"
		d="M81.89 47.7C87.68 47.7 92.39 52.4 92.39 58.18C92.39 61.14 91.15 63.83 89.16 65.73L91.12 67.68C91.19 67.76 91.25 67.84 91.29 67.94C91.97 67.95 92.65 68.24 93.17 68.76L97.35 72.94C97.45 73.04 97.45 73.19 97.35 73.29C96.29 74.35 94.56 74.35 93.5 73.29L89.31 69.1C89.22 69.01 89.22 68.86 89.31 68.76C89.43 68.64 89.56 68.54 89.69 68.45L88.07 66.84C88.04 66.8 88 66.76 87.97 66.72C86.26 67.94 84.16 68.66 81.89 68.66C76.1 68.66 71.39 63.96 71.39 58.18C71.39 52.4 76.1 47.7 81.89 47.7ZM90.39 58.18C90.39 57.03 90.19 55.96 89.79 54.98C89.38 53.96 88.75 53.03 87.9 52.19C87.07 51.35 86.14 50.73 85.13 50.31C84.14 49.91 83.06 49.7 81.89 49.7C80.73 49.7 79.65 49.91 78.65 50.31C77.64 50.73 76.72 51.35 75.88 52.19C75.04 53.03 74.41 53.96 74 54.98C73.59 55.96 73.39 57.03 73.39 58.18C73.39 59.33 73.59 60.39 74 61.38C74.41 62.4 75.04 63.33 75.88 64.17C76.72 65 77.64 65.63 78.65 66.04C79.65 66.45 80.73 66.66 81.89 66.66C83.06 66.66 84.14 66.45 85.13 66.04C86.14 65.63 87.07 65 87.9 64.17C88.75 63.33 89.38 62.4 89.79 61.38C90.19 60.39 90.39 59.33 90.39 58.18Z"
		fill="#2CB8C9" fill-opacity="1.000000" fill-rule="evenodd" />
	<path id="矢量 261"
		d="M88.6 44.86L88.6 38.62C88.6 38.06 89.04 37.62 89.6 37.62C90.16 37.62 90.6 38.06 90.6 38.62L90.6 44.86C90.6 45.42 90.16 45.86 89.6 45.86C89.04 45.86 88.6 45.42 88.6 44.86ZM97.29 41.24L92.87 45.65C92.48 46.05 92.47 46.67 92.87 47.06C93.27 47.46 93.89 47.46 94.28 47.07L98.7 42.66C99.1 42.26 99.1 41.64 98.7 41.25C98.31 40.85 97.68 40.85 97.29 41.24ZM101.21 49.21L94.96 49.21C94.4 49.21 93.96 49.65 93.96 50.21C93.96 50.77 94.4 51.21 94.96 51.21L101.21 51.21C101.77 51.21 102.21 50.77 102.21 50.21C102.21 49.65 101.77 49.21 101.21 49.21Z"
		fill="#C9C9C9" fill-opacity="1.000000" fill-rule="evenodd" />
	<path id="路径 63 (边框)"
		d="M21.75 26.19C21.87 26.2 21.97 26.2 22.05 26.2C22.61 26.2 23.04 25.76 23.04 25.2C23.04 24.64 22.6 24.2 22.04 24.2C22.01 24.2 21.96 24.2 21.88 24.2C21.72 24.19 21.54 24.17 21.36 24.14C20.79 24.05 20.27 23.9 19.8 23.68C19.19 23.39 18.71 23 18.36 22.52C18.3 22.42 18.23 22.32 18.18 22.22C18.6 22.15 19.01 22.05 19.41 21.93C19.49 21.91 19.57 21.88 19.64 21.86C20.23 21.66 20.76 21.42 21.22 21.13C21.35 21.05 21.48 20.96 21.6 20.86C21.95 20.58 22.24 20.23 22.48 19.81C22.58 19.63 22.67 19.45 22.74 19.26C22.88 18.92 22.97 18.55 23.01 18.17C23.08 17.62 23.04 17.09 22.9 16.6C22.88 16.56 22.87 16.52 22.86 16.49C22.71 16.04 22.5 15.66 22.2 15.35C22.1 15.24 21.98 15.14 21.86 15.05C21.62 14.87 21.34 14.72 21.03 14.61C20.76 14.53 20.38 14.45 20.08 14.43C19.91 14.42 19.74 14.42 19.56 14.44C19.39 14.45 19.22 14.48 19.05 14.52C18.88 14.56 18.72 14.61 18.56 14.67C18.37 14.74 18.19 14.83 18.02 14.93C17.89 15 17.77 15.08 17.66 15.17C17.11 15.58 16.67 16.15 16.34 16.85C15.92 17.76 15.72 18.88 15.72 20.2C15.29 20.13 14.9 20.1 14.54 19.95C14.39 19.88 14.26 19.81 14.13 19.73C13.66 19.41 13.29 18.95 13.02 18.33C13 18.28 12.97 18.23 12.95 18.18C12.87 17.96 12.8 17.75 12.75 17.52C12.72 17.39 12.7 17.29 12.7 17.23C12.64 16.67 12.16 16.28 11.6 16.33C11.04 16.39 10.65 16.87 10.71 17.43C10.72 17.58 10.75 17.76 10.8 17.97C10.87 18.25 10.95 18.53 11.05 18.8C11.09 18.92 11.14 19.03 11.19 19.14C11.43 19.68 11.73 20.16 12.09 20.57C12.36 20.88 12.66 21.15 13 21.37C13.23 21.53 13.47 21.66 13.73 21.78C14.35 22.05 15.02 22.22 15.75 22.3C15.85 22.31 15.95 22.32 16.05 22.33C16.17 22.69 16.32 23.02 16.51 23.34C16.58 23.45 16.65 23.57 16.73 23.68C16.82 23.8 16.91 23.91 17.01 24.03C17.52 24.63 18.17 25.12 18.96 25.49C19.6 25.79 20.3 26 21.06 26.11C21.3 26.15 21.53 26.18 21.75 26.19ZM17.72 20.27C18.14 20.21 18.56 20.11 18.96 19.97C19.41 19.82 19.84 19.63 20.17 19.43C20.4 19.29 20.59 19.08 20.74 18.82C20.78 18.76 20.81 18.69 20.84 18.63C20.93 18.41 21 18.18 21.03 17.94C21.06 17.63 21.04 17.36 20.96 17.11C20.89 16.9 20.79 16.75 20.66 16.64C20.58 16.59 20.49 16.54 20.38 16.51C20.25 16.46 20.12 16.43 19.97 16.43C19.8 16.42 19.64 16.43 19.48 16.47C19.33 16.51 19.18 16.57 19.03 16.65C18.67 16.87 18.38 17.21 18.16 17.69C17.86 18.33 17.72 19.24 17.72 20.27Z"
		fill="#0A7EF7" fill-opacity="1.000000" fill-rule="evenodd" />
</svg>