<svg viewBox="0 0 24 24" xmlns="http://www.w3.org/2000/svg"
	xmlns:xlink="http://www.w3.org/1999/xlink">
	<defs />
	<g opacity="0.000000" />
	<path id="矢量 167"
		d="M16.3002 2C18.0399 2 19.4503 3.44638 19.4503 5.23062L19.4506 8.05371C18.9714 7.85861 18.4695 7.70963 17.9501 7.61206L17.9503 5.23062C17.9503 4.29602 17.2115 3.53839 16.3002 3.53839L6.09998 3.53839C5.18872 3.53839 4.45001 4.29602 4.45001 5.23062L4.45001 18.7684C4.45001 19.703 5.18872 20.4607 6.09998 20.4607L9.99579 20.4605C10.3965 21.0331 10.8673 21.5508 11.3953 22L6.09998 21.9991C4.36029 21.9991 2.95001 20.5527 2.95001 18.7684L2.95001 5.23062C2.95001 3.44638 4.36029 2 6.09998 2L16.3002 2ZM15.25 6.5C15.25 6.08578 14.9142 5.75 14.5 5.75L7.5 5.75L7.39825 5.75684C7.03217 5.80652 6.75 6.1203 6.75 6.5C6.75 6.91422 7.08582 7.25 7.5 7.25L14.5 7.25L14.6018 7.24316C14.9679 7.19348 15.25 6.8797 15.25 6.5ZM11 8.75C11.4142 8.75 11.75 9.08578 11.75 9.5C11.75 9.8797 11.4679 10.1935 11.1018 10.2432L11 10.25L7.5 10.25C7.08582 10.25 6.75 9.91422 6.75 9.5C6.75 9.1203 7.03217 8.80652 7.39825 8.75684L7.5 8.75L11 8.75ZM22.75 15.5C22.75 12.0482 19.9518 9.25 16.5 9.25C13.0482 9.25 10.25 12.0482 10.25 15.5C10.25 18.9518 13.0482 21.75 16.5 21.75C19.9518 21.75 22.75 18.9518 22.75 15.5ZM16.5 10.75C13.8766 10.75 11.75 12.8766 11.75 15.5C11.75 18.1234 13.8766 20.25 16.5 20.25C19.1234 20.25 21.25 18.1234 21.25 15.5C21.25 12.8766 19.1234 10.75 16.5 10.75ZM19.5 15.5C19.5 15.0858 19.1642 14.75 18.75 14.75L14.25 14.75L14.1392 14.7581C13.7775 14.8117 13.5 15.1234 13.5 15.5C13.5 15.9142 13.8358 16.25 14.25 16.25L18.75 16.25L18.8608 16.2419C19.2225 16.1883 19.5 15.8766 19.5 15.5Z"
		fill-rule="evenodd" />
</svg>