<?xml version="1.0" encoding="UTF-8"?>
<svg viewBox="0 0 96 96" version="1.1" xmlns="http://www.w3.org/2000/svg" xmlns:xlink="http://www.w3.org/1999/xlink">
    <g id="缺省图" stroke="none" stroke-width="1" fill="none" fill-rule="evenodd">
        <g transform="translate(-95.000000, -711.000000)" id="无访问权限">
            <g transform="translate(95.000000, 711.000000)">
                <rect id="矩形" x="0" y="0" width="96" height="96"></rect>
                <g id="7" transform="translate(3.000000, 17.000000)">
                    <g id="01小容器/01背景/窗口">
                        <rect id="矩形" fill="#FFFFFF" x="0" y="0" width="81.1729817" height="61.7647059" rx="4.218"></rect>
                        <path d="M77.4322913,0 C79.4982175,0 81.1729817,1.65586831 81.1729817,3.69848538 L81.1729817,58.0662205 C81.1729817,60.1088376 79.4982175,61.7647059 77.4322913,61.7647059 L3.7406904,61.7647059 C1.67476414,61.7647059 0,60.1088376 0,58.0662205 L0,3.69848538 C0,1.65586831 1.67476414,0 3.7406904,0 L77.4322913,0 Z M77.4322913,0.999590644 L3.7406904,0.999590644 C2.23312259,0.999590644 1.01099741,2.20792698 1.01099741,3.69848538 L1.01099741,58.0662205 C1.01099741,59.5567789 2.23312259,60.7651152 3.7406904,60.7651152 L77.4322913,60.7651152 C78.9398591,60.7651152 80.1619843,59.5567789 80.1619843,58.0662205 L80.1619843,3.69848538 C80.1619843,2.20792698 78.9398591,0.999590644 77.4322913,0.999590644 Z" id="矩形" fill="#8F8F8F" fill-rule="nonzero"></path>
                        <path d="M4.218,0 L76.8451492,0 C79.1746863,4.60249401e-16 81.0631492,1.88846293 81.0631492,4.218 L81.0631492,13.4841373 L81.0631492,13.4841373 L0,13.4841373 L0,4.218 C-2.85286012e-16,1.88846293 1.88846293,-4.60249401e-16 4.218,0 Z" id="矩形" fill="#EEEEEE"></path>
                        <path d="M77.3224588,0 C79.3883851,0 81.0631492,1.65586831 81.0631492,3.69848538 L81.0631492,13.4841373 L0,13.4841373 L0,3.69848538 C0,1.65586831 1.67476414,0 3.7406904,0 L77.3224588,0 Z M77.3224588,0.999590644 L3.7406904,0.999590644 C2.23312259,0.999590644 1.01099741,2.20792698 1.01099741,3.69848538 L1.01099741,12.4843873 L80.0521518,12.4843873 L80.0521518,3.69848538 C80.0521518,2.24428206 78.8889155,1.05870177 77.4322456,1.00173367 L77.3224588,0.999590644 Z" id="矩形" fill="#818181" fill-rule="nonzero"></path>
                        <path d="M74.5037655,8.46388926 C75.3933187,8.46388926 76.114444,7.75337445 76.114444,6.87691002 C76.114444,6.00044559 75.3933187,5.28993078 74.5037655,5.28993078 C73.6142123,5.28993078 72.893087,6.00044559 72.893087,6.87691002 C72.893087,7.75337445 73.6142123,8.46388926 74.5037655,8.46388926 Z M69.1348371,8.46388926 C70.0243903,8.46388926 70.7455156,7.75337445 70.7455156,6.87691002 C70.7455156,6.00044559 70.0243903,5.28993078 69.1348371,5.28993078 C68.2452839,5.28993078 67.5241586,6.00044559 67.5241586,6.87691002 C67.5241586,7.75337445 68.2452839,8.46388926 69.1348371,8.46388926 Z M63.7659087,8.46388926 C64.6554618,8.46388926 65.3765872,7.75337445 65.3765872,6.87691002 C65.3765872,6.00044559 64.6554618,5.28993078 63.7659087,5.28993078 C62.8763555,5.28993078 62.1552301,6.00044559 62.1552301,6.87691002 C62.1552301,7.75337445 62.8763555,8.46388926 63.7659087,8.46388926 Z" id="形状结合" fill="#818181"></path>
                    </g>
                    <g id="ic_tips_filled" transform="translate(69.800272, 32.621641)" fill-rule="nonzero">
                        <path d="M10.0998641,0 C4.53079902,0 0,4.47967946 0,9.98591053 C0,15.4921416 4.53079902,19.9718211 10.0998641,19.9718211 C15.6689291,19.9718211 20.1997282,15.4921416 20.1997282,9.98591053 C20.1997282,4.47967946 15.6689291,0 10.0998641,0" id="Fill-1" fill="#0067D1"></path>
                        <path d="M10.0998641,4.7433075 C10.5179984,4.7433075 10.8573539,5.0788341 10.8573539,5.49225079 L10.8573539,11.3579746 C10.8573539,11.7713913 10.5179984,12.1069179 10.0998641,12.1069179 C9.6817297,12.1069179 9.34237427,11.7713913 9.34237427,11.3579746 L9.34237427,5.49225079 C9.34237427,5.0788341 9.6817297,4.7433075 10.0998641,4.7433075" id="Fill-1-path" fill="#FFFFFF"></path>
                        <path d="M10.0998641,15.4781613 C9.54235158,15.4781613 9.08987767,15.0317911 9.08987767,14.4795703 C9.08987767,13.9273494 9.54235158,13.4809792 10.0998641,13.4809792 C10.6573766,13.4809792 11.1098505,13.9273494 11.1098505,14.4795703 C11.1098505,15.0317911 10.6573766,15.4781613 10.0998641,15.4781613" id="Fill-1-path" fill="#FFFFFF"></path>
                    </g>
                    <g id="ic_locked_lined" transform="translate(33.777423, 29.477928)" fill="#818181" fill-rule="nonzero">
                        <path d="M6.35941215,0 C8.49333685,0 10.2234051,1.60968159 10.2234051,3.59572142 L10.2234051,3.59572142 L10.2231666,5.36214454 L10.3336572,5.36266233 C11.6031574,5.36266233 12.6417327,6.28693931 12.7142973,7.45144361 L12.7183474,7.58178685 L12.7183474,12.574817 C12.7183474,13.8004541 11.6504095,14.7939415 10.3336572,14.7939415 L10.3336572,14.7939415 L2.38469013,14.7939415 C1.06793782,14.7939415 0,13.8004541 0,12.574817 L0,12.574817 L0,7.58178685 C0,6.35667212 1.06817142,5.36266233 2.38469013,5.36266233 L2.38469013,5.36266233 L2.49438588,5.36214454 L2.49462434,3.59572142 C2.49462434,1.66322677 4.13257668,0.0872776198 6.18725087,0.00350278449 L6.35941215,0 Z M3.03418926,6.28806936 L2.33073786,6.28795618 C1.66380096,6.28795618 1.12220712,6.7979036 1.12220712,7.42586998 L1.12220712,7.42586998 L1.12220712,12.5464821 C1.12220712,13.1749061 1.66348115,13.6843959 2.33073786,13.6843959 L2.33073786,13.6843959 L10.3876095,13.6843959 C11.0548662,13.6843959 11.5961402,13.1749061 11.5961402,12.5464821 L11.5961402,12.5464821 L11.5961402,7.42586998 C11.5961402,6.7979036 11.0545464,6.28795618 10.3876095,6.28795618 L10.3876095,6.28795618 L9.68343891,6.28742515 L9.67159531,6.28818376 L3.04642977,6.28818376 C3.04233998,6.28818376 3.03825969,6.28814553 3.03418926,6.28806936 Z M6.17213916,8.13666784 C6.45620404,8.13666784 6.69096618,8.34558099 6.72812052,8.6166316 L6.73324272,8.69198486 L6.73454957,10.170271 C6.9609057,10.3392385 7.10731176,10.6076134 7.10731176,10.9096249 C7.10731176,11.4205165 6.68835443,11.8351532 6.17213916,11.8351532 C5.65592388,11.8351532 5.23696656,11.4205165 5.23696656,10.9096249 C5.23696656,10.6072808 5.38369529,10.3386475 5.61047689,10.1697131 L5.6110356,8.69198486 C5.6110356,8.38529171 5.86225019,8.13666784 6.17213916,8.13666784 Z M6.35967998,1.10954561 C4.91318445,1.10954561 3.74092408,2.17417288 3.74092408,3.4879475 L3.74092408,3.4879475 L3.7406904,5.17787954 L8.97742328,5.17787954 L8.97765696,3.4879475 C8.97765696,2.21805183 7.88233675,1.18080336 6.50331602,1.11306446 L6.50331602,1.11306446 L6.35967998,1.10954561 Z" id="形状结合"></path>
                    </g>
                </g>
            </g>
        </g>
    </g>
</svg>