<svg viewBox="0 0 24 24" xmlns="http://www.w3.org/2000/svg"
	xmlns:xlink="http://www.w3.org/1999/xlink">
	<defs />
	<g opacity="0.000000" />
	<path id="矢量 99"
		d="M12 1.25C6.06293 1.25 1.25 6.06293 1.25 12C1.25 17.9371 6.06293 22.75 12 22.75C17.9371 22.75 22.75 17.9371 22.75 12C22.75 6.06293 17.9371 1.25 12 1.25ZM12 17.75C12.4142 17.75 12.75 17.4142 12.75 17L12.75 12.75L17 12.75L17.1018 12.7432C17.4678 12.6935 17.75 12.3797 17.75 12C17.75 11.5858 17.4142 11.25 17 11.25L12.75 11.25L12.75 7L12.7432 6.89819C12.6935 6.53217 12.3797 6.25 12 6.25C11.5858 6.25 11.25 6.58582 11.25 7L11.25 11.25L7 11.25L6.89819 11.2568C6.53217 11.3065 6.25 11.6203 6.25 12C6.25 12.4142 6.58582 12.75 7 12.75L11.25 12.75L11.25 17L11.2568 17.1018C11.3065 17.4678 11.6203 17.75 12 17.75Z"
		fill-rule="evenodd" />
</svg>