<?xml version="1.0" encoding="UTF-8"?>
<svg viewBox="0 0 24 24" version="1.1" xmlns="http://www.w3.org/2000/svg" xmlns:xlink="http://www.w3.org/1999/xlink">
    <g id="页面-1" stroke="none" stroke-width="1">
        <g id="画板" transform="translate(-635.000000, -2484.000000)">
            <g id="编组" transform="translate(635.000000, 2484.000000)">
                <path d="M12,2 C17.514,2 22,6.486 22,12 C22,17.514 17.514,22 12,22 C6.486,22 2,17.514 2,12 C2,6.486 6.486,2 12,2 Z M12.02,6.2539 C11.606,6.2539 11.27,6.5899 11.27,7.0039 L11.27,7.0039 L11.27,11.2539 L7.02,11.2539 C6.606,11.2539 6.27,11.5899 6.27,12.0039 C6.27,12.4179 6.606,12.7539 7.02,12.7539 L7.02,12.7539 L11.27,12.7539 L11.27,17.0039 C11.27,17.4179 11.606,17.7539 12.02,17.7539 C12.434,17.7539 12.77,17.4179 12.77,17.0039 L12.77,17.0039 L12.77,12.7539 L17.02,12.7539 C17.434,12.7539 17.77,12.4179 17.77,12.0039 C17.77,11.5899 17.434,11.2539 17.02,11.2539 L17.02,11.2539 L12.77,11.2539 L12.77,7.0039 C12.77,6.5899 12.434,6.2539 12.02,6.2539 Z" id="形状结合"></path>
            </g>
        </g>
    </g>
</svg>