<svg width="24.000000" height="24.000000" viewBox="0 0 24 24" xmlns="http://www.w3.org/2000/svg" xmlns:xlink="http://www.w3.org/1999/xlink">
	<g clip-path="url(#clip131_1909)">
		<path id="矢量 185" d="M2 19.2727L2 4.72729C2 3.22107 3.22107 2 4.72729 2L19.2727 2C20.7789 2 22 3.22107 22 4.72729L22 19.2727C22 20.7789 20.7789 22 19.2727 22L4.72729 22C3.22107 22 2 20.7789 2 19.2727ZM13.4655 5.20081L12.0759 10.2008C11.9635 10.6055 11.5571 10.8351 11.1525 10.7227C10.7478 10.6101 10.5182 10.2039 10.6306 9.79919L12.0203 4.79919C12.1327 4.39453 12.5389 4.16492 12.9436 4.27734C13.3483 4.38989 13.5779 4.79614 13.4655 5.20081ZM10.1097 5.54712L8.08057 7.50366L10.1097 9.46008C10.4121 9.75159 10.4205 10.2183 10.129 10.5206C9.83752 10.8229 9.37097 10.8314 9.0686 10.5399L6.47937 8.04358C6.33569 7.89453 6.24634 7.69702 6.25012 7.48999C6.25391 7.28284 6.33032 7.10742 6.47937 6.96375L9.0686 4.46729C9.37097 4.17578 9.83752 4.18433 10.129 4.48669C10.4205 4.78906 10.4121 5.25562 10.1097 5.54712ZM14.9314 4.46729C14.629 4.17578 14.1625 4.18433 13.871 4.48669C13.5795 4.78906 13.5879 5.25562 13.8903 5.54712L15.9194 7.50366L13.8903 9.46008C13.5879 9.75159 13.5795 10.2183 13.871 10.5206C14.1625 10.8229 14.629 10.8314 14.9314 10.5399L17.5206 8.04358C17.6643 7.89453 17.7537 7.69702 17.7499 7.48999C17.7461 7.28284 17.6697 7.10742 17.5206 6.96375L14.9314 4.46729ZM3.88477 16.25C3.88477 14.4551 5.11597 13 6.63477 13C8.15356 13 9.38477 14.4551 9.38477 16.25C9.38477 18.0449 8.15356 19.5 6.63477 19.5C5.11597 19.5 3.88477 18.0449 3.88477 16.25ZM17.6113 13.067C17.4025 13.0223 17.1888 13 16.9705 13L15.8652 13C15.7617 13 15.6658 13.0183 15.5773 13.0549C15.4889 13.0916 15.4081 13.1465 15.335 13.2196C15.2617 13.2928 15.2068 13.3737 15.1702 13.462C15.1335 13.5504 15.1152 13.6464 15.1152 13.75L15.1152 18.75C15.1152 18.8535 15.1335 18.9495 15.1702 19.0378C15.2068 19.1263 15.2617 19.2072 15.335 19.2803C15.4081 19.3535 15.4889 19.4084 15.5773 19.4451C15.6658 19.4817 15.7617 19.5 15.8652 19.5L16.9705 19.5C17.1888 19.5 17.4025 19.4777 17.6113 19.4329C17.8138 19.3895 18.012 19.3251 18.2056 19.2396C18.3567 19.1729 18.5007 19.0953 18.6377 19.0068C18.8427 18.8744 19.032 18.7177 19.2054 18.5366C19.333 18.4033 19.4479 18.2614 19.5498 18.1108C19.677 17.9227 19.7849 17.72 19.8722 17.5048C19.9404 17.3364 19.9943 17.1648 20.0337 16.9901C20.0879 16.7499 20.1152 16.5023 20.1152 16.25C20.1152 15.9978 20.0881 15.7517 20.0341 15.5116C19.9946 15.3364 19.9406 15.1639 19.8722 14.9952C19.7849 14.7798 19.6775 14.5779 19.55 14.3895C19.448 14.2388 19.3331 14.0968 19.2054 13.9634C19.032 13.7823 18.8428 13.6256 18.6378 13.4932C18.5012 13.405 18.3561 13.3269 18.2056 13.2604C18.012 13.1749 17.8138 13.1105 17.6113 13.067ZM13.7654 14.5151L11.7524 14.5151L11.7524 15.6152L13.5814 15.6152C14.0015 15.6152 14.3314 15.9452 14.3314 16.3652C14.3314 16.7853 14.0015 17.1152 13.5814 17.1152L11.7524 17.1152L11.7524 18.9651C11.7524 19.3851 11.4225 19.7151 11.0024 19.7151C10.5825 19.7151 10.2524 19.3851 10.2524 18.9651L10.2524 13.7651C10.2524 13.6615 10.2708 13.5656 10.3074 13.4772C10.344 13.3888 10.3989 13.308 10.4722 13.2347C10.5454 13.1615 10.6262 13.1066 10.7146 13.0701C10.803 13.0334 10.8989 13.0151 11.0024 13.0151L13.7654 13.0151C14.1853 13.0151 14.5154 13.3451 14.5154 13.7651C14.5154 14.1851 14.1853 14.5151 13.7654 14.5151ZM5.38477 16.25C5.38477 15.2834 5.94446 14.5 6.63477 14.5C7.32507 14.5 7.88477 15.2834 7.88477 16.25C7.88477 17.2164 7.32507 18 6.63477 18C5.94446 18 5.38477 17.2164 5.38477 16.25ZM16.6152 14.5L16.9705 14.5C17.0834 14.5 17.1938 14.5117 17.3016 14.5352C17.4032 14.5573 17.5027 14.5897 17.5997 14.6326C17.6606 14.6594 17.7194 14.6898 17.776 14.7238C17.9016 14.799 18.0171 14.8914 18.1222 15.001C18.1831 15.0646 18.2386 15.132 18.2888 15.2031C18.3654 15.3121 18.4305 15.4318 18.4819 15.5585C18.5138 15.6371 18.5399 15.7172 18.5603 15.7986C18.5969 15.9445 18.6152 16.095 18.6152 16.25C18.6152 16.405 18.5969 16.5554 18.5603 16.7013C18.5399 16.7827 18.5138 16.8629 18.4819 16.9415C18.4305 17.0681 18.3667 17.1859 18.2902 17.2949C18.2397 17.3668 18.1836 17.4348 18.1222 17.4989C18.0171 17.6086 17.9017 17.701 17.7761 17.7762C17.7195 17.8102 17.6606 17.8406 17.5997 17.8674C17.5027 17.9103 17.4033 17.9427 17.3016 17.9648C17.1938 17.9883 17.0834 18 16.9705 18L16.6152 18L16.6152 14.5Z" fill-opacity="1.000000" fill-rule="evenodd"/>
	</g>
</svg>
