<svg viewBox="0 0 24 24" xmlns="http://www.w3.org/2000/svg"
	xmlns:xlink="http://www.w3.org/1999/xlink">
	<defs />
	<g opacity="0.000000" />
	<path id="矢量 101"
		d="M18.5307 3.46051C16.6698 2.03528 14.3935 1.25 12 1.25C6.06293 1.25 1.25 6.06293 1.25 12C1.25 17.9371 6.06293 22.75 12 22.75C17.9371 22.75 22.75 17.9371 22.75 12C22.75 9.60803 21.9658 7.33319 20.5422 5.47284C20.2905 5.14386 19.8198 5.08124 19.4908 5.33298C19.1619 5.58469 19.0992 6.05542 19.351 6.38437C20.576 7.98526 21.25 9.94043 21.25 12C21.25 17.1086 17.1086 21.25 12 21.25C6.89136 21.25 2.75 17.1086 2.75 12C2.75 6.89136 6.89136 2.75 12 2.75C14.0609 2.75 16.0173 3.42493 17.6187 4.6514C17.9476 4.90323 18.4183 4.84082 18.6702 4.51196C18.922 4.18311 18.8596 3.71234 18.5307 3.46051ZM12 7.25C9.37665 7.25 7.25 9.37665 7.25 12C7.25 14.6234 9.37665 16.75 12 16.75C14.6234 16.75 16.75 14.6234 16.75 12C16.75 9.37665 14.6234 7.25 12 7.25ZM12 8.75C13.7949 8.75 15.25 10.2051 15.25 12C15.25 13.7949 13.7949 15.25 12 15.25C10.2051 15.25 8.75 13.7949 8.75 12C8.75 10.2051 10.2051 8.75 12 8.75Z"
		fill-rule="evenodd" />
</svg>