<?xml version="1.0" encoding="UTF-8"?>
<svg viewBox="0 0 24 24" version="1.1" xmlns="http://www.w3.org/2000/svg"
    xmlns:xlink="http://www.w3.org/1999/xlink">
    <g id="S12组件" stroke="none" stroke-width="1" fill-rule="evenodd">
        <g id="OnLine" fill-rule="nonzero">
            <g id="编组">
                <rect id="矩形" fill="#FFFFFF" opacity="0" x="0" y="0" width="24" height="24"></rect>
                <path
                    d="M12,2 C14.2170343,2 16.3258238,2.72418839 18.0532894,4.03924108 C18.3828697,4.29013824 18.4466553,4.76070857 18.1957588,5.09028935 C17.9448614,5.41987014 17.4742918,5.48365593 17.1447105,5.23275876 C15.6761627,4.11480999 13.8858757,3.5 12,3.5 C7.30585575,3.5 3.5,7.30557156 3.5,12 C3.5,16.6937866 7.30621338,20.5 12,20.5 C16.6944284,20.5 20.5,16.6941442 20.5,12 C20.5,10.1146078 19.8858509,8.32533646 18.7681007,6.85610437 C18.5173054,6.52644587 18.5812378,6.05589533 18.9108963,5.80510044 C19.2405548,5.55430532 19.7111053,5.61823702 19.9618988,5.94789553 C21.276577,7.67598057 22,9.78360844 22,12 C22,17.5225468 17.5228806,22 12,22 C6.47778654,22 2,17.5222139 2,12 C2,6.47711945 6.47745371,2 12,2 Z M12,7.75 C14.3472104,7.75 16.25,9.65278983 16.25,12 C16.25,14.3472104 14.3472104,16.25 12,16.25 C9.65278983,16.25 7.75,14.3472104 7.75,12 C7.75,9.65278983 9.65278983,7.75 12,7.75 Z M12,9.25 C10.481217,9.25 9.25,10.481217 9.25,12 C9.25,13.5187832 10.4812169,14.75 12,14.75 C13.5187833,14.75 14.75,13.5187833 14.75,12 C14.75,10.4812169 13.5187832,9.25 12,9.25 Z"
                    id="形状结合"></path>
            </g>
        </g>
    </g>
</svg>