<?xml version="1.0" encoding="UTF-8"?>
<svg viewBox="0 0 24 24" version="1.1" xmlns="http://www.w3.org/2000/svg" xmlns:xlink="http://www.w3.org/1999/xlink">
    <g id="页面-1" stroke="none" stroke-width="1">
        <g id="画板" transform="translate(-319.000000, -2551.000000)">
            <g id="编组" transform="translate(319.000000, 2551.000000)">
                <path d="M12,2 C14.2170341,2 16.3258236,2.72418837 18.0532894,4.03924114 C18.3828702,4.29013825 18.446656,4.76070858 18.1957589,5.0902894 C17.9448618,5.41987022 17.4742914,5.48365597 17.1447106,5.23275886 C15.6761624,4.11481002 13.8858755,3.5 12,3.5 C7.30585564,3.5 3.5,7.30557146 3.5,12 C3.5,16.6937864 7.30621356,20.5 12,20.5 C16.6944285,20.5 20.5,16.6941444 20.5,12 C20.5,10.1146074 19.8858507,8.32533664 18.7681003,6.85610438 C18.5173054,6.52644579 18.581237,6.05589525 18.9108956,5.80510033 C19.2405542,5.55430541 19.7111047,5.61823704 19.9618997,5.94789562 C21.2765776,7.67598035 22,9.78360864 22,12 C22,17.5225464 17.5228807,22 12,22 C6.47778644,22 2,17.5222136 2,12 C2,6.47711926 6.47745359,2 12,2 Z M8.91056901,7.87362021 L8.99469258,7.94623241 L12,10.951 L15.0053074,7.94623241 C15.2982213,7.65335991 15.7730951,7.65339349 16.0659676,7.94630742 C16.3322153,8.21259281 16.3563919,8.6292582 16.1385167,8.92285429 L16.0658926,9.00696759 L13.06,12.011 L16.0656926,15.0162324 C16.3586065,15.3091049 16.3586401,15.7839787 16.0657676,16.0768926 C15.7995199,16.343178 15.3828579,16.3674135 15.089231,16.1495798 L15.0051074,16.0769676 L11.999,13.071 L8.99489258,16.0769676 C8.70197865,16.3698401 8.22710492,16.3698065 7.93423241,16.0768926 C7.66798468,15.8106072 7.64380809,15.3939418 7.86168332,15.1003457 L7.93430742,15.0162324 L10.939,12.011 L7.93410742,9.00696759 C7.64119349,8.71409508 7.64115991,8.23922135 7.93403241,7.94630742 C8.20028014,7.68002203 8.61694211,7.65578651 8.91056901,7.87362021 Z" id="形状结合"></path>
            </g>
        </g>
    </g>
</svg>