<svg viewBox="0 0 24 24" xmlns="http://www.w3.org/2000/svg"
	xmlns:xlink="http://www.w3.org/1999/xlink">
	<defs />
	<g opacity="0.000000" />
	<path id="矢量 177"
		d="M12 1.25C14.3112 1.25 16.5139 1.98203 18.3405 3.31812C18.6749 3.56268 18.7476 4.03195 18.5031 4.36627C18.2585 4.70059 17.7893 4.77335 17.455 4.52881C15.8832 3.37915 13.9901 2.75 12 2.75C6.89136 2.75 2.75 6.89136 2.75 12C2.75 17.1086 6.89136 21.25 12 21.25C17.1086 21.25 21.25 17.1086 21.25 12C21.25 10.0093 20.6205 8.11557 19.4701 6.54361C19.2255 6.20932 19.2982 5.74005 19.6325 5.49542C19.9667 5.25082 20.436 5.32352 20.6806 5.65778C22.0175 7.48468 22.75 9.68808 22.75 12C22.75 17.9371 17.9371 22.75 12 22.75C6.06293 22.75 1.25 17.9371 1.25 12C1.25 6.06293 6.06293 1.25 12 1.25ZM8.53033 7.46967C8.23672 7.2518 7.73593 7.2034 7.46967 7.46967C7.17676 7.76257 7.17676 8.23743 7.46967 8.53033L10.939 12L7.46967 15.4697C7.25183 15.7633 7.2034 16.2641 7.46967 16.5303C7.76257 16.8232 8.23743 16.8232 8.53033 16.5303L12 13.061L15.4697 16.5303C15.7633 16.7482 16.2641 16.7966 16.5303 16.5303C16.8232 16.2374 16.8232 15.7626 16.5303 15.4697L13.061 12L16.5303 8.53033C16.7482 8.23672 16.7966 7.73593 16.5303 7.46967C16.2374 7.17679 15.7626 7.17679 15.4697 7.46967L12 10.939L8.53033 7.46967Z"
		fill-rule="evenodd" />
</svg>