<svg viewBox="0 0 24 24" xmlns="http://www.w3.org/2000/svg"
	xmlns:xlink="http://www.w3.org/1999/xlink">
	<defs />
	<g opacity="0.000000" />
	<path id="矢量 109"
		d="M12 1.25C6.06293 1.25 1.25 6.06293 1.25 12C1.25 17.9371 6.06293 22.75 12 22.75C17.9371 22.75 22.75 17.9371 22.75 12C22.75 6.06293 17.9371 1.25 12 1.25ZM7.46967 7.46967C7.73596 7.20337 8.15259 7.1792 8.44623 7.39709L12 10.9393L15.4697 7.46967C15.7626 7.17676 16.2374 7.17676 16.5303 7.46967C16.7966 7.73596 16.8208 8.15259 16.603 8.44617L13.0607 12L16.5303 15.4697C16.8232 15.7626 16.8232 16.2374 16.5303 16.5303C16.264 16.7966 15.8474 16.8208 15.5538 16.6029L12 13.0607L8.53033 16.5303C8.23743 16.8232 7.76257 16.8232 7.46967 16.5303C7.20337 16.264 7.1792 15.8474 7.39703 15.5538L10.9393 12L7.46967 8.53033C7.17676 8.23743 7.17676 7.76257 7.46967 7.46967Z"
		fill-rule="evenodd" />
</svg>