<svg viewBox="0 0 24 24" xmlns="http://www.w3.org/2000/svg"
	xmlns:xlink="http://www.w3.org/1999/xlink">
	<defs />
	<g opacity="0.000000" />
	<path id="矢量 179"
		d="M5.25 2.25L18.75 2.25C20.4069 2.25 21.75 3.59314 21.75 5.25L21.75 18.75C21.75 20.4069 20.4069 21.75 18.75 21.75L5.25 21.75C3.59314 21.75 2.25 20.4069 2.25 18.75L2.25 5.25C2.25 3.59314 3.59314 2.25 5.25 2.25ZM5.79999 5L10.2 5C10.6418 5 11 5.35818 11 5.79999L11 10.2C11 10.6418 10.6418 11 10.2 11L5.79999 11C5.35815 11 5 10.6418 5 10.2L5 5.79999C5 5.35818 5.35815 5 5.79999 5ZM13.8 5L18.2 5C18.6418 5 19 5.35818 19 5.79999L19 10.2C19 10.6418 18.6418 11 18.2 11L13.8 11C13.3582 11 13 10.6418 13 10.2L13 5.79999C13 5.35818 13.3582 5 13.8 5ZM17 6.5L15 6.5C14.7239 6.5 14.5 6.72385 14.5 7L14.5 9C14.5 9.27615 14.7239 9.5 15 9.5L17 9.5C17.2761 9.5 17.5 9.27615 17.5 9L17.5 7C17.5 6.72385 17.2761 6.5 17 6.5ZM10.2 13L5.79999 13C5.35815 13 5 13.3582 5 13.8L5 18.2C5 18.6418 5.35815 19 5.79999 19L10.2 19C10.6418 19 11 18.6418 11 18.2L11 13.8C11 13.3582 10.6418 13 10.2 13ZM18.2 13L13.8 13C13.3582 13 13 13.3582 13 13.8L13 18.2C13 18.6418 13.3582 19 13.8 19L18.2 19C18.6418 19 19 18.6418 19 18.2L19 13.8C19 13.3582 18.6418 13 18.2 13Z"
		fill-rule="evenodd" />
</svg>