<?xml version="1.0" encoding="UTF-8"?>
<svg viewBox="0 0 24 24" version="1.1" xmlns="http://www.w3.org/2000/svg" xmlns:xlink="http://www.w3.org/1999/xlink">
    <g id="页面-1" stroke="none" stroke-width="1">
        <g id="画板" transform="translate(-789.000000, -2551.000000)">
            <g id="编组" transform="translate(789.000000, 2551.000000)">
                <path d="M20.9882582,5.07460211 L20.9950288,5.25048059 L20.9950288,16.25 C20.9950288,16.6642136 20.6592424,17 20.2450288,17 C19.8684711,17 19.5567291,16.721661 19.5031608,16.36 L19.4950288,16.25 L19.49514,5.56054903 L4.28,20.78 C3.98710678,21.0728932 3.51289322,21.0728932 3.22,20.78 C2.95151455,20.5115145 2.92626212,20.0839711 3.15,19.79 L3.22,19.71 L18.4351869,4.49918175 L7.75,4.5 C7.33578644,4.5 7,4.16421356 7,3.75 C7,3.37344222 7.27833896,3.06170024 7.64,3.00813193 L7.75,3 L18.7445483,3 C19.3026813,3 19.8133478,3.20315836 20.2066355,3.53956301 L20.3326612,3.65662821 C20.7032215,4.02527017 20.9455413,4.52195497 20.9882582,5.07460211 Z" id="路径"></path>
            </g>
        </g>
    </g>
</svg>