<svg viewBox="0 0 24 24" xmlns="http://www.w3.org/2000/svg"
	xmlns:xlink="http://www.w3.org/1999/xlink">
	<defs />
	<g opacity="0.000000" />
	<path id="路径"
		d="M19 4.25L19.1018 4.25684L19.1612 4.26736L19.2312 4.28638L19.335 4.32877L19.4113 4.37274L19.4727 4.41763L19.5278 4.46713L19.6215 4.57996L19.6761 4.67484L19.7112 4.76132L19.7376 4.86371L19.7482 4.94858L19.75 15L19.7432 15.1018C19.6935 15.4678 19.3797 15.75 19 15.75L18.8982 15.7432C18.5322 15.6935 18.25 15.3797 18.25 15L18.25 6.81L5.53033 19.5303L5.4462 19.6029C5.15259 19.8208 4.73593 19.7966 4.46967 19.5303C4.17679 19.2374 4.17679 18.7626 4.46967 18.4697L17.188 5.75L9 5.75L8.89822 5.74316C8.53217 5.69348 8.25 5.3797 8.25 5C8.25 4.58578 8.58578 4.25 9 4.25L19 4.25Z"
		fill-rule="evenodd" />
</svg>