<?xml version="1.0" encoding="UTF-8"?>
<svg viewBox="0 0 24 24" version="1.1" xmlns="http://www.w3.org/2000/svg" xmlns:xlink="http://www.w3.org/1999/xlink">
    <g id="S12组件" stroke="none" stroke-width="1">
        <g id="ic_Pager_Last_lined">
            <g transform="translate(12.000000, 12.000000) rotate(-180.000000) translate(-12.000000, -12.000000) " id="编组">
                <rect id="矩形" opacity="0" transform="translate(12.000000, 12.000000) scale(-1, 1) translate(-12.000000, -12.000000) " x="0" y="0" width="24" height="24"></rect>
                <g id="编组-23" transform="translate(11.500000, 12.000000) scale(-1, 1) translate(-11.500000, -12.000000) translate(3.000000, 4.000000)">
                    <path d="M10.5,0.77617159 C10.8777558,0.77617159 11.2408218,0.918657406 11.5574186,1.21377436 L11.5574186,1.21377436 L11.6713032,1.33912902 L16.2503659,7.06295743 C16.4568632,7.32107908 16.4700203,7.68395901 16.2827581,7.9563573 L16.2827581,7.9563573 L11.6713031,14.6608711 C11.4198148,14.9752314 11.057803,15.1710812 10.6656472,15.214654 C10.2734914,15.2582269 9.87731763,15.1466199 9.56295747,14.8951317 C9.2679797,14.6591495 9.07348305,14.3210813 9.01062053,13.8928572 L9.01062053,13.8928572 L9,13.7238284 L9,2.27617159 C9,1.87359394 9.16033731,1.49451394 9.4393398,1.21551143 C9.7183423,0.936508913 10.0974223,0.77617159 10.5,0.77617159 Z M1.5,0.77617159 C1.87775582,0.77617159 2.2408217,0.918657398 2.55741853,1.2137743 L2.55741853,1.2137743 L2.67130322,1.33912901 L7.25036595,7.06295742 C7.45686327,7.32107908 7.4700203,7.68395901 7.28275817,7.9563573 L7.28275817,7.9563573 L2.67130318,14.660871 C2.41981489,14.9752313 2.05780306,15.1710812 1.66564721,15.214654 C1.27349138,15.2582268 0.877317718,15.1466199 0.562957498,14.8951317 C0.26797971,14.6591495 0.0734830473,14.3210813 0.0106205301,13.8928572 L0.0106205301,13.8928572 L-7.10542736e-15,13.7238284 L-7.10542736e-15,2.27617159 C-7.10542736e-15,1.87359393 0.160337318,1.49451393 0.43933984,1.2155114 C0.718342348,0.936508907 1.09742235,0.77617159 1.5,0.77617159 Z M10.5,2.277 L10.4978748,13.6674076 L10.499,13.721 L14.731,7.564 L10.5369053,2.31890117 L10.5,2.277 Z M1.5,2.277 L1.49787478,13.6674076 L1.499,13.721 L5.731,7.564 L1.53690532,2.31890122 L1.5,2.277 Z" id="形状结合"></path>
                </g>
            </g>
        </g>
    </g>
</svg>