<svg viewBox="0 0 24 24" xmlns="http://www.w3.org/2000/svg"
	xmlns:xlink="http://www.w3.org/1999/xlink">
	<defs />
	<g opacity="0.000000" />
	<path id="矢量 194"
		d="M5.33545 5.41574L10.4008 10.5501C11.1979 11.3581 11.1993 12.6158 10.4039 13.4253L5.33856 18.5811C4.5191 19.4152 3.14844 19.4767 2.24927 18.7235C1.77478 18.326 1.49951 17.7522 1.49951 17.1451L1.49951 6.85492C1.49951 5.67847 2.505 4.75 3.7168 4.75C4.32806 4.75 4.91473 4.98932 5.33545 5.41574ZM21.9008 10.5501L16.8354 5.41574C16.4147 4.98932 15.8281 4.75 15.2168 4.75C14.005 4.75 12.9995 5.67847 12.9995 6.85492L12.9995 17.1451C12.9995 17.7522 13.2748 18.326 13.7493 18.7235C14.6484 19.4767 16.019 19.4152 16.8386 18.5811L21.9039 13.4253C22.6993 12.6158 22.6979 11.3581 21.9008 10.5501ZM9.33392 12.3741L4.26855 17.5298C3.99902 17.8042 3.51373 17.826 3.21252 17.5736C3.07391 17.4575 2.99951 17.3024 2.99951 17.1451L2.99951 6.85492C2.99951 6.53476 3.30792 6.25 3.7168 6.25C3.93134 6.25 4.1322 6.33194 4.26758 6.46918L9.33301 11.6036C9.55469 11.8283 9.55505 12.149 9.33392 12.3741ZM15.7686 17.5298L20.8339 12.3741C21.0551 12.149 21.0547 11.8283 20.833 11.6036L15.7676 6.46918C15.6322 6.33194 15.4313 6.25 15.2168 6.25C14.8079 6.25 14.4995 6.53476 14.4995 6.85492L14.4995 17.1451C14.4995 17.3024 14.5739 17.4575 14.7125 17.5736C15.0137 17.826 15.499 17.8042 15.7686 17.5298Z"
		fill-rule="evenodd" />
</svg>