<?xml version="1.0" encoding="UTF-8"?>
<svg viewBox="0 0 120 120" version="1.1" xmlns="http://www.w3.org/2000/svg" xmlns:xlink="http://www.w3.org/1999/xlink">
    <g id="图标" stroke="none" stroke-width="1" fill="none" fill-rule="evenodd">
        <g id="pagenothing">
            <rect id="矩形" x="0" y="0" width="120" height="120"></rect>
            <g id="6" transform="translate(3.000000, 21.000000)">
                <g id="01小容器/01背景/窗口" fill-rule="nonzero">
                    <rect id="矩形" fill="#FFFFFF" x="0" y="0" width="102.902655" height="78.6902655" rx="4.218"></rect>
                    <path d="M98.160597,0 C100.779563,0 102.902655,2.10963065 102.902655,4.71199195 L102.902655,73.9782735 C102.902655,76.5806348 100.779563,78.6902655 98.160597,78.6902655 L4.74205783,78.6902655 C2.12309161,78.6902655 0,76.5806348 0,73.9782735 L0,4.71199195 C0,2.10963065 2.12309161,0 4.74205783,0 L98.160597,0 Z M98.160597,1.27351134 L4.74205783,1.27351134 C2.83092032,1.27351134 1.28163725,2.81297154 1.28163725,4.71199195 L1.28163725,73.9782735 C1.28163725,75.8772939 2.83092032,77.4167542 4.74205783,77.4167542 L98.160597,77.4167542 C100.071735,77.4167542 101.621018,75.8772939 101.621018,73.9782735 L101.621018,4.71199195 C101.621018,2.81297154 100.071735,1.27351134 98.160597,1.27351134 Z" id="矩形" fill="#8F8F8F"></path>
                    <path d="M4.218,0 L98.5454207,0 C100.874958,0 102.763421,1.88846293 102.763421,4.218 L102.763421,17.1792341 L102.763421,17.1792341 L0,17.1792341 L0,4.218 C0,1.88846293 1.88846293,0 4.218,0 Z" id="矩形" fill="#EEEEEE"></path>
                    <path d="M98.0213629,0 C100.640329,0 102.763421,2.10963065 102.763421,4.71199195 L102.763421,17.1792341 L0,17.1792341 L0,4.71199195 C0,2.10963065 2.12309161,0 4.74205783,0 L98.0213629,0 Z M98.0213629,1.27351134 L4.74205783,1.27351134 C2.83092032,1.27351134 1.28163725,2.81297154 1.28163725,4.71199195 L1.28163725,15.9055198 L101.481783,15.9055198 L101.481783,4.71199195 C101.481783,2.85928911 100.007154,1.34882085 98.1605392,1.27624162 L98.0213629,1.27351134 Z" id="矩形" fill="#818181"></path>
                    <path d="M94.448117,10.7832731 C95.5757999,10.7832731 96.4899675,9.8780539 96.4899675,8.76140941 C96.4899675,7.64476492 95.5757999,6.7395457 94.448117,6.7395457 C93.3204341,6.7395457 92.4062664,7.64476492 92.4062664,8.76140941 C92.4062664,9.8780539 93.3204341,10.7832731 94.448117,10.7832731 Z M87.6419485,10.7832731 C88.7696314,10.7832731 89.6837991,9.8780539 89.6837991,8.76140941 C89.6837991,7.64476492 88.7696314,6.7395457 87.6419485,6.7395457 C86.5142656,6.7395457 85.600098,7.64476492 85.600098,8.76140941 C85.600098,9.8780539 86.5142656,10.7832731 87.6419485,10.7832731 Z M80.8357801,10.7832731 C81.963463,10.7832731 82.8776306,9.8780539 82.8776306,8.76140941 C82.8776306,7.64476492 81.963463,6.7395457 80.8357801,6.7395457 C79.7080971,6.7395457 78.7939295,7.64476492 78.7939295,8.76140941 C78.7939295,9.8780539 79.7080971,10.7832731 80.8357801,10.7832731 Z" id="形状结合" fill="#818181"></path>
                </g>
                <g id="编组-9" transform="translate(33.861465, 37.896864)" stroke="#818181" stroke-width="1.13886">
                    <rect id="矩形" fill="#FFFFFF" fill-rule="nonzero" x="-5.55111512e-16" y="-5.55111512e-16" width="36.1885736" height="19.0381312" rx="2.27772004"></rect>
                    <ellipse id="椭圆形" cx="17.8580372" cy="9.9994701" rx="2.26556496" ry="2.31299731"></ellipse>
                    <ellipse id="椭圆形备份-3" cx="26.3630221" cy="9.9994701" rx="2.26556496" ry="2.31299731"></ellipse>
                    <ellipse id="椭圆形备份-4" cx="9.35305236" cy="9.9994701" rx="2.26556496" ry="2.31299731"></ellipse>
                </g>
            </g>
            <g id="ic_tips_filled备份" transform="translate(93.778761, 62.362832)" fill-rule="nonzero">
                <path d="M12.6106195,0 C5.65712389,0 0,5.65712389 0,12.6106195 C0,19.564115 5.65712389,25.2212389 12.6106195,25.2212389 C19.564115,25.2212389 25.2212389,19.564115 25.2212389,12.6106195 C25.2212389,5.65712389 19.564115,0 12.6106195,0" id="Fill-1" fill="#0067D1"></path>
                <path d="M12.6106195,5.99004425 C13.1326991,5.99004425 13.5564159,6.41376106 13.5564159,6.93584071 L13.5564159,14.3433186 C13.5564159,14.8653982 13.1326991,15.289115 12.6106195,15.289115 C12.0885398,15.289115 11.664823,14.8653982 11.664823,14.3433186 L11.664823,6.93584071 C11.664823,6.41376106 12.0885398,5.99004425 12.6106195,5.99004425" id="Fill-1-path" fill="#FFFFFF"></path>
                <path d="M12.6106195,19.5464602 C11.9145133,19.5464602 11.3495575,18.9827655 11.3495575,18.2853982 C11.3495575,17.588031 11.9145133,17.0243363 12.6106195,17.0243363 C13.3067257,17.0243363 13.8716814,17.588031 13.8716814,18.2853982 C13.8716814,18.9827655 13.3067257,19.5464602 12.6106195,19.5464602" id="Fill-1-path" fill="#FFFFFF"></path>
            </g>
        </g>
    </g>
</svg>