<svg viewBox="0 0 24 24" xmlns="http://www.w3.org/2000/svg"
	xmlns:xlink="http://www.w3.org/1999/xlink">
	<defs />
	<g opacity="0.000000" />
	<path id="矢量 117"
		d="M15.8002 2C17.5399 2 18.9502 3.44638 18.9502 5.23062L18.9506 8.05371C18.4714 7.85861 17.9695 7.70963 17.4501 7.61206L17.4502 5.23062C17.4502 4.29602 16.7115 3.53839 15.8002 3.53839L5.59998 3.53839C4.68871 3.53839 3.94998 4.29602 3.94998 5.23062L3.94998 18.7684C3.94998 19.703 4.68871 20.4607 5.59998 20.4607L9.49577 20.4605C9.89645 21.0331 10.3672 21.5508 10.8953 22L5.59998 21.9991C3.86028 21.9991 2.44998 20.5527 2.44998 18.7684L2.44998 5.23062C2.44998 3.44638 3.86028 2 5.59998 2L15.8002 2ZM14.75 6.5C14.75 6.08578 14.4142 5.75 14 5.75L6.99998 5.75L6.89821 5.75684C6.53214 5.80652 6.24998 6.1203 6.24998 6.5C6.24998 6.91422 6.58577 7.25 6.99998 7.25L14 7.25L14.1017 7.24316C14.4678 7.19348 14.75 6.8797 14.75 6.5ZM10.5 8.75C10.9142 8.75 11.25 9.08578 11.25 9.5C11.25 9.8797 10.9678 10.1935 10.6017 10.2432L10.5 10.25L6.99998 10.25C6.58577 10.25 6.24998 9.91422 6.24998 9.5C6.24998 9.1203 6.53214 8.80652 6.89821 8.75684L6.99998 8.75L10.5 8.75ZM21.6833 14.4973C22.8882 13.1647 22.9704 11.1884 21.7782 9.99615C20.5434 8.76135 18.4675 8.89371 17.1367 10.2244L15.5473 11.8139C15.3235 12.1079 15.2788 12.6061 15.5473 12.8746C15.8402 13.1675 16.315 13.1675 16.6079 12.8746L18.1974 11.2851L18.3159 11.1744C19.0821 10.5067 20.1316 10.4709 20.7175 11.0568C21.3343 11.6736 21.2622 12.804 20.4893 13.5769L18.9057 15.1605C18.682 15.4545 18.6372 15.9527 18.9057 16.2211C19.1986 16.514 19.6735 16.514 19.9664 16.2211L21.5499 14.6376L21.6833 14.4973ZM18.7937 12.9806C19.0622 13.2491 19.0846 13.6705 18.8609 13.9644L15.4413 17.3938C15.1484 17.6866 14.6735 17.6866 14.3806 17.3938C14.1121 17.1253 14.0897 16.7039 14.3135 16.4099L17.7331 12.9806C18.026 12.6877 18.5009 12.6877 18.7937 12.9806ZM14.3417 15.1311C14.5654 14.8372 14.543 14.4158 14.2746 14.1473C13.9817 13.8544 13.5068 13.8544 13.2139 14.1473L11.6223 15.7389L11.489 15.879C10.2852 17.2107 10.2041 19.1861 11.3961 20.3782C12.6308 21.6129 14.7058 21.4817 16.0355 20.152L17.6173 18.5702C17.8411 18.2762 17.8858 17.778 17.6173 17.5095C17.3244 17.2166 16.8496 17.2166 16.5567 17.5095L14.9748 19.0914L14.8565 19.2019C14.0915 19.8685 13.0428 19.9036 12.4568 19.3176C11.8399 18.7007 11.9113 17.5712 12.683 16.7995L14.3417 15.1311Z"
		fill-rule="evenodd" />
</svg>