<svg viewBox="0 0 24 24" xmlns="http://www.w3.org/2000/svg"
	xmlns:xlink="http://www.w3.org/1999/xlink">
	<defs />
	<g opacity="0.000000" />
	<path id="矢量 118"
		d="M7.16364 5.41574L2.09824 10.5501C1.30121 11.3581 1.2998 12.6158 2.09512 13.4253L7.16049 18.5811C7.97998 19.4152 9.35059 19.4767 10.2498 18.7235C10.7243 18.326 10.9995 17.7522 10.9995 17.1451L10.9995 6.85492C10.9995 5.67847 9.99405 4.75 8.78223 4.75C8.17099 4.75 7.58432 4.98932 7.16364 5.41574ZM18.6636 5.41574L13.5982 10.5501C12.8012 11.3581 12.7998 12.6158 13.5951 13.4253L18.6605 18.5811C19.48 19.4152 20.8506 19.4767 21.7498 18.7235C22.2243 18.326 22.4995 17.7522 22.4995 17.1451L22.4995 6.85492C22.4995 5.67847 21.494 4.75 20.2822 4.75C19.671 4.75 19.0843 4.98932 18.6636 5.41574ZM3.1651 12.3741L8.2305 17.5298C8.50003 17.8042 8.98532 17.826 9.2865 17.5736C9.42514 17.4575 9.49954 17.3024 9.49954 17.1451L9.49954 6.85492C9.49954 6.53476 9.19116 6.25 8.78223 6.25C8.56772 6.25 8.36685 6.33194 8.23145 6.46918L3.16605 11.6036C2.94437 11.8283 2.94403 12.149 3.1651 12.3741ZM14.6651 12.3741L19.7305 17.5298C20 17.8042 20.4853 17.826 20.7865 17.5736C20.9251 17.4575 20.9995 17.3024 20.9995 17.1451L20.9995 6.85492C20.9995 6.53476 20.6912 6.25 20.2822 6.25C20.0677 6.25 19.8669 6.33194 19.7314 6.46918L14.666 11.6036C14.4444 11.8283 14.444 12.149 14.6651 12.3741Z"
		fill-rule="evenodd" />
</svg>