<?xml version="1.0" encoding="UTF-8"?>
<svg viewBox="0 0 155 126" version="1.1" xmlns="http://www.w3.org/2000/svg" xmlns:xlink="http://www.w3.org/1999/xlink">
    <g id="图标" stroke="none" stroke-width="1" fill="none" fill-rule="evenodd">
        <g id="pageservererror">
            <rect id="矩形" x="0" y="0" width="155" height="126"></rect>
            <g id="编组-12" transform="translate(3.000000, 20.562061)" fill-rule="nonzero">
                <g id="编组-2" transform="translate(80.562061, 0.000000)">
                    <path d="M58.8758782,55.25 L58.8758782,82.1896955 C58.8758782,82.655322 58.6871458,83.0768677 58.3820067,83.3820067 C58.0768677,83.6871458 57.655322,83.8758782 57.1896955,83.8758782 L1.68618267,83.8758782 C1.22055618,83.8758782 0.79901052,83.6871458 0.49387147,83.3820067 C0.188732424,83.0768677 -1.44328993e-15,82.655322 -1.44328993e-15,82.1896955 L-1.44328993e-15,55.25 L58.8758782,55.25 Z" id="矩形" stroke="#818181" stroke-width="1.12412178" fill="#FFFFFF"></path>
                    <rect id="矩形备份-2" stroke="#818181" stroke-width="1.12412178" fill="#FFFFFF" x="-1.44328993e-15" y="27.625" width="58.8758782" height="28.6258782"></rect>
                    <path d="M57.1896955,2.10942375e-15 C57.655322,2.10942375e-15 58.0768677,0.188732424 58.3820067,0.49387147 C58.6871458,0.79901052 58.8758782,1.22055618 58.8758782,1.68618267 L58.8758782,28.6258782 L-1.44328993e-15,28.6258782 L-1.44328993e-15,1.68618267 C-1.44328993e-15,1.22055618 0.188732424,0.79901052 0.49387147,0.49387147 C0.79901052,0.188732424 1.22055618,2.10942375e-15 1.68618267,2.10942375e-15 L57.1896955,2.10942375e-15 Z" id="矩形备份-5" stroke="#818181" stroke-width="1.12412178" fill="#FFFFFF"></path>
                    <circle id="椭圆形" fill="#0067D1" cx="44.9379391" cy="13.9379391" r="2.5"></circle>
                    <circle id="椭圆形备份-5" fill="#EEEEEE" cx="44.9379391" cy="41.9379391" r="2.5"></circle>
                    <circle id="椭圆形备份-6" fill="#EEEEEE" cx="44.9379391" cy="69.9379391" r="2.5"></circle>
                    <rect id="矩形备份-6" fill="#EEEEEE" x="17.4379391" y="13.4379391" width="21" height="1"></rect>
                    <rect id="矩形备份-9" fill="#EEEEEE" x="17.4379391" y="41.4379391" width="21" height="1"></rect>
                    <rect id="矩形备份-10" fill="#EEEEEE" x="17.4379391" y="69.4379391" width="21" height="1"></rect>
                </g>
                <path d="M0.44382267,83.4593903 L147.556177,83.4593903 C147.801294,83.4593903 148,83.6580965 148,83.903213 C148,84.1483295 147.801294,84.3470357 147.556177,84.3470357 L0.44382267,84.3470357 C0.198706178,84.3470357 0,84.1483295 0,83.903213 C0,83.6580965 0.198706178,83.4593903 0.44382267,83.4593903 Z" id="矩形备份-3" fill="#818181"></path>
                <g id="编组-2备份" transform="translate(3.481873, 10.919812)">
                    <g id="电脑" stroke="#818181" stroke-width="0.963745223">
                        <path d="M102.932054,3.44169138e-15 C103.863512,3.44169138e-15 104.706789,0.377548004 105.317201,0.987960538 C105.927614,1.59837308 106.305162,2.44165015 106.305162,3.37310828 L106.305162,64.3869041 L7.73109244,64.3869041 L7.73109244,3.37310828 C7.73109244,2.44165015 8.10864044,1.59837308 8.71905298,0.987960538 C9.32946552,0.377548004 10.1727426,3.44169138e-15 11.1042007,3.44169138e-15 L102.932054,3.44169138e-15 Z" id="矩形" fill="#EEEEEE"></path>
                        <path d="M113.554382,64.3896104 L114.036254,68.7129326 C114.036254,69.9067851 113.55235,70.9876156 112.769983,71.769983 C111.987615,72.5523505 110.906785,73.0362548 109.712932,73.0362548 L4.3233222,73.0362548 C3.12946974,73.0362548 2.04863919,72.5523505 1.26627175,71.769983 C0.483904319,70.9876156 3.44169138e-15,69.9067851 3.44169138e-15,68.7129326 L3.44169138e-15,64.871483 L113.554382,64.3896104 Z" id="矩形备份" fill="#FFFFFF"></path>
                        <path d="M72.3353948,64.3896104 L71.7981679,66.3930635 C71.7288118,66.6517094 71.5769296,66.8709488 71.3754406,67.0255267 C71.1739516,67.1801046 70.9228557,67.270021 70.6550723,67.270021 L44.347569,67.270021 C44.0797856,67.270021 43.8286898,67.1801046 43.6272007,67.0255267 C43.4257117,66.8709488 43.2738295,66.6517094 43.2044735,66.3930635 L42.6672465,64.3896104 L72.3353948,64.3896104 Z" id="矩形" fill="#EEEEEE"></path>
                        <path d="M100.030253,3.84415585 C100.69558,3.84415585 101.297921,4.11383299 101.73393,4.54984195 C102.169939,4.9858509 102.439616,5.58819167 102.439616,6.2535189 L102.439616,64.3869041 L11.5966387,64.3869041 L11.5966387,6.2535189 C11.5966387,5.58819167 11.8663158,4.9858509 12.3023248,4.54984195 C12.7383337,4.11383299 13.3406745,3.84415585 14.0060017,3.84415585 L100.030253,3.84415585 Z" id="矩形" fill="#FFFFFF"></path>
                    </g>
                    <g id="编组-13" transform="translate(24.878127, 20.641504)">
                        <g id="ic_tips_filled" transform="translate(0.000000, 1.487735)">
                            <path d="M12.5,0 C5.6075,0 0,5.6075 0,12.5 C0,19.3925 5.6075,25 12.5,25 C19.3925,25 25,19.3925 25,12.5 C25,5.6075 19.3925,0 12.5,0" id="Fill-1" fill="#0067D1"></path>
                            <path d="M12.8348214,6.10243056 C13.366183,6.10243056 13.797433,6.53409722 13.797433,7.06597222 L13.797433,14.6124306 C13.797433,15.1443056 13.366183,15.5759722 12.8348214,15.5759722 C12.3034598,15.5759722 11.8722098,15.1443056 11.8722098,14.6124306 L11.8722098,7.06597222 C11.8722098,6.53409722 12.3034598,6.10243056 12.8348214,6.10243056" id="Fill-1-path" fill="#FFFFFF"></path>
                            <path d="M12.8348214,19.9131944 C12.1263393,19.9131944 11.5513393,19.3389236 11.5513393,18.6284722 C11.5513393,17.9180208 12.1263393,17.34375 12.8348214,17.34375 C13.5433036,17.34375 14.1183036,17.9180208 14.1183036,18.6284722 C14.1183036,19.3389236 13.5433036,19.9131944 12.8348214,19.9131944" id="Fill-1-path" fill="#FFFFFF"></path>
                        </g>
                        <g id="编组-3备份" transform="translate(35.016389, 0.000000)" fill="#818181">
                            <path d="M0.480519481,0.0194805195 L5.31779985,0.0194805195 C5.58318343,0.0194805195 5.79831933,0.234616419 5.79831933,0.5 C5.79831933,0.765383582 5.58318343,0.980519481 5.31779985,0.980519481 L0.480519481,0.980519481 C0.215135899,0.980519481 0,0.765383582 0,0.5 C0,0.234616419 0.215135899,0.0194805195 0.480519481,0.0194805195 Z" id="矩形"></path>
                            <path d="M11.1107716,0.0194805195 L28.778871,0.0194805195 C29.0442546,0.0194805195 29.2593905,0.234616419 29.2593905,0.5 C29.2593905,0.765383582 29.0442546,0.980519481 28.778871,0.980519481 L11.1107716,0.980519481 C10.845388,0.980519481 10.6302521,0.765383582 10.6302521,0.5 C10.6302521,0.234616419 10.845388,0.0194805195 11.1107716,0.0194805195 Z" id="矩形"></path>
                            <path d="M0.480519481,6.74675325 L28.6275093,6.74675325 C28.8928929,6.74675325 29.1080288,6.96188915 29.1080288,7.22727273 C29.1080288,7.49265631 28.8928929,7.70779221 28.6275093,7.70779221 L0.480519481,7.70779221 C0.215135899,7.70779221 0,7.49265631 0,7.22727273 C0,6.96188915 0.215135899,6.74675325 0.480519481,6.74675325 Z" id="矩形备份-2"></path>
                            <path d="M0.480519481,13.474026 L28.6275093,13.474026 C28.8928929,13.474026 29.1080288,13.6891619 29.1080288,13.9545455 C29.1080288,14.219929 28.8928929,14.4350649 28.6275093,14.4350649 L0.480519481,14.4350649 C0.215135899,14.4350649 0,14.219929 0,13.9545455 C0,13.6891619 0.215135899,13.474026 0.480519481,13.474026 Z" id="矩形备份-4"></path>
                            <path d="M0.480519481,20.2012987 L28.6275093,20.2012987 C28.8928929,20.2012987 29.1080288,20.4164346 29.1080288,20.6818182 C29.1080288,20.9472017 28.8928929,21.1623376 28.6275093,21.1623376 L0.480519481,21.1623376 C0.215135899,21.1623376 0,20.9472017 0,20.6818182 C0,20.4164346 0.215135899,20.2012987 0.480519481,20.2012987 Z" id="矩形备份-5"></path>
                            <path d="M0.480519481,26.9285714 L5.31779985,26.9285714 C5.58318343,26.9285714 5.79831933,27.1437073 5.79831933,27.4090909 C5.79831933,27.6744745 5.58318343,27.8896104 5.31779985,27.8896104 L0.480519481,27.8896104 C0.215135899,27.8896104 0,27.6744745 0,27.4090909 C0,27.1437073 0.215135899,26.9285714 0.480519481,26.9285714 Z" id="矩形备份-6"></path>
                            <rect id="矩形备份-7" x="9.66386555" y="26.9285714" width="7.73109244" height="1"></rect>
                        </g>
                    </g>
                </g>
            </g>
        </g>
    </g>
</svg>