<?xml version="1.0" encoding="UTF-8"?>
<svg viewBox="0 0 24 24" version="1.1" xmlns="http://www.w3.org/2000/svg" xmlns:xlink="http://www.w3.org/1999/xlink">
    <g id="S12组件" stroke="none" stroke-width="1">
        <g id="Pagelink">
            <path d="M17,2 C18.5977441,2 19.9036654,3.24924244 19.9949075,4.82376176 L20,5 L20,11.0553284 C20,11.4695419 19.6642136,11.8053284 19.25,11.8053284 C18.8703042,11.8053284 18.556509,11.5231745 18.5068466,11.1570989 L18.5,11.0553284 L18.5,5 C18.5,4.22053329 17.9050787,3.57957831 17.1444541,3.50686896 L17,3.5 L7,3.5 C6.22033921,3.5 5.57955548,4.095104 5.50686694,4.85557809 L5.5,5 L5.5,19.001 C5.5,19.7801901 6.09466112,20.4205033 6.85549994,20.4931381 L7,20.5 L11.6737061,20.5 C12.0879196,20.5 12.4237061,20.8357864 12.4237061,21.25 C12.4237061,21.6296958 12.1415522,21.943491 11.7754766,21.9931534 L11.6737061,22 L7,22 C5.40217146,22 4.09632857,20.7516058 4.00509213,19.1772258 L4,19.001 L4,5 C4,3.40265354 5.24885901,2.09636301 6.82372068,2.00509397 L7,2 L17,2 Z M15.3948316,16.1015544 C15.6631713,16.3698941 15.6855329,16.7910649 15.4619165,17.0848764 L15.3948316,17.1616386 L15.0414702,17.515 C14.3584238,18.1980464 14.3584238,19.3054834 15.0414702,19.9885298 C15.6903643,20.6374238 16.7222709,20.6698685 17.4094662,20.0858639 L17.515,19.9885298 L17.8683614,19.6351684 C18.1610956,19.3424342 18.6357114,19.3424342 18.9284456,19.6351684 C19.1967852,19.903508 19.2191469,20.3246788 18.9955305,20.6184903 L18.9284456,20.6952526 L18.5750842,21.048614 C17.3065695,22.3171287 15.2499008,22.3171287 13.981386,21.048614 C12.7566132,19.8238411 12.7143797,17.8643326 13.8546854,16.5888883 L13.981386,16.4549158 L14.3347474,16.1015544 C14.6274816,15.8088202 15.1020975,15.8088202 15.3948316,16.1015544 Z M18.9284456,16.1015544 C19.1967852,16.3698941 19.2191469,16.7910649 18.9955305,17.0848764 L18.9284456,17.1616386 L17.1616386,18.9284456 C16.8689044,19.2211798 16.3942886,19.2211798 16.1015544,18.9284456 C15.8332148,18.6601059 15.8108531,18.2389351 16.0344695,17.9451236 L16.1015544,17.8683614 L17.8683614,16.1015544 C18.1610956,15.8088202 18.6357114,15.8088202 18.9284456,16.1015544 Z M21.048614,13.981386 C22.2733868,15.2061589 22.3156203,17.1656674 21.1753146,18.4411117 L21.048614,18.5750842 L20.6952526,18.9284456 C20.4025184,19.2211798 19.9279025,19.2211798 19.6351684,18.9284456 C19.3668287,18.6601059 19.3444671,18.2389351 19.5680835,17.9451236 L19.6351684,17.8683614 L19.9885298,17.515 C20.6715762,16.8319536 20.6715762,15.7245166 19.9885298,15.0414702 C19.3396357,14.3925762 18.3077291,14.3601315 17.6205338,14.9441361 L17.515,15.0414702 L17.1616386,15.3948316 C16.8689044,15.6875658 16.3942886,15.6875658 16.1015544,15.3948316 C15.8332148,15.126492 15.8108531,14.7053212 16.0344695,14.4115097 L16.1015544,14.3347474 L16.4549158,13.981386 C17.7234305,12.7128713 19.7800992,12.7128713 21.048614,13.981386 Z M13,9.75 C13.4142136,9.75 13.75,10.0857864 13.75,10.5 C13.75,10.8796958 13.4678461,11.193491 13.1017706,11.2431534 L13,11.25 L8.5,11.25 C8.08578644,11.25 7.75,10.9142136 7.75,10.5 C7.75,10.1203042 8.03215388,9.80650904 8.39822944,9.75684662 L8.5,9.75 L13,9.75 Z M15.5,5.75 C15.9142136,5.75 16.25,6.08578644 16.25,6.5 C16.25,6.87969577 15.9678461,7.19349096 15.6017706,7.24315338 L15.5,7.25 L8.5,7.25 C8.08578644,7.25 7.75,6.91421356 7.75,6.5 C7.75,6.12030423 8.03215388,5.80650904 8.39822944,5.75684662 L8.5,5.75 L15.5,5.75 Z" id="形状结合"></path>
        </g>
    </g>
</svg>