<?xml version="1.0" encoding="UTF-8"?>
<svg viewBox="0 0 24 24" version="1.1" xmlns="http://www.w3.org/2000/svg" xmlns:xlink="http://www.w3.org/1999/xlink">
    <g id="S12组件" stroke="none" stroke-width="1">
        <g id="PanelMax">
            <g id="编组备份" transform="translate(3.000000, 3.000000)">
                <path d="M15,0 C16.6568542,0 18,1.34314575 18,3 C18,3.41421356 17.6642136,3.75 17.25,3.75 C16.8703042,3.75 16.556509,3.46784612 16.5068466,3.10177056 L16.5,3 C16.5,2.22030388 15.9051119,1.57955132 15.14446,1.50686658 L15,1.5 L3,1.5 C2.22030388,1.5 1.57955132,2.09488808 1.50686658,2.85553999 L1.5,3 L1.5,5 L13.75,5 C14.1642136,5 14.5,5.33578644 14.5,5.75 C14.5,6.12969577 14.2178461,6.44349096 13.8517706,6.49315338 L13.75,6.5 L1.5,6.5 L1.5,15 C1.5,15.7796961 2.09488808,16.4204487 2.85553999,16.4931334 L3,16.5 L15,16.5 C15.7796961,16.5 16.4204487,15.9051119 16.4931334,15.14446 L16.5,15 L16.5,5.5 C16.5,5.08578644 16.8357864,4.75 17.25,4.75 C17.6296958,4.75 17.943491,5.03215388 17.9931534,5.39822944 L18,5.5 L18,15 C18,16.5976809 16.75108,17.9036609 15.1762728,17.9949073 L15,18 L3,18 C1.40231912,18 0.09633912,16.75108 0.00509269,15.1762728 L0,15 L0,3 C0,1.40231912 1.24891996,0.09633912 2.82372721,0.00509269 L3,0 L15,0 Z M6.58966346,11.9895924 C7.00387703,11.9895924 7.33966343,12.3253788 7.33966343,12.7395924 C7.33966343,13.1192881 7.05750953,13.4330833 6.69143401,13.4827457 L6.58966346,13.4895924 L3.567412,13.4895924 C3.15319844,13.4895924 2.817412,13.1538059 2.817412,12.7395924 C2.817412,12.3598966 3.09956588,12.0461014 3.46564144,11.996439 L3.567412,11.9895924 L6.58966346,11.9895924 Z M11.5896634,8.75 C12.003877,8.75 12.3396634,9.0857864 12.3396634,9.5 C12.3396634,9.8796958 12.0575095,10.193491 11.691434,10.2431534 L11.5896634,10.25 L3.567412,10.25 C3.15319844,10.25 2.817412,9.9142136 2.817412,9.5 C2.817412,9.1203042 3.09956588,8.806509 3.46564144,8.7568466 L3.567412,8.75 L11.5896634,8.75 Z" id="形状结合"></path>
                <g id="编组-2" transform="translate(2.817412, 8.750000)"></g>
            </g>
        </g>
    </g>
</svg>