<svg viewBox="0 0 24 24" xmlns="http://www.w3.org/2000/svg"
	xmlns:xlink="http://www.w3.org/1999/xlink">
	<defs />
	<g opacity="0.000000" />
	<path id="矢量 202"
		d="M21.745 5.18811C21.6525 3.54837 20.2818 2.25 18.6083 2.25L8.64279 2.25L8.42282 2.25757C7.69406 2.30777 7.01407 2.60632 6.48782 3.0983C6.18524 3.38116 6.16925 3.85577 6.45212 4.15836C6.73502 4.46094 7.20963 4.47693 7.51218 4.19403C7.81549 3.91049 8.21518 3.75 8.64279 3.75L18.6083 3.75L18.7502 3.75595C19.592 3.82678 20.25 4.52182 20.25 5.36505L20.25 16.402L20.2429 16.5539C20.2097 16.9051 20.0618 17.231 19.8216 17.49C19.5399 17.7937 19.5578 18.2683 19.8615 18.5499C20.1652 18.8316 20.6398 18.8137 20.9214 18.51C21.4504 17.9396 21.75 17.1932 21.75 16.402L21.75 5.36505L21.745 5.18811ZM5.43243 5.25L15.5676 5.25C17.3208 5.25 18.75 6.64163 18.75 8.36841L18.75 18.6316C18.75 20.3584 17.3208 21.75 15.5676 21.75L5.43243 21.75C3.67923 21.75 2.25 20.3584 2.25 18.6316L2.25 8.36841C2.25 6.64163 3.67923 5.25 5.43243 5.25ZM3.75 12.25L3.75 18.6316C3.75 19.5209 4.49884 20.25 5.43243 20.25L15.5676 20.25C16.5012 20.25 17.25 19.5209 17.25 18.6316L17.25 12.25L3.75 12.25ZM17.25 10.75L3.75 10.75L3.75 8.36841C3.75 7.47913 4.49884 6.75 5.43243 6.75L15.5676 6.75C16.5012 6.75 17.25 7.47913 17.25 8.36841L17.25 10.75ZM6 10C6.55228 10 7 9.55228 7 9C7 8.44772 6.55228 8 6 8C5.44772 8 5 8.44772 5 9C5 9.55228 5.44772 10 6 10ZM10.5 9C10.5 9.55228 10.0523 10 9.5 10C8.94772 10 8.5 9.55228 8.5 9C8.5 8.44772 8.94772 8 9.5 8C10.0523 8 10.5 8.44772 10.5 9ZM13 10C13.5523 10 14 9.55228 14 9C14 8.44772 13.5523 8 13 8C12.4477 8 12 8.44772 12 9C12 9.55228 12.4477 10 13 10Z"
		fill-rule="evenodd" />
</svg>