<svg viewBox="0 0 24 24" xmlns="http://www.w3.org/2000/svg"
	xmlns:xlink="http://www.w3.org/1999/xlink">
	<defs />
	<g opacity="0.000000" />
	<path id="矢量 201"
		d="M18.5455 2.25C20.2542 2.25 21.6506 3.58749 21.7449 5.27271L21.75 5.45456L21.75 8.31134C21.75 8.51843 21.666 8.70593 21.5303 8.84167C21.4104 8.96161 21.2613 9.03876 21.0949 9.06134L20.9932 9.06818L3.75 9.06799L3.75 18.5454C3.75 19.4373 4.43494 20.1692 5.30746 20.2437L5.45453 20.25L18.5455 20.25C19.4373 20.25 20.1692 19.5651 20.2437 18.6925L20.25 18.5454L20.25 11.7441C20.25 11.3299 20.5858 10.9941 21 10.9941C21.3797 10.9941 21.6935 11.2763 21.7432 11.6423L21.75 11.7441L21.75 18.5454C21.75 20.2542 20.4125 21.6507 18.7273 21.7449L18.5455 21.75L5.45453 21.75C3.74576 21.75 2.34937 20.4125 2.25507 18.7273L2.25 18.5454L2.25 5.45456C2.25 3.74576 3.58746 2.34933 5.27271 2.25507L5.45453 2.25L18.5455 2.25ZM5.45453 3.75L18.5455 3.75L18.6925 3.75626C19.5651 3.83081 20.25 4.56268 20.25 5.45456L20.25 7.56799L3.75 7.56799L3.75 5.45456L3.75626 5.30746C3.83081 4.43494 4.56268 3.75 5.45453 3.75ZM15 11.9318C15.4142 11.9318 15.75 12.2676 15.75 12.6818C15.75 13.0615 15.4678 13.3753 15.1018 13.425L15 13.4318L7 13.4318C6.58578 13.4318 6.25 13.096 6.25 12.6818C6.25 12.3021 6.53217 11.9883 6.89822 11.9387L7 11.9318L15 11.9318ZM11.75 16.3182C11.75 15.904 11.4142 15.5682 11 15.5682L7 15.5682L6.89822 15.575C6.53217 15.6247 6.25 15.9385 6.25 16.3182C6.25 16.7324 6.58578 17.0682 7 17.0682L11 17.0682L11.1018 17.0613C11.4678 17.0117 11.75 16.6979 11.75 16.3182Z"
		fill-rule="evenodd" />
</svg>