<?xml version="1.0" encoding="UTF-8"?>
<svg viewBox="0 0 24 24" version="1.1" xmlns="http://www.w3.org/2000/svg" xmlns:xlink="http://www.w3.org/1999/xlink">
    <g id="S12组件" stroke="none" stroke-width="1">
        <g id="Pause">
            <g id="编组" stroke-linecap="round" transform="translate(7.500000, 6.000000)">
                <path d="M1.5,0.25 C1.87969577,0.25 2.19349096,0.532153882 2.24315338,0.898229443 L2.25,1 L2.25,11 C2.25,11.4142136 1.91421356,11.75 1.5,11.75 C1.12030423,11.75 0.806509039,11.4678461 0.756846616,11.1017706 L0.75,11 L0.75,1 C0.75,0.585786438 1.08578644,0.25 1.5,0.25 Z M7.5,0.25 C7.87969577,0.25 8.19349096,0.532153882 8.24315338,0.898229443 L8.25,1 L8.25,11 C8.25,11.4142136 7.91421356,11.75 7.5,11.75 C7.12030423,11.75 6.80650904,11.4678461 6.75684662,11.1017706 L6.75,11 L6.75,1 C6.75,0.585786438 7.08578644,0.25 7.5,0.25 Z" id="形状结合"></path>
            </g>
        </g>
    </g>
</svg>