<svg viewBox="0 0 24 24" xmlns="http://www.w3.org/2000/svg"
	xmlns:xlink="http://www.w3.org/1999/xlink">
	<defs />
	<path id="矢量 16"
		d="M12 1.25C14.3935 1.25 16.6698 2.03528 18.5307 3.46051C18.8596 3.71234 18.922 4.18311 18.6702 4.51196C18.4183 4.84082 17.9476 4.90326 17.6187 4.65137C16.0173 3.42493 14.0609 2.75 12 2.75C6.89136 2.75 2.75 6.89136 2.75 12C2.75 17.1086 6.89136 21.25 12 21.25C17.1086 21.25 21.25 17.1086 21.25 12C21.25 9.94043 20.576 7.98529 19.351 6.38434C19.0992 6.05542 19.1619 5.58466 19.4908 5.33295C19.8198 5.08124 20.2905 5.14386 20.5422 5.47284C21.9658 7.33319 22.75 9.60803 22.75 12C22.75 17.9371 17.9371 22.75 12 22.75C6.06293 22.75 1.25 17.9371 1.25 12C1.25 6.06293 6.06293 1.25 12 1.25ZM9.5 7.25C9.8797 7.25 10.1935 7.53217 10.2432 7.89825L10.25 8L10.25 16C10.25 16.4142 9.91422 16.75 9.5 16.75C9.1203 16.75 8.80652 16.4678 8.75684 16.1017L8.75 16L8.75 8C8.75 7.58582 9.08578 7.25 9.5 7.25ZM15.2432 7.89825C15.1935 7.53217 14.8797 7.25 14.5 7.25C14.0858 7.25 13.75 7.58582 13.75 8L13.75 16L13.7568 16.1017C13.8065 16.4678 14.1203 16.75 14.5 16.75C14.9142 16.75 15.25 16.4142 15.25 16L15.25 8L15.2432 7.89825Z"
		fill-rule="evenodd" />
</svg>