<svg viewBox="0 0 24 24" xmlns="http://www.w3.org/2000/svg"
	xmlns:xlink="http://www.w3.org/1999/xlink">
	<defs />
	<g opacity="0.000000" />
	<path id="矢量 17"
		d="M9.74316 5.89825C9.69348 5.53217 9.3797 5.25 9 5.25C8.58578 5.25 8.25 5.58582 8.25 6L8.25 18L8.25684 18.1017C8.30652 18.4678 8.6203 18.75 9 18.75C9.41422 18.75 9.75 18.4142 9.75 18L9.75 6L9.74316 5.89825ZM15.7432 5.89825C15.6935 5.53217 15.3797 5.25 15 5.25C14.5858 5.25 14.25 5.58582 14.25 6L14.25 18L14.2568 18.1017C14.3065 18.4678 14.6203 18.75 15 18.75C15.4142 18.75 15.75 18.4142 15.75 18L15.75 6L15.7432 5.89825Z"
		fill-rule="evenodd" />
</svg>