<?xml version="1.0" encoding="UTF-8"?>
<svg viewBox="0 0 24 24" version="1.1" xmlns="http://www.w3.org/2000/svg" xmlns:xlink="http://www.w3.org/1999/xlink">
    <g id="页面-1" stroke="none" stroke-width="1">
        <g id="画板" transform="translate(-1076.000000, -2677.000000)">
            <g id="编组" transform="translate(1076.000000, 2677.000000)">
                <path d="M12,2 C14.2170341,2 16.3258236,2.72418837 18.0532894,4.03924114 C18.3828702,4.29013825 18.446656,4.76070858 18.1957589,5.0902894 C17.9448618,5.41987022 17.4742914,5.48365597 17.1447106,5.23275886 C15.6761624,4.11481002 13.8858755,3.5 12,3.5 C7.30585564,3.5 3.5,7.30557146 3.5,12 C3.5,16.6937864 7.30621356,20.5 12,20.5 C16.6944285,20.5 20.5,16.6941444 20.5,12 C20.5,10.1146074 19.8858507,8.32533664 18.7681003,6.85610438 C18.5173054,6.52644579 18.581237,6.05589525 18.9108956,5.80510033 C19.2405542,5.55430541 19.7111047,5.61823704 19.9618997,5.94789562 C21.2765776,7.67598035 22,9.78360864 22,12 C22,17.5225464 17.5228807,22 12,22 C6.47778644,22 2,17.5222136 2,12 C2,6.47711926 6.47745359,2 12,2 Z M9.5,7.7485 C9.87969577,7.7485 10.193491,8.03065388 10.2431534,8.39672944 L10.25,8.4985 L10.25,15.4985 C10.25,15.9127136 9.91421356,16.2485 9.5,16.2485 C9.12030423,16.2485 8.80650904,15.9663461 8.75684662,15.6002706 L8.75,15.4985 L8.75,8.4985 C8.75,8.08428644 9.08578644,7.7485 9.5,7.7485 Z M14.5,7.7485 C14.8796958,7.7485 15.193491,8.03065388 15.2431534,8.39672944 L15.25,8.4985 L15.25,15.4985 C15.25,15.9127136 14.9142136,16.2485 14.5,16.2485 C14.1203042,16.2485 13.806509,15.9663461 13.7568466,15.6002706 L13.75,15.4985 L13.75,8.4985 C13.75,8.08428644 14.0857864,7.7485 14.5,7.7485 Z" id="形状结合"></path>
            </g>
        </g>
    </g>
</svg>