<svg viewBox="0 0 24 24" xmlns="http://www.w3.org/2000/svg"
	xmlns:xlink="http://www.w3.org/1999/xlink">
	<defs />
	<g opacity="0.000000" />
	<path id="矢量 10"
		d="M18.75 2.25L5.25 2.25C3.59314 2.25 2.25 3.59314 2.25 5.25L2.25 18.75C2.25 20.4069 3.59314 21.75 5.25 21.75L18.75 21.75C20.4069 21.75 21.75 20.4069 21.75 18.75L21.75 5.25C21.75 3.59314 20.4069 2.25 18.75 2.25ZM11.3179 5.75006L11.1619 5.758C10.5953 5.8111 10.0886 6.12732 9.81244 6.63501L9.7309 6.7854C9.2821 7.70502 9.55481 8.93457 10.1874 10.3215L10.2729 10.505L10.2028 10.7177C9.86322 11.6945 9.47925 12.6 9.03363 13.4638L8.92297 13.671L8.64624 13.7971C6.505 14.7911 5.75 15.6221 5.75 16.5504L5.75635 16.6971C5.80273 17.2314 6.10052 17.7201 6.57465 17.9915C6.82532 18.1589 7.17273 18.25 7.47754 18.25L7.62463 18.2442C8.59723 18.1671 9.51477 17.3257 10.4354 15.8239L10.594 15.557L10.8795 15.4434C11.7384 15.1108 12.5604 14.8457 13.3793 14.6414L13.532 14.605C14.2081 15.0681 15.0804 15.3986 15.9144 15.4604C16.234 15.4604 16.47 15.4547 16.704 15.4164C17.5604 15.2764 18.1719 14.7632 18.2408 13.8475L18.2473 13.6711C18.3271 12.6603 17.4938 11.8526 15.8943 11.8185L15.6165 11.8231C15.2454 11.8356 14.8688 11.8729 14.4581 11.9349L14.197 11.976L13.9559 11.7236C13.5527 11.2839 13.1974 10.804 12.8962 10.2914L12.9412 9.96875C13.3553 8.37183 13.3443 7.18964 12.821 6.4632L12.7156 6.33514C12.4196 6.00854 12.0102 5.80286 11.5803 5.76117L11.3179 5.75006ZM11.4182 7.2533C11.4872 7.2533 11.5702 7.29492 11.6119 7.35071C11.7578 7.64349 11.7776 8.40082 11.5322 9.41821L11.496 9.56201L11.5322 9.41821C11.1414 8.48114 10.9088 7.72278 11.1149 7.37848C11.1566 7.30273 11.2167 7.26111 11.2968 7.25189L11.4182 7.2533ZM11.6479 11.125L11.8232 11.4087C12.203 11.9965 12.6447 12.5436 13.141 13.0413L13.0188 13.1854C12.3136 13.3612 11.6089 13.578 10.887 13.839L10.438 14.007L10.5999 13.6852C10.9045 13.0565 11.1806 12.407 11.4333 11.728L11.6479 11.125ZM16.0226 13.3229L15.8783 13.3184C15.5049 13.3184 15.115 13.3522 14.6654 13.4206L14.495 13.448C14.8658 13.6832 15.3394 13.8757 15.7596 13.9386L15.97 13.9625L16.21 13.9594L16.4618 13.9361C16.714 13.8948 16.7473 13.8649 16.7495 13.6137C16.7441 13.4991 16.6497 13.3795 16.2634 13.3398L16.0226 13.3229ZM8.91827 15.4105L8.99402 15.294L8.91827 15.4105C8.23395 15.7578 7.68787 16.032 7.427 16.2963L7.28833 16.4487C7.25415 16.4946 7.25 16.5188 7.25 16.5504C7.25 16.6182 7.28351 16.6736 7.33038 16.695L7.47009 16.7781C7.78894 16.7781 8.31226 16.3119 8.91827 15.4105Z"
		fill-rule="evenodd" />
</svg>