<?xml version="1.0" encoding="UTF-8"?>
<svg viewBox="0 0 24 24" version="1.1" xmlns="http://www.w3.org/2000/svg"
    xmlns:xlink="http://www.w3.org/1999/xlink">
    <g id="页面-1" stroke="none" stroke-width="1" fill-rule="evenodd">
        <g id="文件类型方案" transform="translate(-592.000000, -112.000000)">
            <g id="IconPdfType" transform="translate(592.000000, 112.000000)">
                <g id="Rectangle-Copy-3">
                    <rect x="0" y="0" width="24" height="24" rx="4"></rect>
                </g>
                <path
                    d="M16.6195556,15.1564065 C15.6597878,15.0851187 14.735567,14.7286799 13.989081,14.0870899 C12.5316559,14.4078849 11.1453247,14.8712554 9.75899355,15.4415576 C8.65703799,17.4019712 7.62617634,18.4 6.73750251,18.4 C6.55976774,18.4 6.34648602,18.3643561 6.20429821,18.2574245 C5.81328172,18.079205 5.6,17.6871223 5.6,17.2950396 C5.6,16.9742446 5.67109391,16.0831475 9.04805448,14.6217482 C9.83008746,13.1959928 10.4343857,11.7345936 10.932043,10.2019065 C10.5054796,9.34645327 9.58125879,7.24346408 10.221104,6.17414754 C10.4343857,5.78206481 10.8609491,5.56820149 11.3230595,5.60384537 C11.678529,5.60384537 12.0339986,5.78206479 12.2472803,6.06721588 C12.7093907,6.7088058 12.6738437,8.06327342 12.0695455,10.059331 C12.6382968,11.1286475 13.3847828,12.0910324 14.2734566,12.9108418 C15.0199427,12.7682662 15.7664287,12.6613346 16.5129147,12.6613346 C18.1836215,12.6969784 18.4324502,13.4811439 18.3969032,13.9445144 C18.3969032,15.1564065 17.2238538,15.1564065 16.6195556,15.1564065 L16.6195556,15.1564065 Z M6.6664086,17.3663273 L6.77304947,17.3306835 C7.27070681,17.152464 7.6617233,16.7960252 7.94609892,16.3326547 C7.41289462,16.546518 6.98633118,16.9029568 6.6664086,17.3663273 Z M11.3941534,6.67316192 L11.2875126,6.67316192 C11.2519656,6.67316192 11.1808717,6.67316192 11.1453247,6.7088058 C11.0031369,7.31475185 11.1097778,7.95634177 11.3586065,8.52664393 C11.5718882,7.92069788 11.5718882,7.27910796 11.3941534,6.67316192 L11.3941534,6.67316192 Z M11.6429821,11.8415252 L11.6074351,11.912813 L11.5718882,11.8771691 C11.2519656,12.6969784 10.8964961,13.5167878 10.5054796,14.3009533 L10.5765735,14.2653094 L10.5765735,14.3365971 C11.3586065,14.0514461 12.2117333,13.8019389 12.9937663,13.6237194 L12.9582194,13.5880756 L13.0648602,13.5880756 C12.5316559,13.0534173 12.0339986,12.4474713 11.6429821,11.8415252 L11.6429821,11.8415252 Z M16.4773678,13.7306511 C16.1574452,13.7306511 15.8730695,13.7306511 15.553147,13.8019389 C15.9086165,13.9801583 16.264086,14.0514461 16.6195556,14.0870899 C16.8683842,14.1227338 17.1172129,14.0870899 17.3304946,14.0158022 C17.3304946,13.9088705 17.1883068,13.7306511 16.4773678,13.7306511 Z"
                    id="形状备份" fill="#FFFFFF" fill-rule="nonzero"></path>
            </g>
        </g>
    </g>
</svg>