<?xml version="1.0" encoding="UTF-8"?>
<svg viewBox="0 0 30 30" version="1.1" xmlns="http://www.w3.org/2000/svg" xmlns:xlink="http://www.w3.org/1999/xlink">
    <g id="多端组件" stroke="none" stroke-width="1">
        <g id="文件上传" transform="translate(-257.000000, -1942.000000)">
            <g id="PDF" transform="translate(257.000000, 1942.000000)">
                <rect id="矩形" x="0" y="0" width="30" height="30" rx="2"></rect>
                <path d="M20.7744445,18.9455081 C19.5747348,18.8563984 18.4194588,18.4108499 17.4863513,17.6088624 C15.6645699,18.0098561 13.9316559,18.5890693 12.1987419,19.301947 C10.8212975,21.752464 9.53272043,23 8.42187813,23 C8.19970968,23 7.93310752,22.9554452 7.75537277,22.8217806 C7.26660216,22.5990063 7,22.1089029 7,21.6187995 C7,21.2178058 7.08886739,20.1039344 11.3100681,18.2771853 C12.2876093,16.494991 13.0429821,14.6682419 13.6650538,12.7523831 C13.1318495,11.6830666 11.9765735,9.0543301 12.7763799,7.71768442 C13.0429821,7.22758101 13.5761864,6.96025187 14.1538244,7.00480671 C14.5981613,7.00480671 15.0424982,7.22758099 15.3091004,7.58401985 C15.8867384,8.38600725 15.8423047,10.0790918 15.0869319,12.5741637 C15.797871,13.9108094 16.7309785,15.1137905 17.8418208,16.1385522 C18.7749283,15.9603328 19.7080359,15.8266682 20.6411434,15.8266682 C22.7295269,15.871223 23.0405627,16.8514299 22.9961291,17.430643 C22.9961291,18.9455081 21.5298172,18.9455081 20.7744445,18.9455081 L20.7744445,18.9455081 Z M8.33301075,21.7079092 L8.46631184,21.6633543 C9.08838352,21.4405801 9.57715413,20.9950315 9.93262366,20.4158184 C9.26611827,20.6831475 8.73291398,21.128696 8.33301075,21.7079092 Z M14.2426918,8.3414524 L14.1093907,8.3414524 C14.064957,8.3414524 13.9760896,8.3414524 13.9316559,8.38600725 C13.7539211,9.14343981 13.8872222,9.94542722 14.1982581,10.6583049 C14.4648602,9.90087235 14.4648602,9.09888495 14.2426918,8.3414524 L14.2426918,8.3414524 Z M14.5537276,14.8019065 L14.5092939,14.8910162 L14.4648602,14.8464614 C14.064957,15.8712231 13.6206201,16.8959847 13.1318495,17.8761916 L13.2207169,17.8316367 L13.2207169,17.9207464 C14.1982581,17.5643076 15.2646667,17.2524236 16.2422079,17.0296493 L16.1977742,16.9850944 L16.3310753,16.9850944 C15.6645699,16.3167716 15.0424982,15.5593391 14.5537276,14.8019065 L14.5537276,14.8019065 Z M20.5967097,17.1633139 C20.1968065,17.1633139 19.8413369,17.1633139 19.4414337,17.2524236 C19.8857706,17.4751979 20.3301075,17.5643076 20.7744445,17.6088624 C21.0854803,17.6534173 21.3965162,17.6088624 21.6631183,17.5197527 C21.6631183,17.3860882 21.4853835,17.1633139 20.5967097,17.1633139 Z" id="形状" fill="#FFFFFF" fill-rule="nonzero"></path>
            </g>
        </g>
    </g>
</svg>