<svg width="24.000000" height="24.000000" viewBox="0 0 24 24" xmlns="http://www.w3.org/2000/svg" xmlns:xlink="http://www.w3.org/1999/xlink">
	<g clip-path="url(#clip131_1899)">
		<path id="矢量 175" d="M8.11877 10.0568L7.69653 12.135L4.4834 12.135C4.39087 12.135 4.29968 12.1428 4.20996 12.1584C4.1134 12.1753 4.01794 12.2013 3.92444 12.2362C3.85681 12.2616 3.79138 12.291 3.72827 12.3248C3.62976 12.3774 3.53662 12.4403 3.4491 12.5134C3.3208 12.6205 3.21216 12.7407 3.12305 12.874C3.0105 13.0424 2.92908 13.2316 2.87891 13.4415L2.03699 16.9681C2.01379 17.0651 2.0022 17.1636 2.0022 17.2634C2.0022 17.3528 2.01123 17.4402 2.02917 17.5258C2.04358 17.594 2.06372 17.6611 2.0896 17.7269C2.14709 17.8732 2.22876 18.0035 2.33484 18.1177C2.4447 18.236 2.57202 18.3281 2.71716 18.3942C2.79565 18.4299 2.87598 18.4565 2.95825 18.4742C3.03821 18.4913 3.12024 18.4999 3.20386 18.4999L9.84619 18.4999C9.62158 17.8138 9.50012 17.0811 9.50012 16.3198C9.50012 13.5582 11.0994 11.17 13.4222 10.031C13.611 9.89844 13.7891 9.75183 13.9563 9.59131C14.2372 9.32178 14.4779 9.02234 14.6787 8.69287C14.8022 8.48999 14.9082 8.28003 14.9963 8.06274C15.0542 7.91992 15.1045 7.77417 15.1471 7.62512C15.1941 7.46069 15.2311 7.29468 15.2582 7.12708C15.295 6.89929 15.3134 6.66858 15.3134 6.43481C15.3134 6.12305 15.2811 5.81787 15.2169 5.52002C15.1565 5.24048 15.0679 4.96716 14.951 4.69983C14.8558 4.48242 14.7448 4.27515 14.6178 4.07825C14.4344 3.79407 14.218 3.53137 13.9684 3.28992C13.5475 2.88306 13.0646 2.56812 12.5195 2.34521C11.9564 2.11499 11.3673 1.99988 10.7521 1.99988C10.3978 1.99988 10.0521 2.03809 9.71521 2.11438C9.46704 2.17065 9.22351 2.24756 8.98462 2.34521C8.68958 2.46594 8.4126 2.61365 8.15393 2.78821C7.93481 2.93616 7.72876 3.10339 7.53577 3.28992C7.28613 3.53137 7.06958 3.79419 6.88635 4.07825C6.75928 4.27515 6.64819 4.48242 6.5531 4.69983C6.43616 4.96729 6.34753 5.24072 6.28723 5.52026C6.2229 5.81824 6.1908 6.12305 6.1908 6.43481C6.1908 6.66968 6.20935 6.90186 6.24658 7.13062C6.27405 7.30029 6.31189 7.46826 6.35986 7.63464C6.46899 8.01306 6.62756 8.37134 6.83557 8.70935C6.91052 8.83118 6.99097 8.94885 7.0769 9.06238C7.22461 9.25757 7.38855 9.44055 7.56873 9.61121C7.69067 9.72668 7.81812 9.83484 7.95117 9.93567C8.0061 9.97729 8.06201 10.0176 8.11877 10.0568ZM11.0001 16.3199C11.0001 13.2823 13.4625 10.8199 16.5001 10.8199C19.5376 10.8199 22.0001 13.2823 22.0001 16.3199C22.0001 19.3575 19.5376 21.8199 16.5001 21.8199C13.4625 21.8199 11.0001 19.3575 11.0001 16.3199ZM16.75 14.3199L16.75 16.2538L18.4894 17.7516C18.8076 18.0256 18.8424 18.491 18.5684 18.8092C18.2943 19.1276 17.8289 19.1622 17.5106 18.8882L15.5106 17.1661C15.428 17.0948 15.3638 17.0096 15.3184 16.9104C15.2955 16.8607 15.2784 16.8099 15.2671 16.7579C15.2557 16.7058 15.25 16.6523 15.25 16.5978L15.25 14.3199C15.25 13.8999 15.5801 13.5699 16 13.5699C16.42 13.5699 16.75 13.8999 16.75 14.3199ZM10.8846 20.4999C11.3129 21.0741 11.827 21.5806 12.4081 21.9999L3.75208 21.9999C3.33203 21.9999 3.00208 21.6699 3.00208 21.2499C3.00208 20.8298 3.33203 20.4999 3.75208 20.4999L10.8846 20.4999Z" fill-opacity="1.000000" fill-rule="evenodd"/>
	</g>
</svg>
