<svg viewBox="0 0 24 24" xmlns="http://www.w3.org/2000/svg"
	xmlns:xlink="http://www.w3.org/1999/xlink">
	<defs />
	<g opacity="0.000000" />
	<path id="矢量 219"
		d="M5.45456 2.25L18.5454 2.25C20.3153 2.25 21.75 3.68475 21.75 5.45453L21.75 18.5455C21.75 20.3153 20.3153 21.75 18.5454 21.75L5.45456 21.75C3.68472 21.75 2.25 20.3153 2.25 18.5455L2.25 5.45453C2.25 3.68475 3.68472 2.25 5.45456 2.25ZM7.82404 20.25L18.5455 20.25C19.4502 20.25 20.1903 19.5452 20.2466 18.6546L20.25 18.5455L20.2491 16.751L16.4553 12.9996C16.0884 12.6592 15.4908 12.6683 15.1362 13.019L7.82404 20.25ZM20.25 14.6429L17.4756 11.9001C16.5202 11.0134 15.0076 11.0365 14.0814 11.9525L5.6918 20.25L5.45456 20.25C4.51315 20.25 3.75 19.4869 3.75 18.5455L3.75 5.45453C3.75 4.51312 4.51315 3.75 5.45456 3.75L18.5455 3.75C19.4868 3.75 20.25 4.51312 20.25 5.45453L20.25 14.6429ZM7.5 6.25C6.80963 6.25 6.25 6.80963 6.25 7.5C6.25 8.19037 6.80963 8.75 7.5 8.75C8.19037 8.75 8.75 8.19037 8.75 7.5C8.75 6.80963 8.19037 6.25 7.5 6.25Z"
		fill-rule="evenodd" />
</svg>