<svg viewBox="0 0 24 24" xmlns="http://www.w3.org/2000/svg"
	xmlns:xlink="http://www.w3.org/1999/xlink">
	<defs />
	<path id="矢量 32"
		d="M19 2L5 2C3.34314 2 2 3.34314 2 5L2 19C2 20.6569 3.34314 22 5 22L19 22C20.6569 22 22 20.6569 22 19L22 5C22 3.34314 20.6569 2 19 2ZM6 15.9286L6 8.07144C6 7.20357 6.67157 6.50002 7.5 6.50002L16.5 6.50002C17.3284 6.50002 18 7.20357 18 8.07144L18 15.9286C18 16.7965 17.3284 17.5 16.5 17.5L7.5 17.5C6.67157 17.5 6 16.7965 6 15.9286ZM8.5 8.00002C9.05225 8.00002 9.5 8.44774 9.5 9.00002C9.5 9.55231 9.05225 10 8.5 10C7.94775 10 7.5 9.55231 7.5 9.00002C7.5 8.44774 7.94775 8.00002 8.5 8.00002ZM16.5 11.616C16.5 11.4402 16.4048 11.2727 16.2383 11.1558C15.9161 10.9296 15.4229 10.9524 15.1364 11.2066L12.0659 13.9313C11.9269 14.0546 11.6895 14.0695 11.5275 13.9651L10.5526 13.3367C10.2012 13.1397 9.67224 13.1797 9.42261 13.4571L7.57208 15.5136C7.52515 15.5658 7.5 15.6281 7.5 15.692C7.5 15.8621 7.67468 16 7.89026 16L16.1097 16C16.3253 16 16.5 15.8621 16.5 15.692L16.5 11.616Z"
		fill-rule="evenodd" />
</svg>