<?xml version="1.0" encoding="UTF-8"?>
<svg viewBox="0 0 24 24" version="1.1" xmlns="http://www.w3.org/2000/svg" xmlns:xlink="http://www.w3.org/1999/xlink">
    <g id="页面-1" stroke="none" stroke-width="1" fill-rule="evenodd">
        <g id="文件类型方案" transform="translate(-736.000000, -112.000000)">
            <g id="IconPictureType" transform="translate(736.000000, 112.000000)">
                <g id="Group-6-Copy-5">
                    <rect id="Rectangle-Copy" x="0" y="0" width="24" height="24" rx="4"></rect>
                </g>
                <path d="M6,8.78571429 L6,15.2142857 C6,15.9243661 6.67157288,16.5 7.5,16.5 L16.5,16.5 C17.3284271,16.5 18,15.9243661 18,15.2142857 L18,8.78571429 C18,8.07563389 17.3284271,7.5 16.5,7.5 L7.5,7.5 C6.67157288,7.5 6,8.07563389 6,8.78571429 Z M16.7382462,10.6557481 C16.9047468,10.772646 17,10.9401453 17,11.1160327 L17,15.1919869 C17,15.3620978 16.8252871,15.5 16.6097679,15.5 L8.39023212,15.5 C8.17471287,15.5 8,15.3620978 8,15.1919869 C8,15.1280719 8.02519063,15.0657398 8.07208021,15.0136305 L9.92261683,12.957096 C10.1722116,12.6797169 10.659431,12.6145624 11.0108519,12.8115694 L11.0526157,12.8366924 L12.0274469,13.4651214 C12.1894178,13.5695367 12.4268792,13.554609 12.5658694,13.4312742 L15.6363858,10.7066107 C15.9228617,10.4524026 16.4161814,10.4296306 16.7382462,10.6557481 Z M9,8.5 C9.55228475,8.5 10,8.94771525 10,9.5 C10,10.0522847 9.55228475,10.5 9,10.5 C8.44771525,10.5 8,10.0522847 8,9.5 C8,8.94771525 8.44771525,8.5 9,8.5 Z" id="形状-copy-2" fill="#FFFFFF" fill-rule="nonzero"></path>
            </g>
        </g>
    </g>
</svg>