<?xml version="1.0" encoding="UTF-8"?>
<svg viewBox="0 0 24 24" version="1.1" xmlns="http://www.w3.org/2000/svg" xmlns:xlink="http://www.w3.org/1999/xlink">
    <g id="页面-1" stroke="none" stroke-width="1">
        <g id="画板" transform="translate(-789.000000, -2752.000000)">
            <g id="编组" transform="translate(789.000000, 2752.000000)">
                <path d="M10.7917353,3.91628252 C11.2059488,3.91628252 11.5417353,4.25206895 11.5417353,4.66628252 L11.5417353,4.66628252 L11.5417353,11.3132825 C11.5417353,11.946069 12.0539488,12.4582825 12.6867353,12.4582825 L12.6867353,12.4582825 L19.3337353,12.4582825 C19.7479488,12.4582825 20.0837353,12.794069 20.0837353,13.2082825 C20.0837353,19.0414162 14.7853755,23.456716 8.93573091,22.3195228 C5.3045346,21.6142139 2.38580389,18.6954832 1.6804929,15.0642762 C0.544301949,9.21428362 4.95895066,3.91628252 10.7917353,3.91628252 Z M10.0410353,5.45038252 L9.81399494,5.47629346 C5.41793666,6.0207339 2.2621209,10.1914673 3.15297554,14.7782782 C3.74166662,17.8090819 6.19093591,20.2583512 9.22185867,20.8470654 C13.808312,21.7386893 17.979251,18.5824776 18.5237209,14.1860925 L18.5237209,14.1860925 L18.5480353,13.9573825 L12.6867353,13.9582825 C11.2817222,13.9582825 10.1332061,12.8638054 10.0469372,11.4806013 L10.0469372,11.4806013 L10.0417353,11.3132825 L10.0410353,5.45038252 Z M13.4906353,1.50108252 C13.6134716,1.50108252 13.7357333,1.50354015 13.8573738,1.50840893 C14.0592823,1.51612647 14.2601345,1.53084159 14.4592708,1.55209112 C14.4940044,1.55624479 14.5286643,1.5601524 14.5632641,1.56425606 C14.7955213,1.59130678 15.0257719,1.62778961 15.2532133,1.67288231 C15.2796485,1.67862125 15.3059948,1.68396927 15.332299,1.68943196 C15.3938224,1.7017057 15.455198,1.71512461 15.5163552,1.72916941 C15.5360317,1.73419958 15.5556581,1.7387781 15.5752596,1.74342064 C15.6375106,1.75764508 15.6995344,1.77303403 15.7613199,1.78906561 C15.7855865,1.79589722 15.8102317,1.80240648 15.8348352,1.8090173 C15.9013176,1.82633139 15.9670651,1.84480135 16.0325244,1.86399835 C16.0412874,1.86714866 16.05029,1.86980588 16.0592867,1.87247677 C16.1331739,1.89381304 16.2064412,1.91657983 16.2793265,1.9402555 C16.2857441,1.94298602 16.292402,1.94515927 16.2990564,1.94734006 C19.0277194,2.84011556 21.2179054,5.0080608 22.0938208,7.82542089 L22.1023431,7.85743655 C22.3599706,8.69542573 22.4986353,9.5855395 22.4986353,10.5080825 C22.4986353,10.9222961 22.1628488,11.2580825 21.7486353,11.2580825 L21.7486353,11.2580825 L13.4906353,11.2580825 C13.0764217,11.2580825 12.7406353,10.9222961 12.7406353,10.5080825 L12.7406353,10.5080825 L12.7406353,2.25108252 C12.7406353,1.83686895 13.0764217,1.50108252 13.4906353,1.50108252 Z M14.2473647,3.03908252 L14.2480353,9.75038252 L20.9593647,9.75108252 L20.9378523,9.54816926 C20.5864429,6.79433072 18.7432616,4.50706869 16.2439046,3.5217566 C16.21689,3.51002972 16.1891164,3.4992881 16.1612679,3.48870835 L16.2439046,3.5217566 C16.1553822,3.48685879 16.0660368,3.45359419 15.9759054,3.42199991 L16.1612679,3.48870835 C16.0903442,3.46176422 16.0189344,3.43587005 15.9470595,3.41104264 L15.9759054,3.42199991 C15.8181902,3.36671516 15.6580684,3.31654482 15.4957388,3.27168776 C15.4768662,3.26574138 15.4575576,3.26049343 15.4382205,3.25532114 L15.4957388,3.27168776 C15.4141705,3.24914774 15.3320448,3.22794928 15.2493869,3.20811761 L15.4382205,3.25532114 C15.35385,3.23275378 15.2689368,3.21162685 15.1835118,3.19196535 L15.2493869,3.20811761 C15.1727582,3.18973249 15.0956721,3.17252203 15.0181486,3.15650635 L15.1835118,3.19196535 C15.0914593,3.17077843 14.9988125,3.15129314 14.9056103,3.13354078 L15.0181486,3.15650635 C14.9291038,3.13811043 14.839482,3.12129081 14.7493137,3.10607794 L14.9056103,3.13354078 C14.7394836,3.10189835 14.5715923,3.07576152 14.4021562,3.05530741 L14.2473647,3.03908252 Z" id="形状结合"></path>
            </g>
        </g>
    </g>
</svg>