<svg viewBox="0 0 24 24" xmlns="http://www.w3.org/2000/svg"
	xmlns:xlink="http://www.w3.org/1999/xlink">
	<defs />
	<path id="矢量 11"
		d="M13.5 1.25C18.6086 1.25 22.75 5.39136 22.75 10.5C22.75 10.9142 22.4142 11.25 22 11.25L13.5 11.25C13.0858 11.25 12.75 10.9142 12.75 10.5L12.75 2C12.75 1.58582 13.0858 1.25 13.5 1.25ZM14.25 9.75L14.25 2.78601L14.4721 2.81036C17.975 3.24878 20.7513 6.02496 21.1896 9.52783L21.214 9.75L14.25 9.75ZM10.5 4.25C10.9142 4.25 11.25 4.58582 11.25 5L11.25 12.75L19 12.75C19.3797 12.75 19.6935 13.0322 19.7431 13.3983L19.75 13.5C19.75 18.6086 15.6086 22.75 10.5 22.75C5.39137 22.75 1.25 18.6086 1.25 13.5C1.25 8.39136 5.39137 4.25 10.5 4.25ZM9.52786 5.81036L9.75 5.78601L9.75 13.5L9.75685 13.6017C9.8065 13.9678 10.1203 14.25 10.5 14.25L18.213 14.25L18.1896 14.4722C17.7114 18.2935 14.451 21.25 10.5 21.25C6.21979 21.25 2.75 17.7802 2.75 13.5C2.75 9.54901 5.70651 6.28864 9.52786 5.81036Z"
		fill-rule="evenodd" />
</svg>