<?xml version="1.0" encoding="UTF-8"?>
<svg viewBox="0 0 24 24" version="1.1" xmlns="http://www.w3.org/2000/svg" xmlns:xlink="http://www.w3.org/1999/xlink">
    <g id="页面-1" stroke="none" stroke-width="1">
        <g id="画板" transform="translate(-635.000000, -2824.000000)">
            <g id="编组" transform="translate(635.000000, 2824.000000)">
                <path d="M12,3.25 C12.3796958,3.25 12.693491,3.53215388 12.7431534,3.89822944 L12.75,4 L12.75,11.25 L20,11.25 C20.4142136,11.25 20.75,11.5857864 20.75,12 C20.75,12.3796958 20.4678461,12.693491 20.1017706,12.7431534 L20,12.75 L12.75,12.75 L12.75,20 C12.75,20.4142136 12.4142136,20.75 12,20.75 C11.6203042,20.75 11.306509,20.4678461 11.2568466,20.1017706 L11.25,20 L11.25,12.75 L4,12.75 C3.58578644,12.75 3.25,12.4142136 3.25,12 C3.25,11.6203042 3.53215388,11.306509 3.89822944,11.2568466 L4,11.25 L11.25,11.25 L11.25,4 C11.25,3.58578644 11.5857864,3.25 12,3.25 Z" id="形状结合"></path>
            </g>
        </g>
    </g>
</svg>