<?xml version="1.0" encoding="UTF-8"?>
<svg viewBox="0 0 24 24" version="1.1" xmlns="http://www.w3.org/2000/svg" xmlns:xlink="http://www.w3.org/1999/xlink">
    <g id="页面-1" stroke="none" stroke-width="1">
        <g id="画板" transform="translate(-319.000000, -2824.000000)">
            <g id="编组" transform="translate(319.000000, 2824.000000)">
                <path d="M18,3 C19.6568542,3 21,4.34314575 21,6 C21,6.41421356 20.6642136,6.75 20.25,6.75 C19.8357864,6.75 19.5,6.41421356 19.5,6 C19.5,5.23074624 18.9209397,4.59673926 18.1749317,4.5100916 L18,4.5 L6,4.5 C5.23074624,4.5 4.59673926,5.07906029 4.5100916,5.82506831 L4.5,6 L4.5,18 C4.5,18.7692538 5.07906029,19.4032607 5.82506831,19.4899084 L6,19.5 L18,19.5 C18.7692538,19.5 19.4032607,18.9209397 19.4899084,18.1749317 L19.5,18 L19.5,8.5 C19.5,8.08578644 19.8357864,7.75 20.25,7.75 C20.6181898,7.75 20.9244126,8.01531274 20.9879165,8.36518655 L21,8.5 L21,18 C21,19.5815427 19.7761833,20.8772477 18.2238935,20.9917714 L18,21 L6,21 C4.41845731,21 3.12275232,19.7761833 3.0082286,18.2238935 L3,18 L3,6 C3,4.41845731 4.22381669,3.12275232 5.77610648,3.0082286 L6,3 L18,3 Z M12,6.75 C12.3796958,6.75 12.693491,7.00761876 12.7431534,7.34186167 L12.75,7.43478261 L12.75,11.25 L16.5652174,11.25 C16.9434124,11.25 17.25,11.5857864 17.25,12 C17.25,12.3796958 16.9923812,12.693491 16.6581383,12.7431534 L16.5652174,12.75 L12.75,12.75 L12.75,16.5652174 C12.75,16.9434124 12.4142136,17.25 12,17.25 C11.6203042,17.25 11.306509,16.9923812 11.2568466,16.6581383 L11.25,16.5652174 L11.25,12.75 L7.43478261,12.75 C7.05658762,12.75 6.75,12.4142136 6.75,12 C6.75,11.6203042 7.00761876,11.306509 7.34186167,11.2568466 L7.43478261,11.25 L11.25,11.25 L11.25,7.43478261 C11.25,7.05658762 11.5857864,6.75 12,6.75 Z" id="形状结合"></path>
            </g>
        </g>
    </g>
</svg>