<svg viewBox="0 0 24 24" xmlns="http://www.w3.org/2000/svg"
	xmlns:xlink="http://www.w3.org/1999/xlink">
	<defs />
	<g opacity="0.000000" />
	<path id="矢量 221"
		d="M12 1.25C14.3112 1.25 16.5139 1.98199 18.3405 3.31812C18.6749 3.56268 18.7476 4.03192 18.5031 4.36627C18.2585 4.70056 17.7893 4.77338 17.455 4.52881C15.8832 3.37915 13.9901 2.75 12 2.75C6.89136 2.75 2.75 6.89136 2.75 12C2.75 17.1086 6.89136 21.25 12 21.25C17.1086 21.25 21.25 17.1086 21.25 12C21.25 10.0093 20.6205 8.1156 19.4701 6.54358C19.2255 6.20935 19.2982 5.74005 19.6325 5.49542C19.9667 5.25079 20.436 5.32349 20.6806 5.65778C22.0175 7.48468 22.75 9.68805 22.75 12C22.75 17.9371 17.9371 22.75 12 22.75C6.06293 22.75 1.25 17.9371 1.25 12C1.25 6.06293 6.06293 1.25 12 1.25ZM12.7432 6.89825C12.6935 6.53217 12.3797 6.25 12 6.25C11.5858 6.25 11.25 6.58582 11.25 7L11.25 11.25L7 11.25L6.89822 11.2568C6.53217 11.3065 6.25 11.6203 6.25 12C6.25 12.4142 6.58578 12.75 7 12.75L11.25 12.75L11.25 17L11.2568 17.1017C11.3065 17.4678 11.6203 17.75 12 17.75C12.4142 17.75 12.75 17.4142 12.75 17L12.75 12.75L17 12.75L17.1018 12.7432C17.4678 12.6935 17.75 12.3797 17.75 12C17.75 11.5858 17.4142 11.25 17 11.25L12.75 11.25L12.75 7L12.7432 6.89825Z"
		fill-rule="evenodd" />
</svg>