<svg viewBox="0 0 24 24" xmlns="http://www.w3.org/2000/svg"
	xmlns:xlink="http://www.w3.org/1999/xlink">
	<defs />
	<g opacity="0.000000" />
	<path id="矢量 237"
		d="M12.7431 3.89825C12.6935 3.53217 12.3797 3.25 12 3.25C11.5858 3.25 11.25 3.58582 11.25 4L11.25 11.25L4 11.25L3.89822 11.2568C3.53215 11.3065 3.25 11.6203 3.25 12C3.25 12.4142 3.58578 12.75 4 12.75L11.25 12.75L11.25 20L11.2569 20.1017C11.3065 20.4678 11.6203 20.75 12 20.75C12.4142 20.75 12.75 20.4142 12.75 20L12.75 12.75L20 12.75L20.1018 12.7432C20.4678 12.6935 20.75 12.3797 20.75 12C20.75 11.5858 20.4142 11.25 20 11.25L12.75 11.25L12.75 4L12.7431 3.89825Z"
		fill-rule="evenodd" />
</svg>