<svg viewBox="0 0 24 24" xmlns="http://www.w3.org/2000/svg"
	xmlns:xlink="http://www.w3.org/1999/xlink">
	<defs />
	<g opacity="0.000000" />
	<path id="矢量 222"
		d="M18.1579 2.25C20.0778 2.25 21.6458 3.75616 21.745 5.65131L21.75 5.8421L21.75 7.29755C21.75 7.71173 21.4142 8.04755 21 8.04755C20.6203 8.04755 20.3065 7.76538 20.2568 7.39929L20.25 7.29755L20.25 5.8421C20.25 4.73688 19.393 3.83185 18.3073 3.75525L18.1579 3.75L5.8421 3.75C4.73691 3.75 3.83185 4.60699 3.75525 5.69269L3.75 5.8421L3.75 18.1579C3.75 19.2631 4.60699 20.1682 5.69269 20.2448L5.8421 20.25L18.1579 20.25C19.2631 20.25 20.1682 19.393 20.2448 18.3073L20.25 18.1579L20.25 10.1545C20.25 9.7403 20.5858 9.40448 21 9.40448C21.3797 9.40448 21.6935 9.68665 21.7432 10.0527L21.75 10.1545L21.75 18.1579C21.75 20.0778 20.2438 21.6459 18.3487 21.745L18.1579 21.75L5.8421 21.75C3.92224 21.75 2.35416 20.2438 2.25497 18.3487L2.25 18.1579L2.25 5.8421C2.25 3.92224 3.75616 2.35413 5.65134 2.255L5.8421 2.25L18.1579 2.25ZM12 17.75C12.4142 17.75 12.75 17.4142 12.75 17L12.75 12.75L17 12.75L17.1018 12.7432C17.4678 12.6935 17.75 12.3797 17.75 12C17.75 11.5858 17.4142 11.25 17 11.25L12.75 11.25L12.75 7L12.7432 6.89825C12.6935 6.53217 12.3797 6.25 12 6.25C11.5858 6.25 11.25 6.58582 11.25 7L11.25 11.25L7 11.25L6.89822 11.2568C6.53217 11.3065 6.25 11.6203 6.25 12C6.25 12.4142 6.58578 12.75 7 12.75L11.25 12.75L11.25 17L11.2568 17.1017C11.3065 17.4678 11.6203 17.75 12 17.75Z"
		fill-rule="evenodd" />
</svg>