<?xml version="1.0" encoding="UTF-8"?>
<svg viewBox="0 0 24 24" version="1.1" xmlns="http://www.w3.org/2000/svg" xmlns:xlink="http://www.w3.org/1999/xlink">
    <g id="页面-1" stroke="none" stroke-width="1">
        <g id="画板" transform="translate(-1076.000000, -2747.000000)">
            <g id="编组" transform="translate(1076.000000, 2747.000000)">
                <path d="M12,2 C14.2170341,2 16.3258236,2.72418837 18.0532894,4.03924114 C18.3828702,4.29013825 18.446656,4.76070858 18.1957589,5.0902894 C17.9448618,5.41987022 17.4742914,5.48365597 17.1447106,5.23275886 C15.6761624,4.11481002 13.8858755,3.5 12,3.5 C7.30585564,3.5 3.5,7.30557146 3.5,12 C3.5,16.6937864 7.30621356,20.5 12,20.5 C16.6944285,20.5 20.5,16.6941444 20.5,12 C20.5,10.1146074 19.8858507,8.32533664 18.7681003,6.85610438 C18.5173054,6.52644579 18.581237,6.05589525 18.9108956,5.80510033 C19.2405542,5.55430541 19.7111047,5.61823704 19.9618997,5.94789562 C21.2765776,7.67598035 22,9.78360864 22,12 C22,17.5225464 17.5228807,22 12,22 C6.47778644,22 2,17.5222136 2,12 C2,6.47711926 6.47745359,2 12,2 Z M12,6.25 C12.3796958,6.25 12.693491,6.53215388 12.7431534,6.89822944 L12.75,7 L12.75,11.25 L17,11.25 C17.4142136,11.25 17.75,11.5857864 17.75,12 C17.75,12.3796958 17.4678461,12.693491 17.1017706,12.7431534 L17,12.75 L12.75,12.75 L12.75,17 C12.75,17.4142136 12.4142136,17.75 12,17.75 C11.6203042,17.75 11.306509,17.4678461 11.2568466,17.1017706 L11.25,17 L11.25,12.75 L7,12.75 C6.58578644,12.75 6.25,12.4142136 6.25,12 C6.25,11.6203042 6.53215388,11.306509 6.89822944,11.2568466 L7,11.25 L11.25,11.25 L11.25,7 C11.25,6.58578644 11.5857864,6.25 12,6.25 Z" id="形状结合"></path>
            </g>
        </g>
    </g>
</svg>