<?xml version="1.0" encoding="UTF-8"?>
<svg viewBox="0 0 25 24" version="1.1" xmlns="http://www.w3.org/2000/svg" xmlns:xlink="http://www.w3.org/1999/xlink">
    <g id="页面-1" stroke="none" stroke-width="1">
        <g id="画板" transform="translate(-788.000000, -2824.000000)">
            <g id="Popup" transform="translate(788.000000, 2824.000000)">
                <g id="编组" transform="translate(0.991052, 0.000000)">
                    <path d="M12.0089479,17.9923618 C12.8379479,17.9923618 13.5089479,18.6625092 13.5089479,19.4904559 C13.5089479,20.3184026 12.8379479,20.98855 12.0089479,20.98855 C11.1799479,20.98855 10.5089479,20.3184026 10.5089479,19.4904559 C10.5089479,18.6625092 11.1799479,17.9923618 12.0089479,17.9923618 Z M12.0089479,10.501392 C12.8379479,10.501392 13.5089479,11.1715394 13.5089479,11.9994861 C13.5089479,12.826434 12.8379479,13.4975802 12.0089479,13.4975802 C11.1799479,13.4975802 10.5089479,12.826434 10.5089479,11.9994861 C10.5089479,11.1715394 11.1799479,10.501392 12.0089479,10.501392 Z M12.0089479,2.98855 C12.8379479,2.98855 13.5089479,3.65969615 13.5089479,4.48664409 C13.5089479,5.31459076 12.8379479,5.98473818 12.0089479,5.98473818 C11.1799479,5.98473818 10.5089479,5.31459076 10.5089479,4.48664409 C10.5089479,3.65969615 11.1799479,2.98855 12.0089479,2.98855 Z" id="形状结合" transform="translate(12.008948, 11.988550) rotate(90.000000) translate(-12.008948, -11.988550) "></path>
                </g>
            </g>
        </g>
    </g>
</svg>