<svg viewBox="0 0 24 24" xmlns="http://www.w3.org/2000/svg"
	xmlns:xlink="http://www.w3.org/1999/xlink">
	<defs />
	<path id="矢量 23"
		d="M19 2L5 2C3.34314 2 2 3.34314 2 5L2 19C2 20.6569 3.34314 22 5 22L19 22C20.6569 22 22 20.6569 22 19L22 5C22 3.34314 20.6569 2 19 2ZM16.25 9.88422C16.25 7.89902 14.8207 6.25 13 6.25L9.5 6.25L9.39819 6.25685C9.03217 6.3065 8.75 6.6203 8.75 7L8.75 17L8.75684 17.1018C8.80652 17.4678 9.1203 17.75 9.5 17.75L9.60181 17.7431C9.96783 17.6935 10.25 17.3797 10.25 17L10.25 13.518L13 13.5184L13.1807 13.513C14.9143 13.4081 16.25 11.8032 16.25 9.88422ZM10.25 12.018L13 12.0184C13.9408 12.0184 14.75 11.0848 14.75 9.88422C14.75 8.73816 14.0127 7.83542 13.1274 7.75572L13 7.75L10.25 7.75L10.25 12.018Z"
		fill-rule="evenodd" />
</svg>