<?xml version="1.0" encoding="UTF-8"?>
<svg viewBox="0 0 24 24" version="1.1" xmlns="http://www.w3.org/2000/svg"
    xmlns:xlink="http://www.w3.org/1999/xlink">
    <g id="页面-1" stroke="none" stroke-width="1" fill-rule="evenodd">
        <g id="文件类型方案" transform="translate(-664.000000, -68.000000)">
            <g id="IconPptType" transform="translate(664.000000, 68.000000)">
                <g id="Rectangle-Copy-5">
                    <rect x="0" y="0" width="24" height="24" rx="4"></rect>
                </g>
                <path
                    d="M11.3808777,17.2 L11.3808777,12.8839779 C11.9175549,12.9871087 12.3940439,13.038674 12.8103448,13.038674 C13.5727273,13.038674 14.2473354,12.8904236 14.8341693,12.5939227 C15.4210031,12.2974217 15.8786834,11.8720074 16.20721,11.3176796 C16.5357367,10.7633517 16.7,10.1149171 16.7,9.37237569 C16.7,8.27918969 16.3338558,7.44383057 15.6015674,6.86629834 C14.869279,6.28876611 13.8134796,6 12.4341693,6 L12.4341693,6 L9.5,6 L9.5,17.2 L11.3808777,17.2 Z M12.4642633,11.561326 C12.2134796,11.561326 11.8523511,11.5226519 11.3808777,11.4453039 L11.3808777,11.4453039 L11.3808777,7.46961326 L12.4040752,7.46961326 C13.1965517,7.46961326 13.7971787,7.62173112 14.2059561,7.92596685 C14.6147335,8.23020258 14.8191223,8.72780847 14.8191223,9.41878453 C14.8191223,10.0994475 14.6184953,10.6267035 14.2172414,11.0005525 C13.8159875,11.3744015 13.2316614,11.561326 12.4642633,11.561326 Z"
                    id="P备份" fill="#FFFFFF" fill-rule="nonzero"></path>
            </g>
        </g>
    </g>
</svg>