<?xml version="1.0" encoding="UTF-8"?>
<svg viewBox="0 0 30 30" version="1.1" xmlns="http://www.w3.org/2000/svg" xmlns:xlink="http://www.w3.org/1999/xlink">
    <g id="多端组件" stroke="none" stroke-width="1">
        <g id="文件上传" transform="translate(-195.000000, -1942.000000)">
            <g id="PPT" transform="translate(195.000000, 1942.000000)">
                <rect id="矩形" x="0" y="0" width="30" height="30" rx="2"></rect>
                <path d="M13.8510972,22 L13.8510972,16.6049724 C14.5219436,16.7338858 15.1175549,16.7983425 15.637931,16.7983425 C16.5909091,16.7983425 17.4341693,16.6130295 18.1677116,16.2424033 C18.9012539,15.8717772 19.4733542,15.3400092 19.8840125,14.6470994 C20.2946708,13.9541897 20.5,13.1436464 20.5,12.2154696 C20.5,10.8489871 20.0423197,9.80478821 19.1269592,9.08287293 C18.2115987,8.36095764 16.8918495,8 15.1677116,8 L15.1677116,8 L11.5,8 L11.5,22 L13.8510972,22 Z M15.2053292,14.9516575 C14.8918495,14.9516575 14.4404389,14.9033149 13.8510972,14.8066298 L13.8510972,14.8066298 L13.8510972,9.83701657 L15.130094,9.83701657 C16.1206897,9.83701657 16.8714734,10.0271639 17.3824451,10.4074586 C17.8934169,10.7877532 18.1489028,11.4097606 18.1489028,12.2734807 C18.1489028,13.1243094 17.8981191,13.7833794 17.3965517,14.2506906 C16.8949843,14.7180018 16.1645768,14.9516575 15.2053292,14.9516575 Z" id="P" fill="#FFFFFF" fill-rule="nonzero"></path>
            </g>
        </g>
    </g>
</svg>