<?xml version="1.0" encoding="UTF-8"?>
<svg viewBox="0 0 24 24" version="1.1" xmlns="http://www.w3.org/2000/svg" xmlns:xlink="http://www.w3.org/1999/xlink">
    <g id="页面-1" stroke="none" stroke-width="1">
        <g id="画板" transform="translate(-1076.000000, -2816.000000)">
            <g id="编组" transform="translate(1076.000000, 2816.000000)">
                <path d="M19.125,5.5 C20.1605339,5.5 21,6.33946609 21,7.375 C21,7.78921356 20.6642136,8.125 20.25,8.125 C19.8357864,8.125 19.5,7.78921356 19.5,7.375 C19.5,7.19378157 19.3714568,7.04258602 19.2005756,7.00761867 L19.125,7 L4.875,7 C4.69378157,7 4.54258602,7.12854325 4.50761867,7.29942442 L4.5,7.375 L4.5,19.125 C4.5,19.3062184 4.62854325,19.457414 4.79942442,19.4923813 L4.875,19.5 L19.125,19.5 C19.3062184,19.5 19.457414,19.3714568 19.4923813,19.2005756 L19.5,19.125 L19.5,9.85 C19.5,9.43578644 19.8357864,9.1 20.25,9.1 C20.6296958,9.1 20.943491,9.38215388 20.9931534,9.74822944 L21,9.85 L21,19.125 C21,20.1112228 20.2385795,20.9196062 19.2715301,20.9943588 L19.125,21 L4.875,21 C3.88877723,21 3.08039375,20.2385795 3.00564118,19.2715301 L3,19.125 L3,7.375 C3,6.38877723 3.76142049,5.58039375 4.72846985,5.50564118 L4.875,5.5 L19.125,5.5 Z M11.995,16.37 C12.478,16.37 12.87,16.7608333 12.87,17.245 C12.87,17.728 12.478,18.12 11.995,18.12 C11.5108333,18.12 11.12,17.728 11.12,17.245 C11.12,16.7608333 11.5108333,16.37 11.995,16.37 Z M12.5051383,8.41433588 C13.6554617,8.6170119 14.5867835,9.54793976 14.7897529,10.6985595 C15.0049395,11.9270794 14.4187269,13.1122735 13.3637613,13.6934932 C13.0173587,13.8835496 12.7994654,14.1797281 12.7553212,14.5027305 L12.747,14.6249589 L12.747,15.1199589 C12.747,15.5341725 12.4112136,15.8699589 11.997,15.8699589 C11.6173042,15.8699589 11.303509,15.587805 11.2538466,15.2217295 L11.247,15.1199589 L11.247,14.6249589 C11.247,13.74402 11.7222788,12.956597 12.4755008,12.4770313 L12.6410878,12.3790574 C13.1398997,12.1042429 13.415526,11.5469865 13.3124035,10.9582477 C13.2191541,10.4296248 12.7741848,9.98484368 12.2456196,9.89171513 C11.4495413,9.7522958 10.7387173,10.312368 10.6660989,11.0776046 L10.66,11.2069589 C10.66,11.6211725 10.3242136,11.9569589 9.91,11.9569589 C9.49578644,11.9569589 9.16,11.6211725 9.16,11.2069589 C9.16,9.44824541 10.7427573,8.10568497 12.5051383,8.41433588 Z M17.6482838,3 L17.755317,3.01159045 L20.6072907,3.63659045 C21.1917917,3.7646818 21.0986293,4.625 20.5002575,4.625 L20.5002575,4.625 L3.50025745,4.625 C2.90188562,4.625 2.80872318,3.7646818 3.39322422,3.63659045 L3.39322422,3.63659045 L6.2451979,3.01159045 L6.35223114,3 L17.6482838,3 Z" id="形状结合"></path>
            </g>
        </g>
    </g>
</svg>