<svg viewBox="0 0 24 24" xmlns="http://www.w3.org/2000/svg"
	xmlns:xlink="http://www.w3.org/1999/xlink">
	<defs />
	<g opacity="0.000000" />
	<path id="形状"
		d="M20.75 2.5C20.75 2.08582 20.4142 1.75 20 1.75L4 1.75L3.89822 1.75684C3.53215 1.80652 3.25 2.1203 3.25 2.5C3.25 2.91418 3.58578 3.25 4 3.25L20 3.25L20.1018 3.24316C20.4678 3.19348 20.75 2.8797 20.75 2.5ZM18.1579 5.25C20.0824 5.25 21.6461 6.7865 21.745 8.71582L21.75 8.90997L21.75 9.89618C21.75 10.3104 21.4142 10.6462 21 10.6462C20.6203 10.6462 20.3065 10.364 20.2569 9.99792L20.25 9.89618L20.25 8.90997C20.25 7.76355 19.3903 6.83405 18.3069 6.75537L18.1579 6.75L5.8421 6.75C4.73975 6.75 3.83211 7.6297 3.75526 8.75507L3.75 8.90997L3.75 18.585C3.75 19.7327 4.61093 20.6656 5.69321 20.7446L5.8421 20.75L18.1579 20.75C19.259 20.75 20.1678 19.867 20.2447 18.7401L20.25 18.585L20.25 13.6584C20.25 13.2443 20.5858 12.9084 21 12.9084C21.3797 12.9084 21.6935 13.1906 21.7431 13.5567L21.75 13.6584L21.75 18.585C21.75 20.5398 20.2479 22.1435 18.3491 22.2449L18.1579 22.25L5.8421 22.25C3.91806 22.25 2.35388 20.7094 2.25496 18.7793L2.25 18.585L2.25 8.90997C2.25 6.95581 3.75163 5.35626 5.65089 5.25507L5.8421 5.25L18.1579 5.25ZM12 8.25C13.5326 8.25 14.75 9.56744 14.75 11.1644C14.75 12.0433 14.3793 12.8616 13.7528 13.4107L13.6037 13.5326L13.2707 13.7609L13.0928 13.8901C12.9948 13.9664 12.9165 14.0365 12.8653 14.0918L12.8168 14.1513C12.7617 14.2459 12.7532 14.2721 12.7459 14.3417L12.7415 14.5092L12.75 15C12.75 15.4142 12.4142 15.75 12 15.75C11.6203 15.75 11.3065 15.4678 11.2569 15.1017L11.2422 14.6161L11.2429 14.3739C11.2447 14.3031 11.2482 14.2412 11.2541 14.1855C11.2834 13.9056 11.3582 13.6753 11.5206 13.3964C11.5481 13.3492 11.5784 13.3031 11.6115 13.2579C11.7525 13.0645 11.9398 12.8869 12.1709 12.7068L12.4517 12.5026L12.6982 12.3358C13.0371 12.0787 13.25 11.6448 13.25 11.1644C13.25 10.3706 12.6765 9.75 12 9.75C11.3235 9.75 10.75 10.3706 10.75 11.1644C10.75 11.5786 10.4142 11.9144 10 11.9144C9.58578 11.9144 9.25 11.5786 9.25 11.1644C9.25 9.56744 10.4674 8.25 12 8.25ZM13.25 18C13.25 17.3096 12.6904 16.75 12 16.75C11.3096 16.75 10.75 17.3096 10.75 18C10.75 18.6904 11.3096 19.25 12 19.25C12.6904 19.25 13.25 18.6904 13.25 18Z"
		clip-rule="evenodd" fill-rule="evenodd" fill-opacity="1.000000" />
</svg>