<?xml version="1.0" encoding="UTF-8"?>
<svg viewBox="0 0 24 24" version="1.1" xmlns="http://www.w3.org/2000/svg" xmlns:xlink="http://www.w3.org/1999/xlink">
    <g id="页面-1" stroke="none" stroke-width="1">
        <g id="画板" transform="translate(-319.000000, -2892.000000)">
            <g id="PrintPreview" transform="translate(319.000000, 2892.000000)">
                <g id="编组" transform="translate(-0.000000, 0.000000)">
                    <path d="M14.76,2.24945 C15.9971178,2.24945 17,3.25233216 17,4.48945 L17,5.62645 L18.51,5.62645 C20.1022416,5.62645 21.4039739,6.87131647 21.4949238,8.44077653 L21.5,8.61645 L21.5,15.38645 C21.5,16.9793728 20.2554066,18.2804726 18.6857027,18.3713765 L18.51,18.37645 L17,18.37645 L17,19.49855 C17,20.6890047 16.0744461,21.6641608 14.9039998,21.7433571 L14.75,21.74855 L8.75,21.74855 C7.50778644,21.74855 6.5,20.7407636 6.5,19.49855 L6.5,19.49855 L6.5,15.50155 C6.5,14.2593364 7.50778644,13.25155 8.75,13.25155 L8.75,13.25155 L14.75,13.25155 C15.9922136,13.25155 17,14.2593364 17,15.50155 L17,15.50155 L17,16.87645 L18.51,16.87645 C19.2847611,16.87645 19.92101,16.2859575 19.9931819,15.5300228 L20,15.38645 L20,8.61645 C20,7.84206276 19.4089735,7.20548403 18.6534785,7.13327195 L18.51,7.12645 L17,7.12645 L17,7.12945 L6.5,7.12945 L6.5,7.12645 L4.99,7.12645 C4.21561276,7.12645 3.57903403,7.71747655 3.50682195,8.47297148 L3.5,8.61645 L3.5,15.38645 C3.5,16.1045866 4.01117402,16.7118852 4.69750065,16.8483931 L4.83700178,16.8693108 C5.24908309,16.9112854 5.54911384,17.2793705 5.50713922,17.6914518 C5.46516459,18.1035331 5.09707953,18.4035638 4.68499822,18.3615892 C3.22438218,18.2128108 2.09021135,17.0210351 2.00512812,15.5626822 L2,15.38645 L2,8.61645 C2,7.02420835 3.24486647,5.72247611 4.81432653,5.63152615 L4.99,5.62645 L6.5,5.62645 L6.5,4.48945 C6.5,3.25233216 7.50288216,2.24945 8.74,2.24945 L14.76,2.24945 Z M14.75,14.75155 L8.75,14.75155 C8.33621356,14.75155 8,15.0877636 8,15.50155 L8,15.50155 L8,19.49855 C8,19.9123364 8.33621356,20.24855 8.75,20.24855 L8.75,20.24855 L14.75,20.24855 C15.1637864,20.24855 15.5,19.9123364 15.5,19.49855 L15.5,19.49855 L15.5,15.50155 C15.5,15.0877636 15.1637864,14.75155 14.75,14.75155 L14.75,14.75155 Z M17.7549,8.49655 C18.3079,8.49655 18.7549,8.94455 18.7549,9.49655 C18.7549,10.04955 18.3079,10.49655 17.7549,10.49655 C17.2029,10.49655 16.7549,10.04955 16.7549,9.49655 C16.7549,8.94455 17.2029,8.49655 17.7549,8.49655 Z M14.76,3.74945 L8.74,3.74945 C8.36536684,3.74945 8.05575559,4.02784183 8.00675533,4.38903638 L8,4.48945 L8,5.62645 L15.5,5.62645 L15.5,4.48945 C15.5,4.11481684 15.2216082,3.80520559 14.8604136,3.75620533 L14.76,3.74945 Z" id="形状结合"></path>
                </g>
            </g>
        </g>
    </g>
</svg>