<svg viewBox="0 0 24 24" xmlns="http://www.w3.org/2000/svg"
	xmlns:xlink="http://www.w3.org/1999/xlink">
	<defs />
	<g opacity="0.000000" />
	<path id="矢量 241"
		d="M17.2455 4.82922C17.1702 3.41559 16.1664 2.25 14.8636 2.25L9.13635 2.25L8.98151 2.25555C7.70367 2.34729 6.75 3.56799 6.75 5L8.25 5L8.25568 4.85864C8.30792 4.21185 8.71393 3.75 9.13635 3.75L14.8636 3.75C15.282 3.81458 15.75 4.32819 15.75 5L17.25 5L17.2455 4.82922ZM21.75 9.57141C21.75 7.73706 20.2629 6.25 18.4286 6.25L5.57141 6.25C3.73706 6.25 2.25 7.73706 2.25 9.57141L2.25 16.4286C2.25 18.0682 3.43811 19.4304 5.0004 19.7011L5.00064 18.1588C4.27429 17.9193 3.75 17.2352 3.75 16.4286L3.75 9.57141C3.75 8.56549 4.56549 7.75 5.57141 7.75L18.4286 7.75C19.4345 7.75 20.25 8.56549 20.25 9.57141L20.25 16.4286C20.25 17.2348 19.7262 17.9186 19.0004 18.1584L19.0006 19.7009C20.5624 19.4298 21.75 18.0679 21.75 16.4286L21.75 9.57141ZM17 9.75C17.6904 9.75 18.25 10.3096 18.25 11C18.25 11.6904 17.6904 12.25 17 12.25C16.3096 12.25 15.75 11.6904 15.75 11C15.75 10.3096 16.3096 9.75 17 9.75ZM14.8636 15.25C16.1606 15.25 17.25 16.201 17.25 17.4286L17.25 19.5714C17.25 20.799 16.1606 21.75 14.8636 21.75L9.13635 21.75C7.83936 21.75 6.75 20.799 6.75 19.5714L6.75 17.4286C6.75 16.201 7.83936 15.25 9.13635 15.25L14.8636 15.25ZM14.8636 16.75L9.13635 16.75C8.62592 16.75 8.25 17.0782 8.25 17.4286L8.25 19.5714C8.25 19.9218 8.62592 20.25 9.13635 20.25L14.8636 20.25C15.3741 20.25 15.75 19.9218 15.75 19.5714L15.75 17.4286C15.75 17.0782 15.3741 16.75 14.8636 16.75Z"
		fill-rule="evenodd" />
</svg>