<?xml version="1.0" encoding="UTF-8"?>
<svg viewBox="0 0 40 40" version="1.1" xmlns="http://www.w3.org/2000/svg"
    xmlns:xlink="http://www.w3.org/1999/xlink">
    <defs>
        <linearGradient x1="91.0954237%" y1="100%" x2="4.40908163%" y2="5.12368807%"
            id="linearGradient-1">
            <stop stop-color="#91D770" offset="0%"></stop>
            <stop stop-color="#71C04C" offset="100%"></stop>
        </linearGradient>
        <rect id="path-2" x="10" y="7.46904441" width="10" height="8" rx="1"></rect>
        <filter x="-70.0%" y="-62.5%" width="240.0%" height="275.0%" filterUnits="objectBoundingBox"
            id="filter-3">
            <feOffset dx="0" dy="2" in="SourceAlpha" result="shadowOffsetOuter1"></feOffset>
            <feGaussianBlur stdDeviation="2" in="shadowOffsetOuter1" result="shadowBlurOuter1"></feGaussianBlur>
            <feColorMatrix
                values="0 0 0 0 0.443137255   0 0 0 0 0.752941176   0 0 0 0 0.298039216  0 0 0 1 0"
                type="matrix" in="shadowBlurOuter1"></feColorMatrix>
        </filter>
        <path
            d="M19.5,16.4690444 C21.4329966,16.4690444 23,18.0360478 23,19.9690444 C23,21.902041 21.4329966,23.4690444 19.5,23.4690444 L3.5,23.4690444 C1.56700338,23.4690444 2.36723813e-16,21.902041 0,19.9690444 C-2.36723813e-16,18.0360478 1.56700338,16.4690444 3.5,16.4690444 L19.5,16.4690444 Z M4.5,18.4690444 C3.67157288,18.4690444 3,19.1406173 3,19.9690444 C3,20.7974715 3.67157288,21.4690444 4.5,21.4690444 C5.32842712,21.4690444 6,20.7974715 6,19.9690444 C6,19.1406173 5.32842712,18.4690444 4.5,18.4690444 Z M11.5,18.4690444 C10.6715729,18.4690444 10,19.1406173 10,19.9690444 C10,20.7974715 10.6715729,21.4690444 11.5,21.4690444 C12.3284271,21.4690444 13,20.7974715 13,19.9690444 C13,19.1406173 12.3284271,18.4690444 11.5,18.4690444 Z M18.5,18.4690444 C17.6715729,18.4690444 17,19.1406173 17,19.9690444 C17,20.7974715 17.6715729,21.4690444 18.5,21.4690444 C19.3284271,21.4690444 20,20.7974715 20,19.9690444 C20,19.1406173 19.3284271,18.4690444 18.5,18.4690444 Z"
            id="path-4"></path>
        <filter x="-30.4%" y="-71.4%" width="160.9%" height="300.0%" filterUnits="objectBoundingBox"
            id="filter-5">
            <feOffset dx="0" dy="2" in="SourceAlpha" result="shadowOffsetOuter1"></feOffset>
            <feGaussianBlur stdDeviation="2" in="shadowOffsetOuter1" result="shadowBlurOuter1"></feGaussianBlur>
            <feColorMatrix
                values="0 0 0 0 0.443137255   0 0 0 0 0.752941176   0 0 0 0 0.298039216  0 0 0 1 0"
                type="matrix" in="shadowBlurOuter1"></feColorMatrix>
        </filter>
    </defs>
    <g id="iconpro_produce" stroke="none" stroke-width="1" fill="none" fill-rule="evenodd">
        <rect id="矩形备份-47" fill="url(#linearGradient-1)" x="0" y="0" width="40" height="40" rx="6"></rect>
        <g id="编组-6" transform="translate(9.000000, 8.530956)">
            <g id="Rectangle">
                <use fill="black" fill-opacity="1" filter="url(#filter-3)" xlink:href="#path-2"></use>
                <use fill="#FFFFFF" fill-rule="evenodd" xlink:href="#path-2"></use>
            </g>
            <path
                d="M17,0 L17,4.46904441 L15.9489497,6.61292481 C15.8273917,6.8608729 15.5278478,6.96333227 15.2798997,6.84177423 C15.1803549,6.79297182 15.0998527,6.71246956 15.0510503,6.61292481 L14,4.46904441 L8,4.46904441 L8,16.4690444 L3,16.4690444 L3,2.46904441 C3,1.91675966 3.44771525,1.46904441 4,1.46904441 L14,1.469 L14,0 L17,0 Z"
                id="形状结合" fill-opacity="0.7" fill="#FFFFFF"></path>
            <g id="形状结合">
                <use fill="black" fill-opacity="1" filter="url(#filter-5)" xlink:href="#path-4"></use>
                <use fill="#FFFFFF" fill-rule="evenodd" xlink:href="#path-4"></use>
            </g>
        </g>
    </g>
</svg>