<?xml version="1.0" encoding="UTF-8"?>
<svg viewBox="0 0 40 40" version="1.1" xmlns="http://www.w3.org/2000/svg"
    xmlns:xlink="http://www.w3.org/1999/xlink">
    <defs>
        <linearGradient x1="93.9601682%" y1="100%" x2="6.17703115%" y2="6.32052235%"
            id="linearGradient-1">
            <stop stop-color="#F7C041" offset="0%"></stop>
            <stop stop-color="#F69836" offset="100%"></stop>
        </linearGradient>
        <path
            d="M19.99,0 C21.1000924,-2.03920655e-16 22,0.899907649 22,2.00999999 L22,17.99 C22,19.1000924 21.1000924,20 19.99,20 L2.00999999,20 C0.899907649,20 1.02412552e-15,19.1000924 0,17.99 L0,2.00999999 C-1.35947103e-16,0.899907649 0.899907649,2.03920655e-16 2.00999999,0 L19.99,0 Z M4.99998636,10.9862225 C4.44770914,10.9862225 4,11.4339316 4,11.9862088 L4,16.0017539 C4,16.5540311 4.44770914,17.0017402 4.99998636,17.0017402 C5.55226357,17.0017402 5.99997271,16.5540311 5.99997271,16.0017539 L5.99997271,11.9862088 C5.99997271,11.4339316 5.55226357,10.9862225 4.99998636,10.9862225 Z M11,12 C10.4477153,12 10,12.4477153 10,13 L10,16 C10,16.5522847 10.4477153,17 11,17 C11.5522847,17 12,16.5522847 12,16 L12,13 C12,12.4477153 11.5522847,12 11,12 Z M17,8 C16.4477153,8 16,8.44771525 16,9 L16,16 C16,16.5522847 16.4477153,17 17,17 C17.5522847,17 18,16.5522847 18,16 L18,9 C18,8.44771525 17.5522847,8 17,8 Z M11.6301999,8.88803353 C11.8874489,9.05953287 12.2288549,9.03165915 12.4548788,8.82070351 L17.4548788,4.15403685 C17.724046,3.9028142 17.7385928,3.48095495 17.4873702,3.21178783 C17.2361475,2.94262072 16.8142883,2.92807385 16.5451212,3.17929649 L11.9308187,7.48597882 L8.36980013,4.77863314 C8.14127252,4.62628139 7.84269874,4.62967384 7.61769177,4.78717872 L3.28435844,8.12051205 C2.98272557,8.33165506 3.74734203,9.42396429 4.0489749,9.21282128 L8.00917324,6.14068244 L11.6301999,8.88803353 Z"
            id="path-2"></path>
        <filter x="-45.5%" y="-40.0%" width="190.9%" height="200.0%" filterUnits="objectBoundingBox"
            id="filter-3">
            <feOffset dx="0" dy="2" in="SourceAlpha" result="shadowOffsetOuter1"></feOffset>
            <feGaussianBlur stdDeviation="3" in="shadowOffsetOuter1" result="shadowBlurOuter1"></feGaussianBlur>
            <feColorMatrix
                values="0 0 0 0 0.964705882   0 0 0 0 0.694117647   0 0 0 0 0.207843137  0 0 0 1 0"
                type="matrix" in="shadowBlurOuter1"></feColorMatrix>
        </filter>
    </defs>
    <g id="iconpro_report-forms" stroke="none" stroke-width="1" fill="none" fill-rule="evenodd">
        <rect id="矩形备份-4" fill="url(#linearGradient-1)" x="0" y="0" width="40" height="40" rx="6"></rect>
        <g id="编组-17" transform="translate(8.000000, 9.000000)">
            <path
                d="M22.99,2 C24.1000923,2 25,2.89990765 25,4.01 L25,20.9899035 C25,22.0999958 24.1000923,22.9999035 22.99,22.9999035 L19,22.999 L19,4.99990348 L3,4.99990348 L3,4.01 C3,2.89990765 3.89990765,2 5.01,2 L22.99,2 Z"
                id="Combined-Shape" fill="#FFFFFF" opacity="0.4"
                transform="translate(14.000000, 12.499952) scale(1, -1) translate(-14.000000, -12.499952) "></path>
            <g id="Combined-Shape">
                <use fill="black" fill-opacity="1" filter="url(#filter-3)" xlink:href="#path-2"></use>
                <use fill="#FFFFFF" fill-rule="evenodd" xlink:href="#path-2"></use>
            </g>
        </g>
    </g>
</svg>