<?xml version="1.0" encoding="UTF-8"?>
<svg viewBox="0 0 40 40" version="1.1" xmlns="http://www.w3.org/2000/svg"
    xmlns:xlink="http://www.w3.org/1999/xlink">
    <defs>
        <linearGradient x1="6.93936077%" y1="6.42606613%" x2="92.7942929%" y2="93.3517321%"
            id="linearGradient-1">
            <stop stop-color="#1FABC7" offset="0%"></stop>
            <stop stop-color="#27BBE6" offset="100%"></stop>
        </linearGradient>
    </defs>
    <g id="iconpro_geography" stroke="none" stroke-width="1" fill="none" fill-rule="evenodd">
        <rect id="矩形备份-38" fill="url(#linearGradient-1)" x="0" y="0" width="40" height="40" rx="6"></rect>
        <rect id="矩形" fill="#D8D8D8" fill-rule="nonzero" opacity="0" x="7" y="6" width="26"
            height="26"></rect>
        <path
            d="M12.9615292,16.1033156 C13.5573625,18.041399 14.7609458,19.776899 15.9114458,21.1050656 L15.9114458,21.1050656 L15.9114458,27.310399 L10.3344458,30.0230656 C10.2217792,30.076149 10.1004458,30.1043156 9.9791125,30.1043156 C9.82852917,30.1043156 9.67902917,30.063149 9.54794583,29.9808156 C9.3096125,29.832399 9.1666125,29.572399 9.1666125,29.2918156 L9.1666125,29.2918156 L9.1666125,19.9827323 C9.1666125,18.7477323 9.88377917,17.6004823 10.9941958,17.059899 L10.9941958,17.059899 L12.9615292,16.1033156 Z"
            id="形状结合-path" fill="#FFFFFF" fill-rule="nonzero"></path>
        <path
            d="M29.6644708,14.4773406 C29.9158042,14.358174 30.2148042,14.371174 30.4509708,14.5195906 C30.6893042,14.6680073 30.8333875,14.9280073 30.8333875,15.2085906 L30.8333875,15.2085906 L30.8333875,24.517674 C30.8333875,25.7515906 30.1151375,26.899924 29.0047208,27.4405073 L29.0047208,27.4405073 L24.1687208,29.792424 C24.1253875,29.8130073 24.0777208,29.8227573 24.0333042,29.841174 L24.0333042,29.841174 L24.0333042,21.1485073 C25.2748042,19.7282573 26.5672208,17.8367573 27.1143042,15.7177573 L27.1143042,15.7177573 L29.6644708,14.4773406 Z"
            id="形状结合-path" fill="#FFFFFF" fill-rule="nonzero"></path>
        <path
            d="M17.5366625,22.790949 C17.7912458,23.0271156 18.0165792,23.2253656 18.1974958,23.3802823 C18.4054958,23.6012823 18.6557458,23.7832823 18.9298292,23.912199 C19.2537458,24.0660323 19.6069125,24.146199 19.9719958,24.146199 C20.2785792,24.146199 20.5775792,24.0898656 20.8592458,23.9782823 L20.8592458,23.9782823 L20.8798292,23.9717823 L20.9805792,23.928449 L21.0087458,23.9165323 L21.0542458,23.8948656 C21.2893292,23.782199 21.5027458,23.6337823 21.6890792,23.4528656 C21.8819125,23.2925323 22.1289125,23.0758656 22.4084125,22.8180323 L22.4084125,22.8180323 L22.4084125,29.742699 L17.5366625,27.3723656 L17.5366625,22.790949 Z"
            id="形状结合-path" fill="#FFFFFF" fill-rule="nonzero"></path>
        <path
            d="M19.9705333,7.89568438 L20.0493458,7.89879896 C23.2061792,7.94104896 25.7660958,10.5291323 25.7660958,13.6892156 C25.7660958,17.7733823 21.4002625,21.581299 20.5899292,22.2529656 C20.5216792,22.3266323 20.4393458,22.387299 20.3472625,22.4317156 C20.3277625,22.4403823 20.3071792,22.4501323 20.2865958,22.4577156 C20.1869292,22.4999656 20.0796792,22.520549 19.9724292,22.520549 C19.8532625,22.520549 19.7351792,22.4956323 19.6235958,22.442549 C19.5098458,22.3883823 19.4123458,22.3103823 19.3375958,22.215049 C18.4265125,21.4502156 14.2047625,17.691049 14.2047625,13.6892156 C14.2047625,10.5399656 16.7484292,7.95838229 19.8900958,7.89988229 L19.9705333,7.89568438 Z M19.9995125,11.9331323 C19.0288458,11.9331323 18.2423458,12.7196323 18.2423458,13.690299 C18.2423458,14.6598823 19.0288458,15.4463823 19.9995125,15.4463823 C20.9701792,15.4463823 21.7566792,14.6598823 21.7566792,13.690299 C21.7566792,12.7196323 20.9701792,11.9331323 19.9995125,11.9331323 Z"
            id="形状结合" fill="#FFFFFF" opacity="0.7"></path>
    </g>
</svg>