<?xml version="1.0" encoding="UTF-8"?>
<svg width="40px" height="40px" viewBox="0 0 40 40" version="1.1" xmlns="http://www.w3.org/2000/svg" xmlns:xlink="http://www.w3.org/1999/xlink">
    <defs>
        <linearGradient x1="-3.47638585e-13%" y1="4.23272528e-14%" x2="100%" y2="100%" id="linearGradient-1">
            <stop stop-color="#2670F3" offset="0%"></stop>
            <stop stop-color="#2E94FF" offset="100%"></stop>
        </linearGradient>
        <linearGradient x1="50%" y1="0%" x2="50%" y2="138.173003%" id="linearGradient-2">
            <stop stop-color="#FFFFFF" offset="0%"></stop>
            <stop stop-color="#FFFFFF" offset="57.1269319%"></stop>
            <stop stop-color="#2C8AFC" offset="100%"></stop>
        </linearGradient>
    </defs>
    <g id="iconpro_customs" stroke="none" stroke-width="1" fill="none" fill-rule="evenodd">
        <rect id="矩形备份-44" fill="url(#linearGradient-1)" x="0" y="0" width="40" height="40" rx="6"></rect>
        <g id="编组-19" transform="translate(9.000000, 9.000000)">
            <path d="M16,0 C17.1045695,-2.02906125e-16 18,0.8954305 18,2 L18,19 C18,19.5522847 17.5522847,20 17,20 L3,20 C2.44771525,20 2,19.5522847 2,19 L2,2 C2,0.8954305 2.8954305,-2.41183085e-16 4,0 L16,0 Z M13,9 L7,9 C6.44771525,9 6,9.44771525 6,10 C6,10.5522847 6.44771525,11 7,11 L13,11 C13.5522847,11 14,10.5522847 14,10 C14,9.44771525 13.5522847,9 13,9 Z M13,4 L7,4 C6.44771525,4 6,4.44771525 6,5 C6,5.55228475 6.44771525,6 7,6 L13,6 C13.5522847,6 14,5.55228475 14,5 C14,4.44771525 13.5522847,4 13,4 Z" id="Combined-Shape" fill="url(#linearGradient-2)" opacity="0.849999964"></path>
            <path d="M20,4 L22,4 L22,4 L22,16 C22,16.5522847 21.5522847,17 21,17 L19,17 C18.4477153,17 18,16.5522847 18,16 L18,6 C18,4.8954305 18.8954305,4 20,4 Z" id="Rectangle-64" fill="#FFFFFF" opacity="0.600000024" transform="translate(20.000000, 10.500000) scale(-1, 1) translate(-20.000000, -10.500000) "></path>
            <path d="M7,15 C7,16.6568542 8.34314575,18 10,18 L14,18 C15.6568542,18 17,16.6568542 17,15 L21,15 C22.1045695,15 23,15.8954305 23,17 L23,21 C23,22.1045695 22.1045695,23 21,23 L2,23 C0.8954305,23 1.3527075e-16,22.1045695 0,21 L0,17 C-1.3527075e-16,15.8954305 0.8954305,15 2,15 Z" id="Combined-Shape" fill="#FFFFFF"></path>
        </g>
    </g>
</svg>