<?xml version="1.0" encoding="UTF-8"?>
<svg width="40px" height="40px" viewBox="0 0 40 40" version="1.1" xmlns="http://www.w3.org/2000/svg" xmlns:xlink="http://www.w3.org/1999/xlink">
    <defs>
        <linearGradient x1="91.0954237%" y1="100%" x2="4.40908163%" y2="5.12368807%" id="linearGradient-1">
            <stop stop-color="#91D770" offset="0%"></stop>
            <stop stop-color="#71C04C" offset="100%"></stop>
        </linearGradient>
        <filter x="-50.0%" y="-50.0%" width="200.0%" height="200.0%" filterUnits="objectBoundingBox" id="filter-2">
            <feOffset dx="0" dy="2" in="SourceAlpha" result="shadowOffsetOuter1"></feOffset>
            <feGaussianBlur stdDeviation="2" in="shadowOffsetOuter1" result="shadowBlurOuter1"></feGaussianBlur>
            <feColorMatrix values="0 0 0 0 0.443137255   0 0 0 0 0.752941176   0 0 0 0 0.298039216  0 0 0 1 0" type="matrix" in="shadowBlurOuter1" result="shadowMatrixOuter1"></feColorMatrix>
            <feMerge>
                <feMergeNode in="shadowMatrixOuter1"></feMergeNode>
                <feMergeNode in="SourceGraphic"></feMergeNode>
            </feMerge>
        </filter>
    </defs>
    <g id="iconpro_matter" stroke="none" stroke-width="1" fill="none" fill-rule="evenodd">
        <g id="编组-7备份" fill="url(#linearGradient-1)">
            <rect id="矩形备份-47" x="0" y="0" width="40" height="40" rx="6"></rect>
        </g>
        <g id="编组-10" filter="url(#filter-2)" transform="translate(8.000000, 8.000000)" fill="#FFFFFF">
            <path d="M0.0678,14.88685 L4.932,17.69545 L4.932,23.31265 C4.776,23.27245 4.6242,23.21305 4.482,23.13025 L4.482,23.13025 L0.9,21.06265 C0.3444,20.74165 -1.24344979e-14,20.14465 -1.24344979e-14,19.50385 L-1.24344979e-14,19.50385 L-1.24344979e-14,15.36745 C-1.24344979e-14,15.20245 0.024,15.04165 0.0678,14.88685 L0.0678,14.88685 Z M4.48224,11.74075 C5.03664,11.41975 5.72724,11.41975 6.28224,11.74075 L6.28224,11.74075 L9.86424,13.81015 C10.00644,13.89235 10.13364,13.99315 10.24584,14.10775 L10.24584,14.10775 L6.50904,16.26535 C6.29364,16.38955 6.22044,16.66495 6.34464,16.88035 C6.42744,17.02435 6.57924,17.10535 6.73404,17.10535 C6.81084,17.10535 6.88824,17.08555 6.95904,17.04475 L6.95904,17.04475 L10.69644,14.88715 C10.73964,15.04255 10.76424,15.20395 10.76424,15.36895 L10.76424,15.36895 L10.76424,19.50415 C10.76424,20.14435 10.41924,20.74135 9.86424,21.06235 L9.86424,21.06235 L6.28224,23.13055 C6.13944,23.21275 5.98764,23.27215 5.83224,23.31235 L5.83224,23.31235 L5.83224,17.43535 C5.83224,17.41615 5.82324,17.39935 5.82084,17.38075 C5.81724,17.34955 5.81304,17.32015 5.80284,17.29075 C5.79324,17.26315 5.78004,17.23915 5.76564,17.21455 C5.75124,17.18935 5.73684,17.16595 5.71764,17.14375 C5.69724,17.11975 5.67384,17.10175 5.64864,17.08255 C5.63364,17.07115 5.62344,17.05555 5.60724,17.04595 L5.60724,17.04595 L0.51744,14.10715 C0.62964,13.99255 0.75744,13.89115 0.89964,13.80835 L0.89964,13.80835 L4.48224,11.74075 Z" id="形状结合" fill-rule="nonzero"></path>
            <path d="M13.0678,14.88685 L17.932,17.69545 L17.932,23.31265 C17.776,23.27245 17.6242,23.21305 17.482,23.13025 L17.482,23.13025 L13.9,21.06265 C13.3444,20.74165 13,20.14465 13,19.50385 L13,19.50385 L13,15.36745 C13,15.20245 13.024,15.04165 13.0678,14.88685 L13.0678,14.88685 Z M17.48224,11.74075 C18.03664,11.41975 18.72724,11.41975 19.28224,11.74075 L19.28224,11.74075 L22.86424,13.81015 C23.00644,13.89235 23.13364,13.99315 23.24584,14.10775 L23.24584,14.10775 L19.50904,16.26535 C19.29364,16.38955 19.22044,16.66495 19.34464,16.88035 C19.42744,17.02435 19.57924,17.10535 19.73404,17.10535 C19.81084,17.10535 19.88824,17.08555 19.95904,17.04475 L19.95904,17.04475 L23.69644,14.88715 C23.73964,15.04255 23.76424,15.20395 23.76424,15.36895 L23.76424,15.36895 L23.76424,19.50415 C23.76424,20.14435 23.41924,20.74135 22.86424,21.06235 L22.86424,21.06235 L19.28224,23.13055 C19.13944,23.21275 18.98764,23.27215 18.83224,23.31235 L18.83224,23.31235 L18.83224,17.43535 C18.83224,17.41615 18.82324,17.39935 18.82084,17.38075 C18.81724,17.34955 18.81304,17.32015 18.80284,17.29075 C18.79324,17.26315 18.78004,17.23915 18.76564,17.21455 C18.75124,17.18935 18.73684,17.16595 18.71764,17.14375 C18.69724,17.11975 18.67384,17.10175 18.64864,17.08255 C18.63364,17.07115 18.62344,17.05555 18.60724,17.04595 L18.60724,17.04595 L13.51744,14.10715 C13.62964,13.99255 13.75744,13.89115 13.89964,13.80835 L13.89964,13.80835 L17.48224,11.74075 Z" id="形状结合备份-7" opacity="0.7"></path>
            <path d="M6.5678,3.38685 L11.432,6.19545 L11.432,11.81265 C11.276,11.77245 11.1242,11.71305 10.982,11.63025 L10.982,11.63025 L7.4,9.56265 C6.8444,9.24165 6.5,8.64465 6.5,8.00385 L6.5,8.00385 L6.5,3.86745 C6.5,3.70245 6.524,3.54165 6.5678,3.38685 L6.5678,3.38685 Z M10.98224,0.24075 C11.53664,-0.08025 12.22724,-0.08025 12.78224,0.24075 L12.78224,0.24075 L16.36424,2.31015 C16.50644,2.39235 16.63364,2.49315 16.74584,2.60775 L16.74584,2.60775 L13.00904,4.76535 C12.79364,4.88955 12.72044,5.16495 12.84464,5.38035 C12.92744,5.52435 13.07924,5.60535 13.23404,5.60535 C13.31084,5.60535 13.38824,5.58555 13.45904,5.54475 L13.45904,5.54475 L17.19644,3.38715 C17.23964,3.54255 17.26424,3.70395 17.26424,3.86895 L17.26424,3.86895 L17.26424,8.00415 C17.26424,8.64435 16.91924,9.24135 16.36424,9.56235 L16.36424,9.56235 L12.78224,11.63055 C12.63944,11.71275 12.48764,11.77215 12.33224,11.81235 L12.33224,11.81235 L12.33224,5.93535 C12.33224,5.91615 12.32324,5.89935 12.32084,5.88075 C12.31724,5.84955 12.31304,5.82015 12.30284,5.79075 C12.29324,5.76315 12.28004,5.73915 12.26564,5.71455 C12.25124,5.68935 12.23684,5.66595 12.21764,5.64375 C12.19724,5.61975 12.17384,5.60175 12.14864,5.58255 C12.13364,5.57115 12.12344,5.55555 12.10724,5.54595 L12.10724,5.54595 L7.01744,2.60715 C7.12964,2.49255 7.25744,2.39115 7.39964,2.30835 L7.39964,2.30835 L10.98224,0.24075 Z" id="形状结合备份-8" fill-rule="nonzero"></path>
        </g>
    </g>
</svg>