<?xml version="1.0" encoding="UTF-8"?>
<svg viewBox="0 0 40 40" version="1.1" xmlns="http://www.w3.org/2000/svg"
    xmlns:xlink="http://www.w3.org/1999/xlink">
    <defs>
        <linearGradient x1="93.9601682%" y1="100%" x2="6.17703115%" y2="6.32052235%"
            id="linearGradient-1">
            <stop stop-color="#F7C041" offset="0%"></stop>
            <stop stop-color="#F69836" offset="100%"></stop>
        </linearGradient>
        <filter x="-72.6%" y="-76.2%" width="245.1%" height="252.4%" filterUnits="objectBoundingBox"
            id="filter-2">
            <feOffset dx="0" dy="2" in="SourceAlpha" result="shadowOffsetOuter1"></feOffset>
            <feGaussianBlur stdDeviation="3" in="shadowOffsetOuter1" result="shadowBlurOuter1"></feGaussianBlur>
            <feColorMatrix
                values="0 0 0 0 0.968627451   0 0 0 0 0.596078431   0 0 0 0 0.211764706  0 0 0 1 0"
                type="matrix" in="shadowBlurOuter1" result="shadowMatrixOuter1"></feColorMatrix>
            <feMerge>
                <feMergeNode in="shadowMatrixOuter1"></feMergeNode>
                <feMergeNode in="SourceGraphic"></feMergeNode>
            </feMerge>
        </filter>
    </defs>
    <g id="iconpro_company" stroke="none" stroke-width="1" fill="none" fill-rule="evenodd">
        <rect id="矩形" fill="url(#linearGradient-1)" x="0" y="0" width="40" height="40" rx="6"></rect>
        <g id="编组-14" filter="url(#filter-2)" transform="translate(10.000000, 9.000000)"
            fill="#FFFFFF">
            <path
                d="M16,7.38742589 C16.1074821,7.38742589 16.2142613,7.40475377 16.3162278,7.43874259 L19.6324555,8.54415184 C20.4491398,8.81637994 21,9.58065762 21,10.4415184 L21,20 C21,20.5522847 20.5522847,21 20,21 L16,21 C15.4477153,21 15,20.5522847 15,20 L15,8.38742589 C15,7.83514114 15.4477153,7.38742589 16,7.38742589 Z M18,11 L17.5,11 L17.3982294,11.0068466 C17.0321539,11.056509 16.75,11.3703042 16.75,11.75 C16.75,12.1296958 17.0321539,12.443491 17.3982294,12.4931534 L17.5,12.5 L18,12.5 L18.1017706,12.4931534 C18.4678461,12.443491 18.75,12.1296958 18.75,11.75 C18.75,11.3703042 18.4678461,11.056509 18.1017706,11.0068466 L18,11 Z"
                id="形状结合" opacity="0.7"></path>
            <path
                d="M13.1945946,1.31809838 C13.2469363,1.47076169 13.280056,1.62913308 13.2933445,1.78955746 L13.3,1.95053081 L13.299,19.5 L14.499,19.5 L20.999,19.5 L21.3,19.5 C21.7142136,19.5 22.05,19.8357864 22.05,20.25 C22.05,20.6296958 21.7678461,20.943491 21.4017706,20.9931534 L21.3,21 L0.75,21 C0.33578644,21 0,20.6642136 0,20.25 C0,19.8703042 0.28215388,19.556509 0.64822944,19.5068466 L0.75,19.5 L1.049,19.5 L1.05,5.12767367 C1.05,4.3465401 1.05,2.75288009 2.22288412,2.33917335 L2.36756757,2.28307907 L10.7175676,0.105936211 C11.736309,-0.243346569 12.8453118,0.299356911 13.1945946,1.31809838 Z M9.7,10 L4.7,10 L4.59822944,10.0068466 C4.23215388,10.056509 3.95,10.3703042 3.95,10.75 C3.95,11.1296958 4.23215388,11.443491 4.59822944,11.4931534 L4.7,11.5 L9.7,11.5 L9.80177056,11.4931534 C10.1678461,11.443491 10.45,11.1296958 10.45,10.75 C10.45,10.3357864 10.1142136,10 9.7,10 Z M9.7,6.5 L4.7,6.5 L4.59822944,6.50684662 C4.23215388,6.55650904 3.95,6.87030423 3.95,7.25 C3.95,7.62969577 4.23215388,7.94349096 4.59822944,7.99315338 L4.7,8 L9.7,8 L9.80177056,7.99315338 C10.1678461,7.94349096 10.45,7.62969577 10.45,7.25 C10.45,6.87030423 10.1678461,6.55650904 9.80177056,6.50684662 L9.7,6.5 Z"
                id="形状结合" fill-rule="nonzero"></path>
        </g>
    </g>
</svg>