<?xml version="1.0" encoding="UTF-8"?>
<svg viewBox="0 0 40 40" version="1.1" xmlns="http://www.w3.org/2000/svg"
    xmlns:xlink="http://www.w3.org/1999/xlink">
    <defs>
        <linearGradient x1="0%" y1="0%" x2="100%" y2="100%" id="linearGradient-1">
            <stop stop-color="#7C6EF1" offset="0%"></stop>
            <stop stop-color="#9E92FF" offset="100%"></stop>
        </linearGradient>
    </defs>
    <g id="iconpro_bank" stroke="none" stroke-width="1" fill="none" fill-rule="evenodd">
        <rect id="矩形备份-17" fill="url(#linearGradient-1)" x="0" y="0" width="40" height="40" rx="6"></rect>
        <ellipse id="Oval" fill="#FFFFFF" fill-rule="nonzero" opacity="0.3" cx="20" cy="12.6761905"
            rx="2.82352941" ry="2.81904762"></ellipse>
        <path
            d="M8.49626986,16.8453669 C7.81491553,16.5786081 7.85453435,16.0041244 8.49626986,15.6218358 C8.89806515,15.3820654 12.3125472,12.6665738 18.7397161,7.47536095 L18.7395838,7.47519686 C19.4701058,6.88593637 20.5121107,6.88392315 21.2449042,7.47035641 C27.7309099,12.6651643 31.1628201,15.3820032 31.5398644,15.6218358 C32.1408659,16.0040978 32.1694996,16.5786081 31.5288515,16.8453669 L8.49626986,16.8453669 Z M18.2756313,11.8321788 C17.9079127,12.4580062 17.9081375,13.2339397 18.2762187,13.8595539 C18.6442998,14.4851682 19.3224499,14.8622442 20.0481034,14.8447859 C21.133843,14.8186645 22.0003146,13.9308398 22,12.8447874 C21.9996853,11.758735 21.1326994,10.8714125 20.0469449,10.8459202 C19.3212814,10.8288825 18.6433498,11.2063514 18.2756313,11.8321788 Z M32,31.8453669 L8,31.8453669 L8.73982151,30.074424 C9.05079161,29.3300414 9.77853437,28.8453669 10.585261,28.8453669 L29.4140058,28.8453669 C30.2204761,28.8453669 30.9480401,29.3297373 31.2591736,30.0737738 L32,31.8453669 L32,31.8453669 Z"
            id="Shape" fill="#FFFFFF" fill-rule="nonzero"></path>
        <path
            d="M25.0090609,19.580321 L25.0090609,19.580321 L25.0090609,19.580321 L25,17.8453669 L29.3049934,17.8453669 L29.3049934,19.5717163 L29.3049934,19.6205571 L29.3049934,28.8453669 L29.3049934,28.8453669 L26.7120718,28.8453669 L26.7120718,21.2593943 C26.7120718,20.3319748 25.9602498,19.5801528 25.0328303,19.5801528 C25.0249068,19.5801528 25.0169835,19.5802089 25.0090609,19.580321 Z M17.0090609,19.5960431 L17.0090609,19.5960431 L17.0090609,19.5960431 L17,17.8453669 L22.9901034,17.8453669 L23,19.5990903 C22.0578612,19.6199637 21.3049934,20.3896964 21.3049934,21.3320664 L21.3049934,28.8453669 L21.3049934,28.8453669 L18.7120718,28.8453669 L18.7120718,21.274901 C18.7120718,20.3475988 17.9603448,19.5958718 17.0330426,19.5958718 C17.0250484,19.5958718 17.0170543,19.5959289 17.0090609,19.5960431 Z M10.710449,19.2614844 L10.7030413,17.8453669 L10.7030413,17.8453669 L14.9901034,17.8453669 L15,19.5990903 C14.0578612,19.6199637 13.3049934,20.3896964 13.3049934,21.3320664 L13.3049934,28.8453669 L13.3049934,28.8453669 L10.7030413,28.8453669 L10.7117697,19.8819524 C10.7119711,19.6751288 10.7115308,19.4683052 10.710449,19.2614844 Z"
            id="形状结合" fill="#FFFFFF" fill-rule="nonzero" opacity="0.7"></path>
    </g>
</svg>