<?xml version="1.0" encoding="UTF-8"?>
<svg viewBox="0 0 40 40" version="1.1" xmlns="http://www.w3.org/2000/svg"
    xmlns:xlink="http://www.w3.org/1999/xlink">
    <defs>
        <linearGradient x1="93.9601682%" y1="100%" x2="6.17703115%" y2="6.32052235%"
            id="linearGradient-1">
            <stop stop-color="#F7C041" offset="0%"></stop>
            <stop stop-color="#F69836" offset="100%"></stop>
        </linearGradient>
        <filter x="-72.7%" y="-72.7%" width="245.5%" height="245.5%" filterUnits="objectBoundingBox"
            id="filter-2">
            <feOffset dx="0" dy="2" in="SourceAlpha" result="shadowOffsetOuter1"></feOffset>
            <feGaussianBlur stdDeviation="3" in="shadowOffsetOuter1" result="shadowBlurOuter1"></feGaussianBlur>
            <feColorMatrix
                values="0 0 0 0 0.964705882   0 0 0 0 0.592156863   0 0 0 0 0.207843137  0 0 0 1 0"
                type="matrix" in="shadowBlurOuter1" result="shadowMatrixOuter1"></feColorMatrix>
            <feMerge>
                <feMergeNode in="shadowMatrixOuter1"></feMergeNode>
                <feMergeNode in="SourceGraphic"></feMergeNode>
            </feMerge>
        </filter>
    </defs>
    <g id="iconpro_pay" stroke="none" stroke-width="1" fill="none" fill-rule="evenodd">
        <g id="编组-5备份-2" fill="url(#linearGradient-1)">
            <rect id="矩形备份-3" x="0" y="0" width="40" height="40" rx="6"></rect>
        </g>
        <g id="编组-11" filter="url(#filter-2)" transform="translate(9.000000, 10.000000)">
            <path
                d="M11.6183979,9.08750613 C13.1059896,10.2114642 12.6391022,12.0358639 10.2705051,14.5501364 L9.90239581,14.9294179 L18.1431856,14.929439 C18.3043584,14.929439 18.4598524,14.9824852 18.5865152,15.0786137 L18.6757446,15.1586324 C18.9232352,15.4200761 18.9406795,15.8158568 18.7349277,16.0961283 L18.6473219,16.1953277 L13.3459656,21.2137503 C12.8718158,21.6625945 12.2608296,21.9348086 11.6150364,21.9897593 L11.3714318,22.0001023 L2.71943109,22.0001023 C1.94422271,22.0001023 1.30661854,21.4109486 1.22994618,20.6559689 L1.22221622,20.5028874 L1.22221622,16.9932202 C1.22221622,16.5237952 1.44238898,16.0815314 1.81696179,15.7985266 L2.75881588,15.0694711 C3.21480769,14.7113298 3.77544103,14.2661519 4.44062418,13.7340053 C4.95844196,13.3197511 5.44391566,12.8391101 5.97061663,12.2367506 L6.36607568,11.7715674 L7.32561289,10.5838762 C7.74335719,10.0684952 8.04316877,9.72519988 8.34063891,9.43460001 C9.44308231,8.35761845 10.4258865,8.18649751 11.6183979,9.08750613 Z"
                id="形状结合-path" fill="#FFFFFF" opacity="0.7"></path>
            <path
                d="M21.999892,6.1110811 L22.000484,12.9860473 C22.000484,14.1360197 21.153449,15.0881566 20.0492449,15.2525921 C19.9937024,14.9772424 19.8777016,14.7164749 19.7042023,14.4865703 L19.5633429,14.3201829 L19.4025115,14.1704669 L19.2240234,14.0437363 L19.0454762,13.9384691 C18.8072638,13.8121036 18.5682334,13.7410629 18.3257433,13.7177012 L18.1431856,13.7090003 L12.5362718,13.7089793 L12.6638067,13.5234196 L12.8132425,13.2897985 C14.1085635,11.1980903 14.0607777,9.4027834 12.3551903,8.11411728 C10.6842479,6.85162748 9.03172125,7.05262531 7.48655655,8.56210312 C7.2054235,8.83674317 6.92832183,9.14494577 6.56524814,9.58473351 L6.37613029,9.8160466 L5.41536046,11.0052609 L5.03941475,11.4468997 L4.80145515,11.7130474 C4.48900425,12.05444 4.19433198,12.3433957 3.89901154,12.5972819 L3.67711177,12.7813924 L2.00388427,14.1100563 L1.06883192,14.8338084 L1.0082125,14.8844642 C0.446568987,14.5038419 0.062785895,13.8805257 0.00748674657,13.1651388 L0.000592017093,12.9860473 L0,6.1110811 L21.999892,6.1110811 Z"
                id="形状结合-path" fill="#FFFFFF" fill-rule="nonzero"></path>
            <path
                d="M19.7088286,0 C20.914206,0 21.9022254,0.930620473 21.9935892,2.11256389 L22.000484,2.29165541 L21.999892,6.72218921 L0,6.72218921 L0.000592017093,2.29165541 C0.000592017093,1.08627795 0.93121249,0.0982585452 2.1131559,0.0068947417 L2.29224743,0 L19.7088286,0 Z"
                id="形状结合-path" fill="#FFFFFF" fill-rule="nonzero"></path>
            <rect id="矩形" fill="#F7AF3C" opacity="0.5" x="0" y="3.66664866" width="21.999892"
                height="1.22221622"></rect>
        </g>
    </g>
</svg>