<?xml version="1.0" encoding="UTF-8"?>
<svg viewBox="0 0 40 40" version="1.1" xmlns="http://www.w3.org/2000/svg"
    xmlns:xlink="http://www.w3.org/1999/xlink">
    <defs>
        <linearGradient x1="6.93936077%" y1="6.42606613%" x2="92.7942929%" y2="93.3517321%"
            id="linearGradient-1">
            <stop stop-color="#1FABC7" offset="0%"></stop>
            <stop stop-color="#27BBE6" offset="100%"></stop>
        </linearGradient>
        <filter x="-66.7%" y="-66.7%" width="233.3%" height="233.3%" filterUnits="objectBoundingBox"
            id="filter-2">
            <feOffset dx="0" dy="2" in="SourceAlpha" result="shadowOffsetOuter1"></feOffset>
            <feGaussianBlur stdDeviation="3" in="shadowOffsetOuter1" result="shadowBlurOuter1"></feGaussianBlur>
            <feColorMatrix
                values="0 0 0 0 0.121568627   0 0 0 0 0.670588235   0 0 0 0 0.780392157  0 0 0 1 0"
                type="matrix" in="shadowBlurOuter1" result="shadowMatrixOuter1"></feColorMatrix>
            <feMerge>
                <feMergeNode in="shadowMatrixOuter1"></feMergeNode>
                <feMergeNode in="SourceGraphic"></feMergeNode>
            </feMerge>
        </filter>
    </defs>
    <g id="iconpro_link" stroke="none" stroke-width="1" fill="none" fill-rule="evenodd">
        <g id="编组-8备份-2" fill="url(#linearGradient-1)">
            <rect id="矩形备份-38" x="0" y="0" width="40" height="40" rx="6"></rect>
        </g>
        <g id="超链接_复制" filter="url(#filter-2)" transform="translate(8.000000, 8.000000)"
            fill="#FCFDFC" fill-rule="nonzero">
            <path
                d="M14.7344405,8.79336894 L14.6550268,8.72143354 C14.1478039,8.27697549 13.3844079,8.33349617 12.9412283,8.83961313 C12.4980487,9.3457301 12.5544068,10.1267431 13.0616297,10.5737702 L13.0821235,10.5917541 C13.1333582,10.6354292 13.1794693,10.6816734 13.2281422,10.7304867 C14.7984838,12.3053582 14.7984838,14.8667725 13.2281422,16.4416441 L9.31125441,20.3724002 C7.74091286,21.9472718 5.18686632,21.9472718 3.61652477,20.3724002 C2.04618322,18.7975287 2.04618322,16.2361144 3.61652477,14.6612428 L5.59418167,12.6778809 C6.07066377,12.2000243 6.07066377,11.4267186 5.59418167,10.948862 C5.11769956,10.4710054 4.34661831,10.4710054 3.87013621,10.948862 L1.89247932,12.9322239 C-0.630826439,15.4628088 -0.630826439,19.5785416 1.89247932,22.1039882 C3.1502896,23.365427 4.80516829,24 6.46260872,24 C8.12004915,24 9.77492785,23.3679961 11.0352999,22.1014191 L14.9496259,18.1758012 C17.4729317,15.6452164 17.4729317,11.5294835 14.9496259,9.00403692 C14.872774,8.92439415 14.7984838,8.84988962 14.7344405,8.79336894 Z"
                id="路径"></path>
            <path
                d="M22.1081645,1.89799173 C19.5852905,-0.632663911 15.4820984,-0.632663911 12.964347,1.89799173 L9.05069059,5.82371947 C7.83151491,7.0466556 7.15789474,8.67552431 7.15789474,10.40973 C7.15789474,12.1439356 7.83151491,13.7728043 9.05069059,14.9957404 C9.12496809,15.070247 9.20436819,15.1473229 9.29401346,15.229537 L9.32218769,15.255229 C9.32218769,15.255229 9.34011674,15.2706441 9.34011674,15.2732133 C9.56807186,15.4787488 9.85493672,15.5789474 10.136679,15.5789474 C10.4722084,15.5789474 10.8051766,15.4402109 11.0484995,15.1653072 C11.4967258,14.6617453 11.4454999,13.8807104 10.9409251,13.4311016 L10.9153122,13.4054096 C10.8640863,13.3591641 10.8154218,13.3129187 10.7693185,13.2666732 C10.0086143,12.5036227 9.58856221,11.4913604 9.58856221,10.40973 C9.58856221,9.32809947 10.006053,8.31840641 10.7693185,7.55278673 L14.6880974,3.62705899 C16.2581703,2.05214335 18.8117799,2.05214335 20.3818527,3.62705899 C21.9519256,5.20197463 21.9519256,7.7634606 20.3818527,9.33837624 L18.4045342,11.3217937 C17.9281336,11.7996637 17.9281336,12.5729909 18.4045342,13.0508609 C18.8809348,13.5287309 19.6518841,13.5287309 20.1282847,13.0508609 L22.1056032,11.0674435 C24.6310385,8.54449544 24.6310385,4.42864738 22.1081645,1.89799173 Z"
                id="路径" fill-opacity="0.7"></path>
        </g>
    </g>
</svg>