<?xml version="1.0" encoding="UTF-8"?>
<svg viewBox="0 0 40 40" version="1.1" xmlns="http://www.w3.org/2000/svg"
    xmlns:xlink="http://www.w3.org/1999/xlink">
    <defs>
        <linearGradient x1="0%" y1="0%" x2="100%" y2="100%" id="linearGradient-1">
            <stop stop-color="#7C6EF1" offset="0%"></stop>
            <stop stop-color="#9E92FF" offset="100%"></stop>
        </linearGradient>
        <circle id="path-2" cx="16.5820357" cy="16.5" r="7.5"></circle>
        <filter x="-66.7%" y="-53.3%" width="233.3%" height="233.3%" filterUnits="objectBoundingBox"
            id="filter-3">
            <feOffset dx="0" dy="2" in="SourceAlpha" result="shadowOffsetOuter1"></feOffset>
            <feGaussianBlur stdDeviation="3" in="shadowOffsetOuter1" result="shadowBlurOuter1"></feGaussianBlur>
            <feColorMatrix
                values="0 0 0 0 0.498039216   0 0 0 0 0.439215686   0 0 0 0 0.949019608  0 0 0 0.5 0"
                type="matrix" in="shadowBlurOuter1"></feColorMatrix>
        </filter>
    </defs>
    <g id="iconpro_approval" stroke="none" stroke-width="1" fill="none" fill-rule="evenodd">
        <rect id="矩形备份-16" fill="url(#linearGradient-1)" x="0" y="0" width="40" height="40" rx="6"></rect>
        <g id="编组" transform="translate(9.917964, 9.000000)">
            <path
                d="M16.9210613,1.42108547e-14 C18.1761739,1.42108547e-14 19.1104078,0.981714758 19.1104078,2.23012574 L19.11105,9.43708695 C18.3209178,9.15413218 17.4694765,9 16.5820357,9 C12.4399,9 9.08203566,12.3578644 9.08203566,16.5 C9.08203566,18.2006765 9.64808973,19.7691439 10.6020699,21.0272744 L3.000182,21.0278747 C1.34332775,21.0279752 0.000100517244,19.684911 -2.66453526e-13,18.0280567 L7.25788847e-05,18.007006 L0.106794771,2.66540015 C0.106794771,1.1933403 1.30013507,1.77635684e-14 2.77219493,1.42108547e-14 L16.9210613,1.42108547e-14 Z"
                id="形状结合" fill="#FFFFFF" opacity="0.8"></path>
            <rect id="矩形" fill="#8E81F9" x="3.08203566" y="5" width="11" height="2" rx="1"></rect>
            <g id="椭圆形">
                <use fill="black" fill-opacity="1" filter="url(#filter-3)" xlink:href="#path-2"></use>
                <use fill="#FFFFFF" fill-rule="evenodd" xlink:href="#path-2"></use>
            </g>
            <path
                d="M16.3493651,19.3723222 L14.2459528,20.4781514 C14.0015306,20.6066518 13.699217,20.5126786 13.5707166,20.2682563 C13.519547,20.170926 13.5018897,20.059442 13.5204781,19.9510632 L13.9221941,17.6088792 C13.9500131,17.4466822 13.8962388,17.2811821 13.7783958,17.1663135 L12.0766995,15.5075696 C11.8789578,15.314819 11.8749116,14.9982624 12.0676622,14.8005206 C12.1444165,14.7217788 12.2449877,14.6705352 12.3538062,14.6547229 L14.7054926,14.3130029 C14.8683477,14.2893387 15.0091305,14.187054 15.0819615,14.0394822 L16.1336676,11.9084929 C16.2558788,11.660866 16.5556917,11.5591965 16.8033185,11.6814077 C16.9019248,11.7300728 16.9817386,11.8098866 17.0304037,11.9084929 L18.0821098,14.0394822 C18.1549408,14.187054 18.2957236,14.2893387 18.4585787,14.3130029 L20.8102651,14.6547229 C21.0835375,14.6944317 21.2728782,14.9481532 21.2331694,15.2214256 C21.2173572,15.3302441 21.1661136,15.4308153 21.0873718,15.5075696 L19.3856755,17.1663135 C19.2678325,17.2811821 19.2140582,17.4466822 19.2418772,17.6088792 L19.6435932,19.9510632 C19.6902737,20.2232314 19.5074798,20.4817094 19.2353116,20.5283899 C19.1269327,20.5469783 19.0154487,20.5293209 18.9181185,20.4781514 L16.8147062,19.3723222 C16.6690442,19.2957431 16.4950271,19.2957431 16.3493651,19.3723222 Z"
                id="星形" fill="#9184FA" opacity="0.5"></path>
        </g>
        <rect id="矩形备份" fill="#8E81F9" x="13" y="19" width="5" height="2" rx="1"></rect>
    </g>
</svg>