<?xml version="1.0" encoding="UTF-8"?>
<svg width="40px" height="40px" viewBox="0 0 40 40" version="1.1" xmlns="http://www.w3.org/2000/svg" xmlns:xlink="http://www.w3.org/1999/xlink">
    <defs>
        <linearGradient x1="6.93936077%" y1="6.42606613%" x2="92.7942929%" y2="93.3517321%" id="linearGradient-1">
            <stop stop-color="#1FABC7" offset="0%"></stop>
            <stop stop-color="#27BBE6" offset="100%"></stop>
        </linearGradient>
        <filter x="-66.7%" y="-66.7%" width="233.3%" height="233.3%" filterUnits="objectBoundingBox" id="filter-2">
            <feOffset dx="0" dy="2" in="SourceAlpha" result="shadowOffsetOuter1"></feOffset>
            <feGaussianBlur stdDeviation="3" in="shadowOffsetOuter1" result="shadowBlurOuter1"></feGaussianBlur>
            <feColorMatrix values="0 0 0 0 0.117647059   0 0 0 0 0.670588235   0 0 0 0 0.780392157  0 0 0 1 0" type="matrix" in="shadowBlurOuter1" result="shadowMatrixOuter1"></feColorMatrix>
            <feMerge>
                <feMergeNode in="shadowMatrixOuter1"></feMergeNode>
                <feMergeNode in="SourceGraphic"></feMergeNode>
            </feMerge>
        </filter>
    </defs>
    <g id="iconpro_language" stroke="none" stroke-width="1" fill="none" fill-rule="evenodd">
        <g id="编组-8" fill="url(#linearGradient-1)">
            <rect id="矩形备份-38" x="0" y="0" width="40" height="40" rx="6"></rect>
        </g>
        <g id="编组-4" filter="url(#filter-2)" transform="translate(8.000000, 8.000000)">
            <circle id="Oval-16" fill="#FFFFFF" cx="12" cy="12" r="12"></circle>
            <path d="M23.1246669,3.80239586 C23.0873228,3.15524576 23.0018303,2.52177994 22.8716417,1.90615438 C22.8831974,1.68633539 22.8863397,1.47807201 22.8804486,1.28445288 C23.0414342,2.03718954 23.126331,2.81812953 23.126331,3.61887745 C23.1263543,3.68019137 23.1256567,3.74132045 23.1246669,3.80239586 Z M0.873668377,3.61888341 C0.873668377,2.83272609 0.955523661,2.06570889 1.11085073,1.32566669 C1.59133904,1.83952178 2.72384925,1.82739973 3.00003925,1.05962524 C3.49421782,1.35412641 4.15831407,1.40775446 4.15831407,1.99639906 C4.15831407,3.93911937 4.22749872,6.02189038 5.99275949,6.05406484 C6.04246414,6.05471476 6.97721706,6.40829387 7.42207854,7.56195304 C7.57589704,7.96069323 8.18431405,7.56195304 8.85152877,7.56195304 C9.18461438,7.56195304 8.85152877,8.12306807 8.85152877,9.3364551 C8.85152877,10.5451376 11.4575591,12.4062173 11.4575591,12.4062173 C11.4454848,13.2062974 11.478333,13.8532329 11.544918,14.3700812 C10.9566786,14.359253 10.4609438,14.4372087 10.0714813,14.5697763 C4.84580179,13.6572585 0.873668377,9.10178317 0.873668377,3.61888341 Z" id="Shape" fill="#24B4D9" opacity="0.5" transform="translate(12.000000, 7.814701) scale(-1, -1) translate(-12.000000, -7.814701) "></path>
            <path d="M7.86105708,23.1270116 C7.80338036,22.8446325 7.55102903,22.6899972 7.09061695,22.8110032 C7.45798184,21.2466606 7.63657517,20.3703659 8.40348543,19.7050119 C9.51309309,18.7432068 8.53561778,17.6736329 7.69124079,17.7996833 C7.02571948,17.900154 7.44629509,16.9757169 6.8522898,16.9245872 C6.25828451,16.8748825 5.48254956,15.6934433 4.62765443,15.28691 C4.17448698,15.071712 3.72913059,14.4950106 3.03023631,14.4691745 C2.41078244,14.4451569 1.50550887,14.9929275 1.50550887,14.5706826 C1.50550887,13.2106323 1.36778952,12.2401278 1.33948481,11.8525497 C1.31662995,11.5411683 1.13593182,11.7476667 1.97332655,11.7677906 C2.42906988,11.7799962 2.20645429,10.8524406 2.65754673,10.8162175 C3.1005896,10.7811631 4.15630682,11.2309316 4.42527604,11.0516706 C4.67515286,10.8847462 6.26205883,15.2169502 6.26205883,11.7677668 C6.26205883,11.3585085 6.05009253,10.6469618 6.26205883,10.2593598 C7.1003599,8.72771045 7.88515807,7.479424 7.81467955,7.2968179 C7.77468208,7.1940099 6.95702968,7.10911969 6.30280162,7.32862862 C6.08201062,7.40235082 6.37302376,7.74814268 6.05591209,7.82199606 C4.86777633,8.09627193 3.81802773,7.50165276 4.18563112,6.94274391 C4.56205925,6.3699421 5.92596206,6.69287911 6.04552515,5.54376346 C6.11431627,4.88555267 6.1713192,4.123234 6.20946824,3.55666315 C7.80852013,3.8067068 7.63250266,1.4815303 5.25484778,1.23264935 C10.064996,1.28892482 14.1410883,4.39519635 15.6368372,8.70626276 C15.5611831,8.63726896 15.4731743,8.59532768 15.371529,8.58509579 C14.6526599,6.7895873 12.9077854,8.08900343 13.4996859,9.67268883 C10.3282232,12.11047 11.1400322,13.8107013 12.1820115,14.7843243 C12.7303071,15.2961282 13.2530527,16.0658525 13.5934128,16.6186556 C13.2229533,17.6987953 14.9583769,17.2662707 15.8142559,15.4332393 C14.7255891,19.2086094 11.6885664,22.1588146 7.86105708,23.1270116 Z" id="Path" fill="#24B4D9" opacity="0.7" transform="translate(8.560902, 12.179830) scale(-1, -1) translate(-8.560902, -12.179830) "></path>
        </g>
    </g>
</svg>