<?xml version="1.0" encoding="UTF-8"?>
<svg viewBox="0 0 40 40" version="1.1" xmlns="http://www.w3.org/2000/svg"
    xmlns:xlink="http://www.w3.org/1999/xlink">
    <defs>
        <linearGradient x1="6.93936077%" y1="6.42606613%" x2="92.7942929%" y2="93.3517321%"
            id="linearGradient-1">
            <stop stop-color="#1FABC7" offset="0%"></stop>
            <stop stop-color="#27BBE6" offset="100%"></stop>
        </linearGradient>
        <filter x="-69.6%" y="-90.5%" width="239.2%" height="281.0%" filterUnits="objectBoundingBox"
            id="filter-2">
            <feOffset dx="0" dy="2" in="SourceAlpha" result="shadowOffsetOuter1"></feOffset>
            <feGaussianBlur stdDeviation="3" in="shadowOffsetOuter1" result="shadowBlurOuter1"></feGaussianBlur>
            <feColorMatrix
                values="0 0 0 0 0.121568627   0 0 0 0 0.670588235   0 0 0 0 0.780392157  0 0 0 1 0"
                type="matrix" in="shadowBlurOuter1" result="shadowMatrixOuter1"></feColorMatrix>
            <feMerge>
                <feMergeNode in="shadowMatrixOuter1"></feMergeNode>
                <feMergeNode in="SourceGraphic"></feMergeNode>
            </feMerge>
        </filter>
    </defs>
    <g id="iconpro_transport" stroke="none" stroke-width="1" fill="none" fill-rule="evenodd">
        <rect id="矩形备份-46" fill="url(#linearGradient-1)" x="0" y="0" width="40" height="40" rx="6"></rect>
        <g id="编组-2" filter="url(#filter-2)" transform="translate(8.000000, 12.000000)"
            fill="#FFFFFF">
            <path
                d="M5.66119807,13.0786661 C6.82288169,13.0786661 7.96126488,14.2170493 7.96126488,15.3787329 C7.96126488,16.5404166 6.82288169,17.6787997 5.66119807,17.6787997 C4.49951445,17.6787997 3.36113126,16.5404166 3.36113126,15.3787329 C3.36113126,14.0555672 4.37873663,13.0786661 5.66119807,13.0786661 Z"
                id="形状结合-path" opacity="0.7"></path>
            <path
                d="M17.5953917,13.0786662 C18.7570754,13.0786662 19.8954585,14.2170493 19.8954585,15.378733 C19.8954585,16.5404166 18.7570754,17.6787998 17.5953917,17.6787998 C16.4337081,17.6787998 15.2953249,16.5404166 15.2953249,15.378733 C15.2953249,14.0555673 16.3129304,13.0786662 17.5953917,13.0786662 Z"
                id="形状结合-path" opacity="0.7"></path>
            <path
                d="M11.7263629,0 L21.8468534,0.0118167197 C22.4814745,0.0125576633 22.995544,0.527227731 22.995544,1.16184934 L22.995544,13.9197123 C22.995544,14.5548251 22.4806234,15.069699 21.8455106,15.0698303 L21.6069003,15.0690554 C21.432446,13.081362 19.6060104,11.3536161 17.5953917,11.3536161 C15.4535444,11.3536161 13.7344523,12.9546531 13.5813683,15.0704011 L9.67280722,15.070204 C9.49895587,13.0820275 7.67220395,11.3536159 5.66119807,11.3536159 C3.53026257,11.3536159 1.81778584,12.9383813 1.64963608,15.0381045 C0.764785485,14.8780774 0.0808132958,14.1371402 0.00667157379,13.2237926 L0,13.0587315 L0,9.44582875 C0,9.08510686 0.0969253673,8.73216356 0.279090509,8.42333796 L0.377222296,8.27276984 L4.05782761,3.87293565 C4.29783417,3.53834769 4.66808814,3.32479114 5.0727507,3.28146484 L8.15842376,3.27478916 C8.50140176,3.27404714 8.78647566,3.52366631 8.84066169,3.85140973 L8.84993622,3.96406117 L8.84993663,10.4252182 C8.84993663,10.9017635 9.23591689,11.2882572 9.71246164,11.2888907 C10.1881883,11.2895231 10.5743535,10.9043832 10.574986,10.4286566 L10.5749867,1.1500334 C10.5749867,0.560255057 11.0189458,0.0741689203 11.5909019,0.00773711424 L11.7250201,0 C11.7254677,0 11.7259153,0 11.7263629,0 Z"
                id="形状结合-path" fill-rule="nonzero"></path>
        </g>
    </g>
</svg>