<?xml version="1.0" encoding="UTF-8"?>
<svg width="40px" height="40px" viewBox="0 0 40 40" version="1.1" xmlns="http://www.w3.org/2000/svg" xmlns:xlink="http://www.w3.org/1999/xlink">
    <defs>
        <linearGradient x1="-3.47638585e-13%" y1="4.23272528e-14%" x2="100%" y2="100%" id="linearGradient-1">
            <stop stop-color="#2670F3" offset="0%"></stop>
            <stop stop-color="#2E94FF" offset="100%"></stop>
        </linearGradient>
    </defs>
    <g id="iconpro_purchase" stroke="none" stroke-width="1" fill="none" fill-rule="evenodd">
        <rect id="矩形备份-16" fill="url(#linearGradient-1)" x="0" y="0" width="40" height="40" rx="6"></rect>
        <rect id="矩形" fill="#D8D8D8" fill-rule="nonzero" opacity="0" x="8" y="8" width="24" height="24"></rect>
        <path d="M15.0017593,25 C13.6196818,25 12.5,26.1196819 12.5,27.5017593 C12.5,28.8826063 13.6184513,30 15.0017593,30 C16.3818133,30 17.5,28.8823424 17.5,27.5017593 C17.5,26.1199469 16.3805828,25 15.0017593,25 Z" id="形状结合-path备份-3" fill="#FFFFFF" opacity="0.7"></path>
        <path d="M9.78705059,9 C10.863688,9 11.8082709,9.67092154 12.133959,10.6450178 L12.1824264,10.8101113 L12.2783281,11.1905006 L30.2126136,11.1914091 C30.6820877,11.1914091 31.0384914,11.5811361 30.9966623,12.0163786 L30.9798104,12.1174704 L29.0606573,20.1800887 C28.7488131,21.4971305 27.569398,22.4478835 26.1822989,22.528068 L25.9919236,22.5335588 L15.1547357,22.5326503 L15.5382274,25 L27.0017593,25 C25.7915944,25 24.7826078,25.8584578 24.5503218,26.9998509 L17.4496957,26.9999267 C17.2175043,25.858661 16.2090749,25 15.0017593,25 C14.6319076,25 14.2808467,25.0801835 13.9650058,25.2241216 L10.6532137,11.1691347 C10.5653863,10.8229936 10.2667809,10.5693858 9.90848576,10.5221257 L9.78705059,10.5141709 C9.35237456,10.5141709 9,10.1752122 9,9.75708546 C9,9.33895871 9.35237456,9 9.78705059,9 Z" id="形状结合" fill="#FFFFFF" fill-rule="nonzero"></path>
        <path d="M27.0017593,25 C25.6196818,25 24.5,26.1196819 24.5,27.5017593 C24.5,28.8826063 25.6184513,30 27.0017593,30 C28.3818133,30 29.5,28.8823424 29.5,27.5017593 C29.5,26.1199469 28.3805828,25 27.0017593,25 Z" id="形状结合-path备份-5" fill="#FFFFFF" opacity="0.7"></path>
    </g>
</svg>