<?xml version="1.0" encoding="UTF-8"?>
<svg width="40px" height="40px" viewBox="0 0 40 40" version="1.1" xmlns="http://www.w3.org/2000/svg" xmlns:xlink="http://www.w3.org/1999/xlink">
    <defs>
        <linearGradient x1="-3.47638585e-13%" y1="4.23272528e-14%" x2="100%" y2="100%" id="linearGradient-1">
            <stop stop-color="#2670F3" offset="0%"></stop>
            <stop stop-color="#2E94FF" offset="100%"></stop>
        </linearGradient>
        <filter x="-72.7%" y="-72.7%" width="245.5%" height="245.5%" filterUnits="objectBoundingBox" id="filter-2">
            <feOffset dx="0" dy="2" in="SourceAlpha" result="shadowOffsetOuter1"></feOffset>
            <feGaussianBlur stdDeviation="3" in="shadowOffsetOuter1" result="shadowBlurOuter1"></feGaussianBlur>
            <feColorMatrix values="0 0 0 0 0.149019608   0 0 0 0 0.447058824   0 0 0 0 0.952941176  0 0 0 1 0" type="matrix" in="shadowBlurOuter1" result="shadowMatrixOuter1"></feColorMatrix>
            <feMerge>
                <feMergeNode in="shadowMatrixOuter1"></feMergeNode>
                <feMergeNode in="SourceGraphic"></feMergeNode>
            </feMerge>
        </filter>
    </defs>
    <g id="iconpro_customs" stroke="none" stroke-width="1" fill="none" fill-rule="evenodd">
        <rect id="矩形备份-44" fill="url(#linearGradient-1)" x="0" y="0" width="40" height="40" rx="6"></rect>
        <g id="编组-9" filter="url(#filter-2)" transform="translate(9.000000, 9.000000)" fill="#FFFFFF">
            <path d="M16.0737622,18.4345798 C16.8262444,19.4596992 18.1535656,20.1065531 19.6240986,20.1065531 C20.0459496,20.1065531 20.4584708,20.0537686 20.8525493,19.9512648 C21.3424236,19.8238434 21.8428408,20.1176697 21.9702621,20.607544 C22.0976835,21.0974185 21.8038572,21.5978355 21.3139828,21.7252569 C20.7692413,21.8669497 20.2016611,21.9395749 19.6240986,21.9395749 C17.9872955,21.9395749 16.4558088,21.3521419 15.3435704,20.3456722 C14.2289702,21.3849934 12.6723984,21.9931929 11.0068905,21.9931929 C9.397099,21.9931929 7.88907852,21.4250047 6.78155226,20.448577 L6.67993843,20.3555492 C5.56630531,21.3610336 4.03690637,21.9450587 2.40443477,21.9450587 C1.81509637,21.9450587 1.23618126,21.8694408 0.681370469,21.7220172 C0.192171258,21.5920277 -0.099025808,21.0900762 0.030963628,20.6008769 C0.160953052,20.1116778 0.662904619,19.8204807 1.15210383,19.9504701 C1.55334705,20.057088 1.97402483,20.1120369 2.40443477,20.1120369 C3.81532494,20.1120369 5.09653789,19.5169138 5.86483365,18.5573315 C5.9215206,18.4865309 5.9865686,18.4263665 6.05743449,18.3771198 L6.17998701,18.3017375 C6.5872947,18.0012153 7.16110415,18.0877821 7.46162631,18.4950898 C8.21516622,19.5163874 9.5398303,20.1601711 11.0068905,20.1601711 C12.3822069,20.1601711 13.6323819,19.5943892 14.4041931,18.6821941 L14.5732301,18.4667576 C14.6308884,18.3806569 14.7042404,18.3029441 14.7926012,18.2380834 C15.200645,17.9385615 15.7742403,18.0265359 16.0737622,18.4345798 Z" id="形状结合-path" fill-rule="nonzero"></path>
            <path d="M10.2728126,9.02756639 C10.1770305,9.15146938 10.1122812,9.3005813 10.0902127,9.46325379 L10.081846,9.58761894 L10.0810797,18.82066 C9.5473854,18.6812287 9.07561937,18.4237785 8.71926759,18.0811473 L8.57376758,17.9291859 L8.44495405,17.7695651 L8.32235592,17.6181238 C7.6388862,16.8476778 6.49662287,16.6753523 5.61628108,17.2098765 L5.45446233,17.3184097 L5.4171928,17.33625 L5.26119953,17.4500593 L5.12810417,17.5620907 L5.12810417,17.5620907 L5.01298147,17.6755301 L4.91090619,17.7935633 L4.77968206,17.9443568 C4.22779969,18.529182 3.35854558,18.8900224 2.40443477,18.8900224 C2.24294268,18.8900224 2.08337739,18.8798219 1.92665418,18.8596486 L1.69381534,18.8219377 L1.64576865,18.8105277 L1.40675532,18.2211158 L0.183691943,14.6089493 C-0.201854615,13.4702852 0.35886434,12.239516 1.44354446,11.7713299 L1.61910242,11.7038676 L10.2728126,9.02756639 Z" id="形状结合-path" fill-rule="nonzero"></path>
            <path d="M11.7177891,9.01974733 L20.3202593,11.4973757 C21.4167565,11.8132597 22.1042019,12.8823358 21.9581391,13.9952267 L21.9260047,14.1809926 L21.0541579,18.209624 L20.8900533,18.7091005 L20.7254809,18.7297503 L20.5449269,18.7686034 L20.3211321,18.8190865 C20.0948776,18.8624828 19.8615668,18.8845386 19.6240986,18.8845386 C18.7140118,18.8845386 17.8827075,18.5559004 17.3309169,18.0221838 L17.1875095,17.871633 L17.0588672,17.71147 L16.9366409,17.5597283 C16.2124651,16.7393502 14.9686991,16.592921 14.0694914,17.2529785 C13.9182335,17.3640083 13.7833496,17.4933664 13.6674006,17.6376583 L13.557858,17.7868025 L13.4427925,17.9278543 L13.3057061,18.0755467 C12.9556148,18.4211467 12.4698577,18.6855819 11.9156124,18.8259236 L11.9148678,9.58761894 L11.9065012,9.46325379 C11.8839665,9.29714451 11.8169285,9.14517502 11.7177891,9.01974733 Z" id="形状结合-path" fill-rule="nonzero"></path>
            <path d="M12.2203714,-6.17453184e-14 C13.0112699,-6.17453184e-14 13.661779,0.601077976 13.7400032,1.37133829 L13.7478896,1.52751815 L13.7476633,2.96216319 L15.886415,2.96332518 C17.8388043,2.96332518 19.4347308,4.48952352 19.5462352,6.41396084 L19.5524586,6.62936874 L19.5524586,10.0033509 L11.97872,7.82259313 L11.6468247,7.74420216 L11.3662248,7.70379238 C10.9907844,7.66511025 10.6113382,7.68716236 10.2425689,7.76927458 L9.96822338,7.84210946 L2.44410174,10.1695448 L2.44410174,6.62936874 C2.44410174,4.67697951 3.97045362,3.081053 5.89489095,2.96954854 L6.11029885,2.96332518 L8.24859801,2.96216319 L8.24882426,1.52751815 C8.24882426,0.736619733 8.84990229,0.0861105973 9.6201626,0.00788640512 L9.77634241,-6.17453184e-14 L12.2203714,-6.17453184e-14 Z" id="形状结合-path" opacity="0.7"></path>
        </g>
    </g>
</svg>