<svg xmlns="http://www.w3.org/2000/svg" xmlns:xlink="http://www.w3.org/1999/xlink" viewBox="0 0 26 26" version="1.1">
    <g id="页面-1" stroke="none" stroke-width="1" fill-rule="evenodd">
        <g id="0830-给开发（已合并已轮廓化）" transform="translate(-1095.000000, -2641.000000)">
            <g id="ic_public_home" transform="translate(1096.000000, 2642.000000)">
                <path d="M0.00291621452,11.9902281 C0.00291621452,10.1155171 -0.00364526815,8.24080602 0.00291621452,6.36609498 C-0.000855476148,5.458924 0.110645142,4.55494944 0.334739841,3.67588464 C0.825913793,1.81523393 2.03791364,0.711029125 3.89668835,0.282657653 C4.82870208,0.0812877063 5.78065248,-0.0130582937 6.73406154,0.00145099696 C10.3291299,0.00145099696 13.9245108,0.00145099696 17.520204,0.00145099696 C18.4282917,-0.00418604304 19.3337475,0.0996723569 20.216974,0.310778319 C22.13199,0.779456079 23.2811871,1.99239413 23.7189318,3.90084997 C23.9157326,4.80281845 24.0097548,5.72417301 23.999201,6.64730165 C23.999201,10.2811165 23.999201,13.9152439 23.999201,17.5496837 C24.0041104,18.4490183 23.9005666,19.3456644 23.6908112,20.2202096 C23.2221338,22.1361643 22.0035724,23.279738 20.0951179,23.717483 C19.1629846,23.9180909 18.2111214,24.0124282 17.2577447,23.9986897 C13.677674,23.9986897 10.0979157,23.9986897 6.51846992,23.9986897 C5.60344091,24.0061581 4.69081717,23.9038813 3.8001408,23.6940492 C1.8766886,23.2253714 0.721867404,22.0068092 0.285060033,20.0889798 C0.0619695745,19.1141301 0.00291621452,18.1364683 0.00291621452,17.1503703 C0.00291621452,15.4306354 0.00291621452,13.7105879 0.00291621452,11.9902281 Z" id="path2" stroke="" stroke-width="1.5" opacity="0"/>
                <path d="M13.7186831,0.554350352 L13.8476367,0.674964043 L22.9000364,9.81356013 C23.5504747,10.4701919 23.9373509,11.3394642 23.9930216,12.2569564 L24,12.4872388 L24,20.2013827 C24,22.2316263 22.4077356,23.8898642 20.4042112,23.9947346 L20.2025316,24 L15.5483544,24 C15.1288977,24 14.7888608,23.6598602 14.7888608,23.2402765 C14.7888608,22.8556582 15.0745862,22.5377947 15.4452956,22.4874884 L15.5483544,22.4805531 L20.2025316,22.4805531 C21.4084699,22.4805531 22.3955898,21.5433971 22.4757561,20.3574287 L22.4810127,20.2013827 L22.4810127,12.4872388 C22.4810127,11.9531486 22.2936007,11.4382635 21.9550183,11.0306755 L21.8210345,10.8830316 L12.7686348,1.74443552 C12.5027673,1.47603642 12.0857505,1.44721105 11.7874631,1.66099961 L11.7018086,1.73241763 L2.21549263,10.8871832 C1.814909,11.2737663 1.57120662,11.7920036 1.52647198,12.342782 L1.51898734,12.5274441 L1.51898734,20.2013827 C1.51898734,21.4076858 2.45585984,22.3951044 3.64146956,22.475295 L3.79746835,22.4805531 L7.696,22.48 L7.69620253,16.3014689 C7.69620253,13.923828 9.62307832,11.9963692 12,11.9963692 C14.3070122,11.9963692 16.1900625,13.8121155 16.2988345,16.0928829 L16.3037975,16.3014689 L16.3037975,20.2013827 C16.3037975,20.6209664 15.9637606,20.9611061 15.5443038,20.9611061 C15.1598018,20.9611061 14.8420345,20.6752942 14.7917434,20.3044726 L14.7848101,20.2013827 L14.7848101,16.3014689 C14.7848101,14.7629954 13.5380081,13.5158162 12,13.5158162 C10.5189551,13.5158162 9.30794504,14.6723226 9.2202722,16.1317747 L9.21518987,16.3014689 L9.21518987,23.2402765 C9.21518987,23.6344 8.91516757,23.9584284 8.53111812,23.996301 L8.45164557,24 L3.79746835,24 C1.76783881,24 0.110102537,22.4072539 0.00526380695,20.4031233 L0,20.2013827 L0,12.5274441 C0,11.5700076 0.361298391,10.6507662 1.00685629,9.95114567 L1.16084216,9.79367594 L10.6471582,0.638910353 C11.5015211,-0.185592286 12.8356605,-0.210283421 13.7186831,0.554350352 Z"/>
            </g>
        </g>
    </g>
</svg>