<svg xmlns="http://www.w3.org/2000/svg" xmlns:xlink="http://www.w3.org/1999/xlink" viewBox="0 0 26 26" version="1.1">
    <g id="页面-1" stroke="none" stroke-width="1" fill-rule="evenodd">
        <g id="0830-给开发（已合并已轮廓化）" transform="translate(-1095.000000, -2673.000000)">
            <g id="ic_public_notice" transform="translate(1096.000000, 2674.000000)">
                <path d="M0.00291621452,11.9902281 C0.00291621452,10.1155171 -0.00364526815,8.24080602 0.00291621452,6.36609498 C-0.000855476148,5.458924 0.110645142,4.55494944 0.334739841,3.67588464 C0.825913793,1.81523393 2.03791364,0.711029125 3.89668835,0.282657653 C4.82870208,0.0812877063 5.78065248,-0.0130582937 6.73406154,0.00145099696 C10.3291299,0.00145099696 13.9245108,0.00145099696 17.520204,0.00145099696 C18.4282917,-0.00418604304 19.3337475,0.0996723569 20.216974,0.310778319 C22.13199,0.779456079 23.2811871,1.99239413 23.7189318,3.90084997 C23.9157326,4.80281845 24.0097548,5.72417301 23.999201,6.64730165 C23.999201,10.2811165 23.999201,13.9152439 23.999201,17.5496837 C24.0041104,18.4490183 23.9005666,19.3456644 23.6908112,20.2202096 C23.2221338,22.1361643 22.0035724,23.279738 20.0951179,23.717483 C19.1629846,23.9180909 18.2111214,24.0124282 17.2577447,23.9986897 C13.677674,23.9986897 10.0979157,23.9986897 6.51846992,23.9986897 C5.60344091,24.0061581 4.69081717,23.9038813 3.8001408,23.6940492 C1.8766886,23.2253714 0.721867404,22.0068092 0.285060033,20.0889798 C0.0619695745,19.1141301 0.00291621452,18.1364683 0.00291621452,17.1503703 C0.00291621452,15.4306354 0.00291621452,13.7105879 0.00291621452,11.9902281 Z" id="path2" stroke-opacity="0" stroke="#FFFFFF" stroke-width="1.5" opacity="0"/>
                <path d="M16,22.002399 C15.0877385,23.2161634 13.6358143,24.0011995 12.0005351,24.0011995 C10.3652558,24.0011995 8.91333162,23.2161634 8.00107011,22.002399 L16,22.002399 Z M11.7108478,0.5 C12.0905436,0.5 12.4043388,0.782153882 12.4540012,1.14822944 L12.4608478,1.25 L12.4602313,1.94581597 C15.462586,2.2488804 17.9900412,4.35356307 18.8041924,7.24575704 C18.9348781,7.69229487 19.0194355,8.16145441 19.0564993,8.65138084 L19.0753707,9.02269047 L19.0811164,9.67254967 C19.1397307,13.9119841 20.0474203,16.9193832 21.7559391,18.7127345 C22.2243126,19.2003348 22.2050418,19.9752147 21.7152453,20.4401945 C21.5215884,20.6240393 21.2739532,20.7384393 21.0096633,20.7679188 L20.8763033,20.7755102 L2.90664838,20.7755102 C2.23264781,20.7734941 1.68789046,20.2254823 1.68988135,19.5514611 C1.69075218,19.2646046 1.79263547,18.987111 1.97628853,18.7701511 C3.48328767,16.9762591 4.28709427,13.9511712 4.34074297,9.68802026 L4.34361841,9.22651629 L4.34417583,9.11876064 L4.35507232,8.81821757 C4.38347161,8.27267705 4.47054923,7.75148093 4.61217581,7.26466799 C5.42446971,4.36047661 7.95413343,2.24993233 10.9602216,1.9459443 L10.9608478,1.25 C10.9608478,0.835786438 11.2966343,0.5 11.7108478,0.5 Z M11.7108478,3.40816326 C9.05740444,3.40816326 6.75533599,5.17100298 6.05461525,7.67613942 C5.97123822,7.96281515 5.9121645,8.2633035 5.87836124,8.57768767 L5.8530173,8.89670686 L5.84565051,9.07443278 L5.84064719,9.70756775 C5.79121531,13.6540194 5.12326016,16.68343 3.80553856,18.7944014 L3.64429108,19.0433094 L3.482,19.275 L20.254,19.275 L20.0981331,19.0784794 C18.5264063,17.0316906 17.7007009,14.0500849 17.590762,10.146724 L17.5812515,9.69224633 L17.575874,9.06153445 C17.5627366,8.56491611 17.4911833,8.09967237 17.362447,7.65965375 C16.6605541,5.16636372 14.3607811,3.40816326 11.7108478,3.40816326 Z" id="形状结合"/>
            </g>
        </g>
    </g>
</svg>