<?xml version="1.0" encoding="UTF-8"?>
<svg viewBox="0 0 24 20" version="1.1" xmlns="http://www.w3.org/2000/svg" xmlns:xlink="http://www.w3.org/1999/xlink">
    <g id="页面-1">
        <g id="0825-线形图标" transform="translate(-43.000000, -39.000000)" fill-rule="nonzero">
            <g id="编组" transform="translate(43.000000, 37.000000)">
                <path d="M0.00291621452,11.9902281 C0.00291621452,10.1155171 -0.00364526815,8.24080603 0.00291621452,6.36609499 C-0.000855476148,5.458924 0.110645142,4.55494944 0.334739841,3.67588465 C0.825913793,1.81523393 2.03791364,0.711029125 3.89668835,0.282657653 C4.82870208,0.0812877063 5.78065248,-0.0130582937 6.73406154,0.00145099696 C10.3291299,0.00145099696 13.9245108,0.00145099696 17.520204,0.00145099696 C18.4282917,-0.00418604304 19.3337475,0.099672357 20.216974,0.31077832 C22.13199,0.77945608 23.2811871,1.99239413 23.7189318,3.90084997 C23.9157326,4.80281845 24.0097548,5.72417302 23.999201,6.64730166 C23.999201,10.2811165 23.999201,13.9152439 23.999201,17.5496837 C24.0041104,18.4490183 23.9005666,19.3456644 23.6908112,20.2202096 C23.2221338,22.1361643 22.0035724,23.279738 20.0951179,23.717483 C19.1629846,23.9180909 18.2111214,24.0124282 17.2577447,23.9986897 C13.677674,23.9986897 10.0979157,23.9986897 6.51846992,23.9986897 C5.60344091,24.0061581 4.69081717,23.9038813 3.8001408,23.6940492 C1.8766886,23.2253714 0.721867404,22.0068092 0.285060033,20.0889798 C0.0619695745,19.1141301 0.00291621452,18.1364683 0.00291621452,17.1503703 C0.00291621452,15.4306354 0.00291621452,13.710588 0.00291621452,11.9902281 Z" id="ic_public_calculate_2_0" stroke-opacity="0" stroke="#FFFFFF" stroke-width="0.75" fill-opacity="0" fill="#FFFFFF"></path>
                <path d="M8.25,16 L8.25,19.3654221 C8.25,20.6923964 9.37056964,21.75 10.731895,21.75 C11.4935124,21.75 12.2156214,21.4140445 12.6873347,20.8342344 L14.5817821,18.5056592 C14.8999137,18.1146252 14.7494078,17.5273631 14.282413,17.3375445 L9.28241298,15.305203 C8.78921614,15.1047341 8.25,15.4676177 8.25,16 Z M9.75,17.114 L12.778,18.345 L11.5237705,19.8875992 C11.3398978,20.1136077 11.0467336,20.25 10.731895,20.25 C10.1802219,20.25 9.75,19.8439527 9.75,19.3654221 L9.75,17.114 Z" id="path6" ></path>
                <path d="M22.5333586,2.47271586 C22.8245696,2.7672817 22.82185,3.24214764 22.5272841,3.53335863 L9.54883516,16.3639943 C9.25426932,16.6552053 8.77940337,16.6524857 8.48819238,16.3579198 C8.22345512,16.0901327 8.20163573,15.6733372 8.42116816,15.3809782 L8.49426688,15.2972771 L21.4727159,2.46664137 C21.7672817,2.17543037 22.2421476,2.17815002 22.5333586,2.47271586 Z" id="路径" ></path>
                <path d="M21.2754671,2.34951741 C22.2573684,2.01613441 23.3213853,2.54584623 23.6519081,3.53002098 C23.7299851,3.76250543 23.7617642,4.00748777 23.7461276,4.25112368 L23.7254922,4.43338184 L21.4029885,18.6990638 C21.1860833,20.0313763 19.9338441,20.9362448 18.6049627,20.7175207 C18.4740979,20.6959813 18.345319,20.6637694 18.2198961,20.6212612 L18.0344376,20.5498238 L8.72358103,16.5189044 C8.34346069,16.3543402 8.16871798,15.912786 8.33328226,15.5326657 C8.48413285,15.1842221 8.86773185,15.0083527 9.2234069,15.1082173 L9.31952101,15.1423669 L18.6303865,19.1732901 C18.7002757,19.2035481 18.7735457,19.2250859 18.8485739,19.237435 C19.3209571,19.3151858 19.7696835,19.0208713 19.898554,18.5658047 L19.9224806,18.4580319 L22.2449844,4.19234976 C22.2550658,4.13042599 22.2498961,4.06694333 22.229955,4.00756621 C22.1716542,3.83396809 22.0025299,3.73169926 21.831043,3.7530228 L21.7577202,3.76988071 L2.38800528,10.346442 C2.13669131,10.4317701 1.93274423,10.6208751 1.8273067,10.8670886 C1.63729304,11.3108009 1.81059223,11.8196318 2.21660195,12.0590568 L2.32287693,12.1131068 L6.13046523,13.7970911 C6.50928337,13.9646313 6.68055804,14.4075421 6.51301792,14.7863603 C6.35943947,15.1336102 5.97447309,15.306466 5.61959212,15.2038153 L5.52374877,15.168913 L1.72153979,13.4872826 C0.486784138,12.9527048 -0.0821362496,11.5155382 0.448421847,10.2766002 C0.696442635,9.69743202 1.15670168,9.23892284 1.73035356,8.99329004 L1.90575206,8.92607871 L21.2754671,2.34951741 Z" id="路径" ></path>
            </g>
        </g>
    </g>
</svg>