<svg viewBox="0 0 24 24" xmlns="http://www.w3.org/2000/svg"
	xmlns:xlink="http://www.w3.org/1999/xlink">
	<defs />
	<g opacity="0.000000" />
	<path id="矢量 229"
		d="M8.77097 14.282C8.76096 14.2957 8.66602 14.4071 8.65692 14.4216L8.58801 14.5619L8.54593 14.7458L8.25195 18.8113C8.25 20.1924 9.37057 21.25 10.7319 21.25L10.9214 21.243C11.6121 21.1923 12.2549 20.8657 12.6873 20.3342L14.6117 17.8699L17.4662 19.0693L17.6389 19.1338C17.7556 19.1722 17.8753 19.2013 17.9969 19.2207C19.2353 19.4186 20.4094 18.5951 20.6149 17.3698L22.7263 4.78247L22.7462 4.61102C22.7614 4.38184 22.7306 4.15143 22.6551 3.93311C22.4142 3.237 21.7737 2.79016 21.074 2.75366L20.9581 2.75C20.7783 2.75201 20.596 2.78125 20.4167 2.84033L2.80789 8.64319L2.62769 8.71106C2.09811 8.9361 1.67145 9.35181 1.43915 9.8783C0.93396 11.0233 1.47488 12.3496 2.63629 12.8376L6.09244 14.3212C6.44843 14.42 6.9277 14.2768 7.07748 13.9279C7.24088 13.5472 7.06476 13.1063 6.68414 12.9429L3.22269 11.457C2.89191 11.2648 2.66095 10.825 2.81152 10.4838C2.89731 10.2894 3.0661 10.1375 3.27737 10.0678L18.2197 5.14288L8.77097 14.282ZM10.6307 14.5689L21.1983 4.3526C21.2107 4.38849 21.2531 4.49731 21.2469 4.5343L19.1356 17.1217C19.0242 17.4727 18.6298 17.8028 18.2336 17.7395C18.1694 17.7292 18.1068 17.7114 18.0473 17.6864L14.7329 16.2921L10.6307 14.5689ZM9.96368 15.9159L9.75 18.8654C9.75 19.3439 10.1802 19.75 10.7319 19.75C11.0468 19.75 11.3399 19.6136 11.5145 19.3993L13.1787 17.2669L9.96368 15.9159Z"
		fill-rule="evenodd" />
</svg>