<svg viewBox="0 0 24 24" xmlns="http://www.w3.org/2000/svg"
	xmlns:xlink="http://www.w3.org/1999/xlink">
	<defs />
	<g opacity="0.000000" />
	<path id="矢量 106"
		d="M12.7432 1.39822C12.6935 1.03217 12.3797 0.75 12 0.75C11.5858 0.75 11.25 1.08578 11.25 1.5L11.25 2.77448C8.48041 3.00629 6.13367 4.86472 5.38275 7.44339C5.27887 7.78638 5.20685 8.14944 5.16888 8.52734L5.14227 8.89606L5.13739 9.03082L5.13629 9.16898C5.13629 13.0392 4.41833 15.757 3.03497 17.3387C2.85309 17.5451 2.75092 17.8124 2.75 18.0902C2.74805 18.7358 3.27832 19.2482 3.91962 19.25L20.0783 19.25C20.3736 19.2492 20.657 19.1401 20.8737 18.9426C21.3587 18.5004 21.3781 17.7494 20.9133 17.2845C19.4025 15.7614 18.5957 13.2018 18.54 9.58221L18.5344 8.99359C18.5193 8.4422 18.4354 7.9184 18.2852 7.4256C17.5629 4.96075 15.3723 3.15396 12.75 2.80957L12.75 1.5L12.7432 1.39822ZM16.8481 7.85516C16.2299 5.74591 14.1927 4.25 11.8366 4.25C9.47742 4.25 7.43823 5.74985 6.82068 7.87042C6.72357 8.19101 6.66418 8.53241 6.64441 8.89789L6.63293 9.63889C6.58154 13.1538 5.93811 15.8345 4.66858 17.676L19.324 17.75L19.1157 17.478C17.7751 15.6357 17.0928 13.0063 17.0402 9.60553L17.0364 9.1058L17.022 8.78662C16.9965 8.46091 16.9384 8.15161 16.8481 7.85516ZM11.9539 22.4998C10.4218 22.4845 9.05304 21.709 8.14465 20.5001L15.8553 20.5002C14.9469 21.7091 13.486 22.4846 11.9539 22.4998Z"
		fill-rule="evenodd" />
</svg>