<svg width="24.000000" height="24.000000" viewBox="0 0 24 24" xmlns="http://www.w3.org/2000/svg" xmlns:xlink="http://www.w3.org/1999/xlink">
	<g clip-path="url(#clip131_1891)">
		<path id="矢量 167" d="M15.5 2L8.5 2C7.94769 2 7.5 2.44775 7.5 3L7.5 4C7.5 4.55225 7.94769 5 8.5 5L15.5 5C16.0523 5 16.5 4.55225 16.5 4L16.5 3C16.5 2.44775 16.0523 2 15.5 2ZM6 3.5C5.95886 3.65991 6 3.82739 6 4L6 4.5C6 5.60449 6.89545 6.5 8 6.5L16 6.5C17.1046 6.5 18 5.60449 18 4.5L18 4C18 3.82739 17.9781 3.65991 17.937 3.5C19.5939 3.5 21 4.84326 21 6.5L21 19C21 20.6567 19.6569 22 18 22L6 22C4.34314 22 3 20.6567 3 19L3 6.5C3 4.84326 4.34314 3.5 6 3.5ZM6.74994 8.25L7.90497 8.25C7.98743 8.25 8.06854 8.25732 8.14832 8.27197C8.22998 8.28711 8.31061 8.30981 8.38947 8.34033C8.45349 8.36499 8.51501 8.39429 8.57391 8.42773C8.65253 8.47241 8.72681 8.52539 8.79639 8.58618C8.91187 8.68677 9.00702 8.7998 9.08167 8.9248C9.16687 9.06738 9.22546 9.22632 9.25745 9.40088L9.37653 10L17.0589 10C17.4052 10 17.655 10.3315 17.5597 10.6643L16.738 13.5332C16.6064 14.1016 16.1345 14.5 15.593 14.5L10.2711 14.5L10.4265 15.2815C10.4471 15.3943 10.4894 15.4895 10.5531 15.5669C10.6093 15.616 10.7332 15.7148 10.798 15.7332C10.8373 15.7444 10.8782 15.75 10.9206 15.75L15.7499 15.75C16.1699 15.75 16.4999 16.0801 16.4999 16.5C16.4999 16.9199 16.1699 17.25 15.7499 17.25L10.9206 17.25C10.8021 17.25 10.6856 17.2395 10.571 17.2185C10.4525 17.1968 10.3359 17.1638 10.2215 17.1199C10.1345 17.0862 10.0507 17.0469 9.97003 17.002C9.84991 16.9351 9.73663 16.855 9.63068 16.7627C9.55853 16.6997 9.49139 16.6326 9.42932 16.5608C9.341 16.459 9.26282 16.3481 9.19482 16.2288C9.11456 16.0876 9.05188 15.9412 9.00684 15.7896C8.98578 15.7188 8.96863 15.647 8.95526 15.574L7.79767 9.75L6.74994 9.75C6.32996 9.75 5.99994 9.41992 5.99994 9C5.99994 8.58008 6.32996 8.25 6.74994 8.25ZM10.4999 18.75C10.4999 18.3357 10.8358 18 11.2499 18C11.6642 18 11.9999 18.3357 11.9999 18.75C11.9999 19.1643 11.6642 19.5 11.2499 19.5C10.8358 19.5 10.4999 19.1643 10.4999 18.75ZM14.9999 18C14.5858 18 14.2499 18.3357 14.2499 18.75C14.2499 19.1643 14.5858 19.5 14.9999 19.5C15.4142 19.5 15.7499 19.1643 15.7499 18.75C15.7499 18.3357 15.4142 18 14.9999 18Z" fill-opacity="1.000000" fill-rule="evenodd"/>
	</g>
</svg>
