<svg viewBox="0 0 24 24" xmlns="http://www.w3.org/2000/svg"
	xmlns:xlink="http://www.w3.org/1999/xlink">
	<defs />
	<g opacity="0.000000" />
	<path id="矢量 242"
		d="M15.3301 2.96704C14.377 2.01099 12.8308 2.01099 11.8777 2.96704L11.7269 3.11829C10.9373 3.9104 10.6245 5.05573 10.8907 6.13275L10.9732 6.42224C11.1253 6.98749 10.9603 7.60968 10.5353 8.03601L10.1876 8.38483C9.81183 8.76111 9.26007 8.89832 8.75336 8.74152L8.61194 8.69983C8.20752 8.58612 7.73401 8.49249 7.18036 8.41486C6.56409 8.32837 5.84412 8.31018 5.01752 8.35785C4.29993 8.39697 3.62 8.70209 3.1098 9.21356L2.97778 9.3548C1.96558 10.5104 2.00916 12.271 3.10883 13.3746L6.33704 16.613L2.46967 20.4697C2.25183 20.7633 2.20337 21.264 2.46967 21.5303C2.76257 21.8232 3.23743 21.8232 3.53033 21.5303L7.31982 17.7408L10.5981 20.8871C11.1074 21.3979 11.7863 21.7032 12.5056 21.745C14.1259 21.8391 15.514 20.5983 15.6057 18.9753C15.6532 18.1474 15.6351 17.4257 15.549 16.8079C15.4762 16.2861 15.3894 15.8353 15.287 15.453L15.1997 15.1462C15.078 14.6711 15.2204 14.1471 15.5795 13.7863L15.9644 13.4002C16.4011 12.9622 17.0198 12.7678 17.6212 12.8708L17.9095 12.9366C19.054 13.1873 20.2322 12.8416 21.0502 12.021L21.1493 11.9176C21.977 10.986 21.9392 9.59668 21.0757 8.73047L15.3301 2.96704ZM12.94 4.02606C13.3069 3.65796 13.9009 3.65796 14.2678 4.02606L20.0134 9.78949C20.3163 10.0933 20.3296 10.5823 20.0464 10.9013C19.6008 11.348 18.8748 11.6125 18.246 11.4749L17.9475 11.4049C16.9207 11.2023 15.8452 11.4952 15.0526 12.1992L11.7704 8.90723C12.4447 8.11267 12.6907 7.03156 12.4171 6.01599L12.3819 5.89551C12.1863 5.2793 12.3455 4.62244 12.7892 4.17731L12.94 4.02606ZM6.97192 9.90027C6.4621 9.82874 5.83844 9.81299 5.10156 9.85547C4.75195 9.87457 4.42102 10.0231 4.17188 10.2728C3.60956 10.8366 3.60938 11.7518 4.17126 12.3157L11.6604 19.8281C11.9095 20.0779 12.2412 20.2272 12.5925 20.2476C13.384 20.2935 14.0631 19.6865 14.1081 18.8901C14.1504 18.153 14.1347 17.527 14.0634 17.0151C13.999 16.554 13.9243 16.1651 13.838 15.8416L13.7514 15.5363C13.5571 14.779 13.6743 13.9856 14.0579 13.3254L10.6494 9.90723C9.95105 10.3143 9.10571 10.4208 8.31995 10.1775L8.19745 10.1414C7.8728 10.0502 7.4635 9.96924 6.97192 9.90027Z"
		fill-rule="evenodd" />
</svg>