<?xml version="1.0" encoding="UTF-8"?>
<svg viewBox="0 0 24 24" version="1.1" xmlns="http://www.w3.org/2000/svg" xmlns:xlink="http://www.w3.org/1999/xlink">
    <g id="S12组件" stroke="none" stroke-width="1">
        <g id="Pushpin">
            <path d="M12.6792271,4.24163624 C13.6061725,3.31291882 15.0767263,3.23768338 16.0943496,4.06624175 L16.0943496,4.06624175 L16.1580081,4.12168776 L20.5836887,8.53818813 C21.064928,9.01975574 21.3319174,9.66355801 21.3333169,10.3456662 C21.3336229,11.0271569 21.06733,11.6710588 20.5862966,12.1524202 C19.9426294,12.7969971 19.2973644,12.9163022 18.2537865,12.8716122 L18.2537865,12.8716122 L17.9072099,12.8665393 C17.6706824,12.8665393 17.2663099,13.1035845 16.8281777,13.580316 C16.2077696,14.2555406 15.749243,15.2088492 15.7724043,15.4876753 L15.7724043,15.4876753 L15.8137034,15.8794019 L15.8697119,16.1384052 C16.0895535,17.261047 15.9090674,18.2407384 15.4267771,19.0514201 C15.0925278,19.6132598 14.6795351,20.0002745 14.2974088,20.241422 C13.6791167,20.6146389 12.8964796,20.5233518 12.388219,20.0155256 L12.388219,20.0155256 L9.01750163,16.6426117 L5.68637709,19.9746187 C5.39348392,20.2675119 4.91861014,20.2675119 4.62571692,19.9746187 C4.35723146,19.7061333 4.33485769,19.2847336 4.5585956,18.9907624 L4.62571692,18.9139585 L7.95650163,15.5816117 L4.81878321,12.4409247 C4.35709847,11.9789249 4.23983967,11.2799793 4.52012366,10.6726155 L4.59188573,10.5342298 C4.8325472,10.1536943 5.22443053,9.73689239 5.79626547,9.40065611 C6.67937195,8.88139363 7.76271006,8.71620839 8.92554377,9.00994177 L8.92554377,9.00994177 L9.17081873,9.0328909 C9.25716792,9.04170753 9.33025675,9.05113816 9.41290519,9.06450468 C9.65131672,9.10319749 10.3644874,8.77966166 10.9949416,8.24178414 C11.5920333,7.73299393 11.9627042,7.16272352 11.9627042,6.91848914 L11.9627042,6.91848914 L11.9512759,6.37491573 C11.9324359,5.4450222 12.0779976,4.84283819 12.6792271,4.24163624 Z M15.0470991,5.15698273 C14.6349997,4.89360466 14.0943545,4.94715243 13.7403815,5.30180167 C13.4864793,5.55569244 13.4290712,5.86162141 13.4568786,6.53105934 L13.4568786,6.53105934 L13.4591245,6.63349757 L13.4627042,6.91848914 C13.4627042,7.70047348 12.8665056,8.61771408 11.9681601,9.38320673 C11.6549636,9.6504132 11.3246433,9.88338417 10.9945861,10.07022 L13.6922683,12.767526 C13.9851615,13.0604192 13.9851615,13.535293 13.6922683,13.8281862 C13.4237828,14.0966716 13.0023832,14.1190454 12.7084121,13.8953075 L12.6316081,13.8281862 L9.44962759,10.6462056 L9.37700944,10.5620872 L9.37700944,10.5620872 L9.33243852,10.5622768 L9.33243852,10.5622768 L9.17301751,10.5451983 L9.05369609,10.5289573 L8.8993867,10.5141441 L8.65493847,10.4824912 C7.18085559,10.117424 6.30434372,10.6328089 5.87542688,11.3098518 C5.86065131,11.3354673 5.86441787,11.3652287 5.8798051,11.3806264 L5.8798051,11.3806264 L13.4488332,18.9548195 C13.4667636,18.9727346 13.4917493,18.9756489 13.5093489,18.9652042 C14.1940107,18.5328119 14.7083815,17.6682059 14.341897,16.1674306 L14.341897,16.1674306 L14.2795013,15.6321597 C14.212833,14.8379487 14.8469465,13.5195827 15.72369,12.5653742 C16.4185237,11.8093258 17.1738678,11.3665393 17.9072099,11.3665393 L17.9072099,11.3665393 L18.4740066,11.3779927 C19.021607,11.3888571 19.296675,11.3210445 19.5250812,11.0923155 C19.7249976,10.8922628 19.8333168,10.6300388 19.8333168,10.3475428 C19.8327332,10.0629811 19.7234106,9.79936723 19.5227823,9.59860197 L19.5227823,9.59860197 L15.137,5.222 Z" id="形状结合"></path>
        </g>
    </g>
</svg>