<svg viewBox="0 0 24 24" xmlns="http://www.w3.org/2000/svg"
	xmlns:xlink="http://www.w3.org/1999/xlink">
	<defs />
	<path id="形状"
		d="M15.7545 2C17.547 2 19 3.44646 19 5.23077L19.001 8.58191C18.508 8.38228 17.9906 8.23036 17.4545 8.1319L17.4546 5.23077C17.4546 4.29613 16.6935 3.53846 15.7545 3.53846L5.24542 3.53846C4.30652 3.53846 3.54544 4.29613 3.54544 5.23077L3.54544 18.7692C3.54544 19.7039 4.30652 20.4615 5.24542 20.4615L9.35907 20.4622C9.74231 21.0314 10.1968 21.5487 10.7098 22.0013L5.24542 22C3.453 22 2 20.5535 2 18.7692L2 5.23077C2 3.44646 3.453 2 5.24542 2L15.7545 2ZM14.75 6.5C14.75 6.08578 14.4142 5.75 14 5.75L7 5.75L6.89822 5.75684C6.53217 5.80651 6.25 6.1203 6.25 6.5C6.25 6.91422 6.58578 7.25 7 7.25L14 7.25L14.1018 7.24315C14.4678 7.1935 14.75 6.8797 14.75 6.5ZM10.5 8.75C10.9142 8.75 11.25 9.08578 11.25 9.5C11.25 9.8797 10.9678 10.1935 10.6018 10.2431L10.5 10.25L7 10.25C6.58578 10.25 6.25 9.91422 6.25 9.5C6.25 9.1203 6.53217 8.8065 6.89822 8.75685L7 8.75L10.5 8.75ZM21.75 16C21.75 12.8244 19.1756 10.25 16 10.25C12.8244 10.25 10.25 12.8244 10.25 16C10.25 16.5714 10.8556 16.9199 11.3412 16.6683L11.4306 16.614L12.9524 15.5469C13.2915 15.309 13.3736 14.8413 13.1358 14.5022C12.9196 14.1939 12.5134 14.098 12.1865 14.2618L12.099 14.314L12.1229 14.2565C12.7619 12.8379 14.1566 11.833 15.7941 11.7549L16 11.75C18.3472 11.75 20.25 13.6528 20.25 16C20.25 18.3472 18.3472 20.25 16 20.25C14.8112 20.25 13.7026 19.7605 12.9038 18.9114C12.62 18.6097 12.1454 18.5952 11.8437 18.8791C11.542 19.1629 11.5275 19.6375 11.8113 19.9392C12.8907 21.0865 14.3932 21.75 16 21.75C19.1756 21.75 21.75 19.1756 21.75 16Z"
		clip-rule="evenodd" fill-rule="evenodd" fill-opacity="1.000000" />
</svg>