<?xml version="1.0" encoding="UTF-8"?>
<svg viewBox="0 0 24 24" version="1.1" xmlns="http://www.w3.org/2000/svg" xmlns:xlink="http://www.w3.org/1999/xlink">
    <g id="S12组件" stroke="none" stroke-width="1">
        <g id="Renew">
            <g id="编组-3" transform="translate(4.000000, 2.000000)">
                <path d="M11.500076,11 C13.9853574,11 16.000076,13.0147186 16.000076,15.5 C16.000076,17.9852814 13.9853574,20 11.500076,20 C10.4279941,20 9.4120038,19.6228946 8.6075811,18.9473549 C8.2903817,18.6809766 8.2491831,18.2078934 8.5155615,17.890694 C8.7819398,17.5734946 9.2550231,17.532296 9.5722225,17.7986743 C10.1088847,18.2493536 10.7841714,18.5 11.500076,18.5 C13.1569303,18.5 14.500076,17.1568542 14.500076,15.5 C14.500076,13.8431458 13.1569303,12.5 11.500076,12.5 L11.500076,12.5 L11.3242496,12.5050806 C10.2185874,12.5691426 9.2688893,13.2334615 8.8043213,14.1814071 L8.8043213,14.1814071 L8.771076,14.256 L8.8016709,14.2560499 C9.0585867,14.2740059 9.2994495,14.4239263 9.4220735,14.6713489 C9.6060095,15.0424829 9.4542556,15.492456 9.0831216,15.676392 L9.0831216,15.676392 L8.0831216,16.1719975 L7.9880393,16.2115477 C7.5092787,16.3740296 6.9927628,16.0153424 6.99992403,15.4894655 C7.0006402,15.4545685 7.001216,15.4223938 7.0018898,15.3927923 L7.0018898,15.3927923 L7.0072079,15.2448696 C7.1403837,12.8683757 9.1099389,11 11.500076,11 Z M11.3709677,0 C13.3027446,0 14.894276,1.46456622 14.9949452,3.32488378 L15,3.51219512 L15,9.65001137 C15,10.0541222 14.6750454,10.3817187 14.2741935,10.3817187 C13.906746,10.3817187 13.6030733,10.1064466 13.5550129,9.74929972 L13.5483871,9.65001137 L13.5483871,3.51219512 C13.5483871,2.43813775 12.6638528,1.54430024 11.5274356,1.46860559 L11.3709677,1.46341463 L3.62903226,1.46341463 C2.47102373,1.46341463 1.53614122,2.310554 1.45703614,3.36690973 L1.4516129,3.51219512 L1.4516129,16.4878049 C1.4516129,17.5618622 2.33614722,18.4556998 3.47256443,18.5313944 L3.62903226,18.5365854 L6.71819871,18.5365854 C7.11905055,18.5365854 7.44400517,18.8641819 7.44400517,19.2682927 C7.44400517,19.6387276 7.17095302,19.9448692 6.81668635,19.9933204 L6.71819871,20 L3.62903226,20 C1.69725542,20 0.105724041,18.5354338 0.00505477123,16.6751162 L0,16.4878049 L0,3.51219512 C0,1.62668171 1.529216,0.101292477 3.43703134,0.00484230165 L3.62903226,0 L11.3709677,0 Z M7.7546083,8.507993 C8.1688219,8.507993 8.4896083,8.8440952 8.4896083,9.2586983 C8.4896083,9.6387511 8.2106839,9.9528414 7.8446083,10.0025505 L7.7546083,10.0094036 L3.24960833,10.0094036 C2.83539477,10.0094036 2.49960833,9.6733014 2.49960833,9.2586983 C2.49960833,8.8786455 2.78176221,8.5645552 3.14783777,8.5148461 L3.24960833,8.507993 L7.7546083,8.507993 Z M9.5046083,4.5042316 C9.9188219,4.5042316 10.2546083,4.8403338 10.2546083,5.25493687 C10.2546083,5.63498968 9.9606839,5.94907996 9.5946083,5.99878908 L9.5046083,6.00564214 L3.24960833,6.00564214 C2.83539477,6.00564214 2.49960833,5.66953994 2.49960833,5.25493687 C2.49960833,4.87488405 2.78176221,4.56079378 3.14783777,4.51108466 L3.24960833,4.5042316 L9.5046083,4.5042316 Z" id="形状结合"></path>
            </g>
        </g>
    </g>
</svg>