<svg viewBox="0 0 24 24" xmlns="http://www.w3.org/2000/svg"
	xmlns:xlink="http://www.w3.org/1999/xlink">
	<defs />
	<path id="路径"
		d="M12 1.25C6.06293 1.25 1.25 6.06294 1.25 12C1.25 12.5714 1.85556 12.9199 2.34116 12.6684L2.43063 12.614L5.47412 10.4797C5.81323 10.2418 5.89536 9.77411 5.65753 9.43498C5.44131 9.12668 5.03513 9.03079 4.70825 9.19458L4.61285 9.25156L2.87701 10.469L2.88397 10.4226C3.61792 6.15082 7.2814 2.88042 11.732 2.7538L12 2.75C17.1086 2.75 21.25 6.89137 21.25 12C21.25 17.1086 17.1086 21.25 12 21.25C9.41345 21.25 6.99918 20.184 5.26141 18.3368C4.9776 18.0351 4.50293 18.0206 4.20126 18.3044C3.89957 18.5882 3.88507 19.0629 4.16888 19.3646C6.18726 21.51 8.99539 22.75 12 22.75C17.9371 22.75 22.75 17.9371 22.75 12C22.75 6.06294 17.9371 1.25 12 1.25Z"
		fill-rule="evenodd" />
</svg>