<?xml version="1.0" encoding="UTF-8"?>
<svg viewBox="0 0 24 24" version="1.1" xmlns="http://www.w3.org/2000/svg" xmlns:xlink="http://www.w3.org/1999/xlink">
    <g id="补充组件" stroke="none" stroke-width="1">
        <g id="画板" transform="translate(-153.000000, -104.000000)">
            <g id="编组" transform="translate(165.000000, 116.000000) scale(-1, 1) translate(-165.000000, -116.000000) translate(153.000000, 104.000000)">
                <path d="M21.2251335,12.7495856 L21.25,12.7499954 C21.2116078,12.7499954 21.1738893,12.7471107 21.1370495,12.7415462 C21.1254819,12.7397416 21.1137722,12.7376859 21.1021073,12.7353511 C21.0771042,12.7304075 21.0528079,12.7242342 21.0290163,12.7169092 C21.0173565,12.7132827 21.0053071,12.7092508 20.993346,12.7049047 C20.9700484,12.6964204 20.9479798,12.6871186 20.9264782,12.6768223 C20.9148771,12.6713301 20.9025401,12.6650271 20.890349,12.6583604 C20.8642131,12.6439622 20.8395138,12.6284636 20.8158344,12.6116244 C20.8121288,12.6090653 20.8079462,12.6060287 20.8037883,12.6029437 C20.7705706,12.5778243 20.7442698,12.5549253 20.7196699,12.5303255 L18.9226699,10.7333255 C18.6297767,10.4404323 18.6297767,9.96555855 18.9226699,9.67266533 C19.1889365,9.40639876 19.6056002,9.38219271 19.8992117,9.60004717 L19.9833301,9.67266533 L20.2469359,9.93411019 C19.8800105,8.46329957 19.1205171,7.09978729 18.0106699,5.9893255 C14.6915631,2.67021872 9.30843687,2.67021872 5.98933009,5.9893255 C2.67021107,9.30844451 2.67021107,14.6906274 5.98933009,18.0106653 C9.30843687,21.3297721 14.6915631,21.3297721 18.0106699,18.0106653 C18.3035631,17.7177721 18.7784369,17.7177721 19.0713301,18.0106653 C19.3642233,18.3035585 19.3642233,18.7784323 19.0713301,19.0713255 C15.1664369,22.9762187 8.83356313,22.9762187 4.92859652,19.0712521 C1.02378893,15.1653634 1.02378893,8.83354631 4.92866991,4.92866533 C8.83356313,1.02377211 15.1664369,1.02377211 19.0714768,4.92881213 C20.9717041,6.83009152 22,9.36609933 22,11.9999954 L21.999465,12.0284073 C21.9988867,12.0437576 21.9978395,12.0590935 21.9963234,12.0743918 L22,11.9999954 C22,12.046841 21.9957051,12.0926835 21.9874876,12.1371505 C21.9854242,12.1480282 21.9829853,12.1597215 21.9802653,12.1713624 C21.9748291,12.1948226 21.9684207,12.2172789 21.9610197,12.2392791 C21.957697,12.2490867 21.9539715,12.2594519 21.9500107,12.2697473 C21.9425505,12.2890896 21.934555,12.3075093 21.9258602,12.3255282 C21.9189416,12.3399863 21.9112981,12.3546198 21.9031392,12.3690407 C21.8933853,12.386153 21.8829627,12.40297 21.8719118,12.4193275 C21.8647757,12.4300118 21.8570642,12.440807 21.8490323,12.451437 C21.8060981,12.508194 21.7555276,12.5585258 21.698737,12.600997 L21.7803301,12.5303255 C21.7432768,12.5673788 21.7033111,12.5997445 21.6611698,12.6274227 C21.6410149,12.6405876 21.6200275,12.6529677 21.5984182,12.6643245 C21.5892964,12.669158 21.5805656,12.6735146 21.5717704,12.6776903 C21.5449819,12.6904375 21.5165221,12.7019421 21.4872605,12.7116925 C21.4803168,12.7139509 21.4742456,12.7158753 21.4681555,12.7177206 C21.3996769,12.7386422 21.3261643,12.7499954 21.25,12.7499954 C21.2378325,12.7499241 21.2314819,12.7497949 21.2251335,12.7495856 Z" id="形状结合"></path>
            </g>
        </g>
    </g>
</svg>