<svg viewBox="0 0 24 24" xmlns="http://www.w3.org/2000/svg"
	xmlns:xlink="http://www.w3.org/1999/xlink">
	<defs />
	<path id="矢量 46"
		d="M12.3466 3.96783L12.2623 3.89551L12.16 3.83221C11.8772 3.68738 11.5219 3.73404 11.286 3.97153C10.9941 4.26544 10.9958 4.74033 11.2897 5.0322L12.18 5.91602L7.05264 5.91669L6.83429 5.92096C3.7193 6.04321 1.25 8.7706 1.25 12.0929C1.25 15.298 3.5563 17.9775 6.55905 18.247C6.97159 18.284 7.33606 17.9796 7.37311 17.5671C7.41013 17.1545 7.10571 16.7901 6.69315 16.753C4.48383 16.5547 2.75 14.5403 2.75 12.0929C2.75 9.49881 4.68878 7.41669 7.05264 7.41669L14.0258 7.41624L14.1018 7.40984L14.2042 7.38855L14.3005 7.35406L14.3929 7.30569L14.4759 7.2464L14.5322 7.19516L14.5975 7.1201L14.6404 7.05733L14.689 6.96341L14.7299 6.83957L14.7471 6.73306L14.75 6.66669L14.7378 6.53178L14.711 6.42752L14.666 6.32141L14.6209 6.24576C14.5942 6.20648 14.5634 6.1692 14.5285 6.13451L12.3466 3.96783ZM14.5285 6.13451L14.5966 6.21219C14.5762 6.18544 14.5541 6.1601 14.5285 6.13451ZM17.4094 5.75266L17.3074 5.75095L17.2085 5.76266C16.8849 5.82312 16.6282 6.09332 16.5993 6.43729C16.5647 6.85004 16.8712 7.21274 17.2839 7.24739C19.5034 7.43369 21.25 9.45221 21.25 11.9083C21.25 14.5017 19.3113 16.5833 16.9474 16.5833L9.97525 16.5838L9.89825 16.5902L9.79584 16.6115L9.69952 16.646L9.60715 16.6943L9.52408 16.7536L9.46783 16.8049L9.43951 16.835L9.388 16.8996L9.34683 16.9644L9.311 17.0366L9.28796 17.0971L9.26566 17.1805L9.25299 17.2659L9.25061 17.3634L9.26218 17.4682L9.289 17.5725L9.32898 17.6688L9.37576 17.7493C9.4032 17.7904 9.43512 17.8294 9.47153 17.8655L11.6534 20.0322L11.7377 20.1045C12.0321 20.3214 12.4487 20.2957 12.714 20.0285C13.0059 19.7346 13.0042 19.2597 12.7103 18.9678L11.819 18.083L16.9474 18.0833L17.1657 18.0791C20.2807 17.9568 22.75 15.23 22.75 11.9083C22.75 8.69139 20.4262 6.00589 17.4094 5.75266ZM9.47153 17.8655L9.40335 17.7878C9.42377 17.8146 9.44592 17.8399 9.47153 17.8655Z"
		fill-rule="evenodd" />
</svg>