<?xml version="1.0" encoding="UTF-8"?>
<svg viewBox="0 0 24 24" version="1.1" xmlns="http://www.w3.org/2000/svg" xmlns:xlink="http://www.w3.org/1999/xlink">
    <g id="S12组件" stroke="none" stroke-width="1">
        <g id="Replies">
            <g id="编组" transform="translate(2.000000, 3.500000)">
                <path d="M16.992,8.17124146e-14 C17.8091674,8.17124146e-14 18.5498835,0.32649166 19.0908541,0.85618078 C19.0957726,0.86033758 19.1005753,0.86501515 19.1053301,0.86976991 C19.6166865,1.38085327 19.9429297,2.0643268 19.9869086,2.82369141 L19.992,3 L19.992,9.979 C19.992,10.3932136 19.6562136,10.729 19.242,10.729 C18.8623042,10.729 18.548509,10.4468461 18.4988466,10.0807706 L18.492,9.979 L18.492,3 C18.492,2.860913 18.4730962,2.72626382 18.4377164,2.59848013 L11.5873301,9.4484301 C10.7502889,10.2854712 9.4180273,10.3253303 8.5338223,9.5680074 L8.4046699,9.4484301 L2.96566991,4.00943009 C2.6727767,3.71653687 2.6727767,3.24166313 2.96566991,2.94876991 C3.23193648,2.68250335 3.64860016,2.6582973 3.94221165,2.87615176 L4.02633009,2.94876991 L9.4653301,8.3877699 C9.7317908,8.6542306 10.1486808,8.6784543 10.4424923,8.460441 L10.5266699,8.3877699 L17.365749,1.54688241 C17.2914122,1.52783708 17.2148456,1.51434159 17.1365162,1.50686307 L16.992,1.5 L3,1.5 C2.21996571,1.5 1.57951154,2.0945698 1.50686307,2.85548382 L1.5,3 L1.5,13.17 C1.5,13.9500343 2.0945698,14.5904885 2.85548382,14.6631369 L3,14.67 L10.496,14.67 C10.9102136,14.67 11.246,15.0057864 11.246,15.42 C11.246,15.7996958 10.9638461,16.113491 10.5977706,16.1631534 L10.496,16.17 L3,16.17 C1.40197264,16.17 0.09631437,14.9214141 0.00509137,13.3463086 L1.42108547e-14,13.17 L1.42108547e-14,3 C1.42108547e-14,1.40197264 1.24858586,0.09631437 2.82369141,0.00509137 L3,8.17124146e-14 L16.992,8.17124146e-14 Z M11.403,13.157 L11.3752267,13.119831 L11.3752267,13.119831 C11.3588234,13.0961994 11.343612,13.0707418 11.3299211,13.0443681 C11.326476,13.0371282 11.3231377,13.0304351 11.3199058,13.0237037 C11.2725155,12.9259014 11.246,12.8156972 11.246,12.6993 C11.246,12.6220102 11.2576912,12.5474509 11.2794016,12.4772943 C11.2831444,12.4656646 11.2870757,12.453945 11.2913043,12.4423091 C11.299575,12.4193484 11.3088769,12.3972798 11.3191731,12.3757782 L11.3378477,12.339326 L11.3378477,12.339326 C11.3508702,12.3156332 11.3649754,12.2929098 11.3802162,12.2710366 C11.3843467,12.2649821 11.3887516,12.2588532 11.3932601,12.2527771 C11.4181712,12.2198706 11.4410701,12.1935698 11.4656699,12.1689699 L14.1858699,9.4486699 C14.4787631,9.1557767 14.9536369,9.1557767 15.2465301,9.4486699 C15.5127966,9.7149365 15.5370027,10.1316002 15.3191482,10.4252117 L15.2465301,10.5093301 L13.805,11.949 L19.25,11.9493 C19.6642136,11.9493 20,12.2850864 20,12.6993 C20,13.0789958 19.7178461,13.392791 19.3517706,13.4424534 L19.25,13.4493 L13.807,13.449 L15.2466275,14.8897674 C15.5128452,15.1560829 15.5369746,15.572751 15.3190662,15.8663225 L15.2464326,15.9504275 C14.9801171,16.2166452 14.563449,16.2407746 14.2698775,16.0228662 L14.1857725,15.9502326 L11.4657725,13.2292326 L11.4175083,13.1761728 L11.4175083,13.1761728 L11.408,13.164 L11.419,13.176 L11.403,13.157 Z" id="形状结合"></path>
            </g>
        </g>
    </g>
</svg>