<?xml version="1.0" encoding="UTF-8"?>
<svg viewBox="0 0 24 24" version="1.1" xmlns="http://www.w3.org/2000/svg" xmlns:xlink="http://www.w3.org/1999/xlink">
    <g id="页面-1" stroke="none" stroke-width="1">
        <g id="画板" transform="translate(-1076.000000, -2952.000000)">
            <g id="编组" transform="translate(1076.000000, 2952.000000)">
                <path d="M19.0485019,6.97374448 C20.8560082,7.98250291 22,9.89095561 22,12.0006554 C22,15.1052718 19.5423171,17.6354943 16.4657803,17.7515 L16.245,17.7556554 L9.56217412,17.755332 L10.2978565,18.4918523 C10.5638585,18.7583831 10.5876508,19.1750706 10.3695048,19.4684656 L10.2968032,19.5525119 C10.0302723,19.8185139 9.61358482,19.8423062 9.32018981,19.6241603 L9.23614353,19.5514586 L7.22414353,17.5354586 C6.77722192,17.0876485 7.0541738,16.3396885 7.65239141,16.2621963 L7.755,16.2556554 L16.245,16.2556554 C18.5954179,16.2556554 20.5,14.3508105 20.5,12.0006554 C20.5,10.4399835 19.6547274,9.02986602 18.3174981,8.28356641 C17.9558008,8.0817053 17.8262279,7.62485091 18.028089,7.26315357 C18.2299501,6.90145623 18.6868045,6.77188336 19.0485019,6.97374448 Z M14.6798102,4.37583972 L14.7638565,4.44854137 L16.7758565,6.46454137 C17.2227781,6.9123515 16.9458262,7.6603115 16.3476086,7.73780366 L16.245,7.74434456 L7.755,7.74434456 C5.40445068,7.74434456 3.5,9.64932096 3.5,12.0003446 C3.5,13.5600767 4.34533281,14.9702946 5.6828277,15.7176155 C6.04442456,15.9196566 6.17377008,16.3765754 5.97172902,16.7381723 C5.76968796,17.0997691 5.31276915,17.2291146 4.9511723,17.0270736 C3.14388412,16.0172572 2,14.1089841 2,12.0003446 C2,8.89492507 4.45751327,6.36451434 7.53420788,6.24850033 L7.755,6.24434456 L14.4379365,6.24433201 L13.7021435,5.50814774 C13.4361415,5.24161689 13.4123492,4.82492937 13.6304952,4.53153437 L13.7031968,4.44748809 C13.9697277,4.18148607 14.3864152,4.1576938 14.6798102,4.37583972 Z" id="形状结合"></path>
            </g>
        </g>
    </g>
</svg>