<svg viewBox="0 0 24 24" xmlns="http://www.w3.org/2000/svg"
	xmlns:xlink="http://www.w3.org/1999/xlink">
	<defs />
	<path id="形状结合"
		d="M17.5115 2.25L4.48846 2.25C2.69891 2.25 1.25 3.70743 1.25 5.50307L1.25 16.4969C1.25 18.2926 2.69891 19.75 4.48846 19.75L10.3195 19.75C9.99933 19.2852 9.73016 18.7825 9.5202 18.25L4.48846 18.25C3.52933 18.25 2.75 17.4661 2.75 16.4969L2.75 5.50307C2.75 4.53389 3.52933 3.75 4.48846 3.75L17.5115 3.75C18.4707 3.75 19.25 4.53389 19.25 5.50307L19.25 8.5202C19.7825 8.73018 20.2852 8.99933 20.75 9.31955L20.75 5.50307C20.75 3.70743 19.3011 2.25 17.5115 2.25ZM16.1277 5.34892C16.4873 5.14331 16.9455 5.26814 17.1511 5.62772C17.3396 5.95734 17.2504 6.3698 16.9572 6.59462L16.8723 6.65108L11.9821 9.44487C11.4431 9.808 10.7431 9.84789 10.2088 9.58318L10.0789 9.51065L5.1572 6.98149C4.78879 6.79216 4.64362 6.34003 4.83292 5.97162C5.00647 5.6339 5.40085 5.48376 5.74915 5.6069L5.8428 5.64734L10.8169 8.20618C10.895 8.25456 10.9973 8.26266 11.1072 8.21664L11.1908 8.17177L16.1277 5.34892ZM16.5 9.25C13.0482 9.25 10.25 12.0482 10.25 15.5C10.25 18.9518 13.0482 21.75 16.5 21.75C19.9518 21.75 22.75 18.9518 22.75 15.5C22.75 12.0482 19.9518 9.25 16.5 9.25ZM16.5 10.75C19.1234 10.75 21.25 12.8766 21.25 15.5C21.25 18.1234 19.1234 20.25 16.5 20.25C13.8766 20.25 11.75 18.1234 11.75 15.5C11.75 12.8766 13.8766 10.75 16.5 10.75ZM16.0334 12.9745C15.7431 12.679 15.2683 12.6747 14.9727 12.9649L13.001 14.9012L12.9243 14.9875C12.6686 15.3181 12.6942 15.7958 13.001 16.0971L14.9745 18.0351L15.0593 18.107C15.3549 18.3222 15.7713 18.2942 16.0351 18.0255L16.107 17.9407C16.3221 17.6452 16.2942 17.2287 16.0255 16.9649L15.2976 16.25L19.5 16.25L19.6018 16.2431C19.9679 16.1935 20.25 15.8797 20.25 15.5C20.25 15.0858 19.9142 14.75 19.5 14.75L15.2957 14.75L16.0237 14.0351L16.0971 13.9517C16.3176 13.66 16.2972 13.2432 16.0334 12.9745Z"
		clip-rule="evenodd" fill-rule="evenodd" fill-opacity="1.000000" />
</svg>