<svg viewBox="0 0 24 24" xmlns="http://www.w3.org/2000/svg"
	xmlns:xlink="http://www.w3.org/1999/xlink">
	<g clip-path="url(#clip131_1887)">
		<path id="矢量 163"
			d="M22 15.4144C22 16.4191 21.4491 17.3406 20.5699 17.8064L13.2366 21.6923C12.462 22.1027 11.538 22.1027 10.7634 21.6923L3.43005 17.8064C2.5509 17.3406 2 16.4191 2 15.4144L2 4.69971C2 3.20874 3.19385 2 4.66663 2L19.3334 2C20.8062 2 22 3.20874 22 4.69971L22 15.4144ZM18.12 5.25012L11.12 5.25012C10.7 5.25012 10.37 5.58008 10.37 6.00012C10.37 6.42004 10.7 6.75012 11.12 6.75012L18.12 6.75012C18.54 6.75012 18.87 6.42004 18.87 6.00012C18.87 5.58008 18.54 5.25012 18.12 5.25012ZM8.12073 5.50012L6.11926 5.50012C5.56738 5.50012 5.12 5.94775 5.12 6.50012L5.12 8.50012C5.12 9.05237 5.56738 9.50012 6.11926 9.50012L8.12073 9.50012C8.67261 9.50012 9.12 9.05237 9.12 8.50012L9.12 6.50012C9.12 5.94775 8.67261 5.50012 8.12073 5.50012ZM18.12 7.95007L11.12 7.95007C10.7 7.95007 10.37 8.28003 10.37 8.70007C10.37 9.12012 10.7 9.45007 11.12 9.45007L18.12 9.45007C18.54 9.45007 18.87 9.12012 18.87 8.70007C18.87 8.28003 18.54 7.95007 18.12 7.95007ZM6.11926 11.5001L8.12073 11.5001C8.67261 11.5001 9.12 11.9478 9.12 12.5001L9.12 14.5001C9.12 15.0524 8.67261 15.5001 8.12073 15.5001L6.11926 15.5001C5.56738 15.5001 5.12 15.0524 5.12 14.5001L5.12 12.5001C5.12 11.9478 5.56738 11.5001 6.11926 11.5001ZM11.12 11.55L18.12 11.55C18.54 11.55 18.87 11.88 18.87 12.3C18.87 12.7201 18.54 13.05 18.12 13.05L11.12 13.05C10.7 13.05 10.37 12.7201 10.37 12.3C10.37 11.88 10.7 11.55 11.12 11.55ZM18.12 14.2501L11.12 14.2501C10.7 14.2501 10.37 14.5801 10.37 15.0001C10.37 15.42 10.7 15.7501 11.12 15.7501L18.12 15.7501C18.54 15.7501 18.87 15.42 18.87 15.0001C18.87 14.5801 18.54 14.2501 18.12 14.2501Z"
			fill-opacity="1.000000" fill-rule="evenodd" />
	</g>
</svg>