<svg viewBox="0 0 24 24" xmlns="http://www.w3.org/2000/svg"
	xmlns:xlink="http://www.w3.org/1999/xlink">
	<defs />
	<g opacity="0.000000" />
	<path id="矢量 50"
		d="M9.75 2.5C12.3635 2.5 14.5 4.5108 14.5 7.01471L14.5 8.5C16.0874 8.5 17.4057 9.80318 17.495 11.4256L17.5 11.6071L17.5 17.8929C17.5 19.5985 16.1857 21 14.5395 21L4.96054 21C3.31433 21 2 19.5985 2 17.8929L2 11.6071C2 9.96242 3.22211 8.60049 4.78546 8.50531L5 8.5L5 7.01471L5.00491 6.80722C5.11905 4.40063 7.20908 2.5 9.75 2.5ZM20.0068 3.64822C20.0565 3.28215 20.3703 3 20.75 3C21.1642 3 21.5 3.33578 21.5 3.75L21.5 20.75L21.4932 20.8518C21.4435 21.2178 21.1297 21.5 20.75 21.5C20.3358 21.5 20 21.1642 20 20.75L20 3.75L20.0068 3.64822ZM9.75 4C7.94525 4 6.5 5.36023 6.5 7.01471L6.5 8.5L13 8.5L13 7.01471L12.9949 6.84465C12.8999 5.26804 11.4925 4 9.75 4ZM3.5 11.6071C3.5 10.7092 4.16504 10 4.96054 10L14.5395 10C15.335 10 16 10.7092 16 11.6071L16 17.8929C16 18.7908 15.335 19.5 14.5395 19.5L4.96054 19.5C4.16504 19.5 3.5 18.7908 3.5 17.8929L3.5 11.6071ZM10.5 12.25C10.5 11.8358 10.1642 11.5 9.75 11.5C9.3703 11.5 9.05652 11.7822 9.00684 12.1482L9 12.25L9 14.75C9 15.1642 9.33578 15.5 9.75 15.5C10.1297 15.5 10.4435 15.2178 10.4932 14.8518L10.5 14.75L10.5 12.25ZM9.73785 16.2501C10.2901 16.2567 10.7432 16.7097 10.7499 17.262C10.7566 17.8142 10.3144 18.2565 9.76215 18.2499C9.2099 18.2433 8.75677 17.7903 8.75006 17.238C8.74338 16.6858 9.18561 16.2435 9.73785 16.2501Z"
		fill-rule="evenodd" />
</svg>