<svg viewBox="0 0 24 24" xmlns="http://www.w3.org/2000/svg"
	xmlns:xlink="http://www.w3.org/1999/xlink">
	<defs />
	<g opacity="0.000000" />
	<path id="形状结合"
		d="M17.0818 13.777L10.7501 20.8862C10.2607 21.4357 9.56497 21.75 8.83414 21.75C7.40312 21.75 6.25 20.5706 6.25 19.124L6.25 4.87604C6.25 4.13889 6.55492 3.43484 7.09161 2.93683C8.15059 1.95418 9.79405 2.03595 10.7536 3.11786L17.0854 10.2566C17.9729 11.2572 17.9714 12.7782 17.0818 13.777ZM9.63145 4.11322L15.9632 11.252C16.3462 11.6838 16.3455 12.3484 15.9617 12.7794L9.62994 19.8886C9.42418 20.1196 9.1355 20.25 8.83414 20.25C8.23923 20.25 7.75 19.7496 7.75 19.124L7.75 4.87608C7.75 4.55476 7.88217 4.24959 8.11191 4.03641C8.55341 3.62672 9.22981 3.6604 9.63145 4.11322Z"
		clip-rule="evenodd" fill-rule="evenodd" fill-opacity="1.000000" />
</svg>