<?xml version="1.0" encoding="UTF-8"?>
<svg viewBox="0 0 24 24" version="1.1" xmlns="http://www.w3.org/2000/svg" xmlns:xlink="http://www.w3.org/1999/xlink">
    <g id="S12组件" stroke="none" stroke-width="1">
        <g id="RightFrozen">
            <g id="编组备份" transform="translate(3.000000, 3.000000)" >
                <path d="M7,0.75 C9.24503752,0.75 11.1288402,2.23052677 11.2443855,4.16823032 L11.25,4.35714286 L11.250423,7.13492497 C12.8358006,7.57268917 14,9.02538792 14,10.75 L14,13.25 C14,15.3210678 12.3210678,17 10.25,17 L3.75,17 C1.67893219,17 0,15.3210678 0,13.25 L0,10.75 C0,9.02502284 1.16469233,7.57207415 2.75058381,7.1346471 L2.75,4.35714286 L2.75561451,4.16823032 C2.87115976,2.23052677 4.75496248,0.75 7,0.75 Z M17.25,1 C17.6296958,1 17.943491,1.28215388 17.9931534,1.64822944 L18,1.75 L18,16.25 L17.9931534,16.3517706 C17.943491,16.7178461 17.6296958,17 17.25,17 C16.8703042,17 16.556509,16.7178461 16.5068466,16.3517706 L16.5,16.25 L16.5,1.75 L16.5068466,1.64822944 C16.556509,1.28215388 16.8703042,1 17.25,1 Z M10.25,8.5 L3.75,8.5 C2.50735931,8.5 1.5,9.50735931 1.5,10.75 L1.5,13.25 C1.5,14.4926407 2.50735931,15.5 3.75,15.5 L10.25,15.5 C11.4926407,15.5 12.5,14.4926407 12.5,13.25 L12.5,10.75 C12.5,9.50735931 11.4926407,8.5 10.25,8.5 Z M7,9.50475 C7.3796958,9.50475 7.693491,9.7869039 7.7431534,10.1529794 L7.75,10.25475 L7.7517468,12.2512935 C8.0543061,12.4794977 8.25,12.8419594 8.25,13.24985 C8.25,13.93985 7.69,14.49985 7,14.49985 C6.31,14.49985 5.75,13.93985 5.75,13.24985 C5.75,12.8415102 5.9461252,12.4786994 6.2492532,12.25054 L6.25,10.25475 C6.25,9.8405364 6.5857864,9.50475 7,9.50475 Z M7,2.25 C5.51340624,2.25 4.3466725,3.15389387 4.25571235,4.22273241 L4.25,4.35714286 L4.25,7 L9.75,7 L9.75,4.35714286 L9.74428765,4.22273241 C9.6533275,3.15389387 8.48659376,2.25 7,2.25 Z" id="形状"></path>
            </g>
        </g>
    </g>
</svg>