<svg viewBox="0 0 24 24" xmlns="http://www.w3.org/2000/svg"
	xmlns:xlink="http://www.w3.org/1999/xlink">
	<defs />
	<g opacity="0.000000" />
	<path id="矢量 125"
		d="M5.25 21C5.25 21.4142 4.91422 21.75 4.5 21.75C4.1203 21.75 3.80652 21.4678 3.75684 21.1018L3.75 21L3.75 3C3.75 2.58578 4.08578 2.25 4.5 2.25C4.8797 2.25 5.19348 2.53215 5.24316 2.89822L5.25 3L5.25 21ZM12.75 21C12.75 21.4142 12.4142 21.75 12 21.75C11.6203 21.75 11.3065 21.4678 11.2568 21.1018L11.25 21L11.25 3C11.25 2.58578 11.5858 2.25 12 2.25C12.3797 2.25 12.6935 2.53215 12.7432 2.89822L12.75 3L12.75 21ZM19.5 21.75C19.9142 21.75 20.25 21.4142 20.25 21L20.25 3L20.2432 2.89822C20.1935 2.53215 19.8797 2.25 19.5 2.25C19.0858 2.25 18.75 2.58578 18.75 3L18.75 21L18.7568 21.1018C18.8065 21.4678 19.1203 21.75 19.5 21.75Z"
		fill-rule="evenodd" />
</svg>