<svg viewBox="0 0 24 24" xmlns="http://www.w3.org/2000/svg"
	xmlns:xlink="http://www.w3.org/1999/xlink">
	<defs />
	<g opacity="0.000000" />
	<path id="矢量 60"
		d="M21 3.75C21.4142 3.75 21.75 4.08578 21.75 4.5C21.75 4.8797 21.4678 5.1935 21.1018 5.24315L21 5.25L3 5.25C2.58578 5.25 2.25 4.91422 2.25 4.5C2.25 4.1203 2.53217 3.8065 2.89822 3.75685L3 3.75L21 3.75ZM21 11.25C21.4142 11.25 21.75 11.5858 21.75 12C21.75 12.3797 21.4678 12.6935 21.1018 12.7431L21 12.75L3 12.75C2.58578 12.75 2.25 12.4142 2.25 12C2.25 11.6203 2.53217 11.3065 2.89822 11.2569L3 11.25L21 11.25ZM21.75 19.5C21.75 19.0858 21.4142 18.75 21 18.75L3 18.75L2.89822 18.7569C2.53217 18.8065 2.25 19.1203 2.25 19.5C2.25 19.9142 2.58578 20.25 3 20.25L21 20.25L21.1018 20.2431C21.4678 20.1935 21.75 19.8797 21.75 19.5Z"
		fill-rule="evenodd" />
</svg>