<?xml version="1.0" encoding="UTF-8"?>
<svg viewBox="0 0 24 24" version="1.1" xmlns="http://www.w3.org/2000/svg" xmlns:xlink="http://www.w3.org/1999/xlink">
    <g id="页面-1" stroke="none" stroke-width="1">
        <g id="画板" transform="translate(-635.000000, -3114.000000)">
            <g id="编组" transform="translate(635.000000, 3114.000000)">
                <path d="M20,18.2495 C20.4142136,18.2495 20.75,18.5852864 20.75,18.9995 C20.75,19.3791958 20.4678461,19.692991 20.1017706,19.7426534 L20,19.7495 L4,19.7495 C3.58578644,19.7495 3.25,19.4137136 3.25,18.9995 C3.25,18.6198042 3.53215388,18.306009 3.89822944,18.2563466 L4,18.2495 L20,18.2495 Z M20,11.2495 C20.4142136,11.2495 20.75,11.5852864 20.75,11.9995 C20.75,12.3791958 20.4678461,12.692991 20.1017706,12.7426534 L20,12.7495 L4,12.7495 C3.58578644,12.7495 3.25,12.4137136 3.25,11.9995 C3.25,11.6198042 3.53215388,11.306009 3.89822944,11.2563466 L4,11.2495 L20,11.2495 Z M20,4.2505 C20.4142136,4.2505 20.75,4.58628644 20.75,5.0005 C20.75,5.38019577 20.4678461,5.69399096 20.1017706,5.74365338 L20,5.7505 L4,5.7505 C3.58578644,5.7505 3.25,5.41471356 3.25,5.0005 C3.25,4.62080423 3.53215388,4.30700904 3.89822944,4.25734662 L4,4.2505 L20,4.2505 Z" id="形状结合"></path>
            </g>
        </g>
    </g>
</svg>