<?xml version="1.0" encoding="UTF-8"?>
<svg  viewBox="0 0 24 24" version="1.1" xmlns="http://www.w3.org/2000/svg" xmlns:xlink="http://www.w3.org/1999/xlink">
    <g id="页面-1" stroke="none" stroke-width="1">
        <g id="画板" transform="translate(-1076.000000, -3106.000000)">
            <g id="编组" transform="translate(1076.000000, 3106.000000)">
                <path d="M16.5,2.9998 C16.9142136,2.9998 17.25,3.33558644 17.25,3.7498 L17.25,3.7498 L17.25,7.4998 C17.25,8.74274559 16.2424817,9.7498 15,9.7498 L15,9.7498 L9,9.7498 C7.75751827,9.7498 6.75,8.74274559 6.75,7.4998 L6.75,7.4998 L6.75,4.4998 L6.001,4.5002 C5.22049512,4.5002 4.57957036,5.09521271 4.50686816,5.85742939 L4.5,6.0022 L4.5,17.9992 C4.5,18.7792343 5.09545561,19.4205743 5.85647385,19.493327 L6.001,19.5002 L17.999,19.5002 C18.7790343,19.5002 19.4203743,18.9047444 19.493127,18.1437262 L19.5,17.9992 L19.5,6.0022 C19.5,5.42560719 19.1729566,4.9081758 18.6656775,4.65556313 C18.2948939,4.47092189 18.1439956,4.02066109 18.3286369,3.64987747 C18.5132781,3.27909386 18.9635389,3.12819564 19.3343225,3.31283687 C20.2867035,3.78709947 20.9218464,4.73125204 20.9932736,5.80036179 L21,6.0022 L21,17.9992 C21,19.5972274 19.7504843,20.9038155 18.1753123,20.9951049 L17.999,21.0002 L6.001,21.0002 C4.40297264,21.0002 3.09638453,19.7506843 3.0050951,18.1755123 L3,17.9992 L3,6.0022 C3,4.40272621 4.24905078,3.09655136 5.82463787,3.0052933 L6.001,3.0002 Z M16.5,15.2498 C16.9142136,15.2498 17.25,15.5855864 17.25,15.9998 C17.25,16.3794958 16.9678461,16.693291 16.6017706,16.7429534 L16.5,16.7498 L7.5,16.7498 C7.08578644,16.7498 6.75,16.4140136 6.75,15.9998 C6.75,15.6201042 7.03215388,15.306309 7.39822944,15.2566466 L7.5,15.2498 L16.5,15.2498 Z M15.75,4.4998 L8.25,4.4998 L8.25,7.4998 C8.25,7.84510316 8.48318806,8.13573439 8.80062181,8.22301971 L8.89823036,8.24295625 L9,8.2498 L15,8.2498 C15.4142092,8.2498 15.75,7.9141638 15.75,7.4998 L15.75,7.4998 L15.75,4.4998 Z" id="形状结合"></path>
            </g>
        </g>
    </g>
</svg>