<svg viewBox="0 0 24 24" xmlns="http://www.w3.org/2000/svg"
	xmlns:xlink="http://www.w3.org/1999/xlink">
	<defs />
	<g opacity="0.000000" />
	<path id="矢量 65"
		d="M15.0522 2.25L5.92859 2.25C4.17126 2.25 2.75 3.68649 2.75 5.45454L2.75 18.5455C2.75 20.3135 4.17126 21.75 5.92859 21.75L18.0714 21.75C19.8287 21.75 21.25 20.3135 21.25 18.5455L21.25 8.00497C21.25 7.31647 20.9547 6.66107 20.4394 6.20766L16.6106 2.83904C16.1791 2.45943 15.6255 2.25 15.0522 2.25ZM7.75 7.16667L7.75 3.75L5.92859 3.75C5.0033 3.75 4.25 4.51138 4.25 5.45454L4.25 18.5455C4.25 19.4886 5.0033 20.25 5.92859 20.25L18.0714 20.25C18.9967 20.25 19.75 19.4886 19.75 18.5455L19.75 8.00497C19.75 7.74684 19.6396 7.50197 19.4486 7.33383L15.6198 3.96521C15.5127 3.87099 15.3856 3.8056 15.25 3.77327L15.25 7.16667C15.25 8.02454 14.597 8.75 13.75 8.75L9.25 8.75C8.40295 8.75 7.75 8.02454 7.75 7.16667ZM9.25 3.75L13.75 3.75L13.75 7.25L9.25 7.16667L9.25 3.75ZM15.8572 11.25L8.14282 11.25C7.3457 11.25 6.75 11.945 6.75 12.75L6.75 17.25C6.75 18.055 7.3457 18.75 8.14282 18.75L15.8572 18.75C16.6543 18.75 17.25 18.055 17.25 17.25L17.25 12.75C17.25 11.945 16.6543 11.25 15.8572 11.25ZM8.25 17.25L8.25 12.75L15.75 12.75L15.75 17.25L8.25 17.25Z"
		fill-rule="evenodd" />
</svg>