<?xml version="1.0" encoding="UTF-8"?>
<svg viewBox="0 0 24 24" version="1.1" xmlns="http://www.w3.org/2000/svg" xmlns:xlink="http://www.w3.org/1999/xlink">
    <g id="页面-1" stroke="none" stroke-width="1">
        <g id="画板" transform="translate(-319.000000, -3182.000000)">
            <g id="编组" transform="translate(319.000000, 3182.000000)">
                <path d="M16.1277301,9.41411991 C16.3939966,9.68038648 16.4182027,10.0970502 16.2003482,10.3906617 L16.1277301,10.4747801 L13.061,13.54015 L15.3837234,15.8633581 C15.8429497,15.5766843 16.3773554,15.3991669 16.9506432,15.3671034 L17.139,15.36185 C18.9723141,15.36185 20.459,16.8477368 20.459,18.68085 C20.459,20.5139632 18.9723141,21.99985 17.139,21.99985 C15.3057864,21.99985 13.82,20.5140636 13.82,18.68085 C13.82,18.0358937 14.0039039,17.4339403 14.3221402,16.9245613 L12,14.60115 L9.67915979,16.9245613 C9.96620476,17.3840144 10.1439595,17.9187842 10.1760466,18.4924932 L10.1813,18.68085 C10.1813,20.5140636 8.69551356,21.99985 6.8623,21.99985 C5.02818559,21.99985 3.5413,20.5141629 3.5413,18.68085 C3.5413,16.8475371 5.02818559,15.36185 6.8623,15.36185 C7.50682919,15.36185 8.10841237,15.5455104 8.61757658,15.8633581 L15.0670699,9.41411991 C15.3599631,9.1212267 15.8348369,9.1212267 16.1277301,9.41411991 Z M6.8623,16.86185 C5.85634208,16.86185 5.0413,17.6762351 5.0413,18.68085 C5.0413,19.6854649 5.85634208,20.49985 6.8623,20.49985 C7.86708644,20.49985 8.6813,19.6856364 8.6813,18.68085 C8.6813,17.6760636 7.86708644,16.86185 6.8623,16.86185 Z M17.139,16.86185 C16.1342136,16.86185 15.32,17.6760636 15.32,18.68085 C15.32,19.6856364 16.1342136,20.49985 17.139,20.49985 C18.1440675,20.49985 18.959,19.6853555 18.959,18.68085 C18.959,17.6763445 18.1440675,16.86185 17.139,16.86185 Z M17.911,2.00015 C19.5417259,2.00015 20.8737419,3.27468737 20.9668059,4.8822135 L20.972,5.06215 L20.972,11.23015 C20.972,12.8610504 19.6982242,14.1938342 18.0909147,14.2869528 L17.911,14.29215 L17.139,14.29215 C16.7247864,14.29215 16.389,13.9563636 16.389,13.54215 C16.389,13.1624542 16.6711539,12.848659 17.0372294,12.7989966 L17.139,12.79215 L17.911,12.79215 C18.7255789,12.79215 19.3938822,12.1687285 19.465624,11.3723846 L19.472,11.23015 L19.472,5.06215 C19.472,4.24702112 18.848951,3.57831469 18.0531391,3.50652981 L17.911,3.50015 L6.09,3.50015 C5.27514614,3.50015 4.60619525,4.12383123 4.53438235,4.91995867 L4.528,5.06215 L4.528,11.23015 C4.528,12.0450039 5.15168123,12.7139547 5.94780867,12.7857676 L6.09,12.79215 L6.862,12.79215 C7.27621356,12.79215 7.612,13.1279364 7.612,13.54215 C7.612,13.9218458 7.32984612,14.235641 6.96377056,14.2853034 L6.862,14.29215 L6.09,14.29215 C4.45918692,14.29215 3.12632203,13.0175284 3.03319751,11.4100775 L3.028,11.23015 L3.028,5.06215 C3.028,3.43133692 4.30262157,2.09847203 5.91007252,2.00534751 L6.09,2.00015 L17.911,2.00015 Z M8.84891165,9.34170176 L8.93303009,9.41431991 L10.7644368,11.2608617 C11.0527647,11.5515725 11.0520195,12.0206143 10.7627691,12.3104074 C10.4738801,12.5998384 10.0051149,12.6004581 9.71546175,12.3117918 L7.87236991,10.4749801 C7.5794767,10.1820869 7.5794767,9.70721313 7.87236991,9.41431991 C8.13863648,9.14805335 8.55530016,9.1238473 8.84891165,9.34170176 Z" id="形状结合"></path>
            </g>
        </g>
    </g>
</svg>