<svg viewBox="0 0 24 24" xmlns="http://www.w3.org/2000/svg"
	xmlns:xlink="http://www.w3.org/1999/xlink">
	<defs />
	<g opacity="0.000000" />
	<path id="矢量 66"
		d="M18.0714 2.25C19.7616 2.25 21.1511 3.54208 21.245 5.18033L21.25 5.35715L21.25 11.6429C21.25 13.364 19.822 14.75 18.0714 14.75C17.6572 14.75 17.3214 14.4142 17.3214 14C17.3214 13.6203 17.6036 13.3065 17.9697 13.2568L18.0714 13.25C18.9543 13.25 19.6709 12.5996 19.7439 11.7808L19.75 11.6429L19.75 5.35715C19.75 4.52109 19.0799 3.82672 18.2169 3.75594L18.0714 3.75L5.92856 3.75C5.04565 3.75 4.3291 4.40036 4.25613 5.21919L4.25 5.35715L4.25 11.6429C4.25 12.4789 4.92007 13.1733 5.78305 13.2441L5.92856 13.25C6.34277 13.25 6.67856 13.5858 6.67856 14C6.67856 14.4142 6.34277 14.75 5.92856 14.75C4.23837 14.75 2.84888 13.4579 2.75504 11.8197L2.75 11.6429L2.75 5.35715C2.75 3.69537 4.08124 2.34599 5.74869 2.2549L5.92856 2.25L18.0714 2.25ZM7.00177 9.52521C7.24014 9.2337 7.65234 9.16806 7.96622 9.35553L8.05716 9.4194L12 12.6438L15.9428 9.4194C16.2635 9.1572 16.736 9.20456 16.9982 9.52521C17.2366 9.81671 17.2191 10.2337 16.9731 10.5041L16.8924 10.5806L13.1848 13.6126L15.7082 15.6763C15.7277 15.6922 15.7462 15.709 15.7637 15.7264C16.1764 15.5212 16.6405 15.4059 17.1316 15.4059C18.8577 15.4059 20.25 16.8298 20.25 18.5779C20.25 20.3261 18.8577 21.75 17.1316 21.75C15.4055 21.75 14.0132 20.3261 14.0132 18.5779C14.0132 17.8823 14.2337 17.2379 14.608 16.7143L12 14.5815L9.39203 16.7142C9.76633 17.2379 9.98685 17.8823 9.98685 18.5779C9.98685 20.3261 8.59448 21.75 6.86841 21.75C5.14236 21.75 3.75 20.3261 3.75 18.5779C3.75 16.8298 5.14236 15.4059 6.86841 15.4059C7.36018 15.4059 7.82487 15.5215 8.23801 15.7273L8.29178 15.6763L10.8152 13.6126L7.10757 10.5806C6.78693 10.3184 6.73956 9.84586 7.00177 9.52521ZM8.48685 18.5779C8.48685 17.6508 7.75845 16.9059 6.86841 16.9059C5.97839 16.9059 5.25 17.6508 5.25 18.5779C5.25 19.5051 5.97839 20.25 6.86841 20.25C7.75845 20.25 8.48685 19.5051 8.48685 18.5779ZM17.1316 16.9059C18.0216 16.9059 18.75 17.6508 18.75 18.5779C18.75 19.5051 18.0216 20.25 17.1316 20.25C16.2416 20.25 15.5132 19.5051 15.5132 18.5779C15.5132 17.6508 16.2416 16.9059 17.1316 16.9059Z"
		fill-rule="evenodd" />
</svg>