<svg viewBox="0 0 24 24" xmlns="http://www.w3.org/2000/svg"
	xmlns:xlink="http://www.w3.org/1999/xlink">
	<defs />
	<g opacity="0.000000" />
	<path id="矢量 67"
		d="M19.6986 9.5332C19.1647 4.45291 14.6135 0.767395 9.53317 1.30136C4.45291 1.83531 0.767395 6.38654 1.30136 11.4668C1.83533 16.5471 6.38654 20.2326 11.4668 19.6986C13.3294 19.5029 15.0502 18.7599 16.4466 17.5856L21.4738 22.5345L21.5585 22.6064C21.8539 22.822 22.2703 22.7945 22.5345 22.5262C22.8251 22.231 22.8213 21.7561 22.5262 21.4655L17.0007 16.0262C16.7217 15.7436 16.2737 15.7291 15.9774 15.9848C15.9645 15.9956 15.952 16.0071 15.94 16.0193C14.6983 17.2449 13.0825 18.0206 11.31 18.2068C7.05365 18.6542 3.24051 15.5664 2.79315 11.31C2.34576 7.05365 5.43359 3.24051 9.68997 2.79314C13.9464 2.34578 17.7595 5.43359 18.2068 9.68997C18.3448 11.003 18.1496 12.3012 17.6506 13.491C17.4904 13.8729 17.6701 14.3125 18.0521 14.4727C18.4341 14.6329 18.8736 14.4531 19.0338 14.0712C19.6298 12.6502 19.8632 11.0986 19.6986 9.5332Z"
		fill-rule="evenodd" />
</svg>