<svg viewBox="0 0 24 24" xmlns="http://www.w3.org/2000/svg"
	xmlns:xlink="http://www.w3.org/1999/xlink">
	<defs />
	<g opacity="0.000000" />
	<path id="矢量 71"
		d="M3 3.25L18.2 3.25C20.1606 3.25 21.75 4.83939 21.75 6.79999L21.75 7.20001C21.75 9.16061 20.1606 10.75 18.2 10.75L3 10.75C2.24646 10.75 1.9635 9.76337 2.60248 9.36401C4.00595 8.48685 4.64999 7.68176 4.64999 7C4.64999 6.31824 4.00595 5.51315 2.60248 4.636C1.9635 4.23663 2.24646 3.25 3 3.25ZM5.14297 4.75L18.2 4.75C19.3322 4.75 20.25 5.66782 20.25 6.79999L20.25 7.20001L20.2444 7.353C20.1661 8.41373 19.2807 9.25 18.2 9.25L5.17242 9.21826C5.81619 8.51483 6.14999 7.77893 6.14999 7C6.14999 6.28595 5.86951 5.60811 5.32687 4.95827L5.14297 4.75ZM12.75 16.3479C12.75 14.0847 14.5847 12.25 16.8479 12.25C19.1111 12.25 20.9458 14.0847 20.9458 16.3479C20.9458 17.2154 20.6763 18.02 20.2163 18.6824L22.0264 20.4658C22.3214 20.7565 22.325 21.2313 22.0343 21.5264C21.77 21.7946 21.3535 21.8219 21.0583 21.6063L20.9736 21.5342L19.1506 19.7382C18.4943 20.1848 17.7016 20.4458 16.8479 20.4458C14.5847 20.4458 12.75 18.6111 12.75 16.3479ZM2.25516 16.8893C2.35773 18.7698 3.97934 20.25 5.94736 20.25L11 20.25L11.1018 20.2432C11.4678 20.1935 11.75 19.8797 11.75 19.5C11.75 19.0858 11.4142 18.75 11 18.75L5.94736 18.75L5.78943 18.7448C4.64246 18.6691 3.75 17.7745 3.75 16.7L3.75 16.3L3.75546 16.1547C3.8353 15.0978 4.77856 14.25 5.94736 14.25L11 14.25L11.1018 14.2432C11.4678 14.1935 11.75 13.8797 11.75 13.5C11.75 13.0858 11.4142 12.75 11 12.75L5.94736 12.75L5.75177 12.7549C3.80814 12.8524 2.25 14.3941 2.25 16.3L2.25 16.7L2.25516 16.8893ZM19.4458 16.3479C19.4458 14.9131 18.2827 13.75 16.8479 13.75C15.4131 13.75 14.25 14.9131 14.25 16.3479C14.25 17.7827 15.4131 18.9458 16.8479 18.9458C18.2827 18.9458 19.4458 17.7827 19.4458 16.3479Z"
		fill-rule="evenodd" />
</svg>