<?xml version="1.0" encoding="UTF-8"?>
<svg viewBox="0 0 24 24" version="1.1" xmlns="http://www.w3.org/2000/svg" xmlns:xlink="http://www.w3.org/1999/xlink">
    <g id="页面-1" stroke="none" stroke-width="1">
        <g id="画板" transform="translate(-635.000000, -3182.000000)">
            <g id="编组" transform="translate(635.000000, 3182.000000)">
                <path d="M10.02,2 C14.4492136,2 18.04,5.59078644 18.04,10.02 C18.04,11.3981841 17.691108,12.7273502 17.035618,13.9072322 C16.8344581,14.26932 16.3778556,14.3997778 16.0157678,14.198618 C15.65368,13.9974581 15.5232222,13.5408556 15.724382,13.1787678 C16.2568535,12.2203191 16.54,11.1416224 16.54,10.02 C16.54,6.41921356 13.6207864,3.5 10.02,3.5 C6.41857488,3.5 3.5,6.41885221 3.5,10.02 C3.5,13.6211478 6.41857488,16.54 10.02,16.54 C11.6169037,16.54 13.1228989,15.9644738 14.3022196,14.9366086 C14.570175,14.7030656 14.9598105,14.6925571 15.2381807,14.8968361 L15.3265303,14.9728729 L20.6348629,20.305315 C20.9270917,20.5988711 20.9260157,21.0737436 20.6324596,21.3659725 C20.3655905,21.631635 19.948873,21.654897 19.6557559,21.4363778 L19.5718022,21.3635693 L14.7362148,16.5058333 L14.5304542,16.6522837 C13.3041457,17.4879862 11.8626908,17.9725658 10.346086,18.0334622 L10.02,18.04 C5.59011585,18.04 2,14.449543 2,10.02 C2,5.59045699 5.59011585,2 10.02,2 Z" id="Stroke-1"></path>
            </g>
        </g>
    </g>
</svg>