<?xml version="1.0" encoding="UTF-8"?>
<svg viewBox="0 0 24 24" version="1.1" xmlns="http://www.w3.org/2000/svg" xmlns:xlink="http://www.w3.org/1999/xlink">
    <g id="页面-1" stroke="none" stroke-width="1">
        <g id="画板" transform="translate(-789.000000, -3182.000000)">
            <g id="编组" transform="translate(789.000000, 3182.000000)">
                <path d="M3.00545946,5.07460211 L2.99868883,5.25048059 L2.99868883,16.25 C2.99868883,16.6642136 3.33447527,17 3.74868883,17 C4.12524662,17 4.4369886,16.721661 4.49055691,16.36 L4.49868883,16.25 L4.49857769,5.56054903 L19.7137177,20.78 C20.0066109,21.0728932 20.4808245,21.0728932 20.7737177,20.78 C21.0422031,20.5115145 21.0674556,20.0839711 20.8437177,19.79 L20.7737177,19.71 L5.55853076,4.49918175 L16.2437177,4.5 C16.6579312,4.5 16.9937177,4.16421356 16.9937177,3.75 C16.9937177,3.37344222 16.7153787,3.06170024 16.3537177,3.00813193 L16.2437177,3 L5.24916942,3 C4.69103634,3 4.18036992,3.20315836 3.78708222,3.53956301 L3.66105649,3.65662821 C3.29049619,4.02527017 3.04817637,4.52195497 3.00545946,5.07460211 Z" id="路径"></path>
            </g>
        </g>
    </g>
</svg>