<svg viewBox="0 0 24 24" xmlns="http://www.w3.org/2000/svg"
	xmlns:xlink="http://www.w3.org/1999/xlink">
	<defs />
	<g opacity="0.000000" />
	<path id="矢量 72"
		d="M16.2131 5C16.2131 4.58578 15.8773 4.25 15.4631 4.25L5 4.25L4.89819 4.25685C4.53217 4.3065 4.25 4.6203 4.25 5L4.25 15.4631L4.25684 15.5649C4.30652 15.931 4.6203 16.2131 5 16.2131L5.10181 16.2063C5.46783 16.1566 5.75 15.8428 5.75 15.4631L5.74927 6.80991L18.4697 19.5303L18.5538 19.6029C18.8474 19.8208 19.264 19.7966 19.5303 19.5303C19.8232 19.2374 19.8232 18.7626 19.5303 18.4697L6.81067 5.75L15.4631 5.75L15.5649 5.74315C15.931 5.6935 16.2131 5.3797 16.2131 5Z"
		fill-rule="evenodd" />
</svg>