<?xml version="1.0" encoding="UTF-8"?>
<svg viewBox="0 0 24 24" version="1.1" xmlns="http://www.w3.org/2000/svg" xmlns:xlink="http://www.w3.org/1999/xlink">
    <g id="S12组件" stroke="none" stroke-width="1">
        <g id="ic_Sent_lined">
            <path d="M18.992,4 C19.8091674,4 20.5498835,4.32649166 21.0908541,4.85618078 C21.0957726,4.86033758 21.1005753,4.86501515 21.1053301,4.86976991 C21.6166865,5.38085327 21.9429297,6.0643268 21.9869086,6.82369141 L21.992,7 L21.992,12.491333 C21.992,12.9055466 21.6562136,13.241333 21.242,13.241333 C20.8623042,13.241333 20.548509,12.9591791 20.4988466,12.5931036 L20.492,12.491333 L20.492,7 C20.492,6.860913 20.4730962,6.72626382 20.4377164,6.59848013 L13.5873301,13.4484301 C12.7502889,14.2854712 11.4180273,14.3253303 10.5338223,13.5680074 L10.4046699,13.4484301 L4.96566991,8.00943009 C4.6727767,7.71653687 4.6727767,7.24166313 4.96566991,6.94876991 C5.23193648,6.68250335 5.64860016,6.6582973 5.94221165,6.87615176 L6.02633009,6.94876991 L11.4653301,12.3877699 C11.7317908,12.6542306 12.1486808,12.6784543 12.4424923,12.460441 L12.5266699,12.3877699 L19.365749,5.54688241 C19.2914122,5.52783708 19.2148456,5.51434159 19.1365162,5.50686307 L18.992,5.5 L5,5.5 C4.21996571,5.5 3.57951154,6.0945698 3.50686307,6.85548382 L3.5,7 L3.5,17.035 C3.5,17.8150343 4.0945698,18.4223515 4.85548382,18.495 L13.02,18.495 C13.4342136,18.495 13.77,18.8307864 13.77,19.245 C13.77,19.6246958 13.4860756,19.9503376 13.12,20 L5,20 C3.40197264,20 2.09631437,18.7501056 2.00509137,17.175 L2,17.035 L2,7 C2,5.40197264 3.24858586,4.09631437 4.82369141,4.00509137 L5,4 L18.992,4 Z M21.8115288,14.7048524 C22.0690547,14.9795816 22.0797878,15.3968098 21.852562,15.6832303 L21.7772643,15.7649589 L17.5100542,19.7649589 C17.2497108,20.0089998 16.858893,20.0327241 16.573193,19.8365708 L16.4821761,19.7630433 L13.7493862,17.1821755 C13.448242,16.8977726 13.4346705,16.4230928 13.7190734,16.1219486 C13.9776215,15.8481811 14.3934232,15.8120771 14.6931409,16.0214514 L14.7793003,16.0916358 L16.999,18.187 L20.7514222,14.6705879 C21.0536244,14.3873094 21.5282503,14.4026502 21.8115288,14.7048524 Z" id="形状结合"></path>
        </g>
    </g>
</svg>