<svg viewBox="0 0 24 24" xmlns="http://www.w3.org/2000/svg"
	xmlns:xlink="http://www.w3.org/1999/xlink">
	<defs />
	<g opacity="0.000000" />
	<path id="矢量 73"
		d="M17.5115 2.25L4.48846 2.25C2.69891 2.25 1.25 3.70743 1.25 5.50307L1.25 16.4969C1.25 18.2926 2.69891 19.75 4.48846 19.75L10.3217 19.75C10.0011 19.2852 9.73157 18.7824 9.5213 18.25L4.48846 18.25C3.5293 18.25 2.75 17.4661 2.75 16.4969L2.75 5.50307C2.75 4.53389 3.5293 3.75 4.48846 3.75L17.5115 3.75C18.4707 3.75 19.25 4.53389 19.25 5.50307L19.25 8.5213C19.7825 8.73157 20.2852 9.0011 20.75 9.32172L20.75 5.50307C20.75 3.70743 19.3011 2.25 17.5115 2.25ZM17.1511 5.62773C16.9455 5.26814 16.4873 5.14333 16.1277 5.34892L11.1908 8.17178L11.1072 8.21667C10.9973 8.2627 10.895 8.25458 10.8169 8.20618L5.84277 5.64734L5.74915 5.60692C5.40088 5.48376 5.00647 5.63391 4.83289 5.97162C4.64362 6.34003 4.78882 6.79218 5.15723 6.98151L10.0789 9.51068L10.2089 9.58319C10.743 9.8479 11.4431 9.80798 11.9821 9.44489L16.8723 6.65109L16.9573 6.59464C17.2504 6.36981 17.3396 5.95735 17.1511 5.62773ZM10.25 15.5C10.25 12.0482 13.0482 9.25 16.5 9.25C19.9518 9.25 22.75 12.0482 22.75 15.5C22.75 18.9518 19.9518 21.75 16.5 21.75C13.0482 21.75 10.25 18.9518 10.25 15.5ZM21.25 15.5C21.25 12.8766 19.1234 10.75 16.5 10.75C13.8766 10.75 11.75 12.8766 11.75 15.5C11.75 18.1234 13.8766 20.25 16.5 20.25C19.1234 20.25 21.25 18.1234 21.25 15.5ZM19.5326 13.7219C19.2409 13.4278 18.766 13.4258 18.4719 13.7175L15.974 16.193L14.5281 14.7593L14.4437 14.687C14.1492 14.4704 13.7326 14.4964 13.4674 14.7638C13.1758 15.0579 13.1778 15.5328 13.4719 15.8244L15.4465 17.7826L15.5305 17.8544C15.8232 18.0701 16.2369 18.0461 16.5028 17.7826L19.5281 14.7826L19.6011 14.6987C19.8202 14.4061 19.7977 13.9893 19.5326 13.7219Z"
		fill-rule="evenodd" />
</svg>