<?xml version="1.0" encoding="UTF-8"?>
<svg viewBox="0 0 24 24" version="1.1" xmlns="http://www.w3.org/2000/svg" xmlns:xlink="http://www.w3.org/1999/xlink">
    <g id="页面-1" stroke="none" stroke-width="1">
        <g id="画板" transform="translate(-319.000000, -3249.000000)">
            <g id="编组" transform="translate(319.000000, 3249.000000)">
                <path d="M16,11 C18.7618955,11 21,13.2384683 21,16 C21,18.7622136 18.7622136,21 16,21 C13.2377864,21 11,18.7622136 11,16 C11,13.2384683 13.2381045,11 16,11 Z M4.13056744,14.9357585 L10.5234755,18.7003189 C10.880402,18.9105005 10.9993623,19.3702325 10.7891807,19.7271591 C10.5789991,20.0840857 10.1192671,20.203046 9.76234058,19.9928644 L3.36943256,16.228304 C3.01250599,16.0181224 2.89354569,15.5583904 3.10372729,15.2014638 C3.31390888,14.8445372 3.77364088,14.7255769 4.13056744,14.9357585 Z M16,12.5 C14.0665862,12.5 12.5,14.0668409 12.5,16 C12.5,17.9337864 14.0662136,19.5 16,19.5 C17.9337864,19.5 19.5,17.9337864 19.5,16 C19.5,14.0668409 17.9334138,12.5 16,12.5 Z M16,13.5 C16.3796958,13.5 16.693491,13.7821539 16.7431534,14.1482294 L16.75,14.25 L16.75,15.249 L17.75,15.25 C18.1642136,15.25 18.5,15.5857864 18.5,16 C18.5,16.3796958 18.2178461,16.693491 17.8517706,16.7431534 L17.75,16.75 L16.75,16.75 L16.75,17.75 C16.75,18.1642136 16.4142136,18.5 16,18.5 C15.6203042,18.5 15.306509,18.2160756 15.2568466,17.85 L15.25,17.75 L15.25,16.75 L14.25,16.75 C13.8357864,16.75 13.5,16.4142136 13.5,16 C13.5,15.6203042 13.7839244,15.306509 14.15,15.2568466 L14.25,15.25 L15.25,15.25 L15.25,14.25 C15.25,13.8357864 15.5857864,13.5 16,13.5 Z M4.13056744,12.0018509 L9.6353938,15.243451 C9.99232036,15.4536326 10.1112807,15.9133646 9.90109907,16.2702912 C9.69091747,16.6272177 9.23118548,16.746178 8.87425891,16.5359964 L3.36943256,13.2943963 C3.01250599,13.0842147 2.89354569,12.6244827 3.10372729,12.2675562 C3.31390888,11.9106296 3.77364088,11.7916693 4.13056744,12.0018509 Z M12.8020622,3.18018366 L12.9516669,3.25946447 L20.0748722,7.45554611 C20.3489638,7.61700578 20.5774695,7.84554668 20.7388871,8.11966303 C21.2643411,9.01197944 20.9669403,10.1613094 20.0746239,10.6867634 L19.8448971,10.8220415 C19.4879706,11.0322231 19.0282386,10.9132628 18.818057,10.5563362 C18.6078754,10.1994097 18.7268357,9.73967766 19.0837622,9.52949606 L19.313489,9.39421799 C19.4919523,9.28912719 19.5514324,9.0592612 19.4463416,8.88079791 C19.4248193,8.84424907 19.3973336,8.81175137 19.3651587,8.78457924 L19.3135387,8.74797453 L12.1903334,4.55189289 C12.0963679,4.49654047 11.9842928,4.48546999 11.8830835,4.51868144 L11.8096666,4.55189289 L4.68646132,8.74797453 C4.5080142,8.85309276 4.44856938,9.0829679 4.55368761,9.26141502 C4.58597954,9.31623333 4.63168772,9.36193448 4.68651099,9.39421799 L10.2061237,12.6445253 C10.5630503,12.8547069 10.6820106,13.3144389 10.471829,13.6713654 C10.2616474,14.028292 9.80191542,14.1472523 9.44498886,13.9370707 L3.9253761,10.6867634 C3.65125976,10.5253459 3.42271886,10.2968401 3.26125918,10.0227486 C2.76333074,9.17747271 3.00388466,8.10141186 3.78922637,7.54358955 L3.92512777,7.45554611 L11.0483331,3.25946447 C11.5866767,2.94234123 12.2439045,2.91591429 12.8020622,3.18018366 Z" id="形状结合"></path>
            </g>
        </g>
    </g>
</svg>