<svg viewBox="0 0 24 24" xmlns="http://www.w3.org/2000/svg"
	xmlns:xlink="http://www.w3.org/1999/xlink">
	<defs />
	<g opacity="0.000000" />
	<path id="矢量 150"
		d="M20.8641 7.31601L13.3138 2.42853C12.514 1.91077 11.4846 1.91132 10.6853 2.42987L3.15289 7.31689C2.41934 7.79285 2.21048 8.77335 2.68643 9.5069C2.81534 9.7056 2.98715 9.87283 3.18927 9.99628L8.38498 13.1696C8.57565 12.702 8.81219 12.2579 9.08896 11.843L3.97122 8.71625C3.94617 8.67764 3.93073 8.60031 3.96933 8.57526L11.5018 3.68823C11.8049 3.49158 12.1954 3.49133 12.4987 3.68774L20.049 8.5752C20.0729 8.6145 20.0863 8.69232 20.0471 8.71625L18.912 9.40765C19.3954 9.67072 19.8467 9.98535 20.2584 10.3442L20.8277 9.99713C21.5744 9.54202 21.8108 8.56781 21.3557 7.82111C21.2318 7.61795 21.0638 7.44531 20.8641 7.31601ZM21.75 16C21.75 12.5482 18.9518 9.75 15.5 9.75C12.0482 9.75 9.25 12.5482 9.25 16C9.25 19.4518 12.0482 22.25 15.5 22.25C18.9518 22.25 21.75 19.4518 21.75 16ZM10.75 16C10.75 13.3766 12.8766 11.25 15.5 11.25C18.1234 11.25 20.25 13.3766 20.25 16C20.25 18.6234 18.1234 20.75 15.5 20.75C12.8766 20.75 10.75 18.6234 10.75 16ZM3.27197 12.3009L7.86426 14.8444C8.22635 15.0455 8.35678 15.5021 8.15564 15.8642C7.97122 16.1961 7.5722 16.3334 7.22806 16.199L2.63577 13.6556C2.27368 13.4544 2.14325 12.9978 2.34439 12.6357C2.52878 12.3038 2.92783 12.1666 3.27197 12.3009ZM16.2432 13.3982C16.1935 13.0321 15.8797 12.75 15.5 12.75C15.0858 12.75 14.75 13.0858 14.75 13.5L14.7499 15.2496L13 15.25L12.8983 15.2568C12.5322 15.3065 12.25 15.6203 12.25 16C12.25 16.4142 12.5858 16.75 13 16.75L14.7499 16.7496L14.75 18.5L14.7569 18.6017C14.8065 18.9678 15.1203 19.25 15.5 19.25C15.9142 19.25 16.25 18.9142 16.25 18.5L16.2499 16.7496L18 16.75L18.1018 16.7431C18.4679 16.6935 18.75 16.3797 18.75 16C18.75 15.5858 18.4142 15.25 18 15.25L16.2499 15.2496L16.25 13.5L16.2432 13.3982ZM3.29004 15.8616L8.37479 18.8541C8.73151 19.0646 8.85007 19.5244 8.63956 19.8811C8.44659 20.2081 8.04413 20.335 7.70358 20.1917L2.61887 17.1992C2.26212 16.9887 2.14359 16.5289 2.3541 16.1722C2.54706 15.8452 2.94952 15.7183 3.29004 15.8616Z"
		fill-rule="evenodd" />
</svg>