<svg viewBox="0 0 24 24" xmlns="http://www.w3.org/2000/svg"
	xmlns:xlink="http://www.w3.org/1999/xlink">
	<defs />
	<g opacity="0.000000" />
	<path id="矢量 79"
		d="M5.4375 2.625C6.62662 2.625 7.63107 3.41568 7.9538 4.5L20.4375 4.5C20.8517 4.5 21.1875 4.83575 21.1875 5.25C21.1875 5.6297 20.9053 5.94348 20.5393 5.99313L20.4375 6L7.9538 6C7.6311 7.08429 6.62662 7.875 5.4375 7.875C3.98776 7.875 2.8125 6.69977 2.8125 5.25C2.8125 3.80023 3.98776 2.625 5.4375 2.625ZM5.4375 6.375C6.05881 6.375 6.5625 5.87131 6.5625 5.25C6.5625 4.62866 6.05881 4.125 5.4375 4.125C4.81619 4.125 4.3125 4.62866 4.3125 5.25C4.3125 5.87134 4.81619 6.375 5.4375 6.375ZM15 9.375C16.1891 9.375 17.1936 10.1657 17.5163 11.25L20.4375 11.25C20.8517 11.25 21.1875 11.5858 21.1875 12C21.1875 12.3797 20.9053 12.6935 20.5393 12.7431L20.4375 12.75L17.5163 12.75C17.1936 13.8343 16.1891 14.625 15 14.625C13.8109 14.625 12.8064 13.8343 12.4837 12.75L3.5625 12.75C3.14828 12.75 2.8125 12.4142 2.8125 12C2.8125 11.6203 3.09467 11.3065 3.46072 11.2568L3.5625 11.25L12.4837 11.25C12.8064 10.1657 13.8109 9.375 15 9.375ZM15 13.125C15.6213 13.125 16.125 12.6213 16.125 12C16.125 11.3787 15.6213 10.875 15 10.875C14.3787 10.875 13.875 11.3787 13.875 12C13.875 12.6213 14.3787 13.125 15 13.125ZM5.4375 16.125C6.62662 16.125 7.63107 16.9157 7.9538 18L20.4375 18C20.8517 18 21.1875 18.3358 21.1875 18.75C21.1875 19.1297 20.9053 19.4435 20.5393 19.4931L20.4375 19.5L7.9538 19.5C7.63107 20.5843 6.62662 21.375 5.4375 21.375C3.98776 21.375 2.8125 20.1997 2.8125 18.75C2.8125 17.3002 3.98776 16.125 5.4375 16.125ZM5.4375 19.875C6.05881 19.875 6.5625 19.3713 6.5625 18.75C6.5625 18.1287 6.05881 17.625 5.4375 17.625C4.81619 17.625 4.3125 18.1287 4.3125 18.75C4.3125 19.3713 4.81619 19.875 5.4375 19.875Z"
		fill-rule="evenodd" />
</svg>