<svg viewBox="0 0 24 24" xmlns="http://www.w3.org/2000/svg"
	xmlns:xlink="http://www.w3.org/1999/xlink">
	<defs />
	<g opacity="0.000000" />
	<path id="矢量 78"
		d="M9.82874 1.75671L9.97003 1.75L14.0298 1.75C14.6958 1.75 15.2793 2.19604 15.4541 2.83871L15.919 4.54999L16.478 4.87299L18.187 4.42261C18.7854 4.26483 19.413 4.49756 19.7659 4.99396L19.8424 5.11316L21.8738 8.64005C22.2054 9.21576 22.1115 9.94208 21.6443 10.4146L20.397 11.675L20.397 12.324L21.6443 13.5854C22.0755 14.0215 22.1887 14.674 21.9427 15.2246L21.8738 15.36L19.8424 18.8868C19.5097 19.4644 18.8313 19.7473 18.1869 19.5773L16.478 19.126L15.919 19.45L15.4541 21.1613C15.2918 21.7581 14.7771 22.1853 14.1711 22.2433L14.0298 22.25L9.97003 22.25C9.3042 22.25 8.72079 21.8042 8.54587 21.1617L8.07901 19.449L7.521 19.126L5.81311 19.5773C5.21469 19.7352 4.58698 19.5024 4.23404 19.006L4.15759 18.8868L2.12616 15.3599C1.79462 14.7842 1.88843 14.058 2.35538 13.5856L3.60098 12.325L3.60098 11.673L2.35568 10.4146C1.92447 9.97845 1.81128 9.32602 2.05722 8.77539L2.12622 8.64005L4.15759 5.11319C4.49023 4.53564 5.16867 4.25269 5.81311 4.4227L7.521 4.87299L8.07901 4.54999L8.54587 2.83826C8.70828 2.2417 9.22293 1.8147 9.82874 1.75671ZM9.98801 3.25L14.011 3.25L14.5529 5.24109C14.6047 5.43182 14.7298 5.59436 14.9009 5.69339L15.9947 6.32642L16.1011 6.37732C16.2472 6.43353 16.4083 6.44293 16.5616 6.40253L18.552 5.87799L20.564 9.37201L19.1145 10.8396C18.9756 10.98 18.8978 11.1695 18.8978 11.3669L18.8978 12.6331L18.907 12.7502C18.9314 12.9043 19.0034 13.0481 19.1145 13.1604L20.564 14.627L18.552 18.121L16.5625 17.5975C16.3709 17.5469 16.1671 17.5743 15.9955 17.6735L14.804 18.3738C14.6827 18.4722 14.5944 18.6068 14.5529 18.7593L14.011 20.75L9.98801 20.75L9.4462 18.7587C9.39432 18.5681 9.26926 18.4056 9.09824 18.3066L8.00449 17.6736L7.89804 17.6227C7.75189 17.5665 7.59079 17.5571 7.43747 17.5975L5.44699 18.121L3.43399 14.627L4.88519 13.1599C5.02396 13.0194 5.10178 12.83 5.10178 12.6326L5.10178 11.3665L5.09256 11.2493C5.06818 11.0952 4.99612 10.9515 4.88507 10.8392L3.435 9.37201L5.44699 5.87799L7.43747 6.40253C7.62909 6.45306 7.83295 6.42572 8.00449 6.32642L9.19513 5.62665C9.31635 5.52832 9.40469 5.3938 9.4462 5.2413L9.98801 3.25ZM12 7.75C9.6528 7.75 7.75 9.65277 7.75 12C7.75 14.3472 9.6528 16.25 12 16.25C14.3472 16.25 16.25 14.3472 16.25 12C16.25 9.65277 14.3472 7.75 12 7.75ZM12 9.25C13.5188 9.25 14.75 10.4812 14.75 12C14.75 13.5188 13.5188 14.75 12 14.75C10.4812 14.75 9.25 13.5188 9.25 12C9.25 10.4812 10.4812 9.25 12 9.25Z"
		fill-rule="evenodd" />
</svg>