<?xml version="1.0" encoding="UTF-8"?>
<svg viewBox="0 0 24 24" version="1.1" xmlns="http://www.w3.org/2000/svg" xmlns:xlink="http://www.w3.org/1999/xlink">
    <g id="页面-1" stroke="none" stroke-width="1">
        <g id="画板" transform="translate(-635.000000, -3249.000000)">
            <g id="编组" transform="translate(635.000000, 3249.000000)">
                <path d="M13.7315336,2 C14.5214616,2 15.2140363,2.53024454 15.4206501,3.29366613 L15.4206501,3.29366613 L15.8019336,4.7104 L16.1042262,4.89130359 L16.4129336,5.0604 L17.8287005,4.68421355 C18.5413432,4.49461135 19.290205,4.77324076 19.7088459,5.36825438 L19.7088459,5.36825438 L19.7933668,5.50054457 L20.306793,6.39155065 L21.5262831,8.5003995 C21.7200804,8.83654342 21.7951351,9.22318872 21.7451362,9.60175058 C21.6951725,9.98183183 21.5234328,10.335761 21.2499128,10.6092789 L21.2499128,10.6092789 L20.2259336,11.6354 L20.2379898,11.8904365 L20.2400287,12.0713757 L20.2259336,12.3644 L21.2471986,13.3890101 C21.4831828,13.6235193 21.6435432,13.9180235 21.716145,14.236643 L21.716145,14.236643 L21.7450765,14.3977962 C21.7951945,14.7772611 21.7199325,15.1654305 21.5259226,15.5002253 L21.5259226,15.5002253 L19.7932097,18.5007279 C19.5012957,19.0068274 18.9783943,19.330301 18.4039374,19.3709508 C18.2113977,19.385213 18.0175217,19.3670233 17.8286789,19.3167807 L17.8286789,19.3167807 L16.4119336,18.9394 L16.1335023,19.0921588 L15.8029336,19.2894 L15.4204883,20.7079327 C15.2140331,21.4707673 14.5214506,22 13.7315336,22 L13.7315336,22 L10.2665336,22 C9.47586257,22 8.78409813,21.4710037 8.57741713,20.7073339 L8.57741713,20.7073339 L8.19393361,19.2894 L7.96629143,19.1512515 L7.58693361,18.9394 L6.1693667,19.3167865 C6.02772119,19.354472 5.88335279,19.3740925 5.73928378,19.3756208 L5.73928378,19.3756208 L5.59542651,19.3711174 C5.01933708,19.3302222 4.49662233,19.0065686 4.20492562,18.5008459 L4.20492562,18.5008459 L3.20521862,16.7683532 L2.46785195,15.4926959 C2.42472135,15.4160193 2.3988113,15.3459356 2.3825101,15.2886386 L2.3825101,15.2886386 L2.3398746,15.1791565 C2.25643231,14.9393148 2.22338124,14.6987556 2.24753361,14.516 L2.24753361,14.516 L2.25407149,14.389934 L2.28191432,14.2366509 C2.35446865,13.9180788 2.51449672,13.6239066 2.7481544,13.3917211 L2.7481544,13.3917211 L3.77093361,12.3644 L3.75653361,12 L3.77093361,11.6354 L2.74920352,10.6103301 C2.50895558,10.3700821 2.34743638,10.0690741 2.27305289,9.677466 L2.27305289,9.677466 L2.24693361,9.5074 L2.24048552,9.3987555 C2.23982009,9.21368722 2.27107163,9.02902436 2.33116864,8.84729951 L2.33116864,8.84729951 L2.38293361,8.7104 L2.40528715,8.64360796 C2.42115538,8.60076723 2.4413126,8.55598609 2.47219732,8.49968362 L2.47219732,8.49968362 L4.20519876,5.49968113 C4.60069716,4.8154339 5.40582092,4.48106834 6.1693883,4.6842193 L6.1693883,4.6842193 L7.58393361,5.0604 L7.85624431,4.91281622 L8.19393361,4.7104 L8.57757893,3.29306731 C8.78409523,2.53000705 9.47585108,2 10.2665336,2 L10.2665336,2 Z M13.7315336,3.5 L10.2665336,3.5 C10.1536864,3.5 10.055095,3.5755384 10.0256501,3.68433387 L10.0256501,3.68433387 L9.55959603,5.41053415 C9.50525751,5.61174954 9.36963896,5.78127889 9.18526268,5.87846784 L9.18526268,5.87846784 L9.02803323,5.96006151 L8.64322625,6.19069641 L8.2185754,6.42629391 L8.13093843,6.48290771 C7.94982182,6.6093858 7.72215783,6.64958466 7.50867892,6.5927807 L7.50867892,6.5927807 L5.78370052,6.13378645 C5.67519249,6.10491734 5.56034217,6.15261435 5.50405742,6.24999175 L5.50405742,6.24999175 L3.80193361,9.1954 L3.75480094,9.31979308 L3.74584609,9.36383711 L3.74293361,9.4184 L3.75293044,9.45969731 L3.77656084,9.50803608 L3.81091281,9.55072111 L5.07091281,10.8157211 C5.2267037,10.9721302 5.3056738,11.1892315 5.28678244,11.4091809 L5.28678244,11.4091809 L5.2717499,11.6489239 L5.26405575,11.8627686 L5.25666725,11.9947549 L5.27176396,12.352434 L5.28678244,12.5918191 C5.3056738,12.8117685 5.2267037,13.0288698 5.07091281,13.1852789 L5.07091281,13.1852789 L3.80819862,14.4529899 C3.77121619,14.4897412 3.74738759,14.5388483 3.73899573,14.602066 L3.74293361,14.5824 L3.74353089,14.6312182 L3.75212486,14.6720665 L3.80193361,14.8044 L5.50420971,17.7512721 C5.54562446,17.8230741 5.61992953,17.8690821 5.70343182,17.8750119 C5.73003982,17.8769648 5.75628232,17.8745083 5.78367892,17.8672193 L5.78367892,17.8672193 L7.50867892,17.4082193 C7.70998318,17.3546549 7.92449657,17.3872252 8.10082925,17.4981276 L8.10082925,17.4981276 L8.24697571,17.5916086 L8.64174347,17.8084507 L9.06397417,18.0606281 L9.15586574,18.1078501 C9.35468109,18.2017629 9.50227067,18.3781902 9.55959603,18.5904658 L9.55959603,18.5904658 L10.0254883,20.3160673 C10.054949,20.4249222 10.1531277,20.5 10.2665336,20.5 L10.2665336,20.5 L13.7315336,20.5 C13.8444031,20.5 13.9432392,20.424475 13.9724171,20.3166661 L13.9724171,20.3166661 L14.4384712,18.5904658 C14.4957965,18.3781902 14.6433861,18.2017629 14.8422015,18.1078501 L14.8422015,18.1078501 L14.934093,18.0606281 L15.3120203,17.8341534 L15.7787275,17.5751367 L15.8671288,17.5180923 C16.0482454,17.3916142 16.2759094,17.3514153 16.4893883,17.4082193 L16.4893883,17.4082193 L18.2143667,17.8672135 C18.2416854,17.8744818 18.2677614,17.8769283 18.2955891,17.8748711 C18.3781693,17.8690269 18.452437,17.8230839 18.4938846,17.7512252 L18.4938846,17.7512252 L20.2276158,14.7489605 C20.2545609,14.7024624 20.2651059,14.6480757 20.2579907,14.5942038 C20.2506796,14.5388483 20.226851,14.4897412 20.1871544,14.4502789 L20.1871544,14.4502789 L18.9271544,13.1852789 C18.7713635,13.0288698 18.6923934,12.8117685 18.7112848,12.5918191 L18.7112848,12.5918191 L18.7171037,12.5172087 L18.7414043,12.0064496 L18.7262893,11.6480786 L18.7112848,11.4091809 C18.6923934,11.1892315 18.7713635,10.9721302 18.9271544,10.8157211 L18.9271544,10.8157211 L20.1882035,9.54966991 C20.226829,9.51104448 20.250593,9.46207033 20.2579907,9.40579622 C20.2651063,9.35192084 20.2546147,9.29787316 20.2272742,9.25044935 L20.2272742,9.25044935 L19.0077005,7.14145543 L18.4941988,6.25031887 C18.437725,6.15261435 18.3228747,6.10491734 18.2143883,6.1337807 L18.2143883,6.1337807 L16.4893883,6.5927807 C16.2759094,6.64958466 16.0482454,6.6093858 15.8671288,6.48290771 L15.8671288,6.48290771 L15.7794918,6.42629391 L15.4428618,6.24029631 L14.9084148,5.92619455 L14.8449957,5.89446279 C14.6448179,5.80091234 14.4960779,5.6238516 14.4384712,5.41053415 L14.4384712,5.41053415 L13.9725789,3.68493269 C13.9430934,3.57598623 13.8438446,3.5 13.7315336,3.5 L13.7315336,3.5 Z M11.9988336,7.7553 C14.3460472,7.7553 16.2488336,9.65808644 16.2488336,12.0053 C16.2488336,14.3525136 14.3460472,16.2553 11.9988336,16.2553 C9.65162004,16.2553 7.74883361,14.3525136 7.74883361,12.0053 C7.74883361,9.65808644 9.65162004,7.7553 11.9988336,7.7553 Z M11.9988336,9.2553 C10.4800472,9.2553 9.24883361,10.4865136 9.24883361,12.0053 C9.24883361,13.5240864 10.4800472,14.7553 11.9988336,14.7553 C13.51762,14.7553 14.7488336,13.5240864 14.7488336,12.0053 C14.7488336,10.4865136 13.51762,9.2553 11.9988336,9.2553 Z" id="形状结合"></path>
            </g>
        </g>
    </g>
</svg>