<?xml version="1.0" encoding="UTF-8"?>
<svg viewBox="0 0 24 24" version="1.1" xmlns="http://www.w3.org/2000/svg" xmlns:xlink="http://www.w3.org/1999/xlink">
    <g id="设置数据">
        <rect id="bj" opacity="0" x="0" y="0" width="24" height="24"></rect>
        <path d="M5.5,15.75 C6.7589387,15.75 7.82029174,16.5959647 8.14660943,17.7504445 L20.5,17.75 C20.9142136,17.75 21.25,18.0857864 21.25,18.5 C21.25,18.8796958 20.9678461,19.193491 20.6017706,19.2431534 L20.5,19.25 L8.14632705,19.2505538 C7.81967982,20.4045229 6.75857578,21.25 5.5,21.25 C3.98121694,21.25 2.75,20.0187831 2.75,18.5 C2.75,16.9812169 3.98121694,15.75 5.5,15.75 Z M5.5,17.25 C4.80964406,17.25 4.25,17.8096441 4.25,18.5 C4.25,19.1903559 4.80964406,19.75 5.5,19.75 C6.19035594,19.75 6.75,19.1903559 6.75,18.5 C6.75,17.8096441 6.19035594,17.25 5.5,17.25 Z M15.5,9.25 C16.7589387,9.25 17.8202917,10.0959647 18.1466094,11.2504445 L20.5,11.25 C20.9142136,11.25 21.25,11.5857864 21.25,12 C21.25,12.3796958 20.9678461,12.693491 20.6017706,12.7431534 L20.5,12.75 L18.146327,12.7505538 C17.8196798,13.9045229 16.7585758,14.75 15.5,14.75 C14.2414242,14.75 13.1803202,13.9045229 12.853673,12.7505538 L3.5,12.75 C3.08578644,12.75 2.75,12.4142136 2.75,12 C2.75,11.6203042 3.03215388,11.306509 3.39822944,11.2568466 L3.5,11.25 L12.8533906,11.2504445 C13.1797083,10.0959647 14.2410613,9.25 15.5,9.25 Z M15.5,10.75 C14.8096441,10.75 14.25,11.3096441 14.25,12 C14.25,12.6903559 14.8096441,13.25 15.5,13.25 C16.1903559,13.25 16.75,12.6903559 16.75,12 C16.75,11.3096441 16.1903559,10.75 15.5,10.75 Z M5.5,2.75 C6.7589387,2.75 7.82029174,3.59596473 8.14660943,4.75044448 L20.5,4.75 C20.9142136,4.75 21.25,5.08578644 21.25,5.5 C21.25,5.87969577 20.9678461,6.19349096 20.6017706,6.24315338 L20.5,6.25 L8.14632705,6.25055384 C7.81967982,7.40452293 6.75857578,8.25 5.5,8.25 C3.98121694,8.25 2.75,7.01878306 2.75,5.5 C2.75,3.98121694 3.98121694,2.75 5.5,2.75 Z M5.5,4.25 C4.80964406,4.25 4.25,4.80964406 4.25,5.5 C4.25,6.19035594 4.80964406,6.75 5.5,6.75 C6.19035594,6.75 6.75,6.19035594 6.75,5.5 C6.75,4.80964406 6.19035594,4.25 5.5,4.25 Z"></path>
    </g>
</svg>