<svg viewBox="0 0 24 24" xmlns="http://www.w3.org/2000/svg"
	xmlns:xlink="http://www.w3.org/1999/xlink">
	<defs />
	<path id="矢量 83"
		d="M14.456 6.74899L14.4569 4.5C14.4569 3.85641 15.2142 3.51175 15.6995 3.93445L21.4926 8.98032C21.8431 9.28561 21.8344 9.83295 21.4743 10.1269L15.6812 14.8558C15.1913 15.2557 14.4569 14.9071 14.4569 14.2748L14.456 11.85L14.2724 11.8359C12.6014 11.7455 10.4306 12.7225 7.78262 14.832L7.47498 15.0804C6.91788 15.5363 6.10089 15.0217 6.27136 14.3224C7.47278 9.39334 10.2789 6.80991 14.456 6.74899ZM12.1714 5.16028C12.1714 4.74606 11.8356 4.41028 11.4214 4.41028L5.39999 4.41028L5.22174 4.41513C3.56958 4.50525 2.25 5.84052 2.25 7.48563L2.25 17.1746L2.255 17.3497C2.34799 18.9714 3.72531 20.25 5.39999 20.25L18.6 20.25L18.7783 20.2451C20.4304 20.155 21.75 18.8197 21.75 17.1746L21.75 13.6932L21.7432 13.5914C21.6935 13.2253 21.3797 12.9432 21 12.9432C20.5858 12.9432 20.25 13.279 20.25 13.6932L20.25 17.1746L20.2433 17.3172C20.1679 18.1161 19.4656 18.75 18.6 18.75L5.39999 18.75L5.24905 18.7435C4.4043 18.6705 3.75 17.9912 3.75 17.1746L3.75 7.48563L3.75668 7.34305C3.83206 6.54422 4.53442 5.91028 5.39999 5.91028L11.4214 5.91028L11.5232 5.90344C11.8893 5.85376 12.1714 5.53998 12.1714 5.16028ZM15.956 6.147L19.836 9.526L15.956 12.694L15.9569 11.23C15.9569 10.8924 15.7314 10.5964 15.4059 10.5068L15.1867 10.452C13.3482 10.0374 11.1909 10.6726 8.69821 12.3098L8.4697 12.4229C9.77859 9.41266 11.9817 8.06671 15.1596 8.26767C15.5916 8.29501 15.9569 7.95203 15.9569 7.51917L15.956 6.147Z"
		fill-rule="evenodd" />
</svg>