<?xml version="1.0" encoding="UTF-8"?>
<svg viewBox="0 0 24 24" version="1.1" xmlns="http://www.w3.org/2000/svg" xmlns:xlink="http://www.w3.org/1999/xlink">
    <g id="页面-1" stroke="none" stroke-width="1">
        <g id="画板" transform="translate(-789.000000, -3249.000000)">
            <g id="编组" transform="translate(789.000000, 3249.000000)">
                <path d="M11.9995,2.9757 C13.435366,2.9757 14.5995,4.14113808 14.5995,5.5767 C14.5995,7.0121963 13.435431,8.1767 11.9995,8.1767 C11.7918842,8.1767 11.5899462,8.15232476 11.396388,8.10628139 L6.45104434,16.5976682 C6.7444089,16.8950147 6.96663401,17.2626597 7.09015715,17.6730099 L16.9098192,17.6730892 C17.23185,16.6031068 18.2248492,15.8233 19.3999,15.8233 C20.835831,15.8233 21.9999,16.9878037 21.9999,18.4233 C21.9999,19.8588619 20.835766,21.0243 19.3999,21.0243 C18.2249023,21.0243 17.2318693,20.2438675 16.9098245,19.1736218 L7.09015188,19.1737011 C6.76803297,20.244013 5.77473796,21.0243 4.5991,21.0243 C3.16401638,21.0243 2.0001,19.8586445 2.0001,18.4233 C2.0001,16.9880211 3.16395156,15.8233 4.5991,15.8233 C4.78198686,15.8233 4.96045929,15.8421662 5.13267765,15.8780569 L10.0989723,7.34983898 C9.66568225,6.88527191 9.4005,6.2618091 9.4005,5.5767 C9.4005,4.14135551 10.5644164,2.9757 11.9995,2.9757 Z M4.5991,17.3233 C3.99262956,17.3233 3.5001,17.8161975 3.5001,18.4233 C3.5001,19.0307183 3.99294528,19.5243 4.5991,19.5243 C5.20707068,19.5243 5.7001,19.0309026 5.7001,18.4233 C5.70011434,18.4287112 5.7001,18.4260073 5.7001,18.4233 C5.69717545,18.0137305 5.47894138,17.6632329 5.15489397,17.4735326 L5.09077447,17.4414126 L5.09077447,17.4414126 C4.93888484,17.3639207 4.7737565,17.3233 4.5991,17.3233 Z M19.3999,17.3233 C18.7925215,17.3233 18.2999,17.8161055 18.2999,18.4233 C18.2999,19.0308105 18.7928373,19.5243 19.3999,19.5243 C20.0069627,19.5243 20.4999,19.0308105 20.4999,18.4233 C20.4999,17.8161055 20.0072785,17.3233 19.3999,17.3233 Z M11.9995,4.4757 C11.3933453,4.4757 10.9005,4.96928169 10.9005,5.5767 C10.9005,6.18380247 11.3930296,6.6767 11.9995,6.6767 C12.6068785,6.6767 13.0995,6.18389451 13.0995,5.5767 C13.0995,4.96918948 12.6065627,4.4757 11.9995,4.4757 Z" id="形状结合"></path>
            </g>
        </g>
    </g>
</svg>