<svg viewBox="0 0 24 24" xmlns="http://www.w3.org/2000/svg"
	xmlns:xlink="http://www.w3.org/1999/xlink">
	<defs />
	<g opacity="0.000000" />
	<path id="矢量 156"
		d="M12 2.25C13.5188 2.25 14.75 3.48123 14.75 5C14.75 6.51877 13.5188 7.75 12 7.75C11.7234 7.75 11.4565 7.70917 11.2047 7.63324L6.89059 15.503C7.26648 15.8589 7.54193 16.3199 7.67001 16.8389L16.33 16.8389C16.626 15.6394 17.7091 14.75 19 14.75C20.5188 14.75 21.75 15.9812 21.75 17.5C21.75 19.0188 20.5188 20.25 19 20.25C17.7737 20.25 16.7348 19.4473 16.3802 18.3386L7.61981 18.3386C7.26523 19.4473 6.22635 20.25 5 20.25C3.48123 20.25 2.25 19.0188 2.25 17.5C2.25 15.9812 3.48123 14.75 5 14.75C5.1926 14.75 5.38055 14.7698 5.56195 14.8075L9.93872 6.82037C9.51013 6.33542 9.25 5.69809 9.25 5C9.25 3.48123 10.4812 2.25 12 2.25ZM10.75 5C10.75 4.30963 11.3096 3.75 12 3.75C12.6904 3.75 13.25 4.30963 13.25 5C13.25 5.69037 12.6904 6.25 12 6.25C11.3096 6.25 10.75 5.69037 10.75 5ZM3.75 17.5C3.75 16.8096 4.30963 16.25 5 16.25C5.69037 16.25 6.25 16.8096 6.25 17.5C6.25 18.1904 5.69037 18.75 5 18.75C4.30963 18.75 3.75 18.1904 3.75 17.5ZM19 16.25C18.3096 16.25 17.75 16.8096 17.75 17.5C17.75 18.1904 18.3096 18.75 19 18.75C19.6904 18.75 20.25 18.1904 20.25 17.5C20.25 16.8096 19.6904 16.25 19 16.25Z"
		fill-rule="evenodd" />
</svg>