<?xml version="1.0" encoding="UTF-8"?>
<svg viewBox="0 0 24 24" version="1.1" xmlns="http://www.w3.org/2000/svg" xmlns:xlink="http://www.w3.org/1999/xlink">
    <g id="页面-1" stroke="none" stroke-width="1">
        <g id="画板" transform="translate(-1076.000000, -3246.000000)">
            <g id="编组" transform="translate(1076.000000, 3246.000000)">
                <path d="M2.74919125,2.37495 C3.77476378,2.37495 4.67502592,3.04010814 4.98558682,4.0046642 L5.03180714,4.16813303 L7.49819125,14.28095 L17.2364912,14.28185 C17.8905457,14.28185 18.4626608,13.8605728 18.6622739,13.249064 L18.6992407,13.1151989 L20.3099912,6.04535 L7.10583496,6.04585 C6.7261392,6.04585 6.412344,5.76369612 6.36268158,5.39762056 L6.35583496,5.29585 C6.35583496,4.91615423 6.63798884,4.60235904 7.0040644,4.55269662 L7.10583496,4.54585 L21.2504912,4.54585 C21.697574,4.54585 22.0371239,4.9314579 21.9976924,5.36240248 L21.9817418,5.46250114 L20.1618339,13.4480967 C19.8648311,14.7546541 18.7410438,15.6969402 17.4180721,15.7764083 L17.2364912,15.78185 L7.86419125,15.78095 L8.21199125,17.20335 L17.8481912,17.20395 L17.8760779,17.2042258 C19.0842833,17.219301 20.0578912,18.2022459 20.0578912,19.41405 C20.0578912,20.6352958 19.069073,21.62505 17.8478912,21.62505 C16.6266777,21.62505 15.6368912,20.6352636 15.6368912,19.41405 C15.6368912,19.1651679 15.6780019,18.9259372 15.7538043,18.7027617 L9.71730988,18.7028523 C9.79309032,18.9260132 9.83419125,19.1652155 9.83419125,19.41405 C9.83419125,20.6350295 8.84463884,21.62505 7.62419125,21.62505 C6.40297768,21.62505 5.41319125,20.6352636 5.41319125,19.41405 C5.41319125,18.5161922 5.9482259,17.7439438 6.71692417,17.3979574 L3.57463678,4.52401848 C3.49089637,4.18140058 3.20593657,3.92974943 2.86478913,3.88284538 L2.74919125,3.87495 C2.33497768,3.87495 1.99919125,3.53916356 1.99919125,3.12495 C1.99919125,2.71073644 2.33497768,2.37495 2.74919125,2.37495 Z M7.62419125,18.70405 C7.23105509,18.70405 6.91319125,19.0216133 6.91319125,19.41405 C6.91319125,19.8068364 7.23140481,20.12505 7.62419125,20.12505 C8.01605287,20.12505 8.33419125,19.8067611 8.33419125,19.41405 C8.33419125,19.0216883 8.01640258,18.70405 7.62419125,18.70405 Z M17.8478912,18.70405 C17.4547551,18.70405 17.1368912,19.0216133 17.1368912,19.41405 C17.1368912,19.8068364 17.4551048,20.12505 17.8478912,20.12505 C18.240328,20.12505 18.5578912,19.8071862 18.5578912,19.41405 C18.5578912,19.0212636 18.2406777,18.70405 17.8478912,18.70405 Z" id="形状结合"></path>
            </g>
        </g>
    </g>
</svg>