<svg viewBox="0 0 24 24" xmlns="http://www.w3.org/2000/svg"
	xmlns:xlink="http://www.w3.org/1999/xlink">
	<defs />
	<path id="矢量 84"
		d="M4.86761 1.75C5.19522 1.75 5.48026 1.96173 5.58002 2.26541L5.60623 2.36987L5.84933 3.75L22.13 3.75C22.621 3.75 22.9796 4.21399 22.8558 4.68915L20.5103 13.6891C20.4243 14.0195 20.1259 14.25 19.7846 14.25L7.69879 14.25L7.96301 15.75L18.88 15.75C19.2597 15.75 19.5735 16.0322 19.6232 16.3982L19.63 16.5C19.63 16.8797 19.3478 17.1935 18.9818 17.2432L18.88 17.25L7.33408 17.25C7.00647 17.25 6.72141 17.0383 6.62164 16.7346L6.59543 16.6301L4.237 3.25L1.88 3.25C1.50031 3.25 1.18652 2.96783 1.13684 2.60178L1.13 2.5C1.13 2.1203 1.41217 1.80652 1.77823 1.75684L1.88 1.75L4.86761 1.75ZM21.159 5.25L19.204 12.75L7.46204 12.75L6.14703 5.25L21.159 5.25ZM8.13 20.5C8.13 19.5335 8.91351 18.75 9.88 18.75C10.8465 18.75 11.63 19.5335 11.63 20.5C11.63 21.4665 10.8465 22.25 9.88 22.25C8.91351 22.25 8.13 21.4665 8.13 20.5ZM15.33 20.5C15.33 19.5335 16.1135 18.75 17.08 18.75C18.0465 18.75 18.83 19.5335 18.83 20.5C18.83 21.4665 18.0465 22.25 17.08 22.25C16.1135 22.25 15.33 21.4665 15.33 20.5Z"
		fill-rule="evenodd" />
</svg>