<svg viewBox="0 0 24 24" xmlns="http://www.w3.org/2000/svg"
	xmlns:xlink="http://www.w3.org/1999/xlink">
	<defs />
	<g opacity="0.000000" />
	<path id="矢量 247"
		d="M19.8212 1.57861C19.5824 1.52618 19.3378 1.5 19.0875 1.5L12 1.5C11.7497 1.5 11.5051 1.52618 11.2663 1.57861C11.0639 1.62305 10.8656 1.68634 10.6714 1.76855C10.4772 1.85065 10.2936 1.94885 10.1205 2.06311C9.93005 2.18896 9.75177 2.33472 9.58701 2.49951C9.42224 2.66425 9.27692 2.84192 9.15106 3.03241C9.03677 3.20544 8.93814 3.38971 8.85599 3.58398C8.77393 3.77795 8.71066 3.9762 8.66623 4.17847C8.6138 4.41724 8.58749 4.66217 8.58749 4.91248L8.58749 7.53748L10.1625 7.53748L10.1625 4.91248C10.1625 4.76855 10.1785 4.62842 10.2104 4.49194C10.2339 4.39178 10.2659 4.2937 10.3066 4.19751C10.3488 4.0976 10.399 4.00287 10.4572 3.91327C10.5268 3.80621 10.6084 3.70551 10.7007 3.61322C10.7931 3.52087 10.8928 3.43982 11 3.37018C11.0898 3.31183 11.1848 3.26141 11.285 3.21906C11.3809 3.17853 11.4788 3.14655 11.5787 3.12305C11.7151 3.09106 11.8561 3.07501 12 3.07501L19.0875 3.07501C19.2307 3.07501 19.3703 3.09082 19.5061 3.1225C19.6063 3.14594 19.7064 3.17847 19.8025 3.21906C19.9026 3.26141 19.9976 3.31177 20.0873 3.37006C20.1945 3.43964 20.2944 3.52081 20.3868 3.61322C20.4792 3.70557 20.5602 3.80536 20.6298 3.91248C20.6882 4.00232 20.7385 4.09729 20.7809 4.19751C20.8213 4.29291 20.8531 4.39026 20.8766 4.48962C20.9085 4.6261 20.925 4.76855 20.925 4.91248L20.925 12C20.925 12.1439 20.909 12.2841 20.8771 12.4205C20.8536 12.5207 20.8216 12.6189 20.7809 12.715C20.7385 12.8152 20.6882 12.9102 20.6298 13C20.5602 13.1072 20.4792 13.207 20.3868 13.2993C20.2944 13.3917 20.1947 13.4727 20.0875 13.5423C19.9977 13.6007 19.9027 13.6511 19.8025 13.6934C19.7064 13.7341 19.6082 13.7662 19.508 13.7896C19.3716 13.8215 19.2314 13.8375 19.0875 13.8375L16.4625 13.8375L16.4625 15.4125L19.0875 15.4125C19.3377 15.4125 19.5821 15.3863 19.8208 15.3339C20.0232 15.2894 20.2219 15.2261 20.416 15.144C20.6105 15.0618 20.7944 14.9634 20.9676 14.8489C21.1581 14.7231 21.3357 14.5778 21.5005 14.413C21.6653 14.2482 21.8106 14.0706 21.9365 13.8801C22.0509 13.7069 22.1493 13.523 22.2315 13.3285C22.3136 13.1344 22.3769 12.9361 22.4214 12.7336C22.4738 12.4949 22.5 12.2503 22.5 12L22.5 4.91248C22.5 4.66229 22.4738 4.41779 22.4214 4.17908C22.377 3.97711 22.3134 3.77771 22.2315 3.58398C22.1496 3.39026 22.0517 3.20709 21.9378 3.03442C21.812 2.84412 21.6652 2.66418 21.5005 2.49951C21.3362 2.33514 21.159 2.19012 20.9691 2.06445C20.7958 1.95001 20.6105 1.85077 20.416 1.76855C20.2219 1.68634 20.0236 1.62305 19.8212 1.57861ZM16.8644 11.7825C16.7189 11.7073 16.5775 11.6302 16.4402 11.5513C16.2524 9.66919 14.8951 8.13141 13.1056 7.67529C13.0284 7.47485 12.955 7.2663 12.8857 7.0498L11.5044 7.0498L11.5044 5.44507L14.6592 5.44507C14.5991 5.25641 14.5431 5.09454 14.4914 4.95953L14.3178 4.50641L15.9932 4.1286L16.1235 4.46741C16.2169 4.71021 16.3225 5.03607 16.4403 5.44507L19.5679 5.44507L19.5679 7.0498L18.1685 7.0498C17.9889 7.65131 17.7747 8.19226 17.5258 8.67255C17.3069 9.09509 17.0504 9.48468 16.7564 9.84125C17.0416 10.0275 17.3568 10.2019 17.7019 10.3646C18.213 10.6054 18.811 10.831 19.4957 11.0412L19.9348 11.1761L19.2765 12.7891L18.8975 12.6525C18.1265 12.3747 17.4488 12.0847 16.8644 11.7825ZM15.0043 7.97736C15.1516 8.25171 15.3218 8.50732 15.515 8.74426C15.6825 8.52545 15.9115 8.23932 16.0403 7.99091C16.187 7.70795 16.3164 7.39429 16.4285 7.0498L14.6031 7.0498C14.7188 7.38525 14.8525 7.69446 15.0043 7.97736ZM12.7337 8.66614C12.4949 8.61371 12.2503 8.58752 12 8.58752L4.91251 8.58752C4.66217 8.58752 4.4176 8.61371 4.17877 8.66614C3.97638 8.71063 3.77811 8.77386 3.58395 8.85602C3.38947 8.93823 3.2056 9.03662 3.03241 9.15106C2.84189 9.27686 2.66428 9.42224 2.49951 9.58698C2.33472 9.75177 2.18942 9.92944 2.06357 10.1199C1.9491 10.2931 1.85077 10.477 1.76849 10.6715C1.68637 10.8656 1.62311 11.0639 1.57867 11.2663C1.52621 11.5051 1.5 11.7497 1.5 12L1.5 19.0875C1.5 19.3378 1.52621 19.5824 1.57864 19.8212C1.62311 20.0236 1.68637 20.2219 1.76849 20.416C1.85077 20.6105 1.94913 20.7944 2.06357 20.9676C2.18942 21.1581 2.33472 21.3358 2.49951 21.5005C2.66428 21.6653 2.84192 21.8106 3.03241 21.9364C3.20563 22.0509 3.38947 22.1492 3.58395 22.2314C3.77811 22.3137 3.97641 22.3769 4.1788 22.4214C4.41751 22.4738 4.66229 22.5 4.91251 22.5L12 22.5C12.2503 22.5 12.4949 22.4738 12.7337 22.4214C12.9361 22.3769 13.1344 22.3137 13.3286 22.2314C13.523 22.1492 13.7069 22.0509 13.8801 21.9364C14.0706 21.8106 14.2482 21.6653 14.413 21.5005C14.5778 21.3358 14.7231 21.1581 14.8489 20.9676C14.9634 20.7944 15.0618 20.6105 15.144 20.416C15.2261 20.2219 15.2894 20.0236 15.3339 19.8212C15.3863 19.5824 15.4125 19.3378 15.4125 19.0875L15.4125 12C15.4125 11.7497 15.3863 11.5051 15.3339 11.2664C15.2894 11.0639 15.2261 10.8656 15.144 10.6715C15.0618 10.477 14.9634 10.2931 14.849 10.1199C14.7231 9.92944 14.5778 9.75177 14.413 9.58698C14.2482 9.42224 14.0706 9.27686 13.8801 9.15106C13.7069 9.03662 13.523 8.93823 13.3286 8.85602C13.1344 8.77386 12.9362 8.71063 12.7337 8.66614ZM4.91251 10.1625L12 10.1625C12.1439 10.1625 12.2841 10.1785 12.4205 10.2104C12.5207 10.2338 12.6189 10.2659 12.715 10.3066C12.8152 10.3489 12.9102 10.3993 13 10.4577C13.1072 10.5273 13.2069 10.6083 13.2993 10.7007C13.3917 10.793 13.4727 10.8928 13.5423 11C13.6007 11.0898 13.651 11.1848 13.6934 11.285C13.7341 11.3811 13.7661 11.4793 13.7896 11.5795C13.8215 11.7159 13.8375 11.8561 13.8375 12L13.8375 19.0875C13.8375 19.2314 13.8215 19.3716 13.7896 19.5081C13.7661 19.6082 13.7341 19.7064 13.6934 19.8025C13.651 19.9027 13.6007 19.9977 13.5423 20.0875C13.4727 20.1946 13.3917 20.2944 13.2993 20.3868C13.2069 20.4792 13.1072 20.5602 13 20.6298C12.9102 20.6882 12.8152 20.7386 12.715 20.7809C12.6189 20.8215 12.5207 20.8537 12.4205 20.8771C12.2841 20.9091 12.1439 20.925 12 20.925L4.91251 20.925C4.76859 20.925 4.62842 20.9091 4.49197 20.8771C4.39182 20.8537 4.29364 20.8215 4.19751 20.7809C4.09732 20.7386 4.00232 20.6882 3.91251 20.6298C3.80533 20.5602 3.70557 20.4792 3.61319 20.3868C3.52081 20.2944 3.43982 20.1946 3.37021 20.0875C3.31189 19.9977 3.26141 19.9026 3.21909 19.8025C3.17841 19.7064 3.14636 19.6082 3.12289 19.5081C3.091 19.3716 3.07501 19.2314 3.07501 19.0875L3.07501 12C3.07501 11.8561 3.09097 11.7159 3.12289 11.5795C3.14636 11.4793 3.17841 11.3812 3.21909 11.285C3.26144 11.1848 3.3118 11.0898 3.37015 11.0001C3.43979 10.8929 3.52081 10.793 3.61319 10.7007C3.70557 10.6083 3.80533 10.5273 3.91251 10.4577C4.00232 10.3993 4.09732 10.3489 4.19751 10.3066C4.29364 10.2659 4.39182 10.2338 4.49197 10.2104C4.6283 10.1786 4.76871 10.1625 4.91251 10.1625ZM9.21332 11.5513L10.5443 14.9612L10.6008 15.106L10.6568 15.2495L11.3711 17.0795L12.0176 18.736L12.0903 18.9222C12.1319 19.0289 12.1517 19.1351 12.1495 19.2409C12.1473 19.3467 12.1232 19.452 12.0772 19.5569C12.0312 19.6619 11.9701 19.7509 11.8937 19.8242C11.8174 19.8975 11.7259 19.9548 11.6192 19.9965C11.5125 20.0381 11.4063 20.0579 11.3005 20.0557C11.1947 20.0535 11.0894 20.0294 10.9844 19.9835C10.8796 19.9375 10.7905 19.8763 10.7172 19.7999C10.644 19.7236 10.5865 19.6321 10.5449 19.5254L10.5031 19.4186L9.8653 17.7843L7.0275 17.7959L6.35812 19.5235C6.31674 19.6303 6.25952 19.722 6.18646 19.7985C6.11337 19.875 6.02444 19.9364 5.91968 19.9827C5.81488 20.0289 5.70963 20.0532 5.60385 20.0557C5.49805 20.0581 5.39175 20.0387 5.28497 19.9973C5.17816 19.9559 5.08652 19.8986 5.00998 19.8256C4.93347 19.7525 4.87207 19.6636 4.82584 19.5588C4.77957 19.454 4.75522 19.3488 4.75278 19.243C4.75034 19.1372 4.76981 19.0309 4.81119 18.9241L4.8526 18.8173L5.52518 17.0814L5.56979 16.9662L6.20645 15.3231L6.28983 15.1079L7.66714 11.5532C7.70346 11.4595 7.75262 11.377 7.8147 11.3056C7.86411 11.2488 7.92169 11.1991 7.98746 11.1565C8.05045 11.1157 8.11639 11.0843 8.18536 11.0622C8.26602 11.0364 8.35074 11.0235 8.43958 11.0234C8.52841 11.0233 8.61319 11.036 8.69388 11.0616C8.76291 11.0834 8.82895 11.1147 8.89203 11.1554C8.95789 11.1978 9.01559 11.2474 9.06516 11.3041C9.12738 11.3753 9.17679 11.4576 9.21332 11.5513ZM7.86469 15.6351L7.80893 15.7791L7.75339 15.9225L7.67749 16.1183L9.2168 16.1233L9.10648 15.8406L8.44324 14.1414L7.86469 15.6351Z"
		fill-rule="evenodd" />
</svg>