<svg viewBox="0 0 24 24" xmlns="http://www.w3.org/2000/svg"
	xmlns:xlink="http://www.w3.org/1999/xlink">
	<defs />
	<g opacity="0.000000" />
	<path id="矢量 246"
		d="M19.8212 1.57861C20.0236 1.62305 20.2219 1.68634 20.416 1.76855C20.6105 1.85077 20.7943 1.94904 20.9675 2.06354C21.1579 2.18933 21.3358 2.33478 21.5005 2.49951C21.6653 2.66425 21.8106 2.84192 21.9365 3.03241C22.0507 3.20544 22.1494 3.38971 22.2315 3.58398C22.3136 3.77808 22.3769 3.97638 22.4214 4.17883C22.4738 4.41754 22.5 4.66223 22.5 4.91248L22.5 12C22.5 12.2503 22.4738 12.4949 22.4214 12.7336C22.3769 12.9361 22.3136 13.1344 22.2315 13.3285C22.1493 13.5228 22.0511 13.7065 21.9368 13.8796C21.8109 14.0701 21.6653 14.2482 21.5005 14.413C21.3357 14.5778 21.1581 14.7231 20.9676 14.8489C20.7946 14.9632 20.6103 15.0618 20.416 15.144C20.2219 15.2261 20.0236 15.2894 19.8212 15.3339C19.5824 15.3863 19.3378 15.4125 19.0875 15.4125L16.4625 15.4125L16.4625 13.8375L19.0875 13.8375C19.2311 13.8375 19.3709 13.8216 19.5071 13.7898C19.6073 13.7664 19.7064 13.7341 19.8025 13.6934C19.9027 13.6511 19.9977 13.6007 20.0875 13.5423C20.1947 13.4727 20.2944 13.3917 20.3868 13.2993C20.4792 13.207 20.5602 13.1072 20.6298 13C20.688 12.9103 20.7386 12.8151 20.7809 12.715C20.8213 12.6196 20.8531 12.5222 20.8766 12.4229C20.9084 12.2867 20.925 12.1436 20.925 12L20.925 4.91248C20.925 4.76874 20.9091 4.62872 20.8772 4.49243C20.8538 4.39264 20.8214 4.29327 20.7809 4.19751C20.7387 4.09766 20.6885 4.00293 20.6304 3.91339C20.5608 3.80634 20.4791 3.70551 20.3868 3.61322C20.2944 3.52081 20.1947 3.43976 20.0875 3.37018C19.9977 3.31183 19.9027 3.26141 19.8025 3.21906C19.7075 3.17889 19.6104 3.14709 19.5114 3.12372C19.375 3.09174 19.2314 3.07501 19.0875 3.07501L12 3.07501C11.8561 3.07501 11.7159 3.09094 11.5795 3.12292C11.4793 3.1463 11.3811 3.17847 11.285 3.21906C11.1849 3.26141 11.0899 3.31177 11.0002 3.37006C10.893 3.43964 10.793 3.52087 10.7007 3.61322C10.6085 3.70538 10.5277 3.80487 10.4582 3.9118C10.3998 4.00159 10.349 4.09729 10.3066 4.19751C10.2661 4.29321 10.2342 4.39087 10.2107 4.4906C10.1788 4.62708 10.1625 4.76855 10.1625 4.91248L10.1625 7.53748L8.58749 7.53748L8.58749 4.91248C8.58749 4.66217 8.61374 4.41754 8.66617 4.17877C8.7106 3.97638 8.7739 3.77808 8.85599 3.58398C8.93817 3.38965 9.03641 3.20599 9.15073 3.0329C9.27655 2.84241 9.42224 2.66425 9.58701 2.49951C9.75174 2.33478 9.92929 2.18951 10.1198 2.06366C10.293 1.94916 10.477 1.85077 10.6714 1.76855C10.8656 1.68634 11.0638 1.62311 11.2662 1.57867C11.505 1.52625 11.7497 1.5 12 1.5L19.0875 1.5C19.3378 1.5 19.5824 1.52618 19.8212 1.57861ZM16.3109 4.49457L17.6419 7.90454L17.6984 8.04926L17.7544 8.19275L18.4687 10.0227L19.1152 11.6793L19.1879 11.8655C19.2712 12.0789 19.2669 12.2905 19.1749 12.5002C19.0829 12.71 18.9302 12.8565 18.7168 12.9398C18.5034 13.0231 18.2919 13.0187 18.0821 12.9267C17.8723 12.8347 17.7258 12.6821 17.6425 12.4687L17.6008 12.3618L16.9629 10.7275L16.2792 10.7303C16.0945 10.1069 15.7773 9.54041 15.3601 9.06348L16.3144 9.06653L16.2041 8.78394L15.5409 7.08459L14.9623 8.57837C14.5414 8.2099 14.0262 7.98199 13.488 7.79169L14.7648 4.49646C14.8011 4.40277 14.8503 4.32019 14.9123 4.2489C14.9617 4.19208 15.0193 4.1424 15.0851 4.09973C15.2217 4.01123 15.3724 3.96692 15.5372 3.96661C15.626 3.96655 15.7108 3.97925 15.7914 4.00482C15.8605 4.02667 15.9266 4.05798 15.9897 4.09863C16.0555 4.14111 16.1132 4.19061 16.1628 4.24731C16.225 4.31854 16.2744 4.40094 16.3109 4.49457ZM12.7337 8.66614C12.4949 8.61371 12.2503 8.58752 12 8.58752L4.91251 8.58752C4.6622 8.58752 4.41763 8.61371 4.17883 8.66614C3.97644 8.71063 3.77811 8.77386 3.58395 8.85602C3.38947 8.93823 3.20563 9.03662 3.03241 9.15106C2.84189 9.27686 2.66428 9.42224 2.49951 9.58698C2.33472 9.75177 2.18942 9.92944 2.06357 10.1199C1.94913 10.2931 1.85074 10.477 1.76849 10.6715C1.68637 10.8656 1.62311 11.0639 1.57867 11.2663C1.52621 11.5051 1.5 11.7497 1.5 12L1.5 19.0875C1.5 19.3378 1.52621 19.5825 1.57867 19.8212C1.62311 20.0236 1.68637 20.2219 1.76849 20.416C1.85074 20.6105 1.9491 20.7944 2.06354 20.9676C2.18939 21.1581 2.33472 21.3358 2.49951 21.5005C2.81412 21.8151 3.1756 22.0588 3.58395 22.2314C3.77811 22.3137 3.97641 22.3769 4.1788 22.4214C4.41751 22.4738 4.66229 22.5 4.91251 22.5L12 22.5C12.2503 22.5 12.4949 22.4738 12.7337 22.4214C12.9361 22.3769 13.1344 22.3137 13.3286 22.2314C13.7369 22.0588 14.0984 21.8151 14.413 21.5005C14.7276 21.1859 14.9713 20.8244 15.144 20.416C15.2261 20.2219 15.2894 20.0236 15.3339 19.8212C15.3863 19.5824 15.4125 19.3378 15.4125 19.0875L15.4125 12C15.4125 11.7497 15.3863 11.5051 15.3339 11.2664C15.2894 11.0639 15.2261 10.8656 15.144 10.6715C14.9713 10.2631 14.7276 9.90161 14.413 9.58698C14.0984 9.2724 13.7369 9.02875 13.3286 8.85602C13.1344 8.77386 12.9362 8.71063 12.7337 8.66614ZM4.91251 10.1625L12 10.1625C12.1439 10.1625 12.2841 10.1785 12.4205 10.2104C12.5207 10.2338 12.6189 10.2659 12.715 10.3066C12.9348 10.3995 13.1295 10.5309 13.2993 10.7007C13.4691 10.8705 13.6005 11.0653 13.6934 11.285C13.7341 11.3811 13.7661 11.4793 13.7896 11.5795C13.8215 11.7159 13.8375 11.8561 13.8375 12L13.8375 19.0875C13.8375 19.2314 13.8215 19.3716 13.7896 19.5081C13.7661 19.6082 13.7341 19.7064 13.6934 19.8025C13.6005 20.0222 13.4691 20.217 13.2993 20.3868C13.1295 20.5566 12.9348 20.688 12.715 20.7809C12.6189 20.8215 12.5208 20.8536 12.4206 20.8771C12.2841 20.9091 12.1439 20.925 12 20.925L4.91251 20.925C4.76859 20.925 4.62842 20.9091 4.49197 20.8771C4.39182 20.8537 4.29364 20.8215 4.19751 20.7809C3.97775 20.688 3.78299 20.5566 3.61319 20.3868C3.44339 20.217 3.31201 20.0223 3.21909 19.8025C3.17841 19.7064 3.14636 19.6082 3.12289 19.5081C3.091 19.3716 3.07501 19.2314 3.07501 19.0875L3.07501 12C3.07501 11.8561 3.09097 11.7159 3.12289 11.5795C3.14636 11.4793 3.17841 11.3812 3.21909 11.285C3.26144 11.1848 3.3118 11.0898 3.37015 11.0001C3.43979 10.8929 3.52081 10.793 3.61319 10.7007C3.70557 10.6083 3.80533 10.5273 3.91251 10.4577C4.00232 10.3993 4.09732 10.3489 4.19751 10.3066C4.29364 10.2659 4.39182 10.2338 4.49197 10.2104C4.6283 10.1786 4.76871 10.1625 4.91251 10.1625ZM9.77692 18.8702C9.29657 18.6219 8.86176 18.3538 8.47247 18.066C8.09106 18.3542 7.66071 18.6246 7.1814 18.8771C6.59854 19.1841 5.92245 19.4848 5.15311 19.7789L4.78848 19.9183L4.0498 18.3424L4.49344 18.1911C5.19128 17.9531 5.79669 17.7078 6.30975 17.4553C6.65427 17.2858 6.9678 17.1082 7.2504 16.9227C6.95264 16.5673 6.69226 16.1797 6.46927 15.7599C6.21497 15.2812 5.9913 14.7405 5.79822 14.1375L4.41684 14.1375L4.41684 12.5328L7.57166 12.5328C7.51154 12.3441 7.4556 12.1823 7.4039 12.0473L7.23035 11.5941L8.9057 11.2164L9.03598 11.5551C9.12939 11.7979 9.23499 12.1238 9.35275 12.5328L12.4804 12.5328L12.4804 14.1375L11.081 14.1375C10.9014 14.7391 10.6872 15.28 10.4383 15.7603C10.2194 16.1828 9.96292 16.5724 9.66895 16.929C9.9541 17.1152 10.2693 17.2897 10.6143 17.4523C11.1255 17.6931 11.7234 17.9187 12.4081 18.129L12.8473 18.2638L12.189 19.8767L11.81 19.7402C11.039 19.4624 10.3613 19.1724 9.77692 18.8702ZM7.91681 15.065C8.06406 15.3394 8.23428 15.5951 8.42749 15.832C8.59497 15.6132 8.82394 15.327 8.95276 15.0786C9.09946 14.7957 9.22885 14.482 9.341 14.1375L7.51553 14.1375C7.63126 14.473 7.76501 14.7822 7.91681 15.065Z"
		fill-rule="evenodd" />
</svg>