<?xml version="1.0" encoding="UTF-8"?>
<svg viewBox="0 0 24 24" version="1.1" xmlns="http://www.w3.org/2000/svg" xmlns:xlink="http://www.w3.org/1999/xlink">
    <g id="页面-1" stroke="none" stroke-width="1">
        <g id="画板" transform="translate(-635.000000, -3316.000000)">
            <g id="编组" transform="translate(635.000000, 3316.000000)">
                <path d="M12,2 C14.2170341,2 16.3258236,2.72418837 18.0532894,4.03924114 C18.3828702,4.29013825 18.446656,4.76070858 18.1957589,5.0902894 C17.9448618,5.41987022 17.4742914,5.48365597 17.1447106,5.23275886 C15.6761624,4.11481002 13.8858755,3.5 12,3.5 C7.30585564,3.5 3.5,7.30557146 3.5,12 C3.5,16.6937864 7.30621356,20.5 12,20.5 C16.6944285,20.5 20.5,16.6941444 20.5,12 C20.5,10.1146074 19.8858507,8.32533664 18.7681003,6.85610438 C18.5173054,6.52644579 18.581237,6.05589525 18.9108956,5.80510033 C19.2405542,5.55430541 19.7111047,5.61823704 19.9618997,5.94789562 C21.2765776,7.67598035 22,9.78360864 22,12 C22,17.5225464 17.5228807,22 12,22 C6.47778644,22 2,17.5222136 2,12 C2,6.47711926 6.47745359,2 12,2 Z M17,12.25 C17.4142136,12.25 17.75,12.5857864 17.75,13 C17.75,16.1758914 15.1755358,18.75 12,18.75 C8.82446423,18.75 6.25,16.1758914 6.25,13 C6.25,12.5857864 6.58578644,12.25 7,12.25 L7,12.25 Z M16.183,13.7494 L7.816,13.7494 L7.82663588,13.807656 C8.19130312,15.7033811 9.81547161,17.1507169 11.7940882,17.2450996 L11.7940882,17.2450996 L12,17.25 C14.0710191,17.25 15.7961222,15.768751 16.1733641,13.807656 L16.1733641,13.807656 L16.183,13.7494 Z M16,7.8125 C16.6902136,7.8125 17.25,8.37228644 17.25,9.0625 C17.25,9.75182731 16.6901006,10.3125 16,10.3125 C15.3098994,10.3125 14.75,9.75182731 14.75,9.0625 C14.75,8.37228644 15.3097864,7.8125 16,7.8125 Z M8,7.8125 C8.69021356,7.8125 9.25,8.37228644 9.25,9.0625 C9.25,9.75182731 8.69010065,10.3125 8,10.3125 C7.30989935,10.3125 6.75,9.75182731 6.75,9.0625 C6.75,8.37228644 7.30978644,7.8125 8,7.8125 Z" id="形状结合"></path>
            </g>
        </g>
    </g>
</svg>