<svg viewBox="0 0 24 24" xmlns="http://www.w3.org/2000/svg"
	xmlns:xlink="http://www.w3.org/1999/xlink">
	<defs />
	<g opacity="0.000000" />
	<path id="矢量 164"
		d="M18.3405 3.31812C16.5139 1.98203 14.3112 1.25 12 1.25C6.06293 1.25 1.25 6.06293 1.25 12C1.25 17.9371 6.06293 22.75 12 22.75C17.9371 22.75 22.75 17.9371 22.75 12C22.75 9.68808 22.0175 7.48468 20.6806 5.65778C20.436 5.32352 19.9667 5.25082 19.6325 5.49542C19.2982 5.74005 19.2255 6.20932 19.4701 6.54361C20.6205 8.11557 21.25 10.0093 21.25 12C21.25 17.1086 17.1086 21.25 12 21.25C6.89136 21.25 2.75 17.1086 2.75 12C2.75 6.89136 6.89136 2.75 12 2.75C13.9901 2.75 15.8832 3.37915 17.455 4.52881C17.7893 4.77335 18.2585 4.70059 18.5031 4.36627C18.7476 4.03195 18.6749 3.56268 18.3405 3.31812ZM5.75 8.5C5.75 7.53351 6.53351 6.75 7.5 6.75C8.46649 6.75 9.25 7.53351 9.25 8.5C9.25 9.46649 8.46649 10.25 7.5 10.25C6.53351 10.25 5.75 9.46649 5.75 8.5ZM16.5 6.75C15.5335 6.75 14.75 7.53351 14.75 8.5C14.75 9.46649 15.5335 10.25 16.5 10.25C17.4665 10.25 18.25 9.46649 18.25 8.5C18.25 7.53351 17.4665 6.75 16.5 6.75ZM18.75 13C18.75 12.5858 18.4142 12.25 18 12.25L6 12.25C5.58578 12.25 5.25 12.5858 5.25 13C5.25 16.7279 8.27206 19.75 12 19.75C15.7279 19.75 18.75 16.7279 18.75 13ZM17.195 13.75L17.1813 13.8516C16.7744 16.3461 14.6096 18.25 12 18.25L11.7836 18.2456C9.27155 18.1438 7.21429 16.2768 6.81873 13.8516L6.80399 13.75L17.195 13.75Z"
		fill-rule="evenodd" />
</svg>