<?xml version="1.0" encoding="UTF-8"?>
<svg viewBox="0 0 24 24" version="1.1" xmlns="http://www.w3.org/2000/svg" xmlns:xlink="http://www.w3.org/1999/xlink">
    <g id="页面-1" stroke="none" stroke-width="1">
        <g id="画板" transform="translate(-319.000000, -3316.000000)">
            <g id="编组" transform="translate(319.000000, 3316.000000)">
                <path d="M12,2 C17.514,2 22,6.486 22,12 C22,17.514 17.514,22 12,22 C6.486,22 2,17.514 2,12 C2,6.486 6.486,2 12,2 Z M16.674,12.9995 L7.326,12.9995 C7.133,12.9995 6.976,13.1575 6.976,13.3505 C6.976,16.1215 9.229,18.3745 12,18.3745 C14.771,18.3745 17.024,16.1215 17.024,13.3505 C17.024,13.1575 16.867,12.9995 16.674,12.9995 L16.674,12.9995 Z M16,7.8115 C15.311,7.8115 14.75,8.3725 14.75,9.0615 C14.75,9.7505 15.311,10.3115 16,10.3115 C16.689,10.3115 17.25,9.7505 17.25,9.0615 C17.25,8.3725 16.689,7.8115 16,7.8115 Z M8,7.8115 C7.311,7.8115 6.75,8.3725 6.75,9.0615 C6.75,9.7505 7.311,10.3115 8,10.3115 C8.689,10.3115 9.25,9.7505 9.25,9.0615 C9.25,8.3725 8.689,7.8115 8,7.8115 Z" id="形状结合"></path>
            </g>
        </g>
    </g>
</svg>