<svg viewBox="0 0 24 24" xmlns="http://www.w3.org/2000/svg"
	xmlns:xlink="http://www.w3.org/1999/xlink">
	<defs />
	<g opacity="0.000000" />
	<path id="矢量 163"
		d="M22.75 12C22.75 6.06293 17.9371 1.25 12 1.25C6.06293 1.25 1.25 6.06293 1.25 12C1.25 17.9371 6.06293 22.75 12 22.75C17.9371 22.75 22.75 17.9371 22.75 12ZM7.5 6.75C6.53351 6.75 5.75 7.53351 5.75 8.5C5.75 9.46649 6.53351 10.25 7.5 10.25C8.46649 10.25 9.25 9.46649 9.25 8.5C9.25 7.53351 8.46649 6.75 7.5 6.75ZM14.75 8.5C14.75 7.53351 15.5335 6.75 16.5 6.75C17.4665 6.75 18.25 7.53351 18.25 8.5C18.25 9.46649 17.4665 10.25 16.5 10.25C15.5335 10.25 14.75 9.46649 14.75 8.5ZM6.80396 13.75L17.195 13.75L17.1813 13.8516C16.7744 16.3461 14.6096 18.25 12 18.25L11.7836 18.2456C9.27155 18.1438 7.21429 16.2768 6.81873 13.8516L6.80396 13.75Z"
		fill-rule="evenodd" />
</svg>