<?xml version="1.0" encoding="UTF-8"?>
<svg width="18px" height="20px" viewBox="0 0 18 20" version="1.1" xmlns="http://www.w3.org/2000/svg" xmlns:xlink="http://www.w3.org/1999/xlink">
    <g id="页面-2" stroke="none" stroke-width="1" fill-rule="evenodd">
        <g id="画板" transform="translate(-35.000000, -155.000000)">
            <g id="编组" transform="translate(32.000000, 152.999900)">
                <g id="IconGroupTransfer" transform="translate(0.000000, -0.000000)">
                    <path d="M0.00291621452,11.9902115 C0.00291621452,10.1155031 -0.00364526815,8.24079459 0.00291621452,6.36608614 C-0.000855476148,5.45891642 0.110645142,4.55494313 0.334739841,3.67587954 C0.825913793,1.81523141 2.03791364,0.711028139 3.89668835,0.282657258 C4.82870208,0.0812875901 5.78065248,-0.013058275 6.73406154,0.00145099488 C10.3291299,0.00145099488 13.9245108,0.00145099488 17.520204,0.00145099488 C18.4282917,-0.0041860412 19.3337475,0.0996722173 20.216974,0.310777884 C22.13199,0.779454998 23.2811871,1.99239136 23.7189318,3.90084455 C23.9157326,4.80281181 24.0097548,5.72416509 23.999201,6.64729239 C23.999201,10.2811023 23.999201,13.9152246 23.999201,17.5496594 C24.0041104,18.4489927 23.9005666,19.3456375 23.6908112,20.2201815 C23.2221338,22.1361336 22.0035724,23.2797057 20.0951179,23.7174501 C19.1629846,23.9180577 18.2111214,24.0123949 17.2577447,23.9986564 C13.677674,23.9986564 10.0979157,23.9986564 6.51846992,23.9986564 C5.60344091,24.0061248 4.69081717,23.9038481 3.8001408,23.6940163 C1.8766886,23.2253392 0.721867404,22.0067787 0.285060033,20.088952 C0.0619695745,19.1141036 0.00291621452,18.1364431 0.00291621452,17.1503465 C0.00291621452,15.4306139 0.00291621452,13.7105689 0.00291621452,11.9902115 Z" id="path1" fill-opacity="0" fill="#FFFFFF" fill-rule="nonzero" opacity="0"></path>
                    <path d="M2.00243018,11.9918484 C2.00243018,10.4295903 1.99696228,8.86733221 2.00243018,7.30507407 C1.9992871,6.54909879 2.09220429,5.79578719 2.27894987,5.06323369 C2.68826149,3.5126925 3.69826137,2.59252247 5.24724029,2.23554649 C6.0239184,2.06773832 6.8172104,1.98911671 7.61171795,2.00120777 C10.6076083,2.00120777 13.603759,2.00120777 16.60017,2.00120777 C17.3569097,1.99651024 18.1114562,2.08305885 18.8474783,2.25898036 C20.443325,2.64954489 21.4009892,3.6603259 21.7657765,5.25070466 C21.9297772,6.00234456 22.008129,6.7701395 21.9993341,7.53941279 C21.9993341,10.5675898 21.9993341,13.5960272 21.9993341,16.6247249 C22.0034254,17.3741698 21.9171388,18.1213744 21.7423427,18.8501616 C21.3517781,20.4467894 20.3363103,21.3997669 18.7459316,21.7645541 C17.9691539,21.9317272 17.1759345,22.0103416 16.3814539,21.9988928 C13.3980616,21.9988928 10.4149298,21.9988928 7.43205827,21.9988928 C6.66953409,22.0051165 5.90901431,21.9198858 5.166784,21.7450259 C3.56390717,21.3544614 2.60155617,20.3389936 2.23755003,18.7408035 C2.05164131,17.9284293 2.00243018,17.1137117 2.00243018,16.2919639 C2.00243018,14.8588525 2.00243018,13.4254806 2.00243018,11.9918484 Z" id="path2" opacity="0"></path>
                    <path d="M21.0007497,14.7507461 C21.4149632,14.7507461 21.7507497,15.0865253 21.7507497,15.5007386 C21.7507497,15.8804341 21.4685958,16.1942291 21.1025202,16.2438915 L21.0007497,16.2507461 L4.78474966,16.2507461 L7.47033799,18.9763987 C7.73359617,19.2456398 7.75311938,19.6625489 7.53197987,19.953694 L7.45842121,20.0369912 C7.18917988,20.3002492 6.77227053,20.3197723 6.48112522,20.098633 L6.39782798,20.0250744 L2.46449466,16.0250765 C2.0246312,15.5752164 2.30343055,14.8339962 2.89868025,14.7572192 L3.00074966,14.7507461 L21.0007497,14.7507461 Z M17.5188751,3.90284938 L17.6021723,3.97640799 L21.5355056,7.9764059 C21.9753691,8.42626595 21.6965697,9.16748618 21.10132,9.24426321 L20.9992506,9.25074637 L2.99925063,9.25074637 C2.58503707,9.25074637 2.24925063,8.91495704 2.24925063,8.50074376 C2.24925063,8.12104826 2.53140452,7.80725328 2.89748008,7.75759089 L2.99925063,7.75074637 L19.2152506,7.75074637 L16.5296623,5.0250837 C16.2664041,4.75584256 16.2468809,4.33893351 16.4680204,4.0477884 L16.5415791,3.96449121 C16.8108204,3.70123321 17.2277298,3.68171002 17.5188751,3.90284938 Z" id="形状结合" fill-rule="nonzero" transform="translate(12.000000, 12.000741) rotate(-270.000000) translate(-12.000000, -12.000741) "></path>
                </g>
            </g>
        </g>
    </g>
</svg>