<?xml version="1.0" encoding="UTF-8"?>
<svg viewBox="0 0 24 24" version="1.1" xmlns="http://www.w3.org/2000/svg"
    xmlns:xlink="http://www.w3.org/1999/xlink">
    <g id="S12组件" stroke="none" stroke-width="1">
        <g id="ic_Sort_lined">
            <rect id="矩形" opacity="0"
                transform="translate(12.000000, 12.000000) scale(-1, 1) rotate(-90.000000) translate(-12.000000, -12.000000) "
                x="0" y="0" width="24" height="24"></rect>
            <g id="编组-23"
                transform="translate(12.088235, 11.588235) scale(-1, 1) rotate(-90.000000) translate(-12.088235, -11.588235) translate(3.088235, 3.088235)">
                <path
                    d="M11.0294118,0.77617159 C11.4071676,0.77617159 11.7702334,0.918657388 12.0868302,1.21377423 L12.0868302,1.21377423 L12.200715,1.33912902 L17.2503659,7.65119272 C17.4579336,7.91065227 17.4700426,8.27575837 17.2801227,8.54840098 L17.2801227,8.54840098 L12.2007149,15.8373417 C11.9492266,16.151702 11.5872148,16.3475518 11.195059,16.3911246 C10.8029031,16.4346974 10.4067294,16.3230905 10.0923693,16.0716022 C9.7973915,15.8356201 9.60289485,15.4975519 9.54003233,15.0693278 L9.54003233,15.0693278 L9.5294118,14.900299 L9.5294118,2.27617159 C9.5294118,1.87359394 9.6897491,1.49451394 9.96875161,1.21551141 C10.2477541,0.936508907 10.6268341,0.77617159 11.0294118,0.77617159 Z M6.80494191,0.78536226 C7.19709775,0.741789428 7.59327141,0.853396396 7.90763163,1.1048846 C8.20260941,1.34086677 8.39710608,1.678935 8.45996859,2.10715909 L8.45996859,2.10715909 L8.47058912,2.27618787 L8.47058912,14.9003153 C8.47058912,15.3028929 8.31025181,15.6819729 8.03124928,15.9609755 C7.75224678,16.239978 7.37316678,16.4003153 6.97058912,16.4003153 C6.5928333,16.4003153 6.22976743,16.2578295 5.91317059,15.9627126 L5.91317059,15.9627126 L5.79928591,15.8373579 L0.749634948,9.52529415 C0.542067302,9.2658346 0.529958209,8.9007285 0.719878177,8.62808589 L0.719878177,8.62808589 L5.79928594,1.33914524 C6.05077423,1.02478493 6.41278607,0.828935091 6.80494191,0.78536226 Z M6.97087455,2.27945867 L2.27187455,9.02645867 L6.93368381,14.8575856 L6.97060385,14.9003377 L6.97271434,2.33260866 L6.97087455,2.27945867 Z M11.0293971,2.27614917 L11.0272866,14.8438782 L11.029,14.897 L15.729,8.15 L11.0663172,2.31890129 L11.0293971,2.27614917 Z"
                    id="形状结合"></path>
            </g>
        </g>
    </g>
</svg>