<svg viewBox="0 0 24 24" xmlns="http://www.w3.org/2000/svg"
	xmlns:xlink="http://www.w3.org/1999/xlink">
	<defs />
	<g opacity="0.000000" />
	<path id="矢量 165"
		d="M13.4494 2.09869L18.5838 7.16409C19.0102 7.58478 19.2495 8.17145 19.2495 8.78268C19.2495 9.99451 18.3211 11 17.1446 11L6.85446 11C6.24734 11 5.67355 10.7247 5.27603 10.2502C4.5228 9.35104 4.58438 7.98044 5.41846 7.16095L10.5742 2.09558C11.3837 1.30026 12.6415 1.30167 13.4494 2.09869ZM13.4494 21.9013L18.5838 16.8359C19.0102 16.4152 19.2495 15.8286 19.2495 15.2173C19.2495 14.0055 18.3211 13 17.1446 13L6.85446 13C6.24734 13 5.67355 13.2753 5.27603 13.7498C4.5228 14.649 4.58438 16.0196 5.41846 16.8391L10.5742 21.9044C11.3837 22.6997 12.6415 22.6983 13.4494 21.9013ZM6.4697 8.23096L11.6255 3.16556C11.8505 2.94449 12.1712 2.94482 12.3959 3.1665L17.5304 8.2319C17.6676 8.36731 17.7495 8.56818 17.7495 8.78268C17.7495 9.19162 17.4648 9.5 17.1446 9.5L6.85446 9.5C6.69711 9.5 6.54202 9.4256 6.4259 9.28696C6.17358 8.98578 6.19537 8.50049 6.4697 8.23096ZM6.4697 15.769L11.6255 20.8344C11.8505 21.0555 12.1712 21.0552 12.3959 20.8335L17.5304 15.7681C17.6676 15.6327 17.7495 15.4318 17.7495 15.2173C17.7495 14.8084 17.4648 14.5 17.1446 14.5L6.85446 14.5C6.69711 14.5 6.54202 14.5744 6.4259 14.713C6.17358 15.0142 6.19537 15.4995 6.4697 15.769Z"
		fill-rule="evenodd" />
</svg>