<svg viewBox="0 0 24 24" xmlns="http://www.w3.org/2000/svg"
	xmlns:xlink="http://www.w3.org/1999/xlink">
	<defs />
	<g opacity="0" />
	<path id="形状结合"
		d="M15.5 2.25C15.8797 2.25 16.1935 2.5321 16.2431 2.89819L16.25 3L16.25 19.2159L18.9757 16.5304C19.2449 16.2672 19.6618 16.2476 19.953 16.4688L20.0363 16.5423C20.2995 16.8115 20.319 17.2285 20.0979 17.5196L20.0243 17.6029L16.0243 21.5363C15.5745 21.9761 14.8333 21.6973 14.7565 21.1021L14.75 21L14.75 3C14.75 2.58575 15.0858 2.25 15.5 2.25ZM7.75685 21.1032C7.8065 21.4693 8.1203 21.7515 8.5 21.7515C8.91422 21.7515 9.25 21.4156 9.25 21.0015L9.25 3.00146L9.24352 2.89935C9.16675 2.30414 8.42552 2.02533 7.97566 2.46521L3.97566 6.3985L3.9021 6.48181C3.68097 6.77295 3.70049 7.18988 3.96375 7.45911L4.04704 7.53265C4.3382 7.75378 4.7551 7.73425 5.02434 7.47101L7.75 4.78546L7.75 21.0015L7.75685 21.1032Z"
		clip-rule="evenodd" fill-rule="evenodd" fill-opacity="1" />
</svg>