<svg viewBox="0 0 24 24" xmlns="http://www.w3.org/2000/svg"
	xmlns:xlink="http://www.w3.org/1999/xlink">
	<defs />
	<g opacity="0.000000" />
	<path id="矢量 95"
		d="M8.60001 2.25C9.84378 2.25 10.8619 3.21628 10.9446 4.43912L10.95 4.60001L10.95 8.02032C10.95 8.43454 10.6142 8.77032 10.2 8.77032C9.7858 8.77032 9.45001 8.43454 9.45001 8.02032L9.45001 4.60001C9.45001 4.16666 9.12573 3.80908 8.70663 3.75662L8.60001 3.75L4.60001 3.75C4.16666 3.75 3.80908 4.07425 3.75662 4.49338L3.75 4.60001L3.75 19.4C3.75 19.8333 4.07425 20.1909 4.49338 20.2434L4.60001 20.25L8.60001 20.25C9.03333 20.25 9.39093 19.9258 9.44339 19.5066L9.45001 19.4L9.45001 15.9797C9.45001 15.5655 9.7858 15.2297 10.2 15.2297C10.6142 15.2297 10.95 15.5655 10.95 15.9797L10.95 19.4C10.95 20.6438 9.98373 21.6619 8.76089 21.7446L8.60001 21.75L4.60001 21.75C3.3562 21.75 2.3381 20.7837 2.25543 19.5609L2.25 19.4L2.25 4.60001C2.25 3.3562 3.21628 2.3381 4.43912 2.25543L4.60001 2.25L8.60001 2.25ZM19.4 2.25C20.6438 2.25 21.6619 3.21628 21.7446 4.43912L21.75 4.60001L21.75 19.4C21.75 20.6438 20.7837 21.6619 19.5609 21.7446L19.4 21.75L15.4 21.75C14.1562 21.75 13.1381 20.7837 13.0554 19.5609L13.05 19.4L13.05 15.9797C13.05 15.5655 13.3858 15.2297 13.8 15.2297C14.2142 15.2297 14.55 15.5655 14.55 15.9797L14.55 19.4C14.55 19.8333 14.8743 20.1909 15.2934 20.2434L15.4 20.25L19.4 20.25C19.8333 20.25 20.1909 19.9258 20.2434 19.5066L20.25 19.4L20.25 4.60001C20.25 4.16666 19.9258 3.80908 19.5066 3.75662L19.4 3.75L15.4 3.75C14.9667 3.75 14.6091 4.07425 14.5566 4.49338L14.55 4.60001L14.55 8.02032C14.55 8.43454 14.2142 8.77032 13.8 8.77032C13.3858 8.77032 13.05 8.43454 13.05 8.02032L13.05 4.60001C13.05 3.3562 14.0163 2.3381 15.2391 2.25543L15.4 2.25L19.4 2.25ZM8.65796 9.98486C8.8725 9.68881 8.8436 9.27243 8.57434 9.00916C8.27817 8.71957 7.80338 8.72495 7.51379 9.02112L5.11377 11.4756C4.90179 11.7668 4.85471 12.2594 5.11377 12.5244L7.51379 14.9789C7.80493 15.2 8.30511 15.2541 8.57434 14.9908C8.7955 14.6997 8.84955 14.1994 8.5863 13.9302L7.43201 12.75L10.85 12.75L10.9518 12.7432C11.3178 12.6935 11.6 12.3797 11.6 12C11.6 11.5858 11.2642 11.25 10.85 11.25L7.43103 11.25L8.65796 9.98486ZM16.7863 9.02112C16.4967 8.72495 16.0219 8.71957 15.7257 9.00916C15.4565 9.27243 15.4276 9.68881 15.6421 9.98486L16.868 11.25L13.45 11.25C13.0358 11.25 12.7 11.5858 12.7 12C12.7 12.3797 12.9822 12.6935 13.3483 12.7432L13.45 12.75L16.867 12.75L15.7137 13.9302C15.4505 14.1994 15.431 14.6163 15.6521 14.9075C15.9213 15.1707 16.4119 15.2736 16.703 15.0524L19.1863 12.5244C19.4454 12.2594 19.4689 11.8504 19.257 11.5592L16.7863 9.02112Z"
		fill-rule="evenodd" />
</svg>