<?xml version="1.0" encoding="UTF-8"?>
<svg viewBox="0 0 24 24" version="1.1" xmlns="http://www.w3.org/2000/svg" xmlns:xlink="http://www.w3.org/1999/xlink">
    <g id="拆分">
        <rect id="矩形备份" opacity="0" fill-rule="nonzero" x="0" y="0" width="24" height="24"></rect>
        <path d="M18,3 C19.6568542,3 21,4.34314575 21,6 L21,18 C21,19.6568542 19.6568542,21 18,21 L15.75,21 C14.0931458,21 12.75,19.6568542 12.75,18 L12.75,15 L12.7568466,14.8982294 C12.806509,14.5321539 13.1203042,14.25 13.5,14.25 C13.8796958,14.25 14.193491,14.5321539 14.2431534,14.8982294 L14.25,15 L14.25,18 C14.25,18.7796961 14.8448881,19.4204487 15.60554,19.4931334 L15.75,19.5 L18,19.5 C18.7796961,19.5 19.4204487,18.9051119 19.4931334,18.14446 L19.5,18 L19.5,6 C19.5,5.22030388 18.9051119,4.57955132 18.14446,4.50686658 L18,4.5 L15.75,4.5 C14.9703039,4.5 14.3295513,5.09488808 14.2568666,5.85553999 L14.25,6 L14.25,9 C14.25,9.41421356 13.9142136,9.75 13.5,9.75 C13.1203042,9.75 12.806509,9.46784612 12.7568466,9.10177056 L12.75,9 L12.75,6 C12.75,4.34314575 14.0931458,3 15.75,3 L18,3 Z M8.25,3 C9.90685425,3 11.25,4.34314575 11.25,6 L11.25,9 C11.25,9.41421356 10.9142136,9.75 10.5,9.75 C10.1203042,9.75 9.80650904,9.46784612 9.75684662,9.10177056 L9.75,9 L9.75,6 C9.75,5.22030388 9.15511192,4.57955132 8.39446001,4.50686658 L8.25,4.5 L6,4.5 C5.22030388,4.5 4.57955132,5.09488808 4.50686658,5.85553999 L4.5,6 L4.5,18 C4.5,18.7796961 5.09488808,19.4204487 5.85553999,19.4931334 L6,19.5 L8.25,19.5 C9.02969612,19.5 9.67044868,18.9051119 9.74313342,18.14446 L9.75,18 L9.75,15 L9.75684662,14.8982294 C9.80650904,14.5321539 10.1203042,14.25 10.5,14.25 C10.8796958,14.25 11.193491,14.5321539 11.2431534,14.8982294 L11.25,15 L11.25,18 C11.25,19.6568542 9.90685425,21 8.25,21 L6,21 C4.34314575,21 3,19.6568542 3,18 L3,6 C3,4.34314575 4.34314575,3 6,3 L8.25,3 Z M8.53033009,9.46966991 C8.79659665,9.73593648 8.8208027,10.1526002 8.60294824,10.4462117 L8.53033009,10.5303301 L7.81,11.25 L10.75,11.25 C11.1642136,11.25 11.5,11.5857864 11.5,12 C11.5,12.3796958 11.2178461,12.693491 10.8517706,12.7431534 L10.75,12.75 L7.811,12.75 L8.53033009,13.4696699 C8.79659665,13.7359365 8.8208027,14.1526002 8.60294824,14.4462117 L8.53033009,14.5303301 C8.26406352,14.7965966 7.84739984,14.8208027 7.55378835,14.6029482 L7.46966991,14.5303301 L5.46966991,12.5303301 L5.407,12.458 L5.37257267,12.4111698 L5.37257267,12.4111698 C5.35940783,12.3910149 5.34702767,12.3700275 5.33567096,12.3484182 C5.33083742,12.3392964 5.32648082,12.3305656 5.32230508,12.3217704 C5.30955796,12.2949819 5.29805336,12.2665221 5.28830293,12.2372605 C5.28604456,12.2303168 5.28412011,12.2242456 5.2822748,12.2181555 C5.26135317,12.1496769 5.25,12.0761643 5.25,12 C5.25,11.9616078 5.25288471,11.9238893 5.25844919,11.8870495 C5.26025385,11.8754819 5.26230949,11.8637722 5.26464433,11.8521073 C5.26958796,11.8271042 5.27576118,11.8028079 5.28308617,11.7790163 C5.28671273,11.7673565 5.29074464,11.7553071 5.29509073,11.743346 C5.30357499,11.7200484 5.31287686,11.6979798 5.32317314,11.6764782 C5.32866533,11.6648771 5.33496828,11.6525401 5.34163501,11.640349 C5.35487024,11.6163332 5.36897543,11.5936098 5.38421622,11.5717366 C5.38813751,11.5659949 5.39254279,11.5598653 5.39705176,11.5537883 C5.42217116,11.5205706 5.44507007,11.4942698 5.46966991,11.4696699 L7.46966991,9.46966991 C7.76256313,9.1767767 8.23743687,9.1767767 8.53033009,9.46966991 Z M15.4696699,9.46966991 C15.7625631,9.1767767 16.2374369,9.1767767 16.5303301,9.46966991 L16.5303301,9.46966991 L18.5303301,11.4696699 C18.5549299,11.4942698 18.5778288,11.5205706 18.6029482,11.5537883 C18.6074572,11.5598653 18.6118625,11.5659949 18.6157838,11.5717366 C18.6310246,11.5936098 18.6451298,11.6163332 18.658365,11.640349 C18.6650317,11.6525401 18.6713347,11.6648771 18.6768269,11.6764782 C18.6871231,11.6979798 18.696425,11.7200484 18.7049093,11.743346 C18.7092554,11.7553071 18.7132873,11.7673565 18.7169138,11.7790163 C18.7242388,11.8028079 18.730412,11.8271042 18.7353557,11.8521073 C18.7376905,11.8637722 18.7397462,11.8754819 18.7415508,11.8870495 C18.7471153,11.9238893 18.75,11.9616078 18.75,12 C18.75,12.0761643 18.7386468,12.1496769 18.7177252,12.2181555 C18.7158799,12.2242456 18.7139554,12.2303168 18.7116971,12.2372605 C18.7019466,12.2665221 18.690442,12.2949819 18.6776949,12.3217704 C18.6735192,12.3305656 18.6691626,12.3392964 18.664329,12.3484182 C18.6529723,12.3700275 18.6405922,12.3910149 18.6274273,12.4111698 L18.6274273,12.4111698 L18.592,12.458 L18.6010016,12.448737 L18.6010016,12.448737 L18.589,12.463 L18.5823944,12.4726579 L18.5823944,12.4726579 L18.5303301,12.5303301 L16.5303301,14.5303301 L16.4462117,14.6029482 C16.1526002,14.8208027 15.7359365,14.7965966 15.4696699,14.5303301 L15.4696699,14.5303301 L15.3970518,14.4462117 C15.1791973,14.1526002 15.2034034,13.7359365 15.4696699,13.4696699 L15.4696699,13.4696699 L16.189,12.75 L13.25,12.75 L13.1482294,12.7431534 C12.7821539,12.693491 12.5,12.3796958 12.5,12 C12.5,11.5857864 12.8357864,11.25 13.25,11.25 L13.25,11.25 L16.19,11.25 L15.4696699,10.5303301 L15.3970518,10.4462117 C15.1791973,10.1526002 15.2034034,9.73593648 15.4696699,9.46966991 Z"></path>
    </g>
</svg>