<?xml version="1.0" encoding="UTF-8"?>
<svg viewBox="0 0 24 24" version="1.1" xmlns="http://www.w3.org/2000/svg" xmlns:xlink="http://www.w3.org/1999/xlink">
    <g id="页面-1" stroke="none" stroke-width="1">
        <g id="画板" transform="translate(-1076.000000, -3308.000000)">
            <g id="编组" transform="translate(1076.000000, 3308.000000)">
                <path d="M10.946104,3.2998193 C11.3765487,2.42570799 12.6225028,2.42570799 13.0529475,3.2998193 L13.0529475,3.2998193 L15.4366258,8.12948582 L20.7687172,8.90627743 C21.7329328,9.04444247 22.1179473,10.2289764 21.420278,10.9090203 L21.420278,10.9090203 L17.5616258,14.6684858 L18.4731287,19.980093 C18.630814,20.8994541 17.7121914,21.6094898 16.8764508,21.2688591 L16.8764508,21.2688591 L16.7680065,21.2184015 L11.9996258,18.7104858 L7.23099389,21.2184284 C6.40568414,21.652209 5.44517735,20.9982456 5.5113788,20.0986965 L5.5113788,20.0986965 L5.52593181,19.9800405 L6.43762577,14.6684858 L2.57977445,10.9090212 C1.91264522,10.2587457 2.23543284,9.14660992 3.10730013,8.9302185 L3.10730013,8.9302185 L3.22955311,8.90639021 L8.56262577,8.12948582 Z" id="形状结合"></path>
            </g>
        </g>
    </g>
</svg>