<svg viewBox="0 0 24 24" xmlns="http://www.w3.org/2000/svg"
	xmlns:xlink="http://www.w3.org/1999/xlink">
	<defs />
	<g opacity="0.000000" />
	<path id="矢量 111"
		d="M18.3405 3.31812C16.5139 1.98203 14.3112 1.25 12 1.25C6.06293 1.25 1.25 6.06293 1.25 12C1.25 17.9371 6.06293 22.75 12 22.75C17.9371 22.75 22.75 17.9371 22.75 12C22.75 9.68808 22.0175 7.48468 20.6806 5.65778C20.436 5.32352 19.9667 5.25082 19.6325 5.49542C19.2982 5.74005 19.2255 6.20932 19.4701 6.54361C20.6205 8.11557 21.25 10.0093 21.25 12C21.25 17.1086 17.1086 21.25 12 21.25C6.89136 21.25 2.75 17.1086 2.75 12C2.75 6.89136 6.89136 2.75 12 2.75C13.9901 2.75 15.8832 3.37915 17.455 4.52881C17.7893 4.77335 18.2585 4.70059 18.5031 4.36627C18.7476 4.03195 18.6749 3.56268 18.3405 3.31812ZM10.894 7.50323L15.9258 10.5498C16.746 11.0465 16.9989 12.108 16.4804 12.9117C16.3393 13.1304 16.1495 13.3143 15.9257 13.4498L10.894 16.4964C10.0878 16.9845 9.02859 16.7477 8.51929 15.9583C8.34354 15.6859 8.24994 15.3697 8.24994 15.0464L8.24994 8.95322C8.24994 8.00708 9.03152 7.24988 9.98398 7.24988C10.3051 7.24988 10.6202 7.33743 10.894 7.50323ZM15.2444 12.0425L15.1488 12.1667L10.1171 15.2133C10.0015 15.2833 9.81674 15.1499 9.74994 15.0464L9.74994 8.95322C9.74994 8.84634 9.84949 8.74988 9.98401 8.74988C10.0318 8.74988 10.0781 8.76276 10.1171 8.78635L15.1488 11.8329C15.23 11.8821 15.2637 11.9654 15.2444 12.0425Z"
		fill-rule="evenodd" />
</svg>