<?xml version="1.0" encoding="UTF-8"?>
<svg viewBox="0 0 24 24" version="1.1" xmlns="http://www.w3.org/2000/svg" xmlns:xlink="http://www.w3.org/1999/xlink">
    <g id="页面-1" stroke="none" stroke-width="1">
        <g id="画板" transform="translate(-789.000000, -3386.000000)">
            <g id="编组" transform="translate(789.000000, 3386.000000)">
                <path d="M12,2 C14.2170341,2 16.3258236,2.72418837 18.0532894,4.03924114 C18.3828702,4.29013825 18.446656,4.76070858 18.1957589,5.0902894 C17.9448618,5.41987022 17.4742914,5.48365597 17.1447106,5.23275886 C15.6761624,4.11481002 13.8858755,3.5 12,3.5 C7.30585564,3.5 3.5,7.30557146 3.5,12 C3.5,16.6937864 7.30621356,20.5 12,20.5 C16.6944285,20.5 20.5,16.6941444 20.5,12 C20.5,10.1146074 19.8858507,8.32533664 18.7681003,6.85610438 C18.5173054,6.52644579 18.581237,6.05589525 18.9108956,5.80510033 C19.2405542,5.55430541 19.7111047,5.61823704 19.9618997,5.94789562 C21.2765776,7.67598035 22,9.78360864 22,12 C22,17.5225464 17.5228807,22 12,22 C6.47778644,22 2,17.5222136 2,12 C2,6.47711926 6.47745359,2 12,2 Z M8.6045,9.1588 C8.6045,7.81144221 10.0624689,6.96965731 11.2294595,7.64325758 L11.2294595,7.64325758 L16.1474323,10.4822419 C17.3145226,11.1558997 17.3145226,12.8397003 16.1475586,13.5132852 L16.1475586,13.5132852 L11.2294323,16.3533581 C10.0624689,17.0269427 8.6045,16.1851578 8.6045,14.8378 L8.6045,14.8378 Z M10.4795677,8.94235811 C10.3125764,8.84596883 10.1045,8.9661055 10.1045,9.1588 L10.1045,9.1588 L10.1045,14.8378 C10.1045,15.0304945 10.3125764,15.1506312 10.4794414,15.0543148 L10.4794414,15.0543148 L15.3975677,12.2142419 C15.5644774,12.1178997 15.5644774,11.8777003 15.3975405,11.7813424 L15.3975405,11.7813424 Z" id="形状结合"></path>
            </g>
        </g>
    </g>
</svg>