<?xml version="1.0" encoding="UTF-8"?>
<svg viewBox="0 0 24 24" version="1.1" xmlns="http://www.w3.org/2000/svg" xmlns:xlink="http://www.w3.org/1999/xlink">
    <g id="页面-1" stroke="none" stroke-width="1">
        <g id="画板" transform="translate(-635.000000, -3386.000000)">
            <g id="编组" transform="translate(635.000000, 3386.000000)">
                <path d="M10.3363567,3.49892225 C10.9921329,2.16955875 12.8418638,2.12208148 13.582876,3.35639627 L13.6605311,3.49881721 L15.8985311,8.03381721 C16.0818375,8.40526254 15.9293208,8.85497769 15.5578754,9.03828411 C15.2173839,9.206315 14.811124,9.09216117 14.6045859,8.78586117 L14.5534085,8.6976285 L12.3153567,4.16252346 C12.1984145,3.92546274 11.8838595,3.90175666 11.7273569,4.09148182 L11.6815311,4.1626285 L9.44353106,8.6976285 C9.34992201,8.88731441 9.18146501,9.02712438 8.98145916,9.08558955 L8.87902762,9.10789771 L3.91105691,9.83015836 L3.82940716,9.84569426 C3.59693874,9.90331464 3.49898443,10.1807572 3.62641099,10.3766699 L3.6773586,10.4385412 L7.2993586,13.9675412 C7.45095057,14.1152408 7.53190272,14.3187855 7.52564262,14.5271846 L7.51516816,14.6315526 L6.65395908,19.6596049 C6.63610265,19.9029709 6.87616984,20.0848777 7.10412176,20.019229 L7.17187383,19.9919217 L11.6498738,17.6369217 C11.8372133,17.538399 12.0558327,17.5243332 12.2521026,17.5947217 L12.3481269,17.6369538 L16.7953176,19.9771088 L16.8603238,20.0089019 C17.0878768,20.1013724 17.334898,19.9299383 17.3428248,19.6933012 L17.3377715,19.6205526 L16.4817715,14.6315526 C16.4459696,14.42289 16.5001958,14.2105848 16.6278563,14.0456692 L16.6977293,13.9673968 L20.3208273,10.4392765 C20.5116,10.2528793 20.4333868,9.94199808 20.1995529,9.85569337 L20.1248475,9.83688832 L17.5988475,9.46888832 C17.1889609,9.40917403 16.9050901,9.02848724 16.9648043,8.61860057 C17.0195424,8.24287113 17.3439866,7.97303002 17.7133976,7.97666094 L17.8150921,7.9845574 L20.33961,8.35234299 C21.8096669,8.56351139 22.4261428,10.3161306 21.472494,11.4030718 L21.3682104,11.5130489 L18.0269607,14.7669729 L18.8161783,19.3669524 C19.0543726,20.7558823 17.7246376,21.8650676 16.3959991,21.4326235 L16.258622,21.3823369 L16.1268128,21.3194919 L11.9979607,19.1479729 L7.86967918,21.3197272 C6.62225578,21.9748257 5.15397824,21.0534667 5.15630863,19.6569851 L5.16186499,19.5108718 L5.18077145,19.3668931 L5.96896072,14.7659729 L2.63053746,11.5128621 C1.6235789,10.5315995 2.04017574,8.85649799 3.35733616,8.423805 L3.5018827,8.38228735 L3.65591199,8.35254801 L8.27196072,7.67997286 L10.3363567,3.49892225 Z" id="Stroke-1"></path>
            </g>
        </g>
    </g>
</svg>