<svg viewBox="0 0 24 24" xmlns="http://www.w3.org/2000/svg"
	xmlns:xlink="http://www.w3.org/1999/xlink">
	<defs />
	<g opacity="0.000000" />
	<path id="矢量 172"
		d="M9.9054 3.53906L8.1991 6.95352C8.07812 7.19559 7.84241 7.36475 7.56812 7.40408L3.75275 7.95163C3.24536 8.02444 2.77588 8.26068 2.41693 8.62436C1.51135 9.54187 1.5304 11.0145 2.45929 11.9087L5.22009 14.5664C5.41516 14.7542 5.50354 15.0228 5.45789 15.2856L4.80615 19.0384C4.71857 19.5427 4.80176 20.0615 5.0426 20.5138C5.64435 21.6443 7.0542 22.0771 8.19415 21.4852L11.6068 19.7133C11.8525 19.5857 12.1472 19.5857 12.3931 19.7133L15.8057 21.4852C16.2595 21.7209 16.7788 21.8021 17.2836 21.7166C18.5554 21.5012 19.4133 20.3032 19.1936 19.0384L18.5419 15.2856C18.4963 15.0228 18.5846 14.7542 18.7797 14.5664L21.5405 11.9087C21.91 11.553 22.1509 11.0861 22.2253 10.5802C22.4121 9.31049 21.5238 8.13486 20.2471 7.95163L16.4316 7.40408C16.1574 7.36475 15.9216 7.19559 15.8007 6.95352L14.0944 3.53906C13.866 3.08203 13.4922 2.7128 13.0311 2.48807C11.8762 1.92517 10.4778 2.39352 9.9054 3.53906ZM12.7526 4.20959C12.672 4.04825 12.5391 3.91693 12.3739 3.83643L12.2679 3.79324C11.8741 3.66275 11.4338 3.83612 11.2472 4.20959L9.54089 7.62405C9.19934 8.3075 8.54108 8.77985 7.78119 8.88889L3.96582 9.43643C3.78217 9.46277 3.61298 9.54791 3.4845 9.67807C3.16614 10.0007 3.17273 10.5134 3.49957 10.828L6.26038 13.4858C6.81372 14.0184 7.06677 14.7878 6.93579 15.5422L6.28406 19.2951C6.25354 19.4705 6.28247 19.6509 6.36664 19.809C6.58087 20.2114 7.09082 20.368 7.50293 20.154L10.9155 18.3821C11.5947 18.0295 12.4051 18.0295 13.0842 18.3821L16.4968 20.154C16.661 20.2392 16.8497 20.2687 17.0331 20.2376C17.4896 20.1603 17.7925 19.7373 17.7158 19.2951L17.064 15.5422C16.933 14.7878 17.1862 14.0184 17.7394 13.4858L20.5002 10.828C20.6307 10.7023 20.7153 10.5385 20.7413 10.3619C20.8066 9.91782 20.4926 9.50223 20.034 9.43643L16.2186 8.88889C15.4587 8.77985 14.8004 8.3075 14.4589 7.62405L12.7526 4.20959Z"
		fill-rule="evenodd" />
</svg>