<svg viewBox="0 0 24 24" xmlns="http://www.w3.org/2000/svg"
	xmlns:xlink="http://www.w3.org/1999/xlink">
	<defs />
	<g opacity="0.000000" />
	<path id="path6"
		d="M11.2222 19.4393L7.63007 21.3096C6.81317 21.7349 5.80273 21.4238 5.37329 20.6148C5.20227 20.2926 5.14325 19.9236 5.20538 19.5649L5.89142 15.6036C5.98438 15.0667 5.80469 14.5189 5.41083 14.1387L2.50464 11.3333C1.84375 10.6953 1.83026 9.64746 2.47443 8.99295C2.73096 8.73232 3.06714 8.5627 3.43079 8.51036L7.44702 7.9324C7.99127 7.85408 8.46185 7.51552 8.70526 7.02707L10.5013 3.42291C10.9098 2.60327 11.9119 2.26675 12.7394 2.67126C13.069 2.83235 13.3358 3.09653 13.4984 3.42291L15.2946 7.02707C15.538 7.51552 16.0085 7.85408 16.5528 7.9324L20.569 8.51036C21.4823 8.6418 22.1151 9.4816 21.9824 10.3861C21.9296 10.7463 21.7583 11.0792 21.4951 11.3333L18.589 14.1387C18.1951 14.5189 18.0154 15.0667 18.1084 15.6036L18.7944 19.5649C18.9504 20.4658 18.3395 21.3213 17.4299 21.4758C17.0676 21.5374 16.695 21.4789 16.3697 21.3096L12.7775 19.4393C12.2907 19.1858 11.7091 19.1858 11.2222 19.4393Z"
		fill-rule="evenodd" />
</svg>