<svg viewBox="0 0 24 24" xmlns="http://www.w3.org/2000/svg"
	xmlns:xlink="http://www.w3.org/1999/xlink">
	<defs />
	<g opacity="0.000000" />
	<path id="矢量 112"
		d="M11.2 2.25L12.8 2.25C13.8733 2.25 14.75 3.10764 14.75 4.17392L14.75 19.8261C14.75 20.8924 13.8733 21.75 12.8 21.75L11.2 21.75C10.1267 21.75 9.25 20.8924 9.25 19.8261L9.25 4.17392C9.25 3.10764 10.1267 2.25 11.2 2.25ZM12.8 3.75L11.2 3.75C10.9478 3.75 10.75 3.94351 10.75 4.17392L10.75 19.8261C10.75 20.0565 10.9478 20.25 11.2 20.25L12.8 20.25C13.0522 20.25 13.25 20.0565 13.25 19.8261L13.25 4.17392C13.25 3.94351 13.0522 3.75 12.8 3.75ZM5.79999 6.94568L4.20001 6.94568C3.12781 6.94568 2.25 7.79846 2.25 8.86145L2.25 19.8343C2.25 20.8972 3.12781 21.75 4.20001 21.75L5.79999 21.75C6.87219 21.75 7.75 20.8972 7.75 19.8343L7.75 8.86145C7.75 7.79846 6.87219 6.94568 5.79999 6.94568ZM4.20001 8.44568L5.79999 8.44568C6.05334 8.44568 6.25 8.63675 6.25 8.86145L6.25 19.8343C6.25 20.059 6.05334 20.25 5.79999 20.25L4.20001 20.25C3.94666 20.25 3.75 20.059 3.75 19.8343L3.75 8.86145C3.75 8.63675 3.94666 8.44568 4.20001 8.44568ZM19.8 11.6413L18.2 11.6413C17.1278 11.6413 16.25 12.4941 16.25 13.5571L16.25 19.8342C16.25 20.8972 17.1278 21.75 18.2 21.75L19.8 21.75C20.8722 21.75 21.75 20.8972 21.75 19.8342L21.75 13.5571C21.75 12.4941 20.8722 11.6413 19.8 11.6413ZM18.2 13.1413L19.8 13.1413C20.0533 13.1413 20.25 13.3324 20.25 13.5571L20.25 19.8342C20.25 20.0589 20.0533 20.25 19.8 20.25L18.2 20.25C17.9467 20.25 17.75 20.0589 17.75 19.8342L17.75 13.5571C17.75 13.3324 17.9467 13.1413 18.2 13.1413Z"
		fill-rule="evenodd" />
</svg>