<?xml version="1.0" encoding="UTF-8"?>
<svg viewBox="0 0 24 24" version="1.1" xmlns="http://www.w3.org/2000/svg" xmlns:xlink="http://www.w3.org/1999/xlink">
    <g id="页面-1" stroke="none" stroke-width="1">
        <g id="画板" transform="translate(-319.000000, -3453.000000)">
            <g id="编组" transform="translate(319.000000, 3453.000000)">
                <path d="M5.496,8.25 C6.60221356,8.25 7.5,9.14778644 7.5,10.254 L7.5,10.254 L7.5,18.747 C7.5,19.8532082 6.60221941,20.75 5.496,20.75 L5.496,20.75 L4.003,20.75 C2.89678644,20.75 2,19.8532136 2,18.747 L2,18.747 L2,10.254 C2,9.14778059 2.89679185,8.25 4.003,8.25 L4.003,8.25 Z M12.747,3.25 C13.8532082,3.25 14.75,4.14778059 14.75,5.254 L14.75,5.254 L14.75,18.747 C14.75,19.8532136 13.8532136,20.75 12.747,20.75 L12.747,20.75 L11.254,20.75 C10.1470336,20.75 9.25,19.8534607 9.25,18.747 L9.25,18.747 L9.25,5.254 C9.25,4.14753343 10.1470392,3.25 11.254,3.25 L11.254,3.25 Z M19.9865,12.247 C20.9395451,12.247 21.7561593,12.9156088 21.9520962,13.836998 C22.0382537,14.242152 21.779656,14.6404387 21.374502,14.7265962 C21.0031108,14.8055739 20.6374901,14.5948615 20.5127692,14.2471225 L20.4849038,14.149002 C20.4417353,13.946003 20.2773682,13.7904695 20.0752099,13.7547579 L19.9865,13.747 L18.5065,13.747 C18.2564118,13.747 18.0479619,13.9277614 18.0047272,14.1654431 L17.9965,14.257 L17.9965,18.739 C17.9965,18.9903101 18.1767675,19.1985998 18.4147785,19.2417838 L18.5065,19.25 L19.9895,19.25 C20.2382545,19.25 20.4453714,19.0704239 20.4883263,18.8333567 L20.4965,18.742 L20.4965,16.4978278 C20.4965,16.0836142 20.8322864,15.7478278 21.2465,15.7478278 C21.6261958,15.7478278 21.939991,16.0299816 21.9896534,16.3960572 L21.9965,16.4978278 L21.9965,18.742 C21.9965,19.8005591 21.1777893,20.667836 20.1392879,20.7444922 L19.9895,20.75 L18.5065,20.75 C17.4465153,20.75 16.5787121,19.9299286 16.502011,18.8891233 L16.4965,18.739 L16.4965,14.257 C16.4965,13.1979634 17.3165774,12.3292983 18.3565077,12.2525169 L18.5065,12.247 L19.9865,12.247 Z M5.496,9.75 L4.003,9.75 C3.72558921,9.75 3.5,9.97583793 3.5,10.254 L3.5,10.254 L3.5,18.747 C3.5,19.0247864 3.72521356,19.25 4.003,19.25 L4.003,19.25 L5.496,19.25 C5.77416207,19.25 6,19.0244108 6,18.747 L6,18.747 L6,10.254 C6,9.97621356 5.77378644,9.75 5.496,9.75 L5.496,9.75 Z M12.747,4.75 L11.254,4.75 C10.9756513,4.75 10.75,4.97577566 10.75,5.254 L10.75,5.254 L10.75,18.747 C10.75,19.0248484 10.9752757,19.25 11.254,19.25 L11.254,19.25 L12.747,19.25 C13.0247864,19.25 13.25,19.0247864 13.25,18.747 L13.25,18.747 L13.25,5.254 C13.25,4.97583793 13.0244108,4.75 12.747,4.75 L12.747,4.75 Z" id="形状结合备份"></path>
            </g>
        </g>
    </g>
</svg>