<?xml version="1.0" encoding="UTF-8"?>
<svg viewBox="0 0 24 24" version="1.1" xmlns="http://www.w3.org/2000/svg" xmlns:xlink="http://www.w3.org/1999/xlink">
    <g id="页面-1" stroke="none" stroke-width="1">
        <g id="画板" transform="translate(-635.000000, -3453.000000)">
            <g id="编组" transform="translate(635.000000, 3453.000000)">
                <path d="M12,2 C17.514,2 22,6.486 22,12 C22,17.514 17.514,22 12,22 C6.486,22 2,17.514 2,12 C2,6.486 6.486,2 12,2 Z M17,11.251 L7,11.251 C6.586,11.251 6.25,11.587 6.25,12.001 C6.25,12.415 6.586,12.751 7,12.751 L7,12.751 L17,12.751 C17.414,12.751 17.75,12.415 17.75,12.001 C17.75,11.587 17.414,11.251 17,11.251 L17,11.251 Z" id="形状结合"></path>
            </g>
        </g>
    </g>
</svg>