<svg viewBox="0 0 24 24" xmlns="http://www.w3.org/2000/svg"
	xmlns:xlink="http://www.w3.org/1999/xlink">
	<defs />
	<g opacity="0.000000" />
	<path id="矢量 180"
		d="M1.25 12C1.25 6.06293 6.06293 1.25 12 1.25C17.9371 1.25 22.75 6.06293 22.75 12C22.75 17.9371 17.9371 22.75 12 22.75C6.06293 22.75 1.25 17.9371 1.25 12ZM6.89819 11.2568C6.53217 11.3065 6.25 11.6203 6.25 12C6.25 12.4142 6.58582 12.75 7 12.75L17 12.75L17.1018 12.7432C17.4678 12.6935 17.75 12.3797 17.75 12C17.75 11.5858 17.4142 11.25 17 11.25L7 11.25L6.89819 11.2568Z"
		fill-rule="evenodd" />
</svg>