<?xml version="1.0" encoding="utf-8"?>
<!-- Generator: Adobe Illustrator 26.0.2, SVG Export Plug-In . SVG Version: 6.00 Build 0)  -->
<svg version="1.1" id="图层_1" xmlns="http://www.w3.org/2000/svg" xmlns:xlink="http://www.w3.org/1999/xlink" x="0px" y="0px"
	 viewBox="0 0 16 16" style="enable-background:new 0 0 16 16;" xml:space="preserve">
<style type="text/css">
	.st0{fill:none;}
</style>
<rect id="矩形" class="st0"/>
<path id="形状" class="st1" d="M5.8,16L5.8,16c-0.33,0-0.6-0.27-0.6-0.6V0.6C5.2,0.27,5.47,0,5.8,0l0,0c0.33,0,0.6,0.27,0.6,0.6
	v14.8C6.4,15.73,6.13,16,5.8,16z M10.8,15.4V0.6c0-0.33-0.27-0.6-0.6-0.6l0,0C9.87,0,9.6,0.27,9.6,0.6v14.8c0,0.33,0.27,0.6,0.6,0.6
	l0,0C10.53,16,10.8,15.73,10.8,15.4z"/>
</svg>
