<svg viewBox="0 0 24 24" xmlns="http://www.w3.org/2000/svg"
	xmlns:xlink="http://www.w3.org/1999/xlink">
	<defs />
	<path id="矢量 185"
		d="M3.00006 2.25L18.158 2.25C20.1418 2.25 21.7501 3.85825 21.7501 5.8421L21.7501 21C21.7501 21.6682 20.9422 22.0028 20.4697 21.5303L2.46973 3.53033C1.99725 3.05786 2.33185 2.25 3.00006 2.25ZM19.5217 5.46115C19.2241 5.17303 18.7493 5.18073 18.4612 5.47833L14.1591 9.92099L11.5389 7.21475C11.2488 6.99219 10.7489 6.93567 10.4784 7.19757C10.1808 7.48569 10.1731 7.96051 10.4612 8.25809L13.6207 11.5217C13.9177 11.7481 14.4304 11.7984 14.6984 11.5217L19.5389 6.52167C19.7519 6.22458 19.7922 5.72305 19.5217 5.46115Z"
		fill-rule="evenodd" />
</svg>