<?xml version="1.0" encoding="UTF-8"?>
<svg viewBox="0 0 16 16" version="1.1" xmlns="http://www.w3.org/2000/svg" xmlns:xlink="http://www.w3.org/1999/xlink">
    <g id="角标" stroke="none" stroke-width="1" fill-rule="evenodd">
        <path d="M0,5.5067062e-14 L14,5.5067062e-14 C15.1045695,5.48641559e-14 16,0.8954305 16,2 L16,16 L16,16 L0,5.5067062e-14 Z" id="Rectangle-4-Copy-2" fill-rule="nonzero"></path>
        <path d="M13.2096349,2.60489855 C13.496879,2.30646313 13.971666,2.29739076 14.2701014,2.58463486 C14.5685369,2.87187896 14.5776092,3.34666602 14.2903651,3.64510145 L10.8611104,7.2079635 L10.8340936,7.23498028 C10.4361797,7.61797238 9.8031303,7.60587591 9.42013815,7.20796201 L7.70963486,5.43081573 C7.42239076,5.13238031 7.43146313,4.65759324 7.72989855,4.37034915 C8.02833398,4.08310505 8.50312104,4.09217741 8.79036514,4.39061284 L10.14,5.793 L13.2096349,2.60489855 Z" id="ic_public_checkmask_2_3" fill="#FFFFFF" fill-rule="nonzero"></path>
    </g>
</svg>