<svg viewBox="0 0 24 24" xmlns="http://www.w3.org/2000/svg"
	xmlns:xlink="http://www.w3.org/1999/xlink">
	<defs />
	<g opacity="0.000000" />
	<path id="矢量 181"
		d="M1.25 12C1.25 6.06293 6.06293 1.25 12 1.25C17.9371 1.25 22.75 6.06293 22.75 12C22.75 17.9371 17.9371 22.75 12 22.75C6.06293 22.75 1.25 17.9371 1.25 12ZM18.5168 8.45648C18.2166 8.17105 17.7419 8.18301 17.4565 8.48322L11.344 14.911L7.54352 10.9142C7.25549 10.6891 6.7561 10.628 6.48322 10.8875C6.18298 11.1729 6.17102 11.6476 6.45648 11.9478L10.8008 16.5168C11.0996 16.7481 11.619 16.7995 11.8878 16.5168L18.5435 9.51678C18.7539 9.21777 18.7897 8.71594 18.5168 8.45648Z"
		fill-rule="evenodd" />
</svg>