<svg viewBox="0 0 24 24" xmlns="http://www.w3.org/2000/svg"
	xmlns:xlink="http://www.w3.org/1999/xlink">
	<defs />
	<g opacity="0.000000" />
	<path id="矢量 182"
		d="M12 1.25C14.3112 1.25 16.5139 1.98203 18.3405 3.31812C18.6749 3.56268 18.7476 4.03195 18.5031 4.36627C18.2585 4.70059 17.7893 4.77335 17.455 4.52881C15.8832 3.37915 13.9901 2.75 12 2.75C6.89136 2.75 2.75 6.89136 2.75 12C2.75 17.1086 6.89136 21.25 12 21.25C17.1086 21.25 21.25 17.1086 21.25 12C21.25 10.0093 20.6205 8.11557 19.4701 6.54361C19.2255 6.20932 19.2982 5.74005 19.6325 5.49542C19.9667 5.25082 20.436 5.32352 20.6806 5.65778C22.0175 7.48468 22.75 9.68808 22.75 12C22.75 17.9371 17.9371 22.75 12 22.75C6.06293 22.75 1.25 17.9371 1.25 12C1.25 6.06293 6.06293 1.25 12 1.25ZM18.0168 8.45648C17.7166 8.17105 17.2419 8.18301 16.9565 8.48322L10.844 14.911L7.04352 10.9142C6.75549 10.6891 6.2561 10.628 5.98322 10.8875C5.68301 11.1729 5.67105 11.6476 5.95648 11.9478L10.3008 16.5168C10.5996 16.7481 11.119 16.7995 11.3878 16.5168L18.0435 9.51678C18.2539 9.21777 18.2897 8.71594 18.0168 8.45648Z"
		fill-rule="evenodd" />
</svg>