<?xml version="1.0" encoding="UTF-8"?>
<svg viewBox="0 0 24 24" version="1.1" xmlns="http://www.w3.org/2000/svg" xmlns:xlink="http://www.w3.org/1999/xlink">
    <g id="页面-1" stroke="none" stroke-width="1">
        <g id="画板" transform="translate(-1076.000000, -3445.000000)">
            <g id="编组" transform="translate(1076.000000, 3445.000000)">
                <path d="M10.9010522,2.05882751 C14.2859609,1.6965316 17.5143733,3.03059116 19.6438182,5.55159368 C20.3501296,6.3877522 20.3154961,7.61515257 19.6133868,8.43854352 L19.4902009,8.57189816 L11.5032009,16.5588982 C11.2369343,16.8251647 10.8202706,16.8493708 10.5266591,16.6315163 L10.4425407,16.5588982 L6.44254069,12.5588982 C6.14964747,12.2660049 6.14964747,11.7911312 6.44254069,11.498238 C6.70880725,11.2319714 7.12547094,11.2077654 7.41908243,11.4256198 L7.50320086,11.498238 L10.9729208,14.9678765 L18.4295407,7.51123798 C18.6781709,7.26260778 18.7245567,6.88304951 18.5604317,6.60728746 L18.4979154,6.51953306 C16.6860534,4.37451 13.944527,3.24164372 11.0607157,3.55030582 C7.10327361,3.97402268 3.89476371,7.23940546 3.53582976,11.2060387 C3.05594809,16.5187516 7.46273246,20.9344392 12.7749402,20.4654716 C16.6985194,20.1192194 19.9559453,16.9788645 20.4334886,13.076943 C20.5786905,11.8972899 20.5376931,10.9387668 20.22,9.84 C20.1049486,9.44208539 20.3320854,9.02505145 20.73,8.91 C21.1279146,8.79494855 21.5449486,9.02208539 21.66,9.42 C22.0338622,10.7130322 22.0922661,11.8789687 21.9223162,13.2596783 C21.3587162,17.8647552 17.5347918,21.5512487 12.9068251,21.9596625 C6.66345764,22.5108339 1.47793358,17.3148333 2.0419226,11.070978 C2.46529761,6.39219681 6.23199114,2.55873624 10.9010522,2.05882751 Z" id="Stroke-1"></path>
            </g>
        </g>
    </g>
</svg>