<?xml version="1.0" encoding="UTF-8"?>
<svg viewBox="0 0 24 24" version="1.1" xmlns="http://www.w3.org/2000/svg" xmlns:xlink="http://www.w3.org/1999/xlink">
    <g id="页面-1" stroke="none" stroke-width="1">
        <g id="画板" transform="translate(-789.000000, -3453.000000)">
            <g id="编组" transform="translate(789.000000, 3453.000000)">
                <path d="M18.034,9.027 L11.026,16.033 C10.88,16.179 10.688,16.253 10.496,16.253 C10.304,16.253 10.112,16.179 9.966,16.033 L5.966,12.033 C5.673,11.74 5.673,11.265 5.966,10.972 C6.259,10.679 6.733,10.679 7.026,10.972 L10.496,14.442 L16.973,7.966 C17.266,7.673 17.741,7.673 18.034,7.966 C18.327,8.259 18.327,8.734 18.034,9.027 M12,2 C6.486,2 2,6.486 2,12 C2,17.513 6.486,22 12,22 C17.513,22 22,17.513 22,12 C22,6.486 17.513,2 12,2" id="Fill-1"></path>
            </g>
        </g>
    </g>
</svg>