<svg viewBox="0 0 24 24" xmlns="http://www.w3.org/2000/svg"
	xmlns:xlink="http://www.w3.org/1999/xlink">
	<defs />
	<g opacity="0.000000" />
	<path id="矢量 189"
		d="M14.914 3.42896C14.5569 2.17123 13.4 1.25 12.0278 1.25C10.6542 1.25 9.49615 2.17319 9.14038 3.43292L8.83459 3.53537C4.90662 4.92911 2.2402 8.73767 2.31525 13.0369C2.32291 13.4752 2.35867 13.9096 2.422 14.3382C1.70929 14.8867 1.25 15.7483 1.25 16.7171C1.25 18.374 2.59314 19.7171 4.25 19.7171C4.47534 19.7171 4.69492 19.6923 4.90515 19.6454C6.73245 21.6106 9.27621 22.75 12 22.75C14.7275 22.75 17.2738 21.6073 19.1076 19.6321C19.3315 19.6855 19.5652 19.7137 19.8055 19.7137C21.4624 19.7137 22.8055 18.3706 22.8055 16.7137C22.8055 15.7489 22.3501 14.8904 21.6424 14.3417L21.6734 14.1094C21.7243 13.6987 21.75 13.2834 21.75 12.8649C21.75 8.50461 18.9409 4.70459 14.914 3.42896ZM10.5278 4.25C10.5278 3.42157 11.1993 2.75 12.0278 2.75C12.8562 2.75 13.5278 3.42157 13.5278 4.25C13.5278 5.07843 12.8562 5.75 12.0278 5.75C11.1993 5.75 10.5278 5.07843 10.5278 4.25ZM14.9268 5.02222C14.5598 6.26422 13.3888 7.25 12.0278 7.25C10.6394 7.25 9.47125 6.30682 9.12918 5.02625C5.92001 6.26273 3.75259 9.43472 3.81503 13.0107C3.81934 13.257 3.83401 13.5016 3.85895 13.7441C3.98761 13.7257 4.1178 13.7171 4.25 13.7171C5.90686 13.7171 7.25 15.0603 7.25 16.7171C7.25 17.586 6.88065 18.3686 6.29037 18.9164C7.81027 20.4005 9.8374 21.25 12 21.25C14.1776 21.25 16.2174 20.3884 17.7404 18.8875C17.1639 18.3416 16.8055 17.5695 16.8055 16.7137C16.8055 15.0569 18.1487 13.7137 19.8055 13.7137C19.9405 13.7137 20.0734 13.7227 20.2036 13.7399L20.1848 13.9249C20.2281 13.5753 20.25 13.2216 20.25 12.8649C20.25 9.3327 18.0828 6.23752 14.9268 5.02222ZM2.422 14.3382C2.43549 14.4294 2.45023 14.5204 2.46619 14.6111L2.422 14.3382ZM19.8055 15.2137C18.9771 15.2137 18.3055 15.8853 18.3055 16.7137C18.3055 17.5422 18.9771 18.2137 19.8055 18.2137C20.634 18.2137 21.3055 17.5422 21.3055 16.7137C21.3055 15.8853 20.634 15.2137 19.8055 15.2137ZM2.75 16.7171C2.75 15.8887 3.42157 15.2171 4.25 15.2171C5.07843 15.2171 5.75 15.8887 5.75 16.7171C5.75 17.5455 5.07843 18.2171 4.25 18.2171C3.42157 18.2171 2.75 17.5455 2.75 16.7171Z"
		fill-rule="evenodd" />
</svg>