<?xml version="1.0" encoding="UTF-8"?>
<svg viewBox="0 0 24 24" version="1.1" xmlns="http://www.w3.org/2000/svg" xmlns:xlink="http://www.w3.org/1999/xlink">
    <g id="页面-1" stroke="none" stroke-width="1">
        <g id="画板" transform="translate(-319.000000, -3520.000000)">
            <g id="编组" transform="translate(319.000000, 3520.000000)">
                <path d="M12,2 C13.7949254,2 15.25,3.45507456 15.25,5.25 L15.2462999,5.12175627 C18.5165387,6.4265713 20.75,9.6165075 20.75,13.25 C20.75,13.8275954 20.693927,14.3980745 20.5837383,14.9555108 C21.4385649,15.5418645 22,16.5256796 22,17.640625 C22,19.4355504 20.5449254,20.890625 18.75,20.890625 C18.1216694,20.890625 17.5349846,20.7123178 17.0377854,20.403543 C15.5822846,21.4325693 13.834581,22 12,22 C10.1660568,22 8.418629,21.4330253 6.96141318,20.4046611 C6.46501536,20.7123178 5.87833062,20.890625 5.25,20.890625 C3.45507456,20.890625 2,19.4355504 2,17.640625 C2,16.5252528 2.56186511,15.5411112 3.41799774,14.9557978 C3.3061201,14.3984615 3.25,13.8278273 3.25,13.25 C3.25,9.62074202 5.47883516,6.4290216 8.7529336,5.1221703 C8.81962478,3.38647149 10.2478985,2 12,2 Z M9.05369442,6.62361633 L9.02096368,6.63761647 C6.46710087,7.78791386 4.75,10.3506596 4.75,13.25 C4.75,13.6443815 4.78142542,14.0342794 4.84333174,14.4171361 C4.97797734,14.399102 5.11299872,14.390625 5.25,14.390625 C7.04492544,14.390625 8.5,15.8456996 8.5,17.640625 C8.5,18.2546133 8.32974001,18.8288352 8.03385786,19.318653 C9.19673523,20.0823928 10.5653325,20.5 12,20.5 C13.4348626,20.5 14.8034807,20.0822138 15.9671541,19.3196354 C15.67026,18.8288352 15.5,18.2546133 15.5,17.640625 C15.5,15.8456996 16.9550746,14.390625 18.75,14.390625 C18.887349,14.390625 19.022708,14.3991451 19.1555774,14.4156855 C19.2186,14.0340107 19.25,13.6442323 19.25,13.25 C19.25,10.335459 17.5152192,7.76488441 14.9468558,6.62311726 C14.428012,7.73244573 13.303642,8.5 12,8.5 C10.6959712,8.5 9.57132071,7.73199015 9.05369442,6.62361633 Z M5.25,15.890625 C4.28350169,15.890625 3.5,16.6741267 3.5,17.640625 C3.5,18.6071233 4.28350169,19.390625 5.25,19.390625 C6.21649831,19.390625 7,18.6071233 7,17.640625 C7,16.6741267 6.21649831,15.890625 5.25,15.890625 Z M18.75,15.890625 C17.7835017,15.890625 17,16.6741267 17,17.640625 C17,18.6071233 17.7835017,19.390625 18.75,19.390625 C19.7164983,19.390625 20.5,18.6071233 20.5,17.640625 C20.5,16.6741267 19.7164983,15.890625 18.75,15.890625 Z M12,3.5 C11.0335017,3.5 10.25,4.28350169 10.25,5.25 C10.25,6.21649831 11.0335017,7 12,7 C12.9664983,7 13.75,6.21649831 13.75,5.25 C13.75,4.28350169 12.9664983,3.5 12,3.5 Z" id="形状结合"></path>
            </g>
        </g>
    </g>
</svg>