<svg viewBox="0 0 24 24" xmlns="http://www.w3.org/2000/svg"
	xmlns:xlink="http://www.w3.org/1999/xlink">
	<defs />
	<g opacity="0.000000" />
	<path id="合并"
		d="M13.9177 7.989C13.9177 5.5098 12.9581 3.5 10.2507 3.5C7.54333 3.5 6.58374 5.5098 6.58374 7.989C6.58374 8.12508 6.58752 8.26147 6.59503 8.39738C6.26379 8.70087 6.15002 9.317 6.34766 9.92546C6.51343 10.436 6.8551 10.8077 7.21881 10.9276C7.34381 11.1866 7.48712 11.4305 7.64899 11.6558C8.09979 12.329 8.29388 12.9528 8.12164 13.3665C8.02899 13.5891 7.84619 13.7742 7.57318 13.9217C7.29346 14.0729 6.88855 14.2339 6.42511 14.4183C4.73053 15.0923 2.25403 16.0773 2.25946 18.0275C2.25946 18.1974 2.2569 18.3629 2.25446 18.5224C2.23743 19.6367 2.22479 20.4618 3.11029 20.5C4.03815 20.4989 8.79797 20.4988 17.3897 20.4996C18.2752 20.4614 18.2626 19.6363 18.2455 18.522C18.2448 18.4709 18.244 18.4191 18.2432 18.3668L18.2405 18.0271C18.246 16.0769 15.7695 15.0919 14.0749 14.4179C13.6115 14.2336 13.2065 14.0725 12.9268 13.9213C12.6538 13.7738 12.471 13.5887 12.3784 13.3661C12.1993 12.936 12.3569 12.3658 12.851 11.6554L12.9359 11.5352C13.0637 11.3448 13.1793 11.1414 13.2824 10.9278C13.6465 10.8079 13.9883 10.4361 14.1541 9.92546C14.3518 9.31679 14.2379 8.70045 13.9064 8.3978C13.9139 8.26147 13.9177 8.12508 13.9177 7.989ZM19.7067 19.5C19.7526 19.1915 19.7554 18.8323 19.7451 18.2101C19.7441 18.1447 19.7441 18.1447 19.743 18.0796L19.7404 17.7624C19.7463 15.815 18.3484 14.6072 15.9638 13.5936C15.5155 13.4083 14.2922 12.9486 13.7607 12.7358C13.8011 12.6732 13.8541 12.5602 13.9166 12.4766L13.9985 12.3688L14.1078 12.2132C14.143 12.1616 14.1769 12.1103 14.2097 12.0589C14.7474 11.715 15.23 11.0954 15.4536 10.4553L15.4911 10.3411C15.7263 9.57707 15.6624 8.76289 15.2938 8.12093L15.2839 8.00728C15.2532 6.04669 14.6198 4.46687 13.4032 3.51038C13.5167 3.50346 13.6326 3.5 13.7506 3.5C14.4551 3.5 15.0784 3.62309 15.6205 3.86928C15.897 3.99487 16.149 4.15051 16.3765 4.33621C16.5858 4.50711 16.7744 4.70346 16.9421 4.92526C17.5395 5.71494 17.8378 6.84727 17.8378 8.16817C17.8692 8.21558 17.8985 8.26515 17.9256 8.31693C18.0118 8.48138 18.0723 8.66019 18.1069 8.85338C18.1241 8.94913 18.1348 9.04515 18.1389 9.14146C18.1509 9.42195 18.1077 9.7048 18.0093 9.99004C17.925 10.2343 17.8083 10.4538 17.6592 10.6485C17.6142 10.7074 17.5661 10.764 17.5151 10.8183C17.3701 10.9729 17.2127 11.0972 17.0428 11.1914C16.9688 11.3179 16.8875 11.4432 16.8044 11.5596C16.8018 11.5633 16.7225 11.6691 16.7198 11.6727C16.5895 11.849 16.4955 12.0059 16.4377 12.1434C16.4 12.2333 16.3818 12.302 16.3835 12.3487C16.4053 12.3757 16.4506 12.4067 16.5192 12.4417C16.6617 12.5141 16.9807 12.6431 17.4763 12.8286C18.0286 13.0354 18.4525 13.2031 18.7482 13.3318C19.2723 13.56 19.7177 13.7934 20.0844 14.0321C20.9474 14.5938 21.4734 15.2422 21.6626 15.9774C21.7164 16.1862 21.7429 16.4021 21.7422 16.625L21.7446 16.905C21.745 16.931 21.7457 16.9729 21.7466 17.0308C21.7518 17.3525 21.751 17.5879 21.7441 17.737C21.7308 18.0227 21.6925 18.2647 21.6291 18.463C21.5516 18.7055 21.4332 18.9078 21.2739 19.0699C21.2291 19.1155 21.0915 19.221 21.0403 19.2602C20.8133 19.4069 20.5116 19.4873 20.198 19.5L19.7067 19.5Z"
		fill-rule="evenodd" />
</svg>