<?xml version="1.0" encoding="UTF-8"?>
<svg viewBox="0 0 24 24" version="1.1" xmlns="http://www.w3.org/2000/svg" xmlns:xlink="http://www.w3.org/1999/xlink">
    <g id="页面-1" stroke="none" stroke-width="1">
        <g id="画板" transform="translate(-791.000000, -3520.000000)">
            <g id="编组" transform="translate(791.000000, 3520.000000)">
                <path d="M7.26725056,2.751526 L4.96625056,2.751526 C3.65608126,2.751526 2.61630313,3.87783279 2.73852489,5.18153153 C3.51474134,13.5094496 10.0171384,20.1996493 18.3040803,21.2258409 C19.924994,21.4265518 21.2712506,20.2700567 21.2712506,18.641526 L21.2712506,16.775526 C21.2712506,15.7768646 20.5346993,14.9255887 19.5446543,14.7986187 C18.4530428,14.662279 17.3936325,14.3747248 16.3887868,13.9473547 L16.2320741,13.8871602 C15.3911577,13.5984312 14.4765398,13.823996 13.8758127,14.439526 L13.7485718,14.3613488 C12.1210333,13.3141357 10.7333603,11.9265249 9.68415715,10.2975016 L9.60481272,10.169526 C10.261402,9.52869942 10.4748845,8.53750939 10.0991481,7.65634685 C9.66952239,6.64848873 9.38102705,5.5824748 9.24453608,4.48311893 C9.12230807,3.49081764 8.26905639,2.751526 7.26725056,2.751526 Z M4.96625056,4.251526 L7.26725056,4.251526 C7.51799928,4.251526 7.72697616,4.432592 7.75587631,4.66721553 C7.90976468,5.90670021 8.23499334,7.10844678 8.71931968,8.24462697 C8.87877863,8.61858393 8.73429013,9.03592817 8.38787751,9.21629994 L8.25194074,9.28783733 C7.87854952,9.48435903 7.74070436,9.95010941 7.94699235,10.3181951 C9.30421497,12.7399267 11.3083612,14.7440728 13.7280147,16.0980268 C14.0967195,16.3043412 14.5629951,16.1655284 14.7588242,15.7911491 L14.8268242,15.6611491 C15.0075149,15.3126847 15.4261944,15.167792 15.8014134,15.3275693 C16.9337751,15.8091732 18.1281146,16.1333511 19.3563023,16.2867441 C19.5899879,16.3167177 19.7712506,16.5262136 19.7712506,16.775526 L19.7712506,18.641526 C19.7712506,19.3584663 19.2242894,19.8283306 18.488416,19.7372105 C10.90005,18.7975252 4.94283817,12.6682568 4.23201384,5.04192277 C4.19268766,4.62244235 4.53510832,4.251526 4.96625056,4.251526 Z" id="Stroke-1"></path>
            </g>
        </g>
    </g>
</svg>