<?xml version="1.0" encoding="UTF-8"?>
<svg viewBox="0 0 24 24" version="1.1" xmlns="http://www.w3.org/2000/svg"
    xmlns:xlink="http://www.w3.org/1999/xlink">
    <g id="S12组件" stroke="none" stroke-width="1" fill-rule="evenodd">
        <g id="telephone-circle">
            <rect id="矩形备份-14" opacity="0" x="0" y="0" width="24" height="24"></rect>
            <g id="编组" transform="translate(2.000000, 2.000000)">
                <path
                    d="M10,0 C12.2170341,0 14.3258236,0.72418837 16.0532894,2.03924114 C16.3828702,2.29013825 16.446656,2.76070858 16.1957589,3.0902894 C15.9448618,3.41987022 15.4742914,3.48365597 15.1447106,3.23275886 C13.6761624,2.11481002 11.8858755,1.5 10,1.5 C5.30585564,1.5 1.5,5.30557146 1.5,10 C1.5,14.6937864 5.30621356,18.5 10,18.5 C14.6944285,18.5 18.5,14.6941444 18.5,10 C18.5,8.1146074 17.8858507,6.32533664 16.7681003,4.85610438 C16.5173054,4.52644579 16.581237,4.05589525 16.9108956,3.80510033 C17.2405542,3.55430541 17.7111047,3.61823704 17.9618997,3.94789562 C19.2765776,5.67598035 20,7.78360864 20,10 C20,15.5225464 15.5228807,20 10,20 C4.47778644,20 0,15.5222136 0,10 C0,4.47711926 4.47745359,0 10,0 Z M7.20849386,4.25103547 C7.95199827,4.25103547 8.58604738,4.80104173 8.67907291,5.54185394 C8.75552815,6.16040145 8.9176077,6.75963127 9.15969456,7.32737068 C9.3767515,7.83692508 9.32126907,8.39820429 9.04805983,8.83903563 L8.969,8.954 L8.9902309,8.98613586 C9.53747756,9.7935441 10.2341385,10.4902682 11.0410161,11.0370105 L11.072,11.057 L11.1874393,10.9790329 C11.5879965,10.7313561 12.0889187,10.662755 12.5602165,10.8154918 L12.7005871,10.8679952 C13.2630964,11.1080598 13.8594991,11.2699495 14.4749876,11.3475031 C15.1676167,11.4346129 15.6927268,11.9973117 15.7556599,12.678962 L15.7619969,12.8167724 L15.7619969,13.915591 C15.7619969,15.0619075 14.8052807,15.8847598 13.6686049,15.7437058 C8.6461752,15.1215161 4.70522404,11.0665589 4.23467515,6.0193383 C4.14988396,5.11719948 4.82764755,4.33323111 5.71204366,4.25708962 L5.85332127,4.25103547 L7.20849386,4.25103547 Z M7.194,5.751 L5.85332127,5.751 C5.78023812,5.751 5.72199873,5.81413026 5.72814591,5.8795357 C6.13330614,10.2253798 9.52912144,13.7194312 13.8531734,14.2551042 C14.0764397,14.2828101 14.2258092,14.1787553 14.256246,13.9901774 L14.2619969,13.915591 L14.261,12.831 L13.9125421,12.7796539 C13.4151769,12.6934443 12.9293411,12.5618071 12.4607315,12.3870562 L12.1125933,12.2479454 C12.0535207,12.2228147 11.9941393,12.2342814 11.956597,12.2708429 L11.933,12.3 L11.8963257,12.3744158 C11.7189244,12.7217232 11.3095552,12.8701607 10.9566294,12.7323867 L10.8619931,12.6876502 C9.38714828,11.861834 8.16627877,10.6408086 7.33939878,9.16514583 C7.14906194,8.82546778 7.25188723,8.40317163 7.5613269,8.18555932 L7.65077719,8.13150116 L7.72544536,8.09313295 C7.78556264,8.06173566 7.81091232,7.9885338 7.77978977,7.9154716 C7.53247778,7.33547842 7.35314778,6.72819677 7.2461012,6.10386623 L7.194,5.751 Z"
                    id="形状"></path>
            </g>
        </g>
    </g>
</svg>