<svg viewBox="0 0 24 24" xmlns="http://www.w3.org/2000/svg"
	xmlns:xlink="http://www.w3.org/1999/xlink">
	<defs />
	<g opacity="0.000000" />
	<path id="矢量 188"
		d="M18.5307 3.46051C16.6698 2.03528 14.3935 1.25 12 1.25C6.06293 1.25 1.25 6.06293 1.25 12C1.25 17.9371 6.06293 22.75 12 22.75C17.9371 22.75 22.75 17.9371 22.75 12C22.75 9.60803 21.9658 7.33319 20.5422 5.47284C20.2905 5.14386 19.8198 5.08124 19.4908 5.33298C19.1619 5.58469 19.0992 6.05542 19.351 6.38437C20.576 7.98526 21.25 9.94043 21.25 12C21.25 17.1086 17.1086 21.25 12 21.25C6.89136 21.25 2.75 17.1086 2.75 12C2.75 6.89136 6.89136 2.75 12 2.75C14.0609 2.75 16.0173 3.42493 17.6187 4.6514C17.9476 4.90323 18.4183 4.84082 18.6702 4.51196C18.922 4.18311 18.8596 3.71234 18.5307 3.46051ZM9.47543 6.25C10.1732 6.25156 10.6838 6.71835 10.91 7.37552C10.9331 7.44263 10.9605 7.51663 10.9927 7.59961L11.2635 8.27225L11.3527 8.51596L11.4761 8.87167L11.5684 9.1691C11.6377 9.41098 11.6749 9.60388 11.6749 9.77942C11.6749 10.1199 11.5511 10.5092 11.3318 10.8205L11.3265 11.0184C11.558 11.5008 11.9357 11.9635 12.4068 12.366L12.5877 12.514C12.7607 12.6495 12.9353 12.7689 13.0956 12.8644L13.2296 12.8582C13.5358 12.5726 13.9665 12.418 14.4356 12.4918L14.5774 12.5208L14.7112 12.5544L16.1466 12.9012L16.3464 12.9573L16.8159 13.1011L16.987 13.1508C17.6654 13.3409 18.1528 13.8903 18.1544 14.5985L18.1374 14.7589L18.0875 14.9876L17.9112 15.7583L17.8365 16.0588L17.7704 16.304L17.7125 16.4947C17.479 17.2057 17.0891 17.6828 16.4106 17.7434L16.2112 17.7492L15.7526 17.7072C14.8836 17.6131 14.1319 17.4625 13.5096 17.2574L12.9155 17.0512C9.7128 15.9058 7.65982 13.78 6.84442 10.7791C6.58289 10.0839 6.40045 9.24088 6.29398 8.25903L6.25287 7.827C6.25287 7.00464 6.91675 6.25037 7.73935 6.25L9.47543 6.25ZM7.75101 7.74899L9.47165 7.75L9.53967 7.99817L9.86032 8.80264L10.031 9.27991L10.1081 9.52087L10.172 9.76221L10.1216 9.93701C9.74478 10.0486 9.57892 10.4202 9.66959 10.8096C9.9295 11.9261 10.6759 12.9216 11.6626 13.6947C12.0427 13.9926 12.4387 14.2374 12.778 14.3896C12.9625 14.4724 13.1308 14.5287 13.2874 14.5525C13.6473 14.5819 14.0927 14.4754 14.2338 14.0517L15.6527 14.3236L15.8845 14.385L16.634 14.609L16.46 15.3774L16.3622 15.768L16.2875 16.0266L16.2349 16.1922L15.9355 16.218C15.1553 16.1342 14.502 16.0038 13.9697 15.8292L13.4363 15.6443C10.663 14.6501 8.97247 12.8927 8.26996 10.3177C8.04037 9.69925 7.88306 8.9798 7.7876 8.11737L7.75101 7.74899ZM10.1216 9.93701L10.2444 9.90585C10.2247 9.91003 10.1406 9.9314 10.1216 9.93701Z"
		fill-rule="evenodd" />
</svg>