<svg viewBox="0 0 24 24" xmlns="http://www.w3.org/2000/svg"
	xmlns:xlink="http://www.w3.org/1999/xlink">
	<defs />
	<g opacity="0.000000" />
	<path id="矢量 206"
		d="M4.33197 2.25L6.90063 2.25391C7.91821 2.25616 8.78455 2.99448 8.948 3.99863L9.03729 4.52441C9.05188 4.6066 9.06635 4.686 9.08069 4.76266L9.16455 5.18958L9.24469 5.54999L9.32458 5.86441L9.42578 6.22906L9.61774 6.86972L9.8576 7.6221L10.0441 8.18533C10.0771 8.28394 10.0893 8.38834 10.0798 8.49191C10.0085 9.27307 9.77679 9.88736 9.36951 10.2772L9.36609 10.5776C9.8147 11.686 10.647 12.7339 11.7073 13.6173L11.956 13.8182C12.4321 14.1913 12.918 14.5029 13.3292 14.711L13.566 14.823C13.9146 14.3837 14.5489 14.0442 15.2992 13.9436L15.5081 13.9201C15.6117 13.9107 15.7161 13.9229 15.8147 13.9559L16.3779 14.1424L17.1302 14.3823L17.7709 14.5742L18.1356 14.6754L18.45 14.7553L18.8104 14.8354L19.2373 14.9193L20.0011 15.052C20.9526 15.2068 21.6654 15.9926 21.7397 16.9405L21.7461 17.0999L21.75 19.6695C21.7495 20.8184 20.8184 21.7497 19.6693 21.75L19.5428 21.7461C17.5055 21.5703 15.7599 21.2267 14.4388 20.729C8.64868 18.8278 4.93414 15.2017 3.36591 9.89737L3.26697 9.55099L3.16724 9.27338C2.75922 8.08575 2.47217 6.6546 2.30334 4.98752L2.26019 4.52704C2.25317 4.4621 2.25 4.39725 2.25 4.33047C2.25024 3.23163 3.10242 2.33191 4.18323 2.25528L4.33197 2.25ZM3.75763 4.23654C3.80273 3.96078 4.0423 3.75012 4.33118 3.75L6.89777 3.75391C7.13934 3.79349 7.427 3.99118 7.46747 4.23978C7.4834 4.33762 7.49927 4.43277 7.51501 4.52521L7.60791 5.04736L7.69812 5.50504L7.78577 5.89871L7.88074 6.27139L8.00092 6.70139L8.22882 7.4545L8.4126 8.02911L8.57001 8.50601L8.55115 8.63571C8.48291 9.05005 8.36597 9.20996 8.2326 9.23825C7.82178 9.32541 7.56256 9.73294 7.65778 10.142C8.09033 12 9.35339 13.6846 11.0308 14.9989C11.6783 15.5063 12.35 15.9215 12.9142 16.1747C12.9608 16.1956 13.0066 16.2157 13.0518 16.235L13.314 16.3401C14.0739 16.6213 14.5894 16.5799 14.7617 15.7674C14.812 15.6506 14.9913 15.5103 15.3643 15.4488L15.493 15.429L15.9709 15.5874L16.5455 15.7712L17.2986 15.9991L17.7286 16.1193L18.1013 16.2142L18.4949 16.3019L18.9526 16.3921C19.0342 16.4074 19.1185 16.4227 19.2056 16.4382L19.76 16.5325C20.0399 16.578 20.2455 16.8193 20.2461 17.1028L20.25 19.6703C20.2048 19.9453 19.9578 20.2499 19.6691 20.25L19.1968 20.2076C17.4696 20.0332 16.053 19.7343 14.9369 19.3145L14.5483 19.183C9.28821 17.3498 6.04053 14.0175 4.70703 9.12979L4.58307 8.77786C4.18347 7.61169 3.90515 6.1452 3.75305 4.38156L3.75763 4.23654Z"
		fill-rule="evenodd" />
</svg>