<?xml version="1.0" encoding="UTF-8"?>
<svg viewBox="0 0 24 24" version="1.1" xmlns="http://www.w3.org/2000/svg" xmlns:xlink="http://www.w3.org/1999/xlink">
    <g id="S12组件" stroke="none" stroke-width="1">
        <g id="TextTab">
            <path d="M18.0154585,3 C19.6077001,3 20.9094324,4.24486647 21.0003823,5.81432653 L21.0054585,5.99 L21.0054585,15.921 C21.0054585,16.6364045 20.7526041,17.3155588 20.2999982,17.8504567 C20.0324402,18.1666616 19.5592068,18.2060978 19.2430018,17.9385397 C18.9267969,17.6709817 18.8873607,17.1977483 19.1549188,16.8815433 C19.3479677,16.6533946 19.467615,16.3735095 19.4978602,16.0728926 L19.5054585,15.921 L19.5054585,5.99 C19.5054585,5.21561276 18.9144319,4.57903403 18.158937,4.50682195 L18.0154585,4.5 L10.7202085,4.5 C9.94582126,4.5 9.30924252,5.09102655 9.23703045,5.84652148 L9.23,5.98 L14.9999585,5.9809 C16.5923991,5.9809 17.8939466,7.22595839 17.9848831,8.79614373 L17.9899585,8.9719 L17.9899585,18.01 C17.9899585,19.6022416 16.745092,20.9039739 15.175632,20.9949238 L14.9999585,21 L5.99,21 C4.39775835,21 3.09602611,19.7551335 3.00507615,18.1856735 L3,18.01 L3,8.9719 C3,7.44774069 4.14485464,6.17313586 5.64753878,6.00078499 C6.05905444,5.95358606 6.43091608,6.24892312 6.47811501,6.66043878 C6.52531394,7.07195444 6.22997688,7.44381608 5.81846122,7.49101501 C5.11758551,7.57140219 4.57204795,8.13502227 4.50659355,8.83103596 L4.5,8.9719 L4.5,10.757 L16.489,10.757 L16.4899585,8.9719 C16.4899585,8.19666842 15.899023,7.55994888 15.1434531,7.48772316 L14.9999585,7.4809 L8.4797085,7.4809 C8.39694002,7.4809 8.317303,7.4674926 8.2428508,7.44273115 C8.13126513,7.4054826 8.03126322,7.34271489 7.94987841,7.26133009 L7.88598042,7.18920264 C7.78800475,7.06246215 7.7297085,6.90348898 7.7297085,6.7309 L7.73,6.716 L7.7302085,5.99 C7.7302085,4.39775835 8.97507497,3.09602611 10.544535,3.00507615 L10.7202085,3 L18.0154585,3 Z M16.489,12.257 L4.5,12.257 L4.5,18.01 C4.5,18.7843872 5.09102655,19.420966 5.84652148,19.493178 L5.99,19.5 L14.9999585,19.5 C15.7743457,19.5 16.4109245,18.9089735 16.4831365,18.1534785 L16.4899585,18.01 L16.489,12.257 Z" id="形状结合"></path>
        </g>
    </g>
</svg>