<svg viewBox="0 0 24 24" xmlns="http://www.w3.org/2000/svg"
	xmlns:xlink="http://www.w3.org/1999/xlink">
	<defs />
	<g opacity="0.000000" />
	<path id="矢量 207"
		d="M18.6083 2.25C20.2818 2.25 21.6525 3.54837 21.745 5.18811L21.75 5.36505L21.75 16.402C21.75 17.1932 21.4504 17.9396 20.9214 18.51C20.6398 18.8137 20.1652 18.8315 19.8615 18.5499C19.5578 18.2683 19.5399 17.7937 19.8216 17.49C20.0618 17.231 20.2097 16.9051 20.2429 16.554L20.25 16.402L20.25 5.36505C20.25 4.52182 19.592 3.82678 18.7502 3.75595L18.6083 3.75L8.64279 3.75C8.21518 3.75 7.81549 3.91049 7.51218 4.19403C7.20959 4.47693 6.73502 4.46094 6.45212 4.15836C6.16925 3.85577 6.18524 3.38116 6.48782 3.0983C7.01404 2.60632 7.69406 2.30777 8.42282 2.25757L8.64279 2.25L18.6083 2.25ZM18.75 8.36841C18.75 6.6416 17.3208 5.25 15.5676 5.25L5.43243 5.25C3.67923 5.25 2.25 6.6416 2.25 8.36841L2.25 18.6316C2.25 20.3584 3.67923 21.75 5.43243 21.75L15.5676 21.75C17.3208 21.75 18.75 20.3584 18.75 18.6316L18.75 8.36841ZM5.43243 6.75L15.5676 6.75L15.7133 6.75598C16.5779 6.82721 17.25 7.52594 17.25 8.36841L17.25 10.75L3.75 10.75L3.75 8.36841C3.75 7.47913 4.49884 6.75 5.43243 6.75ZM3.75 12.25L17.25 12.25L17.25 18.6316C17.25 19.5209 16.5012 20.25 15.5676 20.25L5.43243 20.25L5.28665 20.244C4.42209 20.1728 3.75 19.4741 3.75 18.6316L3.75 12.25Z"
		fill-rule="evenodd" />
</svg>