<svg viewBox="0 0 24 24" xmlns="http://www.w3.org/2000/svg"
	xmlns:xlink="http://www.w3.org/1999/xlink">
	<defs />
	<path id="矢量 208"
		d="M14.9659 2.01077C15.2018 1.97708 15.4747 2.04657 15.6642 2.25616L20.3001 7.38397C20.7477 7.87897 20.3948 8.66772 19.7258 8.66772L16.3261 8.66772C15.2166 8.66772 14.3172 7.77234 14.3172 6.66785L14.317 3.539L6.12704 3.53989C5.56946 3.53989 5.11038 3.95987 5.05167 4.49939L5.04532 4.61673L5.04532 19.3848C5.04532 19.9399 5.46719 20.3969 6.00919 20.4553L6.12704 20.4617L17.8715 20.4617C18.429 20.4617 18.8881 20.0417 18.9468 19.5021L18.9532 19.3848L18.9532 11.1803C18.9532 10.7555 19.2991 10.4111 19.7258 10.4111C20.117 10.4111 20.4403 10.7006 20.4914 11.0759L20.4985 11.1803L20.4985 19.3848C20.4985 20.7714 19.4145 21.9059 18.0442 21.9944L17.8715 22L6.12704 22C4.73419 22 3.59454 20.9209 3.50558 19.5568L3.5 19.3848L3.5 4.61673C3.5 3.23016 4.58395 2.09564 5.95432 2.00711L6.12704 2.00156L14.8459 2.00156C14.8867 2.00156 14.9268 2.0047 14.9659 2.01077ZM15.8625 6.66785L15.8625 4.77466L17.9909 7.12939L16.3261 7.12939C16.1099 7.09033 15.8625 6.89441 15.8625 6.66785ZM12.9804 10.4033C13.4071 10.4033 13.7531 10.7476 13.7531 11.1724C13.7531 11.5618 13.4624 11.8837 13.0852 11.9346L12.9804 11.9417L7.87839 11.9417C7.45166 11.9417 7.10574 11.5972 7.10574 11.1724C7.10574 10.783 7.39642 10.4612 7.77356 10.4103L7.87839 10.4033L12.9804 10.4033ZM16.8927 15.9058C16.8927 15.481 16.5468 15.1366 16.1201 15.1366L7.87839 15.1366L7.77356 15.1437C7.39642 15.1946 7.10574 15.5164 7.10574 15.9058C7.10574 16.3306 7.45166 16.6749 7.87839 16.6749L16.1201 16.6749L16.2249 16.668C16.6021 16.617 16.8927 16.2952 16.8927 15.9058Z"
		fill-rule="evenodd" />
</svg>