<svg viewBox="0 0 24 24" xmlns="http://www.w3.org/2000/svg"
	xmlns:xlink="http://www.w3.org/1999/xlink">
	<defs />
	<g opacity="0.000000" />
	<path id="矢量 226"
		d="M18.75 2.25C20.4069 2.25 21.75 3.59314 21.75 5.25L21.75 18.75C21.75 20.4069 20.4069 21.75 18.75 21.75L5.25 21.75C3.59314 21.75 2.25 20.4069 2.25 18.75L2.25 5.25C2.25 3.59314 3.59314 2.25 5.25 2.25L18.75 2.25ZM8.5 6.66473L15.5 6.66473C15.9142 6.66473 16.25 7.00055 16.25 7.41473C16.25 7.79443 15.9678 8.10822 15.6018 8.1579L15.5 8.16473L12.752 8.164L12.7524 17C12.7524 17.4142 12.4166 17.75 12.0024 17.75C11.6227 17.75 11.309 17.4678 11.2593 17.1017L11.2524 17L11.252 8.164L8.5 8.16473C8.08582 8.16473 7.75 7.82898 7.75 7.41473C7.75 7.03503 8.03217 6.72125 8.39819 6.67157L8.5 6.66473Z"
		fill-rule="evenodd" />
</svg>