<?xml version="1.0" encoding="UTF-8"?>
<svg viewBox="0 0 24 24" version="1.1" xmlns="http://www.w3.org/2000/svg" xmlns:xlink="http://www.w3.org/1999/xlink">
    <g id="页面-1" stroke="none" stroke-width="1">
        <g id="画板" transform="translate(-319.000000, -3591.000000)">
            <g id="编组" transform="translate(319.000000, 3591.000000)">
                <path d="M14,2.0185 C14.0301207,2.01858282 14.0505828,2.0197064 14.0709518,2.02165744 L14,2.0185 C14.0447092,2.0185 14.0885087,2.02241861 14.1310736,2.02993089 C14.1420406,2.03181546 14.1530417,2.03402383 14.1639899,2.03647678 C14.1878251,2.04183042 14.2112254,2.04828643 14.2341394,2.05581741 C14.2452207,2.05941388 14.2568779,2.06354574 14.2684363,2.06796701 C14.2883567,2.07569799 14.3071054,2.08382504 14.3254397,2.09267634 C14.3390275,2.09903436 14.3530506,2.10631106 14.3668588,2.11404386 C14.3837512,2.12379271 14.4002136,2.13391044 14.4162405,2.14462919 C14.4289729,2.15277167 14.4411868,2.16146555 14.4531656,2.17055266 C14.479945,2.19126746 14.5059281,2.21392813 14.53025,2.23825 L14.531,2.2386 L19.742,7.4706 C19.956,7.6856 20.02,8.0076 19.903,8.2876 C19.787,8.5666 19.514,8.7496 19.211,8.7496 L15.5,8.7496 C14.259,8.7496 13.25,7.7406 13.25,6.4996 L13.25,3.5185 L7.039,3.5185 C6.212,3.5185 5.539,4.1905 5.539,5.0185 L5.539,18.9815 C5.539,19.8085 6.212,20.4815 7.039,20.4815 L16.961,20.4815 C17.788,20.4815 18.461,19.8085 18.461,18.9815 L18.461,10.4945 C18.461,10.0805 18.797,9.7445 19.211,9.7445 C19.625,9.7445 19.961,10.0805 19.961,10.4945 L19.961,18.9815 C19.961,20.6355 18.615,21.9815 16.961,21.9815 L7.039,21.9815 C5.385,21.9815 4.039,20.6355 4.039,18.9815 L4.039,5.0185 C4.039,3.3635 5.385,2.0185 7.039,2.0185 L14,2.0185 Z M15.5,15.7078 C15.882,15.7078 16.192,16.0178 16.192,16.4008 C16.192,16.7828 15.882,17.0928 15.5,17.0928 L8.5,17.0928 C8.118,17.0928 7.808,16.7828 7.808,16.4008 C7.808,16.0178 8.118,15.7078 8.5,15.7078 L15.5,15.7078 Z M13.5,11.7078 C13.882,11.7078 14.192,12.0178 14.192,12.4008 C14.192,12.7828 13.882,13.0928 13.5,13.0928 L8.5,13.0928 C8.118,13.0928 7.808,12.7828 7.808,12.4008 C7.808,12.0178 8.118,11.7078 8.5,11.7078 L13.5,11.7078 Z M14.75,4.5836 L14.75,6.4996 C14.75,6.9136 15.086,7.2496 15.5,7.2496 L17.405,7.2496 L14.75,4.5836 Z" id="形状结合"></path>
            </g>
        </g>
    </g>
</svg>