<svg viewBox="0 0 24 24" xmlns="http://www.w3.org/2000/svg"
	xmlns:xlink="http://www.w3.org/1999/xlink">
	<defs>
		<clipPath id="clip191_2736">
			<rect id="Thumbnail" width="24" height="24" fill="white" />
		</clipPath>
	</defs>
	<g clip-path="url(#clip191_2736)">
		<g opacity="0.000000" />
		<path id="矢量 245"
			d="M18.9319 2.33313C18.68 2.27771 18.422 2.25 18.1579 2.25L5.8421 2.25C5.578 2.25 5.32001 2.27771 5.06812 2.33313C4.85562 2.37988 4.64746 2.44641 4.44366 2.53259C4.23926 2.61908 4.04596 2.72241 3.86383 2.84265C3.66302 2.97528 3.47577 3.12842 3.30212 3.30212C3.12842 3.47577 2.97528 3.66302 2.84268 3.86383C2.72241 4.04596 2.61908 4.23926 2.53259 4.44366C2.44641 4.64746 2.37991 4.85559 2.33313 5.06812C2.27771 5.32001 2.25 5.578 2.25 5.8421L2.25 18.1579C2.25 18.422 2.27771 18.68 2.33313 18.9319C2.37991 19.1442 2.44644 19.3527 2.53259 19.5563C2.61908 19.7607 2.72241 19.954 2.84268 20.1362C2.97528 20.337 3.12842 20.5242 3.30212 20.6979C3.47549 20.8713 3.66241 21.0242 3.86282 21.1567C4.04492 21.2769 4.23926 21.3809 4.44366 21.4674C4.64746 21.5536 4.85559 21.6201 5.06805 21.6669C5.31961 21.7221 5.57843 21.75 5.8421 21.75L18.1579 21.75C18.422 21.75 18.68 21.7223 18.9319 21.6669C19.1444 21.6201 19.3525 21.5536 19.5563 21.4674C19.7607 21.3809 19.954 21.2776 20.1362 21.1573C20.337 21.0247 20.5242 20.8716 20.6979 20.6979C20.8716 20.5242 21.0248 20.3369 21.1574 20.136C21.2776 19.954 21.381 19.7607 21.4674 19.5563C21.5536 19.3525 21.6201 19.1444 21.6668 18.9319C21.7223 18.6801 21.75 18.422 21.75 18.1579L21.75 5.8421C21.75 5.57831 21.7224 5.32062 21.6671 5.06903C21.6203 4.85657 21.5536 4.64746 21.4674 4.44366C21.3809 4.23926 21.2776 4.04596 21.1573 3.86383C21.0247 3.66302 20.8716 3.47577 20.6979 3.30212C20.5242 3.12842 20.3369 2.97522 20.1361 2.84265C19.954 2.72241 19.7607 2.61902 19.5563 2.53259C19.3525 2.44641 19.1444 2.37988 18.9319 2.33313ZM9.75 20.25L18.1579 20.25C18.3206 20.25 18.4792 20.2321 18.6335 20.1962C18.7487 20.1694 18.8615 20.1326 18.972 20.0859C19.0866 20.0374 19.1953 19.9798 19.2979 19.913C19.4194 19.8339 19.5325 19.742 19.6372 19.6372C19.742 19.5325 19.8339 19.4193 19.913 19.2979C19.9798 19.1952 20.0374 19.0866 20.0859 18.972C20.1326 18.8615 20.1694 18.7487 20.1962 18.6336C20.2321 18.4792 20.25 18.3206 20.25 18.1579L20.25 5.8421C20.25 5.67963 20.2321 5.52136 20.1964 5.36719C20.1696 5.25201 20.1326 5.13849 20.0859 5.02802C20.0374 4.91345 19.9799 4.80487 19.9131 4.70227C19.834 4.58081 19.742 4.46753 19.6372 4.36279C19.5325 4.258 19.4194 4.16608 19.2979 4.08704C19.1952 4.0202 19.0866 3.96259 18.972 3.91412C18.8615 3.86737 18.7487 3.83063 18.6336 3.80383C18.4792 3.76794 18.3206 3.75 18.1579 3.75L9.75 3.75L9.75 20.25ZM8.25 15.75L8.25 20.25L5.8421 20.25C5.67938 20.25 5.52081 20.2321 5.36642 20.1962C5.25128 20.1694 5.13849 20.1326 5.02802 20.0859C4.91336 20.0374 4.80472 19.9797 4.70203 19.9129C4.58057 19.8339 4.4675 19.7419 4.36276 19.6372C4.25803 19.5325 4.16614 19.4194 4.08707 19.298C4.02023 19.1953 3.96259 19.0866 3.91409 18.972C3.86737 18.8616 3.83063 18.7488 3.80386 18.6337C3.76794 18.4793 3.75 18.3206 3.75 18.1579L3.75 15.75L8.25 15.75ZM8.25 14.25L8.25 9.75L3.75 9.75L3.75 14.25L8.25 14.25ZM8.25 8.25L8.25 3.75L5.8421 3.75C5.67935 3.75 5.52078 3.76794 5.36639 3.80383C5.25128 3.83063 5.13846 3.86737 5.02802 3.91412C4.91336 3.96259 4.80472 4.02026 4.70203 4.0871C4.5806 4.16614 4.46747 4.25806 4.36276 4.36279C4.25803 4.46747 4.16614 4.58057 4.0871 4.70203C4.02026 4.80469 3.96259 4.91339 3.91409 5.02802C3.86737 5.13849 3.83063 5.25128 3.80386 5.36639C3.76794 5.52075 3.75 5.67938 3.75 5.8421L3.75 8.25L8.25 8.25Z"
			fill-rule="evenodd" />
	</g>
</svg>