<svg viewBox="0 0 24 24" xmlns="http://www.w3.org/2000/svg"
	xmlns:xlink="http://www.w3.org/1999/xlink">
	<defs />
	<g opacity="0.000000" />
	<path id="矢量 215"
		d="M17.7508 4.12579C16.0941 2.91394 14.0961 2.25 12 2.25C6.61523 2.25 2.25 6.61523 2.25 12C2.25 17.3848 6.61523 21.75 12 21.75C17.3848 21.75 21.75 17.3848 21.75 12C21.75 9.9032 21.0856 7.90466 19.8731 6.24768C19.6285 5.91345 19.1592 5.84076 18.8249 6.08539C18.4907 6.32996 18.418 6.79926 18.6626 7.13354C19.6886 8.53558 20.25 10.2244 20.25 12C20.25 16.5563 16.5563 20.25 12 20.25C7.44366 20.25 3.75 16.5563 3.75 12C3.75 7.44366 7.44366 3.75 12 3.75C13.775 3.75 15.4634 4.3111 16.8652 5.33649C17.1995 5.58099 17.6688 5.50824 17.9133 5.17389C18.1579 4.8396 18.0851 4.3703 17.7508 4.12579ZM12.7432 6.89825C12.6935 6.53217 12.3797 6.25 12 6.25C11.5858 6.25 11.25 6.58582 11.25 7L11.25 12.3044L11.2574 12.4097C11.282 12.5831 11.3668 12.7438 11.4987 12.8623L14.4987 15.5579L14.5866 15.6259C14.8914 15.8278 15.3062 15.7814 15.5579 15.5013L15.6259 15.4134C15.8278 15.1086 15.7814 14.6938 15.5013 14.4421L12.75 11.97L12.75 7L12.7432 6.89825Z"
		fill-rule="evenodd" />
</svg>