<svg viewBox="0 0 48 48" xmlns="http://www.w3.org/2000/svg" xmlns:xlink="http://www.w3.org/1999/xlink" width="48.000000" height="48.000000">
  <path id="合并" d="M36.1066 8.07848C32.6516 5.44838 28.4341 4 24 4C12.9549 4 4 12.9542 4 24C4 35.0444 12.9556 44 24 44C35.0458 44 44 35.0451 44 24C44 19.5672 42.5532 15.352 39.9238 11.8958C39.4222 11.2365 38.4811 11.1086 37.8218 11.6102C37.1625 12.1118 37.0346 13.0529 37.5362 13.7122C39.7717 16.6507 41 20.2292 41 24C41 33.3883 33.3889 41 24 41C14.6124 41 7 33.3876 7 24C7 14.6111 14.6117 7 24 7C27.7718 7 31.3523 8.22962 34.2894 10.4655C34.9486 10.9673 35.8897 10.8397 36.3915 10.1806C36.8933 9.52142 36.7657 8.58028 36.1066 8.07848ZM25 23.0005L25 15.5C25 14.66 24.34 14 23.5 14C22.66 14 22 14.66 22 15.5L22 24.5005C22 24.9147 22.1464 25.2682 22.4393 25.5611C22.7322 25.854 23.0858 26.0005 23.5 26.0005L32.5 26.0005C33.34 26.0005 34 25.3405 34 24.5005C34 23.6605 33.34 23.0005 32.5 23.0005L25 23.0005Z" fill="var(--tiny-first-color)" fill-rule="evenodd"/>
  <path id="矢量 2009(边框)" d="M25 15.5L25 23.0005L32.5 23.0005C33.34 23.0005 34 23.6605 34 24.5005C34 25.3405 33.34 26.0005 32.5 26.0005L23.5 26.0005C23.0858 26.0005 22.7322 25.854 22.4393 25.5611C22.1464 25.2682 22 24.9147 22 24.5005L22 15.5C22 14.66 22.66 14 23.5 14C24.34 14 25 14.66 25 15.5Z" fill="var(--tiny-second-color)" fill-rule="evenodd"/>
</svg>