<svg viewBox="0 0 24 24" xmlns="http://www.w3.org/2000/svg"
	xmlns:xlink="http://www.w3.org/1999/xlink">
	<defs />
	<g opacity="0.000000" />
	<path id="矢量 214"
		d="M8.89478 3.25C9.91937 3.25 10.75 4.08063 10.75 5.10529L10.75 9.89478C10.75 10.9194 9.91937 11.75 8.89478 11.75L4.10522 11.75C3.08063 11.75 2.25 10.9194 2.25 9.89478L2.25 5.10529C2.25 4.08063 3.08063 3.25 4.10522 3.25L8.89478 3.25ZM4.10522 4.75L8.89478 4.75C9.09094 4.75 9.25 4.90906 9.25 5.10529L9.25 9.89478C9.25 10.0909 9.09094 10.25 8.89478 10.25L4.10522 10.25C3.90906 10.25 3.75 10.0909 3.75 9.89478L3.75 5.10529C3.75 4.90906 3.90906 4.75 4.10522 4.75ZM8.89478 13.25C9.91937 13.25 10.75 14.0806 10.75 15.1053L10.75 19.8948C10.75 20.9194 9.91937 21.75 8.89478 21.75L4.10522 21.75C3.08063 21.75 2.25 20.9194 2.25 19.8948L2.25 15.1053C2.25 14.0806 3.08063 13.25 4.10522 13.25L8.89478 13.25ZM4.10522 14.75L8.89478 14.75C9.09094 14.75 9.25 14.9091 9.25 15.1053L9.25 19.8948C9.25 20.0909 9.09094 20.25 8.89478 20.25L4.10522 20.25C3.90906 20.25 3.75 20.0909 3.75 19.8948L3.75 15.1053C3.75 14.9091 3.90906 14.75 4.10522 14.75ZM12.8969 5.7998L15.7998 2.89691C16.4626 2.23407 17.5374 2.23407 18.2002 2.89691L21.1031 5.7998C21.4345 6.13123 21.6002 6.56561 21.6002 7C21.6002 7.43439 21.4345 7.86877 21.1031 8.20026L18.2002 11.1031C17.5374 11.7659 16.4626 11.7659 15.7998 11.1031L12.8969 8.20026C12.5655 7.86877 12.3998 7.43439 12.3998 7C12.3998 6.56561 12.5655 6.13123 12.8969 5.7998ZM13.9576 6.86047L16.8605 3.95758C16.9375 3.88049 17.0625 3.88049 17.1395 3.95758L20.0424 6.86047C20.0809 6.89899 20.1002 6.94952 20.1002 7C20.1002 7.05054 20.0809 7.10101 20.0424 7.13959L17.1395 10.0424C17.0625 10.1195 16.9375 10.1195 16.8605 10.0424L13.9576 7.13959C13.9191 7.10101 13.8998 7.05054 13.8998 7C13.8998 6.94952 13.9191 6.89899 13.9576 6.86047ZM18.8948 13.25C19.9194 13.25 20.75 14.0806 20.75 15.1053L20.75 19.8948C20.75 20.9194 19.9194 21.75 18.8948 21.75L14.1052 21.75C13.0806 21.75 12.25 20.9194 12.25 19.8948L12.25 15.1053C12.25 14.0806 13.0806 13.25 14.1052 13.25L18.8948 13.25ZM14.1052 14.75L18.8948 14.75C19.0909 14.75 19.25 14.9091 19.25 15.1053L19.25 19.8948C19.25 20.0909 19.0909 20.25 18.8948 20.25L14.1052 20.25C13.9091 20.25 13.75 20.0909 13.75 19.8948L13.75 15.1053C13.75 14.9091 13.9091 14.75 14.1052 14.75Z"
		fill-rule="evenodd" />
</svg>