<svg viewBox="0 0 24 24" xmlns="http://www.w3.org/2000/svg"
	xmlns:xlink="http://www.w3.org/1999/xlink">
	<g clip-path="url(#clip131_1894)">
		<path id="矢量 170"
			d="M11.8698 22.1802C11.6748 22.25 11.4199 22.2668 11.2325 22.1785L3.17993 18.3784C3.04871 18.3164 2.94421 18.2241 2.86652 18.1016C2.78882 17.979 2.75 17.8452 2.75 17.7002L2.75 6.30005C2.75 6.24487 2.75604 6.19019 2.76813 6.13599C2.78027 6.08203 2.7981 6.03003 2.82172 5.97998C2.86591 5.88647 2.9234 5.80737 2.99426 5.74316C3.05353 5.68921 3.12207 5.64575 3.19995 5.61255L11.4572 1.8186C11.5057 1.79639 11.5554 1.77954 11.6063 1.76807C11.6572 1.75659 11.7094 1.75049 11.7628 1.75C11.8694 1.74902 11.9717 1.76978 12.0696 1.81226L20.7994 5.6123C20.9362 5.67188 21.0455 5.76416 21.1273 5.88892C21.2091 6.01367 21.25 6.15088 21.25 6.30005L21.25 17.7C21.25 17.8503 21.2085 17.9885 21.1255 18.114C21.0424 18.2393 20.9317 18.3315 20.7932 18.3904L11.8698 22.1802ZM5.27655 6.30908L11.6695 9.32593L18.6209 6.30005L11.7786 3.32153L5.27655 6.30908ZM9.00537 5.61743L12.1377 4.19238C12.52 4.01855 12.957 4.18237 13.1309 4.56445C13.3049 4.94678 13.1411 5.38379 12.7588 5.55786L9.62646 6.98267C9.2442 7.15674 8.80713 6.99292 8.63324 6.6106C8.45935 6.22827 8.62305 5.79126 9.00537 5.61743ZM14.3721 5.61768L11.2419 7.04272C10.8596 7.2168 10.696 7.65381 10.8701 8.03613C11.0441 8.41846 11.4811 8.58203 11.8634 8.40796L14.9937 6.98291C15.3759 6.80884 15.5395 6.37183 15.3655 5.9895C15.1915 5.60742 14.7544 5.44385 14.3721 5.61768ZM12.3026 10.6863L12.3026 20.3667L19.75 17.2036L19.75 7.44434L12.3026 10.6863ZM18.1184 10.3374L18.1184 16.0374C18.1184 16.4575 17.7884 16.7874 17.3684 16.7874C16.9484 16.7874 16.6184 16.4575 16.6184 16.0374L16.6184 10.3374C16.6184 9.91748 16.9484 9.5874 17.3684 9.5874C17.7884 9.5874 18.1184 9.91748 18.1184 10.3374ZM15.4342 17.4622L15.4342 11.7622C15.4342 11.3423 15.1042 11.0122 14.6842 11.0122C14.2642 11.0122 13.9342 11.3423 13.9342 11.7622L13.9342 17.4622C13.9342 17.8823 14.2642 18.2122 14.6842 18.2122C15.1042 18.2122 15.4342 17.8823 15.4342 17.4622Z"
			fill-opacity="1.000000" fill-rule="evenodd" />
	</g>
</svg>