<svg viewBox="0 0 24 24" xmlns="http://www.w3.org/2000/svg"
	xmlns:xlink="http://www.w3.org/1999/xlink">
	<g clip-path="url(#clip131_1893)">
		<path id="矢量 169"
			d="M8.00031 2L16.0003 2C16.5526 2 17.0003 2.44775 17.0003 3L17.0003 5C17.0003 5.55225 16.5526 6 16.0003 6L14.0003 6L14.0003 7.5L17.4774 7.5C18.3771 7.5 19.1661 8.10083 19.4053 8.96826L22.3019 19.4683C22.6532 20.7417 21.6951 22 20.3739 22L3.62677 22C2.3056 22 1.34741 20.7417 1.69879 19.4683L4.59534 8.96826C4.83459 8.10083 5.6236 7.5 6.52332 7.5L10.0003 7.5L10.0003 6L8.00031 6C7.44806 6 7.00031 5.55225 7.00031 5L7.00031 3C7.00031 2.44775 7.44806 2 8.00031 2ZM5.40942 15.9016C5.30328 16.3794 5.25018 16.8689 5.25018 17.3701C5.25018 17.79 5.5802 18.1201 6.00018 18.1201C6.42023 18.1201 6.75018 17.79 6.75018 17.3701C6.75018 16.9702 6.79346 16.5801 6.88007 16.2C6.94775 15.9028 7.04193 15.6118 7.16248 15.3267C7.28595 15.0349 7.43304 14.7585 7.60376 14.4976C7.80042 14.197 8.0285 13.9172 8.2879 13.6577C8.5473 13.3982 8.82727 13.1702 9.12775 12.9736C9.38855 12.803 9.66516 12.6555 9.95691 12.5322C10.2419 12.4116 10.533 12.3176 10.8301 12.25C11.2103 12.1633 11.6003 12.1201 12.0002 12.1201C12.4001 12.1201 12.7901 12.1633 13.1703 12.25C13.4673 12.3176 13.7584 12.4116 14.0435 12.5322C14.3354 12.6558 14.6118 12.803 14.8727 12.9736C15.1731 13.1702 15.4531 13.3982 15.7125 13.6577C15.9719 13.9172 16.2 14.197 16.3966 14.4976C16.5674 14.7585 16.7145 15.0349 16.838 15.3267C16.9585 15.6116 17.0526 15.9026 17.1202 16.1995C17.2068 16.5796 17.2502 16.9702 17.2502 17.3701C17.2502 17.79 17.5802 18.1201 18.0002 18.1201C18.4202 18.1201 18.7502 17.79 18.7502 17.3701C18.7502 16.8689 18.6971 16.3796 18.5911 15.9023C18.5035 15.5081 18.3795 15.1206 18.2195 14.7424C18.058 14.3608 17.8653 13.9998 17.6411 13.6594C17.3911 13.2798 17.1013 12.925 16.7732 12.5969C16.445 12.2688 16.0911 11.9797 15.7115 11.7297C15.3712 11.5054 15.0095 11.312 14.6279 11.1506C14.2495 10.9907 13.8631 10.8669 13.4686 10.7793C12.991 10.6731 12.5015 10.6201 12.0002 10.6201C11.499 10.6201 11.0096 10.6731 10.532 10.7791C10.1375 10.8667 9.75092 10.9907 9.37256 11.1506C8.99091 11.312 8.62988 11.5049 8.28955 11.7292C7.90985 11.9795 7.55548 12.2688 7.22723 12.5969C6.89886 12.9253 6.60956 13.2795 6.35938 13.6594C6.13531 13.9998 5.94232 14.3608 5.78094 14.7424C5.62091 15.1208 5.49707 15.5073 5.40942 15.9016ZM12.0002 16.3701C12.0352 16.3701 12.0699 16.3713 12.1041 16.3743L13.4402 14.8718C13.7194 14.5581 14.1852 14.5308 14.4991 14.8098C14.8129 15.0889 14.8403 15.5547 14.5612 15.8687L13.2253 17.3706C13.2416 17.4512 13.2502 17.5347 13.2502 17.6201C13.2502 18.3103 12.6906 18.8701 12.0002 18.8701C11.3099 18.8701 10.7502 18.3103 10.7502 17.6201C10.7502 16.9297 11.3099 16.3701 12.0002 16.3701Z"
			fill-opacity="1.000000" fill-rule="evenodd" />
	</g>
</svg>