<?xml version="1.0" encoding="UTF-8"?>
<svg viewBox="0 0 24 24" version="1.1" xmlns="http://www.w3.org/2000/svg" xmlns:xlink="http://www.w3.org/1999/xlink">
    <g id="页面-1" stroke="none" stroke-width="1">
        <g id="画板" transform="translate(-789.000000, -3591.000000)">
            <g id="编组" transform="translate(789.000000, 3591.000000)">
                <path d="M9.126,12.7950245 C10.3684455,12.7950245 11.375,13.8020429 11.375,15.0450245 L11.375,15.0450245 L11.375,18.9200245 C11.375,20.1630061 10.3684455,21.1700245 9.126,21.1700245 L9.126,21.1700245 L5.249,21.1700245 C4.00655453,21.1700245 3,20.1630061 3,18.9200245 L3,18.9200245 L3,15.0450245 C3,13.8020429 4.00655453,12.7950245 5.249,12.7950245 L5.249,12.7950245 Z M18.751,12.7950245 C19.9934455,12.7950245 21,13.8020429 21,15.0450245 L21,15.0450245 L21,18.9200245 C21,20.1630061 19.9934455,21.1700245 18.751,21.1700245 L18.751,21.1700245 L14.874,21.1700245 C13.6315545,21.1700245 12.625,20.1630061 12.625,18.9200245 L12.625,18.9200245 L12.625,15.0450245 C12.625,13.8020429 13.6315545,12.7950245 14.874,12.7950245 L14.874,12.7950245 Z M9.126,14.2950245 L5.249,14.2950245 C4.8351364,14.2950245 4.5,14.6303154 4.5,15.0450245 L4.5,15.0450245 L4.5,18.9200245 C4.5,19.3347337 4.8351364,19.6700245 5.249,19.6700245 L5.249,19.6700245 L9.126,19.6700245 C9.5398636,19.6700245 9.875,19.3347337 9.875,18.9200245 L9.875,18.9200245 L9.875,15.0450245 C9.875,14.6303154 9.5398636,14.2950245 9.126,14.2950245 L9.126,14.2950245 Z M18.751,14.2950245 L14.874,14.2950245 C14.4601364,14.2950245 14.125,14.6303154 14.125,15.0450245 L14.125,15.0450245 L14.125,18.9200245 C14.125,19.3347337 14.4601364,19.6700245 14.874,19.6700245 L14.874,19.6700245 L18.751,19.6700245 C19.1648636,19.6700245 19.5,19.3347337 19.5,18.9200245 L19.5,18.9200245 L19.5,15.0450245 C19.5,14.6303154 19.1648636,14.2950245 18.751,14.2950245 L18.751,14.2950245 Z M18.2745362,3.36986939 L18.4037376,3.48950222 L20.5421519,5.62791632 C20.8351435,5.92071114 20.835303,6.39558484 20.5425082,6.68857643 C20.2763311,6.95493242 19.8596756,6.97927843 19.5659909,6.76152261 L19.4818481,6.68893272 L17.3426699,4.5497546 C17.0762092,4.28329389 16.6601456,4.25907019 16.3665718,4.47699602 L16.2824465,4.54963816 L14.004877,6.8282073 C13.7389655,7.09366505 13.7147917,7.50988632 13.9327836,7.80318322 L14.0054465,7.88721087 L16.2823301,10.1650944 C16.5487908,10.4315551 16.9648544,10.4557788 17.2585156,10.2377655 L17.3426699,10.1650944 L19.4696699,8.03809443 C19.7625631,7.74520121 20.2374369,7.74520121 20.5303301,8.03809443 C20.7965966,8.30436099 20.8208027,8.72102468 20.6029482,9.01463617 L20.5303301,9.0987546 L18.4033301,11.2257546 C17.5662889,12.0627958 16.2349344,12.1026549 15.3507152,11.3452313 L15.2215535,11.2256382 L12.945123,8.9482073 C12.1075065,8.11202018 12.06762,6.77916537 12.8249715,5.8961682 L12.9445535,5.76721087 L15.2216699,3.48909443 C16.0587111,2.65205327 17.3900656,2.61219417 18.2745362,3.36986939 Z M9.126,3.17002452 C10.3684455,3.17002452 11.375,4.1770429 11.375,5.42002452 L11.375,5.42002452 L11.375,9.29502452 C11.375,10.5380061 10.3684455,11.5450245 9.126,11.5450245 L9.126,11.5450245 L5.249,11.5450245 C4.00655453,11.5450245 3,10.5380061 3,9.29502452 L3,9.29502452 L3,5.42002452 C3,4.1770429 4.00655453,3.17002452 5.249,3.17002452 L5.249,3.17002452 Z M9.126,4.67002452 L5.249,4.67002452 C4.8351364,4.67002452 4.5,5.00531536 4.5,5.42002452 L4.5,5.42002452 L4.5,9.29502452 C4.5,9.70973368 4.8351364,10.0450245 5.249,10.0450245 L5.249,10.0450245 L9.126,10.0450245 C9.5398636,10.0450245 9.875,9.70973368 9.875,9.29502452 L9.875,9.29502452 L9.875,5.42002452 C9.875,5.00531536 9.5398636,4.67002452 9.126,4.67002452 L9.126,4.67002452 Z" id="形状结合"></path>
            </g>
        </g>
    </g>
</svg>