<svg viewBox="0 0 24 24" xmlns="http://www.w3.org/2000/svg"
	xmlns:xlink="http://www.w3.org/1999/xlink">
	<g clip-path="url(#clip131_1895)">
		<path id="矢量 171"
			d="M22 4.59106L16.3472 2.49854C15.694 2.25684 15 2.73999 15 3.43652L15 20.5635C15 21.26 15.694 21.7432 16.3472 21.5012L22 19.4089L22 4.59106ZM9.73901 3.30493L13.5 4.23071L13.5 19.7693L9.73901 20.6951C9.10876 20.8501 8.5 20.373 8.5 19.7239L8.5 4.27588C8.5 3.62695 9.10876 3.1499 9.73901 3.30493ZM7 5.0769L3.21057 4.26074C2.58777 4.12646 2 4.60132 2 5.23828L2 18.7617C2 19.3987 2.58777 19.8733 3.21057 19.7393L7 18.9231L7 5.0769Z"
			fill-opacity="1.000000" fill-rule="evenodd" />
	</g>
</svg>