<?xml version="1.0" encoding="UTF-8"?>
<svg viewBox="0 0 24 24" version="1.1" xmlns="http://www.w3.org/2000/svg" xmlns:xlink="http://www.w3.org/1999/xlink">
    <g id="IconTransform">
        <path d="M0.00291621452,11.9902198 C0.00291621452,10.1155101 -0.00364526815,8.24080031 0.00291621452,6.36609056 C-0.000855476148,5.45892021 0.110645142,4.55494629 0.334739841,3.67588209 C0.825913793,1.81523267 2.03791364,0.711028633 3.89668835,0.282657454 C4.82870208,0.0812876465 5.78065248,-0.0130582841 6.73406154,0.00145099589 C10.3291299,0.00145099589 13.9245108,0.00145099589 17.520204,0.00145099589 C18.4282917,-0.00418604411 19.3337475,0.0996722865 20.216974,0.3107781 C22.13199,0.77945554 23.2811871,1.99239274 23.7189318,3.90084726 C23.9157326,4.80281514 24.0097548,5.72416906 23.999201,6.64729701 C23.999201,10.2811094 23.999201,13.9152343 23.999201,17.5496716 C24.0041104,18.4490055 23.9005666,19.345651 23.6908112,20.2201956 C23.2221338,22.1361489 22.0035724,23.2797219 20.0951179,23.7174666 C19.1629846,23.9180743 18.2111214,24.0124116 17.2577447,23.9986731 C13.677674,23.9986731 10.0979157,23.9986731 6.51846992,23.9986731 C5.60344091,24.0061415 4.69081717,23.9038647 3.8001408,23.6940327 C1.8766886,23.2253553 0.721867404,22.006794 0.285060033,20.0889659 C0.0619695745,19.1141168 0.00291621452,18.1364557 0.00291621452,17.1503584 C0.00291621452,15.4306246 0.00291621452,13.7105784 0.00291621452,11.9902198 Z" id="path1" fill-opacity="0" fill="#FFFFFF" fill-rule="nonzero" opacity="0"></path>
        <path d="M2.00242324,11.9918491 C2.00242324,10.4295899 1.99695533,8.86733073 2.00242324,7.30507151 C1.99928016,6.5490957 2.09219741,5.79578357 2.27894312,5.06322957 C2.68825503,3.51268731 3.69825561,2.59251664 5.24723561,2.23554041 C6.02391425,2.06773212 6.8172068,1.98911045 7.61171491,2.00120153 C10.6076073,2.00120153 13.6037601,2.00120153 16.6001732,2.00120153 C17.3569134,1.99650399 18.1114605,2.08305266 18.8474831,2.25897429 C20.4433309,2.6495391 21.4009958,3.6603208 21.7657833,5.25070067 C21.9297841,6.00234109 22.0081359,6.77013656 21.9993411,7.53941038 C21.9993411,10.5675895 21.9993411,13.596029 21.9993411,16.6247288 C22.0034323,17.3741743 21.9171457,18.1213794 21.7423494,18.850167 C21.3517846,20.446796 20.3363161,21.3997741 18.7459363,21.7645616 C17.969158,21.9317348 17.1759381,22.0103492 16.3814569,21.9989005 C13.3980626,21.9989005 10.4149287,21.9989005 7.43205509,21.9989005 C6.66953039,22.0051242 5.90901008,21.9198934 5.16677926,21.7450333 C3.56390131,21.3544685 2.60154965,20.3390001 2.23754325,18.7408089 C2.05163441,17.9284341 2.00242324,17.113716 2.00242324,16.2919676 C2.00242324,14.8588551 2.00242324,13.4254823 2.00242324,11.9918491 Z" id="path2" opacity="0"></path>
        <path d="M15.3965333,8.50069907 C15.6472208,8.21971593 16.0618326,8.17184525 16.3673623,8.37264344 L16.4554757,8.44035853 L21.4993009,12.9403585 C21.9863381,13.3748834 21.7207892,14.1615103 21.1056849,14.2431094 L21,14.2499925 L3,14.2499925 C2.58578644,14.2499925 2.25,13.9142136 2.25,13.5 C2.25,13.1203042 2.53215388,12.806509 2.89822944,12.7568466 L3,12.7499925 L19.033,12.7499925 L15.4568738,9.55964147 C15.1758907,9.30895394 15.12802,8.89434213 15.3288182,8.58881249 L15.3965333,8.50069907 Z"></path>
    </g>
</svg>