<svg viewBox="0 0 24 24" xmlns="http://www.w3.org/2000/svg"
	xmlns:xlink="http://www.w3.org/1999/xlink">
	<defs />
	<g opacity="0.000000" />
	<path id="矢量 227"
		d="M15.4724 3.12421C15.1586 2.44342 14.4749 2 13.7155 2L10.2845 2L10.123 2.00671C9.37595 2.06903 8.72559 2.56 8.46609 3.27362L7.83701 5L4 5L3.89822 5.00684C3.53217 5.05652 3.25 5.3703 3.25 5.75C3.25 6.16418 3.58578 6.5 4 6.5L8.36365 6.5L8.46732 6.4928C8.73947 6.45496 8.97269 6.26978 9.06848 6.00629L9.87576 3.78625C9.95258 3.65399 10.1277 3.5 10.2845 3.5L13.7155 3.5C13.8661 3.52704 14.0706 3.63892 14.1242 3.78625L14.9315 6.00629C15.0601 6.24908 15.356 6.5 15.6364 6.5L20 6.5L20.1018 6.49316C20.4678 6.44348 20.75 6.1297 20.75 5.75L20.7432 5.64825C20.6935 5.28217 20.3797 5 20 5L16.162 5L15.5339 3.27362L15.4724 3.12421ZM6.77826 19.558L5.836 8.25L4.33099 8.25L5.28345 19.6826C5.39261 20.9925 6.48758 22 7.802 22L16.198 22C17.5124 22 18.6074 20.9925 18.7166 19.6826L19.669 8.25L18.163 8.25L17.2217 19.558C17.1774 20.0905 16.7323 20.5 16.198 20.5L7.802 20.5L7.689 20.4938L7.57043 20.4738C7.14413 20.3754 6.81604 20.0112 6.77826 19.558ZM11.5334 10.7245C11.7972 10.9932 11.8176 11.41 11.5971 11.7017L10.7825 12.5138C13.8167 12.3649 15.75 13.7763 15.75 16.25C15.75 16.6642 15.4142 17 15 17C14.5858 17 14.25 16.6642 14.25 16.25C14.25 14.7356 13.0768 13.8715 10.8099 14.0118L11.5255 14.7149C11.7942 14.9787 11.8221 15.3951 11.607 15.6907C11.3431 15.9594 10.8549 16.0721 10.5593 15.857L8.50101 13.8471C8.19421 13.5458 8.16864 13.0681 8.42432 12.7375L10.4727 10.7149C10.7683 10.4247 11.2431 10.429 11.5334 10.7245Z"
		fill-rule="evenodd" />
</svg>