<?xml version="1.0" encoding="UTF-8"?>
<svg viewBox="0 0 24 24" version="1.1" xmlns="http://www.w3.org/2000/svg" xmlns:xlink="http://www.w3.org/1999/xlink">
    <g id="页面-1" stroke="none" stroke-width="1">
        <g id="画板" transform="translate(-319.000000, -3658.000000)">
            <g id="编组" transform="translate(319.000000, 3658.000000)">
                <path d="M13.898,2 C14.8241068,2 15.6490708,2.56522808 15.9879595,3.41434912 L16.045711,3.5768175 L16.55,5.189 L21.25,5.19 C21.6642136,5.19 22,5.52578644 22,5.94 C22,6.31969577 21.7160756,6.63349096 21.35,6.68315338 L21.25,6.69 L16.018126,6.6899744 C15.9779883,6.6909642 15.9381647,6.68869579 15.8989952,6.6833469 L15.8006203,6.66320928 C15.765593,6.65357434 15.7315914,6.64146283 15.6988159,6.62707485 C15.6920013,6.62389782 15.6845119,6.6204723 15.6770813,6.61692557 C15.6529506,6.60556041 15.6301018,6.59310331 15.60801,6.5795336 C15.5965512,6.57240962 15.585029,6.56491919 15.5737133,6.5571141 C15.5580647,6.54632698 15.5428479,6.53491773 15.5280941,6.5229597 C15.5165782,6.51373665 15.5050613,6.50385223 15.4938381,6.4936103 C15.4793239,6.4801644 15.4654186,6.46640563 15.4520652,6.45212442 C15.4418842,6.44153983 15.4311923,6.42939739 15.4208792,6.41688214 C15.4082417,6.40123573 15.3966243,6.3859569 15.385595,6.37023541 C15.377607,6.35906835 15.3699008,6.34738019 15.3625051,6.33543848 C15.3517622,6.31798785 15.3418242,6.30045019 15.3325898,6.28249143 C15.3286276,6.2746608 15.3248744,6.2669999 15.3212429,6.25925371 C15.3069583,6.228239 15.2979291,6.20553264 15.2900069,6.18231361 L15.284289,6.1641825 L14.6142622,4.02509682 C14.5272752,3.74727102 14.2886904,3.54846644 14.0059062,3.50771759 L13.898,3.5 L10.103,3.5 C9.81033552,3.5 9.54945058,3.66761273 9.42618321,3.92493732 L9.38661549,4.02548714 L8.71561549,6.16448714 L8.70999315,6.18231361 L8.69728739,6.21674979 L8.69728739,6.21674979 L8.693,6.224 L8.708,6.182 L8.686,6.24 L8.66743978,6.28235273 L8.66743978,6.28235273 C8.65872959,6.29937316 8.64942732,6.31588278 8.6395336,6.33199005 C8.63145378,6.34532036 8.62309011,6.35807357 8.61437527,6.37051711 L8.58211865,6.4129417 L8.58211865,6.4129417 C8.57301274,6.42442181 8.56346075,6.43548651 8.55361507,6.44623937 L8.5179375,6.48244135 L8.5179375,6.48244135 C8.50477085,6.49521427 8.49029995,6.50800633 8.47538247,6.52020557 C8.46640883,6.5274774 8.4576495,6.53433628 8.44873696,6.54100156 C8.43285945,6.55286216 8.41616413,6.56430123 8.39904708,6.57504582 L8.38079803,6.58626276 L8.38079803,6.58626276 L8.36212632,6.59694171 C8.35024635,6.60332346 8.33860976,6.60933886 8.3268228,6.61504824 C8.30856663,6.62411331 8.28914536,6.63256237 8.26931809,6.64019353 L8.23987516,6.65066043 L8.23987516,6.65066043 C8.22144895,6.65704863 8.20226797,6.66268981 8.18278484,6.66756891 L8.13678099,6.67757384 L8.13678099,6.67757384 C8.12545323,6.67965012 8.11365613,6.68154097 8.10177056,6.68315338 L8.08481454,6.68537757 C8.06598641,6.68753048 8.04701927,6.68897229 8.02795037,6.68968353 L5.327,6.689 L6.54427789,19.15 C6.61614814,19.8687024 7.18787862,20.4230311 7.89407592,20.49 L8.037,20.5 L15.964,20.5 C16.686906,20.5 17.298955,19.9862268 17.4357953,19.29 L17.4567193,19.15 L18.5037193,8.36560043 C18.5449195,7.95344097 18.9124401,7.65271908 19.3245996,7.69391929 C19.7024124,7.73168614 19.9865867,8.04365279 19.9995908,8.41285269 L19.9962807,8.51479957 L18.9492843,19.3 C18.8018966,20.7751583 17.6031836,21.9148018 16.1407122,22 L8.037,22 C6.55501595,22 5.30472019,20.9163049 5.07441161,19.47 L5.05172097,19.3 L3.82,6.689 L2.75,6.69 C2.33578644,6.69 2,6.35421356 2,5.94 C2,5.56030423 2.28392444,5.24650904 2.65,5.19684662 L2.75,5.19 L4.40103182,5.18875074 C4.40910418,5.18768098 4.41722204,5.186737 4.42538359,5.18592097 C4.48366864,5.18009336 4.54106115,5.18110352 4.59676452,5.18829965 L7.449,5.189 L7.95526219,3.57690318 C8.23199279,2.69305953 9.01804905,2.07608 9.93052313,2.00655246 L10.103,2 L13.898,2 Z M11.7488727,9.85573648 L11.7549842,9.95157808 L11.753582,11.2517913 L11.9291987,11.2691353 C14.3028097,11.5419123 15.8303141,12.9665542 16.4166868,15.4394626 L16.473985,15.6990158 L16.5245454,15.9660222 L16.5614135,16.193631 C16.6751259,16.9517138 15.6630705,17.3150242 15.2686767,16.6577012 C14.6537302,15.6327903 13.5979691,15.036536 12.0622125,14.8628902 L11.753582,14.8346042 L11.7549842,16.0786621 C11.7549842,16.5932565 11.2330248,16.906075 10.7955651,16.7299321 L10.7093795,16.688099 L10.6265254,16.6327163 L10.5597909,16.5737274 L7.49622485,13.5101613 C7.24766395,13.2616004 7.22506751,12.8726432 7.42843551,12.5985557 L7.49622485,12.5200308 L10.5597909,9.4564647 C10.9776335,9.03862214 11.6764686,9.29698813 11.7488727,9.85573648 Z M10.3532173,11.6418862 L8.98125748,13.0147928 L10.3532173,14.3867526 L10.3547282,14.1092268 C10.3547282,13.7898447 10.5697823,13.5165008 10.8728964,13.4337892 L10.9663455,13.4148393 L11.0548562,13.4090988 C12.1875857,13.4090988 13.1762063,13.5723447 14.0156152,13.8996812 L14.3024541,14.0212753 L14.1930686,13.8778077 C13.5796888,13.1274436 12.698896,12.7191845 11.5193897,12.6367825 L11.2620548,12.6241066 L11.0548562,12.6210933 C10.7004087,12.6210933 10.4074796,12.3577015 10.3611196,12.0160698 L10.3547283,11.9210967 L10.3532173,11.6418862 Z" id="形状结合"></path>
            </g>
        </g>
    </g>
</svg>