<svg viewBox="0 0 24 24" xmlns="http://www.w3.org/2000/svg"
	xmlns:xlink="http://www.w3.org/1999/xlink">
	<g clip-path="url(#clip131_1878)">
		<path id="矢量 34"
			d="M16 2L6 2C4.34314 2 3 3.34326 3 5L3 19C3 20.6567 4.34314 22 6 22L11.8925 22C9.85962 20.7751 8.5 18.5464 8.5 16C8.5 12.134 11.634 9 15.5 9C16.775 9 17.9703 9.34082 19 9.93652L19 5C19 3.34326 17.6569 2 16 2ZM6 5.25L13.5 5.25C13.92 5.25 14.25 5.58008 14.25 6C14.25 6.41992 13.92 6.75 13.5 6.75L6 6.75C5.57996 6.75 5.25 6.41992 5.25 6C5.25 5.58008 5.57996 5.25 6 5.25ZM6 8.75L8 8.75C8.42004 8.75 8.75 9.08008 8.75 9.5C8.75 9.91992 8.42004 10.25 8 10.25L6 10.25C5.57996 10.25 5.25 9.91992 5.25 9.5C5.25 9.08008 5.57996 8.75 6 8.75ZM10 16C10 12.9624 12.4624 10.5 15.5 10.5C18.5376 10.5 21 12.9624 21 16C21 19.0376 18.5376 21.5 15.5 21.5C12.4624 21.5 10 19.0376 10 16ZM13.6915 14.6604C13.7572 14.5723 13.8297 14.4883 13.9091 14.4089C14.0215 14.2966 14.1429 14.1978 14.2733 14.1128C14.3839 14.041 14.5009 13.9788 14.6244 13.9265C14.7437 13.876 14.8654 13.8364 14.9896 13.8076C15.1553 13.7693 15.3254 13.75 15.5 13.75C15.6746 13.75 15.8447 13.7693 16.0104 13.8076C16.1345 13.8364 16.2563 13.876 16.3756 13.9265C16.499 13.9788 16.6161 14.041 16.7267 14.1128C16.8571 14.1978 16.9785 14.2966 17.0909 14.4089C17.2035 14.5215 17.3021 14.6428 17.3871 14.7734C17.4591 14.8838 17.5212 15.001 17.5735 15.1245C17.6239 15.2437 17.6636 15.3652 17.6924 15.4895C17.7308 15.6553 17.75 15.8254 17.75 16C17.75 16.1746 17.7308 16.3447 17.6924 16.5105C17.6636 16.6348 17.6239 16.7563 17.5735 16.8755C17.5212 16.999 17.4591 17.1162 17.3871 17.2266C17.3021 17.3569 17.2035 17.4785 17.0909 17.5911C16.9785 17.7034 16.8571 17.8022 16.7267 17.8872C16.6161 17.959 16.499 18.0212 16.3756 18.0735C16.2563 18.124 16.1346 18.1636 16.0104 18.1924C15.845 18.2307 15.6743 18.25 15.5 18.25C15.2677 18.25 15.0457 18.2173 14.8337 18.1516C14.6364 18.0906 14.4479 18.001 14.2681 17.8833C13.9169 17.6528 13.46 17.7478 13.2296 18.0989C12.9993 18.4502 13.0942 18.9072 13.4454 19.1375C13.6055 19.2424 13.7716 19.3342 13.9437 19.4128C14.0945 19.4817 14.2501 19.5405 14.4102 19.5889C14.5557 19.6331 14.7029 19.6682 14.8516 19.6943C15.0645 19.7314 15.2806 19.75 15.5 19.75C15.7759 19.75 16.0455 19.7209 16.3087 19.6631C16.5303 19.6143 16.7473 19.5449 16.96 19.4551C17.1732 19.3647 17.3749 19.2568 17.5648 19.1313C17.7741 18.9932 17.9705 18.8328 18.1516 18.6516C18.333 18.4702 18.493 18.2747 18.6315 18.0649C18.757 17.8748 18.8648 17.6731 18.955 17.46C19.0449 17.2473 19.1143 17.0303 19.1631 16.8086C19.221 16.5454 19.25 16.2759 19.25 16C19.25 15.7241 19.221 15.4546 19.1631 15.1914C19.1143 14.9697 19.0449 14.7527 18.955 14.54C18.8648 14.3269 18.757 14.1252 18.6315 13.9351C18.493 13.7253 18.3331 13.5298 18.1516 13.3484C17.9702 13.167 17.7746 13.0071 17.5648 12.8684C17.3748 12.7429 17.1732 12.6353 16.96 12.5449C16.7473 12.4551 16.5303 12.3857 16.3087 12.3369C16.0455 12.2791 15.7759 12.25 15.5 12.25C15.224 12.25 14.9545 12.2791 14.6913 12.3369C14.4697 12.3857 14.2526 12.4551 14.0402 12.5449C13.8268 12.6353 13.6252 12.7429 13.4352 12.8684C13.2255 13.0068 13.0298 13.167 12.8484 13.3484C12.6669 13.5298 12.507 13.7253 12.3685 13.9351C12.243 14.1252 12.1353 14.3269 12.045 14.54C11.9551 14.7527 11.8857 14.9697 11.8369 15.1914C11.779 15.4546 11.75 15.7241 11.75 16C11.75 16.1577 11.7953 16.3013 11.886 16.4307C12.0295 16.6353 12.1884 16.7529 12.3624 16.7834C12.5365 16.814 12.726 16.7576 12.9307 16.614L13.8436 15.9736C14.1875 15.7327 14.2682 15.2729 14.0271 14.9292C13.939 14.8035 13.8217 14.7129 13.6915 14.6604Z"
			fill-opacity="1.000000" fill-rule="evenodd" />
	</g>
</svg>