<svg viewBox="0 0 24 24" xmlns="http://www.w3.org/2000/svg"
	xmlns:xlink="http://www.w3.org/1999/xlink">
	<defs />
	<g opacity="0.000000" />
	<path id="矢量 228"
		d="M18.8101 2.25L5.18997 2.25C4.70148 2.25 4.23175 2.43732 3.8739 2.77332L3.75653 2.89325C3.08865 3.63617 3.07553 4.78619 3.7511 5.54584L8.79901 11.221L8.7999 20.5924C8.7999 20.8113 8.86136 21.0259 8.97757 21.2114C9.31897 21.7561 10.0379 21.916 10.5752 21.5605L14.2595 19.1226L14.3927 19.0262C14.8636 18.6538 15.1413 18.0797 15.1413 17.4692L15.141 11.223L20.2417 5.55396C20.5691 5.18988 20.75 4.71478 20.75 4.22266C20.75 3.13763 19.8861 2.25 18.8101 2.25ZM18.8101 3.75L5.18997 3.75C5.08429 3.75 4.98135 3.79108 4.9006 3.86682C4.71198 4.04395 4.69839 4.35382 4.87195 4.54895L10.1103 10.439C10.2324 10.5763 10.2999 10.7537 10.2999 10.9374L10.299 19.944L13.4318 17.8717C13.535 17.8034 13.6072 17.6926 13.6319 17.5664L13.6413 10.9374C13.6413 10.7522 13.7098 10.5735 13.8337 10.4359L19.1263 4.5509C19.2053 4.46313 19.25 4.34564 19.25 4.22266C19.25 3.95715 19.0484 3.75 18.8101 3.75Z"
		fill-rule="evenodd" />
</svg>