<svg viewBox="0 0 24 24" xmlns="http://www.w3.org/2000/svg"
	xmlns:xlink="http://www.w3.org/1999/xlink">
	<defs />
	<g opacity="0.000000" />
	<path id="矢量 232"
		d="M5.40204 2.25L18.598 2.25C20.3388 2.25 21.75 3.66119 21.75 5.40204L21.75 18.598C21.75 20.3388 20.3388 21.75 18.598 21.75L5.40204 21.75C3.66122 21.75 2.25 20.3388 2.25 18.598L2.25 5.40204C2.25 3.66119 3.66122 2.25 5.40204 2.25ZM18.598 3.75L5.40204 3.75C4.48965 3.75 3.75 4.48962 3.75 5.40204L3.75 6.25L20.25 6.25L20.25 5.40204C20.25 4.48962 19.5103 3.75 18.598 3.75ZM3.75 7.75L3.75 18.598C3.75 19.5104 4.48965 20.25 5.40204 20.25L18.598 20.25C19.5103 20.25 20.25 19.5104 20.25 18.598L20.25 7.75L3.75 7.75ZM6.83334 11.25L8.16666 11.25C8.35077 11.25 8.5 11.3992 8.5 11.5833L8.5 12.9167C8.5 13.1008 8.35077 13.25 8.16666 13.25L6.83334 13.25C6.64923 13.25 6.5 13.1008 6.5 12.9167L6.5 11.5833C6.5 11.3992 6.64923 11.25 6.83334 11.25ZM11.3333 11.25L12.6667 11.25C12.8508 11.25 13 11.3992 13 11.5833L13 12.9167C13 13.1008 12.8508 13.25 12.6667 13.25L11.3333 13.25C11.1492 13.25 11 13.1008 11 12.9167L11 11.5833C11 11.3992 11.1492 11.25 11.3333 11.25ZM15.8333 11.25L17.1667 11.25C17.3508 11.25 17.5 11.3992 17.5 11.5833L17.5 12.9167C17.5 13.1008 17.3508 13.25 17.1667 13.25L15.8333 13.25C15.6492 13.25 15.5 13.1008 15.5 12.9167L15.5 11.5833C15.5 11.3992 15.6492 11.25 15.8333 11.25ZM6.83334 15.25L8.16666 15.25C8.35077 15.25 8.5 15.3992 8.5 15.5833L8.5 16.9167C8.5 17.1008 8.35077 17.25 8.16666 17.25L6.83334 17.25C6.64923 17.25 6.5 17.1008 6.5 16.9167L6.5 15.5833C6.5 15.3992 6.64923 15.25 6.83334 15.25ZM11.3333 15.25L12.6667 15.25C12.8508 15.25 13 15.3992 13 15.5833L13 16.9167C13 17.1008 12.8508 17.25 12.6667 17.25L11.3333 17.25C11.1492 17.25 11 17.1008 11 16.9167L11 15.5833C11 15.3992 11.1492 15.25 11.3333 15.25ZM15.8333 15.25L17.1667 15.25C17.3508 15.25 17.5 15.3992 17.5 15.5833L17.5 16.9167C17.5 17.1008 17.3508 17.25 17.1667 17.25L15.8333 17.25C15.6492 17.25 15.5 17.1008 15.5 16.9167L15.5 15.5833C15.5 15.3992 15.6492 15.25 15.8333 15.25Z"
		fill-rule="evenodd" />
</svg>