<?xml version="1.0" encoding="UTF-8"?>
<svg viewBox="0 0 24 24" version="1.1" xmlns="http://www.w3.org/2000/svg" xmlns:xlink="http://www.w3.org/1999/xlink">
    <g id="S12组件" stroke="none" stroke-width="1">
        <g id="Unfreeze">
            <g id="编组备份" transform="translate(3.000000, 3.000000)">
                <path d="M15,0 C16.6568542,0 18,1.34314575 18,3 C18,3.41421356 17.6642136,3.75 17.25,3.75 C16.8703042,3.75 16.556509,3.46784612 16.5068466,3.10177056 L16.5,3 C16.5,2.22030388 15.9051119,1.57955132 15.14446,1.50686658 L15,1.5 L3,1.5 C2.22030388,1.5 1.57955132,2.09488808 1.50686658,2.85553999 L1.5,3 L1.49963499,5.54280555 C1.54714908,5.52598392 1.59686311,5.51381506 1.64822944,5.50684662 L1.75,5.5 L14.75,5.5 C15.1642136,5.5 15.5,5.83578644 15.5,6.25 C15.5,6.62969577 15.2178461,6.94349096 14.8517706,6.99315338 L14.75,7 L1.75,7 C1.66220473,7 1.57793285,6.9849146 1.499635,6.95719446 L1.5,15 C1.5,15.7796961 2.09488808,16.4204487 2.85553999,16.4931334 L3,16.5 L15,16.5 C15.7796961,16.5 16.4204487,15.9051119 16.4931334,15.14446 L16.5,15 L16.5,5.5 C16.5,5.08578644 16.8357864,4.75 17.25,4.75 C17.6296958,4.75 17.943491,5.03215388 17.9931534,5.39822944 L18,5.5 L18,15 C18,16.5976809 16.75108,17.9036609 15.1762728,17.9949073 L15,18 L3,18 C1.40231912,18 0.09633912,16.75108 0.00509269,15.1762728 L0,15 L0,3 C0,1.40231912 1.24891996,0.09633912 2.82372721,0.00509269 L3,0 L15,0 Z M13.43125,13.3545 C13.70725,13.3545 13.93125,13.5785 13.93125,13.8545 L13.93125,14.8545 C13.93125,15.1295 13.70725,15.3545 13.43125,15.3545 L12.43125,15.3545 C12.15525,15.3545 11.93125,15.1295 11.93125,14.8545 L11.93125,13.8545 C11.93125,13.5785 12.15525,13.3545 12.43125,13.3545 L13.43125,13.3545 Z M8.93125,13.3545 C9.20725,13.3545 9.43125,13.5785 9.43125,13.8545 L9.43125,14.8545 C9.43125,15.1295 9.20725,15.3545 8.93125,15.3545 L7.93125,15.3545 C7.65525,15.3545 7.43125,15.1295 7.43125,14.8545 L7.43125,13.8545 C7.43125,13.5785 7.65525,13.3545 7.93125,13.3545 L8.93125,13.3545 Z M4.93125,13.3545 C5.20725,13.3545 5.43125,13.5785 5.43125,13.8545 L5.43125,14.8545 C5.43125,15.1295 5.20725,15.3545 4.93125,15.3545 L3.93125,15.3545 C3.65525,15.3545 3.43125,15.1295 3.43125,14.8545 L3.43125,13.8545 C3.43125,13.5785 3.65525,13.3545 3.93125,13.3545 L4.93125,13.3545 Z M13.43125,9.3545 C13.70725,9.3545 13.93125,9.5785 13.93125,9.8535 L13.93125,10.8545 C13.93125,11.1295 13.70725,11.3545 13.43125,11.3545 L12.43125,11.3545 C12.15525,11.3545 11.93125,11.1295 11.93125,10.8545 L11.93125,9.8535 C11.93125,9.5785 12.15525,9.3545 12.43125,9.3545 L13.43125,9.3545 Z M4.93125,9.3545 C5.20725,9.3545 5.43125,9.5785 5.43125,9.8545 L5.43125,10.8545 C5.43125,11.1295 5.20725,11.3545 4.93125,11.3545 L3.93125,11.3545 C3.65525,11.3545 3.43125,11.1295 3.43125,10.8545 L3.43125,9.8545 C3.43125,9.5785 3.65525,9.3545 3.93125,9.3545 L4.93125,9.3545 Z M8.93125,9.3545 C9.20725,9.3545 9.43125,9.5785 9.43125,9.8545 L9.43125,10.8545 C9.43125,11.1295 9.20725,11.3545 8.93125,11.3545 L7.93125,11.3545 C7.65525,11.3545 7.43125,11.1295 7.43125,10.8545 L7.43125,9.8545 C7.43125,9.5785 7.65525,9.3545 7.93125,9.3545 L8.93125,9.3545 Z" id="形状结合"></path>
            </g>
        </g>
    </g>
</svg>