<svg viewBox="0 0 24 24" xmlns="http://www.w3.org/2000/svg"
	xmlns:xlink="http://www.w3.org/1999/xlink">
	<defs />
	<g opacity="0.000000" />
	<path id="矢量 3"
		d="M12 1.25C6.06293 1.25 1.25 6.06293 1.25 12C1.25 17.9371 6.06293 22.75 12 22.75C17.9371 22.75 22.75 17.9371 22.75 12C22.75 6.06293 17.9371 1.25 12 1.25ZM12 5.25C14.0773 5.25 15.75 6.98468 15.75 9.11108C15.75 10.0668 15.4105 10.9711 14.8059 11.6729C14.4226 12.1177 13.7662 12.5969 12.8196 13.1415L12.75 13.262L12.75 14.8889C12.75 15.3031 12.4142 15.6389 12 15.6389C11.6203 15.6389 11.3065 15.3568 11.2568 14.9907L11.25 14.8889L11.25 13.262C11.25 12.6756 11.5632 12.1339 12.0715 11.8414C12.8834 11.3743 13.4219 10.9813 13.6696 10.6937C14.0408 10.2629 14.25 9.70557 14.25 9.11108C14.25 7.80115 13.2365 6.75 12 6.75C10.7635 6.75 9.75 7.80115 9.75 9.11108C9.75 9.52533 9.41418 9.86108 9 9.86108C8.58582 9.86108 8.25 9.52533 8.25 9.11108C8.25 6.98468 9.92273 5.25 12 5.25ZM11 18C11 17.4477 11.4478 17 12 17C12.5522 17 13 17.4477 13 18C13 18.5523 12.5522 19 12 19C11.4478 19 11 18.5523 11 18Z"
		fill-rule="evenodd" />
</svg>