<svg viewBox="0 0 24 24" xmlns="http://www.w3.org/2000/svg"
	xmlns:xlink="http://www.w3.org/1999/xlink">
	<defs />
	<g opacity="0.000000" />
	<path id="矢量 4"
		d="M13.1504 7.30066C13.0381 4.49426 10.7561 2.25 7.95239 2.25C5.07672 2.25 2.75 4.61084 2.75 7.51764L2.75 9.40002L2.75684 9.50177C2.80652 9.86786 3.1203 10.15 3.5 10.15C3.91422 10.15 4.25 9.81421 4.25 9.40002L4.25 7.51764L4.25513 7.31732C4.35751 5.32751 5.97595 3.75 7.95239 3.75C9.99469 3.75 11.6548 5.43439 11.6548 7.51764L11.654 9.849L8.36465 9.84998C6.6192 9.84998 5.17856 11.1679 5.17856 12.8286L5.17856 18.7714C5.17856 20.4321 6.6192 21.75 8.36465 21.75L18.0639 21.75C19.8094 21.75 21.25 20.4321 21.25 18.7714L21.25 12.8286L21.2445 12.652C21.1467 11.0754 19.747 9.84998 18.0639 9.84998L13.154 9.849L13.1548 7.51764L13.1504 7.30066ZM18.0639 11.35L8.36465 11.35C7.41928 11.35 6.67856 12.0276 6.67856 12.8286L6.67856 18.7714C6.67856 19.5724 7.41928 20.25 8.36465 20.25L18.0639 20.25C19.0093 20.25 19.75 19.5724 19.75 18.7714L19.75 12.8286C19.75 12.0276 19.0093 11.35 18.0639 11.35ZM13.9548 12.8983C13.9052 12.5322 13.5914 12.25 13.2117 12.25C12.7975 12.25 12.4617 12.5858 12.4617 13L12.4617 16.4832C12.0397 16.7495 11.7566 17.2176 11.7501 17.7499C11.74 18.5853 12.4144 19.2599 13.2499 19.2499C14.0712 19.2401 14.7399 18.5714 14.7499 17.7501C14.7569 17.1725 14.4367 16.6719 13.9624 16.4211L13.9617 13L13.9548 12.8983Z"
		fill-rule="evenodd" />
</svg>