<svg viewBox="0 0 24 24" xmlns="http://www.w3.org/2000/svg"
	xmlns:xlink="http://www.w3.org/1999/xlink">
	<defs />
	<g opacity="0.000000" />
	<path id="矢量 1"
		d="M17.5115 2.25L4.48846 2.25C2.69891 2.25 1.25 3.7074 1.25 5.50305L1.25 16.4969C1.25 18.2926 2.69891 19.75 4.48846 19.75L10.3217 19.75C10.0011 19.2852 9.7316 18.7824 9.5213 18.25L4.48846 18.25C3.52933 18.25 2.75 17.4661 2.75 16.4969L2.75 5.50305C2.75 4.53387 3.52933 3.75 4.48846 3.75L17.5115 3.75C18.4707 3.75 19.25 4.53387 19.25 5.50305L19.25 8.5213C19.7824 8.73157 20.2852 9.0011 20.75 9.32172L20.75 5.50305C20.75 3.7074 19.3011 2.25 17.5115 2.25ZM16.1277 5.34894C16.4873 5.14337 16.9455 5.26819 17.1511 5.62775C17.3396 5.9574 17.2504 6.36981 16.9572 6.59467L11.9821 9.44489C11.4431 9.80804 10.7431 9.84796 10.2088 9.58319L10.0789 9.51068L5.15723 6.98151C4.78882 6.79224 4.64362 6.34009 4.83295 5.97168C5.0065 5.63391 5.40088 5.48383 5.74918 5.60693L10.817 8.20624C10.895 8.25464 10.9973 8.2627 11.1072 8.21667L16.1277 5.34894ZM16.5 9.25C13.0482 9.25 10.25 12.0482 10.25 15.5C10.25 18.9518 13.0482 21.75 16.5 21.75C19.9518 21.75 22.75 18.9518 22.75 15.5C22.75 12.0482 19.9518 9.25 16.5 9.25ZM16.5 10.75C19.1234 10.75 21.25 12.8766 21.25 15.5C21.25 18.1234 19.1234 20.25 16.5 20.25C13.8766 20.25 11.75 18.1234 11.75 15.5C11.75 12.8766 13.8766 10.75 16.5 10.75ZM13.9697 12.9697C14.2359 12.7034 14.6526 12.6792 14.9462 12.897L16.5 14.4393L17.9697 12.9697C18.2626 12.6768 18.7375 12.6768 19.0303 12.9697C19.2966 13.236 19.3208 13.6526 19.103 13.9462L17.5607 15.5L19.0303 16.9697C19.3232 17.2626 19.3232 17.7374 19.0303 18.0303C18.7641 18.2966 18.3474 18.3208 18.0538 18.103L16.5 16.5607L15.0303 18.0303C14.7375 18.3232 14.2626 18.3232 13.9697 18.0303C13.7034 17.7641 13.6792 17.3474 13.8971 17.0538L15.4393 15.5L13.9697 14.0303C13.6768 13.7374 13.6768 13.2626 13.9697 12.9697Z"
		fill-rule="evenodd" />
</svg>