<?xml version="1.0" encoding="UTF-8"?>
<svg viewBox="0 0 24 24" version="1.1" xmlns="http://www.w3.org/2000/svg" xmlns:xlink="http://www.w3.org/1999/xlink">
    <g id="S12组件" stroke="none" stroke-width="1">
        <g id="Unsent">
            <g id="编组备份" transform="translate(2.000000, 3.000000)">
                <path d="M16.992,0.915 C17.8091674,0.915 18.5498835,1.24149166 19.0908541,1.77118078 C19.0957726,1.77533758 19.1005753,1.78001515 19.1053301,1.78476991 C19.6166865,2.29585327 19.9429297,2.9793268 19.9869086,3.73869141 L19.992,3.915 L19.992,9.394 C19.992,9.8082136 19.6562136,10.144 19.242,10.144 C18.8623042,10.144 18.548509,9.8618461 18.4988466,9.4957706 L18.492,9.394 L18.492,3.915 C18.492,3.775913 18.4730962,3.64126382 18.4377164,3.51348013 L11.5873301,10.3634301 C10.7502889,11.2004712 9.4180273,11.2403303 8.5338223,10.4830074 L8.4046699,10.3634301 L2.96566991,4.92443009 C2.6727767,4.63153687 2.6727767,4.15666313 2.96566991,3.86376991 C3.23193648,3.59750335 3.64860016,3.5732973 3.94221165,3.79115176 L4.02633009,3.86376991 L9.4653301,9.3027699 C9.7317908,9.5692306 10.1486808,9.5934543 10.4424923,9.375441 L10.5266699,9.3027699 L17.365749,2.46188241 C17.2914122,2.44283708 17.2148456,2.42934159 17.1365162,2.42186307 L16.992,2.415 L3,2.415 C2.21996571,2.415 1.57951154,3.0095698 1.50686307,3.77048382 L1.5,3.915 L1.5,14.085 C1.5,14.8650343 2.0945698,15.5054885 2.85548382,15.5781369 L3,15.585 L10.496,15.585 C10.9102136,15.585 11.246,15.9207864 11.246,16.335 C11.246,16.7146958 10.9638461,17.028491 10.5977706,17.0781534 L10.496,17.085 L3,17.085 C1.40197264,17.085 0.09631437,15.8364141 0.00509137,14.2613086 L0,14.085 L0,3.915 C0,2.31697264 1.24858586,1.01131437 2.82369141,0.92009137 L3,0.915 L16.992,0.915 Z M17.8037883,10.8970518 C18.0973998,10.6791973 18.5140635,10.7034033 18.7803301,10.9696699 C19.0732233,11.2625631 19.0732233,11.7374369 18.7803301,12.0303301 L18.7803301,12.0303301 L16.936,13.875 L18.7803301,15.7196699 C19.0732233,16.0125631 19.0732233,16.4874369 18.7803301,16.7803301 C18.5140635,17.0465966 18.0973998,17.0708027 17.8037883,16.8529482 L17.7196699,16.7803301 L15.875,14.936 L14.0303301,16.7803301 L13.9462117,16.8529482 C13.6526002,17.0708027 13.2359365,17.0465966 12.9696699,16.7803301 C12.6767767,16.4874369 12.6767767,16.0125631 12.9696699,15.7196699 L12.9696699,15.7196699 L14.814,13.875 L12.9696699,12.0303301 C12.6767767,11.7374369 12.6767767,11.2625631 12.9696699,10.9696699 C13.2359365,10.7034034 13.6526002,10.6791973 13.9462117,10.8970518 L14.0303301,10.9696699 L15.875,12.814 L17.7196699,10.9696699 Z" id="形状结合"></path>
            </g>
        </g>
    </g>
</svg>