<svg viewBox="0 0 24 24" xmlns="http://www.w3.org/2000/svg"
	xmlns:xlink="http://www.w3.org/1999/xlink">
	<defs />
	<g opacity="0.000000" />
	<path id="矢量 114"
		d="M3.28979 9.15839L10.9062 2.17725C11.5277 1.60757 12.4723 1.60757 13.0938 2.17725L20.7102 9.15839C21.3741 9.76697 21.4333 10.8046 20.8448 11.4873C20.5354 11.8463 20.0881 12.0534 19.6164 12.0534L16.024 12.053L16.0252 17.5889C16.0252 18.4532 15.3735 19.1707 14.5333 19.2439L14.3916 19.25L9.53186 19.25C8.62439 19.25 7.89825 18.5012 7.89825 17.5889L7.89697 12.053L4.38361 12.0534C3.52393 12.0534 2.82697 11.3813 2.75598 10.5349L2.75 10.3923C2.75 9.92276 2.94543 9.47403 3.28979 9.15839ZM12.0803 3.28302L19.6967 10.2642C19.7621 10.3242 19.6763 10.4839 19.6164 10.5534L15.2748 10.5533C14.8605 10.5533 14.5247 10.8892 14.5248 11.3034L14.5252 17.5889C14.5252 17.6829 14.4601 17.75 14.3916 17.75L9.53186 17.75C9.46332 17.75 9.39825 17.6829 9.39825 17.5889L9.39783 11.3033C9.39777 10.8891 9.06201 10.5533 8.64783 10.5533L4.38361 10.5534C4.31506 10.5534 4.25 10.4863 4.25 10.3923C4.25 10.3412 4.27045 10.2943 4.30334 10.2642L11.9197 3.28302C11.9678 3.23898 12.0322 3.23898 12.0803 3.28302ZM16.25 21.5C16.25 21.0858 15.9142 20.75 15.5 20.75L8.5 20.75L8.39825 20.7568C8.03217 20.8065 7.75 21.1203 7.75 21.5C7.75 21.9142 8.08582 22.25 8.5 22.25L15.5 22.25L15.6017 22.2432C15.9678 22.1935 16.25 21.8797 16.25 21.5Z"
		fill-rule="evenodd" />
</svg>