<?xml version="1.0" encoding="UTF-8"?>
<svg viewBox="0 0 24 24" version="1.1" xmlns="http://www.w3.org/2000/svg" xmlns:xlink="http://www.w3.org/1999/xlink">
    <g id="0922-图标" stroke="none" stroke-width="1" fill-rule="evenodd">
        <g id="编组" transform="translate(0.000000, 0.000000)" fill-rule="nonzero">
            <g>
                <path d="M0.00291621452,11.9902198 C0.00291621452,10.1155101 -0.00364526815,8.24080031 0.00291621452,6.36609056 C-0.000855476148,5.45892021 0.110645142,4.55494629 0.334739841,3.67588209 C0.825913793,1.81523267 2.03791364,0.711028633 3.89668835,0.282657454 C4.82870208,0.0812876465 5.78065248,-0.0130582841 6.73406154,0.00145099589 C10.3291299,0.00145099589 13.9245108,0.00145099589 17.520204,0.00145099589 C18.4282917,-0.00418604411 19.3337475,0.0996722865 20.216974,0.3107781 C22.13199,0.77945554 23.2811871,1.99239274 23.7189318,3.90084726 C23.9157326,4.80281514 24.0097548,5.72416906 23.999201,6.64729701 C23.999201,10.2811094 23.999201,13.9152343 23.999201,17.5496716 C24.0041104,18.4490055 23.9005666,19.345651 23.6908112,20.2201956 C23.2221338,22.1361489 22.0035724,23.2797219 20.0951179,23.7174666 C19.1629846,23.9180743 18.2111214,24.0124116 17.2577447,23.9986731 C13.677674,23.9986731 10.0979157,23.9986731 6.51846992,23.9986731 C5.60344091,24.0061415 4.69081717,23.9038647 3.8001408,23.6940327 C1.8766886,23.2253553 0.721867404,22.006794 0.285060033,20.0889659 C0.0619695745,19.1141168 0.00291621452,18.1364557 0.00291621452,17.1503584 C0.00291621452,15.4306246 0.00291621452,13.7105784 0.00291621452,11.9902198 Z" id="path1" fill-opacity="0" fill="#FFFFFF"></path>
                <path d="M15.5,20.75 C15.9142136,20.75 16.25,21.0857864 16.25,21.5 C16.25,21.8796958 15.9678461,22.193491 15.6017706,22.2431534 L15.5,22.25 L8.5,22.25 C8.08578644,22.25 7.75,21.9142136 7.75,21.5 C7.75,21.1203042 8.03215388,20.806509 8.39822944,20.7568466 L8.5,20.75 L15.5,20.75 Z M10.9061966,2.17725702 C11.5277123,1.60758099 12.4722782,1.60758099 13.0937939,2.17725702 L13.0937939,2.17725702 L20.7101954,9.15838698 C21.3741472,9.76695958 21.433341,10.8046153 20.8448732,11.4872741 C20.5354287,11.8462487 20.0880925,12.0533928 19.6163898,12.0533928 L19.6163898,12.0533928 L16.024,12.053 L16.025209,17.5888686 C16.025209,18.4532041 15.3734875,19.1707282 14.5333103,19.2438628 L14.5333103,19.2438628 L14.3916153,19.25 L9.53184994,19.25 C8.62440276,19.25 7.89825624,18.5012227 7.89825624,17.588921 L7.89825624,17.588921 L7.897,12.053 L4.3835937,12.0533928 C3.5239069,12.0533928 2.82693869,11.38136 2.75595502,10.5348726 L2.75595502,10.5348726 L2.75,10.3922614 C2.75,9.9227708 2.94542028,9.474038 3.28979507,9.15838701 L3.28979507,9.15838701 Z M12.0802521,3.28302959 C12.0322051,3.23899014 11.9677854,3.23899014 11.9197385,3.28302957 L11.9197385,3.28302957 L4.30333688,10.2641596 C4.27043779,10.2943146 4.25,10.3412448 4.25,10.3922614 C4.25,10.4863152 4.31505023,10.5533928 4.38358648,10.5533928 L4.38358648,10.5533928 L8.64780966,10.5533517 C9.06200556,10.5533478 9.39778792,10.8891034 9.39781687,11.3032993 L9.39781687,11.3032993 L9.39825624,17.5888686 C9.39825624,17.6829224 9.46330647,17.75 9.53184994,17.75 L9.53184994,17.75 L14.3916153,17.75 C14.4601588,17.75 14.525209,17.6829224 14.525209,17.588921 L14.525209,17.588921 L14.5247696,11.3034042 C14.5247407,10.8891674 14.8605399,10.5533478 15.2747767,10.5533517 L15.2747767,10.5533517 L19.6163969,10.5533928 C19.6494767,10.5533928 19.6828227,10.5379515 19.7087327,10.5078943 C19.7686779,10.4383542 19.7621664,10.324208 19.6966536,10.2641595 L19.6966536,10.2641595 Z" id="形状结合"></path>
            </g>
        </g>
    </g>
</svg>