<svg viewBox="0 0 24 24" xmlns="http://www.w3.org/2000/svg"
	xmlns:xlink="http://www.w3.org/1999/xlink">
	<defs />
	<g opacity="0.000000" />
	<path id="矢量 96"
		d="M18.0545 8.25449C17.7759 8.561 17.3015 8.58359 16.9951 8.30496L12.7495 4.44653L12.7495 17.75L12.7427 17.8518C12.693 18.2178 12.3792 18.5 11.9995 18.5C11.5853 18.5 11.2495 18.1642 11.2495 17.75L11.2495 4.44498L7.00406 8.30496L6.91656 8.37347C6.61295 8.57712 6.19791 8.53314 5.94458 8.25449C5.66595 7.948 5.68854 7.47366 5.99506 7.19504L11.4951 2.19504L11.5851 2.12482C11.867 1.93759 12.2466 1.961 12.5041 2.19504L18.0041 7.19504L18.0806 7.2756C18.3122 7.55853 18.3078 7.97586 18.0545 8.25449ZM21 15.5C21.3797 15.5 21.6935 15.7822 21.7432 16.1482L21.75 16.25L21.75 18.75C21.75 20.4877 20.3594 21.8996 18.6166 21.9949L18.4286 22L5.57144 22C3.80481 22 2.35327 20.648 2.25528 18.9349L2.25 18.75L2.25 16.25C2.25 15.8358 2.58578 15.5 3 15.5C3.3797 15.5 3.69348 15.7822 3.74316 16.1482L3.75 16.25L3.75 18.75C3.75 19.6636 4.48178 20.4207 5.42142 20.4942L5.57144 20.5L18.4286 20.5C19.3886 20.5 20.1684 19.7885 20.244 18.8929L20.25 18.75L20.25 16.25C20.25 15.8358 20.5858 15.5 21 15.5Z"
		fill-rule="evenodd" />
</svg>