<?xml version="1.0" encoding="UTF-8"?>
<svg viewBox="0 0 24 24" version="1.1" xmlns="http://www.w3.org/2000/svg" xmlns:xlink="http://www.w3.org/1999/xlink">
    <g id="页面-1" stroke="none" stroke-width="1">
        <g id="画板" transform="translate(-319.000000, -3792.000000)">
            <g id="编组" transform="translate(319.000000, 3792.000000)">
                <path d="M20,16.2498908 C20.3796958,16.2498908 20.693491,16.5320447 20.7431534,16.8981203 L20.75,16.9998908 L20.75,18.7498908 C20.75,20.3479182 19.5014141,21.6535765 17.9263086,21.7447995 L17.75,21.7498908 L6.25,21.7498908 C4.65265354,21.7498908 3.34636301,20.5010318 3.25509397,18.9261701 L3.25,18.7498908 L3.25,16.9998908 C3.25,16.5856773 3.58578644,16.2498908 4,16.2498908 C4.37969577,16.2498908 4.69349096,16.5320447 4.74315338,16.8981203 L4.75,16.9998908 L4.75,18.7498908 C4.75,19.5295516 5.345104,20.1703353 6.10557809,20.2430239 L6.25,20.2498908 L17.75,20.2498908 C18.5300343,20.2498908 19.1704885,19.655321 19.2431369,18.894407 L19.25,18.7498908 L19.25,16.9998908 C19.25,16.5856773 19.5857864,16.2498908 20,16.2498908 Z M13.4623628,2.78987316 L13.5913301,2.90946074 L18.5303301,7.84846074 C18.8232233,8.14135396 18.8232233,8.61622769 18.5303301,8.90912091 C18.2640635,9.17538747 17.8473998,9.19959353 17.5537883,8.98173906 L17.4696699,8.90912091 L12.75,4.18910917 L12.75,17.0750908 C12.75,17.4893044 12.4142136,17.8250908 12,17.8250908 C11.6203042,17.8250908 11.306509,17.5429369 11.2568466,17.1768614 L11.25,17.0750908 L11.25,4.18910917 L6.53033009,8.90912091 C6.23743687,9.20201413 5.76256313,9.20201413 5.46966991,8.90912091 C5.20340335,8.64285435 5.1791973,8.22619067 5.39705176,7.93257917 L5.46966991,7.84846074 L10.4086699,2.90946074 C10.846709,2.47142165 11.4206633,2.25168184 11.9948789,2.25024132 L11.9939143,2.250115 C12.518016,2.24892894 13.0413699,2.42880622 13.4623628,2.78987316 Z" id="形状结合"></path>
            </g>
        </g>
    </g>
</svg>