<svg viewBox="0 0 24 24" xmlns="http://www.w3.org/2000/svg"
	xmlns:xlink="http://www.w3.org/1999/xlink">
	<defs />
	<g opacity="0.000000" />
	<path id="矢量 5"
		d="M11.7526 2.25421C8.66904 2.36115 7.12375 4.48767 7.12375 7.75305L7.12598 7.91602C6.76584 8.47552 6.64926 9.32507 6.89877 10.0481L6.96301 10.2166C7.17087 10.713 7.51251 11.1257 7.92825 11.381L8.05298 11.451L8.20883 11.7084C8.26019 11.7885 8.3132 11.867 8.36792 11.9436L8.47369 12.085C9.03601 12.8459 9.06085 13.1229 8.71722 13.3281L8.58774 13.3959L8.45859 13.4554L8.24307 13.5468L8.06714 13.6172L7.02917 14.0099L6.43033 14.2426L5.80209 14.5056L5.55545 14.6166C5.46338 14.659 5.37921 14.6987 5.29669 14.7388L5.05316 14.8604C3.27927 15.7727 2.25592 16.8759 2.26035 18.3838L2.25006 19.2635L2.25092 19.5244L2.25952 19.7944L2.27036 19.9538C2.36401 21.0356 2.87354 21.7057 3.93716 21.749L20.0325 21.75C21.1585 21.7049 21.656 21.0085 21.7346 19.8913L21.7469 19.6323L21.7499 19.465L21.7485 19.1119L21.7397 18.3783C21.7446 16.728 20.5435 15.5842 18.4507 14.6198L18.0719 14.4512L17.8257 14.3473L17.5769 14.2459L17.2131 14.103L16.1108 13.6865L15.8349 13.5788L15.6713 13.5118L15.5232 13.4478L15.3516 13.3663C14.9474 13.1607 14.9321 12.9193 15.4757 12.1554L15.6786 11.876C15.7262 11.8072 15.7729 11.7363 15.8185 11.6635L15.944 11.45L16.0704 11.3807C16.532 11.097 16.9023 10.619 17.0993 10.0481L17.1552 9.86658C17.3362 9.1983 17.2562 8.50647 16.9267 7.99329L16.8748 7.75305C16.8748 4.40173 15.2471 2.25 11.9992 2.25L11.7526 2.25421ZM15.3748 7.75305C15.3748 5.1535 14.3131 3.75 11.9993 3.75C9.68539 3.75 8.62375 5.1535 8.62375 7.75305C8.62375 7.88239 8.62756 8.01215 8.63519 8.14185C8.64896 8.37555 8.5528 8.60229 8.37521 8.75482C8.25082 8.86163 8.19113 9.19482 8.31671 9.55878C8.42484 9.87213 8.63217 10.0931 8.81042 10.1483L8.92194 10.1929C9.06467 10.2638 9.18216 10.3788 9.25583 10.5225C9.3566 10.719 9.4679 10.9028 9.57843 11.058L9.789 11.3464C10.7586 12.7545 10.6664 14.0223 9.32169 14.7062L9.07108 14.8246L8.90231 14.8973L8.61322 15.0142L7.2193 15.5437L6.7576 15.7288L6.52124 15.8286L6.17709 15.9817L5.95938 16.0845L5.73132 16.1983C4.41412 16.8758 3.758 17.5831 3.76031 18.3879L3.75726 18.7517L3.74997 19.271L3.75064 19.5018L3.75452 19.6503L3.76581 19.8377L3.78458 20.0313C3.80304 20.1849 3.82489 20.2277 3.88855 20.2419L20.002 20.2506C20.1118 20.2308 20.2129 20.1485 20.2376 19.798L20.2452 19.6591L20.25 19.4554L20.2397 18.3798C20.2423 17.4951 19.4323 16.7237 17.8291 15.9849L17.5942 15.8792L17.2513 15.7329L17.0199 15.6386L16.672 15.5019L15.5741 15.0872L15.2785 14.9717L15.0905 14.8947L14.9107 14.8168L14.7525 14.7434L14.5265 14.6243C13.3151 13.9191 13.2749 12.6611 14.2576 11.2802L14.4779 10.9739C14.573 10.8318 14.6614 10.6811 14.7429 10.5222C14.835 10.3428 14.9954 10.2079 15.188 10.1482C15.366 10.093 15.5733 9.87201 15.6814 9.55878C15.8069 9.19476 15.7473 8.86127 15.6223 8.75348C15.4453 8.60095 15.3496 8.37463 15.3633 8.14136C15.3709 8.01208 15.3748 7.88239 15.3748 7.75305Z"
		fill-rule="evenodd" />
</svg>