<?xml version="1.0" encoding="UTF-8"?>
<svg viewBox="0 0 24 24" version="1.1" xmlns="http://www.w3.org/2000/svg" xmlns:xlink="http://www.w3.org/1999/xlink">
    <g id="页面-1" stroke="none" stroke-width="1">
        <g id="画板" transform="translate(-635.000000, -3792.000000)">
            <g id="编组" transform="translate(635.000000, 3792.000000)">
                <path d="M11.9997916,2.74995 C14.327129,2.74995 16.2137916,4.63586018 16.2137916,6.96295 C16.2137916,10.0314238 15.1244845,12.258251 13.2769015,12.992879 C12.8919982,13.1459226 12.4559061,12.9579632 12.3028625,12.5730599 C12.1498189,12.1881567 12.3377784,11.7520646 12.7226816,11.599021 C13.906823,11.1281877 14.7137916,9.47853391 14.7137916,6.96295 C14.7137916,5.46442127 13.4988358,4.24995 11.9997916,4.24995 C10.5007474,4.24995 9.28579156,5.46442127 9.28579156,6.96295 C9.28579156,8.69475185 9.84073626,10.2569744 10.6893318,11.1096518 C10.7515387,11.1573028 10.8049204,11.2168533 10.84885,11.2860421 C11.0154845,11.5484897 10.9987601,11.8750266 10.8322099,12.1154802 C10.8245819,12.1247189 10.8175691,12.1344586 10.8102933,12.1440651 C10.7963389,12.1637002 10.7806174,12.1822722 10.7639084,12.2001353 C10.7599923,12.2038254 10.7557516,12.2083277 10.7514445,12.2127904 L10.7280329,12.2359631 C10.721132,12.2424014 10.7140888,12.2487278 10.7069042,12.2549376 L10.692344,12.26395 L10.6686273,12.2868891 C10.6571666,12.2957122 10.6455066,12.3041599 10.6336643,12.3122319 L10.6176995,12.3212085 L6.70080903,14.8081389 C6.08430566,15.1997218 5.62113986,15.7870727 5.38296106,16.4726349 L5.31832868,16.6811523 L4.75229864,18.7592626 C4.6253047,19.2252253 4.94373737,19.6844769 5.4072551,19.7436395 L5.50869156,19.75005 L18.4906916,19.75005 C18.9734355,19.75005 19.3328477,19.3216235 19.2685221,18.8589917 L19.2481428,18.7594764 L18.6810313,16.6810674 C18.489463,15.9774223 18.0646586,15.3615763 17.4792269,14.9316251 L17.2988511,14.8083148 L15.7418511,13.8203148 C15.3921086,13.5983844 15.2884965,13.134952 15.5104268,12.7852096 C15.7121817,12.4672619 16.113525,12.3527276 16.4475958,12.5012704 L16.545532,12.5537852 L18.102809,13.5419611 C19.0259004,14.1282787 19.7147606,15.0140172 20.0557719,16.0459579 L20.1282403,16.2866236 L20.6954864,18.3655278 C21.0764171,19.7685026 20.0703295,21.1513042 18.644969,21.2450016 L18.4906916,21.25005 L5.50869156,21.25005 C4.05426388,21.25005 2.98492459,19.915072 3.26935535,18.515132 L3.30505445,18.3649477 L3.87122369,16.2863274 C4.15933626,15.2321224 4.80222132,14.3134377 5.68800991,13.6823522 L5.89668363,13.5418915 L9.08446934,11.5184584 C8.26252599,10.3508741 7.78579156,8.7120086 7.78579156,6.96295 C7.78579156,4.63586018 9.67245415,2.74995 11.9997916,2.74995 Z" id="形状结合"></path>
            </g>
        </g>
    </g>
</svg>