<svg viewBox="0 0 24 24" xmlns="http://www.w3.org/2000/svg"
	xmlns:xlink="http://www.w3.org/1999/xlink">
	<defs />
	<g opacity="0.000000" />
	<path id="矢量 186"
		d="M15.55 4.008C15.55 3.03708 14.7629 2.25 13.792 2.25L10.208 2.25C9.23706 2.25 8.45001 3.03708 8.45001 4.008L8.45001 7.59201L8.45581 7.73618C8.52917 8.63965 9.28564 9.35001 10.208 9.35001L11.25 9.35001L11.25 11.75L12.75 11.75L12.75 9.35001L13.792 9.35001C14.7629 9.35001 15.55 8.56293 15.55 7.59201L15.55 4.008ZM13.792 3.75L10.208 3.75C10.0655 3.75 9.95001 3.86551 9.95001 4.008L9.95001 7.59201C9.95001 7.7345 10.0655 7.85001 10.208 7.85001L13.792 7.85001C13.9345 7.85001 14.05 7.7345 14.05 7.59201L14.05 4.008C14.05 3.86551 13.9345 3.75 13.792 3.75ZM18.768 13.2304C18.6897 12.4232 17.9611 11.825 17.1136 11.825L6.13641 11.825L5.98816 11.8311C5.15649 11.9001 4.47498 12.5445 4.47498 13.375L4.47498 14.649L4.008 14.65C3.03711 14.65 2.25 15.4371 2.25 16.408L2.25 19.992C2.25 20.9629 3.03711 21.75 4.008 21.75L7.59198 21.75C8.56293 21.75 9.34998 20.9629 9.34998 19.992L9.34998 16.408L9.34418 16.2638C9.27081 15.3604 8.51434 14.65 7.59198 14.65L5.97498 14.649L5.97498 13.375C6.00049 13.3609 6.0708 13.325 6.13641 13.325L17.1136 13.325C17.1829 13.3369 17.275 13.3716 17.275 13.375L17.275 14.649L16.408 14.65C15.4371 14.65 14.65 15.4371 14.65 16.408L14.65 19.992C14.65 20.9629 15.4371 21.75 16.408 21.75L19.992 21.75C20.9629 21.75 21.75 20.9629 21.75 19.992L21.75 16.408L21.7442 16.2638C21.6708 15.3604 20.9144 14.65 19.992 14.65L18.775 14.649L18.775 13.375L18.768 13.2304ZM7.59198 16.15L4.008 16.15C3.86554 16.15 3.75 16.2655 3.75 16.408L3.75 19.992C3.75 20.1345 3.86554 20.25 4.008 20.25L7.59198 20.25C7.7345 20.25 7.84998 20.1345 7.84998 19.992L7.84998 16.408C7.84998 16.2655 7.7345 16.15 7.59198 16.15ZM16.408 16.15L19.992 16.15C20.1345 16.15 20.25 16.2655 20.25 16.408L20.25 19.992C20.25 20.1345 20.1345 20.25 19.992 20.25L16.408 20.25C16.2655 20.25 16.15 20.1345 16.15 19.992L16.15 16.408C16.15 16.2655 16.2655 16.15 16.408 16.15Z"
		fill-rule="evenodd" />
</svg>