<?xml version="1.0" encoding="UTF-8"?>
<svg viewBox="0 0 24 24" version="1.1" xmlns="http://www.w3.org/2000/svg" xmlns:xlink="http://www.w3.org/1999/xlink">
    <g id="页面-1" stroke="none" stroke-width="1">
        <g id="画板" transform="translate(-789.000000, -3792.000000)">
            <g id="编组" transform="translate(789.000000, 3792.000000)">
                <path d="M13.49975,3 C14.6043195,3 15.49975,3.8954305 15.49975,5 L15.49975,8 C15.49975,9.1045695 14.6043195,10 13.49975,10 L12.75,10 L12.75,11.25 L16.8932861,11.2505789 C17.5946636,11.2505789 18.1716489,11.7863067 18.2371026,12.4706229 L18.2432861,12.6005789 L18.243,14 L19,14 C20.1045695,14 21,14.8954305 21,16 L21,19 C21,20.1045695 20.1045695,21 19,21 L16.0005,21 C14.8959305,21 14.0005,20.1045695 14.0005,19 L14.0005,16 C14.0005,14.8954305 14.8959305,14 16.0005,14 L16.743,14 L16.7425861,12.7504789 L7.25601387,12.7504789 L7.256,14 L7.9995,14 C9.1040695,14 9.9995,14.8954305 9.9995,16 L9.9995,19 C9.9995,20.1045695 9.1040695,21 7.9995,21 L5,21 C3.8954305,21 3,20.1045695 3,19 L3,16 C3,14.8954305 3.8954305,14 5,14 L5.756,14 L5.75671387,12.6005789 C5.75671387,11.8988741 6.29274968,11.3221776 6.97764589,11.2567591 L7.10771387,11.2505789 L11.25,11.25 L11.25,10 L10.50025,10 C9.3956805,10 8.50025,9.1045695 8.50025,8 L8.50025,5 C8.50025,3.8954305 9.3956805,3 10.50025,3 L13.49975,3 Z M7.9995,15.5 L6.579,15.5 L6.50671387,15.5053926 L6.433,15.5 L5,15.5 C4.75454011,15.5 4.55039163,15.6768752 4.50805567,15.9101244 L4.5,16 L4.5,19 C4.5,19.2454599 4.67687516,19.4496084 4.91012437,19.4919443 L5,19.5 L7.9995,19.5 C8.24495989,19.5 8.44910837,19.3231248 8.49144433,19.0898756 L8.4995,19 L8.4995,16 C8.4995,15.7545401 8.32262484,15.5503916 8.08937563,15.5080557 L7.9995,15.5 Z M19,15.5 L17.5665064,15.5018641 C17.542415,15.5041982 17.51799,15.5053926 17.4932861,15.5053926 L17.42,15.5 L16.0005,15.5 C15.7550401,15.5 15.5508916,15.6768752 15.5085557,15.9101244 L15.5005,16 L15.5005,19 C15.5005,19.2454599 15.6773752,19.4496084 15.9106244,19.4919443 L16.0005,19.5 L19,19.5 C19.2454599,19.5 19.4496084,19.3231248 19.4919443,19.0898756 L19.5,19 L19.5,16 C19.5,15.7545401 19.3231248,15.5503916 19.0898756,15.5080557 L19,15.5 Z M13.49975,4.5 L10.50025,4.5 C10.2547901,4.5 10.0506416,4.67687516 10.0083057,4.91012437 L10.00025,5 L10.00025,8 C10.00025,8.24545989 10.1771252,8.44960837 10.4103744,8.49194433 L10.50025,8.5 L11.9848074,8.50005081 C11.9898595,8.49995043 11.9949239,8.4999 12,8.4999 L12.014,8.5 L13.49975,8.5 C13.7452099,8.5 13.9493584,8.32312484 13.9916943,8.08987563 L13.99975,8 L13.99975,5 C13.99975,4.75454011 13.8228748,4.55039163 13.5896256,4.50805567 L13.49975,4.5 Z" id="形状结合"></path>
            </g>
        </g>
    </g>
</svg>