<svg viewBox="0 0 24 24" xmlns="http://www.w3.org/2000/svg"
	xmlns:xlink="http://www.w3.org/1999/xlink">
	<defs />
	<g opacity="0.000000" />
	<path id="矢量 6"
		d="M18.7495 2.25C20.4062 2.25 21.7495 3.59314 21.7495 5.25L21.7495 18.75C21.7495 20.4069 20.4062 21.75 18.7495 21.75L5.25 21.75C3.59314 21.75 2.25 20.4069 2.25 18.75L2.25 5.25C2.25 3.59314 3.59314 2.25 5.25 2.25L18.7495 2.25ZM13.9059 8L7.69409 8C6.75848 8 6 8.67157 6 9.5L6 14.5C6 15.3284 6.75848 16 7.69409 16L13.9059 16C14.8416 16 15.6 15.3284 15.6 14.5L15.6 13.9066L17.3417 14.7581C17.3984 14.7858 17.4589 14.8 17.52 14.8C17.7851 14.8 18 14.5374 18 14.2134L18 9.7868C18 9.71216 17.9883 9.63818 17.9657 9.56891C17.8672 9.26813 17.5879 9.12177 17.3417 9.24213L15.6 10.0936L15.6 9.5C15.6 8.67157 14.8416 8 13.9059 8ZM10.238 10.0719C10.0457 9.93683 9.78943 9.99762 9.66577 10.2078C9.6228 10.2808 9.59998 10.3657 9.59998 10.4525L9.59998 13.5476C9.59998 13.7975 9.7854 14 10.0141 14C10.0935 14 10.1713 13.975 10.238 13.9282L12.6098 12.3806C12.7942 12.251 12.853 11.9886 12.7487 11.782C12.7166 11.7275 12.6597 11.6545 12.6098 11.6194L10.238 10.0719Z"
		fill-rule="evenodd" />
</svg>