<?xml version="1.0" encoding="UTF-8"?>
<svg viewBox="0 0 24 24" version="1.1" xmlns="http://www.w3.org/2000/svg"
    xmlns:xlink="http://www.w3.org/1999/xlink">
    <g id="页面-1" stroke="none" stroke-width="1" fill-rule="evenodd">
        <g id="文件类型方案" transform="translate(-628.000000, -68.000000)">
            <g id="IconVideoType" transform="translate(628.000000, 68.000000)">
                <g id="Group-3">
                    <rect id="Rectangle" x="0" y="0" width="24" height="24" rx="4"></rect>
                </g>
                <g id="ic_digital_office_video_call-copy" transform="translate(5.000000, 5.000000)">
                    <path
                        d="M0.439094804,6.99465145 C0.439094804,5.96941958 0.435506493,4.94418768 0.439094804,3.91895578 C0.437032161,3.42284699 0.498009062,2.92848625 0.62056085,2.44774802 C0.889171605,1.43020537 1.55198402,0.826343785 2.56850144,0.592078296 C3.07819645,0.481954183 3.59879432,0.430358752 4.12018991,0.438293514 C6.08624292,0.438293514 8.05246683,0.438293514 10.0188616,0.438293514 C10.515472,0.435210758 11.0106431,0.492008283 11.4936577,0.607456774 C12.540932,0.863764749 13.1693992,1.52708978 13.4087908,2.57077585 C13.5164163,3.06403953 13.5678346,3.56790496 13.562063,4.07274055 C13.562063,6.05998173 13.562063,8.04739375 13.562063,10.0349766 C13.5647479,10.5267999 13.5081224,11.0171529 13.3934124,11.4954195 C13.1371044,12.5432065 12.4707037,13.1685979 11.4270176,13.4079896 C10.9172572,13.5176969 10.396707,13.5692876 9.87532913,13.5617743 C7.91747795,13.5617743 5.95979767,13.5617743 4.00228824,13.5617743 C3.50188175,13.5658586 3.00279064,13.509926 2.515702,13.3951742 C1.46381408,13.1388662 0.832271236,12.4724655 0.593392205,11.4236532 C0.47138961,10.8905327 0.439094804,10.3558742 0.439094804,9.81660225 C0.439094804,8.87612285 0.439094804,7.93547259 0.439094804,6.99465145 Z"
                        id="path1" stroke-opacity="0" stroke="#FFFFFF" stroke-width="0.29037037"
                        fill-opacity="0" fill="#FFFFFF" fill-rule="nonzero"></path>
                    <path
                        d="M0.439094804,6.99465145 C0.439094804,5.96941958 0.435506493,4.94418768 0.439094804,3.91895578 C0.437032161,3.42284699 0.498009062,2.92848625 0.62056085,2.44774802 C0.889171605,1.43020537 1.55198402,0.826343785 2.56850144,0.592078296 C3.07819645,0.481954183 3.59879432,0.430358752 4.12018991,0.438293514 C6.08624292,0.438293514 8.05246683,0.438293514 10.0188616,0.438293514 C10.515472,0.435210758 11.0106431,0.492008283 11.4936577,0.607456774 C12.540932,0.863764749 13.1693992,1.52708978 13.4087908,2.57077585 C13.5164163,3.06403953 13.5678346,3.56790496 13.562063,4.07274055 C13.562063,6.05998173 13.562063,8.04739375 13.562063,10.0349766 C13.5647479,10.5267999 13.5081224,11.0171529 13.3934124,11.4954195 C13.1371044,12.5432065 12.4707037,13.1685979 11.4270176,13.4079896 C10.9172572,13.5176969 10.396707,13.5692876 9.87532913,13.5617743 C7.91747795,13.5617743 5.95979767,13.5617743 4.00228824,13.5617743 C3.50188175,13.5658586 3.00279064,13.509926 2.515702,13.3951742 C1.46381408,13.1388662 0.832271236,12.4724655 0.593392205,11.4236532 C0.47138961,10.8905327 0.439094804,10.3558742 0.439094804,9.81660225 C0.439094804,8.87612285 0.439094804,7.93547259 0.439094804,6.99465145 Z"
                        id="path2" stroke-opacity="0" stroke="#FFFFFF" stroke-width="0.29037037"
                        opacity="0.200000003"></path>
                    <circle id="path3" fill-opacity="0" fill="#FFFFFF" fill-rule="nonzero" cx="7"
                        cy="7" r="7"></circle>
                    <path
                        d="M10.5,5.25 L12.6166888,4.40332448 C12.9158125,4.283675 13.2552953,4.4291676 13.3749447,4.72829134 C13.4025061,4.79719482 13.4166667,4.87072457 13.4166667,4.94493589 L13.4166667,9.34673078 C13.4166667,9.66889688 13.1554994,9.93006411 12.8333333,9.93006411 C12.759122,9.93006411 12.6855923,9.91590358 12.6166888,9.88834219 C12.2018398,9.72240261 11.8907031,9.59794792 11.6832787,9.51497814"
                        id="path4" stroke-opacity="0" stroke="#FFFFFF" stroke-width="0.29037037"
                        stroke-linecap="round" stroke-linejoin="round"></path>
                    <path
                        d="M10.5,9.91666667 C10.5,10.883165 9.71649831,11.6666667 8.75,11.6666667 L2.33333333,11.6666667 C1.36683502,11.6666667 0.583333333,10.883165 0.583333333,9.91666667 L0.583333333,4.08333333 C0.583333333,3.11683502 1.36683502,2.33333333 2.33333333,2.33333333 L8.75,2.33333333 C9.71649831,2.33333333 10.5,3.11683502 10.5,4.08333333 L10.5,9.91666667 Z"
                        id="path5" fill="#FFFFFF" fill-rule="nonzero"></path>
                    <circle id="path7" fill-rule="nonzero" cx="3.35416667" cy="5.39583333"
                        r="1.02083333"></circle>
                    <path
                        d="M10.5,5.25 L12.6166888,4.40332448 C12.9158125,4.283675 13.2552953,4.4291676 13.3749447,4.72829134 C13.4025061,4.79719482 13.4166667,4.87072457 13.4166667,4.94493589 L13.4166667,9.34673078 C13.4166667,9.66889688 13.1554994,9.93006411 12.8333333,9.93006411 C12.759122,9.93006411 12.6855923,9.91590358 12.6166888,9.88834219 L10.5,9.04166667 L10.5,5.25 Z"
                        id="path6" fill="#FFFFFF" fill-rule="nonzero"></path>
                </g>
            </g>
        </g>
    </g>
</svg>