<svg viewBox="0 0 24 24" xmlns="http://www.w3.org/2000/svg"
	xmlns:xlink="http://www.w3.org/1999/xlink">
	<defs />
	<g opacity="0.000000" />
	<path id="矢量 105"
		d="M19.4403 9.41718C18.9138 4.40805 14.4263 0.77417 9.41718 1.30063C4.40805 1.82712 0.77417 6.31461 1.30063 11.3237C1.82712 16.3329 6.31461 19.9668 11.3237 19.4403C13.1566 19.2477 14.8502 18.5176 16.2256 17.3636L21.4736 22.5342L21.5583 22.6062C21.8535 22.8219 22.27 22.7946 22.5343 22.5264C22.825 22.2313 22.8214 21.7564 22.5264 21.4657L16.7802 15.8044C16.501 15.5216 16.0526 15.5073 15.7563 15.7636C15.7436 15.7743 15.7314 15.7856 15.7196 15.7975C14.4986 17.0026 12.9098 17.7653 11.1669 17.9485C6.98172 18.3884 3.2323 15.3522 2.79242 11.1669C2.35254 6.98172 5.38873 3.2323 9.57397 2.79242C13.7592 2.35254 17.5086 5.38873 17.9485 9.57397C18.0842 10.865 17.8922 12.1416 17.4015 13.3114C17.2413 13.6934 17.4211 14.1329 17.803 14.2932C18.185 14.4533 18.6245 14.2736 18.7848 13.8916C19.3724 12.4906 19.6025 10.9607 19.4403 9.41718ZM10.5 15.75C10.9142 15.75 11.25 15.4142 11.25 15L11.25 11.25L15 11.25L15.1018 11.2432C15.4678 11.1935 15.75 10.8797 15.75 10.5C15.75 10.0858 15.4142 9.75 15 9.75L11.25 9.75L11.25 6L11.2432 5.89822C11.1935 5.53217 10.8797 5.25 10.5 5.25C10.0858 5.25 9.75 5.58578 9.75 6L9.75 9.75L6 9.75L5.89822 9.75684C5.53217 9.80652 5.25 10.1203 5.25 10.5C5.25 10.9142 5.58578 11.25 6 11.25L9.75 11.25L9.75 15L9.75684 15.1018C9.80652 15.4678 10.1203 15.75 10.5 15.75Z"
		fill-rule="evenodd" />
</svg>