<svg width="24.000000" height="24.000000" viewBox="0 0 24 24" xmlns="http://www.w3.org/2000/svg" xmlns:xlink="http://www.w3.org/1999/xlink">
	<g clip-path="url(#clip131_1874)">
		<path id="矢量 26" d="M6.38 2L16.38 2C18.0369 2 19.38 3.34314 19.38 5L19.38 6.00012C18.6 5.99475 17.8182 6.28967 17.2231 6.88464L10.3171 13.7897C10.184 13.9229 10.0795 14.0817 10.0099 14.2567L8.4812 18.1039C8.03345 19.2308 9.15039 20.3468 10.2772 19.8986L14.1229 18.368C14.2976 18.2986 14.4563 18.1942 14.5892 18.0612L19.38 13.2711L19.38 19C19.38 20.6569 18.0369 22 16.38 22L6.38 22C4.72314 22 3.38 20.6569 3.38 19L3.38 5C3.38 3.34314 4.72314 2 6.38 2ZM14.3798 6.25305L6.37976 6.25305C5.95984 6.25305 5.62976 5.92297 5.62976 5.50305C5.62976 5.08313 5.95984 4.75305 6.37976 4.75305L14.3798 4.75305C14.7998 4.75305 15.1298 5.08313 15.1298 5.50305C15.1298 5.92297 14.7998 6.25305 14.3798 6.25305ZM19.5114 11.2474L20.1074 10.6515C20.1963 10.5626 20.2742 10.4664 20.3408 10.3632C20.3998 10.2717 20.4502 10.1748 20.4917 10.0721C20.533 9.97058 20.5642 9.86682 20.5856 9.76111C20.6085 9.64795 20.62 9.53186 20.62 9.41406C20.62 9.29639 20.6086 9.18103 20.5858 9.06799C20.5645 8.96228 20.533 8.85754 20.4917 8.75598C20.4501 8.65332 20.3998 8.55627 20.3408 8.46497C20.2742 8.36169 20.1963 8.2655 20.1074 8.17664C20.0186 8.08777 19.9227 8.01013 19.8196 7.94348C19.7283 7.88464 19.6306 7.83374 19.5281 7.79224C19.4264 7.7511 19.3228 7.71973 19.217 7.69836C19.1036 7.67542 18.9879 7.66406 18.87 7.66406C18.752 7.66406 18.6362 7.67542 18.5228 7.69836C18.4172 7.71973 18.3134 7.75098 18.2118 7.79224C18.1093 7.83386 18.0123 7.88416 17.9209 7.94312C17.8176 8.00989 17.7214 8.08765 17.6324 8.17664L17.0366 8.77246L19.5114 11.2474ZM11.2687 9.75C11.6887 9.75 12.0187 9.42004 12.0187 9C12.0187 8.57996 11.6887 8.25 11.2687 8.25L6.38 8.25C5.96008 8.25 5.63 8.57996 5.63 9C5.63 9.42004 5.96008 9.75 6.38 9.75L11.2687 9.75ZM18.6276 12.1313L16.4381 9.94177L16.1527 9.65637L11.8895 13.9196L9.81793 18.0652C9.68909 18.323 9.96271 18.5966 10.2205 18.4675L14.3645 16.3944L18.6276 12.1313ZM8.37976 13.25C8.79968 13.25 9.12976 12.92 9.12976 12.5C9.12976 12.08 8.79968 11.75 8.37976 11.75L6.37976 11.75C5.95972 11.75 5.62976 12.08 5.62976 12.5C5.62976 12.92 5.95972 13.25 6.37976 13.25L8.37976 13.25Z" fill-opacity="1.000000" fill-rule="evenodd"/>
	</g>
</svg>
