<svg viewBox="0 0 24 24" xmlns="http://www.w3.org/2000/svg"
	xmlns:xlink="http://www.w3.org/1999/xlink">
	<g clip-path="url(#clip131_1896)">
		<path id="矢量 172"
			d="M5 2L19 2C20.6569 2 22 3.34314 22 5L22 6L2 6L2 5C2 3.34314 3.34314 2 5 2ZM9 7.5L2 7.5L2 19C2 20.6569 3.34314 22 5 22L19 22C20.6569 22 22 20.6569 22 19L22 7.5L15 7.5L15 13.9777C15 14.3938 14.5215 14.6278 14.193 14.3723L12.6139 13.1442C12.2528 12.8633 11.7472 12.8633 11.3861 13.1442L9.80701 14.3723C9.47852 14.6278 9 14.3938 9 13.9777L9 7.5Z"
			fill-opacity="1.000000" fill-rule="evenodd" />
	</g>
</svg>