<svg width="24.000000" height="24.000000" viewBox="0 0 24 24" xmlns="http://www.w3.org/2000/svg" xmlns:xlink="http://www.w3.org/1999/xlink">
	<g clip-path="url(#clip131_1875)">
		<path id="矢量 159" d="M9.57581 1.55652L2.07581 5.46448C1.90466 5.55359 1.75 5.66553 1.61481 5.79541L10.5 10.2554L19.3852 5.79541C19.25 5.66553 19.0953 5.55359 18.9242 5.46448L11.4242 1.55652C10.845 1.25476 10.155 1.25476 9.57581 1.55652ZM9.75 22.6738L9.75 11.5573L1.00128 7.16577L1 16.9119C1 17.6573 1.41467 18.3411 2.07581 18.6855L9.57581 22.5934C9.63287 22.6232 9.69098 22.65 9.75 22.6738ZM19.9987 7.16577L11.25 11.5573L11.25 22.6738C11.309 22.65 11.3671 22.6232 11.4242 22.5934L14.4602 21.0115C13.2559 19.9142 12.5 18.333 12.5 16.5752C12.5 13.2615 15.1863 10.5752 18.5 10.5752C19.0179 10.5752 19.5206 10.6409 20 10.7643L19.9987 7.16577ZM4.28943 11.7861L7.72363 13.5032C7.89301 13.5879 8 13.761 8 13.9504L8 15.3177C8 15.4664 7.84357 15.5631 7.71057 15.4967L4.27637 13.7795C4.10699 13.6949 4 13.5217 4 13.3324L4 11.965C4 11.8163 4.15643 11.7196 4.28943 11.7861ZM14 16.575C14 14.0896 16.0147 12.075 18.5 12.075C20.9853 12.075 23 14.0896 23 16.575C23 19.0602 20.9853 21.075 18.5 21.075C16.0147 21.075 14 19.0602 14 16.575ZM18.75 16.4441L18.75 14.825C18.75 14.4049 18.42 14.075 18 14.075C17.58 14.075 17.25 14.4049 17.25 14.825L17.25 16.818C17.25 17.0674 17.3495 17.267 17.5487 17.417L19.5487 18.924C19.8842 19.1766 20.3463 19.1117 20.599 18.7762C20.8517 18.4408 20.7867 17.9786 20.4513 17.7258L18.75 16.4441Z" fill-opacity="1.000000" fill-rule="evenodd"/>
	</g>
</svg>
