<svg viewBox="0 0 24 24" xmlns="http://www.w3.org/2000/svg"
	xmlns:xlink="http://www.w3.org/1999/xlink">
	<g clip-path="url(#clip131_1872)">
		<path id="矢量 157"
			d="M3.74188 2.32922C3.36627 1.91394 2.74481 1.88269 2.32941 2.2583C1.91412 2.63391 1.88287 3.25537 2.25848 3.67078L4.00018 5.59656L4.00018 15.5C4.00018 16.0601 4.44025 16.5 5.00018 16.5L20.5 16.4999C21.34 16.4999 22 15.84 22 14.9999C22 14.1599 21.34 13.4999 20.5 13.4999L17.5186 13.4999C18.3367 13.4999 19 12.8367 19 12.0184L19 4.98145C19 4.16321 18.3367 3.49988 17.5186 3.49988L9.48151 3.49988C8.66339 3.49988 8.00006 4.16321 8.00006 4.98145L8.00006 12.0184C8.00006 12.8367 8.66339 13.4999 9.48151 13.4999L6.00018 13.4999L6.00018 5.21143C6.00018 5.08752 5.97797 4.96777 5.93341 4.85205C5.88885 4.73645 5.82501 4.63257 5.74188 4.54065L3.74188 2.32922ZM13.7501 8.24988L13.7501 5.99988C13.7501 5.57996 13.4201 5.24988 13.0001 5.24988C12.58 5.24988 12.2501 5.57996 12.2501 5.99988L12.2501 8.99988C12.2501 9.20703 12.3233 9.38379 12.4698 9.53027C12.6161 9.67664 12.7929 9.74988 13.0001 9.74988L16.0001 9.74988C16.4201 9.74988 16.7501 9.41992 16.7501 8.99988C16.7501 8.57996 16.4201 8.24988 16.0001 8.24988L13.7501 8.24988ZM7.50006 17.4999C6.11932 17.4999 5.00006 18.6193 5.00006 19.9999C5.00006 21.3806 6.11932 22.4999 7.50006 22.4999C8.88068 22.4999 10.0001 21.3806 10.0001 19.9999C10.0001 18.6193 8.88068 17.4999 7.50006 17.4999ZM17.5001 17.4999C16.1193 17.4999 15.0001 18.6193 15.0001 19.9999C15.0001 21.3806 16.1193 22.4999 17.5001 22.4999C18.8806 22.4999 20 21.3806 20 19.9999C20 18.6193 18.8806 17.4999 17.5001 17.4999Z"
			fill-opacity="1.000000" fill-rule="evenodd" />
	</g>
</svg>