<?xml version="1.0" encoding="UTF-8"?>
<svg viewBox="0 0 24 24" version="1.1" xmlns="http://www.w3.org/2000/svg" xmlns:xlink="http://www.w3.org/1999/xlink">
    <g id="页面-1" stroke="none" stroke-width="1">
        <g id="画板" transform="translate(-635.000000, -3860.000000)">
            <g id="编组" transform="translate(635.000000, 3860.000000)">
                <path d="M12,6.75 C12.414,6.75 12.75,7.086 12.75,7.5 L12.75,13.374 C12.75,13.788 12.414,14.124 12,14.124 C11.586,14.124 11.25,13.788 11.25,13.374 L11.25,7.5 C11.25,7.086 11.586,6.75 12,6.75 M12,17.5 C11.448,17.5 11,17.053 11,16.5 C11,15.947 11.448,15.5 12,15.5 C12.552,15.5 13,15.947 13,16.5 C13,17.053 12.552,17.5 12,17.5 M12,2 C6.486,2 2,6.486 2,12 C2,17.514 6.486,22 12,22 C17.514,22 22,17.514 22,12 C22,6.486 17.514,2 12,2" id="Fill-1"></path>
            </g>
        </g>
    </g>
</svg>