<svg viewBox="0 0 24 24" xmlns="http://www.w3.org/2000/svg"
	xmlns:xlink="http://www.w3.org/1999/xlink">
	<defs />
	<g opacity="0.000000" />
	<path id="矢量 210"
		d="M1.36426 19.7876L10.401 2.61789C10.8496 1.7655 11.9135 1.42859 12.7882 1.84409C13.136 2.00928 13.4211 2.28006 13.5989 2.61789L22.6356 19.7876C23.0969 20.6642 22.7231 21.7295 21.8249 22.1561C21.5792 22.2729 21.3095 22.3333 21.0366 22.3333L2.9632 22.3333C1.98029 22.3333 1.16669 21.5604 1.16669 20.585C1.16669 20.3073 1.23462 20.034 1.36426 19.7876ZM12.7427 15.1018C12.6931 15.4678 12.3793 15.75 11.9996 15.75C11.5854 15.75 11.2496 15.4142 11.2496 15L11.2496 8L11.2564 7.89822C11.3061 7.53217 11.6199 7.25 11.9996 7.25C12.4138 7.25 12.7496 7.58578 12.7496 8L12.7496 15L12.7427 15.1018ZM11.9996 19.75C11.3092 19.75 10.7496 19.1903 10.7496 18.5C10.7496 17.8096 11.3092 17.25 11.9996 17.25C12.6899 17.25 13.2496 17.8096 13.2496 18.5C13.2496 19.1903 12.6899 19.75 11.9996 19.75Z"
		fill-rule="evenodd" />
</svg>