<?xml version="1.0" encoding="UTF-8"?>
<svg viewBox="0 0 24 24" version="1.1" xmlns="http://www.w3.org/2000/svg"
    xmlns:xlink="http://www.w3.org/1999/xlink">
    <g id="页面-1" stroke="none" stroke-width="1" fill-rule="evenodd">
        <g id="SaaS基础图标库" transform="translate(-347.000000, -3935.000000)" fill-rule="nonzero">
            <g id="IconWarningTriangle" transform="translate(347.000000, 3935.000000)">
                <rect id="矩形" fill="#D8D8D8" opacity="0" x="0" y="0" width="24" height="24"></rect>
                <path
                    d="M12.0000755,18.858 C11.4470755,18.858 11.0000755,18.411 11.0000755,17.858 C11.0000755,17.306 11.4470755,16.858 12.0000755,16.858 C12.5530755,16.858 13.0000755,17.306 13.0000755,17.858 C13.0000755,18.411 12.5530755,18.858 12.0000755,18.858 L12.0000755,18.858 Z M11.2500755,8.858 C11.2500755,8.444 11.5860755,8.108 12.0000755,8.108 C12.4140755,8.108 12.7500755,8.444 12.7500755,8.858 L12.7500755,14.732 C12.7500755,15.146 12.4140755,15.482 12.0000755,15.482 C11.5860755,15.482 11.2500755,15.146 11.2500755,14.732 L11.2500755,8.858 Z M21.6070755,18.944 L13.5520755,3.441 C13.2500755,2.86 12.6550755,2.499 12.0000755,2.499 C11.3450755,2.499 10.7500755,2.86 10.4480755,3.441 L2.39207545,18.944 C2.10707545,19.492 2.12907545,20.133 2.44907545,20.66 C2.77007545,21.186 3.32807545,21.501 3.94407545,21.501 L20.0560755,21.501 C20.6720755,21.501 21.2300755,21.186 21.5510755,20.66 C21.8710755,20.133 21.8930755,19.492 21.6070755,18.944 L21.6070755,18.944 Z"
                    id="Fill-1"></path>
            </g>
        </g>
    </g>
</svg>