<?xml version="1.0" encoding="UTF-8"?>
<svg viewBox="0 0 96 96" version="1.1" xmlns="http://www.w3.org/2000/svg" xmlns:xlink="http://www.w3.org/1999/xlink">
    <g id="缺省图" stroke="none" stroke-width="1" fill="none" fill-rule="evenodd">
        <g transform="translate(-577.000000, -711.000000)" id="网络异常">
            <g transform="translate(577.000000, 711.000000)">
                <rect id="矩形" x="0" y="0" width="96" height="96"></rect>
                <g id="5" transform="translate(3.000000, 17.000000)">
                    <g id="01小容器/01背景/窗口">
                        <rect id="矩形" fill="#FFFFFF" x="0" y="0" width="81.0546152" height="61.7647059" rx="4.218"></rect>
                        <path d="M77.3193795,0 C79.3822932,0 81.0546152,1.65586831 81.0546152,3.69848538 L81.0546152,58.0662205 C81.0546152,60.1088376 79.3822932,61.7647059 77.3193795,61.7647059 L3.73523572,61.7647059 C1.672322,61.7647059 0,60.1088376 0,58.0662205 L0,3.69848538 C0,1.65586831 1.672322,0 3.73523572,0 L77.3193795,0 Z M77.3193795,0.999590644 L3.73523572,0.999590644 C2.22986625,0.999590644 1.00952317,2.20792698 1.00952317,3.69848538 L1.00952317,58.0662205 C1.00952317,59.5567789 2.22986625,60.7651152 3.73523572,60.7651152 L77.3193795,60.7651152 C78.824749,60.7651152 80.045092,59.5567789 80.045092,58.0662205 L80.045092,3.69848538 C80.045092,2.20792698 78.824749,0.999590644 77.3193795,0.999590644 Z" id="矩形" fill="#8F8F8F" fill-rule="nonzero"></path>
                        <path d="M4.218,0 L76.7269429,0 C79.05648,-7.81592883e-15 80.9449429,1.88846293 80.9449429,4.218 L80.9449429,13.4841373 L80.9449429,13.4841373 L0,13.4841373 L0,4.218 C-2.85286012e-16,1.88846293 1.88846293,4.27929018e-16 4.218,0 Z" id="矩形" fill="#EEEEEE"></path>
                        <path d="M77.2097072,0 C79.2726209,0 80.9449429,1.65586831 80.9449429,3.69848538 L80.9449429,13.4841373 L0,13.4841373 L0,3.69848538 C0,1.65586831 1.672322,0 3.73523572,0 L77.2097072,0 Z M77.2097072,0.999590644 L3.73523572,0.999590644 C2.22986625,0.999590644 1.00952317,2.20792698 1.00952317,3.69848538 L1.00952317,12.4843873 L79.9354197,12.4843873 L79.9354197,3.69848538 C79.9354197,2.24428206 78.7738796,1.05870177 77.3193339,1.00173367 L77.2097072,0.999590644 Z" id="矩形" fill="#818181" fill-rule="nonzero"></path>
                        <path d="M74.3951241,8.46388926 C75.2833801,8.46388926 76.0034539,7.75337445 76.0034539,6.87691002 C76.0034539,6.00044559 75.2833801,5.28993078 74.3951241,5.28993078 C73.5068681,5.28993078 72.7867943,6.00044559 72.7867943,6.87691002 C72.7867943,7.75337445 73.5068681,8.46388926 74.3951241,8.46388926 Z M69.0340246,8.46388926 C69.9222807,8.46388926 70.6423545,7.75337445 70.6423545,6.87691002 C70.6423545,6.00044559 69.9222807,5.28993078 69.0340246,5.28993078 C68.1457686,5.28993078 67.4256948,6.00044559 67.4256948,6.87691002 C67.4256948,7.75337445 68.1457686,8.46388926 69.0340246,8.46388926 Z M63.6729252,8.46388926 C64.5611812,8.46388926 65.281255,7.75337445 65.281255,6.87691002 C65.281255,6.00044559 64.5611812,5.28993078 63.6729252,5.28993078 C62.7846692,5.28993078 62.0645954,6.00044559 62.0645954,6.87691002 C62.0645954,7.75337445 62.7846692,8.46388926 63.6729252,8.46388926 Z" id="形状结合" fill="#818181"></path>
                    </g>
                    <g id="ic_wifi_lined" transform="translate(29.730457, 29.517912)" fill="#818181" fill-rule="nonzero">
                        <path d="M9.29266266,12.8997191 C9.73012521,12.4665607 10.4401477,12.4665607 10.8776103,12.8997191 C11.3150728,13.3328776 11.3150728,14.0359143 10.8776103,14.4690727 C10.4401477,14.9022311 9.73012521,14.9022311 9.29266266,14.4690727 C8.8552001,14.0359143 8.8552001,13.3328776 9.29266266,12.8997191 Z M13.6187941,9.81608238 C13.8875649,10.1087568 13.8875649,10.5832759 13.6187941,10.8759503 C13.3500233,11.1686248 12.9142596,11.1686248 12.6454888,10.8759503 C11.1267158,9.22210248 8.66925387,9.22210248 7.15138543,10.8758142 C6.88268362,11.1685638 6.44692004,11.1686856 6.17808023,10.8760863 C5.90924042,10.583487 5.90912854,10.108968 6.17783034,9.81621848 C8.23325585,7.57684031 11.5624378,7.57684031 13.6187941,9.81608238 Z M16.9825108,7.06721588 C17.2485607,7.31182349 17.2486159,7.70846158 16.9826341,7.95313192 C16.7166523,8.19780218 16.2853554,8.19785296 16.0193055,7.95324535 C12.73866,4.93700356 7.43077276,4.93700356 4.15102911,7.95318863 C3.88501325,8.19782757 3.45371632,8.19782757 3.18770047,7.95318863 C2.92168462,7.70854969 2.92168462,7.31191153 3.18770047,7.06727259 C6.99945527,3.56182853 13.1698413,3.56182853 16.9825108,7.06721588 Z M19.5986077,4.02247179 C19.8628296,4.28682038 19.8627917,4.71537619 19.598523,4.97967799 C19.3342544,5.2439798 18.9058282,5.24394187 18.6416064,4.97959328 C13.8093914,0.145060901 5.98735788,0.145060901 1.155143,4.97959328 C0.890921132,5.24394187 0.462494928,5.2439798 0.198226287,4.97967799 C-0.0660423525,4.71537619 -0.0660802688,4.28682038 0.198141598,4.02247179 C5.55886635,-1.34082393 14.237883,-1.34082393 19.5986077,4.02247179 Z" id="形状结合"></path>
                    </g>
                    <g id="ic_tips_filled" transform="translate(69.829727, 32.381739)" fill-rule="nonzero">
                        <path d="M10.0851365,0 C4.52419221,0 0,4.47967946 0,9.98591053 C0,15.4921416 4.52419221,19.9718211 10.0851365,19.9718211 C15.6460807,19.9718211 20.1702729,15.4921416 20.1702729,9.98591053 C20.1702729,4.47967946 15.6460807,0 10.0851365,0" id="Fill-1" fill="#0067D1"></path>
                        <path d="M10.0851365,4.7433075 C10.5026611,4.7433075 10.8415217,5.0788341 10.8415217,5.49225079 L10.8415217,11.3579746 C10.8415217,11.7713913 10.5026611,12.1069179 10.0851365,12.1069179 C9.6676118,12.1069179 9.32875122,11.7713913 9.32875122,11.3579746 L9.32875122,5.49225079 C9.32875122,5.0788341 9.6676118,4.7433075 10.0851365,4.7433075" id="Fill-1-path" fill="#FFFFFF"></path>
                        <path d="M10.0851365,15.4781613 C9.52843692,15.4781613 9.07662281,15.0317911 9.07662281,14.4795703 C9.07662281,13.9273494 9.52843692,13.4809792 10.0851365,13.4809792 C10.641836,13.4809792 11.0936501,13.9273494 11.0936501,14.4795703 C11.0936501,15.0317911 10.641836,15.4781613 10.0851365,15.4781613" id="Fill-1-path" fill="#FFFFFF"></path>
                    </g>
                </g>
            </g>
        </g>
    </g>
</svg>