<svg viewBox="0 0 24 24" xmlns="http://www.w3.org/2000/svg"
	xmlns:xlink="http://www.w3.org/1999/xlink">
	<defs />
	<g opacity="0.000000" />
	<path id="矢量 97"
		d="M18.6 3.00003L5.40002 3.00003C3.6463 3.00003 2.25 4.5127 2.25 6.35004L2.25 14.15C2.25 15.9874 3.6463 17.5 5.40002 17.5L11.25 17.5L11.25 19.5L5.5 19.5L5.39825 19.5069C5.03217 19.5565 4.75 19.8703 4.75 20.25C4.75 20.6642 5.08582 21 5.5 21L18.5 21L18.6017 20.9932C18.9678 20.9435 19.25 20.6297 19.25 20.25C19.25 19.8358 18.9142 19.5 18.5 19.5L12.75 19.5L12.75 17.5L18.6 17.5C20.3537 17.5 21.75 15.9874 21.75 14.15L21.75 6.35004C21.75 4.5127 20.3537 3.00003 18.6 3.00003ZM12 16L18.6 16C19.4973 16 20.25 15.1846 20.25 14.15L20.25 6.35004C20.25 5.31549 19.4973 4.50003 18.6 4.50003L5.40002 4.50003C4.50275 4.50003 3.75 5.31549 3.75 6.35004L3.75 14.15C3.75 15.1846 4.50275 16 5.40002 16L12 16Z"
		fill-rule="evenodd" />
</svg>