<?xml version="1.0" encoding="UTF-8"?>
<svg viewBox="0 0 24 24" version="1.1" xmlns="http://www.w3.org/2000/svg" xmlns:xlink="http://www.w3.org/1999/xlink">
    <g id="页面-1" stroke="none" stroke-width="1">
        <g id="画板" transform="translate(-789.000000, -3860.000000)">
            <g id="编组" transform="translate(789.000000, 3860.000000)">
                <path d="M18.991,3.61635 C20.5890274,3.61635 21.8946856,4.86493586 21.9859086,6.44004141 L21.991,6.61635 L21.991,14.43735 C21.991,16.0353774 20.7424141,17.3410356 19.1673086,17.4322586 L18.991,17.43735 L14.5,17.43735 C14.0857864,17.43735 13.75,17.1015636 13.75,16.68735 C13.75,16.3076542 14.0321539,15.993859 14.3982294,15.9441966 L14.5,15.93735 L18.991,15.93735 C19.7710343,15.93735 20.4114885,15.3427802 20.4841369,14.5818662 L20.491,14.43735 L20.491,6.61635 C20.491,5.83631571 19.8964302,5.19586154 19.1355162,5.12321307 L18.991,5.11635 L5.009,5.11635 C4.22896571,5.11635 3.58851154,5.7109198 3.51586307,6.47183382 L3.509,6.61635 L3.509,14.43735 C3.509,15.2173843 4.1035698,15.8578385 4.86448382,15.9304869 L5.009,15.93735 L11,15.93735 C11.9179029,15.93735 12.6711653,16.6447173 12.7441968,17.5438613 L12.75,17.68735 L12.749,18.88335 L18,18.88365 C18.4142136,18.88365 18.75,19.2194364 18.75,19.63365 C18.75,20.0133458 18.4678461,20.327141 18.1017706,20.3768034 L18,20.38365 L6,20.38365 C5.58578644,20.38365 5.25,20.0478636 5.25,19.63365 C5.25,19.2539542 5.53215388,18.940159 5.89822944,18.8904966 L6,18.88365 L11.249,18.88335 L11.25,17.68735 C11.25,17.5692473 11.1675574,17.4699329 11.057233,17.4439676 L11,17.43735 L5.009,17.43735 C3.41097264,17.43735 2.10531437,16.1887641 2.01409137,14.6136586 L2.009,14.43735 L2.009,6.61635 C2.009,5.01832264 3.25758586,3.71266437 4.83269141,3.62144137 L5.009,3.61635 L18.991,3.61635 Z" id="形状结合"></path>
            </g>
        </g>
    </g>
</svg>