<svg viewBox="0 0 24 24" xmlns="http://www.w3.org/2000/svg"
	xmlns:xlink="http://www.w3.org/1999/xlink">
	<defs />
	<g opacity="0.000000" />
	<path id="矢量 183"
		d="M18.75 2.25C20.4069 2.25 21.75 3.59314 21.75 5.25L21.75 18.75C21.75 20.4069 20.4069 21.75 18.75 21.75L5.25 21.75C3.59314 21.75 2.25 20.4069 2.25 18.75L2.25 5.25C2.25 3.59314 3.59314 2.25 5.25 2.25L18.75 2.25ZM16.284 8.27676C16.397 7.91428 16.7598 7.6987 17.124 7.76022C17.4866 7.87323 17.8013 8.25977 17.7397 8.62405L15.2217 16.7232C15.0153 17.3857 14.1187 17.4236 13.834 16.8354L13.7903 16.7251L12.003 11.045L10.2332 16.7232C10.0267 17.3857 9.13019 17.4236 8.84546 16.8354L8.80176 16.7251L6.28455 8.7251C6.16028 8.32999 6.37976 7.90891 6.7749 7.78458C7.13708 7.67062 7.52112 7.84558 7.67834 8.17987L9.513 13.989L11.24 8.453C11.2682 8.11078 11.5332 7.80289 11.8893 7.75641L12.0115 7.75C12.4161 7.75 12.7279 8.06384 12.7594 8.43661L14.502 13.989L16.284 8.27676Z"
		fill-rule="evenodd" />
</svg>