<?xml version="1.0" encoding="UTF-8"?>
<svg viewBox="0 0 30 30" version="1.1" xmlns="http://www.w3.org/2000/svg" xmlns:xlink="http://www.w3.org/1999/xlink">
    <g id="多端组件" stroke="none" stroke-width="1">
        <g id="文件上传" transform="translate(-71.000000, -1942.000000)">
            <g id="Word备份-6" transform="translate(71.000000, 1942.000000)">
                <rect id="矩形" x="0" y="0" width="30" height="30" rx="2"></rect>
                <path d="M12.0772277,21.5 L14.2514851,13.9675414 C14.4059406,13.4408379 14.5381188,12.9590239 14.6480198,12.5220994 C14.7579208,12.085175 14.8722772,11.5854052 14.9910891,11.0227901 C15.0861386,11.5255525 15.190099,12.0073665 15.3029703,12.468232 C15.4158416,12.9290976 15.5584158,13.4468232 15.7306931,14.0214088 L15.7306931,14.0214088 L17.9405941,21.5 L20.239604,21.5 L24,8.5 L21.7633663,8.5 L19.6871287,16.5441989 C19.449505,17.4000921 19.2623762,18.1632136 19.1257426,18.8335635 C19.0306931,18.1811694 18.8346535,17.3731584 18.5376238,16.4095304 L18.5376238,16.4095304 L16.1851485,8.5 L13.8683168,8.5 L11.6316832,16.3197514 C11.4415842,16.9541897 11.2277228,17.7921271 10.990099,18.8335635 C10.8712871,18.0854052 10.6990099,17.2953499 10.4732673,16.4633978 L10.4732673,16.4633978 L8.35247525,8.5 L6,8.5 L9.8049505,21.5 L12.0772277,21.5 Z" id="W" fill="#FFFFFF" fill-rule="nonzero"></path>
            </g>
        </g>
    </g>
</svg>