<svg viewBox="0 0 24 24" xmlns="http://www.w3.org/2000/svg"
	xmlns:xlink="http://www.w3.org/1999/xlink">
	<defs />
	<path id="矩形备份"
		d="M4 0L20 0C22.2092 0 24 1.79083 24 4L24 20C24 22.2092 22.2092 24 20 24L4 24C1.79083 24 0 22.2092 0 20L0 4C0 1.79083 1.79083 0 4 0Z"
		fill-rule="evenodd" fill="#FEF5E8" />
	<path id="形状"
		d="M13.1999 4.6001L19.1999 12.6001C19.697 13.2628 19.5626 14.203 18.8999 14.7001C18.6403 14.8948 18.3245 15.0001 17.9999 15.0001L5.99988 15.0001C5.17145 15.0001 4.49988 14.3285 4.49988 13.5001C4.49988 13.1755 4.60516 12.8597 4.79987 12.6001L10.7999 4.6001C11.2969 3.93732 12.2371 3.80304 12.8999 4.30011C13.0136 4.38538 13.1146 4.48639 13.1999 4.6001ZM18.7499 16.5001L5.24994 16.5001C4.83575 16.5001 4.49994 16.8359 4.49994 17.2501L4.49994 18.7501C4.49994 19.1642 4.83575 19.5001 5.24994 19.5001L18.7499 19.5001C19.1641 19.5001 19.4999 19.1642 19.4999 18.7501L19.4999 17.2501C19.4999 16.8359 19.1641 16.5001 18.7499 16.5001Z"
		clip-rule="evenodd" fill-rule="evenodd" fill="#D19F00" fill-opacity="1.000000" />
</svg>