<?xml version="1.0" encoding="UTF-8"?>
<svg viewBox="0 0 24 24" version="1.1" xmlns="http://www.w3.org/2000/svg"
    xmlns:xlink="http://www.w3.org/1999/xlink">
    <g id="页面-2" stroke="none" stroke-width="1" fill="none" fill-rule="evenodd">
        <g id="画板" transform="translate(-32.000000, -44.000000)">
            <g id="编组" transform="translate(32.000000, 44.000000)">
                <path
                    d="M4,0 L20,0 C22.209139,-4.05812251e-16 24,1.790861 24,4 L24,20 C24,22.209139 22.209139,24 20,24 L4,24 C1.790861,24 -2.28220974e-14,22.209139 -2.30926389e-14,20 L-2.30926389e-14,4 C-2.33631804e-14,1.790861 1.790861,4.05812251e-16 4,0 Z"
                    id="矩形备份"></path>
                <path
                    d="M13.2,4.6 L19.2,12.6 C19.6970563,13.2627417 19.5627417,14.2029437 18.9,14.7 C18.6403557,14.8947332 18.3245553,15 18,15 L6,15 C5.17157288,15 4.5,14.3284271 4.5,13.5 C4.5,13.1754447 4.60526681,12.8596443 4.8,12.6 L10.8,4.6 C11.2970563,3.9372583 12.2372583,3.80294373 12.9,4.3 C13.0137085,4.38528137 13.1147186,4.4862915 13.2,4.6 Z M5.25,16.5 L18.75,16.5 C19.1642136,16.5 19.5,16.8357864 19.5,17.25 L19.5,18.75 C19.5,19.1642136 19.1642136,19.5 18.75,19.5 L5.25,19.5 C4.83578644,19.5 4.5,19.1642136 4.5,18.75 L4.5,17.25 C4.5,16.8357864 4.83578644,16.5 5.25,16.5 Z"
                    id="形状" fill="#D19F00"></path>
            </g>
        </g>
    </g>
</svg>