<?xml version="1.0" encoding="UTF-8"?>
<svg viewBox="0 0 16 16" version="1.1" xmlns="http://www.w3.org/2000/svg" xmlns:xlink="http://www.w3.org/1999/xlink">
    <g id="查询列表页" stroke="none" stroke-width="1">
        <g id="编组">
            <rect id="矩形" opacity="0" x="0" y="0" width="16" height="16"></rect>
            <path d="M12.4940035,1.95006774 C12.8906702,1.95006774 13.2886702,2.10273441 13.5926702,2.40740107 C14.1966702,3.01140107 14.2026702,3.98473441 13.6060035,4.58073441 L13.6060035,4.58073441 L12.9387602,5.24706774 L12.9387602,12.0497989 C12.9387602,13.1112934 12.1026503,13.9853138 11.0559008,14.0463899 L10.9387602,14.0497989 L3.93876024,14.0497989 C2.87726581,14.0497989 2.00324533,13.213689 1.94216925,12.1669395 L1.93876024,12.0497989 L1.93876024,5.04979893 C1.93876024,3.9883045 2.7748702,3.11428402 3.82161969,3.05320793 L3.93876024,3.04979893 L8.61359014,3.04979893 C8.88973251,3.04979893 9.11359014,3.27365655 9.11359014,3.54979893 C9.11359014,3.80292944 8.92548755,4.01212624 8.68143717,4.04523452 L8.61359014,4.04979893 L3.93876024,4.04979893 C3.42250209,4.04979893 2.99221084,4.44972205 2.9433747,4.95408009 L2.93876024,5.04979893 L2.93876024,12.0497989 C2.93876024,12.5660571 3.33868336,12.9963483 3.8430414,13.0451845 L3.93876024,13.0497989 L10.9387602,13.0497989 C11.4550184,13.0497989 11.8853096,12.6498758 11.9341458,12.1455178 L11.9387602,12.0497989 L11.9387602,6.24706774 L8.60867021,9.57806774 C8.57267021,9.61451218 8.53252207,9.64651218 8.48921342,9.67347515 L8.42200355,9.71006774 L5.65800355,11.0134011 C5.58533688,11.0474011 5.51133688,11.0627344 5.44067021,11.0627344 C5.09733688,11.0627344 4.82000355,10.6967344 4.98733688,10.3420677 L4.98733688,10.3420677 L6.29000355,7.57806774 C6.32267021,7.50940107 6.36733688,7.44540107 6.42200355,7.39140107 L6.42200355,7.39140107 L11.4193369,2.39406774 C11.7153369,2.09806774 12.1040035,1.95006774 12.4940035,1.95006774 Z M11.3087602,3.91806774 L7.17000355,8.05740107 L6.48000355,9.51940107 L7.94267021,8.83006774 L12.0817602,4.69106774 L11.3087602,3.91806774 Z M12.4940035,2.95006774 L12.4476239,2.95211095 C12.3615591,2.95964181 12.235448,2.99140107 12.1260035,3.10140107 L12.1260035,3.10140107 L12.0157602,3.21106774 L12.7887602,3.98306774 L12.8993369,3.87406774 C13.0093369,3.76406774 13.0406332,3.63647515 13.0480097,3.54954613 L13.0500035,3.50273441 C13.0493369,3.35673441 12.9906702,3.21873441 12.8860035,3.11406774 C12.7800035,3.00873441 12.6406702,2.95006774 12.4940035,2.95006774 L12.4940035,2.95006774 Z" id="形状结合"></path>
        </g>
    </g>
</svg>