<svg viewBox="0 0 24 24" xmlns="http://www.w3.org/2000/svg"
	xmlns:xlink="http://www.w3.org/1999/xlink">
	<defs />
	<g opacity="0.000000" />
	<path id="矢量 212"
		d="M21.0834 2.91638C20.1948 2.02789 18.754 2.02789 17.8654 2.91638L9.89313 10.8876C9.82086 10.9598 9.76416 11.0461 9.72644 11.141L8.30304 14.723C8.06006 15.3345 8.66595 15.9401 9.27728 15.6968L12.8582 14.2719C12.953 14.2342 13.0391 14.1776 13.1112 14.1055L21.0834 6.13422C21.9722 5.24567 21.9722 3.80493 21.0834 2.91638ZM13.0658 3.25C13.48 3.25 13.8158 3.58582 13.8158 4C13.8158 4.3797 13.5336 4.69348 13.1675 4.74316L13.0658 4.75L5.6842 4.75C4.66687 4.75 3.83295 5.53546 3.7558 6.53308L3.75 6.6842L3.75 18.3158C3.75 19.3331 4.53546 20.1671 5.53308 20.2442L5.6842 20.25L17.3158 20.25C18.3331 20.25 19.1671 19.4645 19.2442 18.4669L19.25 18.3158L19.25 10.757C19.25 10.3428 19.5858 10.007 20 10.007C20.3797 10.007 20.6935 10.2892 20.7432 10.6553L20.75 10.757L20.75 18.3158C20.75 20.1492 19.3132 21.6471 17.5042 21.7449L17.3158 21.75L5.6842 21.75C3.85077 21.75 2.35291 20.3132 2.25507 18.5042L2.25 18.3158L2.25 6.6842C2.25 4.85077 3.68677 3.35291 5.49579 3.25507L5.6842 3.25L13.0658 3.25ZM18.926 3.97711C19.2288 3.67432 19.72 3.67432 20.0229 3.97711L20.158 4.15869C20.3157 4.45215 20.2706 4.82574 20.0229 5.07349L19.811 5.284L18.714 4.18701L18.926 3.97711ZM17.654 5.24799L11.063 11.838L10.339 13.66L12.159 12.935L18.75 6.34497L17.654 5.24799Z"
		fill-rule="evenodd" />
</svg>