<svg viewBox="0 0 24 24" xmlns="http://www.w3.org/2000/svg"
	xmlns:xlink="http://www.w3.org/1999/xlink">
	<defs />
	<g opacity="0.000000" />
	<path id="矢量 113"
		d="M5.25 2.25L18.75 2.25C20.4069 2.25 21.75 3.59314 21.75 5.25L21.75 18.75C21.75 20.4069 20.4069 21.75 18.75 21.75L5.25 21.75C3.59314 21.75 2.25 20.4069 2.25 18.75L2.25 5.25C2.25 3.59314 3.59314 2.25 5.25 2.25ZM14.1791 4.5L12.3191 4.5C12.1423 4.5 11.9991 4.64331 11.9991 4.82001L11.9991 6.68005C11.9991 6.85675 12.1423 7 12.3191 7L14.1791 7C14.3558 7 14.4991 6.85675 14.4991 6.68005L14.4991 4.82001C14.4991 4.64331 14.3558 4.5 14.1791 4.5ZM9.81952 7L11.6796 7C11.8563 7 11.9996 7.14331 11.9996 7.32007L11.9996 9.18005C11.9996 9.35675 11.8563 9.5 11.6796 9.5L9.81952 9.5C9.64282 9.5 9.49957 9.35675 9.49957 9.18005L9.49957 7.32007C9.49957 7.14331 9.64282 7 9.81952 7ZM14.1791 9.5L12.3191 9.5C12.1423 9.5 11.9991 9.64331 11.9991 9.82007L11.9991 11.6801C11.9991 11.8568 12.1423 12 12.3191 12L14.1791 12C14.3558 12 14.4991 11.8568 14.4991 11.6801L14.4991 9.82007C14.4991 9.64331 14.3558 9.5 14.1791 9.5ZM9.81952 12L11.6796 12C11.8563 12 11.9996 12.1433 11.9996 12.3201L11.9996 14.1801C11.9996 14.3568 11.8563 14.5 11.6796 14.5L9.81952 14.5C9.64282 14.5 9.49957 14.3568 9.49957 14.1801L9.49957 12.3201C9.49957 12.1433 9.64282 12 9.81952 12ZM12.3191 14.5L14.1791 14.5C14.3558 14.5 14.4991 14.6433 14.4991 14.82L14.4991 16.6801C14.4991 16.8568 14.3558 17 14.1791 17L12.3191 17C12.1423 17 11.9991 16.8568 11.9991 16.6801L11.9991 14.82C11.9991 14.6433 12.1423 14.5 12.3191 14.5ZM11.6796 17L9.81952 17C9.64282 17 9.49957 17.1433 9.49957 17.3201L9.49957 19.1801C9.49957 19.3568 9.64282 19.5 9.81952 19.5L11.6796 19.5C11.8563 19.5 11.9996 19.3568 11.9996 19.1801L11.9996 17.3201C11.9996 17.1433 11.8563 17 11.6796 17Z"
		fill-rule="evenodd" />
</svg>