<svg viewBox="0 0 24 24" xmlns="http://www.w3.org/2000/svg"
	xmlns:xlink="http://www.w3.org/1999/xlink">
	<defs />
	<g opacity="0.000000" />
	<path id="矢量 230"
		d="M19.9462 9.23083C20.1196 10.8811 19.8736 12.5166 19.2454 14.0144C19.0851 14.3964 18.6456 14.5762 18.2637 14.416C17.8817 14.2557 17.7019 13.8162 17.8621 13.4343C18.3934 12.1676 18.6013 10.7854 18.4543 9.38763C17.9781 4.85626 13.9186 1.56891 9.38721 2.04517C4.85583 2.52148 1.56848 6.58099 2.04474 11.1124C2.52106 15.6437 6.58057 18.9311 11.1119 18.4548C12.9988 18.2565 14.7192 17.4307 16.0411 16.1259C16.0953 16.0724 16.1555 16.0289 16.2195 15.9953L16.3661 15.9372L16.4722 15.9158L16.5892 15.91L16.7003 15.9214L16.8483 15.9638C16.8986 15.9913 17.0253 16.0621 17.0695 16.102L23.2811 22.2209C23.5762 22.5117 23.5797 22.9865 23.289 23.2816C23.0247 23.5498 22.6083 23.5771 22.313 23.3615L16.5486 17.6933C15.0712 18.9462 13.2458 19.7388 11.2687 19.9466C5.91345 20.5095 1.11584 16.6245 0.552979 11.2692C-0.0098877 5.91388 3.87512 1.11627 9.23041 0.553406C14.5857 -0.00946045 19.3833 3.87555 19.9462 9.23083ZM10.9927 5.14825C10.9431 4.78217 10.6293 4.5 10.2496 4.5C9.83533 4.5 9.49957 4.83575 9.49957 5.25L9.49878 9.49921L5.24957 9.5L5.14783 9.50684C4.78174 9.55652 4.49957 9.8703 4.49957 10.25C4.49957 10.6642 4.83533 11 5.24957 11L9.49878 10.9992L9.49957 15.25L9.50641 15.3517C9.55609 15.7178 9.86987 16 10.2496 16C10.6638 16 10.9996 15.6642 10.9996 15.25L10.9988 10.9992L15.2496 11L15.3513 10.9932C15.7174 10.9435 15.9996 10.6297 15.9996 10.25C15.9996 9.83575 15.6638 9.5 15.2496 9.5L10.9988 9.49921L10.9996 5.25L10.9927 5.14825Z"
		fill-rule="evenodd" />
</svg>