<?xml version="1.0" encoding="UTF-8"?>
<svg viewBox="0 0 24 24" version="1.1" xmlns="http://www.w3.org/2000/svg" xmlns:xlink="http://www.w3.org/1999/xlink">
    <g id="页面-1" stroke="none" stroke-width="1">
        <g id="画板" transform="translate(-789.000000, -3930.000000)">
            <g id="编组" transform="translate(789.000000, 3930.000000)">
                <path d="M10.6485,2.0995 C15.0777136,2.0995 18.6685,5.69028644 18.6685,10.1195 C18.6685,11.4976841 18.319608,12.8268502 17.664118,14.0067322 C17.4629581,14.36882 17.0063556,14.4992778 16.6442678,14.298118 C16.28218,14.0969581 16.1517222,13.6403556 16.352882,13.2782678 C16.8853535,12.3198191 17.1685,11.2411224 17.1685,10.1195 C17.1685,6.51871356 14.2492864,3.5995 10.6485,3.5995 C7.04707488,3.5995 4.1285,6.51835221 4.1285,10.1195 C4.1285,13.7206478 7.04707488,16.6395 10.6485,16.6395 C12.2454037,16.6395 13.7513989,16.0639738 14.9307196,15.0361086 C15.198675,14.8025656 15.5883105,14.7920571 15.8666807,14.9963361 L15.9550303,15.0723729 L21.2633629,20.404815 C21.5555917,20.6983711 21.5545157,21.1732436 21.2609596,21.4654725 C20.9940905,21.731135 20.577373,21.754397 20.2842559,21.5358778 L20.2003022,21.4630693 L15.3647148,16.6053333 L15.1589542,16.7517837 C13.9326457,17.5874862 12.4911908,18.0720658 10.974586,18.1329622 L10.6485,18.1395 C6.21861585,18.1395 2.6285,14.549043 2.6285,10.1195 C2.6285,5.68995699 6.21861585,2.0995 10.6485,2.0995 Z M13.64445,9.3719 C14.0586636,9.3719 14.39445,9.70768644 14.39445,10.1219 C14.39445,10.5015958 14.1122961,10.815391 13.7462206,10.8650534 L13.64445,10.8719 L7.64445,10.8719 C7.23023644,10.8719 6.89445,10.5361136 6.89445,10.1219 C6.89445,9.74220423 7.17660388,9.42840904 7.54267944,9.37874662 L7.64445,9.3719 L13.64445,9.3719 Z" id="形状结合"></path>
            </g>
        </g>
    </g>
</svg>