<svg viewBox="0 0 24 24" xmlns="http://www.w3.org/2000/svg"
	xmlns:xlink="http://www.w3.org/1999/xlink">
	<defs />
	<g opacity="0.000000" />
	<path id="矢量 187"
		d="M9.41718 1.30063C14.4263 0.77417 18.9138 4.40805 19.4403 9.41718C19.6025 10.9607 19.3724 12.4906 18.7848 13.8916C18.6245 14.2736 18.185 14.4533 17.803 14.2932C17.4211 14.1329 17.2413 13.6934 17.4015 13.3114C17.8922 12.1416 18.0842 10.865 17.9485 9.57397C17.5086 5.38873 13.7592 2.35254 9.57397 2.79242C5.38873 3.2323 2.35254 6.98172 2.79242 11.1669C3.2323 15.3522 6.98172 18.3884 11.1669 17.9485C12.9098 17.7653 14.4986 17.0026 15.7196 15.7975C15.7314 15.7856 15.7436 15.7743 15.7563 15.7636C16.0526 15.5073 16.501 15.5216 16.7802 15.8044L22.5264 21.4657C22.8214 21.7564 22.825 22.2313 22.5343 22.5264C22.27 22.7946 21.8535 22.8219 21.5583 22.6062L21.4736 22.5342L16.2256 17.3636C14.8502 18.5176 13.1566 19.2477 11.3237 19.4403C6.31461 19.9668 1.82712 16.3329 1.30063 11.3237C0.77417 6.31461 4.40805 1.82712 9.41718 1.30063ZM15.75 10.5C15.75 10.0858 15.4142 9.75 15 9.75L6 9.75L5.89822 9.75684C5.53217 9.80652 5.25 10.1203 5.25 10.5C5.25 10.9142 5.58578 11.25 6 11.25L15 11.25L15.1018 11.2432C15.4678 11.1935 15.75 10.8797 15.75 10.5Z"
		fill-rule="evenodd" />
</svg>