<?xml version="1.0" encoding="UTF-8"?>
<svg viewBox="0 0 24 24" version="1.1" xmlns="http://www.w3.org/2000/svg" xmlns:xlink="http://www.w3.org/1999/xlink">
    <g id="页面-1" stroke="none" stroke-width="1">
        <g id="画板" transform="translate(-635.000000, -841.000000)">
            <g id="编组" transform="translate(635.000000, 841.000000)">
                <path d="M13.898,2.1549 C14.8241068,2.1549 15.6490708,2.72012808 15.9879595,3.56924912 L16.045711,3.7317175 L16.55,5.3439 L21,5.3449 C21.4142136,5.3449 21.75,5.68068644 21.75,6.0949 C21.75,6.47459577 21.4678461,6.78839096 21.1017706,6.83805338 L21,6.8449 L20.165,6.8439 L18.9492843,19.1436636 C18.8018966,20.6188219 17.6031836,21.7547671 16.1407122,21.8399653 L15.964,21.8451 L8.037,21.8451 C6.55501595,21.8451 5.30472019,20.7652914 5.07441161,19.3189865 L5.05172097,19.1437164 L3.821,6.8439 L3,6.8449 C2.58578644,6.8449 2.25,6.50911356 2.25,6.0949 C2.25,5.71520423 2.53215388,5.40140904 2.89822944,5.35174662 L3,5.3449 L4.40103182,5.34365074 C4.40910418,5.34258098 4.41722204,5.341637 4.42538359,5.34082097 C4.48366864,5.33499336 4.54106115,5.33600352 4.59676452,5.34319965 L7.449,5.3439 L7.95526219,3.73180318 C8.23199279,2.84795953 9.01804905,2.23098 9.93052313,2.16145246 L10.103,2.1549 L13.898,2.1549 Z M13.898,3.6549 L10.103,3.6549 C9.81033552,3.6549 9.54945058,3.82251273 9.42618321,4.07983732 L9.38661549,4.18038714 L8.71561549,6.31938714 L8.70999315,6.33721361 C8.70207089,6.36043264 8.69304166,6.383139 8.68296837,6.40526978 L8.71561549,6.31938714 C8.70267113,6.3606509 8.68649018,6.40000336 8.66743978,6.43725273 C8.65872959,6.45427316 8.64942732,6.47078278 8.6395336,6.48689005 C8.63145378,6.50022036 8.62309011,6.51297357 8.61437527,6.52541711 C8.60414337,6.5397626 8.59337268,6.5540066 8.58211865,6.5678417 C8.57301274,6.57932181 8.56346075,6.59038651 8.55361507,6.60113937 C8.54196471,6.61360933 8.53014767,6.62567939 8.5179375,6.63734135 C8.50477085,6.65011427 8.49029995,6.66290633 8.47538247,6.67510557 C8.46640883,6.6823774 8.4576495,6.68923628 8.44873696,6.69590156 C8.43285945,6.70776216 8.41616413,6.71920123 8.39904708,6.72994582 C8.38704237,6.73760594 8.37469457,6.74489892 8.36212632,6.75184171 C8.35024635,6.75822346 8.33860976,6.76423886 8.3268228,6.76994824 C8.30856663,6.77901331 8.28914536,6.78746237 8.26931809,6.79509353 C8.25921894,6.79879252 8.24958356,6.80227465 8.23987516,6.80556043 C8.22144895,6.81194863 8.20226797,6.81758981 8.18278484,6.82246891 C8.16749259,6.82624951 8.15219679,6.8296013 8.13678099,6.83247384 C8.12545323,6.83455012 8.11365613,6.83644097 8.10177056,6.83805338 L8.08481454,6.84027757 C8.06664392,6.84235529 8.04834383,6.84377072 8.02994776,6.84450635 L8,6.8449 L5.329,6.8439 L6.54427789,18.9944722 C6.61614814,19.7131746 7.18787862,20.2713852 7.89407592,20.3383541 L8.037,20.3451 L15.964,20.3451 C16.686906,20.3451 17.298955,19.832321 17.4357953,19.1360942 L17.4567193,18.9945004 L18.658,6.8439 L16.018126,6.8448744 C15.9779883,6.8458642 15.9381647,6.84359579 15.8989952,6.8382469 L15.8006203,6.81810928 C15.765593,6.80847434 15.7315914,6.79636283 15.6988159,6.78197485 C15.6920013,6.77879782 15.6845119,6.7753723 15.6770813,6.77182557 C15.6529506,6.76046041 15.6301018,6.74800331 15.60801,6.7344336 C15.5965512,6.72730962 15.585029,6.71981919 15.5737133,6.7120141 C15.5580647,6.70122698 15.5428479,6.68981773 15.5280941,6.6778597 C15.5165782,6.66863665 15.5050613,6.65875223 15.4938381,6.6485103 C15.4793239,6.6350644 15.4654186,6.62130563 15.4520652,6.60702442 C15.4418842,6.59643983 15.4311923,6.58429739 15.4208792,6.57178214 C15.4082417,6.55613573 15.3966243,6.5408569 15.385595,6.52513541 C15.377607,6.51396835 15.3699008,6.50228019 15.3625051,6.49033848 C15.3517622,6.47288785 15.3418242,6.45535019 15.3325898,6.43739143 C15.3286276,6.4295608 15.3248744,6.4218999 15.3212429,6.41415371 C15.3069583,6.383139 15.2979291,6.36043264 15.2900069,6.33721361 L15.284289,6.3190825 L14.6142622,4.17999682 C14.5272752,3.90217102 14.2886904,3.70336644 14.0059062,3.66261759 L13.898,3.6549 Z M10,8.3449 C10.3796958,8.3449 10.693491,8.62705388 10.7431534,8.99312944 L10.75,9.0949 L10.75,17.0949 C10.75,17.5091136 10.4142136,17.8449 10,17.8449 C9.62030423,17.8449 9.30650904,17.5627461 9.25684662,17.1966706 L9.25,17.0949 L9.25,9.0949 C9.25,8.68068644 9.58578644,8.3449 10,8.3449 Z M14,8.3449 C14.3796958,8.3449 14.693491,8.62705388 14.7431534,8.99312944 L14.75,9.0949 L14.75,17.0949 C14.75,17.5091136 14.4142136,17.8449 14,17.8449 C13.6203042,17.8449 13.306509,17.5627461 13.2568466,17.1966706 L13.25,17.0949 L13.25,9.0949 C13.25,8.68068644 13.5857864,8.3449 14,8.3449 Z" id="形状结合"></path>
            </g>
        </g>
    </g>
</svg>