<?xml version="1.0" encoding="UTF-8"?>
<svg viewBox="0 0 200 160" version="1.1" xmlns="http://www.w3.org/2000/svg" xmlns:xlink="http://www.w3.org/1999/xlink">
    <defs>
        <rect id="path-1" x="9" y="10" width="72" height="61"></rect>
        <mask id="mask-2" maskContentUnits="userSpaceOnUse" maskUnits="objectBoundingBox" x="0" y="0" width="72" height="61" fill="white">
            <use xlink:href="#path-1"></use>
        </mask>
    </defs>
    <g id="页面-1" stroke="none" stroke-width="1" fill="none" fill-rule="evenodd">
        <g id="空状态（文案统一）" transform="translate(-720.000000, -385.000000)">
            <g id="网络异常（页面级" transform="translate(720.000000, 385.000000)">
                <rect id="矩形" x="0" y="0" width="200" height="160"></rect>
                <rect id="矩形" fill="#818181" x="16" y="129" width="158" height="1"></rect>
                <rect id="矩形" fill="#818181" x="178" y="129" width="6" height="1"></rect>
                <g id="编组-2" transform="translate(21.000000, 23.000000)">
                    <use id="矩形" stroke="#EEEEEE" mask="url(#mask-2)" stroke-width="2" stroke-dasharray="2" xlink:href="#path-1"></use>
                    <g id="电脑" transform="translate(12.000000, 22.000000)" stroke="#818181">
                        <path d="M119,0.5 C119.966498,0.5 120.841498,0.891750844 121.474874,1.52512627 C122.108249,2.15850169 122.5,3.03350169 122.5,4 L122.5,4 L122.5,75.5 L9.5,75.5 L9.5,4 C9.5,3.03350169 9.89175084,2.15850169 10.5251263,1.52512627 C11.1585017,0.891750844 12.0335017,0.5 13,0.5 L13,0.5 Z" id="矩形" fill="#EEEEEE"></path>
                        <path d="M131,75.5 L131.5,80 C131.5,81.2426407 130.99632,82.3676407 130.181981,83.1819805 C129.367641,83.9963203 128.242641,84.5 127,84.5 L127,84.5 L5,84.5 C3.75735931,84.5 2.63235931,83.9963203 1.81801948,83.1819805 C1.00367966,82.3676407 0.5,81.2426407 0.5,80 L0.5,80 L0.5,76 L131,75.5 Z" id="矩形备份" fill="#FFFFFF"></path>
                        <path d="M83.3333333,75.5 L82.7565333,77.4776 C82.6681778,77.7805333 82.4851556,78.0361333 82.2453333,78.216 C82.0055111,78.3958667 81.7088889,78.5 81.3933333,78.5 L81.3933333,78.5 L51.6066667,78.5 C51.2911111,78.5 50.9944889,78.3958667 50.7546667,78.216 C50.5148444,78.0361333 50.3318222,77.7805333 50.2434667,77.4776 L50.2434667,77.4776 L49.6666667,75.5 L83.3333333,75.5 Z" id="矩形" fill="#EEEEEE"></path>
                        <path d="M116,4.5 C116.690356,4.5 117.315356,4.77982203 117.767767,5.23223305 C118.220178,5.68464406 118.5,6.30964406 118.5,7 L118.5,7 L118.5,75.5 L13.5,75.5 L13.5,7 C13.5,6.30964406 13.779822,5.68464406 14.232233,5.23223305 C14.6846441,4.77982203 15.3096441,4.5 16,4.5 L16,4.5 Z" id="矩形" fill="#FFFFFF"></path>
                    </g>
                    <circle id="椭圆形" fill="#0067D1" cx="79" cy="64" r="15"></circle>
                    <g id="编组-65" transform="translate(70.000000, 57.000000)" fill="#FFFFFF" stroke-width="0.5">
                        <path d="M10.2833333,11.7166667 C10.4029945,11.8363279 10.4029945,12.030337 10.2833333,12.1499981 C10.283333,12.1499985 10.2833327,12.1499988 10.2833324,12.1499991 L9.43332422,13 L9.43332422,13 L10.2833324,13.8500009 C10.4029941,13.9696616 10.4029949,14.1636707 10.2833343,14.2833324 C10.283334,14.2833327 10.2833336,14.283333 10.2833333,14.2833333 C10.1636721,14.4029945 9.96966304,14.4029945 9.85000185,14.2833333 C9.85000154,14.283333 9.85000123,14.2833327 9.85000093,14.2833324 L9,13.4333242 L9,13.4333242 L8.14999907,14.2833324 C8.0303384,14.4029941 7.83632929,14.4029949 7.71666759,14.2833343 C7.71666728,14.283334 7.71666698,14.2833336 7.71666667,14.2833333 C7.59700651,14.1636732 7.59700651,13.9696657 7.71666667,13.8500056 C7.7166676,13.8500047 7.71666853,13.8500037 7.71666946,13.8500028 L8.56669415,13 L8.56669415,13 L7.71666946,12.1499972 C7.59700776,12.0303386 7.59700526,11.8363312 7.71666388,11.7166695 C7.71666481,11.7166685 7.71666574,11.7166676 7.71666667,11.7166667 C7.83632682,11.5970065 8.03033426,11.5970065 8.14999442,11.7166667 C8.14999535,11.7166676 8.14999628,11.7166685 8.14999721,11.7166695 L9,12.5666941 L9,12.5666941 L9.85000279,11.7166695 C9.9696614,11.5970078 10.1636688,11.5970053 10.2833305,11.7166639 C10.2833315,11.7166648 10.2833324,11.7166657 10.2833333,11.7166667 Z" id="路径" stroke="#FFFFFF"></path>
                        <path d="M12.7569416,9.0187622 C13.0810195,9.35800014 13.0810195,9.9063336 12.7569416,10.2455715 C12.595317,10.4147567 12.383133,10.4997831 12.170949,10.4997831 C11.958765,10.4997831 11.746581,10.4147567 11.5849565,10.2455715 C10.2977621,8.89816355 8.20161625,8.89816355 6.91442188,10.2455715 C6.59117281,10.5848095 6.06651471,10.5848095 5.7424368,10.2455715 C5.41918773,9.9063336 5.41918773,9.35800014 5.7424368,9.0187622 C7.67695814,6.99374593 10.8224202,6.99374593 12.7569416,9.0187622 Z M15.2636327,6.11227393 C15.5787891,6.43009551 15.5787891,6.94381223 15.2636327,7.26163381 C15.1064575,7.42013818 14.9001147,7.49979679 14.6937719,7.49979679 C14.4874291,7.49979679 14.2810863,7.42013818 14.1239111,7.26163381 C11.2987879,4.41261939 6.70121214,4.41261939 3.87608891,7.26163381 C3.56093251,7.5794554 3.0515237,7.5794554 2.7363673,7.26163381 C2.4212109,6.94381223 2.4212109,6.43009551 2.7363673,6.11227393 C6.19019128,2.62924202 11.8098087,2.62924202 15.2636327,6.11227393 Z M17.7648199,3.62893511 C18.0783934,3.94294089 18.0783934,4.45048988 17.7648199,4.76449566 C17.6084341,4.92109701 17.4031277,4.99979923 17.1978213,4.99979923 C16.9925149,4.99979923 16.7872084,4.92109701 16.6308227,4.76449566 C12.422843,0.550714745 5.57555303,0.551517828 1.3691773,4.76449566 C1.05560382,5.07850145 0.547951614,5.07850145 0.235180111,4.76449566 C-0.0783933703,4.45048988 -0.0783933703,3.94294089 0.235180111,3.62893511 C5.06709884,-1.20964504 12.9329012,-1.20964504 17.7648199,3.62893511 Z" id="形状结合" stroke="#0067D1"></path>
                    </g>
                    <g id="编组" transform="translate(0.680000, 0.000000)">
                        <circle id="椭圆形" stroke="#818181" fill="#FFFFFF" cx="9.32" cy="9" r="8.5"></circle>
                        <path d="M10.32,10 L10.32,6 C10.32,5.44771525 9.87228475,5 9.32,5 C8.76771525,5 8.32,5.44771525 8.32,6 L8.32,10 C8.32,10.5522847 8.76771525,11 9.32,11 C9.87228475,11 10.32,10.5522847 10.32,10 Z" id="路径" fill="#0067D1" fill-rule="nonzero"></path>
                        <path d="M9.32775194,14 C9.60682171,14 9.84196382,13.8992248 10.0331783,13.6976744 C10.2243928,13.496124 10.32,13.255814 10.32,12.9767442 C10.32,12.6976744 10.2218088,12.4651163 10.0254264,12.2790698 C9.82904393,12.0930233 9.59390181,12 9.32,12 C9.04609819,12 8.81095607,12.0981912 8.61457364,12.2945736 C8.41819121,12.4909561 8.32,12.7260982 8.32,13 C8.32,13.2739018 8.41819121,13.5090439 8.61457364,13.7054264 C8.81095607,13.9018088 9.04868217,14 9.32775194,14 Z" id="路径" fill="#0067D1" fill-rule="nonzero"></path>
                    </g>
                    <g id="编组" transform="translate(110.000000, 5.000000)">
                        <path d="M39.9344737,41 C39.661608,41 39.3887423,40.8962595 39.1812506,40.6873573 L34.3123033,35.8186571 C33.8958989,35.4036949 33.8958989,34.7286708 34.3123033,34.3122875 C34.7287077,33.8959042 35.4037661,33.8959042 35.8187494,34.3122875 L40.6876967,39.1809877 C41.1041011,39.597371 41.1041011,40.270974 40.6876967,40.6873573 C40.4802051,40.8962595 40.2073394,41 39.9344737,41" id="Fill-1" stroke="#FFFFFF" stroke-width="0.5" fill="#818181"></path>
                        <path d="M42.6103035,38.7897021 L51.2112533,47.38868 C52.2075649,48.3861984 52.2600024,49.9773815 51.3685657,51.0373909 L51.2112533,51.2102979 C50.6847472,51.736766 49.9921892,52 49.3009812,52 C48.6084231,52 47.9172151,51.736766 47.389359,51.2102979 L38.7897592,42.6099701 C37.7367469,41.557034 37.7367469,39.8426381 38.7897592,38.7897021 C39.8414214,37.736766 41.5586413,37.736766 42.6103035,38.7897021 Z" id="路径" stroke="#818181" stroke-width="0.96" fill="#FFFFFF" stroke-linejoin="round"></path>
                        <path d="M21.5,6 C12.9530217,6 6,12.9530217 6,21.5 C6,30.0469783 12.9530217,37 21.5,37 C30.0469783,37 37,30.0469783 37,21.5 C37,12.9530217 30.0469783,6 21.5,6 Z" id="路径" fill="#FFFFFF"></path>
                        <path d="M21,0.5 C26.6519684,0.5 31.7768466,2.79922147 35.4888126,6.51118742 C39.2007785,10.2231534 41.5,15.3480316 41.5,21 C41.5,26.6519684 39.2007785,31.7768466 35.4888126,35.4888126 C31.7768466,39.2007785 26.6519684,41.5 21,41.5 C15.3480316,41.5 10.2231534,39.2007785 6.51118742,35.4888126 C2.79922147,31.7768466 0.5,26.6519684 0.5,21 C0.5,15.3480316 2.79922147,10.2231534 6.51118742,6.51118742 C10.2231534,2.79922147 15.3480316,0.5 21,0.5 Z" id="路径" stroke="#818181" fill="#EEEEEE"></path>
                        <path d="M21,5.5 C25.2734892,5.5 29.1483683,7.23845957 31.9549544,10.0450456 C34.7615404,12.8516317 36.5,16.7265108 36.5,21 C36.5,25.2734892 34.7615404,29.1483683 31.9549544,31.9549544 C29.1483683,34.7615404 25.2734892,36.5 21,36.5 C16.7265108,36.5 12.8516317,34.7615404 10.0450456,31.9549544 C7.23845957,29.1483683 5.5,25.2734892 5.5,21 C5.5,16.7265108 7.23845957,12.8516317 10.0450456,10.0450456 C12.8516317,7.23845957 16.7265108,5.5 21,5.5 Z" id="路径" stroke="#818181" fill="#FFFFFF"></path>
                    </g>
                </g>
            </g>
        </g>
    </g>
</svg>