<?xml version="1.0" encoding="UTF-8"?>
<svg viewBox="0 0 200 160" version="1.1" xmlns="http://www.w3.org/2000/svg" xmlns:xlink="http://www.w3.org/1999/xlink">
    <defs>
        <rect id="path-1" x="9" y="10" width="72" height="52"></rect>
        <mask id="mask-2" maskContentUnits="userSpaceOnUse" maskUnits="objectBoundingBox" x="0" y="0" width="72" height="52" fill="white">
            <use xlink:href="#path-1"></use>
        </mask>
    </defs>
    <g id="页面-1" stroke="none" stroke-width="1" fill="none" fill-rule="evenodd">
        <g id="空状态（文案统一）" transform="translate(-288.000000, -385.000000)">
            <g id="404-你访问的页面不存在" transform="translate(288.000000, 385.000000)">
                <rect id="矩形" x="0" y="0" width="200" height="160"></rect>
                <rect id="矩形" fill="#818181" x="16" y="129" width="158" height="1"></rect>
                <rect id="矩形" fill="#818181" x="178" y="129" width="6" height="1"></rect>
                <path d="M152.013744,26.5 C154.358537,26.5 156.481349,27.4504153 158.017963,28.9870289 C159.554576,30.5236425 160.504991,32.6464545 160.504993,34.9900054 L160.504993,34.9900054 L160.498756,37.5 L163,37.5 C165.071068,37.5 166.946068,38.3394661 168.303301,39.6966991 C169.660534,41.0539322 170.5,42.9289322 170.5,45 L170.5,45 L170.5,46 C170.5,48.0710678 169.660534,49.9460678 168.303301,51.3033009 C166.946068,52.6605339 165.071068,53.5 163,53.5 L163,53.5 L128.5,53.5 C126.567003,53.5 124.817003,52.7164983 123.550253,51.4497475 C122.283502,50.1829966 121.5,48.4329966 121.5,46.5 C121.5,44.5670034 122.283502,42.8170034 123.550253,41.5502525 C124.817003,40.2835017 126.567003,39.5 128.5,39.5 L128.5,39.5 L129.373763,39.5 C130.210589,36.5215165 131.809554,34.5043406 134.200475,33.4773065 C136.517766,32.481901 139.381641,32.8366627 142.785671,34.4517335 C143.046832,34.5756437 143.300237,34.7017833 143.545356,34.8295405 C143.515385,34.5571524 143.5,34.2803728 143.5,34 C143.5,31.9289322 144.339466,30.0539322 145.696699,28.6966991 C147.053932,27.3394661 148.928932,26.5 151,26.5 L151,26.5 L152.013744,26.5 Z" id="路径-265" stroke="#818181" fill="#FFFFFF"></path>
                <g id="编组-2" transform="translate(21.000000, 23.000000)">
                    <use id="矩形" stroke="#EEEEEE" mask="url(#mask-2)" stroke-width="2" stroke-dasharray="2" xlink:href="#path-1"></use>
                    <g id="电脑" transform="translate(12.000000, 22.000000)">
                        <path d="M119,0.5 C119.966498,0.5 120.841498,0.891750844 121.474874,1.52512627 C122.108249,2.15850169 122.5,3.03350169 122.5,4 L122.5,4 L122.5,75.5 L9.5,75.5 L9.5,4 C9.5,3.03350169 9.89175084,2.15850169 10.5251263,1.52512627 C11.1585017,0.891750844 12.0335017,0.5 13,0.5 L13,0.5 Z" id="矩形" stroke="#818181" fill="#EEEEEE"></path>
                        <path d="M131,75.5 L131.5,80 C131.5,81.2426407 130.99632,82.3676407 130.181981,83.1819805 C129.367641,83.9963203 128.242641,84.5 127,84.5 L127,84.5 L5,84.5 C3.75735931,84.5 2.63235931,83.9963203 1.81801948,83.1819805 C1.00367966,82.3676407 0.5,81.2426407 0.5,80 L0.5,80 L0.5,76 L131,75.5 Z" id="矩形备份" stroke="#818181" fill="#FFFFFF"></path>
                        <path d="M83.3333333,75.5 L82.7733333,77.42 C82.68,77.74 82.4866667,78.01 82.2333333,78.2 C81.98,78.39 81.6666667,78.5 81.3333333,78.5 L81.3333333,78.5 L51.6666667,78.5 C51.3333333,78.5 51.02,78.39 50.7666667,78.2 C50.5133333,78.01 50.32,77.74 50.2266667,77.42 L50.2266667,77.42 L49.6666667,75.5 L83.3333333,75.5 Z" id="矩形" stroke="#818181" fill="#EEEEEE"></path>
                        <path d="M116,4.5 C116.690356,4.5 117.315356,4.77982203 117.767767,5.23223305 C118.220178,5.68464406 118.5,6.30964406 118.5,7 L118.5,7 L118.5,75.5 L13.5,75.5 L13.5,7 C13.5,6.30964406 13.779822,5.68464406 14.232233,5.23223305 C14.6846441,4.77982203 15.3096441,4.5 16,4.5 L16,4.5 Z" id="矩形" stroke="#818181" fill="#FFFFFF"></path>
                        <path d="M97.5,31.5 L97.5,58 C97.5,58.4142136 97.3321068,58.7892136 97.0606602,59.0606602 C96.7892136,59.3321068 96.4142136,59.5 96,59.5 L96,59.5 L36,59.5 C35.5857864,59.5 35.2107864,59.3321068 34.9393398,59.0606602 C34.6678932,58.7892136 34.5,58.4142136 34.5,58 L34.5,58 L34.5,31.5 L97.5,31.5 Z" id="矩形" stroke="#818181" fill="#FFFFFF"></path>
                        <circle id="椭圆形" stroke="#818181" fill="#FFFFFF" cx="66" cy="44" r="3.5"></circle>
                        <circle id="椭圆形备份" stroke="#818181" fill="#FFFFFF" cx="78" cy="44" r="3.5"></circle>
                        <circle id="椭圆形备份-2" stroke="#818181" fill="#FFFFFF" cx="54" cy="44" r="3.5"></circle>
                        <path d="M36,20 L96,20 C97.1045695,20 98,20.8954305 98,22 L98,32 L98,32 L34,32 L34,22 C34,20.8954305 34.8954305,20 36,20 Z" id="矩形" fill="#0067D1"></path>
                    </g>
                    <g id="编组" transform="translate(0.680000, 0.000000)">
                        <circle id="椭圆形" stroke="#818181" fill="#FFFFFF" cx="9.32" cy="9" r="8.5"></circle>
                        <path d="M10.32,10 L10.32,6 C10.32,5.44771525 9.87228475,5 9.32,5 C8.76771525,5 8.32,5.44771525 8.32,6 L8.32,10 C8.32,10.5522847 8.76771525,11 9.32,11 C9.87228475,11 10.32,10.5522847 10.32,10 Z" id="路径" fill="#0067D1" fill-rule="nonzero"></path>
                        <path d="M9.32775194,14 C9.60682171,14 9.84196382,13.8992248 10.0331783,13.6976744 C10.2243928,13.496124 10.32,13.255814 10.32,12.9767442 C10.32,12.6976744 10.2218088,12.4651163 10.0254264,12.2790698 C9.82904393,12.0930233 9.59390181,12 9.32,12 C9.04609819,12 8.81095607,12.0981912 8.61457364,12.2945736 C8.41819121,12.4909561 8.32,12.7260982 8.32,13 C8.32,13.2739018 8.41819121,13.5090439 8.61457364,13.7054264 C8.81095607,13.9018088 9.04868217,14 9.32775194,14 Z" id="路径" fill="#0067D1" fill-rule="nonzero"></path>
                    </g>
                </g>
            </g>
        </g>
    </g>
</svg>