<?xml version="1.0" encoding="UTF-8"?>
<svg viewBox="0 0 100 100" version="1.1" xmlns="http://www.w3.org/2000/svg" xmlns:xlink="http://www.w3.org/1999/xlink">
    <g id="页面-1" stroke="none" stroke-width="1" fill="none" fill-rule="evenodd">
        <g id="空状态（文案统一）" transform="translate(-420.000000, -691.000000)">
            <g id="无访问权限" transform="translate(420.000000, 691.000000)">
                <rect id="矩形" x="0" y="0" width="100" height="100"></rect>
                <rect id="矩形" stroke="#818181" fill="#FFFFFF" x="10.5" y="24.5" width="77" height="63"></rect>
                <rect id="矩形" stroke="#818181" fill="#FFFFFF" x="31.5" y="56.5" width="35" height="8"></rect>
                <path d="M84,24.5 C84.9664983,24.5 85.8414983,24.8917508 86.4748737,25.5251263 C87.1082492,26.1585017 87.5,27.0335017 87.5,28 L87.5,28 L87.5,36.5 L10.5,36.5 L10.5,28 C10.5,27.0335017 10.8917508,26.1585017 11.5251263,25.5251263 C12.1585017,24.8917508 13.0335017,24.5 14,24.5 L14,24.5 L84,24.5 Z" id="矩形" stroke="#818181" fill="#EEEEEE"></path>
                <circle id="椭圆形" fill="#818181" cx="80.5" cy="30.5" r="1.5"></circle>
                <circle id="椭圆形备份" fill="#818181" cx="75.5" cy="30.5" r="1.5"></circle>
                <circle id="椭圆形备份-2" fill="#818181" cx="70.5" cy="30.5" r="1.5"></circle>
                <circle id="椭圆形" stroke="#818181" fill="#FFFFFF" cx="86.5" cy="76.5" r="11"></circle>
                <path d="M86.99985,71 C88.34035,71 89.43085,72.0905 89.43085,73.4305 L89.43,74.625 L89.5,74.625 C90.327,74.625 91,75.298 91,76.125 L91,79.5 C91,80.327 90.327,81 89.5,81 L84.5,81 C83.673,81 83,80.327 83,79.5 L83,76.125 C83,75.298 83.673,74.625 84.5,74.625 L84.569,74.625 L84.56935,73.4305 C84.56935,72.0905 85.65985,71 86.99985,71 Z M87,76.5025 C86.793,76.5025 86.625,76.6705 86.625,76.8775 L86.625,76.8775 L86.625,77.8875 C86.4765,78.002 86.375,78.1735 86.375,78.375 C86.375,78.72 86.655,79 87,79 C87.345,79 87.625,78.72 87.625,78.375 C87.625,78.1735 87.5235,78.002 87.375,77.8875 L87.375,77.8875 L87.375,76.8775 C87.375,76.6705 87.207,76.5025 87,76.5025 Z M86.99985,71.75 C86.07335,71.75 85.31935,72.504 85.31935,73.4305 L85.31935,74.625 L88.68085,74.625 L88.68085,73.4305 C88.68085,72.504 87.92685,71.75 86.99985,71.75 Z" id="形状结合" fill="#0067D1"></path>
                <rect id="矩形" fill="#818181" x="38" y="60" width="4" height="1"></rect>
                <rect id="矩形备份" fill="#818181" x="44" y="60" width="12" height="1"></rect>
            </g>
        </g>
    </g>
</svg>