<?xml version="1.0" encoding="UTF-8"?>
<svg viewBox="0 0 200 160" version="1.1" xmlns="http://www.w3.org/2000/svg" xmlns:xlink="http://www.w3.org/1999/xlink">
    <defs>
        <rect id="path-1" x="9" y="10" width="72" height="52"></rect>
        <mask id="mask-2" maskContentUnits="userSpaceOnUse" maskUnits="objectBoundingBox" x="0" y="0" width="72" height="52" fill="white">
            <use xlink:href="#path-1"></use>
        </mask>
    </defs>
    <g id="页面-1" stroke="none" stroke-width="1" fill="none" fill-rule="evenodd">
        <g id="空状态（文案统一）" transform="translate(-72.000000, -385.000000)">
            <g id="403:无访问权限" transform="translate(72.000000, 385.000000)">
                <rect id="矩形" x="0" y="0" width="200" height="160"></rect>
                <rect id="矩形" fill="#818181" x="16" y="129" width="158" height="1"></rect>
                <rect id="矩形" fill="#818181" x="178" y="129" width="6" height="1"></rect>
                <g id="编组-2" transform="translate(21.000000, 23.000000)">
                    <use id="矩形" stroke="#EEEEEE" mask="url(#mask-2)" stroke-width="2" stroke-dasharray="2" xlink:href="#path-1"></use>
                    <g id="电脑" transform="translate(12.000000, 22.000000)" stroke="#818181">
                        <path d="M119,0.5 C119.966498,0.5 120.841498,0.891750844 121.474874,1.52512627 C122.108249,2.15850169 122.5,3.03350169 122.5,4 L122.5,4 L122.5,75.5 L9.5,75.5 L9.5,4 C9.5,3.03350169 9.89175084,2.15850169 10.5251263,1.52512627 C11.1585017,0.891750844 12.0335017,0.5 13,0.5 L13,0.5 Z" id="矩形" fill="#EEEEEE"></path>
                        <path d="M131,75.5 L131.5,80 C131.5,81.2426407 130.99632,82.3676407 130.181981,83.1819805 C129.367641,83.9963203 128.242641,84.5 127,84.5 L127,84.5 L5,84.5 C3.75735931,84.5 2.63235931,83.9963203 1.81801948,83.1819805 C1.00367966,82.3676407 0.5,81.2426407 0.5,80 L0.5,80 L0.5,76 L131,75.5 Z" id="矩形备份" fill="#FFFFFF"></path>
                        <path d="M83.3333333,75.5 L82.7565333,77.4776 C82.6681778,77.7805333 82.4851556,78.0361333 82.2453333,78.216 C82.0055111,78.3958667 81.7088889,78.5 81.3933333,78.5 L81.3933333,78.5 L51.6066667,78.5 C51.2911111,78.5 50.9944889,78.3958667 50.7546667,78.216 C50.5148444,78.0361333 50.3318222,77.7805333 50.2434667,77.4776 L50.2434667,77.4776 L49.6666667,75.5 L83.3333333,75.5 Z" id="矩形" fill="#EEEEEE"></path>
                        <path d="M116,4.5 C116.690356,4.5 117.315356,4.77982203 117.767767,5.23223305 C118.220178,5.68464406 118.5,6.30964406 118.5,7 L118.5,7 L118.5,75.5 L13.5,75.5 L13.5,7 C13.5,6.30964406 13.779822,5.68464406 14.232233,5.23223305 C14.6846441,4.77982203 15.3096441,4.5 16,4.5 L16,4.5 Z" id="矩形" fill="#FFFFFF"></path>
                    </g>
                    <circle id="椭圆形" fill="#0067D1" cx="55.5" cy="63.5" r="15.5"></circle>
                    <path d="M55.239766,55 C57.330946,55 59.032126,56.675008 59.032126,58.733248 L59.032,60.568 L59.14,60.568 C60.43012,60.568 61.48,61.601728 61.48,62.872 L61.48,67.6989965 C61.48,68.9692685 60.43012,70.0029965 59.14,70.0029965 L51.34,70.0029965 C50.04988,70.0029965 49,68.9692685 49,67.6989965 L49,62.872 C49,61.601728 50.04988,60.568 51.34,60.568 L51.448,60.568 L51.448186,58.733248 C51.448186,56.675008 53.149366,55 55.239766,55 Z M55.24,63.45184 C54.91708,63.45184 54.655,63.709888 54.655,64.02784 L54.655,64.02784 L54.655,65.5792 C54.42334,65.755072 54.265,66.018496 54.265,66.328 C54.265,66.85792 54.7018,67.288 55.24,67.288 C55.7782,67.288 56.215,66.85792 56.215,66.328 C56.215,66.018496 56.05666,65.755072 55.825,65.5792 L55.825,65.5792 L55.825,64.02784 C55.825,63.709888 55.56292,63.45184 55.24,63.45184 Z M55.239766,56.152 C53.794426,56.152 52.618186,57.310144 52.618186,58.733248 L52.618186,60.568 L57.862126,60.568 L57.862126,58.733248 C57.862126,57.310144 56.685886,56.152 55.239766,56.152 Z" id="形状结合" fill="#FFFFFF"></path>
                    <g id="编组" transform="translate(0.680000, 0.000000)">
                        <circle id="椭圆形" stroke="#818181" fill="#FFFFFF" cx="9.32" cy="9" r="8.5"></circle>
                        <path d="M10.32,10 L10.32,6 C10.32,5.44771525 9.87228475,5 9.32,5 C8.76771525,5 8.32,5.44771525 8.32,6 L8.32,10 C8.32,10.5522847 8.76771525,11 9.32,11 C9.87228475,11 10.32,10.5522847 10.32,10 Z" id="路径" fill="#0067D1" fill-rule="nonzero"></path>
                        <path d="M9.32775194,14 C9.60682171,14 9.84196382,13.8992248 10.0331783,13.6976744 C10.2243928,13.496124 10.32,13.255814 10.32,12.9767442 C10.32,12.6976744 10.2218088,12.4651163 10.0254264,12.2790698 C9.82904393,12.0930233 9.59390181,12 9.32,12 C9.04609819,12 8.81095607,12.0981912 8.61457364,12.2945736 C8.41819121,12.4909561 8.32,12.7260982 8.32,13 C8.32,13.2739018 8.41819121,13.5090439 8.61457364,13.7054264 C8.81095607,13.9018088 9.04868217,14 9.32775194,14 Z" id="路径" fill="#0067D1" fill-rule="nonzero"></path>
                    </g>
                    <g id="编组" transform="translate(110.000000, 5.000000)">
                        <path d="M39.9344737,41 C39.661608,41 39.3887423,40.8962595 39.1812506,40.6873573 L34.3123033,35.8186571 C33.8958989,35.4036949 33.8958989,34.7286708 34.3123033,34.3122875 C34.7287077,33.8959042 35.4037661,33.8959042 35.8187494,34.3122875 L40.6876967,39.1809877 C41.1041011,39.597371 41.1041011,40.270974 40.6876967,40.6873573 C40.4802051,40.8962595 40.2073394,41 39.9344737,41" id="Fill-1" stroke="#FFFFFF" stroke-width="0.5" fill="#818181"></path>
                        <path d="M42.6103035,38.7897021 L51.2112533,47.38868 C52.2075649,48.3861984 52.2600024,49.9773815 51.3685657,51.0373909 L51.2112533,51.2102979 C50.6847472,51.736766 49.9921892,52 49.3009812,52 C48.6084231,52 47.9172151,51.736766 47.389359,51.2102979 L38.7897592,42.6099701 C37.7367469,41.557034 37.7367469,39.8426381 38.7897592,38.7897021 C39.8414214,37.736766 41.5586413,37.736766 42.6103035,38.7897021 Z" id="路径" stroke="#818181" stroke-width="0.96" fill="#FFFFFF" stroke-linejoin="round"></path>
                        <path d="M21.5,6 C12.9530217,6 6,12.9530217 6,21.5 C6,30.0469783 12.9530217,37 21.5,37 C30.0469783,37 37,30.0469783 37,21.5 C37,12.9530217 30.0469783,6 21.5,6 Z" id="路径" fill="#FFFFFF"></path>
                        <path d="M21,0.5 C26.6519684,0.5 31.7768466,2.79922147 35.4888126,6.51118742 C39.2007785,10.2231534 41.5,15.3480316 41.5,21 C41.5,26.6519684 39.2007785,31.7768466 35.4888126,35.4888126 C31.7768466,39.2007785 26.6519684,41.5 21,41.5 C15.3480316,41.5 10.2231534,39.2007785 6.51118742,35.4888126 C2.79922147,31.7768466 0.5,26.6519684 0.5,21 C0.5,15.3480316 2.79922147,10.2231534 6.51118742,6.51118742 C10.2231534,2.79922147 15.3480316,0.5 21,0.5 Z" id="路径" stroke="#818181" fill="#EEEEEE"></path>
                        <path d="M21,5.5 C25.2734892,5.5 29.1483683,7.23845957 31.9549544,10.0450456 C34.7615404,12.8516317 36.5,16.7265108 36.5,21 C36.5,25.2734892 34.7615404,29.1483683 31.9549544,31.9549544 C29.1483683,34.7615404 25.2734892,36.5 21,36.5 C16.7265108,36.5 12.8516317,34.7615404 10.0450456,31.9549544 C7.23845957,29.1483683 5.5,25.2734892 5.5,21 C5.5,16.7265108 7.23845957,12.8516317 10.0450456,10.0450456 C12.8516317,7.23845957 16.7265108,5.5 21,5.5 Z" id="路径" stroke="#818181" fill="#FFFFFF"></path>
                    </g>
                </g>
                <g id="编组-3" transform="translate(100.000000, 72.000000)" fill="#818181">
                    <path d="M0.5,0 L5.5,0 C5.77614237,-5.07265313e-17 6,0.223857625 6,0.5 C6,0.776142375 5.77614237,1 5.5,1 L0.5,1 C0.223857625,1 3.38176876e-17,0.776142375 0,0.5 C-3.38176876e-17,0.223857625 0.223857625,5.07265313e-17 0.5,0 Z" id="矩形"></path>
                    <path d="M11.5,0 L36.5,0 C36.7761424,-5.07265313e-17 37,0.223857625 37,0.5 C37,0.776142375 36.7761424,1 36.5,1 L11.5,1 C11.2238576,1 11,0.776142375 11,0.5 C11,0.223857625 11.2238576,5.07265313e-17 11.5,0 Z" id="矩形"></path>
                    <path d="M0.5,7 L36.5,7 C36.7761424,7 37,7.22385763 37,7.5 C37,7.77614237 36.7761424,8 36.5,8 L0.5,8 C0.223857625,8 3.38176876e-17,7.77614237 0,7.5 C-3.38176876e-17,7.22385763 0.223857625,7 0.5,7 Z" id="矩形备份-2"></path>
                    <path d="M0.5,14 L36.5,14 C36.7761424,14 37,14.2238576 37,14.5 C37,14.7761424 36.7761424,15 36.5,15 L0.5,15 C0.223857625,15 3.38176876e-17,14.7761424 0,14.5 C-3.38176876e-17,14.2238576 0.223857625,14 0.5,14 Z" id="矩形备份-4"></path>
                    <path d="M0.5,21 L36.5,21 C36.7761424,21 37,21.2238576 37,21.5 C37,21.7761424 36.7761424,22 36.5,22 L0.5,22 C0.223857625,22 3.38176876e-17,21.7761424 0,21.5 C-3.38176876e-17,21.2238576 0.223857625,21 0.5,21 Z" id="矩形备份-5"></path>
                    <path d="M0.5,28 L11.5,28 C11.7761424,28 12,28.2238576 12,28.5 C12,28.7761424 11.7761424,29 11.5,29 L0.5,29 C0.223857625,29 3.38176876e-17,28.7761424 0,28.5 C-3.38176876e-17,28.2238576 0.223857625,28 0.5,28 Z" id="矩形备份-6"></path>
                    <rect id="矩形备份-7" x="16" y="28" width="12" height="1"></rect>
                </g>
            </g>
        </g>
    </g>
</svg>