<?xml version="1.0" encoding="UTF-8"?>
<svg width="100px" height="100px" viewBox="0 0 100 100" version="1.1" xmlns="http://www.w3.org/2000/svg" xmlns:xlink="http://www.w3.org/1999/xlink">
    <!-- Generator: Sketch 63.1 (92452) - https://sketch.com -->
    <desc>Created with Sketch.</desc>
    <g id="线/蓝/light/空页面/数据为空备份" stroke="none" stroke-width="1" fill="none" fill-rule="evenodd">
        <g id="当天无数据统计">
            <rect id="矩形" x="0" y="0" width="100" height="100"></rect>
            <path d="M17,32 L85.6,32 C86.3731986,32 87,32.6268014 87,33.4 L87,84 C87,86.209139 85.209139,88 83,88 L21,88 C18.790861,88 17,86.209139 17,84 L17,32 L17,32 Z" id="矩形备份" fill="#EEEEEE"></path>
            <path d="M85.6,32 C86.3731986,32 87,32.6268014 87,33.4 L87,84 C87,86.209139 85.209139,88 83,88 L21,88 C18.790861,88 17,86.209139 17,84 L17,32 L85.6,32 Z M18,84 C18,85.5976809 19.24892,86.9036609 20.8237272,86.9949073 L21,87 L83,87 C84.5976809,87 85.9036609,85.75108 85.9949073,84.1762728 L86,84 L86,33.4 C86,33.2067003 85.8628872,33.0454251 85.680614,33.0081266 L85.6,33 L18,33 L18,84 Z" id="矩形备份" fill="#818181" fill-rule="nonzero"></path>
            <path d="M13.4,32 L68,32 L68,32 L68,84 C68,86.209139 66.209139,88 64,88 L16,88 C13.790861,88 12,86.209139 12,84 L12,33.4 C12,32.6268014 12.6268014,32 13.4,32 Z" id="矩形" fill="#FFFFFF"></path>
            <path d="M68,32 L68,84 C68,86.209139 66.209139,88 64,88 L16,88 C13.790861,88 12,86.209139 12,84 L12,33.4 C12,32.6268014 12.6268014,32 13.4,32 L68,32 Z M67,33 L13.4,33 C13.2067003,33 13.0454251,33.1371128 13.0081266,33.319386 L13,33.4 L13,84 C13,85.5976809 14.24892,86.9036609 15.8237272,86.9949073 L16,87 L64,87 C65.5976809,87 66.9036609,85.75108 66.9949073,84.1762728 L67,84 L67,33 Z" id="矩形" fill="#818181" fill-rule="nonzero"></path>
            <path d="M1,32 L56.249178,32 C56.9382066,32 57.5787148,32.3546756 57.9443522,32.9386873 L67.0416885,47.4693437 C67.3347619,47.9374531 67.1928671,48.5545137 66.7247577,48.8475871 C66.5656798,48.9471824 66.3817847,49 66.1941014,49 L14.1761075,49 C12.8192658,49 11.5549328,48.3121689 10.8178268,47.1730051 L1,32 L1,32 Z" id="矩形" fill="#FFFFFF" transform="translate(34.500000, 40.500000) scale(-1, 1) translate(-34.500000, -40.500000) "></path>
            <path d="M57.249178,32 C57.9382066,32 58.5787148,32.3546756 58.9443522,32.9386873 L68.0416885,47.4693437 C68.3347619,47.9374531 68.1928671,48.5545137 67.7247577,48.8475871 C67.5656798,48.9471824 67.3817847,49 67.1941014,49 L15.1761075,49 C13.8192658,49 12.5549328,48.3121689 11.8178268,47.1730051 L2,32 L57.249178,32 Z M12.657397,46.6297538 C13.1733712,47.4271685 14.0338003,47.9297124 14.9736029,47.9931742 L15.1761075,48 L67.1941014,48 L58.0967651,33.4693437 C57.9367988,33.2138385 57.6716084,33.0461261 57.3770126,33.0081903 L57.249178,33 L3.838,33 L12.657397,46.6297538 Z" id="矩形" fill="#818181" fill-rule="nonzero" transform="translate(35.097117, 40.500000) scale(-1, 1) translate(-35.097117, -40.500000) "></path>
            <path d="M68,32 L86.9920023,32 C87.6729198,32 88.3070562,32.3464336 88.6749529,32.9194089 L98.011005,47.4597044 C98.309402,47.9244384 98.1745592,48.5430783 97.7098253,48.8414753 C97.5486282,48.9449769 97.3610945,49 97.1695297,49 L80.2877842,49 C78.8703271,49 77.5587266,48.2498353 76.8400474,47.0280805 L68,32 L68,32 Z" id="矩形备份-4" fill="#FFFFFF"></path>
            <path d="M86.9920023,32 C87.6729198,32 88.3070562,32.3464336 88.6749529,32.9194089 L98.011005,47.4597044 C98.309402,47.9244384 98.1745592,48.5430783 97.7098253,48.8414753 C97.5486282,48.9449769 97.3610945,49 97.1695297,49 L80.2877842,49 C78.8703271,49 77.5587266,48.2498353 76.8400474,47.0280805 L68,32 L86.9920023,32 Z M77.7019816,46.5210604 C78.2073029,47.3801067 79.1034659,47.9282904 80.0894739,47.9934578 L80.2877842,48 L97.1695297,48 L87.8334776,33.4597044 C87.6725228,33.2090278 87.4096481,33.0450741 87.1183636,33.0080025 L86.9920023,33 L69.748,33 L77.7019816,46.5210604 Z" id="矩形备份-4" fill="#818181" fill-rule="nonzero"></path>
            <rect id="矩形" fill="#0067D1" x="19" y="67" width="16" height="5" rx="0.84"></rect>
            <rect id="矩形备份-2" fill="#818181" x="19" y="76" width="12" height="1" rx="0.35"></rect>
            <rect id="矩形备份-3" fill="#818181" x="19" y="80" width="6" height="1" rx="0.35"></rect>
            <g id="编组" transform="translate(31.400000, 11.000000)" fill="#818181" fill-rule="nonzero">
                <g id="编组-3" transform="translate(0.012023, 0.000000)">
                    <path d="M19.587977,0.5 L19.587977,7.5 C19.587977,7.77614237 19.3641193,8 19.087977,8 C18.8118346,8 18.587977,7.77614237 18.587977,7.5 L18.587977,0.5 C18.587977,0.223857625 18.8118346,5.07265313e-17 19.087977,0 C19.3641193,-5.07265313e-17 19.587977,0.223857625 19.587977,0.5 Z" id="路径备份"></path>
                    <path d="M36.1759539,3.42490789 L36.1759539,10.4249079 C36.1759539,10.7010503 35.9520963,10.9249079 35.6759539,10.9249079 C35.3998115,10.9249079 35.1759539,10.7010503 35.1759539,10.4249079 L35.1759539,3.42490789 C35.1759539,3.14876552 35.3998115,2.92490789 35.6759539,2.92490789 C35.9520963,2.92490789 36.1759539,3.14876552 36.1759539,3.42490789 Z" id="路径备份" transform="translate(35.675954, 6.924908) rotate(-330.000000) translate(-35.675954, -6.924908) "></path>
                    <path d="M3,3.42490789 L3,10.4249079 C3,10.7010503 2.77614237,10.9249079 2.5,10.9249079 C2.22385763,10.9249079 2,10.7010503 2,10.4249079 L2,3.42490789 C2,3.14876552 2.22385763,2.92490789 2.5,2.92490789 C2.77614237,2.92490789 3,3.14876552 3,3.42490789 Z" id="路径备份" transform="translate(2.500000, 6.924908) rotate(-30.000000) translate(-2.500000, -6.924908) "></path>
                </g>
            </g>
        </g>
    </g>
</svg>