<?xml version="1.0" standalone="no"?><!DOCTYPE svg PUBLIC "-//W3C//DTD SVG 1.1//EN" "http://www.w3.org/Graphics/SVG/1.1/DTD/svg11.dtd"><svg width="16px" height="16px" viewBox="0 0 16 16" version="1.1" xmlns="http://www.w3.org/2000/svg">
<g stroke="none" stroke-width="1" fill="none" fill-rule="evenodd">
    <g transform="translate(-1227.000000, -96.000000)" fill="#ccc">
        <g transform="translate(407.000000, 93.000000)">
            <path d="M820,3 L836,3 L836,19 L820,19 L820,3 Z M821,4 L821,8 L835,8 L835,4 L821,4 Z M821,9 L821,13 L825,
            13 L825,9 L821,9 Z M821,14 L821,18 L825,18 L825,14 L821,14 Z M826,9 L826,13 L830,13 L830,9 L826,9 Z M826,
            14 L826,18 L830,18 L830,14 L826,14 Z M831,9 L831,13 L835,13 L835,9 L831,9 Z M831,14 L831,18 L835,18 L835,
            14 L831,14 Z"></path>
        </g>
    </g>
</g>
</svg>