<?xml version="1.0" standalone="no"?><!DOCTYPE svg PUBLIC "-//W3C//DTD SVG 1.1//EN" "http://www.w3.org/Graphics/SVG/1.1/DTD/svg11.dtd"><svg class="icon" width="20px" height="20px" viewBox="0 0 1024 1024" version="1.1" xmlns="http://www.w3.org/2000/svg"><path fill="#595959" d="M73.142857 336.64h526.628572v43.885714H73.142857zM73.142857 643.657143h526.628572v43.885714H73.142857zM336.457143 117.028571h43.885714v789.942858h-43.885714zM204.8 73.142857h614.4a131.657143 131.657143 0 0 1 131.657143 131.657143v614.4a131.657143 131.657143 0 0 1-131.657143 131.657143H204.8A131.657143 131.657143 0 0 1 73.142857 819.2V204.8A131.84 131.84 0 0 1 204.8 73.142857z m0 43.885714a87.771429 87.771429 0 0 0-87.771429 87.771429v614.4a87.771429 87.771429 0 0 0 87.771429 87.771429h614.4a87.771429 87.771429 0 0 0 87.771429-87.771429V204.8a87.771429 87.771429 0 0 0-87.771429-87.771429zM819.2 73.142857h-219.428571v877.714286h219.428571a131.657143 131.657143 0 0 0 131.657143-131.657143V204.8A131.84 131.84 0 0 0 819.2 73.142857z m44.068571 460.982857h-65.828571v65.828572H753.371429v-65.828572h-65.828572V490.057143h65.828572v-65.828572h44.068571v65.828572h65.828571z" /></svg>