<?xml version="1.0" standalone="no"?><!DOCTYPE svg PUBLIC "-//W3C//DTD SVG 1.1//EN" "http://www.w3.org/Graphics/SVG/1.1/DTD/svg11.dtd"><svg class="icon" width="20px" height="20.00px" viewBox="0 0 1024 1024" version="1.1" xmlns="http://www.w3.org/2000/svg"><path fill="#595959" d="M380.342857 336.457143h526.811429v43.885714H380.342857z m0 307.2h526.811429v43.885714H380.342857zM643.657143 117.028571h43.885714v789.942858h-43.885714zM204.8 73.142857h614.582857A131.474286 131.474286 0 0 1 950.857143 204.8v614.4a131.657143 131.657143 0 0 1-131.657143 131.657143H204.8A131.657143 131.657143 0 0 1 73.142857 819.2V204.8A131.657143 131.657143 0 0 1 204.8 73.142857z m0 43.885714a87.588571 87.588571 0 0 0-87.588571 87.771429v614.4a87.588571 87.588571 0 0 0 87.588571 87.771429h614.582857a87.771429 87.771429 0 0 0 87.771429-87.771429V204.8a87.771429 87.771429 0 0 0-87.771429-87.771429zM204.8 73.142857A131.657143 131.657143 0 0 0 73.142857 204.8v614.4a131.657143 131.657143 0 0 0 131.657143 131.657143h219.428571V73.142857z m131.84 460.8h-65.828571v65.828572h-43.885715v-65.828572h-65.828571v-43.885714h65.828571v-65.828572h43.885715v65.828572h65.828571z" /></svg>