<?xml version="1.0" standalone="no"?><!DOCTYPE svg PUBLIC "-//W3C//DTD SVG 1.1//EN" "http://www.w3.org/Graphics/SVG/1.1/DTD/svg11.dtd"><svg class="icon" width="20px" height="20.00px" viewBox="0 0 1024 1024" version="1.1" xmlns="http://www.w3.org/2000/svg"><path fill="#595959" d="M925.99596 99.038384c-25.470707-25.6-60.121212-39.822222-96.323233-39.822222H194.19798c-36.072727 0-70.723232 14.351515-96.323233 39.822222-25.6 25.6-39.822222 60.121212-39.822222 96.323232v635.474748c0 36.072727 14.351515 70.723232 39.822222 96.323232C123.474747 952.759596 158.125253 967.111111 194.19798 967.111111h635.474747c36.072727 0 70.723232-14.351515 96.323233-39.951515 25.6-25.6 39.951515-60.121212 39.951515-96.323232V195.361616c0-36.072727-14.351515-70.723232-39.951515-96.323232z m-277.850505 5.559596v226.909091H375.725253V104.59798h272.420202zM103.434343 195.361616c0-24.048485 9.567677-47.191919 26.634344-64.129293 17.066667-17.066667 40.080808-26.634343 64.129293-26.634343h136.145454v226.909091H103.434343V195.361616z m90.763637 726.367677c-24.048485 0-47.191919-9.567677-64.129293-26.634344-17.066667-17.066667-26.634343-40.080808-26.634344-64.129292V649.309091h226.909091v272.420202H194.19798z m181.527273 0V649.309091h272.290909v272.420202H375.725253z m544.711111-90.892929c0 24.048485-9.567677 47.191919-26.634344 64.129293-17.066667 17.066667-40.080808 26.634343-64.129293 26.634343H693.527273V649.309091h226.909091v181.527273zM693.527273 331.507071V104.59798h136.145454c24.048485 0 47.191919 9.567677 64.129293 26.634343 17.066667 17.066667 26.634343 40.080808 26.634344 64.129293v136.145455H693.527273z" /></svg>