<?xml version="1.0" encoding="UTF-8"?>
<svg width="32px" height="32px" viewBox="0 0 32 32" version="1.1" xmlns="http://www.w3.org/2000/svg" xmlns:xlink="http://www.w3.org/1999/xlink">
    <g id="画板" stroke="none" stroke-width="1" fill="none" fill-rule="evenodd">
        <path d="M26,15 C29.3137085,15 32,17.6862915 32,21 C32,24.3137085 29.3137085,27 26,27 C22.6862915,27 20,24.3137085 20,21 C20,17.6862915 22.6862915,15 26,15 Z M24.4666667,6 C25.865788,6 27,7.13421197 27,8.53333333 L27.0010101,14.0710334 C26.6740854,14.0242218 26.3398714,14 26,14 L26,8.53333333 C26,7.7335432 25.3876619,7.07677229 24.6062313,7.00626623 L24.4666667,7 L5.53333333,7 C4.7335432,7 4.07677229,7.61233812 4.00626623,8.39376874 L4,8.53333333 L4,22.4666667 C4,22.8557803 4.14494125,23.211041 4.38377965,23.4814048 L9.2966467,16.8310298 C9.57802868,16.4501815 10.0832972,16.3228871 10.5065369,16.5111352 L10.6104608,16.5648069 L14.0257768,18.587196 C14.4448977,18.8353796 14.9754459,18.7435287 15.2882632,18.3849262 L15.3617409,18.2897607 L18.9170546,13.071032 C18.9652388,13.000304 19.022303,12.936054 19.0868482,12.8798572 C19.4713388,12.545097 20.0391315,12.5565597 20.4094486,12.8879173 L20.4976934,12.977406 L22.3053322,15.0533411 C20.3208485,16.2889179 19,18.4902086 19,21 C19,22.4878296 19.4641776,23.8672447 20.255617,25.0013298 L5.53333333,25 C4.13421197,25 3,23.865788 3,22.4666667 L3,8.53333333 C3,7.13421197 4.13421197,6 5.53333333,6 L24.4666667,6 Z M26,23 C25.4477153,23 25,23.4477153 25,24 C25,24.5522847 25.4477153,25 26,25 C26.5522847,25 27,24.5522847 27,24 C27,23.4477153 26.5522847,23 26,23 Z M26,17 L25.9099504,17.0044913 C25.4508762,17.0503987 25.1063894,17.4318086 25.0952242,17.8813792 L25.0995037,17.9950372 L25.4502481,21.5024814 C25.4784917,21.7849172 25.7161555,22 26,22 C26.2523062,22 26.468124,21.830058 26.532805,21.5939295 L26.5497519,21.5024814 L26.9004963,17.9950372 L26.9049876,17.9049876 C26.9049876,17.4051767 26.4998108,17 26,17 Z M9.5,9.5 C10.6045695,9.5 11.5,10.3954305 11.5,11.5 C11.5,12.6045695 10.6045695,13.5 9.5,13.5 C8.3954305,13.5 7.5,12.6045695 7.5,11.5 C7.5,10.3954305 8.3954305,9.5 9.5,9.5 Z" id="形状结合" fill="#CCCCCC" fill-rule="nonzero"></path>
    </g>
</svg>