<?xml version="1.0" encoding="UTF-8"?>
<svg width="125px" height="125px" viewBox="0 0 125 125" version="1.1" xmlns="http://www.w3.org/2000/svg" xmlns:xlink="http://www.w3.org/1999/xlink">
    <title>Event Listening 事件监听</title>
    <defs>
        <linearGradient x1="50%" y1="45.9685271%" x2="50%" y2="100%" id="linearGradient-1">
            <stop stop-color="#ECF3FB" offset="0%"></stop>
            <stop stop-color="#FFFFFF" offset="100%"></stop>
        </linearGradient>
        <linearGradient x1="50.3956523%" y1="35.9331967%" x2="50%" y2="64.0668033%" id="linearGradient-2">
            <stop stop-color="#E3EFFD" stop-opacity="0.00575352382" offset="0%"></stop>
            <stop stop-color="#E5F0FD" offset="34.0601199%"></stop>
            <stop stop-color="#F0F6FE" offset="100%"></stop>
        </linearGradient>
        <linearGradient x1="33.3333333%" y1="34.495573%" x2="96.9740837%" y2="65.4421891%" id="linearGradient-3">
            <stop stop-color="#D5E6F9" offset="0%"></stop>
            <stop stop-color="#F7FBFF" stop-opacity="0" offset="100%"></stop>
        </linearGradient>
        <linearGradient x1="90.9912104%" y1="29.4309598%" x2="33.3333333%" y2="67.7472684%" id="linearGradient-4">
            <stop stop-color="#D5E6F9" offset="0%"></stop>
            <stop stop-color="#E7F0F9" stop-opacity="0" offset="100%"></stop>
        </linearGradient>
        <linearGradient x1="-5.8027489%" y1="27.0499439%" x2="103.630422%" y2="71.1332543%" id="linearGradient-5">
            <stop stop-color="#CEE6FE" offset="0%"></stop>
            <stop stop-color="#8AB5F2" offset="100%"></stop>
        </linearGradient>
        <linearGradient x1="-5.8027489%" y1="27.0499439%" x2="103.630422%" y2="71.1332543%" id="linearGradient-6">
            <stop stop-color="#BFD6F9" offset="0%"></stop>
            <stop stop-color="#F3F6FE" offset="100%"></stop>
        </linearGradient>
        <linearGradient x1="89.8473889%" y1="61.7348066%" x2="0%" y2="61.7348066%" id="linearGradient-7">
            <stop stop-color="#CAD9F3" offset="0%"></stop>
            <stop stop-color="#D5E3F7" offset="100%"></stop>
        </linearGradient>
        <filter x="-18.5%" y="-60.0%" width="136.9%" height="220.0%" filterUnits="objectBoundingBox" id="filter-8">
            <feGaussianBlur stdDeviation="4" in="SourceGraphic"></feGaussianBlur>
        </filter>
        <linearGradient x1="45.6307517%" y1="86.8386573%" x2="108.338285%" y2="-43.8247114%" id="linearGradient-9">
            <stop stop-color="#5073E5" offset="0%"></stop>
            <stop stop-color="#5E7CE0" offset="100%"></stop>
        </linearGradient>
        <linearGradient x1="45.6666837%" y1="86.8386573%" x2="107.85852%" y2="-43.8247114%" id="linearGradient-10">
            <stop stop-color="#5073E5" offset="0%"></stop>
            <stop stop-color="#5E7CE0" offset="100%"></stop>
        </linearGradient>
        <linearGradient x1="44.1014361%" y1="86.8386573%" x2="128.757735%" y2="-43.8247114%" id="linearGradient-11">
            <stop stop-color="#5073E5" offset="0%"></stop>
            <stop stop-color="#5E7CE0" offset="100%"></stop>
        </linearGradient>
        <linearGradient x1="50%" y1="0%" x2="50%" y2="100%" id="linearGradient-12">
            <stop stop-color="#FFCC00" offset="0%"></stop>
            <stop stop-color="#FF9D00" offset="100%"></stop>
        </linearGradient>
    </defs>
    <g id="页面一" stroke="none" stroke-width="1" fill="none" fill-rule="evenodd">
        <g id="-TinyUI-Vue-组件总览3" transform="translate(-1092.000000, -334.000000)">
            <g id="编组-17备份" transform="translate(994.000000, 301.000000)">
                <g id="Event-Listening-事件监听" transform="translate(98.000000, 33.000000)">
                    <g id="编组">
                        <g transform="translate(9.000000, 1.000000)" id="多边形">
                            <polygon fill="url(#linearGradient-1)" opacity="0.54620216" points="53.2605623 0 106.521125 30.75 53.2605623 62 0 30.75"></polygon>
                            <polygon fill="url(#linearGradient-2)" points="53.2605623 61.5 106.521125 86.75 53.2605623 118 0 86.75"></polygon>
                            <polygon fill="url(#linearGradient-3)" opacity="0.600606283" points="53.2605623 62 53.2605623 123 7.39138783e-15 92.25 0 30.75"></polygon>
                            <polygon fill="url(#linearGradient-4)" opacity="0.791265578" points="53.2605623 62 106.521125 30.75 106.521125 92.25 53.2605623 123"></polygon>
                            <polygon fill="url(#linearGradient-5)" points="53.2605623 118.007802 53.2605623 123 7.39138783e-15 92.25 0 86.9161706"></polygon>
                            <polygon fill="url(#linearGradient-6)" transform="translate(79.630281, 104.958085) scale(-1, 1) translate(-79.630281, -104.958085) " points="106.260562 118.007802 106.260562 123 53 92.25 53 86.9161706"></polygon>
                        </g>
                        <ellipse id="椭圆形" fill="url(#linearGradient-7)" filter="url(#filter-8)" cx="62.5" cy="90" rx="32.5" ry="10"></ellipse>
                    </g>
                    <polygon id="矩形" fill="url(#linearGradient-9)" opacity="0.204287574" points="45.3023256 46 68.415003 46 73.6976744 51.4732821 73.6976744 79 45.3023256 79"></polygon>
                    <path d="M66.4178571,82.5714286 L44.1428571,82.5714286 C43.1946429,82.5714286 42.4285714,81.8053571 42.4285714,80.8571429 L42.4285714,43.1428571 C42.4285714,42.1946429 43.1946429,41.4285714 44.1428571,41.4285714 L64.7089286,41.4285714 L64.7089286,50 C64.7089286,51.8910714 66.2410714,53.4285714 68.1375,53.4285714 L76.7035714,53.4285714 L76.7035714,62 C76.7035714,62.9482143 77.4696429,63.7142857 78.4178571,63.7142857 C79.3660714,63.7142857 80.1321429,62.9482143 80.1321429,62 L80.1321429,49.0464286 C80.1321429,48.5910714 79.9553571,48.1571429 79.6339286,47.8357143 L70.35,38.5035714 C70.0285714,38.1821429 69.5892857,38 69.1339286,38 L42.4285714,38 C40.5375,38 39,39.5375 39,41.4285714 L39,82.5714286 C39,84.4625 40.5321429,86 42.4285714,86 L66.4232143,86 C67.3714286,86 68.1375,85.2339286 68.1375,84.2857143 C68.1321429,83.3375 67.3660714,82.5714286 66.4178571,82.5714286 Z M69.8464286,50 C68.8982143,50 68.1321429,49.2339286 68.1321429,48.2857143 L68.1321429,41.4285714 L76.6982143,50 L69.8464286,50 Z" id="形状" fill="url(#linearGradient-10)"></path>
                    <path d="M65.7035714,70.5714286 L48.5178571,70.5714286 C47.5696429,70.5714286 46.8035714,71.3375 46.8035714,72.2857143 C46.8035714,73.2339286 47.5696429,74 48.5178571,74 L65.7089286,74 C66.6571429,74 67.4232143,73.2339286 67.4232143,72.2857143 C67.4178571,71.3375 66.6517857,70.5714286 65.7035714,70.5714286 Z M69.0785714,60.2857143 L48.5178571,60.2857143 C47.5696429,60.2857143 46.8035714,61.0517857 46.8035714,62 C46.8035714,62.9482143 47.5696429,63.7142857 48.5178571,63.7142857 L69.0839286,63.7142857 C70.0321429,63.7142857 70.7982143,62.9482143 70.7982143,62 C70.7928571,61.0517857 70.0267857,60.2857143 69.0785714,60.2857143 Z M48.5178571,53.4285714 L58.7982143,53.4285714 C59.7464286,53.4285714 60.5125,52.6625 60.5125,51.7142857 C60.5125,50.7660714 59.7464286,50 58.7982143,50 L48.5178571,50 C47.5696429,50 46.8035714,50.7660714 46.8035714,51.7142857 C46.8035714,52.6625 47.5696429,53.4285714 48.5178571,53.4285714 Z" id="形状" fill="url(#linearGradient-11)"></path>
                    <path d="M75.1071429,73.3571429 C76.0553571,73.3571429 76.8214286,74.1232143 76.8214286,75.0714286 L76.8214286,84.2321429 C76.8214286,85.1803571 76.0553571,85.9464286 75.1071429,85.9464286 C74.1589286,85.9464286 73.3928571,85.1803571 73.3928571,84.2321429 L73.3928571,75.0714286 C73.3928571,74.1232143 74.1589286,73.3571429 75.1071429,73.3571429 Z M80.2392857,64.3357143 C82.2,65.0535714 83.8821429,66.3339286 85.0982143,68.0428571 C86.3410714,69.7892857 87,71.8464286 87,74 C87,75.5428571 86.6678571,77.0214286 86.0089286,78.4089286 C85.7142857,79.025 85.1035714,79.3839286 84.4607143,79.3839286 C84.2142857,79.3839286 83.9625,79.3303571 83.7267857,79.2178571 C82.8696429,78.8107143 82.5053571,77.7875 82.9125,76.9357143 C83.3517857,76.0142857 83.5714286,75.0285714 83.5714286,74 C83.5714286,71.1285714 81.7607143,68.5410714 79.0660714,67.5553571 C78.1767857,67.2285714 77.7160714,66.2482143 78.0428571,65.3589286 C78.3696429,64.4696429 79.35,64.0089286 80.2392857,64.3357143 Z M77.6785714,68.9482143 C80.0142857,69.8 81.5892857,72.0446429 81.5892857,74.5357143 C81.5892857,75.425 81.3964286,76.2821429 81.0160714,77.0857143 C80.7214286,77.7017857 80.1053571,78.0607143 79.4678571,78.0607143 C79.2214286,78.0607143 78.9696429,78.0071429 78.7339286,77.8946429 C77.8767857,77.4875 77.5125,76.4642857 77.9196429,75.6125 C78.0803571,75.275 78.1607143,74.9107143 78.1607143,74.5357143 C78.1607143,73.4803571 77.4964286,72.5321429 76.5053571,72.1678571 C75.6160714,71.8410714 75.1553571,70.8607143 75.4821429,69.9714286 C75.8089286,69.0821429 76.7892857,68.6214286 77.6785714,68.9482143 Z" id="形状结合" fill="url(#linearGradient-12)"></path>
                </g>
            </g>
        </g>
    </g>
</svg>