<?xml version="1.0" encoding="UTF-8"?>
<svg width="125px" height="125px" viewBox="0 0 125 125" version="1.1" xmlns="http://www.w3.org/2000/svg" xmlns:xlink="http://www.w3.org/1999/xlink">
    <title>CreditCardForm 信用卡表单</title>
    <defs>
        <linearGradient x1="50%" y1="45.9685271%" x2="50%" y2="100%" id="linearGradient-1">
            <stop stop-color="#ECF3FB" offset="0%"></stop>
            <stop stop-color="#FFFFFF" offset="100%"></stop>
        </linearGradient>
        <linearGradient x1="50.3956523%" y1="35.9331967%" x2="50%" y2="64.0668033%" id="linearGradient-2">
            <stop stop-color="#E3EFFD" stop-opacity="0.00575352382" offset="0%"></stop>
            <stop stop-color="#E5F0FD" offset="34.0601199%"></stop>
            <stop stop-color="#F0F6FE" offset="100%"></stop>
        </linearGradient>
        <linearGradient x1="33.3333333%" y1="34.495573%" x2="96.9740837%" y2="65.4421891%" id="linearGradient-3">
            <stop stop-color="#D5E6F9" offset="0%"></stop>
            <stop stop-color="#F7FBFF" stop-opacity="0" offset="100%"></stop>
        </linearGradient>
        <linearGradient x1="90.9912104%" y1="29.4309598%" x2="33.3333333%" y2="67.7472684%" id="linearGradient-4">
            <stop stop-color="#D5E6F9" offset="0%"></stop>
            <stop stop-color="#E7F0F9" stop-opacity="0" offset="100%"></stop>
        </linearGradient>
        <linearGradient x1="-5.8027489%" y1="27.0499439%" x2="103.630422%" y2="71.1332543%" id="linearGradient-5">
            <stop stop-color="#CEE6FE" offset="0%"></stop>
            <stop stop-color="#8AB5F2" offset="100%"></stop>
        </linearGradient>
        <linearGradient x1="-5.8027489%" y1="27.0499439%" x2="103.630422%" y2="71.1332543%" id="linearGradient-6">
            <stop stop-color="#BFD6F9" offset="0%"></stop>
            <stop stop-color="#F3F6FE" offset="100%"></stop>
        </linearGradient>
        <linearGradient x1="89.8473889%" y1="61.7348066%" x2="0%" y2="61.7348066%" id="linearGradient-7">
            <stop stop-color="#CAD9F3" offset="0%"></stop>
            <stop stop-color="#D5E3F7" offset="100%"></stop>
        </linearGradient>
        <filter x="-18.5%" y="-60.0%" width="136.9%" height="220.0%" filterUnits="objectBoundingBox" id="filter-8">
            <feGaussianBlur stdDeviation="4" in="SourceGraphic"></feGaussianBlur>
        </filter>
        <linearGradient x1="44.4921021%" y1="86.8386573%" x2="123.541555%" y2="-43.8247114%" id="linearGradient-9">
            <stop stop-color="#5073E5" offset="0%"></stop>
            <stop stop-color="#5E7CE0" offset="100%"></stop>
        </linearGradient>
        <linearGradient x1="44.0988019%" y1="50.5523497%" x2="128.792906%" y2="48.5932155%" id="linearGradient-10">
            <stop stop-color="#5073E5" offset="0%"></stop>
            <stop stop-color="#5E7CE0" offset="100%"></stop>
        </linearGradient>
        <linearGradient x1="44.0988019%" y1="51.3380666%" x2="128.792906%" y2="46.5920661%" id="linearGradient-11">
            <stop stop-color="#5073E5" offset="0%"></stop>
            <stop stop-color="#5E7CE0" offset="100%"></stop>
        </linearGradient>
        <path d="M2.48008033,33 L45.50385,33 C46.869769,33 47.9839304,31.7858995 47.9839304,30.2883307 L47.9839304,12.8790924 L0,12.8790924 L0,30.2883307 C0,31.7858995 1.11416135,33 2.48008033,33 Z M45.5145631,0 L2.49079343,0 C1.11416135,0 0.0107130966,1.21410051 0.0107130966,2.71166934 L0.0107130966,8.14035656 L48,8.14035656 L48,2.7063209 C47.9946435,1.21410051 46.8804821,0 45.5145631,0 Z" id="path-12"></path>
        <filter x="-8.3%" y="-6.1%" width="116.7%" height="124.2%" filterUnits="objectBoundingBox" id="filter-13">
            <feOffset dx="0" dy="2" in="SourceAlpha" result="shadowOffsetOuter1"></feOffset>
            <feGaussianBlur stdDeviation="1" in="shadowOffsetOuter1" result="shadowBlurOuter1"></feGaussianBlur>
            <feColorMatrix values="0 0 0 0 0.368627451   0 0 0 0 0.48627451   0 0 0 0 0.878431373  0 0 0 0.349865467 0" type="matrix" in="shadowBlurOuter1"></feColorMatrix>
        </filter>
    </defs>
    <g id="页面一" stroke="none" stroke-width="1" fill="none" fill-rule="evenodd">
        <g id="-TinyUI-Vue-组件总览" transform="translate(-1478.000000, -2255.000000)">
            <g id="编组-14备份-13" transform="translate(1380.000000, 2225.000000)">
                <g id="CreditCardForm-信用卡表单" transform="translate(98.000000, 30.000000)">
                    <g id="编组">
                        <g transform="translate(9.000000, 1.000000)" id="多边形">
                            <polygon fill="url(#linearGradient-1)" opacity="0.54620216" points="53.2605623 0 106.521125 30.75 53.2605623 62 0 30.75"></polygon>
                            <polygon fill="url(#linearGradient-2)" points="53.2605623 61.5 106.521125 86.75 53.2605623 118 0 86.75"></polygon>
                            <polygon fill="url(#linearGradient-3)" opacity="0.600606283" points="53.2605623 62 53.2605623 123 7.39138783e-15 92.25 0 30.75"></polygon>
                            <polygon fill="url(#linearGradient-4)" opacity="0.791265578" points="53.2605623 62 106.521125 30.75 106.521125 92.25 53.2605623 123"></polygon>
                            <polygon fill="url(#linearGradient-5)" points="53.2605623 118.007802 53.2605623 123 7.39138783e-15 92.25 0 86.9161706"></polygon>
                            <polygon fill="url(#linearGradient-6)" transform="translate(79.630281, 104.958085) scale(-1, 1) translate(-79.630281, -104.958085) " points="106.260562 118.007802 106.260562 123 53 92.25 53 86.9161706"></polygon>
                        </g>
                        <ellipse id="椭圆形" fill="url(#linearGradient-7)" filter="url(#filter-8)" cx="62.5" cy="90" rx="32.5" ry="10"></ellipse>
                    </g>
                    <g id="编组-15" transform="translate(28.500000, 33.000000)" opacity="0.204287574">
                        <path d="M4,0 L12.2725011,0 L12.2725011,0 L53,0 C55.209139,-8.25425059e-15 57,1.790861 57,4 L57,55 C57,57.209139 55.209139,59 53,59 L4,59 C1.790861,59 3.75067146e-15,57.209139 0,55 L0,4 C-1.15871992e-15,1.790861 1.790861,-3.82769592e-17 4,0 Z" id="矩形" fill="url(#linearGradient-9)"></path>
                        <rect id="矩形备份-6" fill="url(#linearGradient-10)" x="8.5" y="25" width="49" height="6" rx="3"></rect>
                        <rect id="矩形备份-20" fill="url(#linearGradient-10)" x="8.5" y="39" width="49" height="6" rx="3"></rect>
                        <rect id="矩形备份-21" fill="url(#linearGradient-11)" x="8.5" y="11" width="31.4821429" height="6" rx="3"></rect>
                    </g>
                    <g id="编组-24" transform="translate(49.000000, 47.000000)">
                        <path d="M2.4809109,33 L45.5190891,33 C46.8854655,33 48,31.0087719 48,28.5526316 L48,4 C48,1.790861 46.209139,-4.05812251e-16 44,0 L4,0 C1.790861,4.05812251e-16 -2.705415e-16,1.790861 0,4 L0,28.5526316 L0,28.5526316 C0,31.008772 1.11453448,33 2.4809109,33 Z" id="路径" fill="#C8D4F8"></path>
                        <g id="信用卡">
                            <g id="形状">
                                <use fill="black" fill-opacity="1" filter="url(#filter-13)" xlink:href="#path-12"></use>
                                <use fill="#5073E5" fill-rule="evenodd" xlink:href="#path-12"></use>
                            </g>
                            <path d="M28.1663877,22.0896272 C28.1663877,21.715235 28.4449281,21.4103728 28.7877469,21.4103728 L43.0575829,21.4103728 C43.4004017,21.4103728 43.6735856,21.715235 43.6735856,22.0896272 L43.6735856,26.1544571 C43.6735856,26.5288493 43.3950452,26.8337115 43.0575829,26.8337115 L28.7931035,26.8337115 C28.4502846,26.8337115 28.1717442,26.5288493 28.1717442,26.1544571 L28.1717442,22.0896272 L28.1663877,22.0896272 Z" id="路径" fill="#FFFFFF" fill-rule="nonzero"></path>
                        </g>
                    </g>
                </g>
            </g>
        </g>
    </g>
</svg>