<?xml version="1.0" encoding="UTF-8"?>
<svg width="125px" height="125px" viewBox="0 0 125 125" version="1.1" xmlns="http://www.w3.org/2000/svg" xmlns:xlink="http://www.w3.org/1999/xlink">
    <title>浮动块 floatbar</title>
    <defs>
        <linearGradient x1="50%" y1="45.9685271%" x2="50%" y2="100%" id="linearGradient-1">
            <stop stop-color="#ECF3FB" offset="0%"></stop>
            <stop stop-color="#FFFFFF" offset="100%"></stop>
        </linearGradient>
        <linearGradient x1="50.3956523%" y1="35.9331967%" x2="50%" y2="64.0668033%" id="linearGradient-2">
            <stop stop-color="#E3EFFD" stop-opacity="0.00575352382" offset="0%"></stop>
            <stop stop-color="#E5F0FD" offset="34.0601199%"></stop>
            <stop stop-color="#F0F6FE" offset="100%"></stop>
        </linearGradient>
        <linearGradient x1="33.3333333%" y1="34.495573%" x2="96.9740837%" y2="65.4421891%" id="linearGradient-3">
            <stop stop-color="#D5E6F9" offset="0%"></stop>
            <stop stop-color="#F7FBFF" stop-opacity="0" offset="100%"></stop>
        </linearGradient>
        <linearGradient x1="90.9912104%" y1="29.4309598%" x2="33.3333333%" y2="67.7472684%" id="linearGradient-4">
            <stop stop-color="#D5E6F9" offset="0%"></stop>
            <stop stop-color="#E7F0F9" stop-opacity="0" offset="100%"></stop>
        </linearGradient>
        <linearGradient x1="-5.8027489%" y1="27.0499439%" x2="103.630422%" y2="71.1332543%" id="linearGradient-5">
            <stop stop-color="#CEE6FE" offset="0%"></stop>
            <stop stop-color="#8AB5F2" offset="100%"></stop>
        </linearGradient>
        <linearGradient x1="-5.8027489%" y1="27.0499439%" x2="103.630422%" y2="71.1332543%" id="linearGradient-6">
            <stop stop-color="#BFD6F9" offset="0%"></stop>
            <stop stop-color="#F3F6FE" offset="100%"></stop>
        </linearGradient>
        <linearGradient x1="89.8473889%" y1="61.7348066%" x2="0%" y2="61.7348066%" id="linearGradient-7">
            <stop stop-color="#CAD9F3" offset="0%"></stop>
            <stop stop-color="#D5E3F7" offset="100%"></stop>
        </linearGradient>
        <filter x="-18.5%" y="-60.0%" width="136.9%" height="220.0%" filterUnits="objectBoundingBox" id="filter-8">
            <feGaussianBlur stdDeviation="4" in="SourceGraphic"></feGaussianBlur>
        </filter>
        <linearGradient x1="44.0988019%" y1="86.8386573%" x2="128.792906%" y2="-43.8247114%" id="linearGradient-9">
            <stop stop-color="#5073E5" offset="0%"></stop>
            <stop stop-color="#5E7CE0" offset="100%"></stop>
        </linearGradient>
        <linearGradient x1="44.0988019%" y1="86.8386573%" x2="128.792906%" y2="-43.8247114%" id="linearGradient-10">
            <stop stop-color="#5073E5" offset="0%"></stop>
            <stop stop-color="#5E7CE0" offset="100%"></stop>
        </linearGradient>
    </defs>
    <g id="页面一" stroke="none" stroke-width="1" fill="none" fill-rule="evenodd">
        <g id="-TinyUI-Vue-组件总览" transform="translate(-1088.000000, -609.000000)">
            <g id="编组-25备份-4" transform="translate(989.000000, 576.000000)">
                <g id="浮动块-floatbar" transform="translate(99.000000, 33.000000)">
                    <g id="编组">
                        <g transform="translate(9.000000, 1.000000)" id="多边形">
                            <polygon fill="url(#linearGradient-1)" opacity="0.54620216" points="53.2605623 0 106.521125 30.75 53.2605623 62 0 30.75"></polygon>
                            <polygon fill="url(#linearGradient-2)" points="53.2605623 61.5 106.521125 86.75 53.2605623 118 0 86.75"></polygon>
                            <polygon fill="url(#linearGradient-3)" opacity="0.600606283" points="53.2605623 62 53.2605623 123 7.39138783e-15 92.25 0 30.75"></polygon>
                            <polygon fill="url(#linearGradient-4)" opacity="0.791265578" points="53.2605623 62 106.521125 30.75 106.521125 92.25 53.2605623 123"></polygon>
                            <polygon fill="url(#linearGradient-5)" points="53.2605623 118.007802 53.2605623 123 7.39138783e-15 92.25 0 86.9161706"></polygon>
                            <polygon fill="url(#linearGradient-6)" transform="translate(79.630281, 104.958085) scale(-1, 1) translate(-79.630281, -104.958085) " points="106.260562 118.007802 106.260562 123 53 92.25 53 86.9161706"></polygon>
                        </g>
                        <ellipse id="椭圆形" fill="url(#linearGradient-7)" filter="url(#filter-8)" cx="62.5" cy="90" rx="32.5" ry="10"></ellipse>
                    </g>
                    <g id="三固定" transform="translate(31.000000, 32.000000)">
                        <rect id="矩形" fill="url(#linearGradient-9)" opacity="0.204287574" x="0" y="0" width="46" height="46" rx="4"></rect>
                        <rect id="矩形" fill="url(#linearGradient-10)" x="11" y="12" width="46" height="46" rx="4"></rect>
                        <g id="编组-4" transform="translate(21.000000, 22.000000)">
                            <path d="M25.9680818,24.1344744 L19.3842376,17.5514611 L17.556198,19.37927 L24.1429439,25.9622833 L26,26 L25.9680818,24.1344744 Z M21.1339326,9.14063895 L18.1597412,8.77217589 L9.13560911,0.51222047 C8.40439326,-0.184087679 7.22922493,-0.166679975 6.52122229,0.54123331 L0.543822902,6.51497697 C-0.169983044,7.22869282 -0.181589645,8.40371282 0.51190475,9.1319351 L8.77580448,18.1578295 L9.14431406,21.1316455 C9.14431406,23.2989046 10.7431233,24.1692898 12.2780963,22.6316093 L22.6340858,12.2769269 C24.1719604,10.7392464 23.304367,9.14063895 21.1339326,9.14063895 Z" id="形状" fill="#FFFFFF" transform="translate(13.000000, 13.000000) scale(-1, 1) translate(-13.000000, -13.000000) "></path>
                            <path d="M22.1840186,16.0311883 C22.0128213,16.0311883 21.8532305,15.9644588 21.7284595,15.8426049 L14.3582681,8.46463979 C14.1145294,8.22093193 14.1087261,7.8118509 14.3524648,7.56524176 L15.6204859,6.25966398 C15.7423552,6.13200749 15.901946,6.06527796 16.0818483,6.06527796 C16.2472423,6.06527796 16.4068331,6.13200749 16.5258007,6.24805885 C16.6505717,6.3641102 16.714408,6.52658211 16.723113,6.69485657 C16.7260146,6.86603233 16.6621783,7.02850423 16.540309,7.15325944 L15.7133387,8.00333564 L22.636676,14.9374043 C22.886218,15.1869147 22.8833163,15.5930945 22.636676,15.8455062 C22.5148067,15.9673601 22.355216,16.0311883 22.1840186,16.0311883 Z" id="路径" fill="#5274E5" transform="translate(18.497641, 11.048233) scale(-1, 1) translate(-18.497641, -11.048233) "></path>
                        </g>
                    </g>
                </g>
            </g>
        </g>
    </g>
</svg>