<?xml version="1.0" encoding="UTF-8"?>
<svg width="125px" height="125px" viewBox="0 0 125 125" version="1.1" xmlns="http://www.w3.org/2000/svg" xmlns:xlink="http://www.w3.org/1999/xlink">
    <title>Image 图片预览</title>
    <defs>
        <linearGradient x1="50%" y1="45.9685271%" x2="50%" y2="100%" id="linearGradient-1">
            <stop stop-color="#ECF3FB" offset="0%"></stop>
            <stop stop-color="#FFFFFF" offset="100%"></stop>
        </linearGradient>
        <linearGradient x1="50.3956523%" y1="35.9331967%" x2="50%" y2="64.0668033%" id="linearGradient-2">
            <stop stop-color="#E3EFFD" stop-opacity="0.00575352382" offset="0%"></stop>
            <stop stop-color="#E5F0FD" offset="34.0601199%"></stop>
            <stop stop-color="#F0F6FE" offset="100%"></stop>
        </linearGradient>
        <linearGradient x1="33.3333333%" y1="34.495573%" x2="96.9740837%" y2="65.4421891%" id="linearGradient-3">
            <stop stop-color="#D5E6F9" offset="0%"></stop>
            <stop stop-color="#F7FBFF" stop-opacity="0" offset="100%"></stop>
        </linearGradient>
        <linearGradient x1="90.9912104%" y1="29.4309598%" x2="33.3333333%" y2="67.7472684%" id="linearGradient-4">
            <stop stop-color="#D5E6F9" offset="0%"></stop>
            <stop stop-color="#E7F0F9" stop-opacity="0" offset="100%"></stop>
        </linearGradient>
        <linearGradient x1="-5.8027489%" y1="27.0499439%" x2="103.630422%" y2="71.1332543%" id="linearGradient-5">
            <stop stop-color="#CEE6FE" offset="0%"></stop>
            <stop stop-color="#8AB5F2" offset="100%"></stop>
        </linearGradient>
        <linearGradient x1="-5.8027489%" y1="27.0499439%" x2="103.630422%" y2="71.1332543%" id="linearGradient-6">
            <stop stop-color="#BFD6F9" offset="0%"></stop>
            <stop stop-color="#F3F6FE" offset="100%"></stop>
        </linearGradient>
        <linearGradient x1="89.8473889%" y1="61.7348066%" x2="0%" y2="61.7348066%" id="linearGradient-7">
            <stop stop-color="#CAD9F3" offset="0%"></stop>
            <stop stop-color="#D5E3F7" offset="100%"></stop>
        </linearGradient>
        <filter x="-18.5%" y="-60.0%" width="136.9%" height="220.0%" filterUnits="objectBoundingBox" id="filter-8">
            <feGaussianBlur stdDeviation="4" in="SourceGraphic"></feGaussianBlur>
        </filter>
        <linearGradient x1="44.0988019%" y1="80.0535976%" x2="128.792906%" y2="-26.5437812%" id="linearGradient-9">
            <stop stop-color="#5073E5" offset="0%"></stop>
            <stop stop-color="#5E7CE0" offset="100%"></stop>
        </linearGradient>
    </defs>
    <g id="页面一" stroke="none" stroke-width="1" fill="none" fill-rule="evenodd">
        <g id="-TinyUI-Vue-组件总览" transform="translate(-1087.000000, -2530.000000)">
            <g id="编组-14备份-16" transform="translate(989.000000, 2500.000000)">
                <g id="Image-图片预览" transform="translate(98.000000, 30.000000)">
                    <g id="编组">
                        <g transform="translate(9.000000, 1.000000)" id="多边形">
                            <polygon fill="url(#linearGradient-1)" opacity="0.54620216" points="53.2605623 0 106.521125 30.75 53.2605623 62 0 30.75"></polygon>
                            <polygon fill="url(#linearGradient-2)" points="53.2605623 61.5 106.521125 86.75 53.2605623 118 0 86.75"></polygon>
                            <polygon fill="url(#linearGradient-3)" opacity="0.600606283" points="53.2605623 62 53.2605623 123 7.39138783e-15 92.25 0 30.75"></polygon>
                            <polygon fill="url(#linearGradient-4)" opacity="0.791265578" points="53.2605623 62 106.521125 30.75 106.521125 92.25 53.2605623 123"></polygon>
                            <polygon fill="url(#linearGradient-5)" points="53.2605623 118.007802 53.2605623 123 7.39138783e-15 92.25 0 86.9161706"></polygon>
                            <polygon fill="url(#linearGradient-6)" transform="translate(79.630281, 104.958085) scale(-1, 1) translate(-79.630281, -104.958085) " points="106.260562 118.007802 106.260562 123 53 92.25 53 86.9161706"></polygon>
                        </g>
                        <ellipse id="椭圆形" fill="url(#linearGradient-7)" filter="url(#filter-8)" cx="62.5" cy="90" rx="32.5" ry="10"></ellipse>
                    </g>
                    <g id="编组-28" transform="translate(39.000000, 40.000000)" fill="#5073E5">
                        <path d="M39.9106545,8.87737324 L8.1483136,8.87737324 C7.38172884,8.87737324 6.76524458,9.49921823 6.76524458,10.2604423 L6.76524458,37.9379048 C6.76524458,38.7044896 7.38708957,39.3209739 8.1483136,39.3209739 L39.9160152,39.3209739 C40.6826,39.3209739 41.2990842,38.6991289 41.2990842,37.9379048 L41.2990842,10.2604423 C41.2990842,9.49385749 40.6772392,8.87737324 39.9106545,8.87737324 Z M37.953987,36.5548358 L10.1103417,36.5548358 C9.79405852,36.5548358 9.53138262,36.2975207 9.53138262,35.9758767 L9.53138262,12.2278311 C9.53138262,11.9061872 9.79405852,11.6435113 10.1157025,11.6435113 L37.9861514,11.6435113 C38.2863525,11.6435113 38.5329462,11.8847442 38.5329462,12.190306 L38.5329462,35.9544338 C38.5329462,36.0616484 38.4900603,36.1635023 38.4096493,36.2385526 L38.2809917,36.3564887 C38.2113022,36.4208175 38.1308912,36.4744248 38.0451195,36.5173107 L37.953987,36.5548358 L37.953987,36.5548358 Z" id="形状"></path>
                        <path d="M36.95153,33.2419031 C36.6995756,33.6546795 36.2492741,33.9066339 35.7668081,33.9066339 L12.2921599,33.9066339 C11.7721689,33.9066339 11.2950637,33.6171543 11.0591914,33.1561313 C10.8233192,32.6951083 10.866205,32.1375921 11.1664061,31.7140943 L16.5861068,24.1769042 C17.0256868,23.5657807 17.8726826,23.4156801 18.4945276,23.8445388 L22.8956891,26.8733527 L28.5190976,19.7114139 C28.8085772,19.3415233 29.2696002,19.1431762 29.7413447,19.1860621 C30.2130891,19.228948 30.6258655,19.5130668 30.8402948,19.9312039 L36.9997766,31.8856377 C37.2195667,32.319857 37.1981237,32.8291266 36.95153,33.2419031 Z M16.3716775,17.224034 C16.3716775,18.7732857 17.6100067,20.0276971 19.1431762,20.0276971 C20.670985,20.0276971 21.914675,18.7732857 21.914675,17.224034 C21.914675,15.6747822 20.6763458,14.4203537 19.1431762,14.4203537 C17.6100067,14.4150101 16.3716775,15.6694215 16.3716775,17.224034 Z" id="形状"></path>
                        <path d="M2.72861291,3.92941702 C2.72861291,3.26468617 3.26468617,2.72861291 3.92941702,2.72861291 L9.43488943,2.72861291 C9.93343757,2.72861291 10.3354925,2.32655796 10.3354925,1.82800983 L10.3354925,0.900603082 C10.3354925,0.402054948 9.93343757,0 9.43488943,0 L1.20080411,0 C0.536073263,0 0,0.541433996 0,1.20080411 L0,9.44025017 C0,9.89591244 0.369890552,10.265803 0.825552826,10.265803 L1.90306008,10.265803 C2.35872236,10.265803 2.72861291,9.89591244 2.72861291,9.44025017 L2.72861291,3.92941702 Z M44.0652222,2.72861291 C44.7299531,2.72861291 45.2660264,3.26468617 45.2660264,3.92941702 L45.2660264,9.56890775 C45.2660264,9.9548805 45.5769488,10.265803 45.9629216,10.265803 L47.2923833,10.265803 C47.678356,10.265803 47.9892785,9.9548805 47.9892785,9.56890775 L47.9892785,1.20080411 C47.9892785,0.536073263 47.4532053,0 46.7884744,0 L38.436453,0 C38.0772839,0 37.7878043,0.289479562 37.7878043,0.648648649 L37.7878043,2.07996426 C37.7878043,2.43913335 38.0772839,2.72861291 38.436453,2.72861291 L44.0652222,2.72861291 Z M3.92941702,45.2713871 C3.26468617,45.2713871 2.72861291,44.7353138 2.72861291,44.070583 L2.72861291,38.4096493 C2.72861291,38.0290373 2.41769042,37.7181148 2.0370784,37.7181148 L0.69153451,37.7181148 C0.310922493,37.7181148 0,38.0290373 0,38.4096493 L0,46.7991959 C0,47.4639267 0.536073263,48 1.20080411,48 L9.6761224,48 C10.0406522,48 10.3354925,47.7051597 10.3354925,47.3406299 L10.3354925,45.9307572 C10.3354925,45.5662274 10.0406522,45.2713871 9.6761224,45.2713871 L3.92941702,45.2713871 Z M45.2713871,44.070583 C45.2713871,44.7353138 44.7353138,45.2713871 44.070583,45.2713871 L38.4846996,45.2713871 C38.0987268,45.2713871 37.7878043,45.5823096 37.7878043,45.9682823 L37.7878043,47.3031048 C37.7878043,47.6890775 38.0987268,48 38.4846996,48 L46.7991959,48 C47.4639267,48 48,47.4639267 48,46.7991959 L48,38.3935671 C48,38.0183158 47.6944382,37.7181148 47.3245477,37.7181148 L45.9522001,37.7181148 C45.5769488,37.7181148 45.2767478,38.0236766 45.2767478,38.3935671 L45.2767478,44.070583 L45.2713871,44.070583 Z" id="形状"></path>
                    </g>
                    <g id="编组-3" transform="translate(53.150000, 46.000000)" fill="url(#linearGradient-9)" opacity="0.204287574">
                        <rect id="矩形备份-23" x="0" y="0" width="31" height="28" rx="4"></rect>
                    </g>
                </g>
            </g>
        </g>
    </g>
</svg>