<?xml version="1.0" encoding="UTF-8"?>
<svg width="125px" height="125px" viewBox="0 0 125 125" version="1.1" xmlns="http://www.w3.org/2000/svg" xmlns:xlink="http://www.w3.org/1999/xlink">
    <title>NavMenu 导航菜单</title>
    <defs>
        <linearGradient x1="50%" y1="45.9685271%" x2="50%" y2="100%" id="linearGradient-1">
            <stop stop-color="#ECF3FB" offset="0%"></stop>
            <stop stop-color="#FFFFFF" offset="100%"></stop>
        </linearGradient>
        <linearGradient x1="50.3956523%" y1="35.9331967%" x2="50%" y2="64.0668033%" id="linearGradient-2">
            <stop stop-color="#E3EFFD" stop-opacity="0.00575352382" offset="0%"></stop>
            <stop stop-color="#E5F0FD" offset="34.0601199%"></stop>
            <stop stop-color="#F0F6FE" offset="100%"></stop>
        </linearGradient>
        <linearGradient x1="33.3333333%" y1="34.495573%" x2="96.9740837%" y2="65.4421891%" id="linearGradient-3">
            <stop stop-color="#D5E6F9" offset="0%"></stop>
            <stop stop-color="#F7FBFF" stop-opacity="0" offset="100%"></stop>
        </linearGradient>
        <linearGradient x1="90.9912104%" y1="29.4309598%" x2="33.3333333%" y2="67.7472684%" id="linearGradient-4">
            <stop stop-color="#D5E6F9" offset="0%"></stop>
            <stop stop-color="#E7F0F9" stop-opacity="0" offset="100%"></stop>
        </linearGradient>
        <linearGradient x1="-5.8027489%" y1="27.0499439%" x2="103.630422%" y2="71.1332543%" id="linearGradient-5">
            <stop stop-color="#CEE6FE" offset="0%"></stop>
            <stop stop-color="#8AB5F2" offset="100%"></stop>
        </linearGradient>
        <linearGradient x1="-5.8027489%" y1="27.0499439%" x2="103.630422%" y2="71.1332543%" id="linearGradient-6">
            <stop stop-color="#BFD6F9" offset="0%"></stop>
            <stop stop-color="#F3F6FE" offset="100%"></stop>
        </linearGradient>
        <linearGradient x1="89.8473889%" y1="61.7348066%" x2="0%" y2="61.7348066%" id="linearGradient-7">
            <stop stop-color="#CAD9F3" offset="0%"></stop>
            <stop stop-color="#D5E3F7" offset="100%"></stop>
        </linearGradient>
        <filter x="-18.5%" y="-60.0%" width="136.9%" height="220.0%" filterUnits="objectBoundingBox" id="filter-8">
            <feGaussianBlur stdDeviation="4" in="SourceGraphic"></feGaussianBlur>
        </filter>
        <linearGradient x1="44.0988019%" y1="64.7306828%" x2="128.792906%" y2="12.4822899%" id="linearGradient-9">
            <stop stop-color="#5073E5" offset="0%"></stop>
            <stop stop-color="#5E7CE0" offset="100%"></stop>
        </linearGradient>
        <linearGradient x1="44.0988019%" y1="50.5098776%" x2="128.792906%" y2="48.7013881%" id="linearGradient-10">
            <stop stop-color="#5073E5" offset="0%"></stop>
            <stop stop-color="#5E7CE0" offset="100%"></stop>
        </linearGradient>
        <linearGradient x1="44.0988019%" y1="52.3653494%" x2="128.792906%" y2="43.9756701%" id="linearGradient-11">
            <stop stop-color="#5073E5" offset="0%"></stop>
            <stop stop-color="#5E7CE0" offset="100%"></stop>
        </linearGradient>
        <path d="M2,0 L74,0 C75.1045695,-2.02906125e-16 76,0.8954305 76,2 L76,18 C76,19.1045695 75.1045695,20 74,20 L2,20 C0.8954305,20 1.3527075e-16,19.1045695 0,18 L0,2 C-1.3527075e-16,0.8954305 0.8954305,2.02906125e-16 2,0 Z" id="path-12"></path>
        <filter x="-5.3%" y="-10.0%" width="110.5%" height="140.0%" filterUnits="objectBoundingBox" id="filter-13">
            <feOffset dx="0" dy="2" in="SourceAlpha" result="shadowOffsetOuter1"></feOffset>
            <feGaussianBlur stdDeviation="1" in="shadowOffsetOuter1" result="shadowBlurOuter1"></feGaussianBlur>
            <feColorMatrix values="0 0 0 0 0.368627451   0 0 0 0 0.48627451   0 0 0 0 0.878431373  0 0 0 0.349865467 0" type="matrix" in="shadowBlurOuter1"></feColorMatrix>
        </filter>
    </defs>
    <g id="页面一" stroke="none" stroke-width="1" fill="none" fill-rule="evenodd">
        <g id="-TinyUI-Vue-组件总览" transform="translate(-1087.000000, -884.000000)">
            <g id="编组-25备份-10" transform="translate(989.000000, 851.000000)">
                <g id="NavMenu-导航菜单" transform="translate(98.000000, 33.000000)">
                    <g id="编组">
                        <g transform="translate(9.000000, 1.000000)" id="多边形">
                            <polygon fill="url(#linearGradient-1)" opacity="0.54620216" points="53.2605623 0 106.521125 30.75 53.2605623 62 0 30.75"></polygon>
                            <polygon fill="url(#linearGradient-2)" points="53.2605623 61.5 106.521125 86.75 53.2605623 118 0 86.75"></polygon>
                            <polygon fill="url(#linearGradient-3)" opacity="0.600606283" points="53.2605623 62 53.2605623 123 7.39138783e-15 92.25 0 30.75"></polygon>
                            <polygon fill="url(#linearGradient-4)" opacity="0.791265578" points="53.2605623 62 106.521125 30.75 106.521125 92.25 53.2605623 123"></polygon>
                            <polygon fill="url(#linearGradient-5)" points="53.2605623 118.007802 53.2605623 123 7.39138783e-15 92.25 0 86.9161706"></polygon>
                            <polygon fill="url(#linearGradient-6)" transform="translate(79.630281, 104.958085) scale(-1, 1) translate(-79.630281, -104.958085) " points="106.260562 118.007802 106.260562 123 53 92.25 53 86.9161706"></polygon>
                        </g>
                        <ellipse id="椭圆形" fill="url(#linearGradient-7)" filter="url(#filter-8)" cx="62.5" cy="90" rx="32.5" ry="10"></ellipse>
                    </g>
                    <g id="编组-3" transform="translate(25.000000, 36.000000)">
                        <rect id="矩形备份-6" fill="url(#linearGradient-9)" opacity="0.204287574" x="4" y="10" width="68" height="43" rx="4"></rect>
                        <path d="M16,28 L61,28 C62.6568542,28 64,29.3431458 64,31 C64,32.6568542 62.6568542,34 61,34 L16,34 C14.3431458,34 13,32.6568542 13,31 C13,29.3431458 14.3431458,28 16,28 Z" id="形状结合备份" fill="url(#linearGradient-10)" opacity="0.604724702"></path>
                        <path d="M16,41 L34,41 C35.6568542,41 37,42.3431458 37,44 C37,45.6568542 35.6568542,47 34,47 L16,47 C14.3431458,47 13,45.6568542 13,44 C13,42.3431458 14.3431458,41 16,41 Z" id="形状结合备份-17" fill="url(#linearGradient-11)" opacity="0.604724702"></path>
                        <g id="形状结合备份">
                            <use fill="black" fill-opacity="1" filter="url(#filter-13)" xlink:href="#path-12"></use>
                            <use fill="#5073E5" fill-rule="evenodd" xlink:href="#path-12"></use>
                        </g>
                        <path d="M13,5 C15.7614237,5 18,7.23857625 18,10 C18,12.7614237 15.7614237,15 13,15 C10.2385763,15 8,12.7614237 8,10 C8,7.23857625 10.2385763,5 13,5 Z" id="矩形" fill="#FFFFFF"></path>
                        <path d="M26,6 L38,6 C39.1045695,6 40,6.8954305 40,8 L40,12 C40,13.1045695 39.1045695,14 38,14 L26,14 C24.8954305,14 24,13.1045695 24,12 L24,8 C24,6.8954305 24.8954305,6 26,6 Z" id="矩形备份-27" fill="#FFFFFF" opacity="0.801619757"></path>
                        <path d="M48,6 L60,6 C61.1045695,6 62,6.8954305 62,8 L62,12 C62,13.1045695 61.1045695,14 60,14 L48,14 C46.8954305,14 46,13.1045695 46,12 L46,8 C46,6.8954305 46.8954305,6 48,6 Z" id="矩形备份-28" fill="#FFFFFF" opacity="0.801619757"></path>
                    </g>
                </g>
            </g>
        </g>
    </g>
</svg>