<?xml version="1.0" encoding="UTF-8"?>
<svg width="125px" height="125px" viewBox="0 0 125 125" version="1.1" xmlns="http://www.w3.org/2000/svg" xmlns:xlink="http://www.w3.org/1999/xlink">
    <title>Spinner数字微调</title>
    <defs>
        <linearGradient x1="50%" y1="45.9685271%" x2="50%" y2="100%" id="linearGradient-1">
            <stop stop-color="#ECF3FB" offset="0%"></stop>
            <stop stop-color="#FFFFFF" offset="100%"></stop>
        </linearGradient>
        <linearGradient x1="50.3956523%" y1="35.9331967%" x2="50%" y2="64.0668033%" id="linearGradient-2">
            <stop stop-color="#E3EFFD" stop-opacity="0.00575352382" offset="0%"></stop>
            <stop stop-color="#E5F0FD" offset="34.0601199%"></stop>
            <stop stop-color="#F0F6FE" offset="100%"></stop>
        </linearGradient>
        <linearGradient x1="33.3333333%" y1="34.495573%" x2="96.9740837%" y2="65.4421891%" id="linearGradient-3">
            <stop stop-color="#D5E6F9" offset="0%"></stop>
            <stop stop-color="#F7FBFF" stop-opacity="0" offset="100%"></stop>
        </linearGradient>
        <linearGradient x1="90.9912104%" y1="29.4309598%" x2="33.3333333%" y2="67.7472684%" id="linearGradient-4">
            <stop stop-color="#D5E6F9" offset="0%"></stop>
            <stop stop-color="#E7F0F9" stop-opacity="0" offset="100%"></stop>
        </linearGradient>
        <linearGradient x1="-5.8027489%" y1="27.0499439%" x2="103.630422%" y2="71.1332543%" id="linearGradient-5">
            <stop stop-color="#CEE6FE" offset="0%"></stop>
            <stop stop-color="#8AB5F2" offset="100%"></stop>
        </linearGradient>
        <linearGradient x1="-5.8027489%" y1="27.0499439%" x2="103.630422%" y2="71.1332543%" id="linearGradient-6">
            <stop stop-color="#BFD6F9" offset="0%"></stop>
            <stop stop-color="#F3F6FE" offset="100%"></stop>
        </linearGradient>
        <linearGradient x1="89.8473889%" y1="61.7348066%" x2="0%" y2="61.7348066%" id="linearGradient-7">
            <stop stop-color="#CAD9F3" offset="0%"></stop>
            <stop stop-color="#D5E3F7" offset="100%"></stop>
        </linearGradient>
        <filter x="-18.5%" y="-60.0%" width="136.9%" height="220.0%" filterUnits="objectBoundingBox" id="filter-8">
            <feGaussianBlur stdDeviation="4" in="SourceGraphic"></feGaussianBlur>
        </filter>
        <linearGradient x1="44.0988019%" y1="51.1552053%" x2="128.792906%" y2="47.0577971%" id="linearGradient-9">
            <stop stop-color="#5073E5" offset="0%"></stop>
            <stop stop-color="#5E7CE0" offset="100%"></stop>
        </linearGradient>
        <linearGradient x1="49.1990064%" y1="86.8386573%" x2="60.694882%" y2="-43.8247114%" id="linearGradient-10">
            <stop stop-color="#5073E5" offset="0%"></stop>
            <stop stop-color="#5E7CE0" offset="100%"></stop>
        </linearGradient>
        <linearGradient x1="49.1990064%" y1="86.8386573%" x2="60.694882%" y2="-43.8247114%" id="linearGradient-11">
            <stop stop-color="#5073E5" offset="0%"></stop>
            <stop stop-color="#5E7CE0" offset="100%"></stop>
        </linearGradient>
        <linearGradient x1="47.108413%" y1="86.8386573%" x2="88.6085241%" y2="-43.8247114%" id="linearGradient-12">
            <stop stop-color="#5073E5" offset="0%"></stop>
            <stop stop-color="#5E7CE0" offset="100%"></stop>
        </linearGradient>
        <linearGradient x1="47.108413%" y1="86.8386573%" x2="88.6085241%" y2="-43.8247114%" id="linearGradient-13">
            <stop stop-color="#5073E5" offset="0%"></stop>
            <stop stop-color="#5E7CE0" offset="100%"></stop>
        </linearGradient>
        <linearGradient x1="44.0988019%" y1="86.8386573%" x2="128.792906%" y2="-43.8247114%" id="linearGradient-14">
            <stop stop-color="#5073E5" offset="0%"></stop>
            <stop stop-color="#5E7CE0" offset="100%"></stop>
        </linearGradient>
        <linearGradient x1="44.0988019%" y1="86.8386573%" x2="128.792906%" y2="-43.8247114%" id="linearGradient-15">
            <stop stop-color="#5073E5" offset="0%"></stop>
            <stop stop-color="#5E7CE0" offset="100%"></stop>
        </linearGradient>
        <linearGradient x1="46.9891847%" y1="86.8386573%" x2="90.2004625%" y2="-43.8247114%" id="linearGradient-16">
            <stop stop-color="#5073E5" offset="0%"></stop>
            <stop stop-color="#5E7CE0" offset="100%"></stop>
        </linearGradient>
        <linearGradient x1="46.9891847%" y1="86.8386573%" x2="90.2004625%" y2="-43.8247114%" id="linearGradient-17">
            <stop stop-color="#5073E5" offset="0%"></stop>
            <stop stop-color="#5E7CE0" offset="100%"></stop>
        </linearGradient>
        <linearGradient x1="50%" y1="0%" x2="50%" y2="100%" id="linearGradient-18">
            <stop stop-color="#FFCC00" offset="0%"></stop>
            <stop stop-color="#FF9D00" offset="100%"></stop>
        </linearGradient>
        <path d="M98.8031765,18.9507942 L98.8030157,26.182395 L106.035243,26.1828602 L106.035243,30.7029015 L98.8030157,30.702395 L98.8031765,37.9349676 L94.2831352,37.9349676 L94.2830157,30.702395 L87.0510691,30.7029015 L87.0510691,26.1828602 L94.2830157,26.182395 L94.2831352,18.9507942 L98.8031765,18.9507942 Z" id="path-19"></path>
        <filter x="-13.2%" y="-2.8%" width="122.0%" height="122.0%" filterUnits="objectBoundingBox" id="filter-20">
            <feOffset dx="0" dy="1" in="SourceAlpha" result="shadowOffsetOuter1"></feOffset>
            <feGaussianBlur stdDeviation="0.5" in="shadowOffsetOuter1" result="shadowBlurOuter1"></feGaussianBlur>
            <feColorMatrix values="0 0 0 0 0.661752894   0 0 0 0 0.324547702   0 0 0 0 0.00489962574  0 0 0 0.876905321 0" type="matrix" in="shadowBlurOuter1"></feColorMatrix>
        </filter>
        <linearGradient x1="50%" y1="0%" x2="50%" y2="100%" id="linearGradient-21">
            <stop stop-color="#FFCC00" offset="0%"></stop>
            <stop stop-color="#FF9D00" offset="100%"></stop>
        </linearGradient>
        <polygon id="path-22" points="87.0510691 87.0267445 106.035243 87.0267445 106.035243 91.5467858 87.0510691 91.5467858"></polygon>
        <filter x="-13.2%" y="-26.6%" width="122.0%" height="180.9%" filterUnits="objectBoundingBox" id="filter-23">
            <feOffset dx="0" dy="1" in="SourceAlpha" result="shadowOffsetOuter1"></feOffset>
            <feGaussianBlur stdDeviation="0.5" in="shadowOffsetOuter1" result="shadowBlurOuter1"></feGaussianBlur>
            <feColorMatrix values="0 0 0 0 0.661752894   0 0 0 0 0.324547702   0 0 0 0 0.00489962574  0 0 0 0.876905321 0" type="matrix" in="shadowBlurOuter1"></feColorMatrix>
        </filter>
    </defs>
    <g id="页面一" stroke="none" stroke-width="1" fill="none" fill-rule="evenodd">
        <g id="-TinyUI-ICON-1-【9-2】" transform="translate(-1481.000000, -816.000000)">
            <g id="Spinner数字微调" transform="translate(1481.000000, 816.000000)">
                <g id="编组">
                    <g transform="translate(9.000000, 1.000000)" id="多边形">
                        <polygon fill="url(#linearGradient-1)" opacity="0.54620216" points="53.2605623 0 106.521125 30.75 53.2605623 62 0 30.75"></polygon>
                        <polygon fill="url(#linearGradient-2)" points="53.2605623 61.5 106.521125 86.75 53.2605623 118 0 86.75"></polygon>
                        <polygon fill="url(#linearGradient-3)" opacity="0.600606283" points="53.2605623 62 53.2605623 123 7.39138783e-15 92.25 0 30.75"></polygon>
                        <polygon fill="url(#linearGradient-4)" opacity="0.791265578" points="53.2605623 62 106.521125 30.75 106.521125 92.25 53.2605623 123"></polygon>
                        <polygon fill="url(#linearGradient-5)" points="53.2605623 118.007802 53.2605623 123 7.39138783e-15 92.25 0 86.9161706"></polygon>
                        <polygon fill="url(#linearGradient-6)" transform="translate(79.630281, 104.958085) scale(-1, 1) translate(-79.630281, -104.958085) " points="106.260562 118.007802 106.260562 123 53 92.25 53 86.9161706"></polygon>
                    </g>
                    <ellipse id="椭圆形" fill="url(#linearGradient-7)" filter="url(#filter-8)" cx="62.5" cy="90" rx="32.5" ry="10"></ellipse>
                </g>
                <rect id="矩形" fill="url(#linearGradient-9)" opacity="0.303770519" x="14" y="60.22" width="96" height="17" rx="4"></rect>
                <g id="编组-8" transform="translate(14.000000, 47.000000)">
                    <path d="M5.02857143,1.04761905 C4.4,1.74456449 3.61428571,2.3857543 2.67142857,2.99906629 C1.72857143,3.55662265 0.838095238,3.9469121 0,4.16993464 L0,7.4037615 C1.72857143,6.87408297 3.14285714,6.06562625 4.26904762,4.97839136 L4.26904762,20.952381 L7.33333333,20.952381 L7.33333333,1.04761905 L5.02857143,1.04761905 Z" id="路径" stroke="url(#linearGradient-11)" fill="url(#linearGradient-10)"></path>
                    <path d="M18.1334863,0 C15.8657487,0 14.0397782,0.74829932 12.6555747,2.24489796 C11.3008223,3.65515437 10.6234462,5.49712193 10.593995,7.79958137 L14.0397782,7.79958137 C14.0986804,6.18785976 14.4520941,4.95028781 15.1000191,4.144427 C15.7479442,3.28100471 16.7198317,2.84929356 18.0156818,2.84929356 C19.2231784,2.84929356 20.1361637,3.10832025 20.7546376,3.65515437 C21.3436604,4.20198849 21.6676229,5.03663004 21.6676229,6.15907902 C21.6676229,7.31030874 21.1964047,8.40397698 20.2834194,9.41130298 C19.6943966,10.0156986 18.7519602,10.7927786 17.3972079,11.7137624 C14.9527634,13.3542648 13.3329509,14.6206175 12.5672213,15.4840398 C11.1535666,17.0381999 10.4761905,18.8513867 10.4761905,20.952381 L25.1428571,20.952381 L25.1428571,17.9879644 L14.7760566,17.9879644 C15.2472748,16.9518577 16.5431249,15.7430665 18.6930579,14.3615908 C20.7546376,13.0088959 22.2271945,11.9152276 23.0518264,11.0518053 C24.4065787,9.58398744 25.113406,7.97226583 25.113406,6.18785976 C25.113406,4.3458922 24.465481,2.87807431 23.1696309,1.72684458 C21.8443297,0.575614861 20.1656148,0 18.1334863,0 Z" id="路径" stroke="url(#linearGradient-13)" fill="url(#linearGradient-12)"></path>
                    <path d="M35.8020291,1.04761905 C33.8314596,1.04761905 32.1987021,1.58413554 30.9319075,2.71364395 C29.5806599,3.84315236 28.8487341,5.42446413 28.6798282,7.45757926 L31.9171922,7.45757926 C32.0297962,6.24335772 32.4239101,5.33975099 33.0995339,4.74675908 C33.7470067,4.15376717 34.6478384,3.87139007 35.8301801,3.87139007 C36.9843707,3.87139007 37.8570515,4.12552946 38.4482223,4.63380824 C38.9830911,5.14208702 39.264601,5.87626749 39.264601,6.86458734 C39.264601,7.8529072 38.9549401,8.61532538 38.3637693,9.12360416 C37.7444475,9.63188294 36.8436158,9.88602233 35.6612741,9.88602233 L34.2537245,9.88602233 L34.2537245,12.3709408 L35.6612741,12.3709408 C36.9562197,12.3709408 37.9415044,12.6250802 38.6171282,13.1898344 C39.292752,13.7263509 39.6587149,14.5734822 39.6587149,15.7312283 C39.6587149,16.6913105 39.320903,17.4819664 38.6734302,18.1314337 C37.9415044,18.8373765 36.9280687,19.2044667 35.6612741,19.2044667 C34.5070834,19.2044667 33.5781007,18.8656142 32.8743259,18.2161468 C32.0860982,17.5102041 31.6919843,16.4936465 31.6356823,15.1947118 L28.2857143,15.1947118 C28.4546202,17.4537287 29.242848,19.2044667 30.6503976,20.3904505 C31.9171922,21.4634835 33.6062517,22 35.6894251,22 C37.8852024,22 39.6587149,21.3787704 41.0099625,20.1645488 C42.3049081,18.978565 42.952381,17.4537287 42.952381,15.5900398 C42.952381,14.404056 42.6145691,13.4157361 41.9389453,12.6533179 C41.3196234,11.9191375 40.3906407,11.382621 39.2082991,11.0155307 C41.4322274,10.2813503 42.5582671,8.81298935 42.5582671,6.61044795 C42.5582671,4.85970992 41.9389453,3.50429983 40.7284526,2.51597998 C39.489809,1.52766012 37.8289005,1.04761905 35.8020291,1.04761905 Z" id="路径" stroke="url(#linearGradient-13)" fill="url(#linearGradient-12)"></path>
                    <path d="M50.2723688,17.8095238 C49.6851683,17.8095238 49.1780406,17.9963603 48.8043676,18.4234152 C48.3773127,18.8237792 48.1904762,19.3309069 48.1904762,19.9181074 C48.1904762,20.5053079 48.3773127,20.9857446 48.8043676,21.4127995 C49.1780406,21.7864726 49.6851683,22 50.2723688,22 C50.8595693,22 51.3400061,21.7864726 51.767061,21.4127995 C52.1674249,20.9857446 52.3809524,20.5053079 52.3809524,19.9181074 C52.3809524,19.3309069 52.1674249,18.8237792 51.767061,18.4234152 C51.3400061,17.9963603 50.8595693,17.8095238 50.2723688,17.8095238 Z" id="路径" stroke="url(#linearGradient-15)" fill="url(#linearGradient-14)"></path>
                    <path d="M63.5770039,0 C61.4656796,0 59.7162965,0.563342318 58.3590165,1.74932615 C56.9112513,2.93530997 56.1270451,4.59568733 55.9460744,6.73045822 L59.4146787,6.73045822 C59.5353258,5.45552561 59.9575907,4.50673854 60.6814734,3.88409704 C61.3751942,3.26145553 62.3403711,2.96495957 63.6071657,2.96495957 C64.8437986,2.96495957 65.7788136,3.23180593 66.4122109,3.76549865 C66.9852847,4.29919137 67.2869025,5.07008086 67.2869025,6.10781671 C67.2869025,7.14555256 66.9551229,7.94609164 66.3217256,8.47978437 C65.6581665,9.01347709 64.6929897,9.28032345 63.426195,9.28032345 L61.9181062,9.28032345 L61.9181062,11.8894879 L63.426195,11.8894879 C64.8136368,11.8894879 65.869299,12.1563342 66.5931816,12.7493261 C67.3170643,13.3126685 67.7091674,14.2021563 67.7091674,15.4177898 C67.7091674,16.425876 67.347226,17.2560647 66.6535052,17.9380054 C65.869299,18.6792453 64.783475,19.06469 63.426195,19.06469 C62.1895622,19.06469 61.1942236,18.7088949 60.4401791,18.0269542 C59.5956494,17.2857143 59.1733845,16.2183288 59.113061,14.8544474 L55.5238095,14.8544474 C55.7047802,17.2264151 56.5493099,19.06469 58.0573988,20.309973 C59.4146787,21.4366577 61.2243853,22 63.4563568,22 C65.8089754,22 67.7091674,21.3477089 69.1569326,20.0727763 C70.5443744,18.8274933 71.2380952,17.2264151 71.2380952,15.2695418 C71.2380952,14.0242588 70.8761539,12.9865229 70.1522713,12.1859838 C69.4887122,11.4150943 68.4933735,10.851752 67.2265789,10.4663073 C69.6093593,9.69541779 70.8158304,8.15363881 70.8158304,5.84097035 C70.8158304,4.00269542 70.1522713,2.57951482 68.8553149,1.54177898 C67.5281967,0.504043127 65.7486519,0 63.5770039,0 Z" id="路径" stroke="url(#linearGradient-17)" fill="url(#linearGradient-16)"></path>
                    <path d="M81.7735125,0 C79.3838772,0 77.4836852,1.06738544 76.1017274,3.20215633 C74.6909789,5.33692722 74,8.12398922 74,11.5929919 C74,14.8247978 74.6333973,17.3450135 75.9577735,19.1832884 C77.2821497,21.0512129 79.2111324,22 81.7447217,22 C83.7888676,22 85.5163148,21.2884097 86.8982726,19.9245283 C88.2802303,18.5606469 89,16.8113208 89,14.6765499 C89,12.6010782 88.3953935,10.8814016 87.1861804,9.54716981 C85.9769674,8.21293801 84.3646833,7.5606469 82.3493282,7.5606469 C81.3128599,7.5606469 80.3915547,7.73854447 79.5854127,8.15363881 C78.7216891,8.56873315 78.0019194,9.19137466 77.4261036,10.0808625 L77.2821497,10.0808625 L77.2821497,9.81401617 C77.2821497,7.85714286 77.6564299,6.22641509 78.462572,4.92183288 C79.268714,3.52830189 80.3627639,2.84636119 81.7447217,2.84636119 C83.7024952,2.84636119 84.9117083,3.82479784 85.3147793,5.78167116 L88.596929,5.78167116 C88.0786948,1.92722372 85.8042226,0 81.7735125,0 Z M81.483871,10 C82.8709677,10 83.9677419,10.3966102 84.8064516,11.220339 C85.5806452,12.0135593 86,13.0813559 86,14.4237288 C86,15.7661017 85.5806452,16.8644068 84.7419355,17.7186441 C83.9032258,18.5728814 82.8387097,19 81.483871,19 C80.1612903,19 79.0967742,18.6033898 78.2580645,17.8101695 C77.4193548,17.0169492 77,15.9186441 77,14.5457627 C77,13.1423729 77.3870968,12.0135593 78.1935484,11.220339 C78.9677419,10.3966102 80.0645161,10 81.483871,10 Z" id="形状" stroke="url(#linearGradient-17)" fill="url(#linearGradient-16)"></path>
                </g>
                <g id="形状结合">
                    <use fill="black" fill-opacity="1" filter="url(#filter-20)" xlink:href="#path-19"></use>
                    <use fill="url(#linearGradient-18)" fill-rule="evenodd" xlink:href="#path-19"></use>
                </g>
                <g id="形状结合备份">
                    <use fill="black" fill-opacity="1" filter="url(#filter-23)" xlink:href="#path-22"></use>
                    <use fill="url(#linearGradient-21)" fill-rule="evenodd" xlink:href="#path-22"></use>
                </g>
            </g>
        </g>
    </g>
</svg>