<?xml version="1.0" encoding="UTF-8"?>
<svg width="125px" height="125px" viewBox="0 0 125 125" version="1.1" xmlns="http://www.w3.org/2000/svg" xmlns:xlink="http://www.w3.org/1999/xlink">
    <title>Transfer穿梭框 </title>
    <defs>
        <linearGradient x1="50%" y1="45.9685271%" x2="50%" y2="100%" id="linearGradient-1">
            <stop stop-color="#ECF3FB" offset="0%"></stop>
            <stop stop-color="#FFFFFF" offset="100%"></stop>
        </linearGradient>
        <linearGradient x1="50.3956523%" y1="35.9331967%" x2="50%" y2="64.0668033%" id="linearGradient-2">
            <stop stop-color="#E3EFFD" stop-opacity="0.00575352382" offset="0%"></stop>
            <stop stop-color="#E5F0FD" offset="34.0601199%"></stop>
            <stop stop-color="#F0F6FE" offset="100%"></stop>
        </linearGradient>
        <linearGradient x1="33.3333333%" y1="34.495573%" x2="96.9740837%" y2="65.4421891%" id="linearGradient-3">
            <stop stop-color="#D5E6F9" offset="0%"></stop>
            <stop stop-color="#F7FBFF" stop-opacity="0" offset="100%"></stop>
        </linearGradient>
        <linearGradient x1="90.9912104%" y1="29.4309598%" x2="33.3333333%" y2="67.7472684%" id="linearGradient-4">
            <stop stop-color="#D5E6F9" offset="0%"></stop>
            <stop stop-color="#E7F0F9" stop-opacity="0" offset="100%"></stop>
        </linearGradient>
        <linearGradient x1="-5.8027489%" y1="27.0499439%" x2="103.630422%" y2="71.1332543%" id="linearGradient-5">
            <stop stop-color="#CEE6FE" offset="0%"></stop>
            <stop stop-color="#8AB5F2" offset="100%"></stop>
        </linearGradient>
        <linearGradient x1="-5.8027489%" y1="27.0499439%" x2="103.630422%" y2="71.1332543%" id="linearGradient-6">
            <stop stop-color="#BFD6F9" offset="0%"></stop>
            <stop stop-color="#F3F6FE" offset="100%"></stop>
        </linearGradient>
        <linearGradient x1="89.8473889%" y1="61.7348066%" x2="0%" y2="61.7348066%" id="linearGradient-7">
            <stop stop-color="#CAD9F3" offset="0%"></stop>
            <stop stop-color="#D5E3F7" offset="100%"></stop>
        </linearGradient>
        <filter x="-18.5%" y="-60.0%" width="136.9%" height="220.0%" filterUnits="objectBoundingBox" id="filter-8">
            <feGaussianBlur stdDeviation="4" in="SourceGraphic"></feGaussianBlur>
        </filter>
        <linearGradient x1="47.2373893%" y1="86.8386573%" x2="86.8864299%" y2="-43.8247114%" id="linearGradient-9">
            <stop stop-color="#5073E5" offset="0%"></stop>
            <stop stop-color="#5E7CE0" offset="100%"></stop>
        </linearGradient>
        <linearGradient x1="50%" y1="0%" x2="50%" y2="100%" id="linearGradient-10">
            <stop stop-color="#FFCC00" offset="0%"></stop>
            <stop stop-color="#FF9D00" offset="100%"></stop>
        </linearGradient>
        <polygon id="path-11" points="58 46 70 46 64 53"></polygon>
        <filter x="-29.2%" y="-35.7%" width="158.3%" height="200.0%" filterUnits="objectBoundingBox" id="filter-12">
            <feOffset dx="0" dy="1" in="SourceAlpha" result="shadowOffsetOuter1"></feOffset>
            <feMorphology radius="4" operator="erode" in="SourceAlpha" result="shadowInner"></feMorphology>
            <feOffset dx="0" dy="1" in="shadowInner" result="shadowInner"></feOffset>
            <feComposite in="shadowOffsetOuter1" in2="shadowInner" operator="out" result="shadowOffsetOuter1"></feComposite>
            <feGaussianBlur stdDeviation="1" in="shadowOffsetOuter1" result="shadowBlurOuter1"></feGaussianBlur>
            <feColorMatrix values="0 0 0 0 0.661752894   0 0 0 0 0.324547702   0 0 0 0 0.00489962574  0 0 0 0.5 0" type="matrix" in="shadowBlurOuter1"></feColorMatrix>
        </filter>
        <filter x="-45.8%" y="-64.3%" width="191.7%" height="257.1%" filterUnits="objectBoundingBox" id="filter-13">
            <feGaussianBlur stdDeviation="1.5" in="SourceAlpha" result="shadowBlurInner1"></feGaussianBlur>
            <feOffset dx="0" dy="-4" in="shadowBlurInner1" result="shadowOffsetInner1"></feOffset>
            <feComposite in="shadowOffsetInner1" in2="SourceAlpha" operator="arithmetic" k2="-1" k3="1" result="shadowInnerInner1"></feComposite>
            <feColorMatrix values="0 0 0 0 0.841553619   0 0 0 0 0.341832308   0 0 0 0 0  0 0 0 0.5 0" type="matrix" in="shadowInnerInner1"></feColorMatrix>
        </filter>
        <path d="M87.5801307,74.976671 C88.1324154,74.976671 88.5801307,75.4243863 88.5801307,75.976671 C88.5801307,76.2596013 88.4602793,76.5292903 88.2502813,76.7188962 L81.6284839,82.697677 C81.2185643,83.067791 80.5862221,83.0355221 80.2161082,82.6256025 C80.0501841,82.4418333 79.9583333,82.2030442 79.9583333,81.9554519 L79.9582571,78.999671 L44.3672571,79 C43.2626876,79 42.3672571,78.1045695 42.3672571,77 C42.3672571,75.8954305 43.2626876,75 44.3672571,75 L79.9582571,74.999671 L79.9583333,74.976671 L87.5801307,74.976671 Z" id="path-14"></path>
        <filter x="-8.7%" y="-25.1%" width="117.3%" height="200.3%" filterUnits="objectBoundingBox" id="filter-15">
            <feOffset dx="0" dy="2" in="SourceAlpha" result="shadowOffsetOuter1"></feOffset>
            <feGaussianBlur stdDeviation="1" in="shadowOffsetOuter1" result="shadowBlurOuter1"></feGaussianBlur>
            <feColorMatrix values="0 0 0 0 0.368627451   0 0 0 0 0.48627451   0 0 0 0 0.878431373  0 0 0 0.349865467 0" type="matrix" in="shadowBlurOuter1"></feColorMatrix>
        </filter>
        <path d="M76.5801307,62.976671 C77.1324154,62.976671 77.5801307,63.4243863 77.5801307,63.976671 C77.5801307,64.2596013 77.4602793,64.5292903 77.2502813,64.7188962 L70.6284839,70.697677 C70.2185643,71.067791 69.5862221,71.0355221 69.2161082,70.6256025 C69.0501841,70.4418333 68.9583333,70.2030442 68.9583333,69.9554519 L68.9582571,66.999671 L33.3672571,67 C32.2626876,67 31.3672571,66.1045695 31.3672571,65 C31.3672571,63.8954305 32.2626876,63 33.3672571,63 L68.9582571,62.999671 L68.9583333,62.976671 L76.5801307,62.976671 Z" id="path-16"></path>
        <filter x="-8.7%" y="-25.1%" width="117.3%" height="200.3%" filterUnits="objectBoundingBox" id="filter-17">
            <feOffset dx="0" dy="2" in="SourceAlpha" result="shadowOffsetOuter1"></feOffset>
            <feGaussianBlur stdDeviation="1" in="shadowOffsetOuter1" result="shadowBlurOuter1"></feGaussianBlur>
            <feColorMatrix values="0 0 0 0 0.368627451   0 0 0 0 0.48627451   0 0 0 0 0.878431373  0 0 0 0.349865467 0" type="matrix" in="shadowBlurOuter1"></feColorMatrix>
        </filter>
        <linearGradient x1="50%" y1="0%" x2="50%" y2="100%" id="linearGradient-18">
            <stop stop-color="#FFCC00" offset="0%"></stop>
            <stop stop-color="#FF9D00" offset="100%"></stop>
        </linearGradient>
        <polygon id="path-19" points="52.4074074 37.037037 64.4074074 37.037037 58.4074074 44.037037"></polygon>
        <filter x="-28.6%" y="-28.3%" width="152.7%" height="192.9%" filterUnits="objectBoundingBox" id="filter-20">
            <feOffset dx="0" dy="1" in="SourceAlpha" result="shadowOffsetOuter1"></feOffset>
            <feMorphology radius="4" operator="erode" in="SourceAlpha" result="shadowInner"></feMorphology>
            <feOffset dx="0" dy="1" in="shadowInner" result="shadowInner"></feOffset>
            <feComposite in="shadowOffsetOuter1" in2="shadowInner" operator="out" result="shadowOffsetOuter1"></feComposite>
            <feGaussianBlur stdDeviation="1" in="shadowOffsetOuter1" result="shadowBlurOuter1"></feGaussianBlur>
            <feColorMatrix values="0 0 0 0 0.661752894   0 0 0 0 0.324547702   0 0 0 0 0.00489962574  0 0 0 0.5 0" type="matrix" in="shadowBlurOuter1"></feColorMatrix>
        </filter>
        <filter x="-44.6%" y="-55.9%" width="184.8%" height="248.0%" filterUnits="objectBoundingBox" id="filter-21">
            <feGaussianBlur stdDeviation="1.5" in="SourceAlpha" result="shadowBlurInner1"></feGaussianBlur>
            <feOffset dx="0" dy="-4" in="shadowBlurInner1" result="shadowOffsetInner1"></feOffset>
            <feComposite in="shadowOffsetInner1" in2="SourceAlpha" operator="arithmetic" k2="-1" k3="1" result="shadowInnerInner1"></feComposite>
            <feColorMatrix values="0 0 0 0 0.841553619   0 0 0 0 0.341832308   0 0 0 0 0  0 0 0 0.5 0" type="matrix" in="shadowInnerInner1"></feColorMatrix>
        </filter>
    </defs>
    <g id="页面一" stroke="none" stroke-width="1" fill="none" fill-rule="evenodd">
        <g id="-TinyUI-ICON-1-【9-2】-无阴影" transform="translate(-1089.000000, -1061.000000)">
            <g id="Transfer穿梭框-" transform="translate(1089.000000, 1061.000000)">
                <g id="编组">
                    <g transform="translate(9.000000, 1.000000)" id="多边形">
                        <polygon fill="url(#linearGradient-1)" opacity="0.54620216" points="53.2605623 0 106.521125 30.75 53.2605623 62 0 30.75"></polygon>
                        <polygon fill="url(#linearGradient-2)" points="53.2605623 61.5 106.521125 86.75 53.2605623 118 0 86.75"></polygon>
                        <polygon fill="url(#linearGradient-3)" opacity="0.600606283" points="53.2605623 62 53.2605623 123 7.39138783e-15 92.25 0 30.75"></polygon>
                        <polygon fill="url(#linearGradient-4)" opacity="0.791265578" points="53.2605623 62 106.521125 30.75 106.521125 92.25 53.2605623 123"></polygon>
                        <polygon fill="url(#linearGradient-5)" points="53.2605623 118.007802 53.2605623 123 7.39138783e-15 92.25 0 86.9161706"></polygon>
                        <polygon fill="url(#linearGradient-6)" transform="translate(79.630281, 104.958085) scale(-1, 1) translate(-79.630281, -104.958085) " points="106.260562 118.007802 106.260562 123 53 92.25 53 86.9161706"></polygon>
                    </g>
                    <ellipse id="椭圆形" fill="url(#linearGradient-7)" filter="url(#filter-8)" cx="62.5" cy="90" rx="32.5" ry="10"></ellipse>
                </g>
                <rect id="矩形" fill="url(#linearGradient-9)" opacity="0.303770519" x="20" y="27.5" width="39" height="57" rx="4"></rect>
                <rect id="矩形备份-5" fill="url(#linearGradient-9)" opacity="0.303770519" x="65" y="37.5" width="39" height="57" rx="4"></rect>
                <g id="形状结合" transform="translate(64.000000, 49.500000) rotate(-270.000000) translate(-64.000000, -49.500000) ">
                    <use fill="black" fill-opacity="1" filter="url(#filter-12)" xlink:href="#path-11"></use>
                    <use fill="black" fill-opacity="1" filter="url(#filter-13)" xlink:href="#path-11"></use>
                    <path stroke="url(#linearGradient-10)" stroke-width="4" d="M65.6515587,48 L64,49.9268185 L62.3484413,48 L65.6515587,48 Z" stroke-linejoin="square"></path>
                </g>
                <g id="形状结合">
                    <use fill="black" fill-opacity="1" filter="url(#filter-15)" xlink:href="#path-14"></use>
                    <use fill="#5073E5" fill-rule="evenodd" xlink:href="#path-14"></use>
                </g>
                <g id="形状结合备份-11" transform="translate(54.473694, 66.966066) rotate(-180.000000) translate(-54.473694, -66.966066) ">
                    <use fill="black" fill-opacity="1" filter="url(#filter-17)" xlink:href="#path-16"></use>
                    <use fill="#5073E5" fill-rule="evenodd" xlink:href="#path-16"></use>
                </g>
                <g id="形状结合备份-9" transform="translate(58.685185, 40.222222) rotate(-90.000000) translate(-58.685185, -40.222222) ">
                    <use fill="black" fill-opacity="1" filter="url(#filter-20)" xlink:href="#path-19"></use>
                    <use fill="black" fill-opacity="1" filter="url(#filter-21)" xlink:href="#path-19"></use>
                    <path stroke="url(#linearGradient-18)" stroke-width="4" d="M60.0589661,39.037037 L58.4074074,40.9638556 L56.7558487,39.037037 L60.0589661,39.037037 Z" stroke-linejoin="square"></path>
                </g>
                <path d="M29,34.5 L50,34.5 C51.1045695,34.5 52,35.3954305 52,36.5 C52,37.6045695 51.1045695,38.5 50,38.5 L29,38.5 C27.8954305,38.5 27,37.6045695 27,36.5 C27,35.3954305 27.8954305,34.5 29,34.5 Z" id="形状结合备份-7" fill="#5073E5"></path>
                <path d="M74,44.5 L95,44.5 C96.1045695,44.5 97,45.3954305 97,46.5 C97,47.6045695 96.1045695,48.5 95,48.5 L74,48.5 C72.8954305,48.5 72,47.6045695 72,46.5 C72,45.3954305 72.8954305,44.5 74,44.5 Z" id="形状结合备份-14" fill="#5073E5"></path>
                <path d="M29,43.5 L50,43.5 C51.1045695,43.5 52,44.3954305 52,45.5 C52,46.6045695 51.1045695,47.5 50,47.5 L29,47.5 C27.8954305,47.5 27,46.6045695 27,45.5 C27,44.3954305 27.8954305,43.5 29,43.5 Z" id="形状结合备份-12" fill="#5073E5"></path>
                <path d="M74,53.5 L95,53.5 C96.1045695,53.5 97,54.3954305 97,55.5 C97,56.6045695 96.1045695,57.5 95,57.5 L74,57.5 C72.8954305,57.5 72,56.6045695 72,55.5 C72,54.3954305 72.8954305,53.5 74,53.5 Z" id="形状结合备份-15" fill="#5073E5"></path>
                <path d="M29,52.5 L50,52.5 C51.1045695,52.5 52,53.3954305 52,54.5 C52,55.6045695 51.1045695,56.5 50,56.5 L29,56.5 C27.8954305,56.5 27,55.6045695 27,54.5 C27,53.3954305 27.8954305,52.5 29,52.5 Z" id="形状结合备份-13" fill="#5073E5"></path>
            </g>
        </g>
    </g>
</svg>