<?xml version="1.0" encoding="UTF-8"?>
<svg width="32px" height="32px" viewBox="0 0 32 32" version="1.1" xmlns="http://www.w3.org/2000/svg" xmlns:xlink="http://www.w3.org/1999/xlink">
    <title>形状</title>
    <g id="首页" stroke="none" stroke-width="1" fill="none" fill-rule="evenodd">
        <g id="Tiny-Design-首页" transform="translate(-56.000000, -27.000000)" fill="#575D6C" fill-rule="nonzero">
            <g id="导航" transform="translate(0.000000, 1.000000)">
                <path d="M59.3939394,32.8043742 C57.5135099,32.8043742 56,31.287382 56,29.4021871 C56,27.5169922 57.5288039,26 59.3939394,26 C61.2743689,26 62.7878788,27.5169922 62.7878788,29.4021871 C62.7878788,31.2726539 61.2743629,32.7896519 59.3939394,32.8043742 Z M59.3939394,45.4021871 C57.5135099,45.4021871 56,43.8851949 56,42 C56,40.1148051 57.5288039,38.5978129 59.3939394,38.5978129 C61.2743689,38.5978129 62.7878788,40.1148051 62.7878788,42 C62.7878788,43.8851949 61.2743629,45.4021871 59.3939394,45.4021871 Z M59.3939394,58 C57.5135099,58 56,56.4830078 56,54.5978129 C56,52.7273461 57.5288039,51.1956258 59.3939394,51.1956258 C61.2743689,51.1956258 62.7878788,52.712618 62.7878788,54.5978129 C62.7878788,56.4830078 61.2743629,58 59.3939394,58 Z M72,32.8043742 C70.1195705,32.8043742 68.6060606,31.287382 68.6060606,29.4021871 C68.6060606,27.5317203 70.1348645,26 72,26 C73.8804295,26 75.3939394,27.5169922 75.3939394,29.4021871 C75.3939394,31.287382 73.8804235,32.8043742 72,32.8043742 Z M72,45.4021871 C70.1195705,45.4021871 68.6060606,43.8851949 68.6060606,42 C68.6060606,40.1148051 70.1348645,38.5978129 72,38.5978129 C73.8804295,38.5978129 75.3939394,40.1148051 75.3939394,42 C75.3939394,43.8851949 73.8804235,45.4021871 72,45.4021871 Z M72,58 C70.1195705,58 68.6060606,56.4830078 68.6060606,54.5978129 C68.6060606,52.7273461 70.1348645,51.1956258 72,51.1956258 C73.8804295,51.1956258 75.3939394,52.712618 75.3939394,54.5978129 C75.3939394,56.4830078 73.8804235,58 72,58 Z M84.6060606,32.8043742 C82.7256311,32.8043742 81.2121212,31.287382 81.2121212,29.4021871 C81.2121212,27.5317203 82.7256371,26 84.6060606,26 C86.4864901,26 88,27.5169922 88,29.4021871 C88,31.287382 86.4864841,32.8043742 84.6060606,32.8043742 Z M84.6060606,45.4021871 C82.7256311,45.4021871 81.2121212,43.8851949 81.2121212,42 C81.2121212,40.1148051 82.7256371,38.5978129 84.6060606,38.5978129 C86.4864901,38.5978129 88,40.1148051 88,42 C88,43.8851949 86.4864841,45.4021871 84.6060606,45.4021871 Z M84.6060606,58 C82.7256311,58 81.2121212,56.4830078 81.2121212,54.5978129 C81.2121212,52.7273461 82.7256371,51.1956258 84.6060606,51.1956258 C86.4864901,51.1956258 88,52.712618 88,54.5978129 C88,56.4830078 86.4864841,58 84.6060606,58 Z" id="形状"></path>
            </g>
        </g>
    </g>
</svg>