<?xml version="1.0" encoding="utf-8"?>
<!-- Generator: Adobe Illustrator 21.0.0, SVG Export Plug-In . SVG Version: 6.00 Build 0)  -->
<svg version="1.1" id="Layer_1" xmlns="http://www.w3.org/2000/svg" xmlns:xlink="http://www.w3.org/1999/xlink" x="0px" y="0px"
	 viewBox="0 0 24 24" xml:space="preserve">
<g id="Icon">
	<g id="UI-icons-英文名" transform="translate(-413.000000, -1229.000000)">
		<g id="网站通用图标" transform="translate(100.000000, 1221.000000)">
			<g id="area-chart" transform="translate(312.000000, 7.000000)">
				<path id="Combined-Shape" class="st0" d="M4,22h19c0.6,0,1,0.4,1,1s-0.4,1-1,1H3c-0.6,0-1-0.4-1-1V3c0-0.6,0.4-1,1-1s1,0.4,1,1
					V22z M6,19.3l2.6-4.7c0.1-0.2,0.4-0.3,0.6-0.2l2.5,1.2l2.7-3.9c0.1-0.2,0.4-0.3,0.6-0.2l2.5,1.3l3.6-5.7C21.5,6.9,22,7,22,7.4
					v11.7c0,0.5-0.4,0.9-0.9,0.9H6.5C6.1,20,5.9,19.6,6,19.3z"/>
			</g>
		</g>
	</g>
</g>
</svg>
