<?xml version="1.0" encoding="utf-8"?>
<!-- Generator: Adobe Illustrator 21.0.0, SVG Export Plug-In . SVG Version: 6.00 Build 0)  -->
<svg version="1.1" id="Layer_1" xmlns="http://www.w3.org/2000/svg" xmlns:xlink="http://www.w3.org/1999/xlink" x="0px" y="0px"
	 viewBox="0 0 24 24" xml:space="preserve">
<g id="Icon">
	<g id="UI-icons-英文名" transform="translate(-1247.000000, -390.000000)">
		<g id="方向性图标" transform="translate(101.000000, 303.000000)">
			<g id="arrow-down" transform="translate(1143.000000, 84.000000)">
				<path id="Combined-Shape" class="st0" d="M16,20.7l5.4-5.4c0.4-0.4,1-0.4,1.4,0c0.4,0.4,0.4,1,0,1.4l-7.1,7.1
					c-0.4,0.4-1,0.4-1.4,0C14.1,23.6,14,23.3,14,23c0,0.5,0.5,1,1,1s1-0.4,1-1c0,0.3-0.1,0.5-0.3,0.7c-0.4,0.4-1,0.4-1.4,0l-7.1-7.1
					c-0.4-0.4-0.4-1,0-1.4c0.4-0.4,1-0.4,1.4,0l5.4,5.4V7c0-0.6,0.4-1,1-1s1,0.4,1,1V20.7z"/>
			</g>
		</g>
	</g>
</g>
</svg>
