<?xml version="1.0" encoding="utf-8"?>
<!-- Generator: Adobe Illustrator 21.0.0, SVG Export Plug-In . SVG Version: 6.00 Build 0)  -->
<svg version="1.1" id="Layer_1" xmlns="http://www.w3.org/2000/svg" xmlns:xlink="http://www.w3.org/1999/xlink" x="0px" y="0px"
	 viewBox="0 0 24 24" xml:space="preserve">
<g id="Icon">
	<g id="UI-icons-英文名" transform="translate(-1035.000000, -2068.000000)">
		<g id="网站通用图标" transform="translate(100.000000, 1136.000000)">
			<g id="assocoation" transform="translate(935.000000, 932.000000)">
				<path id="Shape" class="st0" d="M19.3,10.1h-0.4V7.6c0-1.3-1.1-2.3-2.4-2.3h-2.4c0-0.2,0-0.5,0-0.7C14.1,2.1,12,0,9.5,0
					S4.8,2.1,4.8,4.6c0,0.2,0,0.5,0,0.7H2.4C1.1,5.3,0,6.4,0,7.6v3.4c0,0.3,0.1,0.5,0.4,0.7S0.9,12,1.1,12c0.3-0.1,0.5-0.1,0.8-0.1
					c1.5,0,2.8,1.3,2.8,2.8c0,1.5-1.3,2.8-2.8,2.8c-0.2,0-0.5-0.1-0.8-0.1c-0.3-0.1-0.6,0-0.8,0.2C0.1,17.7,0,17.9,0,18.2v3.4
					C0,22.9,1.1,24,2.4,24h14.2c0.6,0,1.3-0.3,1.7-0.7c0.4-0.4,0.6-1,0.6-1.6v-2.4h0.4c2.6,0,4.7-2.1,4.7-4.6S21.9,10.1,19.3,10.1z
					 M17.1,18v3.5c0,0.3-0.2,0.5-0.5,0.5h-14C2.3,22,2,21.8,2,21.5v-2.3c0,0,0.1,0,0.1,0c2.5,0,4.6-2,4.6-4.6c0-1.2-0.5-2.4-1.4-3.3
					C4.4,10.5,3.2,10,2,10V7.7c0-0.3,0.2-0.5,0.5-0.5h3.6c0.3,0,0.6-0.2,0.8-0.4C7.1,6.6,7.1,6.3,7,6C6.8,5.6,6.7,5.2,6.7,4.8
					C6.7,3.2,8,2,9.5,2c1.5,0,2.8,1.3,2.8,2.8c0,0.4,0,0.8-0.3,1.2c-0.2,0.3-0.1,0.6,0.1,0.8c0.2,0.2,0.5,0.4,0.8,0.4h3.7
					c0.3,0,0.5,0.2,0.5,0.5v3.6c0,0.3,0.1,0.5,0.4,0.7c0.3,0.2,0.6,0.2,0.8,0.1c0.3-0.1,0.6-0.2,0.9-0.2c1.5,0,2.8,1.3,2.8,2.8
					c0,1.5-1.2,2.8-2.8,2.8c-0.3,0-0.6-0.1-0.9-0.2l-0.1,0c-0.3-0.1-0.6-0.1-0.8,0.1C17.2,17.4,17.1,17.7,17.1,18z"/>
			</g>
		</g>
	</g>
</g>
</svg>
