<?xml version="1.0" encoding="utf-8"?>
<!-- Generator: Adobe Illustrator 21.0.0, SVG Export Plug-In . SVG Version: 6.00 Build 0)  -->
<svg version="1.1" id="Layer_1" xmlns="http://www.w3.org/2000/svg" xmlns:xlink="http://www.w3.org/1999/xlink" x="0px" y="0px"
	 viewBox="0 0 24 24" xml:space="preserve">
<g id="Icon">
	<g id="UI-icons-英文名" transform="translate(-933.000000, -1649.000000)">
		<g id="网站通用图标" transform="translate(100.000000, 1136.000000)">
			<g id="attachment" transform="translate(832.000000, 512.000000)">
				<path class="st0" d="M22.2,7c-1.2-1.1-2.7-1.8-4.4-1.8h0c-0.8,0-1.6,0.1-2.3,0.4c-0.8,0.3-1.4,0.7-2,1.3l-5.7,5.7
					c-0.7,0.7-1,1.5-1,2.5c0,0.9,0.4,1.8,1,2.5c0.7,0.7,1.5,1,2.5,1h0c0.9,0,1.8-0.4,2.5-1l5-5c0.2-0.2,0.3-0.4,0.3-0.6
					c0-0.2-0.1-0.5-0.3-0.6c-0.2-0.2-0.4-0.3-0.6-0.3c-0.2,0-0.5,0.1-0.6,0.3l-5,5c-0.3,0.3-0.8,0.5-1.2,0.5h0
					c-0.5,0-0.9-0.2-1.3-0.5c-0.3-0.3-0.5-0.8-0.5-1.2c0-0.5,0.2-0.9,0.5-1.2l5.7-5.7c0.8-0.8,1.9-1.3,3.1-1.3h0
					c1.2,0,2.3,0.5,3.1,1.3c0.8,0.8,1.3,1.9,1.3,3.1s-0.4,2.3-1.3,3.1l-6.1,6c-1.2,1.2-2.8,1.9-4.6,1.9h0c-1.7,0-3.4-0.7-4.6-1.9
					s-1.9-2.8-1.9-4.6c0-1.7,0.7-3.3,1.9-4.5l7.9-7.8c0.2-0.2,0.3-0.4,0.3-0.6c0-0.2-0.1-0.5-0.3-0.6C13.3,2.1,13.1,2,12.9,2
					s-0.5,0.1-0.6,0.3L4.4,10c-0.8,0.8-1.4,1.7-1.8,2.7c-0.4,1-0.6,2-0.6,3.1c0,1.1,0.2,2.1,0.6,3.1c0.4,1,1,1.9,1.8,2.7
					c0.8,0.8,1.7,1.4,2.7,1.8c1,0.4,2,0.6,3.1,0.6h0c1.1,0,2.1-0.2,3.1-0.6c1-0.4,1.9-1,2.7-1.8l6.1-6c0.6-0.6,1-1.3,1.3-2
					c0.3-0.7,0.4-1.5,0.4-2.3C24,9.7,23.4,8.1,22.2,7z"/>
			</g>
		</g>
	</g>
</g>
</svg>
