<?xml version="1.0" encoding="utf-8"?>
<!-- Generator: Adobe Illustrator 21.0.0, SVG Export Plug-In . SVG Version: 6.00 Build 0)  -->
<svg version="1.1" id="Layer_1" xmlns="http://www.w3.org/2000/svg" xmlns:xlink="http://www.w3.org/1999/xlink" x="0px" y="0px"
	 viewBox="0 0 24 24" xml:space="preserve">
<g id="Icon">
	<g id="UI-icons-英文名" transform="translate(-621.000000, -1229.000000)">
		<g id="网站通用图标" transform="translate(100.000000, 1221.000000)">
			<g id="bar-chart" transform="translate(520.000000, 7.000000)">
				<path id="Combined-Shape" class="st0" d="M21,13.7V19c0,0.6-0.4,1-1,1s-1-0.4-1-1v-5.3c-0.6-0.3-1-1-1-1.7c0-1.1,0.9-2,2-2
					s2,0.9,2,2C22,12.7,21.6,13.4,21,13.7z M9,13.7V19c0,0.6-0.4,1-1,1s-1-0.4-1-1v-5.3c-0.6-0.3-1-1-1-1.7c0-1.1,0.9-2,2-2
					s2,0.9,2,2C10,12.7,9.6,13.4,9,13.7z M15,10.7V19c0,0.6-0.4,1-1,1s-1-0.4-1-1v-8.3c-0.6-0.3-1-1-1-1.7c0-1.1,0.9-2,2-2
					s2,0.9,2,2C16,9.7,15.6,10.4,15,10.7z M4,22h19c0.6,0,1,0.4,1,1s-0.4,1-1,1H3c-0.6,0-1-0.4-1-1V3c0-0.6,0.4-1,1-1s1,0.4,1,1V22z
					"/>
			</g>
		</g>
	</g>
</g>
</svg>
