<?xml version="1.0" encoding="utf-8"?>
<!-- Generator: Adobe Illustrator 21.0.0, SVG Export Plug-In . SVG Version: 6.00 Build 0)  -->
<svg version="1.1" id="Layer_1" xmlns="http://www.w3.org/2000/svg" xmlns:xlink="http://www.w3.org/1999/xlink" x="0px" y="0px"
	 viewBox="0 0 24 24" xml:space="preserve">
<g id="Icon">
	<g id="UI-icons-英文名" transform="translate(-1246.000000, -846.000000)">
		<g id="提示建议性图标" transform="translate(101.000000, 761.000000)">
			<g id="checkedsur" transform="translate(1144.000000, 84.000000)">
				<path class="svg-checkedsur" d="M4,2h18c0.9,0,2,1.1,2,2v18c0,0.9-1,2-2,2H4c-0.9,0-2-1.1-2-2V4C2,3.1,3.1,2,4,2z M18.5,8.2
					l-7.9,7.6l-2.1-3.4c-0.2-0.4-0.8-0.5-1.2-0.3s-0.6,0.7-0.3,1.1l2.6,4.4c0.2,0.3,0.5,0.4,0.8,0.4c0.1,0,0.3,0,0.4-0.1
					c0.1,0,0.1-0.1,0.2-0.2c0,0,0,0,0,0l8.6-8.3c0.3-0.3,0.3-0.9,0-1.2C19.4,7.9,18.9,7.9,18.5,8.2z"/>
			</g>
		</g>
	</g>
</g>
</svg>
