<?xml version="1.0" encoding="utf-8"?>
<!-- Generator: Adobe Illustrator 21.0.0, SVG Export Plug-In . SVG Version: 6.00 Build 0)  -->
<svg version="1.1" id="Layer_1" xmlns="http://www.w3.org/2000/svg" xmlns:xlink="http://www.w3.org/1999/xlink" x="0px" y="0px"
	 viewBox="0 0 24 24" xml:space="preserve">
<g id="Icon">
	<g id="_x36_.21版本" transform="translate(-933.000000, -846.000000)">
		<g id="提示建议性图标" transform="translate(100.000000, 754.000000)">
			<g id="checkedlinear" transform="translate(832.000000, 91.000000)">
				<path class="svg-checkedlinear-box" d="M4,2h18c0.9,0,2,1.1,2,2v18c0,0.9-1,2-2,2H4c-0.9,0-2-1.1-2-2V4C2,3.1,3.1,2,4,2z M4,4v18h18V4
					H4z"/>
				<path class="svg-checkedlinear-cor" d="M11.6,17c-0.2,0-0.5-0.1-0.7-0.3l-3.7-3.6c-0.4-0.3-0.4-0.9,0-1.3
					c0.4-0.3,0.9-0.3,1.3,0l3,2.9l5.8-5.6c0.4-0.3,0.9-0.3,1.3,0c0.4,0.3,0.4,0.9,0,1.3l-6.5,6.2C12.1,16.9,11.9,17,11.6,17L11.6,17
					z"/>
			</g>
		</g>
	</g>
</g>
</svg>
