<?xml version="1.0" encoding="utf-8"?>
<!-- Generator: Adobe Illustrator 21.0.0, SVG Export Plug-In . SVG Version: 6.00 Build 0)  -->
<svg version="1.1" id="Layer_1" xmlns="http://www.w3.org/2000/svg" xmlns:xlink="http://www.w3.org/1999/xlink" x="0px" y="0px"
	 viewBox="0 0 24 24" xml:space="preserve">
<g id="Icon">
	<g id="UI-icons-英文名" transform="translate(-1043.000000, -307.000000)">
		<g id="方向性图标" transform="translate(101.000000, 304.000000)">
			<g id="chevron-right" transform="translate(935.000000, 0.000000)">
				<path id="Shape" class="st0" d="M14,24c0.2,0,0.5-0.1,0.6-0.2l9.9-8c0.2-0.2,0.4-0.5,0.4-0.8c0-0.3-0.1-0.6-0.4-0.8l-9.9-7.9
					c-0.4-0.4-1.1-0.3-1.4,0.2c-0.4,0.4-0.3,1.1,0.2,1.4l8.9,7.2l-8.9,7.2c-0.4,0.4-0.5,1-0.2,1.4C13.4,23.9,13.7,24,14,24z"/>
			</g>
		</g>
	</g>
</g>
</svg>
