<?xml version="1.0" encoding="utf-8"?>
<!-- Generator: Adobe Illustrator 21.0.0, SVG Export Plug-In . SVG Version: 6.00 Build 0)  -->
<svg version="1.1" id="Layer_1" xmlns="http://www.w3.org/2000/svg" xmlns:xlink="http://www.w3.org/1999/xlink" x="0px" y="0px"
	 viewBox="0 0 24 24" xml:space="preserve">
<g id="Icon">
	<g id="UI-icons-英文名" transform="translate(-829.000000, -846.000000)">
		<g id="提示建议性图标" transform="translate(100.000000, 761.000000)">
			<g id="close-square" transform="translate(728.000000, 84.000000)">
				<path id="Combined-Shape" class="st0" d="M4,2h18c0.9,0,2,1.1,2,2v18c0,0.9-1,2-2,2H4c-0.9,0-2-1.1-2-2V4C2,3.1,3.1,2,4,2z M4,4
					v18h18V4H4z M17.8,8.2c0.3,0.3,0.3,0.9,0,1.2L14.2,13l3.6,3.6c0.3,0.3,0.3,0.9,0,1.2c-0.2,0.2-0.4,0.2-0.6,0.2
					c-0.2,0-0.4-0.1-0.6-0.2L13,14.2l-3.6,3.6C9.3,17.9,9,18,8.8,18s-0.4-0.1-0.6-0.2c-0.3-0.3-0.3-0.9,0-1.2l3.6-3.6L8.2,9.4
					c-0.3-0.3-0.3-0.9,0-1.2c0.3-0.3,0.9-0.3,1.2,0l3.6,3.6l3.6-3.6C16.9,7.9,17.4,7.9,17.8,8.2z"/>
			</g>
		</g>
	</g>
</g>
</svg>
