<?xml version="1.0" standalone="no"?><svg t="1558081430751" class="icon" style="" viewBox="0 0 1024 1024" version="1.1" xmlns="http://www.w3.org/2000/svg" p-id="3464" xmlns:xlink="http://www.w3.org/1999/xlink"><path d="M670.343843 369.643782c-6.248308-6.248308-16.370853-6.248308-22.61916 0L511.991302 505.376139 376.257921 369.643782c-6.247284-6.248308-16.386202-6.248308-22.61916 0-6.248308 6.247284-6.248308 16.370853 0 22.61916l135.732357 135.732357L353.639784 663.72868c-6.248308 6.248308-6.248308 16.370853 0 22.61916 6.232958 6.248308 16.370853 6.248308 22.61916 0l135.733381-135.733381 135.733381 135.733381c6.248308 6.248308 16.370853 6.248308 22.61916 0s6.248308-16.370853 0-22.61916L534.611485 527.995299l135.733381-135.732357C676.593174 386.014634 676.593174 375.891066 670.343843 369.643782zM511.991302 128.092353c-212.025974 0-383.906623 171.880649-383.906623 383.906623 0 212.026998 171.880649 383.907647 383.906623 383.907647 212.026998 0 383.922996-171.880649 383.922996-383.907647C895.914298 299.973002 724.0183 128.092353 511.991302 128.092353zM511.991302 863.915002c-194.359616 0-351.913978-157.556409-351.913978-351.915002s157.555385-351.913978 351.913978-351.913978c194.344267 0 351.915002 157.555385 351.915002 351.913978S706.335568 863.915002 511.991302 863.915002z" p-id="3465"></path></svg>