<?xml version="1.0" encoding="utf-8"?>
<!-- Generator: Adobe Illustrator 21.0.0, SVG Export Plug-In . SVG Version: 6.00 Build 0)  -->
<svg version="1.1" id="Layer_1" xmlns="http://www.w3.org/2000/svg" xmlns:xlink="http://www.w3.org/1999/xlink" x="0px" y="0px"
	 viewBox="0 0 24 24" xml:space="preserve">
<g id="Icon">
	<g id="UI-icons-英文名" transform="translate(-1038.000000, -1309.000000)">
		<g id="网站通用图标" transform="translate(101.000000, 1053.000000)">
			<g id="cloud-download" transform="translate(936.000000, 252.000000)">
				<path id="Shape-Copy" class="st0" d="M23.1,15.4L23.1,15.4L23.1,15.4c-0.5-0.7-1-1.2-1.6-1.6c0-0.7-0.2-1.3-0.5-1.9
					c-0.3-0.7-0.8-1.4-1.5-2c-0.6-0.6-1.3-1.1-2.1-1.4C16.6,8.2,15.8,8,14.9,8c-1.3,0-2.6,0.4-3.7,1.1c-0.6,0.4-1.2,0.9-1.6,1.4
					c-0.3-0.1-0.7-0.1-1-0.1c-0.5,0-1.1,0.1-1.5,0.3c-0.5,0.2-0.9,0.5-1.3,0.8c-0.4,0.4-0.7,0.8-0.9,1.2c-0.2,0.5-0.3,1-0.3,1.5
					c0,0.1,0,0.3,0,0.4c-0.5,0.3-1,0.7-1.4,1.1C2.4,16.7,2,17.8,2,19c0,0.7,0.1,1.3,0.4,1.9c0.3,0.6,0.7,1.1,1.2,1.6
					c0.5,0.5,1.1,0.8,1.7,1.1c0.6,0.2,1.3,0.4,2,0.4H18c0.8,0,1.6-0.1,2.3-0.4c0.7-0.3,1.4-0.7,1.9-1.2c0.6-0.5,1-1.2,1.3-1.8
					c0.3-0.7,0.4-1.4,0.4-2.2C24,17.3,23.7,16.3,23.1,15.4z M4.3,20C4.1,19.6,4,19.2,4,18.8c0-0.4,0.1-0.7,0.2-1.1
					c0.1-0.3,0.3-0.6,0.6-0.9l0,0c0.3-0.3,0.6-0.6,1-0.8l0.9-0.5l-0.2-1c0-0.1,0-0.2,0-0.3c0-0.3,0.1-0.5,0.2-0.8l0,0
					c0.1-0.2,0.3-0.4,0.5-0.6c0.2-0.2,0.5-0.4,0.7-0.5c0.3-0.1,0.6-0.2,0.9-0.2c0.2,0,0.5,0,0.7,0.1l1,0.3l0.6-0.8
					c0.3-0.4,0.7-0.8,1.2-1.1c0.8-0.5,1.7-0.7,2.6-0.7c0.7,0,1.3,0.1,1.8,0.3c0.6,0.2,1.1,0.5,1.5,0.9c0.5,0.4,0.8,0.9,1,1.4
					c0.2,0.4,0.3,0.9,0.3,1.4l0,0.7l0.6,0.4c0.4,0.3,0.8,0.6,1.1,1l0.1,0.1c0.2,0.3,0.4,0.6,0.5,1c0.1,0.3,0.2,0.7,0.2,1.1
					c0,0.5-0.1,1-0.3,1.4c-0.2,0.4-0.5,0.8-0.9,1.2c-0.4,0.4-0.8,0.6-1.3,0.8c-0.5,0.2-1,0.3-1.6,0.3H7.5c-0.5,0-0.9-0.1-1.3-0.2
					c-0.4-0.2-0.8-0.4-1.1-0.7C4.7,20.8,4.4,20.4,4.3,20L4.3,20L4.3,20z M11.9,16.5c0.2,0,0.4,0.1,0.6,0.2l1.7,1.5v-5.5
					c0-0.4,0.4-0.8,0.9-0.8c0.5,0,0.9,0.4,0.9,0.8v5.5l1.7-1.5c0.2-0.2,0.4-0.2,0.6-0.2s0.4,0.1,0.6,0.2c0.3,0.3,0.3,0.8,0,1.1
					l-3.1,2.9C15.4,20.9,15.2,21,15,21c-0.2,0-0.4-0.1-0.6-0.2l-3.1-2.9c-0.3-0.3-0.3-0.8,0-1.1C11.4,16.6,11.6,16.5,11.9,16.5z"/>
			</g>
		</g>
	</g>
</g>
</svg>
