<?xml version="1.0" encoding="utf-8"?>
<!-- Generator: Adobe Illustrator 21.0.0, SVG Export Plug-In . SVG Version: 6.00 Build 0)  -->
<svg version="1.1" id="Layer_1" xmlns="http://www.w3.org/2000/svg" xmlns:xlink="http://www.w3.org/1999/xlink" x="0px" y="0px"
	 viewBox="0 0 24 24" xml:space="preserve">
<g id="Icon">
	<g id="UI-icons-英文名" transform="translate(-1141.000000, -1985.000000)">
		<g id="网站通用图标" transform="translate(100.000000, 1221.000000)">
			<g id="commission" transform="translate(1040.000000, 763.000000)">
				<path id="Shape" class="st0" d="M21.5,12c-2.4-2.4-6.3-2.6-8.9-0.6L3.9,2.8c-0.3-0.3-0.9-0.3-1.2,0c-0.3,0.3-0.3,0.9,0,1.2
					l8.7,8.7c-2.1,2.6-1.9,6.5,0.6,8.9c2.6,2.6,6.9,2.6,9.5,0S24.2,14.6,21.5,12z M20.3,20.3c-2,2-5.2,2-7.2,0s-2-5.2,0-7.2
					s5.2-2,7.2,0S22.3,18.3,20.3,20.3z M9.2,8L11,6.2c0.3-0.3,0.3-0.9,0-1.2c-0.3-0.3-0.9-0.3-1.2,0L8.1,6.8L9.2,8z M8.8,4
					c0.3-0.3,0.3-0.9,0-1.2c-0.3-0.3-0.9-0.3-1.2,0L5.8,4.6L7,5.8L8.8,4z"/>
			</g>
		</g>
	</g>
</g>
</svg>
