<?xml version="1.0" encoding="utf-8"?>
<!-- Generator: Adobe Illustrator 21.0.0, SVG Export Plug-In . SVG Version: 6.00 Build 0)  -->
<svg version="1.1" id="Layer_1" xmlns="http://www.w3.org/2000/svg" xmlns:xlink="http://www.w3.org/1999/xlink" x="0px" y="0px"
	 viewBox="0 0 24 24" xml:space="preserve">
<g id="Icon">
	<g id="UI-icons-英文名" transform="translate(-1245.000000, -761.000000)">
		<g id="提示建议性图标" transform="translate(101.000000, 761.000000)">
			<g id="cue" transform="translate(1144.000000, 0.000000)">
				<path id="exclamation-circle" class="st0" d="M12,2c1.4,0,2.7,0.3,3.9,0.8c1.2,0.5,2.3,1.2,3.2,2.1c0.9,0.9,1.6,2,2.1,3.2
					C21.7,9.3,22,10.6,22,12s-0.3,2.7-0.8,3.9c-0.5,1.2-1.2,2.3-2.1,3.2c-0.9,0.9-2,1.6-3.2,2.1C14.7,21.7,13.4,22,12,22
					s-2.7-0.3-3.9-0.8c-1.2-0.5-2.3-1.2-3.2-2.1c-0.9-0.9-1.6-2-2.1-3.2C2.3,14.7,2,13.4,2,12s0.3-2.7,0.8-3.9
					C3.3,6.9,4,5.8,4.9,4.9c0.9-0.9,2-1.6,3.2-2.1C9.3,2.3,10.6,2,12,2z M12,0C5.4,0,0,5.4,0,12s5.4,12,12,12s12-5.4,12-12
					S18.6,0,12,0z M12,16c-0.5,0-1-0.4-1-1V6c0-0.5,0.5-1,1-1s1,0.4,1,1v9C13,15.6,12.5,16,12,16z M10.9,18c0,0.6,0.5,1,1.1,1
					s1.1-0.4,1.1-1s-0.5-1-1.1-1S10.9,17.4,10.9,18z"/>
			</g>
		</g>
	</g>
</g>
</svg>
