<?xml version="1.0" encoding="utf-8"?>
<!-- Generator: Adobe Illustrator 21.0.0, SVG Export Plug-In . SVG Version: 6.00 Build 0)  -->
<svg version="1.1" id="Layer_1" xmlns="http://www.w3.org/2000/svg" xmlns:xlink="http://www.w3.org/1999/xlink" x="0px" y="0px"
	 viewBox="0 0 24 24" xml:space="preserve">
<g id="Icon">
	<g id="UI-icons-英文名" transform="translate(-1244.000000, -1564.000000)">
		<g id="网站通用图标" transform="translate(100.000000, 1136.000000)">
			<g id="customer-service" transform="translate(1144.000000, 428.000000)">
				<path id="Combined-Shape" class="st0" d="M15,21.3c-0.2,1.5-1.4,2.7-3,2.7c-1.7,0-3-1.3-3-3s1.3-3,3-3c1,0,2,0.5,2.5,1.3
					C16,18.5,17,16.9,17,15V7c0-2.8-2.2-5-5-5S7,4.2,7,7v7c0,0.6-0.4,1-1,1s-1-0.4-1-1V7c0-3.9,3.1-7,7-7s7,3.1,7,7v8
					C19,17.8,17.4,20.2,15,21.3z"/>
				<path id="Combined-Shape_1_" class="st0" d="M3,8h1c1.7,0,3,1.3,3,3v3c0,1.7-1.3,3-3,3H3c-1.7,0-3-1.3-3-3v-3C0,9.3,1.3,8,3,8z
					 M3.5,10C2.7,10,2,10.7,2,11.5v2C2,14.3,2.7,15,3.5,15S5,14.3,5,13.5v-2C5,10.7,4.3,10,3.5,10z"/>
				<path id="Combined-Shape_2_" class="st0" d="M20,8h1c1.7,0,3,1.3,3,3v3c0,1.7-1.3,3-3,3h-1c-1.7,0-3-1.3-3-3v-3
					C17,9.3,18.3,8,20,8z M20.5,10c-0.8,0-1.5,0.7-1.5,1.5v2c0,0.8,0.7,1.5,1.5,1.5s1.5-0.7,1.5-1.5v-2C22,10.7,21.3,10,20.5,10z"/>
			</g>
		</g>
	</g>
</g>
</svg>
