<?xml version="1.0" encoding="UTF-8"?>
<!DOCTYPE svg PUBLIC "-//W3C//DTD SVG 1.1//EN" "http://www.w3.org/Graphics/SVG/1.1/DTD/svg11.dtd">
<!-- Creator: CorelDRAW X7 -->
<svg xmlns="http://www.w3.org/2000/svg" xml:space="preserve" version="1.1" style="shape-rendering:geometricPrecision; text-rendering:geometricPrecision; image-rendering:optimizeQuality; fill-rule:evenodd; clip-rule:evenodd"
viewBox="0 0 37 37"
 xmlns:xlink="http://www.w3.org/1999/xlink">
 <g id="图层_x0020_1">
  <metadata id="CorelCorpID_0Corel-Layer"/>
  <path class="fil0" d="M19 0c10,0 18,7 18,19 0,8 -9,3 -13,6 -3,4 3,13 -5,12 -11,-1 -19,-8 -19,-18 0,-11 8,-19 19,-19zm6 10l-5 -2c0,1 -1,2 -2,2 -1,0 -2,-1 -2,-2l-4 3c1,0 1,0 1,1 0,1 -1,3 -3,2l-1 4c1,1 2,1 2,2 0,1 -1,2 -2,2 -2,0 -3,-1 -3,-2l-3 0c1,8 8,16 16,14 4,0 -1,-7 3,-11 3,-3 12,0 12,-4 2,-9 -7,-16 -15,-16 -9,0 -16,7 -16,16 0,0 0,1 0,1l3 0c0,-1 1,-2 3,-2 0,0 0,0 0,0l1 -4c-1,0 -1,-1 -1,-2 0,-1 1,-2 2,-2 0,0 1,0 1,1l4 -3c0,0 0,0 0,0 0,-2 1,-2 2,-2 1,0 2,0 2,2 0,0 0,0 0,0l5 2c1,-1 1,-1 2,-1 1,0 2,1 2,2 0,1 -1,2 -2,2 -1,0 -2,-1 -2,-2 0,-1 0,-1 0,-1z"/>
 </g>
</svg>
