<?xml version="1.0" encoding="utf-8"?>
<!-- Generator: Adobe Illustrator 21.0.0, SVG Export Plug-In . SVG Version: 6.00 Build 0)  -->
<svg version="1.1" id="Layer_1" xmlns="http://www.w3.org/2000/svg" xmlns:xlink="http://www.w3.org/1999/xlink" x="0px" y="0px"
	 viewBox="0 0 24 24" xml:space="preserve">
<g id="Icon">
	<g transform="translate(-105.000000, -306.000000)">
		<g transform="translate(100.000000, 303.000000)">
			<g id="default">
				<path id="Shape" class="st0" d="M23,24c-0.2,0-0.5-0.1-0.6-0.2l-9.9-8C12.1,15.6,12,15.3,12,15c0-0.3,0.1-0.6,0.4-0.8l9.9-7.9
					c0.4-0.4,1.1-0.3,1.4,0.2c0.4,0.4,0.3,1.1-0.2,1.4L14.7,15l8.9,7.2c0.4,0.4,0.5,1,0.2,1.4C23.6,23.9,23.3,24,23,24z"/>
				<path id="Rectangle-30" class="st0" d="M11,6L11,6c0.6,0,1,0.4,1,1v16c0,0.6-0.4,1-1,1l0,0c-0.6,0-1-0.4-1-1V7
					C10,6.4,10.4,6,11,6z"/>
			</g>
		</g>
	</g>
</g>
</svg>
