<?xml version="1.0" encoding="utf-8"?>
<!-- Generator: Adobe Illustrator 21.0.0, SVG Export Plug-In . SVG Version: 6.00 Build 0)  -->
<svg version="1.1" id="Layer_1" xmlns="http://www.w3.org/2000/svg" xmlns:xlink="http://www.w3.org/1999/xlink" x="0px" y="0px"
	 viewBox="0 0 24 24" xml:space="preserve">
<g id="Icon">
	<g id="UI-icons-英文名" transform="translate(-416.000000, -1987.000000)">
		<g id="网站通用图标" transform="translate(99.000000, 1053.000000)">
			<g id="defined-filtration" transform="translate(316.000000, 932.000000)">
				<path id="Shape" class="st0" d="M19.8,5.2C19.5,4.5,18.8,4,18,4H3.9C3.2,4,2.5,4.5,2.1,5.2S2,6.8,2.6,7.4L9,13.7V20
					c0,0.2,0.1,0.4,0.2,0.6l2.9,3.1c0.2,0.2,0.4,0.3,0.6,0.3c0.1,0,0.2,0,0.3-0.1c0.3-0.1,0.5-0.4,0.5-0.8v-9.5l5.8-6.3
					C20,6.8,20.1,6,19.8,5.2z M17.9,6.4l-5.8,6.4c-0.2,0.2-0.2,0.4-0.2,0.6V21l-1.2-1.4v-6.2c0-0.2-0.1-0.4-0.2-0.6L4.1,6.4
					C4,6.3,4,6.2,4,6.2C4,6.1,4.1,6,4.2,6h13.5C17.9,6,18,6.1,18,6.2C18,6.2,18,6.3,17.9,6.4z"/>
				<path id="Rectangle-4" class="st0" d="M18.2,18.4l4.2-4.2c0.4-0.4,1-0.4,1.4,0l0,0c0.4,0.4,0.4,1,0,1.4l-4.2,4.2
					c-0.4,0.4-1,0.4-1.4,0l0,0C17.8,19.4,17.8,18.8,18.2,18.4z"/>
				<path id="Rectangle-5" class="st0" d="M17,21h6c0.6,0,1,0.4,1,1l0,0c0,0.6-0.4,1-1,1h-6c-0.6,0-1-0.4-1-1l0,0
					C16,21.4,16.4,21,17,21z"/>
			</g>
		</g>
	</g>
</g>
</svg>
