<?xml version="1.0" encoding="utf-8"?>
<!-- Generator: Adobe Illustrator 21.0.0, SVG Export Plug-In . SVG Version: 6.00 Build 0)  -->
<svg version="1.1" id="Layer_1" xmlns="http://www.w3.org/2000/svg" xmlns:xlink="http://www.w3.org/1999/xlink" x="0px" y="0px"
	 viewBox="0 0 24 24" xml:space="preserve">
<g id="Icon">
	<g id="UI-icons-英文名" transform="translate(-622.000000, -1647.000000)">
		<g id="网站通用图标" transform="translate(101.000000, 1053.000000)">
			<g id="del" transform="translate(519.000000, 593.000000)">
				<path id="Shape" class="st0" d="M24.8,6.3C24.6,6.1,24.2,6,24,6h-4V4.7C20,3.7,19.1,3,18.2,3h-7.4C9.9,3,9,3.7,9,4.7V6H5
					C4.5,6,4,6.5,4,7s0.5,1,1,1h1v14c0,0.9,1.1,2,2,2l13,0c0.9,0,2-1.1,2-2V8h1c0.5,0,1-0.5,1-1C25,6.8,25,6.4,24.8,6.3z M11,5h7v1
					h-7V5z M8,22V8h1.9H21v14H8z"/>
				<path id="Rectangle-3" class="st0" d="M12,10L12,10c0.6,0,1,0.4,1,1v8c0,0.6-0.4,1-1,1l0,0c-0.6,0-1-0.4-1-1v-8
					C11,10.4,11.4,10,12,10z"/>
				<path id="Rectangle-3-Copy" class="st0" d="M17,10L17,10c0.6,0,1,0.4,1,1v8c0,0.6-0.4,1-1,1l0,0c-0.6,0-1-0.4-1-1v-8
					C16,10.4,16.4,10,17,10z"/>
			</g>
		</g>
	</g>
</g>
</svg>
