<?xml version="1.0" encoding="utf-8"?>
<!-- Generator: Adobe Illustrator 21.0.0, SVG Export Plug-In . SVG Version: 6.00 Build 0)  -->
<svg version="1.1" id="Layer_1" xmlns="http://www.w3.org/2000/svg" xmlns:xlink="http://www.w3.org/1999/xlink" x="0px" y="0px"
	 viewBox="0 0 24 24" xml:space="preserve">
<g id="Icon">
	<g id="UI-icons-英文名" transform="translate(-1142.000000, -2069.000000)">
		<g id="网站通用图标" transform="translate(100.000000, 1136.000000)">
			<g id="deleted" transform="translate(1042.000000, 932.000000)">
				<path id="Shape" class="st0" d="M22.8,6.3C22.6,6.1,22.2,6,22,6h-4V4.7C18,3.7,17.1,3,16.2,3H8.8C7.9,3,7,3.7,7,4.7V6H3
					C2.5,6,2,6.5,2,7s0.5,1,1,1h1v14c0,0.9,1.1,2,2,2l13,0c0.9,0,2-1.1,2-2V8h1c0.5,0,1-0.5,1-1C23,6.8,23,6.4,22.8,6.3z M9,5h7v1H9
					V5z M6,22V8h1.9H19v14H6z"/>
				<path id="Rectangle-3" class="st0" d="M10,10L10,10c0.6,0,1,0.4,1,1v8c0,0.6-0.4,1-1,1l0,0c-0.6,0-1-0.4-1-1v-8
					C9,10.4,9.4,10,10,10z"/>
				<path id="Rectangle-3-Copy" class="st0" d="M15,10L15,10c0.6,0,1,0.4,1,1v8c0,0.6-0.4,1-1,1l0,0c-0.6,0-1-0.4-1-1v-8
					C14,10.4,14.4,10,15,10z"/>
				<path id="Rectangle-26" class="st0" d="M1,14h22c0.6,0,1,0.4,1,1l0,0c0,0.6-0.4,1-1,1H1c-0.6,0-1-0.4-1-1l0,0
					C0,14.4,0.4,14,1,14z"/>
			</g>
		</g>
	</g>
</g>
</svg>
