<?xml version="1.0" encoding="utf-8"?>
<!-- Generator: Adobe Illustrator 21.0.0, SVG Export Plug-In . SVG Version: 6.00 Build 0)  -->
<svg version="1.1" id="Layer_1" xmlns="http://www.w3.org/2000/svg" xmlns:xlink="http://www.w3.org/1999/xlink" x="0px" y="0px"
	 viewBox="0 0 24 24" xml:space="preserve">
<g id="Icon">
	<g id="UI-icons-英文名" transform="translate(-1245.000000, -1557.000000)">
		<g id="网站通用图标" transform="translate(100.000000, 1053.000000)">
			<g id="dialog" transform="translate(1145.000000, 504.000000)">
				<circle id="Oval-11" class="st0" cx="7.5" cy="11.5" r="1.5"/>
				<circle id="Oval-11-Copy" class="st0" cx="12.5" cy="11.5" r="1.5"/>
				<circle id="Oval-11-Copy-2" class="st0" cx="17.5" cy="11.5" r="1.5"/>
				<path id="Shape" class="st0" d="M23,6.8c-0.6-1.3-1.5-2.5-2.6-3.6c-1.1-1-2.4-1.8-3.8-2.4C15.2,0.3,13.6,0,12,0S8.8,0.3,7.3,0.9
					C5.9,1.4,4.6,2.2,3.5,3.3c-1.1,1-2,2.2-2.6,3.6c-0.6,1.4-1,2.9-1,4.4c0,2.7,1.1,5.4,3,7.4l0.5,4.6c0,0.3,0.2,0.5,0.5,0.7
					C4.1,24,4.2,24,4.4,24c0.1,0,0.3,0,0.4-0.1l3.5-2c1.2,0.4,2.5,0.6,3.7,0.6c1.6,0,3.2-0.3,4.7-0.9c1.4-0.6,2.7-1.4,3.8-2.4
					c1.1-1,2-2.2,2.6-3.6c0.6-1.4,1-2.9,1-4.4C24,9.7,23.7,8.2,23,6.8z M21.2,14.5c-0.5,1.1-1.2,2-2.1,2.9c-0.9,0.8-2,1.5-3.2,1.9
					C14.7,19.8,13.4,20,12,20c-1.2,0-2.4-0.2-3.5-0.6c-0.2-0.1-0.5-0.1-0.7,0.1L5.3,21l-0.4-3.4c0-0.2-0.1-0.3-0.2-0.5
					C2.9,15.4,2,13.3,2,11c0-1.2,0.3-2.4,0.8-3.5c0.5-1.1,1.2-2,2.1-2.9c0.9-0.8,2-1.5,3.2-1.9C9.3,2.2,10.6,2,12,2s2.7,0.2,3.9,0.7
					c1.2,0.5,2.3,1.1,3.2,1.9c0.9,0.8,1.6,1.8,2.1,2.9C21.7,8.6,22,9.8,22,11C22,12.2,21.7,13.4,21.2,14.5z"/>
			</g>
		</g>
	</g>
</g>
</svg>
