<?xml version="1.0" encoding="utf-8"?>
<!-- Generator: Adobe Illustrator 21.0.0, SVG Export Plug-In . SVG Version: 6.00 Build 0)  -->
<svg version="1.1" id="Layer_1" xmlns="http://www.w3.org/2000/svg" xmlns:xlink="http://www.w3.org/1999/xlink" x="0px" y="0px"
	 viewBox="0 0 24 24" xml:space="preserve">
<g id="Icon">
	<g id="UI-icons-英文名" transform="translate(-517.000000, -1229.000000)">
		<g id="网站通用图标" transform="translate(100.000000, 1221.000000)">
			<g id="dot-chart" transform="translate(416.000000, 7.000000)">
				<path id="Combined-Shape" class="st0" d="M4,22h19c0.6,0,1,0.4,1,1s-0.4,1-1,1H3c-0.6,0-1-0.4-1-1V3c0-0.6,0.4-1,1-1s1,0.4,1,1
					V22z M6.9,15.9c0-0.9,0.7-1.5,1.5-1.5c0.9,0,1.5,0.7,1.5,1.5s-0.7,1.5-1.5,1.5C7.6,17.5,6.9,16.8,6.9,15.9z M13,15
					c0-1.1,0.9-2,2-2s2,0.9,2,2s-0.9,2-2,2S13,16.1,13,15z M14.2,9.9c0-0.8,0.6-1.4,1.4-1.4c0.8,0,1.4,0.6,1.4,1.4s-0.6,1.4-1.4,1.4
					C14.9,11.4,14.2,10.7,14.2,9.9z M19.9,6.6c0-0.6,0.5-1.1,1.1-1.1C21.5,5.5,22,6,22,6.6S21.5,7.7,21,7.7
					C20.4,7.7,19.9,7.2,19.9,6.6z M20.5,11.1c0-0.4,0.3-0.8,0.8-0.8c0.4,0,0.8,0.3,0.8,0.8c0,0.4-0.3,0.8-0.8,0.8
					C20.8,11.9,20.5,11.5,20.5,11.1z"/>
			</g>
		</g>
	</g>
</g>
</svg>
