<?xml version="1.0" encoding="utf-8"?>
<!-- Generator: Adobe Illustrator 21.0.0, SVG Export Plug-In . SVG Version: 6.00 Build 0)  -->
<svg version="1.1" id="Layer_1" xmlns="http://www.w3.org/2000/svg" xmlns:xlink="http://www.w3.org/1999/xlink" x="0px" y="0px"
	 viewBox="0 0 24 24" xml:space="preserve">
<g id="Icon">
	<g id="UI-icons-英文名" transform="translate(-414.000000, -306.000000)">
		<g id="方向性图标" transform="translate(101.000000, 303.000000)">
			<g id="double-right" transform="translate(311.000000, 0.000000)">
				<path id="Shape" class="st0" d="M13,24c0.2,0,0.5-0.1,0.6-0.2l9.9-8c0.2-0.2,0.4-0.5,0.4-0.8c0-0.3-0.1-0.6-0.4-0.8l-9.9-7.9
					c-0.4-0.4-1.1-0.3-1.4,0.2c-0.4,0.4-0.3,1.1,0.2,1.4l8.9,7.2l-8.9,7.2c-0.4,0.4-0.5,1-0.2,1.4C12.4,23.9,12.7,24,13,24z"/>
				<path id="Shape_1_" class="st0" d="M5,24c0.2,0,0.5-0.1,0.6-0.2l9.9-8c0.2-0.2,0.4-0.5,0.4-0.8c0-0.3-0.1-0.6-0.4-0.8L5.7,6.2
					C5.3,5.9,4.6,5.9,4.3,6.4C3.9,6.8,4,7.5,4.4,7.8l8.9,7.2l-8.9,7.2c-0.4,0.4-0.5,1-0.2,1.4C4.4,23.9,4.7,24,5,24z"/>
			</g>
		</g>
	</g>
</g>
</svg>
