<?xml version="1.0" encoding="utf-8"?>
<!-- Generator: Adobe Illustrator 21.0.0, SVG Export Plug-In . SVG Version: 6.00 Build 0)  -->
<svg version="1.1" id="Layer_1" xmlns="http://www.w3.org/2000/svg" xmlns:xlink="http://www.w3.org/1999/xlink" x="0px" y="0px"
	 viewBox="0 0 24 24" xml:space="preserve">
<g id="Icon">
	<g id="Jalor用" transform="translate(-517.000000, -1733.000000)">
		<g id="网站通用图标" transform="translate(48.000000, 0.000000)">
			<g id="download" transform="translate(468.000000, 1732.000000)">
				<path id="Combined-Shape" class="st0" d="M4,22h18v-4c0-0.6,0.4-1,1-1s1,0.4,1,1v5c0,0.6-0.4,1-1,1H3c-0.6,0-1-0.4-1-1v-5
					c0-0.6,0.4-1,1-1s1,0.4,1,1V22z M14,15.7l3.4-3.4c0.4-0.4,1-0.4,1.4,0c0.4,0.4,0.4,1,0,1.4l-5.1,5.1c-0.4,0.4-1,0.4-1.4,0
					c0,0,0,0,0,0c0.2,0.2,0.4,0.3,0.7,0.3c0.6,0,1-0.4,1-1v-0.3c0.1,0.4,0.1,0.8-0.2,1.1c-0.4,0.4-1,0.4-1.4,0l-5.1-5.1
					c-0.4-0.4-0.4-1,0-1.4c0.4-0.4,1-0.4,1.4,0l3.3,3.3V3c0-0.6,0.4-1,1-1s1,0.4,1,1V15.7z"/>
			</g>
		</g>
	</g>
</g>
</svg>
