<?xml version="1.0" encoding="UTF-8"?>
<!DOCTYPE svg PUBLIC "-//W3C//DTD SVG 1.1//EN" "http://www.w3.org/Graphics/SVG/1.1/DTD/svg11.dtd">
<!-- Creator: CorelDRAW X7 -->
<svg xmlns="http://www.w3.org/2000/svg" xml:space="preserve" version="1.1" style="shape-rendering:geometricPrecision; text-rendering:geometricPrecision; image-rendering:optimizeQuality; fill-rule:evenodd; clip-rule:evenodd"
viewBox="0 0 12 15"
 xmlns:xlink="http://www.w3.org/1999/xlink">
 <g id="图层_x0020_1">
  <metadata id="CorelCorpID_0Corel-Layer"/>
  <path class="fil0" d="M1 0l7 0 4 4 0 10c0,1 -1,1 -1,1l-10 0c-1,0 -1,0 -1,-1l0 -13c0,-1 0,-1 1,-1zm4 9c1,0 1,1 1,1 0,1 0,2 -1,2 -1,0 -2,-1 -2,-2 0,0 0,-1 1,-1l0 -1 0 -1 0 -1 0 -1 0 -1 0 -1 0 -1 0 0 0 -1 -3 0 0 13 10 0 0 -9 -4 0 0 -4 -3 0 1 1 -1 1 1 1 -1 1 1 1 0 1 0 1 0 1zm0 0c0,0 1,1 1,1 0,1 -1,2 -1,2 -1,0 -2,-1 -2,-2 0,0 1,-1 2,-1zm2 -8l0 3 3 0 -3 -3z"/>
 </g>
</svg>
