<?xml version="1.0" encoding="utf-8"?>
<!-- Generator: Adobe Illustrator 21.0.0, SVG Export Plug-In . SVG Version: 6.00 Build 0)  -->
<svg version="1.1" id="Layer_1" xmlns="http://www.w3.org/2000/svg" xmlns:xlink="http://www.w3.org/1999/xlink" x="0px" y="0px"
	 viewBox="0 0 24 24" xml:space="preserve">
<g id="Icon">
	<g transform="translate(-209.000000, -306.000000)">
		<g transform="translate(100.000000, 303.000000)">
			<g id="end" transform="translate(104.000000, 0.000000)">
				<path id="Shape" class="st0" d="M11,24c0.2,0,0.5-0.1,0.6-0.2l9.9-8c0.2-0.2,0.4-0.5,0.4-0.8c0-0.3-0.1-0.6-0.4-0.8l-9.9-7.9
					c-0.4-0.4-1.1-0.3-1.4,0.2C9.9,6.8,10,7.5,10.4,7.8l8.9,7.2l-8.9,7.2c-0.4,0.4-0.5,1-0.2,1.4C10.4,23.9,10.7,24,11,24z"/>
				<path id="Rectangle-30" class="st0" d="M23,6L23,6c0.6,0,1,0.4,1,1v16c0,0.6-0.4,1-1,1l0,0c-0.6,0-1-0.4-1-1V7
					C22,6.4,22.4,6,23,6z"/>
			</g>
		</g>
	</g>
</g>
</svg>
