<?xml version="1.0" encoding="utf-8"?>
<!-- Generator: Adobe Illustrator 21.0.0, SVG Export Plug-In . SVG Version: 6.00 Build 0)  -->
<svg version="1.1" id="Layer_1" xmlns="http://www.w3.org/2000/svg" xmlns:xlink="http://www.w3.org/1999/xlink" x="0px" y="0px"
	 viewBox="0 0 24 24" xml:space="preserve">
<g id="Icon">
	<g id="UI-icons-英文名" transform="translate(-517.000000, -1313.000000)">
		<g id="网站通用图标" transform="translate(100.000000, 1136.000000)">
			<g id="exception" transform="translate(416.000000, 176.000000)">
				<path id="Combined-Shape" class="st0" d="M11,22c0.6,0,1,0.4,1,1s-0.4,1-1,1H4.6c-0.9,0-1.2-0.1-1.5-0.3
					c-0.3-0.2-0.6-0.4-0.8-0.8C2.1,22.7,2,22.3,2,21.4V4.6C2,3.7,2.1,3.3,2.3,3C2.4,2.7,2.7,2.4,3,2.3C3.3,2.1,3.7,2,4.6,2h16.9
					c0.9,0,1.2,0.1,1.5,0.3c0.3,0.2,0.6,0.4,0.8,0.8C23.9,3.3,24,3.7,24,4.6v16.9c0,0.9-0.1,1.2-0.3,1.5c-0.2,0.3-0.4,0.6-0.8,0.8
					c-0.3,0.2-0.6,0.3-1.5,0.3H20c-0.6,0-1-0.4-1-1s0.4-1,1-1h2V4H4v18H11z"/>
				<path id="Rectangle-33" class="st0" d="M7,7h8c0.6,0,1,0.4,1,1l0,0c0,0.6-0.4,1-1,1H7C6.4,9,6,8.6,6,8l0,0C6,7.4,6.4,7,7,7z"/>
				<path id="Rectangle-33-Copy" class="st0" d="M7,11h4c0.6,0,1,0.4,1,1l0,0c0,0.6-0.4,1-1,1H7c-0.6,0-1-0.4-1-1l0,0
					C6,11.4,6.4,11,7,11z"/>
				<path id="Rectangle-33-Copy-2" class="st0" d="M7,15h4c0.6,0,1,0.4,1,1l0,0c0,0.6-0.4,1-1,1H7c-0.6,0-1-0.4-1-1l0,0
					C6,15.4,6.4,15,7,15z"/>
				<path id="Rectangle-32" class="st0" d="M16,11L16,11c0.6,0,1,0.4,1,1v8c0,0.6-0.4,1-1,1l0,0c-0.6,0-1-0.4-1-1v-8
					C15,11.4,15.4,11,16,11z"/>
				<circle id="Oval-17" class="st0" cx="16" cy="23" r="1"/>
			</g>
		</g>
	</g>
</g>
</svg>
