<?xml version="1.0" encoding="utf-8"?>
<!-- Generator: Adobe Illustrator 21.0.0, SVG Export Plug-In . SVG Version: 6.00 Build 0)  -->
<svg version="1.1" id="Layer_1" xmlns="http://www.w3.org/2000/svg" xmlns:xlink="http://www.w3.org/1999/xlink" x="0px" y="0px"
	 viewBox="0 0 24 24" xml:space="preserve">
<g id="UI-icons-英文名" transform="translate(-831.000000, -1903.000000)">
	<g id="网站通用图标" transform="translate(99.000000, 1053.000000)">
		<g id="express-search" transform="translate(730.000000, 849.000000)">
			<path id="Rectangle-6" class="st0" d="M8,6h7c0.6,0,1,0.4,1,1l0,0c0,0.6-0.4,1-1,1H8C7.4,8,7,7.6,7,7l0,0C7,6.4,7.4,6,8,6z"/>
			<path id="Rectangle-6-Copy" class="st0" d="M8,10h5c0.6,0,1,0.4,1,1l0,0c0,0.6-0.4,1-1,1H8c-0.6,0-1-0.4-1-1l0,0
				C7,10.4,7.4,10,8,10z"/>
			<path id="Shape" class="st0" d="M20,2H6C5.1,2,4,3.1,4,4v18c0,0.9,1.1,2,2,2h5c0.5,0,1-0.5,1-1s-0.5-1-1-1l-5,0V4h14v6
				c0,0.5,0.5,1,1,1s1-0.5,1-1V4C22,3.1,20.9,2,20,2z"/>
			<path id="Rectangle-6-Copy_1_" class="st0" d="M22.1,20.2l2.1,2.1c0.4,0.4,0.4,1,0,1.4l0,0c-0.4,0.4-1,0.4-1.4,0l-2.1-2.1
				c-0.4-0.4-0.4-1,0-1.4l0,0C21.1,19.8,21.8,19.8,22.1,20.2z"/>
			<path id="Combined-Shape" class="st0" d="M18,22c-2.8,0-5-2.2-5-5s2.2-5,5-5s5,2.2,5,5S20.8,22,18,22z M18,20c1.7,0,3-1.3,3-3
				s-1.3-3-3-3s-3,1.3-3,3S16.3,20,18,20z"/>
		</g>
	</g>
</g>
</svg>
