<?xml version="1.0" encoding="utf-8"?>
<!-- Generator: Adobe Illustrator 15.0.0, SVG Export Plug-In . SVG Version: 6.00 Build 0)  -->
<!DOCTYPE svg PUBLIC "-//W3C//DTD SVG 1.1//EN" "http://www.w3.org/Graphics/SVG/1.1/DTD/svg11.dtd">
<svg version="1.1" id="图层_1" xmlns="http://www.w3.org/2000/svg" xmlns:xlink="http://www.w3.org/1999/xlink" x="0px" y="0px"
	 viewBox="182.139 106.3 435.722 362.4" enable-background="new 182.139 106.3 435.722 362.4"
	 xml:space="preserve">
<path d="M560.925,106.3l26.525,26.525L251.575,468.7l-26.525-26.525L560.925,106.3z M549.912,204.525
	c21.176,20.25,41.688,45.087,61.538,74.5c8.007,11.871,8.555,27.265,1.412,39.675l-1.412,2.274l-3.55,5.188
	C545.188,417.05,475.875,462.5,400,462.5c-29.962,0-58.888-7.088-86.8-21.25L341.45,413c19.2,8.05,38.712,12,58.55,12
	c61.975,0,120.725-38.525,176.925-119.975l3.438-5.025l-3.45-5.038c-17.574-25.475-35.399-46.75-53.5-63.938L549.912,204.525
	L549.912,204.525z M400,137.5c26.375,0,51.938,5.487,76.725,16.462l-28.949,28.962c-15.384-5.24-31.523-7.917-47.775-7.925
	c-61.975,0-120.725,38.525-176.925,119.975L219.638,300l3.45,5.037c15.15,21.95,30.475,40.775,46,56.575L242.6,388.1
	c-18.525-18.813-36.55-41.188-54.05-67.125c-8.007-11.87-8.555-27.265-1.412-39.675l1.412-2.275l3.55-5.188
	C254.813,182.95,324.125,137.5,400,137.5z M478.338,276.125c15.023,43.249-7.858,90.489-51.107,105.513
	c-17.619,6.12-36.787,6.12-54.405,0l33.375-33.375c20.148-2.786,35.989-18.627,38.774-38.775l33.363-33.375V276.125z M400,220.388
	c3.287,0,6.537,0.188,9.725,0.563l-92.05,92.063c-5.364-45.469,27.147-86.678,72.617-92.042c3.222-0.38,6.464-0.57,9.708-0.571
	V220.388z"/>
</svg>
