<?xml version="1.0" encoding="utf-8"?>
<!-- Generator: Adobe Illustrator 21.0.0, SVG Export Plug-In . SVG Version: 6.00 Build 0)  -->
<svg version="1.1" id="Layer_1" xmlns="http://www.w3.org/2000/svg" xmlns:xlink="http://www.w3.org/1999/xlink" x="0px" y="0px"
	 viewBox="0 0 24 24" xml:space="preserve">
<g id="Icon">
	<g id="UI-icons-英文名" transform="translate(-101.000000, -1475.000000)">
		<g id="网站通用图标" transform="translate(100.000000, 1136.000000)">
			<g id="eyeopen" transform="translate(1.000000, 336.000000)">
				<path id="Combined-Shape" class="st0" d="M12,19c-2.2,0-4-1.8-4-4s1.8-4,4-4s4,1.8,4,4S14.2,19,12,19z M12,17c1.1,0,2-0.9,2-2
					s-0.9-2-2-2s-2,0.9-2,2S10.9,17,12,17z"/>
				<path id="Shape" class="st0" d="M21.9,15.5c0,0.1-2.6,6.5-9.9,6.5c-7.2,0-9.7-6.2-9.9-6.5c-0.1-0.2-0.1-0.7,0-0.9
					C2.2,14.5,5.1,8,12,8c6.9,0,9.7,6.2,9.9,6.6C22,14.8,22,15.3,21.9,15.5 M23.7,13.7C23.6,13.4,20.2,6,12,6S0.4,13.4,0.3,13.7
					c-0.4,0.8-0.4,1.9-0.1,2.6C0.3,16.3,3.4,24,12,24c8.6,0,11.7-7.7,11.7-7.7C24.1,15.5,24.1,14.4,23.7,13.7"/>
			</g>
		</g>
	</g>
</g>
</svg>
