<?xml version="1.0" encoding="utf-8"?>
<!-- Generator: Adobe Illustrator 21.0.0, SVG Export Plug-In . SVG Version: 6.00 Build 0)  -->
<svg version="1.1" id="Layer_1" xmlns="http://www.w3.org/2000/svg" xmlns:xlink="http://www.w3.org/1999/xlink" x="0px" y="0px"
	 viewBox="0 0 24 24" xml:space="preserve">
<g id="Icon">
	<g id="UI-icons-英文名" transform="translate(-627.000000, -1221.000000)">
		<g id="网站通用图标" transform="translate(100.000000, 1053.000000)">
			<g id="file-excel" transform="translate(524.000000, 168.000000)">
				<path id="Shape" class="st0" d="M23.5,7.1L17,0.5c-0.1-0.1-0.2-0.2-0.3-0.3c0,0-0.1,0-0.1-0.1c0,0,0,0-0.1,0
					C16.3,0.1,16,0,15.8,0H7.7C6.8,0,6,0.8,6,1.7v20.6C6,23.2,6.8,24,7.7,24h14.6c0.9,0,1.7-0.8,1.7-1.7V8.3
					C24,7.8,23.8,7.4,23.5,7.1z M21,8h-5V3L21,8z M22,22H8V2h6v5.5c0,0.9,1.7,2.5,2.6,2.5H22V22z"/>
				<path id="Shape_1_" class="st0" d="M13.8,15.6L12.5,12h2l0.4,1.3c0.1,0.4,0.2,0.7,0.3,1.2h0c0.3-0.5,0.5-0.9,0.7-1.2l0.8-1.3
					h1.9L16,15.7l1.4,3.8h-2L15,18c-0.1-0.4-0.2-0.8-0.3-1.3h0c-0.3,0.5-0.5,0.9-0.7,1.3L13,19.5H11L13.8,15.6z"/>
			</g>
		</g>
	</g>
</g>
</svg>
