<?xml version="1.0" encoding="utf-8"?>
<!-- Generator: Adobe Illustrator 15.0.0, SVG Export Plug-In . SVG Version: 6.00 Build 0)  -->
<!DOCTYPE svg PUBLIC "-//W3C//DTD SVG 1.1//EN" "http://www.w3.org/Graphics/SVG/1.1/DTD/svg11.dtd">
<svg version="1.1" id="图层_1" xmlns="http://www.w3.org/2000/svg" xmlns:xlink="http://www.w3.org/1999/xlink" x="0px" y="0px"
	 viewBox="0 0 597.015 597.013" enable-background="new 0 0 597.015 597.013"
	 xml:space="preserve">
<g>
	<g>
		<path d="M87.331,509.681c116.438,116.443,305.916,116.443,422.353,0c116.441-116.438,116.441-305.911,0-422.349
			C393.247-29.11,203.77-29.11,87.331,87.332C-29.11,203.77-29.11,393.237,87.331,509.681L87.331,509.681z M107.503,110.483
			C211.175,6.812,378.243,0,488.54,108.483c104.52,102.801,103.658,274.363,0,378.035c-103.676,103.668-276.378,104.668-380.037,1
			C4.827,383.847,3.827,214.153,107.503,110.483L107.503,110.483z M107.503,110.483"/>
	</g>
</g>
<g>
	<path d="M366.942,169.001H229.815c-39.772,0-72.009,32.452-72.009,72.009v114.995
		c0,39.771,32.452,72.008,72.009,72.008H367.2c39.771,0,72.008-32.452,72.008-72.008V241.01
		C439.167,201.453,406.715,169.001,366.942,169.001z M420.928,356.005h-0.043c0,29.624-24.105,53.728-53.73,53.728H229.815
		c-29.625,0-53.729-24.104-53.729-53.728V241.01c0-29.626,24.104-53.729,53.729-53.729h137.169
		c29.754,0,53.943,24.103,53.943,53.729V356.005z"/>
	<path d="M377.686,250.344h-42.039c-5.053,0-9.162,4.11-9.162,9.163c0,5.05,4.109,9.16,9.162,9.16h42.039
		c5.053,0,9.164-4.109,9.164-9.16C386.85,254.454,382.739,250.344,377.686,250.344z"/>
	<path d="M303.409,250.344h-83.44c-5.052,0-9.161,4.11-9.161,9.163c0,5.05,4.109,9.16,9.161,9.16h83.44
		c5.051,0,9.162-4.109,9.162-9.16C312.571,254.454,308.459,250.344,303.409,250.344z"/>
	<path d="M302.874,323.124h-83.439c-5.053,0-9.163,4.109-9.163,9.162c0,5.051,4.11,9.161,9.163,9.161h83.439
		c5.053,0,9.162-4.11,9.162-9.161C312.036,327.233,307.926,323.124,302.874,323.124z"/>
	<path d="M377.153,323.124h-42.041c-5.053,0-9.162,4.109-9.162,9.162c0,5.051,4.109,9.161,9.162,9.161h42.041
		c5.051,0,9.16-4.11,9.16-9.161C386.313,327.233,382.204,323.124,377.153,323.124z"/>
</g>
</svg>
