<?xml version="1.0" encoding="utf-8"?>
<!-- Generator: Adobe Illustrator 21.0.0, SVG Export Plug-In . SVG Version: 6.00 Build 0)  -->
<svg version="1.1" id="Layer_1" xmlns="http://www.w3.org/2000/svg" xmlns:xlink="http://www.w3.org/1999/xlink" x="0px" y="0px"
	 viewBox="0 0 24 24" xml:space="preserve">
<g id="Icon">
	<g id="UI-icons-英文名" transform="translate(-934.000000, -1985.000000)">
		<g id="网站通用图标" transform="translate(100.000000, 1221.000000)">
			<g id="flag" transform="translate(832.000000, 763.000000)">
				<path id="Shape" class="st0" d="M22.8,7h-4.1V5.7C18.7,4.8,17.9,4,17,4H8.6C8.5,3.2,7.7,2.5,6.9,2.5H5.2c-0.9,0-1.7,0.8-1.7,1.7
					v17.6c0,0.9,0.8,1.7,1.7,1.7h1.7c0.9,0,1.7-0.8,1.7-1.7v-6H17v1.3c0,0.9,0.8,1.7,1.7,1.7h4.1c0.9,0,1.7-0.8,1.7-1.7V8.7
					C24.5,7.8,23.7,7,22.8,7z M6.9,21.8H5.2V4.2h1.7V21.8z M17,14.1H8.6V5.7H17V14.1z M22.8,17.1h-4.1V8.7h4.1V17.1z"/>
			</g>
		</g>
	</g>
</g>
</svg>
