<?xml version="1.0" encoding="utf-8"?>
<!-- Generator: Adobe Illustrator 21.0.0, SVG Export Plug-In . SVG Version: 6.00 Build 0)  -->
<svg version="1.1" id="Layer_1" xmlns="http://www.w3.org/2000/svg" xmlns:xlink="http://www.w3.org/1999/xlink" x="0px" y="0px"
	 viewBox="0 0 24 24" xml:space="preserve">
<g id="Icon">
	<g id="UI-icons-英文名" transform="translate(-1036.000000, -1394.000000)">
		<g id="网站通用图标" transform="translate(100.000000, 1217.000000)">
			<g id="folder-opened" transform="translate(936.000000, 175.000000)">
				<path id="Shape" class="st0" d="M22.5,11.7V8.9c0-0.9-0.8-1.7-1.7-1.7h-9.3l-0.6-1.8C10.7,4.7,10,4.2,9.3,4.2H1.7
					C0.8,4.2,0,5,0,5.9V22c0,0.1,0,0.2,0,0.2c0,0,0,0,0,0c0,0,0,0,0,0.1c0,0,0,0,0,0c0,0,0,0,0,0.1c0,0,0,0,0,0l0,0c0,0,0,0,0,0.1v0
					c0.1,0.3,0.2,0.5,0.4,0.7l0,0c0,0,0,0,0.1,0c0,0,0,0,0,0c0,0,0,0,0,0c0,0,0,0,0,0c0,0,0,0,0,0c0,0,0,0,0.1,0c0,0,0,0,0,0
					c0.2,0.1,0.5,0.2,0.8,0.3c0,0,0,0,0,0c0,0,0,0,0.1,0h0c0,0,0.1,0,0.1,0h18.5c0.8,0,1.4-0.5,1.6-1.3l2.2-8.6
					C24.2,12.8,23.5,11.9,22.5,11.7z M1.7,5.9h7.6l1,3h10.6v2.8h-17c-0.8,0-1.4,0.5-1.6,1.3l-0.5,2.1V5.9z M20.1,22H1.7l2.2-8.6
					h18.5L20.1,22z"/>
			</g>
		</g>
	</g>
</g>
</svg>
