<?xml version="1.0" encoding="utf-8"?>
<!-- Generator: Adobe Illustrator 15.0.0, SVG Export Plug-In . SVG Version: 6.00 Build 0)  -->
<!DOCTYPE svg PUBLIC "-//W3C//DTD SVG 1.1//EN" "http://www.w3.org/Graphics/SVG/1.1/DTD/svg11.dtd">
<svg version="1.1" id="图层_1" xmlns="http://www.w3.org/2000/svg" xmlns:xlink="http://www.w3.org/1999/xlink" x="0px" y="0px"
	 viewBox="0 0 200 200" enable-background="new 0 0 200 200" xml:space="preserve">
<g>
	<path d="M199.998,169.324v20.461c0,2.838-0.975,5.25-2.987,7.238c-1.895,1.946-4.509,3.023-7.226,2.975h-34.111
		c-2.724,0.058-5.348-1.025-7.238-2.987c-1.953-1.896-3.033-4.516-2.986-7.237v-20.463c0-2.837,0.975-5.25,2.986-7.236
		c1.896-1.953,4.517-3.035,7.238-2.988h34.111c2.838,0,5.25,0.975,7.238,2.988C199.023,164.074,199.998,166.486,199.998,169.324z
		 M199.998,114.787v20.462c0,2.837-0.975,5.25-2.987,7.237c-1.896,1.953-4.516,3.034-7.237,2.987h-34.112
		c-2.724,0.058-5.348-1.025-7.237-2.987c-1.953-1.896-3.035-4.516-2.988-7.237v-20.462c0-2.838,0.976-5.25,2.988-7.238
		c1.896-1.953,4.516-3.034,7.237-2.987h34.112c2.838,0,5.25,0.976,7.237,2.987C198.973,109.439,200.056,112.063,199.998,114.787z
		 M199.998,60.212v20.462c0,2.837-0.975,5.25-2.987,7.237c-1.896,1.953-4.516,3.035-7.237,2.988h-34.112
		c-2.724,0.058-5.348-1.026-7.237-2.988c-1.953-1.896-3.035-4.516-2.988-7.237V60.212c0-2.837,0.976-5.25,2.988-7.237
		c1.906-1.944,4.527-3.02,7.25-2.975h34.111c2.838,0,5.25,0.975,7.238,2.988C198.979,54.875,200.057,57.494,199.998,60.212
		L199.998,60.212z M131.773,169.324v20.461c0,2.838-0.975,5.25-2.987,7.238c-1.894,1.946-4.509,3.023-7.225,2.975H87.449
		c-2.724,0.058-5.348-1.025-7.237-2.987c-1.953-1.896-3.035-4.516-2.988-7.237v-20.463c0-2.837,0.975-5.25,2.988-7.236
		c1.896-1.953,4.516-3.035,7.237-2.988h34.088c2.837,0,5.25,0.975,7.236,2.988C130.824,164.074,131.773,166.486,131.773,169.324z
		 M131.773,114.787v20.462c0,2.837-0.975,5.25-2.987,7.237c-1.896,1.953-4.516,3.034-7.237,2.987h-34.1
		c-2.724,0.058-5.348-1.025-7.237-2.987c-1.953-1.896-3.035-4.516-2.988-7.237v-20.462c0-2.838,0.975-5.25,2.988-7.238
		c1.896-1.953,4.516-3.034,7.237-2.987h34.088c2.837,0,5.25,0.976,7.236,2.987C130.755,109.427,131.846,112.058,131.773,114.787z"/>
	<path d="M131.786,60.237v20.5c0,2.75-1,5.25-3,7.125c-1.999,2-4.374,3-7.249,3H92.912c2.625-6.25,4-13.25,4-20.5
		V49.987h24.625c2.875,0,5.25,1,7.249,3C130.786,54.975,131.786,57.35,131.786,60.237L131.786,60.237z"/>
</g>
<g>
	<path d="M0,49.212v21.1c0.027,23.288,18.899,42.16,42.187,42.187c23.288-0.027,42.16-18.899,42.187-42.187v-21.1H0z
		 M52.737,84.462c-0.284,5.826-5.237,10.32-11.063,10.036c-5.43-0.265-9.771-4.607-10.036-10.036v-7.125
		c0-5.813,4.737-10.55,10.55-10.55s10.55,4.737,10.55,10.55V84.462z"/>
	<path d="M63.587,169.324v20.461c0,2.838-0.975,5.25-2.987,7.238c-1.897,1.949-4.518,3.026-7.238,2.975h-34.1
		c-2.724,0.058-5.347-1.025-7.237-2.987c-1.953-1.896-3.035-4.516-2.987-7.237v-20.463c0-2.837,0.975-5.25,2.987-7.236
		c1.896-1.953,4.516-3.035,7.237-2.988h34.112c2.837,0,5.25,0.975,7.237,2.988C62.6,164.074,63.587,166.486,63.587,169.324z"/>
	<path d="M63.537,120.725v14.499c0,2.875-0.875,5.25-2.875,7.25c-2.125,2-4.5,3-7.25,3H19.287
		c-2.875,0-5.25-1-7.25-3c-1.965-1.894-3.052-4.521-3-7.25v-20.499c0-0.375,0-0.625,0.125-1c9.125,7.125,20.625,11.25,33,11.25
		C49.662,124.986,56.912,123.486,63.537,120.725z"/>
	<path d="M60.787,42.075v-12.55c0-9.638-8.337-17.487-18.587-17.487s-18.6,7.85-18.6,17.487v12.55H11.563v-12.55
		C11.563,13.237,25.313,0,42.187,0c16.875,0,30.625,13.25,30.625,29.525v12.55H60.787z M42.187,73.824
		c-1.94,0-3.512,1.573-3.512,3.513l0,0v7.037c0.001,1.94,1.574,3.512,3.514,3.511c1.938-0.001,3.51-1.572,3.511-3.511v-7.037
		C45.7,75.397,44.127,73.824,42.187,73.824L42.187,73.824z"/>
</g>
</svg>
