<?xml version="1.0" encoding="utf-8"?>
<!-- Generator: Adobe Illustrator 15.0.0, SVG Export Plug-In . SVG Version: 6.00 Build 0)  -->
<!DOCTYPE svg PUBLIC "-//W3C//DTD SVG 1.1//EN" "http://www.w3.org/Graphics/SVG/1.1/DTD/svg11.dtd">
<svg version="1.1" id="图层_1" xmlns="http://www.w3.org/2000/svg" xmlns:xlink="http://www.w3.org/1999/xlink" x="0px" y="0px"
	 viewBox="0 0 200 200" enable-background="new 0 0 200 200" xml:space="preserve">
<g>
	<path d="M200,49.212v21.1c-0.027,23.288-18.899,42.16-42.187,42.187c-23.288-0.027-42.16-18.899-42.188-42.187
		v-21.1H200z M147.264,84.462c0.283,5.826,5.236,10.32,11.063,10.036c5.43-0.265,9.771-4.607,10.036-10.036v-7.125
		c0-5.813-4.737-10.55-10.55-10.55s-10.55,4.737-10.55,10.55V84.462z"/>
	<path d="M136.413,169.324v20.461c0,2.838,0.976,5.25,2.987,7.238c1.897,1.949,4.518,3.026,7.238,2.975h34.1
		c2.724,0.058,5.347-1.025,7.237-2.987c1.953-1.896,3.034-4.516,2.987-7.237v-20.463c0-2.837-0.975-5.25-2.987-7.236
		c-1.896-1.953-4.516-3.035-7.237-2.988h-34.112c-2.838,0-5.25,0.975-7.237,2.988C137.4,164.074,136.413,166.486,136.413,169.324z"
		/>
	<path d="M136.463,120.725v14.499c0,2.875,0.875,5.25,2.875,7.25c2.125,2,4.5,3,7.25,3h34.125c2.875,0,5.25-1,7.25-3
		c1.965-1.894,3.052-4.521,3-7.25v-20.499c0-0.375,0-0.625-0.125-1c-9.125,7.125-20.625,11.25-33,11.25
		C150.338,124.986,143.088,123.486,136.463,120.725z"/>
	<path d="M139.213,42.075v-12.55c0-9.638,8.338-17.487,18.588-17.487s18.6,7.85,18.6,17.487v12.55h12.037v-12.55
		C188.438,13.237,174.688,0,157.813,0c-16.875,0-30.625,13.25-30.625,29.525v12.55H139.213z M157.813,73.824
		c1.939,0,3.512,1.573,3.512,3.513l0,0v7.037c-0.001,1.94-1.574,3.512-3.514,3.511c-1.938-0.001-3.51-1.572-3.511-3.511v-7.037
		C154.301,75.397,155.873,73.824,157.813,73.824L157.813,73.824z"/>
</g>
<g>
	<path d="M0.002,169.324v20.461c0,2.838,0.975,5.25,2.987,7.238c1.895,1.946,4.509,3.023,7.226,2.975h34.111
		c2.724,0.058,5.348-1.025,7.238-2.987c1.953-1.896,3.033-4.516,2.986-7.237v-20.463c0-2.837-0.975-5.25-2.986-7.236
		c-1.896-1.953-4.517-3.035-7.238-2.988H10.215c-2.838,0-5.25,0.975-7.238,2.988C0.977,164.074,0.002,166.486,0.002,169.324z
		 M0.002,114.787v20.462c0,2.837,0.975,5.25,2.987,7.237c1.896,1.953,4.516,3.034,7.237,2.987h34.112
		c2.724,0.058,5.348-1.025,7.237-2.987c1.953-1.896,3.035-4.516,2.988-7.237v-20.462c0-2.838-0.976-5.25-2.988-7.238
		c-1.896-1.953-4.516-3.034-7.237-2.987H10.227c-2.838,0-5.25,0.976-7.237,2.987C1.028,109.439-0.055,112.063,0.002,114.787z
		 M0.002,60.212v20.462c0,2.837,0.975,5.25,2.987,7.237c1.896,1.953,4.516,3.035,7.237,2.988h34.112
		c2.724,0.058,5.348-1.026,7.237-2.988c1.953-1.896,3.035-4.516,2.988-7.237V60.212c0-2.837-0.976-5.25-2.988-7.237
		c-1.906-1.944-4.527-3.02-7.25-2.975H10.215c-2.838,0-5.25,0.975-7.238,2.988C1.022,54.875-0.056,57.494,0.002,60.212L0.002,60.212
		z M68.227,169.324v20.461c0,2.838,0.975,5.25,2.987,7.238c1.894,1.946,4.509,3.023,7.225,2.975h34.112
		c2.724,0.058,5.348-1.025,7.237-2.987c1.953-1.896,3.035-4.516,2.988-7.237v-20.463c0-2.837-0.976-5.25-2.988-7.236
		c-1.896-1.953-4.516-3.035-7.237-2.988H78.463c-2.837,0-5.25,0.975-7.236,2.988C69.176,164.074,68.227,166.486,68.227,169.324z
		 M68.227,114.787v20.462c0,2.837,0.975,5.25,2.987,7.237c1.896,1.953,4.516,3.034,7.237,2.987h34.099
		c2.724,0.058,5.348-1.025,7.237-2.987c1.953-1.896,3.035-4.516,2.988-7.237v-20.462c0-2.838-0.976-5.25-2.988-7.238
		c-1.896-1.953-4.516-3.034-7.237-2.987H78.463c-2.837,0-5.25,0.976-7.236,2.987C69.246,109.427,68.155,112.058,68.227,114.787z"/>
	<path d="M68.214,60.237v20.5c0,2.75,1,5.25,3,7.125c1.999,2,4.374,3,7.249,3h28.625c-2.625-6.25-4-13.25-4-20.5
		V49.987H78.463c-2.875,0-5.25,1-7.249,3C69.214,54.975,68.214,57.35,68.214,60.237L68.214,60.237z"/>
</g>
</svg>
