<?xml version="1.0" standalone="no"?><svg t="1551136915853" viewBox="0 0 1024 1024" version="1.1" xmlns="http://www.w3.org/2000/svg" p-id="4089" xmlns:xlink="http://www.w3.org/1999/xlink" ><path d="M967.68 676.352H56.32a38.4 38.4 0 0 0-38.4 40.448v192a38.4 38.4 0 0 0 38.4 38.4h911.36a38.4 38.4 0 0 0 38.4-38.4V716.8a38.4 38.4 0 0 0-38.4-40.448zM929.28 870.4H94.72v-117.248h834.56V870.4zM56.32 646.656h697.856a38.4 38.4 0 0 0 38.4-38.4V416.256a38.4 38.4 0 0 0-38.4-38.4H56.32a38.4 38.4 0 0 0-38.4 38.4v192a38.4 38.4 0 0 0 38.4 38.4z m38.4-192H716.8v115.2H94.72V454.656zM56.32 347.648h349.184A38.4 38.4 0 0 0 443.904 307.2V117.248a38.4 38.4 0 0 0-38.4-38.4H56.32a38.4 38.4 0 0 0-38.4 38.4V307.2a38.4 38.4 0 0 0 38.4 40.448zM94.72 153.6h272.384v117.248H94.72V153.6z" p-id="4090"></path></svg>