<?xml version="1.0" encoding="utf-8"?>
<!-- Generator: Adobe Illustrator 21.0.0, SVG Export Plug-In . SVG Version: 6.00 Build 0)  -->
<svg version="1.1" id="Layer_1" xmlns="http://www.w3.org/2000/svg" xmlns:xlink="http://www.w3.org/1999/xlink" x="0px" y="0px"
	 viewBox="0 0 24 24" xml:space="preserve">
<g id="Icon">
	<g id="UI-icons-英文名" transform="translate(-520.000000, -1138.000000)">
		<g id="网站通用图标" transform="translate(101.000000, 1053.000000)">
			<g id="group" transform="translate(417.000000, 84.000000)">
				<path id="Shape" class="st0" d="M22.4,13c-0.5-0.5-1-0.8-1.6-1.1c0.7-0.4,1.3-0.9,1.7-1.5c0.5-0.8,0.8-1.7,0.8-2.6
					c0-2.6-2.2-4.7-4.8-4.7c-1,0-2,0.3-2.8,0.9C15,4.4,14.4,5,14.1,5.8c-0.9-1-2.2-1.5-3.5-1.5C7.9,4.3,5.7,6.4,5.7,9
					c0,0.9,0.3,1.9,0.8,2.6c0.4,0.6,1,1.2,1.7,1.5c-0.6,0.3-1.1,0.6-1.6,1.1c-1,1-1.6,2.4-1.6,3.8v3.8C5,23,6,24,7.2,24h6.6
					c0.9,0,1.7-0.5,2-1.3h6c1.2,0,2.2-1,2.2-2.1v-3.8C24,15.3,23.4,14,22.4,13z M16.3,5.6c0.6-0.6,1.4-0.9,2.2-0.9s1.6,0.3,2.2,0.9
					c0.6,0.6,0.9,1.3,0.9,2.1s-0.3,1.6-0.9,2.1c-0.6,0.6-1.4,0.9-2.2,0.9s-1.6-0.3-2.2-0.9c-0.6-0.6-0.9-1.3-0.9-2.1
					S15.7,6.1,16.3,5.6z M7.4,9c0-0.8,0.3-1.6,0.9-2.1C8.9,6.3,9.7,6,10.5,6c0.8,0,1.6,0.3,2.2,0.9c0.6,0.6,0.9,1.3,0.9,2.1
					c0,0.8-0.3,1.6-0.9,2.1c-0.6,0.6-1.4,0.9-2.2,0.9c-0.8,0-1.6-0.3-2.2-0.9C7.7,10.6,7.4,9.8,7.4,9z M14.3,21.9
					c0,0.1,0,0.2-0.1,0.3c-0.1,0.1-0.2,0.1-0.3,0.1H7.2c-0.3,0-0.5-0.2-0.5-0.5V18c0-1,0.4-1.9,1.1-2.6c0.7-0.7,1.7-1.1,2.7-1.1
					s2,0.4,2.7,1.1c0,0,0,0,0,0l0,0c0.7,0.7,1.1,1.6,1.1,2.6V21.9z M13.9,13.8c-0.3-0.3-0.7-0.5-1.1-0.7c1-0.5,1.7-1.3,2.2-2.2
					c0.4,0.4,0.8,0.7,1.3,1c-0.6,0.3-1.1,0.6-1.6,1.1C14.3,13.2,14.1,13.5,13.9,13.8z M22.3,20.6c0,0.3-0.2,0.5-0.5,0.5H16v-3
					c0-1.1-0.3-2.1-0.9-2.9c0.2-0.3,0.4-0.7,0.7-0.9c0.7-0.7,1.7-1.1,2.7-1.1c1,0,2,0.4,2.7,1.1s1.1,1.6,1.1,2.6V20.6z"/>
			</g>
		</g>
	</g>
</g>
</svg>
