<?xml version="1.0" encoding="utf-8"?>
<!-- Generator: Adobe Illustrator 21.0.0, SVG Export Plug-In . SVG Version: 6.00 Build 0)  -->
<svg version="1.1" id="Layer_1" xmlns="http://www.w3.org/2000/svg" xmlns:xlink="http://www.w3.org/1999/xlink" x="0px" y="0px"
	 viewBox="0 0 24 24" xml:space="preserve">
<g id="Icon">
	<g id="UI-icons-英文名" transform="translate(-829.000000, -930.000000)">
		<g id="提示建议性图标" transform="translate(100.000000, 761.000000)">
			<g id="Checkbox-Partial-Select" transform="translate(728.000000, 168.000000)">
				<path id="Combined-Shape" class="st0" d="M4,2h18c0.9,0,2,1.1,2,2v18c0,0.9-1,2-2,2H4c-0.9,0-2-1.1-2-2V4C2,3.1,3.1,2,4,2z
					 M7,12c-0.6,0-1,0.4-1,1s0.4,1,1,1h12c0.6,0,1-0.4,1-1s-0.4-1-1-1H7z"/>
			</g>
		</g>
	</g>
</g>
</svg>
