<?xml version="1.0" encoding="utf-8"?>
<!-- Generator: Adobe Illustrator 15.0.0, SVG Export Plug-In . SVG Version: 6.00 Build 0)  -->
<!DOCTYPE svg PUBLIC "-//W3C//DTD SVG 1.1//EN" "http://www.w3.org/Graphics/SVG/1.1/DTD/svg11.dtd">
<svg version="1.1" id="图层_1" xmlns="http://www.w3.org/2000/svg" xmlns:xlink="http://www.w3.org/1999/xlink" x="0px" y="0px"
	 width="484.675px" height="398.797px" viewBox="0 0 484.675 398.797" enable-background="new 0 0 484.675 398.797"
	 xml:space="preserve">
<g>
	<path d="M445.508,0H39.168C17.571,0,0,17.571,0,39.171v264.301c0,21.598,17.571,39.169,39.168,39.169h182.039
		l45.524,56.156l37.581-56.156h141.195c21.6,0,39.167-17.571,39.167-39.169V39.171C484.675,17.571,467.107,0,445.508,0z
		 M452.459,303.472c0,3.736-3.218,6.955-6.951,6.955H288.204l-21.476,54.025l-33.473-53.988l1.341-0.037h-1.364l-0.135-0.22
		l-2.305,0.22H39.168c-3.734,0-6.955-3.219-6.955-6.955V39.171c0-3.735,3.221-6.957,6.955-6.957h406.339
		c3.733,0,6.951,3.222,6.951,6.957V303.472z"/>
	<path d="M151.566,144.131h-29.286c-4.024,0-7.318,3.298-7.318,7.324v29.287c0,4.025,3.294,7.319,7.318,7.319h29.286
		c4.029,0,7.323-3.294,7.323-7.319v-29.287C158.89,147.429,155.596,144.131,151.566,144.131z"/>
	<path d="M255.533,143.401h-29.288c-4.026,0-7.322,3.296-7.322,7.323v29.282c0,4.027,3.295,7.322,7.322,7.322h29.288
		c4.021,0,7.322-3.295,7.322-7.322v-29.282C262.855,146.697,259.555,143.401,255.533,143.401z"/>
	<path d="M360.96,143.401h-29.287c-4.027,0-7.319,3.296-7.319,7.323v29.282c0,4.027,3.292,7.322,7.319,7.322h29.287
		c4.026,0,7.319-3.295,7.319-7.322v-29.282C368.279,146.697,364.986,143.401,360.96,143.401z"/>
</g>
</svg>
