<?xml version="1.0" standalone="no"?><svg t="1572593720071" class="icon" viewBox="0 0 1024 1024" version="1.1" xmlns="http://www.w3.org/2000/svg" p-id="1122" xmlns:xlink="http://www.w3.org/1999/xlink" ><path d="M511.298 73.811c-241.308 0-437.066 195.618-437.066 436.994 0 241.378 195.758 437.068 437.066 437.068 241.447 0 437.063-195.689 437.063-437.068 0-241.377-195.616-436.994-437.063-436.994zM579.836 671.679c-32.969 49.453-66.485 87.686-122.982 87.686-38.575-6.29-54.309-33.925-45.963-62.035l72.638-240.558c1.778-5.883-1.229-12.172-6.567-14.091-5.335-1.847-15.869 5.132-25.033 15.051l-43.775 52.801c-1.232-8.823-0.138-23.53-0.138-29.411 32.969-49.521 87.138-88.574 123.802-88.574 35.019 3.554 51.573 31.461 45.417 62.173l-73.047 241.649c-1.094 5.473 1.914 11.011 6.838 12.793 5.335 1.847 16.691-5.133 25.717-15.047l43.914-52.804c1.229 8.825-0.819 24.418-0.819 30.367zM570.122 357.459c-27.77 0-50.342-20.179-50.342-49.999 0-29.755 22.574-50.001 50.342-50.001 27.769 0 50.206 20.245 50.206 50.001 0 29.819-22.438 49.999-50.206 49.999z" p-id="1123"></path></svg>