<?xml version="1.0" encoding="utf-8"?>
<!-- Generator: Adobe Illustrator 21.0.0, SVG Export Plug-In . SVG Version: 6.00 Build 0)  -->
<svg version="1.1" id="Layer_1" xmlns="http://www.w3.org/2000/svg" xmlns:xlink="http://www.w3.org/1999/xlink" x="0px" y="0px"
	 viewBox="0 0 24 24" xml:space="preserve">
<g id="Icon">
	<g id="UI-icons-英文名" transform="translate(-516.000000, -929.000000)">
		<g id="提示建议性图标" transform="translate(100.000000, 761.000000)">
			<g id="Info" transform="translate(416.000000, 168.000000)">
				<path id="Combined-Shape" class="st0" d="M12,8h-2C9.4,8,9,8.4,9,9s0.4,1,1,1h1v6H9c-0.6,0-1,0.4-1,1s0.4,1,1,1h6
					c0.6,0,1-0.4,1-1s-0.4-1-1-1h-2V9C13,8.4,12.6,8,12,8z M12,24C5.4,24,0,18.6,0,12S5.4,0,12,0s12,5.4,12,12S18.6,24,12,24z M12,7
					c0.6,0,1-0.4,1-1s-0.4-1-1-1s-1,0.4-1,1S11.4,7,12,7z"/>
			</g>
		</g>
	</g>
</g>
</svg>
