<?xml version="1.0" encoding="utf-8"?>
<!-- Generator: Adobe Illustrator 16.0.0, SVG Export Plug-In . SVG Version: 6.00 Build 0)  -->
<!DOCTYPE svg PUBLIC "-//W3C//DTD SVG 1.1//EN" "http://www.w3.org/Graphics/SVG/1.1/DTD/svg11.dtd">
<svg version="1.1" id="图层_1" xmlns="http://www.w3.org/2000/svg" xmlns:xlink="http://www.w3.org/1999/xlink" x="0px" y="0px"
	 width="161.754px" height="156.391px" viewBox="0 0 161.754 156.391" enable-background="new 0 0 161.754 156.391"
	 xml:space="preserve">
<g id="图层_2">
</g>
<g id="Icon">
	<g id="UI-icons-英文名" transform="translate(-103.000000, -1145.000000)">
		<g id="网站通用图标" transform="translate(100.000000, 1137.000000)">
			<g id="lock" transform="translate(0.000000, 7.000000)">
				<path id="Combined-Shape" d="M111.456,78.845v52.727c0,6.446-5.273,11.717-11.719,11.717H17.716
					C11.273,143.288,6,138.018,6,131.572V78.845v-11.72h105.456V78.845z M17.716,78.845v52.727h82.021V78.845H17.716z"/>
				<path id="Combined-Shape_1_" d="M6,67.125c0-29.292,23.435-52.727,52.728-52.727c29.292,0,52.728,23.435,52.728,52.727H99.737
					c0-22.847-18.161-41.009-41.009-41.009c-22.849,0-41.012,18.162-41.012,41.009H6z"/>
				<path id="Combined-Shape_2_" d="M64.586,106.965c0,0.586,0,1.172,0,1.172v11.718c0,3.515-2.343,5.856-5.858,5.856
					c-3.516,0-5.86-2.342-5.86-5.856v-11.718c0-0.586,0-1.172,0-1.172c-3.514-1.756-5.857-5.858-5.857-10.547
					c0-6.441,5.272-11.715,11.717-11.715c6.444,0,11.716,5.273,11.716,11.715C70.444,101.107,68.101,104.622,64.586,106.965z"/>
			</g>
		</g>
	</g>
</g>
<path d="M154.754,148.391c0,4.418-3.582,8-8,8H128.42c-4.418,0-8-3.582-8-8V8c0-4.418,3.582-8,8-8h18.334
	c4.418,0,8,3.582,8,8V148.391z"/>
</svg>
