<?xml version="1.0" encoding="utf-8"?>
<!-- Generator: Adobe Illustrator 21.0.0, SVG Export Plug-In . SVG Version: 6.00 Build 0)  -->
<svg version="1.1" id="Layer_1" xmlns="http://www.w3.org/2000/svg" xmlns:xlink="http://www.w3.org/1999/xlink" x="0px" y="0px"
	 viewBox="0 0 24 24" xml:space="preserve">
<g id="Icon">
	<g id="UI-icons-英文名" transform="translate(-309.000000, -1229.000000)">
		<g id="网站通用图标" transform="translate(100.000000, 1221.000000)">
			<g id="line-chart" transform="translate(208.000000, 7.000000)">
				<path id="Combined-Shape" class="st0" d="M4,22h19c0.6,0,1,0.4,1,1s-0.4,1-1,1H3c-0.6,0-1-0.4-1-1V3c0-0.6,0.4-1,1-1s1,0.4,1,1
					V22z M10,20.4c-0.3,0-0.5-0.1-0.7-0.4l-3.7-5.9c-0.3-0.4-0.1-0.9,0.2-1.2c0.4-0.3,0.9-0.1,1.2,0.2l2.6,4.3l1.1-4.2
					c0.1-0.2,0.2-0.4,0.4-0.5l4.3-2.1c0.4-0.2,0.9-0.1,1.1,0.3l2.1,3.5l3.1-9.5c0.1-0.4,0.6-0.7,1.1-0.5c0.4,0.1,0.7,0.6,0.5,1.1
					l-3.7,11.2c-0.1,0.3-0.4,0.5-0.7,0.6c-0.3,0-0.6-0.1-0.8-0.4l-2.7-4.4l-3.2,1.6l-1.4,5.6c-0.1,0.3-0.3,0.6-0.7,0.6
					C10.1,20.4,10.1,20.4,10,20.4z"/>
			</g>
		</g>
	</g>
</g>
</svg>
