<?xml version="1.0" encoding="utf-8"?>
<!-- Generator: Adobe Illustrator 21.0.0, SVG Export Plug-In . SVG Version: 6.00 Build 0)  -->
<svg version="1.1" id="Layer_1" xmlns="http://www.w3.org/2000/svg" xmlns:xlink="http://www.w3.org/1999/xlink" x="0px" y="0px"
	 viewBox="0 0 24 24" xml:space="preserve">
<g id="Icon">
	<g id="UI-icons-英文名" transform="translate(-828.000000, -1735.000000)">
		<g id="网站通用图标" transform="translate(100.000000, 1136.000000)">
			<g id="mail" transform="translate(728.000000, 596.000000)">
				<path id="Shape" class="st0" d="M21,6H3C2.1,6,1,7.1,1,8v14c0,0.9,1.1,2,2,2h18c0.9,0,2-1.1,2-2V8C23,7.1,21.9,6,21,6z M19,8
					l-6.3,4.7l0,0l0,0c-0.2,0.2-0.4,0.2-0.6,0.2c-0.2,0-0.4-0.1-0.6-0.2l0,0L5,8H19z M3,22c0,0,0-4.3,0-13l7.2,5.4
					c0.5,0.4,1.1,0.7,1.8,0.7c0.7,0,1.4-0.2,1.9-0.7L21,9v13C21,22,15,22,3,22z"/>
			</g>
		</g>
	</g>
</g>
</svg>
