<?xml version="1.0" encoding="utf-8"?>
<!-- Generator: Adobe Illustrator 21.0.0, SVG Export Plug-In . SVG Version: 6.00 Build 0)  -->
<svg version="1.1" id="Layer_1" xmlns="http://www.w3.org/2000/svg" xmlns:xlink="http://www.w3.org/1999/xlink" x="0px" y="0px"
	 viewBox="0 0 24 24" xml:space="preserve">
<g id="Icon">
	<g id="UI-icons-英文名" transform="translate(-832.000000, -556.000000)">
		<g id="方向性图标" transform="translate(101.000000, 304.000000)">
			<g id="minscreen" transform="translate(730.000000, 251.000000)">
				<path id="Shape" class="st0" d="M4,9h3.5L2.3,3.7c-0.4-0.4-0.4-1,0-1.4c0.4-0.4,1-0.4,1.4,0L9,7.7V4c0-0.6,0.4-1,1-1s1,0.4,1,1
					v6c0,0.6-0.4,1-1,1H4c-0.5,0-1-0.4-1-1C3,9.4,3.4,9,4,9z"/>
				<path id="Shape-Copy-5" class="st0" d="M4,17h3.5l-5.2,5.3c-0.4,0.4-0.4,1,0,1.4c0.4,0.4,1,0.4,1.4,0L9,18.3V22c0,0.6,0.4,1,1,1
					s1-0.4,1-1v-6c0-0.6-0.4-1-1-1H4c-0.5,0-1,0.4-1,1S3.4,17,4,17z"/>
				<path id="Shape-Copy-4" class="st0" d="M22,9h-3.5l5.2-5.3c0.4-0.4,0.4-1,0-1.4s-1-0.4-1.4,0L17,7.7V4c0-0.6-0.4-1-1-1
					s-1,0.4-1,1v6c0,0.6,0.4,1,1,1h6c0.5,0,1-0.4,1-1C23,9.4,22.6,9,22,9z"/>
				<path id="Shape-Copy-6" class="st0" d="M22,17h-3.5l5.2,5.3c0.4,0.4,0.4,1,0,1.4c-0.4,0.4-1,0.4-1.4,0L17,18.3V22
					c0,0.6-0.4,1-1,1s-1-0.4-1-1v-6c0-0.6,0.4-1,1-1h6c0.5,0,1,0.4,1,1S22.6,17,22,17z"/>
			</g>
		</g>
	</g>
</g>
</svg>
