<?xml version="1.0" standalone="no"?><svg t="1553912398656" class="icon" viewBox="0 0 1024 1024" version="1.1" xmlns="http://www.w3.org/2000/svg" p-id="9893" xmlns:xlink="http://www.w3.org/1999/xlink" ><path d="M769.458179 32.540422 278.179674 32.540422c-34.075347 0-61.704007 27.62866-61.704007 61.704007l0 803.789347c0 34.075347 27.62866 61.704007 61.704007 61.704007l491.278505 0c34.075347 0 61.704007-27.62866 61.704007-61.704007L831.162186 94.244429C831.162186 60.169082 803.533527 32.540422 769.458179 32.540422zM278.179674 87.797742l491.278505 0c3.581493 0 6.446687 2.865194 6.446687 6.446687l0 545.512541L271.732987 639.75697 271.732987 94.244429C271.732987 90.662936 274.598181 87.797742 278.179674 87.797742zM769.458179 904.480464 278.179674 904.480464c-3.581493 0-6.446687-2.865194-6.446687-6.446687L271.732987 695.01429l504.17188 0 0 203.019486C775.904867 901.512941 773.039672 904.480464 769.458179 904.480464z" p-id="9894"></path><path d="M524.995703 797.547317m-60.373738 0a59 59 0 1 0 120.747477 0 59 59 0 1 0-120.747477 0Z" p-id="9895"></path></svg>