<?xml version="1.0" encoding="utf-8"?>
<!-- Generator: Adobe Illustrator 21.0.0, SVG Export Plug-In . SVG Version: 6.00 Build 0)  -->
<svg version="1.1" id="Layer_1" xmlns="http://www.w3.org/2000/svg" xmlns:xlink="http://www.w3.org/1999/xlink" x="0px" y="0px"
	 viewBox="0 0 24 24" xml:space="preserve">
<g id="Icon">
	<g id="UI-icons-英文名" transform="translate(-1255.000000, -2071.000000)">
		<g id="网站通用图标" transform="translate(100.000000, 1136.000000)">
			<g id="more" transform="translate(1144.000000, 932.000000)">
				<path id="Combined-Shape" class="st0" d="M22,8.5C22,7.7,22.7,7,23.5,7S25,7.7,25,8.5S24.3,10,23.5,10S22,9.3,22,8.5z M22,15.5
					c0-0.8,0.7-1.5,1.5-1.5s1.5,0.7,1.5,1.5c0,0.8-0.7,1.5-1.5,1.5S22,16.3,22,15.5z M22,22.5c0-0.8,0.7-1.5,1.5-1.5
					s1.5,0.7,1.5,1.5S24.3,24,23.5,24S22,23.3,22,22.5z"/>
			</g>
		</g>
	</g>
</g>
</svg>
