<?xml version="1.0" encoding="utf-8"?>
<!-- Generator: Adobe Illustrator 21.0.0, SVG Export Plug-In . SVG Version: 6.00 Build 0)  -->
<svg version="1.1" id="Layer_1" xmlns="http://www.w3.org/2000/svg" xmlns:xlink="http://www.w3.org/1999/xlink" x="0px" y="0px"
	 viewBox="0 0 24 24" xml:space="preserve">
<g id="Icon">
	<g id="UI-icons-英文名" transform="translate(-934.000000, -930.000000)">
		<g id="提示建议性图标" transform="translate(101.000000, 761.000000)">
			<g id="new" transform="translate(832.000000, 168.000000)">
				<path id="Combined-Shape" class="st0" d="M24,8h-2V4h-4V2h4c0.9,0,2,1.1,2,2V8z M24,11v4h-2v-4H24z M2,11h2v4H2V11z M2,8V4
					c0-0.9,1.1-2,2-2h4v2H4v4H2z M18,24v-2h4v-4h2v4c0,0.9-1,2-2,2H18z M15,24h-4v-2h4V24z M15,2v2h-4V2H15z M2,18h2v4h4v2H4
					c-0.9,0-2-1.1-2-2V18z"/>
				<path id="plus-circle" class="st0" d="M18,12h-4V8c0-0.5-0.5-1-1-1s-1,0.5-1,1v4H8c-0.5,0-1,0.5-1,1s0.6,1,1,1h4v4
					c0,0.5,0.5,1,1,1s1-0.5,1-1v-4h4c0.5,0,1-0.5,1-1S18.5,12,18,12z"/>
			</g>
		</g>
	</g>
</g>
</svg>
