<?xml version="1.0" encoding="utf-8"?>
<!-- Generator: Adobe Illustrator 21.0.0, SVG Export Plug-In . SVG Version: 6.00 Build 0)  -->
<svg version="1.1" id="Layer_1" xmlns="http://www.w3.org/2000/svg" xmlns:xlink="http://www.w3.org/1999/xlink" x="0px" y="0px"
	 viewBox="0 0 24 24" xml:space="preserve">
<g id="Icon">
	<g id="UI-icons-英文名" transform="translate(-102.000000, -2153.000000)">
		<g id="网站通用图标" transform="translate(100.000000, 1137.000000)">
			<g id="no-premission" transform="translate(0.000000, 1015.000000)">
				<path id="Rectangle-6" class="st0" d="M8,6h7c0.6,0,1,0.4,1,1l0,0c0,0.6-0.4,1-1,1H8C7.4,8,7,7.6,7,7l0,0C7,6.4,7.4,6,8,6z"/>
				<path id="Rectangle-6-Copy" class="st0" d="M8,10h5c0.6,0,1,0.4,1,1l0,0c0,0.6-0.4,1-1,1H8c-0.6,0-1-0.4-1-1l0,0
					C7,10.4,7.4,10,8,10z"/>
				<path id="Rectangle-6-Copy_1_" class="st0" d="M17,17h2c0.6,0,1,0.4,1,1l0,0c0,0.6-0.4,1-1,1h-2c-0.6,0-1-0.4-1-1l0,0
					C16,17.4,16.4,17,17,17z"/>
				<path id="Shape" class="st0" d="M20,2H6C5.1,2,4,3.1,4,4v18c0,0.9,1.1,2,2,2h5c0.5,0,1-0.5,1-1s-0.5-1-1-1l-5,0V4h14v6
					c0,0.5,0.5,1,1,1s1-0.5,1-1V4C22,3.1,20.9,2,20,2z"/>
				<path id="Combined-Shape" class="st0" d="M18,24c-3.3,0-6-2.7-6-6s2.7-6,6-6s6,2.7,6,6S21.3,24,18,24z M18,22c2.2,0,4-1.8,4-4
					s-1.8-4-4-4s-4,1.8-4,4S15.8,22,18,22z"/>
			</g>
		</g>
	</g>
</g>
</svg>
