<?xml version="1.0" encoding="utf-8"?>
<!-- Generator: Adobe Illustrator 15.0.0, SVG Export Plug-In . SVG Version: 6.00 Build 0)  -->
<!DOCTYPE svg PUBLIC "-//W3C//DTD SVG 1.1//EN" "http://www.w3.org/Graphics/SVG/1.1/DTD/svg11.dtd">
<svg version="1.1" id="图层_1" xmlns="http://www.w3.org/2000/svg" xmlns:xlink="http://www.w3.org/1999/xlink" x="0px" y="0px"
viewBox="0 0 200 200" xml:space="preserve">
<path d="M100,0C44.75,0,0,44.75,0,100s44.75,100,100,100s100-44.75,100-100S155.25,0,100,0z M145.834,112.5H112.5v-0.041
	c0,0-5.584,0-12.5,0c-6.917,0-12.5,0-12.5,0v0.041H54.167c-6.917,0-12.5-5.584-12.5-12.5c0-6.917,5.583-12.5,12.5-12.5H87.5v-0.042
	c0,0,5.583-0.042,12.5-0.042c6.916,0,12.5,0.042,12.5,0.042V87.5h33.334c6.916,0,12.5,5.583,12.5,12.5
	C158.334,106.916,152.75,112.5,145.834,112.5z"/>
</svg>
