<?xml version="1.0" standalone="no"?><svg t="1573727651517" viewBox="0 0 1024 1024" version="1.1" xmlns="http://www.w3.org/2000/svg" p-id="34250" xmlns:xlink="http://www.w3.org/1999/xlink"><path d="M512 0C229.12 0 0 229.12 0 512s229.12 512 512 512 512-229.12 512-512S794.88 0 512 0z m234.666667 576h-170.666667v170.666667c0 35.413333-28.586667 64-64 64s-64-28.586667-64-64v-170.666667h-170.666667c-35.413333 0-64-28.586667-64-64s28.586667-64 64-64h170.666667v-170.666667c0-35.413333 28.586667-64 64-64s64 28.586667 64 64v170.666667h170.666667c35.413333 0 64 28.586667 64 64s-28.586667 64-64 64z" p-id="34251"></path></svg>
