<?xml version="1.0" encoding="utf-8"?>
<!-- Generator: Adobe Illustrator 21.0.0, SVG Export Plug-In . SVG Version: 6.00 Build 0)  -->
<svg version="1.1" id="Layer_1" xmlns="http://www.w3.org/2000/svg" xmlns:xlink="http://www.w3.org/1999/xlink" x="0px" y="0px"
	 viewBox="0 0 24 24" xml:space="preserve">
<g id="Icon">
	<g id="UI-icons-英文名" transform="translate(-622.000000, -1015.000000)">
		<g id="提示建议性图标" transform="translate(100.000000, 761.000000)">
			<g id="panel-normal" transform="translate(520.000000, 252.000000)">
				<path id="Combined-Shape" class="st0" d="M16,12H6v10h10v-8H6v-2L16,12L16,12z M6,10h10c0.9,0,2,1.1,2,2v10c0,0.9-1,2-2,2H6
					c-0.9,0-2-1.1-2-2V12C4,11.1,5.1,10,6,10z"/>
				<path id="Combined-Shape_1_" class="st0" d="M12,10h-2V6c0-0.9,1.1-2,2-2h10c0.9,0,2,1.1,2,2v10c0,0.9-1,2-2,2h-4v-2h4V8H12V6
					h10L12,6V10z"/>
			</g>
		</g>
	</g>
</g>
</svg>
