<?xml version="1.0" encoding="utf-8"?>
<!-- Generator: Adobe Illustrator 21.0.0, SVG Export Plug-In . SVG Version: 6.00 Build 0)  -->
<svg version="1.1" id="Layer_1" xmlns="http://www.w3.org/2000/svg" xmlns:xlink="http://www.w3.org/1999/xlink" x="0px" y="0px"
	 viewBox="0 0 24 24" xml:space="preserve">
<g id="Icon">
	<g id="UI-icons-英文名" transform="translate(-939.000000, -765.000000)">
		<g id="提示建议性图标" transform="translate(101.000000, 761.000000)">
			<g id="pause" transform="translate(832.000000, 0.000000)">
				<path id="Shape" class="st0" d="M23,8c-0.6,0-1,0.5-1,1v14c0,0.5,0.5,1,1,1s1-0.5,1-1V9C24,8.5,23.6,8,23,8z"/>
				<path id="Shape-Copy-2" class="st0" d="M13,8c-0.6,0-1,0.5-1,1v14c0,0.5,0.5,1,1,1s1-0.5,1-1V9C14,8.5,13.6,8,13,8z"/>
			</g>
		</g>
	</g>
</g>
</svg>
