<?xml version="1.0" encoding="utf-8"?>
<!-- Generator: Adobe Illustrator 21.0.0, SVG Export Plug-In . SVG Version: 6.00 Build 0)  -->
<svg version="1.1" id="Layer_1" xmlns="http://www.w3.org/2000/svg" xmlns:xlink="http://www.w3.org/1999/xlink" x="0px" y="0px"
	 viewBox="0 0 24 24" xml:space="preserve">
<g id="Icon">
	<g id="UI-icons-英文名" transform="translate(-829.000000, -1902.000000)">
		<g id="网站通用图标" transform="translate(100.000000, 1221.000000)">
			<g id="picture" transform="translate(728.000000, 679.000000)">
				<path id="Shape" class="st0" d="M21.8,5H4.2C3.3,5,2.5,5.7,2.5,6.7v14.7c0,0.9,0.8,1.7,1.7,1.7h17.6c0.9,0,1.7-0.8,1.7-1.7V6.7
					C23.5,5.7,22.7,5,21.8,5z M21.8,21.3L21.8,21.3l-17.6,0l0,0v-5l4.3-4.4l5.1,6.3c0.3,0.3,0.8,0.4,1.1,0.1l3.8-2.5l3.3,1.6V21.3z
					 M21.8,15.2L19,14.1c-0.3-0.2-0.7-0.2-1,0l-3.7,2.5l-5.2-6.4C9,9.9,8.8,9.8,8.6,9.8S8.1,9.9,8,10.1l-3.8,3.9V6.7l0,0h17.6l0,0
					L21.8,15.2z M17.4,8.4c-1.3,0-2.4,1.1-2.4,2.4s1.1,2.4,2.4,2.4s2.4-1.1,2.4-2.4S18.7,8.4,17.4,8.4z M17.4,11.4
					c-0.4,0-0.7-0.3-0.7-0.7s0.3-0.7,0.7-0.7s0.7,0.3,0.7,0.7S17.7,11.4,17.4,11.4z"/>
			</g>
		</g>
	</g>
</g>
</svg>
