<?xml version="1.0" encoding="utf-8"?>
<!-- Generator: Adobe Illustrator 21.0.0, SVG Export Plug-In . SVG Version: 6.00 Build 0)  -->
<svg version="1.1" id="Layer_1" xmlns="http://www.w3.org/2000/svg" xmlns:xlink="http://www.w3.org/1999/xlink" x="0px" y="0px"
	 viewBox="0 0 24 24" xml:space="preserve">
<g id="Icon">
	<g id="UI-icons-英文名" transform="translate(-205.000000, -1481.000000)">
		<g id="网站通用图标" transform="translate(100.000000, 1137.000000)">
			<g id="pushpin" transform="translate(104.000000, 343.000000)">
				<path id="Shape" class="st0" d="M8.1,4.9c0,0.2,0,0.3,0,0.5l0,0.8l0.7,0.5l5,4l0.7,0.6l0.9-0.3c0.7-0.2,1.4-0.3,2.1-0.3
					c0.8,0,1.5,0.1,2.2,0.4c0.4,0.1,0.8,0.3,1.2,0.6l-4,4l-1,1l-0.3,0.3l-4,4c-0.4-0.7-0.7-1.5-0.8-2.3c-0.2-1.1-0.1-2.2,0.2-3.3
					l0.3-0.9l-0.6-0.7l-4-5L6.3,8.1l-0.8,0c0,0-0.1,0-0.1,0c-0.1,0-0.3,0-0.4,0L8.1,4.9z M8.5,2.5c-0.2,0-0.4,0.1-0.6,0.2L2.8,7.9
					C2.4,8.2,2.5,8.8,2.9,9.1c0.7,0.5,1.6,0.7,2.4,0.7c0,0,0.1,0,0.1,0l4,5c-0.9,2.7-0.4,5.7,1.5,8c0.2,0.2,0.4,0.3,0.6,0.3
					c0.2,0,0.4-0.1,0.6-0.2L17,18l5.2,5.2c0.1,0.1,0.3,0.2,0.5,0.2c0.2,0,0.4-0.1,0.5-0.2c0.3-0.3,0.3-0.8,0-1.1L18,16.9l4.8-4.8
					c0.3-0.3,0.3-0.9-0.1-1.2C21.3,9.6,19.4,9,17.5,9c-0.9,0-1.8,0.1-2.6,0.4l-5-4c0-0.9-0.2-1.8-0.7-2.6C9,2.6,8.7,2.5,8.5,2.5z"/>
			</g>
		</g>
	</g>
</g>
</svg>
