<?xml version="1.0" encoding="utf-8"?>
<!-- Generator: Adobe Illustrator 21.0.0, SVG Export Plug-In . SVG Version: 6.00 Build 0)  -->
<svg version="1.1" id="Layer_1" xmlns="http://www.w3.org/2000/svg" xmlns:xlink="http://www.w3.org/1999/xlink" x="0px" y="0px"
	 viewBox="0 0 24 24" xml:space="preserve">
<g id="Icon">
	<g id="UI-icons-英文名" transform="translate(-725.000000, -387.000000)">
		<g id="方向性图标" transform="translate(100.000000, 303.000000)">
			<g id="replace" transform="translate(624.000000, 84.000000)">
				<path id="Combined-Shape" class="st0" d="M18.6,5l-2.4-2.4c-0.4-0.4-0.4-1,0-1.4c0.4-0.4,1-0.4,1.4,0l3.7,3.7
					c0.2,0,0.4,0.1,0.5,0.3c0.2,0.2,0.3,0.5,0.3,0.8c0,0.3-0.1,0.6-0.3,0.8c-0.1,0.1-0.3,0.2-0.5,0.3l-3.7,3.7c-0.4,0.4-1,0.4-1.4,0
					c-0.4-0.4-0.4-1,0-1.4L18.6,7H11H9c-2.8,0-5,2.2-5,5c0,0.6-0.4,1-1,1s-1-0.4-1-1c0-3.9,3.1-7,7-7h2H18.6z M13,19H9H13z"/>
				<path id="Combined-Shape_1_" class="st0" d="M7.5,18.9l2.4,2.4c0.4,0.4,0.4,1,0,1.4c-0.4,0.4-1,0.4-1.4,0L4.8,19
					c-0.2,0-0.4-0.1-0.5-0.3C4.1,18.5,4,18.2,4,17.9c0-0.3,0.1-0.6,0.3-0.8c0.1-0.1,0.3-0.2,0.5-0.3l3.7-3.7c0.4-0.4,1-0.4,1.4,0
					c0.4,0.4,0.4,1,0,1.4l-2.4,2.4h7.6h2c2.8,0,5-2.2,5-5c0-0.6,0.4-1,1-1s1,0.4,1,1c0,3.9-3.1,7-7,7h-2H7.5z M13.1,4.9h4H13.1z"/>
			</g>
		</g>
	</g>
</g>
</svg>
