<?xml version="1.0" encoding="utf-8"?>
<!-- Generator: Adobe Illustrator 21.0.0, SVG Export Plug-In . SVG Version: 6.00 Build 0)  -->
<svg version="1.1" id="Layer_1" xmlns="http://www.w3.org/2000/svg" xmlns:xlink="http://www.w3.org/1999/xlink" x="0px" y="0px"
	 viewBox="0 0 24 24" xml:space="preserve">
<g id="Icon">
	<g id="Aurora_ICONS" transform="translate(-1141.000000, -2239.000000)">
		<g id="网站通用图标" transform="translate(100.000000, 1221.000000)">
			<g id="replies" transform="translate(1040.000000, 1015.000000)">
				<g id="Group-9-Copy-2" transform="translate(1.000000, 3.000000)">
					<path id="Path-2" class="st0" d="M2,4l8.9,6.1c0.7,0.5,1.6,0.5,2.3,0L22.1,4"/>
					<path id="Shape" class="st1" d="M21,3H3C2.1,3,1,4.1,1,5v14c0,0.9,1.1,2,2,2h8c0.5,0,1-0.5,1-1s-0.5-1-1-1l-8,0V5h18v7
						c0,0.5,0.5,1,1,1s1-0.5,1-1V5C23,4.1,21.9,3,21,3z"/>
					<path id="Shape_1_" class="st1" d="M17,14.7l-1.1,1.1l6.3,0c0.6,0,1,0.5,1,1c0,0.6-0.4,1-1,1l-6.4,0l1.2,1.2
						c0.4,0.4,0.4,1,0,1.4c-0.4,0.4-1,0.4-1.4,0l-2.8-2.8c-0.4-0.4-0.4-1,0-1.4l2.8-2.8c0.4-0.4,1-0.4,1.4,0S17.3,14.3,17,14.7z"/>
				</g>
			</g>
		</g>
	</g>
</g>
</svg>
