<?xml version="1.0" encoding="utf-8"?>
<!-- Generator: Adobe Illustrator 16.0.0, SVG Export Plug-In . SVG Version: 6.00 Build 0)  -->
<!DOCTYPE svg PUBLIC "-//W3C//DTD SVG 1.1//EN" "http://www.w3.org/Graphics/SVG/1.1/DTD/svg11.dtd">
<svg version="1.1" id="图层_1" xmlns="http://www.w3.org/2000/svg" xmlns:xlink="http://www.w3.org/1999/xlink" x="0px" y="0px"
	 width="161.754px" height="156.391px" viewBox="0 0 161.754 156.391" enable-background="new 0 0 161.754 156.391"
	 xml:space="preserve">
<g id="图层_2">
</g>
<g>
	<g id="Icon">
		<g transform="translate(-103.000000, -1145.000000)">
			<g transform="translate(100.000000, 1137.000000)">
				<g id="lock" transform="translate(0.000000, 7.000000)">
					<path id="Combined-Shape" d="M54.298,67.125h105.456v11.72v52.727c0,6.446-5.273,11.717-11.717,11.717H66.017
						c-6.445,0-11.719-5.271-11.719-11.717V78.845V67.125z M66.017,78.845v52.727h82.021V78.845H66.017z"/>
					<path id="Combined-Shape_1_" d="M148.037,67.125c0-22.847-18.162-41.009-41.012-41.009c-22.848,0-41.009,18.162-41.009,41.009
						H54.298c0-29.292,23.436-52.727,52.728-52.727c29.293,0,52.729,23.435,52.729,52.727H148.037z"/>
					<path id="Combined-Shape_2_" d="M95.31,96.418c0-6.441,5.271-11.715,11.716-11.715c6.445,0,11.717,5.273,11.717,11.715
						c0,4.688-2.343,8.791-5.856,10.547c0,0,0,0.586,0,1.172v11.718c0,3.515-2.345,5.856-5.86,5.856
						c-3.515,0-5.858-2.342-5.858-5.856v-11.718c0,0,0-0.586,0-1.172C97.653,104.622,95.31,101.107,95.31,96.418z"/>
				</g>
			</g>
		</g>
	</g>
	<path d="M5,148.391c0,4.418,3.582,8,8,8h18.334c4.418,0,8-3.582,8-8V8c0-4.418-3.582-8-8-8H13C8.582,0,5,3.582,5,8
		V148.391z"/>
</g>
</svg>
