<?xml version="1.0" encoding="utf-8"?>
<!-- Generator: Adobe Illustrator 21.0.0, SVG Export Plug-In . SVG Version: 6.00 Build 0)  -->
<svg version="1.1" id="Layer_1" xmlns="http://www.w3.org/2000/svg" xmlns:xlink="http://www.w3.org/1999/xlink" x="0px" y="0px"
	 viewBox="0 0 24 24" xml:space="preserve">
<g id="Icon">
	<g id="UI-icons-英文名" transform="translate(-1149.000000, -557.000000)">
		<g id="方向性图标" transform="translate(101.000000, 304.000000)">
			<g id="sandwich-expand" transform="translate(1044.000000, 251.000000)">
				<path id="Combined-Shape" class="st0" d="M10,5v18c0,0.6-0.4,1-1,1s-1-0.4-1-1V5c0-0.6,0.4-1,1-1S10,4.4,10,5z M17,5v18
					c0,0.6-0.4,1-1,1s-1-0.4-1-1V5c0-0.6,0.4-1,1-1S17,4.4,17,5z M24,5v18c0,0.6-0.4,1-1,1s-1-0.4-1-1V5c0-0.6,0.4-1,1-1
					S24,4.4,24,5z"/>
			</g>
		</g>
	</g>
</g>
</svg>
