<?xml version="1.0" encoding="utf-8"?>
<!-- Generator: Adobe Illustrator 21.0.0, SVG Export Plug-In . SVG Version: 6.00 Build 0)  -->
<svg version="1.1" id="Layer_1" xmlns="http://www.w3.org/2000/svg" xmlns:xlink="http://www.w3.org/1999/xlink" x="0px" y="0px"
	 viewBox="0 0 24 24" xml:space="preserve">
<g id="Icon">
	<g id="UI-icons-英文名" transform="translate(-1042.000000, -559.000000)">
		<g id="方向性图标" transform="translate(101.000000, 304.000000)">
			<g id="sandwich-collapse" transform="translate(939.000000, 251.000000)">
				<path id="Combined-Shape" class="st0" d="M5,22h18c0.6,0,1,0.4,1,1s-0.4,1-1,1H5c-0.6,0-1-0.4-1-1S4.4,22,5,22z M5,15h18
					c0.6,0,1,0.4,1,1s-0.4,1-1,1H5c-0.6,0-1-0.4-1-1S4.4,15,5,15z M5,8h18c0.6,0,1,0.4,1,1s-0.4,1-1,1H5c-0.6,0-1-0.4-1-1S4.4,8,5,8
					z"/>
			</g>
		</g>
	</g>
</g>
</svg>
