<?xml version="1.0" encoding="utf-8"?>
<!-- Generator: Adobe Illustrator 21.0.0, SVG Export Plug-In . SVG Version: 6.00 Build 0)  -->
<svg version="1.1" id="Layer_1" xmlns="http://www.w3.org/2000/svg" xmlns:xlink="http://www.w3.org/1999/xlink" x="0px" y="0px"
	 viewBox="0 0 24 24" xml:space="preserve">
<g id="Icon">
	<g id="UI-icons-英文名" transform="translate(-622.000000, -1561.000000)">
		<g id="网站通用图标" transform="translate(101.000000, 1053.000000)">
			<g id="shopping-card" transform="translate(520.000000, 506.000000)">
				<path id="Shape" class="st0" d="M22.7,17.9h-14l0.9-1h11.5c0.4,0,0.7-0.8,0.8-1.1l1.6-9c0-0.2,0-0.5-0.2-0.7
					C23.2,5.9,22.9,6,22.7,6H8.1L7.8,5C7.7,4.6,7.3,4.1,6.9,4.1H3.3C2.9,4.1,2.5,4.5,2.5,5s0.4,1,0.8,1H6l0.7,3l1.5,6.2l-1.7,3.1
					c-0.2,0.3-0.2,0.6-0.1,0.9c0.1,0.3,0.4,0.5,0.7,0.5h1.5C8.2,20,8.1,20.5,8.1,21c0,1.3,1.1,2.4,2.4,2.4s2.4-1.1,2.4-2.4
					c0-0.5-0.2-1-0.5-1.4h3.8c-0.3,0.4-0.5,0.9-0.5,1.4c0,1.3,1.1,2.4,2.4,2.4c1.3,0,2.4-1.1,2.4-2.4c0-0.5-0.2-1-0.5-1.4h2.7
					c0.5,0,0.8-0.4,0.8-0.8C23.5,18.3,23.1,17.9,22.7,17.9z M8.5,7.9H15h6.3L20.1,15H10L8.5,7.9z M10.5,21.8c-0.4,0-0.7-0.3-0.7-0.7
					s0.3-0.7,0.7-0.7c0.4,0,0.7,0.3,0.7,0.7C11.2,21.4,10.9,21.8,10.5,21.8z M18.1,21.8c-0.4,0-0.7-0.3-0.7-0.7s0.3-0.7,0.7-0.7
					c0.4,0,0.7,0.3,0.7,0.7C18.8,21.4,18.5,21.8,18.1,21.8z"/>
			</g>
		</g>
	</g>
</g>
</svg>
