<?xml version="1.0" encoding="utf-8"?>
<!-- Generator: Adobe Illustrator 21.0.0, SVG Export Plug-In . SVG Version: 6.00 Build 0)  -->
<svg version="1.1" id="Layer_1" xmlns="http://www.w3.org/2000/svg" xmlns:xlink="http://www.w3.org/1999/xlink" x="0px" y="0px"
	 viewBox="0 0 24 24" xml:space="preserve">
<g id="Icon">
	<g id="UI-icons-英文名" transform="translate(-933.000000, -1229.000000)">
		<g id="网站通用图标" transform="translate(100.000000, 1221.000000)">
			<g id="statistics" transform="translate(832.000000, 7.000000)">
				<path id="Combined-Shape" class="st0" d="M4,22h19c0.6,0,1,0.4,1,1s-0.4,1-1,1H3c-0.6,0-1-0.4-1-1V3c0-0.6,0.4-1,1-1s1,0.4,1,1
					V22z M8,12c0.6,0,1,0.4,1,1v6c0,0.6-0.4,1-1,1s-1-0.4-1-1v-6C7,12.4,7.4,12,8,12z M14,9c0.6,0,1,0.4,1,1v9c0,0.6-0.4,1-1,1
					s-1-0.4-1-1v-9C13,9.4,13.4,9,14,9z M20,6c0.6,0,1,0.4,1,1v12c0,0.6-0.4,1-1,1s-1-0.4-1-1V7C19,6.4,19.4,6,20,6z"/>
			</g>
		</g>
	</g>
</g>
</svg>
