<?xml version="1.0" encoding="utf-8"?>
<!-- Generator: Adobe Illustrator 21.0.0, SVG Export Plug-In . SVG Version: 6.00 Build 0)  -->
<svg version="1.1" id="Layer_1" xmlns="http://www.w3.org/2000/svg" xmlns:xlink="http://www.w3.org/1999/xlink" x="0px" y="0px"
	 viewBox="0 0 24 24" xml:space="preserve">
<g id="Icon">
	<g id="_x36_.21版本" transform="translate(-412.000000, -845.000000)">
		<g id="提示建议性图标" transform="translate(100.000000, 761.000000)">
			<g id="successful" transform="translate(312.000000, 84.000000)">
				<path id="check-circle" class="st0" d="M12,0C5.4,0,0,5.4,0,12s5.4,12,12,12s12-5.4,12-12S18.6,0,12,0z M19.3,19.3
					c-0.9,0.9-2.1,1.7-3.3,2.2c-1.3,0.5-2.6,0.8-4,0.8S9.3,22,8,21.5c-1.2-0.5-2.3-1.3-3.3-2.2C3.8,18.3,3,17.2,2.5,16
					c-0.5-1.3-0.8-2.6-0.8-4S2,9.3,2.5,8C3,6.8,3.8,5.7,4.7,4.7C5.7,3.8,6.8,3,8,2.5c1.3-0.5,2.6-0.8,4-0.8s2.7,0.3,4,0.8
					c1.2,0.5,2.3,1.3,3.3,2.2C20.2,5.7,21,6.8,21.5,8c0.5,1.3,0.8,2.6,0.8,4s-0.3,2.7-0.8,4C21,17.2,20.2,18.3,19.3,19.3z"/>
				<path id="Combined-Shape" class="st0" d="M10.6,16c-0.2,0-0.5-0.1-0.7-0.3l-3.7-3.6c-0.4-0.3-0.4-0.9,0-1.3
					c0.4-0.3,0.9-0.3,1.3,0l3,2.9l5.8-5.6c0.4-0.3,0.9-0.3,1.3,0c0.4,0.3,0.4,0.9,0,1.3l-6.5,6.2C11.1,15.9,10.9,16,10.6,16L10.6,16
					z"/>
			</g>
		</g>
	</g>
</g>
</svg>
