<?xml version="1.0" encoding="utf-8"?>
<!-- Generator: Adobe Illustrator 21.0.0, SVG Export Plug-In . SVG Version: 6.00 Build 0)  -->
<svg version="1.1" id="Layer_1" xmlns="http://www.w3.org/2000/svg" xmlns:xlink="http://www.w3.org/1999/xlink" x="0px" y="0px"
	 viewBox="0 0 24 24" xml:space="preserve">
<g id="Icon">
	<g id="_x36_.21版本" transform="translate(-100.000000, -929.000000)">
		<g id="提示建议性图标" transform="translate(100.000000, 761.000000)">
			<g id="Success" transform="translate(0.000000, 168.000000)">
				<path id="Combined-Shape" class="st0" d="M12,24C5.4,24,0,18.6,0,12S5.4,0,12,0s12,5.4,12,12S18.6,24,12,24z M10.6,16L10.6,16
					c0.2,0,0.5-0.1,0.7-0.3l6.5-6.2c0.4-0.3,0.4-0.9,0-1.3c-0.4-0.3-0.9-0.3-1.3,0l-5.8,5.6l-3-2.9c-0.4-0.3-0.9-0.3-1.3,0
					c-0.4,0.3-0.4,0.9,0,1.3l3.7,3.6C10.1,15.9,10.4,16,10.6,16z"/>
			</g>
		</g>
	</g>
</g>
</svg>
