<?xml version="1.0" encoding="utf-8"?>
<!-- Generator: Adobe Illustrator 21.0.0, SVG Export Plug-In . SVG Version: 6.00 Build 0)  -->
<svg version="1.1" id="Layer_1" xmlns="http://www.w3.org/2000/svg" xmlns:xlink="http://www.w3.org/1999/xlink" x="0px" y="0px"
	 viewBox="0 0 24 24" xml:space="preserve">
<g id="Icon">
	<g id="_x36_.21版本" transform="translate(-620.000000, -2237.000000)">
		<g id="网站通用图标" transform="translate(100.000000, 1221.000000)">
			<g id="task-cooperation" transform="translate(520.000000, 1015.000000)">
				<path id="Combined-Shape" class="st0" d="M12,10c-2.2,0-4-1.8-4-4s1.8-4,4-4s4,1.8,4,4S14.2,10,12,10z M12,8c1.1,0,2-0.9,2-2
					s-0.9-2-2-2s-2,0.9-2,2S10.9,8,12,8z M4,22c-2.2,0-4-1.8-4-4s1.8-4,4-4s4,1.8,4,4S6.2,22,4,22z M4,20c1.1,0,2-0.9,2-2
					c0-1.1-0.9-2-2-2s-2,0.9-2,2C2,19.1,2.9,20,4,20z M20,22c-2.2,0-4-1.8-4-4s1.8-4,4-4s4,1.8,4,4S22.2,22,20,22z M20,20
					c1.1,0,2-0.9,2-2c0-1.1-0.9-2-2-2s-2,0.9-2,2C18,19.1,18.9,20,20,20z"/>
				<path id="Combined-Shape_1_" class="st0" d="M18.3,20.5C16.7,22,14.4,23,12,23s-4.7-1-6.3-2.5c0.6-0.4,1-1,1.2-1.7
					C8.2,20.2,10,21,12,21s3.8-0.8,5.1-2.2C17.3,19.5,17.7,20.1,18.3,20.5z M20.9,15.1C20.6,15.1,20.3,15,20,15
					c-0.4,0-0.8,0.1-1.1,0.2C19,14.8,19,14.4,19,14c0-3.2-2.1-5.9-5-6.7c0.5-0.4,0.9-1.1,1-1.8c3.5,1.2,6,4.6,6,8.5
					C21,14.4,21,14.8,20.9,15.1z M3.1,15.1C3,14.8,3,14.4,3,14c0-3.9,2.5-7.3,6-8.5c0.1,0.7,0.5,1.3,1,1.8C7.1,8.1,5,10.8,5,14
					c0,0.4,0,0.8,0.1,1.2C4.8,15.1,4.4,15,4,15C3.7,15,3.4,15.1,3.1,15.1z"/>
			</g>
		</g>
	</g>
</g>
</svg>
