<?xml version="1.0" standalone="no"?><svg t="1553912030538" class="icon" viewBox="0 0 1024 1024" version="1.1" xmlns="http://www.w3.org/2000/svg" p-id="7161" xmlns:xlink="http://www.w3.org/1999/xlink" ><path d="M651.4688 835.8912c-18.432 0-36.5568-2.7648-51.8144-8.6016-2.9696-0.9216-8.704-2.8672-17.92-6.3488-14.7456-5.632-30.1056-12.288-45.7728-19.7632-49.8688-23.9616-96.256-53.6576-137.9328-88.2688-17.8176-14.848-34.816-30.6176-50.4832-47.0016-12.5952-13.2096-24.9856-27.3408-36.5568-41.8816-36.0448-45.056-66.4576-95.232-90.4192-149.2992-7.5776-16.9984-14.1312-33.5872-19.5584-49.5616-2.56-7.4752-4.7104-14.2336-5.7344-18.0224-6.7584-19.3536-8.704-43.4176-5.4272-67.9936 3.2768-24.6784 11.5712-47.8208 23.2448-65.024 0.9216-1.4336 3.1744-4.8128 6.656-9.9328 5.4272-7.9872 10.752-15.4624 15.6672-22.1184 2.3552-3.1744 4.608-6.144 6.8608-8.9088 6.144-7.7824 11.5712-13.9264 16.384-18.7392 35.5328-34.9184 85.0944-34.9184 120.6272 0 11.3664 11.1616 60.0064 59.904 77.1072 77.1072 36.4544 36.7616 36.4544 86.016 0.1024 122.5728-4.1984 4.3008-13.4144 13.5168-26.112 26.2144l-17.1008 17.1008c0.9216 2.048 1.9456 4.3008 3.072 6.7584 7.9872 17.2032 16.5888 33.1776 25.4976 47.4112 10.24 16.2816 20.5824 29.4912 30.72 39.3216 9.5232 9.3184 21.2992 18.6368 34.816 27.7504 15.1552 10.1376 32.0512 19.7632 50.3808 28.5696 2.9696 1.4336 5.7344 2.7648 8.192 3.8912l19.6608-19.5584c10.9568-10.8544 19.5584-19.456 25.088-24.8832 35.5328-35.2256 85.1968-35.2256 120.7296 0 25.1904 24.9856 51.3024 51.0976 77.6192 77.5168 17.6128 17.7152 26.8288 38.8096 26.7264 61.0304-0.1024 22.1184-9.4208 43.2128-27.0336 61.0304-6.3488 6.4512-15.9744 13.7216-30.3104 22.9376-2.7648 1.7408-5.8368 3.6864-8.9088 5.632-7.8848 4.8128-16.5888 10.0352-25.9072 15.36-5.2224 2.9696-9.216 5.2224-11.3664 6.3488-22.3232 12.5952-52.1216 19.3536-80.7936 19.3536zM318.8736 229.888c-10.6496 0-21.1968 4.7104-30.9248 14.2336-3.584 3.4816-7.8848 8.4992-12.9024 14.848-1.9456 2.4576-3.9936 5.12-6.144 7.9872-4.608 6.2464-9.5232 13.2096-14.6432 20.6848-3.584 5.2224-5.632 8.4992-6.2464 9.4208l-0.3072 0.4096c-16.896 24.7808-22.8352 68.9152-12.8 96.3584l0.4096 1.1264 0.3072 1.1264c0.3072 1.2288 1.9456 6.7584 4.9152 15.4624 5.0176 14.7456 11.1616 30.3104 18.2272 46.08 22.528 50.688 51.0976 97.8944 84.8896 140.0832 10.8544 13.6192 22.3232 26.7264 34.0992 39.0144 14.5408 15.2576 30.4128 29.9008 47.0016 43.7248 39.0144 32.4608 82.432 60.3136 129.2288 82.7392 14.6432 7.0656 28.8768 13.2096 42.496 18.3296 9.5232 3.584 14.6432 5.2224 15.9744 5.632l0.7168 0.2048 0.7168 0.3072c27.136 10.4448 71.7824 6.7584 97.4848-7.9872l0.512-0.3072c1.7408-0.9216 5.632-3.072 10.752-6.0416 8.9088-5.12 17.2032-9.9328 24.6784-14.5408 2.9696-1.8432 5.7344-3.584 8.2944-5.2224 11.3664-7.3728 19.2512-13.1072 23.2448-17.2032 19.7632-19.5584 19.8656-43.1104 0.4096-62.7712-26.2144-26.4192-52.224-52.4288-77.312-77.312-19.3536-19.1488-42.3936-19.1488-61.7472 0-5.5296 5.4272-14.0288 13.9264-24.9856 24.8832L575.5904 660.48l-12.8-5.2224c-4.608-1.8432-12.3904-5.2224-23.2448-10.4448-20.0704-9.728-38.7072-20.2752-55.5008-31.5392-15.6672-10.5472-29.3888-21.504-40.7552-32.5632-12.4928-12.1856-24.8832-27.9552-36.864-46.8992-9.9328-15.7696-19.456-33.28-28.16-52.1216-4.9152-10.6496-7.9872-18.0224-9.3184-21.504l-5.0176-12.8 36.7616-36.7616 26.112-26.112c19.968-20.0704 19.968-43.2128-0.1024-63.488-17.1008-17.2032-65.4336-65.6384-76.6976-76.6976-9.8304-9.6256-20.48-14.4384-31.1296-14.4384z" p-id="7162"></path><path d="M512 512z" p-id="7163"></path></svg>