<?xml version="1.0" encoding="utf-8"?>
<!-- Generator: Adobe Illustrator 21.0.0, SVG Export Plug-In . SVG Version: 6.00 Build 0)  -->
<svg version="1.1" id="Layer_1" xmlns="http://www.w3.org/2000/svg" xmlns:xlink="http://www.w3.org/1999/xlink" x="0px" y="0px"
	 viewBox="0 0 24 24" xml:space="preserve">
<g id="Icon">
	<g id="UI-icons-英文名" transform="translate(-934.000000, -2069.000000)">
		<g id="网站通用图标" transform="translate(100.000000, 1136.000000)">
			<g id="undelete" transform="translate(834.000000, 932.000000)">
				<path class="st0" d="M19,13h-2V8H5.9H4v14h8v2l-8,0c-0.9,0-2-1.1-2-2V8H1C0.5,8,0,7.4,0,7s0.5-1,1-1h4V4.7
					C5,3.7,5.9,3,6.8,3h7.4C15.1,3,16,3.7,16,4.7V6h4c0.2,0,0.6,0.1,0.8,0.2S21,6.8,21,7c0,0.5-0.6,1-1,1h-1V13z M7,5v1h7V5H7z"/>
				<path id="Rectangle-3" class="st0" d="M8,10L8,10c0.6,0,1,0.4,1,1v8c0,0.6-0.4,1-1,1l0,0c-0.6,0-1-0.4-1-1v-8
					C7,10.4,7.4,10,8,10z"/>
				<path class="st0" d="M12,14v-3c0-0.6,0.4-1,1-1s1,0.4,1,1v3c0,0.6-0.4,1-1,1S12,14.6,12,14z"/>
				<path class="st0" d="M24,17.8C24,17.9,23.9,17.9,24,17.8c-1.1,1-2.3,1.8-3.6,2.3
					c-1.3,0.5-2.8,0.8-4.2,0.8l1.6,1.6c0.3,0.3,0.3,0.9,0,1.2c-0.3,0.3-0.9,0.3-1.2,0l-3.3-3.2c-0.3-0.3-0.3-0.9,0-1.2l3.3-3.2
					c0.3-0.3,0.9-0.3,1.2,0c0.3,0.3,0.3,0.9,0,1.2l-2,1.9c0.1,0,0.2,0,0.3,0c2.5,0,4.8-0.9,6.5-2.6c0.5-0.5,1-1,1.3-1.6V17.8z"/>
			</g>
		</g>
	</g>
</g>
</svg>
