<?xml version="1.0" encoding="utf-8"?>
<!-- Generator: Adobe Illustrator 21.0.0, SVG Export Plug-In . SVG Version: 6.00 Build 0)  -->
<svg version="1.1" id="Layer_1" xmlns="http://www.w3.org/2000/svg" xmlns:xlink="http://www.w3.org/1999/xlink" x="0px" y="0px"
	 viewBox="0 0 24 24" xml:space="preserve">
<g id="Icon">
	<g transform="translate(-207.000000, -1145.000000)">
		<g transform="translate(100.000000, 1137.000000)">
			<g transform="translate(104.000000, 7.000000)">
				<path class="st0" d="M24,13v9c0,1.1-0.9,2-2,2H8c-1.1,0-2-0.9-2-2v-9v-2h18V13z M8,13v9h14v-9H8z"/>
				<path class="st0" d="M16,17.8c0,0.1,0,0.2,0,0.2v2c0,0.6-0.4,1-1,1s-1-0.4-1-1v-2c0-0.1,0-0.2,0-0.2
					c-0.6-0.3-1-1-1-1.8c0-1.1,0.9-2,2-2s2,0.9,2,2C17,16.8,16.6,17.4,16,17.8z"/>
				<path class="st0" d="M23.5,8h-2.2c-1.1-2.4-3.5-4-6.3-4c-3.9,0-7,3.1-7,7H6c0-5,4-9,9-9
					C18.9,2,22.3,4.5,23.5,8z M24,11h-2H24z"/>
			</g>
		</g>
	</g>
</g>
</svg>
