<?xml version="1.0" encoding="utf-8"?>
<!-- Generator: Adobe Illustrator 21.0.0, SVG Export Plug-In . SVG Version: 6.00 Build 0)  -->
<svg version="1.1" id="Layer_1" xmlns="http://www.w3.org/2000/svg" xmlns:xlink="http://www.w3.org/1999/xlink" x="0px" y="0px"
	 viewBox="0 0 24 24" xml:space="preserve">
<g id="Icon">
	<g id="Aurora_ICONS" transform="translate(-933.000000, -2239.000000)">
		<g id="网站通用图标" transform="translate(100.000000, 1221.000000)">
			<g id="unsent" transform="translate(832.000000, 1015.000000)">
				<g id="Group-9" transform="translate(1.000000, 3.000000)">
					<path id="Path-2" class="st0" d="M2,4l8.9,6.1c0.7,0.5,1.6,0.5,2.3,0L22.1,4"/>
					<path id="Shape" class="st1" d="M21,3H3C2.1,3,1,4.1,1,5v14c0,0.9,1.1,2,2,2h11c0.5,0,1-0.5,1-1s-0.5-1-1-1L3,19V5h18v7
						c0,0.5,0.5,1,1,1s1-0.5,1-1V5C23,4.1,21.9,3,21,3z"/>
					<path id="Rectangle-4" class="st1" d="M18.1,14.7l4.2,4.2c0.4,0.4,0.4,1,0,1.4l0,0c-0.4,0.4-1,0.4-1.4,0l-4.2-4.2
						c-0.4-0.4-0.4-1,0-1.4l0,0C17.1,14.3,17.7,14.3,18.1,14.7z"/>
					<path id="Rectangle-4_1_" class="st1" d="M16.7,18.9l4.2-4.2c0.4-0.4,1-0.4,1.4,0l0,0c0.4,0.4,0.4,1,0,1.4l-4.2,4.2
						c-0.4,0.4-1,0.4-1.4,0l0,0C16.3,20,16.3,19.3,16.7,18.9z"/>
				</g>
			</g>
		</g>
	</g>
</g>
</svg>
