<?xml version="1.0" encoding="utf-8"?>
<!-- Generator: Adobe Illustrator 21.0.0, SVG Export Plug-In . SVG Version: 6.00 Build 0)  -->
<svg version="1.1" id="Layer_1" xmlns="http://www.w3.org/2000/svg" xmlns:xlink="http://www.w3.org/1999/xlink" x="0px" y="0px"
	 viewBox="0 0 24 24" xml:space="preserve">
<g id="Icon">
	<g transform="translate(-413.000000, -1733.000000)">
		<g transform="translate(48.000000, 0.000000)">
			<g id="upload" transform="translate(364.000000, 1732.000000)">
				<path class="st0" d="M4,22h18v-4c0-0.6,0.4-1,1-1s1,0.4,1,1v5c0,0.6-0.4,1-1,1H3c-0.6,0-1-0.4-1-1v-5
					c0-0.6,0.4-1,1-1s1,0.4,1,1V22z M14,5.3v12.7c0,0.6-0.4,1-1,1s-1-0.4-1-1V5.5L8.7,8.8c-0.4,0.4-1,0.4-1.4,0
					c-0.4-0.4-0.4-1,0-1.4l5.1-5.1c0.4-0.4,1-0.4,1.4,0l5.1,5.1c0.4,0.4,0.4,1,0,1.4c-0.4,0.4-1,0.4-1.4,0L14,5.3z"/>
			</g>
		</g>
	</g>
</g>
</svg>
