<?xml version="1.0" encoding="utf-8"?>
<!-- Generator: Adobe Illustrator 21.0.0, SVG Export Plug-In . SVG Version: 6.00 Build 0)  -->
<svg version="1.1" id="Layer_1" xmlns="http://www.w3.org/2000/svg" xmlns:xlink="http://www.w3.org/1999/xlink" x="0px" y="0px"
	 viewBox="0 0 24 24" xml:space="preserve">
<g id="Icon">
	<g transform="translate(-417.000000, -1138.000000)">
		<g transform="translate(101.000000, 1053.000000)">
			<g id="user" transform="translate(312.000000, 84.000000)">
				<path class="st0" d="M23.2,19.6c-0.4-0.9-1-1.8-1.7-2.5S20,15.8,19,15.4c-0.3-0.1-0.6-0.2-1-0.3
					c0.9-0.3,1.8-0.8,2.5-1.6c1.2-1.2,1.9-2.8,1.9-4.6s-0.7-3.3-1.9-4.6c-1.2-1.2-2.8-1.9-4.6-1.9s-3.3,0.7-4.6,1.9
					C10.2,5.7,9.5,7.3,9.5,9s0.7,3.3,1.9,4.6c0.7,0.7,1.6,1.2,2.5,1.6c-0.3,0.1-0.7,0.2-1,0.3c-0.9,0.4-1.8,1-2.5,1.7
					c-0.7,0.7-1.3,1.6-1.7,2.5c-0.4,1-0.6,2-0.6,3c0,0.5,0.4,0.8,0.8,0.8c0.5,0,0.8-0.4,0.8-0.8c0-1.6,0.6-3.2,1.8-4.3
					s2.7-1.8,4.3-1.8s3.2,0.6,4.3,1.8c1.2,1.2,1.8,2.7,1.8,4.3c0,0.5,0.4,0.8,0.8,0.8c0.5,0,0.8-0.4,0.8-0.8
					C23.8,21.6,23.6,20.6,23.2,19.6z M11.2,9c0-2.6,2.1-4.8,4.8-4.8s4.8,2.1,4.8,4.8s-2.1,4.8-4.8,4.8S11.2,11.6,11.2,9z"/>
			</g>
		</g>
	</g>
</g>
</svg>
