<?xml version="1.0" encoding="utf-8"?>
<!-- Generator: Adobe Illustrator 21.0.0, SVG Export Plug-In . SVG Version: 6.00 Build 0)  -->
<svg version="1.1" id="Layer_1" xmlns="http://www.w3.org/2000/svg" xmlns:xlink="http://www.w3.org/1999/xlink" x="0px" y="0px"
	 viewBox="0 0 24 24" xml:space="preserve">
<g id="Icon">
	<g transform="translate(-1248.000000, -1902.000000)">
		<g transform="translate(101.000000, 1053.000000)">
			<g transform="translate(1145.000000, 849.000000)">
				<path class="st0" d="M16.6,6.6l-7.5,7.6c-0.3,0.3-0.3,0.7,0,1c0.1,0.1,0.4,0.2,0.5,0.2c0.1,0,0.4-0.1,0.5-0.2
					l7.5-7.5c0.3-0.3,0.3-0.7,0-1C17.3,6.4,16.9,6.4,16.6,6.6z"/>
				<path class="st0" d="M12.7,21L24,9.5c0.4-0.4,0.6-0.9,0.6-1.4c0-0.6-0.2-1.1-0.6-1.4l-4.2-4.3
					c-0.8-0.8-2.1-0.8-2.8,0L4.7,14.8l-0.1,0.1C4.2,15.3,4,15.8,4,16.4v4.3c0,0.6,0.2,1.1,0.6,1.4s0.9,0.6,1.4,0.6h4.2
					c0.6,0,1.1-0.2,1.4-0.6c0.1-0.1,0.1-0.1,0.1-0.1L12.7,21C12.6,21.1,12.6,21.1,12.7,21C12.7,21.1,12.7,21,12.7,21z M19.7,8.7
					c-0.3-0.3-0.7-0.3-1,0l-8.5,8.5l-3-3l9.4-9.5l5,5l-9.6,9.4l-1-1l8.5-8.5C20,9.4,20,8.9,19.7,8.7z M18.8,3.3L23,7.5
					c0.1,0.1,0.1,0.3,0.1,0.4S23.1,8.2,23,8.4l-0.4,0.4l-5-5L18,3.3C18.2,3.1,18.5,3.1,18.8,3.3z M10.6,20.7
					c-0.1,0.1-0.3,0.2-0.4,0.2H6c-0.1,0-0.3-0.1-0.4-0.1c-0.1-0.1-0.1-0.3-0.1-0.4v-4.2c0-0.2,0.1-0.4,0.2-0.4l0.1-0.1v-0.1l0,0
					l0.4-0.4l5,5l-0.4,0.4L10.6,20.7z"/>
				<path class="st0" d="M23.9,21h-9.9c-0.4,0-0.7,0.4-0.7,1s0.3,1,0.7,1h9.9c0.4,0,0.7-0.4,0.7-1S24.3,21,23.9,21z"
					/>
			</g>
		</g>
	</g>
</g>
</svg>
