<?xml version="1.0" standalone="no"?><svg t="1572574367312" class="icon" viewBox="0 0 1024 1024" version="1.1" xmlns="http://www.w3.org/2000/svg" p-id="1831" xmlns:xlink="http://www.w3.org/1999/xlink" ><path d="M948.522468 896.40088 715.466528 663.345963c58.540278-70.264297 95.164407-159.438269 95.164407-258.044054 0-223.844138-181.464935-405.300886-405.309072-405.300886-223.836975 0-405.300886 181.456748-405.300886 405.300886 0 223.836975 181.464935 405.300886 405.300886 405.300886 98.598622 0 187.772594-36.616966 258.036891-95.15008l233.05594 233.05594c14.391778 14.384615 37.714973 14.384615 52.106752 0S962.914246 910.778332 948.522468 896.40088zM405.322885 736.911446c-183.137017 0-331.602374-148.465356-331.602374-331.61056S222.185868 73.691349 405.322885 73.691349c183.14418 0 331.61056 148.465356 331.61056 331.61056C736.933445 565.940516 607.038026 736.911446 405.322885 736.911446z" p-id="1832"></path><path d="M552.705584 368.455723 257.948373 368.455723c-20.35356 0-36.853349 16.499789-36.853349 36.845163s16.499789 36.845163 36.853349 36.845163l294.757211 0c20.35356 0 36.845163-16.499789 36.845163-36.845163S573.059144 368.455723 552.705584 368.455723z" p-id="1833"></path></svg>